%TF.GenerationSoftware,KiCad,Pcbnew,6.0.11+dfsg-1~bpo11+1*%
%TF.CreationDate,2023-04-06T13:38:35+02:00*%
%TF.ProjectId,aout-4_11,616f7574-2d34-45f3-9131-2e6b69636164,1.1*%
%TF.SameCoordinates,Original*%
%TF.FileFunction,Legend,Top*%
%TF.FilePolarity,Positive*%
%FSLAX46Y46*%
G04 Gerber Fmt 4.6, Leading zero omitted, Abs format (unit mm)*
G04 Created by KiCad (PCBNEW 6.0.11+dfsg-1~bpo11+1) date 2023-04-06 13:38:35*
%MOMM*%
%LPD*%
G01*
G04 APERTURE LIST*
%ADD10C,0.110000*%
%ADD11C,0.200000*%
%ADD12C,0.120000*%
%ADD13C,0.150000*%
%ADD14C,0.100000*%
G04 APERTURE END LIST*
D10*
X165516666Y-115050000D02*
X165450000Y-115016666D01*
X165350000Y-115016666D01*
X165250000Y-115050000D01*
X165183333Y-115116666D01*
X165150000Y-115183333D01*
X165116666Y-115316666D01*
X165116666Y-115416666D01*
X165150000Y-115550000D01*
X165183333Y-115616666D01*
X165250000Y-115683333D01*
X165350000Y-115716666D01*
X165416666Y-115716666D01*
X165516666Y-115683333D01*
X165550000Y-115650000D01*
X165550000Y-115416666D01*
X165416666Y-115416666D01*
X165850000Y-115716666D02*
X165850000Y-115016666D01*
X166250000Y-115716666D01*
X166250000Y-115016666D01*
X166583333Y-115716666D02*
X166583333Y-115016666D01*
X166750000Y-115016666D01*
X166850000Y-115050000D01*
X166916666Y-115116666D01*
X166950000Y-115183333D01*
X166983333Y-115316666D01*
X166983333Y-115416666D01*
X166950000Y-115550000D01*
X166916666Y-115616666D01*
X166850000Y-115683333D01*
X166750000Y-115716666D01*
X166583333Y-115716666D01*
X167283333Y-115716666D02*
X167283333Y-115016666D01*
X167450000Y-115016666D01*
X167550000Y-115050000D01*
X167616666Y-115116666D01*
X167650000Y-115183333D01*
X167683333Y-115316666D01*
X167683333Y-115416666D01*
X167650000Y-115550000D01*
X167616666Y-115616666D01*
X167550000Y-115683333D01*
X167450000Y-115716666D01*
X167283333Y-115716666D01*
X165516666Y-88050000D02*
X165450000Y-88016666D01*
X165350000Y-88016666D01*
X165250000Y-88050000D01*
X165183333Y-88116666D01*
X165150000Y-88183333D01*
X165116666Y-88316666D01*
X165116666Y-88416666D01*
X165150000Y-88550000D01*
X165183333Y-88616666D01*
X165250000Y-88683333D01*
X165350000Y-88716666D01*
X165416666Y-88716666D01*
X165516666Y-88683333D01*
X165550000Y-88650000D01*
X165550000Y-88416666D01*
X165416666Y-88416666D01*
X165850000Y-88716666D02*
X165850000Y-88016666D01*
X166250000Y-88716666D01*
X166250000Y-88016666D01*
X166583333Y-88716666D02*
X166583333Y-88016666D01*
X166750000Y-88016666D01*
X166850000Y-88050000D01*
X166916666Y-88116666D01*
X166950000Y-88183333D01*
X166983333Y-88316666D01*
X166983333Y-88416666D01*
X166950000Y-88550000D01*
X166916666Y-88616666D01*
X166850000Y-88683333D01*
X166750000Y-88716666D01*
X166583333Y-88716666D01*
X167283333Y-88716666D02*
X167283333Y-88016666D01*
X167450000Y-88016666D01*
X167550000Y-88050000D01*
X167616666Y-88116666D01*
X167650000Y-88183333D01*
X167683333Y-88316666D01*
X167683333Y-88416666D01*
X167650000Y-88550000D01*
X167616666Y-88616666D01*
X167550000Y-88683333D01*
X167450000Y-88716666D01*
X167283333Y-88716666D01*
X165133333Y-113183333D02*
X165233333Y-113216666D01*
X165400000Y-113216666D01*
X165466666Y-113183333D01*
X165500000Y-113150000D01*
X165533333Y-113083333D01*
X165533333Y-113016666D01*
X165500000Y-112950000D01*
X165466666Y-112916666D01*
X165400000Y-112883333D01*
X165266666Y-112850000D01*
X165200000Y-112816666D01*
X165166666Y-112783333D01*
X165133333Y-112716666D01*
X165133333Y-112650000D01*
X165166666Y-112583333D01*
X165200000Y-112550000D01*
X165266666Y-112516666D01*
X165433333Y-112516666D01*
X165533333Y-112550000D01*
X166233333Y-113150000D02*
X166200000Y-113183333D01*
X166100000Y-113216666D01*
X166033333Y-113216666D01*
X165933333Y-113183333D01*
X165866666Y-113116666D01*
X165833333Y-113050000D01*
X165800000Y-112916666D01*
X165800000Y-112816666D01*
X165833333Y-112683333D01*
X165866666Y-112616666D01*
X165933333Y-112550000D01*
X166033333Y-112516666D01*
X166100000Y-112516666D01*
X166200000Y-112550000D01*
X166233333Y-112583333D01*
X166866666Y-113216666D02*
X166533333Y-113216666D01*
X166533333Y-112516666D01*
X167466666Y-113216666D02*
X167066666Y-113216666D01*
X167266666Y-113216666D02*
X167266666Y-112516666D01*
X167200000Y-112616666D01*
X167133333Y-112683333D01*
X167066666Y-112716666D01*
X124933333Y-98550000D02*
X125466666Y-98550000D01*
X125200000Y-98816666D02*
X125200000Y-98283333D01*
X125700000Y-98116666D02*
X125933333Y-98816666D01*
X126166666Y-98116666D01*
X123566666Y-104816666D02*
X123800000Y-105516666D01*
X124033333Y-104816666D01*
X124400000Y-104816666D02*
X124533333Y-104816666D01*
X124600000Y-104850000D01*
X124666666Y-104916666D01*
X124700000Y-105050000D01*
X124700000Y-105283333D01*
X124666666Y-105416666D01*
X124600000Y-105483333D01*
X124533333Y-105516666D01*
X124400000Y-105516666D01*
X124333333Y-105483333D01*
X124266666Y-105416666D01*
X124233333Y-105283333D01*
X124233333Y-105050000D01*
X124266666Y-104916666D01*
X124333333Y-104850000D01*
X124400000Y-104816666D01*
X125000000Y-105516666D02*
X125000000Y-104816666D01*
X125233333Y-105316666D01*
X125466666Y-104816666D01*
X125466666Y-105516666D01*
X125733333Y-104816666D02*
X126166666Y-104816666D01*
X125933333Y-105083333D01*
X126033333Y-105083333D01*
X126100000Y-105116666D01*
X126133333Y-105150000D01*
X126166666Y-105216666D01*
X126166666Y-105383333D01*
X126133333Y-105450000D01*
X126100000Y-105483333D01*
X126033333Y-105516666D01*
X125833333Y-105516666D01*
X125766666Y-105483333D01*
X125733333Y-105450000D01*
X124016666Y-90450000D02*
X123950000Y-90416666D01*
X123850000Y-90416666D01*
X123750000Y-90450000D01*
X123683333Y-90516666D01*
X123650000Y-90583333D01*
X123616666Y-90716666D01*
X123616666Y-90816666D01*
X123650000Y-90950000D01*
X123683333Y-91016666D01*
X123750000Y-91083333D01*
X123850000Y-91116666D01*
X123916666Y-91116666D01*
X124016666Y-91083333D01*
X124050000Y-91050000D01*
X124050000Y-90816666D01*
X123916666Y-90816666D01*
X124350000Y-91116666D02*
X124350000Y-90416666D01*
X124750000Y-91116666D01*
X124750000Y-90416666D01*
X125083333Y-91116666D02*
X125083333Y-90416666D01*
X125250000Y-90416666D01*
X125350000Y-90450000D01*
X125416666Y-90516666D01*
X125450000Y-90583333D01*
X125483333Y-90716666D01*
X125483333Y-90816666D01*
X125450000Y-90950000D01*
X125416666Y-91016666D01*
X125350000Y-91083333D01*
X125250000Y-91116666D01*
X125083333Y-91116666D01*
X125783333Y-91116666D02*
X125783333Y-90416666D01*
X125950000Y-90416666D01*
X126050000Y-90450000D01*
X126116666Y-90516666D01*
X126150000Y-90583333D01*
X126183333Y-90716666D01*
X126183333Y-90816666D01*
X126150000Y-90950000D01*
X126116666Y-91016666D01*
X126050000Y-91083333D01*
X125950000Y-91116666D01*
X125783333Y-91116666D01*
X124016666Y-100750000D02*
X123950000Y-100716666D01*
X123850000Y-100716666D01*
X123750000Y-100750000D01*
X123683333Y-100816666D01*
X123650000Y-100883333D01*
X123616666Y-101016666D01*
X123616666Y-101116666D01*
X123650000Y-101250000D01*
X123683333Y-101316666D01*
X123750000Y-101383333D01*
X123850000Y-101416666D01*
X123916666Y-101416666D01*
X124016666Y-101383333D01*
X124050000Y-101350000D01*
X124050000Y-101116666D01*
X123916666Y-101116666D01*
X124350000Y-101416666D02*
X124350000Y-100716666D01*
X124750000Y-101416666D01*
X124750000Y-100716666D01*
X125083333Y-101416666D02*
X125083333Y-100716666D01*
X125250000Y-100716666D01*
X125350000Y-100750000D01*
X125416666Y-100816666D01*
X125450000Y-100883333D01*
X125483333Y-101016666D01*
X125483333Y-101116666D01*
X125450000Y-101250000D01*
X125416666Y-101316666D01*
X125350000Y-101383333D01*
X125250000Y-101416666D01*
X125083333Y-101416666D01*
X125783333Y-101416666D02*
X125783333Y-100716666D01*
X125950000Y-100716666D01*
X126050000Y-100750000D01*
X126116666Y-100816666D01*
X126150000Y-100883333D01*
X126183333Y-101016666D01*
X126183333Y-101116666D01*
X126150000Y-101250000D01*
X126116666Y-101316666D01*
X126050000Y-101383333D01*
X125950000Y-101416666D01*
X125783333Y-101416666D01*
X123833333Y-110483333D02*
X123933333Y-110516666D01*
X124100000Y-110516666D01*
X124166666Y-110483333D01*
X124200000Y-110450000D01*
X124233333Y-110383333D01*
X124233333Y-110316666D01*
X124200000Y-110250000D01*
X124166666Y-110216666D01*
X124100000Y-110183333D01*
X123966666Y-110150000D01*
X123900000Y-110116666D01*
X123866666Y-110083333D01*
X123833333Y-110016666D01*
X123833333Y-109950000D01*
X123866666Y-109883333D01*
X123900000Y-109850000D01*
X123966666Y-109816666D01*
X124133333Y-109816666D01*
X124233333Y-109850000D01*
X124933333Y-110450000D02*
X124900000Y-110483333D01*
X124800000Y-110516666D01*
X124733333Y-110516666D01*
X124633333Y-110483333D01*
X124566666Y-110416666D01*
X124533333Y-110350000D01*
X124500000Y-110216666D01*
X124500000Y-110116666D01*
X124533333Y-109983333D01*
X124566666Y-109916666D01*
X124633333Y-109850000D01*
X124733333Y-109816666D01*
X124800000Y-109816666D01*
X124900000Y-109850000D01*
X124933333Y-109883333D01*
X125566666Y-110516666D02*
X125233333Y-110516666D01*
X125233333Y-109816666D01*
X126166666Y-110516666D02*
X125766666Y-110516666D01*
X125966666Y-110516666D02*
X125966666Y-109816666D01*
X125900000Y-109916666D01*
X125833333Y-109983333D01*
X125766666Y-110016666D01*
D11*
X130464285Y-112592857D02*
X130464285Y-111964285D01*
X130407142Y-111850000D01*
X130292857Y-111792857D01*
X130064285Y-111792857D01*
X129950000Y-111850000D01*
X130464285Y-112535714D02*
X130350000Y-112592857D01*
X130064285Y-112592857D01*
X129950000Y-112535714D01*
X129892857Y-112421428D01*
X129892857Y-112307142D01*
X129950000Y-112192857D01*
X130064285Y-112135714D01*
X130350000Y-112135714D01*
X130464285Y-112078571D01*
X131207142Y-112592857D02*
X131092857Y-112535714D01*
X131035714Y-112478571D01*
X130978571Y-112364285D01*
X130978571Y-112021428D01*
X131035714Y-111907142D01*
X131092857Y-111850000D01*
X131207142Y-111792857D01*
X131378571Y-111792857D01*
X131492857Y-111850000D01*
X131550000Y-111907142D01*
X131607142Y-112021428D01*
X131607142Y-112364285D01*
X131550000Y-112478571D01*
X131492857Y-112535714D01*
X131378571Y-112592857D01*
X131207142Y-112592857D01*
X132635714Y-111792857D02*
X132635714Y-112592857D01*
X132121428Y-111792857D02*
X132121428Y-112421428D01*
X132178571Y-112535714D01*
X132292857Y-112592857D01*
X132464285Y-112592857D01*
X132578571Y-112535714D01*
X132635714Y-112478571D01*
X133035714Y-111792857D02*
X133492857Y-111792857D01*
X133207142Y-111392857D02*
X133207142Y-112421428D01*
X133264285Y-112535714D01*
X133378571Y-112592857D01*
X133492857Y-112592857D01*
X133892857Y-112135714D02*
X134807142Y-112135714D01*
X135892857Y-111792857D02*
X135892857Y-112592857D01*
X135607142Y-111335714D02*
X135321428Y-112192857D01*
X136064285Y-112192857D01*
D10*
X123833333Y-93583333D02*
X123933333Y-93616666D01*
X124100000Y-93616666D01*
X124166666Y-93583333D01*
X124200000Y-93550000D01*
X124233333Y-93483333D01*
X124233333Y-93416666D01*
X124200000Y-93350000D01*
X124166666Y-93316666D01*
X124100000Y-93283333D01*
X123966666Y-93250000D01*
X123900000Y-93216666D01*
X123866666Y-93183333D01*
X123833333Y-93116666D01*
X123833333Y-93050000D01*
X123866666Y-92983333D01*
X123900000Y-92950000D01*
X123966666Y-92916666D01*
X124133333Y-92916666D01*
X124233333Y-92950000D01*
X124933333Y-93550000D02*
X124900000Y-93583333D01*
X124800000Y-93616666D01*
X124733333Y-93616666D01*
X124633333Y-93583333D01*
X124566666Y-93516666D01*
X124533333Y-93450000D01*
X124500000Y-93316666D01*
X124500000Y-93216666D01*
X124533333Y-93083333D01*
X124566666Y-93016666D01*
X124633333Y-92950000D01*
X124733333Y-92916666D01*
X124800000Y-92916666D01*
X124900000Y-92950000D01*
X124933333Y-92983333D01*
X125566666Y-93616666D02*
X125233333Y-93616666D01*
X125233333Y-92916666D01*
X125933333Y-92916666D02*
X126000000Y-92916666D01*
X126066666Y-92950000D01*
X126100000Y-92983333D01*
X126133333Y-93050000D01*
X126166666Y-93183333D01*
X126166666Y-93350000D01*
X126133333Y-93483333D01*
X126100000Y-93550000D01*
X126066666Y-93583333D01*
X126000000Y-93616666D01*
X125933333Y-93616666D01*
X125866666Y-93583333D01*
X125833333Y-93550000D01*
X125800000Y-93483333D01*
X125766666Y-93350000D01*
X125766666Y-93183333D01*
X125800000Y-93050000D01*
X125833333Y-92983333D01*
X125866666Y-92950000D01*
X125933333Y-92916666D01*
X124016666Y-107450000D02*
X123950000Y-107416666D01*
X123850000Y-107416666D01*
X123750000Y-107450000D01*
X123683333Y-107516666D01*
X123650000Y-107583333D01*
X123616666Y-107716666D01*
X123616666Y-107816666D01*
X123650000Y-107950000D01*
X123683333Y-108016666D01*
X123750000Y-108083333D01*
X123850000Y-108116666D01*
X123916666Y-108116666D01*
X124016666Y-108083333D01*
X124050000Y-108050000D01*
X124050000Y-107816666D01*
X123916666Y-107816666D01*
X124350000Y-108116666D02*
X124350000Y-107416666D01*
X124750000Y-108116666D01*
X124750000Y-107416666D01*
X125083333Y-108116666D02*
X125083333Y-107416666D01*
X125250000Y-107416666D01*
X125350000Y-107450000D01*
X125416666Y-107516666D01*
X125450000Y-107583333D01*
X125483333Y-107716666D01*
X125483333Y-107816666D01*
X125450000Y-107950000D01*
X125416666Y-108016666D01*
X125350000Y-108083333D01*
X125250000Y-108116666D01*
X125083333Y-108116666D01*
X125783333Y-108116666D02*
X125783333Y-107416666D01*
X125950000Y-107416666D01*
X126050000Y-107450000D01*
X126116666Y-107516666D01*
X126150000Y-107583333D01*
X126183333Y-107716666D01*
X126183333Y-107816666D01*
X126150000Y-107950000D01*
X126116666Y-108016666D01*
X126050000Y-108083333D01*
X125950000Y-108116666D01*
X125783333Y-108116666D01*
X165116666Y-110583333D02*
X165216666Y-110616666D01*
X165383333Y-110616666D01*
X165450000Y-110583333D01*
X165483333Y-110550000D01*
X165516666Y-110483333D01*
X165516666Y-110416666D01*
X165483333Y-110350000D01*
X165450000Y-110316666D01*
X165383333Y-110283333D01*
X165250000Y-110250000D01*
X165183333Y-110216666D01*
X165150000Y-110183333D01*
X165116666Y-110116666D01*
X165116666Y-110050000D01*
X165150000Y-109983333D01*
X165183333Y-109950000D01*
X165250000Y-109916666D01*
X165416666Y-109916666D01*
X165516666Y-109950000D01*
X165816666Y-110616666D02*
X165816666Y-109916666D01*
X165983333Y-109916666D01*
X166083333Y-109950000D01*
X166150000Y-110016666D01*
X166183333Y-110083333D01*
X166216666Y-110216666D01*
X166216666Y-110316666D01*
X166183333Y-110450000D01*
X166150000Y-110516666D01*
X166083333Y-110583333D01*
X165983333Y-110616666D01*
X165816666Y-110616666D01*
X166483333Y-110416666D02*
X166816666Y-110416666D01*
X166416666Y-110616666D02*
X166650000Y-109916666D01*
X166883333Y-110616666D01*
X167483333Y-110616666D02*
X167083333Y-110616666D01*
X167283333Y-110616666D02*
X167283333Y-109916666D01*
X167216666Y-110016666D01*
X167150000Y-110083333D01*
X167083333Y-110116666D01*
X123816666Y-113083333D02*
X123916666Y-113116666D01*
X124083333Y-113116666D01*
X124150000Y-113083333D01*
X124183333Y-113050000D01*
X124216666Y-112983333D01*
X124216666Y-112916666D01*
X124183333Y-112850000D01*
X124150000Y-112816666D01*
X124083333Y-112783333D01*
X123950000Y-112750000D01*
X123883333Y-112716666D01*
X123850000Y-112683333D01*
X123816666Y-112616666D01*
X123816666Y-112550000D01*
X123850000Y-112483333D01*
X123883333Y-112450000D01*
X123950000Y-112416666D01*
X124116666Y-112416666D01*
X124216666Y-112450000D01*
X124516666Y-113116666D02*
X124516666Y-112416666D01*
X124683333Y-112416666D01*
X124783333Y-112450000D01*
X124850000Y-112516666D01*
X124883333Y-112583333D01*
X124916666Y-112716666D01*
X124916666Y-112816666D01*
X124883333Y-112950000D01*
X124850000Y-113016666D01*
X124783333Y-113083333D01*
X124683333Y-113116666D01*
X124516666Y-113116666D01*
X125183333Y-112916666D02*
X125516666Y-112916666D01*
X125116666Y-113116666D02*
X125350000Y-112416666D01*
X125583333Y-113116666D01*
X126183333Y-113116666D02*
X125783333Y-113116666D01*
X125983333Y-113116666D02*
X125983333Y-112416666D01*
X125916666Y-112516666D01*
X125850000Y-112583333D01*
X125783333Y-112616666D01*
X124016666Y-117650000D02*
X123950000Y-117616666D01*
X123850000Y-117616666D01*
X123750000Y-117650000D01*
X123683333Y-117716666D01*
X123650000Y-117783333D01*
X123616666Y-117916666D01*
X123616666Y-118016666D01*
X123650000Y-118150000D01*
X123683333Y-118216666D01*
X123750000Y-118283333D01*
X123850000Y-118316666D01*
X123916666Y-118316666D01*
X124016666Y-118283333D01*
X124050000Y-118250000D01*
X124050000Y-118016666D01*
X123916666Y-118016666D01*
X124350000Y-118316666D02*
X124350000Y-117616666D01*
X124750000Y-118316666D01*
X124750000Y-117616666D01*
X125083333Y-118316666D02*
X125083333Y-117616666D01*
X125250000Y-117616666D01*
X125350000Y-117650000D01*
X125416666Y-117716666D01*
X125450000Y-117783333D01*
X125483333Y-117916666D01*
X125483333Y-118016666D01*
X125450000Y-118150000D01*
X125416666Y-118216666D01*
X125350000Y-118283333D01*
X125250000Y-118316666D01*
X125083333Y-118316666D01*
X125783333Y-118316666D02*
X125783333Y-117616666D01*
X125950000Y-117616666D01*
X126050000Y-117650000D01*
X126116666Y-117716666D01*
X126150000Y-117783333D01*
X126183333Y-117916666D01*
X126183333Y-118016666D01*
X126150000Y-118150000D01*
X126116666Y-118216666D01*
X126050000Y-118283333D01*
X125950000Y-118316666D01*
X125783333Y-118316666D01*
X165516666Y-104950000D02*
X165450000Y-104916666D01*
X165350000Y-104916666D01*
X165250000Y-104950000D01*
X165183333Y-105016666D01*
X165150000Y-105083333D01*
X165116666Y-105216666D01*
X165116666Y-105316666D01*
X165150000Y-105450000D01*
X165183333Y-105516666D01*
X165250000Y-105583333D01*
X165350000Y-105616666D01*
X165416666Y-105616666D01*
X165516666Y-105583333D01*
X165550000Y-105550000D01*
X165550000Y-105316666D01*
X165416666Y-105316666D01*
X165850000Y-105616666D02*
X165850000Y-104916666D01*
X166250000Y-105616666D01*
X166250000Y-104916666D01*
X166583333Y-105616666D02*
X166583333Y-104916666D01*
X166750000Y-104916666D01*
X166850000Y-104950000D01*
X166916666Y-105016666D01*
X166950000Y-105083333D01*
X166983333Y-105216666D01*
X166983333Y-105316666D01*
X166950000Y-105450000D01*
X166916666Y-105516666D01*
X166850000Y-105583333D01*
X166750000Y-105616666D01*
X166583333Y-105616666D01*
X167283333Y-105616666D02*
X167283333Y-104916666D01*
X167450000Y-104916666D01*
X167550000Y-104950000D01*
X167616666Y-105016666D01*
X167650000Y-105083333D01*
X167683333Y-105216666D01*
X167683333Y-105316666D01*
X167650000Y-105450000D01*
X167616666Y-105516666D01*
X167550000Y-105583333D01*
X167450000Y-105616666D01*
X167283333Y-105616666D01*
X123816666Y-96183333D02*
X123916666Y-96216666D01*
X124083333Y-96216666D01*
X124150000Y-96183333D01*
X124183333Y-96150000D01*
X124216666Y-96083333D01*
X124216666Y-96016666D01*
X124183333Y-95950000D01*
X124150000Y-95916666D01*
X124083333Y-95883333D01*
X123950000Y-95850000D01*
X123883333Y-95816666D01*
X123850000Y-95783333D01*
X123816666Y-95716666D01*
X123816666Y-95650000D01*
X123850000Y-95583333D01*
X123883333Y-95550000D01*
X123950000Y-95516666D01*
X124116666Y-95516666D01*
X124216666Y-95550000D01*
X124516666Y-96216666D02*
X124516666Y-95516666D01*
X124683333Y-95516666D01*
X124783333Y-95550000D01*
X124850000Y-95616666D01*
X124883333Y-95683333D01*
X124916666Y-95816666D01*
X124916666Y-95916666D01*
X124883333Y-96050000D01*
X124850000Y-96116666D01*
X124783333Y-96183333D01*
X124683333Y-96216666D01*
X124516666Y-96216666D01*
X125183333Y-96016666D02*
X125516666Y-96016666D01*
X125116666Y-96216666D02*
X125350000Y-95516666D01*
X125583333Y-96216666D01*
X125950000Y-95516666D02*
X126016666Y-95516666D01*
X126083333Y-95550000D01*
X126116666Y-95583333D01*
X126150000Y-95650000D01*
X126183333Y-95783333D01*
X126183333Y-95950000D01*
X126150000Y-96083333D01*
X126116666Y-96150000D01*
X126083333Y-96183333D01*
X126016666Y-96216666D01*
X125950000Y-96216666D01*
X125883333Y-96183333D01*
X125850000Y-96150000D01*
X125816666Y-96083333D01*
X125783333Y-95950000D01*
X125783333Y-95783333D01*
X125816666Y-95650000D01*
X125850000Y-95583333D01*
X125883333Y-95550000D01*
X125950000Y-95516666D01*
X165516666Y-98250000D02*
X165450000Y-98216666D01*
X165350000Y-98216666D01*
X165250000Y-98250000D01*
X165183333Y-98316666D01*
X165150000Y-98383333D01*
X165116666Y-98516666D01*
X165116666Y-98616666D01*
X165150000Y-98750000D01*
X165183333Y-98816666D01*
X165250000Y-98883333D01*
X165350000Y-98916666D01*
X165416666Y-98916666D01*
X165516666Y-98883333D01*
X165550000Y-98850000D01*
X165550000Y-98616666D01*
X165416666Y-98616666D01*
X165850000Y-98916666D02*
X165850000Y-98216666D01*
X166250000Y-98916666D01*
X166250000Y-98216666D01*
X166583333Y-98916666D02*
X166583333Y-98216666D01*
X166750000Y-98216666D01*
X166850000Y-98250000D01*
X166916666Y-98316666D01*
X166950000Y-98383333D01*
X166983333Y-98516666D01*
X166983333Y-98616666D01*
X166950000Y-98750000D01*
X166916666Y-98816666D01*
X166850000Y-98883333D01*
X166750000Y-98916666D01*
X166583333Y-98916666D01*
X167283333Y-98916666D02*
X167283333Y-98216666D01*
X167450000Y-98216666D01*
X167550000Y-98250000D01*
X167616666Y-98316666D01*
X167650000Y-98383333D01*
X167683333Y-98516666D01*
X167683333Y-98616666D01*
X167650000Y-98750000D01*
X167616666Y-98816666D01*
X167550000Y-98883333D01*
X167450000Y-98916666D01*
X167283333Y-98916666D01*
X165116666Y-93783333D02*
X165216666Y-93816666D01*
X165383333Y-93816666D01*
X165450000Y-93783333D01*
X165483333Y-93750000D01*
X165516666Y-93683333D01*
X165516666Y-93616666D01*
X165483333Y-93550000D01*
X165450000Y-93516666D01*
X165383333Y-93483333D01*
X165250000Y-93450000D01*
X165183333Y-93416666D01*
X165150000Y-93383333D01*
X165116666Y-93316666D01*
X165116666Y-93250000D01*
X165150000Y-93183333D01*
X165183333Y-93150000D01*
X165250000Y-93116666D01*
X165416666Y-93116666D01*
X165516666Y-93150000D01*
X165816666Y-93816666D02*
X165816666Y-93116666D01*
X165983333Y-93116666D01*
X166083333Y-93150000D01*
X166150000Y-93216666D01*
X166183333Y-93283333D01*
X166216666Y-93416666D01*
X166216666Y-93516666D01*
X166183333Y-93650000D01*
X166150000Y-93716666D01*
X166083333Y-93783333D01*
X165983333Y-93816666D01*
X165816666Y-93816666D01*
X166483333Y-93616666D02*
X166816666Y-93616666D01*
X166416666Y-93816666D02*
X166650000Y-93116666D01*
X166883333Y-93816666D01*
X167250000Y-93116666D02*
X167316666Y-93116666D01*
X167383333Y-93150000D01*
X167416666Y-93183333D01*
X167450000Y-93250000D01*
X167483333Y-93383333D01*
X167483333Y-93550000D01*
X167450000Y-93683333D01*
X167416666Y-93750000D01*
X167383333Y-93783333D01*
X167316666Y-93816666D01*
X167250000Y-93816666D01*
X167183333Y-93783333D01*
X167150000Y-93750000D01*
X167116666Y-93683333D01*
X167083333Y-93550000D01*
X167083333Y-93383333D01*
X167116666Y-93250000D01*
X167150000Y-93183333D01*
X167183333Y-93150000D01*
X167250000Y-93116666D01*
X123566666Y-88016666D02*
X123800000Y-88716666D01*
X124033333Y-88016666D01*
X124400000Y-88016666D02*
X124533333Y-88016666D01*
X124600000Y-88050000D01*
X124666666Y-88116666D01*
X124700000Y-88250000D01*
X124700000Y-88483333D01*
X124666666Y-88616666D01*
X124600000Y-88683333D01*
X124533333Y-88716666D01*
X124400000Y-88716666D01*
X124333333Y-88683333D01*
X124266666Y-88616666D01*
X124233333Y-88483333D01*
X124233333Y-88250000D01*
X124266666Y-88116666D01*
X124333333Y-88050000D01*
X124400000Y-88016666D01*
X125000000Y-88716666D02*
X125000000Y-88016666D01*
X125233333Y-88516666D01*
X125466666Y-88016666D01*
X125466666Y-88716666D01*
X126166666Y-88716666D02*
X125766666Y-88716666D01*
X125966666Y-88716666D02*
X125966666Y-88016666D01*
X125900000Y-88116666D01*
X125833333Y-88183333D01*
X125766666Y-88216666D01*
X165066666Y-100716666D02*
X165300000Y-101416666D01*
X165533333Y-100716666D01*
X165900000Y-100716666D02*
X166033333Y-100716666D01*
X166100000Y-100750000D01*
X166166666Y-100816666D01*
X166200000Y-100950000D01*
X166200000Y-101183333D01*
X166166666Y-101316666D01*
X166100000Y-101383333D01*
X166033333Y-101416666D01*
X165900000Y-101416666D01*
X165833333Y-101383333D01*
X165766666Y-101316666D01*
X165733333Y-101183333D01*
X165733333Y-100950000D01*
X165766666Y-100816666D01*
X165833333Y-100750000D01*
X165900000Y-100716666D01*
X166500000Y-101416666D02*
X166500000Y-100716666D01*
X166733333Y-101216666D01*
X166966666Y-100716666D01*
X166966666Y-101416666D01*
X167266666Y-100783333D02*
X167300000Y-100750000D01*
X167366666Y-100716666D01*
X167533333Y-100716666D01*
X167600000Y-100750000D01*
X167633333Y-100783333D01*
X167666666Y-100850000D01*
X167666666Y-100916666D01*
X167633333Y-101016666D01*
X167233333Y-101416666D01*
X167666666Y-101416666D01*
D12*
X131878571Y-113339285D02*
X132057142Y-113839285D01*
X132235714Y-113339285D01*
X132914285Y-113839285D02*
X132485714Y-113839285D01*
X132700000Y-113839285D02*
X132700000Y-113089285D01*
X132628571Y-113196428D01*
X132557142Y-113267857D01*
X132485714Y-113303571D01*
X133235714Y-113767857D02*
X133271428Y-113803571D01*
X133235714Y-113839285D01*
X133200000Y-113803571D01*
X133235714Y-113767857D01*
X133235714Y-113839285D01*
X133985714Y-113839285D02*
X133557142Y-113839285D01*
X133771428Y-113839285D02*
X133771428Y-113089285D01*
X133700000Y-113196428D01*
X133628571Y-113267857D01*
X133557142Y-113303571D01*
D10*
X165133333Y-90850000D02*
X165666666Y-90850000D01*
X165400000Y-91116666D02*
X165400000Y-90583333D01*
X165900000Y-90416666D02*
X166133333Y-91116666D01*
X166366666Y-90416666D01*
X124833333Y-115450000D02*
X125366666Y-115450000D01*
X125100000Y-115716666D02*
X125100000Y-115183333D01*
X125600000Y-115016666D02*
X125833333Y-115716666D01*
X126066666Y-115016666D01*
X165066666Y-117616666D02*
X165300000Y-118316666D01*
X165533333Y-117616666D01*
X165900000Y-117616666D02*
X166033333Y-117616666D01*
X166100000Y-117650000D01*
X166166666Y-117716666D01*
X166200000Y-117850000D01*
X166200000Y-118083333D01*
X166166666Y-118216666D01*
X166100000Y-118283333D01*
X166033333Y-118316666D01*
X165900000Y-118316666D01*
X165833333Y-118283333D01*
X165766666Y-118216666D01*
X165733333Y-118083333D01*
X165733333Y-117850000D01*
X165766666Y-117716666D01*
X165833333Y-117650000D01*
X165900000Y-117616666D01*
X166500000Y-118316666D02*
X166500000Y-117616666D01*
X166733333Y-118116666D01*
X166966666Y-117616666D01*
X166966666Y-118316666D01*
X167600000Y-117850000D02*
X167600000Y-118316666D01*
X167433333Y-117583333D02*
X167266666Y-118083333D01*
X167700000Y-118083333D01*
X165133333Y-107750000D02*
X165666666Y-107750000D01*
X165400000Y-108016666D02*
X165400000Y-107483333D01*
X165900000Y-107316666D02*
X166133333Y-108016666D01*
X166366666Y-107316666D01*
D13*
X119435714Y-110554761D02*
X120102380Y-110364285D01*
X119626190Y-110173809D01*
X120102380Y-109983333D01*
X119435714Y-109792857D01*
X119435714Y-109507142D02*
X120102380Y-109316666D01*
X119626190Y-109126190D01*
X120102380Y-108935714D01*
X119435714Y-108745238D01*
X119435714Y-108459523D02*
X120102380Y-108269047D01*
X119626190Y-108078571D01*
X120102380Y-107888095D01*
X119435714Y-107697619D01*
X120007142Y-107316666D02*
X120054761Y-107269047D01*
X120102380Y-107316666D01*
X120054761Y-107364285D01*
X120007142Y-107316666D01*
X120102380Y-107316666D01*
X120102380Y-106840476D02*
X119435714Y-106840476D01*
X119102380Y-106840476D02*
X119150000Y-106888095D01*
X119197619Y-106840476D01*
X119150000Y-106792857D01*
X119102380Y-106840476D01*
X119197619Y-106840476D01*
X120102380Y-106221428D02*
X120054761Y-106316666D01*
X120007142Y-106364285D01*
X119911904Y-106411904D01*
X119626190Y-106411904D01*
X119530952Y-106364285D01*
X119483333Y-106316666D01*
X119435714Y-106221428D01*
X119435714Y-106078571D01*
X119483333Y-105983333D01*
X119530952Y-105935714D01*
X119626190Y-105888095D01*
X119911904Y-105888095D01*
X120007142Y-105935714D01*
X120054761Y-105983333D01*
X120102380Y-106078571D01*
X120102380Y-106221428D01*
X119435714Y-105602380D02*
X119435714Y-105221428D01*
X119102380Y-105459523D02*
X119959523Y-105459523D01*
X120054761Y-105411904D01*
X120102380Y-105316666D01*
X120102380Y-105221428D01*
X119435714Y-104983333D02*
X120102380Y-104745238D01*
X119435714Y-104507142D01*
X120054761Y-103745238D02*
X120102380Y-103840476D01*
X120102380Y-104030952D01*
X120054761Y-104126190D01*
X119959523Y-104173809D01*
X119578571Y-104173809D01*
X119483333Y-104126190D01*
X119435714Y-104030952D01*
X119435714Y-103840476D01*
X119483333Y-103745238D01*
X119578571Y-103697619D01*
X119673809Y-103697619D01*
X119769047Y-104173809D01*
X120102380Y-103269047D02*
X119435714Y-103269047D01*
X119626190Y-103269047D02*
X119530952Y-103221428D01*
X119483333Y-103173809D01*
X119435714Y-103078571D01*
X119435714Y-102983333D01*
X119435714Y-102792857D02*
X119435714Y-102411904D01*
X119102380Y-102650000D02*
X119959523Y-102650000D01*
X120054761Y-102602380D01*
X120102380Y-102507142D01*
X120102380Y-102411904D01*
X120054761Y-101697619D02*
X120102380Y-101792857D01*
X120102380Y-101983333D01*
X120054761Y-102078571D01*
X119959523Y-102126190D01*
X119578571Y-102126190D01*
X119483333Y-102078571D01*
X119435714Y-101983333D01*
X119435714Y-101792857D01*
X119483333Y-101697619D01*
X119578571Y-101650000D01*
X119673809Y-101650000D01*
X119769047Y-102126190D01*
X120102380Y-101221428D02*
X119102380Y-101221428D01*
X119483333Y-101221428D02*
X119435714Y-101126190D01*
X119435714Y-100935714D01*
X119483333Y-100840476D01*
X119530952Y-100792857D01*
X119626190Y-100745238D01*
X119911904Y-100745238D01*
X120007142Y-100792857D01*
X120054761Y-100840476D01*
X120102380Y-100935714D01*
X120102380Y-101126190D01*
X120054761Y-101221428D01*
X120102380Y-100316666D02*
X119435714Y-100316666D01*
X119626190Y-100316666D02*
X119530952Y-100269047D01*
X119483333Y-100221428D01*
X119435714Y-100126190D01*
X119435714Y-100030952D01*
X120102380Y-99269047D02*
X119578571Y-99269047D01*
X119483333Y-99316666D01*
X119435714Y-99411904D01*
X119435714Y-99602380D01*
X119483333Y-99697619D01*
X120054761Y-99269047D02*
X120102380Y-99364285D01*
X120102380Y-99602380D01*
X120054761Y-99697619D01*
X119959523Y-99745238D01*
X119864285Y-99745238D01*
X119769047Y-99697619D01*
X119721428Y-99602380D01*
X119721428Y-99364285D01*
X119673809Y-99269047D01*
X120054761Y-98411904D02*
X120102380Y-98507142D01*
X120102380Y-98697619D01*
X120054761Y-98792857D01*
X119959523Y-98840476D01*
X119578571Y-98840476D01*
X119483333Y-98792857D01*
X119435714Y-98697619D01*
X119435714Y-98507142D01*
X119483333Y-98411904D01*
X119578571Y-98364285D01*
X119673809Y-98364285D01*
X119769047Y-98840476D01*
X120007142Y-97935714D02*
X120054761Y-97888095D01*
X120102380Y-97935714D01*
X120054761Y-97983333D01*
X120007142Y-97935714D01*
X120102380Y-97935714D01*
X120054761Y-97030952D02*
X120102380Y-97126190D01*
X120102380Y-97316666D01*
X120054761Y-97411904D01*
X120007142Y-97459523D01*
X119911904Y-97507142D01*
X119626190Y-97507142D01*
X119530952Y-97459523D01*
X119483333Y-97411904D01*
X119435714Y-97316666D01*
X119435714Y-97126190D01*
X119483333Y-97030952D01*
X120102380Y-96459523D02*
X120054761Y-96554761D01*
X120007142Y-96602380D01*
X119911904Y-96650000D01*
X119626190Y-96650000D01*
X119530952Y-96602380D01*
X119483333Y-96554761D01*
X119435714Y-96459523D01*
X119435714Y-96316666D01*
X119483333Y-96221428D01*
X119530952Y-96173809D01*
X119626190Y-96126190D01*
X119911904Y-96126190D01*
X120007142Y-96173809D01*
X120054761Y-96221428D01*
X120102380Y-96316666D01*
X120102380Y-96459523D01*
X120102380Y-95697619D02*
X119435714Y-95697619D01*
X119530952Y-95697619D02*
X119483333Y-95650000D01*
X119435714Y-95554761D01*
X119435714Y-95411904D01*
X119483333Y-95316666D01*
X119578571Y-95269047D01*
X120102380Y-95269047D01*
X119578571Y-95269047D02*
X119483333Y-95221428D01*
X119435714Y-95126190D01*
X119435714Y-94983333D01*
X119483333Y-94888095D01*
X119578571Y-94840476D01*
X120102380Y-94840476D01*
D10*
X165133333Y-96283333D02*
X165233333Y-96316666D01*
X165400000Y-96316666D01*
X165466666Y-96283333D01*
X165500000Y-96250000D01*
X165533333Y-96183333D01*
X165533333Y-96116666D01*
X165500000Y-96050000D01*
X165466666Y-96016666D01*
X165400000Y-95983333D01*
X165266666Y-95950000D01*
X165200000Y-95916666D01*
X165166666Y-95883333D01*
X165133333Y-95816666D01*
X165133333Y-95750000D01*
X165166666Y-95683333D01*
X165200000Y-95650000D01*
X165266666Y-95616666D01*
X165433333Y-95616666D01*
X165533333Y-95650000D01*
X166233333Y-96250000D02*
X166200000Y-96283333D01*
X166100000Y-96316666D01*
X166033333Y-96316666D01*
X165933333Y-96283333D01*
X165866666Y-96216666D01*
X165833333Y-96150000D01*
X165800000Y-96016666D01*
X165800000Y-95916666D01*
X165833333Y-95783333D01*
X165866666Y-95716666D01*
X165933333Y-95650000D01*
X166033333Y-95616666D01*
X166100000Y-95616666D01*
X166200000Y-95650000D01*
X166233333Y-95683333D01*
X166866666Y-96316666D02*
X166533333Y-96316666D01*
X166533333Y-95616666D01*
X167233333Y-95616666D02*
X167300000Y-95616666D01*
X167366666Y-95650000D01*
X167400000Y-95683333D01*
X167433333Y-95750000D01*
X167466666Y-95883333D01*
X167466666Y-96050000D01*
X167433333Y-96183333D01*
X167400000Y-96250000D01*
X167366666Y-96283333D01*
X167300000Y-96316666D01*
X167233333Y-96316666D01*
X167166666Y-96283333D01*
X167133333Y-96250000D01*
X167100000Y-96183333D01*
X167066666Y-96050000D01*
X167066666Y-95883333D01*
X167100000Y-95750000D01*
X167133333Y-95683333D01*
X167166666Y-95650000D01*
X167233333Y-95616666D01*
%TO.C,J3*%
X118956666Y-85406666D02*
X118956666Y-85906666D01*
X118923333Y-86006666D01*
X118856666Y-86073333D01*
X118756666Y-86106666D01*
X118690000Y-86106666D01*
X119223333Y-85406666D02*
X119656666Y-85406666D01*
X119423333Y-85673333D01*
X119523333Y-85673333D01*
X119590000Y-85706666D01*
X119623333Y-85740000D01*
X119656666Y-85806666D01*
X119656666Y-85973333D01*
X119623333Y-86040000D01*
X119590000Y-86073333D01*
X119523333Y-86106666D01*
X119323333Y-86106666D01*
X119256666Y-86073333D01*
X119223333Y-86040000D01*
D13*
%TO.C,R1*%
X159833333Y-108402380D02*
X159500000Y-107926190D01*
X159261904Y-108402380D02*
X159261904Y-107402380D01*
X159642857Y-107402380D01*
X159738095Y-107450000D01*
X159785714Y-107497619D01*
X159833333Y-107592857D01*
X159833333Y-107735714D01*
X159785714Y-107830952D01*
X159738095Y-107878571D01*
X159642857Y-107926190D01*
X159261904Y-107926190D01*
X160785714Y-108402380D02*
X160214285Y-108402380D01*
X160500000Y-108402380D02*
X160500000Y-107402380D01*
X160404761Y-107545238D01*
X160309523Y-107640476D01*
X160214285Y-107688095D01*
%TO.C,R11*%
X159917142Y-92032380D02*
X159583809Y-91556190D01*
X159345714Y-92032380D02*
X159345714Y-91032380D01*
X159726666Y-91032380D01*
X159821904Y-91080000D01*
X159869523Y-91127619D01*
X159917142Y-91222857D01*
X159917142Y-91365714D01*
X159869523Y-91460952D01*
X159821904Y-91508571D01*
X159726666Y-91556190D01*
X159345714Y-91556190D01*
X160869523Y-92032380D02*
X160298095Y-92032380D01*
X160583809Y-92032380D02*
X160583809Y-91032380D01*
X160488571Y-91175238D01*
X160393333Y-91270476D01*
X160298095Y-91318095D01*
X161821904Y-92032380D02*
X161250476Y-92032380D01*
X161536190Y-92032380D02*
X161536190Y-91032380D01*
X161440952Y-91175238D01*
X161345714Y-91270476D01*
X161250476Y-91318095D01*
%TO.C,R16*%
X159907142Y-110652380D02*
X159573809Y-110176190D01*
X159335714Y-110652380D02*
X159335714Y-109652380D01*
X159716666Y-109652380D01*
X159811904Y-109700000D01*
X159859523Y-109747619D01*
X159907142Y-109842857D01*
X159907142Y-109985714D01*
X159859523Y-110080952D01*
X159811904Y-110128571D01*
X159716666Y-110176190D01*
X159335714Y-110176190D01*
X160859523Y-110652380D02*
X160288095Y-110652380D01*
X160573809Y-110652380D02*
X160573809Y-109652380D01*
X160478571Y-109795238D01*
X160383333Y-109890476D01*
X160288095Y-109938095D01*
X161716666Y-109652380D02*
X161526190Y-109652380D01*
X161430952Y-109700000D01*
X161383333Y-109747619D01*
X161288095Y-109890476D01*
X161240476Y-110080952D01*
X161240476Y-110461904D01*
X161288095Y-110557142D01*
X161335714Y-110604761D01*
X161430952Y-110652380D01*
X161621428Y-110652380D01*
X161716666Y-110604761D01*
X161764285Y-110557142D01*
X161811904Y-110461904D01*
X161811904Y-110223809D01*
X161764285Y-110128571D01*
X161716666Y-110080952D01*
X161621428Y-110033333D01*
X161430952Y-110033333D01*
X161335714Y-110080952D01*
X161288095Y-110128571D01*
X161240476Y-110223809D01*
%TO.C,C6*%
X148833333Y-87257142D02*
X148785714Y-87304761D01*
X148642857Y-87352380D01*
X148547619Y-87352380D01*
X148404761Y-87304761D01*
X148309523Y-87209523D01*
X148261904Y-87114285D01*
X148214285Y-86923809D01*
X148214285Y-86780952D01*
X148261904Y-86590476D01*
X148309523Y-86495238D01*
X148404761Y-86400000D01*
X148547619Y-86352380D01*
X148642857Y-86352380D01*
X148785714Y-86400000D01*
X148833333Y-86447619D01*
X149690476Y-86352380D02*
X149500000Y-86352380D01*
X149404761Y-86400000D01*
X149357142Y-86447619D01*
X149261904Y-86590476D01*
X149214285Y-86780952D01*
X149214285Y-87161904D01*
X149261904Y-87257142D01*
X149309523Y-87304761D01*
X149404761Y-87352380D01*
X149595238Y-87352380D01*
X149690476Y-87304761D01*
X149738095Y-87257142D01*
X149785714Y-87161904D01*
X149785714Y-86923809D01*
X149738095Y-86828571D01*
X149690476Y-86780952D01*
X149595238Y-86733333D01*
X149404761Y-86733333D01*
X149309523Y-86780952D01*
X149261904Y-86828571D01*
X149214285Y-86923809D01*
%TO.C,J6*%
X129566666Y-118852380D02*
X129566666Y-119566666D01*
X129519047Y-119709523D01*
X129423809Y-119804761D01*
X129280952Y-119852380D01*
X129185714Y-119852380D01*
X130471428Y-118852380D02*
X130280952Y-118852380D01*
X130185714Y-118900000D01*
X130138095Y-118947619D01*
X130042857Y-119090476D01*
X129995238Y-119280952D01*
X129995238Y-119661904D01*
X130042857Y-119757142D01*
X130090476Y-119804761D01*
X130185714Y-119852380D01*
X130376190Y-119852380D01*
X130471428Y-119804761D01*
X130519047Y-119757142D01*
X130566666Y-119661904D01*
X130566666Y-119423809D01*
X130519047Y-119328571D01*
X130471428Y-119280952D01*
X130376190Y-119233333D01*
X130185714Y-119233333D01*
X130090476Y-119280952D01*
X130042857Y-119328571D01*
X129995238Y-119423809D01*
%TO.C,U5*%
X143738095Y-110952380D02*
X143738095Y-111761904D01*
X143785714Y-111857142D01*
X143833333Y-111904761D01*
X143928571Y-111952380D01*
X144119047Y-111952380D01*
X144214285Y-111904761D01*
X144261904Y-111857142D01*
X144309523Y-111761904D01*
X144309523Y-110952380D01*
X145261904Y-110952380D02*
X144785714Y-110952380D01*
X144738095Y-111428571D01*
X144785714Y-111380952D01*
X144880952Y-111333333D01*
X145119047Y-111333333D01*
X145214285Y-111380952D01*
X145261904Y-111428571D01*
X145309523Y-111523809D01*
X145309523Y-111761904D01*
X145261904Y-111857142D01*
X145214285Y-111904761D01*
X145119047Y-111952380D01*
X144880952Y-111952380D01*
X144785714Y-111904761D01*
X144738095Y-111857142D01*
D14*
%TO.C,J2*%
X118996666Y-75526666D02*
X118996666Y-76026666D01*
X118963333Y-76126666D01*
X118896666Y-76193333D01*
X118796666Y-76226666D01*
X118730000Y-76226666D01*
X119296666Y-75593333D02*
X119330000Y-75560000D01*
X119396666Y-75526666D01*
X119563333Y-75526666D01*
X119630000Y-75560000D01*
X119663333Y-75593333D01*
X119696666Y-75660000D01*
X119696666Y-75726666D01*
X119663333Y-75826666D01*
X119263333Y-76226666D01*
X119696666Y-76226666D01*
D13*
%TO.C,R10*%
X159857142Y-98652380D02*
X159523809Y-98176190D01*
X159285714Y-98652380D02*
X159285714Y-97652380D01*
X159666666Y-97652380D01*
X159761904Y-97700000D01*
X159809523Y-97747619D01*
X159857142Y-97842857D01*
X159857142Y-97985714D01*
X159809523Y-98080952D01*
X159761904Y-98128571D01*
X159666666Y-98176190D01*
X159285714Y-98176190D01*
X160809523Y-98652380D02*
X160238095Y-98652380D01*
X160523809Y-98652380D02*
X160523809Y-97652380D01*
X160428571Y-97795238D01*
X160333333Y-97890476D01*
X160238095Y-97938095D01*
X161428571Y-97652380D02*
X161523809Y-97652380D01*
X161619047Y-97700000D01*
X161666666Y-97747619D01*
X161714285Y-97842857D01*
X161761904Y-98033333D01*
X161761904Y-98271428D01*
X161714285Y-98461904D01*
X161666666Y-98557142D01*
X161619047Y-98604761D01*
X161523809Y-98652380D01*
X161428571Y-98652380D01*
X161333333Y-98604761D01*
X161285714Y-98557142D01*
X161238095Y-98461904D01*
X161190476Y-98271428D01*
X161190476Y-98033333D01*
X161238095Y-97842857D01*
X161285714Y-97747619D01*
X161333333Y-97700000D01*
X161428571Y-97652380D01*
%TO.C,R5*%
X141333333Y-98652380D02*
X141000000Y-98176190D01*
X140761904Y-98652380D02*
X140761904Y-97652380D01*
X141142857Y-97652380D01*
X141238095Y-97700000D01*
X141285714Y-97747619D01*
X141333333Y-97842857D01*
X141333333Y-97985714D01*
X141285714Y-98080952D01*
X141238095Y-98128571D01*
X141142857Y-98176190D01*
X140761904Y-98176190D01*
X142238095Y-97652380D02*
X141761904Y-97652380D01*
X141714285Y-98128571D01*
X141761904Y-98080952D01*
X141857142Y-98033333D01*
X142095238Y-98033333D01*
X142190476Y-98080952D01*
X142238095Y-98128571D01*
X142285714Y-98223809D01*
X142285714Y-98461904D01*
X142238095Y-98557142D01*
X142190476Y-98604761D01*
X142095238Y-98652380D01*
X141857142Y-98652380D01*
X141761904Y-98604761D01*
X141714285Y-98557142D01*
%TO.C,R12*%
X159857142Y-96452380D02*
X159523809Y-95976190D01*
X159285714Y-96452380D02*
X159285714Y-95452380D01*
X159666666Y-95452380D01*
X159761904Y-95500000D01*
X159809523Y-95547619D01*
X159857142Y-95642857D01*
X159857142Y-95785714D01*
X159809523Y-95880952D01*
X159761904Y-95928571D01*
X159666666Y-95976190D01*
X159285714Y-95976190D01*
X160809523Y-96452380D02*
X160238095Y-96452380D01*
X160523809Y-96452380D02*
X160523809Y-95452380D01*
X160428571Y-95595238D01*
X160333333Y-95690476D01*
X160238095Y-95738095D01*
X161190476Y-95547619D02*
X161238095Y-95500000D01*
X161333333Y-95452380D01*
X161571428Y-95452380D01*
X161666666Y-95500000D01*
X161714285Y-95547619D01*
X161761904Y-95642857D01*
X161761904Y-95738095D01*
X161714285Y-95880952D01*
X161142857Y-96452380D01*
X161761904Y-96452380D01*
%TO.C,U2*%
X130988095Y-96752380D02*
X130988095Y-97561904D01*
X131035714Y-97657142D01*
X131083333Y-97704761D01*
X131178571Y-97752380D01*
X131369047Y-97752380D01*
X131464285Y-97704761D01*
X131511904Y-97657142D01*
X131559523Y-97561904D01*
X131559523Y-96752380D01*
X131988095Y-96847619D02*
X132035714Y-96800000D01*
X132130952Y-96752380D01*
X132369047Y-96752380D01*
X132464285Y-96800000D01*
X132511904Y-96847619D01*
X132559523Y-96942857D01*
X132559523Y-97038095D01*
X132511904Y-97180952D01*
X131940476Y-97752380D01*
X132559523Y-97752380D01*
%TO.C,U4*%
X153148095Y-99582380D02*
X153148095Y-100391904D01*
X153195714Y-100487142D01*
X153243333Y-100534761D01*
X153338571Y-100582380D01*
X153529047Y-100582380D01*
X153624285Y-100534761D01*
X153671904Y-100487142D01*
X153719523Y-100391904D01*
X153719523Y-99582380D01*
X154624285Y-99915714D02*
X154624285Y-100582380D01*
X154386190Y-99534761D02*
X154148095Y-100249047D01*
X154767142Y-100249047D01*
%TO.C,R15*%
X159857142Y-89852380D02*
X159523809Y-89376190D01*
X159285714Y-89852380D02*
X159285714Y-88852380D01*
X159666666Y-88852380D01*
X159761904Y-88900000D01*
X159809523Y-88947619D01*
X159857142Y-89042857D01*
X159857142Y-89185714D01*
X159809523Y-89280952D01*
X159761904Y-89328571D01*
X159666666Y-89376190D01*
X159285714Y-89376190D01*
X160809523Y-89852380D02*
X160238095Y-89852380D01*
X160523809Y-89852380D02*
X160523809Y-88852380D01*
X160428571Y-88995238D01*
X160333333Y-89090476D01*
X160238095Y-89138095D01*
X161714285Y-88852380D02*
X161238095Y-88852380D01*
X161190476Y-89328571D01*
X161238095Y-89280952D01*
X161333333Y-89233333D01*
X161571428Y-89233333D01*
X161666666Y-89280952D01*
X161714285Y-89328571D01*
X161761904Y-89423809D01*
X161761904Y-89661904D01*
X161714285Y-89757142D01*
X161666666Y-89804761D01*
X161571428Y-89852380D01*
X161333333Y-89852380D01*
X161238095Y-89804761D01*
X161190476Y-89757142D01*
%TO.C,R3*%
X159833333Y-106102380D02*
X159500000Y-105626190D01*
X159261904Y-106102380D02*
X159261904Y-105102380D01*
X159642857Y-105102380D01*
X159738095Y-105150000D01*
X159785714Y-105197619D01*
X159833333Y-105292857D01*
X159833333Y-105435714D01*
X159785714Y-105530952D01*
X159738095Y-105578571D01*
X159642857Y-105626190D01*
X159261904Y-105626190D01*
X160166666Y-105102380D02*
X160785714Y-105102380D01*
X160452380Y-105483333D01*
X160595238Y-105483333D01*
X160690476Y-105530952D01*
X160738095Y-105578571D01*
X160785714Y-105673809D01*
X160785714Y-105911904D01*
X160738095Y-106007142D01*
X160690476Y-106054761D01*
X160595238Y-106102380D01*
X160309523Y-106102380D01*
X160214285Y-106054761D01*
X160166666Y-106007142D01*
%TO.C,J5*%
X161066666Y-85952380D02*
X161066666Y-86666666D01*
X161019047Y-86809523D01*
X160923809Y-86904761D01*
X160780952Y-86952380D01*
X160685714Y-86952380D01*
X162019047Y-85952380D02*
X161542857Y-85952380D01*
X161495238Y-86428571D01*
X161542857Y-86380952D01*
X161638095Y-86333333D01*
X161876190Y-86333333D01*
X161971428Y-86380952D01*
X162019047Y-86428571D01*
X162066666Y-86523809D01*
X162066666Y-86761904D01*
X162019047Y-86857142D01*
X161971428Y-86904761D01*
X161876190Y-86952380D01*
X161638095Y-86952380D01*
X161542857Y-86904761D01*
X161495238Y-86857142D01*
%TO.C,C4*%
X130433333Y-107107142D02*
X130385714Y-107154761D01*
X130242857Y-107202380D01*
X130147619Y-107202380D01*
X130004761Y-107154761D01*
X129909523Y-107059523D01*
X129861904Y-106964285D01*
X129814285Y-106773809D01*
X129814285Y-106630952D01*
X129861904Y-106440476D01*
X129909523Y-106345238D01*
X130004761Y-106250000D01*
X130147619Y-106202380D01*
X130242857Y-106202380D01*
X130385714Y-106250000D01*
X130433333Y-106297619D01*
X131290476Y-106535714D02*
X131290476Y-107202380D01*
X131052380Y-106154761D02*
X130814285Y-106869047D01*
X131433333Y-106869047D01*
%TO.C,C3*%
X148683333Y-102007142D02*
X148635714Y-102054761D01*
X148492857Y-102102380D01*
X148397619Y-102102380D01*
X148254761Y-102054761D01*
X148159523Y-101959523D01*
X148111904Y-101864285D01*
X148064285Y-101673809D01*
X148064285Y-101530952D01*
X148111904Y-101340476D01*
X148159523Y-101245238D01*
X148254761Y-101150000D01*
X148397619Y-101102380D01*
X148492857Y-101102380D01*
X148635714Y-101150000D01*
X148683333Y-101197619D01*
X149016666Y-101102380D02*
X149635714Y-101102380D01*
X149302380Y-101483333D01*
X149445238Y-101483333D01*
X149540476Y-101530952D01*
X149588095Y-101578571D01*
X149635714Y-101673809D01*
X149635714Y-101911904D01*
X149588095Y-102007142D01*
X149540476Y-102054761D01*
X149445238Y-102102380D01*
X149159523Y-102102380D01*
X149064285Y-102054761D01*
X149016666Y-102007142D01*
%TO.C,R8*%
X141333333Y-89602380D02*
X141000000Y-89126190D01*
X140761904Y-89602380D02*
X140761904Y-88602380D01*
X141142857Y-88602380D01*
X141238095Y-88650000D01*
X141285714Y-88697619D01*
X141333333Y-88792857D01*
X141333333Y-88935714D01*
X141285714Y-89030952D01*
X141238095Y-89078571D01*
X141142857Y-89126190D01*
X140761904Y-89126190D01*
X141904761Y-89030952D02*
X141809523Y-88983333D01*
X141761904Y-88935714D01*
X141714285Y-88840476D01*
X141714285Y-88792857D01*
X141761904Y-88697619D01*
X141809523Y-88650000D01*
X141904761Y-88602380D01*
X142095238Y-88602380D01*
X142190476Y-88650000D01*
X142238095Y-88697619D01*
X142285714Y-88792857D01*
X142285714Y-88840476D01*
X142238095Y-88935714D01*
X142190476Y-88983333D01*
X142095238Y-89030952D01*
X141904761Y-89030952D01*
X141809523Y-89078571D01*
X141761904Y-89126190D01*
X141714285Y-89221428D01*
X141714285Y-89411904D01*
X141761904Y-89507142D01*
X141809523Y-89554761D01*
X141904761Y-89602380D01*
X142095238Y-89602380D01*
X142190476Y-89554761D01*
X142238095Y-89507142D01*
X142285714Y-89411904D01*
X142285714Y-89221428D01*
X142238095Y-89126190D01*
X142190476Y-89078571D01*
X142095238Y-89030952D01*
%TO.C,R9*%
X141333333Y-100852380D02*
X141000000Y-100376190D01*
X140761904Y-100852380D02*
X140761904Y-99852380D01*
X141142857Y-99852380D01*
X141238095Y-99900000D01*
X141285714Y-99947619D01*
X141333333Y-100042857D01*
X141333333Y-100185714D01*
X141285714Y-100280952D01*
X141238095Y-100328571D01*
X141142857Y-100376190D01*
X140761904Y-100376190D01*
X141809523Y-100852380D02*
X142000000Y-100852380D01*
X142095238Y-100804761D01*
X142142857Y-100757142D01*
X142238095Y-100614285D01*
X142285714Y-100423809D01*
X142285714Y-100042857D01*
X142238095Y-99947619D01*
X142190476Y-99900000D01*
X142095238Y-99852380D01*
X141904761Y-99852380D01*
X141809523Y-99900000D01*
X141761904Y-99947619D01*
X141714285Y-100042857D01*
X141714285Y-100280952D01*
X141761904Y-100376190D01*
X141809523Y-100423809D01*
X141904761Y-100471428D01*
X142095238Y-100471428D01*
X142190476Y-100423809D01*
X142238095Y-100376190D01*
X142285714Y-100280952D01*
%TO.C,R7*%
X141333333Y-96452380D02*
X141000000Y-95976190D01*
X140761904Y-96452380D02*
X140761904Y-95452380D01*
X141142857Y-95452380D01*
X141238095Y-95500000D01*
X141285714Y-95547619D01*
X141333333Y-95642857D01*
X141333333Y-95785714D01*
X141285714Y-95880952D01*
X141238095Y-95928571D01*
X141142857Y-95976190D01*
X140761904Y-95976190D01*
X141666666Y-95452380D02*
X142333333Y-95452380D01*
X141904761Y-96452380D01*
%TO.C,R14*%
X160067142Y-100762380D02*
X159733809Y-100286190D01*
X159495714Y-100762380D02*
X159495714Y-99762380D01*
X159876666Y-99762380D01*
X159971904Y-99810000D01*
X160019523Y-99857619D01*
X160067142Y-99952857D01*
X160067142Y-100095714D01*
X160019523Y-100190952D01*
X159971904Y-100238571D01*
X159876666Y-100286190D01*
X159495714Y-100286190D01*
X161019523Y-100762380D02*
X160448095Y-100762380D01*
X160733809Y-100762380D02*
X160733809Y-99762380D01*
X160638571Y-99905238D01*
X160543333Y-100000476D01*
X160448095Y-100048095D01*
X161876666Y-100095714D02*
X161876666Y-100762380D01*
X161638571Y-99714761D02*
X161400476Y-100429047D01*
X162019523Y-100429047D01*
%TO.C,R6*%
X141333333Y-94502380D02*
X141000000Y-94026190D01*
X140761904Y-94502380D02*
X140761904Y-93502380D01*
X141142857Y-93502380D01*
X141238095Y-93550000D01*
X141285714Y-93597619D01*
X141333333Y-93692857D01*
X141333333Y-93835714D01*
X141285714Y-93930952D01*
X141238095Y-93978571D01*
X141142857Y-94026190D01*
X140761904Y-94026190D01*
X142190476Y-93502380D02*
X142000000Y-93502380D01*
X141904761Y-93550000D01*
X141857142Y-93597619D01*
X141761904Y-93740476D01*
X141714285Y-93930952D01*
X141714285Y-94311904D01*
X141761904Y-94407142D01*
X141809523Y-94454761D01*
X141904761Y-94502380D01*
X142095238Y-94502380D01*
X142190476Y-94454761D01*
X142238095Y-94407142D01*
X142285714Y-94311904D01*
X142285714Y-94073809D01*
X142238095Y-93978571D01*
X142190476Y-93930952D01*
X142095238Y-93883333D01*
X141904761Y-93883333D01*
X141809523Y-93930952D01*
X141761904Y-93978571D01*
X141714285Y-94073809D01*
%TO.C,C10*%
X148407142Y-112007142D02*
X148359523Y-112054761D01*
X148216666Y-112102380D01*
X148121428Y-112102380D01*
X147978571Y-112054761D01*
X147883333Y-111959523D01*
X147835714Y-111864285D01*
X147788095Y-111673809D01*
X147788095Y-111530952D01*
X147835714Y-111340476D01*
X147883333Y-111245238D01*
X147978571Y-111150000D01*
X148121428Y-111102380D01*
X148216666Y-111102380D01*
X148359523Y-111150000D01*
X148407142Y-111197619D01*
X149359523Y-112102380D02*
X148788095Y-112102380D01*
X149073809Y-112102380D02*
X149073809Y-111102380D01*
X148978571Y-111245238D01*
X148883333Y-111340476D01*
X148788095Y-111388095D01*
X149978571Y-111102380D02*
X150073809Y-111102380D01*
X150169047Y-111150000D01*
X150216666Y-111197619D01*
X150264285Y-111292857D01*
X150311904Y-111483333D01*
X150311904Y-111721428D01*
X150264285Y-111911904D01*
X150216666Y-112007142D01*
X150169047Y-112054761D01*
X150073809Y-112102380D01*
X149978571Y-112102380D01*
X149883333Y-112054761D01*
X149835714Y-112007142D01*
X149788095Y-111911904D01*
X149740476Y-111721428D01*
X149740476Y-111483333D01*
X149788095Y-111292857D01*
X149835714Y-111197619D01*
X149883333Y-111150000D01*
X149978571Y-111102380D01*
%TO.C,C1*%
X138283333Y-105557142D02*
X138235714Y-105604761D01*
X138092857Y-105652380D01*
X137997619Y-105652380D01*
X137854761Y-105604761D01*
X137759523Y-105509523D01*
X137711904Y-105414285D01*
X137664285Y-105223809D01*
X137664285Y-105080952D01*
X137711904Y-104890476D01*
X137759523Y-104795238D01*
X137854761Y-104700000D01*
X137997619Y-104652380D01*
X138092857Y-104652380D01*
X138235714Y-104700000D01*
X138283333Y-104747619D01*
X139235714Y-105652380D02*
X138664285Y-105652380D01*
X138950000Y-105652380D02*
X138950000Y-104652380D01*
X138854761Y-104795238D01*
X138759523Y-104890476D01*
X138664285Y-104938095D01*
%TO.C,J7*%
X160966666Y-118752380D02*
X160966666Y-119466666D01*
X160919047Y-119609523D01*
X160823809Y-119704761D01*
X160680952Y-119752380D01*
X160585714Y-119752380D01*
X161347619Y-118752380D02*
X162014285Y-118752380D01*
X161585714Y-119752380D01*
%TO.C,R2*%
X159833333Y-103902380D02*
X159500000Y-103426190D01*
X159261904Y-103902380D02*
X159261904Y-102902380D01*
X159642857Y-102902380D01*
X159738095Y-102950000D01*
X159785714Y-102997619D01*
X159833333Y-103092857D01*
X159833333Y-103235714D01*
X159785714Y-103330952D01*
X159738095Y-103378571D01*
X159642857Y-103426190D01*
X159261904Y-103426190D01*
X160214285Y-102997619D02*
X160261904Y-102950000D01*
X160357142Y-102902380D01*
X160595238Y-102902380D01*
X160690476Y-102950000D01*
X160738095Y-102997619D01*
X160785714Y-103092857D01*
X160785714Y-103188095D01*
X160738095Y-103330952D01*
X160166666Y-103902380D01*
X160785714Y-103902380D01*
%TO.C,R13*%
X159857142Y-94252380D02*
X159523809Y-93776190D01*
X159285714Y-94252380D02*
X159285714Y-93252380D01*
X159666666Y-93252380D01*
X159761904Y-93300000D01*
X159809523Y-93347619D01*
X159857142Y-93442857D01*
X159857142Y-93585714D01*
X159809523Y-93680952D01*
X159761904Y-93728571D01*
X159666666Y-93776190D01*
X159285714Y-93776190D01*
X160809523Y-94252380D02*
X160238095Y-94252380D01*
X160523809Y-94252380D02*
X160523809Y-93252380D01*
X160428571Y-93395238D01*
X160333333Y-93490476D01*
X160238095Y-93538095D01*
X161142857Y-93252380D02*
X161761904Y-93252380D01*
X161428571Y-93633333D01*
X161571428Y-93633333D01*
X161666666Y-93680952D01*
X161714285Y-93728571D01*
X161761904Y-93823809D01*
X161761904Y-94061904D01*
X161714285Y-94157142D01*
X161666666Y-94204761D01*
X161571428Y-94252380D01*
X161285714Y-94252380D01*
X161190476Y-94204761D01*
X161142857Y-94157142D01*
%TO.C,U1*%
X143700595Y-101402380D02*
X143700595Y-102211904D01*
X143748214Y-102307142D01*
X143795833Y-102354761D01*
X143891071Y-102402380D01*
X144081547Y-102402380D01*
X144176785Y-102354761D01*
X144224404Y-102307142D01*
X144272023Y-102211904D01*
X144272023Y-101402380D01*
X145272023Y-102402380D02*
X144700595Y-102402380D01*
X144986309Y-102402380D02*
X144986309Y-101402380D01*
X144891071Y-101545238D01*
X144795833Y-101640476D01*
X144700595Y-101688095D01*
%TO.C,R4*%
X141333333Y-92052380D02*
X141000000Y-91576190D01*
X140761904Y-92052380D02*
X140761904Y-91052380D01*
X141142857Y-91052380D01*
X141238095Y-91100000D01*
X141285714Y-91147619D01*
X141333333Y-91242857D01*
X141333333Y-91385714D01*
X141285714Y-91480952D01*
X141238095Y-91528571D01*
X141142857Y-91576190D01*
X140761904Y-91576190D01*
X142190476Y-91385714D02*
X142190476Y-92052380D01*
X141952380Y-91004761D02*
X141714285Y-91719047D01*
X142333333Y-91719047D01*
%TO.C,C7*%
X152933333Y-87257142D02*
X152885714Y-87304761D01*
X152742857Y-87352380D01*
X152647619Y-87352380D01*
X152504761Y-87304761D01*
X152409523Y-87209523D01*
X152361904Y-87114285D01*
X152314285Y-86923809D01*
X152314285Y-86780952D01*
X152361904Y-86590476D01*
X152409523Y-86495238D01*
X152504761Y-86400000D01*
X152647619Y-86352380D01*
X152742857Y-86352380D01*
X152885714Y-86400000D01*
X152933333Y-86447619D01*
X153266666Y-86352380D02*
X153933333Y-86352380D01*
X153504761Y-87352380D01*
%TO.C,C2*%
X136833333Y-110857142D02*
X136785714Y-110904761D01*
X136642857Y-110952380D01*
X136547619Y-110952380D01*
X136404761Y-110904761D01*
X136309523Y-110809523D01*
X136261904Y-110714285D01*
X136214285Y-110523809D01*
X136214285Y-110380952D01*
X136261904Y-110190476D01*
X136309523Y-110095238D01*
X136404761Y-110000000D01*
X136547619Y-109952380D01*
X136642857Y-109952380D01*
X136785714Y-110000000D01*
X136833333Y-110047619D01*
X137214285Y-110047619D02*
X137261904Y-110000000D01*
X137357142Y-109952380D01*
X137595238Y-109952380D01*
X137690476Y-110000000D01*
X137738095Y-110047619D01*
X137785714Y-110142857D01*
X137785714Y-110238095D01*
X137738095Y-110380952D01*
X137166666Y-110952380D01*
X137785714Y-110952380D01*
%TO.C,U3*%
X151688095Y-101402380D02*
X151688095Y-102211904D01*
X151735714Y-102307142D01*
X151783333Y-102354761D01*
X151878571Y-102402380D01*
X152069047Y-102402380D01*
X152164285Y-102354761D01*
X152211904Y-102307142D01*
X152259523Y-102211904D01*
X152259523Y-101402380D01*
X152640476Y-101402380D02*
X153259523Y-101402380D01*
X152926190Y-101783333D01*
X153069047Y-101783333D01*
X153164285Y-101830952D01*
X153211904Y-101878571D01*
X153259523Y-101973809D01*
X153259523Y-102211904D01*
X153211904Y-102307142D01*
X153164285Y-102354761D01*
X153069047Y-102402380D01*
X152783333Y-102402380D01*
X152688095Y-102354761D01*
X152640476Y-102307142D01*
%TO.C,C8*%
X140833333Y-102207142D02*
X140785714Y-102254761D01*
X140642857Y-102302380D01*
X140547619Y-102302380D01*
X140404761Y-102254761D01*
X140309523Y-102159523D01*
X140261904Y-102064285D01*
X140214285Y-101873809D01*
X140214285Y-101730952D01*
X140261904Y-101540476D01*
X140309523Y-101445238D01*
X140404761Y-101350000D01*
X140547619Y-101302380D01*
X140642857Y-101302380D01*
X140785714Y-101350000D01*
X140833333Y-101397619D01*
X141404761Y-101730952D02*
X141309523Y-101683333D01*
X141261904Y-101635714D01*
X141214285Y-101540476D01*
X141214285Y-101492857D01*
X141261904Y-101397619D01*
X141309523Y-101350000D01*
X141404761Y-101302380D01*
X141595238Y-101302380D01*
X141690476Y-101350000D01*
X141738095Y-101397619D01*
X141785714Y-101492857D01*
X141785714Y-101540476D01*
X141738095Y-101635714D01*
X141690476Y-101683333D01*
X141595238Y-101730952D01*
X141404761Y-101730952D01*
X141309523Y-101778571D01*
X141261904Y-101826190D01*
X141214285Y-101921428D01*
X141214285Y-102111904D01*
X141261904Y-102207142D01*
X141309523Y-102254761D01*
X141404761Y-102302380D01*
X141595238Y-102302380D01*
X141690476Y-102254761D01*
X141738095Y-102207142D01*
X141785714Y-102111904D01*
X141785714Y-101921428D01*
X141738095Y-101826190D01*
X141690476Y-101778571D01*
X141595238Y-101730952D01*
%TO.C,J4*%
X129766666Y-86152380D02*
X129766666Y-86866666D01*
X129719047Y-87009523D01*
X129623809Y-87104761D01*
X129480952Y-87152380D01*
X129385714Y-87152380D01*
X130671428Y-86485714D02*
X130671428Y-87152380D01*
X130433333Y-86104761D02*
X130195238Y-86819047D01*
X130814285Y-86819047D01*
%TO.C,U6*%
X151738095Y-111102380D02*
X151738095Y-111911904D01*
X151785714Y-112007142D01*
X151833333Y-112054761D01*
X151928571Y-112102380D01*
X152119047Y-112102380D01*
X152214285Y-112054761D01*
X152261904Y-112007142D01*
X152309523Y-111911904D01*
X152309523Y-111102380D01*
X153214285Y-111102380D02*
X153023809Y-111102380D01*
X152928571Y-111150000D01*
X152880952Y-111197619D01*
X152785714Y-111340476D01*
X152738095Y-111530952D01*
X152738095Y-111911904D01*
X152785714Y-112007142D01*
X152833333Y-112054761D01*
X152928571Y-112102380D01*
X153119047Y-112102380D01*
X153214285Y-112054761D01*
X153261904Y-112007142D01*
X153309523Y-111911904D01*
X153309523Y-111673809D01*
X153261904Y-111578571D01*
X153214285Y-111530952D01*
X153119047Y-111483333D01*
X152928571Y-111483333D01*
X152833333Y-111530952D01*
X152785714Y-111578571D01*
X152738095Y-111673809D01*
%TO.C,J1*%
X134166666Y-118052380D02*
X134166666Y-118766666D01*
X134119047Y-118909523D01*
X134023809Y-119004761D01*
X133880952Y-119052380D01*
X133785714Y-119052380D01*
X135166666Y-119052380D02*
X134595238Y-119052380D01*
X134880952Y-119052380D02*
X134880952Y-118052380D01*
X134785714Y-118195238D01*
X134690476Y-118290476D01*
X134595238Y-118338095D01*
%TO.C,C9*%
X140783333Y-111907142D02*
X140735714Y-111954761D01*
X140592857Y-112002380D01*
X140497619Y-112002380D01*
X140354761Y-111954761D01*
X140259523Y-111859523D01*
X140211904Y-111764285D01*
X140164285Y-111573809D01*
X140164285Y-111430952D01*
X140211904Y-111240476D01*
X140259523Y-111145238D01*
X140354761Y-111050000D01*
X140497619Y-111002380D01*
X140592857Y-111002380D01*
X140735714Y-111050000D01*
X140783333Y-111097619D01*
X141259523Y-112002380D02*
X141450000Y-112002380D01*
X141545238Y-111954761D01*
X141592857Y-111907142D01*
X141688095Y-111764285D01*
X141735714Y-111573809D01*
X141735714Y-111192857D01*
X141688095Y-111097619D01*
X141640476Y-111050000D01*
X141545238Y-111002380D01*
X141354761Y-111002380D01*
X141259523Y-111050000D01*
X141211904Y-111097619D01*
X141164285Y-111192857D01*
X141164285Y-111430952D01*
X141211904Y-111526190D01*
X141259523Y-111573809D01*
X141354761Y-111621428D01*
X141545238Y-111621428D01*
X141640476Y-111573809D01*
X141688095Y-111526190D01*
X141735714Y-111430952D01*
D12*
%TO.C,J3*%
X118990000Y-76367500D02*
X118990000Y-85187500D01*
X138880000Y-85187500D02*
X136880000Y-85187500D01*
X172010000Y-76367500D02*
X118990000Y-76367500D01*
X154120000Y-85187500D02*
X152120000Y-85187500D01*
X152120000Y-84377500D02*
X149040000Y-84377500D01*
X136880000Y-84377500D02*
X133800000Y-84377500D01*
X143960000Y-85187500D02*
X141960000Y-85187500D01*
X130800000Y-78077500D02*
X129720000Y-78077500D01*
X119900000Y-78077500D02*
X120640000Y-78077500D01*
X168360000Y-85387500D02*
X168660000Y-85987500D01*
X159200000Y-85187500D02*
X157200000Y-85187500D01*
X168660000Y-85987500D02*
X168060000Y-85987500D01*
X143960000Y-83377500D02*
X143960000Y-85187500D01*
X154120000Y-83377500D02*
X154120000Y-85187500D01*
X119900000Y-83377500D02*
X119900000Y-78077500D01*
X147040000Y-83377500D02*
X149040000Y-83377500D01*
X161280000Y-78077500D02*
X160200000Y-78077500D01*
X149040000Y-85187500D02*
X147040000Y-85187500D01*
X131800000Y-83377500D02*
X133800000Y-83377500D01*
X170360000Y-78077500D02*
X171100000Y-78077500D01*
X164280000Y-85187500D02*
X162280000Y-85187500D01*
X141960000Y-84377500D02*
X138880000Y-84377500D01*
X172010000Y-85187500D02*
X172010000Y-76367500D01*
X157200000Y-84377500D02*
X154120000Y-84377500D01*
X151120000Y-78077500D02*
X150040000Y-78077500D01*
X157200000Y-83377500D02*
X159200000Y-83377500D01*
X123640000Y-85187500D02*
X121640000Y-85187500D01*
X169360000Y-85187500D02*
X167360000Y-85187500D01*
X169360000Y-83377500D02*
X169360000Y-85187500D01*
X136880000Y-83377500D02*
X138880000Y-83377500D01*
X138880000Y-83377500D02*
X138880000Y-85187500D01*
X141960000Y-85187500D02*
X141960000Y-83377500D01*
X131800000Y-84377500D02*
X128720000Y-84377500D01*
X126720000Y-83377500D02*
X128720000Y-83377500D01*
X171100000Y-78077500D02*
X171100000Y-83377500D01*
X168060000Y-85987500D02*
X168360000Y-85387500D01*
X133800000Y-83377500D02*
X133800000Y-85187500D01*
X123640000Y-83377500D02*
X123640000Y-85187500D01*
X162280000Y-84377500D02*
X159200000Y-84377500D01*
X136880000Y-85187500D02*
X136880000Y-83377500D01*
X152120000Y-85187500D02*
X152120000Y-83377500D01*
X133800000Y-85187500D02*
X131800000Y-85187500D01*
X118990000Y-84377500D02*
X121530000Y-84377500D01*
X162280000Y-83377500D02*
X164280000Y-83377500D01*
X167360000Y-85187500D02*
X167360000Y-83377500D01*
X156200000Y-78077500D02*
X155120000Y-78077500D01*
X166360000Y-78077500D02*
X165280000Y-78077500D01*
X126720000Y-84377500D02*
X123640000Y-84377500D01*
X159200000Y-83377500D02*
X159200000Y-85187500D01*
X171100000Y-83377500D02*
X119900000Y-83377500D01*
X167360000Y-84377500D02*
X164280000Y-84377500D01*
X147040000Y-85187500D02*
X147040000Y-83377500D01*
X157200000Y-85187500D02*
X157200000Y-83377500D01*
X162280000Y-85187500D02*
X162280000Y-83377500D01*
X140960000Y-78077500D02*
X139880000Y-78077500D01*
X164280000Y-83377500D02*
X164280000Y-85187500D01*
X147040000Y-84377500D02*
X143960000Y-84377500D01*
X126720000Y-85187500D02*
X126720000Y-83377500D01*
X172010000Y-84377500D02*
X169470000Y-84377500D01*
X131800000Y-85187500D02*
X131800000Y-83377500D01*
X128720000Y-83377500D02*
X128720000Y-85187500D01*
X141960000Y-83377500D02*
X143960000Y-83377500D01*
X146040000Y-78077500D02*
X144960000Y-78077500D01*
X128720000Y-85187500D02*
X126720000Y-85187500D01*
X152120000Y-83377500D02*
X154120000Y-83377500D01*
X167360000Y-83377500D02*
X169360000Y-83377500D01*
X121640000Y-85187500D02*
X121640000Y-83377500D01*
X121640000Y-83377500D02*
X123640000Y-83377500D01*
X135880000Y-78077500D02*
X134800000Y-78077500D01*
X118990000Y-85187500D02*
X172010000Y-85187500D01*
X149040000Y-83377500D02*
X149040000Y-85187500D01*
X125720000Y-78077500D02*
X124640000Y-78077500D01*
X144960000Y-78077500D02*
G75*
G03*
X140973158Y-78061679I-2000000J-1650000D01*
G01*
X124640000Y-78077500D02*
G75*
G03*
X120653158Y-78061679I-2000000J-1650000D01*
G01*
X150040000Y-78077500D02*
G75*
G03*
X146053158Y-78061679I-2000000J-1650000D01*
G01*
X129720000Y-78077500D02*
G75*
G03*
X125733158Y-78061679I-2000000J-1650000D01*
G01*
X170360000Y-78077500D02*
G75*
G03*
X166373158Y-78061679I-2000000J-1650000D01*
G01*
X134800000Y-78077500D02*
G75*
G03*
X130813158Y-78061679I-2000000J-1650000D01*
G01*
X165280000Y-78077500D02*
G75*
G03*
X161293158Y-78061679I-2000000J-1650000D01*
G01*
X160200000Y-78077500D02*
G75*
G03*
X156213158Y-78061679I-2000000J-1650000D01*
G01*
X155120000Y-78077500D02*
G75*
G03*
X151133158Y-78061679I-2000000J-1650000D01*
G01*
X139880000Y-78077500D02*
G75*
G03*
X135893158Y-78061679I-2000000J-1650000D01*
G01*
%TO.C,R1*%
X157022936Y-107165000D02*
X157477064Y-107165000D01*
X157022936Y-108635000D02*
X157477064Y-108635000D01*
%TO.C,R11*%
X157477064Y-92335000D02*
X157022936Y-92335000D01*
X157477064Y-90865000D02*
X157022936Y-90865000D01*
%TO.C,R16*%
X157072936Y-109465000D02*
X157527064Y-109465000D01*
X157072936Y-110935000D02*
X157527064Y-110935000D01*
%TO.C,C6*%
X149093752Y-87765000D02*
X148571248Y-87765000D01*
X149093752Y-89235000D02*
X148571248Y-89235000D01*
%TO.C,J6*%
X127775000Y-119155000D02*
X126445000Y-119155000D01*
X126445000Y-119155000D02*
X126445000Y-117825000D01*
X126445000Y-116555000D02*
X126445000Y-103795000D01*
X129105000Y-103795000D02*
X126445000Y-103795000D01*
X129105000Y-116555000D02*
X126445000Y-116555000D01*
X129105000Y-116555000D02*
X129105000Y-103795000D01*
%TO.C,U5*%
X144462500Y-107590000D02*
X142662500Y-107590000D01*
X144462500Y-110710000D02*
X143662500Y-110710000D01*
X144462500Y-110710000D02*
X145262500Y-110710000D01*
X144462500Y-107590000D02*
X145262500Y-107590000D01*
%TO.C,J2*%
X167610000Y-64667500D02*
X169110000Y-64667500D01*
X118990000Y-64667500D02*
X172010000Y-64667500D01*
X152120000Y-63167500D02*
X152370000Y-64667500D01*
X147040000Y-63167500D02*
X147290000Y-64667500D01*
X164280000Y-63167500D02*
X162280000Y-63167500D01*
X149040000Y-63167500D02*
X147040000Y-63167500D01*
X172010000Y-75387500D02*
X172010000Y-63167500D01*
X137130000Y-64667500D02*
X138630000Y-64667500D01*
X138880000Y-63167500D02*
X136880000Y-63167500D01*
X133550000Y-64667500D02*
X133800000Y-63167500D01*
X123640000Y-63167500D02*
X121640000Y-63167500D01*
X132050000Y-64667500D02*
X133550000Y-64667500D01*
X162280000Y-63167500D02*
X162530000Y-64667500D01*
X126970000Y-64667500D02*
X128470000Y-64667500D01*
X168660000Y-76187500D02*
X168060000Y-76187500D01*
X154120000Y-63167500D02*
X152120000Y-63167500D01*
X121640000Y-63167500D02*
X121890000Y-64667500D01*
X118990000Y-75387500D02*
X172010000Y-75387500D01*
X157450000Y-64667500D02*
X158950000Y-64667500D01*
X148790000Y-64667500D02*
X149040000Y-63167500D01*
X168060000Y-76187500D02*
X168360000Y-75587500D01*
X141960000Y-63167500D02*
X142210000Y-64667500D01*
X159200000Y-63167500D02*
X157200000Y-63167500D01*
X128470000Y-64667500D02*
X128720000Y-63167500D01*
X133800000Y-63167500D02*
X131800000Y-63167500D01*
X168360000Y-75587500D02*
X168660000Y-76187500D01*
X118990000Y-66467500D02*
X118990000Y-64667500D01*
X136880000Y-63167500D02*
X137130000Y-64667500D01*
X172010000Y-66467500D02*
X118990000Y-66467500D01*
X138630000Y-64667500D02*
X138880000Y-63167500D01*
X143710000Y-64667500D02*
X143960000Y-63167500D01*
X167360000Y-63167500D02*
X167610000Y-64667500D01*
X118990000Y-63167500D02*
X118990000Y-75387500D01*
X162530000Y-64667500D02*
X164030000Y-64667500D01*
X158950000Y-64667500D02*
X159200000Y-63167500D01*
X143960000Y-63167500D02*
X141960000Y-63167500D01*
X157200000Y-63167500D02*
X157450000Y-64667500D01*
X131800000Y-63167500D02*
X132050000Y-64667500D01*
X153870000Y-64667500D02*
X154120000Y-63167500D01*
X121890000Y-64667500D02*
X123390000Y-64667500D01*
X152370000Y-64667500D02*
X153870000Y-64667500D01*
X142210000Y-64667500D02*
X143710000Y-64667500D01*
X169360000Y-63167500D02*
X167360000Y-63167500D01*
X172010000Y-64667500D02*
X172010000Y-66467500D01*
X123390000Y-64667500D02*
X123640000Y-63167500D01*
X164030000Y-64667500D02*
X164280000Y-63167500D01*
X147290000Y-64667500D02*
X148790000Y-64667500D01*
X169110000Y-64667500D02*
X169360000Y-63167500D01*
X128720000Y-63167500D02*
X126720000Y-63167500D01*
X126720000Y-63167500D02*
X126970000Y-64667500D01*
X172010000Y-63167500D02*
X118990000Y-63167500D01*
%TO.C,R10*%
X157477064Y-98935000D02*
X157022936Y-98935000D01*
X157477064Y-97465000D02*
X157022936Y-97465000D01*
%TO.C,R5*%
X144272936Y-97465000D02*
X144727064Y-97465000D01*
X144272936Y-98935000D02*
X144727064Y-98935000D01*
%TO.C,R12*%
X157477064Y-95265000D02*
X157022936Y-95265000D01*
X157477064Y-96735000D02*
X157022936Y-96735000D01*
%TO.C,U2*%
X131690000Y-104350000D02*
X131690000Y-98340000D01*
X138510000Y-98340000D02*
X137250000Y-98340000D01*
X138510000Y-102100000D02*
X138510000Y-98340000D01*
X131690000Y-98340000D02*
X132950000Y-98340000D01*
%TO.C,U4*%
X151000000Y-90565000D02*
X152950000Y-90565000D01*
X151000000Y-99435000D02*
X152950000Y-99435000D01*
X151000000Y-90565000D02*
X147550000Y-90565000D01*
X151000000Y-99435000D02*
X149050000Y-99435000D01*
%TO.C,R15*%
X157477064Y-88665000D02*
X157022936Y-88665000D01*
X157477064Y-90135000D02*
X157022936Y-90135000D01*
%TO.C,R3*%
X157022936Y-104915000D02*
X157477064Y-104915000D01*
X157022936Y-106385000D02*
X157477064Y-106385000D01*
%TO.C,J5*%
X162170000Y-89610000D02*
X164830000Y-89610000D01*
X162170000Y-102370000D02*
X164830000Y-102370000D01*
X163500000Y-87010000D02*
X164830000Y-87010000D01*
X164830000Y-87010000D02*
X164830000Y-88340000D01*
X164830000Y-89610000D02*
X164830000Y-102370000D01*
X162170000Y-89610000D02*
X162170000Y-102370000D01*
%TO.C,C4*%
X133523752Y-105865000D02*
X133001248Y-105865000D01*
X133523752Y-107335000D02*
X133001248Y-107335000D01*
%TO.C,C3*%
X148165000Y-104448752D02*
X148165000Y-103926248D01*
X149635000Y-104448752D02*
X149635000Y-103926248D01*
%TO.C,R8*%
X144272936Y-90135000D02*
X144727064Y-90135000D01*
X144272936Y-88665000D02*
X144727064Y-88665000D01*
%TO.C,R9*%
X144272936Y-99665000D02*
X144727064Y-99665000D01*
X144272936Y-101135000D02*
X144727064Y-101135000D01*
%TO.C,R7*%
X144272936Y-95265000D02*
X144727064Y-95265000D01*
X144272936Y-96735000D02*
X144727064Y-96735000D01*
%TO.C,R14*%
X157477064Y-101135000D02*
X157022936Y-101135000D01*
X157477064Y-99665000D02*
X157022936Y-99665000D01*
%TO.C,R6*%
X144272936Y-94535000D02*
X144727064Y-94535000D01*
X144272936Y-93065000D02*
X144727064Y-93065000D01*
%TO.C,C10*%
X148165000Y-109323752D02*
X148165000Y-108801248D01*
X149635000Y-109323752D02*
X149635000Y-108801248D01*
%TO.C,C1*%
X137548752Y-105865000D02*
X137026248Y-105865000D01*
X137548752Y-107335000D02*
X137026248Y-107335000D01*
%TO.C,J7*%
X164855000Y-103870000D02*
X164855000Y-105200000D01*
X164855000Y-106470000D02*
X164855000Y-119230000D01*
X162195000Y-119230000D02*
X164855000Y-119230000D01*
X163525000Y-103870000D02*
X164855000Y-103870000D01*
X162195000Y-106470000D02*
X164855000Y-106470000D01*
X162195000Y-106470000D02*
X162195000Y-119230000D01*
%TO.C,R2*%
X157022936Y-104185000D02*
X157477064Y-104185000D01*
X157022936Y-102715000D02*
X157477064Y-102715000D01*
%TO.C,R13*%
X157477064Y-94535000D02*
X157022936Y-94535000D01*
X157477064Y-93065000D02*
X157022936Y-93065000D01*
%TO.C,U1*%
X144462500Y-105910000D02*
X143662500Y-105910000D01*
X144462500Y-105910000D02*
X145262500Y-105910000D01*
X144462500Y-102790000D02*
X142662500Y-102790000D01*
X144462500Y-102790000D02*
X145262500Y-102790000D01*
%TO.C,R4*%
X144272936Y-90865000D02*
X144727064Y-90865000D01*
X144272936Y-92335000D02*
X144727064Y-92335000D01*
%TO.C,C7*%
X153358752Y-87785000D02*
X152836248Y-87785000D01*
X153358752Y-89255000D02*
X152836248Y-89255000D01*
%TO.C,C2*%
X137523752Y-108265000D02*
X137001248Y-108265000D01*
X137523752Y-109735000D02*
X137001248Y-109735000D01*
%TO.C,U3*%
X152450000Y-102790000D02*
X150650000Y-102790000D01*
X152450000Y-102790000D02*
X153250000Y-102790000D01*
X152450000Y-105910000D02*
X153250000Y-105910000D01*
X152450000Y-105910000D02*
X151650000Y-105910000D01*
%TO.C,C8*%
X141735000Y-104523752D02*
X141735000Y-104001248D01*
X140265000Y-104523752D02*
X140265000Y-104001248D01*
%TO.C,J4*%
X129105000Y-99655000D02*
X126445000Y-99655000D01*
X129105000Y-86895000D02*
X126445000Y-86895000D01*
X126445000Y-99655000D02*
X126445000Y-86895000D01*
X129105000Y-99655000D02*
X129105000Y-86895000D01*
X127775000Y-102255000D02*
X126445000Y-102255000D01*
X126445000Y-102255000D02*
X126445000Y-100925000D01*
%TO.C,U6*%
X152450000Y-107640000D02*
X153250000Y-107640000D01*
X152450000Y-110760000D02*
X153250000Y-110760000D01*
X152450000Y-107640000D02*
X150650000Y-107640000D01*
X152450000Y-110760000D02*
X151650000Y-110760000D01*
%TO.C,J1*%
X155700000Y-118580000D02*
X135260000Y-118580000D01*
X135260000Y-113380000D02*
X135260000Y-118580000D01*
X154370000Y-113380000D02*
X155700000Y-113380000D01*
X153100000Y-113380000D02*
X135260000Y-113380000D01*
X155700000Y-115980000D02*
X155700000Y-118580000D01*
X153100000Y-113380000D02*
X153100000Y-115980000D01*
X155700000Y-113380000D02*
X155700000Y-114710000D01*
X153100000Y-115980000D02*
X155700000Y-115980000D01*
%TO.C,C9*%
X140215000Y-109248752D02*
X140215000Y-108726248D01*
X141685000Y-109248752D02*
X141685000Y-108726248D01*
%TD*%
M02*
