%TF.GenerationSoftware,KiCad,Pcbnew,6.0.11+dfsg-1~bpo11+1*%
%TF.CreationDate,2023-04-06T13:38:35+02:00*%
%TF.ProjectId,aout-4_11,616f7574-2d34-45f3-9131-2e6b69636164,1.1*%
%TF.SameCoordinates,Original*%
%TF.FileFunction,Soldermask,Bot*%
%TF.FilePolarity,Negative*%
%FSLAX46Y46*%
G04 Gerber Fmt 4.6, Leading zero omitted, Abs format (unit mm)*
G04 Created by KiCad (PCBNEW 6.0.11+dfsg-1~bpo11+1) date 2023-04-06 13:38:35*
%MOMM*%
%LPD*%
G01*
G04 APERTURE LIST*
G04 Aperture macros list*
%AMRoundRect*
0 Rectangle with rounded corners*
0 $1 Rounding radius*
0 $2 $3 $4 $5 $6 $7 $8 $9 X,Y pos of 4 corners*
0 Add a 4 corners polygon primitive as box body*
4,1,4,$2,$3,$4,$5,$6,$7,$8,$9,$2,$3,0*
0 Add four circle primitives for the rounded corners*
1,1,$1+$1,$2,$3*
1,1,$1+$1,$4,$5*
1,1,$1+$1,$6,$7*
1,1,$1+$1,$8,$9*
0 Add four rect primitives between the rounded corners*
20,1,$1+$1,$2,$3,$4,$5,0*
20,1,$1+$1,$4,$5,$6,$7,0*
20,1,$1+$1,$6,$7,$8,$9,0*
20,1,$1+$1,$8,$9,$2,$3,0*%
G04 Aperture macros list end*
%ADD10RoundRect,0.249999X0.790001X1.550001X-0.790001X1.550001X-0.790001X-1.550001X0.790001X-1.550001X0*%
%ADD11O,2.080000X3.600000*%
%ADD12R,1.700000X1.700000*%
%ADD13O,1.700000X1.700000*%
G04 APERTURE END LIST*
D10*
%TO.C,J3*%
X168360000Y-80277500D03*
D11*
X163280000Y-80277500D03*
X158200000Y-80277500D03*
X153120000Y-80277500D03*
X148040000Y-80277500D03*
X142960000Y-80277500D03*
X137880000Y-80277500D03*
X132800000Y-80277500D03*
X127720000Y-80277500D03*
X122640000Y-80277500D03*
%TD*%
D12*
%TO.C,J6*%
X127775000Y-117825000D03*
D13*
X127775000Y-115285000D03*
X127775000Y-112745000D03*
X127775000Y-110205000D03*
X127775000Y-107665000D03*
X127775000Y-105125000D03*
%TD*%
D10*
%TO.C,J2*%
X168360000Y-73277500D03*
D11*
X163280000Y-73277500D03*
X158200000Y-73277500D03*
X153120000Y-73277500D03*
X148040000Y-73277500D03*
X142960000Y-73277500D03*
X137880000Y-73277500D03*
X132800000Y-73277500D03*
X127720000Y-73277500D03*
X122640000Y-73277500D03*
%TD*%
D12*
%TO.C,J5*%
X163500000Y-88340000D03*
D13*
X163500000Y-90880000D03*
X163500000Y-93420000D03*
X163500000Y-95960000D03*
X163500000Y-98500000D03*
X163500000Y-101040000D03*
%TD*%
D12*
%TO.C,J7*%
X163525000Y-105200000D03*
D13*
X163525000Y-107740000D03*
X163525000Y-110280000D03*
X163525000Y-112820000D03*
X163525000Y-115360000D03*
X163525000Y-117900000D03*
%TD*%
D12*
%TO.C,J4*%
X127775000Y-100925000D03*
D13*
X127775000Y-98385000D03*
X127775000Y-95845000D03*
X127775000Y-93305000D03*
X127775000Y-90765000D03*
X127775000Y-88225000D03*
%TD*%
D12*
%TO.C,J1*%
X154370000Y-114710000D03*
D13*
X154370000Y-117250000D03*
X151830000Y-114710000D03*
X151830000Y-117250000D03*
X149290000Y-114710000D03*
X149290000Y-117250000D03*
X146750000Y-114710000D03*
X146750000Y-117250000D03*
X144210000Y-114710000D03*
X144210000Y-117250000D03*
X141670000Y-114710000D03*
X141670000Y-117250000D03*
X139130000Y-114710000D03*
X139130000Y-117250000D03*
X136590000Y-114710000D03*
X136590000Y-117250000D03*
%TD*%
M02*
