M48
; DRILL file {KiCad 6.0.8+dfsg-1~bpo11+1} date Mon 31 Oct 2022 17:33:51 CET
; FORMAT={-:-/ absolute / metric / decimal}
; #@! TF.CreationDate,2022-10-31T17:33:51+01:00
; #@! TF.GenerationSoftware,Kicad,Pcbnew,6.0.8+dfsg-1~bpo11+1
; #@! TF.FileFunction,Plated,1,4,PTH
FMAT,2
METRIC
; #@! TA.AperFunction,Plated,PTH,ViaDrill
T1C0.400
; #@! TA.AperFunction,Plated,PTH,ComponentDrill
T2C0.800
; #@! TA.AperFunction,Plated,PTH,ComponentDrill
T3C1.000
; #@! TA.AperFunction,Plated,PTH,ComponentDrill
T4C1.400
%
G90
G05
T1
X128.88Y-106.78
X130.03Y-97.68
X130.958Y-102.958
X130.97Y-101.59
X135.57Y-102.95
X135.58Y-101.61
X135.64Y-111.49
X137.48Y-111.51
X141.62Y-97.76
X142.495Y-101.598
X142.55Y-87.38
X142.62Y-103.3
X143.45Y-112.11
X144.03Y-90.13
X144.34Y-106.56
X146.96Y-101.59
X147.02Y-103.374
X147.06Y-106.6
X148.17Y-111.05
X149.87Y-111.93
X151.82Y-106.32
X153.13Y-97.74
X153.43Y-87.38
X153.96Y-103.004
X153.986Y-101.58
X154.97Y-90.13
X157.24Y-106.49
X157.78Y-111.26
X158.43Y-101.54
X158.51Y-103.0
X159.76Y-111.11
X163.4Y-106.42
X163.56Y-111.37
X164.27Y-87.39
X164.57Y-97.63
X165.43Y-101.54
X165.57Y-90.13
X166.03Y-118.0
X166.05Y-114.41
X166.58Y-91.43
X166.7Y-102.46
X168.52Y-117.49
X168.62Y-103.24
X169.44Y-111.36
X169.87Y-101.56
X170.71Y-91.43
X171.37Y-111.09
X171.52Y-113.86
X172.628Y-118.485
X172.98Y-117.02
X173.951Y-116.715
X175.08Y-87.39
X175.41Y-103.76
X176.52Y-90.15
X178.57Y-112.74
T2
X132.99Y-93.68
X135.53Y-93.68
X136.56Y-114.15
X138.07Y-93.68
X139.1Y-114.15
X141.64Y-114.15
X144.38Y-93.71
X146.92Y-93.71
X149.46Y-93.71
X158.56Y-93.71
X161.1Y-93.71
X163.64Y-93.71
X169.96Y-93.7
X172.5Y-93.7
X175.04Y-93.7
T3
X146.085Y-115.225
X146.085Y-117.765
X148.625Y-115.225
X148.625Y-117.765
X151.165Y-115.225
X151.165Y-117.765
X153.705Y-115.225
X153.705Y-117.765
X156.245Y-115.225
X156.245Y-117.765
X158.785Y-115.225
X158.785Y-117.765
X161.325Y-115.225
X161.325Y-117.765
X163.865Y-115.225
X163.865Y-117.765
X180.125Y-87.2
X180.125Y-89.74
X180.125Y-92.28
X180.125Y-94.82
X180.125Y-97.36
X180.125Y-99.9
X180.125Y-102.44
X180.125Y-104.98
X180.125Y-107.52
X180.125Y-110.06
T4
X132.14Y-77.278
X132.5Y-70.278
X137.22Y-77.278
X137.5Y-70.278
X142.3Y-77.278
X142.5Y-70.278
X147.38Y-77.278
X147.5Y-70.278
X152.46Y-77.278
X152.5Y-70.278
X157.5Y-70.278
X157.54Y-77.278
X162.5Y-70.278
X162.62Y-77.278
X167.5Y-70.278
X167.7Y-77.278
X172.5Y-70.278
X172.78Y-77.278
X177.5Y-70.278
X177.86Y-77.278
T0
M30
