%TF.GenerationSoftware,KiCad,Pcbnew,6.0.11+dfsg-1~bpo11+1*%
%TF.CreationDate,2023-05-15T10:52:48+02:00*%
%TF.ProjectId,avert_12,61766572-745f-4313-922e-6b696361645f,rev?*%
%TF.SameCoordinates,Original*%
%TF.FileFunction,Paste,Top*%
%TF.FilePolarity,Positive*%
%FSLAX46Y46*%
G04 Gerber Fmt 4.6, Leading zero omitted, Abs format (unit mm)*
G04 Created by KiCad (PCBNEW 6.0.11+dfsg-1~bpo11+1) date 2023-05-15 10:52:48*
%MOMM*%
%LPD*%
G01*
G04 APERTURE LIST*
G04 Aperture macros list*
%AMRoundRect*
0 Rectangle with rounded corners*
0 $1 Rounding radius*
0 $2 $3 $4 $5 $6 $7 $8 $9 X,Y pos of 4 corners*
0 Add a 4 corners polygon primitive as box body*
4,1,4,$2,$3,$4,$5,$6,$7,$8,$9,$2,$3,0*
0 Add four circle primitives for the rounded corners*
1,1,$1+$1,$2,$3*
1,1,$1+$1,$4,$5*
1,1,$1+$1,$6,$7*
1,1,$1+$1,$8,$9*
0 Add four rect primitives between the rounded corners*
20,1,$1+$1,$2,$3,$4,$5,0*
20,1,$1+$1,$4,$5,$6,$7,0*
20,1,$1+$1,$6,$7,$8,$9,0*
20,1,$1+$1,$8,$9,$2,$3,0*%
G04 Aperture macros list end*
%ADD10RoundRect,0.250000X-0.475000X0.337500X-0.475000X-0.337500X0.475000X-0.337500X0.475000X0.337500X0*%
%ADD11RoundRect,0.250000X0.450000X-0.350000X0.450000X0.350000X-0.450000X0.350000X-0.450000X-0.350000X0*%
%ADD12RoundRect,0.250000X0.337500X0.475000X-0.337500X0.475000X-0.337500X-0.475000X0.337500X-0.475000X0*%
%ADD13RoundRect,0.250000X-0.350000X-0.450000X0.350000X-0.450000X0.350000X0.450000X-0.350000X0.450000X0*%
%ADD14RoundRect,0.150000X0.150000X-0.825000X0.150000X0.825000X-0.150000X0.825000X-0.150000X-0.825000X0*%
%ADD15RoundRect,0.150000X-0.825000X-0.150000X0.825000X-0.150000X0.825000X0.150000X-0.825000X0.150000X0*%
%ADD16RoundRect,0.250000X0.475000X-0.337500X0.475000X0.337500X-0.475000X0.337500X-0.475000X-0.337500X0*%
%ADD17R,2.100000X1.000000*%
%ADD18R,0.900000X1.500000*%
%ADD19R,1.500000X0.900000*%
%ADD20R,0.900000X0.900000*%
%ADD21RoundRect,0.250000X-1.075000X0.400000X-1.075000X-0.400000X1.075000X-0.400000X1.075000X0.400000X0*%
%ADD22RoundRect,0.250000X0.350000X0.450000X-0.350000X0.450000X-0.350000X-0.450000X0.350000X-0.450000X0*%
%ADD23R,3.500000X2.950000*%
%ADD24RoundRect,0.250001X0.462499X0.624999X-0.462499X0.624999X-0.462499X-0.624999X0.462499X-0.624999X0*%
%ADD25RoundRect,0.250001X-0.462499X-0.624999X0.462499X-0.624999X0.462499X0.624999X-0.462499X0.624999X0*%
%ADD26R,1.500000X1.500000*%
%ADD27RoundRect,0.250000X-0.337500X-0.475000X0.337500X-0.475000X0.337500X0.475000X-0.337500X0.475000X0*%
%ADD28RoundRect,0.250000X-0.450000X0.350000X-0.450000X-0.350000X0.450000X-0.350000X0.450000X0.350000X0*%
%ADD29RoundRect,0.250001X0.624999X-0.462499X0.624999X0.462499X-0.624999X0.462499X-0.624999X-0.462499X0*%
%ADD30R,1.500000X2.000000*%
%ADD31R,3.800000X2.000000*%
G04 APERTURE END LIST*
D10*
%TO.C,C5*%
X136050000Y-107170000D03*
X136050000Y-109245000D03*
%TD*%
D11*
%TO.C,R2*%
X130165000Y-79260000D03*
X130165000Y-77260000D03*
%TD*%
D12*
%TO.C,C7*%
X120390000Y-108940000D03*
X118315000Y-108940000D03*
%TD*%
D13*
%TO.C,R13*%
X154080000Y-109340000D03*
X156080000Y-109340000D03*
%TD*%
D14*
%TO.C,U8*%
X142460000Y-82675000D03*
X143730000Y-82675000D03*
X145000000Y-82675000D03*
X146270000Y-82675000D03*
X146270000Y-77725000D03*
X145000000Y-77725000D03*
X143730000Y-77725000D03*
X142460000Y-77725000D03*
%TD*%
D15*
%TO.C,U2*%
X159620000Y-73735000D03*
X159620000Y-75005000D03*
X159620000Y-76275000D03*
X159620000Y-77545000D03*
X164570000Y-77545000D03*
X164570000Y-76275000D03*
X164570000Y-75005000D03*
X164570000Y-73735000D03*
%TD*%
D16*
%TO.C,C8*%
X133280000Y-109235000D03*
X133280000Y-107160000D03*
%TD*%
D13*
%TO.C,R12*%
X136865000Y-84970000D03*
X138865000Y-84970000D03*
%TD*%
D11*
%TO.C,R18*%
X159605000Y-87640000D03*
X159605000Y-85640000D03*
%TD*%
D17*
%TO.C,U3*%
X128330000Y-92950000D03*
X128350000Y-95510000D03*
X128350000Y-100590000D03*
X128350000Y-103130000D03*
X138510000Y-100590000D03*
X138510000Y-92970000D03*
%TD*%
D18*
%TO.C,U1*%
X141735000Y-107220000D03*
X143005000Y-107220000D03*
X144275000Y-107220000D03*
X145545000Y-107220000D03*
X146815000Y-107220000D03*
X148085000Y-107220000D03*
X149355000Y-107220000D03*
X150625000Y-107220000D03*
X151895000Y-107220000D03*
X153165000Y-107220000D03*
X154435000Y-107220000D03*
X155705000Y-107220000D03*
X156975000Y-107220000D03*
X158245000Y-107220000D03*
D19*
X159495000Y-105455000D03*
X159495000Y-104185000D03*
X159495000Y-102915000D03*
X159495000Y-101645000D03*
X159495000Y-100375000D03*
X159495000Y-99105000D03*
X159495000Y-97835000D03*
X159495000Y-96565000D03*
X159495000Y-95295000D03*
X159495000Y-94025000D03*
X159495000Y-92755000D03*
X159495000Y-91485000D03*
D18*
X158245000Y-89720000D03*
X156975000Y-89720000D03*
X155705000Y-89720000D03*
X154435000Y-89720000D03*
X153165000Y-89720000D03*
X151895000Y-89720000D03*
X150625000Y-89720000D03*
X149355000Y-89720000D03*
X148085000Y-89720000D03*
X146815000Y-89720000D03*
X145545000Y-89720000D03*
X144275000Y-89720000D03*
X143005000Y-89720000D03*
X141735000Y-89720000D03*
D20*
X149455000Y-99970000D03*
X149455000Y-101370000D03*
X148055000Y-99970000D03*
X150855000Y-98570000D03*
X150855000Y-99970000D03*
X148055000Y-101370000D03*
X150855000Y-101370000D03*
X148055000Y-98570000D03*
X149455000Y-98570000D03*
%TD*%
D21*
%TO.C,R11*%
X167795000Y-74140000D03*
X167795000Y-77240000D03*
%TD*%
D14*
%TO.C,U6*%
X136910000Y-82685000D03*
X138180000Y-82685000D03*
X139450000Y-82685000D03*
X140720000Y-82685000D03*
X140720000Y-77735000D03*
X139450000Y-77735000D03*
X138180000Y-77735000D03*
X136910000Y-77735000D03*
%TD*%
D12*
%TO.C,C9*%
X120390000Y-113210000D03*
X118315000Y-113210000D03*
%TD*%
%TO.C,C12*%
X138927500Y-89090000D03*
X136852500Y-89090000D03*
%TD*%
D11*
%TO.C,R16*%
X157375000Y-87610000D03*
X157375000Y-85610000D03*
%TD*%
D22*
%TO.C,R19*%
X143205000Y-109360000D03*
X141205000Y-109360000D03*
%TD*%
D13*
%TO.C,R15*%
X149360000Y-109330000D03*
X151360000Y-109330000D03*
%TD*%
%TO.C,R17*%
X145295000Y-109350000D03*
X147295000Y-109350000D03*
%TD*%
D10*
%TO.C,C1*%
X138775000Y-107172500D03*
X138775000Y-109247500D03*
%TD*%
D14*
%TO.C,U5*%
X153550000Y-82655000D03*
X154820000Y-82655000D03*
X156090000Y-82655000D03*
X157360000Y-82655000D03*
X157360000Y-77705000D03*
X156090000Y-77705000D03*
X154820000Y-77705000D03*
X153550000Y-77705000D03*
%TD*%
D16*
%TO.C,C2*%
X159425000Y-82360000D03*
X159425000Y-80285000D03*
%TD*%
D23*
%TO.C,L1*%
X125545000Y-71250000D03*
X125545000Y-76700000D03*
%TD*%
D12*
%TO.C,C10*%
X120390000Y-111070000D03*
X118315000Y-111070000D03*
%TD*%
D24*
%TO.C,D3*%
X120900000Y-77620000D03*
X117925000Y-77620000D03*
%TD*%
D22*
%TO.C,R20*%
X120570000Y-73410000D03*
X118570000Y-73410000D03*
%TD*%
D25*
%TO.C,D1*%
X124255000Y-118680000D03*
X127230000Y-118680000D03*
%TD*%
D16*
%TO.C,C11*%
X134915000Y-79317500D03*
X134915000Y-77242500D03*
%TD*%
D26*
%TO.C,SW2*%
X128855000Y-81240000D03*
X128855000Y-89040000D03*
%TD*%
D14*
%TO.C,U7*%
X148020000Y-82675000D03*
X149290000Y-82675000D03*
X150560000Y-82675000D03*
X151830000Y-82675000D03*
X151830000Y-77725000D03*
X150560000Y-77725000D03*
X149290000Y-77725000D03*
X148020000Y-77725000D03*
%TD*%
D26*
%TO.C,SW1*%
X133855000Y-81280000D03*
X133855000Y-89080000D03*
%TD*%
D13*
%TO.C,R14*%
X136865000Y-86970000D03*
X138865000Y-86970000D03*
%TD*%
D27*
%TO.C,C3*%
X124500000Y-68000000D03*
X126575000Y-68000000D03*
%TD*%
D11*
%TO.C,R1*%
X132555000Y-79270000D03*
X132555000Y-77270000D03*
%TD*%
D28*
%TO.C,R9*%
X166095000Y-109340000D03*
X166095000Y-111340000D03*
%TD*%
D29*
%TO.C,D2*%
X168695000Y-112440000D03*
X168695000Y-109465000D03*
%TD*%
D12*
%TO.C,C4*%
X120600000Y-75420000D03*
X118525000Y-75420000D03*
%TD*%
D28*
%TO.C,R8*%
X130565000Y-107220000D03*
X130565000Y-109220000D03*
%TD*%
D16*
%TO.C,C6*%
X127765000Y-106957500D03*
X127765000Y-104882500D03*
%TD*%
D30*
%TO.C,U4*%
X127795000Y-109170000D03*
X125495000Y-109170000D03*
D31*
X125495000Y-115470000D03*
D30*
X123195000Y-109170000D03*
%TD*%
D22*
%TO.C,R10*%
X161895000Y-71840000D03*
X159895000Y-71840000D03*
%TD*%
M02*
