%TF.GenerationSoftware,KiCad,Pcbnew,6.0.11+dfsg-1~bpo11+1*%
%TF.CreationDate,2023-05-15T10:52:48+02:00*%
%TF.ProjectId,avert_12,61766572-745f-4313-922e-6b696361645f,rev?*%
%TF.SameCoordinates,Original*%
%TF.FileFunction,Soldermask,Bot*%
%TF.FilePolarity,Negative*%
%FSLAX46Y46*%
G04 Gerber Fmt 4.6, Leading zero omitted, Abs format (unit mm)*
G04 Created by KiCad (PCBNEW 6.0.11+dfsg-1~bpo11+1) date 2023-05-15 10:52:48*
%MOMM*%
%LPD*%
G01*
G04 APERTURE LIST*
G04 Aperture macros list*
%AMRoundRect*
0 Rectangle with rounded corners*
0 $1 Rounding radius*
0 $2 $3 $4 $5 $6 $7 $8 $9 X,Y pos of 4 corners*
0 Add a 4 corners polygon primitive as box body*
4,1,4,$2,$3,$4,$5,$6,$7,$8,$9,$2,$3,0*
0 Add four circle primitives for the rounded corners*
1,1,$1+$1,$2,$3*
1,1,$1+$1,$4,$5*
1,1,$1+$1,$6,$7*
1,1,$1+$1,$8,$9*
0 Add four rect primitives between the rounded corners*
20,1,$1+$1,$2,$3,$4,$5,0*
20,1,$1+$1,$4,$5,$6,$7,0*
20,1,$1+$1,$6,$7,$8,$9,0*
20,1,$1+$1,$8,$9,$2,$3,0*%
G04 Aperture macros list end*
%ADD10RoundRect,0.250000X-0.600000X-0.600000X0.600000X-0.600000X0.600000X0.600000X-0.600000X0.600000X0*%
%ADD11C,1.700000*%
%ADD12RoundRect,0.250000X0.600000X-0.600000X0.600000X0.600000X-0.600000X0.600000X-0.600000X-0.600000X0*%
%ADD13R,1.700000X1.700000*%
%ADD14O,1.700000X1.700000*%
%ADD15RoundRect,0.250000X-0.600000X0.600000X-0.600000X-0.600000X0.600000X-0.600000X0.600000X0.600000X0*%
G04 APERTURE END LIST*
D10*
%TO.C,J4*%
X164445000Y-84440000D03*
D11*
X166985000Y-84440000D03*
X164445000Y-86980000D03*
X166985000Y-86980000D03*
X164445000Y-89520000D03*
X166985000Y-89520000D03*
X164445000Y-92060000D03*
X166985000Y-92060000D03*
X164445000Y-94600000D03*
X166985000Y-94600000D03*
X164445000Y-97140000D03*
X166985000Y-97140000D03*
X164445000Y-99680000D03*
X166985000Y-99680000D03*
X164445000Y-102220000D03*
X166985000Y-102220000D03*
%TD*%
D12*
%TO.C,J2*%
X134790000Y-116660000D03*
D11*
X134790000Y-114120000D03*
X137330000Y-116660000D03*
X137330000Y-114120000D03*
X139870000Y-116660000D03*
X139870000Y-114120000D03*
X142410000Y-116660000D03*
X142410000Y-114120000D03*
X144950000Y-116660000D03*
X144950000Y-114120000D03*
X147490000Y-116660000D03*
X147490000Y-114120000D03*
X150030000Y-116660000D03*
X150030000Y-114120000D03*
X152570000Y-116660000D03*
X152570000Y-114120000D03*
%TD*%
D13*
%TO.C,J7*%
X160155000Y-68840000D03*
D14*
X162695000Y-68840000D03*
%TD*%
D15*
%TO.C,J1*%
X152585000Y-70087500D03*
D11*
X152585000Y-72627500D03*
X150045000Y-70087500D03*
X150045000Y-72627500D03*
X147505000Y-70087500D03*
X147505000Y-72627500D03*
X144965000Y-70087500D03*
X144965000Y-72627500D03*
X142425000Y-70087500D03*
X142425000Y-72627500D03*
X139885000Y-70087500D03*
X139885000Y-72627500D03*
X137345000Y-70087500D03*
X137345000Y-72627500D03*
X134805000Y-70087500D03*
X134805000Y-72627500D03*
%TD*%
D13*
%TO.C,J5*%
X154400000Y-86415000D03*
D14*
X151860000Y-86415000D03*
X149320000Y-86415000D03*
X146780000Y-86415000D03*
X144240000Y-86415000D03*
X141700000Y-86415000D03*
%TD*%
D13*
%TO.C,J8*%
X162795000Y-118340000D03*
D14*
X160255000Y-118340000D03*
X162795000Y-115800000D03*
X160255000Y-115800000D03*
X162795000Y-113260000D03*
X160255000Y-113260000D03*
X162795000Y-110720000D03*
X160255000Y-110720000D03*
%TD*%
D10*
%TO.C,J3*%
X120455000Y-84420000D03*
D11*
X122995000Y-84420000D03*
X120455000Y-86960000D03*
X122995000Y-86960000D03*
X120455000Y-89500000D03*
X122995000Y-89500000D03*
X120455000Y-92040000D03*
X122995000Y-92040000D03*
X120455000Y-94580000D03*
X122995000Y-94580000D03*
X120455000Y-97120000D03*
X122995000Y-97120000D03*
X120455000Y-99660000D03*
X122995000Y-99660000D03*
X120455000Y-102200000D03*
X122995000Y-102200000D03*
%TD*%
M02*
