%TF.GenerationSoftware,KiCad,Pcbnew,6.0.11+dfsg-1~bpo11+1*%
%TF.CreationDate,2023-05-15T10:52:48+02:00*%
%TF.ProjectId,avert_12,61766572-745f-4313-922e-6b696361645f,rev?*%
%TF.SameCoordinates,Original*%
%TF.FileFunction,Copper,L4,Bot*%
%TF.FilePolarity,Positive*%
%FSLAX46Y46*%
G04 Gerber Fmt 4.6, Leading zero omitted, Abs format (unit mm)*
G04 Created by KiCad (PCBNEW 6.0.11+dfsg-1~bpo11+1) date 2023-05-15 10:52:48*
%MOMM*%
%LPD*%
G01*
G04 APERTURE LIST*
G04 Aperture macros list*
%AMRoundRect*
0 Rectangle with rounded corners*
0 $1 Rounding radius*
0 $2 $3 $4 $5 $6 $7 $8 $9 X,Y pos of 4 corners*
0 Add a 4 corners polygon primitive as box body*
4,1,4,$2,$3,$4,$5,$6,$7,$8,$9,$2,$3,0*
0 Add four circle primitives for the rounded corners*
1,1,$1+$1,$2,$3*
1,1,$1+$1,$4,$5*
1,1,$1+$1,$6,$7*
1,1,$1+$1,$8,$9*
0 Add four rect primitives between the rounded corners*
20,1,$1+$1,$2,$3,$4,$5,0*
20,1,$1+$1,$4,$5,$6,$7,0*
20,1,$1+$1,$6,$7,$8,$9,0*
20,1,$1+$1,$8,$9,$2,$3,0*%
G04 Aperture macros list end*
%TA.AperFunction,ComponentPad*%
%ADD10RoundRect,0.250000X-0.600000X-0.600000X0.600000X-0.600000X0.600000X0.600000X-0.600000X0.600000X0*%
%TD*%
%TA.AperFunction,ComponentPad*%
%ADD11C,1.700000*%
%TD*%
%TA.AperFunction,ComponentPad*%
%ADD12RoundRect,0.250000X0.600000X-0.600000X0.600000X0.600000X-0.600000X0.600000X-0.600000X-0.600000X0*%
%TD*%
%TA.AperFunction,ComponentPad*%
%ADD13R,1.700000X1.700000*%
%TD*%
%TA.AperFunction,ComponentPad*%
%ADD14O,1.700000X1.700000*%
%TD*%
%TA.AperFunction,ComponentPad*%
%ADD15RoundRect,0.250000X-0.600000X0.600000X-0.600000X-0.600000X0.600000X-0.600000X0.600000X0.600000X0*%
%TD*%
%TA.AperFunction,ViaPad*%
%ADD16C,0.800000*%
%TD*%
%TA.AperFunction,Conductor*%
%ADD17C,0.250000*%
%TD*%
%TA.AperFunction,Conductor*%
%ADD18C,0.800000*%
%TD*%
G04 APERTURE END LIST*
D10*
%TO.P,J4,1,Pin_1*%
%TO.N,+3V3*%
X164445000Y-84440000D03*
D11*
%TO.P,J4,2,Pin_2*%
%TO.N,GND*%
X166985000Y-84440000D03*
%TO.P,J4,3,Pin_3*%
%TO.N,/TXD*%
X164445000Y-86980000D03*
%TO.P,J4,4,Pin_4*%
%TO.N,/RXD*%
X166985000Y-86980000D03*
%TO.P,J4,5,Pin_5*%
%TO.N,/SCL*%
X164445000Y-89520000D03*
%TO.P,J4,6,Pin_6*%
%TO.N,/SDA*%
X166985000Y-89520000D03*
%TO.P,J4,7,Pin_7*%
%TO.N,/MISO*%
X164445000Y-92060000D03*
%TO.P,J4,8,Pin_8*%
%TO.N,/MOSI*%
X166985000Y-92060000D03*
%TO.P,J4,9,Pin_9*%
%TO.N,/SCK*%
X164445000Y-94600000D03*
%TO.P,J4,10,Pin_10*%
%TO.N,/SS*%
X166985000Y-94600000D03*
%TO.P,J4,11,Pin_11*%
%TO.N,/CANH*%
X164445000Y-97140000D03*
%TO.P,J4,12,Pin_12*%
%TO.N,/CANL*%
X166985000Y-97140000D03*
%TO.P,J4,13,Pin_13*%
%TO.N,Earth*%
X164445000Y-99680000D03*
%TO.P,J4,14,Pin_14*%
%TO.N,GND*%
X166985000Y-99680000D03*
%TO.P,J4,15,Pin_15*%
%TO.N,+24V*%
X164445000Y-102220000D03*
%TO.P,J4,16,Pin_16*%
X166985000Y-102220000D03*
%TD*%
D12*
%TO.P,J2,1,Pin_1*%
%TO.N,GNDD*%
X134790000Y-116660000D03*
D11*
%TO.P,J2,2,Pin_2*%
%TO.N,/SC2*%
X134790000Y-114120000D03*
%TO.P,J2,3,Pin_3*%
%TO.N,/SD2*%
X137330000Y-116660000D03*
%TO.P,J2,4,Pin_4*%
%TO.N,/SC3*%
X137330000Y-114120000D03*
%TO.P,J2,5,Pin_5*%
%TO.N,/SD3*%
X139870000Y-116660000D03*
%TO.P,J2,6,Pin_6*%
%TO.N,unconnected-(J2-Pad6)*%
X139870000Y-114120000D03*
%TO.P,J2,7,Pin_7*%
%TO.N,unconnected-(J2-Pad7)*%
X142410000Y-116660000D03*
%TO.P,J2,8,Pin_8*%
%TO.N,unconnected-(J2-Pad8)*%
X142410000Y-114120000D03*
%TO.P,J2,9,Pin_9*%
%TO.N,unconnected-(J2-Pad9)*%
X144950000Y-116660000D03*
%TO.P,J2,10,Pin_10*%
%TO.N,+5V*%
X144950000Y-114120000D03*
%TO.P,J2,11,Pin_11*%
%TO.N,-12V*%
X147490000Y-116660000D03*
%TO.P,J2,12,Pin_12*%
%TO.N,+12V*%
X147490000Y-114120000D03*
%TO.P,J2,13,Pin_13*%
%TO.N,GNDD*%
X150030000Y-116660000D03*
%TO.P,J2,14,Pin_14*%
%TO.N,Earth*%
X150030000Y-114120000D03*
%TO.P,J2,15,Pin_15*%
%TO.N,+VSW*%
X152570000Y-116660000D03*
%TO.P,J2,16,Pin_16*%
X152570000Y-114120000D03*
%TD*%
D13*
%TO.P,J7,1,Pin_1*%
%TO.N,/CANH*%
X160155000Y-68840000D03*
D14*
%TO.P,J7,2,Pin_2*%
%TO.N,Net-(J7-Pad2)*%
X162695000Y-68840000D03*
%TD*%
D15*
%TO.P,J1,1,Pin_1*%
%TO.N,GNDD*%
X152585000Y-70087500D03*
D11*
%TO.P,J1,2,Pin_2*%
%TO.N,/SC0*%
X152585000Y-72627500D03*
%TO.P,J1,3,Pin_3*%
%TO.N,/SD0*%
X150045000Y-70087500D03*
%TO.P,J1,4,Pin_4*%
%TO.N,/SC1*%
X150045000Y-72627500D03*
%TO.P,J1,5,Pin_5*%
%TO.N,/SD1*%
X147505000Y-70087500D03*
%TO.P,J1,6,Pin_6*%
%TO.N,unconnected-(J1-Pad6)*%
X147505000Y-72627500D03*
%TO.P,J1,7,Pin_7*%
%TO.N,unconnected-(J1-Pad7)*%
X144965000Y-70087500D03*
%TO.P,J1,8,Pin_8*%
%TO.N,unconnected-(J1-Pad8)*%
X144965000Y-72627500D03*
%TO.P,J1,9,Pin_9*%
%TO.N,unconnected-(J1-Pad9)*%
X142425000Y-70087500D03*
%TO.P,J1,10,Pin_10*%
%TO.N,+5V*%
X142425000Y-72627500D03*
%TO.P,J1,11,Pin_11*%
%TO.N,-12V*%
X139885000Y-70087500D03*
%TO.P,J1,12,Pin_12*%
%TO.N,+12V*%
X139885000Y-72627500D03*
%TO.P,J1,13,Pin_13*%
%TO.N,GNDD*%
X137345000Y-70087500D03*
%TO.P,J1,14,Pin_14*%
%TO.N,Earth*%
X137345000Y-72627500D03*
%TO.P,J1,15,Pin_15*%
%TO.N,+VSW*%
X134805000Y-70087500D03*
%TO.P,J1,16,Pin_16*%
X134805000Y-72627500D03*
%TD*%
D13*
%TO.P,J5,1,Pin_1*%
%TO.N,GND*%
X154400000Y-86415000D03*
D14*
%TO.P,J5,2,Pin_2*%
%TO.N,unconnected-(J5-Pad2)*%
X151860000Y-86415000D03*
%TO.P,J5,3,Pin_3*%
%TO.N,+3V3*%
X149320000Y-86415000D03*
%TO.P,J5,4,Pin_4*%
%TO.N,/RX_0*%
X146780000Y-86415000D03*
%TO.P,J5,5,Pin_5*%
%TO.N,/TX_0*%
X144240000Y-86415000D03*
%TO.P,J5,6,Pin_6*%
%TO.N,unconnected-(J5-Pad6)*%
X141700000Y-86415000D03*
%TD*%
D13*
%TO.P,J8,1,Pin_1*%
%TO.N,GND*%
X162795000Y-118340000D03*
D14*
%TO.P,J8,2,Pin_2*%
%TO.N,/ADDR0*%
X160255000Y-118340000D03*
%TO.P,J8,3,Pin_3*%
%TO.N,GND*%
X162795000Y-115800000D03*
%TO.P,J8,4,Pin_4*%
%TO.N,/ADDR1*%
X160255000Y-115800000D03*
%TO.P,J8,5,Pin_5*%
%TO.N,GND*%
X162795000Y-113260000D03*
%TO.P,J8,6,Pin_6*%
%TO.N,/ADDR2*%
X160255000Y-113260000D03*
%TO.P,J8,7,Pin_7*%
%TO.N,GND*%
X162795000Y-110720000D03*
%TO.P,J8,8,Pin_8*%
%TO.N,/ADDR3*%
X160255000Y-110720000D03*
%TD*%
D10*
%TO.P,J3,1,Pin_1*%
%TO.N,+3V3*%
X120455000Y-84420000D03*
D11*
%TO.P,J3,2,Pin_2*%
%TO.N,GND*%
X122995000Y-84420000D03*
%TO.P,J3,3,Pin_3*%
%TO.N,/TXD*%
X120455000Y-86960000D03*
%TO.P,J3,4,Pin_4*%
%TO.N,/RXD*%
X122995000Y-86960000D03*
%TO.P,J3,5,Pin_5*%
%TO.N,/SCL*%
X120455000Y-89500000D03*
%TO.P,J3,6,Pin_6*%
%TO.N,/SDA*%
X122995000Y-89500000D03*
%TO.P,J3,7,Pin_7*%
%TO.N,/MISO*%
X120455000Y-92040000D03*
%TO.P,J3,8,Pin_8*%
%TO.N,/MOSI*%
X122995000Y-92040000D03*
%TO.P,J3,9,Pin_9*%
%TO.N,/SCK*%
X120455000Y-94580000D03*
%TO.P,J3,10,Pin_10*%
%TO.N,/SS*%
X122995000Y-94580000D03*
%TO.P,J3,11,Pin_11*%
%TO.N,/CANH*%
X120455000Y-97120000D03*
%TO.P,J3,12,Pin_12*%
%TO.N,/CANL*%
X122995000Y-97120000D03*
%TO.P,J3,13,Pin_13*%
%TO.N,Earth*%
X120455000Y-99660000D03*
%TO.P,J3,14,Pin_14*%
%TO.N,GND*%
X122995000Y-99660000D03*
%TO.P,J3,15,Pin_15*%
%TO.N,+24V*%
X120455000Y-102200000D03*
%TO.P,J3,16,Pin_16*%
X122995000Y-102200000D03*
%TD*%
D16*
%TO.N,GND*%
X161650000Y-75020000D03*
X128840000Y-82810000D03*
X123050000Y-118710000D03*
X142140000Y-103440000D03*
X140810000Y-92980000D03*
X160430000Y-83350000D03*
X152300000Y-104100000D03*
X154650000Y-96510000D03*
X135440000Y-84400000D03*
X146260000Y-84470000D03*
X140790000Y-89730000D03*
X140960000Y-84280000D03*
%TO.N,+3V3*%
X127430000Y-81100000D03*
X143050000Y-104570000D03*
X148020000Y-81100000D03*
%TO.N,GNDD*%
X149440000Y-75050000D03*
X136040000Y-111030000D03*
X132270000Y-103430000D03*
X148760000Y-112560000D03*
X132570000Y-92950000D03*
X124610000Y-111540000D03*
X130310000Y-73680000D03*
X133920000Y-78330000D03*
X119420000Y-76760000D03*
X132790000Y-110980000D03*
X135210000Y-92960000D03*
X122630000Y-67270000D03*
%TO.N,+12V*%
X123210000Y-111520000D03*
X136770000Y-100590000D03*
X136050000Y-104930000D03*
%TO.N,-12V*%
X133260000Y-105940000D03*
X129530000Y-104920000D03*
X132910000Y-74810000D03*
%TO.N,+5V*%
X136910000Y-79280000D03*
X142420000Y-75914500D03*
X135690000Y-88990000D03*
%TO.N,/SC2*%
X150570000Y-79250000D03*
%TO.N,/SD2*%
X149290000Y-79230000D03*
%TO.N,/SCL*%
X162340000Y-89520000D03*
%TO.N,/SDA*%
X152990000Y-91260000D03*
%TO.N,Earth*%
X134874500Y-100090000D03*
X131780000Y-84610000D03*
%TO.N,/CTX*%
X153170000Y-100630000D03*
X157720000Y-74080000D03*
%TO.N,/CRX*%
X155180000Y-100720000D03*
X161360000Y-78230000D03*
%TO.N,/IO0*%
X154850000Y-92140000D03*
X130140000Y-89040000D03*
X130160000Y-91620000D03*
%TO.N,/ADDR0*%
X150640000Y-105670000D03*
%TO.N,/ADDR1*%
X152230000Y-105330000D03*
%TO.N,/LED_MQTT*%
X156520000Y-97270000D03*
X130565000Y-97275000D03*
%TO.N,/SC3*%
X144980000Y-79230000D03*
%TO.N,/SD3*%
X143740000Y-79200000D03*
%TO.N,/SCL2*%
X149320000Y-103320000D03*
X150550000Y-84440000D03*
%TO.N,/SDA2*%
X149330000Y-84450000D03*
X148080000Y-105480000D03*
%TO.N,/SCL3*%
X145000000Y-84460000D03*
X146810000Y-104450000D03*
%TO.N,/SDA3*%
X145580000Y-105440000D03*
X143160000Y-84560000D03*
%TD*%
D17*
%TO.N,GND*%
X124040000Y-119700000D02*
X123050000Y-118710000D01*
D18*
X165800000Y-81170000D02*
X166985000Y-82355000D01*
D17*
X145920000Y-83350000D02*
X141400000Y-83350000D01*
D18*
X160025000Y-86415000D02*
X154400000Y-86415000D01*
D17*
X146260000Y-83690000D02*
X145920000Y-83350000D01*
D18*
X161680000Y-84760000D02*
X161680000Y-82310000D01*
D17*
X147150000Y-84470000D02*
X148130000Y-83490000D01*
X162795000Y-119505000D02*
X162600000Y-119700000D01*
X146260000Y-84470000D02*
X146260000Y-83690000D01*
X154400000Y-84490000D02*
X154400000Y-86415000D01*
X141400000Y-83350000D02*
X140960000Y-83790000D01*
X162795000Y-118340000D02*
X162795000Y-119505000D01*
X140960000Y-83790000D02*
X140960000Y-84280000D01*
D18*
X160025000Y-86415000D02*
X161680000Y-84760000D01*
D17*
X140790000Y-89730000D02*
X140790000Y-88500000D01*
X128430000Y-84420000D02*
X128840000Y-84010000D01*
X128840000Y-84010000D02*
X128840000Y-82810000D01*
X146260000Y-84470000D02*
X147150000Y-84470000D01*
X140140000Y-87850000D02*
X140140000Y-85690000D01*
X122995000Y-84420000D02*
X128430000Y-84420000D01*
X140140000Y-85690000D02*
X140960000Y-84870000D01*
D18*
X162820000Y-81170000D02*
X165800000Y-81170000D01*
D17*
X162600000Y-119700000D02*
X124040000Y-119700000D01*
X140960000Y-84870000D02*
X140960000Y-84280000D01*
D18*
X161680000Y-82310000D02*
X162820000Y-81170000D01*
D17*
X148130000Y-83490000D02*
X153400000Y-83490000D01*
D18*
X166985000Y-82355000D02*
X166985000Y-84440000D01*
D17*
X140790000Y-88500000D02*
X140140000Y-87850000D01*
X153400000Y-83490000D02*
X154400000Y-84490000D01*
D18*
%TO.N,+VSW*%
X152570000Y-116660000D02*
X152570000Y-114120000D01*
X134805000Y-70087500D02*
X134805000Y-72627500D01*
D17*
%TO.N,GNDD*%
X137990000Y-74260000D02*
X136890000Y-74260000D01*
X137345000Y-70087500D02*
X138555000Y-71297500D01*
X132570000Y-79680000D02*
X132570000Y-92950000D01*
X133920000Y-77230000D02*
X133920000Y-78330000D01*
X136890000Y-74260000D02*
X133920000Y-77230000D01*
X133920000Y-78330000D02*
X132570000Y-79680000D01*
X138555000Y-71297500D02*
X138555000Y-73695000D01*
X138555000Y-73695000D02*
X137990000Y-74260000D01*
%TO.N,+12V*%
X136050000Y-106380000D02*
X135470000Y-106960000D01*
X127765000Y-108635000D02*
X126835000Y-108635000D01*
X136050000Y-104930000D02*
X136050000Y-106380000D01*
X128160000Y-107310000D02*
X128160000Y-108240000D01*
X125710000Y-113350000D02*
X124040000Y-113350000D01*
X126360000Y-109110000D02*
X126360000Y-112700000D01*
X126360000Y-112700000D02*
X125710000Y-113350000D01*
X139885000Y-72627500D02*
X139885000Y-73685000D01*
X136040000Y-79610000D02*
X135650000Y-80000000D01*
X139885000Y-73685000D02*
X136040000Y-77530000D01*
X133390000Y-93590000D02*
X136770000Y-96970000D01*
X136040000Y-77530000D02*
X136040000Y-79610000D01*
X128510000Y-106960000D02*
X128160000Y-107310000D01*
X134700000Y-80000000D02*
X133390000Y-81310000D01*
X135470000Y-106960000D02*
X128510000Y-106960000D01*
X126835000Y-108635000D02*
X126360000Y-109110000D01*
X123210000Y-112520000D02*
X123210000Y-111520000D01*
X128160000Y-108240000D02*
X127765000Y-108635000D01*
X124040000Y-113350000D02*
X123210000Y-112520000D01*
X133390000Y-81310000D02*
X133390000Y-93590000D01*
X136770000Y-96970000D02*
X136770000Y-100590000D01*
X135650000Y-80000000D02*
X134700000Y-80000000D01*
%TO.N,-12V*%
X133260000Y-105940000D02*
X129840000Y-105940000D01*
X128850000Y-104920000D02*
X128280000Y-104350000D01*
X130130000Y-76280000D02*
X131600000Y-74810000D01*
X129530000Y-104920000D02*
X128850000Y-104920000D01*
X131600000Y-74810000D02*
X132910000Y-74810000D01*
X129530000Y-105630000D02*
X129530000Y-104920000D01*
X128280000Y-104350000D02*
X128280000Y-88400000D01*
X128280000Y-88400000D02*
X130130000Y-86550000D01*
X130130000Y-86550000D02*
X130130000Y-76280000D01*
X129840000Y-105940000D02*
X129530000Y-105630000D01*
%TO.N,+5V*%
X138000000Y-89800000D02*
X138000000Y-108840000D01*
X136450000Y-80700000D02*
X134860000Y-80700000D01*
X136910000Y-79280000D02*
X136910000Y-77640000D01*
X136910000Y-80240000D02*
X136450000Y-80700000D01*
X140595500Y-75914500D02*
X139760000Y-76750000D01*
X138990000Y-109830000D02*
X144700000Y-109830000D01*
X142420000Y-75914500D02*
X140595500Y-75914500D01*
X136910000Y-79280000D02*
X136910000Y-80240000D01*
X138000000Y-108840000D02*
X138990000Y-109830000D01*
X134330000Y-81230000D02*
X134330000Y-88570000D01*
X144950000Y-110080000D02*
X144950000Y-114120000D01*
X144700000Y-109830000D02*
X144950000Y-110080000D01*
X134860000Y-80700000D02*
X134330000Y-81230000D01*
X135690000Y-88990000D02*
X137190000Y-88990000D01*
X137190000Y-88990000D02*
X138000000Y-89800000D01*
X136910000Y-77640000D02*
X137800000Y-76750000D01*
X134750000Y-88990000D02*
X135690000Y-88990000D01*
X134330000Y-88570000D02*
X134750000Y-88990000D01*
X137800000Y-76750000D02*
X139760000Y-76750000D01*
%TO.N,Earth*%
X132560000Y-75650000D02*
X134320000Y-75650000D01*
X131780000Y-76430000D02*
X132560000Y-75650000D01*
X131780000Y-84610000D02*
X131780000Y-76430000D01*
X134860000Y-100075500D02*
X134874500Y-100090000D01*
X131780000Y-84610000D02*
X131780000Y-94110000D01*
X135906250Y-74066250D02*
X137345000Y-72627500D01*
X131780000Y-94110000D02*
X134860000Y-97190000D01*
X135903750Y-74066250D02*
X135906250Y-74066250D01*
X134860000Y-97190000D02*
X134860000Y-100075500D01*
X134320000Y-75650000D02*
X135903750Y-74066250D01*
%TO.N,/IO0*%
X130140000Y-89040000D02*
X130140000Y-91600000D01*
X130140000Y-91600000D02*
X130160000Y-91620000D01*
%TO.N,/ADDR0*%
X156215000Y-106635000D02*
X151485000Y-106635000D01*
X160255000Y-118340000D02*
X158000000Y-118340000D01*
X157340000Y-107760000D02*
X156215000Y-106635000D01*
X157340000Y-117680000D02*
X157340000Y-107760000D01*
X158000000Y-118340000D02*
X157340000Y-117680000D01*
X151485000Y-106635000D02*
X150640000Y-105790000D01*
X150640000Y-105790000D02*
X150640000Y-105670000D01*
%TO.N,/ADDR1*%
X158140000Y-115310000D02*
X158140000Y-107320000D01*
X158140000Y-107320000D02*
X156150000Y-105330000D01*
X158630000Y-115800000D02*
X158140000Y-115310000D01*
X160255000Y-115800000D02*
X158630000Y-115800000D01*
X156150000Y-105330000D02*
X152230000Y-105330000D01*
%TO.N,/SCL2*%
X149320000Y-103320000D02*
X149320000Y-88580000D01*
X149320000Y-88580000D02*
X150550000Y-87350000D01*
X150550000Y-87350000D02*
X150550000Y-84440000D01*
%TO.N,/SDA2*%
X148080000Y-105480000D02*
X148080000Y-85700000D01*
X148080000Y-85700000D02*
X149330000Y-84450000D01*
%TO.N,/SCL3*%
X145500000Y-84960000D02*
X145000000Y-84460000D01*
X146810000Y-104450000D02*
X146810000Y-88550000D01*
X145500000Y-87240000D02*
X145500000Y-84960000D01*
X146810000Y-88550000D02*
X145500000Y-87240000D01*
%TO.N,/SDA3*%
X142970000Y-87700000D02*
X142970000Y-84750000D01*
X144900000Y-88240000D02*
X143510000Y-88240000D01*
X145590000Y-96520000D02*
X145590000Y-88930000D01*
X142970000Y-84750000D02*
X143160000Y-84560000D01*
X143510000Y-88240000D02*
X142970000Y-87700000D01*
X145590000Y-88930000D02*
X144900000Y-88240000D01*
X145580000Y-105440000D02*
X145600000Y-105420000D01*
X145600000Y-96530000D02*
X145590000Y-96520000D01*
X145600000Y-105420000D02*
X145600000Y-96530000D01*
%TD*%
%TA.AperFunction,Conductor*%
%TO.N,GNDD*%
G36*
X155763058Y-66868502D02*
G01*
X155809551Y-66922158D01*
X155820937Y-66974310D01*
X155839733Y-79501715D01*
X155839809Y-79552548D01*
X155819909Y-79620699D01*
X155766323Y-79667272D01*
X155712555Y-79678731D01*
X151571516Y-79637488D01*
X151503600Y-79616809D01*
X151457644Y-79562693D01*
X151448240Y-79492322D01*
X151452939Y-79472560D01*
X151453794Y-79469928D01*
X151463542Y-79439928D01*
X151464429Y-79431495D01*
X151482814Y-79256565D01*
X151483504Y-79250000D01*
X151463542Y-79060072D01*
X151404527Y-78878444D01*
X151309040Y-78713056D01*
X151296181Y-78698774D01*
X151185675Y-78576045D01*
X151185674Y-78576044D01*
X151181253Y-78571134D01*
X151026752Y-78458882D01*
X151020724Y-78456198D01*
X151020722Y-78456197D01*
X150858319Y-78383891D01*
X150858318Y-78383891D01*
X150852288Y-78381206D01*
X150751741Y-78359834D01*
X150671944Y-78342872D01*
X150671939Y-78342872D01*
X150665487Y-78341500D01*
X150474513Y-78341500D01*
X150468061Y-78342872D01*
X150468056Y-78342872D01*
X150388259Y-78359834D01*
X150287712Y-78381206D01*
X150281682Y-78383891D01*
X150281681Y-78383891D01*
X150119278Y-78456197D01*
X150119276Y-78456198D01*
X150113248Y-78458882D01*
X150107907Y-78462762D01*
X150107906Y-78462763D01*
X150017825Y-78528211D01*
X149950957Y-78552070D01*
X149881806Y-78535989D01*
X149869703Y-78528211D01*
X149752094Y-78442763D01*
X149752093Y-78442762D01*
X149746752Y-78438882D01*
X149740724Y-78436198D01*
X149740722Y-78436197D01*
X149578319Y-78363891D01*
X149578318Y-78363891D01*
X149572288Y-78361206D01*
X149478887Y-78341353D01*
X149391944Y-78322872D01*
X149391939Y-78322872D01*
X149385487Y-78321500D01*
X149194513Y-78321500D01*
X149188061Y-78322872D01*
X149188056Y-78322872D01*
X149101113Y-78341353D01*
X149007712Y-78361206D01*
X149001682Y-78363891D01*
X149001681Y-78363891D01*
X148839278Y-78436197D01*
X148839276Y-78436198D01*
X148833248Y-78438882D01*
X148678747Y-78551134D01*
X148674326Y-78556044D01*
X148674325Y-78556045D01*
X148572824Y-78668774D01*
X148550960Y-78693056D01*
X148518791Y-78748774D01*
X148472794Y-78828444D01*
X148455473Y-78858444D01*
X148396458Y-79040072D01*
X148376496Y-79230000D01*
X148377186Y-79236565D01*
X148395601Y-79411770D01*
X148396458Y-79419928D01*
X148398496Y-79426202D01*
X148398498Y-79426209D01*
X148402913Y-79439796D01*
X148404940Y-79510764D01*
X148368277Y-79571561D01*
X148304565Y-79602886D01*
X148281826Y-79604725D01*
X145992743Y-79581927D01*
X145924825Y-79561247D01*
X145878869Y-79507131D01*
X145870752Y-79429735D01*
X145871502Y-79426205D01*
X145873542Y-79419928D01*
X145874400Y-79411770D01*
X145892814Y-79236565D01*
X145893504Y-79230000D01*
X145873542Y-79040072D01*
X145814527Y-78858444D01*
X145797207Y-78828444D01*
X145751209Y-78748774D01*
X145719040Y-78693056D01*
X145697177Y-78668774D01*
X145595675Y-78556045D01*
X145595674Y-78556044D01*
X145591253Y-78551134D01*
X145436752Y-78438882D01*
X145430724Y-78436198D01*
X145430722Y-78436197D01*
X145268319Y-78363891D01*
X145268318Y-78363891D01*
X145262288Y-78361206D01*
X145168887Y-78341353D01*
X145081944Y-78322872D01*
X145081939Y-78322872D01*
X145075487Y-78321500D01*
X144884513Y-78321500D01*
X144878061Y-78322872D01*
X144878056Y-78322872D01*
X144791113Y-78341353D01*
X144697712Y-78361206D01*
X144691682Y-78363891D01*
X144691681Y-78363891D01*
X144529278Y-78436197D01*
X144529276Y-78436198D01*
X144523248Y-78438882D01*
X144517907Y-78442762D01*
X144517906Y-78442763D01*
X144454707Y-78488680D01*
X144387839Y-78512539D01*
X144318688Y-78496458D01*
X144306585Y-78488680D01*
X144202094Y-78412763D01*
X144202093Y-78412762D01*
X144196752Y-78408882D01*
X144190724Y-78406198D01*
X144190722Y-78406197D01*
X144028319Y-78333891D01*
X144028318Y-78333891D01*
X144022288Y-78331206D01*
X143928887Y-78311353D01*
X143841944Y-78292872D01*
X143841939Y-78292872D01*
X143835487Y-78291500D01*
X143644513Y-78291500D01*
X143638061Y-78292872D01*
X143638056Y-78292872D01*
X143551113Y-78311353D01*
X143457712Y-78331206D01*
X143451682Y-78333891D01*
X143451681Y-78333891D01*
X143289278Y-78406197D01*
X143289276Y-78406198D01*
X143283248Y-78408882D01*
X143128747Y-78521134D01*
X143124326Y-78526044D01*
X143124325Y-78526045D01*
X143034468Y-78625842D01*
X143000960Y-78663056D01*
X142905473Y-78828444D01*
X142846458Y-79010072D01*
X142845768Y-79016633D01*
X142845768Y-79016635D01*
X142838050Y-79090072D01*
X142826496Y-79200000D01*
X142846458Y-79389928D01*
X142848499Y-79396209D01*
X142848706Y-79397184D01*
X142843304Y-79467974D01*
X142800487Y-79524607D01*
X142733849Y-79549100D01*
X142724204Y-79549374D01*
X137938883Y-79501715D01*
X137870965Y-79481035D01*
X137825009Y-79426919D01*
X137814828Y-79362551D01*
X137822814Y-79286565D01*
X137823504Y-79280000D01*
X137803542Y-79090072D01*
X137744527Y-78908444D01*
X137727207Y-78878444D01*
X137652341Y-78748774D01*
X137649040Y-78743056D01*
X137575863Y-78661785D01*
X137545147Y-78597779D01*
X137543500Y-78577476D01*
X137543500Y-77954595D01*
X137563502Y-77886474D01*
X137580405Y-77865499D01*
X138025501Y-77420404D01*
X138087813Y-77386379D01*
X138114596Y-77383500D01*
X139681233Y-77383500D01*
X139692416Y-77384027D01*
X139699909Y-77385702D01*
X139707835Y-77385453D01*
X139707836Y-77385453D01*
X139767986Y-77383562D01*
X139771945Y-77383500D01*
X139799856Y-77383500D01*
X139803791Y-77383003D01*
X139803856Y-77382995D01*
X139815693Y-77382062D01*
X139847951Y-77381048D01*
X139851970Y-77380922D01*
X139859889Y-77380673D01*
X139879343Y-77375021D01*
X139898700Y-77371013D01*
X139910930Y-77369468D01*
X139910931Y-77369468D01*
X139918797Y-77368474D01*
X139926168Y-77365555D01*
X139926170Y-77365555D01*
X139959912Y-77352196D01*
X139971142Y-77348351D01*
X140005983Y-77338229D01*
X140005984Y-77338229D01*
X140013593Y-77336018D01*
X140020412Y-77331985D01*
X140020417Y-77331983D01*
X140031028Y-77325707D01*
X140048776Y-77317012D01*
X140067617Y-77309552D01*
X140103387Y-77283564D01*
X140113307Y-77277048D01*
X140144535Y-77258580D01*
X140144538Y-77258578D01*
X140151362Y-77254542D01*
X140165683Y-77240221D01*
X140180717Y-77227380D01*
X140190694Y-77220131D01*
X140197107Y-77215472D01*
X140225298Y-77181395D01*
X140233288Y-77172616D01*
X140820999Y-76584905D01*
X140883311Y-76550879D01*
X140910094Y-76548000D01*
X141711800Y-76548000D01*
X141779921Y-76568002D01*
X141799147Y-76584343D01*
X141799420Y-76584040D01*
X141804332Y-76588463D01*
X141808747Y-76593366D01*
X141830329Y-76609046D01*
X141945061Y-76692404D01*
X141963248Y-76705618D01*
X141969276Y-76708302D01*
X141969278Y-76708303D01*
X142062932Y-76750000D01*
X142137712Y-76783294D01*
X142231113Y-76803147D01*
X142318056Y-76821628D01*
X142318061Y-76821628D01*
X142324513Y-76823000D01*
X142515487Y-76823000D01*
X142521939Y-76821628D01*
X142521944Y-76821628D01*
X142608887Y-76803147D01*
X142702288Y-76783294D01*
X142777068Y-76750000D01*
X142870722Y-76708303D01*
X142870724Y-76708302D01*
X142876752Y-76705618D01*
X142894940Y-76692404D01*
X142945735Y-76655499D01*
X143031253Y-76593366D01*
X143054091Y-76568002D01*
X143154621Y-76456352D01*
X143154622Y-76456351D01*
X143159040Y-76451444D01*
X143244190Y-76303961D01*
X143251223Y-76291779D01*
X143251224Y-76291778D01*
X143254527Y-76286056D01*
X143313542Y-76104428D01*
X143314376Y-76096498D01*
X143332814Y-75921065D01*
X143333504Y-75914500D01*
X143320816Y-75793777D01*
X143314232Y-75731135D01*
X143314232Y-75731133D01*
X143313542Y-75724572D01*
X143254527Y-75542944D01*
X143159040Y-75377556D01*
X143142882Y-75359610D01*
X143035675Y-75240545D01*
X143035674Y-75240544D01*
X143031253Y-75235634D01*
X142876752Y-75123382D01*
X142870724Y-75120698D01*
X142870722Y-75120697D01*
X142708319Y-75048391D01*
X142708318Y-75048391D01*
X142702288Y-75045706D01*
X142608887Y-75025853D01*
X142521944Y-75007372D01*
X142521939Y-75007372D01*
X142515487Y-75006000D01*
X142324513Y-75006000D01*
X142318061Y-75007372D01*
X142318056Y-75007372D01*
X142231113Y-75025853D01*
X142137712Y-75045706D01*
X142131682Y-75048391D01*
X142131681Y-75048391D01*
X141969278Y-75120697D01*
X141969276Y-75120698D01*
X141963248Y-75123382D01*
X141808747Y-75235634D01*
X141804332Y-75240537D01*
X141799420Y-75244960D01*
X141798295Y-75243711D01*
X141744986Y-75276551D01*
X141711800Y-75281000D01*
X140674263Y-75281000D01*
X140663079Y-75280473D01*
X140655591Y-75278799D01*
X140647668Y-75279048D01*
X140587533Y-75280938D01*
X140583575Y-75281000D01*
X140555644Y-75281000D01*
X140551729Y-75281495D01*
X140551725Y-75281495D01*
X140551667Y-75281503D01*
X140551638Y-75281506D01*
X140539796Y-75282439D01*
X140495610Y-75283827D01*
X140478244Y-75288872D01*
X140476158Y-75289478D01*
X140456806Y-75293486D01*
X140444568Y-75295032D01*
X140444566Y-75295033D01*
X140436703Y-75296026D01*
X140395586Y-75312306D01*
X140384385Y-75316141D01*
X140341906Y-75328482D01*
X140335087Y-75332515D01*
X140335082Y-75332517D01*
X140324471Y-75338793D01*
X140306721Y-75347490D01*
X140287883Y-75354948D01*
X140281467Y-75359609D01*
X140281466Y-75359610D01*
X140252125Y-75380928D01*
X140242201Y-75387447D01*
X140210960Y-75405922D01*
X140210955Y-75405926D01*
X140204137Y-75409958D01*
X140189813Y-75424282D01*
X140174781Y-75437121D01*
X140158393Y-75449028D01*
X140130212Y-75483093D01*
X140122222Y-75491873D01*
X139534500Y-76079595D01*
X139472188Y-76113621D01*
X139445405Y-76116500D01*
X138653594Y-76116500D01*
X138585473Y-76096498D01*
X138538980Y-76042842D01*
X138528876Y-75972568D01*
X138558370Y-75907988D01*
X138564499Y-75901405D01*
X140277247Y-74188657D01*
X140285537Y-74181113D01*
X140292018Y-74177000D01*
X140338659Y-74127332D01*
X140341413Y-74124491D01*
X140361134Y-74104770D01*
X140363612Y-74101575D01*
X140371318Y-74092553D01*
X140396158Y-74066101D01*
X140401586Y-74060321D01*
X140411346Y-74042568D01*
X140422199Y-74026045D01*
X140429753Y-74016306D01*
X140434613Y-74010041D01*
X140452176Y-73969457D01*
X140457383Y-73958827D01*
X140478695Y-73920060D01*
X140480666Y-73912383D01*
X140480668Y-73912378D01*
X140483732Y-73900442D01*
X140490142Y-73881722D01*
X140492466Y-73876353D01*
X140537882Y-73821783D01*
X140552659Y-73813257D01*
X140582994Y-73798396D01*
X140587198Y-73795398D01*
X140587202Y-73795395D01*
X140688117Y-73723413D01*
X140764860Y-73668673D01*
X140780447Y-73653141D01*
X140919435Y-73514637D01*
X140923096Y-73510989D01*
X140982594Y-73428189D01*
X141053453Y-73329577D01*
X141054776Y-73330528D01*
X141101645Y-73287357D01*
X141171580Y-73275125D01*
X141237026Y-73302644D01*
X141264875Y-73334494D01*
X141324987Y-73432588D01*
X141471250Y-73601438D01*
X141643126Y-73744132D01*
X141836000Y-73856838D01*
X141840825Y-73858680D01*
X141840826Y-73858681D01*
X141913612Y-73886475D01*
X142044692Y-73936530D01*
X142049760Y-73937561D01*
X142049763Y-73937562D01*
X142154216Y-73958813D01*
X142263597Y-73981067D01*
X142268772Y-73981257D01*
X142268774Y-73981257D01*
X142481673Y-73989064D01*
X142481677Y-73989064D01*
X142486837Y-73989253D01*
X142491957Y-73988597D01*
X142491959Y-73988597D01*
X142703288Y-73961525D01*
X142703289Y-73961525D01*
X142708416Y-73960868D01*
X142743861Y-73950234D01*
X142917429Y-73898161D01*
X142917434Y-73898159D01*
X142922384Y-73896674D01*
X143122994Y-73798396D01*
X143304860Y-73668673D01*
X143320447Y-73653141D01*
X143459435Y-73514637D01*
X143463096Y-73510989D01*
X143522594Y-73428189D01*
X143593453Y-73329577D01*
X143594776Y-73330528D01*
X143641645Y-73287357D01*
X143711580Y-73275125D01*
X143777026Y-73302644D01*
X143804875Y-73334494D01*
X143864987Y-73432588D01*
X144011250Y-73601438D01*
X144183126Y-73744132D01*
X144376000Y-73856838D01*
X144380825Y-73858680D01*
X144380826Y-73858681D01*
X144453612Y-73886475D01*
X144584692Y-73936530D01*
X144589760Y-73937561D01*
X144589763Y-73937562D01*
X144694216Y-73958813D01*
X144803597Y-73981067D01*
X144808772Y-73981257D01*
X144808774Y-73981257D01*
X145021673Y-73989064D01*
X145021677Y-73989064D01*
X145026837Y-73989253D01*
X145031957Y-73988597D01*
X145031959Y-73988597D01*
X145243288Y-73961525D01*
X145243289Y-73961525D01*
X145248416Y-73960868D01*
X145283861Y-73950234D01*
X145457429Y-73898161D01*
X145457434Y-73898159D01*
X145462384Y-73896674D01*
X145662994Y-73798396D01*
X145844860Y-73668673D01*
X145860447Y-73653141D01*
X145999435Y-73514637D01*
X146003096Y-73510989D01*
X146062594Y-73428189D01*
X146133453Y-73329577D01*
X146134776Y-73330528D01*
X146181645Y-73287357D01*
X146251580Y-73275125D01*
X146317026Y-73302644D01*
X146344875Y-73334494D01*
X146404987Y-73432588D01*
X146551250Y-73601438D01*
X146723126Y-73744132D01*
X146916000Y-73856838D01*
X146920825Y-73858680D01*
X146920826Y-73858681D01*
X146993612Y-73886475D01*
X147124692Y-73936530D01*
X147129760Y-73937561D01*
X147129763Y-73937562D01*
X147234216Y-73958813D01*
X147343597Y-73981067D01*
X147348772Y-73981257D01*
X147348774Y-73981257D01*
X147561673Y-73989064D01*
X147561677Y-73989064D01*
X147566837Y-73989253D01*
X147571957Y-73988597D01*
X147571959Y-73988597D01*
X147783288Y-73961525D01*
X147783289Y-73961525D01*
X147788416Y-73960868D01*
X147823861Y-73950234D01*
X147997429Y-73898161D01*
X147997434Y-73898159D01*
X148002384Y-73896674D01*
X148202994Y-73798396D01*
X148384860Y-73668673D01*
X148400447Y-73653141D01*
X148539435Y-73514637D01*
X148543096Y-73510989D01*
X148602594Y-73428189D01*
X148673453Y-73329577D01*
X148674776Y-73330528D01*
X148721645Y-73287357D01*
X148791580Y-73275125D01*
X148857026Y-73302644D01*
X148884875Y-73334494D01*
X148944987Y-73432588D01*
X149091250Y-73601438D01*
X149263126Y-73744132D01*
X149456000Y-73856838D01*
X149460825Y-73858680D01*
X149460826Y-73858681D01*
X149533612Y-73886475D01*
X149664692Y-73936530D01*
X149669760Y-73937561D01*
X149669763Y-73937562D01*
X149774216Y-73958813D01*
X149883597Y-73981067D01*
X149888772Y-73981257D01*
X149888774Y-73981257D01*
X150101673Y-73989064D01*
X150101677Y-73989064D01*
X150106837Y-73989253D01*
X150111957Y-73988597D01*
X150111959Y-73988597D01*
X150323288Y-73961525D01*
X150323289Y-73961525D01*
X150328416Y-73960868D01*
X150363861Y-73950234D01*
X150537429Y-73898161D01*
X150537434Y-73898159D01*
X150542384Y-73896674D01*
X150742994Y-73798396D01*
X150924860Y-73668673D01*
X150940447Y-73653141D01*
X151079435Y-73514637D01*
X151083096Y-73510989D01*
X151142594Y-73428189D01*
X151213453Y-73329577D01*
X151214776Y-73330528D01*
X151261645Y-73287357D01*
X151331580Y-73275125D01*
X151397026Y-73302644D01*
X151424875Y-73334494D01*
X151484987Y-73432588D01*
X151631250Y-73601438D01*
X151803126Y-73744132D01*
X151996000Y-73856838D01*
X152000825Y-73858680D01*
X152000826Y-73858681D01*
X152073612Y-73886475D01*
X152204692Y-73936530D01*
X152209760Y-73937561D01*
X152209763Y-73937562D01*
X152314216Y-73958813D01*
X152423597Y-73981067D01*
X152428772Y-73981257D01*
X152428774Y-73981257D01*
X152641673Y-73989064D01*
X152641677Y-73989064D01*
X152646837Y-73989253D01*
X152651957Y-73988597D01*
X152651959Y-73988597D01*
X152863288Y-73961525D01*
X152863289Y-73961525D01*
X152868416Y-73960868D01*
X152903861Y-73950234D01*
X153077429Y-73898161D01*
X153077434Y-73898159D01*
X153082384Y-73896674D01*
X153282994Y-73798396D01*
X153464860Y-73668673D01*
X153480447Y-73653141D01*
X153619435Y-73514637D01*
X153623096Y-73510989D01*
X153682594Y-73428189D01*
X153750435Y-73333777D01*
X153753453Y-73329577D01*
X153774320Y-73287357D01*
X153850136Y-73133953D01*
X153850137Y-73133951D01*
X153852430Y-73129311D01*
X153917370Y-72915569D01*
X153946529Y-72694090D01*
X153948156Y-72627500D01*
X153929852Y-72404861D01*
X153875431Y-72188202D01*
X153786354Y-71983340D01*
X153665014Y-71795777D01*
X153514670Y-71630551D01*
X153471564Y-71596508D01*
X153430502Y-71538592D01*
X153427270Y-71467669D01*
X153462895Y-71406258D01*
X153496204Y-71383527D01*
X153514958Y-71374741D01*
X153652807Y-71289437D01*
X153664208Y-71280401D01*
X153778739Y-71165671D01*
X153787751Y-71154260D01*
X153872816Y-71016257D01*
X153878963Y-71003076D01*
X153930138Y-70848790D01*
X153933005Y-70835414D01*
X153942672Y-70741062D01*
X153943000Y-70734645D01*
X153943000Y-70359615D01*
X153938525Y-70344376D01*
X153937135Y-70343171D01*
X153929452Y-70341500D01*
X152457000Y-70341500D01*
X152388879Y-70321498D01*
X152342386Y-70267842D01*
X152331000Y-70215500D01*
X152331000Y-69815385D01*
X152839000Y-69815385D01*
X152843475Y-69830624D01*
X152844865Y-69831829D01*
X152852548Y-69833500D01*
X153924884Y-69833500D01*
X153940123Y-69829025D01*
X153941328Y-69827635D01*
X153942999Y-69819952D01*
X153942999Y-69440405D01*
X153942662Y-69433886D01*
X153932743Y-69338294D01*
X153929851Y-69324900D01*
X153878412Y-69170716D01*
X153872239Y-69157538D01*
X153786937Y-69019693D01*
X153777901Y-69008292D01*
X153663171Y-68893761D01*
X153651760Y-68884749D01*
X153513757Y-68799684D01*
X153500576Y-68793537D01*
X153346290Y-68742362D01*
X153332914Y-68739495D01*
X153238562Y-68729828D01*
X153232145Y-68729500D01*
X152857115Y-68729500D01*
X152841876Y-68733975D01*
X152840671Y-68735365D01*
X152839000Y-68743048D01*
X152839000Y-69815385D01*
X152331000Y-69815385D01*
X152331000Y-68747616D01*
X152326525Y-68732377D01*
X152325135Y-68731172D01*
X152317452Y-68729501D01*
X151937905Y-68729501D01*
X151931386Y-68729838D01*
X151835794Y-68739757D01*
X151822400Y-68742649D01*
X151668216Y-68794088D01*
X151655038Y-68800261D01*
X151517193Y-68885563D01*
X151505792Y-68894599D01*
X151391261Y-69009329D01*
X151382249Y-69020740D01*
X151297183Y-69158744D01*
X151288926Y-69176450D01*
X151242008Y-69229734D01*
X151173730Y-69249194D01*
X151105771Y-69228651D01*
X151081538Y-69207997D01*
X150978151Y-69094375D01*
X150978142Y-69094366D01*
X150974670Y-69090551D01*
X150970619Y-69087352D01*
X150970615Y-69087348D01*
X150803414Y-68955300D01*
X150803410Y-68955298D01*
X150799359Y-68952098D01*
X150794485Y-68949407D01*
X150693681Y-68893761D01*
X150603789Y-68844138D01*
X150598920Y-68842414D01*
X150598916Y-68842412D01*
X150398087Y-68771295D01*
X150398083Y-68771294D01*
X150393212Y-68769569D01*
X150388119Y-68768662D01*
X150388116Y-68768661D01*
X150178373Y-68731300D01*
X150178367Y-68731299D01*
X150173284Y-68730394D01*
X150099452Y-68729492D01*
X149955081Y-68727728D01*
X149955079Y-68727728D01*
X149949911Y-68727665D01*
X149729091Y-68761455D01*
X149516756Y-68830857D01*
X149318607Y-68934007D01*
X149314474Y-68937110D01*
X149314471Y-68937112D01*
X149147362Y-69062581D01*
X149139965Y-69068135D01*
X148985629Y-69229638D01*
X148878201Y-69387121D01*
X148823293Y-69432121D01*
X148752768Y-69440292D01*
X148689021Y-69409038D01*
X148668324Y-69384554D01*
X148587822Y-69260117D01*
X148587820Y-69260114D01*
X148585014Y-69255777D01*
X148434670Y-69090551D01*
X148430619Y-69087352D01*
X148430615Y-69087348D01*
X148263414Y-68955300D01*
X148263410Y-68955298D01*
X148259359Y-68952098D01*
X148254485Y-68949407D01*
X148153681Y-68893761D01*
X148063789Y-68844138D01*
X148058920Y-68842414D01*
X148058916Y-68842412D01*
X147858087Y-68771295D01*
X147858083Y-68771294D01*
X147853212Y-68769569D01*
X147848119Y-68768662D01*
X147848116Y-68768661D01*
X147638373Y-68731300D01*
X147638367Y-68731299D01*
X147633284Y-68730394D01*
X147559452Y-68729492D01*
X147415081Y-68727728D01*
X147415079Y-68727728D01*
X147409911Y-68727665D01*
X147189091Y-68761455D01*
X146976756Y-68830857D01*
X146778607Y-68934007D01*
X146774474Y-68937110D01*
X146774471Y-68937112D01*
X146607362Y-69062581D01*
X146599965Y-69068135D01*
X146445629Y-69229638D01*
X146338201Y-69387121D01*
X146283293Y-69432121D01*
X146212768Y-69440292D01*
X146149021Y-69409038D01*
X146128324Y-69384554D01*
X146047822Y-69260117D01*
X146047820Y-69260114D01*
X146045014Y-69255777D01*
X145894670Y-69090551D01*
X145890619Y-69087352D01*
X145890615Y-69087348D01*
X145723414Y-68955300D01*
X145723410Y-68955298D01*
X145719359Y-68952098D01*
X145714485Y-68949407D01*
X145613681Y-68893761D01*
X145523789Y-68844138D01*
X145518920Y-68842414D01*
X145518916Y-68842412D01*
X145318087Y-68771295D01*
X145318083Y-68771294D01*
X145313212Y-68769569D01*
X145308119Y-68768662D01*
X145308116Y-68768661D01*
X145098373Y-68731300D01*
X145098367Y-68731299D01*
X145093284Y-68730394D01*
X145019452Y-68729492D01*
X144875081Y-68727728D01*
X144875079Y-68727728D01*
X144869911Y-68727665D01*
X144649091Y-68761455D01*
X144436756Y-68830857D01*
X144238607Y-68934007D01*
X144234474Y-68937110D01*
X144234471Y-68937112D01*
X144067362Y-69062581D01*
X144059965Y-69068135D01*
X143905629Y-69229638D01*
X143798201Y-69387121D01*
X143743293Y-69432121D01*
X143672768Y-69440292D01*
X143609021Y-69409038D01*
X143588324Y-69384554D01*
X143507822Y-69260117D01*
X143507820Y-69260114D01*
X143505014Y-69255777D01*
X143354670Y-69090551D01*
X143350619Y-69087352D01*
X143350615Y-69087348D01*
X143183414Y-68955300D01*
X143183410Y-68955298D01*
X143179359Y-68952098D01*
X143174485Y-68949407D01*
X143073681Y-68893761D01*
X142983789Y-68844138D01*
X142978920Y-68842414D01*
X142978916Y-68842412D01*
X142778087Y-68771295D01*
X142778083Y-68771294D01*
X142773212Y-68769569D01*
X142768119Y-68768662D01*
X142768116Y-68768661D01*
X142558373Y-68731300D01*
X142558367Y-68731299D01*
X142553284Y-68730394D01*
X142479452Y-68729492D01*
X142335081Y-68727728D01*
X142335079Y-68727728D01*
X142329911Y-68727665D01*
X142109091Y-68761455D01*
X141896756Y-68830857D01*
X141698607Y-68934007D01*
X141694474Y-68937110D01*
X141694471Y-68937112D01*
X141527362Y-69062581D01*
X141519965Y-69068135D01*
X141365629Y-69229638D01*
X141258201Y-69387121D01*
X141203293Y-69432121D01*
X141132768Y-69440292D01*
X141069021Y-69409038D01*
X141048324Y-69384554D01*
X140967822Y-69260117D01*
X140967820Y-69260114D01*
X140965014Y-69255777D01*
X140814670Y-69090551D01*
X140810619Y-69087352D01*
X140810615Y-69087348D01*
X140643414Y-68955300D01*
X140643410Y-68955298D01*
X140639359Y-68952098D01*
X140634485Y-68949407D01*
X140533681Y-68893761D01*
X140443789Y-68844138D01*
X140438920Y-68842414D01*
X140438916Y-68842412D01*
X140238087Y-68771295D01*
X140238083Y-68771294D01*
X140233212Y-68769569D01*
X140228119Y-68768662D01*
X140228116Y-68768661D01*
X140018373Y-68731300D01*
X140018367Y-68731299D01*
X140013284Y-68730394D01*
X139939452Y-68729492D01*
X139795081Y-68727728D01*
X139795079Y-68727728D01*
X139789911Y-68727665D01*
X139569091Y-68761455D01*
X139356756Y-68830857D01*
X139158607Y-68934007D01*
X139154474Y-68937110D01*
X139154471Y-68937112D01*
X138987362Y-69062581D01*
X138979965Y-69068135D01*
X138825629Y-69229638D01*
X138718204Y-69387118D01*
X138717898Y-69387566D01*
X138662987Y-69432569D01*
X138592462Y-69440740D01*
X138528715Y-69409486D01*
X138508017Y-69385001D01*
X138478062Y-69338697D01*
X138467377Y-69329495D01*
X138457812Y-69333898D01*
X137717022Y-70074688D01*
X137709408Y-70088632D01*
X137709539Y-70090465D01*
X137713790Y-70097080D01*
X138455474Y-70838764D01*
X138467484Y-70845323D01*
X138479223Y-70836355D01*
X138513022Y-70789319D01*
X138514277Y-70790221D01*
X138561391Y-70746855D01*
X138631330Y-70734648D01*
X138696767Y-70762191D01*
X138724580Y-70794013D01*
X138782287Y-70888183D01*
X138782291Y-70888188D01*
X138784987Y-70892588D01*
X138931250Y-71061438D01*
X139103126Y-71204132D01*
X139144228Y-71228150D01*
X139176445Y-71246976D01*
X139225169Y-71298614D01*
X139238240Y-71368397D01*
X139211509Y-71434169D01*
X139171055Y-71467527D01*
X139158607Y-71474007D01*
X139154474Y-71477110D01*
X139154471Y-71477112D01*
X138995449Y-71596509D01*
X138979965Y-71608135D01*
X138825629Y-71769638D01*
X138718201Y-71927121D01*
X138663293Y-71972121D01*
X138592768Y-71980292D01*
X138529021Y-71949038D01*
X138508324Y-71924554D01*
X138427822Y-71800117D01*
X138427820Y-71800114D01*
X138425014Y-71795777D01*
X138274670Y-71630551D01*
X138270616Y-71627349D01*
X138270615Y-71627348D01*
X138103414Y-71495300D01*
X138103410Y-71495298D01*
X138099359Y-71492098D01*
X138057569Y-71469029D01*
X138007598Y-71418597D01*
X137992826Y-71349154D01*
X138017942Y-71282748D01*
X138045293Y-71256142D01*
X138094247Y-71221223D01*
X138102648Y-71210523D01*
X138095660Y-71197370D01*
X137357812Y-70459522D01*
X137343868Y-70451908D01*
X137342035Y-70452039D01*
X137335420Y-70456290D01*
X136591737Y-71199973D01*
X136584977Y-71212353D01*
X136590258Y-71219407D01*
X136636969Y-71246703D01*
X136685693Y-71298341D01*
X136698764Y-71368124D01*
X136672033Y-71433896D01*
X136631584Y-71467252D01*
X136618607Y-71474007D01*
X136614474Y-71477110D01*
X136614471Y-71477112D01*
X136455449Y-71596509D01*
X136439965Y-71608135D01*
X136285629Y-71769638D01*
X136178201Y-71927121D01*
X136123293Y-71972121D01*
X136052768Y-71980292D01*
X135989021Y-71949038D01*
X135968324Y-71924554D01*
X135887822Y-71800117D01*
X135887820Y-71800114D01*
X135885014Y-71795777D01*
X135881532Y-71791950D01*
X135746307Y-71643339D01*
X135715255Y-71579493D01*
X135713500Y-71558539D01*
X135713500Y-71152453D01*
X135733502Y-71084332D01*
X135750560Y-71063202D01*
X135797670Y-71016257D01*
X135843096Y-70970989D01*
X135902594Y-70888189D01*
X135973453Y-70789577D01*
X135974640Y-70790430D01*
X136021960Y-70746862D01*
X136091897Y-70734645D01*
X136157338Y-70762178D01*
X136185166Y-70794012D01*
X136211459Y-70836919D01*
X136221916Y-70846380D01*
X136230694Y-70842596D01*
X136972978Y-70100312D01*
X136980592Y-70086368D01*
X136980461Y-70084535D01*
X136976210Y-70077920D01*
X136234849Y-69336559D01*
X136223313Y-69330259D01*
X136211031Y-69339882D01*
X136178499Y-69387572D01*
X136123587Y-69432575D01*
X136053063Y-69440746D01*
X135989316Y-69409492D01*
X135968618Y-69385008D01*
X135887822Y-69260117D01*
X135887820Y-69260114D01*
X135885014Y-69255777D01*
X135734670Y-69090551D01*
X135730619Y-69087352D01*
X135730615Y-69087348D01*
X135574338Y-68963927D01*
X136586223Y-68963927D01*
X136592968Y-68976258D01*
X137332188Y-69715478D01*
X137346132Y-69723092D01*
X137347965Y-69722961D01*
X137354580Y-69718710D01*
X138098389Y-68974901D01*
X138105410Y-68962044D01*
X138098611Y-68952713D01*
X138094554Y-68950018D01*
X137908117Y-68847099D01*
X137898705Y-68842869D01*
X137697959Y-68771780D01*
X137687989Y-68769146D01*
X137478327Y-68731801D01*
X137468073Y-68730831D01*
X137255116Y-68728228D01*
X137244832Y-68728948D01*
X137034321Y-68761161D01*
X137024293Y-68763550D01*
X136821868Y-68829712D01*
X136812359Y-68833709D01*
X136623466Y-68932040D01*
X136614734Y-68937539D01*
X136594677Y-68952599D01*
X136586223Y-68963927D01*
X135574338Y-68963927D01*
X135563414Y-68955300D01*
X135563410Y-68955298D01*
X135559359Y-68952098D01*
X135554485Y-68949407D01*
X135453681Y-68893761D01*
X135363789Y-68844138D01*
X135358920Y-68842414D01*
X135358916Y-68842412D01*
X135158087Y-68771295D01*
X135158083Y-68771294D01*
X135153212Y-68769569D01*
X135148119Y-68768662D01*
X135148116Y-68768661D01*
X134938373Y-68731300D01*
X134938367Y-68731299D01*
X134933284Y-68730394D01*
X134859452Y-68729492D01*
X134715081Y-68727728D01*
X134715079Y-68727728D01*
X134709911Y-68727665D01*
X134489091Y-68761455D01*
X134276756Y-68830857D01*
X134078607Y-68934007D01*
X134074474Y-68937110D01*
X134074471Y-68937112D01*
X133907362Y-69062581D01*
X133899965Y-69068135D01*
X133745629Y-69229638D01*
X133619743Y-69414180D01*
X133572716Y-69515492D01*
X133537054Y-69592320D01*
X133525688Y-69616805D01*
X133465989Y-69832070D01*
X133442251Y-70054195D01*
X133442548Y-70059348D01*
X133442548Y-70059351D01*
X133449610Y-70181830D01*
X133455110Y-70277215D01*
X133456247Y-70282261D01*
X133456248Y-70282267D01*
X133473680Y-70359615D01*
X133504222Y-70495139D01*
X133588266Y-70702116D01*
X133639942Y-70786444D01*
X133702291Y-70888188D01*
X133704987Y-70892588D01*
X133708367Y-70896490D01*
X133847866Y-71057532D01*
X133847869Y-71057535D01*
X133851250Y-71061438D01*
X133855224Y-71064737D01*
X133858658Y-71068100D01*
X133893334Y-71130053D01*
X133896500Y-71158123D01*
X133896500Y-71561237D01*
X133876498Y-71629358D01*
X133861594Y-71648288D01*
X133745629Y-71769638D01*
X133619743Y-71954180D01*
X133525688Y-72156805D01*
X133465989Y-72372070D01*
X133442251Y-72594195D01*
X133442548Y-72599348D01*
X133442548Y-72599351D01*
X133448011Y-72694090D01*
X133455110Y-72817215D01*
X133456247Y-72822261D01*
X133456248Y-72822267D01*
X133476119Y-72910439D01*
X133504222Y-73035139D01*
X133588266Y-73242116D01*
X133639019Y-73324938D01*
X133702291Y-73428188D01*
X133704987Y-73432588D01*
X133851250Y-73601438D01*
X134023126Y-73744132D01*
X134216000Y-73856838D01*
X134220825Y-73858680D01*
X134220826Y-73858681D01*
X134293612Y-73886475D01*
X134424692Y-73936530D01*
X134429760Y-73937561D01*
X134429763Y-73937562D01*
X134534216Y-73958813D01*
X134643597Y-73981067D01*
X134648772Y-73981257D01*
X134648774Y-73981257D01*
X134788237Y-73986371D01*
X134855579Y-74008856D01*
X134900075Y-74064179D01*
X134907597Y-74134776D01*
X134872716Y-74201379D01*
X134094498Y-74979597D01*
X134032188Y-75013621D01*
X134005405Y-75016500D01*
X133941737Y-75016500D01*
X133873616Y-74996498D01*
X133827123Y-74942842D01*
X133816427Y-74877331D01*
X133823504Y-74810000D01*
X133803542Y-74620072D01*
X133744527Y-74438444D01*
X133649040Y-74273056D01*
X133632882Y-74255110D01*
X133525675Y-74136045D01*
X133525674Y-74136044D01*
X133521253Y-74131134D01*
X133366752Y-74018882D01*
X133360724Y-74016198D01*
X133360722Y-74016197D01*
X133198319Y-73943891D01*
X133198318Y-73943891D01*
X133192288Y-73941206D01*
X133098887Y-73921353D01*
X133011944Y-73902872D01*
X133011939Y-73902872D01*
X133005487Y-73901500D01*
X132814513Y-73901500D01*
X132808061Y-73902872D01*
X132808056Y-73902872D01*
X132721113Y-73921353D01*
X132627712Y-73941206D01*
X132621682Y-73943891D01*
X132621681Y-73943891D01*
X132459278Y-74016197D01*
X132459276Y-74016198D01*
X132453248Y-74018882D01*
X132298747Y-74131134D01*
X132294332Y-74136037D01*
X132289420Y-74140460D01*
X132288295Y-74139211D01*
X132234986Y-74172051D01*
X132201800Y-74176500D01*
X131678767Y-74176500D01*
X131667584Y-74175973D01*
X131660091Y-74174298D01*
X131652165Y-74174547D01*
X131652164Y-74174547D01*
X131592001Y-74176438D01*
X131588043Y-74176500D01*
X131560144Y-74176500D01*
X131556154Y-74177004D01*
X131544320Y-74177936D01*
X131500111Y-74179326D01*
X131492497Y-74181538D01*
X131492492Y-74181539D01*
X131480659Y-74184977D01*
X131461296Y-74188988D01*
X131441203Y-74191526D01*
X131433836Y-74194443D01*
X131433831Y-74194444D01*
X131400092Y-74207802D01*
X131388865Y-74211646D01*
X131346407Y-74223982D01*
X131339581Y-74228019D01*
X131328972Y-74234293D01*
X131311224Y-74242988D01*
X131292383Y-74250448D01*
X131285967Y-74255110D01*
X131285966Y-74255110D01*
X131256613Y-74276436D01*
X131246693Y-74282952D01*
X131215465Y-74301420D01*
X131215462Y-74301422D01*
X131208638Y-74305458D01*
X131194317Y-74319779D01*
X131179284Y-74332619D01*
X131162893Y-74344528D01*
X131157842Y-74350634D01*
X131134702Y-74378605D01*
X131126712Y-74387384D01*
X129737747Y-75776348D01*
X129729461Y-75783888D01*
X129722982Y-75788000D01*
X129717557Y-75793777D01*
X129676357Y-75837651D01*
X129673602Y-75840493D01*
X129653865Y-75860230D01*
X129651385Y-75863427D01*
X129643682Y-75872447D01*
X129613414Y-75904679D01*
X129609595Y-75911625D01*
X129609593Y-75911628D01*
X129603652Y-75922434D01*
X129592801Y-75938953D01*
X129580386Y-75954959D01*
X129577241Y-75962228D01*
X129577238Y-75962232D01*
X129562826Y-75995537D01*
X129557609Y-76006187D01*
X129536305Y-76044940D01*
X129534334Y-76052615D01*
X129534334Y-76052616D01*
X129531267Y-76064562D01*
X129524863Y-76083266D01*
X129516819Y-76101855D01*
X129515580Y-76109678D01*
X129515577Y-76109688D01*
X129509901Y-76145524D01*
X129507495Y-76157144D01*
X129502385Y-76177048D01*
X129496500Y-76199970D01*
X129496500Y-76220224D01*
X129494949Y-76239934D01*
X129491780Y-76259943D01*
X129492526Y-76267835D01*
X129495941Y-76303961D01*
X129496500Y-76315819D01*
X129496500Y-79290373D01*
X129476498Y-79358494D01*
X129422842Y-79404987D01*
X129369247Y-79416367D01*
X129082858Y-79413514D01*
X128854745Y-79411242D01*
X128786827Y-79390562D01*
X128740871Y-79336446D01*
X128730000Y-79285248D01*
X128730000Y-76750000D01*
X118829712Y-76791080D01*
X117330023Y-76797303D01*
X117261820Y-76777584D01*
X117215105Y-76724121D01*
X117203500Y-76671304D01*
X117203500Y-69318918D01*
X117681917Y-69318918D01*
X117682334Y-69326156D01*
X117697682Y-69592320D01*
X117750405Y-69861053D01*
X117751792Y-69865103D01*
X117751793Y-69865108D01*
X117831215Y-70097080D01*
X117839112Y-70120144D01*
X117868238Y-70178054D01*
X117937837Y-70316437D01*
X117962160Y-70364799D01*
X117964586Y-70368328D01*
X117964589Y-70368334D01*
X118055030Y-70499925D01*
X118117274Y-70590490D01*
X118120161Y-70593663D01*
X118120162Y-70593664D01*
X118248444Y-70734645D01*
X118301582Y-70793043D01*
X118304877Y-70795798D01*
X118304878Y-70795799D01*
X118365373Y-70846380D01*
X118511675Y-70968707D01*
X118519413Y-70973561D01*
X118740024Y-71111951D01*
X118740028Y-71111953D01*
X118743664Y-71114234D01*
X118834630Y-71155307D01*
X118989345Y-71225164D01*
X118989349Y-71225166D01*
X118993257Y-71226930D01*
X118997377Y-71228150D01*
X118997376Y-71228150D01*
X119251723Y-71303491D01*
X119251727Y-71303492D01*
X119255836Y-71304709D01*
X119260070Y-71305357D01*
X119260075Y-71305358D01*
X119522298Y-71345483D01*
X119522300Y-71345483D01*
X119526540Y-71346132D01*
X119665912Y-71348322D01*
X119796071Y-71350367D01*
X119796077Y-71350367D01*
X119800362Y-71350434D01*
X120072235Y-71317534D01*
X120337127Y-71248041D01*
X120341087Y-71246401D01*
X120341092Y-71246399D01*
X120463631Y-71195641D01*
X120590136Y-71143241D01*
X120826582Y-71005073D01*
X121042089Y-70836094D01*
X121082403Y-70794494D01*
X121229686Y-70642509D01*
X121232669Y-70639431D01*
X121235202Y-70635983D01*
X121235206Y-70635978D01*
X121392257Y-70422178D01*
X121394795Y-70418723D01*
X121422154Y-70368334D01*
X121523418Y-70181830D01*
X121523419Y-70181828D01*
X121525468Y-70178054D01*
X121622269Y-69921877D01*
X121668800Y-69718710D01*
X121682449Y-69659117D01*
X121682450Y-69659113D01*
X121683407Y-69654933D01*
X121686365Y-69621797D01*
X121707531Y-69384627D01*
X121707531Y-69384625D01*
X121707751Y-69382161D01*
X121708193Y-69340000D01*
X121708024Y-69337519D01*
X121689859Y-69071055D01*
X121689858Y-69071049D01*
X121689567Y-69066778D01*
X121634032Y-68798612D01*
X121542617Y-68540465D01*
X121417013Y-68297112D01*
X121407040Y-68282921D01*
X121262008Y-68076562D01*
X121259545Y-68073057D01*
X121073125Y-67872445D01*
X121069810Y-67869731D01*
X121069806Y-67869728D01*
X120864523Y-67701706D01*
X120861205Y-67698990D01*
X120627704Y-67555901D01*
X120623768Y-67554173D01*
X120380873Y-67447549D01*
X120380869Y-67447548D01*
X120376945Y-67445825D01*
X120113566Y-67370800D01*
X120109324Y-67370196D01*
X120109318Y-67370195D01*
X119908834Y-67341662D01*
X119842443Y-67332213D01*
X119698589Y-67331460D01*
X119572877Y-67330802D01*
X119572871Y-67330802D01*
X119568591Y-67330780D01*
X119564347Y-67331339D01*
X119564343Y-67331339D01*
X119445302Y-67347011D01*
X119297078Y-67366525D01*
X119292938Y-67367658D01*
X119292936Y-67367658D01*
X119220008Y-67387609D01*
X119032928Y-67438788D01*
X119028980Y-67440472D01*
X118784982Y-67544546D01*
X118784978Y-67544548D01*
X118781030Y-67546232D01*
X118761125Y-67558145D01*
X118549725Y-67684664D01*
X118549721Y-67684667D01*
X118546043Y-67686868D01*
X118332318Y-67858094D01*
X118143808Y-68056742D01*
X117984002Y-68279136D01*
X117855857Y-68521161D01*
X117854385Y-68525184D01*
X117854383Y-68525188D01*
X117763214Y-68774317D01*
X117761743Y-68778337D01*
X117703404Y-69045907D01*
X117681917Y-69318918D01*
X117203500Y-69318918D01*
X117203500Y-66974500D01*
X117223502Y-66906379D01*
X117277158Y-66859886D01*
X117329500Y-66848500D01*
X155694937Y-66848500D01*
X155763058Y-66868502D01*
G37*
%TD.AperFunction*%
%TA.AperFunction,Conductor*%
G36*
X138697026Y-73302644D02*
G01*
X138724875Y-73334494D01*
X138784987Y-73432588D01*
X138788366Y-73436489D01*
X138788372Y-73436497D01*
X138920090Y-73588556D01*
X138949573Y-73653141D01*
X138939458Y-73723413D01*
X138913948Y-73760148D01*
X137268173Y-75405922D01*
X135647747Y-77026348D01*
X135639461Y-77033888D01*
X135632982Y-77038000D01*
X135627557Y-77043777D01*
X135586357Y-77087651D01*
X135583602Y-77090493D01*
X135563865Y-77110230D01*
X135561385Y-77113427D01*
X135553682Y-77122447D01*
X135523414Y-77154679D01*
X135519595Y-77161625D01*
X135519593Y-77161628D01*
X135513652Y-77172434D01*
X135502801Y-77188953D01*
X135490386Y-77204959D01*
X135487241Y-77212228D01*
X135487238Y-77212232D01*
X135472826Y-77245537D01*
X135467609Y-77256187D01*
X135446305Y-77294940D01*
X135444334Y-77302615D01*
X135444334Y-77302616D01*
X135441267Y-77314562D01*
X135434863Y-77333266D01*
X135426819Y-77351855D01*
X135425580Y-77359678D01*
X135425577Y-77359688D01*
X135419901Y-77395524D01*
X135417495Y-77407144D01*
X135406500Y-77449970D01*
X135406500Y-77470224D01*
X135404949Y-77489934D01*
X135401780Y-77509943D01*
X135402526Y-77517835D01*
X135405941Y-77553961D01*
X135406500Y-77565819D01*
X135406500Y-79240500D01*
X135386498Y-79308621D01*
X135332842Y-79355114D01*
X135280500Y-79366500D01*
X134778768Y-79366500D01*
X134767585Y-79365973D01*
X134760092Y-79364298D01*
X134752166Y-79364547D01*
X134752165Y-79364547D01*
X134692002Y-79366438D01*
X134688044Y-79366500D01*
X134660144Y-79366500D01*
X134656154Y-79367004D01*
X134644320Y-79367936D01*
X134600111Y-79369326D01*
X134592497Y-79371538D01*
X134592492Y-79371539D01*
X134580659Y-79374977D01*
X134561296Y-79378988D01*
X134541203Y-79381526D01*
X134533836Y-79384443D01*
X134533831Y-79384444D01*
X134500092Y-79397802D01*
X134488865Y-79401646D01*
X134446407Y-79413982D01*
X134439581Y-79418019D01*
X134428972Y-79424293D01*
X134411224Y-79432988D01*
X134392383Y-79440448D01*
X134385965Y-79445111D01*
X134379021Y-79448928D01*
X134377578Y-79446304D01*
X134323958Y-79465429D01*
X134315522Y-79465628D01*
X132731058Y-79449848D01*
X132538245Y-79447928D01*
X132470327Y-79427248D01*
X132424371Y-79373132D01*
X132413500Y-79321934D01*
X132413500Y-76744594D01*
X132433502Y-76676473D01*
X132450405Y-76655499D01*
X132785499Y-76320405D01*
X132847811Y-76286379D01*
X132874594Y-76283500D01*
X134241233Y-76283500D01*
X134252416Y-76284027D01*
X134259909Y-76285702D01*
X134267835Y-76285453D01*
X134267836Y-76285453D01*
X134327986Y-76283562D01*
X134331945Y-76283500D01*
X134359856Y-76283500D01*
X134363791Y-76283003D01*
X134363856Y-76282995D01*
X134375693Y-76282062D01*
X134407951Y-76281048D01*
X134411970Y-76280922D01*
X134419889Y-76280673D01*
X134439343Y-76275021D01*
X134458700Y-76271013D01*
X134470930Y-76269468D01*
X134470931Y-76269468D01*
X134478797Y-76268474D01*
X134486168Y-76265555D01*
X134486170Y-76265555D01*
X134519912Y-76252196D01*
X134531142Y-76248351D01*
X134565983Y-76238229D01*
X134565984Y-76238229D01*
X134573593Y-76236018D01*
X134580412Y-76231985D01*
X134580417Y-76231983D01*
X134591028Y-76225707D01*
X134608776Y-76217012D01*
X134627617Y-76209552D01*
X134663387Y-76183564D01*
X134673307Y-76177048D01*
X134704535Y-76158580D01*
X134704538Y-76158578D01*
X134711362Y-76154542D01*
X134725683Y-76140221D01*
X134740717Y-76127380D01*
X134750694Y-76120131D01*
X134757107Y-76115472D01*
X134785298Y-76081395D01*
X134793288Y-76072616D01*
X136286471Y-74579434D01*
X136293544Y-74573198D01*
X136297612Y-74570792D01*
X136311933Y-74556471D01*
X136326967Y-74543630D01*
X136336944Y-74536381D01*
X136343357Y-74531722D01*
X136371548Y-74497645D01*
X136379538Y-74488866D01*
X136889549Y-73978855D01*
X136951861Y-73944829D01*
X137003762Y-73944479D01*
X137183597Y-73981067D01*
X137188772Y-73981257D01*
X137188774Y-73981257D01*
X137401673Y-73989064D01*
X137401677Y-73989064D01*
X137406837Y-73989253D01*
X137411957Y-73988597D01*
X137411959Y-73988597D01*
X137623288Y-73961525D01*
X137623289Y-73961525D01*
X137628416Y-73960868D01*
X137663861Y-73950234D01*
X137837429Y-73898161D01*
X137837434Y-73898159D01*
X137842384Y-73896674D01*
X138042994Y-73798396D01*
X138224860Y-73668673D01*
X138240447Y-73653141D01*
X138379435Y-73514637D01*
X138383096Y-73510989D01*
X138442594Y-73428189D01*
X138513453Y-73329577D01*
X138514776Y-73330528D01*
X138561645Y-73287357D01*
X138631580Y-73275125D01*
X138697026Y-73302644D01*
G37*
%TD.AperFunction*%
%TD*%
%TA.AperFunction,Conductor*%
%TO.N,GND*%
G36*
X170128621Y-66868502D02*
G01*
X170175114Y-66922158D01*
X170186500Y-66974500D01*
X170186500Y-119705500D01*
X170166498Y-119773621D01*
X170112842Y-119820114D01*
X170060500Y-119831500D01*
X164014392Y-119831500D01*
X163946271Y-119811498D01*
X163899778Y-119757842D01*
X163889674Y-119687568D01*
X163919168Y-119622988D01*
X163938827Y-119604674D01*
X164000724Y-119558285D01*
X164013285Y-119545724D01*
X164089786Y-119443649D01*
X164098324Y-119428054D01*
X164143478Y-119307606D01*
X164147105Y-119292351D01*
X164152631Y-119241486D01*
X164153000Y-119234672D01*
X164153000Y-118612115D01*
X164148525Y-118596876D01*
X164147135Y-118595671D01*
X164139452Y-118594000D01*
X162667000Y-118594000D01*
X162598879Y-118573998D01*
X162552386Y-118520342D01*
X162541000Y-118468000D01*
X162541000Y-118067885D01*
X163049000Y-118067885D01*
X163053475Y-118083124D01*
X163054865Y-118084329D01*
X163062548Y-118086000D01*
X164134884Y-118086000D01*
X164150123Y-118081525D01*
X164151328Y-118080135D01*
X164152999Y-118072452D01*
X164152999Y-117445331D01*
X164152629Y-117438510D01*
X164147105Y-117387648D01*
X164143479Y-117372396D01*
X164123431Y-117318918D01*
X165681917Y-117318918D01*
X165682334Y-117326156D01*
X165697682Y-117592320D01*
X165750405Y-117861053D01*
X165751792Y-117865103D01*
X165751793Y-117865108D01*
X165837723Y-118116088D01*
X165839112Y-118120144D01*
X165868238Y-118178054D01*
X165937837Y-118316437D01*
X165962160Y-118364799D01*
X165964586Y-118368328D01*
X165964589Y-118368334D01*
X166033088Y-118468000D01*
X166117274Y-118590490D01*
X166301582Y-118793043D01*
X166511675Y-118968707D01*
X166515316Y-118970991D01*
X166740024Y-119111951D01*
X166740028Y-119111953D01*
X166743664Y-119114234D01*
X166811544Y-119144883D01*
X166989345Y-119225164D01*
X166989349Y-119225166D01*
X166993257Y-119226930D01*
X166997377Y-119228150D01*
X166997376Y-119228150D01*
X167251723Y-119303491D01*
X167251727Y-119303492D01*
X167255836Y-119304709D01*
X167260070Y-119305357D01*
X167260075Y-119305358D01*
X167522298Y-119345483D01*
X167522300Y-119345483D01*
X167526540Y-119346132D01*
X167665912Y-119348322D01*
X167796071Y-119350367D01*
X167796077Y-119350367D01*
X167800362Y-119350434D01*
X168072235Y-119317534D01*
X168337127Y-119248041D01*
X168341087Y-119246401D01*
X168341092Y-119246399D01*
X168463631Y-119195641D01*
X168590136Y-119143241D01*
X168826582Y-119005073D01*
X169042089Y-118836094D01*
X169081928Y-118794984D01*
X169229686Y-118642509D01*
X169232669Y-118639431D01*
X169235202Y-118635983D01*
X169235206Y-118635978D01*
X169392257Y-118422178D01*
X169394795Y-118418723D01*
X169422154Y-118368334D01*
X169523418Y-118181830D01*
X169523419Y-118181828D01*
X169525468Y-118178054D01*
X169622269Y-117921877D01*
X169663173Y-117743279D01*
X169682449Y-117659117D01*
X169682450Y-117659113D01*
X169683407Y-117654933D01*
X169691910Y-117559665D01*
X169707531Y-117384627D01*
X169707531Y-117384625D01*
X169707751Y-117382161D01*
X169708193Y-117340000D01*
X169699181Y-117207800D01*
X169689859Y-117071055D01*
X169689858Y-117071049D01*
X169689567Y-117066778D01*
X169681814Y-117029338D01*
X169642846Y-116841173D01*
X169634032Y-116798612D01*
X169542617Y-116540465D01*
X169432102Y-116326346D01*
X169418978Y-116300919D01*
X169418978Y-116300918D01*
X169417013Y-116297112D01*
X169407040Y-116282921D01*
X169273498Y-116092910D01*
X169259545Y-116073057D01*
X169073125Y-115872445D01*
X169069810Y-115869731D01*
X169069806Y-115869728D01*
X168864523Y-115701706D01*
X168861205Y-115698990D01*
X168627704Y-115555901D01*
X168623768Y-115554173D01*
X168380873Y-115447549D01*
X168380869Y-115447548D01*
X168376945Y-115445825D01*
X168113566Y-115370800D01*
X168109324Y-115370196D01*
X168109318Y-115370195D01*
X167908834Y-115341662D01*
X167842443Y-115332213D01*
X167698589Y-115331460D01*
X167572877Y-115330802D01*
X167572871Y-115330802D01*
X167568591Y-115330780D01*
X167564347Y-115331339D01*
X167564343Y-115331339D01*
X167445302Y-115347011D01*
X167297078Y-115366525D01*
X167292938Y-115367658D01*
X167292936Y-115367658D01*
X167220008Y-115387609D01*
X167032928Y-115438788D01*
X167028980Y-115440472D01*
X166784982Y-115544546D01*
X166784978Y-115544548D01*
X166781030Y-115546232D01*
X166761125Y-115558145D01*
X166549725Y-115684664D01*
X166549721Y-115684667D01*
X166546043Y-115686868D01*
X166332318Y-115858094D01*
X166143808Y-116056742D01*
X165984002Y-116279136D01*
X165855857Y-116521161D01*
X165854385Y-116525184D01*
X165854383Y-116525188D01*
X165763353Y-116773938D01*
X165761743Y-116778337D01*
X165703404Y-117045907D01*
X165681917Y-117318918D01*
X164123431Y-117318918D01*
X164098324Y-117251946D01*
X164089786Y-117236351D01*
X164013285Y-117134276D01*
X164000724Y-117121715D01*
X163898649Y-117045214D01*
X163883054Y-117036676D01*
X163772297Y-116995155D01*
X163715533Y-116952513D01*
X163690833Y-116885952D01*
X163706040Y-116816603D01*
X163727587Y-116787922D01*
X163829057Y-116686805D01*
X163835730Y-116678965D01*
X163960003Y-116506020D01*
X163965313Y-116497183D01*
X164059670Y-116306267D01*
X164063469Y-116296672D01*
X164125377Y-116092910D01*
X164127555Y-116082837D01*
X164128986Y-116071962D01*
X164126775Y-116057778D01*
X164113617Y-116054000D01*
X163067115Y-116054000D01*
X163051876Y-116058475D01*
X163050671Y-116059865D01*
X163049000Y-116067548D01*
X163049000Y-118067885D01*
X162541000Y-118067885D01*
X162541000Y-115527885D01*
X163049000Y-115527885D01*
X163053475Y-115543124D01*
X163054865Y-115544329D01*
X163062548Y-115546000D01*
X164113344Y-115546000D01*
X164126875Y-115542027D01*
X164128180Y-115532947D01*
X164086214Y-115365875D01*
X164082894Y-115356124D01*
X163997972Y-115160814D01*
X163993105Y-115151739D01*
X163877426Y-114972926D01*
X163871136Y-114964757D01*
X163727806Y-114807240D01*
X163720273Y-114800215D01*
X163553139Y-114668222D01*
X163544552Y-114662517D01*
X163507116Y-114641851D01*
X163457146Y-114591419D01*
X163442374Y-114521976D01*
X163467490Y-114455571D01*
X163494842Y-114428964D01*
X163670327Y-114303792D01*
X163678200Y-114297139D01*
X163829052Y-114146812D01*
X163835730Y-114138965D01*
X163960003Y-113966020D01*
X163965313Y-113957183D01*
X164059670Y-113766267D01*
X164063469Y-113756672D01*
X164125377Y-113552910D01*
X164127555Y-113542837D01*
X164128986Y-113531962D01*
X164126775Y-113517778D01*
X164113617Y-113514000D01*
X163067115Y-113514000D01*
X163051876Y-113518475D01*
X163050671Y-113519865D01*
X163049000Y-113527548D01*
X163049000Y-115527885D01*
X162541000Y-115527885D01*
X162541000Y-112987885D01*
X163049000Y-112987885D01*
X163053475Y-113003124D01*
X163054865Y-113004329D01*
X163062548Y-113006000D01*
X164113344Y-113006000D01*
X164126875Y-113002027D01*
X164128180Y-112992947D01*
X164086214Y-112825875D01*
X164082894Y-112816124D01*
X163997972Y-112620814D01*
X163993105Y-112611739D01*
X163877426Y-112432926D01*
X163871136Y-112424757D01*
X163727806Y-112267240D01*
X163720273Y-112260215D01*
X163553139Y-112128222D01*
X163544552Y-112122517D01*
X163507116Y-112101851D01*
X163457146Y-112051419D01*
X163442374Y-111981976D01*
X163467490Y-111915571D01*
X163494842Y-111888964D01*
X163670327Y-111763792D01*
X163678200Y-111757139D01*
X163829052Y-111606812D01*
X163835730Y-111598965D01*
X163960003Y-111426020D01*
X163965313Y-111417183D01*
X164059670Y-111226267D01*
X164063469Y-111216672D01*
X164125377Y-111012910D01*
X164127555Y-111002837D01*
X164128986Y-110991962D01*
X164126775Y-110977778D01*
X164113617Y-110974000D01*
X163067115Y-110974000D01*
X163051876Y-110978475D01*
X163050671Y-110979865D01*
X163049000Y-110987548D01*
X163049000Y-112987885D01*
X162541000Y-112987885D01*
X162541000Y-110447885D01*
X163049000Y-110447885D01*
X163053475Y-110463124D01*
X163054865Y-110464329D01*
X163062548Y-110466000D01*
X164113344Y-110466000D01*
X164126875Y-110462027D01*
X164128180Y-110452947D01*
X164086214Y-110285875D01*
X164082894Y-110276124D01*
X163997972Y-110080814D01*
X163993105Y-110071739D01*
X163877426Y-109892926D01*
X163871136Y-109884757D01*
X163727806Y-109727240D01*
X163720273Y-109720215D01*
X163553139Y-109588222D01*
X163544552Y-109582517D01*
X163358117Y-109479599D01*
X163348705Y-109475369D01*
X163147959Y-109404280D01*
X163137988Y-109401646D01*
X163066837Y-109388972D01*
X163053540Y-109390432D01*
X163049000Y-109404989D01*
X163049000Y-110447885D01*
X162541000Y-110447885D01*
X162541000Y-109403102D01*
X162537082Y-109389758D01*
X162522806Y-109387771D01*
X162484324Y-109393660D01*
X162474288Y-109396051D01*
X162271868Y-109462212D01*
X162262359Y-109466209D01*
X162073463Y-109564542D01*
X162064738Y-109570036D01*
X161894433Y-109697905D01*
X161886726Y-109704748D01*
X161739590Y-109858717D01*
X161733109Y-109866722D01*
X161628498Y-110020074D01*
X161573587Y-110065076D01*
X161503062Y-110073247D01*
X161439315Y-110041993D01*
X161418618Y-110017509D01*
X161337822Y-109892617D01*
X161337820Y-109892614D01*
X161335014Y-109888277D01*
X161184670Y-109723051D01*
X161180619Y-109719852D01*
X161180615Y-109719848D01*
X161013414Y-109587800D01*
X161013410Y-109587798D01*
X161009359Y-109584598D01*
X160973028Y-109564542D01*
X160957136Y-109555769D01*
X160813789Y-109476638D01*
X160808920Y-109474914D01*
X160808916Y-109474912D01*
X160608087Y-109403795D01*
X160608083Y-109403794D01*
X160603212Y-109402069D01*
X160598119Y-109401162D01*
X160598116Y-109401161D01*
X160388373Y-109363800D01*
X160388367Y-109363799D01*
X160383284Y-109362894D01*
X160309452Y-109361992D01*
X160165081Y-109360228D01*
X160165079Y-109360228D01*
X160159911Y-109360165D01*
X159939091Y-109393955D01*
X159726756Y-109463357D01*
X159528607Y-109566507D01*
X159524474Y-109569610D01*
X159524471Y-109569612D01*
X159500247Y-109587800D01*
X159349965Y-109700635D01*
X159195629Y-109862138D01*
X159069743Y-110046680D01*
X159053899Y-110080814D01*
X159013788Y-110167225D01*
X158966964Y-110220592D01*
X158898720Y-110240173D01*
X158830725Y-110219749D01*
X158784565Y-110165807D01*
X158773500Y-110114175D01*
X158773500Y-107398767D01*
X158774027Y-107387584D01*
X158775702Y-107380091D01*
X158773562Y-107312014D01*
X158773500Y-107308055D01*
X158773500Y-107280144D01*
X158772995Y-107276144D01*
X158772062Y-107264301D01*
X158770922Y-107228030D01*
X158770673Y-107220111D01*
X158765021Y-107200657D01*
X158761013Y-107181300D01*
X158759468Y-107169070D01*
X158759468Y-107169069D01*
X158758474Y-107161203D01*
X158755555Y-107153830D01*
X158742196Y-107120088D01*
X158738351Y-107108858D01*
X158728229Y-107074017D01*
X158728229Y-107074016D01*
X158726018Y-107066407D01*
X158721985Y-107059588D01*
X158721983Y-107059583D01*
X158715707Y-107048972D01*
X158707012Y-107031224D01*
X158699552Y-107012383D01*
X158673564Y-106976613D01*
X158667048Y-106966693D01*
X158648580Y-106935465D01*
X158648578Y-106935462D01*
X158644542Y-106928638D01*
X158630221Y-106914317D01*
X158617380Y-106899283D01*
X158610131Y-106889306D01*
X158605472Y-106882893D01*
X158571395Y-106854702D01*
X158562616Y-106846712D01*
X157836905Y-106121001D01*
X157802879Y-106058689D01*
X157800000Y-106031906D01*
X157800000Y-89520000D01*
X161426496Y-89520000D01*
X161427186Y-89526565D01*
X161433844Y-89589908D01*
X161446458Y-89709928D01*
X161505473Y-89891556D01*
X161600960Y-90056944D01*
X161605378Y-90061851D01*
X161605379Y-90061852D01*
X161711631Y-90179857D01*
X161728747Y-90198866D01*
X161883248Y-90311118D01*
X161889276Y-90313802D01*
X161889278Y-90313803D01*
X161914625Y-90325088D01*
X162057712Y-90388794D01*
X162144009Y-90407137D01*
X162238056Y-90427128D01*
X162238061Y-90427128D01*
X162244513Y-90428500D01*
X162435487Y-90428500D01*
X162441939Y-90427128D01*
X162441944Y-90427128D01*
X162535991Y-90407137D01*
X162622288Y-90388794D01*
X162765375Y-90325088D01*
X162790722Y-90313803D01*
X162790724Y-90313802D01*
X162796752Y-90311118D01*
X162951253Y-90198866D01*
X163026674Y-90115102D01*
X163087119Y-90077864D01*
X163158103Y-90079216D01*
X163217087Y-90118730D01*
X163227740Y-90134939D01*
X163228266Y-90134616D01*
X163342291Y-90320688D01*
X163344987Y-90325088D01*
X163491250Y-90493938D01*
X163663126Y-90636632D01*
X163733595Y-90677811D01*
X163736445Y-90679476D01*
X163785169Y-90731114D01*
X163798240Y-90800897D01*
X163771509Y-90866669D01*
X163731055Y-90900027D01*
X163718607Y-90906507D01*
X163714474Y-90909610D01*
X163714471Y-90909612D01*
X163690247Y-90927800D01*
X163539965Y-91040635D01*
X163385629Y-91202138D01*
X163259743Y-91386680D01*
X163165688Y-91589305D01*
X163105989Y-91804570D01*
X163082251Y-92026695D01*
X163082548Y-92031848D01*
X163082548Y-92031851D01*
X163088011Y-92126590D01*
X163095110Y-92249715D01*
X163096247Y-92254761D01*
X163096248Y-92254767D01*
X163116119Y-92342939D01*
X163144222Y-92467639D01*
X163228266Y-92674616D01*
X163279019Y-92757438D01*
X163342291Y-92860688D01*
X163344987Y-92865088D01*
X163491250Y-93033938D01*
X163663126Y-93176632D01*
X163733595Y-93217811D01*
X163736445Y-93219476D01*
X163785169Y-93271114D01*
X163798240Y-93340897D01*
X163771509Y-93406669D01*
X163731055Y-93440027D01*
X163718607Y-93446507D01*
X163714474Y-93449610D01*
X163714471Y-93449612D01*
X163690247Y-93467800D01*
X163539965Y-93580635D01*
X163385629Y-93742138D01*
X163259743Y-93926680D01*
X163165688Y-94129305D01*
X163105989Y-94344570D01*
X163082251Y-94566695D01*
X163082548Y-94571848D01*
X163082548Y-94571851D01*
X163088011Y-94666590D01*
X163095110Y-94789715D01*
X163096247Y-94794761D01*
X163096248Y-94794767D01*
X163116119Y-94882939D01*
X163144222Y-95007639D01*
X163228266Y-95214616D01*
X163279019Y-95297438D01*
X163342291Y-95400688D01*
X163344987Y-95405088D01*
X163491250Y-95573938D01*
X163663126Y-95716632D01*
X163733595Y-95757811D01*
X163736445Y-95759476D01*
X163785169Y-95811114D01*
X163798240Y-95880897D01*
X163771509Y-95946669D01*
X163731055Y-95980027D01*
X163718607Y-95986507D01*
X163714474Y-95989610D01*
X163714471Y-95989612D01*
X163690247Y-96007800D01*
X163539965Y-96120635D01*
X163385629Y-96282138D01*
X163259743Y-96466680D01*
X163165688Y-96669305D01*
X163105989Y-96884570D01*
X163082251Y-97106695D01*
X163082548Y-97111848D01*
X163082548Y-97111851D01*
X163088011Y-97206590D01*
X163095110Y-97329715D01*
X163096247Y-97334761D01*
X163096248Y-97334767D01*
X163116119Y-97422939D01*
X163144222Y-97547639D01*
X163228266Y-97754616D01*
X163279019Y-97837438D01*
X163342291Y-97940688D01*
X163344987Y-97945088D01*
X163491250Y-98113938D01*
X163663126Y-98256632D01*
X163733595Y-98297811D01*
X163736445Y-98299476D01*
X163785169Y-98351114D01*
X163798240Y-98420897D01*
X163771509Y-98486669D01*
X163731055Y-98520027D01*
X163718607Y-98526507D01*
X163714474Y-98529610D01*
X163714471Y-98529612D01*
X163544100Y-98657530D01*
X163539965Y-98660635D01*
X163385629Y-98822138D01*
X163259743Y-99006680D01*
X163165688Y-99209305D01*
X163105989Y-99424570D01*
X163082251Y-99646695D01*
X163082548Y-99651848D01*
X163082548Y-99651851D01*
X163084910Y-99692812D01*
X163095110Y-99869715D01*
X163096247Y-99874761D01*
X163096248Y-99874767D01*
X163117275Y-99968069D01*
X163144222Y-100087639D01*
X163228266Y-100294616D01*
X163344987Y-100485088D01*
X163491250Y-100653938D01*
X163663126Y-100796632D01*
X163674063Y-100803023D01*
X163736445Y-100839476D01*
X163785169Y-100891114D01*
X163798240Y-100960897D01*
X163771509Y-101026669D01*
X163731055Y-101060027D01*
X163718607Y-101066507D01*
X163714474Y-101069610D01*
X163714471Y-101069612D01*
X163690247Y-101087800D01*
X163539965Y-101200635D01*
X163385629Y-101362138D01*
X163259743Y-101546680D01*
X163165688Y-101749305D01*
X163105989Y-101964570D01*
X163082251Y-102186695D01*
X163082548Y-102191848D01*
X163082548Y-102191851D01*
X163088011Y-102286590D01*
X163095110Y-102409715D01*
X163096247Y-102414761D01*
X163096248Y-102414767D01*
X163116119Y-102502939D01*
X163144222Y-102627639D01*
X163228266Y-102834616D01*
X163279019Y-102917438D01*
X163342291Y-103020688D01*
X163344987Y-103025088D01*
X163491250Y-103193938D01*
X163663126Y-103336632D01*
X163856000Y-103449338D01*
X164064692Y-103529030D01*
X164069760Y-103530061D01*
X164069763Y-103530062D01*
X164177017Y-103551883D01*
X164283597Y-103573567D01*
X164288772Y-103573757D01*
X164288774Y-103573757D01*
X164501673Y-103581564D01*
X164501677Y-103581564D01*
X164506837Y-103581753D01*
X164511957Y-103581097D01*
X164511959Y-103581097D01*
X164723288Y-103554025D01*
X164723289Y-103554025D01*
X164728416Y-103553368D01*
X164733366Y-103551883D01*
X164937429Y-103490661D01*
X164937434Y-103490659D01*
X164942384Y-103489174D01*
X165142994Y-103390896D01*
X165324860Y-103261173D01*
X165483096Y-103103489D01*
X165542594Y-103020689D01*
X165613453Y-102922077D01*
X165614776Y-102923028D01*
X165661645Y-102879857D01*
X165731580Y-102867625D01*
X165797026Y-102895144D01*
X165824875Y-102926994D01*
X165884987Y-103025088D01*
X166031250Y-103193938D01*
X166203126Y-103336632D01*
X166396000Y-103449338D01*
X166604692Y-103529030D01*
X166609760Y-103530061D01*
X166609763Y-103530062D01*
X166717017Y-103551883D01*
X166823597Y-103573567D01*
X166828772Y-103573757D01*
X166828774Y-103573757D01*
X167041673Y-103581564D01*
X167041677Y-103581564D01*
X167046837Y-103581753D01*
X167051957Y-103581097D01*
X167051959Y-103581097D01*
X167263288Y-103554025D01*
X167263289Y-103554025D01*
X167268416Y-103553368D01*
X167273366Y-103551883D01*
X167477429Y-103490661D01*
X167477434Y-103490659D01*
X167482384Y-103489174D01*
X167682994Y-103390896D01*
X167864860Y-103261173D01*
X168023096Y-103103489D01*
X168082594Y-103020689D01*
X168150435Y-102926277D01*
X168153453Y-102922077D01*
X168174320Y-102879857D01*
X168250136Y-102726453D01*
X168250137Y-102726451D01*
X168252430Y-102721811D01*
X168317370Y-102508069D01*
X168346529Y-102286590D01*
X168348156Y-102220000D01*
X168329852Y-101997361D01*
X168275431Y-101780702D01*
X168186354Y-101575840D01*
X168065014Y-101388277D01*
X167914670Y-101223051D01*
X167910619Y-101219852D01*
X167910615Y-101219848D01*
X167743414Y-101087800D01*
X167743410Y-101087798D01*
X167739359Y-101084598D01*
X167697569Y-101061529D01*
X167647598Y-101011097D01*
X167632826Y-100941654D01*
X167657942Y-100875248D01*
X167685293Y-100848642D01*
X167734247Y-100813723D01*
X167742648Y-100803023D01*
X167735660Y-100789870D01*
X166997812Y-100052022D01*
X166983868Y-100044408D01*
X166982035Y-100044539D01*
X166975420Y-100048790D01*
X166231737Y-100792473D01*
X166224977Y-100804853D01*
X166230258Y-100811907D01*
X166276969Y-100839203D01*
X166325693Y-100890841D01*
X166338764Y-100960624D01*
X166312033Y-101026396D01*
X166271584Y-101059752D01*
X166258607Y-101066507D01*
X166254474Y-101069610D01*
X166254471Y-101069612D01*
X166230247Y-101087800D01*
X166079965Y-101200635D01*
X165925629Y-101362138D01*
X165818201Y-101519621D01*
X165763293Y-101564621D01*
X165692768Y-101572792D01*
X165629021Y-101541538D01*
X165608324Y-101517054D01*
X165527822Y-101392617D01*
X165527820Y-101392614D01*
X165525014Y-101388277D01*
X165374670Y-101223051D01*
X165370619Y-101219852D01*
X165370615Y-101219848D01*
X165203414Y-101087800D01*
X165203410Y-101087798D01*
X165199359Y-101084598D01*
X165158053Y-101061796D01*
X165108084Y-101011364D01*
X165093312Y-100941921D01*
X165118428Y-100875516D01*
X165145780Y-100848909D01*
X165210110Y-100803023D01*
X165324860Y-100721173D01*
X165483096Y-100563489D01*
X165542594Y-100480689D01*
X165613453Y-100382077D01*
X165614640Y-100382930D01*
X165661960Y-100339362D01*
X165731897Y-100327145D01*
X165797338Y-100354678D01*
X165825166Y-100386512D01*
X165851459Y-100429419D01*
X165861916Y-100438880D01*
X165870694Y-100435096D01*
X166612978Y-99692812D01*
X166619356Y-99681132D01*
X167349408Y-99681132D01*
X167349539Y-99682965D01*
X167353790Y-99689580D01*
X168095474Y-100431264D01*
X168107484Y-100437823D01*
X168119223Y-100428855D01*
X168150004Y-100386019D01*
X168155315Y-100377180D01*
X168249670Y-100186267D01*
X168253469Y-100176672D01*
X168315376Y-99972915D01*
X168317555Y-99962834D01*
X168345590Y-99749887D01*
X168346109Y-99743212D01*
X168347572Y-99683364D01*
X168347378Y-99676646D01*
X168329781Y-99462604D01*
X168328096Y-99452424D01*
X168276214Y-99245875D01*
X168272894Y-99236124D01*
X168187972Y-99040814D01*
X168183105Y-99031739D01*
X168118063Y-98931197D01*
X168107377Y-98921995D01*
X168097812Y-98926398D01*
X167357022Y-99667188D01*
X167349408Y-99681132D01*
X166619356Y-99681132D01*
X166620592Y-99678868D01*
X166620461Y-99677035D01*
X166616210Y-99670420D01*
X165874849Y-98929059D01*
X165863313Y-98922759D01*
X165851031Y-98932382D01*
X165818499Y-98980072D01*
X165763587Y-99025075D01*
X165693063Y-99033246D01*
X165629316Y-99001992D01*
X165608618Y-98977508D01*
X165527822Y-98852617D01*
X165527820Y-98852614D01*
X165525014Y-98848277D01*
X165374670Y-98683051D01*
X165370619Y-98679852D01*
X165370615Y-98679848D01*
X165203414Y-98547800D01*
X165203410Y-98547798D01*
X165199359Y-98544598D01*
X165158053Y-98521796D01*
X165108084Y-98471364D01*
X165093312Y-98401921D01*
X165118428Y-98335516D01*
X165145780Y-98308909D01*
X165189603Y-98277650D01*
X165324860Y-98181173D01*
X165483096Y-98023489D01*
X165542594Y-97940689D01*
X165613453Y-97842077D01*
X165614776Y-97843028D01*
X165661645Y-97799857D01*
X165731580Y-97787625D01*
X165797026Y-97815144D01*
X165824875Y-97846994D01*
X165884987Y-97945088D01*
X166031250Y-98113938D01*
X166203126Y-98256632D01*
X166276445Y-98299476D01*
X166276955Y-98299774D01*
X166325679Y-98351412D01*
X166338750Y-98421195D01*
X166312019Y-98486967D01*
X166271562Y-98520327D01*
X166263460Y-98524544D01*
X166254734Y-98530039D01*
X166234677Y-98545099D01*
X166226223Y-98556427D01*
X166232968Y-98568758D01*
X166972188Y-99307978D01*
X166986132Y-99315592D01*
X166987965Y-99315461D01*
X166994580Y-99311210D01*
X167738389Y-98567401D01*
X167745410Y-98554544D01*
X167738611Y-98545213D01*
X167734559Y-98542521D01*
X167697602Y-98522120D01*
X167647631Y-98471687D01*
X167632859Y-98402245D01*
X167657975Y-98335839D01*
X167685327Y-98309232D01*
X167708797Y-98292491D01*
X167864860Y-98181173D01*
X168023096Y-98023489D01*
X168082594Y-97940689D01*
X168150435Y-97846277D01*
X168153453Y-97842077D01*
X168174320Y-97799857D01*
X168250136Y-97646453D01*
X168250137Y-97646451D01*
X168252430Y-97641811D01*
X168317370Y-97428069D01*
X168346529Y-97206590D01*
X168348156Y-97140000D01*
X168329852Y-96917361D01*
X168275431Y-96700702D01*
X168186354Y-96495840D01*
X168065014Y-96308277D01*
X167914670Y-96143051D01*
X167910619Y-96139852D01*
X167910615Y-96139848D01*
X167743414Y-96007800D01*
X167743410Y-96007798D01*
X167739359Y-96004598D01*
X167698053Y-95981796D01*
X167648084Y-95931364D01*
X167633312Y-95861921D01*
X167658428Y-95795516D01*
X167685780Y-95768909D01*
X167729603Y-95737650D01*
X167864860Y-95641173D01*
X168023096Y-95483489D01*
X168082594Y-95400689D01*
X168150435Y-95306277D01*
X168153453Y-95302077D01*
X168174320Y-95259857D01*
X168250136Y-95106453D01*
X168250137Y-95106451D01*
X168252430Y-95101811D01*
X168317370Y-94888069D01*
X168346529Y-94666590D01*
X168348156Y-94600000D01*
X168329852Y-94377361D01*
X168275431Y-94160702D01*
X168186354Y-93955840D01*
X168065014Y-93768277D01*
X167914670Y-93603051D01*
X167910619Y-93599852D01*
X167910615Y-93599848D01*
X167743414Y-93467800D01*
X167743410Y-93467798D01*
X167739359Y-93464598D01*
X167698053Y-93441796D01*
X167648084Y-93391364D01*
X167633312Y-93321921D01*
X167658428Y-93255516D01*
X167685780Y-93228909D01*
X167729603Y-93197650D01*
X167864860Y-93101173D01*
X168023096Y-92943489D01*
X168082594Y-92860689D01*
X168150435Y-92766277D01*
X168153453Y-92762077D01*
X168174320Y-92719857D01*
X168250136Y-92566453D01*
X168250137Y-92566451D01*
X168252430Y-92561811D01*
X168317370Y-92348069D01*
X168346529Y-92126590D01*
X168348156Y-92060000D01*
X168329852Y-91837361D01*
X168275431Y-91620702D01*
X168186354Y-91415840D01*
X168065014Y-91228277D01*
X167914670Y-91063051D01*
X167910619Y-91059852D01*
X167910615Y-91059848D01*
X167743414Y-90927800D01*
X167743410Y-90927798D01*
X167739359Y-90924598D01*
X167698053Y-90901796D01*
X167648084Y-90851364D01*
X167633312Y-90781921D01*
X167658428Y-90715516D01*
X167685780Y-90688909D01*
X167729603Y-90657650D01*
X167864860Y-90561173D01*
X168023096Y-90403489D01*
X168032670Y-90390166D01*
X168150435Y-90226277D01*
X168153453Y-90222077D01*
X168163006Y-90202749D01*
X168250136Y-90026453D01*
X168250137Y-90026451D01*
X168252430Y-90021811D01*
X168317370Y-89808069D01*
X168346529Y-89586590D01*
X168348156Y-89520000D01*
X168329852Y-89297361D01*
X168275431Y-89080702D01*
X168186354Y-88875840D01*
X168146906Y-88814862D01*
X168067822Y-88692617D01*
X168067820Y-88692614D01*
X168065014Y-88688277D01*
X167914670Y-88523051D01*
X167910619Y-88519852D01*
X167910615Y-88519848D01*
X167743414Y-88387800D01*
X167743410Y-88387798D01*
X167739359Y-88384598D01*
X167698053Y-88361796D01*
X167648084Y-88311364D01*
X167633312Y-88241921D01*
X167658428Y-88175516D01*
X167685780Y-88148909D01*
X167729603Y-88117650D01*
X167864860Y-88021173D01*
X168023096Y-87863489D01*
X168082594Y-87780689D01*
X168150435Y-87686277D01*
X168153453Y-87682077D01*
X168174320Y-87639857D01*
X168250136Y-87486453D01*
X168250137Y-87486451D01*
X168252430Y-87481811D01*
X168317370Y-87268069D01*
X168346529Y-87046590D01*
X168348156Y-86980000D01*
X168329852Y-86757361D01*
X168275431Y-86540702D01*
X168186354Y-86335840D01*
X168065014Y-86148277D01*
X167914670Y-85983051D01*
X167910616Y-85979849D01*
X167910615Y-85979848D01*
X167743414Y-85847800D01*
X167743410Y-85847798D01*
X167739359Y-85844598D01*
X167697569Y-85821529D01*
X167647598Y-85771097D01*
X167632826Y-85701654D01*
X167657942Y-85635248D01*
X167685293Y-85608642D01*
X167734247Y-85573723D01*
X167742648Y-85563023D01*
X167735660Y-85549870D01*
X166997812Y-84812022D01*
X166983868Y-84804408D01*
X166982035Y-84804539D01*
X166975420Y-84808790D01*
X166231737Y-85552473D01*
X166224977Y-85564853D01*
X166230258Y-85571907D01*
X166276969Y-85599203D01*
X166325693Y-85650841D01*
X166338764Y-85720624D01*
X166312033Y-85786396D01*
X166271584Y-85819752D01*
X166258607Y-85826507D01*
X166254474Y-85829610D01*
X166254471Y-85829612D01*
X166084100Y-85957530D01*
X166079965Y-85960635D01*
X165925629Y-86122138D01*
X165818201Y-86279621D01*
X165763293Y-86324621D01*
X165692768Y-86332792D01*
X165629021Y-86301538D01*
X165608324Y-86277054D01*
X165527822Y-86152617D01*
X165527820Y-86152614D01*
X165525014Y-86148277D01*
X165374670Y-85983051D01*
X165332006Y-85949357D01*
X165290944Y-85891441D01*
X165287712Y-85820518D01*
X165323337Y-85759107D01*
X165356647Y-85736376D01*
X165362007Y-85733865D01*
X165368946Y-85731550D01*
X165519348Y-85638478D01*
X165644305Y-85513303D01*
X165737115Y-85362738D01*
X165761913Y-85287975D01*
X165802342Y-85229616D01*
X165831630Y-85211934D01*
X165870694Y-85195096D01*
X166612978Y-84452812D01*
X166619356Y-84441132D01*
X167349408Y-84441132D01*
X167349539Y-84442965D01*
X167353790Y-84449580D01*
X168095474Y-85191264D01*
X168107484Y-85197823D01*
X168119223Y-85188855D01*
X168150004Y-85146019D01*
X168155315Y-85137180D01*
X168249670Y-84946267D01*
X168253469Y-84936672D01*
X168315376Y-84732915D01*
X168317555Y-84722834D01*
X168345590Y-84509887D01*
X168346109Y-84503212D01*
X168347572Y-84443364D01*
X168347378Y-84436646D01*
X168329781Y-84222604D01*
X168328096Y-84212424D01*
X168276214Y-84005875D01*
X168272894Y-83996124D01*
X168187972Y-83800814D01*
X168183105Y-83791739D01*
X168118063Y-83691197D01*
X168107377Y-83681995D01*
X168097812Y-83686398D01*
X167357022Y-84427188D01*
X167349408Y-84441132D01*
X166619356Y-84441132D01*
X166620592Y-84438868D01*
X166620461Y-84437035D01*
X166616210Y-84430420D01*
X165874849Y-83689059D01*
X165834510Y-83667031D01*
X165821523Y-83664206D01*
X165771322Y-83614003D01*
X165762388Y-83593497D01*
X165738870Y-83523007D01*
X165738869Y-83523005D01*
X165736550Y-83516054D01*
X165643478Y-83365652D01*
X165594167Y-83316427D01*
X166226223Y-83316427D01*
X166232968Y-83328758D01*
X166972188Y-84067978D01*
X166986132Y-84075592D01*
X166987965Y-84075461D01*
X166994580Y-84071210D01*
X167738389Y-83327401D01*
X167745410Y-83314544D01*
X167738611Y-83305213D01*
X167734554Y-83302518D01*
X167548117Y-83199599D01*
X167538705Y-83195369D01*
X167337959Y-83124280D01*
X167327989Y-83121646D01*
X167118327Y-83084301D01*
X167108073Y-83083331D01*
X166895116Y-83080728D01*
X166884832Y-83081448D01*
X166674321Y-83113661D01*
X166664293Y-83116050D01*
X166461868Y-83182212D01*
X166452359Y-83186209D01*
X166263466Y-83284540D01*
X166254734Y-83290039D01*
X166234677Y-83305099D01*
X166226223Y-83316427D01*
X165594167Y-83316427D01*
X165518303Y-83240695D01*
X165512072Y-83236854D01*
X165373968Y-83151725D01*
X165373966Y-83151724D01*
X165367738Y-83147885D01*
X165207254Y-83094655D01*
X165206389Y-83094368D01*
X165206387Y-83094368D01*
X165199861Y-83092203D01*
X165193025Y-83091503D01*
X165193022Y-83091502D01*
X165149969Y-83087091D01*
X165095400Y-83081500D01*
X163794600Y-83081500D01*
X163791354Y-83081837D01*
X163791350Y-83081837D01*
X163695692Y-83091762D01*
X163695688Y-83091763D01*
X163688834Y-83092474D01*
X163682298Y-83094655D01*
X163682296Y-83094655D01*
X163625329Y-83113661D01*
X163521054Y-83148450D01*
X163370652Y-83241522D01*
X163245695Y-83366697D01*
X163152885Y-83517262D01*
X163097203Y-83685139D01*
X163086500Y-83789600D01*
X163086500Y-85090400D01*
X163086837Y-85093646D01*
X163086837Y-85093650D01*
X163091354Y-85137180D01*
X163097474Y-85196166D01*
X163099655Y-85202702D01*
X163099655Y-85202704D01*
X163108634Y-85229616D01*
X163153450Y-85363946D01*
X163246522Y-85514348D01*
X163371697Y-85639305D01*
X163377927Y-85643145D01*
X163377928Y-85643146D01*
X163395464Y-85653955D01*
X163522262Y-85732115D01*
X163529209Y-85734419D01*
X163531276Y-85735383D01*
X163584561Y-85782299D01*
X163604023Y-85850576D01*
X163583482Y-85918536D01*
X163553681Y-85950337D01*
X163539965Y-85960635D01*
X163385629Y-86122138D01*
X163259743Y-86306680D01*
X163165688Y-86509305D01*
X163105989Y-86724570D01*
X163082251Y-86946695D01*
X163082548Y-86951848D01*
X163082548Y-86951851D01*
X163088011Y-87046590D01*
X163095110Y-87169715D01*
X163096247Y-87174761D01*
X163096248Y-87174767D01*
X163116119Y-87262939D01*
X163144222Y-87387639D01*
X163228266Y-87594616D01*
X163279019Y-87677438D01*
X163342291Y-87780688D01*
X163344987Y-87785088D01*
X163491250Y-87953938D01*
X163663126Y-88096632D01*
X163733595Y-88137811D01*
X163736445Y-88139476D01*
X163785169Y-88191114D01*
X163798240Y-88260897D01*
X163771509Y-88326669D01*
X163731055Y-88360027D01*
X163718607Y-88366507D01*
X163714474Y-88369610D01*
X163714471Y-88369612D01*
X163690247Y-88387800D01*
X163539965Y-88500635D01*
X163385629Y-88662138D01*
X163259743Y-88846680D01*
X163257565Y-88851373D01*
X163257560Y-88851381D01*
X163236806Y-88896092D01*
X163189982Y-88949459D01*
X163121739Y-88969039D01*
X163053743Y-88948615D01*
X163028883Y-88927351D01*
X162955675Y-88846045D01*
X162955674Y-88846044D01*
X162951253Y-88841134D01*
X162796752Y-88728882D01*
X162790724Y-88726198D01*
X162790722Y-88726197D01*
X162628319Y-88653891D01*
X162628318Y-88653891D01*
X162622288Y-88651206D01*
X162528888Y-88631353D01*
X162441944Y-88612872D01*
X162441939Y-88612872D01*
X162435487Y-88611500D01*
X162244513Y-88611500D01*
X162238061Y-88612872D01*
X162238056Y-88612872D01*
X162151113Y-88631353D01*
X162057712Y-88651206D01*
X162051682Y-88653891D01*
X162051681Y-88653891D01*
X161889278Y-88726197D01*
X161889276Y-88726198D01*
X161883248Y-88728882D01*
X161728747Y-88841134D01*
X161724326Y-88846044D01*
X161724325Y-88846045D01*
X161697498Y-88875840D01*
X161600960Y-88983056D01*
X161505473Y-89148444D01*
X161446458Y-89330072D01*
X161426496Y-89520000D01*
X157800000Y-89520000D01*
X157800000Y-78230000D01*
X160446496Y-78230000D01*
X160466458Y-78419928D01*
X160525473Y-78601556D01*
X160620960Y-78766944D01*
X160748747Y-78908866D01*
X160903248Y-79021118D01*
X160909276Y-79023802D01*
X160909278Y-79023803D01*
X161071681Y-79096109D01*
X161077712Y-79098794D01*
X161171113Y-79118647D01*
X161258056Y-79137128D01*
X161258061Y-79137128D01*
X161264513Y-79138500D01*
X161455487Y-79138500D01*
X161461939Y-79137128D01*
X161461944Y-79137128D01*
X161548887Y-79118647D01*
X161642288Y-79098794D01*
X161648319Y-79096109D01*
X161810722Y-79023803D01*
X161810724Y-79023802D01*
X161816752Y-79021118D01*
X161971253Y-78908866D01*
X162099040Y-78766944D01*
X162194527Y-78601556D01*
X162253542Y-78419928D01*
X162273504Y-78230000D01*
X162253542Y-78040072D01*
X162194527Y-77858444D01*
X162099040Y-77693056D01*
X161971253Y-77551134D01*
X161816752Y-77438882D01*
X161810724Y-77436198D01*
X161810722Y-77436197D01*
X161648319Y-77363891D01*
X161648318Y-77363891D01*
X161642288Y-77361206D01*
X161548887Y-77341353D01*
X161461944Y-77322872D01*
X161461939Y-77322872D01*
X161455487Y-77321500D01*
X161264513Y-77321500D01*
X161258061Y-77322872D01*
X161258056Y-77322872D01*
X161171113Y-77341353D01*
X161077712Y-77361206D01*
X161071682Y-77363891D01*
X161071681Y-77363891D01*
X160909278Y-77436197D01*
X160909276Y-77436198D01*
X160903248Y-77438882D01*
X160748747Y-77551134D01*
X160620960Y-77693056D01*
X160525473Y-77858444D01*
X160466458Y-78040072D01*
X160446496Y-78230000D01*
X157800000Y-78230000D01*
X157800000Y-75093825D01*
X157820002Y-75025704D01*
X157873658Y-74979211D01*
X157899803Y-74970578D01*
X157903445Y-74969804D01*
X158002288Y-74948794D01*
X158008319Y-74946109D01*
X158170722Y-74873803D01*
X158170724Y-74873802D01*
X158176752Y-74871118D01*
X158331253Y-74758866D01*
X158459040Y-74616944D01*
X158554527Y-74451556D01*
X158613542Y-74269928D01*
X158633504Y-74080000D01*
X158613542Y-73890072D01*
X158554527Y-73708444D01*
X158459040Y-73543056D01*
X158331253Y-73401134D01*
X158176752Y-73288882D01*
X158170724Y-73286198D01*
X158170722Y-73286197D01*
X158008319Y-73213891D01*
X158008318Y-73213891D01*
X158002288Y-73211206D01*
X157899803Y-73189422D01*
X157837330Y-73155693D01*
X157803008Y-73093544D01*
X157800000Y-73066175D01*
X157800000Y-69738134D01*
X158796500Y-69738134D01*
X158803255Y-69800316D01*
X158854385Y-69936705D01*
X158941739Y-70053261D01*
X159058295Y-70140615D01*
X159194684Y-70191745D01*
X159256866Y-70198500D01*
X161053134Y-70198500D01*
X161115316Y-70191745D01*
X161251705Y-70140615D01*
X161368261Y-70053261D01*
X161455615Y-69936705D01*
X161477799Y-69877529D01*
X161499598Y-69819382D01*
X161542240Y-69762618D01*
X161608802Y-69737918D01*
X161678150Y-69753126D01*
X161712817Y-69781114D01*
X161741250Y-69813938D01*
X161913126Y-69956632D01*
X162106000Y-70069338D01*
X162314692Y-70149030D01*
X162319760Y-70150061D01*
X162319763Y-70150062D01*
X162427017Y-70171883D01*
X162533597Y-70193567D01*
X162538772Y-70193757D01*
X162538774Y-70193757D01*
X162751673Y-70201564D01*
X162751677Y-70201564D01*
X162756837Y-70201753D01*
X162761957Y-70201097D01*
X162761959Y-70201097D01*
X162973288Y-70174025D01*
X162973289Y-70174025D01*
X162978416Y-70173368D01*
X162983366Y-70171883D01*
X163187429Y-70110661D01*
X163187434Y-70110659D01*
X163192384Y-70109174D01*
X163392994Y-70010896D01*
X163574860Y-69881173D01*
X163595051Y-69861053D01*
X163718616Y-69737918D01*
X163733096Y-69723489D01*
X163863453Y-69542077D01*
X163962430Y-69341811D01*
X163969385Y-69318918D01*
X165681917Y-69318918D01*
X165682334Y-69326156D01*
X165697682Y-69592320D01*
X165750405Y-69861053D01*
X165751792Y-69865103D01*
X165751793Y-69865108D01*
X165821717Y-70069338D01*
X165839112Y-70120144D01*
X165868238Y-70178054D01*
X165937837Y-70316437D01*
X165962160Y-70364799D01*
X165964586Y-70368328D01*
X165964589Y-70368334D01*
X166114843Y-70586953D01*
X166117274Y-70590490D01*
X166301582Y-70793043D01*
X166511675Y-70968707D01*
X166515316Y-70970991D01*
X166740024Y-71111951D01*
X166740028Y-71111953D01*
X166743664Y-71114234D01*
X166811544Y-71144883D01*
X166989345Y-71225164D01*
X166989349Y-71225166D01*
X166993257Y-71226930D01*
X166997377Y-71228150D01*
X166997376Y-71228150D01*
X167251723Y-71303491D01*
X167251727Y-71303492D01*
X167255836Y-71304709D01*
X167260070Y-71305357D01*
X167260075Y-71305358D01*
X167522298Y-71345483D01*
X167522300Y-71345483D01*
X167526540Y-71346132D01*
X167665912Y-71348322D01*
X167796071Y-71350367D01*
X167796077Y-71350367D01*
X167800362Y-71350434D01*
X168072235Y-71317534D01*
X168337127Y-71248041D01*
X168341087Y-71246401D01*
X168341092Y-71246399D01*
X168463631Y-71195641D01*
X168590136Y-71143241D01*
X168826582Y-71005073D01*
X169042089Y-70836094D01*
X169083809Y-70793043D01*
X169229686Y-70642509D01*
X169232669Y-70639431D01*
X169235202Y-70635983D01*
X169235206Y-70635978D01*
X169392257Y-70422178D01*
X169394795Y-70418723D01*
X169422154Y-70368334D01*
X169523418Y-70181830D01*
X169523419Y-70181828D01*
X169525468Y-70178054D01*
X169622269Y-69921877D01*
X169668667Y-69719292D01*
X169682449Y-69659117D01*
X169682450Y-69659113D01*
X169683407Y-69654933D01*
X169691910Y-69559665D01*
X169707531Y-69384627D01*
X169707531Y-69384625D01*
X169707751Y-69382161D01*
X169708193Y-69340000D01*
X169706465Y-69314648D01*
X169689859Y-69071055D01*
X169689858Y-69071049D01*
X169689567Y-69066778D01*
X169634032Y-68798612D01*
X169542617Y-68540465D01*
X169417013Y-68297112D01*
X169407040Y-68282921D01*
X169262008Y-68076562D01*
X169259545Y-68073057D01*
X169133148Y-67937037D01*
X169076046Y-67875588D01*
X169076043Y-67875585D01*
X169073125Y-67872445D01*
X169069810Y-67869731D01*
X169069806Y-67869728D01*
X168939069Y-67762721D01*
X168861205Y-67698990D01*
X168627704Y-67555901D01*
X168623768Y-67554173D01*
X168380873Y-67447549D01*
X168380869Y-67447548D01*
X168376945Y-67445825D01*
X168113566Y-67370800D01*
X168109324Y-67370196D01*
X168109318Y-67370195D01*
X167908834Y-67341662D01*
X167842443Y-67332213D01*
X167698589Y-67331460D01*
X167572877Y-67330802D01*
X167572871Y-67330802D01*
X167568591Y-67330780D01*
X167564347Y-67331339D01*
X167564343Y-67331339D01*
X167445302Y-67347011D01*
X167297078Y-67366525D01*
X167292938Y-67367658D01*
X167292936Y-67367658D01*
X167220008Y-67387609D01*
X167032928Y-67438788D01*
X167028980Y-67440472D01*
X166784982Y-67544546D01*
X166784978Y-67544548D01*
X166781030Y-67546232D01*
X166715005Y-67585747D01*
X166549725Y-67684664D01*
X166549721Y-67684667D01*
X166546043Y-67686868D01*
X166332318Y-67858094D01*
X166315717Y-67875588D01*
X166189800Y-68008277D01*
X166143808Y-68056742D01*
X165984002Y-68279136D01*
X165855857Y-68521161D01*
X165854385Y-68525184D01*
X165854383Y-68525188D01*
X165811872Y-68641355D01*
X165761743Y-68778337D01*
X165703404Y-69045907D01*
X165681917Y-69318918D01*
X163969385Y-69318918D01*
X164027370Y-69128069D01*
X164056529Y-68906590D01*
X164058156Y-68840000D01*
X164039852Y-68617361D01*
X163985431Y-68400702D01*
X163896354Y-68195840D01*
X163808619Y-68060222D01*
X163777822Y-68012617D01*
X163777820Y-68012614D01*
X163775014Y-68008277D01*
X163624670Y-67843051D01*
X163620619Y-67839852D01*
X163620615Y-67839848D01*
X163453414Y-67707800D01*
X163453410Y-67707798D01*
X163449359Y-67704598D01*
X163422100Y-67689550D01*
X163397136Y-67675769D01*
X163253789Y-67596638D01*
X163248920Y-67594914D01*
X163248916Y-67594912D01*
X163048087Y-67523795D01*
X163048083Y-67523794D01*
X163043212Y-67522069D01*
X163038119Y-67521162D01*
X163038116Y-67521161D01*
X162828373Y-67483800D01*
X162828367Y-67483799D01*
X162823284Y-67482894D01*
X162749452Y-67481992D01*
X162605081Y-67480228D01*
X162605079Y-67480228D01*
X162599911Y-67480165D01*
X162379091Y-67513955D01*
X162166756Y-67583357D01*
X161968607Y-67686507D01*
X161964474Y-67689610D01*
X161964471Y-67689612D01*
X161794100Y-67817530D01*
X161789965Y-67820635D01*
X161733537Y-67879684D01*
X161709283Y-67905064D01*
X161647759Y-67940494D01*
X161576846Y-67937037D01*
X161519060Y-67895791D01*
X161500207Y-67862243D01*
X161458767Y-67751703D01*
X161455615Y-67743295D01*
X161368261Y-67626739D01*
X161251705Y-67539385D01*
X161115316Y-67488255D01*
X161053134Y-67481500D01*
X159256866Y-67481500D01*
X159194684Y-67488255D01*
X159058295Y-67539385D01*
X158941739Y-67626739D01*
X158854385Y-67743295D01*
X158803255Y-67879684D01*
X158796500Y-67941866D01*
X158796500Y-69738134D01*
X157800000Y-69738134D01*
X157800000Y-66974500D01*
X157820002Y-66906379D01*
X157873658Y-66859886D01*
X157926000Y-66848500D01*
X170060500Y-66848500D01*
X170128621Y-66868502D01*
G37*
%TD.AperFunction*%
%TD*%
%TA.AperFunction,Conductor*%
%TO.N,GNDD*%
G36*
X136911794Y-105440692D02*
G01*
X136970778Y-105480206D01*
X136999036Y-105545336D01*
X137000000Y-105560890D01*
X137000000Y-110840000D01*
X138422519Y-110840748D01*
X144190566Y-110843783D01*
X144258676Y-110863821D01*
X144305141Y-110917501D01*
X144316500Y-110969783D01*
X144316500Y-112841692D01*
X144296498Y-112909813D01*
X144248683Y-112953453D01*
X144223607Y-112966507D01*
X144219474Y-112969610D01*
X144219471Y-112969612D01*
X144087935Y-113068372D01*
X144044965Y-113100635D01*
X143890629Y-113262138D01*
X143783201Y-113419621D01*
X143728293Y-113464621D01*
X143657768Y-113472792D01*
X143594021Y-113441538D01*
X143573324Y-113417054D01*
X143492822Y-113292617D01*
X143492820Y-113292614D01*
X143490014Y-113288277D01*
X143339670Y-113123051D01*
X143335619Y-113119852D01*
X143335615Y-113119848D01*
X143168414Y-112987800D01*
X143168410Y-112987798D01*
X143164359Y-112984598D01*
X143159831Y-112982098D01*
X143084868Y-112940717D01*
X142968789Y-112876638D01*
X142963920Y-112874914D01*
X142963916Y-112874912D01*
X142763087Y-112803795D01*
X142763083Y-112803794D01*
X142758212Y-112802069D01*
X142753119Y-112801162D01*
X142753116Y-112801161D01*
X142543373Y-112763800D01*
X142543367Y-112763799D01*
X142538284Y-112762894D01*
X142464452Y-112761992D01*
X142320081Y-112760228D01*
X142320079Y-112760228D01*
X142314911Y-112760165D01*
X142094091Y-112793955D01*
X141881756Y-112863357D01*
X141804853Y-112903390D01*
X141707975Y-112953822D01*
X141683607Y-112966507D01*
X141679474Y-112969610D01*
X141679471Y-112969612D01*
X141547935Y-113068372D01*
X141504965Y-113100635D01*
X141350629Y-113262138D01*
X141243201Y-113419621D01*
X141188293Y-113464621D01*
X141117768Y-113472792D01*
X141054021Y-113441538D01*
X141033324Y-113417054D01*
X140952822Y-113292617D01*
X140952820Y-113292614D01*
X140950014Y-113288277D01*
X140799670Y-113123051D01*
X140795619Y-113119852D01*
X140795615Y-113119848D01*
X140628414Y-112987800D01*
X140628410Y-112987798D01*
X140624359Y-112984598D01*
X140619831Y-112982098D01*
X140544868Y-112940717D01*
X140428789Y-112876638D01*
X140423920Y-112874914D01*
X140423916Y-112874912D01*
X140223087Y-112803795D01*
X140223083Y-112803794D01*
X140218212Y-112802069D01*
X140213119Y-112801162D01*
X140213116Y-112801161D01*
X140003373Y-112763800D01*
X140003367Y-112763799D01*
X139998284Y-112762894D01*
X139924452Y-112761992D01*
X139780081Y-112760228D01*
X139780079Y-112760228D01*
X139774911Y-112760165D01*
X139554091Y-112793955D01*
X139341756Y-112863357D01*
X139264853Y-112903390D01*
X139167975Y-112953822D01*
X139143607Y-112966507D01*
X139139474Y-112969610D01*
X139139471Y-112969612D01*
X139007935Y-113068372D01*
X138964965Y-113100635D01*
X138810629Y-113262138D01*
X138703201Y-113419621D01*
X138648293Y-113464621D01*
X138577768Y-113472792D01*
X138514021Y-113441538D01*
X138493324Y-113417054D01*
X138412822Y-113292617D01*
X138412820Y-113292614D01*
X138410014Y-113288277D01*
X138259670Y-113123051D01*
X138255619Y-113119852D01*
X138255615Y-113119848D01*
X138088414Y-112987800D01*
X138088410Y-112987798D01*
X138084359Y-112984598D01*
X138079831Y-112982098D01*
X138004868Y-112940717D01*
X137888789Y-112876638D01*
X137883920Y-112874914D01*
X137883916Y-112874912D01*
X137683087Y-112803795D01*
X137683083Y-112803794D01*
X137678212Y-112802069D01*
X137673119Y-112801162D01*
X137673116Y-112801161D01*
X137463373Y-112763800D01*
X137463367Y-112763799D01*
X137458284Y-112762894D01*
X137384452Y-112761992D01*
X137240081Y-112760228D01*
X137240079Y-112760228D01*
X137234911Y-112760165D01*
X137014091Y-112793955D01*
X136801756Y-112863357D01*
X136724853Y-112903390D01*
X136627975Y-112953822D01*
X136603607Y-112966507D01*
X136599474Y-112969610D01*
X136599471Y-112969612D01*
X136467935Y-113068372D01*
X136424965Y-113100635D01*
X136270629Y-113262138D01*
X136163201Y-113419621D01*
X136108293Y-113464621D01*
X136037768Y-113472792D01*
X135974021Y-113441538D01*
X135953324Y-113417054D01*
X135872822Y-113292617D01*
X135872820Y-113292614D01*
X135870014Y-113288277D01*
X135719670Y-113123051D01*
X135715619Y-113119852D01*
X135715615Y-113119848D01*
X135548414Y-112987800D01*
X135548410Y-112987798D01*
X135544359Y-112984598D01*
X135539831Y-112982098D01*
X135464868Y-112940717D01*
X135348789Y-112876638D01*
X135343920Y-112874914D01*
X135343916Y-112874912D01*
X135143087Y-112803795D01*
X135143083Y-112803794D01*
X135138212Y-112802069D01*
X135133119Y-112801162D01*
X135133116Y-112801161D01*
X134923373Y-112763800D01*
X134923367Y-112763799D01*
X134918284Y-112762894D01*
X134844452Y-112761992D01*
X134700081Y-112760228D01*
X134700079Y-112760228D01*
X134694911Y-112760165D01*
X134474091Y-112793955D01*
X134261756Y-112863357D01*
X134184853Y-112903390D01*
X134087975Y-112953822D01*
X134063607Y-112966507D01*
X134059474Y-112969610D01*
X134059471Y-112969612D01*
X133927935Y-113068372D01*
X133884965Y-113100635D01*
X133730629Y-113262138D01*
X133604743Y-113446680D01*
X133510688Y-113649305D01*
X133450989Y-113864570D01*
X133427251Y-114086695D01*
X133427548Y-114091848D01*
X133427548Y-114091851D01*
X133433011Y-114186590D01*
X133440110Y-114309715D01*
X133441247Y-114314761D01*
X133441248Y-114314767D01*
X133461119Y-114402939D01*
X133489222Y-114527639D01*
X133573266Y-114734616D01*
X133624019Y-114817438D01*
X133687291Y-114920688D01*
X133689987Y-114925088D01*
X133836250Y-115093938D01*
X133906772Y-115152486D01*
X133946408Y-115211389D01*
X133947906Y-115282370D01*
X133910792Y-115342893D01*
X133879739Y-115363532D01*
X133860040Y-115372760D01*
X133722193Y-115458063D01*
X133710792Y-115467099D01*
X133596261Y-115581829D01*
X133587249Y-115593240D01*
X133502184Y-115731243D01*
X133496037Y-115744424D01*
X133444862Y-115898710D01*
X133441995Y-115912086D01*
X133432328Y-116006438D01*
X133432000Y-116012855D01*
X133432000Y-116387885D01*
X133436475Y-116403124D01*
X133437865Y-116404329D01*
X133445548Y-116406000D01*
X134918000Y-116406000D01*
X134986121Y-116426002D01*
X135032614Y-116479658D01*
X135044000Y-116532000D01*
X135044000Y-117999884D01*
X135048475Y-118015123D01*
X135049865Y-118016328D01*
X135057548Y-118017999D01*
X135437095Y-118017999D01*
X135443614Y-118017662D01*
X135539206Y-118007743D01*
X135552600Y-118004851D01*
X135706784Y-117953412D01*
X135719962Y-117947239D01*
X135857807Y-117861937D01*
X135869208Y-117852901D01*
X135983739Y-117738171D01*
X135992751Y-117726760D01*
X136077818Y-117588755D01*
X136086400Y-117570350D01*
X136133316Y-117517065D01*
X136201593Y-117497603D01*
X136269554Y-117518144D01*
X136295832Y-117541101D01*
X136321168Y-117570350D01*
X136372866Y-117630032D01*
X136372869Y-117630035D01*
X136376250Y-117633938D01*
X136548126Y-117776632D01*
X136741000Y-117889338D01*
X136745825Y-117891180D01*
X136745826Y-117891181D01*
X136815244Y-117917689D01*
X136949692Y-117969030D01*
X136954760Y-117970061D01*
X136954763Y-117970062D01*
X137059604Y-117991392D01*
X137168597Y-118013567D01*
X137173772Y-118013757D01*
X137173774Y-118013757D01*
X137386673Y-118021564D01*
X137386677Y-118021564D01*
X137391837Y-118021753D01*
X137396957Y-118021097D01*
X137396959Y-118021097D01*
X137608288Y-117994025D01*
X137608289Y-117994025D01*
X137613416Y-117993368D01*
X137618366Y-117991883D01*
X137822429Y-117930661D01*
X137822434Y-117930659D01*
X137827384Y-117929174D01*
X138027994Y-117830896D01*
X138209860Y-117701173D01*
X138368096Y-117543489D01*
X138387084Y-117517065D01*
X138498453Y-117362077D01*
X138499776Y-117363028D01*
X138546645Y-117319857D01*
X138616580Y-117307625D01*
X138682026Y-117335144D01*
X138709875Y-117366994D01*
X138769987Y-117465088D01*
X138916250Y-117633938D01*
X139088126Y-117776632D01*
X139281000Y-117889338D01*
X139285825Y-117891180D01*
X139285826Y-117891181D01*
X139355244Y-117917689D01*
X139489692Y-117969030D01*
X139494760Y-117970061D01*
X139494763Y-117970062D01*
X139599604Y-117991392D01*
X139708597Y-118013567D01*
X139713772Y-118013757D01*
X139713774Y-118013757D01*
X139926673Y-118021564D01*
X139926677Y-118021564D01*
X139931837Y-118021753D01*
X139936957Y-118021097D01*
X139936959Y-118021097D01*
X140148288Y-117994025D01*
X140148289Y-117994025D01*
X140153416Y-117993368D01*
X140158366Y-117991883D01*
X140362429Y-117930661D01*
X140362434Y-117930659D01*
X140367384Y-117929174D01*
X140567994Y-117830896D01*
X140749860Y-117701173D01*
X140908096Y-117543489D01*
X140927084Y-117517065D01*
X141038453Y-117362077D01*
X141039776Y-117363028D01*
X141086645Y-117319857D01*
X141156580Y-117307625D01*
X141222026Y-117335144D01*
X141249875Y-117366994D01*
X141309987Y-117465088D01*
X141456250Y-117633938D01*
X141628126Y-117776632D01*
X141821000Y-117889338D01*
X141825825Y-117891180D01*
X141825826Y-117891181D01*
X141895244Y-117917689D01*
X142029692Y-117969030D01*
X142034760Y-117970061D01*
X142034763Y-117970062D01*
X142139604Y-117991392D01*
X142248597Y-118013567D01*
X142253772Y-118013757D01*
X142253774Y-118013757D01*
X142466673Y-118021564D01*
X142466677Y-118021564D01*
X142471837Y-118021753D01*
X142476957Y-118021097D01*
X142476959Y-118021097D01*
X142688288Y-117994025D01*
X142688289Y-117994025D01*
X142693416Y-117993368D01*
X142698366Y-117991883D01*
X142902429Y-117930661D01*
X142902434Y-117930659D01*
X142907384Y-117929174D01*
X143107994Y-117830896D01*
X143289860Y-117701173D01*
X143448096Y-117543489D01*
X143467084Y-117517065D01*
X143578453Y-117362077D01*
X143579776Y-117363028D01*
X143626645Y-117319857D01*
X143696580Y-117307625D01*
X143762026Y-117335144D01*
X143789875Y-117366994D01*
X143849987Y-117465088D01*
X143996250Y-117633938D01*
X144168126Y-117776632D01*
X144361000Y-117889338D01*
X144365825Y-117891180D01*
X144365826Y-117891181D01*
X144435244Y-117917689D01*
X144569692Y-117969030D01*
X144574760Y-117970061D01*
X144574763Y-117970062D01*
X144679604Y-117991392D01*
X144788597Y-118013567D01*
X144793772Y-118013757D01*
X144793774Y-118013757D01*
X145006673Y-118021564D01*
X145006677Y-118021564D01*
X145011837Y-118021753D01*
X145016957Y-118021097D01*
X145016959Y-118021097D01*
X145228288Y-117994025D01*
X145228289Y-117994025D01*
X145233416Y-117993368D01*
X145238366Y-117991883D01*
X145442429Y-117930661D01*
X145442434Y-117930659D01*
X145447384Y-117929174D01*
X145647994Y-117830896D01*
X145829860Y-117701173D01*
X145988096Y-117543489D01*
X146007084Y-117517065D01*
X146118453Y-117362077D01*
X146119776Y-117363028D01*
X146166645Y-117319857D01*
X146236580Y-117307625D01*
X146302026Y-117335144D01*
X146329875Y-117366994D01*
X146389987Y-117465088D01*
X146536250Y-117633938D01*
X146708126Y-117776632D01*
X146901000Y-117889338D01*
X146905825Y-117891180D01*
X146905826Y-117891181D01*
X146975244Y-117917689D01*
X147109692Y-117969030D01*
X147114760Y-117970061D01*
X147114763Y-117970062D01*
X147219604Y-117991392D01*
X147328597Y-118013567D01*
X147333772Y-118013757D01*
X147333774Y-118013757D01*
X147546673Y-118021564D01*
X147546677Y-118021564D01*
X147551837Y-118021753D01*
X147556957Y-118021097D01*
X147556959Y-118021097D01*
X147768288Y-117994025D01*
X147768289Y-117994025D01*
X147773416Y-117993368D01*
X147778366Y-117991883D01*
X147982429Y-117930661D01*
X147982434Y-117930659D01*
X147987384Y-117929174D01*
X148187994Y-117830896D01*
X148252544Y-117784853D01*
X149269977Y-117784853D01*
X149275258Y-117791907D01*
X149436756Y-117886279D01*
X149446042Y-117890729D01*
X149645001Y-117966703D01*
X149654899Y-117969579D01*
X149863595Y-118012038D01*
X149873823Y-118013257D01*
X150086650Y-118021062D01*
X150096936Y-118020595D01*
X150308185Y-117993534D01*
X150318262Y-117991392D01*
X150522255Y-117930191D01*
X150531842Y-117926433D01*
X150723098Y-117832738D01*
X150731944Y-117827465D01*
X150779247Y-117793723D01*
X150787648Y-117783023D01*
X150780660Y-117769870D01*
X150042812Y-117032022D01*
X150028868Y-117024408D01*
X150027035Y-117024539D01*
X150020420Y-117028790D01*
X149276737Y-117772473D01*
X149269977Y-117784853D01*
X148252544Y-117784853D01*
X148369860Y-117701173D01*
X148528096Y-117543489D01*
X148547084Y-117517065D01*
X148658453Y-117362077D01*
X148659640Y-117362930D01*
X148706960Y-117319362D01*
X148776897Y-117307145D01*
X148842338Y-117334678D01*
X148870166Y-117366512D01*
X148896459Y-117409419D01*
X148906916Y-117418880D01*
X148915694Y-117415096D01*
X149657978Y-116672812D01*
X149665592Y-116658868D01*
X149665461Y-116657035D01*
X149661210Y-116650420D01*
X148919849Y-115909059D01*
X148908313Y-115902759D01*
X148896031Y-115912382D01*
X148863499Y-115960072D01*
X148808587Y-116005075D01*
X148738063Y-116013246D01*
X148674316Y-115981992D01*
X148653618Y-115957508D01*
X148572822Y-115832617D01*
X148572820Y-115832614D01*
X148570014Y-115828277D01*
X148419670Y-115663051D01*
X148415619Y-115659852D01*
X148415615Y-115659848D01*
X148248414Y-115527800D01*
X148248410Y-115527798D01*
X148244359Y-115524598D01*
X148203053Y-115501796D01*
X148153084Y-115451364D01*
X148138312Y-115381921D01*
X148163428Y-115315516D01*
X148190780Y-115288909D01*
X148244866Y-115250330D01*
X148369860Y-115161173D01*
X148378578Y-115152486D01*
X148524435Y-115007137D01*
X148528096Y-115003489D01*
X148587594Y-114920689D01*
X148658453Y-114822077D01*
X148659776Y-114823028D01*
X148706645Y-114779857D01*
X148776580Y-114767625D01*
X148842026Y-114795144D01*
X148869875Y-114826994D01*
X148929987Y-114925088D01*
X149076250Y-115093938D01*
X149248126Y-115236632D01*
X149321445Y-115279476D01*
X149321955Y-115279774D01*
X149370679Y-115331412D01*
X149383750Y-115401195D01*
X149357019Y-115466967D01*
X149316562Y-115500327D01*
X149308460Y-115504544D01*
X149299734Y-115510039D01*
X149279677Y-115525099D01*
X149271223Y-115536427D01*
X149277968Y-115548758D01*
X150017188Y-116287978D01*
X150031132Y-116295592D01*
X150032965Y-116295461D01*
X150039580Y-116291210D01*
X150783389Y-115547401D01*
X150790410Y-115534544D01*
X150783611Y-115525213D01*
X150779559Y-115522521D01*
X150742602Y-115502120D01*
X150692631Y-115451687D01*
X150677859Y-115382245D01*
X150702975Y-115315839D01*
X150730327Y-115289232D01*
X150784866Y-115250330D01*
X150909860Y-115161173D01*
X150918578Y-115152486D01*
X151064435Y-115007137D01*
X151068096Y-115003489D01*
X151127594Y-114920689D01*
X151198453Y-114822077D01*
X151199776Y-114823028D01*
X151246645Y-114779857D01*
X151316580Y-114767625D01*
X151382026Y-114795144D01*
X151409875Y-114826994D01*
X151469987Y-114925088D01*
X151473367Y-114928990D01*
X151612866Y-115090032D01*
X151612869Y-115090035D01*
X151616250Y-115093938D01*
X151620224Y-115097237D01*
X151623658Y-115100600D01*
X151658334Y-115162553D01*
X151661500Y-115190623D01*
X151661500Y-115593737D01*
X151641498Y-115661858D01*
X151626594Y-115680788D01*
X151510629Y-115802138D01*
X151507720Y-115806403D01*
X151507714Y-115806411D01*
X151472458Y-115858094D01*
X151403204Y-115959618D01*
X151402898Y-115960066D01*
X151347987Y-116005069D01*
X151277462Y-116013240D01*
X151213715Y-115981986D01*
X151193017Y-115957501D01*
X151163062Y-115911197D01*
X151152377Y-115901995D01*
X151142812Y-115906398D01*
X150402022Y-116647188D01*
X150394408Y-116661132D01*
X150394539Y-116662965D01*
X150398790Y-116669580D01*
X151140474Y-117411264D01*
X151152484Y-117417823D01*
X151164223Y-117408855D01*
X151198022Y-117361819D01*
X151199277Y-117362721D01*
X151246391Y-117319355D01*
X151316330Y-117307148D01*
X151381767Y-117334691D01*
X151409580Y-117366513D01*
X151467287Y-117460683D01*
X151467291Y-117460688D01*
X151469987Y-117465088D01*
X151616250Y-117633938D01*
X151788126Y-117776632D01*
X151981000Y-117889338D01*
X151985825Y-117891180D01*
X151985826Y-117891181D01*
X152055244Y-117917689D01*
X152189692Y-117969030D01*
X152194760Y-117970061D01*
X152194763Y-117970062D01*
X152299604Y-117991392D01*
X152408597Y-118013567D01*
X152413772Y-118013757D01*
X152413774Y-118013757D01*
X152626673Y-118021564D01*
X152626677Y-118021564D01*
X152631837Y-118021753D01*
X152636957Y-118021097D01*
X152636959Y-118021097D01*
X152848288Y-117994025D01*
X152848289Y-117994025D01*
X152853416Y-117993368D01*
X152858366Y-117991883D01*
X153062429Y-117930661D01*
X153062434Y-117930659D01*
X153067384Y-117929174D01*
X153267994Y-117830896D01*
X153449860Y-117701173D01*
X153608096Y-117543489D01*
X153627084Y-117517065D01*
X153735435Y-117366277D01*
X153738453Y-117362077D01*
X153748137Y-117342484D01*
X153835136Y-117166453D01*
X153835137Y-117166451D01*
X153837430Y-117161811D01*
X153902370Y-116948069D01*
X153931529Y-116726590D01*
X153933156Y-116660000D01*
X153914852Y-116437361D01*
X153860431Y-116220702D01*
X153771354Y-116015840D01*
X153704424Y-115912382D01*
X153652822Y-115832617D01*
X153652820Y-115832614D01*
X153650014Y-115828277D01*
X153646532Y-115824450D01*
X153511307Y-115675839D01*
X153480255Y-115611993D01*
X153478500Y-115591039D01*
X153478500Y-115184953D01*
X153498502Y-115116832D01*
X153515560Y-115095702D01*
X153604435Y-115007137D01*
X153608096Y-115003489D01*
X153667594Y-114920689D01*
X153735435Y-114826277D01*
X153738453Y-114822077D01*
X153759320Y-114779857D01*
X153835136Y-114626453D01*
X153835137Y-114626451D01*
X153837430Y-114621811D01*
X153902370Y-114408069D01*
X153931529Y-114186590D01*
X153933156Y-114120000D01*
X153914852Y-113897361D01*
X153860431Y-113680702D01*
X153771354Y-113475840D01*
X153650014Y-113288277D01*
X153499670Y-113123051D01*
X153495619Y-113119852D01*
X153495615Y-113119848D01*
X153328414Y-112987800D01*
X153328410Y-112987798D01*
X153324359Y-112984598D01*
X153319831Y-112982098D01*
X153244868Y-112940717D01*
X153128789Y-112876638D01*
X153123920Y-112874914D01*
X153123916Y-112874912D01*
X152923087Y-112803795D01*
X152923083Y-112803794D01*
X152918212Y-112802069D01*
X152913119Y-112801162D01*
X152913116Y-112801161D01*
X152703373Y-112763800D01*
X152703367Y-112763799D01*
X152698284Y-112762894D01*
X152624452Y-112761992D01*
X152480081Y-112760228D01*
X152480079Y-112760228D01*
X152474911Y-112760165D01*
X152254091Y-112793955D01*
X152041756Y-112863357D01*
X151964853Y-112903390D01*
X151867975Y-112953822D01*
X151843607Y-112966507D01*
X151839474Y-112969610D01*
X151839471Y-112969612D01*
X151707935Y-113068372D01*
X151664965Y-113100635D01*
X151510629Y-113262138D01*
X151403201Y-113419621D01*
X151348293Y-113464621D01*
X151277768Y-113472792D01*
X151214021Y-113441538D01*
X151193324Y-113417054D01*
X151112822Y-113292617D01*
X151112820Y-113292614D01*
X151110014Y-113288277D01*
X150959670Y-113123051D01*
X150955619Y-113119852D01*
X150955615Y-113119848D01*
X150788414Y-112987800D01*
X150788410Y-112987798D01*
X150784359Y-112984598D01*
X150779831Y-112982098D01*
X150704868Y-112940717D01*
X150588789Y-112876638D01*
X150583920Y-112874914D01*
X150583916Y-112874912D01*
X150383087Y-112803795D01*
X150383083Y-112803794D01*
X150378212Y-112802069D01*
X150373119Y-112801162D01*
X150373116Y-112801161D01*
X150163373Y-112763800D01*
X150163367Y-112763799D01*
X150158284Y-112762894D01*
X150084452Y-112761992D01*
X149940081Y-112760228D01*
X149940079Y-112760228D01*
X149934911Y-112760165D01*
X149714091Y-112793955D01*
X149501756Y-112863357D01*
X149424853Y-112903390D01*
X149327975Y-112953822D01*
X149303607Y-112966507D01*
X149299474Y-112969610D01*
X149299471Y-112969612D01*
X149167935Y-113068372D01*
X149124965Y-113100635D01*
X148970629Y-113262138D01*
X148863201Y-113419621D01*
X148808293Y-113464621D01*
X148737768Y-113472792D01*
X148674021Y-113441538D01*
X148653324Y-113417054D01*
X148572822Y-113292617D01*
X148572820Y-113292614D01*
X148570014Y-113288277D01*
X148419670Y-113123051D01*
X148415619Y-113119852D01*
X148415615Y-113119848D01*
X148248414Y-112987800D01*
X148248410Y-112987798D01*
X148244359Y-112984598D01*
X148239831Y-112982098D01*
X148164868Y-112940717D01*
X148048789Y-112876638D01*
X148043920Y-112874914D01*
X148043916Y-112874912D01*
X147843087Y-112803795D01*
X147843083Y-112803794D01*
X147838212Y-112802069D01*
X147833119Y-112801162D01*
X147833116Y-112801161D01*
X147623373Y-112763800D01*
X147623367Y-112763799D01*
X147618284Y-112762894D01*
X147544452Y-112761992D01*
X147400081Y-112760228D01*
X147400079Y-112760228D01*
X147394911Y-112760165D01*
X147174091Y-112793955D01*
X146961756Y-112863357D01*
X146884853Y-112903390D01*
X146787975Y-112953822D01*
X146763607Y-112966507D01*
X146759474Y-112969610D01*
X146759471Y-112969612D01*
X146627935Y-113068372D01*
X146584965Y-113100635D01*
X146430629Y-113262138D01*
X146323201Y-113419621D01*
X146268293Y-113464621D01*
X146197768Y-113472792D01*
X146134021Y-113441538D01*
X146113324Y-113417054D01*
X146032822Y-113292617D01*
X146032820Y-113292614D01*
X146030014Y-113288277D01*
X145879670Y-113123051D01*
X145875619Y-113119852D01*
X145875615Y-113119848D01*
X145708414Y-112987800D01*
X145708410Y-112987798D01*
X145704359Y-112984598D01*
X145699835Y-112982101D01*
X145699831Y-112982098D01*
X145648608Y-112953822D01*
X145598636Y-112903390D01*
X145583500Y-112843513D01*
X145583500Y-110970581D01*
X145603502Y-110902460D01*
X145657158Y-110855967D01*
X145709563Y-110844582D01*
X152257127Y-110848026D01*
X155883933Y-110849934D01*
X155952044Y-110869972D01*
X155998508Y-110923652D01*
X156009867Y-110976067D01*
X156007783Y-112953822D01*
X156001525Y-118893365D01*
X156001475Y-118940633D01*
X155981401Y-119008732D01*
X155927696Y-119055169D01*
X155875475Y-119066500D01*
X124354595Y-119066500D01*
X124286474Y-119046498D01*
X124265500Y-119029595D01*
X123997122Y-118761217D01*
X123963096Y-118698905D01*
X123960907Y-118685292D01*
X123944232Y-118526635D01*
X123944232Y-118526633D01*
X123943542Y-118520072D01*
X123884527Y-118338444D01*
X123789040Y-118173056D01*
X123661253Y-118031134D01*
X123545782Y-117947239D01*
X123512094Y-117922763D01*
X123512093Y-117922762D01*
X123506752Y-117918882D01*
X123500724Y-117916198D01*
X123500722Y-117916197D01*
X123338319Y-117843891D01*
X123338318Y-117843891D01*
X123332288Y-117841206D01*
X123238888Y-117821353D01*
X123151944Y-117802872D01*
X123151939Y-117802872D01*
X123145487Y-117801500D01*
X122954513Y-117801500D01*
X122948061Y-117802872D01*
X122948056Y-117802872D01*
X122861112Y-117821353D01*
X122767712Y-117841206D01*
X122761682Y-117843891D01*
X122761681Y-117843891D01*
X122599278Y-117916197D01*
X122599276Y-117916198D01*
X122593248Y-117918882D01*
X122587907Y-117922762D01*
X122587906Y-117922763D01*
X122554218Y-117947239D01*
X122438747Y-118031134D01*
X122310960Y-118173056D01*
X122215473Y-118338444D01*
X122156458Y-118520072D01*
X122155768Y-118526633D01*
X122155768Y-118526635D01*
X122139093Y-118685292D01*
X122136496Y-118710000D01*
X122156458Y-118899928D01*
X122215473Y-119081556D01*
X122218776Y-119087278D01*
X122218777Y-119087279D01*
X122234340Y-119114234D01*
X122310960Y-119246944D01*
X122315378Y-119251851D01*
X122315379Y-119251852D01*
X122403678Y-119349918D01*
X122438747Y-119388866D01*
X122593248Y-119501118D01*
X122599276Y-119503802D01*
X122599278Y-119503803D01*
X122761681Y-119576109D01*
X122767712Y-119578794D01*
X122774173Y-119580167D01*
X122774178Y-119580169D01*
X122783985Y-119582254D01*
X122846459Y-119615982D01*
X122880780Y-119678132D01*
X122876052Y-119748971D01*
X122833776Y-119806008D01*
X122767374Y-119831135D01*
X122757788Y-119831500D01*
X117329500Y-119831500D01*
X117261379Y-119811498D01*
X117214886Y-119757842D01*
X117203500Y-119705500D01*
X117203500Y-117318918D01*
X117681917Y-117318918D01*
X117682334Y-117326156D01*
X117697682Y-117592320D01*
X117750405Y-117861053D01*
X117751792Y-117865103D01*
X117751793Y-117865108D01*
X117837723Y-118116088D01*
X117839112Y-118120144D01*
X117868238Y-118178054D01*
X117946027Y-118332721D01*
X117962160Y-118364799D01*
X117964586Y-118368328D01*
X117964589Y-118368334D01*
X118064562Y-118513794D01*
X118117274Y-118590490D01*
X118301582Y-118793043D01*
X118511675Y-118968707D01*
X118515316Y-118970991D01*
X118740024Y-119111951D01*
X118740028Y-119111953D01*
X118743664Y-119114234D01*
X118811544Y-119144883D01*
X118989345Y-119225164D01*
X118989349Y-119225166D01*
X118993257Y-119226930D01*
X118997377Y-119228150D01*
X118997376Y-119228150D01*
X119251723Y-119303491D01*
X119251727Y-119303492D01*
X119255836Y-119304709D01*
X119260070Y-119305357D01*
X119260075Y-119305358D01*
X119522298Y-119345483D01*
X119522300Y-119345483D01*
X119526540Y-119346132D01*
X119665912Y-119348322D01*
X119796071Y-119350367D01*
X119796077Y-119350367D01*
X119800362Y-119350434D01*
X120072235Y-119317534D01*
X120337127Y-119248041D01*
X120341087Y-119246401D01*
X120341092Y-119246399D01*
X120493150Y-119183414D01*
X120590136Y-119143241D01*
X120784618Y-119029595D01*
X120822879Y-119007237D01*
X120822880Y-119007236D01*
X120826582Y-119005073D01*
X121042089Y-118836094D01*
X121083809Y-118793043D01*
X121175035Y-118698905D01*
X121232669Y-118639431D01*
X121235202Y-118635983D01*
X121235206Y-118635978D01*
X121392257Y-118422178D01*
X121394795Y-118418723D01*
X121422154Y-118368334D01*
X121523418Y-118181830D01*
X121523419Y-118181828D01*
X121525468Y-118178054D01*
X121587638Y-118013525D01*
X121620751Y-117925895D01*
X121620752Y-117925891D01*
X121622269Y-117921877D01*
X121666957Y-117726760D01*
X121682449Y-117659117D01*
X121682450Y-117659113D01*
X121683407Y-117654933D01*
X121685630Y-117630032D01*
X121707531Y-117384627D01*
X121707531Y-117384625D01*
X121707751Y-117382161D01*
X121708193Y-117340000D01*
X121705986Y-117307625D01*
X121705950Y-117307095D01*
X133432001Y-117307095D01*
X133432338Y-117313614D01*
X133442257Y-117409206D01*
X133445149Y-117422600D01*
X133496588Y-117576784D01*
X133502761Y-117589962D01*
X133588063Y-117727807D01*
X133597099Y-117739208D01*
X133711829Y-117853739D01*
X133723240Y-117862751D01*
X133861243Y-117947816D01*
X133874424Y-117953963D01*
X134028710Y-118005138D01*
X134042086Y-118008005D01*
X134136438Y-118017672D01*
X134142854Y-118018000D01*
X134517885Y-118018000D01*
X134533124Y-118013525D01*
X134534329Y-118012135D01*
X134536000Y-118004452D01*
X134536000Y-116932115D01*
X134531525Y-116916876D01*
X134530135Y-116915671D01*
X134522452Y-116914000D01*
X133450116Y-116914000D01*
X133434877Y-116918475D01*
X133433672Y-116919865D01*
X133432001Y-116927548D01*
X133432001Y-117307095D01*
X121705950Y-117307095D01*
X121689859Y-117071055D01*
X121689858Y-117071049D01*
X121689567Y-117066778D01*
X121634032Y-116798612D01*
X121542617Y-116540465D01*
X121489401Y-116437361D01*
X121418978Y-116300919D01*
X121418978Y-116300918D01*
X121417013Y-116297112D01*
X121407040Y-116282921D01*
X121262008Y-116076562D01*
X121259545Y-116073057D01*
X121152164Y-115957501D01*
X121076046Y-115875588D01*
X121076043Y-115875585D01*
X121073125Y-115872445D01*
X121069810Y-115869731D01*
X121069806Y-115869728D01*
X120939069Y-115762721D01*
X120861205Y-115698990D01*
X120627704Y-115555901D01*
X120611432Y-115548758D01*
X120380873Y-115447549D01*
X120380869Y-115447548D01*
X120376945Y-115445825D01*
X120113566Y-115370800D01*
X120109324Y-115370196D01*
X120109318Y-115370195D01*
X119908834Y-115341662D01*
X119842443Y-115332213D01*
X119698589Y-115331460D01*
X119572877Y-115330802D01*
X119572871Y-115330802D01*
X119568591Y-115330780D01*
X119564347Y-115331339D01*
X119564343Y-115331339D01*
X119445302Y-115347011D01*
X119297078Y-115366525D01*
X119292938Y-115367658D01*
X119292936Y-115367658D01*
X119240799Y-115381921D01*
X119032928Y-115438788D01*
X119028980Y-115440472D01*
X118784982Y-115544546D01*
X118784978Y-115544548D01*
X118781030Y-115546232D01*
X118671151Y-115611993D01*
X118549725Y-115684664D01*
X118549721Y-115684667D01*
X118546043Y-115686868D01*
X118332318Y-115858094D01*
X118220964Y-115975436D01*
X118182623Y-116015840D01*
X118143808Y-116056742D01*
X117984002Y-116279136D01*
X117855857Y-116521161D01*
X117854385Y-116525184D01*
X117854383Y-116525188D01*
X117803817Y-116663365D01*
X117761743Y-116778337D01*
X117703404Y-117045907D01*
X117703068Y-117050177D01*
X117682848Y-117307095D01*
X117681917Y-117318918D01*
X117203500Y-117318918D01*
X117203500Y-109396558D01*
X117223502Y-109328437D01*
X117277158Y-109281944D01*
X117329612Y-109270558D01*
X120176375Y-109273079D01*
X125600614Y-109277884D01*
X125668715Y-109297945D01*
X125715160Y-109351642D01*
X125726500Y-109403883D01*
X125726500Y-112385405D01*
X125706498Y-112453526D01*
X125689595Y-112474501D01*
X125484499Y-112679596D01*
X125422187Y-112713621D01*
X125395404Y-112716500D01*
X124354595Y-112716500D01*
X124286474Y-112696498D01*
X124265500Y-112679595D01*
X123888516Y-112302611D01*
X123854490Y-112240299D01*
X123859555Y-112169484D01*
X123883975Y-112129206D01*
X123944621Y-112061852D01*
X123944625Y-112061847D01*
X123949040Y-112056944D01*
X124044527Y-111891556D01*
X124103542Y-111709928D01*
X124123504Y-111520000D01*
X124103542Y-111330072D01*
X124044527Y-111148444D01*
X123949040Y-110983056D01*
X123937808Y-110970581D01*
X123825675Y-110846045D01*
X123825674Y-110846044D01*
X123821253Y-110841134D01*
X123666752Y-110728882D01*
X123660724Y-110726198D01*
X123660722Y-110726197D01*
X123498319Y-110653891D01*
X123498318Y-110653891D01*
X123492288Y-110651206D01*
X123398888Y-110631353D01*
X123311944Y-110612872D01*
X123311939Y-110612872D01*
X123305487Y-110611500D01*
X123114513Y-110611500D01*
X123108061Y-110612872D01*
X123108056Y-110612872D01*
X123021112Y-110631353D01*
X122927712Y-110651206D01*
X122921682Y-110653891D01*
X122921681Y-110653891D01*
X122759278Y-110726197D01*
X122759276Y-110726198D01*
X122753248Y-110728882D01*
X122598747Y-110841134D01*
X122594326Y-110846044D01*
X122594325Y-110846045D01*
X122482193Y-110970581D01*
X122470960Y-110983056D01*
X122375473Y-111148444D01*
X122316458Y-111330072D01*
X122296496Y-111520000D01*
X122316458Y-111709928D01*
X122375473Y-111891556D01*
X122470960Y-112056944D01*
X122544137Y-112138215D01*
X122574853Y-112202221D01*
X122576500Y-112222524D01*
X122576500Y-112441233D01*
X122575973Y-112452416D01*
X122574298Y-112459909D01*
X122574547Y-112467835D01*
X122574547Y-112467836D01*
X122576438Y-112527986D01*
X122576500Y-112531945D01*
X122576500Y-112559856D01*
X122576997Y-112563790D01*
X122576997Y-112563791D01*
X122577005Y-112563856D01*
X122577938Y-112575693D01*
X122579327Y-112619889D01*
X122584978Y-112639339D01*
X122588987Y-112658700D01*
X122591526Y-112678797D01*
X122594445Y-112686168D01*
X122594445Y-112686170D01*
X122607804Y-112719912D01*
X122611649Y-112731142D01*
X122619968Y-112759776D01*
X122623982Y-112773593D01*
X122628015Y-112780412D01*
X122628017Y-112780417D01*
X122634293Y-112791028D01*
X122642988Y-112808776D01*
X122650448Y-112827617D01*
X122655110Y-112834033D01*
X122655110Y-112834034D01*
X122676436Y-112863387D01*
X122682952Y-112873307D01*
X122705458Y-112911362D01*
X122719779Y-112925683D01*
X122732619Y-112940716D01*
X122744528Y-112957107D01*
X122777596Y-112984463D01*
X122778605Y-112985298D01*
X122787384Y-112993288D01*
X123536343Y-113742247D01*
X123543887Y-113750537D01*
X123548000Y-113757018D01*
X123553777Y-113762443D01*
X123597667Y-113803658D01*
X123600509Y-113806413D01*
X123620230Y-113826134D01*
X123623425Y-113828612D01*
X123632447Y-113836318D01*
X123664679Y-113866586D01*
X123671628Y-113870406D01*
X123682432Y-113876346D01*
X123698956Y-113887199D01*
X123714959Y-113899613D01*
X123755543Y-113917176D01*
X123766173Y-113922383D01*
X123804940Y-113943695D01*
X123812617Y-113945666D01*
X123812622Y-113945668D01*
X123824558Y-113948732D01*
X123843266Y-113955137D01*
X123861855Y-113963181D01*
X123869683Y-113964421D01*
X123869690Y-113964423D01*
X123905524Y-113970099D01*
X123917144Y-113972505D01*
X123948959Y-113980673D01*
X123959970Y-113983500D01*
X123980224Y-113983500D01*
X123999934Y-113985051D01*
X124019943Y-113988220D01*
X124027835Y-113987474D01*
X124046580Y-113985702D01*
X124063962Y-113984059D01*
X124075819Y-113983500D01*
X125631233Y-113983500D01*
X125642416Y-113984027D01*
X125649909Y-113985702D01*
X125657835Y-113985453D01*
X125657836Y-113985453D01*
X125717986Y-113983562D01*
X125721945Y-113983500D01*
X125749856Y-113983500D01*
X125753791Y-113983003D01*
X125753856Y-113982995D01*
X125765693Y-113982062D01*
X125797951Y-113981048D01*
X125801970Y-113980922D01*
X125809889Y-113980673D01*
X125829343Y-113975021D01*
X125848700Y-113971013D01*
X125860930Y-113969468D01*
X125860931Y-113969468D01*
X125868797Y-113968474D01*
X125876168Y-113965555D01*
X125876170Y-113965555D01*
X125909912Y-113952196D01*
X125921142Y-113948351D01*
X125955983Y-113938229D01*
X125955984Y-113938229D01*
X125963593Y-113936018D01*
X125970412Y-113931985D01*
X125970417Y-113931983D01*
X125981028Y-113925707D01*
X125998776Y-113917012D01*
X126017617Y-113909552D01*
X126037987Y-113894753D01*
X126053387Y-113883564D01*
X126063307Y-113877048D01*
X126094535Y-113858580D01*
X126094538Y-113858578D01*
X126101362Y-113854542D01*
X126115683Y-113840221D01*
X126130717Y-113827380D01*
X126140693Y-113820132D01*
X126147107Y-113815472D01*
X126175288Y-113781407D01*
X126183278Y-113772626D01*
X126752258Y-113203647D01*
X126760537Y-113196113D01*
X126767018Y-113192000D01*
X126813644Y-113142348D01*
X126816398Y-113139507D01*
X126836135Y-113119770D01*
X126838615Y-113116573D01*
X126846320Y-113107551D01*
X126876586Y-113075321D01*
X126880405Y-113068375D01*
X126880407Y-113068372D01*
X126886348Y-113057566D01*
X126897199Y-113041047D01*
X126904758Y-113031301D01*
X126909614Y-113025041D01*
X126912759Y-113017772D01*
X126912762Y-113017768D01*
X126927174Y-112984463D01*
X126932391Y-112973813D01*
X126953695Y-112935060D01*
X126958733Y-112915437D01*
X126965137Y-112896734D01*
X126970033Y-112885420D01*
X126970033Y-112885419D01*
X126973181Y-112878145D01*
X126974420Y-112870322D01*
X126974423Y-112870312D01*
X126980099Y-112834476D01*
X126982505Y-112822856D01*
X126991528Y-112787711D01*
X126991528Y-112787710D01*
X126993500Y-112780030D01*
X126993500Y-112759776D01*
X126995051Y-112740065D01*
X126996980Y-112727886D01*
X126998220Y-112720057D01*
X126994059Y-112676038D01*
X126993500Y-112664181D01*
X126993500Y-109424594D01*
X127013502Y-109356473D01*
X127030405Y-109335499D01*
X127049753Y-109316151D01*
X127112065Y-109282125D01*
X127138958Y-109279246D01*
X127820994Y-109279850D01*
X127971886Y-109279984D01*
X127990000Y-109280000D01*
X127990008Y-109272205D01*
X128001649Y-109258795D01*
X128019152Y-109226813D01*
X128061783Y-109198841D01*
X128072617Y-109194552D01*
X128108387Y-109168564D01*
X128118307Y-109162048D01*
X128149535Y-109143580D01*
X128149538Y-109143578D01*
X128156362Y-109139542D01*
X128170683Y-109125221D01*
X128185717Y-109112380D01*
X128195694Y-109105131D01*
X128202107Y-109100472D01*
X128230298Y-109066395D01*
X128238288Y-109057616D01*
X128552247Y-108743657D01*
X128560537Y-108736113D01*
X128567018Y-108732000D01*
X128613659Y-108682332D01*
X128616413Y-108679491D01*
X128636134Y-108659770D01*
X128638612Y-108656575D01*
X128646318Y-108647553D01*
X128671158Y-108621101D01*
X128676586Y-108615321D01*
X128686346Y-108597568D01*
X128697199Y-108581045D01*
X128704753Y-108571306D01*
X128709613Y-108565041D01*
X128727176Y-108524457D01*
X128732383Y-108513827D01*
X128753695Y-108475060D01*
X128755666Y-108467383D01*
X128755668Y-108467378D01*
X128758732Y-108455442D01*
X128765138Y-108436730D01*
X128770034Y-108425417D01*
X128773181Y-108418145D01*
X128780097Y-108374481D01*
X128782504Y-108362860D01*
X128791528Y-108327711D01*
X128791528Y-108327710D01*
X128793500Y-108320030D01*
X128793500Y-108299769D01*
X128795051Y-108280058D01*
X128796979Y-108267885D01*
X128798219Y-108260057D01*
X128794059Y-108216046D01*
X128793500Y-108204189D01*
X128793500Y-107719500D01*
X128813502Y-107651379D01*
X128867158Y-107604886D01*
X128919500Y-107593500D01*
X135391233Y-107593500D01*
X135402416Y-107594027D01*
X135409909Y-107595702D01*
X135417835Y-107595453D01*
X135417836Y-107595453D01*
X135477986Y-107593562D01*
X135481945Y-107593500D01*
X135509856Y-107593500D01*
X135513791Y-107593003D01*
X135513856Y-107592995D01*
X135525693Y-107592062D01*
X135557951Y-107591048D01*
X135561970Y-107590922D01*
X135569889Y-107590673D01*
X135589343Y-107585021D01*
X135608700Y-107581013D01*
X135620930Y-107579468D01*
X135620931Y-107579468D01*
X135628797Y-107578474D01*
X135636168Y-107575555D01*
X135636170Y-107575555D01*
X135669912Y-107562196D01*
X135681142Y-107558351D01*
X135715983Y-107548229D01*
X135715984Y-107548229D01*
X135723593Y-107546018D01*
X135730412Y-107541985D01*
X135730417Y-107541983D01*
X135741028Y-107535707D01*
X135758776Y-107527012D01*
X135777617Y-107519552D01*
X135813387Y-107493564D01*
X135823307Y-107487048D01*
X135854535Y-107468580D01*
X135854538Y-107468578D01*
X135861362Y-107464542D01*
X135875683Y-107450221D01*
X135890717Y-107437380D01*
X135900693Y-107430132D01*
X135907107Y-107425472D01*
X135935288Y-107391407D01*
X135943278Y-107382626D01*
X136442258Y-106883647D01*
X136450537Y-106876113D01*
X136457018Y-106872000D01*
X136503644Y-106822348D01*
X136506398Y-106819507D01*
X136526135Y-106799770D01*
X136528615Y-106796573D01*
X136536320Y-106787551D01*
X136561159Y-106761100D01*
X136566586Y-106755321D01*
X136570405Y-106748375D01*
X136570407Y-106748372D01*
X136576348Y-106737566D01*
X136587199Y-106721047D01*
X136594758Y-106711301D01*
X136599614Y-106705041D01*
X136602759Y-106697772D01*
X136602762Y-106697768D01*
X136617174Y-106664463D01*
X136622391Y-106653813D01*
X136643695Y-106615060D01*
X136648733Y-106595437D01*
X136655137Y-106576734D01*
X136660033Y-106565420D01*
X136660033Y-106565419D01*
X136663181Y-106558145D01*
X136664420Y-106550322D01*
X136664423Y-106550312D01*
X136670099Y-106514476D01*
X136672505Y-106502856D01*
X136681528Y-106467711D01*
X136681528Y-106467710D01*
X136683500Y-106460030D01*
X136683500Y-106439776D01*
X136685051Y-106420065D01*
X136686980Y-106407886D01*
X136688220Y-106400057D01*
X136684059Y-106356038D01*
X136683500Y-106344181D01*
X136683500Y-105632524D01*
X136703502Y-105564403D01*
X136715858Y-105548221D01*
X136780365Y-105476578D01*
X136840810Y-105439340D01*
X136911794Y-105440692D01*
G37*
%TD.AperFunction*%
%TA.AperFunction,Conductor*%
G36*
X129069724Y-90252358D02*
G01*
X129380782Y-90253050D01*
X129448856Y-90273203D01*
X129495230Y-90326962D01*
X129506500Y-90379049D01*
X129506500Y-90939688D01*
X129486498Y-91007809D01*
X129474136Y-91023998D01*
X129420960Y-91083056D01*
X129390015Y-91136655D01*
X129335256Y-91231500D01*
X129325473Y-91248444D01*
X129266458Y-91430072D01*
X129246496Y-91620000D01*
X129266458Y-91809928D01*
X129325473Y-91991556D01*
X129328776Y-91997278D01*
X129328777Y-91997279D01*
X129353442Y-92040000D01*
X129420960Y-92156944D01*
X129548747Y-92298866D01*
X129703248Y-92411118D01*
X129709276Y-92413802D01*
X129709278Y-92413803D01*
X129871681Y-92486109D01*
X129877712Y-92488794D01*
X129971113Y-92508647D01*
X130058056Y-92527128D01*
X130058061Y-92527128D01*
X130064513Y-92528500D01*
X130255487Y-92528500D01*
X130261939Y-92527128D01*
X130261944Y-92527128D01*
X130348887Y-92508647D01*
X130442288Y-92488794D01*
X130448319Y-92486109D01*
X130610722Y-92413803D01*
X130610724Y-92413802D01*
X130616752Y-92411118D01*
X130771253Y-92298866D01*
X130899040Y-92156944D01*
X130911382Y-92135567D01*
X130962764Y-92086575D01*
X131032478Y-92073140D01*
X131098389Y-92099527D01*
X131139570Y-92157359D01*
X131146500Y-92198569D01*
X131146500Y-94031233D01*
X131145973Y-94042416D01*
X131144298Y-94049909D01*
X131144547Y-94057835D01*
X131144547Y-94057836D01*
X131146438Y-94117986D01*
X131146500Y-94121945D01*
X131146500Y-94149856D01*
X131146997Y-94153790D01*
X131146997Y-94153791D01*
X131147005Y-94153856D01*
X131147938Y-94165693D01*
X131149327Y-94209889D01*
X131154978Y-94229339D01*
X131158987Y-94248700D01*
X131161526Y-94268797D01*
X131164445Y-94276168D01*
X131164445Y-94276170D01*
X131177804Y-94309912D01*
X131181649Y-94321142D01*
X131193982Y-94363593D01*
X131198015Y-94370412D01*
X131198017Y-94370417D01*
X131204293Y-94381028D01*
X131212988Y-94398776D01*
X131220448Y-94417617D01*
X131225110Y-94424033D01*
X131225110Y-94424034D01*
X131246436Y-94453387D01*
X131252952Y-94463307D01*
X131275458Y-94501362D01*
X131289779Y-94515683D01*
X131302619Y-94530716D01*
X131314528Y-94547107D01*
X131320634Y-94552158D01*
X131348605Y-94575298D01*
X131357384Y-94583288D01*
X134189595Y-97415500D01*
X134223621Y-97477812D01*
X134226500Y-97504595D01*
X134226500Y-99403579D01*
X134206498Y-99471700D01*
X134194137Y-99487889D01*
X134135460Y-99553056D01*
X134039973Y-99718444D01*
X133980958Y-99900072D01*
X133980268Y-99906633D01*
X133980268Y-99906635D01*
X133967398Y-100029085D01*
X133960996Y-100090000D01*
X133961686Y-100096565D01*
X133968544Y-100161811D01*
X133980958Y-100279928D01*
X134039973Y-100461556D01*
X134135460Y-100626944D01*
X134139878Y-100631851D01*
X134139879Y-100631852D01*
X134202296Y-100701173D01*
X134263247Y-100768866D01*
X134417748Y-100881118D01*
X134423776Y-100883802D01*
X134423778Y-100883803D01*
X134584299Y-100955271D01*
X134592212Y-100958794D01*
X134685612Y-100978647D01*
X134772556Y-100997128D01*
X134772561Y-100997128D01*
X134779013Y-100998500D01*
X134969987Y-100998500D01*
X134976439Y-100997128D01*
X134976444Y-100997128D01*
X135063388Y-100978647D01*
X135156788Y-100958794D01*
X135164701Y-100955271D01*
X135325222Y-100883803D01*
X135325224Y-100883802D01*
X135331252Y-100881118D01*
X135485753Y-100768866D01*
X135546704Y-100701173D01*
X135609121Y-100631852D01*
X135609122Y-100631851D01*
X135613540Y-100626944D01*
X135628469Y-100601086D01*
X135679851Y-100552093D01*
X135749565Y-100538656D01*
X135815476Y-100565043D01*
X135856658Y-100622875D01*
X135862898Y-100650915D01*
X135870159Y-100720000D01*
X135876458Y-100779928D01*
X135935473Y-100961556D01*
X135938776Y-100967278D01*
X135938777Y-100967279D01*
X135956803Y-100998500D01*
X136030960Y-101126944D01*
X136035378Y-101131851D01*
X136035379Y-101131852D01*
X136099487Y-101203051D01*
X136158747Y-101268866D01*
X136313248Y-101381118D01*
X136319276Y-101383802D01*
X136319278Y-101383803D01*
X136481681Y-101456109D01*
X136487712Y-101458794D01*
X136581112Y-101478647D01*
X136668056Y-101497128D01*
X136668061Y-101497128D01*
X136674513Y-101498500D01*
X136865487Y-101498500D01*
X136865487Y-101499148D01*
X136930665Y-101511066D01*
X136982513Y-101559566D01*
X137000000Y-101623605D01*
X137000000Y-104299110D01*
X136979998Y-104367231D01*
X136926342Y-104413724D01*
X136856068Y-104423828D01*
X136791488Y-104394334D01*
X136780369Y-104383426D01*
X136661253Y-104251134D01*
X136506752Y-104138882D01*
X136500724Y-104136198D01*
X136500722Y-104136197D01*
X136338319Y-104063891D01*
X136338318Y-104063891D01*
X136332288Y-104061206D01*
X136234070Y-104040329D01*
X136151944Y-104022872D01*
X136151939Y-104022872D01*
X136145487Y-104021500D01*
X135954513Y-104021500D01*
X135948061Y-104022872D01*
X135948056Y-104022872D01*
X135865930Y-104040329D01*
X135767712Y-104061206D01*
X135761682Y-104063891D01*
X135761681Y-104063891D01*
X135599278Y-104136197D01*
X135599276Y-104136198D01*
X135593248Y-104138882D01*
X135438747Y-104251134D01*
X135434329Y-104256041D01*
X135434325Y-104256045D01*
X135340762Y-104359958D01*
X135310960Y-104393056D01*
X135265638Y-104471556D01*
X135221247Y-104548444D01*
X135215473Y-104558444D01*
X135156458Y-104740072D01*
X135155768Y-104746633D01*
X135155768Y-104746635D01*
X135148154Y-104819076D01*
X135136496Y-104930000D01*
X135156458Y-105119928D01*
X135215473Y-105301556D01*
X135218776Y-105307278D01*
X135218777Y-105307279D01*
X135233307Y-105332446D01*
X135310960Y-105466944D01*
X135384137Y-105548215D01*
X135414853Y-105612221D01*
X135416500Y-105632524D01*
X135416500Y-106065405D01*
X135396498Y-106133526D01*
X135379595Y-106154501D01*
X135244499Y-106289596D01*
X135182187Y-106323621D01*
X135155404Y-106326500D01*
X134263096Y-106326500D01*
X134194975Y-106306498D01*
X134148482Y-106252842D01*
X134138378Y-106182568D01*
X134143263Y-106161564D01*
X134151502Y-106136206D01*
X134153542Y-106129928D01*
X134163448Y-106035683D01*
X134172814Y-105946565D01*
X134173504Y-105940000D01*
X134168293Y-105890417D01*
X134154232Y-105756635D01*
X134154232Y-105756633D01*
X134153542Y-105750072D01*
X134094527Y-105568444D01*
X134086473Y-105554493D01*
X134039285Y-105472762D01*
X133999040Y-105403056D01*
X133972557Y-105373643D01*
X133875675Y-105266045D01*
X133875674Y-105266044D01*
X133871253Y-105261134D01*
X133716752Y-105148882D01*
X133710724Y-105146198D01*
X133710722Y-105146197D01*
X133548319Y-105073891D01*
X133548318Y-105073891D01*
X133542288Y-105071206D01*
X133448888Y-105051353D01*
X133361944Y-105032872D01*
X133361939Y-105032872D01*
X133355487Y-105031500D01*
X133164513Y-105031500D01*
X133158061Y-105032872D01*
X133158056Y-105032872D01*
X133071112Y-105051353D01*
X132977712Y-105071206D01*
X132971682Y-105073891D01*
X132971681Y-105073891D01*
X132809278Y-105146197D01*
X132809276Y-105146198D01*
X132803248Y-105148882D01*
X132797907Y-105152762D01*
X132797906Y-105152763D01*
X132738280Y-105196084D01*
X132648747Y-105261134D01*
X132644332Y-105266037D01*
X132639420Y-105270460D01*
X132638295Y-105269211D01*
X132584986Y-105302051D01*
X132551800Y-105306500D01*
X130533096Y-105306500D01*
X130464975Y-105286498D01*
X130418482Y-105232842D01*
X130408378Y-105162568D01*
X130413263Y-105141564D01*
X130421502Y-105116206D01*
X130423542Y-105109928D01*
X130443504Y-104920000D01*
X130432897Y-104819076D01*
X130424232Y-104736635D01*
X130424232Y-104736633D01*
X130423542Y-104730072D01*
X130364527Y-104548444D01*
X130269040Y-104383056D01*
X130248243Y-104359958D01*
X130145675Y-104246045D01*
X130145674Y-104246044D01*
X130141253Y-104241134D01*
X130042157Y-104169136D01*
X129992094Y-104132763D01*
X129992093Y-104132762D01*
X129986752Y-104128882D01*
X129980724Y-104126198D01*
X129980722Y-104126197D01*
X129818319Y-104053891D01*
X129818318Y-104053891D01*
X129812288Y-104051206D01*
X129718887Y-104031353D01*
X129631944Y-104012872D01*
X129631939Y-104012872D01*
X129625487Y-104011500D01*
X129434513Y-104011500D01*
X129428061Y-104012872D01*
X129428056Y-104012872D01*
X129341113Y-104031353D01*
X129247712Y-104051206D01*
X129241682Y-104053891D01*
X129241681Y-104053891D01*
X129090749Y-104121090D01*
X129020382Y-104130524D01*
X128956085Y-104100417D01*
X128918271Y-104040329D01*
X128913500Y-104005983D01*
X128913500Y-97275000D01*
X129651496Y-97275000D01*
X129671458Y-97464928D01*
X129730473Y-97646556D01*
X129825960Y-97811944D01*
X129953747Y-97953866D01*
X130108248Y-98066118D01*
X130114276Y-98068802D01*
X130114278Y-98068803D01*
X130276681Y-98141109D01*
X130282712Y-98143794D01*
X130376113Y-98163647D01*
X130463056Y-98182128D01*
X130463061Y-98182128D01*
X130469513Y-98183500D01*
X130660487Y-98183500D01*
X130666939Y-98182128D01*
X130666944Y-98182128D01*
X130753888Y-98163647D01*
X130847288Y-98143794D01*
X130853319Y-98141109D01*
X131015722Y-98068803D01*
X131015724Y-98068802D01*
X131021752Y-98066118D01*
X131176253Y-97953866D01*
X131304040Y-97811944D01*
X131399527Y-97646556D01*
X131458542Y-97464928D01*
X131478504Y-97275000D01*
X131476921Y-97259943D01*
X131459232Y-97091635D01*
X131459232Y-97091633D01*
X131458542Y-97085072D01*
X131399527Y-96903444D01*
X131387368Y-96882383D01*
X131326699Y-96777303D01*
X131304040Y-96738056D01*
X131288614Y-96720923D01*
X131180675Y-96601045D01*
X131180674Y-96601044D01*
X131176253Y-96596134D01*
X131021752Y-96483882D01*
X131015724Y-96481198D01*
X131015722Y-96481197D01*
X130853319Y-96408891D01*
X130853318Y-96408891D01*
X130847288Y-96406206D01*
X130753887Y-96386353D01*
X130666944Y-96367872D01*
X130666939Y-96367872D01*
X130660487Y-96366500D01*
X130469513Y-96366500D01*
X130463061Y-96367872D01*
X130463056Y-96367872D01*
X130376113Y-96386353D01*
X130282712Y-96406206D01*
X130276682Y-96408891D01*
X130276681Y-96408891D01*
X130114278Y-96481197D01*
X130114276Y-96481198D01*
X130108248Y-96483882D01*
X129953747Y-96596134D01*
X129949326Y-96601044D01*
X129949325Y-96601045D01*
X129841387Y-96720923D01*
X129825960Y-96738056D01*
X129803301Y-96777303D01*
X129742633Y-96882383D01*
X129730473Y-96903444D01*
X129671458Y-97085072D01*
X129670768Y-97091633D01*
X129670768Y-97091635D01*
X129653079Y-97259943D01*
X129651496Y-97275000D01*
X128913500Y-97275000D01*
X128913500Y-90378291D01*
X128933502Y-90310170D01*
X128987158Y-90263677D01*
X129039780Y-90252291D01*
X129069724Y-90252358D01*
G37*
%TD.AperFunction*%
%TA.AperFunction,Conductor*%
G36*
X136874281Y-90269720D02*
G01*
X136942356Y-90289874D01*
X136988730Y-90343633D01*
X137000000Y-90395720D01*
X137000000Y-95999906D01*
X136979998Y-96068027D01*
X136926342Y-96114520D01*
X136856068Y-96124624D01*
X136791488Y-96095130D01*
X136784905Y-96089001D01*
X135563974Y-94868069D01*
X134060405Y-93364500D01*
X134026379Y-93302188D01*
X134023500Y-93275405D01*
X134023500Y-90389659D01*
X134043502Y-90321538D01*
X134097158Y-90275045D01*
X134149779Y-90263659D01*
X136874281Y-90269720D01*
G37*
%TD.AperFunction*%
%TA.AperFunction,Conductor*%
G36*
X132601851Y-90260215D02*
G01*
X132630781Y-90260280D01*
X132698857Y-90280434D01*
X132745230Y-90334194D01*
X132756500Y-90386280D01*
X132756500Y-93511233D01*
X132755973Y-93522416D01*
X132754298Y-93529909D01*
X132754547Y-93537835D01*
X132754547Y-93537836D01*
X132756438Y-93597986D01*
X132756500Y-93601945D01*
X132756500Y-93629856D01*
X132756997Y-93633790D01*
X132756997Y-93633791D01*
X132757005Y-93633856D01*
X132757938Y-93645693D01*
X132759327Y-93689889D01*
X132764978Y-93709339D01*
X132768987Y-93728700D01*
X132771526Y-93748797D01*
X132774445Y-93756168D01*
X132774445Y-93756170D01*
X132787804Y-93789912D01*
X132791649Y-93801142D01*
X132803982Y-93843593D01*
X132808015Y-93850412D01*
X132808017Y-93850417D01*
X132814293Y-93861028D01*
X132822988Y-93878776D01*
X132830448Y-93897617D01*
X132835110Y-93904033D01*
X132835110Y-93904034D01*
X132856436Y-93933387D01*
X132862952Y-93943307D01*
X132867232Y-93950544D01*
X132884692Y-94019360D01*
X132862176Y-94086692D01*
X132806831Y-94131161D01*
X132736231Y-94138650D01*
X132669684Y-94103779D01*
X132450405Y-93884500D01*
X132416379Y-93822188D01*
X132413500Y-93795405D01*
X132413500Y-90386077D01*
X132433502Y-90317956D01*
X132487158Y-90271463D01*
X132539779Y-90260077D01*
X132601851Y-90260215D01*
G37*
%TD.AperFunction*%
%TD*%
%TA.AperFunction,Conductor*%
%TO.N,GND*%
G36*
X147049832Y-81334721D02*
G01*
X147117895Y-81354920D01*
X147164233Y-81408709D01*
X147169301Y-81421783D01*
X147185473Y-81471556D01*
X147188776Y-81477277D01*
X147188777Y-81477279D01*
X147222686Y-81536010D01*
X147280960Y-81636944D01*
X147408747Y-81778866D01*
X147563248Y-81891118D01*
X147569276Y-81893802D01*
X147569278Y-81893803D01*
X147731681Y-81966109D01*
X147737712Y-81968794D01*
X147831112Y-81988647D01*
X147918056Y-82007128D01*
X147918061Y-82007128D01*
X147924513Y-82008500D01*
X148115487Y-82008500D01*
X148121939Y-82007128D01*
X148121944Y-82007128D01*
X148208888Y-81988647D01*
X148302288Y-81968794D01*
X148308319Y-81966109D01*
X148470722Y-81893803D01*
X148470724Y-81893802D01*
X148476752Y-81891118D01*
X148631253Y-81778866D01*
X148759040Y-81636944D01*
X148854527Y-81471556D01*
X148868877Y-81427392D01*
X148908951Y-81368787D01*
X148974348Y-81341150D01*
X148989074Y-81340330D01*
X152006019Y-81349056D01*
X155664867Y-81359638D01*
X155732930Y-81379837D01*
X155779268Y-81433626D01*
X155790502Y-81485131D01*
X155804989Y-85093660D01*
X155785261Y-85161861D01*
X155731792Y-85208569D01*
X155661559Y-85218954D01*
X155603425Y-85194992D01*
X155503649Y-85120214D01*
X155488054Y-85111676D01*
X155367606Y-85066522D01*
X155352351Y-85062895D01*
X155301486Y-85057369D01*
X155294672Y-85057000D01*
X154672115Y-85057000D01*
X154656876Y-85061475D01*
X154655671Y-85062865D01*
X154654000Y-85070548D01*
X154654000Y-87754884D01*
X154658475Y-87770123D01*
X154659865Y-87771328D01*
X154667548Y-87772999D01*
X155294669Y-87772999D01*
X155301490Y-87772629D01*
X155352352Y-87767105D01*
X155367604Y-87763479D01*
X155488054Y-87718324D01*
X155503649Y-87709786D01*
X155612904Y-87627904D01*
X155614949Y-87630633D01*
X155662780Y-87604515D01*
X155733595Y-87609580D01*
X155790431Y-87652127D01*
X155815242Y-87718647D01*
X155815561Y-87727114D01*
X155830572Y-91466045D01*
X155830914Y-91551252D01*
X155811186Y-91619453D01*
X155757717Y-91666161D01*
X155687484Y-91676546D01*
X155622785Y-91647313D01*
X155595797Y-91614759D01*
X155589040Y-91603056D01*
X155461253Y-91461134D01*
X155306752Y-91348882D01*
X155300724Y-91346198D01*
X155300722Y-91346197D01*
X155138319Y-91273891D01*
X155138318Y-91273891D01*
X155132288Y-91271206D01*
X155025202Y-91248444D01*
X154951944Y-91232872D01*
X154951939Y-91232872D01*
X154945487Y-91231500D01*
X154754513Y-91231500D01*
X154748061Y-91232872D01*
X154748056Y-91232872D01*
X154674798Y-91248444D01*
X154567712Y-91271206D01*
X154561682Y-91273891D01*
X154561681Y-91273891D01*
X154399278Y-91346197D01*
X154399276Y-91346198D01*
X154393248Y-91348882D01*
X154238747Y-91461134D01*
X154110960Y-91603056D01*
X154085409Y-91647313D01*
X154076425Y-91662873D01*
X154025043Y-91711866D01*
X153966320Y-91723185D01*
X153991764Y-91758916D01*
X153995142Y-91829832D01*
X153992527Y-91839063D01*
X153956458Y-91950072D01*
X153955768Y-91956633D01*
X153955768Y-91956635D01*
X153941624Y-92091206D01*
X153936496Y-92140000D01*
X153937186Y-92146565D01*
X153951330Y-92281134D01*
X153956458Y-92329928D01*
X154015473Y-92511556D01*
X154018776Y-92517278D01*
X154018777Y-92517279D01*
X154052686Y-92576010D01*
X154110960Y-92676944D01*
X154238747Y-92818866D01*
X154393248Y-92931118D01*
X154399276Y-92933802D01*
X154399278Y-92933803D01*
X154458118Y-92960000D01*
X154567712Y-93008794D01*
X154661113Y-93028647D01*
X154748056Y-93047128D01*
X154748061Y-93047128D01*
X154754513Y-93048500D01*
X154945487Y-93048500D01*
X154951939Y-93047128D01*
X154951944Y-93047128D01*
X155038887Y-93028647D01*
X155132288Y-93008794D01*
X155241882Y-92960000D01*
X155300722Y-92933803D01*
X155300724Y-92933802D01*
X155306752Y-92931118D01*
X155461253Y-92818866D01*
X155589040Y-92676944D01*
X155600488Y-92657116D01*
X155651871Y-92608124D01*
X155721585Y-92594689D01*
X155787496Y-92621077D01*
X155828677Y-92678909D01*
X155835604Y-92719608D01*
X155851207Y-96606167D01*
X155831480Y-96674365D01*
X155818848Y-96690977D01*
X155780960Y-96733056D01*
X155685473Y-96898444D01*
X155626458Y-97080072D01*
X155606496Y-97270000D01*
X155626458Y-97459928D01*
X155685473Y-97641556D01*
X155780960Y-97806944D01*
X155824195Y-97854962D01*
X155854911Y-97918967D01*
X155856557Y-97938764D01*
X155864215Y-99846352D01*
X155844488Y-99914551D01*
X155791019Y-99961259D01*
X155720786Y-99971644D01*
X155664156Y-99948792D01*
X155642094Y-99932763D01*
X155642093Y-99932762D01*
X155636752Y-99928882D01*
X155630724Y-99926198D01*
X155630722Y-99926197D01*
X155468319Y-99853891D01*
X155468318Y-99853891D01*
X155462288Y-99851206D01*
X155368887Y-99831353D01*
X155281944Y-99812872D01*
X155281939Y-99812872D01*
X155275487Y-99811500D01*
X155084513Y-99811500D01*
X155078061Y-99812872D01*
X155078056Y-99812872D01*
X154991113Y-99831353D01*
X154897712Y-99851206D01*
X154891682Y-99853891D01*
X154891681Y-99853891D01*
X154729278Y-99926197D01*
X154729276Y-99926198D01*
X154723248Y-99928882D01*
X154568747Y-100041134D01*
X154440960Y-100183056D01*
X154345473Y-100348444D01*
X154308721Y-100461556D01*
X154308149Y-100463315D01*
X154268075Y-100521921D01*
X154202679Y-100549558D01*
X154132722Y-100537451D01*
X154080416Y-100489445D01*
X154065070Y-100450579D01*
X154064232Y-100446635D01*
X154063542Y-100440072D01*
X154004527Y-100258444D01*
X153909040Y-100093056D01*
X153781253Y-99951134D01*
X153647410Y-99853891D01*
X153632094Y-99842763D01*
X153632093Y-99842762D01*
X153626752Y-99838882D01*
X153620724Y-99836198D01*
X153620722Y-99836197D01*
X153458319Y-99763891D01*
X153458318Y-99763891D01*
X153452288Y-99761206D01*
X153358887Y-99741353D01*
X153271944Y-99722872D01*
X153271939Y-99722872D01*
X153265487Y-99721500D01*
X153074513Y-99721500D01*
X153068061Y-99722872D01*
X153068056Y-99722872D01*
X152981113Y-99741353D01*
X152887712Y-99761206D01*
X152881682Y-99763891D01*
X152881681Y-99763891D01*
X152719278Y-99836197D01*
X152719276Y-99836198D01*
X152713248Y-99838882D01*
X152707907Y-99842762D01*
X152707906Y-99842763D01*
X152692590Y-99853891D01*
X152558747Y-99951134D01*
X152430960Y-100093056D01*
X152335473Y-100258444D01*
X152276458Y-100440072D01*
X152275768Y-100446633D01*
X152275768Y-100446635D01*
X152274200Y-100461556D01*
X152256496Y-100630000D01*
X152276458Y-100819928D01*
X152335473Y-101001556D01*
X152430960Y-101166944D01*
X152558747Y-101308866D01*
X152713248Y-101421118D01*
X152719276Y-101423802D01*
X152719278Y-101423803D01*
X152841798Y-101478352D01*
X152887712Y-101498794D01*
X152981113Y-101518647D01*
X153068056Y-101537128D01*
X153068061Y-101537128D01*
X153074513Y-101538500D01*
X153265487Y-101538500D01*
X153271939Y-101537128D01*
X153271944Y-101537128D01*
X153358888Y-101518647D01*
X153452288Y-101498794D01*
X153498202Y-101478352D01*
X153620722Y-101423803D01*
X153620724Y-101423802D01*
X153626752Y-101421118D01*
X153781253Y-101308866D01*
X153909040Y-101166944D01*
X154004527Y-101001556D01*
X154041851Y-100886685D01*
X154081925Y-100828079D01*
X154147321Y-100800442D01*
X154217278Y-100812549D01*
X154269584Y-100860555D01*
X154284930Y-100899421D01*
X154285768Y-100903363D01*
X154286458Y-100909928D01*
X154345473Y-101091556D01*
X154440960Y-101256944D01*
X154445378Y-101261851D01*
X154445379Y-101261852D01*
X154461346Y-101279585D01*
X154568747Y-101398866D01*
X154656016Y-101462271D01*
X154706286Y-101498794D01*
X154723248Y-101511118D01*
X154729276Y-101513802D01*
X154729278Y-101513803D01*
X154784749Y-101538500D01*
X154897712Y-101588794D01*
X154991113Y-101608647D01*
X155078056Y-101627128D01*
X155078061Y-101627128D01*
X155084513Y-101628500D01*
X155275487Y-101628500D01*
X155281939Y-101627128D01*
X155281944Y-101627128D01*
X155368887Y-101608647D01*
X155462288Y-101588794D01*
X155575251Y-101538500D01*
X155630722Y-101513803D01*
X155630724Y-101513802D01*
X155636752Y-101511118D01*
X155653715Y-101498794D01*
X155671145Y-101486130D01*
X155738013Y-101462271D01*
X155807164Y-101478352D01*
X155856645Y-101529266D01*
X155871205Y-101587560D01*
X155875985Y-102778153D01*
X155883153Y-104563435D01*
X155883179Y-104569994D01*
X155863451Y-104638195D01*
X155809982Y-104684903D01*
X155757180Y-104696500D01*
X152938200Y-104696500D01*
X152870079Y-104676498D01*
X152850853Y-104660157D01*
X152850580Y-104660460D01*
X152845668Y-104656037D01*
X152841253Y-104651134D01*
X152686752Y-104538882D01*
X152680724Y-104536198D01*
X152680722Y-104536197D01*
X152518319Y-104463891D01*
X152518318Y-104463891D01*
X152512288Y-104461206D01*
X152418887Y-104441353D01*
X152331944Y-104422872D01*
X152331939Y-104422872D01*
X152325487Y-104421500D01*
X152134513Y-104421500D01*
X152128061Y-104422872D01*
X152128056Y-104422872D01*
X152041112Y-104441353D01*
X151947712Y-104461206D01*
X151941682Y-104463891D01*
X151941681Y-104463891D01*
X151779278Y-104536197D01*
X151779276Y-104536198D01*
X151773248Y-104538882D01*
X151618747Y-104651134D01*
X151614326Y-104656044D01*
X151614325Y-104656045D01*
X151520789Y-104759928D01*
X151490960Y-104793056D01*
X151441408Y-104878882D01*
X151409527Y-104934102D01*
X151358145Y-104983095D01*
X151288431Y-104996531D01*
X151226347Y-104973038D01*
X151102094Y-104882763D01*
X151102093Y-104882762D01*
X151096752Y-104878882D01*
X151090724Y-104876198D01*
X151090722Y-104876197D01*
X150928319Y-104803891D01*
X150928318Y-104803891D01*
X150922288Y-104801206D01*
X150810648Y-104777476D01*
X150741944Y-104762872D01*
X150741939Y-104762872D01*
X150735487Y-104761500D01*
X150544513Y-104761500D01*
X150538061Y-104762872D01*
X150538056Y-104762872D01*
X150469352Y-104777476D01*
X150357712Y-104801206D01*
X150351682Y-104803891D01*
X150351681Y-104803891D01*
X150189278Y-104876197D01*
X150189276Y-104876198D01*
X150183248Y-104878882D01*
X150028747Y-104991134D01*
X150024326Y-104996044D01*
X150024325Y-104996045D01*
X149921785Y-105109928D01*
X149900960Y-105133056D01*
X149897659Y-105138774D01*
X149810307Y-105290072D01*
X149805473Y-105298444D01*
X149746458Y-105480072D01*
X149745768Y-105486633D01*
X149745768Y-105486635D01*
X149727193Y-105663365D01*
X149726496Y-105670000D01*
X149727186Y-105676565D01*
X149744918Y-105845271D01*
X149746458Y-105859928D01*
X149805473Y-106041556D01*
X149900960Y-106206944D01*
X149905378Y-106211851D01*
X149905379Y-106211852D01*
X150022138Y-106341526D01*
X150028747Y-106348866D01*
X150084456Y-106389341D01*
X150175458Y-106455458D01*
X150183248Y-106461118D01*
X150189276Y-106463802D01*
X150189278Y-106463803D01*
X150351681Y-106536109D01*
X150357712Y-106538794D01*
X150435282Y-106555282D01*
X150492874Y-106567524D01*
X150555772Y-106601676D01*
X150981343Y-107027247D01*
X150988887Y-107035537D01*
X150993000Y-107042018D01*
X150998777Y-107047443D01*
X151042667Y-107088658D01*
X151045509Y-107091413D01*
X151065230Y-107111134D01*
X151068425Y-107113612D01*
X151077447Y-107121318D01*
X151109679Y-107151586D01*
X151116628Y-107155406D01*
X151127432Y-107161346D01*
X151143956Y-107172199D01*
X151159959Y-107184613D01*
X151200543Y-107202176D01*
X151211173Y-107207383D01*
X151249940Y-107228695D01*
X151257617Y-107230666D01*
X151257622Y-107230668D01*
X151269558Y-107233732D01*
X151288266Y-107240137D01*
X151306855Y-107248181D01*
X151314680Y-107249420D01*
X151314682Y-107249421D01*
X151350519Y-107255097D01*
X151362140Y-107257504D01*
X151397289Y-107266528D01*
X151404970Y-107268500D01*
X151425231Y-107268500D01*
X151444940Y-107270051D01*
X151464943Y-107273219D01*
X151472835Y-107272473D01*
X151478062Y-107271979D01*
X151508954Y-107269059D01*
X151520811Y-107268500D01*
X155768517Y-107268500D01*
X155836638Y-107288502D01*
X155883131Y-107342158D01*
X155894516Y-107393994D01*
X155899494Y-108633872D01*
X155879766Y-108702073D01*
X155826297Y-108748781D01*
X155773872Y-108760377D01*
X148963911Y-108780729D01*
X139295452Y-108809625D01*
X139227271Y-108789827D01*
X139180618Y-108736311D01*
X139169078Y-108684552D01*
X139138824Y-104570000D01*
X142136496Y-104570000D01*
X142137186Y-104576565D01*
X142154507Y-104741362D01*
X142156458Y-104759928D01*
X142215473Y-104941556D01*
X142310960Y-105106944D01*
X142315378Y-105111851D01*
X142315379Y-105111852D01*
X142322651Y-105119928D01*
X142438747Y-105248866D01*
X142486821Y-105283794D01*
X142557347Y-105335034D01*
X142593248Y-105361118D01*
X142599276Y-105363802D01*
X142599278Y-105363803D01*
X142755675Y-105433435D01*
X142767712Y-105438794D01*
X142836903Y-105453501D01*
X142948056Y-105477128D01*
X142948061Y-105477128D01*
X142954513Y-105478500D01*
X143145487Y-105478500D01*
X143151939Y-105477128D01*
X143151944Y-105477128D01*
X143263097Y-105453501D01*
X143332288Y-105438794D01*
X143344325Y-105433435D01*
X143500722Y-105363803D01*
X143500724Y-105363802D01*
X143506752Y-105361118D01*
X143542654Y-105335034D01*
X143613179Y-105283794D01*
X143661253Y-105248866D01*
X143777349Y-105119928D01*
X143784621Y-105111852D01*
X143784622Y-105111851D01*
X143789040Y-105106944D01*
X143884527Y-104941556D01*
X143943542Y-104759928D01*
X143945494Y-104741362D01*
X143962814Y-104576565D01*
X143963504Y-104570000D01*
X143952352Y-104463891D01*
X143944232Y-104386635D01*
X143944232Y-104386633D01*
X143943542Y-104380072D01*
X143884527Y-104198444D01*
X143877406Y-104186109D01*
X143832809Y-104108866D01*
X143789040Y-104033056D01*
X143761752Y-104002749D01*
X143665675Y-103896045D01*
X143665674Y-103896044D01*
X143661253Y-103891134D01*
X143537960Y-103801556D01*
X143512094Y-103782763D01*
X143512093Y-103782762D01*
X143506752Y-103778882D01*
X143500724Y-103776198D01*
X143500722Y-103776197D01*
X143338319Y-103703891D01*
X143338318Y-103703891D01*
X143332288Y-103701206D01*
X143238888Y-103681353D01*
X143151944Y-103662872D01*
X143151939Y-103662872D01*
X143145487Y-103661500D01*
X142954513Y-103661500D01*
X142948061Y-103662872D01*
X142948056Y-103662872D01*
X142861112Y-103681353D01*
X142767712Y-103701206D01*
X142761682Y-103703891D01*
X142761681Y-103703891D01*
X142599278Y-103776197D01*
X142599276Y-103776198D01*
X142593248Y-103778882D01*
X142587907Y-103782762D01*
X142587906Y-103782763D01*
X142562040Y-103801556D01*
X142438747Y-103891134D01*
X142434326Y-103896044D01*
X142434325Y-103896045D01*
X142338249Y-104002749D01*
X142310960Y-104033056D01*
X142267191Y-104108866D01*
X142222595Y-104186109D01*
X142215473Y-104198444D01*
X142156458Y-104380072D01*
X142155768Y-104386633D01*
X142155768Y-104386635D01*
X142147648Y-104463891D01*
X142136496Y-104570000D01*
X139138824Y-104570000D01*
X139054107Y-93048500D01*
X139020000Y-88410000D01*
X138382040Y-88408244D01*
X137469864Y-88405733D01*
X137427348Y-88397563D01*
X137425060Y-88396305D01*
X137405437Y-88391267D01*
X137386734Y-88384863D01*
X137375420Y-88379967D01*
X137375419Y-88379967D01*
X137368145Y-88376819D01*
X137360322Y-88375580D01*
X137360312Y-88375577D01*
X137324476Y-88369901D01*
X137312856Y-88367495D01*
X137277711Y-88358472D01*
X137277710Y-88358472D01*
X137270030Y-88356500D01*
X137249776Y-88356500D01*
X137230065Y-88354949D01*
X137217886Y-88353020D01*
X137210057Y-88351780D01*
X137202165Y-88352526D01*
X137166039Y-88355941D01*
X137154181Y-88356500D01*
X136398200Y-88356500D01*
X136330079Y-88336498D01*
X136310853Y-88320157D01*
X136310580Y-88320460D01*
X136305668Y-88316037D01*
X136301253Y-88311134D01*
X136206626Y-88242383D01*
X136152094Y-88202763D01*
X136152093Y-88202762D01*
X136146752Y-88198882D01*
X136140724Y-88196198D01*
X136140722Y-88196197D01*
X135978319Y-88123891D01*
X135978318Y-88123891D01*
X135972288Y-88121206D01*
X135877321Y-88101020D01*
X135791944Y-88082872D01*
X135791939Y-88082872D01*
X135785487Y-88081500D01*
X135594513Y-88081500D01*
X135588061Y-88082872D01*
X135588056Y-88082872D01*
X135502679Y-88101020D01*
X135407712Y-88121206D01*
X135401682Y-88123891D01*
X135401681Y-88123891D01*
X135239278Y-88196197D01*
X135239276Y-88196198D01*
X135233248Y-88198882D01*
X135227907Y-88202762D01*
X135227906Y-88202763D01*
X135163561Y-88249513D01*
X135096694Y-88273371D01*
X135027542Y-88257291D01*
X134978062Y-88206378D01*
X134963500Y-88147577D01*
X134963500Y-86381695D01*
X140337251Y-86381695D01*
X140350110Y-86604715D01*
X140351247Y-86609761D01*
X140351248Y-86609767D01*
X140354028Y-86622101D01*
X140399222Y-86822639D01*
X140457670Y-86966581D01*
X140468134Y-86992349D01*
X140483266Y-87029616D01*
X140599987Y-87220088D01*
X140746250Y-87388938D01*
X140918126Y-87531632D01*
X141111000Y-87644338D01*
X141319692Y-87724030D01*
X141324760Y-87725061D01*
X141324763Y-87725062D01*
X141419297Y-87744295D01*
X141538597Y-87768567D01*
X141543772Y-87768757D01*
X141543774Y-87768757D01*
X141756673Y-87776564D01*
X141756677Y-87776564D01*
X141761837Y-87776753D01*
X141766957Y-87776097D01*
X141766959Y-87776097D01*
X141978288Y-87749025D01*
X141978289Y-87749025D01*
X141983416Y-87748368D01*
X142178252Y-87689914D01*
X142249247Y-87689497D01*
X142309197Y-87727530D01*
X142338908Y-87790890D01*
X142339078Y-87791962D01*
X142339327Y-87799889D01*
X142341539Y-87807502D01*
X142344978Y-87819339D01*
X142348987Y-87838700D01*
X142351526Y-87858797D01*
X142354445Y-87866168D01*
X142354445Y-87866170D01*
X142367804Y-87899912D01*
X142371649Y-87911142D01*
X142383982Y-87953593D01*
X142388015Y-87960412D01*
X142388017Y-87960417D01*
X142394293Y-87971028D01*
X142402988Y-87988776D01*
X142410448Y-88007617D01*
X142415110Y-88014033D01*
X142415110Y-88014034D01*
X142436436Y-88043387D01*
X142442952Y-88053307D01*
X142459626Y-88081500D01*
X142465458Y-88091362D01*
X142479779Y-88105683D01*
X142492619Y-88120716D01*
X142504528Y-88137107D01*
X142532479Y-88160230D01*
X142538605Y-88165298D01*
X142547384Y-88173288D01*
X143006343Y-88632247D01*
X143013887Y-88640537D01*
X143018000Y-88647018D01*
X143023777Y-88652443D01*
X143067667Y-88693658D01*
X143070509Y-88696413D01*
X143090230Y-88716134D01*
X143093425Y-88718612D01*
X143102447Y-88726318D01*
X143134679Y-88756586D01*
X143141628Y-88760406D01*
X143152432Y-88766346D01*
X143168956Y-88777199D01*
X143184959Y-88789613D01*
X143225543Y-88807176D01*
X143236173Y-88812383D01*
X143274940Y-88833695D01*
X143282617Y-88835666D01*
X143282622Y-88835668D01*
X143294558Y-88838732D01*
X143313266Y-88845137D01*
X143331855Y-88853181D01*
X143339683Y-88854421D01*
X143339690Y-88854423D01*
X143375524Y-88860099D01*
X143387144Y-88862505D01*
X143422289Y-88871528D01*
X143429970Y-88873500D01*
X143450224Y-88873500D01*
X143469934Y-88875051D01*
X143489943Y-88878220D01*
X143497835Y-88877474D01*
X143533961Y-88874059D01*
X143545819Y-88873500D01*
X144585406Y-88873500D01*
X144653527Y-88893502D01*
X144674501Y-88910405D01*
X144919595Y-89155499D01*
X144953621Y-89217811D01*
X144956500Y-89244594D01*
X144956500Y-96441233D01*
X144955973Y-96452416D01*
X144954298Y-96459909D01*
X144954547Y-96467835D01*
X144954547Y-96467836D01*
X144956438Y-96527986D01*
X144956500Y-96531945D01*
X144956500Y-96559856D01*
X144956997Y-96563790D01*
X144956997Y-96563791D01*
X144957005Y-96563856D01*
X144957938Y-96575693D01*
X144959327Y-96619889D01*
X144961538Y-96627499D01*
X144962778Y-96635328D01*
X144962635Y-96635351D01*
X144966500Y-96662510D01*
X144966500Y-104715263D01*
X144946498Y-104783384D01*
X144934137Y-104799573D01*
X144840960Y-104903056D01*
X144745473Y-105068444D01*
X144686458Y-105250072D01*
X144685768Y-105256633D01*
X144685768Y-105256635D01*
X144673329Y-105374984D01*
X144666496Y-105440000D01*
X144667186Y-105446565D01*
X144676290Y-105533181D01*
X144686458Y-105629928D01*
X144745473Y-105811556D01*
X144840960Y-105976944D01*
X144845378Y-105981851D01*
X144845379Y-105981852D01*
X144876976Y-106016944D01*
X144968747Y-106118866D01*
X145123248Y-106231118D01*
X145129276Y-106233802D01*
X145129278Y-106233803D01*
X145291681Y-106306109D01*
X145297712Y-106308794D01*
X145391113Y-106328647D01*
X145478056Y-106347128D01*
X145478061Y-106347128D01*
X145484513Y-106348500D01*
X145675487Y-106348500D01*
X145681939Y-106347128D01*
X145681944Y-106347128D01*
X145768888Y-106328647D01*
X145862288Y-106308794D01*
X145868319Y-106306109D01*
X146030722Y-106233803D01*
X146030724Y-106233802D01*
X146036752Y-106231118D01*
X146191253Y-106118866D01*
X146283024Y-106016944D01*
X146314621Y-105981852D01*
X146314622Y-105981851D01*
X146319040Y-105976944D01*
X146414527Y-105811556D01*
X146473542Y-105629928D01*
X146483711Y-105533181D01*
X146492085Y-105453501D01*
X146519098Y-105387845D01*
X146577320Y-105347215D01*
X146643591Y-105343425D01*
X146661422Y-105347215D01*
X146708056Y-105357128D01*
X146708061Y-105357128D01*
X146714513Y-105358500D01*
X146905487Y-105358500D01*
X146922398Y-105354905D01*
X147015889Y-105335034D01*
X147086679Y-105340436D01*
X147143312Y-105383253D01*
X147167805Y-105449891D01*
X147167394Y-105471456D01*
X147166496Y-105480000D01*
X147186458Y-105669928D01*
X147245473Y-105851556D01*
X147248776Y-105857278D01*
X147248777Y-105857279D01*
X147253931Y-105866206D01*
X147340960Y-106016944D01*
X147468747Y-106158866D01*
X147541676Y-106211852D01*
X147571889Y-106233803D01*
X147623248Y-106271118D01*
X147629276Y-106273802D01*
X147629278Y-106273803D01*
X147786843Y-106343955D01*
X147797712Y-106348794D01*
X147891112Y-106368647D01*
X147978056Y-106387128D01*
X147978061Y-106387128D01*
X147984513Y-106388500D01*
X148175487Y-106388500D01*
X148181939Y-106387128D01*
X148181944Y-106387128D01*
X148268888Y-106368647D01*
X148362288Y-106348794D01*
X148373157Y-106343955D01*
X148530722Y-106273803D01*
X148530724Y-106273802D01*
X148536752Y-106271118D01*
X148588112Y-106233803D01*
X148618324Y-106211852D01*
X148691253Y-106158866D01*
X148819040Y-106016944D01*
X148906069Y-105866206D01*
X148911223Y-105857279D01*
X148911224Y-105857278D01*
X148914527Y-105851556D01*
X148973542Y-105669928D01*
X148993504Y-105480000D01*
X148979150Y-105343425D01*
X148974232Y-105296635D01*
X148974232Y-105296633D01*
X148973542Y-105290072D01*
X148914527Y-105108444D01*
X148819040Y-104943056D01*
X148745863Y-104861785D01*
X148715147Y-104797779D01*
X148713500Y-104777476D01*
X148713500Y-104238469D01*
X148733502Y-104170348D01*
X148787158Y-104123855D01*
X148857432Y-104113751D01*
X148890748Y-104123362D01*
X149037712Y-104188794D01*
X149112680Y-104204729D01*
X149218056Y-104227128D01*
X149218061Y-104227128D01*
X149224513Y-104228500D01*
X149415487Y-104228500D01*
X149421939Y-104227128D01*
X149421944Y-104227128D01*
X149527320Y-104204729D01*
X149602288Y-104188794D01*
X149714393Y-104138882D01*
X149770722Y-104113803D01*
X149770724Y-104113802D01*
X149776752Y-104111118D01*
X149931253Y-103998866D01*
X149959996Y-103966944D01*
X150054621Y-103861852D01*
X150054622Y-103861851D01*
X150059040Y-103856944D01*
X150117314Y-103756010D01*
X150151223Y-103697279D01*
X150151224Y-103697278D01*
X150154527Y-103691556D01*
X150213542Y-103509928D01*
X150233504Y-103320000D01*
X150213542Y-103130072D01*
X150154527Y-102948444D01*
X150059040Y-102783056D01*
X149985863Y-102701785D01*
X149955147Y-102637779D01*
X149953500Y-102617476D01*
X149953500Y-91260000D01*
X152076496Y-91260000D01*
X152077186Y-91266565D01*
X152085556Y-91346197D01*
X152096458Y-91449928D01*
X152155473Y-91631556D01*
X152250960Y-91796944D01*
X152378747Y-91938866D01*
X152533248Y-92051118D01*
X152539276Y-92053802D01*
X152539278Y-92053803D01*
X152701681Y-92126109D01*
X152707712Y-92128794D01*
X152791318Y-92146565D01*
X152888056Y-92167128D01*
X152888061Y-92167128D01*
X152894513Y-92168500D01*
X153085487Y-92168500D01*
X153091939Y-92167128D01*
X153091944Y-92167128D01*
X153188682Y-92146565D01*
X153272288Y-92128794D01*
X153278319Y-92126109D01*
X153440722Y-92053803D01*
X153440724Y-92053802D01*
X153446752Y-92051118D01*
X153601253Y-91938866D01*
X153729040Y-91796944D01*
X153763576Y-91737126D01*
X153814957Y-91688134D01*
X153873680Y-91676815D01*
X153848236Y-91641084D01*
X153844858Y-91570168D01*
X153847473Y-91560937D01*
X153879901Y-91461134D01*
X153883542Y-91449928D01*
X153894445Y-91346197D01*
X153902814Y-91266565D01*
X153903504Y-91260000D01*
X153883542Y-91070072D01*
X153824527Y-90888444D01*
X153729040Y-90723056D01*
X153601253Y-90581134D01*
X153446752Y-90468882D01*
X153440724Y-90466198D01*
X153440722Y-90466197D01*
X153278319Y-90393891D01*
X153278318Y-90393891D01*
X153272288Y-90391206D01*
X153178888Y-90371353D01*
X153091944Y-90352872D01*
X153091939Y-90352872D01*
X153085487Y-90351500D01*
X152894513Y-90351500D01*
X152888061Y-90352872D01*
X152888056Y-90352872D01*
X152801113Y-90371353D01*
X152707712Y-90391206D01*
X152701682Y-90393891D01*
X152701681Y-90393891D01*
X152539278Y-90466197D01*
X152539276Y-90466198D01*
X152533248Y-90468882D01*
X152378747Y-90581134D01*
X152250960Y-90723056D01*
X152155473Y-90888444D01*
X152096458Y-91070072D01*
X152076496Y-91260000D01*
X149953500Y-91260000D01*
X149953500Y-88894594D01*
X149973502Y-88826473D01*
X149990405Y-88805499D01*
X150942247Y-87853657D01*
X150950537Y-87846113D01*
X150957018Y-87842000D01*
X151003659Y-87792332D01*
X151006413Y-87789491D01*
X151026135Y-87769769D01*
X151028612Y-87766576D01*
X151036317Y-87757555D01*
X151061159Y-87731100D01*
X151066586Y-87725321D01*
X151070407Y-87718371D01*
X151076346Y-87707568D01*
X151087202Y-87691041D01*
X151092072Y-87684763D01*
X151099613Y-87675041D01*
X151101639Y-87676612D01*
X151144354Y-87636728D01*
X151214205Y-87624022D01*
X151261800Y-87639651D01*
X151261874Y-87639496D01*
X151263061Y-87640065D01*
X151264491Y-87640534D01*
X151271000Y-87644338D01*
X151479692Y-87724030D01*
X151484760Y-87725061D01*
X151484763Y-87725062D01*
X151579297Y-87744295D01*
X151698597Y-87768567D01*
X151703772Y-87768757D01*
X151703774Y-87768757D01*
X151916673Y-87776564D01*
X151916677Y-87776564D01*
X151921837Y-87776753D01*
X151926957Y-87776097D01*
X151926959Y-87776097D01*
X152138288Y-87749025D01*
X152138289Y-87749025D01*
X152143416Y-87748368D01*
X152200973Y-87731100D01*
X152352429Y-87685661D01*
X152352434Y-87685659D01*
X152357384Y-87684174D01*
X152557994Y-87585896D01*
X152739860Y-87456173D01*
X152807331Y-87388938D01*
X152848479Y-87347933D01*
X152910851Y-87314017D01*
X152981658Y-87319205D01*
X153038419Y-87361851D01*
X153055401Y-87392954D01*
X153096676Y-87503054D01*
X153105214Y-87518649D01*
X153181715Y-87620724D01*
X153194276Y-87633285D01*
X153296351Y-87709786D01*
X153311946Y-87718324D01*
X153432394Y-87763478D01*
X153447649Y-87767105D01*
X153498514Y-87772631D01*
X153505328Y-87773000D01*
X154127885Y-87773000D01*
X154143124Y-87768525D01*
X154144329Y-87767135D01*
X154146000Y-87759452D01*
X154146000Y-85075116D01*
X154141525Y-85059877D01*
X154140135Y-85058672D01*
X154132452Y-85057001D01*
X153505331Y-85057001D01*
X153498510Y-85057371D01*
X153447648Y-85062895D01*
X153432396Y-85066521D01*
X153311946Y-85111676D01*
X153296351Y-85120214D01*
X153194276Y-85196715D01*
X153181715Y-85209276D01*
X153105214Y-85311351D01*
X153096676Y-85326946D01*
X153055297Y-85437322D01*
X153012655Y-85494087D01*
X152946093Y-85518786D01*
X152876744Y-85503578D01*
X152844121Y-85477891D01*
X152793151Y-85421876D01*
X152793148Y-85421873D01*
X152789670Y-85418051D01*
X152785619Y-85414852D01*
X152785615Y-85414848D01*
X152618414Y-85282800D01*
X152618410Y-85282798D01*
X152614359Y-85279598D01*
X152592089Y-85267304D01*
X152534537Y-85235534D01*
X152418789Y-85171638D01*
X152413920Y-85169914D01*
X152413916Y-85169912D01*
X152213087Y-85098795D01*
X152213083Y-85098794D01*
X152208212Y-85097069D01*
X152203119Y-85096162D01*
X152203116Y-85096161D01*
X151993373Y-85058800D01*
X151993367Y-85058799D01*
X151988284Y-85057894D01*
X151914452Y-85056992D01*
X151770081Y-85055228D01*
X151770079Y-85055228D01*
X151764911Y-85055165D01*
X151544091Y-85088955D01*
X151462815Y-85115520D01*
X151391854Y-85117671D01*
X151330992Y-85081116D01*
X151299555Y-85017458D01*
X151307525Y-84946910D01*
X151314553Y-84932755D01*
X151381223Y-84817279D01*
X151381224Y-84817278D01*
X151384527Y-84811556D01*
X151443542Y-84629928D01*
X151444942Y-84616613D01*
X151462814Y-84446565D01*
X151463504Y-84440000D01*
X151443542Y-84250072D01*
X151384527Y-84068444D01*
X151361624Y-84028774D01*
X151297753Y-83918148D01*
X151289040Y-83903056D01*
X151269302Y-83881134D01*
X151165675Y-83766045D01*
X151165674Y-83766044D01*
X151161253Y-83761134D01*
X151030584Y-83666197D01*
X151012094Y-83652763D01*
X151012093Y-83652762D01*
X151006752Y-83648882D01*
X151000724Y-83646198D01*
X151000722Y-83646197D01*
X150838319Y-83573891D01*
X150838318Y-83573891D01*
X150832288Y-83571206D01*
X150738888Y-83551353D01*
X150651944Y-83532872D01*
X150651939Y-83532872D01*
X150645487Y-83531500D01*
X150454513Y-83531500D01*
X150448061Y-83532872D01*
X150448056Y-83532872D01*
X150361112Y-83551353D01*
X150267712Y-83571206D01*
X150261682Y-83573891D01*
X150261681Y-83573891D01*
X150099278Y-83646197D01*
X150099276Y-83646198D01*
X150093248Y-83648882D01*
X150087907Y-83652762D01*
X150087906Y-83652763D01*
X150007179Y-83711415D01*
X149940311Y-83735273D01*
X149871160Y-83719193D01*
X149859057Y-83711415D01*
X149792094Y-83662763D01*
X149792093Y-83662762D01*
X149786752Y-83658882D01*
X149780724Y-83656198D01*
X149780722Y-83656197D01*
X149618319Y-83583891D01*
X149618318Y-83583891D01*
X149612288Y-83581206D01*
X149518888Y-83561353D01*
X149431944Y-83542872D01*
X149431939Y-83542872D01*
X149425487Y-83541500D01*
X149234513Y-83541500D01*
X149228061Y-83542872D01*
X149228056Y-83542872D01*
X149141112Y-83561353D01*
X149047712Y-83581206D01*
X149041682Y-83583891D01*
X149041681Y-83583891D01*
X148879278Y-83656197D01*
X148879276Y-83656198D01*
X148873248Y-83658882D01*
X148867907Y-83662762D01*
X148867906Y-83662763D01*
X148830646Y-83689834D01*
X148718747Y-83771134D01*
X148714326Y-83776044D01*
X148714325Y-83776045D01*
X148619703Y-83881134D01*
X148590960Y-83913056D01*
X148554852Y-83975597D01*
X148501247Y-84068444D01*
X148495473Y-84078444D01*
X148436458Y-84260072D01*
X148435768Y-84266633D01*
X148435768Y-84266635D01*
X148419093Y-84425292D01*
X148392080Y-84490949D01*
X148382878Y-84501218D01*
X148031603Y-84852492D01*
X147687742Y-85196353D01*
X147679463Y-85203887D01*
X147672982Y-85208000D01*
X147667554Y-85213780D01*
X147667553Y-85213781D01*
X147648400Y-85234177D01*
X147587187Y-85270143D01*
X147516247Y-85267304D01*
X147495657Y-85258233D01*
X147343316Y-85174137D01*
X147338789Y-85171638D01*
X147333920Y-85169914D01*
X147333916Y-85169912D01*
X147133087Y-85098795D01*
X147133083Y-85098794D01*
X147128212Y-85097069D01*
X147123119Y-85096162D01*
X147123116Y-85096161D01*
X146913373Y-85058800D01*
X146913367Y-85058799D01*
X146908284Y-85057894D01*
X146834452Y-85056992D01*
X146690081Y-85055228D01*
X146690079Y-85055228D01*
X146684911Y-85055165D01*
X146464091Y-85088955D01*
X146321733Y-85135485D01*
X146300157Y-85142537D01*
X146229193Y-85144688D01*
X146168332Y-85108132D01*
X146136895Y-85044475D01*
X146135934Y-85020085D01*
X146135702Y-85020092D01*
X146133562Y-84952002D01*
X146133500Y-84948044D01*
X146133500Y-84920144D01*
X146132996Y-84916153D01*
X146132063Y-84904311D01*
X146130923Y-84868036D01*
X146130674Y-84860111D01*
X146128462Y-84852497D01*
X146128461Y-84852492D01*
X146125023Y-84840659D01*
X146121012Y-84821295D01*
X146119467Y-84809064D01*
X146118474Y-84801203D01*
X146115557Y-84793836D01*
X146115556Y-84793831D01*
X146102198Y-84760092D01*
X146098354Y-84748865D01*
X146088230Y-84714022D01*
X146086018Y-84706407D01*
X146075707Y-84688972D01*
X146067012Y-84671224D01*
X146059552Y-84652383D01*
X146033564Y-84616613D01*
X146027048Y-84606693D01*
X146008580Y-84575465D01*
X146008578Y-84575462D01*
X146004542Y-84568638D01*
X145990221Y-84554317D01*
X145977380Y-84539283D01*
X145970132Y-84529307D01*
X145965472Y-84522893D01*
X145955414Y-84514572D01*
X145915676Y-84455738D01*
X145910420Y-84430658D01*
X145894232Y-84276635D01*
X145894232Y-84276633D01*
X145893542Y-84270072D01*
X145834527Y-84088444D01*
X145828754Y-84078444D01*
X145796775Y-84023056D01*
X145739040Y-83923056D01*
X145726181Y-83908774D01*
X145615675Y-83786045D01*
X145615674Y-83786044D01*
X145611253Y-83781134D01*
X145456752Y-83668882D01*
X145450724Y-83666198D01*
X145450722Y-83666197D01*
X145288319Y-83593891D01*
X145288318Y-83593891D01*
X145282288Y-83591206D01*
X145181741Y-83569834D01*
X145101944Y-83552872D01*
X145101939Y-83552872D01*
X145095487Y-83551500D01*
X144904513Y-83551500D01*
X144898061Y-83552872D01*
X144898056Y-83552872D01*
X144818259Y-83569834D01*
X144717712Y-83591206D01*
X144711682Y-83593891D01*
X144711681Y-83593891D01*
X144549278Y-83666197D01*
X144549276Y-83666198D01*
X144543248Y-83668882D01*
X144388747Y-83781134D01*
X144384326Y-83786044D01*
X144384325Y-83786045D01*
X144273820Y-83908774D01*
X144260960Y-83923056D01*
X144257659Y-83928774D01*
X144171247Y-84078444D01*
X144165473Y-84088444D01*
X144165391Y-84088697D01*
X144120935Y-84141001D01*
X144053008Y-84161651D01*
X143984699Y-84142299D01*
X143942688Y-84098657D01*
X143940421Y-84094729D01*
X143899040Y-84023056D01*
X143795577Y-83908148D01*
X143775675Y-83886045D01*
X143775674Y-83886044D01*
X143771253Y-83881134D01*
X143640375Y-83786045D01*
X143622094Y-83772763D01*
X143622093Y-83772762D01*
X143616752Y-83768882D01*
X143610724Y-83766198D01*
X143610722Y-83766197D01*
X143448319Y-83693891D01*
X143448318Y-83693891D01*
X143442288Y-83691206D01*
X143348887Y-83671353D01*
X143261944Y-83652872D01*
X143261939Y-83652872D01*
X143255487Y-83651500D01*
X143064513Y-83651500D01*
X143058061Y-83652872D01*
X143058056Y-83652872D01*
X142971113Y-83671353D01*
X142877712Y-83691206D01*
X142871682Y-83693891D01*
X142871681Y-83693891D01*
X142709278Y-83766197D01*
X142709276Y-83766198D01*
X142703248Y-83768882D01*
X142697907Y-83772762D01*
X142697906Y-83772763D01*
X142679625Y-83786045D01*
X142548747Y-83881134D01*
X142544326Y-83886044D01*
X142544325Y-83886045D01*
X142524424Y-83908148D01*
X142420960Y-84023056D01*
X142325473Y-84188444D01*
X142266458Y-84370072D01*
X142246496Y-84560000D01*
X142266458Y-84749928D01*
X142268498Y-84756206D01*
X142323054Y-84924110D01*
X142325473Y-84931556D01*
X142326155Y-84932737D01*
X142336500Y-84981408D01*
X142336500Y-85020871D01*
X142316498Y-85088992D01*
X142262842Y-85135485D01*
X142192568Y-85145589D01*
X142168440Y-85139644D01*
X142156696Y-85135485D01*
X142113572Y-85120214D01*
X142053087Y-85098795D01*
X142053083Y-85098794D01*
X142048212Y-85097069D01*
X142043119Y-85096162D01*
X142043116Y-85096161D01*
X141833373Y-85058800D01*
X141833367Y-85058799D01*
X141828284Y-85057894D01*
X141754452Y-85056992D01*
X141610081Y-85055228D01*
X141610079Y-85055228D01*
X141604911Y-85055165D01*
X141384091Y-85088955D01*
X141171756Y-85158357D01*
X141144079Y-85172765D01*
X141023501Y-85235534D01*
X140973607Y-85261507D01*
X140969474Y-85264610D01*
X140969471Y-85264612D01*
X140886450Y-85326946D01*
X140794965Y-85395635D01*
X140640629Y-85557138D01*
X140514743Y-85741680D01*
X140420688Y-85944305D01*
X140360989Y-86159570D01*
X140337251Y-86381695D01*
X134963500Y-86381695D01*
X134963500Y-81544594D01*
X134983502Y-81476473D01*
X135000405Y-81455499D01*
X135085499Y-81370405D01*
X135147811Y-81336379D01*
X135174594Y-81333500D01*
X136371233Y-81333500D01*
X136382416Y-81334027D01*
X136389909Y-81335702D01*
X136397835Y-81335453D01*
X136397836Y-81335453D01*
X136457986Y-81333562D01*
X136461945Y-81333500D01*
X136489856Y-81333500D01*
X136493791Y-81333003D01*
X136493856Y-81332995D01*
X136505693Y-81332062D01*
X136537951Y-81331048D01*
X136541970Y-81330922D01*
X136549889Y-81330673D01*
X136569343Y-81325021D01*
X136588700Y-81321013D01*
X136600931Y-81319468D01*
X136600933Y-81319468D01*
X136608797Y-81318474D01*
X136621255Y-81313541D01*
X136668001Y-81304694D01*
X147049832Y-81334721D01*
G37*
%TD.AperFunction*%
%TA.AperFunction,Conductor*%
G36*
X128991617Y-81282492D02*
G01*
X129370864Y-81283589D01*
X129438927Y-81303788D01*
X129485265Y-81357577D01*
X129496500Y-81409588D01*
X129496500Y-86235406D01*
X129476498Y-86303527D01*
X129459595Y-86324501D01*
X128336534Y-87447561D01*
X128274222Y-87481587D01*
X128203406Y-87476522D01*
X128146571Y-87433975D01*
X128121760Y-87367455D01*
X128121439Y-87358289D01*
X128122925Y-86303527D01*
X128129367Y-81729193D01*
X128149465Y-81661101D01*
X128161727Y-81645066D01*
X128169040Y-81636944D01*
X128227314Y-81536010D01*
X128261223Y-81477279D01*
X128261224Y-81477277D01*
X128264527Y-81471556D01*
X128298208Y-81367897D01*
X128338282Y-81309291D01*
X128403678Y-81281654D01*
X128418403Y-81280834D01*
X128991617Y-81282492D01*
G37*
%TD.AperFunction*%
%TD*%
%TA.AperFunction,Conductor*%
%TO.N,GND*%
G36*
X126612164Y-78840002D02*
G01*
X126658657Y-78893658D01*
X126670043Y-78945956D01*
X126670602Y-80564512D01*
X126653721Y-80627555D01*
X126595473Y-80728444D01*
X126536458Y-80910072D01*
X126516496Y-81100000D01*
X126536458Y-81289928D01*
X126595473Y-81471556D01*
X126598776Y-81477278D01*
X126598777Y-81477279D01*
X126654091Y-81573085D01*
X126670972Y-81636042D01*
X126671617Y-83504209D01*
X126678541Y-103561564D01*
X126679957Y-107664083D01*
X126659978Y-107732210D01*
X126606339Y-107778722D01*
X126554083Y-107790126D01*
X125249029Y-107791432D01*
X117329625Y-107799360D01*
X117261485Y-107779426D01*
X117214939Y-107725817D01*
X117203500Y-107673360D01*
X117203500Y-102166695D01*
X119092251Y-102166695D01*
X119092548Y-102171848D01*
X119092548Y-102171851D01*
X119098011Y-102266590D01*
X119105110Y-102389715D01*
X119106247Y-102394761D01*
X119106248Y-102394767D01*
X119126119Y-102482939D01*
X119154222Y-102607639D01*
X119238266Y-102814616D01*
X119289019Y-102897438D01*
X119352291Y-103000688D01*
X119354987Y-103005088D01*
X119501250Y-103173938D01*
X119673126Y-103316632D01*
X119866000Y-103429338D01*
X120074692Y-103509030D01*
X120079760Y-103510061D01*
X120079763Y-103510062D01*
X120187017Y-103531883D01*
X120293597Y-103553567D01*
X120298772Y-103553757D01*
X120298774Y-103553757D01*
X120511673Y-103561564D01*
X120511677Y-103561564D01*
X120516837Y-103561753D01*
X120521957Y-103561097D01*
X120521959Y-103561097D01*
X120733288Y-103534025D01*
X120733289Y-103534025D01*
X120738416Y-103533368D01*
X120743366Y-103531883D01*
X120947429Y-103470661D01*
X120947434Y-103470659D01*
X120952384Y-103469174D01*
X121152994Y-103370896D01*
X121334860Y-103241173D01*
X121493096Y-103083489D01*
X121552594Y-103000689D01*
X121623453Y-102902077D01*
X121624776Y-102903028D01*
X121671645Y-102859857D01*
X121741580Y-102847625D01*
X121807026Y-102875144D01*
X121834875Y-102906994D01*
X121894987Y-103005088D01*
X122041250Y-103173938D01*
X122213126Y-103316632D01*
X122406000Y-103429338D01*
X122614692Y-103509030D01*
X122619760Y-103510061D01*
X122619763Y-103510062D01*
X122727017Y-103531883D01*
X122833597Y-103553567D01*
X122838772Y-103553757D01*
X122838774Y-103553757D01*
X123051673Y-103561564D01*
X123051677Y-103561564D01*
X123056837Y-103561753D01*
X123061957Y-103561097D01*
X123061959Y-103561097D01*
X123273288Y-103534025D01*
X123273289Y-103534025D01*
X123278416Y-103533368D01*
X123283366Y-103531883D01*
X123487429Y-103470661D01*
X123487434Y-103470659D01*
X123492384Y-103469174D01*
X123692994Y-103370896D01*
X123874860Y-103241173D01*
X124033096Y-103083489D01*
X124092594Y-103000689D01*
X124160435Y-102906277D01*
X124163453Y-102902077D01*
X124184320Y-102859857D01*
X124260136Y-102706453D01*
X124260137Y-102706451D01*
X124262430Y-102701811D01*
X124327370Y-102488069D01*
X124356529Y-102266590D01*
X124358156Y-102200000D01*
X124339852Y-101977361D01*
X124285431Y-101760702D01*
X124196354Y-101555840D01*
X124075014Y-101368277D01*
X123924670Y-101203051D01*
X123920619Y-101199852D01*
X123920615Y-101199848D01*
X123753414Y-101067800D01*
X123753410Y-101067798D01*
X123749359Y-101064598D01*
X123707569Y-101041529D01*
X123657598Y-100991097D01*
X123642826Y-100921654D01*
X123667942Y-100855248D01*
X123695293Y-100828642D01*
X123744247Y-100793723D01*
X123752648Y-100783023D01*
X123745660Y-100769870D01*
X123007812Y-100032022D01*
X122993868Y-100024408D01*
X122992035Y-100024539D01*
X122985420Y-100028790D01*
X122241737Y-100772473D01*
X122234977Y-100784853D01*
X122240258Y-100791907D01*
X122286969Y-100819203D01*
X122335693Y-100870841D01*
X122348764Y-100940624D01*
X122322033Y-101006396D01*
X122281584Y-101039752D01*
X122268607Y-101046507D01*
X122264474Y-101049610D01*
X122264471Y-101049612D01*
X122240247Y-101067800D01*
X122089965Y-101180635D01*
X121935629Y-101342138D01*
X121828201Y-101499621D01*
X121773293Y-101544621D01*
X121702768Y-101552792D01*
X121639021Y-101521538D01*
X121618324Y-101497054D01*
X121537822Y-101372617D01*
X121537820Y-101372614D01*
X121535014Y-101368277D01*
X121384670Y-101203051D01*
X121380619Y-101199852D01*
X121380615Y-101199848D01*
X121213414Y-101067800D01*
X121213410Y-101067798D01*
X121209359Y-101064598D01*
X121168053Y-101041796D01*
X121118084Y-100991364D01*
X121103312Y-100921921D01*
X121128428Y-100855516D01*
X121155780Y-100828909D01*
X121220110Y-100783023D01*
X121334860Y-100701173D01*
X121493096Y-100543489D01*
X121552594Y-100460689D01*
X121623453Y-100362077D01*
X121624640Y-100362930D01*
X121671960Y-100319362D01*
X121741897Y-100307145D01*
X121807338Y-100334678D01*
X121835166Y-100366512D01*
X121861459Y-100409419D01*
X121871916Y-100418880D01*
X121880694Y-100415096D01*
X122622978Y-99672812D01*
X122629356Y-99661132D01*
X123359408Y-99661132D01*
X123359539Y-99662965D01*
X123363790Y-99669580D01*
X124105474Y-100411264D01*
X124117484Y-100417823D01*
X124129223Y-100408855D01*
X124160004Y-100366019D01*
X124165315Y-100357180D01*
X124259670Y-100166267D01*
X124263469Y-100156672D01*
X124325376Y-99952915D01*
X124327555Y-99942834D01*
X124355590Y-99729887D01*
X124356109Y-99723212D01*
X124357572Y-99663364D01*
X124357378Y-99656646D01*
X124339781Y-99442604D01*
X124338096Y-99432424D01*
X124286214Y-99225875D01*
X124282894Y-99216124D01*
X124197972Y-99020814D01*
X124193105Y-99011739D01*
X124128063Y-98911197D01*
X124117377Y-98901995D01*
X124107812Y-98906398D01*
X123367022Y-99647188D01*
X123359408Y-99661132D01*
X122629356Y-99661132D01*
X122630592Y-99658868D01*
X122630461Y-99657035D01*
X122626210Y-99650420D01*
X121884849Y-98909059D01*
X121873313Y-98902759D01*
X121861031Y-98912382D01*
X121828499Y-98960072D01*
X121773587Y-99005075D01*
X121703063Y-99013246D01*
X121639316Y-98981992D01*
X121618618Y-98957508D01*
X121537822Y-98832617D01*
X121537820Y-98832614D01*
X121535014Y-98828277D01*
X121384670Y-98663051D01*
X121380619Y-98659852D01*
X121380615Y-98659848D01*
X121213414Y-98527800D01*
X121213410Y-98527798D01*
X121209359Y-98524598D01*
X121168053Y-98501796D01*
X121118084Y-98451364D01*
X121103312Y-98381921D01*
X121128428Y-98315516D01*
X121155780Y-98288909D01*
X121199603Y-98257650D01*
X121334860Y-98161173D01*
X121493096Y-98003489D01*
X121552594Y-97920689D01*
X121623453Y-97822077D01*
X121624776Y-97823028D01*
X121671645Y-97779857D01*
X121741580Y-97767625D01*
X121807026Y-97795144D01*
X121834875Y-97826994D01*
X121894987Y-97925088D01*
X122041250Y-98093938D01*
X122213126Y-98236632D01*
X122286445Y-98279476D01*
X122286955Y-98279774D01*
X122335679Y-98331412D01*
X122348750Y-98401195D01*
X122322019Y-98466967D01*
X122281562Y-98500327D01*
X122273460Y-98504544D01*
X122264734Y-98510039D01*
X122244677Y-98525099D01*
X122236223Y-98536427D01*
X122242968Y-98548758D01*
X122982188Y-99287978D01*
X122996132Y-99295592D01*
X122997965Y-99295461D01*
X123004580Y-99291210D01*
X123748389Y-98547401D01*
X123755410Y-98534544D01*
X123748611Y-98525213D01*
X123744559Y-98522521D01*
X123707602Y-98502120D01*
X123657631Y-98451687D01*
X123642859Y-98382245D01*
X123667975Y-98315839D01*
X123695327Y-98289232D01*
X123718797Y-98272491D01*
X123874860Y-98161173D01*
X124033096Y-98003489D01*
X124092594Y-97920689D01*
X124160435Y-97826277D01*
X124163453Y-97822077D01*
X124184320Y-97779857D01*
X124260136Y-97626453D01*
X124260137Y-97626451D01*
X124262430Y-97621811D01*
X124327370Y-97408069D01*
X124356529Y-97186590D01*
X124358156Y-97120000D01*
X124339852Y-96897361D01*
X124285431Y-96680702D01*
X124196354Y-96475840D01*
X124075014Y-96288277D01*
X123924670Y-96123051D01*
X123920619Y-96119852D01*
X123920615Y-96119848D01*
X123753414Y-95987800D01*
X123753410Y-95987798D01*
X123749359Y-95984598D01*
X123708053Y-95961796D01*
X123658084Y-95911364D01*
X123643312Y-95841921D01*
X123668428Y-95775516D01*
X123695780Y-95748909D01*
X123739603Y-95717650D01*
X123874860Y-95621173D01*
X124033096Y-95463489D01*
X124092594Y-95380689D01*
X124160435Y-95286277D01*
X124163453Y-95282077D01*
X124184320Y-95239857D01*
X124260136Y-95086453D01*
X124260137Y-95086451D01*
X124262430Y-95081811D01*
X124327370Y-94868069D01*
X124356529Y-94646590D01*
X124358156Y-94580000D01*
X124339852Y-94357361D01*
X124285431Y-94140702D01*
X124196354Y-93935840D01*
X124075014Y-93748277D01*
X123924670Y-93583051D01*
X123920619Y-93579852D01*
X123920615Y-93579848D01*
X123753414Y-93447800D01*
X123753410Y-93447798D01*
X123749359Y-93444598D01*
X123708053Y-93421796D01*
X123658084Y-93371364D01*
X123643312Y-93301921D01*
X123668428Y-93235516D01*
X123695780Y-93208909D01*
X123739603Y-93177650D01*
X123874860Y-93081173D01*
X124033096Y-92923489D01*
X124092594Y-92840689D01*
X124160435Y-92746277D01*
X124163453Y-92742077D01*
X124184320Y-92699857D01*
X124260136Y-92546453D01*
X124260137Y-92546451D01*
X124262430Y-92541811D01*
X124327370Y-92328069D01*
X124356529Y-92106590D01*
X124358156Y-92040000D01*
X124339852Y-91817361D01*
X124285431Y-91600702D01*
X124196354Y-91395840D01*
X124075014Y-91208277D01*
X123924670Y-91043051D01*
X123920619Y-91039852D01*
X123920615Y-91039848D01*
X123753414Y-90907800D01*
X123753410Y-90907798D01*
X123749359Y-90904598D01*
X123708053Y-90881796D01*
X123658084Y-90831364D01*
X123643312Y-90761921D01*
X123668428Y-90695516D01*
X123695780Y-90668909D01*
X123739603Y-90637650D01*
X123874860Y-90541173D01*
X124033096Y-90383489D01*
X124092594Y-90300689D01*
X124160435Y-90206277D01*
X124163453Y-90202077D01*
X124184320Y-90159857D01*
X124260136Y-90006453D01*
X124260137Y-90006451D01*
X124262430Y-90001811D01*
X124327370Y-89788069D01*
X124356529Y-89566590D01*
X124358156Y-89500000D01*
X124339852Y-89277361D01*
X124285431Y-89060702D01*
X124196354Y-88855840D01*
X124075014Y-88668277D01*
X123924670Y-88503051D01*
X123920619Y-88499852D01*
X123920615Y-88499848D01*
X123753414Y-88367800D01*
X123753410Y-88367798D01*
X123749359Y-88364598D01*
X123708053Y-88341796D01*
X123658084Y-88291364D01*
X123643312Y-88221921D01*
X123668428Y-88155516D01*
X123695780Y-88128909D01*
X123739603Y-88097650D01*
X123874860Y-88001173D01*
X124033096Y-87843489D01*
X124092594Y-87760689D01*
X124160435Y-87666277D01*
X124163453Y-87662077D01*
X124184320Y-87619857D01*
X124260136Y-87466453D01*
X124260137Y-87466451D01*
X124262430Y-87461811D01*
X124327370Y-87248069D01*
X124356529Y-87026590D01*
X124358156Y-86960000D01*
X124339852Y-86737361D01*
X124285431Y-86520702D01*
X124196354Y-86315840D01*
X124075014Y-86128277D01*
X123924670Y-85963051D01*
X123920616Y-85959849D01*
X123920615Y-85959848D01*
X123753414Y-85827800D01*
X123753410Y-85827798D01*
X123749359Y-85824598D01*
X123707569Y-85801529D01*
X123657598Y-85751097D01*
X123642826Y-85681654D01*
X123667942Y-85615248D01*
X123695293Y-85588642D01*
X123744247Y-85553723D01*
X123752648Y-85543023D01*
X123745660Y-85529870D01*
X123007812Y-84792022D01*
X122993868Y-84784408D01*
X122992035Y-84784539D01*
X122985420Y-84788790D01*
X122241737Y-85532473D01*
X122234977Y-85544853D01*
X122240258Y-85551907D01*
X122286969Y-85579203D01*
X122335693Y-85630841D01*
X122348764Y-85700624D01*
X122322033Y-85766396D01*
X122281584Y-85799752D01*
X122268607Y-85806507D01*
X122264474Y-85809610D01*
X122264471Y-85809612D01*
X122094100Y-85937530D01*
X122089965Y-85940635D01*
X121935629Y-86102138D01*
X121828201Y-86259621D01*
X121773293Y-86304621D01*
X121702768Y-86312792D01*
X121639021Y-86281538D01*
X121618324Y-86257054D01*
X121537822Y-86132617D01*
X121537820Y-86132614D01*
X121535014Y-86128277D01*
X121384670Y-85963051D01*
X121342006Y-85929357D01*
X121300944Y-85871441D01*
X121297712Y-85800518D01*
X121333337Y-85739107D01*
X121366647Y-85716376D01*
X121372007Y-85713865D01*
X121378946Y-85711550D01*
X121529348Y-85618478D01*
X121654305Y-85493303D01*
X121747115Y-85342738D01*
X121771913Y-85267975D01*
X121812342Y-85209616D01*
X121841630Y-85191934D01*
X121880694Y-85175096D01*
X122622978Y-84432812D01*
X122629356Y-84421132D01*
X123359408Y-84421132D01*
X123359539Y-84422965D01*
X123363790Y-84429580D01*
X124105474Y-85171264D01*
X124117484Y-85177823D01*
X124129223Y-85168855D01*
X124160004Y-85126019D01*
X124165315Y-85117180D01*
X124259670Y-84926267D01*
X124263469Y-84916672D01*
X124325376Y-84712915D01*
X124327555Y-84702834D01*
X124355590Y-84489887D01*
X124356109Y-84483212D01*
X124357572Y-84423364D01*
X124357378Y-84416646D01*
X124339781Y-84202604D01*
X124338096Y-84192424D01*
X124286214Y-83985875D01*
X124282894Y-83976124D01*
X124197972Y-83780814D01*
X124193105Y-83771739D01*
X124128063Y-83671197D01*
X124117377Y-83661995D01*
X124107812Y-83666398D01*
X123367022Y-84407188D01*
X123359408Y-84421132D01*
X122629356Y-84421132D01*
X122630592Y-84418868D01*
X122630461Y-84417035D01*
X122626210Y-84410420D01*
X121884849Y-83669059D01*
X121844510Y-83647031D01*
X121831523Y-83644206D01*
X121781322Y-83594003D01*
X121772388Y-83573497D01*
X121748870Y-83503007D01*
X121748869Y-83503005D01*
X121746550Y-83496054D01*
X121653478Y-83345652D01*
X121604167Y-83296427D01*
X122236223Y-83296427D01*
X122242968Y-83308758D01*
X122982188Y-84047978D01*
X122996132Y-84055592D01*
X122997965Y-84055461D01*
X123004580Y-84051210D01*
X123748389Y-83307401D01*
X123755410Y-83294544D01*
X123748611Y-83285213D01*
X123744554Y-83282518D01*
X123558117Y-83179599D01*
X123548705Y-83175369D01*
X123347959Y-83104280D01*
X123337989Y-83101646D01*
X123128327Y-83064301D01*
X123118073Y-83063331D01*
X122905116Y-83060728D01*
X122894832Y-83061448D01*
X122684321Y-83093661D01*
X122674293Y-83096050D01*
X122471868Y-83162212D01*
X122462359Y-83166209D01*
X122273466Y-83264540D01*
X122264734Y-83270039D01*
X122244677Y-83285099D01*
X122236223Y-83296427D01*
X121604167Y-83296427D01*
X121528303Y-83220695D01*
X121522072Y-83216854D01*
X121383968Y-83131725D01*
X121383966Y-83131724D01*
X121377738Y-83127885D01*
X121217254Y-83074655D01*
X121216389Y-83074368D01*
X121216387Y-83074368D01*
X121209861Y-83072203D01*
X121203025Y-83071503D01*
X121203022Y-83071502D01*
X121159969Y-83067091D01*
X121105400Y-83061500D01*
X119804600Y-83061500D01*
X119801354Y-83061837D01*
X119801350Y-83061837D01*
X119705692Y-83071762D01*
X119705688Y-83071763D01*
X119698834Y-83072474D01*
X119692298Y-83074655D01*
X119692296Y-83074655D01*
X119635329Y-83093661D01*
X119531054Y-83128450D01*
X119380652Y-83221522D01*
X119255695Y-83346697D01*
X119162885Y-83497262D01*
X119107203Y-83665139D01*
X119096500Y-83769600D01*
X119096500Y-85070400D01*
X119096837Y-85073646D01*
X119096837Y-85073650D01*
X119101354Y-85117180D01*
X119107474Y-85176166D01*
X119109655Y-85182702D01*
X119109655Y-85182704D01*
X119118634Y-85209616D01*
X119163450Y-85343946D01*
X119256522Y-85494348D01*
X119381697Y-85619305D01*
X119387927Y-85623145D01*
X119387928Y-85623146D01*
X119405464Y-85633955D01*
X119532262Y-85712115D01*
X119539209Y-85714419D01*
X119541276Y-85715383D01*
X119594561Y-85762299D01*
X119614023Y-85830576D01*
X119593482Y-85898536D01*
X119563681Y-85930337D01*
X119549965Y-85940635D01*
X119395629Y-86102138D01*
X119269743Y-86286680D01*
X119175688Y-86489305D01*
X119115989Y-86704570D01*
X119092251Y-86926695D01*
X119092548Y-86931848D01*
X119092548Y-86931851D01*
X119098011Y-87026590D01*
X119105110Y-87149715D01*
X119106247Y-87154761D01*
X119106248Y-87154767D01*
X119126119Y-87242939D01*
X119154222Y-87367639D01*
X119238266Y-87574616D01*
X119289019Y-87657438D01*
X119352291Y-87760688D01*
X119354987Y-87765088D01*
X119501250Y-87933938D01*
X119673126Y-88076632D01*
X119743595Y-88117811D01*
X119746445Y-88119476D01*
X119795169Y-88171114D01*
X119808240Y-88240897D01*
X119781509Y-88306669D01*
X119741055Y-88340027D01*
X119728607Y-88346507D01*
X119724474Y-88349610D01*
X119724471Y-88349612D01*
X119700247Y-88367800D01*
X119549965Y-88480635D01*
X119395629Y-88642138D01*
X119269743Y-88826680D01*
X119175688Y-89029305D01*
X119115989Y-89244570D01*
X119092251Y-89466695D01*
X119092548Y-89471848D01*
X119092548Y-89471851D01*
X119098011Y-89566590D01*
X119105110Y-89689715D01*
X119106247Y-89694761D01*
X119106248Y-89694767D01*
X119126119Y-89782939D01*
X119154222Y-89907639D01*
X119238266Y-90114616D01*
X119289019Y-90197438D01*
X119352291Y-90300688D01*
X119354987Y-90305088D01*
X119501250Y-90473938D01*
X119673126Y-90616632D01*
X119743595Y-90657811D01*
X119746445Y-90659476D01*
X119795169Y-90711114D01*
X119808240Y-90780897D01*
X119781509Y-90846669D01*
X119741055Y-90880027D01*
X119728607Y-90886507D01*
X119724474Y-90889610D01*
X119724471Y-90889612D01*
X119700247Y-90907800D01*
X119549965Y-91020635D01*
X119395629Y-91182138D01*
X119269743Y-91366680D01*
X119175688Y-91569305D01*
X119115989Y-91784570D01*
X119092251Y-92006695D01*
X119092548Y-92011848D01*
X119092548Y-92011851D01*
X119098011Y-92106590D01*
X119105110Y-92229715D01*
X119106247Y-92234761D01*
X119106248Y-92234767D01*
X119126119Y-92322939D01*
X119154222Y-92447639D01*
X119238266Y-92654616D01*
X119289019Y-92737438D01*
X119352291Y-92840688D01*
X119354987Y-92845088D01*
X119501250Y-93013938D01*
X119673126Y-93156632D01*
X119743595Y-93197811D01*
X119746445Y-93199476D01*
X119795169Y-93251114D01*
X119808240Y-93320897D01*
X119781509Y-93386669D01*
X119741055Y-93420027D01*
X119728607Y-93426507D01*
X119724474Y-93429610D01*
X119724471Y-93429612D01*
X119700247Y-93447800D01*
X119549965Y-93560635D01*
X119395629Y-93722138D01*
X119269743Y-93906680D01*
X119175688Y-94109305D01*
X119115989Y-94324570D01*
X119092251Y-94546695D01*
X119092548Y-94551848D01*
X119092548Y-94551851D01*
X119098011Y-94646590D01*
X119105110Y-94769715D01*
X119106247Y-94774761D01*
X119106248Y-94774767D01*
X119126119Y-94862939D01*
X119154222Y-94987639D01*
X119238266Y-95194616D01*
X119289019Y-95277438D01*
X119352291Y-95380688D01*
X119354987Y-95385088D01*
X119501250Y-95553938D01*
X119673126Y-95696632D01*
X119743595Y-95737811D01*
X119746445Y-95739476D01*
X119795169Y-95791114D01*
X119808240Y-95860897D01*
X119781509Y-95926669D01*
X119741055Y-95960027D01*
X119728607Y-95966507D01*
X119724474Y-95969610D01*
X119724471Y-95969612D01*
X119700247Y-95987800D01*
X119549965Y-96100635D01*
X119395629Y-96262138D01*
X119269743Y-96446680D01*
X119175688Y-96649305D01*
X119115989Y-96864570D01*
X119092251Y-97086695D01*
X119092548Y-97091848D01*
X119092548Y-97091851D01*
X119098011Y-97186590D01*
X119105110Y-97309715D01*
X119106247Y-97314761D01*
X119106248Y-97314767D01*
X119126119Y-97402939D01*
X119154222Y-97527639D01*
X119238266Y-97734616D01*
X119289019Y-97817438D01*
X119352291Y-97920688D01*
X119354987Y-97925088D01*
X119501250Y-98093938D01*
X119673126Y-98236632D01*
X119743595Y-98277811D01*
X119746445Y-98279476D01*
X119795169Y-98331114D01*
X119808240Y-98400897D01*
X119781509Y-98466669D01*
X119741055Y-98500027D01*
X119728607Y-98506507D01*
X119724474Y-98509610D01*
X119724471Y-98509612D01*
X119554100Y-98637530D01*
X119549965Y-98640635D01*
X119395629Y-98802138D01*
X119269743Y-98986680D01*
X119175688Y-99189305D01*
X119115989Y-99404570D01*
X119092251Y-99626695D01*
X119092548Y-99631848D01*
X119092548Y-99631851D01*
X119094910Y-99672812D01*
X119105110Y-99849715D01*
X119106247Y-99854761D01*
X119106248Y-99854767D01*
X119127275Y-99948069D01*
X119154222Y-100067639D01*
X119238266Y-100274616D01*
X119354987Y-100465088D01*
X119501250Y-100633938D01*
X119673126Y-100776632D01*
X119684063Y-100783023D01*
X119746445Y-100819476D01*
X119795169Y-100871114D01*
X119808240Y-100940897D01*
X119781509Y-101006669D01*
X119741055Y-101040027D01*
X119728607Y-101046507D01*
X119724474Y-101049610D01*
X119724471Y-101049612D01*
X119700247Y-101067800D01*
X119549965Y-101180635D01*
X119395629Y-101342138D01*
X119269743Y-101526680D01*
X119175688Y-101729305D01*
X119115989Y-101944570D01*
X119092251Y-102166695D01*
X117203500Y-102166695D01*
X117203500Y-78946000D01*
X117223502Y-78877879D01*
X117277158Y-78831386D01*
X117329500Y-78820000D01*
X126544043Y-78820000D01*
X126612164Y-78840002D01*
G37*
%TD.AperFunction*%
%TD*%
M02*
