M48
; DRILL file {KiCad 6.0.11+dfsg-1~bpo11+1} date Mon 15 May 2023 10:52:38 CEST
; FORMAT={-:-/ absolute / metric / decimal}
; #@! TF.CreationDate,2023-05-15T10:52:38+02:00
; #@! TF.GenerationSoftware,Kicad,Pcbnew,6.0.11+dfsg-1~bpo11+1
; #@! TF.FileFunction,Plated,1,4,PTH
FMAT,2
METRIC
; #@! TA.AperFunction,Plated,PTH,ViaDrill
T1C0.400
; #@! TA.AperFunction,Plated,PTH,ComponentDrill
T2C1.000
%
G90
G05
T1
X119.42Y-76.76
X122.63Y-67.27
X123.05Y-118.71
X123.21Y-111.52
X124.61Y-111.54
X127.43Y-81.1
X128.84Y-82.81
X129.53Y-104.92
X130.14Y-89.04
X130.16Y-91.62
X130.31Y-73.68
X130.565Y-97.275
X131.78Y-84.61
X132.27Y-103.43
X132.57Y-92.95
X132.79Y-110.98
X132.91Y-74.81
X133.26Y-105.94
X133.92Y-78.33
X134.874Y-100.09
X135.21Y-92.96
X135.44Y-84.4
X135.69Y-88.99
X136.04Y-111.03
X136.05Y-104.93
X136.77Y-100.59
X136.91Y-79.28
X140.79Y-89.73
X140.81Y-92.98
X140.96Y-84.28
X142.14Y-103.44
X142.42Y-75.914
X143.05Y-104.57
X143.16Y-84.56
X143.74Y-79.2
X144.98Y-79.23
X145.0Y-84.46
X145.58Y-105.44
X146.26Y-84.47
X146.81Y-104.45
X148.02Y-81.1
X148.08Y-105.48
X148.76Y-112.56
X149.29Y-79.23
X149.32Y-103.32
X149.33Y-84.45
X149.44Y-75.05
X150.55Y-84.44
X150.57Y-79.25
X150.64Y-105.67
X152.23Y-105.33
X152.3Y-104.1
X152.99Y-91.26
X153.17Y-100.63
X154.65Y-96.51
X154.85Y-92.14
X155.18Y-100.72
X156.52Y-97.27
X157.72Y-74.08
X160.43Y-83.35
X161.36Y-78.23
X161.65Y-75.02
X162.34Y-89.52
T2
X120.455Y-84.42
X120.455Y-86.96
X120.455Y-89.5
X120.455Y-92.04
X120.455Y-94.58
X120.455Y-97.12
X120.455Y-99.66
X120.455Y-102.2
X122.995Y-84.42
X122.995Y-86.96
X122.995Y-89.5
X122.995Y-92.04
X122.995Y-94.58
X122.995Y-97.12
X122.995Y-99.66
X122.995Y-102.2
X134.79Y-114.12
X134.79Y-116.66
X134.805Y-70.087
X134.805Y-72.627
X137.33Y-114.12
X137.33Y-116.66
X137.345Y-70.087
X137.345Y-72.627
X139.87Y-114.12
X139.87Y-116.66
X139.885Y-70.087
X139.885Y-72.627
X141.7Y-86.415
X142.41Y-114.12
X142.41Y-116.66
X142.425Y-70.087
X142.425Y-72.627
X144.24Y-86.415
X144.95Y-114.12
X144.95Y-116.66
X144.965Y-70.087
X144.965Y-72.627
X146.78Y-86.415
X147.49Y-114.12
X147.49Y-116.66
X147.505Y-70.087
X147.505Y-72.627
X149.32Y-86.415
X150.03Y-114.12
X150.03Y-116.66
X150.045Y-70.087
X150.045Y-72.627
X151.86Y-86.415
X152.57Y-114.12
X152.57Y-116.66
X152.585Y-70.087
X152.585Y-72.627
X154.4Y-86.415
X160.155Y-68.84
X160.255Y-110.72
X160.255Y-113.26
X160.255Y-115.8
X160.255Y-118.34
X162.695Y-68.84
X162.795Y-110.72
X162.795Y-113.26
X162.795Y-115.8
X162.795Y-118.34
X164.445Y-84.44
X164.445Y-86.98
X164.445Y-89.52
X164.445Y-92.06
X164.445Y-94.6
X164.445Y-97.14
X164.445Y-99.68
X164.445Y-102.22
X166.985Y-84.44
X166.985Y-86.98
X166.985Y-89.52
X166.985Y-92.06
X166.985Y-94.6
X166.985Y-97.14
X166.985Y-99.68
X166.985Y-102.22
T0
M30
