%TF.GenerationSoftware,KiCad,Pcbnew,6.0.11+dfsg-1~bpo11+1*%
%TF.CreationDate,2023-05-15T10:52:36+02:00*%
%TF.ProjectId,avert_12,61766572-745f-4313-922e-6b696361645f,rev?*%
%TF.SameCoordinates,Original*%
%TF.FileFunction,Drillmap*%
%TF.FilePolarity,Positive*%
%FSLAX45Y45*%
G04 Gerber Fmt 4.5, Leading zero omitted, Abs format (unit mm)*
G04 Created by KiCad (PCBNEW 6.0.11+dfsg-1~bpo11+1) date 2023-05-15 10:52:36*
%MOMM*%
%LPD*%
G01*
G04 APERTURE LIST*
%ADD10C,0.100000*%
%ADD11C,0.200000*%
G04 APERTURE END LIST*
D10*
X12119500Y-6934000D02*
G75*
G03*
X12119500Y-6934000I-150000J0D01*
G01*
X11669500Y-12034000D02*
X17069500Y-12034000D01*
X17069500Y-12034000D02*
X17069500Y-6634000D01*
X17069500Y-6634000D02*
X11669500Y-6634000D01*
X11669500Y-6634000D02*
X11669500Y-12034000D01*
X16919500Y-11734000D02*
G75*
G03*
X16919500Y-11734000I-150000J0D01*
G01*
X16919500Y-6934000D02*
G75*
G03*
X16919500Y-6934000I-150000J0D01*
G01*
X12119500Y-11734000D02*
G75*
G03*
X12119500Y-11734000I-150000J0D01*
G01*
D11*
X11922119Y-12349476D02*
X11922119Y-12149476D01*
X11969738Y-12149476D01*
X11998309Y-12159000D01*
X12017357Y-12178048D01*
X12026881Y-12197095D01*
X12036405Y-12235190D01*
X12036405Y-12263762D01*
X12026881Y-12301857D01*
X12017357Y-12320905D01*
X11998309Y-12339952D01*
X11969738Y-12349476D01*
X11922119Y-12349476D01*
X12122119Y-12349476D02*
X12122119Y-12216143D01*
X12122119Y-12254238D02*
X12131643Y-12235190D01*
X12141167Y-12225667D01*
X12160214Y-12216143D01*
X12179262Y-12216143D01*
X12245928Y-12349476D02*
X12245928Y-12216143D01*
X12245928Y-12149476D02*
X12236405Y-12159000D01*
X12245928Y-12168524D01*
X12255452Y-12159000D01*
X12245928Y-12149476D01*
X12245928Y-12168524D01*
X12369738Y-12349476D02*
X12350690Y-12339952D01*
X12341167Y-12320905D01*
X12341167Y-12149476D01*
X12474500Y-12349476D02*
X12455452Y-12339952D01*
X12445928Y-12320905D01*
X12445928Y-12149476D01*
X12703071Y-12349476D02*
X12703071Y-12149476D01*
X12769738Y-12292333D01*
X12836405Y-12149476D01*
X12836405Y-12349476D01*
X13017357Y-12349476D02*
X13017357Y-12244714D01*
X13007833Y-12225667D01*
X12988786Y-12216143D01*
X12950690Y-12216143D01*
X12931643Y-12225667D01*
X13017357Y-12339952D02*
X12998309Y-12349476D01*
X12950690Y-12349476D01*
X12931643Y-12339952D01*
X12922119Y-12320905D01*
X12922119Y-12301857D01*
X12931643Y-12282809D01*
X12950690Y-12273286D01*
X12998309Y-12273286D01*
X13017357Y-12263762D01*
X13112595Y-12216143D02*
X13112595Y-12416143D01*
X13112595Y-12225667D02*
X13131643Y-12216143D01*
X13169738Y-12216143D01*
X13188786Y-12225667D01*
X13198309Y-12235190D01*
X13207833Y-12254238D01*
X13207833Y-12311381D01*
X13198309Y-12330428D01*
X13188786Y-12339952D01*
X13169738Y-12349476D01*
X13131643Y-12349476D01*
X13112595Y-12339952D01*
X13293548Y-12330428D02*
X13303071Y-12339952D01*
X13293548Y-12349476D01*
X13284024Y-12339952D01*
X13293548Y-12330428D01*
X13293548Y-12349476D01*
X13293548Y-12225667D02*
X13303071Y-12235190D01*
X13293548Y-12244714D01*
X13284024Y-12235190D01*
X13293548Y-12225667D01*
X13293548Y-12244714D01*
M02*
