%TF.GenerationSoftware,KiCad,Pcbnew,6.0.11+dfsg-1~bpo11+1*%
%TF.CreationDate,2023-05-15T10:52:48+02:00*%
%TF.ProjectId,avert_12,61766572-745f-4313-922e-6b696361645f,rev?*%
%TF.SameCoordinates,Original*%
%TF.FileFunction,Legend,Bot*%
%TF.FilePolarity,Positive*%
%FSLAX46Y46*%
G04 Gerber Fmt 4.6, Leading zero omitted, Abs format (unit mm)*
G04 Created by KiCad (PCBNEW 6.0.11+dfsg-1~bpo11+1) date 2023-05-15 10:52:48*
%MOMM*%
%LPD*%
G01*
G04 APERTURE LIST*
%ADD10C,0.150000*%
%ADD11C,0.100000*%
%ADD12C,0.600000*%
%ADD13C,0.300000*%
%ADD14C,0.120000*%
%ADD15C,0.010000*%
G04 APERTURE END LIST*
D10*
X138374285Y-75547619D02*
X138040952Y-76023809D01*
X137802857Y-75547619D02*
X137802857Y-76547619D01*
X138183809Y-76547619D01*
X138279047Y-76500000D01*
X138326666Y-76452380D01*
X138374285Y-76357142D01*
X138374285Y-76214285D01*
X138326666Y-76119047D01*
X138279047Y-76071428D01*
X138183809Y-76023809D01*
X137802857Y-76023809D01*
X138802857Y-75547619D02*
X138802857Y-76547619D01*
X139612380Y-76071428D02*
X139755238Y-76023809D01*
X139802857Y-75976190D01*
X139850476Y-75880952D01*
X139850476Y-75738095D01*
X139802857Y-75642857D01*
X139755238Y-75595238D01*
X139660000Y-75547619D01*
X139279047Y-75547619D01*
X139279047Y-76547619D01*
X139612380Y-76547619D01*
X139707619Y-76500000D01*
X139755238Y-76452380D01*
X139802857Y-76357142D01*
X139802857Y-76261904D01*
X139755238Y-76166666D01*
X139707619Y-76119047D01*
X139612380Y-76071428D01*
X139279047Y-76071428D01*
X141755238Y-76595238D02*
X140898095Y-75309523D01*
X143421904Y-75642857D02*
X143374285Y-75595238D01*
X143231428Y-75547619D01*
X143136190Y-75547619D01*
X142993333Y-75595238D01*
X142898095Y-75690476D01*
X142850476Y-75785714D01*
X142802857Y-75976190D01*
X142802857Y-76119047D01*
X142850476Y-76309523D01*
X142898095Y-76404761D01*
X142993333Y-76500000D01*
X143136190Y-76547619D01*
X143231428Y-76547619D01*
X143374285Y-76500000D01*
X143421904Y-76452380D01*
X144040952Y-76547619D02*
X144231428Y-76547619D01*
X144326666Y-76500000D01*
X144421904Y-76404761D01*
X144469523Y-76214285D01*
X144469523Y-75880952D01*
X144421904Y-75690476D01*
X144326666Y-75595238D01*
X144231428Y-75547619D01*
X144040952Y-75547619D01*
X143945714Y-75595238D01*
X143850476Y-75690476D01*
X143802857Y-75880952D01*
X143802857Y-76214285D01*
X143850476Y-76404761D01*
X143945714Y-76500000D01*
X144040952Y-76547619D01*
X144850476Y-75595238D02*
X144993333Y-75547619D01*
X145231428Y-75547619D01*
X145326666Y-75595238D01*
X145374285Y-75642857D01*
X145421904Y-75738095D01*
X145421904Y-75833333D01*
X145374285Y-75928571D01*
X145326666Y-75976190D01*
X145231428Y-76023809D01*
X145040952Y-76071428D01*
X144945714Y-76119047D01*
X144898095Y-76166666D01*
X144850476Y-76261904D01*
X144850476Y-76357142D01*
X144898095Y-76452380D01*
X144945714Y-76500000D01*
X145040952Y-76547619D01*
X145279047Y-76547619D01*
X145421904Y-76500000D01*
X145707619Y-76547619D02*
X146279047Y-76547619D01*
X145993333Y-75547619D02*
X145993333Y-76547619D01*
X146612380Y-76071428D02*
X146945714Y-76071428D01*
X147088571Y-75547619D02*
X146612380Y-75547619D01*
X146612380Y-76547619D01*
X147088571Y-76547619D01*
X147993333Y-75547619D02*
X147517142Y-75547619D01*
X147517142Y-76547619D01*
X148802857Y-75547619D02*
X148326666Y-75547619D01*
X148326666Y-76547619D01*
X149088571Y-75833333D02*
X149564761Y-75833333D01*
X148993333Y-75547619D02*
X149326666Y-76547619D01*
X149660000Y-75547619D01*
X149045714Y-111322380D02*
X149379047Y-110846190D01*
X149617142Y-111322380D02*
X149617142Y-110322380D01*
X149236190Y-110322380D01*
X149140952Y-110370000D01*
X149093333Y-110417619D01*
X149045714Y-110512857D01*
X149045714Y-110655714D01*
X149093333Y-110750952D01*
X149140952Y-110798571D01*
X149236190Y-110846190D01*
X149617142Y-110846190D01*
X148617142Y-111322380D02*
X148617142Y-110322380D01*
X147807619Y-110798571D02*
X147664761Y-110846190D01*
X147617142Y-110893809D01*
X147569523Y-110989047D01*
X147569523Y-111131904D01*
X147617142Y-111227142D01*
X147664761Y-111274761D01*
X147760000Y-111322380D01*
X148140952Y-111322380D01*
X148140952Y-110322380D01*
X147807619Y-110322380D01*
X147712380Y-110370000D01*
X147664761Y-110417619D01*
X147617142Y-110512857D01*
X147617142Y-110608095D01*
X147664761Y-110703333D01*
X147712380Y-110750952D01*
X147807619Y-110798571D01*
X148140952Y-110798571D01*
X145664761Y-110274761D02*
X146521904Y-111560476D01*
X143998095Y-111227142D02*
X144045714Y-111274761D01*
X144188571Y-111322380D01*
X144283809Y-111322380D01*
X144426666Y-111274761D01*
X144521904Y-111179523D01*
X144569523Y-111084285D01*
X144617142Y-110893809D01*
X144617142Y-110750952D01*
X144569523Y-110560476D01*
X144521904Y-110465238D01*
X144426666Y-110370000D01*
X144283809Y-110322380D01*
X144188571Y-110322380D01*
X144045714Y-110370000D01*
X143998095Y-110417619D01*
X143379047Y-110322380D02*
X143188571Y-110322380D01*
X143093333Y-110370000D01*
X142998095Y-110465238D01*
X142950476Y-110655714D01*
X142950476Y-110989047D01*
X142998095Y-111179523D01*
X143093333Y-111274761D01*
X143188571Y-111322380D01*
X143379047Y-111322380D01*
X143474285Y-111274761D01*
X143569523Y-111179523D01*
X143617142Y-110989047D01*
X143617142Y-110655714D01*
X143569523Y-110465238D01*
X143474285Y-110370000D01*
X143379047Y-110322380D01*
X142569523Y-111274761D02*
X142426666Y-111322380D01*
X142188571Y-111322380D01*
X142093333Y-111274761D01*
X142045714Y-111227142D01*
X141998095Y-111131904D01*
X141998095Y-111036666D01*
X142045714Y-110941428D01*
X142093333Y-110893809D01*
X142188571Y-110846190D01*
X142379047Y-110798571D01*
X142474285Y-110750952D01*
X142521904Y-110703333D01*
X142569523Y-110608095D01*
X142569523Y-110512857D01*
X142521904Y-110417619D01*
X142474285Y-110370000D01*
X142379047Y-110322380D01*
X142140952Y-110322380D01*
X141998095Y-110370000D01*
X141712380Y-110322380D02*
X141140952Y-110322380D01*
X141426666Y-111322380D02*
X141426666Y-110322380D01*
X140807619Y-110798571D02*
X140474285Y-110798571D01*
X140331428Y-111322380D02*
X140807619Y-111322380D01*
X140807619Y-110322380D01*
X140331428Y-110322380D01*
X139426666Y-111322380D02*
X139902857Y-111322380D01*
X139902857Y-110322380D01*
X138617142Y-111322380D02*
X139093333Y-111322380D01*
X139093333Y-110322380D01*
X138331428Y-111036666D02*
X137855238Y-111036666D01*
X138426666Y-111322380D02*
X138093333Y-110322380D01*
X137760000Y-111322380D01*
X128007619Y-96807619D02*
X127007619Y-96474285D01*
X128007619Y-96140952D01*
X127531428Y-95807619D02*
X127531428Y-95474285D01*
X127007619Y-95331428D02*
X127007619Y-95807619D01*
X128007619Y-95807619D01*
X128007619Y-95331428D01*
X127007619Y-94331428D02*
X127483809Y-94664761D01*
X127007619Y-94902857D02*
X128007619Y-94902857D01*
X128007619Y-94521904D01*
X127960000Y-94426666D01*
X127912380Y-94379047D01*
X127817142Y-94331428D01*
X127674285Y-94331428D01*
X127579047Y-94379047D01*
X127531428Y-94426666D01*
X127483809Y-94521904D01*
X127483809Y-94902857D01*
X128007619Y-94045714D02*
X128007619Y-93474285D01*
X127007619Y-93760000D02*
X128007619Y-93760000D01*
X127531428Y-93140952D02*
X127531428Y-92807619D01*
X127007619Y-92664761D02*
X127007619Y-93140952D01*
X128007619Y-93140952D01*
X128007619Y-92664761D01*
X127531428Y-91902857D02*
X127483809Y-91760000D01*
X127436190Y-91712380D01*
X127340952Y-91664761D01*
X127198095Y-91664761D01*
X127102857Y-91712380D01*
X127055238Y-91760000D01*
X127007619Y-91855238D01*
X127007619Y-92236190D01*
X128007619Y-92236190D01*
X128007619Y-91902857D01*
X127960000Y-91807619D01*
X127912380Y-91760000D01*
X127817142Y-91712380D01*
X127721904Y-91712380D01*
X127626666Y-91760000D01*
X127579047Y-91807619D01*
X127531428Y-91902857D01*
X127531428Y-92236190D01*
X127007619Y-90664761D02*
X127483809Y-90998095D01*
X127007619Y-91236190D02*
X128007619Y-91236190D01*
X128007619Y-90855238D01*
X127960000Y-90760000D01*
X127912380Y-90712380D01*
X127817142Y-90664761D01*
X127674285Y-90664761D01*
X127579047Y-90712380D01*
X127531428Y-90760000D01*
X127483809Y-90855238D01*
X127483809Y-91236190D01*
X127293333Y-90283809D02*
X127293333Y-89807619D01*
X127007619Y-90379047D02*
X128007619Y-90045714D01*
X127007619Y-89712380D01*
X160127619Y-96887619D02*
X159127619Y-96554285D01*
X160127619Y-96220952D01*
X159651428Y-95887619D02*
X159651428Y-95554285D01*
X159127619Y-95411428D02*
X159127619Y-95887619D01*
X160127619Y-95887619D01*
X160127619Y-95411428D01*
X159127619Y-94411428D02*
X159603809Y-94744761D01*
X159127619Y-94982857D02*
X160127619Y-94982857D01*
X160127619Y-94601904D01*
X160080000Y-94506666D01*
X160032380Y-94459047D01*
X159937142Y-94411428D01*
X159794285Y-94411428D01*
X159699047Y-94459047D01*
X159651428Y-94506666D01*
X159603809Y-94601904D01*
X159603809Y-94982857D01*
X160127619Y-94125714D02*
X160127619Y-93554285D01*
X159127619Y-93840000D02*
X160127619Y-93840000D01*
X159651428Y-93220952D02*
X159651428Y-92887619D01*
X159127619Y-92744761D02*
X159127619Y-93220952D01*
X160127619Y-93220952D01*
X160127619Y-92744761D01*
X159651428Y-91982857D02*
X159603809Y-91840000D01*
X159556190Y-91792380D01*
X159460952Y-91744761D01*
X159318095Y-91744761D01*
X159222857Y-91792380D01*
X159175238Y-91840000D01*
X159127619Y-91935238D01*
X159127619Y-92316190D01*
X160127619Y-92316190D01*
X160127619Y-91982857D01*
X160080000Y-91887619D01*
X160032380Y-91840000D01*
X159937142Y-91792380D01*
X159841904Y-91792380D01*
X159746666Y-91840000D01*
X159699047Y-91887619D01*
X159651428Y-91982857D01*
X159651428Y-92316190D01*
X159127619Y-90744761D02*
X159603809Y-91078095D01*
X159127619Y-91316190D02*
X160127619Y-91316190D01*
X160127619Y-90935238D01*
X160080000Y-90840000D01*
X160032380Y-90792380D01*
X159937142Y-90744761D01*
X159794285Y-90744761D01*
X159699047Y-90792380D01*
X159651428Y-90840000D01*
X159603809Y-90935238D01*
X159603809Y-91316190D01*
X159413333Y-90363809D02*
X159413333Y-89887619D01*
X159127619Y-90459047D02*
X160127619Y-90125714D01*
X159127619Y-89792380D01*
G36*
X169750000Y-75500000D02*
G01*
X168000000Y-77000000D01*
X168000000Y-76250000D01*
X163500000Y-76250000D01*
X163500000Y-74750000D01*
X168000000Y-74750000D01*
X168000000Y-73750000D01*
X169750000Y-75500000D01*
G37*
X169750000Y-75500000D02*
X168000000Y-77000000D01*
X168000000Y-76250000D01*
X163500000Y-76250000D01*
X163500000Y-74750000D01*
X168000000Y-74750000D01*
X168000000Y-73750000D01*
X169750000Y-75500000D01*
D11*
X119041428Y-99677142D02*
X118841428Y-99677142D01*
X118755714Y-99991428D02*
X119041428Y-99991428D01*
X119041428Y-99391428D01*
X118755714Y-99391428D01*
X118584285Y-99391428D02*
X118241428Y-99391428D01*
X118412857Y-99991428D02*
X118412857Y-99391428D01*
X118041428Y-99991428D02*
X118041428Y-99391428D01*
X118041428Y-99677142D02*
X117698571Y-99677142D01*
X117698571Y-99991428D02*
X117698571Y-99391428D01*
X140677142Y-118682857D02*
X140591428Y-118711428D01*
X140448571Y-118711428D01*
X140391428Y-118682857D01*
X140362857Y-118654285D01*
X140334285Y-118597142D01*
X140334285Y-118540000D01*
X140362857Y-118482857D01*
X140391428Y-118454285D01*
X140448571Y-118425714D01*
X140562857Y-118397142D01*
X140620000Y-118368571D01*
X140648571Y-118340000D01*
X140677142Y-118282857D01*
X140677142Y-118225714D01*
X140648571Y-118168571D01*
X140620000Y-118140000D01*
X140562857Y-118111428D01*
X140420000Y-118111428D01*
X140334285Y-118140000D01*
X140077142Y-118711428D02*
X140077142Y-118111428D01*
X139934285Y-118111428D01*
X139848571Y-118140000D01*
X139791428Y-118197142D01*
X139762857Y-118254285D01*
X139734285Y-118368571D01*
X139734285Y-118454285D01*
X139762857Y-118568571D01*
X139791428Y-118625714D01*
X139848571Y-118682857D01*
X139934285Y-118711428D01*
X140077142Y-118711428D01*
X139534285Y-118111428D02*
X139162857Y-118111428D01*
X139362857Y-118340000D01*
X139277142Y-118340000D01*
X139220000Y-118368571D01*
X139191428Y-118397142D01*
X139162857Y-118454285D01*
X139162857Y-118597142D01*
X139191428Y-118654285D01*
X139220000Y-118682857D01*
X139277142Y-118711428D01*
X139448571Y-118711428D01*
X139505714Y-118682857D01*
X139534285Y-118654285D01*
X151842857Y-74057142D02*
X151928571Y-74028571D01*
X152071428Y-74028571D01*
X152128571Y-74057142D01*
X152157142Y-74085714D01*
X152185714Y-74142857D01*
X152185714Y-74200000D01*
X152157142Y-74257142D01*
X152128571Y-74285714D01*
X152071428Y-74314285D01*
X151957142Y-74342857D01*
X151900000Y-74371428D01*
X151871428Y-74400000D01*
X151842857Y-74457142D01*
X151842857Y-74514285D01*
X151871428Y-74571428D01*
X151900000Y-74600000D01*
X151957142Y-74628571D01*
X152100000Y-74628571D01*
X152185714Y-74600000D01*
X152785714Y-74085714D02*
X152757142Y-74057142D01*
X152671428Y-74028571D01*
X152614285Y-74028571D01*
X152528571Y-74057142D01*
X152471428Y-74114285D01*
X152442857Y-74171428D01*
X152414285Y-74285714D01*
X152414285Y-74371428D01*
X152442857Y-74485714D01*
X152471428Y-74542857D01*
X152528571Y-74600000D01*
X152614285Y-74628571D01*
X152671428Y-74628571D01*
X152757142Y-74600000D01*
X152785714Y-74571428D01*
X153157142Y-74628571D02*
X153214285Y-74628571D01*
X153271428Y-74600000D01*
X153300000Y-74571428D01*
X153328571Y-74514285D01*
X153357142Y-74400000D01*
X153357142Y-74257142D01*
X153328571Y-74142857D01*
X153300000Y-74085714D01*
X153271428Y-74057142D01*
X153214285Y-74028571D01*
X153157142Y-74028571D01*
X153100000Y-74057142D01*
X153071428Y-74085714D01*
X153042857Y-74142857D01*
X153014285Y-74257142D01*
X153014285Y-74400000D01*
X153042857Y-74514285D01*
X153071428Y-74571428D01*
X153100000Y-74600000D01*
X153157142Y-74628571D01*
X125667142Y-84140000D02*
X125724285Y-84111428D01*
X125810000Y-84111428D01*
X125895714Y-84140000D01*
X125952857Y-84197142D01*
X125981428Y-84254285D01*
X126010000Y-84368571D01*
X126010000Y-84454285D01*
X125981428Y-84568571D01*
X125952857Y-84625714D01*
X125895714Y-84682857D01*
X125810000Y-84711428D01*
X125752857Y-84711428D01*
X125667142Y-84682857D01*
X125638571Y-84654285D01*
X125638571Y-84454285D01*
X125752857Y-84454285D01*
X125381428Y-84711428D02*
X125381428Y-84111428D01*
X125038571Y-84711428D01*
X125038571Y-84111428D01*
X124752857Y-84711428D02*
X124752857Y-84111428D01*
X124610000Y-84111428D01*
X124524285Y-84140000D01*
X124467142Y-84197142D01*
X124438571Y-84254285D01*
X124410000Y-84368571D01*
X124410000Y-84454285D01*
X124438571Y-84568571D01*
X124467142Y-84625714D01*
X124524285Y-84682857D01*
X124610000Y-84711428D01*
X124752857Y-84711428D01*
X125580000Y-87281428D02*
X125780000Y-86995714D01*
X125922857Y-87281428D02*
X125922857Y-86681428D01*
X125694285Y-86681428D01*
X125637142Y-86710000D01*
X125608571Y-86738571D01*
X125580000Y-86795714D01*
X125580000Y-86881428D01*
X125608571Y-86938571D01*
X125637142Y-86967142D01*
X125694285Y-86995714D01*
X125922857Y-86995714D01*
X125380000Y-86681428D02*
X124980000Y-87281428D01*
X124980000Y-86681428D02*
X125380000Y-87281428D01*
X124751428Y-87281428D02*
X124751428Y-86681428D01*
X124608571Y-86681428D01*
X124522857Y-86710000D01*
X124465714Y-86767142D01*
X124437142Y-86824285D01*
X124408571Y-86938571D01*
X124408571Y-87024285D01*
X124437142Y-87138571D01*
X124465714Y-87195714D01*
X124522857Y-87252857D01*
X124608571Y-87281428D01*
X124751428Y-87281428D01*
X160994285Y-71278714D02*
X160965714Y-71250142D01*
X160880000Y-71221571D01*
X160822857Y-71221571D01*
X160737142Y-71250142D01*
X160680000Y-71307285D01*
X160651428Y-71364428D01*
X160622857Y-71478714D01*
X160622857Y-71564428D01*
X160651428Y-71678714D01*
X160680000Y-71735857D01*
X160737142Y-71793000D01*
X160822857Y-71821571D01*
X160880000Y-71821571D01*
X160965714Y-71793000D01*
X160994285Y-71764428D01*
X161222857Y-71393000D02*
X161508571Y-71393000D01*
X161165714Y-71221571D02*
X161365714Y-71821571D01*
X161565714Y-71221571D01*
X161765714Y-71221571D02*
X161765714Y-71821571D01*
X162108571Y-71221571D01*
X162108571Y-71821571D01*
X158737142Y-70855571D02*
X159080000Y-70855571D01*
X158908571Y-70255571D02*
X158908571Y-70855571D01*
X159280000Y-70569857D02*
X159480000Y-70569857D01*
X159565714Y-70255571D02*
X159280000Y-70255571D01*
X159280000Y-70855571D01*
X159565714Y-70855571D01*
X160165714Y-70255571D02*
X159965714Y-70541285D01*
X159822857Y-70255571D02*
X159822857Y-70855571D01*
X160051428Y-70855571D01*
X160108571Y-70827000D01*
X160137142Y-70798428D01*
X160165714Y-70741285D01*
X160165714Y-70655571D01*
X160137142Y-70598428D01*
X160108571Y-70569857D01*
X160051428Y-70541285D01*
X159822857Y-70541285D01*
X160422857Y-70255571D02*
X160422857Y-70855571D01*
X160622857Y-70427000D01*
X160822857Y-70855571D01*
X160822857Y-70255571D01*
X161108571Y-70255571D02*
X161108571Y-70855571D01*
X161394285Y-70255571D02*
X161394285Y-70855571D01*
X161737142Y-70255571D01*
X161737142Y-70855571D01*
X161994285Y-70427000D02*
X162280000Y-70427000D01*
X161937142Y-70255571D02*
X162137142Y-70855571D01*
X162337142Y-70255571D01*
X162451428Y-70855571D02*
X162794285Y-70855571D01*
X162622857Y-70255571D02*
X162622857Y-70855571D01*
X163108571Y-70855571D02*
X163222857Y-70855571D01*
X163280000Y-70827000D01*
X163337142Y-70769857D01*
X163365714Y-70655571D01*
X163365714Y-70455571D01*
X163337142Y-70341285D01*
X163280000Y-70284142D01*
X163222857Y-70255571D01*
X163108571Y-70255571D01*
X163051428Y-70284142D01*
X162994285Y-70341285D01*
X162965714Y-70455571D01*
X162965714Y-70655571D01*
X162994285Y-70769857D01*
X163051428Y-70827000D01*
X163108571Y-70855571D01*
X163965714Y-70255571D02*
X163765714Y-70541285D01*
X163622857Y-70255571D02*
X163622857Y-70855571D01*
X163851428Y-70855571D01*
X163908571Y-70827000D01*
X163937142Y-70798428D01*
X163965714Y-70741285D01*
X163965714Y-70655571D01*
X163937142Y-70598428D01*
X163908571Y-70569857D01*
X163851428Y-70541285D01*
X163622857Y-70541285D01*
X145721428Y-112502857D02*
X145264285Y-112502857D01*
X145492857Y-112731428D02*
X145492857Y-112274285D01*
X144692857Y-112131428D02*
X144978571Y-112131428D01*
X145007142Y-112417142D01*
X144978571Y-112388571D01*
X144921428Y-112360000D01*
X144778571Y-112360000D01*
X144721428Y-112388571D01*
X144692857Y-112417142D01*
X144664285Y-112474285D01*
X144664285Y-112617142D01*
X144692857Y-112674285D01*
X144721428Y-112702857D01*
X144778571Y-112731428D01*
X144921428Y-112731428D01*
X144978571Y-112702857D01*
X145007142Y-112674285D01*
X144492857Y-112131428D02*
X144292857Y-112731428D01*
X144092857Y-112131428D01*
X149292857Y-68097142D02*
X149378571Y-68068571D01*
X149521428Y-68068571D01*
X149578571Y-68097142D01*
X149607142Y-68125714D01*
X149635714Y-68182857D01*
X149635714Y-68240000D01*
X149607142Y-68297142D01*
X149578571Y-68325714D01*
X149521428Y-68354285D01*
X149407142Y-68382857D01*
X149350000Y-68411428D01*
X149321428Y-68440000D01*
X149292857Y-68497142D01*
X149292857Y-68554285D01*
X149321428Y-68611428D01*
X149350000Y-68640000D01*
X149407142Y-68668571D01*
X149550000Y-68668571D01*
X149635714Y-68640000D01*
X149892857Y-68068571D02*
X149892857Y-68668571D01*
X150035714Y-68668571D01*
X150121428Y-68640000D01*
X150178571Y-68582857D01*
X150207142Y-68525714D01*
X150235714Y-68411428D01*
X150235714Y-68325714D01*
X150207142Y-68211428D01*
X150178571Y-68154285D01*
X150121428Y-68097142D01*
X150035714Y-68068571D01*
X149892857Y-68068571D01*
X150607142Y-68668571D02*
X150664285Y-68668571D01*
X150721428Y-68640000D01*
X150750000Y-68611428D01*
X150778571Y-68554285D01*
X150807142Y-68440000D01*
X150807142Y-68297142D01*
X150778571Y-68182857D01*
X150750000Y-68125714D01*
X150721428Y-68097142D01*
X150664285Y-68068571D01*
X150607142Y-68068571D01*
X150550000Y-68097142D01*
X150521428Y-68125714D01*
X150492857Y-68182857D01*
X150464285Y-68297142D01*
X150464285Y-68440000D01*
X150492857Y-68554285D01*
X150521428Y-68611428D01*
X150550000Y-68640000D01*
X150607142Y-68668571D01*
X136758571Y-74402857D02*
X136958571Y-74402857D01*
X137044285Y-74088571D02*
X136758571Y-74088571D01*
X136758571Y-74688571D01*
X137044285Y-74688571D01*
X137215714Y-74688571D02*
X137558571Y-74688571D01*
X137387142Y-74088571D02*
X137387142Y-74688571D01*
X137758571Y-74088571D02*
X137758571Y-74688571D01*
X137758571Y-74402857D02*
X138101428Y-74402857D01*
X138101428Y-74088571D02*
X138101428Y-74688571D01*
X138147142Y-112672857D02*
X138061428Y-112701428D01*
X137918571Y-112701428D01*
X137861428Y-112672857D01*
X137832857Y-112644285D01*
X137804285Y-112587142D01*
X137804285Y-112530000D01*
X137832857Y-112472857D01*
X137861428Y-112444285D01*
X137918571Y-112415714D01*
X138032857Y-112387142D01*
X138090000Y-112358571D01*
X138118571Y-112330000D01*
X138147142Y-112272857D01*
X138147142Y-112215714D01*
X138118571Y-112158571D01*
X138090000Y-112130000D01*
X138032857Y-112101428D01*
X137890000Y-112101428D01*
X137804285Y-112130000D01*
X137204285Y-112644285D02*
X137232857Y-112672857D01*
X137318571Y-112701428D01*
X137375714Y-112701428D01*
X137461428Y-112672857D01*
X137518571Y-112615714D01*
X137547142Y-112558571D01*
X137575714Y-112444285D01*
X137575714Y-112358571D01*
X137547142Y-112244285D01*
X137518571Y-112187142D01*
X137461428Y-112130000D01*
X137375714Y-112101428D01*
X137318571Y-112101428D01*
X137232857Y-112130000D01*
X137204285Y-112158571D01*
X137004285Y-112101428D02*
X136632857Y-112101428D01*
X136832857Y-112330000D01*
X136747142Y-112330000D01*
X136690000Y-112358571D01*
X136661428Y-112387142D01*
X136632857Y-112444285D01*
X136632857Y-112587142D01*
X136661428Y-112644285D01*
X136690000Y-112672857D01*
X136747142Y-112701428D01*
X136918571Y-112701428D01*
X136975714Y-112672857D01*
X137004285Y-112644285D01*
X146752857Y-68107142D02*
X146838571Y-68078571D01*
X146981428Y-68078571D01*
X147038571Y-68107142D01*
X147067142Y-68135714D01*
X147095714Y-68192857D01*
X147095714Y-68250000D01*
X147067142Y-68307142D01*
X147038571Y-68335714D01*
X146981428Y-68364285D01*
X146867142Y-68392857D01*
X146810000Y-68421428D01*
X146781428Y-68450000D01*
X146752857Y-68507142D01*
X146752857Y-68564285D01*
X146781428Y-68621428D01*
X146810000Y-68650000D01*
X146867142Y-68678571D01*
X147010000Y-68678571D01*
X147095714Y-68650000D01*
X147352857Y-68078571D02*
X147352857Y-68678571D01*
X147495714Y-68678571D01*
X147581428Y-68650000D01*
X147638571Y-68592857D01*
X147667142Y-68535714D01*
X147695714Y-68421428D01*
X147695714Y-68335714D01*
X147667142Y-68221428D01*
X147638571Y-68164285D01*
X147581428Y-68107142D01*
X147495714Y-68078571D01*
X147352857Y-68078571D01*
X148267142Y-68078571D02*
X147924285Y-68078571D01*
X148095714Y-68078571D02*
X148095714Y-68678571D01*
X148038571Y-68592857D01*
X147981428Y-68535714D01*
X147924285Y-68507142D01*
X150112857Y-87841428D02*
X149741428Y-87841428D01*
X149941428Y-88070000D01*
X149855714Y-88070000D01*
X149798571Y-88098571D01*
X149770000Y-88127142D01*
X149741428Y-88184285D01*
X149741428Y-88327142D01*
X149770000Y-88384285D01*
X149798571Y-88412857D01*
X149855714Y-88441428D01*
X150027142Y-88441428D01*
X150084285Y-88412857D01*
X150112857Y-88384285D01*
X149570000Y-87841428D02*
X149370000Y-88441428D01*
X149170000Y-87841428D01*
X149027142Y-87841428D02*
X148655714Y-87841428D01*
X148855714Y-88070000D01*
X148770000Y-88070000D01*
X148712857Y-88098571D01*
X148684285Y-88127142D01*
X148655714Y-88184285D01*
X148655714Y-88327142D01*
X148684285Y-88384285D01*
X148712857Y-88412857D01*
X148770000Y-88441428D01*
X148941428Y-88441428D01*
X148998571Y-88412857D01*
X149027142Y-88384285D01*
X164760000Y-116277142D02*
X164788571Y-116334285D01*
X164788571Y-116420000D01*
X164760000Y-116505714D01*
X164702857Y-116562857D01*
X164645714Y-116591428D01*
X164531428Y-116620000D01*
X164445714Y-116620000D01*
X164331428Y-116591428D01*
X164274285Y-116562857D01*
X164217142Y-116505714D01*
X164188571Y-116420000D01*
X164188571Y-116362857D01*
X164217142Y-116277142D01*
X164245714Y-116248571D01*
X164445714Y-116248571D01*
X164445714Y-116362857D01*
X164188571Y-115991428D02*
X164788571Y-115991428D01*
X164188571Y-115648571D01*
X164788571Y-115648571D01*
X164188571Y-115362857D02*
X164788571Y-115362857D01*
X164788571Y-115220000D01*
X164760000Y-115134285D01*
X164702857Y-115077142D01*
X164645714Y-115048571D01*
X164531428Y-115020000D01*
X164445714Y-115020000D01*
X164331428Y-115048571D01*
X164274285Y-115077142D01*
X164217142Y-115134285D01*
X164188571Y-115220000D01*
X164188571Y-115362857D01*
D12*
X155964285Y-115214285D02*
X155392857Y-115404761D01*
X155202380Y-115595238D01*
X155011904Y-115976190D01*
X155011904Y-116547619D01*
X155202380Y-116928571D01*
X155392857Y-117119047D01*
X155773809Y-117309523D01*
X157297619Y-117309523D01*
X157297619Y-113309523D01*
X155964285Y-113309523D01*
X155583333Y-113500000D01*
X155392857Y-113690476D01*
X155202380Y-114071428D01*
X155202380Y-114452380D01*
X155392857Y-114833333D01*
X155583333Y-115023809D01*
X155964285Y-115214285D01*
X157297619Y-115214285D01*
D11*
X138922857Y-74307142D02*
X139380000Y-74307142D01*
X139151428Y-74078571D02*
X139151428Y-74535714D01*
X139980000Y-74078571D02*
X139637142Y-74078571D01*
X139808571Y-74078571D02*
X139808571Y-74678571D01*
X139751428Y-74592857D01*
X139694285Y-74535714D01*
X139637142Y-74507142D01*
X140208571Y-74621428D02*
X140237142Y-74650000D01*
X140294285Y-74678571D01*
X140437142Y-74678571D01*
X140494285Y-74650000D01*
X140522857Y-74621428D01*
X140551428Y-74564285D01*
X140551428Y-74507142D01*
X140522857Y-74421428D01*
X140180000Y-74078571D01*
X140551428Y-74078571D01*
X140722857Y-74678571D02*
X140922857Y-74078571D01*
X141122857Y-74678571D01*
X119034285Y-89762857D02*
X118948571Y-89791428D01*
X118805714Y-89791428D01*
X118748571Y-89762857D01*
X118720000Y-89734285D01*
X118691428Y-89677142D01*
X118691428Y-89620000D01*
X118720000Y-89562857D01*
X118748571Y-89534285D01*
X118805714Y-89505714D01*
X118920000Y-89477142D01*
X118977142Y-89448571D01*
X119005714Y-89420000D01*
X119034285Y-89362857D01*
X119034285Y-89305714D01*
X119005714Y-89248571D01*
X118977142Y-89220000D01*
X118920000Y-89191428D01*
X118777142Y-89191428D01*
X118691428Y-89220000D01*
X118091428Y-89734285D02*
X118120000Y-89762857D01*
X118205714Y-89791428D01*
X118262857Y-89791428D01*
X118348571Y-89762857D01*
X118405714Y-89705714D01*
X118434285Y-89648571D01*
X118462857Y-89534285D01*
X118462857Y-89448571D01*
X118434285Y-89334285D01*
X118405714Y-89277142D01*
X118348571Y-89220000D01*
X118262857Y-89191428D01*
X118205714Y-89191428D01*
X118120000Y-89220000D01*
X118091428Y-89248571D01*
X117548571Y-89791428D02*
X117834285Y-89791428D01*
X117834285Y-89191428D01*
X164750000Y-118777142D02*
X164778571Y-118834285D01*
X164778571Y-118920000D01*
X164750000Y-119005714D01*
X164692857Y-119062857D01*
X164635714Y-119091428D01*
X164521428Y-119120000D01*
X164435714Y-119120000D01*
X164321428Y-119091428D01*
X164264285Y-119062857D01*
X164207142Y-119005714D01*
X164178571Y-118920000D01*
X164178571Y-118862857D01*
X164207142Y-118777142D01*
X164235714Y-118748571D01*
X164435714Y-118748571D01*
X164435714Y-118862857D01*
X164178571Y-118491428D02*
X164778571Y-118491428D01*
X164178571Y-118148571D01*
X164778571Y-118148571D01*
X164178571Y-117862857D02*
X164778571Y-117862857D01*
X164778571Y-117720000D01*
X164750000Y-117634285D01*
X164692857Y-117577142D01*
X164635714Y-117548571D01*
X164521428Y-117520000D01*
X164435714Y-117520000D01*
X164321428Y-117548571D01*
X164264285Y-117577142D01*
X164207142Y-117634285D01*
X164178571Y-117720000D01*
X164178571Y-117862857D01*
X138852857Y-68277142D02*
X139310000Y-68277142D01*
X139910000Y-68048571D02*
X139567142Y-68048571D01*
X139738571Y-68048571D02*
X139738571Y-68648571D01*
X139681428Y-68562857D01*
X139624285Y-68505714D01*
X139567142Y-68477142D01*
X140138571Y-68591428D02*
X140167142Y-68620000D01*
X140224285Y-68648571D01*
X140367142Y-68648571D01*
X140424285Y-68620000D01*
X140452857Y-68591428D01*
X140481428Y-68534285D01*
X140481428Y-68477142D01*
X140452857Y-68391428D01*
X140110000Y-68048571D01*
X140481428Y-68048571D01*
X140652857Y-68648571D02*
X140852857Y-68048571D01*
X141052857Y-68648571D01*
X150847142Y-118110000D02*
X150904285Y-118081428D01*
X150990000Y-118081428D01*
X151075714Y-118110000D01*
X151132857Y-118167142D01*
X151161428Y-118224285D01*
X151190000Y-118338571D01*
X151190000Y-118424285D01*
X151161428Y-118538571D01*
X151132857Y-118595714D01*
X151075714Y-118652857D01*
X150990000Y-118681428D01*
X150932857Y-118681428D01*
X150847142Y-118652857D01*
X150818571Y-118624285D01*
X150818571Y-118424285D01*
X150932857Y-118424285D01*
X150561428Y-118681428D02*
X150561428Y-118081428D01*
X150218571Y-118681428D01*
X150218571Y-118081428D01*
X149932857Y-118681428D02*
X149932857Y-118081428D01*
X149790000Y-118081428D01*
X149704285Y-118110000D01*
X149647142Y-118167142D01*
X149618571Y-118224285D01*
X149590000Y-118338571D01*
X149590000Y-118424285D01*
X149618571Y-118538571D01*
X149647142Y-118595714D01*
X149704285Y-118652857D01*
X149790000Y-118681428D01*
X149932857Y-118681428D01*
X149332857Y-118681428D02*
X149332857Y-118081428D01*
X149190000Y-118081428D01*
X149104285Y-118110000D01*
X149047142Y-118167142D01*
X149018571Y-118224285D01*
X148990000Y-118338571D01*
X148990000Y-118424285D01*
X149018571Y-118538571D01*
X149047142Y-118595714D01*
X149104285Y-118652857D01*
X149190000Y-118681428D01*
X149332857Y-118681428D01*
X163022857Y-92351428D02*
X163022857Y-91751428D01*
X162822857Y-92180000D01*
X162622857Y-91751428D01*
X162622857Y-92351428D01*
X162337142Y-92351428D02*
X162337142Y-91751428D01*
X162080000Y-92322857D02*
X161994285Y-92351428D01*
X161851428Y-92351428D01*
X161794285Y-92322857D01*
X161765714Y-92294285D01*
X161737142Y-92237142D01*
X161737142Y-92180000D01*
X161765714Y-92122857D01*
X161794285Y-92094285D01*
X161851428Y-92065714D01*
X161965714Y-92037142D01*
X162022857Y-92008571D01*
X162051428Y-91980000D01*
X162080000Y-91922857D01*
X162080000Y-91865714D01*
X162051428Y-91808571D01*
X162022857Y-91780000D01*
X161965714Y-91751428D01*
X161822857Y-91751428D01*
X161737142Y-91780000D01*
X161365714Y-91751428D02*
X161251428Y-91751428D01*
X161194285Y-91780000D01*
X161137142Y-91837142D01*
X161108571Y-91951428D01*
X161108571Y-92151428D01*
X161137142Y-92265714D01*
X161194285Y-92322857D01*
X161251428Y-92351428D01*
X161365714Y-92351428D01*
X161422857Y-92322857D01*
X161480000Y-92265714D01*
X161508571Y-92151428D01*
X161508571Y-91951428D01*
X161480000Y-91837142D01*
X161422857Y-91780000D01*
X161365714Y-91751428D01*
X150641428Y-112417142D02*
X150441428Y-112417142D01*
X150355714Y-112731428D02*
X150641428Y-112731428D01*
X150641428Y-112131428D01*
X150355714Y-112131428D01*
X150184285Y-112131428D02*
X149841428Y-112131428D01*
X150012857Y-112731428D02*
X150012857Y-112131428D01*
X149641428Y-112731428D02*
X149641428Y-112131428D01*
X149641428Y-112417142D02*
X149298571Y-112417142D01*
X149298571Y-112731428D02*
X149298571Y-112131428D01*
X162690000Y-97414285D02*
X162718571Y-97442857D01*
X162804285Y-97471428D01*
X162861428Y-97471428D01*
X162947142Y-97442857D01*
X163004285Y-97385714D01*
X163032857Y-97328571D01*
X163061428Y-97214285D01*
X163061428Y-97128571D01*
X163032857Y-97014285D01*
X163004285Y-96957142D01*
X162947142Y-96900000D01*
X162861428Y-96871428D01*
X162804285Y-96871428D01*
X162718571Y-96900000D01*
X162690000Y-96928571D01*
X162461428Y-97300000D02*
X162175714Y-97300000D01*
X162518571Y-97471428D02*
X162318571Y-96871428D01*
X162118571Y-97471428D01*
X161918571Y-97471428D02*
X161918571Y-96871428D01*
X161575714Y-97471428D01*
X161575714Y-96871428D01*
X161290000Y-97471428D02*
X161290000Y-96871428D01*
X161290000Y-97157142D02*
X160947142Y-97157142D01*
X160947142Y-97471428D02*
X160947142Y-96871428D01*
X164810000Y-113697142D02*
X164838571Y-113754285D01*
X164838571Y-113840000D01*
X164810000Y-113925714D01*
X164752857Y-113982857D01*
X164695714Y-114011428D01*
X164581428Y-114040000D01*
X164495714Y-114040000D01*
X164381428Y-114011428D01*
X164324285Y-113982857D01*
X164267142Y-113925714D01*
X164238571Y-113840000D01*
X164238571Y-113782857D01*
X164267142Y-113697142D01*
X164295714Y-113668571D01*
X164495714Y-113668571D01*
X164495714Y-113782857D01*
X164238571Y-113411428D02*
X164838571Y-113411428D01*
X164238571Y-113068571D01*
X164838571Y-113068571D01*
X164238571Y-112782857D02*
X164838571Y-112782857D01*
X164838571Y-112640000D01*
X164810000Y-112554285D01*
X164752857Y-112497142D01*
X164695714Y-112468571D01*
X164581428Y-112440000D01*
X164495714Y-112440000D01*
X164381428Y-112468571D01*
X164324285Y-112497142D01*
X164267142Y-112554285D01*
X164238571Y-112640000D01*
X164238571Y-112782857D01*
X151852857Y-68690000D02*
X151795714Y-68718571D01*
X151710000Y-68718571D01*
X151624285Y-68690000D01*
X151567142Y-68632857D01*
X151538571Y-68575714D01*
X151510000Y-68461428D01*
X151510000Y-68375714D01*
X151538571Y-68261428D01*
X151567142Y-68204285D01*
X151624285Y-68147142D01*
X151710000Y-68118571D01*
X151767142Y-68118571D01*
X151852857Y-68147142D01*
X151881428Y-68175714D01*
X151881428Y-68375714D01*
X151767142Y-68375714D01*
X152138571Y-68118571D02*
X152138571Y-68718571D01*
X152481428Y-68118571D01*
X152481428Y-68718571D01*
X152767142Y-68118571D02*
X152767142Y-68718571D01*
X152910000Y-68718571D01*
X152995714Y-68690000D01*
X153052857Y-68632857D01*
X153081428Y-68575714D01*
X153110000Y-68461428D01*
X153110000Y-68375714D01*
X153081428Y-68261428D01*
X153052857Y-68204285D01*
X152995714Y-68147142D01*
X152910000Y-68118571D01*
X152767142Y-68118571D01*
X153367142Y-68118571D02*
X153367142Y-68718571D01*
X153510000Y-68718571D01*
X153595714Y-68690000D01*
X153652857Y-68632857D01*
X153681428Y-68575714D01*
X153710000Y-68461428D01*
X153710000Y-68375714D01*
X153681428Y-68261428D01*
X153652857Y-68204285D01*
X153595714Y-68147142D01*
X153510000Y-68118571D01*
X153367142Y-68118571D01*
X133767142Y-74267142D02*
X134224285Y-74267142D01*
X133995714Y-74038571D02*
X133995714Y-74495714D01*
X134424285Y-74638571D02*
X134624285Y-74038571D01*
X134824285Y-74638571D01*
X135024285Y-74352857D02*
X135224285Y-74352857D01*
X135310000Y-74038571D02*
X135024285Y-74038571D01*
X135024285Y-74638571D01*
X135310000Y-74638571D01*
X135510000Y-74638571D02*
X135910000Y-74038571D01*
X135910000Y-74638571D02*
X135510000Y-74038571D01*
X163057142Y-86661428D02*
X162714285Y-86661428D01*
X162885714Y-87261428D02*
X162885714Y-86661428D01*
X162571428Y-86661428D02*
X162171428Y-87261428D01*
X162171428Y-86661428D02*
X162571428Y-87261428D01*
X161942857Y-87261428D02*
X161942857Y-86661428D01*
X161800000Y-86661428D01*
X161714285Y-86690000D01*
X161657142Y-86747142D01*
X161628571Y-86804285D01*
X161600000Y-86918571D01*
X161600000Y-87004285D01*
X161628571Y-87118571D01*
X161657142Y-87175714D01*
X161714285Y-87232857D01*
X161800000Y-87261428D01*
X161942857Y-87261428D01*
D12*
X150666666Y-92559523D02*
X150666666Y-90464285D01*
X150857142Y-90083333D01*
X151238095Y-89892857D01*
X152000000Y-89892857D01*
X152380952Y-90083333D01*
X150666666Y-92369047D02*
X151047619Y-92559523D01*
X152000000Y-92559523D01*
X152380952Y-92369047D01*
X152571428Y-91988095D01*
X152571428Y-91607142D01*
X152380952Y-91226190D01*
X152000000Y-91035714D01*
X151047619Y-91035714D01*
X150666666Y-90845238D01*
X149142857Y-89892857D02*
X148190476Y-92559523D01*
X147238095Y-89892857D01*
X144190476Y-92369047D02*
X144571428Y-92559523D01*
X145333333Y-92559523D01*
X145714285Y-92369047D01*
X145904761Y-91988095D01*
X145904761Y-90464285D01*
X145714285Y-90083333D01*
X145333333Y-89892857D01*
X144571428Y-89892857D01*
X144190476Y-90083333D01*
X144000000Y-90464285D01*
X144000000Y-90845238D01*
X145904761Y-91226190D01*
X142285714Y-92559523D02*
X142285714Y-89892857D01*
X142285714Y-90654761D02*
X142095238Y-90273809D01*
X141904761Y-90083333D01*
X141523809Y-89892857D01*
X141142857Y-89892857D01*
X140380952Y-89892857D02*
X138857142Y-89892857D01*
X139809523Y-88559523D02*
X139809523Y-91988095D01*
X139619047Y-92369047D01*
X139238095Y-92559523D01*
X138857142Y-92559523D01*
X137714285Y-88940476D02*
X137523809Y-88750000D01*
X137142857Y-88559523D01*
X136190476Y-88559523D01*
X135809523Y-88750000D01*
X135619047Y-88940476D01*
X135428571Y-89321428D01*
X135428571Y-89702380D01*
X135619047Y-90273809D01*
X137904761Y-92559523D01*
X135428571Y-92559523D01*
D11*
X148627142Y-118462857D02*
X148170000Y-118462857D01*
X147570000Y-118691428D02*
X147912857Y-118691428D01*
X147741428Y-118691428D02*
X147741428Y-118091428D01*
X147798571Y-118177142D01*
X147855714Y-118234285D01*
X147912857Y-118262857D01*
X147341428Y-118148571D02*
X147312857Y-118120000D01*
X147255714Y-118091428D01*
X147112857Y-118091428D01*
X147055714Y-118120000D01*
X147027142Y-118148571D01*
X146998571Y-118205714D01*
X146998571Y-118262857D01*
X147027142Y-118348571D01*
X147370000Y-118691428D01*
X146998571Y-118691428D01*
X146827142Y-118091428D02*
X146627142Y-118691428D01*
X146427142Y-118091428D01*
X153982857Y-112462857D02*
X153525714Y-112462857D01*
X153754285Y-112691428D02*
X153754285Y-112234285D01*
X153325714Y-112091428D02*
X153125714Y-112691428D01*
X152925714Y-112091428D01*
X152725714Y-112377142D02*
X152525714Y-112377142D01*
X152440000Y-112691428D02*
X152725714Y-112691428D01*
X152725714Y-112091428D01*
X152440000Y-112091428D01*
X152240000Y-112091428D02*
X151840000Y-112691428D01*
X151840000Y-112091428D02*
X152240000Y-112691428D01*
X169637142Y-84100000D02*
X169694285Y-84071428D01*
X169780000Y-84071428D01*
X169865714Y-84100000D01*
X169922857Y-84157142D01*
X169951428Y-84214285D01*
X169980000Y-84328571D01*
X169980000Y-84414285D01*
X169951428Y-84528571D01*
X169922857Y-84585714D01*
X169865714Y-84642857D01*
X169780000Y-84671428D01*
X169722857Y-84671428D01*
X169637142Y-84642857D01*
X169608571Y-84614285D01*
X169608571Y-84414285D01*
X169722857Y-84414285D01*
X169351428Y-84671428D02*
X169351428Y-84071428D01*
X169008571Y-84671428D01*
X169008571Y-84071428D01*
X168722857Y-84671428D02*
X168722857Y-84071428D01*
X168580000Y-84071428D01*
X168494285Y-84100000D01*
X168437142Y-84157142D01*
X168408571Y-84214285D01*
X168380000Y-84328571D01*
X168380000Y-84414285D01*
X168408571Y-84528571D01*
X168437142Y-84585714D01*
X168494285Y-84642857D01*
X168580000Y-84671428D01*
X168722857Y-84671428D01*
D10*
X153099523Y-84572380D02*
X153099523Y-83572380D01*
X152718571Y-83572380D01*
X152623333Y-83620000D01*
X152575714Y-83667619D01*
X152528095Y-83762857D01*
X152528095Y-83905714D01*
X152575714Y-84000952D01*
X152623333Y-84048571D01*
X152718571Y-84096190D01*
X153099523Y-84096190D01*
X151528095Y-84572380D02*
X151861428Y-84096190D01*
X152099523Y-84572380D02*
X152099523Y-83572380D01*
X151718571Y-83572380D01*
X151623333Y-83620000D01*
X151575714Y-83667619D01*
X151528095Y-83762857D01*
X151528095Y-83905714D01*
X151575714Y-84000952D01*
X151623333Y-84048571D01*
X151718571Y-84096190D01*
X152099523Y-84096190D01*
X150909047Y-83572380D02*
X150718571Y-83572380D01*
X150623333Y-83620000D01*
X150528095Y-83715238D01*
X150480476Y-83905714D01*
X150480476Y-84239047D01*
X150528095Y-84429523D01*
X150623333Y-84524761D01*
X150718571Y-84572380D01*
X150909047Y-84572380D01*
X151004285Y-84524761D01*
X151099523Y-84429523D01*
X151147142Y-84239047D01*
X151147142Y-83905714D01*
X151099523Y-83715238D01*
X151004285Y-83620000D01*
X150909047Y-83572380D01*
X149528095Y-83620000D02*
X149623333Y-83572380D01*
X149766190Y-83572380D01*
X149909047Y-83620000D01*
X150004285Y-83715238D01*
X150051904Y-83810476D01*
X150099523Y-84000952D01*
X150099523Y-84143809D01*
X150051904Y-84334285D01*
X150004285Y-84429523D01*
X149909047Y-84524761D01*
X149766190Y-84572380D01*
X149670952Y-84572380D01*
X149528095Y-84524761D01*
X149480476Y-84477142D01*
X149480476Y-84143809D01*
X149670952Y-84143809D01*
X148480476Y-84572380D02*
X148813809Y-84096190D01*
X149051904Y-84572380D02*
X149051904Y-83572380D01*
X148670952Y-83572380D01*
X148575714Y-83620000D01*
X148528095Y-83667619D01*
X148480476Y-83762857D01*
X148480476Y-83905714D01*
X148528095Y-84000952D01*
X148575714Y-84048571D01*
X148670952Y-84096190D01*
X149051904Y-84096190D01*
X148099523Y-84286666D02*
X147623333Y-84286666D01*
X148194761Y-84572380D02*
X147861428Y-83572380D01*
X147528095Y-84572380D01*
X147194761Y-84572380D02*
X147194761Y-83572380D01*
X146861428Y-84286666D01*
X146528095Y-83572380D01*
X146528095Y-84572380D01*
X146051904Y-84572380D02*
X146051904Y-83572380D01*
X145718571Y-84286666D01*
X145385238Y-83572380D01*
X145385238Y-84572380D01*
X144909047Y-84048571D02*
X144575714Y-84048571D01*
X144432857Y-84572380D02*
X144909047Y-84572380D01*
X144909047Y-83572380D01*
X144432857Y-83572380D01*
X143432857Y-84572380D02*
X143766190Y-84096190D01*
X144004285Y-84572380D02*
X144004285Y-83572380D01*
X143623333Y-83572380D01*
X143528095Y-83620000D01*
X143480476Y-83667619D01*
X143432857Y-83762857D01*
X143432857Y-83905714D01*
X143480476Y-84000952D01*
X143528095Y-84048571D01*
X143623333Y-84096190D01*
X144004285Y-84096190D01*
D11*
X169657142Y-99470000D02*
X169714285Y-99441428D01*
X169800000Y-99441428D01*
X169885714Y-99470000D01*
X169942857Y-99527142D01*
X169971428Y-99584285D01*
X170000000Y-99698571D01*
X170000000Y-99784285D01*
X169971428Y-99898571D01*
X169942857Y-99955714D01*
X169885714Y-100012857D01*
X169800000Y-100041428D01*
X169742857Y-100041428D01*
X169657142Y-100012857D01*
X169628571Y-99984285D01*
X169628571Y-99784285D01*
X169742857Y-99784285D01*
X169371428Y-100041428D02*
X169371428Y-99441428D01*
X169028571Y-100041428D01*
X169028571Y-99441428D01*
X168742857Y-100041428D02*
X168742857Y-99441428D01*
X168600000Y-99441428D01*
X168514285Y-99470000D01*
X168457142Y-99527142D01*
X168428571Y-99584285D01*
X168400000Y-99698571D01*
X168400000Y-99784285D01*
X168428571Y-99898571D01*
X168457142Y-99955714D01*
X168514285Y-100012857D01*
X168600000Y-100041428D01*
X168742857Y-100041428D01*
X135547142Y-112662857D02*
X135461428Y-112691428D01*
X135318571Y-112691428D01*
X135261428Y-112662857D01*
X135232857Y-112634285D01*
X135204285Y-112577142D01*
X135204285Y-112520000D01*
X135232857Y-112462857D01*
X135261428Y-112434285D01*
X135318571Y-112405714D01*
X135432857Y-112377142D01*
X135490000Y-112348571D01*
X135518571Y-112320000D01*
X135547142Y-112262857D01*
X135547142Y-112205714D01*
X135518571Y-112148571D01*
X135490000Y-112120000D01*
X135432857Y-112091428D01*
X135290000Y-112091428D01*
X135204285Y-112120000D01*
X134604285Y-112634285D02*
X134632857Y-112662857D01*
X134718571Y-112691428D01*
X134775714Y-112691428D01*
X134861428Y-112662857D01*
X134918571Y-112605714D01*
X134947142Y-112548571D01*
X134975714Y-112434285D01*
X134975714Y-112348571D01*
X134947142Y-112234285D01*
X134918571Y-112177142D01*
X134861428Y-112120000D01*
X134775714Y-112091428D01*
X134718571Y-112091428D01*
X134632857Y-112120000D01*
X134604285Y-112148571D01*
X134375714Y-112148571D02*
X134347142Y-112120000D01*
X134290000Y-112091428D01*
X134147142Y-112091428D01*
X134090000Y-112120000D01*
X134061428Y-112148571D01*
X134032857Y-112205714D01*
X134032857Y-112262857D01*
X134061428Y-112348571D01*
X134404285Y-112691428D01*
X134032857Y-112691428D01*
X163041428Y-94892857D02*
X162955714Y-94921428D01*
X162812857Y-94921428D01*
X162755714Y-94892857D01*
X162727142Y-94864285D01*
X162698571Y-94807142D01*
X162698571Y-94750000D01*
X162727142Y-94692857D01*
X162755714Y-94664285D01*
X162812857Y-94635714D01*
X162927142Y-94607142D01*
X162984285Y-94578571D01*
X163012857Y-94550000D01*
X163041428Y-94492857D01*
X163041428Y-94435714D01*
X163012857Y-94378571D01*
X162984285Y-94350000D01*
X162927142Y-94321428D01*
X162784285Y-94321428D01*
X162698571Y-94350000D01*
X162098571Y-94864285D02*
X162127142Y-94892857D01*
X162212857Y-94921428D01*
X162270000Y-94921428D01*
X162355714Y-94892857D01*
X162412857Y-94835714D01*
X162441428Y-94778571D01*
X162470000Y-94664285D01*
X162470000Y-94578571D01*
X162441428Y-94464285D01*
X162412857Y-94407142D01*
X162355714Y-94350000D01*
X162270000Y-94321428D01*
X162212857Y-94321428D01*
X162127142Y-94350000D01*
X162098571Y-94378571D01*
X161841428Y-94921428D02*
X161841428Y-94321428D01*
X161498571Y-94921428D02*
X161755714Y-94578571D01*
X161498571Y-94321428D02*
X161841428Y-94664285D01*
X118670000Y-97334285D02*
X118698571Y-97362857D01*
X118784285Y-97391428D01*
X118841428Y-97391428D01*
X118927142Y-97362857D01*
X118984285Y-97305714D01*
X119012857Y-97248571D01*
X119041428Y-97134285D01*
X119041428Y-97048571D01*
X119012857Y-96934285D01*
X118984285Y-96877142D01*
X118927142Y-96820000D01*
X118841428Y-96791428D01*
X118784285Y-96791428D01*
X118698571Y-96820000D01*
X118670000Y-96848571D01*
X118441428Y-97220000D02*
X118155714Y-97220000D01*
X118498571Y-97391428D02*
X118298571Y-96791428D01*
X118098571Y-97391428D01*
X117898571Y-97391428D02*
X117898571Y-96791428D01*
X117555714Y-97391428D01*
X117555714Y-96791428D01*
X117270000Y-97391428D02*
X117270000Y-96791428D01*
X117270000Y-97077142D02*
X116927142Y-97077142D01*
X116927142Y-97391428D02*
X116927142Y-96791428D01*
X119062857Y-92391428D02*
X119062857Y-91791428D01*
X118862857Y-92220000D01*
X118662857Y-91791428D01*
X118662857Y-92391428D01*
X118377142Y-92391428D02*
X118377142Y-91791428D01*
X118120000Y-92362857D02*
X118034285Y-92391428D01*
X117891428Y-92391428D01*
X117834285Y-92362857D01*
X117805714Y-92334285D01*
X117777142Y-92277142D01*
X117777142Y-92220000D01*
X117805714Y-92162857D01*
X117834285Y-92134285D01*
X117891428Y-92105714D01*
X118005714Y-92077142D01*
X118062857Y-92048571D01*
X118091428Y-92020000D01*
X118120000Y-91962857D01*
X118120000Y-91905714D01*
X118091428Y-91848571D01*
X118062857Y-91820000D01*
X118005714Y-91791428D01*
X117862857Y-91791428D01*
X117777142Y-91820000D01*
X117405714Y-91791428D02*
X117291428Y-91791428D01*
X117234285Y-91820000D01*
X117177142Y-91877142D01*
X117148571Y-91991428D01*
X117148571Y-92191428D01*
X117177142Y-92305714D01*
X117234285Y-92362857D01*
X117291428Y-92391428D01*
X117405714Y-92391428D01*
X117462857Y-92362857D01*
X117520000Y-92305714D01*
X117548571Y-92191428D01*
X117548571Y-91991428D01*
X117520000Y-91877142D01*
X117462857Y-91820000D01*
X117405714Y-91791428D01*
X146910000Y-88501428D02*
X147110000Y-88215714D01*
X147252857Y-88501428D02*
X147252857Y-87901428D01*
X147024285Y-87901428D01*
X146967142Y-87930000D01*
X146938571Y-87958571D01*
X146910000Y-88015714D01*
X146910000Y-88101428D01*
X146938571Y-88158571D01*
X146967142Y-88187142D01*
X147024285Y-88215714D01*
X147252857Y-88215714D01*
X146710000Y-87901428D02*
X146310000Y-88501428D01*
X146310000Y-87901428D02*
X146710000Y-88501428D01*
X138247142Y-118652857D02*
X138161428Y-118681428D01*
X138018571Y-118681428D01*
X137961428Y-118652857D01*
X137932857Y-118624285D01*
X137904285Y-118567142D01*
X137904285Y-118510000D01*
X137932857Y-118452857D01*
X137961428Y-118424285D01*
X138018571Y-118395714D01*
X138132857Y-118367142D01*
X138190000Y-118338571D01*
X138218571Y-118310000D01*
X138247142Y-118252857D01*
X138247142Y-118195714D01*
X138218571Y-118138571D01*
X138190000Y-118110000D01*
X138132857Y-118081428D01*
X137990000Y-118081428D01*
X137904285Y-118110000D01*
X137647142Y-118681428D02*
X137647142Y-118081428D01*
X137504285Y-118081428D01*
X137418571Y-118110000D01*
X137361428Y-118167142D01*
X137332857Y-118224285D01*
X137304285Y-118338571D01*
X137304285Y-118424285D01*
X137332857Y-118538571D01*
X137361428Y-118595714D01*
X137418571Y-118652857D01*
X137504285Y-118681428D01*
X137647142Y-118681428D01*
X137075714Y-118138571D02*
X137047142Y-118110000D01*
X136990000Y-118081428D01*
X136847142Y-118081428D01*
X136790000Y-118110000D01*
X136761428Y-118138571D01*
X136732857Y-118195714D01*
X136732857Y-118252857D01*
X136761428Y-118338571D01*
X137104285Y-118681428D01*
X136732857Y-118681428D01*
X169550000Y-87321428D02*
X169750000Y-87035714D01*
X169892857Y-87321428D02*
X169892857Y-86721428D01*
X169664285Y-86721428D01*
X169607142Y-86750000D01*
X169578571Y-86778571D01*
X169550000Y-86835714D01*
X169550000Y-86921428D01*
X169578571Y-86978571D01*
X169607142Y-87007142D01*
X169664285Y-87035714D01*
X169892857Y-87035714D01*
X169350000Y-86721428D02*
X168950000Y-87321428D01*
X168950000Y-86721428D02*
X169350000Y-87321428D01*
X168721428Y-87321428D02*
X168721428Y-86721428D01*
X168578571Y-86721428D01*
X168492857Y-86750000D01*
X168435714Y-86807142D01*
X168407142Y-86864285D01*
X168378571Y-86978571D01*
X168378571Y-87064285D01*
X168407142Y-87178571D01*
X168435714Y-87235714D01*
X168492857Y-87292857D01*
X168578571Y-87321428D01*
X168721428Y-87321428D01*
X148577142Y-112502857D02*
X148120000Y-112502857D01*
X148348571Y-112731428D02*
X148348571Y-112274285D01*
X147520000Y-112731428D02*
X147862857Y-112731428D01*
X147691428Y-112731428D02*
X147691428Y-112131428D01*
X147748571Y-112217142D01*
X147805714Y-112274285D01*
X147862857Y-112302857D01*
X147291428Y-112188571D02*
X147262857Y-112160000D01*
X147205714Y-112131428D01*
X147062857Y-112131428D01*
X147005714Y-112160000D01*
X146977142Y-112188571D01*
X146948571Y-112245714D01*
X146948571Y-112302857D01*
X146977142Y-112388571D01*
X147320000Y-112731428D01*
X146948571Y-112731428D01*
X146777142Y-112131428D02*
X146577142Y-112731428D01*
X146377142Y-112131428D01*
X158490000Y-113738571D02*
X158490000Y-113452857D01*
X158318571Y-113795714D02*
X158918571Y-113595714D01*
X158318571Y-113395714D01*
X158861428Y-113224285D02*
X158890000Y-113195714D01*
X158918571Y-113138571D01*
X158918571Y-112995714D01*
X158890000Y-112938571D01*
X158861428Y-112910000D01*
X158804285Y-112881428D01*
X158747142Y-112881428D01*
X158661428Y-112910000D01*
X158318571Y-113252857D01*
X158318571Y-112881428D01*
X135467142Y-118100000D02*
X135524285Y-118071428D01*
X135610000Y-118071428D01*
X135695714Y-118100000D01*
X135752857Y-118157142D01*
X135781428Y-118214285D01*
X135810000Y-118328571D01*
X135810000Y-118414285D01*
X135781428Y-118528571D01*
X135752857Y-118585714D01*
X135695714Y-118642857D01*
X135610000Y-118671428D01*
X135552857Y-118671428D01*
X135467142Y-118642857D01*
X135438571Y-118614285D01*
X135438571Y-118414285D01*
X135552857Y-118414285D01*
X135181428Y-118671428D02*
X135181428Y-118071428D01*
X134838571Y-118671428D01*
X134838571Y-118071428D01*
X134552857Y-118671428D02*
X134552857Y-118071428D01*
X134410000Y-118071428D01*
X134324285Y-118100000D01*
X134267142Y-118157142D01*
X134238571Y-118214285D01*
X134210000Y-118328571D01*
X134210000Y-118414285D01*
X134238571Y-118528571D01*
X134267142Y-118585714D01*
X134324285Y-118642857D01*
X134410000Y-118671428D01*
X134552857Y-118671428D01*
X133952857Y-118671428D02*
X133952857Y-118071428D01*
X133810000Y-118071428D01*
X133724285Y-118100000D01*
X133667142Y-118157142D01*
X133638571Y-118214285D01*
X133610000Y-118328571D01*
X133610000Y-118414285D01*
X133638571Y-118528571D01*
X133667142Y-118585714D01*
X133724285Y-118642857D01*
X133810000Y-118671428D01*
X133952857Y-118671428D01*
D13*
X160059523Y-106071428D02*
X159678571Y-107404761D01*
X159297619Y-106452380D01*
X158916666Y-107404761D01*
X158535714Y-106071428D01*
X157964285Y-106071428D02*
X157583333Y-107404761D01*
X157202380Y-106452380D01*
X156821428Y-107404761D01*
X156440476Y-106071428D01*
X155869047Y-106071428D02*
X155488095Y-107404761D01*
X155107142Y-106452380D01*
X154726190Y-107404761D01*
X154345238Y-106071428D01*
X153583333Y-107214285D02*
X153488095Y-107309523D01*
X153583333Y-107404761D01*
X153678571Y-107309523D01*
X153583333Y-107214285D01*
X153583333Y-107404761D01*
X152630952Y-107404761D02*
X152630952Y-106071428D01*
X152630952Y-105404761D02*
X152726190Y-105500000D01*
X152630952Y-105595238D01*
X152535714Y-105500000D01*
X152630952Y-105404761D01*
X152630952Y-105595238D01*
X151392857Y-107404761D02*
X151583333Y-107309523D01*
X151678571Y-107214285D01*
X151773809Y-107023809D01*
X151773809Y-106452380D01*
X151678571Y-106261904D01*
X151583333Y-106166666D01*
X151392857Y-106071428D01*
X151107142Y-106071428D01*
X150916666Y-106166666D01*
X150821428Y-106261904D01*
X150726190Y-106452380D01*
X150726190Y-107023809D01*
X150821428Y-107214285D01*
X150916666Y-107309523D01*
X151107142Y-107404761D01*
X151392857Y-107404761D01*
X150154761Y-106071428D02*
X149392857Y-106071428D01*
X149869047Y-105404761D02*
X149869047Y-107119047D01*
X149773809Y-107309523D01*
X149583333Y-107404761D01*
X149392857Y-107404761D01*
X148916666Y-106071428D02*
X148440476Y-107404761D01*
X147964285Y-106071428D01*
X146440476Y-107309523D02*
X146630952Y-107404761D01*
X147011904Y-107404761D01*
X147202380Y-107309523D01*
X147297619Y-107119047D01*
X147297619Y-106357142D01*
X147202380Y-106166666D01*
X147011904Y-106071428D01*
X146630952Y-106071428D01*
X146440476Y-106166666D01*
X146345238Y-106357142D01*
X146345238Y-106547619D01*
X147297619Y-106738095D01*
X145488095Y-107404761D02*
X145488095Y-106071428D01*
X145488095Y-106452380D02*
X145392857Y-106261904D01*
X145297619Y-106166666D01*
X145107142Y-106071428D01*
X144916666Y-106071428D01*
X144535714Y-106071428D02*
X143773809Y-106071428D01*
X144250000Y-105404761D02*
X144250000Y-107119047D01*
X144154761Y-107309523D01*
X143964285Y-107404761D01*
X143773809Y-107404761D01*
X142345238Y-107309523D02*
X142535714Y-107404761D01*
X142916666Y-107404761D01*
X143107142Y-107309523D01*
X143202380Y-107119047D01*
X143202380Y-106357142D01*
X143107142Y-106166666D01*
X142916666Y-106071428D01*
X142535714Y-106071428D01*
X142345238Y-106166666D01*
X142250000Y-106357142D01*
X142250000Y-106547619D01*
X143202380Y-106738095D01*
X141392857Y-107404761D02*
X141392857Y-105404761D01*
X141392857Y-106166666D02*
X141202380Y-106071428D01*
X140821428Y-106071428D01*
X140630952Y-106166666D01*
X140535714Y-106261904D01*
X140440476Y-106452380D01*
X140440476Y-107023809D01*
X140535714Y-107214285D01*
X140630952Y-107309523D01*
X140821428Y-107404761D01*
X141202380Y-107404761D01*
X141392857Y-107309523D01*
X139583333Y-107404761D02*
X139583333Y-106071428D01*
X139583333Y-106452380D02*
X139488095Y-106261904D01*
X139392857Y-106166666D01*
X139202380Y-106071428D01*
X139011904Y-106071428D01*
X137488095Y-107404761D02*
X137488095Y-106357142D01*
X137583333Y-106166666D01*
X137773809Y-106071428D01*
X138154761Y-106071428D01*
X138345238Y-106166666D01*
X137488095Y-107309523D02*
X137678571Y-107404761D01*
X138154761Y-107404761D01*
X138345238Y-107309523D01*
X138440476Y-107119047D01*
X138440476Y-106928571D01*
X138345238Y-106738095D01*
X138154761Y-106642857D01*
X137678571Y-106642857D01*
X137488095Y-106547619D01*
X135773809Y-107309523D02*
X135964285Y-107404761D01*
X136345238Y-107404761D01*
X136535714Y-107309523D01*
X136630952Y-107119047D01*
X136630952Y-106357142D01*
X136535714Y-106166666D01*
X136345238Y-106071428D01*
X135964285Y-106071428D01*
X135773809Y-106166666D01*
X135678571Y-106357142D01*
X135678571Y-106547619D01*
X136630952Y-106738095D01*
X134821428Y-107214285D02*
X134726190Y-107309523D01*
X134821428Y-107404761D01*
X134916666Y-107309523D01*
X134821428Y-107214285D01*
X134821428Y-107404761D01*
X133011904Y-107309523D02*
X133202380Y-107404761D01*
X133583333Y-107404761D01*
X133773809Y-107309523D01*
X133869047Y-107214285D01*
X133964285Y-107023809D01*
X133964285Y-106452380D01*
X133869047Y-106261904D01*
X133773809Y-106166666D01*
X133583333Y-106071428D01*
X133202380Y-106071428D01*
X133011904Y-106166666D01*
X131869047Y-107404761D02*
X132059523Y-107309523D01*
X132154761Y-107214285D01*
X132250000Y-107023809D01*
X132250000Y-106452380D01*
X132154761Y-106261904D01*
X132059523Y-106166666D01*
X131869047Y-106071428D01*
X131583333Y-106071428D01*
X131392857Y-106166666D01*
X131297619Y-106261904D01*
X131202380Y-106452380D01*
X131202380Y-107023809D01*
X131297619Y-107214285D01*
X131392857Y-107309523D01*
X131583333Y-107404761D01*
X131869047Y-107404761D01*
X130345238Y-107404761D02*
X130345238Y-106071428D01*
X130345238Y-106261904D02*
X130250000Y-106166666D01*
X130059523Y-106071428D01*
X129773809Y-106071428D01*
X129583333Y-106166666D01*
X129488095Y-106357142D01*
X129488095Y-107404761D01*
X129488095Y-106357142D02*
X129392857Y-106166666D01*
X129202380Y-106071428D01*
X128916666Y-106071428D01*
X128726190Y-106166666D01*
X128630952Y-106357142D01*
X128630952Y-107404761D01*
D11*
X163070000Y-102332857D02*
X162612857Y-102332857D01*
X162841428Y-102561428D02*
X162841428Y-102104285D01*
X162355714Y-102018571D02*
X162327142Y-101990000D01*
X162270000Y-101961428D01*
X162127142Y-101961428D01*
X162070000Y-101990000D01*
X162041428Y-102018571D01*
X162012857Y-102075714D01*
X162012857Y-102132857D01*
X162041428Y-102218571D01*
X162384285Y-102561428D01*
X162012857Y-102561428D01*
X161498571Y-102161428D02*
X161498571Y-102561428D01*
X161641428Y-101932857D02*
X161784285Y-102361428D01*
X161412857Y-102361428D01*
X158460000Y-111058571D02*
X158460000Y-110772857D01*
X158288571Y-111115714D02*
X158888571Y-110915714D01*
X158288571Y-110715714D01*
X158888571Y-110572857D02*
X158888571Y-110201428D01*
X158660000Y-110401428D01*
X158660000Y-110315714D01*
X158631428Y-110258571D01*
X158602857Y-110230000D01*
X158545714Y-110201428D01*
X158402857Y-110201428D01*
X158345714Y-110230000D01*
X158317142Y-110258571D01*
X158288571Y-110315714D01*
X158288571Y-110487142D01*
X158317142Y-110544285D01*
X158345714Y-110572857D01*
X126040000Y-102212857D02*
X125582857Y-102212857D01*
X125811428Y-102441428D02*
X125811428Y-101984285D01*
X125325714Y-101898571D02*
X125297142Y-101870000D01*
X125240000Y-101841428D01*
X125097142Y-101841428D01*
X125040000Y-101870000D01*
X125011428Y-101898571D01*
X124982857Y-101955714D01*
X124982857Y-102012857D01*
X125011428Y-102098571D01*
X125354285Y-102441428D01*
X124982857Y-102441428D01*
X124468571Y-102041428D02*
X124468571Y-102441428D01*
X124611428Y-101812857D02*
X124754285Y-102241428D01*
X124382857Y-102241428D01*
X119037142Y-86661428D02*
X118694285Y-86661428D01*
X118865714Y-87261428D02*
X118865714Y-86661428D01*
X118551428Y-86661428D02*
X118151428Y-87261428D01*
X118151428Y-86661428D02*
X118551428Y-87261428D01*
X117922857Y-87261428D02*
X117922857Y-86661428D01*
X117780000Y-86661428D01*
X117694285Y-86690000D01*
X117637142Y-86747142D01*
X117608571Y-86804285D01*
X117580000Y-86918571D01*
X117580000Y-87004285D01*
X117608571Y-87118571D01*
X117637142Y-87175714D01*
X117694285Y-87232857D01*
X117780000Y-87261428D01*
X117922857Y-87261428D01*
X126078571Y-97364285D02*
X126107142Y-97392857D01*
X126192857Y-97421428D01*
X126250000Y-97421428D01*
X126335714Y-97392857D01*
X126392857Y-97335714D01*
X126421428Y-97278571D01*
X126450000Y-97164285D01*
X126450000Y-97078571D01*
X126421428Y-96964285D01*
X126392857Y-96907142D01*
X126335714Y-96850000D01*
X126250000Y-96821428D01*
X126192857Y-96821428D01*
X126107142Y-96850000D01*
X126078571Y-96878571D01*
X125850000Y-97250000D02*
X125564285Y-97250000D01*
X125907142Y-97421428D02*
X125707142Y-96821428D01*
X125507142Y-97421428D01*
X125307142Y-97421428D02*
X125307142Y-96821428D01*
X124964285Y-97421428D01*
X124964285Y-96821428D01*
X124392857Y-97421428D02*
X124678571Y-97421428D01*
X124678571Y-96821428D01*
X141658571Y-74267142D02*
X142115714Y-74267142D01*
X141887142Y-74038571D02*
X141887142Y-74495714D01*
X142687142Y-74638571D02*
X142401428Y-74638571D01*
X142372857Y-74352857D01*
X142401428Y-74381428D01*
X142458571Y-74410000D01*
X142601428Y-74410000D01*
X142658571Y-74381428D01*
X142687142Y-74352857D01*
X142715714Y-74295714D01*
X142715714Y-74152857D01*
X142687142Y-74095714D01*
X142658571Y-74067142D01*
X142601428Y-74038571D01*
X142458571Y-74038571D01*
X142401428Y-74067142D01*
X142372857Y-74095714D01*
X142887142Y-74638571D02*
X143087142Y-74038571D01*
X143287142Y-74638571D01*
X169990000Y-102262857D02*
X169532857Y-102262857D01*
X169761428Y-102491428D02*
X169761428Y-102034285D01*
X169275714Y-101948571D02*
X169247142Y-101920000D01*
X169190000Y-101891428D01*
X169047142Y-101891428D01*
X168990000Y-101920000D01*
X168961428Y-101948571D01*
X168932857Y-102005714D01*
X168932857Y-102062857D01*
X168961428Y-102148571D01*
X169304285Y-102491428D01*
X168932857Y-102491428D01*
X168418571Y-102091428D02*
X168418571Y-102491428D01*
X168561428Y-101862857D02*
X168704285Y-102291428D01*
X168332857Y-102291428D01*
X149282857Y-74067142D02*
X149368571Y-74038571D01*
X149511428Y-74038571D01*
X149568571Y-74067142D01*
X149597142Y-74095714D01*
X149625714Y-74152857D01*
X149625714Y-74210000D01*
X149597142Y-74267142D01*
X149568571Y-74295714D01*
X149511428Y-74324285D01*
X149397142Y-74352857D01*
X149340000Y-74381428D01*
X149311428Y-74410000D01*
X149282857Y-74467142D01*
X149282857Y-74524285D01*
X149311428Y-74581428D01*
X149340000Y-74610000D01*
X149397142Y-74638571D01*
X149540000Y-74638571D01*
X149625714Y-74610000D01*
X150225714Y-74095714D02*
X150197142Y-74067142D01*
X150111428Y-74038571D01*
X150054285Y-74038571D01*
X149968571Y-74067142D01*
X149911428Y-74124285D01*
X149882857Y-74181428D01*
X149854285Y-74295714D01*
X149854285Y-74381428D01*
X149882857Y-74495714D01*
X149911428Y-74552857D01*
X149968571Y-74610000D01*
X150054285Y-74638571D01*
X150111428Y-74638571D01*
X150197142Y-74610000D01*
X150225714Y-74581428D01*
X150797142Y-74038571D02*
X150454285Y-74038571D01*
X150625714Y-74038571D02*
X150625714Y-74638571D01*
X150568571Y-74552857D01*
X150511428Y-74495714D01*
X150454285Y-74467142D01*
X119050000Y-102272857D02*
X118592857Y-102272857D01*
X118821428Y-102501428D02*
X118821428Y-102044285D01*
X118335714Y-101958571D02*
X118307142Y-101930000D01*
X118250000Y-101901428D01*
X118107142Y-101901428D01*
X118050000Y-101930000D01*
X118021428Y-101958571D01*
X117992857Y-102015714D01*
X117992857Y-102072857D01*
X118021428Y-102158571D01*
X118364285Y-102501428D01*
X117992857Y-102501428D01*
X117478571Y-102101428D02*
X117478571Y-102501428D01*
X117621428Y-101872857D02*
X117764285Y-102301428D01*
X117392857Y-102301428D01*
X119041428Y-94912857D02*
X118955714Y-94941428D01*
X118812857Y-94941428D01*
X118755714Y-94912857D01*
X118727142Y-94884285D01*
X118698571Y-94827142D01*
X118698571Y-94770000D01*
X118727142Y-94712857D01*
X118755714Y-94684285D01*
X118812857Y-94655714D01*
X118927142Y-94627142D01*
X118984285Y-94598571D01*
X119012857Y-94570000D01*
X119041428Y-94512857D01*
X119041428Y-94455714D01*
X119012857Y-94398571D01*
X118984285Y-94370000D01*
X118927142Y-94341428D01*
X118784285Y-94341428D01*
X118698571Y-94370000D01*
X118098571Y-94884285D02*
X118127142Y-94912857D01*
X118212857Y-94941428D01*
X118270000Y-94941428D01*
X118355714Y-94912857D01*
X118412857Y-94855714D01*
X118441428Y-94798571D01*
X118470000Y-94684285D01*
X118470000Y-94598571D01*
X118441428Y-94484285D01*
X118412857Y-94427142D01*
X118355714Y-94370000D01*
X118270000Y-94341428D01*
X118212857Y-94341428D01*
X118127142Y-94370000D01*
X118098571Y-94398571D01*
X117841428Y-94941428D02*
X117841428Y-94341428D01*
X117498571Y-94941428D02*
X117755714Y-94598571D01*
X117498571Y-94341428D02*
X117841428Y-94684285D01*
X119042857Y-84131428D02*
X118671428Y-84131428D01*
X118871428Y-84360000D01*
X118785714Y-84360000D01*
X118728571Y-84388571D01*
X118700000Y-84417142D01*
X118671428Y-84474285D01*
X118671428Y-84617142D01*
X118700000Y-84674285D01*
X118728571Y-84702857D01*
X118785714Y-84731428D01*
X118957142Y-84731428D01*
X119014285Y-84702857D01*
X119042857Y-84674285D01*
X118500000Y-84131428D02*
X118300000Y-84731428D01*
X118100000Y-84131428D01*
X117957142Y-84131428D02*
X117585714Y-84131428D01*
X117785714Y-84360000D01*
X117700000Y-84360000D01*
X117642857Y-84388571D01*
X117614285Y-84417142D01*
X117585714Y-84474285D01*
X117585714Y-84617142D01*
X117614285Y-84674285D01*
X117642857Y-84702857D01*
X117700000Y-84731428D01*
X117871428Y-84731428D01*
X117928571Y-84702857D01*
X117957142Y-84674285D01*
X126292857Y-92391428D02*
X126292857Y-91791428D01*
X126092857Y-92220000D01*
X125892857Y-91791428D01*
X125892857Y-92391428D01*
X125492857Y-91791428D02*
X125378571Y-91791428D01*
X125321428Y-91820000D01*
X125264285Y-91877142D01*
X125235714Y-91991428D01*
X125235714Y-92191428D01*
X125264285Y-92305714D01*
X125321428Y-92362857D01*
X125378571Y-92391428D01*
X125492857Y-92391428D01*
X125550000Y-92362857D01*
X125607142Y-92305714D01*
X125635714Y-92191428D01*
X125635714Y-91991428D01*
X125607142Y-91877142D01*
X125550000Y-91820000D01*
X125492857Y-91791428D01*
X125007142Y-92362857D02*
X124921428Y-92391428D01*
X124778571Y-92391428D01*
X124721428Y-92362857D01*
X124692857Y-92334285D01*
X124664285Y-92277142D01*
X124664285Y-92220000D01*
X124692857Y-92162857D01*
X124721428Y-92134285D01*
X124778571Y-92105714D01*
X124892857Y-92077142D01*
X124950000Y-92048571D01*
X124978571Y-92020000D01*
X125007142Y-91962857D01*
X125007142Y-91905714D01*
X124978571Y-91848571D01*
X124950000Y-91820000D01*
X124892857Y-91791428D01*
X124750000Y-91791428D01*
X124664285Y-91820000D01*
X124407142Y-92391428D02*
X124407142Y-91791428D01*
X125677142Y-99390000D02*
X125734285Y-99361428D01*
X125820000Y-99361428D01*
X125905714Y-99390000D01*
X125962857Y-99447142D01*
X125991428Y-99504285D01*
X126020000Y-99618571D01*
X126020000Y-99704285D01*
X125991428Y-99818571D01*
X125962857Y-99875714D01*
X125905714Y-99932857D01*
X125820000Y-99961428D01*
X125762857Y-99961428D01*
X125677142Y-99932857D01*
X125648571Y-99904285D01*
X125648571Y-99704285D01*
X125762857Y-99704285D01*
X125391428Y-99961428D02*
X125391428Y-99361428D01*
X125048571Y-99961428D01*
X125048571Y-99361428D01*
X124762857Y-99961428D02*
X124762857Y-99361428D01*
X124620000Y-99361428D01*
X124534285Y-99390000D01*
X124477142Y-99447142D01*
X124448571Y-99504285D01*
X124420000Y-99618571D01*
X124420000Y-99704285D01*
X124448571Y-99818571D01*
X124477142Y-99875714D01*
X124534285Y-99932857D01*
X124620000Y-99961428D01*
X124762857Y-99961428D01*
X154907142Y-87870000D02*
X154964285Y-87841428D01*
X155050000Y-87841428D01*
X155135714Y-87870000D01*
X155192857Y-87927142D01*
X155221428Y-87984285D01*
X155250000Y-88098571D01*
X155250000Y-88184285D01*
X155221428Y-88298571D01*
X155192857Y-88355714D01*
X155135714Y-88412857D01*
X155050000Y-88441428D01*
X154992857Y-88441428D01*
X154907142Y-88412857D01*
X154878571Y-88384285D01*
X154878571Y-88184285D01*
X154992857Y-88184285D01*
X154621428Y-88441428D02*
X154621428Y-87841428D01*
X154278571Y-88441428D01*
X154278571Y-87841428D01*
X153992857Y-88441428D02*
X153992857Y-87841428D01*
X153850000Y-87841428D01*
X153764285Y-87870000D01*
X153707142Y-87927142D01*
X153678571Y-87984285D01*
X153650000Y-88098571D01*
X153650000Y-88184285D01*
X153678571Y-88298571D01*
X153707142Y-88355714D01*
X153764285Y-88412857D01*
X153850000Y-88441428D01*
X153992857Y-88441428D01*
X169287142Y-94902857D02*
X169201428Y-94931428D01*
X169058571Y-94931428D01*
X169001428Y-94902857D01*
X168972857Y-94874285D01*
X168944285Y-94817142D01*
X168944285Y-94760000D01*
X168972857Y-94702857D01*
X169001428Y-94674285D01*
X169058571Y-94645714D01*
X169172857Y-94617142D01*
X169230000Y-94588571D01*
X169258571Y-94560000D01*
X169287142Y-94502857D01*
X169287142Y-94445714D01*
X169258571Y-94388571D01*
X169230000Y-94360000D01*
X169172857Y-94331428D01*
X169030000Y-94331428D01*
X168944285Y-94360000D01*
X168715714Y-94902857D02*
X168630000Y-94931428D01*
X168487142Y-94931428D01*
X168430000Y-94902857D01*
X168401428Y-94874285D01*
X168372857Y-94817142D01*
X168372857Y-94760000D01*
X168401428Y-94702857D01*
X168430000Y-94674285D01*
X168487142Y-94645714D01*
X168601428Y-94617142D01*
X168658571Y-94588571D01*
X168687142Y-94560000D01*
X168715714Y-94502857D01*
X168715714Y-94445714D01*
X168687142Y-94388571D01*
X168658571Y-94360000D01*
X168601428Y-94331428D01*
X168458571Y-94331428D01*
X168372857Y-94360000D01*
X153932857Y-118402857D02*
X153475714Y-118402857D01*
X153704285Y-118631428D02*
X153704285Y-118174285D01*
X153275714Y-118031428D02*
X153075714Y-118631428D01*
X152875714Y-118031428D01*
X152675714Y-118317142D02*
X152475714Y-118317142D01*
X152390000Y-118631428D02*
X152675714Y-118631428D01*
X152675714Y-118031428D01*
X152390000Y-118031428D01*
X152190000Y-118031428D02*
X151790000Y-118631428D01*
X151790000Y-118031428D02*
X152190000Y-118631428D01*
X158460000Y-118748571D02*
X158460000Y-118462857D01*
X158288571Y-118805714D02*
X158888571Y-118605714D01*
X158288571Y-118405714D01*
X158888571Y-118091428D02*
X158888571Y-118034285D01*
X158860000Y-117977142D01*
X158831428Y-117948571D01*
X158774285Y-117920000D01*
X158660000Y-117891428D01*
X158517142Y-117891428D01*
X158402857Y-117920000D01*
X158345714Y-117948571D01*
X158317142Y-117977142D01*
X158288571Y-118034285D01*
X158288571Y-118091428D01*
X158317142Y-118148571D01*
X158345714Y-118177142D01*
X158402857Y-118205714D01*
X158517142Y-118234285D01*
X158660000Y-118234285D01*
X158774285Y-118205714D01*
X158831428Y-118177142D01*
X158860000Y-118148571D01*
X158888571Y-118091428D01*
X125868571Y-89812857D02*
X125782857Y-89841428D01*
X125640000Y-89841428D01*
X125582857Y-89812857D01*
X125554285Y-89784285D01*
X125525714Y-89727142D01*
X125525714Y-89670000D01*
X125554285Y-89612857D01*
X125582857Y-89584285D01*
X125640000Y-89555714D01*
X125754285Y-89527142D01*
X125811428Y-89498571D01*
X125840000Y-89470000D01*
X125868571Y-89412857D01*
X125868571Y-89355714D01*
X125840000Y-89298571D01*
X125811428Y-89270000D01*
X125754285Y-89241428D01*
X125611428Y-89241428D01*
X125525714Y-89270000D01*
X125268571Y-89841428D02*
X125268571Y-89241428D01*
X125125714Y-89241428D01*
X125040000Y-89270000D01*
X124982857Y-89327142D01*
X124954285Y-89384285D01*
X124925714Y-89498571D01*
X124925714Y-89584285D01*
X124954285Y-89698571D01*
X124982857Y-89755714D01*
X125040000Y-89812857D01*
X125125714Y-89841428D01*
X125268571Y-89841428D01*
X124697142Y-89670000D02*
X124411428Y-89670000D01*
X124754285Y-89841428D02*
X124554285Y-89241428D01*
X124354285Y-89841428D01*
X163014285Y-89772857D02*
X162928571Y-89801428D01*
X162785714Y-89801428D01*
X162728571Y-89772857D01*
X162700000Y-89744285D01*
X162671428Y-89687142D01*
X162671428Y-89630000D01*
X162700000Y-89572857D01*
X162728571Y-89544285D01*
X162785714Y-89515714D01*
X162900000Y-89487142D01*
X162957142Y-89458571D01*
X162985714Y-89430000D01*
X163014285Y-89372857D01*
X163014285Y-89315714D01*
X162985714Y-89258571D01*
X162957142Y-89230000D01*
X162900000Y-89201428D01*
X162757142Y-89201428D01*
X162671428Y-89230000D01*
X162071428Y-89744285D02*
X162100000Y-89772857D01*
X162185714Y-89801428D01*
X162242857Y-89801428D01*
X162328571Y-89772857D01*
X162385714Y-89715714D01*
X162414285Y-89658571D01*
X162442857Y-89544285D01*
X162442857Y-89458571D01*
X162414285Y-89344285D01*
X162385714Y-89287142D01*
X162328571Y-89230000D01*
X162242857Y-89201428D01*
X162185714Y-89201428D01*
X162100000Y-89230000D01*
X162071428Y-89258571D01*
X161528571Y-89801428D02*
X161814285Y-89801428D01*
X161814285Y-89201428D01*
D12*
X157702380Y-72166666D02*
X155797619Y-72166666D01*
X158083333Y-73309523D02*
X156750000Y-69309523D01*
X155416666Y-73309523D01*
D14*
X145071428Y-94589285D02*
X144892857Y-95089285D01*
X144714285Y-94589285D01*
X144464285Y-94410714D02*
X144428571Y-94375000D01*
X144357142Y-94339285D01*
X144178571Y-94339285D01*
X144107142Y-94375000D01*
X144071428Y-94410714D01*
X144035714Y-94482142D01*
X144035714Y-94553571D01*
X144071428Y-94660714D01*
X144500000Y-95089285D01*
X144035714Y-95089285D01*
X143714285Y-95017857D02*
X143678571Y-95053571D01*
X143714285Y-95089285D01*
X143750000Y-95053571D01*
X143714285Y-95017857D01*
X143714285Y-95089285D01*
X143214285Y-94339285D02*
X143142857Y-94339285D01*
X143071428Y-94375000D01*
X143035714Y-94410714D01*
X143000000Y-94482142D01*
X142964285Y-94625000D01*
X142964285Y-94803571D01*
X143000000Y-94946428D01*
X143035714Y-95017857D01*
X143071428Y-95053571D01*
X143142857Y-95089285D01*
X143214285Y-95089285D01*
X143285714Y-95053571D01*
X143321428Y-95017857D01*
X143357142Y-94946428D01*
X143392857Y-94803571D01*
X143392857Y-94625000D01*
X143357142Y-94482142D01*
X143321428Y-94410714D01*
X143285714Y-94375000D01*
X143214285Y-94339285D01*
D11*
X136622857Y-68660000D02*
X136565714Y-68688571D01*
X136480000Y-68688571D01*
X136394285Y-68660000D01*
X136337142Y-68602857D01*
X136308571Y-68545714D01*
X136280000Y-68431428D01*
X136280000Y-68345714D01*
X136308571Y-68231428D01*
X136337142Y-68174285D01*
X136394285Y-68117142D01*
X136480000Y-68088571D01*
X136537142Y-68088571D01*
X136622857Y-68117142D01*
X136651428Y-68145714D01*
X136651428Y-68345714D01*
X136537142Y-68345714D01*
X136908571Y-68088571D02*
X136908571Y-68688571D01*
X137251428Y-68088571D01*
X137251428Y-68688571D01*
X137537142Y-68088571D02*
X137537142Y-68688571D01*
X137680000Y-68688571D01*
X137765714Y-68660000D01*
X137822857Y-68602857D01*
X137851428Y-68545714D01*
X137880000Y-68431428D01*
X137880000Y-68345714D01*
X137851428Y-68231428D01*
X137822857Y-68174285D01*
X137765714Y-68117142D01*
X137680000Y-68088571D01*
X137537142Y-68088571D01*
X138137142Y-68088571D02*
X138137142Y-68688571D01*
X138280000Y-68688571D01*
X138365714Y-68660000D01*
X138422857Y-68602857D01*
X138451428Y-68545714D01*
X138480000Y-68431428D01*
X138480000Y-68345714D01*
X138451428Y-68231428D01*
X138422857Y-68174285D01*
X138365714Y-68117142D01*
X138280000Y-68088571D01*
X138137142Y-68088571D01*
X133727142Y-68307142D02*
X134184285Y-68307142D01*
X133955714Y-68078571D02*
X133955714Y-68535714D01*
X134384285Y-68678571D02*
X134584285Y-68078571D01*
X134784285Y-68678571D01*
X134984285Y-68392857D02*
X135184285Y-68392857D01*
X135270000Y-68078571D02*
X134984285Y-68078571D01*
X134984285Y-68678571D01*
X135270000Y-68678571D01*
X135470000Y-68678571D02*
X135870000Y-68078571D01*
X135870000Y-68678571D02*
X135470000Y-68078571D01*
X163032857Y-84171428D02*
X162661428Y-84171428D01*
X162861428Y-84400000D01*
X162775714Y-84400000D01*
X162718571Y-84428571D01*
X162690000Y-84457142D01*
X162661428Y-84514285D01*
X162661428Y-84657142D01*
X162690000Y-84714285D01*
X162718571Y-84742857D01*
X162775714Y-84771428D01*
X162947142Y-84771428D01*
X163004285Y-84742857D01*
X163032857Y-84714285D01*
X162490000Y-84171428D02*
X162290000Y-84771428D01*
X162090000Y-84171428D01*
X161947142Y-84171428D02*
X161575714Y-84171428D01*
X161775714Y-84400000D01*
X161690000Y-84400000D01*
X161632857Y-84428571D01*
X161604285Y-84457142D01*
X161575714Y-84514285D01*
X161575714Y-84657142D01*
X161604285Y-84714285D01*
X161632857Y-84742857D01*
X161690000Y-84771428D01*
X161861428Y-84771428D01*
X161918571Y-84742857D01*
X161947142Y-84714285D01*
X158430000Y-116198571D02*
X158430000Y-115912857D01*
X158258571Y-116255714D02*
X158858571Y-116055714D01*
X158258571Y-115855714D01*
X158258571Y-115341428D02*
X158258571Y-115684285D01*
X158258571Y-115512857D02*
X158858571Y-115512857D01*
X158772857Y-115570000D01*
X158715714Y-115627142D01*
X158687142Y-115684285D01*
X144627142Y-87891428D02*
X144284285Y-87891428D01*
X144455714Y-88491428D02*
X144455714Y-87891428D01*
X144141428Y-87891428D02*
X143741428Y-88491428D01*
X143741428Y-87891428D02*
X144141428Y-88491428D01*
X169888571Y-89752857D02*
X169802857Y-89781428D01*
X169660000Y-89781428D01*
X169602857Y-89752857D01*
X169574285Y-89724285D01*
X169545714Y-89667142D01*
X169545714Y-89610000D01*
X169574285Y-89552857D01*
X169602857Y-89524285D01*
X169660000Y-89495714D01*
X169774285Y-89467142D01*
X169831428Y-89438571D01*
X169860000Y-89410000D01*
X169888571Y-89352857D01*
X169888571Y-89295714D01*
X169860000Y-89238571D01*
X169831428Y-89210000D01*
X169774285Y-89181428D01*
X169631428Y-89181428D01*
X169545714Y-89210000D01*
X169288571Y-89781428D02*
X169288571Y-89181428D01*
X169145714Y-89181428D01*
X169060000Y-89210000D01*
X169002857Y-89267142D01*
X168974285Y-89324285D01*
X168945714Y-89438571D01*
X168945714Y-89524285D01*
X168974285Y-89638571D01*
X169002857Y-89695714D01*
X169060000Y-89752857D01*
X169145714Y-89781428D01*
X169288571Y-89781428D01*
X168717142Y-89610000D02*
X168431428Y-89610000D01*
X168774285Y-89781428D02*
X168574285Y-89181428D01*
X168374285Y-89781428D01*
X169818571Y-97354285D02*
X169847142Y-97382857D01*
X169932857Y-97411428D01*
X169990000Y-97411428D01*
X170075714Y-97382857D01*
X170132857Y-97325714D01*
X170161428Y-97268571D01*
X170190000Y-97154285D01*
X170190000Y-97068571D01*
X170161428Y-96954285D01*
X170132857Y-96897142D01*
X170075714Y-96840000D01*
X169990000Y-96811428D01*
X169932857Y-96811428D01*
X169847142Y-96840000D01*
X169818571Y-96868571D01*
X169590000Y-97240000D02*
X169304285Y-97240000D01*
X169647142Y-97411428D02*
X169447142Y-96811428D01*
X169247142Y-97411428D01*
X169047142Y-97411428D02*
X169047142Y-96811428D01*
X168704285Y-97411428D01*
X168704285Y-96811428D01*
X168132857Y-97411428D02*
X168418571Y-97411428D01*
X168418571Y-96811428D01*
X170312857Y-92371428D02*
X170312857Y-91771428D01*
X170112857Y-92200000D01*
X169912857Y-91771428D01*
X169912857Y-92371428D01*
X169512857Y-91771428D02*
X169398571Y-91771428D01*
X169341428Y-91800000D01*
X169284285Y-91857142D01*
X169255714Y-91971428D01*
X169255714Y-92171428D01*
X169284285Y-92285714D01*
X169341428Y-92342857D01*
X169398571Y-92371428D01*
X169512857Y-92371428D01*
X169570000Y-92342857D01*
X169627142Y-92285714D01*
X169655714Y-92171428D01*
X169655714Y-91971428D01*
X169627142Y-91857142D01*
X169570000Y-91800000D01*
X169512857Y-91771428D01*
X169027142Y-92342857D02*
X168941428Y-92371428D01*
X168798571Y-92371428D01*
X168741428Y-92342857D01*
X168712857Y-92314285D01*
X168684285Y-92257142D01*
X168684285Y-92200000D01*
X168712857Y-92142857D01*
X168741428Y-92114285D01*
X168798571Y-92085714D01*
X168912857Y-92057142D01*
X168970000Y-92028571D01*
X168998571Y-92000000D01*
X169027142Y-91942857D01*
X169027142Y-91885714D01*
X168998571Y-91828571D01*
X168970000Y-91800000D01*
X168912857Y-91771428D01*
X168770000Y-91771428D01*
X168684285Y-91800000D01*
X168427142Y-92371428D02*
X168427142Y-91771428D01*
X163031428Y-99647142D02*
X162831428Y-99647142D01*
X162745714Y-99961428D02*
X163031428Y-99961428D01*
X163031428Y-99361428D01*
X162745714Y-99361428D01*
X162574285Y-99361428D02*
X162231428Y-99361428D01*
X162402857Y-99961428D02*
X162402857Y-99361428D01*
X162031428Y-99961428D02*
X162031428Y-99361428D01*
X162031428Y-99647142D02*
X161688571Y-99647142D01*
X161688571Y-99961428D02*
X161688571Y-99361428D01*
X125317142Y-94882857D02*
X125231428Y-94911428D01*
X125088571Y-94911428D01*
X125031428Y-94882857D01*
X125002857Y-94854285D01*
X124974285Y-94797142D01*
X124974285Y-94740000D01*
X125002857Y-94682857D01*
X125031428Y-94654285D01*
X125088571Y-94625714D01*
X125202857Y-94597142D01*
X125260000Y-94568571D01*
X125288571Y-94540000D01*
X125317142Y-94482857D01*
X125317142Y-94425714D01*
X125288571Y-94368571D01*
X125260000Y-94340000D01*
X125202857Y-94311428D01*
X125060000Y-94311428D01*
X124974285Y-94340000D01*
X124745714Y-94882857D02*
X124660000Y-94911428D01*
X124517142Y-94911428D01*
X124460000Y-94882857D01*
X124431428Y-94854285D01*
X124402857Y-94797142D01*
X124402857Y-94740000D01*
X124431428Y-94682857D01*
X124460000Y-94654285D01*
X124517142Y-94625714D01*
X124631428Y-94597142D01*
X124688571Y-94568571D01*
X124717142Y-94540000D01*
X124745714Y-94482857D01*
X124745714Y-94425714D01*
X124717142Y-94368571D01*
X124688571Y-94340000D01*
X124631428Y-94311428D01*
X124488571Y-94311428D01*
X124402857Y-94340000D01*
X164760000Y-111157142D02*
X164788571Y-111214285D01*
X164788571Y-111300000D01*
X164760000Y-111385714D01*
X164702857Y-111442857D01*
X164645714Y-111471428D01*
X164531428Y-111500000D01*
X164445714Y-111500000D01*
X164331428Y-111471428D01*
X164274285Y-111442857D01*
X164217142Y-111385714D01*
X164188571Y-111300000D01*
X164188571Y-111242857D01*
X164217142Y-111157142D01*
X164245714Y-111128571D01*
X164445714Y-111128571D01*
X164445714Y-111242857D01*
X164188571Y-110871428D02*
X164788571Y-110871428D01*
X164188571Y-110528571D01*
X164788571Y-110528571D01*
X164188571Y-110242857D02*
X164788571Y-110242857D01*
X164788571Y-110100000D01*
X164760000Y-110014285D01*
X164702857Y-109957142D01*
X164645714Y-109928571D01*
X164531428Y-109900000D01*
X164445714Y-109900000D01*
X164331428Y-109928571D01*
X164274285Y-109957142D01*
X164217142Y-110014285D01*
X164188571Y-110100000D01*
X164188571Y-110242857D01*
%TO.C,REF\u002A\u002A*%
G36*
X128272971Y-118517822D02*
G01*
X124752178Y-118517822D01*
X124752178Y-117650198D01*
X128272971Y-117650198D01*
X128272971Y-118517822D01*
G37*
D15*
X128272971Y-118517822D02*
X124752178Y-118517822D01*
X124752178Y-117650198D01*
X128272971Y-117650198D01*
X128272971Y-118517822D01*
G36*
X127511662Y-113260696D02*
G01*
X127551314Y-113261782D01*
X127619109Y-113261782D01*
X127619109Y-113374951D01*
X127459577Y-113374951D01*
X127444682Y-113552732D01*
X127442682Y-113577037D01*
X127438023Y-113637880D01*
X127434731Y-113687389D01*
X127433092Y-113720992D01*
X127433390Y-113734116D01*
X127437724Y-113730343D01*
X127457496Y-113710676D01*
X127491679Y-113675818D01*
X127538541Y-113627576D01*
X127596354Y-113567757D01*
X127663387Y-113498167D01*
X127737912Y-113420615D01*
X127818197Y-113336907D01*
X127902513Y-113248849D01*
X127989130Y-113158250D01*
X128076319Y-113066915D01*
X128162349Y-112976653D01*
X128245492Y-112889269D01*
X128324016Y-112806572D01*
X128396192Y-112730368D01*
X128460291Y-112662463D01*
X128514583Y-112604666D01*
X128611592Y-112501040D01*
X128612034Y-112589315D01*
X128612475Y-112677589D01*
X128011938Y-113309158D01*
X127411401Y-113940726D01*
X127399396Y-114084674D01*
X127351365Y-114660635D01*
X127342876Y-114762791D01*
X127332343Y-114890612D01*
X127322621Y-115009767D01*
X127313898Y-115117914D01*
X127306358Y-115212713D01*
X127300187Y-115291819D01*
X127295573Y-115352892D01*
X127292700Y-115393590D01*
X127291754Y-115411570D01*
X127294251Y-115419808D01*
X127305471Y-115437599D01*
X127326751Y-115464411D01*
X127337021Y-115476129D01*
X127359225Y-115501466D01*
X127404023Y-115549986D01*
X127462281Y-115611192D01*
X127535129Y-115686307D01*
X127623703Y-115776550D01*
X127729134Y-115883145D01*
X127798492Y-115953093D01*
X127895179Y-116050658D01*
X127991526Y-116147941D01*
X128084638Y-116242014D01*
X128171618Y-116329950D01*
X128249569Y-116408820D01*
X128315596Y-116475699D01*
X128366802Y-116527658D01*
X128567514Y-116731620D01*
X128531058Y-116769671D01*
X128522460Y-116778245D01*
X128497095Y-116799297D01*
X128479695Y-116807723D01*
X128466071Y-116800530D01*
X128440743Y-116778944D01*
X128410379Y-116747995D01*
X128391896Y-116728448D01*
X128357427Y-116692752D01*
X128308712Y-116642684D01*
X128247469Y-116580001D01*
X128175420Y-116506457D01*
X128094285Y-116423810D01*
X128005784Y-116333815D01*
X127911637Y-116238228D01*
X127813565Y-116138805D01*
X127271161Y-115589343D01*
X127249066Y-115874746D01*
X127244250Y-115935662D01*
X127237216Y-116017548D01*
X127230872Y-116079569D01*
X127224748Y-116124987D01*
X127218373Y-116157062D01*
X127211277Y-116179052D01*
X127202991Y-116194219D01*
X127191393Y-116215416D01*
X127181850Y-116254386D01*
X127179010Y-116310531D01*
X127179010Y-116392773D01*
X126952674Y-116392773D01*
X126952674Y-116216733D01*
X126107082Y-116216733D01*
X126058203Y-116272262D01*
X126044836Y-116286722D01*
X125972388Y-116344813D01*
X125890532Y-116380576D01*
X125801900Y-116392773D01*
X125723692Y-116386306D01*
X125635233Y-116359047D01*
X125559507Y-116310328D01*
X125544748Y-116296403D01*
X125507864Y-116251328D01*
X125475503Y-116198819D01*
X125452297Y-116147061D01*
X125442879Y-116104239D01*
X125442697Y-116098023D01*
X125441342Y-116075246D01*
X125437800Y-116059513D01*
X125430390Y-116052068D01*
X125417431Y-116054156D01*
X125397243Y-116067020D01*
X125368145Y-116091905D01*
X125328456Y-116130053D01*
X125276496Y-116182710D01*
X125210584Y-116251119D01*
X125129040Y-116336524D01*
X125085604Y-116382112D01*
X125013000Y-116458441D01*
X124944309Y-116530808D01*
X124882223Y-116596366D01*
X124829434Y-116652274D01*
X124788634Y-116695686D01*
X124762515Y-116723758D01*
X124691119Y-116801436D01*
X124602863Y-116713416D01*
X125148690Y-116141287D01*
X125183105Y-116105188D01*
X125305546Y-115976272D01*
X125410651Y-115864754D01*
X125498736Y-115770288D01*
X125570116Y-115692529D01*
X125620588Y-115636174D01*
X125827247Y-115636174D01*
X125828872Y-115649434D01*
X125829156Y-115650819D01*
X125842698Y-115682228D01*
X125869748Y-115696863D01*
X125953129Y-115728063D01*
X126027418Y-115780038D01*
X126085846Y-115848791D01*
X126125890Y-115931315D01*
X126145026Y-116024606D01*
X126151364Y-116103565D01*
X127100838Y-116103565D01*
X127107458Y-116075273D01*
X127108629Y-116068329D01*
X127112268Y-116037281D01*
X127117234Y-115987081D01*
X127123157Y-115921727D01*
X127129669Y-115845219D01*
X127136401Y-115761555D01*
X127158724Y-115476129D01*
X126857826Y-115170565D01*
X126802636Y-115114704D01*
X126735109Y-115046888D01*
X126674529Y-114986643D01*
X126623021Y-114936052D01*
X126582710Y-114897200D01*
X126555722Y-114872170D01*
X126544182Y-114863046D01*
X126536444Y-114867405D01*
X126513395Y-114887241D01*
X126478709Y-114920375D01*
X126435487Y-114963820D01*
X126386832Y-115014587D01*
X126374140Y-115028051D01*
X126317229Y-115088275D01*
X126249414Y-115159864D01*
X126175800Y-115237437D01*
X126101493Y-115315611D01*
X126031599Y-115389005D01*
X126027401Y-115393409D01*
X125962420Y-115461785D01*
X125912836Y-115514732D01*
X125876688Y-115554767D01*
X125852016Y-115584411D01*
X125836858Y-115606181D01*
X125829256Y-115622595D01*
X125827247Y-115636174D01*
X125620588Y-115636174D01*
X125625105Y-115631131D01*
X125664019Y-115585748D01*
X125687173Y-115556035D01*
X125694882Y-115541644D01*
X125694883Y-115541559D01*
X125693825Y-115523624D01*
X125690737Y-115483421D01*
X125685858Y-115423687D01*
X125679432Y-115347158D01*
X125671700Y-115256569D01*
X125662905Y-115154657D01*
X125653287Y-115044159D01*
X125643091Y-114927811D01*
X125632556Y-114808348D01*
X125621926Y-114688507D01*
X125611442Y-114571025D01*
X125601346Y-114458637D01*
X125591881Y-114354081D01*
X125583288Y-114260091D01*
X125575809Y-114179405D01*
X125569687Y-114114759D01*
X125565162Y-114068888D01*
X125562478Y-114044530D01*
X125557067Y-114003732D01*
X125686253Y-114003732D01*
X125687908Y-114034653D01*
X125691549Y-114086653D01*
X125696995Y-114157487D01*
X125704063Y-114244911D01*
X125712570Y-114346681D01*
X125722335Y-114460552D01*
X125733174Y-114584279D01*
X125744907Y-114715618D01*
X125754079Y-114816908D01*
X125765566Y-114942526D01*
X125776322Y-115058762D01*
X125786131Y-115163380D01*
X125794781Y-115254140D01*
X125802057Y-115328804D01*
X125807746Y-115385134D01*
X125811634Y-115420891D01*
X125813506Y-115433837D01*
X125819188Y-115429826D01*
X125840020Y-115410138D01*
X125873872Y-115376322D01*
X125918412Y-115330837D01*
X125971310Y-115276146D01*
X126030236Y-115214710D01*
X126092858Y-115148990D01*
X126156848Y-115081449D01*
X126219874Y-115014547D01*
X126279606Y-114950746D01*
X126333713Y-114892507D01*
X126379865Y-114842292D01*
X126415733Y-114802563D01*
X126438984Y-114775780D01*
X126445778Y-114766477D01*
X126627601Y-114766477D01*
X126903305Y-115041968D01*
X126970726Y-115109224D01*
X127034267Y-115172162D01*
X127083490Y-115220100D01*
X127120196Y-115254594D01*
X127146190Y-115277199D01*
X127163276Y-115289471D01*
X127173256Y-115292966D01*
X127177935Y-115289238D01*
X127179116Y-115279844D01*
X127179873Y-115264749D01*
X127182601Y-115225883D01*
X127187108Y-115166895D01*
X127193179Y-115090473D01*
X127200596Y-114999305D01*
X127209142Y-114896080D01*
X127218602Y-114783483D01*
X127228758Y-114664205D01*
X127237723Y-114559077D01*
X127247066Y-114448351D01*
X127255443Y-114347814D01*
X127262653Y-114259943D01*
X127268496Y-114187215D01*
X127272769Y-114132110D01*
X127275273Y-114097104D01*
X127275805Y-114084674D01*
X127275384Y-114084908D01*
X127263509Y-114096350D01*
X127237130Y-114123198D01*
X127198570Y-114163018D01*
X127150153Y-114213372D01*
X127094203Y-114271828D01*
X127033042Y-114335948D01*
X126968995Y-114403298D01*
X126904385Y-114471443D01*
X126841535Y-114537948D01*
X126782768Y-114600377D01*
X126730409Y-114656295D01*
X126629533Y-114764406D01*
X126627601Y-114766477D01*
X126445778Y-114766477D01*
X126447290Y-114764406D01*
X126439148Y-114753383D01*
X126415478Y-114726999D01*
X126378478Y-114687527D01*
X126330350Y-114637191D01*
X126273296Y-114578217D01*
X126209520Y-114512830D01*
X126141222Y-114443255D01*
X126070605Y-114371716D01*
X125999871Y-114300438D01*
X125931222Y-114231647D01*
X125866861Y-114167566D01*
X125808989Y-114110422D01*
X125759810Y-114062439D01*
X125721524Y-114025841D01*
X125696334Y-114002854D01*
X125686442Y-113995703D01*
X125686253Y-114003732D01*
X125557067Y-114003732D01*
X125555390Y-113991089D01*
X125280297Y-113991089D01*
X125280140Y-113890495D01*
X125380891Y-113890495D01*
X125462624Y-113890495D01*
X125469895Y-113890489D01*
X125510950Y-113889613D01*
X125533277Y-113885867D01*
X125542529Y-113877270D01*
X125544357Y-113861840D01*
X125536306Y-113839159D01*
X125508730Y-113801428D01*
X125462624Y-113752179D01*
X125380891Y-113671172D01*
X125380891Y-113890495D01*
X125280140Y-113890495D01*
X125279968Y-113780471D01*
X125279639Y-113569852D01*
X124827914Y-113110891D01*
X124376189Y-112651931D01*
X124375570Y-112564848D01*
X124374951Y-112477767D01*
X124916769Y-113026952D01*
X124969137Y-113079998D01*
X125077803Y-113189772D01*
X125170709Y-113283114D01*
X125249055Y-113361173D01*
X125314043Y-113425097D01*
X125366872Y-113476035D01*
X125408743Y-113515135D01*
X125440855Y-113543548D01*
X125464410Y-113562420D01*
X125480608Y-113572901D01*
X125490649Y-113576139D01*
X125507579Y-113575158D01*
X125517084Y-113567996D01*
X125518723Y-113548401D01*
X125514782Y-113510124D01*
X125512065Y-113486025D01*
X125508284Y-113445744D01*
X125506760Y-113418961D01*
X125506015Y-113409728D01*
X125498746Y-113399839D01*
X125478668Y-113396562D01*
X125439689Y-113397992D01*
X125429737Y-113398553D01*
X125389898Y-113397921D01*
X125361560Y-113389167D01*
X125341586Y-113374951D01*
X125624852Y-113374951D01*
X125629013Y-113422104D01*
X125630935Y-113443498D01*
X125636924Y-113501909D01*
X125642826Y-113540381D01*
X125649727Y-113562912D01*
X125658712Y-113573498D01*
X125670870Y-113576139D01*
X125681801Y-113577937D01*
X125689050Y-113586530D01*
X125693100Y-113606505D01*
X125694863Y-113642450D01*
X125695248Y-113698952D01*
X125695248Y-113821766D01*
X125735447Y-113861840D01*
X125833565Y-113959654D01*
X125971881Y-114097542D01*
X125971881Y-113991089D01*
X126726337Y-113991089D01*
X126726337Y-114230000D01*
X126107831Y-114230000D01*
X126317592Y-114446906D01*
X126357770Y-114488334D01*
X126413328Y-114545200D01*
X126461570Y-114594082D01*
X126499971Y-114632441D01*
X126526003Y-114657741D01*
X126537140Y-114667442D01*
X126541373Y-114664767D01*
X126561224Y-114646782D01*
X126595451Y-114613481D01*
X126642227Y-114566712D01*
X126699724Y-114508325D01*
X126766112Y-114440169D01*
X126839564Y-114364094D01*
X126918251Y-114281950D01*
X126997341Y-114198943D01*
X127074871Y-114117136D01*
X127137746Y-114050083D01*
X127187502Y-113996007D01*
X127225678Y-113953129D01*
X127253811Y-113919673D01*
X127273440Y-113893861D01*
X127286101Y-113873914D01*
X127293334Y-113858056D01*
X127296675Y-113844509D01*
X127297561Y-113837910D01*
X127301488Y-113801548D01*
X127306459Y-113748018D01*
X127311927Y-113683421D01*
X127317344Y-113613862D01*
X127319181Y-113589635D01*
X127324488Y-113524178D01*
X127329548Y-113467717D01*
X127333863Y-113425618D01*
X127336934Y-113403243D01*
X127342955Y-113374951D01*
X125624852Y-113374951D01*
X125341586Y-113374951D01*
X125333630Y-113369289D01*
X125328820Y-113365104D01*
X125289482Y-113314427D01*
X125273903Y-113261782D01*
X125614698Y-113261782D01*
X127029221Y-113261782D01*
X127241881Y-113261782D01*
X127298908Y-113261782D01*
X127315993Y-113261662D01*
X127341308Y-113259462D01*
X127348616Y-113252334D01*
X127342943Y-113237508D01*
X127341267Y-113234682D01*
X127322448Y-113212944D01*
X127295183Y-113188820D01*
X127267987Y-113169254D01*
X127249371Y-113161188D01*
X127247697Y-113162463D01*
X127243544Y-113179976D01*
X127241881Y-113211485D01*
X127241881Y-113261782D01*
X127029221Y-113261782D01*
X127025526Y-113171095D01*
X127021832Y-113080407D01*
X126946386Y-113065252D01*
X126908551Y-113058379D01*
X126845368Y-113048756D01*
X126786065Y-113041496D01*
X126701188Y-113032893D01*
X126701188Y-113136040D01*
X126122773Y-113136040D01*
X126122773Y-113045122D01*
X126050471Y-113053753D01*
X125939998Y-113072249D01*
X125828816Y-113105691D01*
X125736850Y-113152324D01*
X125662542Y-113212786D01*
X125614698Y-113261782D01*
X125273903Y-113261782D01*
X125272172Y-113255934D01*
X125277474Y-113194575D01*
X125305975Y-113135297D01*
X125308733Y-113131606D01*
X125346822Y-113099851D01*
X125396476Y-113081067D01*
X125450002Y-113076071D01*
X125499707Y-113085678D01*
X125537900Y-113110704D01*
X125550831Y-113123480D01*
X125563428Y-113126576D01*
X125581467Y-113116998D01*
X125611928Y-113093082D01*
X125621274Y-113085731D01*
X125693430Y-113039339D01*
X125778915Y-112998084D01*
X125848830Y-112972575D01*
X126223367Y-112972575D01*
X126223367Y-113035446D01*
X126600594Y-113035446D01*
X126600594Y-112972575D01*
X126223367Y-112972575D01*
X125848830Y-112972575D01*
X125869767Y-112964936D01*
X125958027Y-112942868D01*
X126035736Y-112934852D01*
X126043991Y-112934788D01*
X126089879Y-112930321D01*
X126115079Y-112917795D01*
X126122773Y-112895784D01*
X126123676Y-112888849D01*
X126128615Y-112882885D01*
X126140611Y-112878519D01*
X126162680Y-112875503D01*
X126197836Y-112873590D01*
X126249094Y-112872530D01*
X126319471Y-112872077D01*
X126411980Y-112871980D01*
X126498660Y-112872150D01*
X126572332Y-112872834D01*
X126626265Y-112874215D01*
X126663288Y-112876470D01*
X126686230Y-112879778D01*
X126697920Y-112884320D01*
X126701188Y-112890272D01*
X126711937Y-112904888D01*
X126742055Y-112914215D01*
X126753582Y-112915847D01*
X126792886Y-112921591D01*
X126845188Y-112929378D01*
X126902376Y-112938003D01*
X126933916Y-112942393D01*
X126980074Y-112947148D01*
X127012641Y-112948295D01*
X127026023Y-112945495D01*
X127028308Y-112943671D01*
X127049405Y-112939165D01*
X127087355Y-112936029D01*
X127136048Y-112934852D01*
X127241881Y-112934852D01*
X127241894Y-112972575D01*
X127241894Y-112975718D01*
X127242388Y-112988668D01*
X127248819Y-113010411D01*
X127267123Y-113028851D01*
X127302830Y-113050801D01*
X127334174Y-113070854D01*
X127381893Y-113109356D01*
X127425138Y-113152579D01*
X127458219Y-113194627D01*
X127475442Y-113229604D01*
X127479662Y-113243081D01*
X127487480Y-113252334D01*
X127490116Y-113255454D01*
X127511662Y-113260696D01*
G37*
X127511662Y-113260696D02*
X127551314Y-113261782D01*
X127619109Y-113261782D01*
X127619109Y-113374951D01*
X127459577Y-113374951D01*
X127444682Y-113552732D01*
X127442682Y-113577037D01*
X127438023Y-113637880D01*
X127434731Y-113687389D01*
X127433092Y-113720992D01*
X127433390Y-113734116D01*
X127437724Y-113730343D01*
X127457496Y-113710676D01*
X127491679Y-113675818D01*
X127538541Y-113627576D01*
X127596354Y-113567757D01*
X127663387Y-113498167D01*
X127737912Y-113420615D01*
X127818197Y-113336907D01*
X127902513Y-113248849D01*
X127989130Y-113158250D01*
X128076319Y-113066915D01*
X128162349Y-112976653D01*
X128245492Y-112889269D01*
X128324016Y-112806572D01*
X128396192Y-112730368D01*
X128460291Y-112662463D01*
X128514583Y-112604666D01*
X128611592Y-112501040D01*
X128612034Y-112589315D01*
X128612475Y-112677589D01*
X128011938Y-113309158D01*
X127411401Y-113940726D01*
X127399396Y-114084674D01*
X127351365Y-114660635D01*
X127342876Y-114762791D01*
X127332343Y-114890612D01*
X127322621Y-115009767D01*
X127313898Y-115117914D01*
X127306358Y-115212713D01*
X127300187Y-115291819D01*
X127295573Y-115352892D01*
X127292700Y-115393590D01*
X127291754Y-115411570D01*
X127294251Y-115419808D01*
X127305471Y-115437599D01*
X127326751Y-115464411D01*
X127337021Y-115476129D01*
X127359225Y-115501466D01*
X127404023Y-115549986D01*
X127462281Y-115611192D01*
X127535129Y-115686307D01*
X127623703Y-115776550D01*
X127729134Y-115883145D01*
X127798492Y-115953093D01*
X127895179Y-116050658D01*
X127991526Y-116147941D01*
X128084638Y-116242014D01*
X128171618Y-116329950D01*
X128249569Y-116408820D01*
X128315596Y-116475699D01*
X128366802Y-116527658D01*
X128567514Y-116731620D01*
X128531058Y-116769671D01*
X128522460Y-116778245D01*
X128497095Y-116799297D01*
X128479695Y-116807723D01*
X128466071Y-116800530D01*
X128440743Y-116778944D01*
X128410379Y-116747995D01*
X128391896Y-116728448D01*
X128357427Y-116692752D01*
X128308712Y-116642684D01*
X128247469Y-116580001D01*
X128175420Y-116506457D01*
X128094285Y-116423810D01*
X128005784Y-116333815D01*
X127911637Y-116238228D01*
X127813565Y-116138805D01*
X127271161Y-115589343D01*
X127249066Y-115874746D01*
X127244250Y-115935662D01*
X127237216Y-116017548D01*
X127230872Y-116079569D01*
X127224748Y-116124987D01*
X127218373Y-116157062D01*
X127211277Y-116179052D01*
X127202991Y-116194219D01*
X127191393Y-116215416D01*
X127181850Y-116254386D01*
X127179010Y-116310531D01*
X127179010Y-116392773D01*
X126952674Y-116392773D01*
X126952674Y-116216733D01*
X126107082Y-116216733D01*
X126058203Y-116272262D01*
X126044836Y-116286722D01*
X125972388Y-116344813D01*
X125890532Y-116380576D01*
X125801900Y-116392773D01*
X125723692Y-116386306D01*
X125635233Y-116359047D01*
X125559507Y-116310328D01*
X125544748Y-116296403D01*
X125507864Y-116251328D01*
X125475503Y-116198819D01*
X125452297Y-116147061D01*
X125442879Y-116104239D01*
X125442697Y-116098023D01*
X125441342Y-116075246D01*
X125437800Y-116059513D01*
X125430390Y-116052068D01*
X125417431Y-116054156D01*
X125397243Y-116067020D01*
X125368145Y-116091905D01*
X125328456Y-116130053D01*
X125276496Y-116182710D01*
X125210584Y-116251119D01*
X125129040Y-116336524D01*
X125085604Y-116382112D01*
X125013000Y-116458441D01*
X124944309Y-116530808D01*
X124882223Y-116596366D01*
X124829434Y-116652274D01*
X124788634Y-116695686D01*
X124762515Y-116723758D01*
X124691119Y-116801436D01*
X124602863Y-116713416D01*
X125148690Y-116141287D01*
X125183105Y-116105188D01*
X125305546Y-115976272D01*
X125410651Y-115864754D01*
X125498736Y-115770288D01*
X125570116Y-115692529D01*
X125620588Y-115636174D01*
X125827247Y-115636174D01*
X125828872Y-115649434D01*
X125829156Y-115650819D01*
X125842698Y-115682228D01*
X125869748Y-115696863D01*
X125953129Y-115728063D01*
X126027418Y-115780038D01*
X126085846Y-115848791D01*
X126125890Y-115931315D01*
X126145026Y-116024606D01*
X126151364Y-116103565D01*
X127100838Y-116103565D01*
X127107458Y-116075273D01*
X127108629Y-116068329D01*
X127112268Y-116037281D01*
X127117234Y-115987081D01*
X127123157Y-115921727D01*
X127129669Y-115845219D01*
X127136401Y-115761555D01*
X127158724Y-115476129D01*
X126857826Y-115170565D01*
X126802636Y-115114704D01*
X126735109Y-115046888D01*
X126674529Y-114986643D01*
X126623021Y-114936052D01*
X126582710Y-114897200D01*
X126555722Y-114872170D01*
X126544182Y-114863046D01*
X126536444Y-114867405D01*
X126513395Y-114887241D01*
X126478709Y-114920375D01*
X126435487Y-114963820D01*
X126386832Y-115014587D01*
X126374140Y-115028051D01*
X126317229Y-115088275D01*
X126249414Y-115159864D01*
X126175800Y-115237437D01*
X126101493Y-115315611D01*
X126031599Y-115389005D01*
X126027401Y-115393409D01*
X125962420Y-115461785D01*
X125912836Y-115514732D01*
X125876688Y-115554767D01*
X125852016Y-115584411D01*
X125836858Y-115606181D01*
X125829256Y-115622595D01*
X125827247Y-115636174D01*
X125620588Y-115636174D01*
X125625105Y-115631131D01*
X125664019Y-115585748D01*
X125687173Y-115556035D01*
X125694882Y-115541644D01*
X125694883Y-115541559D01*
X125693825Y-115523624D01*
X125690737Y-115483421D01*
X125685858Y-115423687D01*
X125679432Y-115347158D01*
X125671700Y-115256569D01*
X125662905Y-115154657D01*
X125653287Y-115044159D01*
X125643091Y-114927811D01*
X125632556Y-114808348D01*
X125621926Y-114688507D01*
X125611442Y-114571025D01*
X125601346Y-114458637D01*
X125591881Y-114354081D01*
X125583288Y-114260091D01*
X125575809Y-114179405D01*
X125569687Y-114114759D01*
X125565162Y-114068888D01*
X125562478Y-114044530D01*
X125557067Y-114003732D01*
X125686253Y-114003732D01*
X125687908Y-114034653D01*
X125691549Y-114086653D01*
X125696995Y-114157487D01*
X125704063Y-114244911D01*
X125712570Y-114346681D01*
X125722335Y-114460552D01*
X125733174Y-114584279D01*
X125744907Y-114715618D01*
X125754079Y-114816908D01*
X125765566Y-114942526D01*
X125776322Y-115058762D01*
X125786131Y-115163380D01*
X125794781Y-115254140D01*
X125802057Y-115328804D01*
X125807746Y-115385134D01*
X125811634Y-115420891D01*
X125813506Y-115433837D01*
X125819188Y-115429826D01*
X125840020Y-115410138D01*
X125873872Y-115376322D01*
X125918412Y-115330837D01*
X125971310Y-115276146D01*
X126030236Y-115214710D01*
X126092858Y-115148990D01*
X126156848Y-115081449D01*
X126219874Y-115014547D01*
X126279606Y-114950746D01*
X126333713Y-114892507D01*
X126379865Y-114842292D01*
X126415733Y-114802563D01*
X126438984Y-114775780D01*
X126445778Y-114766477D01*
X126627601Y-114766477D01*
X126903305Y-115041968D01*
X126970726Y-115109224D01*
X127034267Y-115172162D01*
X127083490Y-115220100D01*
X127120196Y-115254594D01*
X127146190Y-115277199D01*
X127163276Y-115289471D01*
X127173256Y-115292966D01*
X127177935Y-115289238D01*
X127179116Y-115279844D01*
X127179873Y-115264749D01*
X127182601Y-115225883D01*
X127187108Y-115166895D01*
X127193179Y-115090473D01*
X127200596Y-114999305D01*
X127209142Y-114896080D01*
X127218602Y-114783483D01*
X127228758Y-114664205D01*
X127237723Y-114559077D01*
X127247066Y-114448351D01*
X127255443Y-114347814D01*
X127262653Y-114259943D01*
X127268496Y-114187215D01*
X127272769Y-114132110D01*
X127275273Y-114097104D01*
X127275805Y-114084674D01*
X127275384Y-114084908D01*
X127263509Y-114096350D01*
X127237130Y-114123198D01*
X127198570Y-114163018D01*
X127150153Y-114213372D01*
X127094203Y-114271828D01*
X127033042Y-114335948D01*
X126968995Y-114403298D01*
X126904385Y-114471443D01*
X126841535Y-114537948D01*
X126782768Y-114600377D01*
X126730409Y-114656295D01*
X126629533Y-114764406D01*
X126627601Y-114766477D01*
X126445778Y-114766477D01*
X126447290Y-114764406D01*
X126439148Y-114753383D01*
X126415478Y-114726999D01*
X126378478Y-114687527D01*
X126330350Y-114637191D01*
X126273296Y-114578217D01*
X126209520Y-114512830D01*
X126141222Y-114443255D01*
X126070605Y-114371716D01*
X125999871Y-114300438D01*
X125931222Y-114231647D01*
X125866861Y-114167566D01*
X125808989Y-114110422D01*
X125759810Y-114062439D01*
X125721524Y-114025841D01*
X125696334Y-114002854D01*
X125686442Y-113995703D01*
X125686253Y-114003732D01*
X125557067Y-114003732D01*
X125555390Y-113991089D01*
X125280297Y-113991089D01*
X125280140Y-113890495D01*
X125380891Y-113890495D01*
X125462624Y-113890495D01*
X125469895Y-113890489D01*
X125510950Y-113889613D01*
X125533277Y-113885867D01*
X125542529Y-113877270D01*
X125544357Y-113861840D01*
X125536306Y-113839159D01*
X125508730Y-113801428D01*
X125462624Y-113752179D01*
X125380891Y-113671172D01*
X125380891Y-113890495D01*
X125280140Y-113890495D01*
X125279968Y-113780471D01*
X125279639Y-113569852D01*
X124827914Y-113110891D01*
X124376189Y-112651931D01*
X124375570Y-112564848D01*
X124374951Y-112477767D01*
X124916769Y-113026952D01*
X124969137Y-113079998D01*
X125077803Y-113189772D01*
X125170709Y-113283114D01*
X125249055Y-113361173D01*
X125314043Y-113425097D01*
X125366872Y-113476035D01*
X125408743Y-113515135D01*
X125440855Y-113543548D01*
X125464410Y-113562420D01*
X125480608Y-113572901D01*
X125490649Y-113576139D01*
X125507579Y-113575158D01*
X125517084Y-113567996D01*
X125518723Y-113548401D01*
X125514782Y-113510124D01*
X125512065Y-113486025D01*
X125508284Y-113445744D01*
X125506760Y-113418961D01*
X125506015Y-113409728D01*
X125498746Y-113399839D01*
X125478668Y-113396562D01*
X125439689Y-113397992D01*
X125429737Y-113398553D01*
X125389898Y-113397921D01*
X125361560Y-113389167D01*
X125341586Y-113374951D01*
X125624852Y-113374951D01*
X125629013Y-113422104D01*
X125630935Y-113443498D01*
X125636924Y-113501909D01*
X125642826Y-113540381D01*
X125649727Y-113562912D01*
X125658712Y-113573498D01*
X125670870Y-113576139D01*
X125681801Y-113577937D01*
X125689050Y-113586530D01*
X125693100Y-113606505D01*
X125694863Y-113642450D01*
X125695248Y-113698952D01*
X125695248Y-113821766D01*
X125735447Y-113861840D01*
X125833565Y-113959654D01*
X125971881Y-114097542D01*
X125971881Y-113991089D01*
X126726337Y-113991089D01*
X126726337Y-114230000D01*
X126107831Y-114230000D01*
X126317592Y-114446906D01*
X126357770Y-114488334D01*
X126413328Y-114545200D01*
X126461570Y-114594082D01*
X126499971Y-114632441D01*
X126526003Y-114657741D01*
X126537140Y-114667442D01*
X126541373Y-114664767D01*
X126561224Y-114646782D01*
X126595451Y-114613481D01*
X126642227Y-114566712D01*
X126699724Y-114508325D01*
X126766112Y-114440169D01*
X126839564Y-114364094D01*
X126918251Y-114281950D01*
X126997341Y-114198943D01*
X127074871Y-114117136D01*
X127137746Y-114050083D01*
X127187502Y-113996007D01*
X127225678Y-113953129D01*
X127253811Y-113919673D01*
X127273440Y-113893861D01*
X127286101Y-113873914D01*
X127293334Y-113858056D01*
X127296675Y-113844509D01*
X127297561Y-113837910D01*
X127301488Y-113801548D01*
X127306459Y-113748018D01*
X127311927Y-113683421D01*
X127317344Y-113613862D01*
X127319181Y-113589635D01*
X127324488Y-113524178D01*
X127329548Y-113467717D01*
X127333863Y-113425618D01*
X127336934Y-113403243D01*
X127342955Y-113374951D01*
X125624852Y-113374951D01*
X125341586Y-113374951D01*
X125333630Y-113369289D01*
X125328820Y-113365104D01*
X125289482Y-113314427D01*
X125273903Y-113261782D01*
X125614698Y-113261782D01*
X127029221Y-113261782D01*
X127241881Y-113261782D01*
X127298908Y-113261782D01*
X127315993Y-113261662D01*
X127341308Y-113259462D01*
X127348616Y-113252334D01*
X127342943Y-113237508D01*
X127341267Y-113234682D01*
X127322448Y-113212944D01*
X127295183Y-113188820D01*
X127267987Y-113169254D01*
X127249371Y-113161188D01*
X127247697Y-113162463D01*
X127243544Y-113179976D01*
X127241881Y-113211485D01*
X127241881Y-113261782D01*
X127029221Y-113261782D01*
X127025526Y-113171095D01*
X127021832Y-113080407D01*
X126946386Y-113065252D01*
X126908551Y-113058379D01*
X126845368Y-113048756D01*
X126786065Y-113041496D01*
X126701188Y-113032893D01*
X126701188Y-113136040D01*
X126122773Y-113136040D01*
X126122773Y-113045122D01*
X126050471Y-113053753D01*
X125939998Y-113072249D01*
X125828816Y-113105691D01*
X125736850Y-113152324D01*
X125662542Y-113212786D01*
X125614698Y-113261782D01*
X125273903Y-113261782D01*
X125272172Y-113255934D01*
X125277474Y-113194575D01*
X125305975Y-113135297D01*
X125308733Y-113131606D01*
X125346822Y-113099851D01*
X125396476Y-113081067D01*
X125450002Y-113076071D01*
X125499707Y-113085678D01*
X125537900Y-113110704D01*
X125550831Y-113123480D01*
X125563428Y-113126576D01*
X125581467Y-113116998D01*
X125611928Y-113093082D01*
X125621274Y-113085731D01*
X125693430Y-113039339D01*
X125778915Y-112998084D01*
X125848830Y-112972575D01*
X126223367Y-112972575D01*
X126223367Y-113035446D01*
X126600594Y-113035446D01*
X126600594Y-112972575D01*
X126223367Y-112972575D01*
X125848830Y-112972575D01*
X125869767Y-112964936D01*
X125958027Y-112942868D01*
X126035736Y-112934852D01*
X126043991Y-112934788D01*
X126089879Y-112930321D01*
X126115079Y-112917795D01*
X126122773Y-112895784D01*
X126123676Y-112888849D01*
X126128615Y-112882885D01*
X126140611Y-112878519D01*
X126162680Y-112875503D01*
X126197836Y-112873590D01*
X126249094Y-112872530D01*
X126319471Y-112872077D01*
X126411980Y-112871980D01*
X126498660Y-112872150D01*
X126572332Y-112872834D01*
X126626265Y-112874215D01*
X126663288Y-112876470D01*
X126686230Y-112879778D01*
X126697920Y-112884320D01*
X126701188Y-112890272D01*
X126711937Y-112904888D01*
X126742055Y-112914215D01*
X126753582Y-112915847D01*
X126792886Y-112921591D01*
X126845188Y-112929378D01*
X126902376Y-112938003D01*
X126933916Y-112942393D01*
X126980074Y-112947148D01*
X127012641Y-112948295D01*
X127026023Y-112945495D01*
X127028308Y-112943671D01*
X127049405Y-112939165D01*
X127087355Y-112936029D01*
X127136048Y-112934852D01*
X127241881Y-112934852D01*
X127241894Y-112972575D01*
X127241894Y-112975718D01*
X127242388Y-112988668D01*
X127248819Y-113010411D01*
X127267123Y-113028851D01*
X127302830Y-113050801D01*
X127334174Y-113070854D01*
X127381893Y-113109356D01*
X127425138Y-113152579D01*
X127458219Y-113194627D01*
X127475442Y-113229604D01*
X127479662Y-113243081D01*
X127487480Y-113252334D01*
X127490116Y-113255454D01*
X127511662Y-113260696D01*
G36*
X144537275Y-98968931D02*
G01*
X144621095Y-99413555D01*
X145239667Y-99668551D01*
X145610707Y-99416246D01*
X145684144Y-99366506D01*
X145781499Y-99301218D01*
X145865787Y-99245454D01*
X145932631Y-99202078D01*
X145977654Y-99173953D01*
X145996478Y-99163942D01*
X146008039Y-99171061D01*
X146042596Y-99200894D01*
X146094894Y-99249852D01*
X146160500Y-99313440D01*
X146234983Y-99387163D01*
X146313913Y-99466525D01*
X146392856Y-99547031D01*
X146467384Y-99624185D01*
X146533063Y-99693493D01*
X146585463Y-99750457D01*
X146620153Y-99790584D01*
X146632701Y-99809377D01*
X146629782Y-99817451D01*
X146609571Y-99853469D01*
X146572663Y-99912744D01*
X146522050Y-99990630D01*
X146460725Y-100082481D01*
X146391679Y-100183650D01*
X146353787Y-100238826D01*
X146288606Y-100334884D01*
X146232723Y-100418717D01*
X146189117Y-100485777D01*
X146160769Y-100531519D01*
X146150657Y-100551396D01*
X146150823Y-100552497D01*
X146159743Y-100577694D01*
X146180206Y-100629147D01*
X146209360Y-100700135D01*
X146244353Y-100783935D01*
X146282332Y-100873828D01*
X146320445Y-100963091D01*
X146355839Y-101045003D01*
X146385662Y-101112843D01*
X146407061Y-101159890D01*
X146417184Y-101179422D01*
X146423174Y-101181155D01*
X146459566Y-101188969D01*
X146524427Y-101201915D01*
X146612565Y-101218979D01*
X146718787Y-101239151D01*
X146837902Y-101261418D01*
X146900683Y-101273223D01*
X147015912Y-101295748D01*
X147116662Y-101316550D01*
X147197426Y-101334435D01*
X147252698Y-101348208D01*
X147276971Y-101356674D01*
X147281331Y-101365066D01*
X147288563Y-101406072D01*
X147294246Y-101474368D01*
X147298382Y-101563529D01*
X147300977Y-101667128D01*
X147302036Y-101778740D01*
X147301561Y-101891938D01*
X147299559Y-102000296D01*
X147296033Y-102097389D01*
X147290987Y-102176790D01*
X147284427Y-102232072D01*
X147276356Y-102256810D01*
X147271458Y-102259600D01*
X147234930Y-102271569D01*
X147171565Y-102287405D01*
X147088686Y-102305374D01*
X146993618Y-102323741D01*
X146961542Y-102329591D01*
X146813393Y-102356798D01*
X146696961Y-102378663D01*
X146608209Y-102396093D01*
X146543103Y-102409996D01*
X146497606Y-102421277D01*
X146467682Y-102430843D01*
X146449294Y-102439601D01*
X146438407Y-102448457D01*
X146437142Y-102449943D01*
X146419338Y-102480931D01*
X146392994Y-102537634D01*
X146360661Y-102613399D01*
X146324893Y-102701574D01*
X146288244Y-102795507D01*
X146253266Y-102888547D01*
X146222513Y-102974041D01*
X146198538Y-103045336D01*
X146183895Y-103095782D01*
X146181136Y-103118726D01*
X146182981Y-103121703D01*
X146202075Y-103150493D01*
X146237984Y-103203595D01*
X146287378Y-103276117D01*
X146346927Y-103363167D01*
X146413303Y-103459854D01*
X146431520Y-103486456D01*
X146495577Y-103581875D01*
X146550937Y-103667212D01*
X146594439Y-103737405D01*
X146622924Y-103787394D01*
X146633232Y-103812116D01*
X146631011Y-103818616D01*
X146607858Y-103850644D01*
X146562177Y-103902945D01*
X146497241Y-103971999D01*
X146416319Y-104054286D01*
X146322685Y-104146286D01*
X146269165Y-104197781D01*
X146184542Y-104277983D01*
X146110475Y-104346678D01*
X146050941Y-104400252D01*
X146009917Y-104435085D01*
X145991381Y-104447563D01*
X145978646Y-104442938D01*
X145939436Y-104421057D01*
X145882495Y-104385273D01*
X145815250Y-104340117D01*
X145767438Y-104307165D01*
X145671985Y-104241727D01*
X145570125Y-104172228D01*
X145477088Y-104109075D01*
X145294832Y-103985800D01*
X145141841Y-104068520D01*
X145105817Y-104087613D01*
X145040303Y-104120272D01*
X144989640Y-104142819D01*
X144962564Y-104151226D01*
X144953703Y-104140430D01*
X144931699Y-104099323D01*
X144899199Y-104031549D01*
X144858010Y-103941409D01*
X144809942Y-103833205D01*
X144756802Y-103711237D01*
X144700399Y-103579808D01*
X144642542Y-103443218D01*
X144585038Y-103305767D01*
X144529697Y-103171758D01*
X144478326Y-103045491D01*
X144432735Y-102931268D01*
X144394732Y-102833390D01*
X144366124Y-102756157D01*
X144348721Y-102703871D01*
X144344331Y-102680833D01*
X144344628Y-102680160D01*
X144365077Y-102658863D01*
X144407850Y-102625508D01*
X144464117Y-102587011D01*
X144481877Y-102575256D01*
X144617014Y-102463735D01*
X144728856Y-102330906D01*
X144814755Y-102182298D01*
X144872062Y-102023440D01*
X144898131Y-101859860D01*
X144890313Y-101697088D01*
X144858644Y-101552315D01*
X144801782Y-101406124D01*
X144718888Y-101275703D01*
X144605131Y-101151813D01*
X144560433Y-101112235D01*
X144415935Y-101014723D01*
X144259838Y-100949050D01*
X144096667Y-100914630D01*
X143930943Y-100910874D01*
X143767192Y-100937194D01*
X143609936Y-100993003D01*
X143463698Y-101077714D01*
X143333004Y-101190737D01*
X143222374Y-101331487D01*
X143201105Y-101366342D01*
X143128810Y-101525655D01*
X143090415Y-101691552D01*
X143084914Y-101859737D01*
X143111301Y-102025913D01*
X143168570Y-102185784D01*
X143255717Y-102335053D01*
X143371736Y-102469423D01*
X143515622Y-102584599D01*
X143520294Y-102587702D01*
X143575964Y-102626933D01*
X143617689Y-102660286D01*
X143636746Y-102680833D01*
X143634342Y-102696941D01*
X143619391Y-102743844D01*
X143592881Y-102816539D01*
X143556620Y-102910725D01*
X143512416Y-103022098D01*
X143462076Y-103146358D01*
X143407407Y-103279202D01*
X143350218Y-103416327D01*
X143292316Y-103553432D01*
X143235510Y-103686215D01*
X143181606Y-103810374D01*
X143132412Y-103921606D01*
X143089737Y-104015609D01*
X143055387Y-104088082D01*
X143031171Y-104134722D01*
X143018897Y-104151226D01*
X143008689Y-104148991D01*
X142968586Y-104132926D01*
X142909318Y-104104759D01*
X142839619Y-104068520D01*
X142686629Y-103985800D01*
X142504373Y-104109075D01*
X142450527Y-104145579D01*
X142350374Y-104213784D01*
X142250525Y-104282098D01*
X142166211Y-104340117D01*
X142119679Y-104371736D01*
X142059200Y-104411020D01*
X142014357Y-104437912D01*
X141992455Y-104447883D01*
X141983045Y-104443650D01*
X141949031Y-104417721D01*
X141896595Y-104372070D01*
X141830301Y-104311186D01*
X141754713Y-104239561D01*
X141674396Y-104161683D01*
X141593913Y-104082045D01*
X141517829Y-104005135D01*
X141450707Y-103935445D01*
X141397112Y-103877464D01*
X141361608Y-103835684D01*
X141348759Y-103814593D01*
X141349500Y-103810581D01*
X141364793Y-103777920D01*
X141397462Y-103721412D01*
X141444350Y-103646163D01*
X141502301Y-103557275D01*
X141568157Y-103459854D01*
X141586627Y-103432982D01*
X141651482Y-103338423D01*
X141708609Y-103254827D01*
X141754678Y-103187084D01*
X141786359Y-103140086D01*
X141800324Y-103118726D01*
X141800668Y-103117811D01*
X141796546Y-103091678D01*
X141780807Y-103038740D01*
X141756004Y-102965647D01*
X141724689Y-102879052D01*
X141689417Y-102785608D01*
X141652740Y-102691965D01*
X141617212Y-102604777D01*
X141585386Y-102530695D01*
X141559816Y-102476371D01*
X141543053Y-102448457D01*
X141541374Y-102446724D01*
X141529372Y-102437956D01*
X141509103Y-102429115D01*
X141476529Y-102419292D01*
X141427616Y-102407583D01*
X141358327Y-102393080D01*
X141264625Y-102374876D01*
X141142476Y-102352066D01*
X140987842Y-102323741D01*
X140955770Y-102317780D01*
X140863893Y-102299352D01*
X140786607Y-102281892D01*
X140731236Y-102267133D01*
X140705105Y-102256810D01*
X140700733Y-102248197D01*
X140693445Y-102206826D01*
X140687669Y-102138241D01*
X140683410Y-102048868D01*
X140680673Y-101945135D01*
X140679462Y-101833465D01*
X140679782Y-101720287D01*
X140681636Y-101612026D01*
X140685030Y-101515108D01*
X140689967Y-101435959D01*
X140696452Y-101381006D01*
X140704489Y-101356674D01*
X140712696Y-101353079D01*
X140753519Y-101341748D01*
X140822524Y-101325722D01*
X140914203Y-101306195D01*
X141023050Y-101284362D01*
X141143558Y-101261418D01*
X141209357Y-101249159D01*
X141322135Y-101227901D01*
X141419207Y-101209287D01*
X141495382Y-101194328D01*
X141545469Y-101184036D01*
X141564276Y-101179422D01*
X141564983Y-101178471D01*
X141576961Y-101154310D01*
X141599794Y-101103694D01*
X141630630Y-101033338D01*
X141666613Y-100949958D01*
X141704891Y-100860270D01*
X141742609Y-100770989D01*
X141776913Y-100688832D01*
X141804949Y-100620513D01*
X141823864Y-100572748D01*
X141830803Y-100552254D01*
X141827742Y-100545043D01*
X141807372Y-100510728D01*
X141770422Y-100452970D01*
X141719860Y-100376299D01*
X141658657Y-100285248D01*
X141589781Y-100184350D01*
X141551994Y-100129093D01*
X141486782Y-100032215D01*
X141430871Y-99947193D01*
X141387241Y-99878662D01*
X141358877Y-99831260D01*
X141348759Y-99809623D01*
X141355790Y-99797887D01*
X141385197Y-99762818D01*
X141433441Y-99709745D01*
X141496093Y-99643164D01*
X141568725Y-99567574D01*
X141646908Y-99487472D01*
X141726214Y-99407354D01*
X141802213Y-99331718D01*
X141870478Y-99265062D01*
X141926580Y-99211882D01*
X141966090Y-99176676D01*
X141984579Y-99163942D01*
X141994843Y-99168893D01*
X142032530Y-99191857D01*
X142093348Y-99230938D01*
X142172913Y-99283272D01*
X142266843Y-99345996D01*
X142370754Y-99416246D01*
X142741794Y-99668551D01*
X143051080Y-99541053D01*
X143360365Y-99413555D01*
X143444186Y-98968931D01*
X143528006Y-98524307D01*
X144453454Y-98524307D01*
X144537275Y-98968931D01*
G37*
X144537275Y-98968931D02*
X144621095Y-99413555D01*
X145239667Y-99668551D01*
X145610707Y-99416246D01*
X145684144Y-99366506D01*
X145781499Y-99301218D01*
X145865787Y-99245454D01*
X145932631Y-99202078D01*
X145977654Y-99173953D01*
X145996478Y-99163942D01*
X146008039Y-99171061D01*
X146042596Y-99200894D01*
X146094894Y-99249852D01*
X146160500Y-99313440D01*
X146234983Y-99387163D01*
X146313913Y-99466525D01*
X146392856Y-99547031D01*
X146467384Y-99624185D01*
X146533063Y-99693493D01*
X146585463Y-99750457D01*
X146620153Y-99790584D01*
X146632701Y-99809377D01*
X146629782Y-99817451D01*
X146609571Y-99853469D01*
X146572663Y-99912744D01*
X146522050Y-99990630D01*
X146460725Y-100082481D01*
X146391679Y-100183650D01*
X146353787Y-100238826D01*
X146288606Y-100334884D01*
X146232723Y-100418717D01*
X146189117Y-100485777D01*
X146160769Y-100531519D01*
X146150657Y-100551396D01*
X146150823Y-100552497D01*
X146159743Y-100577694D01*
X146180206Y-100629147D01*
X146209360Y-100700135D01*
X146244353Y-100783935D01*
X146282332Y-100873828D01*
X146320445Y-100963091D01*
X146355839Y-101045003D01*
X146385662Y-101112843D01*
X146407061Y-101159890D01*
X146417184Y-101179422D01*
X146423174Y-101181155D01*
X146459566Y-101188969D01*
X146524427Y-101201915D01*
X146612565Y-101218979D01*
X146718787Y-101239151D01*
X146837902Y-101261418D01*
X146900683Y-101273223D01*
X147015912Y-101295748D01*
X147116662Y-101316550D01*
X147197426Y-101334435D01*
X147252698Y-101348208D01*
X147276971Y-101356674D01*
X147281331Y-101365066D01*
X147288563Y-101406072D01*
X147294246Y-101474368D01*
X147298382Y-101563529D01*
X147300977Y-101667128D01*
X147302036Y-101778740D01*
X147301561Y-101891938D01*
X147299559Y-102000296D01*
X147296033Y-102097389D01*
X147290987Y-102176790D01*
X147284427Y-102232072D01*
X147276356Y-102256810D01*
X147271458Y-102259600D01*
X147234930Y-102271569D01*
X147171565Y-102287405D01*
X147088686Y-102305374D01*
X146993618Y-102323741D01*
X146961542Y-102329591D01*
X146813393Y-102356798D01*
X146696961Y-102378663D01*
X146608209Y-102396093D01*
X146543103Y-102409996D01*
X146497606Y-102421277D01*
X146467682Y-102430843D01*
X146449294Y-102439601D01*
X146438407Y-102448457D01*
X146437142Y-102449943D01*
X146419338Y-102480931D01*
X146392994Y-102537634D01*
X146360661Y-102613399D01*
X146324893Y-102701574D01*
X146288244Y-102795507D01*
X146253266Y-102888547D01*
X146222513Y-102974041D01*
X146198538Y-103045336D01*
X146183895Y-103095782D01*
X146181136Y-103118726D01*
X146182981Y-103121703D01*
X146202075Y-103150493D01*
X146237984Y-103203595D01*
X146287378Y-103276117D01*
X146346927Y-103363167D01*
X146413303Y-103459854D01*
X146431520Y-103486456D01*
X146495577Y-103581875D01*
X146550937Y-103667212D01*
X146594439Y-103737405D01*
X146622924Y-103787394D01*
X146633232Y-103812116D01*
X146631011Y-103818616D01*
X146607858Y-103850644D01*
X146562177Y-103902945D01*
X146497241Y-103971999D01*
X146416319Y-104054286D01*
X146322685Y-104146286D01*
X146269165Y-104197781D01*
X146184542Y-104277983D01*
X146110475Y-104346678D01*
X146050941Y-104400252D01*
X146009917Y-104435085D01*
X145991381Y-104447563D01*
X145978646Y-104442938D01*
X145939436Y-104421057D01*
X145882495Y-104385273D01*
X145815250Y-104340117D01*
X145767438Y-104307165D01*
X145671985Y-104241727D01*
X145570125Y-104172228D01*
X145477088Y-104109075D01*
X145294832Y-103985800D01*
X145141841Y-104068520D01*
X145105817Y-104087613D01*
X145040303Y-104120272D01*
X144989640Y-104142819D01*
X144962564Y-104151226D01*
X144953703Y-104140430D01*
X144931699Y-104099323D01*
X144899199Y-104031549D01*
X144858010Y-103941409D01*
X144809942Y-103833205D01*
X144756802Y-103711237D01*
X144700399Y-103579808D01*
X144642542Y-103443218D01*
X144585038Y-103305767D01*
X144529697Y-103171758D01*
X144478326Y-103045491D01*
X144432735Y-102931268D01*
X144394732Y-102833390D01*
X144366124Y-102756157D01*
X144348721Y-102703871D01*
X144344331Y-102680833D01*
X144344628Y-102680160D01*
X144365077Y-102658863D01*
X144407850Y-102625508D01*
X144464117Y-102587011D01*
X144481877Y-102575256D01*
X144617014Y-102463735D01*
X144728856Y-102330906D01*
X144814755Y-102182298D01*
X144872062Y-102023440D01*
X144898131Y-101859860D01*
X144890313Y-101697088D01*
X144858644Y-101552315D01*
X144801782Y-101406124D01*
X144718888Y-101275703D01*
X144605131Y-101151813D01*
X144560433Y-101112235D01*
X144415935Y-101014723D01*
X144259838Y-100949050D01*
X144096667Y-100914630D01*
X143930943Y-100910874D01*
X143767192Y-100937194D01*
X143609936Y-100993003D01*
X143463698Y-101077714D01*
X143333004Y-101190737D01*
X143222374Y-101331487D01*
X143201105Y-101366342D01*
X143128810Y-101525655D01*
X143090415Y-101691552D01*
X143084914Y-101859737D01*
X143111301Y-102025913D01*
X143168570Y-102185784D01*
X143255717Y-102335053D01*
X143371736Y-102469423D01*
X143515622Y-102584599D01*
X143520294Y-102587702D01*
X143575964Y-102626933D01*
X143617689Y-102660286D01*
X143636746Y-102680833D01*
X143634342Y-102696941D01*
X143619391Y-102743844D01*
X143592881Y-102816539D01*
X143556620Y-102910725D01*
X143512416Y-103022098D01*
X143462076Y-103146358D01*
X143407407Y-103279202D01*
X143350218Y-103416327D01*
X143292316Y-103553432D01*
X143235510Y-103686215D01*
X143181606Y-103810374D01*
X143132412Y-103921606D01*
X143089737Y-104015609D01*
X143055387Y-104088082D01*
X143031171Y-104134722D01*
X143018897Y-104151226D01*
X143008689Y-104148991D01*
X142968586Y-104132926D01*
X142909318Y-104104759D01*
X142839619Y-104068520D01*
X142686629Y-103985800D01*
X142504373Y-104109075D01*
X142450527Y-104145579D01*
X142350374Y-104213784D01*
X142250525Y-104282098D01*
X142166211Y-104340117D01*
X142119679Y-104371736D01*
X142059200Y-104411020D01*
X142014357Y-104437912D01*
X141992455Y-104447883D01*
X141983045Y-104443650D01*
X141949031Y-104417721D01*
X141896595Y-104372070D01*
X141830301Y-104311186D01*
X141754713Y-104239561D01*
X141674396Y-104161683D01*
X141593913Y-104082045D01*
X141517829Y-104005135D01*
X141450707Y-103935445D01*
X141397112Y-103877464D01*
X141361608Y-103835684D01*
X141348759Y-103814593D01*
X141349500Y-103810581D01*
X141364793Y-103777920D01*
X141397462Y-103721412D01*
X141444350Y-103646163D01*
X141502301Y-103557275D01*
X141568157Y-103459854D01*
X141586627Y-103432982D01*
X141651482Y-103338423D01*
X141708609Y-103254827D01*
X141754678Y-103187084D01*
X141786359Y-103140086D01*
X141800324Y-103118726D01*
X141800668Y-103117811D01*
X141796546Y-103091678D01*
X141780807Y-103038740D01*
X141756004Y-102965647D01*
X141724689Y-102879052D01*
X141689417Y-102785608D01*
X141652740Y-102691965D01*
X141617212Y-102604777D01*
X141585386Y-102530695D01*
X141559816Y-102476371D01*
X141543053Y-102448457D01*
X141541374Y-102446724D01*
X141529372Y-102437956D01*
X141509103Y-102429115D01*
X141476529Y-102419292D01*
X141427616Y-102407583D01*
X141358327Y-102393080D01*
X141264625Y-102374876D01*
X141142476Y-102352066D01*
X140987842Y-102323741D01*
X140955770Y-102317780D01*
X140863893Y-102299352D01*
X140786607Y-102281892D01*
X140731236Y-102267133D01*
X140705105Y-102256810D01*
X140700733Y-102248197D01*
X140693445Y-102206826D01*
X140687669Y-102138241D01*
X140683410Y-102048868D01*
X140680673Y-101945135D01*
X140679462Y-101833465D01*
X140679782Y-101720287D01*
X140681636Y-101612026D01*
X140685030Y-101515108D01*
X140689967Y-101435959D01*
X140696452Y-101381006D01*
X140704489Y-101356674D01*
X140712696Y-101353079D01*
X140753519Y-101341748D01*
X140822524Y-101325722D01*
X140914203Y-101306195D01*
X141023050Y-101284362D01*
X141143558Y-101261418D01*
X141209357Y-101249159D01*
X141322135Y-101227901D01*
X141419207Y-101209287D01*
X141495382Y-101194328D01*
X141545469Y-101184036D01*
X141564276Y-101179422D01*
X141564983Y-101178471D01*
X141576961Y-101154310D01*
X141599794Y-101103694D01*
X141630630Y-101033338D01*
X141666613Y-100949958D01*
X141704891Y-100860270D01*
X141742609Y-100770989D01*
X141776913Y-100688832D01*
X141804949Y-100620513D01*
X141823864Y-100572748D01*
X141830803Y-100552254D01*
X141827742Y-100545043D01*
X141807372Y-100510728D01*
X141770422Y-100452970D01*
X141719860Y-100376299D01*
X141658657Y-100285248D01*
X141589781Y-100184350D01*
X141551994Y-100129093D01*
X141486782Y-100032215D01*
X141430871Y-99947193D01*
X141387241Y-99878662D01*
X141358877Y-99831260D01*
X141348759Y-99809623D01*
X141355790Y-99797887D01*
X141385197Y-99762818D01*
X141433441Y-99709745D01*
X141496093Y-99643164D01*
X141568725Y-99567574D01*
X141646908Y-99487472D01*
X141726214Y-99407354D01*
X141802213Y-99331718D01*
X141870478Y-99265062D01*
X141926580Y-99211882D01*
X141966090Y-99176676D01*
X141984579Y-99163942D01*
X141994843Y-99168893D01*
X142032530Y-99191857D01*
X142093348Y-99230938D01*
X142172913Y-99283272D01*
X142266843Y-99345996D01*
X142370754Y-99416246D01*
X142741794Y-99668551D01*
X143051080Y-99541053D01*
X143360365Y-99413555D01*
X143444186Y-98968931D01*
X143528006Y-98524307D01*
X144453454Y-98524307D01*
X144537275Y-98968931D01*
%TD*%
M02*
