%TF.GenerationSoftware,KiCad,Pcbnew,6.0.11+dfsg-1~bpo11+1*%
%TF.CreationDate,2023-05-15T10:52:48+02:00*%
%TF.ProjectId,avert_12,61766572-745f-4313-922e-6b696361645f,rev?*%
%TF.SameCoordinates,Original*%
%TF.FileFunction,Legend,Top*%
%TF.FilePolarity,Positive*%
%FSLAX46Y46*%
G04 Gerber Fmt 4.6, Leading zero omitted, Abs format (unit mm)*
G04 Created by KiCad (PCBNEW 6.0.11+dfsg-1~bpo11+1) date 2023-05-15 10:52:48*
%MOMM*%
%LPD*%
G01*
G04 APERTURE LIST*
%ADD10C,0.150000*%
%ADD11C,0.100000*%
%ADD12C,0.080000*%
%ADD13C,0.350000*%
%ADD14C,0.200000*%
%ADD15C,0.120000*%
G04 APERTURE END LIST*
D10*
G36*
X140250000Y-97000000D02*
G01*
X139000000Y-98500000D01*
X139000000Y-97750000D01*
X138000000Y-97750000D01*
X138000000Y-96250000D01*
X139000000Y-96250000D01*
X139000000Y-95250000D01*
X140250000Y-97000000D01*
G37*
X140250000Y-97000000D02*
X139000000Y-98500000D01*
X139000000Y-97750000D01*
X138000000Y-97750000D01*
X138000000Y-96250000D01*
X139000000Y-96250000D01*
X139000000Y-95250000D01*
X140250000Y-97000000D01*
G36*
X166500000Y-71753266D02*
G01*
X165500000Y-72603266D01*
X165500000Y-72003266D01*
X164750000Y-72003266D01*
X164750000Y-71503266D01*
X165500000Y-71503266D01*
X165500000Y-70753266D01*
X166500000Y-71753266D01*
G37*
X166500000Y-71753266D02*
X165500000Y-72603266D01*
X165500000Y-72003266D01*
X164750000Y-72003266D01*
X164750000Y-71503266D01*
X165500000Y-71503266D01*
X165500000Y-70753266D01*
X166500000Y-71753266D01*
G36*
X124108000Y-69244000D02*
G01*
X123108000Y-70150000D01*
X123108000Y-69494000D01*
X122358000Y-69494000D01*
X122358000Y-68994000D01*
X123108000Y-68994000D01*
X123108000Y-68244000D01*
X124108000Y-69244000D01*
G37*
X124108000Y-69244000D02*
X123108000Y-70150000D01*
X123108000Y-69494000D01*
X122358000Y-69494000D01*
X122358000Y-68994000D01*
X123108000Y-68994000D01*
X123108000Y-68244000D01*
X124108000Y-69244000D01*
G36*
X140250000Y-103500000D02*
G01*
X139000000Y-105000000D01*
X139000000Y-104250000D01*
X138000000Y-104250000D01*
X138000000Y-102750000D01*
X139000000Y-102750000D01*
X139000000Y-101750000D01*
X140250000Y-103500000D01*
G37*
X140250000Y-103500000D02*
X139000000Y-105000000D01*
X139000000Y-104250000D01*
X138000000Y-104250000D01*
X138000000Y-102750000D01*
X139000000Y-102750000D01*
X139000000Y-101750000D01*
X140250000Y-103500000D01*
G36*
X123450000Y-117100000D02*
G01*
X122450000Y-117950000D01*
X122450000Y-117350000D01*
X121700000Y-117350000D01*
X121700000Y-116850000D01*
X122450000Y-116850000D01*
X122450000Y-116100000D01*
X123450000Y-117100000D01*
G37*
X123450000Y-117100000D02*
X122450000Y-117950000D01*
X122450000Y-117350000D01*
X121700000Y-117350000D01*
X121700000Y-116850000D01*
X122450000Y-116850000D01*
X122450000Y-116100000D01*
X123450000Y-117100000D01*
G36*
X167250000Y-114250000D02*
G01*
X166250000Y-115100000D01*
X166250000Y-114500000D01*
X165500000Y-114500000D01*
X165500000Y-114000000D01*
X166250000Y-114000000D01*
X166250000Y-113250000D01*
X167250000Y-114250000D01*
G37*
X167250000Y-114250000D02*
X166250000Y-115100000D01*
X166250000Y-114500000D01*
X165500000Y-114500000D01*
X165500000Y-114000000D01*
X166250000Y-114000000D01*
X166250000Y-113250000D01*
X167250000Y-114250000D01*
D11*
X126485000Y-93677142D02*
X126456428Y-93734285D01*
X126456428Y-93820000D01*
X126485000Y-93905714D01*
X126542142Y-93962857D01*
X126599285Y-93991428D01*
X126713571Y-94020000D01*
X126799285Y-94020000D01*
X126913571Y-93991428D01*
X126970714Y-93962857D01*
X127027857Y-93905714D01*
X127056428Y-93820000D01*
X127056428Y-93762857D01*
X127027857Y-93677142D01*
X126999285Y-93648571D01*
X126799285Y-93648571D01*
X126799285Y-93762857D01*
X127056428Y-93391428D02*
X126456428Y-93391428D01*
X127056428Y-93048571D01*
X126456428Y-93048571D01*
X127056428Y-92762857D02*
X126456428Y-92762857D01*
X126456428Y-92620000D01*
X126485000Y-92534285D01*
X126542142Y-92477142D01*
X126599285Y-92448571D01*
X126713571Y-92420000D01*
X126799285Y-92420000D01*
X126913571Y-92448571D01*
X126970714Y-92477142D01*
X127027857Y-92534285D01*
X127056428Y-92620000D01*
X127056428Y-92762857D01*
X127056428Y-92162857D02*
X126456428Y-92162857D01*
X126456428Y-92020000D01*
X126485000Y-91934285D01*
X126542142Y-91877142D01*
X126599285Y-91848571D01*
X126713571Y-91820000D01*
X126799285Y-91820000D01*
X126913571Y-91848571D01*
X126970714Y-91877142D01*
X127027857Y-91934285D01*
X127056428Y-92020000D01*
X127056428Y-92162857D01*
X143702857Y-84271428D02*
X144045714Y-84271428D01*
X143874285Y-84871428D02*
X143874285Y-84271428D01*
X144188571Y-84271428D02*
X144588571Y-84871428D01*
X144588571Y-84271428D02*
X144188571Y-84871428D01*
D12*
X142515238Y-88691904D02*
X142572380Y-88710952D01*
X142667619Y-88710952D01*
X142705714Y-88691904D01*
X142724761Y-88672857D01*
X142743809Y-88634761D01*
X142743809Y-88596666D01*
X142724761Y-88558571D01*
X142705714Y-88539523D01*
X142667619Y-88520476D01*
X142591428Y-88501428D01*
X142553333Y-88482380D01*
X142534285Y-88463333D01*
X142515238Y-88425238D01*
X142515238Y-88387142D01*
X142534285Y-88349047D01*
X142553333Y-88330000D01*
X142591428Y-88310952D01*
X142686666Y-88310952D01*
X142743809Y-88330000D01*
X143143809Y-88672857D02*
X143124761Y-88691904D01*
X143067619Y-88710952D01*
X143029523Y-88710952D01*
X142972380Y-88691904D01*
X142934285Y-88653809D01*
X142915238Y-88615714D01*
X142896190Y-88539523D01*
X142896190Y-88482380D01*
X142915238Y-88406190D01*
X142934285Y-88368095D01*
X142972380Y-88330000D01*
X143029523Y-88310952D01*
X143067619Y-88310952D01*
X143124761Y-88330000D01*
X143143809Y-88349047D01*
X143524761Y-88710952D02*
X143296190Y-88710952D01*
X143410476Y-88710952D02*
X143410476Y-88310952D01*
X143372380Y-88368095D01*
X143334285Y-88406190D01*
X143296190Y-88425238D01*
D11*
X158515000Y-113708571D02*
X158515000Y-113422857D01*
X158686428Y-113765714D02*
X158086428Y-113565714D01*
X158686428Y-113365714D01*
X158143571Y-113194285D02*
X158115000Y-113165714D01*
X158086428Y-113108571D01*
X158086428Y-112965714D01*
X158115000Y-112908571D01*
X158143571Y-112880000D01*
X158200714Y-112851428D01*
X158257857Y-112851428D01*
X158343571Y-112880000D01*
X158686428Y-113222857D01*
X158686428Y-112851428D01*
D12*
X156694285Y-108336666D02*
X156884761Y-108336666D01*
X156656190Y-108450952D02*
X156789523Y-108050952D01*
X156922857Y-108450952D01*
X157037142Y-108089047D02*
X157056190Y-108070000D01*
X157094285Y-108050952D01*
X157189523Y-108050952D01*
X157227619Y-108070000D01*
X157246666Y-108089047D01*
X157265714Y-108127142D01*
X157265714Y-108165238D01*
X157246666Y-108222380D01*
X157018095Y-108450952D01*
X157265714Y-108450952D01*
X141465238Y-108120000D02*
X141427142Y-108100952D01*
X141370000Y-108100952D01*
X141312857Y-108120000D01*
X141274761Y-108158095D01*
X141255714Y-108196190D01*
X141236666Y-108272380D01*
X141236666Y-108329523D01*
X141255714Y-108405714D01*
X141274761Y-108443809D01*
X141312857Y-108481904D01*
X141370000Y-108500952D01*
X141408095Y-108500952D01*
X141465238Y-108481904D01*
X141484285Y-108462857D01*
X141484285Y-108329523D01*
X141408095Y-108329523D01*
X141655714Y-108500952D02*
X141655714Y-108100952D01*
X141884285Y-108500952D01*
X141884285Y-108100952D01*
X142074761Y-108500952D02*
X142074761Y-108100952D01*
X142170000Y-108100952D01*
X142227142Y-108120000D01*
X142265238Y-108158095D01*
X142284285Y-108196190D01*
X142303333Y-108272380D01*
X142303333Y-108329523D01*
X142284285Y-108405714D01*
X142265238Y-108443809D01*
X142227142Y-108481904D01*
X142170000Y-108500952D01*
X142074761Y-108500952D01*
X124557619Y-117300952D02*
X124367142Y-117300952D01*
X124367142Y-116900952D01*
X124690952Y-117091428D02*
X124824285Y-117091428D01*
X124881428Y-117300952D02*
X124690952Y-117300952D01*
X124690952Y-116900952D01*
X124881428Y-116900952D01*
X125052857Y-117300952D02*
X125052857Y-116900952D01*
X125148095Y-116900952D01*
X125205238Y-116920000D01*
X125243333Y-116958095D01*
X125262380Y-116996190D01*
X125281428Y-117072380D01*
X125281428Y-117129523D01*
X125262380Y-117205714D01*
X125243333Y-117243809D01*
X125205238Y-117281904D01*
X125148095Y-117300952D01*
X125052857Y-117300952D01*
X125757619Y-117300952D02*
X125757619Y-116900952D01*
X125890952Y-117186666D01*
X126024285Y-116900952D01*
X126024285Y-117300952D01*
X126481428Y-117339047D02*
X126443333Y-117320000D01*
X126405238Y-117281904D01*
X126348095Y-117224761D01*
X126310000Y-117205714D01*
X126271904Y-117205714D01*
X126290952Y-117300952D02*
X126252857Y-117281904D01*
X126214761Y-117243809D01*
X126195714Y-117167619D01*
X126195714Y-117034285D01*
X126214761Y-116958095D01*
X126252857Y-116920000D01*
X126290952Y-116900952D01*
X126367142Y-116900952D01*
X126405238Y-116920000D01*
X126443333Y-116958095D01*
X126462380Y-117034285D01*
X126462380Y-117167619D01*
X126443333Y-117243809D01*
X126405238Y-117281904D01*
X126367142Y-117300952D01*
X126290952Y-117300952D01*
X126576666Y-116900952D02*
X126805238Y-116900952D01*
X126690952Y-117300952D02*
X126690952Y-116900952D01*
X126881428Y-116900952D02*
X127110000Y-116900952D01*
X126995714Y-117300952D02*
X126995714Y-116900952D01*
D11*
X137905000Y-99472857D02*
X138362142Y-99472857D01*
X138133571Y-99701428D02*
X138133571Y-99244285D01*
X138962142Y-99701428D02*
X138619285Y-99701428D01*
X138790714Y-99701428D02*
X138790714Y-99101428D01*
X138733571Y-99187142D01*
X138676428Y-99244285D01*
X138619285Y-99272857D01*
X139190714Y-99158571D02*
X139219285Y-99130000D01*
X139276428Y-99101428D01*
X139419285Y-99101428D01*
X139476428Y-99130000D01*
X139505000Y-99158571D01*
X139533571Y-99215714D01*
X139533571Y-99272857D01*
X139505000Y-99358571D01*
X139162142Y-99701428D01*
X139533571Y-99701428D01*
D13*
X117252857Y-67770000D02*
X117967142Y-67770000D01*
X117110000Y-68198571D02*
X117610000Y-66698571D01*
X118110000Y-68198571D01*
D12*
X160960952Y-92884761D02*
X160960952Y-93075238D01*
X160560952Y-93075238D01*
X160960952Y-92751428D02*
X160560952Y-92751428D01*
X160846666Y-92618095D01*
X160560952Y-92484761D01*
X160960952Y-92484761D01*
D14*
X159620000Y-108962857D02*
X159620000Y-108334285D01*
X159562857Y-108220000D01*
X159448571Y-108162857D01*
X159220000Y-108162857D01*
X159105714Y-108220000D01*
X159620000Y-108905714D02*
X159505714Y-108962857D01*
X159220000Y-108962857D01*
X159105714Y-108905714D01*
X159048571Y-108791428D01*
X159048571Y-108677142D01*
X159105714Y-108562857D01*
X159220000Y-108505714D01*
X159505714Y-108505714D01*
X159620000Y-108448571D01*
X160077142Y-108162857D02*
X160362857Y-108962857D01*
X160648571Y-108162857D01*
X161562857Y-108905714D02*
X161448571Y-108962857D01*
X161220000Y-108962857D01*
X161105714Y-108905714D01*
X161048571Y-108791428D01*
X161048571Y-108334285D01*
X161105714Y-108220000D01*
X161220000Y-108162857D01*
X161448571Y-108162857D01*
X161562857Y-108220000D01*
X161620000Y-108334285D01*
X161620000Y-108448571D01*
X161048571Y-108562857D01*
X162134285Y-108962857D02*
X162134285Y-108162857D01*
X162134285Y-108391428D02*
X162191428Y-108277142D01*
X162248571Y-108220000D01*
X162362857Y-108162857D01*
X162477142Y-108162857D01*
X162705714Y-108162857D02*
X163162857Y-108162857D01*
X162877142Y-107762857D02*
X162877142Y-108791428D01*
X162934285Y-108905714D01*
X163048571Y-108962857D01*
X163162857Y-108962857D01*
X163505714Y-107877142D02*
X163562857Y-107820000D01*
X163677142Y-107762857D01*
X163962857Y-107762857D01*
X164077142Y-107820000D01*
X164134285Y-107877142D01*
X164191428Y-107991428D01*
X164191428Y-108105714D01*
X164134285Y-108277142D01*
X163448571Y-108962857D01*
X164191428Y-108962857D01*
D12*
X146335238Y-108461904D02*
X146392380Y-108480952D01*
X146487619Y-108480952D01*
X146525714Y-108461904D01*
X146544761Y-108442857D01*
X146563809Y-108404761D01*
X146563809Y-108366666D01*
X146544761Y-108328571D01*
X146525714Y-108309523D01*
X146487619Y-108290476D01*
X146411428Y-108271428D01*
X146373333Y-108252380D01*
X146354285Y-108233333D01*
X146335238Y-108195238D01*
X146335238Y-108157142D01*
X146354285Y-108119047D01*
X146373333Y-108100000D01*
X146411428Y-108080952D01*
X146506666Y-108080952D01*
X146563809Y-108100000D01*
X146963809Y-108442857D02*
X146944761Y-108461904D01*
X146887619Y-108480952D01*
X146849523Y-108480952D01*
X146792380Y-108461904D01*
X146754285Y-108423809D01*
X146735238Y-108385714D01*
X146716190Y-108309523D01*
X146716190Y-108252380D01*
X146735238Y-108176190D01*
X146754285Y-108138095D01*
X146792380Y-108100000D01*
X146849523Y-108080952D01*
X146887619Y-108080952D01*
X146944761Y-108100000D01*
X146963809Y-108119047D01*
X147097142Y-108080952D02*
X147344761Y-108080952D01*
X147211428Y-108233333D01*
X147268571Y-108233333D01*
X147306666Y-108252380D01*
X147325714Y-108271428D01*
X147344761Y-108309523D01*
X147344761Y-108404761D01*
X147325714Y-108442857D01*
X147306666Y-108461904D01*
X147268571Y-108480952D01*
X147154285Y-108480952D01*
X147116190Y-108461904D01*
X147097142Y-108442857D01*
D13*
X169472857Y-67750000D02*
X170187142Y-67750000D01*
X169330000Y-68178571D02*
X169830000Y-66678571D01*
X170330000Y-68178571D01*
D12*
X142514761Y-108120952D02*
X142762380Y-108120952D01*
X142629047Y-108273333D01*
X142686190Y-108273333D01*
X142724285Y-108292380D01*
X142743333Y-108311428D01*
X142762380Y-108349523D01*
X142762380Y-108444761D01*
X142743333Y-108482857D01*
X142724285Y-108501904D01*
X142686190Y-108520952D01*
X142571904Y-108520952D01*
X142533809Y-108501904D01*
X142514761Y-108482857D01*
X142876666Y-108120952D02*
X143010000Y-108520952D01*
X143143333Y-108120952D01*
X143238571Y-108120952D02*
X143486190Y-108120952D01*
X143352857Y-108273333D01*
X143410000Y-108273333D01*
X143448095Y-108292380D01*
X143467142Y-108311428D01*
X143486190Y-108349523D01*
X143486190Y-108444761D01*
X143467142Y-108482857D01*
X143448095Y-108501904D01*
X143410000Y-108520952D01*
X143295714Y-108520952D01*
X143257619Y-108501904D01*
X143238571Y-108482857D01*
D13*
X169957142Y-119152857D02*
X170171428Y-119224285D01*
X170242857Y-119295714D01*
X170314285Y-119438571D01*
X170314285Y-119652857D01*
X170242857Y-119795714D01*
X170171428Y-119867142D01*
X170028571Y-119938571D01*
X169457142Y-119938571D01*
X169457142Y-118438571D01*
X169957142Y-118438571D01*
X170100000Y-118510000D01*
X170171428Y-118581428D01*
X170242857Y-118724285D01*
X170242857Y-118867142D01*
X170171428Y-119010000D01*
X170100000Y-119081428D01*
X169957142Y-119152857D01*
X169457142Y-119152857D01*
D12*
X141435238Y-88340000D02*
X141397142Y-88320952D01*
X141340000Y-88320952D01*
X141282857Y-88340000D01*
X141244761Y-88378095D01*
X141225714Y-88416190D01*
X141206666Y-88492380D01*
X141206666Y-88549523D01*
X141225714Y-88625714D01*
X141244761Y-88663809D01*
X141282857Y-88701904D01*
X141340000Y-88720952D01*
X141378095Y-88720952D01*
X141435238Y-88701904D01*
X141454285Y-88682857D01*
X141454285Y-88549523D01*
X141378095Y-88549523D01*
X141625714Y-88720952D02*
X141625714Y-88320952D01*
X141854285Y-88720952D01*
X141854285Y-88320952D01*
X142044761Y-88720952D02*
X142044761Y-88320952D01*
X142140000Y-88320952D01*
X142197142Y-88340000D01*
X142235238Y-88378095D01*
X142254285Y-88416190D01*
X142273333Y-88492380D01*
X142273333Y-88549523D01*
X142254285Y-88625714D01*
X142235238Y-88663809D01*
X142197142Y-88701904D01*
X142140000Y-88720952D01*
X142044761Y-88720952D01*
X146582857Y-88730952D02*
X146449523Y-88540476D01*
X146354285Y-88730952D02*
X146354285Y-88330952D01*
X146506666Y-88330952D01*
X146544761Y-88350000D01*
X146563809Y-88369047D01*
X146582857Y-88407142D01*
X146582857Y-88464285D01*
X146563809Y-88502380D01*
X146544761Y-88521428D01*
X146506666Y-88540476D01*
X146354285Y-88540476D01*
X146716190Y-88330952D02*
X146982857Y-88730952D01*
X146982857Y-88330952D02*
X146716190Y-88730952D01*
X147211428Y-88330952D02*
X147249523Y-88330952D01*
X147287619Y-88350000D01*
X147306666Y-88369047D01*
X147325714Y-88407142D01*
X147344761Y-88483333D01*
X147344761Y-88578571D01*
X147325714Y-88654761D01*
X147306666Y-88692857D01*
X147287619Y-88711904D01*
X147249523Y-88730952D01*
X147211428Y-88730952D01*
X147173333Y-88711904D01*
X147154285Y-88692857D01*
X147135238Y-88654761D01*
X147116190Y-88578571D01*
X147116190Y-88483333D01*
X147135238Y-88407142D01*
X147154285Y-88369047D01*
X147173333Y-88350000D01*
X147211428Y-88330952D01*
D11*
X126525000Y-101337142D02*
X126496428Y-101394285D01*
X126496428Y-101480000D01*
X126525000Y-101565714D01*
X126582142Y-101622857D01*
X126639285Y-101651428D01*
X126753571Y-101680000D01*
X126839285Y-101680000D01*
X126953571Y-101651428D01*
X127010714Y-101622857D01*
X127067857Y-101565714D01*
X127096428Y-101480000D01*
X127096428Y-101422857D01*
X127067857Y-101337142D01*
X127039285Y-101308571D01*
X126839285Y-101308571D01*
X126839285Y-101422857D01*
X127096428Y-101051428D02*
X126496428Y-101051428D01*
X127096428Y-100708571D01*
X126496428Y-100708571D01*
X127096428Y-100422857D02*
X126496428Y-100422857D01*
X126496428Y-100280000D01*
X126525000Y-100194285D01*
X126582142Y-100137142D01*
X126639285Y-100108571D01*
X126753571Y-100080000D01*
X126839285Y-100080000D01*
X126953571Y-100108571D01*
X127010714Y-100137142D01*
X127067857Y-100194285D01*
X127096428Y-100280000D01*
X127096428Y-100422857D01*
X127096428Y-99822857D02*
X126496428Y-99822857D01*
X126496428Y-99680000D01*
X126525000Y-99594285D01*
X126582142Y-99537142D01*
X126639285Y-99508571D01*
X126753571Y-99480000D01*
X126839285Y-99480000D01*
X126953571Y-99508571D01*
X127010714Y-99537142D01*
X127067857Y-99594285D01*
X127096428Y-99680000D01*
X127096428Y-99822857D01*
D12*
X152930952Y-108422857D02*
X152911904Y-108441904D01*
X152854761Y-108460952D01*
X152816666Y-108460952D01*
X152759523Y-108441904D01*
X152721428Y-108403809D01*
X152702380Y-108365714D01*
X152683333Y-108289523D01*
X152683333Y-108232380D01*
X152702380Y-108156190D01*
X152721428Y-108118095D01*
X152759523Y-108080000D01*
X152816666Y-108060952D01*
X152854761Y-108060952D01*
X152911904Y-108080000D01*
X152930952Y-108099047D01*
X153045238Y-108060952D02*
X153273809Y-108060952D01*
X153159523Y-108460952D02*
X153159523Y-108060952D01*
X153369047Y-108060952D02*
X153635714Y-108460952D01*
X153635714Y-108060952D02*
X153369047Y-108460952D01*
X151624285Y-108356666D02*
X151814761Y-108356666D01*
X151586190Y-108470952D02*
X151719523Y-108070952D01*
X151852857Y-108470952D01*
X152195714Y-108470952D02*
X151967142Y-108470952D01*
X152081428Y-108470952D02*
X152081428Y-108070952D01*
X152043333Y-108128095D01*
X152005238Y-108166190D01*
X151967142Y-108185238D01*
X154173333Y-108422857D02*
X154154285Y-108441904D01*
X154097142Y-108460952D01*
X154059047Y-108460952D01*
X154001904Y-108441904D01*
X153963809Y-108403809D01*
X153944761Y-108365714D01*
X153925714Y-108289523D01*
X153925714Y-108232380D01*
X153944761Y-108156190D01*
X153963809Y-108118095D01*
X154001904Y-108080000D01*
X154059047Y-108060952D01*
X154097142Y-108060952D01*
X154154285Y-108080000D01*
X154173333Y-108099047D01*
X154573333Y-108460952D02*
X154440000Y-108270476D01*
X154344761Y-108460952D02*
X154344761Y-108060952D01*
X154497142Y-108060952D01*
X154535238Y-108080000D01*
X154554285Y-108099047D01*
X154573333Y-108137142D01*
X154573333Y-108194285D01*
X154554285Y-108232380D01*
X154535238Y-108251428D01*
X154497142Y-108270476D01*
X154344761Y-108270476D01*
X154706666Y-108060952D02*
X154973333Y-108460952D01*
X154973333Y-108060952D02*
X154706666Y-108460952D01*
X124915714Y-107838571D02*
X125220476Y-107838571D01*
X125068095Y-107990952D02*
X125068095Y-107686190D01*
X125601428Y-107590952D02*
X125410952Y-107590952D01*
X125391904Y-107781428D01*
X125410952Y-107762380D01*
X125449047Y-107743333D01*
X125544285Y-107743333D01*
X125582380Y-107762380D01*
X125601428Y-107781428D01*
X125620476Y-107819523D01*
X125620476Y-107914761D01*
X125601428Y-107952857D01*
X125582380Y-107971904D01*
X125544285Y-107990952D01*
X125449047Y-107990952D01*
X125410952Y-107971904D01*
X125391904Y-107952857D01*
X125734761Y-107590952D02*
X125868095Y-107990952D01*
X126001428Y-107590952D01*
X143775238Y-88711904D02*
X143832380Y-88730952D01*
X143927619Y-88730952D01*
X143965714Y-88711904D01*
X143984761Y-88692857D01*
X144003809Y-88654761D01*
X144003809Y-88616666D01*
X143984761Y-88578571D01*
X143965714Y-88559523D01*
X143927619Y-88540476D01*
X143851428Y-88521428D01*
X143813333Y-88502380D01*
X143794285Y-88483333D01*
X143775238Y-88445238D01*
X143775238Y-88407142D01*
X143794285Y-88369047D01*
X143813333Y-88350000D01*
X143851428Y-88330952D01*
X143946666Y-88330952D01*
X144003809Y-88350000D01*
X144175238Y-88730952D02*
X144175238Y-88330952D01*
X144270476Y-88330952D01*
X144327619Y-88350000D01*
X144365714Y-88388095D01*
X144384761Y-88426190D01*
X144403809Y-88502380D01*
X144403809Y-88559523D01*
X144384761Y-88635714D01*
X144365714Y-88673809D01*
X144327619Y-88711904D01*
X144270476Y-88730952D01*
X144175238Y-88730952D01*
X144784761Y-88730952D02*
X144556190Y-88730952D01*
X144670476Y-88730952D02*
X144670476Y-88330952D01*
X144632380Y-88388095D01*
X144594285Y-88426190D01*
X144556190Y-88445238D01*
X148865238Y-108461904D02*
X148922380Y-108480952D01*
X149017619Y-108480952D01*
X149055714Y-108461904D01*
X149074761Y-108442857D01*
X149093809Y-108404761D01*
X149093809Y-108366666D01*
X149074761Y-108328571D01*
X149055714Y-108309523D01*
X149017619Y-108290476D01*
X148941428Y-108271428D01*
X148903333Y-108252380D01*
X148884285Y-108233333D01*
X148865238Y-108195238D01*
X148865238Y-108157142D01*
X148884285Y-108119047D01*
X148903333Y-108100000D01*
X148941428Y-108080952D01*
X149036666Y-108080952D01*
X149093809Y-108100000D01*
X149493809Y-108442857D02*
X149474761Y-108461904D01*
X149417619Y-108480952D01*
X149379523Y-108480952D01*
X149322380Y-108461904D01*
X149284285Y-108423809D01*
X149265238Y-108385714D01*
X149246190Y-108309523D01*
X149246190Y-108252380D01*
X149265238Y-108176190D01*
X149284285Y-108138095D01*
X149322380Y-108100000D01*
X149379523Y-108080952D01*
X149417619Y-108080952D01*
X149474761Y-108100000D01*
X149493809Y-108119047D01*
X149646190Y-108119047D02*
X149665238Y-108100000D01*
X149703333Y-108080952D01*
X149798571Y-108080952D01*
X149836666Y-108100000D01*
X149855714Y-108119047D01*
X149874761Y-108157142D01*
X149874761Y-108195238D01*
X149855714Y-108252380D01*
X149627142Y-108480952D01*
X149874761Y-108480952D01*
D11*
X158515000Y-118718571D02*
X158515000Y-118432857D01*
X158686428Y-118775714D02*
X158086428Y-118575714D01*
X158686428Y-118375714D01*
X158086428Y-118061428D02*
X158086428Y-118004285D01*
X158115000Y-117947142D01*
X158143571Y-117918571D01*
X158200714Y-117890000D01*
X158315000Y-117861428D01*
X158457857Y-117861428D01*
X158572142Y-117890000D01*
X158629285Y-117918571D01*
X158657857Y-117947142D01*
X158686428Y-118004285D01*
X158686428Y-118061428D01*
X158657857Y-118118571D01*
X158629285Y-118147142D01*
X158572142Y-118175714D01*
X158457857Y-118204285D01*
X158315000Y-118204285D01*
X158200714Y-118175714D01*
X158143571Y-118147142D01*
X158115000Y-118118571D01*
X158086428Y-118061428D01*
X146690000Y-84871428D02*
X146490000Y-84585714D01*
X146347142Y-84871428D02*
X146347142Y-84271428D01*
X146575714Y-84271428D01*
X146632857Y-84300000D01*
X146661428Y-84328571D01*
X146690000Y-84385714D01*
X146690000Y-84471428D01*
X146661428Y-84528571D01*
X146632857Y-84557142D01*
X146575714Y-84585714D01*
X146347142Y-84585714D01*
X146890000Y-84271428D02*
X147290000Y-84871428D01*
X147290000Y-84271428D02*
X146890000Y-84871428D01*
X164685000Y-116218571D02*
X164685000Y-115932857D01*
X164856428Y-116275714D02*
X164256428Y-116075714D01*
X164856428Y-115875714D01*
X164856428Y-115361428D02*
X164856428Y-115704285D01*
X164856428Y-115532857D02*
X164256428Y-115532857D01*
X164342142Y-115590000D01*
X164399285Y-115647142D01*
X164427857Y-115704285D01*
X164685000Y-111138571D02*
X164685000Y-110852857D01*
X164856428Y-111195714D02*
X164256428Y-110995714D01*
X164856428Y-110795714D01*
X164256428Y-110652857D02*
X164256428Y-110281428D01*
X164485000Y-110481428D01*
X164485000Y-110395714D01*
X164513571Y-110338571D01*
X164542142Y-110310000D01*
X164599285Y-110281428D01*
X164742142Y-110281428D01*
X164799285Y-110310000D01*
X164827857Y-110338571D01*
X164856428Y-110395714D01*
X164856428Y-110567142D01*
X164827857Y-110624285D01*
X164799285Y-110652857D01*
X153952857Y-84270000D02*
X153895714Y-84241428D01*
X153810000Y-84241428D01*
X153724285Y-84270000D01*
X153667142Y-84327142D01*
X153638571Y-84384285D01*
X153610000Y-84498571D01*
X153610000Y-84584285D01*
X153638571Y-84698571D01*
X153667142Y-84755714D01*
X153724285Y-84812857D01*
X153810000Y-84841428D01*
X153867142Y-84841428D01*
X153952857Y-84812857D01*
X153981428Y-84784285D01*
X153981428Y-84584285D01*
X153867142Y-84584285D01*
X154238571Y-84841428D02*
X154238571Y-84241428D01*
X154581428Y-84841428D01*
X154581428Y-84241428D01*
X154867142Y-84841428D02*
X154867142Y-84241428D01*
X155010000Y-84241428D01*
X155095714Y-84270000D01*
X155152857Y-84327142D01*
X155181428Y-84384285D01*
X155210000Y-84498571D01*
X155210000Y-84584285D01*
X155181428Y-84698571D01*
X155152857Y-84755714D01*
X155095714Y-84812857D01*
X155010000Y-84841428D01*
X154867142Y-84841428D01*
X164695000Y-113688571D02*
X164695000Y-113402857D01*
X164866428Y-113745714D02*
X164266428Y-113545714D01*
X164866428Y-113345714D01*
X164323571Y-113174285D02*
X164295000Y-113145714D01*
X164266428Y-113088571D01*
X164266428Y-112945714D01*
X164295000Y-112888571D01*
X164323571Y-112860000D01*
X164380714Y-112831428D01*
X164437857Y-112831428D01*
X164523571Y-112860000D01*
X164866428Y-113202857D01*
X164866428Y-112831428D01*
X164715000Y-118738571D02*
X164715000Y-118452857D01*
X164886428Y-118795714D02*
X164286428Y-118595714D01*
X164886428Y-118395714D01*
X164286428Y-118081428D02*
X164286428Y-118024285D01*
X164315000Y-117967142D01*
X164343571Y-117938571D01*
X164400714Y-117910000D01*
X164515000Y-117881428D01*
X164657857Y-117881428D01*
X164772142Y-117910000D01*
X164829285Y-117938571D01*
X164857857Y-117967142D01*
X164886428Y-118024285D01*
X164886428Y-118081428D01*
X164857857Y-118138571D01*
X164829285Y-118167142D01*
X164772142Y-118195714D01*
X164657857Y-118224285D01*
X164515000Y-118224285D01*
X164400714Y-118195714D01*
X164343571Y-118167142D01*
X164315000Y-118138571D01*
X164286428Y-118081428D01*
D12*
X150414285Y-108356666D02*
X150604761Y-108356666D01*
X150376190Y-108470952D02*
X150509523Y-108070952D01*
X150642857Y-108470952D01*
X150852380Y-108070952D02*
X150890476Y-108070952D01*
X150928571Y-108090000D01*
X150947619Y-108109047D01*
X150966666Y-108147142D01*
X150985714Y-108223333D01*
X150985714Y-108318571D01*
X150966666Y-108394761D01*
X150947619Y-108432857D01*
X150928571Y-108451904D01*
X150890476Y-108470952D01*
X150852380Y-108470952D01*
X150814285Y-108451904D01*
X150795238Y-108432857D01*
X150776190Y-108394761D01*
X150757142Y-108318571D01*
X150757142Y-108223333D01*
X150776190Y-108147142D01*
X150795238Y-108109047D01*
X150814285Y-108090000D01*
X150852380Y-108070952D01*
X170080952Y-112858095D02*
X170480952Y-112724761D01*
X170080952Y-112591428D01*
X170271428Y-112458095D02*
X170271428Y-112324761D01*
X170480952Y-112267619D02*
X170480952Y-112458095D01*
X170080952Y-112458095D01*
X170080952Y-112267619D01*
X170480952Y-111867619D02*
X170290476Y-112000952D01*
X170480952Y-112096190D02*
X170080952Y-112096190D01*
X170080952Y-111943809D01*
X170100000Y-111905714D01*
X170119047Y-111886666D01*
X170157142Y-111867619D01*
X170214285Y-111867619D01*
X170252380Y-111886666D01*
X170271428Y-111905714D01*
X170290476Y-111943809D01*
X170290476Y-112096190D01*
X170080952Y-111753333D02*
X170080952Y-111524761D01*
X170480952Y-111639047D02*
X170080952Y-111639047D01*
X170480952Y-111086666D02*
X170080952Y-111086666D01*
X170080952Y-110934285D01*
X170100000Y-110896190D01*
X170119047Y-110877142D01*
X170157142Y-110858095D01*
X170214285Y-110858095D01*
X170252380Y-110877142D01*
X170271428Y-110896190D01*
X170290476Y-110934285D01*
X170290476Y-111086666D01*
X170080952Y-110610476D02*
X170080952Y-110534285D01*
X170100000Y-110496190D01*
X170138095Y-110458095D01*
X170214285Y-110439047D01*
X170347619Y-110439047D01*
X170423809Y-110458095D01*
X170461904Y-110496190D01*
X170480952Y-110534285D01*
X170480952Y-110610476D01*
X170461904Y-110648571D01*
X170423809Y-110686666D01*
X170347619Y-110705714D01*
X170214285Y-110705714D01*
X170138095Y-110686666D01*
X170100000Y-110648571D01*
X170080952Y-110610476D01*
X170080952Y-110305714D02*
X170480952Y-110210476D01*
X170195238Y-110134285D01*
X170480952Y-110058095D01*
X170080952Y-109962857D01*
X170271428Y-109810476D02*
X170271428Y-109677142D01*
X170480952Y-109620000D02*
X170480952Y-109810476D01*
X170080952Y-109810476D01*
X170080952Y-109620000D01*
X170480952Y-109220000D02*
X170290476Y-109353333D01*
X170480952Y-109448571D02*
X170080952Y-109448571D01*
X170080952Y-109296190D01*
X170100000Y-109258095D01*
X170119047Y-109239047D01*
X170157142Y-109220000D01*
X170214285Y-109220000D01*
X170252380Y-109239047D01*
X170271428Y-109258095D01*
X170290476Y-109296190D01*
X170290476Y-109448571D01*
X157418571Y-109254285D02*
X157513809Y-109520952D01*
X157609047Y-109254285D01*
X157742380Y-109159047D02*
X157761428Y-109140000D01*
X157799523Y-109120952D01*
X157894761Y-109120952D01*
X157932857Y-109140000D01*
X157951904Y-109159047D01*
X157970952Y-109197142D01*
X157970952Y-109235238D01*
X157951904Y-109292380D01*
X157723333Y-109520952D01*
X157970952Y-109520952D01*
X158142380Y-109482857D02*
X158161428Y-109501904D01*
X158142380Y-109520952D01*
X158123333Y-109501904D01*
X158142380Y-109482857D01*
X158142380Y-109520952D01*
X158409047Y-109120952D02*
X158447142Y-109120952D01*
X158485238Y-109140000D01*
X158504285Y-109159047D01*
X158523333Y-109197142D01*
X158542380Y-109273333D01*
X158542380Y-109368571D01*
X158523333Y-109444761D01*
X158504285Y-109482857D01*
X158485238Y-109501904D01*
X158447142Y-109520952D01*
X158409047Y-109520952D01*
X158370952Y-109501904D01*
X158351904Y-109482857D01*
X158332857Y-109444761D01*
X158313809Y-109368571D01*
X158313809Y-109273333D01*
X158332857Y-109197142D01*
X158351904Y-109159047D01*
X158370952Y-109140000D01*
X158409047Y-109120952D01*
D11*
X158515000Y-116118571D02*
X158515000Y-115832857D01*
X158686428Y-116175714D02*
X158086428Y-115975714D01*
X158686428Y-115775714D01*
X158686428Y-115261428D02*
X158686428Y-115604285D01*
X158686428Y-115432857D02*
X158086428Y-115432857D01*
X158172142Y-115490000D01*
X158229285Y-115547142D01*
X158257857Y-115604285D01*
D12*
X160931904Y-97074761D02*
X160950952Y-97017619D01*
X160950952Y-96922380D01*
X160931904Y-96884285D01*
X160912857Y-96865238D01*
X160874761Y-96846190D01*
X160836666Y-96846190D01*
X160798571Y-96865238D01*
X160779523Y-96884285D01*
X160760476Y-96922380D01*
X160741428Y-96998571D01*
X160722380Y-97036666D01*
X160703333Y-97055714D01*
X160665238Y-97074761D01*
X160627142Y-97074761D01*
X160589047Y-97055714D01*
X160570000Y-97036666D01*
X160550952Y-96998571D01*
X160550952Y-96903333D01*
X160570000Y-96846190D01*
X160912857Y-96446190D02*
X160931904Y-96465238D01*
X160950952Y-96522380D01*
X160950952Y-96560476D01*
X160931904Y-96617619D01*
X160893809Y-96655714D01*
X160855714Y-96674761D01*
X160779523Y-96693809D01*
X160722380Y-96693809D01*
X160646190Y-96674761D01*
X160608095Y-96655714D01*
X160570000Y-96617619D01*
X160550952Y-96560476D01*
X160550952Y-96522380D01*
X160570000Y-96465238D01*
X160589047Y-96446190D01*
X160550952Y-96198571D02*
X160550952Y-96160476D01*
X160570000Y-96122380D01*
X160589047Y-96103333D01*
X160627142Y-96084285D01*
X160703333Y-96065238D01*
X160798571Y-96065238D01*
X160874761Y-96084285D01*
X160912857Y-96103333D01*
X160931904Y-96122380D01*
X160950952Y-96160476D01*
X160950952Y-96198571D01*
X160931904Y-96236666D01*
X160912857Y-96255714D01*
X160874761Y-96274761D01*
X160798571Y-96293809D01*
X160703333Y-96293809D01*
X160627142Y-96274761D01*
X160589047Y-96255714D01*
X160570000Y-96236666D01*
X160550952Y-96198571D01*
X122798571Y-78108952D02*
X122665238Y-77918476D01*
X122570000Y-78108952D02*
X122570000Y-77708952D01*
X122722380Y-77708952D01*
X122760476Y-77728000D01*
X122779523Y-77747047D01*
X122798571Y-77785142D01*
X122798571Y-77842285D01*
X122779523Y-77880380D01*
X122760476Y-77899428D01*
X122722380Y-77918476D01*
X122570000Y-77918476D01*
X122970000Y-78108952D02*
X122970000Y-77708952D01*
X123293809Y-77899428D02*
X123350952Y-77918476D01*
X123370000Y-77937523D01*
X123389047Y-77975619D01*
X123389047Y-78032761D01*
X123370000Y-78070857D01*
X123350952Y-78089904D01*
X123312857Y-78108952D01*
X123160476Y-78108952D01*
X123160476Y-77708952D01*
X123293809Y-77708952D01*
X123331904Y-77728000D01*
X123350952Y-77747047D01*
X123370000Y-77785142D01*
X123370000Y-77823238D01*
X123350952Y-77861333D01*
X123331904Y-77880380D01*
X123293809Y-77899428D01*
X123160476Y-77899428D01*
X122046190Y-78752952D02*
X122046190Y-78352952D01*
X122198571Y-78352952D01*
X122236666Y-78372000D01*
X122255714Y-78391047D01*
X122274761Y-78429142D01*
X122274761Y-78486285D01*
X122255714Y-78524380D01*
X122236666Y-78543428D01*
X122198571Y-78562476D01*
X122046190Y-78562476D01*
X122522380Y-78352952D02*
X122598571Y-78352952D01*
X122636666Y-78372000D01*
X122674761Y-78410095D01*
X122693809Y-78486285D01*
X122693809Y-78619619D01*
X122674761Y-78695809D01*
X122636666Y-78733904D01*
X122598571Y-78752952D01*
X122522380Y-78752952D01*
X122484285Y-78733904D01*
X122446190Y-78695809D01*
X122427142Y-78619619D01*
X122427142Y-78486285D01*
X122446190Y-78410095D01*
X122484285Y-78372000D01*
X122522380Y-78352952D01*
X122827142Y-78352952D02*
X122922380Y-78752952D01*
X122998571Y-78467238D01*
X123074761Y-78752952D01*
X123170000Y-78352952D01*
X123322380Y-78543428D02*
X123455714Y-78543428D01*
X123512857Y-78752952D02*
X123322380Y-78752952D01*
X123322380Y-78352952D01*
X123512857Y-78352952D01*
X123912857Y-78752952D02*
X123779523Y-78562476D01*
X123684285Y-78752952D02*
X123684285Y-78352952D01*
X123836666Y-78352952D01*
X123874761Y-78372000D01*
X123893809Y-78391047D01*
X123912857Y-78429142D01*
X123912857Y-78486285D01*
X123893809Y-78524380D01*
X123874761Y-78543428D01*
X123836666Y-78562476D01*
X123684285Y-78562476D01*
D11*
X126827857Y-96582857D02*
X126827857Y-96125714D01*
X127056428Y-96354285D02*
X126599285Y-96354285D01*
X126456428Y-95925714D02*
X127056428Y-95725714D01*
X126456428Y-95525714D01*
X126742142Y-95325714D02*
X126742142Y-95125714D01*
X127056428Y-95040000D02*
X127056428Y-95325714D01*
X126456428Y-95325714D01*
X126456428Y-95040000D01*
X126456428Y-94840000D02*
X127056428Y-94440000D01*
X126456428Y-94440000D02*
X127056428Y-94840000D01*
D12*
X147575238Y-108461904D02*
X147632380Y-108480952D01*
X147727619Y-108480952D01*
X147765714Y-108461904D01*
X147784761Y-108442857D01*
X147803809Y-108404761D01*
X147803809Y-108366666D01*
X147784761Y-108328571D01*
X147765714Y-108309523D01*
X147727619Y-108290476D01*
X147651428Y-108271428D01*
X147613333Y-108252380D01*
X147594285Y-108233333D01*
X147575238Y-108195238D01*
X147575238Y-108157142D01*
X147594285Y-108119047D01*
X147613333Y-108100000D01*
X147651428Y-108080952D01*
X147746666Y-108080952D01*
X147803809Y-108100000D01*
X147975238Y-108480952D02*
X147975238Y-108080952D01*
X148070476Y-108080952D01*
X148127619Y-108100000D01*
X148165714Y-108138095D01*
X148184761Y-108176190D01*
X148203809Y-108252380D01*
X148203809Y-108309523D01*
X148184761Y-108385714D01*
X148165714Y-108423809D01*
X148127619Y-108461904D01*
X148070476Y-108480952D01*
X147975238Y-108480952D01*
X148356190Y-108119047D02*
X148375238Y-108100000D01*
X148413333Y-108080952D01*
X148508571Y-108080952D01*
X148546666Y-108100000D01*
X148565714Y-108119047D01*
X148584761Y-108157142D01*
X148584761Y-108195238D01*
X148565714Y-108252380D01*
X148337142Y-108480952D01*
X148584761Y-108480952D01*
X160951904Y-95834761D02*
X160970952Y-95777619D01*
X160970952Y-95682380D01*
X160951904Y-95644285D01*
X160932857Y-95625238D01*
X160894761Y-95606190D01*
X160856666Y-95606190D01*
X160818571Y-95625238D01*
X160799523Y-95644285D01*
X160780476Y-95682380D01*
X160761428Y-95758571D01*
X160742380Y-95796666D01*
X160723333Y-95815714D01*
X160685238Y-95834761D01*
X160647142Y-95834761D01*
X160609047Y-95815714D01*
X160590000Y-95796666D01*
X160570952Y-95758571D01*
X160570952Y-95663333D01*
X160590000Y-95606190D01*
X160970952Y-95434761D02*
X160570952Y-95434761D01*
X160570952Y-95339523D01*
X160590000Y-95282380D01*
X160628095Y-95244285D01*
X160666190Y-95225238D01*
X160742380Y-95206190D01*
X160799523Y-95206190D01*
X160875714Y-95225238D01*
X160913809Y-95244285D01*
X160951904Y-95282380D01*
X160970952Y-95339523D01*
X160970952Y-95434761D01*
X160570952Y-94958571D02*
X160570952Y-94920476D01*
X160590000Y-94882380D01*
X160609047Y-94863333D01*
X160647142Y-94844285D01*
X160723333Y-94825238D01*
X160818571Y-94825238D01*
X160894761Y-94844285D01*
X160932857Y-94863333D01*
X160951904Y-94882380D01*
X160970952Y-94920476D01*
X160970952Y-94958571D01*
X160951904Y-94996666D01*
X160932857Y-95015714D01*
X160894761Y-95034761D01*
X160818571Y-95053809D01*
X160723333Y-95053809D01*
X160647142Y-95034761D01*
X160609047Y-95015714D01*
X160590000Y-94996666D01*
X160570952Y-94958571D01*
X122485238Y-107858571D02*
X122790000Y-107858571D01*
X122637619Y-108010952D02*
X122637619Y-107706190D01*
X123190000Y-108010952D02*
X122961428Y-108010952D01*
X123075714Y-108010952D02*
X123075714Y-107610952D01*
X123037619Y-107668095D01*
X122999523Y-107706190D01*
X122961428Y-107725238D01*
X123342380Y-107649047D02*
X123361428Y-107630000D01*
X123399523Y-107610952D01*
X123494761Y-107610952D01*
X123532857Y-107630000D01*
X123551904Y-107649047D01*
X123570952Y-107687142D01*
X123570952Y-107725238D01*
X123551904Y-107782380D01*
X123323333Y-108010952D01*
X123570952Y-108010952D01*
X123685238Y-107610952D02*
X123818571Y-108010952D01*
X123951904Y-107610952D01*
X145074761Y-88330952D02*
X145303333Y-88330952D01*
X145189047Y-88730952D02*
X145189047Y-88330952D01*
X145398571Y-88330952D02*
X145665238Y-88730952D01*
X145665238Y-88330952D02*
X145398571Y-88730952D01*
X145893809Y-88330952D02*
X145931904Y-88330952D01*
X145970000Y-88350000D01*
X145989047Y-88369047D01*
X146008095Y-88407142D01*
X146027142Y-88483333D01*
X146027142Y-88578571D01*
X146008095Y-88654761D01*
X145989047Y-88692857D01*
X145970000Y-88711904D01*
X145931904Y-88730952D01*
X145893809Y-88730952D01*
X145855714Y-88711904D01*
X145836666Y-88692857D01*
X145817619Y-88654761D01*
X145798571Y-88578571D01*
X145798571Y-88483333D01*
X145817619Y-88407142D01*
X145836666Y-88369047D01*
X145855714Y-88350000D01*
X145893809Y-88330952D01*
X157984285Y-108346666D02*
X158174761Y-108346666D01*
X157946190Y-108460952D02*
X158079523Y-108060952D01*
X158212857Y-108460952D01*
X158308095Y-108060952D02*
X158555714Y-108060952D01*
X158422380Y-108213333D01*
X158479523Y-108213333D01*
X158517619Y-108232380D01*
X158536666Y-108251428D01*
X158555714Y-108289523D01*
X158555714Y-108384761D01*
X158536666Y-108422857D01*
X158517619Y-108441904D01*
X158479523Y-108460952D01*
X158365238Y-108460952D01*
X158327142Y-108441904D01*
X158308095Y-108422857D01*
D11*
X148577142Y-84271428D02*
X148948571Y-84271428D01*
X148748571Y-84500000D01*
X148834285Y-84500000D01*
X148891428Y-84528571D01*
X148920000Y-84557142D01*
X148948571Y-84614285D01*
X148948571Y-84757142D01*
X148920000Y-84814285D01*
X148891428Y-84842857D01*
X148834285Y-84871428D01*
X148662857Y-84871428D01*
X148605714Y-84842857D01*
X148577142Y-84814285D01*
X149120000Y-84271428D02*
X149320000Y-84871428D01*
X149520000Y-84271428D01*
X149662857Y-84271428D02*
X150034285Y-84271428D01*
X149834285Y-84500000D01*
X149920000Y-84500000D01*
X149977142Y-84528571D01*
X150005714Y-84557142D01*
X150034285Y-84614285D01*
X150034285Y-84757142D01*
X150005714Y-84814285D01*
X149977142Y-84842857D01*
X149920000Y-84871428D01*
X149748571Y-84871428D01*
X149691428Y-84842857D01*
X149662857Y-84814285D01*
D12*
X127365238Y-107660000D02*
X127327142Y-107640952D01*
X127270000Y-107640952D01*
X127212857Y-107660000D01*
X127174761Y-107698095D01*
X127155714Y-107736190D01*
X127136666Y-107812380D01*
X127136666Y-107869523D01*
X127155714Y-107945714D01*
X127174761Y-107983809D01*
X127212857Y-108021904D01*
X127270000Y-108040952D01*
X127308095Y-108040952D01*
X127365238Y-108021904D01*
X127384285Y-108002857D01*
X127384285Y-107869523D01*
X127308095Y-107869523D01*
X127555714Y-108040952D02*
X127555714Y-107640952D01*
X127784285Y-108040952D01*
X127784285Y-107640952D01*
X127974761Y-108040952D02*
X127974761Y-107640952D01*
X128070000Y-107640952D01*
X128127142Y-107660000D01*
X128165238Y-107698095D01*
X128184285Y-107736190D01*
X128203333Y-107812380D01*
X128203333Y-107869523D01*
X128184285Y-107945714D01*
X128165238Y-107983809D01*
X128127142Y-108021904D01*
X128070000Y-108040952D01*
X127974761Y-108040952D01*
X155224285Y-108441904D02*
X155281428Y-108460952D01*
X155376666Y-108460952D01*
X155414761Y-108441904D01*
X155433809Y-108422857D01*
X155452857Y-108384761D01*
X155452857Y-108346666D01*
X155433809Y-108308571D01*
X155414761Y-108289523D01*
X155376666Y-108270476D01*
X155300476Y-108251428D01*
X155262380Y-108232380D01*
X155243333Y-108213333D01*
X155224285Y-108175238D01*
X155224285Y-108137142D01*
X155243333Y-108099047D01*
X155262380Y-108080000D01*
X155300476Y-108060952D01*
X155395714Y-108060952D01*
X155452857Y-108080000D01*
X155624285Y-108460952D02*
X155624285Y-108060952D01*
X155719523Y-108060952D01*
X155776666Y-108080000D01*
X155814761Y-108118095D01*
X155833809Y-108156190D01*
X155852857Y-108232380D01*
X155852857Y-108289523D01*
X155833809Y-108365714D01*
X155814761Y-108403809D01*
X155776666Y-108441904D01*
X155719523Y-108460952D01*
X155624285Y-108460952D01*
X156005238Y-108346666D02*
X156195714Y-108346666D01*
X155967142Y-108460952D02*
X156100476Y-108060952D01*
X156233809Y-108460952D01*
D11*
X126827857Y-103920000D02*
X126827857Y-103462857D01*
X127056428Y-102862857D02*
X127056428Y-103205714D01*
X127056428Y-103034285D02*
X126456428Y-103034285D01*
X126542142Y-103091428D01*
X126599285Y-103148571D01*
X126627857Y-103205714D01*
X126513571Y-102634285D02*
X126485000Y-102605714D01*
X126456428Y-102548571D01*
X126456428Y-102405714D01*
X126485000Y-102348571D01*
X126513571Y-102320000D01*
X126570714Y-102291428D01*
X126627857Y-102291428D01*
X126713571Y-102320000D01*
X127056428Y-102662857D01*
X127056428Y-102291428D01*
D12*
X144110952Y-108500952D02*
X143977619Y-108310476D01*
X143882380Y-108500952D02*
X143882380Y-108100952D01*
X144034761Y-108100952D01*
X144072857Y-108120000D01*
X144091904Y-108139047D01*
X144110952Y-108177142D01*
X144110952Y-108234285D01*
X144091904Y-108272380D01*
X144072857Y-108291428D01*
X144034761Y-108310476D01*
X143882380Y-108310476D01*
X144263333Y-108481904D02*
X144320476Y-108500952D01*
X144415714Y-108500952D01*
X144453809Y-108481904D01*
X144472857Y-108462857D01*
X144491904Y-108424761D01*
X144491904Y-108386666D01*
X144472857Y-108348571D01*
X144453809Y-108329523D01*
X144415714Y-108310476D01*
X144339523Y-108291428D01*
X144301428Y-108272380D01*
X144282380Y-108253333D01*
X144263333Y-108215238D01*
X144263333Y-108177142D01*
X144282380Y-108139047D01*
X144301428Y-108120000D01*
X144339523Y-108100952D01*
X144434761Y-108100952D01*
X144491904Y-108120000D01*
X144606190Y-108100952D02*
X144834761Y-108100952D01*
X144720476Y-108500952D02*
X144720476Y-108100952D01*
D13*
X117607142Y-119122857D02*
X117821428Y-119194285D01*
X117892857Y-119265714D01*
X117964285Y-119408571D01*
X117964285Y-119622857D01*
X117892857Y-119765714D01*
X117821428Y-119837142D01*
X117678571Y-119908571D01*
X117107142Y-119908571D01*
X117107142Y-118408571D01*
X117607142Y-118408571D01*
X117750000Y-118480000D01*
X117821428Y-118551428D01*
X117892857Y-118694285D01*
X117892857Y-118837142D01*
X117821428Y-118980000D01*
X117750000Y-119051428D01*
X117607142Y-119122857D01*
X117107142Y-119122857D01*
D12*
X157900000Y-88740952D02*
X157900000Y-88340952D01*
X158166666Y-88340952D02*
X158242857Y-88340952D01*
X158280952Y-88360000D01*
X158319047Y-88398095D01*
X158338095Y-88474285D01*
X158338095Y-88607619D01*
X158319047Y-88683809D01*
X158280952Y-88721904D01*
X158242857Y-88740952D01*
X158166666Y-88740952D01*
X158128571Y-88721904D01*
X158090476Y-88683809D01*
X158071428Y-88607619D01*
X158071428Y-88474285D01*
X158090476Y-88398095D01*
X158128571Y-88360000D01*
X158166666Y-88340952D01*
X158585714Y-88340952D02*
X158623809Y-88340952D01*
X158661904Y-88360000D01*
X158680952Y-88379047D01*
X158700000Y-88417142D01*
X158719047Y-88493333D01*
X158719047Y-88588571D01*
X158700000Y-88664761D01*
X158680952Y-88702857D01*
X158661904Y-88721904D01*
X158623809Y-88740952D01*
X158585714Y-88740952D01*
X158547619Y-88721904D01*
X158528571Y-88702857D01*
X158509523Y-88664761D01*
X158490476Y-88588571D01*
X158490476Y-88493333D01*
X158509523Y-88417142D01*
X158528571Y-88379047D01*
X158547619Y-88360000D01*
X158585714Y-88340952D01*
D11*
X158535000Y-111068571D02*
X158535000Y-110782857D01*
X158706428Y-111125714D02*
X158106428Y-110925714D01*
X158706428Y-110725714D01*
X158106428Y-110582857D02*
X158106428Y-110211428D01*
X158335000Y-110411428D01*
X158335000Y-110325714D01*
X158363571Y-110268571D01*
X158392142Y-110240000D01*
X158449285Y-110211428D01*
X158592142Y-110211428D01*
X158649285Y-110240000D01*
X158677857Y-110268571D01*
X158706428Y-110325714D01*
X158706428Y-110497142D01*
X158677857Y-110554285D01*
X158649285Y-110582857D01*
D12*
X145045238Y-108491904D02*
X145102380Y-108510952D01*
X145197619Y-108510952D01*
X145235714Y-108491904D01*
X145254761Y-108472857D01*
X145273809Y-108434761D01*
X145273809Y-108396666D01*
X145254761Y-108358571D01*
X145235714Y-108339523D01*
X145197619Y-108320476D01*
X145121428Y-108301428D01*
X145083333Y-108282380D01*
X145064285Y-108263333D01*
X145045238Y-108225238D01*
X145045238Y-108187142D01*
X145064285Y-108149047D01*
X145083333Y-108130000D01*
X145121428Y-108110952D01*
X145216666Y-108110952D01*
X145273809Y-108130000D01*
X145445238Y-108510952D02*
X145445238Y-108110952D01*
X145540476Y-108110952D01*
X145597619Y-108130000D01*
X145635714Y-108168095D01*
X145654761Y-108206190D01*
X145673809Y-108282380D01*
X145673809Y-108339523D01*
X145654761Y-108415714D01*
X145635714Y-108453809D01*
X145597619Y-108491904D01*
X145540476Y-108510952D01*
X145445238Y-108510952D01*
X145807142Y-108110952D02*
X146054761Y-108110952D01*
X145921428Y-108263333D01*
X145978571Y-108263333D01*
X146016666Y-108282380D01*
X146035714Y-108301428D01*
X146054761Y-108339523D01*
X146054761Y-108434761D01*
X146035714Y-108472857D01*
X146016666Y-108491904D01*
X145978571Y-108510952D01*
X145864285Y-108510952D01*
X145826190Y-108491904D01*
X145807142Y-108472857D01*
D11*
%TO.C,C5*%
X135965000Y-110649285D02*
X135936428Y-110677857D01*
X135850714Y-110706428D01*
X135793571Y-110706428D01*
X135707857Y-110677857D01*
X135650714Y-110620714D01*
X135622142Y-110563571D01*
X135593571Y-110449285D01*
X135593571Y-110363571D01*
X135622142Y-110249285D01*
X135650714Y-110192142D01*
X135707857Y-110135000D01*
X135793571Y-110106428D01*
X135850714Y-110106428D01*
X135936428Y-110135000D01*
X135965000Y-110163571D01*
X136507857Y-110106428D02*
X136222142Y-110106428D01*
X136193571Y-110392142D01*
X136222142Y-110363571D01*
X136279285Y-110335000D01*
X136422142Y-110335000D01*
X136479285Y-110363571D01*
X136507857Y-110392142D01*
X136536428Y-110449285D01*
X136536428Y-110592142D01*
X136507857Y-110649285D01*
X136479285Y-110677857D01*
X136422142Y-110706428D01*
X136279285Y-110706428D01*
X136222142Y-110677857D01*
X136193571Y-110649285D01*
%TO.C,R2*%
X130485000Y-80621428D02*
X130285000Y-80335714D01*
X130142142Y-80621428D02*
X130142142Y-80021428D01*
X130370714Y-80021428D01*
X130427857Y-80050000D01*
X130456428Y-80078571D01*
X130485000Y-80135714D01*
X130485000Y-80221428D01*
X130456428Y-80278571D01*
X130427857Y-80307142D01*
X130370714Y-80335714D01*
X130142142Y-80335714D01*
X130713571Y-80078571D02*
X130742142Y-80050000D01*
X130799285Y-80021428D01*
X130942142Y-80021428D01*
X130999285Y-80050000D01*
X131027857Y-80078571D01*
X131056428Y-80135714D01*
X131056428Y-80192857D01*
X131027857Y-80278571D01*
X130685000Y-80621428D01*
X131056428Y-80621428D01*
%TO.C,C7*%
X121669285Y-109100000D02*
X121697857Y-109128571D01*
X121726428Y-109214285D01*
X121726428Y-109271428D01*
X121697857Y-109357142D01*
X121640714Y-109414285D01*
X121583571Y-109442857D01*
X121469285Y-109471428D01*
X121383571Y-109471428D01*
X121269285Y-109442857D01*
X121212142Y-109414285D01*
X121155000Y-109357142D01*
X121126428Y-109271428D01*
X121126428Y-109214285D01*
X121155000Y-109128571D01*
X121183571Y-109100000D01*
X121126428Y-108900000D02*
X121126428Y-108500000D01*
X121726428Y-108757142D01*
%TO.C,R13*%
X155844285Y-110711428D02*
X155644285Y-110425714D01*
X155501428Y-110711428D02*
X155501428Y-110111428D01*
X155730000Y-110111428D01*
X155787142Y-110140000D01*
X155815714Y-110168571D01*
X155844285Y-110225714D01*
X155844285Y-110311428D01*
X155815714Y-110368571D01*
X155787142Y-110397142D01*
X155730000Y-110425714D01*
X155501428Y-110425714D01*
X156415714Y-110711428D02*
X156072857Y-110711428D01*
X156244285Y-110711428D02*
X156244285Y-110111428D01*
X156187142Y-110197142D01*
X156130000Y-110254285D01*
X156072857Y-110282857D01*
X156615714Y-110111428D02*
X156987142Y-110111428D01*
X156787142Y-110340000D01*
X156872857Y-110340000D01*
X156930000Y-110368571D01*
X156958571Y-110397142D01*
X156987142Y-110454285D01*
X156987142Y-110597142D01*
X156958571Y-110654285D01*
X156930000Y-110682857D01*
X156872857Y-110711428D01*
X156701428Y-110711428D01*
X156644285Y-110682857D01*
X156615714Y-110654285D01*
%TO.C,U8*%
X143917857Y-76091428D02*
X143917857Y-76577142D01*
X143946428Y-76634285D01*
X143975000Y-76662857D01*
X144032142Y-76691428D01*
X144146428Y-76691428D01*
X144203571Y-76662857D01*
X144232142Y-76634285D01*
X144260714Y-76577142D01*
X144260714Y-76091428D01*
X144632142Y-76348571D02*
X144575000Y-76320000D01*
X144546428Y-76291428D01*
X144517857Y-76234285D01*
X144517857Y-76205714D01*
X144546428Y-76148571D01*
X144575000Y-76120000D01*
X144632142Y-76091428D01*
X144746428Y-76091428D01*
X144803571Y-76120000D01*
X144832142Y-76148571D01*
X144860714Y-76205714D01*
X144860714Y-76234285D01*
X144832142Y-76291428D01*
X144803571Y-76320000D01*
X144746428Y-76348571D01*
X144632142Y-76348571D01*
X144575000Y-76377142D01*
X144546428Y-76405714D01*
X144517857Y-76462857D01*
X144517857Y-76577142D01*
X144546428Y-76634285D01*
X144575000Y-76662857D01*
X144632142Y-76691428D01*
X144746428Y-76691428D01*
X144803571Y-76662857D01*
X144832142Y-76634285D01*
X144860714Y-76577142D01*
X144860714Y-76462857D01*
X144832142Y-76405714D01*
X144803571Y-76377142D01*
X144746428Y-76348571D01*
%TO.C,U2*%
X161677857Y-78361428D02*
X161677857Y-78847142D01*
X161706428Y-78904285D01*
X161735000Y-78932857D01*
X161792142Y-78961428D01*
X161906428Y-78961428D01*
X161963571Y-78932857D01*
X161992142Y-78904285D01*
X162020714Y-78847142D01*
X162020714Y-78361428D01*
X162277857Y-78418571D02*
X162306428Y-78390000D01*
X162363571Y-78361428D01*
X162506428Y-78361428D01*
X162563571Y-78390000D01*
X162592142Y-78418571D01*
X162620714Y-78475714D01*
X162620714Y-78532857D01*
X162592142Y-78618571D01*
X162249285Y-78961428D01*
X162620714Y-78961428D01*
%TO.C,C8*%
X133160000Y-110604285D02*
X133131428Y-110632857D01*
X133045714Y-110661428D01*
X132988571Y-110661428D01*
X132902857Y-110632857D01*
X132845714Y-110575714D01*
X132817142Y-110518571D01*
X132788571Y-110404285D01*
X132788571Y-110318571D01*
X132817142Y-110204285D01*
X132845714Y-110147142D01*
X132902857Y-110090000D01*
X132988571Y-110061428D01*
X133045714Y-110061428D01*
X133131428Y-110090000D01*
X133160000Y-110118571D01*
X133502857Y-110318571D02*
X133445714Y-110290000D01*
X133417142Y-110261428D01*
X133388571Y-110204285D01*
X133388571Y-110175714D01*
X133417142Y-110118571D01*
X133445714Y-110090000D01*
X133502857Y-110061428D01*
X133617142Y-110061428D01*
X133674285Y-110090000D01*
X133702857Y-110118571D01*
X133731428Y-110175714D01*
X133731428Y-110204285D01*
X133702857Y-110261428D01*
X133674285Y-110290000D01*
X133617142Y-110318571D01*
X133502857Y-110318571D01*
X133445714Y-110347142D01*
X133417142Y-110375714D01*
X133388571Y-110432857D01*
X133388571Y-110547142D01*
X133417142Y-110604285D01*
X133445714Y-110632857D01*
X133502857Y-110661428D01*
X133617142Y-110661428D01*
X133674285Y-110632857D01*
X133702857Y-110604285D01*
X133731428Y-110547142D01*
X133731428Y-110432857D01*
X133702857Y-110375714D01*
X133674285Y-110347142D01*
X133617142Y-110318571D01*
%TO.C,J4*%
X169725000Y-78471428D02*
X169725000Y-78900000D01*
X169696428Y-78985714D01*
X169639285Y-79042857D01*
X169553571Y-79071428D01*
X169496428Y-79071428D01*
X170267857Y-78671428D02*
X170267857Y-79071428D01*
X170125000Y-78442857D02*
X169982142Y-78871428D01*
X170353571Y-78871428D01*
%TO.C,R12*%
X140216428Y-85335714D02*
X139930714Y-85535714D01*
X140216428Y-85678571D02*
X139616428Y-85678571D01*
X139616428Y-85450000D01*
X139645000Y-85392857D01*
X139673571Y-85364285D01*
X139730714Y-85335714D01*
X139816428Y-85335714D01*
X139873571Y-85364285D01*
X139902142Y-85392857D01*
X139930714Y-85450000D01*
X139930714Y-85678571D01*
X140216428Y-84764285D02*
X140216428Y-85107142D01*
X140216428Y-84935714D02*
X139616428Y-84935714D01*
X139702142Y-84992857D01*
X139759285Y-85050000D01*
X139787857Y-85107142D01*
X139673571Y-84535714D02*
X139645000Y-84507142D01*
X139616428Y-84450000D01*
X139616428Y-84307142D01*
X139645000Y-84250000D01*
X139673571Y-84221428D01*
X139730714Y-84192857D01*
X139787857Y-84192857D01*
X139873571Y-84221428D01*
X140216428Y-84564285D01*
X140216428Y-84192857D01*
%TO.C,R18*%
X160986428Y-88125714D02*
X160700714Y-88325714D01*
X160986428Y-88468571D02*
X160386428Y-88468571D01*
X160386428Y-88240000D01*
X160415000Y-88182857D01*
X160443571Y-88154285D01*
X160500714Y-88125714D01*
X160586428Y-88125714D01*
X160643571Y-88154285D01*
X160672142Y-88182857D01*
X160700714Y-88240000D01*
X160700714Y-88468571D01*
X160986428Y-87554285D02*
X160986428Y-87897142D01*
X160986428Y-87725714D02*
X160386428Y-87725714D01*
X160472142Y-87782857D01*
X160529285Y-87840000D01*
X160557857Y-87897142D01*
X160643571Y-87211428D02*
X160615000Y-87268571D01*
X160586428Y-87297142D01*
X160529285Y-87325714D01*
X160500714Y-87325714D01*
X160443571Y-87297142D01*
X160415000Y-87268571D01*
X160386428Y-87211428D01*
X160386428Y-87097142D01*
X160415000Y-87040000D01*
X160443571Y-87011428D01*
X160500714Y-86982857D01*
X160529285Y-86982857D01*
X160586428Y-87011428D01*
X160615000Y-87040000D01*
X160643571Y-87097142D01*
X160643571Y-87211428D01*
X160672142Y-87268571D01*
X160700714Y-87297142D01*
X160757857Y-87325714D01*
X160872142Y-87325714D01*
X160929285Y-87297142D01*
X160957857Y-87268571D01*
X160986428Y-87211428D01*
X160986428Y-87097142D01*
X160957857Y-87040000D01*
X160929285Y-87011428D01*
X160872142Y-86982857D01*
X160757857Y-86982857D01*
X160700714Y-87011428D01*
X160672142Y-87040000D01*
X160643571Y-87097142D01*
%TO.C,U3*%
X137886428Y-105677142D02*
X138372142Y-105677142D01*
X138429285Y-105648571D01*
X138457857Y-105620000D01*
X138486428Y-105562857D01*
X138486428Y-105448571D01*
X138457857Y-105391428D01*
X138429285Y-105362857D01*
X138372142Y-105334285D01*
X137886428Y-105334285D01*
X137886428Y-105105714D02*
X137886428Y-104734285D01*
X138115000Y-104934285D01*
X138115000Y-104848571D01*
X138143571Y-104791428D01*
X138172142Y-104762857D01*
X138229285Y-104734285D01*
X138372142Y-104734285D01*
X138429285Y-104762857D01*
X138457857Y-104791428D01*
X138486428Y-104848571D01*
X138486428Y-105020000D01*
X138457857Y-105077142D01*
X138429285Y-105105714D01*
%TO.C,U1*%
X139796428Y-105677142D02*
X140282142Y-105677142D01*
X140339285Y-105648571D01*
X140367857Y-105620000D01*
X140396428Y-105562857D01*
X140396428Y-105448571D01*
X140367857Y-105391428D01*
X140339285Y-105362857D01*
X140282142Y-105334285D01*
X139796428Y-105334285D01*
X140396428Y-104734285D02*
X140396428Y-105077142D01*
X140396428Y-104905714D02*
X139796428Y-104905714D01*
X139882142Y-104962857D01*
X139939285Y-105020000D01*
X139967857Y-105077142D01*
%TO.C,R11*%
X167429285Y-78691428D02*
X167229285Y-78405714D01*
X167086428Y-78691428D02*
X167086428Y-78091428D01*
X167315000Y-78091428D01*
X167372142Y-78120000D01*
X167400714Y-78148571D01*
X167429285Y-78205714D01*
X167429285Y-78291428D01*
X167400714Y-78348571D01*
X167372142Y-78377142D01*
X167315000Y-78405714D01*
X167086428Y-78405714D01*
X168000714Y-78691428D02*
X167657857Y-78691428D01*
X167829285Y-78691428D02*
X167829285Y-78091428D01*
X167772142Y-78177142D01*
X167715000Y-78234285D01*
X167657857Y-78262857D01*
X168572142Y-78691428D02*
X168229285Y-78691428D01*
X168400714Y-78691428D02*
X168400714Y-78091428D01*
X168343571Y-78177142D01*
X168286428Y-78234285D01*
X168229285Y-78262857D01*
%TO.C,U6*%
X138347857Y-76081428D02*
X138347857Y-76567142D01*
X138376428Y-76624285D01*
X138405000Y-76652857D01*
X138462142Y-76681428D01*
X138576428Y-76681428D01*
X138633571Y-76652857D01*
X138662142Y-76624285D01*
X138690714Y-76567142D01*
X138690714Y-76081428D01*
X139233571Y-76081428D02*
X139119285Y-76081428D01*
X139062142Y-76110000D01*
X139033571Y-76138571D01*
X138976428Y-76224285D01*
X138947857Y-76338571D01*
X138947857Y-76567142D01*
X138976428Y-76624285D01*
X139005000Y-76652857D01*
X139062142Y-76681428D01*
X139176428Y-76681428D01*
X139233571Y-76652857D01*
X139262142Y-76624285D01*
X139290714Y-76567142D01*
X139290714Y-76424285D01*
X139262142Y-76367142D01*
X139233571Y-76338571D01*
X139176428Y-76310000D01*
X139062142Y-76310000D01*
X139005000Y-76338571D01*
X138976428Y-76367142D01*
X138947857Y-76424285D01*
%TO.C,C9*%
X121669285Y-113320000D02*
X121697857Y-113348571D01*
X121726428Y-113434285D01*
X121726428Y-113491428D01*
X121697857Y-113577142D01*
X121640714Y-113634285D01*
X121583571Y-113662857D01*
X121469285Y-113691428D01*
X121383571Y-113691428D01*
X121269285Y-113662857D01*
X121212142Y-113634285D01*
X121155000Y-113577142D01*
X121126428Y-113491428D01*
X121126428Y-113434285D01*
X121155000Y-113348571D01*
X121183571Y-113320000D01*
X121726428Y-113034285D02*
X121726428Y-112920000D01*
X121697857Y-112862857D01*
X121669285Y-112834285D01*
X121583571Y-112777142D01*
X121469285Y-112748571D01*
X121240714Y-112748571D01*
X121183571Y-112777142D01*
X121155000Y-112805714D01*
X121126428Y-112862857D01*
X121126428Y-112977142D01*
X121155000Y-113034285D01*
X121183571Y-113062857D01*
X121240714Y-113091428D01*
X121383571Y-113091428D01*
X121440714Y-113062857D01*
X121469285Y-113034285D01*
X121497857Y-112977142D01*
X121497857Y-112862857D01*
X121469285Y-112805714D01*
X121440714Y-112777142D01*
X121383571Y-112748571D01*
%TO.C,C12*%
X140154285Y-89515714D02*
X140182857Y-89544285D01*
X140211428Y-89630000D01*
X140211428Y-89687142D01*
X140182857Y-89772857D01*
X140125714Y-89830000D01*
X140068571Y-89858571D01*
X139954285Y-89887142D01*
X139868571Y-89887142D01*
X139754285Y-89858571D01*
X139697142Y-89830000D01*
X139640000Y-89772857D01*
X139611428Y-89687142D01*
X139611428Y-89630000D01*
X139640000Y-89544285D01*
X139668571Y-89515714D01*
X140211428Y-88944285D02*
X140211428Y-89287142D01*
X140211428Y-89115714D02*
X139611428Y-89115714D01*
X139697142Y-89172857D01*
X139754285Y-89230000D01*
X139782857Y-89287142D01*
X139668571Y-88715714D02*
X139640000Y-88687142D01*
X139611428Y-88630000D01*
X139611428Y-88487142D01*
X139640000Y-88430000D01*
X139668571Y-88401428D01*
X139725714Y-88372857D01*
X139782857Y-88372857D01*
X139868571Y-88401428D01*
X140211428Y-88744285D01*
X140211428Y-88372857D01*
%TO.C,R16*%
X156566428Y-88095714D02*
X156280714Y-88295714D01*
X156566428Y-88438571D02*
X155966428Y-88438571D01*
X155966428Y-88210000D01*
X155995000Y-88152857D01*
X156023571Y-88124285D01*
X156080714Y-88095714D01*
X156166428Y-88095714D01*
X156223571Y-88124285D01*
X156252142Y-88152857D01*
X156280714Y-88210000D01*
X156280714Y-88438571D01*
X156566428Y-87524285D02*
X156566428Y-87867142D01*
X156566428Y-87695714D02*
X155966428Y-87695714D01*
X156052142Y-87752857D01*
X156109285Y-87810000D01*
X156137857Y-87867142D01*
X155966428Y-87010000D02*
X155966428Y-87124285D01*
X155995000Y-87181428D01*
X156023571Y-87210000D01*
X156109285Y-87267142D01*
X156223571Y-87295714D01*
X156452142Y-87295714D01*
X156509285Y-87267142D01*
X156537857Y-87238571D01*
X156566428Y-87181428D01*
X156566428Y-87067142D01*
X156537857Y-87010000D01*
X156509285Y-86981428D01*
X156452142Y-86952857D01*
X156309285Y-86952857D01*
X156252142Y-86981428D01*
X156223571Y-87010000D01*
X156195000Y-87067142D01*
X156195000Y-87181428D01*
X156223571Y-87238571D01*
X156252142Y-87267142D01*
X156309285Y-87295714D01*
%TO.C,R19*%
X142924285Y-110711428D02*
X142724285Y-110425714D01*
X142581428Y-110711428D02*
X142581428Y-110111428D01*
X142810000Y-110111428D01*
X142867142Y-110140000D01*
X142895714Y-110168571D01*
X142924285Y-110225714D01*
X142924285Y-110311428D01*
X142895714Y-110368571D01*
X142867142Y-110397142D01*
X142810000Y-110425714D01*
X142581428Y-110425714D01*
X143495714Y-110711428D02*
X143152857Y-110711428D01*
X143324285Y-110711428D02*
X143324285Y-110111428D01*
X143267142Y-110197142D01*
X143210000Y-110254285D01*
X143152857Y-110282857D01*
X143781428Y-110711428D02*
X143895714Y-110711428D01*
X143952857Y-110682857D01*
X143981428Y-110654285D01*
X144038571Y-110568571D01*
X144067142Y-110454285D01*
X144067142Y-110225714D01*
X144038571Y-110168571D01*
X144010000Y-110140000D01*
X143952857Y-110111428D01*
X143838571Y-110111428D01*
X143781428Y-110140000D01*
X143752857Y-110168571D01*
X143724285Y-110225714D01*
X143724285Y-110368571D01*
X143752857Y-110425714D01*
X143781428Y-110454285D01*
X143838571Y-110482857D01*
X143952857Y-110482857D01*
X144010000Y-110454285D01*
X144038571Y-110425714D01*
X144067142Y-110368571D01*
%TO.C,R15*%
X151114285Y-110711428D02*
X150914285Y-110425714D01*
X150771428Y-110711428D02*
X150771428Y-110111428D01*
X151000000Y-110111428D01*
X151057142Y-110140000D01*
X151085714Y-110168571D01*
X151114285Y-110225714D01*
X151114285Y-110311428D01*
X151085714Y-110368571D01*
X151057142Y-110397142D01*
X151000000Y-110425714D01*
X150771428Y-110425714D01*
X151685714Y-110711428D02*
X151342857Y-110711428D01*
X151514285Y-110711428D02*
X151514285Y-110111428D01*
X151457142Y-110197142D01*
X151400000Y-110254285D01*
X151342857Y-110282857D01*
X152228571Y-110111428D02*
X151942857Y-110111428D01*
X151914285Y-110397142D01*
X151942857Y-110368571D01*
X152000000Y-110340000D01*
X152142857Y-110340000D01*
X152200000Y-110368571D01*
X152228571Y-110397142D01*
X152257142Y-110454285D01*
X152257142Y-110597142D01*
X152228571Y-110654285D01*
X152200000Y-110682857D01*
X152142857Y-110711428D01*
X152000000Y-110711428D01*
X151942857Y-110682857D01*
X151914285Y-110654285D01*
%TO.C,R17*%
X147034285Y-110711428D02*
X146834285Y-110425714D01*
X146691428Y-110711428D02*
X146691428Y-110111428D01*
X146920000Y-110111428D01*
X146977142Y-110140000D01*
X147005714Y-110168571D01*
X147034285Y-110225714D01*
X147034285Y-110311428D01*
X147005714Y-110368571D01*
X146977142Y-110397142D01*
X146920000Y-110425714D01*
X146691428Y-110425714D01*
X147605714Y-110711428D02*
X147262857Y-110711428D01*
X147434285Y-110711428D02*
X147434285Y-110111428D01*
X147377142Y-110197142D01*
X147320000Y-110254285D01*
X147262857Y-110282857D01*
X147805714Y-110111428D02*
X148205714Y-110111428D01*
X147948571Y-110711428D01*
%TO.C,J2*%
X128780000Y-119301428D02*
X128780000Y-119730000D01*
X128751428Y-119815714D01*
X128694285Y-119872857D01*
X128608571Y-119901428D01*
X128551428Y-119901428D01*
X129037142Y-119358571D02*
X129065714Y-119330000D01*
X129122857Y-119301428D01*
X129265714Y-119301428D01*
X129322857Y-119330000D01*
X129351428Y-119358571D01*
X129380000Y-119415714D01*
X129380000Y-119472857D01*
X129351428Y-119558571D01*
X129008571Y-119901428D01*
X129380000Y-119901428D01*
%TO.C,C1*%
X138695000Y-110634285D02*
X138666428Y-110662857D01*
X138580714Y-110691428D01*
X138523571Y-110691428D01*
X138437857Y-110662857D01*
X138380714Y-110605714D01*
X138352142Y-110548571D01*
X138323571Y-110434285D01*
X138323571Y-110348571D01*
X138352142Y-110234285D01*
X138380714Y-110177142D01*
X138437857Y-110120000D01*
X138523571Y-110091428D01*
X138580714Y-110091428D01*
X138666428Y-110120000D01*
X138695000Y-110148571D01*
X139266428Y-110691428D02*
X138923571Y-110691428D01*
X139095000Y-110691428D02*
X139095000Y-110091428D01*
X139037857Y-110177142D01*
X138980714Y-110234285D01*
X138923571Y-110262857D01*
%TO.C,J7*%
X159965000Y-66971428D02*
X159965000Y-67400000D01*
X159936428Y-67485714D01*
X159879285Y-67542857D01*
X159793571Y-67571428D01*
X159736428Y-67571428D01*
X160193571Y-66971428D02*
X160593571Y-66971428D01*
X160336428Y-67571428D01*
%TO.C,U5*%
X154987857Y-76081428D02*
X154987857Y-76567142D01*
X155016428Y-76624285D01*
X155045000Y-76652857D01*
X155102142Y-76681428D01*
X155216428Y-76681428D01*
X155273571Y-76652857D01*
X155302142Y-76624285D01*
X155330714Y-76567142D01*
X155330714Y-76081428D01*
X155902142Y-76081428D02*
X155616428Y-76081428D01*
X155587857Y-76367142D01*
X155616428Y-76338571D01*
X155673571Y-76310000D01*
X155816428Y-76310000D01*
X155873571Y-76338571D01*
X155902142Y-76367142D01*
X155930714Y-76424285D01*
X155930714Y-76567142D01*
X155902142Y-76624285D01*
X155873571Y-76652857D01*
X155816428Y-76681428D01*
X155673571Y-76681428D01*
X155616428Y-76652857D01*
X155587857Y-76624285D01*
%TO.C,J1*%
X128815000Y-66681428D02*
X128815000Y-67110000D01*
X128786428Y-67195714D01*
X128729285Y-67252857D01*
X128643571Y-67281428D01*
X128586428Y-67281428D01*
X129415000Y-67281428D02*
X129072142Y-67281428D01*
X129243571Y-67281428D02*
X129243571Y-66681428D01*
X129186428Y-66767142D01*
X129129285Y-66824285D01*
X129072142Y-66852857D01*
%TO.C,C2*%
X159295000Y-79414285D02*
X159266428Y-79442857D01*
X159180714Y-79471428D01*
X159123571Y-79471428D01*
X159037857Y-79442857D01*
X158980714Y-79385714D01*
X158952142Y-79328571D01*
X158923571Y-79214285D01*
X158923571Y-79128571D01*
X158952142Y-79014285D01*
X158980714Y-78957142D01*
X159037857Y-78900000D01*
X159123571Y-78871428D01*
X159180714Y-78871428D01*
X159266428Y-78900000D01*
X159295000Y-78928571D01*
X159523571Y-78928571D02*
X159552142Y-78900000D01*
X159609285Y-78871428D01*
X159752142Y-78871428D01*
X159809285Y-78900000D01*
X159837857Y-78928571D01*
X159866428Y-78985714D01*
X159866428Y-79042857D01*
X159837857Y-79128571D01*
X159495000Y-79471428D01*
X159866428Y-79471428D01*
%TO.C,L1*%
X128025000Y-70201428D02*
X127739285Y-70201428D01*
X127739285Y-69601428D01*
X128539285Y-70201428D02*
X128196428Y-70201428D01*
X128367857Y-70201428D02*
X128367857Y-69601428D01*
X128310714Y-69687142D01*
X128253571Y-69744285D01*
X128196428Y-69772857D01*
%TO.C,C10*%
X121679285Y-111505714D02*
X121707857Y-111534285D01*
X121736428Y-111620000D01*
X121736428Y-111677142D01*
X121707857Y-111762857D01*
X121650714Y-111820000D01*
X121593571Y-111848571D01*
X121479285Y-111877142D01*
X121393571Y-111877142D01*
X121279285Y-111848571D01*
X121222142Y-111820000D01*
X121165000Y-111762857D01*
X121136428Y-111677142D01*
X121136428Y-111620000D01*
X121165000Y-111534285D01*
X121193571Y-111505714D01*
X121736428Y-110934285D02*
X121736428Y-111277142D01*
X121736428Y-111105714D02*
X121136428Y-111105714D01*
X121222142Y-111162857D01*
X121279285Y-111220000D01*
X121307857Y-111277142D01*
X121136428Y-110562857D02*
X121136428Y-110505714D01*
X121165000Y-110448571D01*
X121193571Y-110420000D01*
X121250714Y-110391428D01*
X121365000Y-110362857D01*
X121507857Y-110362857D01*
X121622142Y-110391428D01*
X121679285Y-110420000D01*
X121707857Y-110448571D01*
X121736428Y-110505714D01*
X121736428Y-110562857D01*
X121707857Y-110620000D01*
X121679285Y-110648571D01*
X121622142Y-110677142D01*
X121507857Y-110705714D01*
X121365000Y-110705714D01*
X121250714Y-110677142D01*
X121193571Y-110648571D01*
X121165000Y-110620000D01*
X121136428Y-110562857D01*
D12*
%TO.C,D3*%
X121304761Y-76300952D02*
X121304761Y-75900952D01*
X121400000Y-75900952D01*
X121457142Y-75920000D01*
X121495238Y-75958095D01*
X121514285Y-75996190D01*
X121533333Y-76072380D01*
X121533333Y-76129523D01*
X121514285Y-76205714D01*
X121495238Y-76243809D01*
X121457142Y-76281904D01*
X121400000Y-76300952D01*
X121304761Y-76300952D01*
X121666666Y-75900952D02*
X121914285Y-75900952D01*
X121780952Y-76053333D01*
X121838095Y-76053333D01*
X121876190Y-76072380D01*
X121895238Y-76091428D01*
X121914285Y-76129523D01*
X121914285Y-76224761D01*
X121895238Y-76262857D01*
X121876190Y-76281904D01*
X121838095Y-76300952D01*
X121723809Y-76300952D01*
X121685714Y-76281904D01*
X121666666Y-76262857D01*
D11*
%TO.C,R20*%
X117721428Y-73795714D02*
X117435714Y-73995714D01*
X117721428Y-74138571D02*
X117121428Y-74138571D01*
X117121428Y-73910000D01*
X117150000Y-73852857D01*
X117178571Y-73824285D01*
X117235714Y-73795714D01*
X117321428Y-73795714D01*
X117378571Y-73824285D01*
X117407142Y-73852857D01*
X117435714Y-73910000D01*
X117435714Y-74138571D01*
X117178571Y-73567142D02*
X117150000Y-73538571D01*
X117121428Y-73481428D01*
X117121428Y-73338571D01*
X117150000Y-73281428D01*
X117178571Y-73252857D01*
X117235714Y-73224285D01*
X117292857Y-73224285D01*
X117378571Y-73252857D01*
X117721428Y-73595714D01*
X117721428Y-73224285D01*
X117121428Y-72852857D02*
X117121428Y-72795714D01*
X117150000Y-72738571D01*
X117178571Y-72710000D01*
X117235714Y-72681428D01*
X117350000Y-72652857D01*
X117492857Y-72652857D01*
X117607142Y-72681428D01*
X117664285Y-72710000D01*
X117692857Y-72738571D01*
X117721428Y-72795714D01*
X117721428Y-72852857D01*
X117692857Y-72910000D01*
X117664285Y-72938571D01*
X117607142Y-72967142D01*
X117492857Y-72995714D01*
X117350000Y-72995714D01*
X117235714Y-72967142D01*
X117178571Y-72938571D01*
X117150000Y-72910000D01*
X117121428Y-72852857D01*
%TO.C,D1*%
X123106428Y-119192857D02*
X122506428Y-119192857D01*
X122506428Y-119050000D01*
X122535000Y-118964285D01*
X122592142Y-118907142D01*
X122649285Y-118878571D01*
X122763571Y-118850000D01*
X122849285Y-118850000D01*
X122963571Y-118878571D01*
X123020714Y-118907142D01*
X123077857Y-118964285D01*
X123106428Y-119050000D01*
X123106428Y-119192857D01*
X123106428Y-118278571D02*
X123106428Y-118621428D01*
X123106428Y-118450000D02*
X122506428Y-118450000D01*
X122592142Y-118507142D01*
X122649285Y-118564285D01*
X122677857Y-118621428D01*
%TO.C,C11*%
X134979285Y-80514285D02*
X134950714Y-80542857D01*
X134865000Y-80571428D01*
X134807857Y-80571428D01*
X134722142Y-80542857D01*
X134665000Y-80485714D01*
X134636428Y-80428571D01*
X134607857Y-80314285D01*
X134607857Y-80228571D01*
X134636428Y-80114285D01*
X134665000Y-80057142D01*
X134722142Y-80000000D01*
X134807857Y-79971428D01*
X134865000Y-79971428D01*
X134950714Y-80000000D01*
X134979285Y-80028571D01*
X135550714Y-80571428D02*
X135207857Y-80571428D01*
X135379285Y-80571428D02*
X135379285Y-79971428D01*
X135322142Y-80057142D01*
X135265000Y-80114285D01*
X135207857Y-80142857D01*
X136122142Y-80571428D02*
X135779285Y-80571428D01*
X135950714Y-80571428D02*
X135950714Y-79971428D01*
X135893571Y-80057142D01*
X135836428Y-80114285D01*
X135779285Y-80142857D01*
D10*
%TO.C,SW2*%
X127656904Y-90120000D02*
X126856904Y-90120000D01*
X126856904Y-89586666D02*
X126856904Y-89434285D01*
X126895000Y-89358095D01*
X126971190Y-89281904D01*
X127123571Y-89243809D01*
X127390238Y-89243809D01*
X127542619Y-89281904D01*
X127618809Y-89358095D01*
X127656904Y-89434285D01*
X127656904Y-89586666D01*
X127618809Y-89662857D01*
X127542619Y-89739047D01*
X127390238Y-89777142D01*
X127123571Y-89777142D01*
X126971190Y-89739047D01*
X126895000Y-89662857D01*
X126856904Y-89586666D01*
X126856904Y-88748571D02*
X126856904Y-88672380D01*
X126895000Y-88596190D01*
X126933095Y-88558095D01*
X127009285Y-88520000D01*
X127161666Y-88481904D01*
X127352142Y-88481904D01*
X127504523Y-88520000D01*
X127580714Y-88558095D01*
X127618809Y-88596190D01*
X127656904Y-88672380D01*
X127656904Y-88748571D01*
X127618809Y-88824761D01*
X127580714Y-88862857D01*
X127504523Y-88900952D01*
X127352142Y-88939047D01*
X127161666Y-88939047D01*
X127009285Y-88900952D01*
X126933095Y-88862857D01*
X126895000Y-88824761D01*
X126856904Y-88748571D01*
D11*
%TO.C,U7*%
X149537857Y-76081428D02*
X149537857Y-76567142D01*
X149566428Y-76624285D01*
X149595000Y-76652857D01*
X149652142Y-76681428D01*
X149766428Y-76681428D01*
X149823571Y-76652857D01*
X149852142Y-76624285D01*
X149880714Y-76567142D01*
X149880714Y-76081428D01*
X150109285Y-76081428D02*
X150509285Y-76081428D01*
X150252142Y-76681428D01*
D10*
%TO.C,SW1*%
X132616904Y-89798095D02*
X132235952Y-90064761D01*
X132616904Y-90255238D02*
X131816904Y-90255238D01*
X131816904Y-89950476D01*
X131855000Y-89874285D01*
X131893095Y-89836190D01*
X131969285Y-89798095D01*
X132083571Y-89798095D01*
X132159761Y-89836190D01*
X132197857Y-89874285D01*
X132235952Y-89950476D01*
X132235952Y-90255238D01*
X132578809Y-89493333D02*
X132616904Y-89379047D01*
X132616904Y-89188571D01*
X132578809Y-89112380D01*
X132540714Y-89074285D01*
X132464523Y-89036190D01*
X132388333Y-89036190D01*
X132312142Y-89074285D01*
X132274047Y-89112380D01*
X132235952Y-89188571D01*
X132197857Y-89340952D01*
X132159761Y-89417142D01*
X132121666Y-89455238D01*
X132045476Y-89493333D01*
X131969285Y-89493333D01*
X131893095Y-89455238D01*
X131855000Y-89417142D01*
X131816904Y-89340952D01*
X131816904Y-89150476D01*
X131855000Y-89036190D01*
X131816904Y-88807619D02*
X131816904Y-88350476D01*
X132616904Y-88579047D02*
X131816904Y-88579047D01*
D11*
%TO.C,J5*%
X153555000Y-87691428D02*
X153555000Y-88120000D01*
X153526428Y-88205714D01*
X153469285Y-88262857D01*
X153383571Y-88291428D01*
X153326428Y-88291428D01*
X154126428Y-87691428D02*
X153840714Y-87691428D01*
X153812142Y-87977142D01*
X153840714Y-87948571D01*
X153897857Y-87920000D01*
X154040714Y-87920000D01*
X154097857Y-87948571D01*
X154126428Y-87977142D01*
X154155000Y-88034285D01*
X154155000Y-88177142D01*
X154126428Y-88234285D01*
X154097857Y-88262857D01*
X154040714Y-88291428D01*
X153897857Y-88291428D01*
X153840714Y-88262857D01*
X153812142Y-88234285D01*
%TO.C,R14*%
X140196428Y-87325714D02*
X139910714Y-87525714D01*
X140196428Y-87668571D02*
X139596428Y-87668571D01*
X139596428Y-87440000D01*
X139625000Y-87382857D01*
X139653571Y-87354285D01*
X139710714Y-87325714D01*
X139796428Y-87325714D01*
X139853571Y-87354285D01*
X139882142Y-87382857D01*
X139910714Y-87440000D01*
X139910714Y-87668571D01*
X140196428Y-86754285D02*
X140196428Y-87097142D01*
X140196428Y-86925714D02*
X139596428Y-86925714D01*
X139682142Y-86982857D01*
X139739285Y-87040000D01*
X139767857Y-87097142D01*
X139796428Y-86240000D02*
X140196428Y-86240000D01*
X139567857Y-86382857D02*
X139996428Y-86525714D01*
X139996428Y-86154285D01*
%TO.C,C3*%
X127945000Y-68224285D02*
X127916428Y-68252857D01*
X127830714Y-68281428D01*
X127773571Y-68281428D01*
X127687857Y-68252857D01*
X127630714Y-68195714D01*
X127602142Y-68138571D01*
X127573571Y-68024285D01*
X127573571Y-67938571D01*
X127602142Y-67824285D01*
X127630714Y-67767142D01*
X127687857Y-67710000D01*
X127773571Y-67681428D01*
X127830714Y-67681428D01*
X127916428Y-67710000D01*
X127945000Y-67738571D01*
X128145000Y-67681428D02*
X128516428Y-67681428D01*
X128316428Y-67910000D01*
X128402142Y-67910000D01*
X128459285Y-67938571D01*
X128487857Y-67967142D01*
X128516428Y-68024285D01*
X128516428Y-68167142D01*
X128487857Y-68224285D01*
X128459285Y-68252857D01*
X128402142Y-68281428D01*
X128230714Y-68281428D01*
X128173571Y-68252857D01*
X128145000Y-68224285D01*
%TO.C,R1*%
X132015000Y-80601428D02*
X131815000Y-80315714D01*
X131672142Y-80601428D02*
X131672142Y-80001428D01*
X131900714Y-80001428D01*
X131957857Y-80030000D01*
X131986428Y-80058571D01*
X132015000Y-80115714D01*
X132015000Y-80201428D01*
X131986428Y-80258571D01*
X131957857Y-80287142D01*
X131900714Y-80315714D01*
X131672142Y-80315714D01*
X132586428Y-80601428D02*
X132243571Y-80601428D01*
X132415000Y-80601428D02*
X132415000Y-80001428D01*
X132357857Y-80087142D01*
X132300714Y-80144285D01*
X132243571Y-80172857D01*
%TO.C,J8*%
X161915000Y-119561428D02*
X161915000Y-119990000D01*
X161886428Y-120075714D01*
X161829285Y-120132857D01*
X161743571Y-120161428D01*
X161686428Y-120161428D01*
X162286428Y-119818571D02*
X162229285Y-119790000D01*
X162200714Y-119761428D01*
X162172142Y-119704285D01*
X162172142Y-119675714D01*
X162200714Y-119618571D01*
X162229285Y-119590000D01*
X162286428Y-119561428D01*
X162400714Y-119561428D01*
X162457857Y-119590000D01*
X162486428Y-119618571D01*
X162515000Y-119675714D01*
X162515000Y-119704285D01*
X162486428Y-119761428D01*
X162457857Y-119790000D01*
X162400714Y-119818571D01*
X162286428Y-119818571D01*
X162229285Y-119847142D01*
X162200714Y-119875714D01*
X162172142Y-119932857D01*
X162172142Y-120047142D01*
X162200714Y-120104285D01*
X162229285Y-120132857D01*
X162286428Y-120161428D01*
X162400714Y-120161428D01*
X162457857Y-120132857D01*
X162486428Y-120104285D01*
X162515000Y-120047142D01*
X162515000Y-119932857D01*
X162486428Y-119875714D01*
X162457857Y-119847142D01*
X162400714Y-119818571D01*
%TO.C,J3*%
X126725000Y-78961428D02*
X126725000Y-79390000D01*
X126696428Y-79475714D01*
X126639285Y-79532857D01*
X126553571Y-79561428D01*
X126496428Y-79561428D01*
X126953571Y-78961428D02*
X127325000Y-78961428D01*
X127125000Y-79190000D01*
X127210714Y-79190000D01*
X127267857Y-79218571D01*
X127296428Y-79247142D01*
X127325000Y-79304285D01*
X127325000Y-79447142D01*
X127296428Y-79504285D01*
X127267857Y-79532857D01*
X127210714Y-79561428D01*
X127039285Y-79561428D01*
X126982142Y-79532857D01*
X126953571Y-79504285D01*
%TO.C,R9*%
X166005000Y-108271428D02*
X165805000Y-107985714D01*
X165662142Y-108271428D02*
X165662142Y-107671428D01*
X165890714Y-107671428D01*
X165947857Y-107700000D01*
X165976428Y-107728571D01*
X166005000Y-107785714D01*
X166005000Y-107871428D01*
X165976428Y-107928571D01*
X165947857Y-107957142D01*
X165890714Y-107985714D01*
X165662142Y-107985714D01*
X166290714Y-108271428D02*
X166405000Y-108271428D01*
X166462142Y-108242857D01*
X166490714Y-108214285D01*
X166547857Y-108128571D01*
X166576428Y-108014285D01*
X166576428Y-107785714D01*
X166547857Y-107728571D01*
X166519285Y-107700000D01*
X166462142Y-107671428D01*
X166347857Y-107671428D01*
X166290714Y-107700000D01*
X166262142Y-107728571D01*
X166233571Y-107785714D01*
X166233571Y-107928571D01*
X166262142Y-107985714D01*
X166290714Y-108014285D01*
X166347857Y-108042857D01*
X166462142Y-108042857D01*
X166519285Y-108014285D01*
X166547857Y-107985714D01*
X166576428Y-107928571D01*
%TO.C,D2*%
X168307142Y-108271428D02*
X168307142Y-107671428D01*
X168450000Y-107671428D01*
X168535714Y-107700000D01*
X168592857Y-107757142D01*
X168621428Y-107814285D01*
X168650000Y-107928571D01*
X168650000Y-108014285D01*
X168621428Y-108128571D01*
X168592857Y-108185714D01*
X168535714Y-108242857D01*
X168450000Y-108271428D01*
X168307142Y-108271428D01*
X168878571Y-107728571D02*
X168907142Y-107700000D01*
X168964285Y-107671428D01*
X169107142Y-107671428D01*
X169164285Y-107700000D01*
X169192857Y-107728571D01*
X169221428Y-107785714D01*
X169221428Y-107842857D01*
X169192857Y-107928571D01*
X168850000Y-108271428D01*
X169221428Y-108271428D01*
%TO.C,C4*%
X117694285Y-75530000D02*
X117722857Y-75558571D01*
X117751428Y-75644285D01*
X117751428Y-75701428D01*
X117722857Y-75787142D01*
X117665714Y-75844285D01*
X117608571Y-75872857D01*
X117494285Y-75901428D01*
X117408571Y-75901428D01*
X117294285Y-75872857D01*
X117237142Y-75844285D01*
X117180000Y-75787142D01*
X117151428Y-75701428D01*
X117151428Y-75644285D01*
X117180000Y-75558571D01*
X117208571Y-75530000D01*
X117351428Y-75015714D02*
X117751428Y-75015714D01*
X117122857Y-75158571D02*
X117551428Y-75301428D01*
X117551428Y-74930000D01*
%TO.C,R8*%
X130515000Y-110681428D02*
X130315000Y-110395714D01*
X130172142Y-110681428D02*
X130172142Y-110081428D01*
X130400714Y-110081428D01*
X130457857Y-110110000D01*
X130486428Y-110138571D01*
X130515000Y-110195714D01*
X130515000Y-110281428D01*
X130486428Y-110338571D01*
X130457857Y-110367142D01*
X130400714Y-110395714D01*
X130172142Y-110395714D01*
X130857857Y-110338571D02*
X130800714Y-110310000D01*
X130772142Y-110281428D01*
X130743571Y-110224285D01*
X130743571Y-110195714D01*
X130772142Y-110138571D01*
X130800714Y-110110000D01*
X130857857Y-110081428D01*
X130972142Y-110081428D01*
X131029285Y-110110000D01*
X131057857Y-110138571D01*
X131086428Y-110195714D01*
X131086428Y-110224285D01*
X131057857Y-110281428D01*
X131029285Y-110310000D01*
X130972142Y-110338571D01*
X130857857Y-110338571D01*
X130800714Y-110367142D01*
X130772142Y-110395714D01*
X130743571Y-110452857D01*
X130743571Y-110567142D01*
X130772142Y-110624285D01*
X130800714Y-110652857D01*
X130857857Y-110681428D01*
X130972142Y-110681428D01*
X131029285Y-110652857D01*
X131057857Y-110624285D01*
X131086428Y-110567142D01*
X131086428Y-110452857D01*
X131057857Y-110395714D01*
X131029285Y-110367142D01*
X130972142Y-110338571D01*
%TO.C,C6*%
X129139285Y-106870000D02*
X129167857Y-106898571D01*
X129196428Y-106984285D01*
X129196428Y-107041428D01*
X129167857Y-107127142D01*
X129110714Y-107184285D01*
X129053571Y-107212857D01*
X128939285Y-107241428D01*
X128853571Y-107241428D01*
X128739285Y-107212857D01*
X128682142Y-107184285D01*
X128625000Y-107127142D01*
X128596428Y-107041428D01*
X128596428Y-106984285D01*
X128625000Y-106898571D01*
X128653571Y-106870000D01*
X128596428Y-106355714D02*
X128596428Y-106470000D01*
X128625000Y-106527142D01*
X128653571Y-106555714D01*
X128739285Y-106612857D01*
X128853571Y-106641428D01*
X129082142Y-106641428D01*
X129139285Y-106612857D01*
X129167857Y-106584285D01*
X129196428Y-106527142D01*
X129196428Y-106412857D01*
X129167857Y-106355714D01*
X129139285Y-106327142D01*
X129082142Y-106298571D01*
X128939285Y-106298571D01*
X128882142Y-106327142D01*
X128853571Y-106355714D01*
X128825000Y-106412857D01*
X128825000Y-106527142D01*
X128853571Y-106584285D01*
X128882142Y-106612857D01*
X128939285Y-106641428D01*
%TO.C,U4*%
X122287857Y-114601428D02*
X122287857Y-115087142D01*
X122316428Y-115144285D01*
X122345000Y-115172857D01*
X122402142Y-115201428D01*
X122516428Y-115201428D01*
X122573571Y-115172857D01*
X122602142Y-115144285D01*
X122630714Y-115087142D01*
X122630714Y-114601428D01*
X123173571Y-114801428D02*
X123173571Y-115201428D01*
X123030714Y-114572857D02*
X122887857Y-115001428D01*
X123259285Y-115001428D01*
%TO.C,R10*%
X159021428Y-72135714D02*
X158735714Y-72335714D01*
X159021428Y-72478571D02*
X158421428Y-72478571D01*
X158421428Y-72250000D01*
X158450000Y-72192857D01*
X158478571Y-72164285D01*
X158535714Y-72135714D01*
X158621428Y-72135714D01*
X158678571Y-72164285D01*
X158707142Y-72192857D01*
X158735714Y-72250000D01*
X158735714Y-72478571D01*
X159021428Y-71564285D02*
X159021428Y-71907142D01*
X159021428Y-71735714D02*
X158421428Y-71735714D01*
X158507142Y-71792857D01*
X158564285Y-71850000D01*
X158592857Y-71907142D01*
X158421428Y-71192857D02*
X158421428Y-71135714D01*
X158450000Y-71078571D01*
X158478571Y-71050000D01*
X158535714Y-71021428D01*
X158650000Y-70992857D01*
X158792857Y-70992857D01*
X158907142Y-71021428D01*
X158964285Y-71050000D01*
X158992857Y-71078571D01*
X159021428Y-71135714D01*
X159021428Y-71192857D01*
X158992857Y-71250000D01*
X158964285Y-71278571D01*
X158907142Y-71307142D01*
X158792857Y-71335714D01*
X158650000Y-71335714D01*
X158535714Y-71307142D01*
X158478571Y-71278571D01*
X158450000Y-71250000D01*
X158421428Y-71192857D01*
D15*
%TO.C,C5*%
X136785000Y-107946248D02*
X136785000Y-108468752D01*
X135315000Y-107946248D02*
X135315000Y-108468752D01*
%TO.C,R2*%
X129430000Y-78487064D02*
X129430000Y-78032936D01*
X130900000Y-78487064D02*
X130900000Y-78032936D01*
%TO.C,C7*%
X119613752Y-109675000D02*
X119091248Y-109675000D01*
X119613752Y-108205000D02*
X119091248Y-108205000D01*
%TO.C,R13*%
X154852936Y-108605000D02*
X155307064Y-108605000D01*
X154852936Y-110075000D02*
X155307064Y-110075000D01*
%TO.C,U8*%
X141805000Y-80200000D02*
X141805000Y-83650000D01*
X146925000Y-80200000D02*
X146925000Y-82150000D01*
X141805000Y-80200000D02*
X141805000Y-78250000D01*
X146925000Y-80200000D02*
X146925000Y-78250000D01*
%TO.C,U2*%
X162095000Y-78200000D02*
X164045000Y-78200000D01*
X162095000Y-73080000D02*
X164045000Y-73080000D01*
X162095000Y-78200000D02*
X160145000Y-78200000D01*
X162095000Y-73080000D02*
X158645000Y-73080000D01*
%TO.C,C8*%
X134015000Y-108458752D02*
X134015000Y-107936248D01*
X132545000Y-108458752D02*
X132545000Y-107936248D01*
%TO.C,J4*%
X162465000Y-106130000D02*
X162465000Y-95380000D01*
X161155000Y-107430000D02*
X161155000Y-79230000D01*
X160765000Y-84440000D02*
X159765000Y-83940000D01*
X162465000Y-95380000D02*
X161155000Y-95380000D01*
X170275000Y-79230000D02*
X170275000Y-107430000D01*
X159765000Y-83940000D02*
X159765000Y-84940000D01*
X170275000Y-107430000D02*
X161155000Y-107430000D01*
X159765000Y-84940000D02*
X160765000Y-84440000D01*
X161155000Y-79230000D02*
X170275000Y-79230000D01*
X162465000Y-80530000D02*
X168965000Y-80530000D01*
X168965000Y-80530000D02*
X168965000Y-106130000D01*
X162465000Y-91280000D02*
X162465000Y-80530000D01*
X162465000Y-95380000D02*
X162465000Y-95380000D01*
X168965000Y-106130000D02*
X162465000Y-106130000D01*
X161155000Y-91280000D02*
X162465000Y-91280000D01*
%TO.C,R12*%
X137637936Y-85705000D02*
X138092064Y-85705000D01*
X137637936Y-84235000D02*
X138092064Y-84235000D01*
%TO.C,R18*%
X158870000Y-86867064D02*
X158870000Y-86412936D01*
X160340000Y-86867064D02*
X160340000Y-86412936D01*
%TO.C,U3*%
X129112000Y-105670000D02*
X137748000Y-105670000D01*
X129112000Y-103892000D02*
X129112000Y-105670000D01*
X129112000Y-90430000D02*
X129112000Y-92208000D01*
X129112000Y-96272000D02*
X129112000Y-99828000D01*
X137748000Y-105670000D02*
X137748000Y-101352000D01*
X137748000Y-92208000D02*
X137748000Y-90430000D01*
X137748000Y-90430000D02*
X129112000Y-90430000D01*
X129112000Y-93732000D02*
X129112000Y-94748000D01*
X137748000Y-99828000D02*
X137748000Y-93732000D01*
X129112000Y-101352000D02*
X129112000Y-102368000D01*
%TO.C,U1*%
X158995000Y-89320000D02*
X159895000Y-89320000D01*
X140545000Y-107470000D02*
X141045000Y-107470000D01*
X158895000Y-107470000D02*
X159745000Y-107470000D01*
X159745000Y-89470000D02*
X159745000Y-90820000D01*
X159895000Y-107620000D02*
X159895000Y-106620000D01*
X159745000Y-107470000D02*
X159745000Y-106170000D01*
X140545000Y-89470000D02*
X141045000Y-89470000D01*
X140545000Y-89470000D02*
X140545000Y-107470000D01*
X159895000Y-107620000D02*
X158895000Y-107620000D01*
X141045000Y-89320000D02*
X140395000Y-89320000D01*
X140395000Y-89320000D02*
X140395000Y-90320000D01*
X159895000Y-89320000D02*
X159895000Y-90320000D01*
X140395000Y-107670000D02*
X140395000Y-106570000D01*
X158995000Y-89470000D02*
X159745000Y-89470000D01*
%TO.C,R11*%
X169150000Y-74966263D02*
X169150000Y-76413737D01*
X166440000Y-74966263D02*
X166440000Y-76413737D01*
%TO.C,U6*%
X141375000Y-80210000D02*
X141375000Y-82160000D01*
X141375000Y-80210000D02*
X141375000Y-78260000D01*
X136255000Y-80210000D02*
X136255000Y-83660000D01*
X136255000Y-80210000D02*
X136255000Y-78260000D01*
%TO.C,C9*%
X119613752Y-113945000D02*
X119091248Y-113945000D01*
X119613752Y-112475000D02*
X119091248Y-112475000D01*
%TO.C,C12*%
X138151252Y-88355000D02*
X137628748Y-88355000D01*
X138151252Y-89825000D02*
X137628748Y-89825000D01*
%TO.C,R16*%
X156640000Y-86837064D02*
X156640000Y-86382936D01*
X158110000Y-86837064D02*
X158110000Y-86382936D01*
%TO.C,R19*%
X142432064Y-110095000D02*
X141977936Y-110095000D01*
X142432064Y-108625000D02*
X141977936Y-108625000D01*
%TO.C,R15*%
X150132936Y-110065000D02*
X150587064Y-110065000D01*
X150132936Y-108595000D02*
X150587064Y-108595000D01*
%TO.C,R17*%
X146067936Y-110085000D02*
X146522064Y-110085000D01*
X146067936Y-108615000D02*
X146522064Y-108615000D01*
%TO.C,J2*%
X141630000Y-119950000D02*
X141630000Y-118640000D01*
X129580000Y-110830000D02*
X157780000Y-110830000D01*
X134290000Y-121340000D02*
X135290000Y-121340000D01*
X129580000Y-119950000D02*
X129580000Y-110830000D01*
X141630000Y-118640000D02*
X130880000Y-118640000D01*
X134790000Y-120340000D02*
X134290000Y-121340000D01*
X157780000Y-119950000D02*
X129580000Y-119950000D01*
X145730000Y-118640000D02*
X145730000Y-119950000D01*
X145730000Y-118640000D02*
X145730000Y-118640000D01*
X156480000Y-118640000D02*
X145730000Y-118640000D01*
X157780000Y-110830000D02*
X157780000Y-119950000D01*
X130880000Y-118640000D02*
X130880000Y-112140000D01*
X130880000Y-112140000D02*
X156480000Y-112140000D01*
X156480000Y-112140000D02*
X156480000Y-118640000D01*
X135290000Y-121340000D02*
X134790000Y-120340000D01*
%TO.C,C1*%
X138040000Y-107948748D02*
X138040000Y-108471252D01*
X139510000Y-107948748D02*
X139510000Y-108471252D01*
%TO.C,J7*%
X164025000Y-70170000D02*
X164025000Y-67510000D01*
X158825000Y-70170000D02*
X158825000Y-68840000D01*
X160155000Y-70170000D02*
X158825000Y-70170000D01*
X161425000Y-70170000D02*
X164025000Y-70170000D01*
X161425000Y-67510000D02*
X164025000Y-67510000D01*
X161425000Y-70170000D02*
X161425000Y-67510000D01*
%TO.C,U5*%
X152895000Y-80180000D02*
X152895000Y-83630000D01*
X158015000Y-80180000D02*
X158015000Y-78230000D01*
X158015000Y-80180000D02*
X158015000Y-82130000D01*
X152895000Y-80180000D02*
X152895000Y-78230000D01*
%TO.C,J1*%
X152585000Y-66407500D02*
X153085000Y-65407500D01*
X141645000Y-68107500D02*
X141645000Y-68107500D01*
X130895000Y-68107500D02*
X141645000Y-68107500D01*
X145745000Y-68107500D02*
X156495000Y-68107500D01*
X156495000Y-74607500D02*
X130895000Y-74607500D01*
X152085000Y-65407500D02*
X152585000Y-66407500D01*
X156495000Y-68107500D02*
X156495000Y-74607500D01*
X129595000Y-75917500D02*
X129595000Y-66797500D01*
X130895000Y-74607500D02*
X130895000Y-68107500D01*
X129595000Y-66797500D02*
X157795000Y-66797500D01*
X157795000Y-75917500D02*
X129595000Y-75917500D01*
X157795000Y-66797500D02*
X157795000Y-75917500D01*
X141645000Y-68107500D02*
X141645000Y-66797500D01*
X145745000Y-66797500D02*
X145745000Y-68107500D01*
X153085000Y-65407500D02*
X152085000Y-65407500D01*
%TO.C,C2*%
X158690000Y-81583752D02*
X158690000Y-81061248D01*
X160160000Y-81583752D02*
X160160000Y-81061248D01*
%TO.C,L1*%
X127495000Y-70515000D02*
X128345000Y-70515000D01*
X128955000Y-71125000D02*
X128955000Y-76825000D01*
X122135000Y-76825000D02*
X122135000Y-71175000D01*
X122795000Y-70515000D02*
X123595000Y-70515000D01*
X128345000Y-77435000D02*
X127495000Y-77435000D01*
X123595000Y-77435000D02*
X122745000Y-77435000D01*
X122135000Y-76825000D02*
G75*
G03*
X122745000Y-77435000I610000J0D01*
G01*
X128955000Y-71125000D02*
G75*
G03*
X128345000Y-70515000I-610000J0D01*
G01*
X128345000Y-77435000D02*
G75*
G03*
X128955000Y-76825000I0J610000D01*
G01*
X122795000Y-70515000D02*
G75*
G03*
X122135000Y-71175000I2J-660002D01*
G01*
%TO.C,C10*%
X119613752Y-110335000D02*
X119091248Y-110335000D01*
X119613752Y-111805000D02*
X119091248Y-111805000D01*
%TO.C,D3*%
X121872500Y-78755000D02*
X121872500Y-76485000D01*
X117812500Y-78755000D02*
X121872500Y-78755000D01*
X121872500Y-76485000D02*
X117812500Y-76485000D01*
%TO.C,R20*%
X119797064Y-72675000D02*
X119342936Y-72675000D01*
X119797064Y-74145000D02*
X119342936Y-74145000D01*
%TO.C,D1*%
X123282500Y-117545000D02*
X123282500Y-119815000D01*
X127342500Y-117545000D02*
X123282500Y-117545000D01*
X123282500Y-119815000D02*
X127342500Y-119815000D01*
%TO.C,C11*%
X134180000Y-78541252D02*
X134180000Y-78018748D01*
X135650000Y-78541252D02*
X135650000Y-78018748D01*
%TO.C,SW2*%
X127005000Y-82080000D02*
X130705000Y-82080000D01*
X127005000Y-88200000D02*
X127005000Y-82080000D01*
X130705000Y-82080000D02*
X130705000Y-88200000D01*
X130705000Y-88200000D02*
X127005000Y-88200000D01*
%TO.C,U7*%
X152485000Y-80200000D02*
X152485000Y-78250000D01*
X147365000Y-80200000D02*
X147365000Y-78250000D01*
X152485000Y-80200000D02*
X152485000Y-82150000D01*
X147365000Y-80200000D02*
X147365000Y-83650000D01*
%TO.C,SW1*%
X135705000Y-88240000D02*
X132005000Y-88240000D01*
X135705000Y-82120000D02*
X135705000Y-88240000D01*
X132005000Y-82120000D02*
X135705000Y-82120000D01*
X132005000Y-88240000D02*
X132005000Y-82120000D01*
%TO.C,J5*%
X153130000Y-85085000D02*
X153130000Y-87745000D01*
X153130000Y-87745000D02*
X140370000Y-87745000D01*
X140370000Y-85085000D02*
X140370000Y-87745000D01*
X155730000Y-86415000D02*
X155730000Y-87745000D01*
X155730000Y-87745000D02*
X154400000Y-87745000D01*
X153130000Y-85085000D02*
X140370000Y-85085000D01*
%TO.C,R14*%
X137637936Y-86235000D02*
X138092064Y-86235000D01*
X137637936Y-87705000D02*
X138092064Y-87705000D01*
%TO.C,C3*%
X125276248Y-67265000D02*
X125798752Y-67265000D01*
X125276248Y-68735000D02*
X125798752Y-68735000D01*
%TO.C,R1*%
X131820000Y-78497064D02*
X131820000Y-78042936D01*
X133290000Y-78497064D02*
X133290000Y-78042936D01*
%TO.C,J8*%
X158925000Y-119670000D02*
X158925000Y-109390000D01*
X161525000Y-117070000D02*
X161525000Y-119670000D01*
X164125000Y-119670000D02*
X162795000Y-119670000D01*
X164125000Y-109390000D02*
X158925000Y-109390000D01*
X164125000Y-117070000D02*
X164125000Y-109390000D01*
X164125000Y-118340000D02*
X164125000Y-119670000D01*
X164125000Y-117070000D02*
X161525000Y-117070000D01*
X161525000Y-119670000D02*
X158925000Y-119670000D01*
%TO.C,J3*%
X118475000Y-91260000D02*
X118475000Y-80510000D01*
X116775000Y-84420000D02*
X115775000Y-83920000D01*
X118475000Y-106110000D02*
X118475000Y-95360000D01*
X115775000Y-83920000D02*
X115775000Y-84920000D01*
X124975000Y-106110000D02*
X118475000Y-106110000D01*
X118475000Y-95360000D02*
X118475000Y-95360000D01*
X115775000Y-84920000D02*
X116775000Y-84420000D01*
X126285000Y-79210000D02*
X126285000Y-107410000D01*
X118475000Y-95360000D02*
X117165000Y-95360000D01*
X117165000Y-107410000D02*
X117165000Y-79210000D01*
X117165000Y-79210000D02*
X126285000Y-79210000D01*
X118475000Y-80510000D02*
X124975000Y-80510000D01*
X124975000Y-80510000D02*
X124975000Y-106110000D01*
X117165000Y-91260000D02*
X118475000Y-91260000D01*
X126285000Y-107410000D02*
X117165000Y-107410000D01*
%TO.C,R9*%
X166830000Y-110112936D02*
X166830000Y-110567064D01*
X165360000Y-110112936D02*
X165360000Y-110567064D01*
%TO.C,D2*%
X167560000Y-113412500D02*
X169830000Y-113412500D01*
X167560000Y-109352500D02*
X167560000Y-113412500D01*
X169830000Y-113412500D02*
X169830000Y-109352500D01*
%TO.C,C4*%
X119823752Y-74685000D02*
X119301248Y-74685000D01*
X119823752Y-76155000D02*
X119301248Y-76155000D01*
%TO.C,R8*%
X129830000Y-107992936D02*
X129830000Y-108447064D01*
X131300000Y-107992936D02*
X131300000Y-108447064D01*
%TO.C,C6*%
X128500000Y-106181252D02*
X128500000Y-105658748D01*
X127030000Y-106181252D02*
X127030000Y-105658748D01*
%TO.C,U4*%
X122085000Y-114230000D02*
X123345000Y-114230000D01*
X128905000Y-114230000D02*
X127645000Y-114230000D01*
X128905000Y-108220000D02*
X128905000Y-114230000D01*
X122085000Y-110470000D02*
X122085000Y-114230000D01*
%TO.C,R10*%
X161122064Y-71105000D02*
X160667936Y-71105000D01*
X161122064Y-72575000D02*
X160667936Y-72575000D01*
%TD*%
M02*
