%TF.GenerationSoftware,KiCad,Pcbnew,6.0.8+dfsg-1~bpo11+1*%
%TF.CreationDate,2022-10-31T17:33:10+01:00*%
%TF.ProjectId,rib4inAd_00,72696234-696e-4416-945f-30302e6b6963,rev?*%
%TF.SameCoordinates,Original*%
%TF.FileFunction,Drillmap*%
%TF.FilePolarity,Positive*%
%FSLAX45Y45*%
G04 Gerber Fmt 4.5, Leading zero omitted, Abs format (unit mm)*
G04 Created by KiCad (PCBNEW 6.0.8+dfsg-1~bpo11+1) date 2022-10-31 17:33:10*
%MOMM*%
%LPD*%
G01*
G04 APERTURE LIST*
%ADD10C,0.100000*%
%ADD11C,0.200000*%
%ADD12C,0.040000*%
%ADD13C,0.080000*%
%ADD14C,0.140000*%
G04 APERTURE END LIST*
D10*
X13250000Y-8550000D02*
G75*
G03*
X13250000Y-8550000I-150000J0D01*
G01*
X18050000Y-11700000D02*
G75*
G03*
X18050000Y-11700000I-150000J0D01*
G01*
X13250000Y-11700000D02*
G75*
G03*
X13250000Y-11700000I-150000J0D01*
G01*
X12800000Y-12000000D02*
X18200000Y-12000000D01*
X18200000Y-12000000D02*
X18200000Y-6600000D01*
X18200000Y-6600000D02*
X12800000Y-6600000D01*
X12800000Y-6600000D02*
X12800000Y-12000000D01*
D11*
D12*
X12868000Y-10658000D02*
X12908000Y-10698000D01*
X12908000Y-10658000D02*
X12868000Y-10698000D01*
X12983000Y-9748000D02*
X13023000Y-9788000D01*
X13023000Y-9748000D02*
X12983000Y-9788000D01*
X13075770Y-10275770D02*
X13115770Y-10315770D01*
X13115770Y-10275770D02*
X13075770Y-10315770D01*
X13077000Y-10139000D02*
X13117000Y-10179000D01*
X13117000Y-10139000D02*
X13077000Y-10179000D01*
X13537000Y-10275000D02*
X13577000Y-10315000D01*
X13577000Y-10275000D02*
X13537000Y-10315000D01*
X13538000Y-10141000D02*
X13578000Y-10181000D01*
X13578000Y-10141000D02*
X13538000Y-10181000D01*
X13544000Y-11129000D02*
X13584000Y-11169000D01*
X13584000Y-11129000D02*
X13544000Y-11169000D01*
X13728000Y-11131000D02*
X13768000Y-11171000D01*
X13768000Y-11131000D02*
X13728000Y-11171000D01*
X14142000Y-9756000D02*
X14182000Y-9796000D01*
X14182000Y-9756000D02*
X14142000Y-9796000D01*
X14229550Y-10139847D02*
X14269550Y-10179847D01*
X14269550Y-10139847D02*
X14229550Y-10179847D01*
X14235000Y-8718000D02*
X14275000Y-8758000D01*
X14275000Y-8718000D02*
X14235000Y-8758000D01*
X14242000Y-10310000D02*
X14282000Y-10350000D01*
X14282000Y-10310000D02*
X14242000Y-10350000D01*
X14325000Y-11191000D02*
X14365000Y-11231000D01*
X14365000Y-11191000D02*
X14325000Y-11231000D01*
X14383000Y-8993000D02*
X14423000Y-9033000D01*
X14423000Y-8993000D02*
X14383000Y-9033000D01*
X14414000Y-10636000D02*
X14454000Y-10676000D01*
X14454000Y-10636000D02*
X14414000Y-10676000D01*
X14676000Y-10139000D02*
X14716000Y-10179000D01*
X14716000Y-10139000D02*
X14676000Y-10179000D01*
X14682000Y-10317450D02*
X14722000Y-10357450D01*
X14722000Y-10317450D02*
X14682000Y-10357450D01*
X14686000Y-10640000D02*
X14726000Y-10680000D01*
X14726000Y-10640000D02*
X14686000Y-10680000D01*
X14797000Y-11085000D02*
X14837000Y-11125000D01*
X14837000Y-11085000D02*
X14797000Y-11125000D01*
X14967000Y-11173000D02*
X15007000Y-11213000D01*
X15007000Y-11173000D02*
X14967000Y-11213000D01*
X15162000Y-10612000D02*
X15202000Y-10652000D01*
X15202000Y-10612000D02*
X15162000Y-10652000D01*
X15293000Y-9754000D02*
X15333000Y-9794000D01*
X15333000Y-9754000D02*
X15293000Y-9794000D01*
X15323000Y-8718000D02*
X15363000Y-8758000D01*
X15363000Y-8718000D02*
X15323000Y-8758000D01*
X15375957Y-10280408D02*
X15415957Y-10320408D01*
X15415957Y-10280408D02*
X15375957Y-10320408D01*
X15378550Y-10138000D02*
X15418550Y-10178000D01*
X15418550Y-10138000D02*
X15378550Y-10178000D01*
X15477000Y-8993000D02*
X15517000Y-9033000D01*
X15517000Y-8993000D02*
X15477000Y-9033000D01*
X15704000Y-10629000D02*
X15744000Y-10669000D01*
X15744000Y-10629000D02*
X15704000Y-10669000D01*
X15758000Y-11106000D02*
X15798000Y-11146000D01*
X15798000Y-11106000D02*
X15758000Y-11146000D01*
X15823000Y-10134000D02*
X15863000Y-10174000D01*
X15863000Y-10134000D02*
X15823000Y-10174000D01*
X15831000Y-10280000D02*
X15871000Y-10320000D01*
X15871000Y-10280000D02*
X15831000Y-10320000D01*
X15956000Y-11091000D02*
X15996000Y-11131000D01*
X15996000Y-11091000D02*
X15956000Y-11131000D01*
X16320000Y-10622000D02*
X16360000Y-10662000D01*
X16360000Y-10622000D02*
X16320000Y-10662000D01*
X16336000Y-11117000D02*
X16376000Y-11157000D01*
X16376000Y-11117000D02*
X16336000Y-11157000D01*
X16407000Y-8719000D02*
X16447000Y-8759000D01*
X16447000Y-8719000D02*
X16407000Y-8759000D01*
X16437000Y-9743000D02*
X16477000Y-9783000D01*
X16477000Y-9743000D02*
X16437000Y-9783000D01*
X16523000Y-10134000D02*
X16563000Y-10174000D01*
X16563000Y-10134000D02*
X16523000Y-10174000D01*
X16537000Y-8993000D02*
X16577000Y-9033000D01*
X16577000Y-8993000D02*
X16537000Y-9033000D01*
X16583000Y-11780000D02*
X16623000Y-11820000D01*
X16623000Y-11780000D02*
X16583000Y-11820000D01*
X16585000Y-11421000D02*
X16625000Y-11461000D01*
X16625000Y-11421000D02*
X16585000Y-11461000D01*
X16638000Y-9123000D02*
X16678000Y-9163000D01*
X16678000Y-9123000D02*
X16638000Y-9163000D01*
X16650000Y-10226000D02*
X16690000Y-10266000D01*
X16690000Y-10226000D02*
X16650000Y-10266000D01*
X16832000Y-11729000D02*
X16872000Y-11769000D01*
X16872000Y-11729000D02*
X16832000Y-11769000D01*
X16842000Y-10304000D02*
X16882000Y-10344000D01*
X16882000Y-10304000D02*
X16842000Y-10344000D01*
X16924000Y-11116000D02*
X16964000Y-11156000D01*
X16964000Y-11116000D02*
X16924000Y-11156000D01*
X16967000Y-10136000D02*
X17007000Y-10176000D01*
X17007000Y-10136000D02*
X16967000Y-10176000D01*
X17051000Y-9123000D02*
X17091000Y-9163000D01*
X17091000Y-9123000D02*
X17051000Y-9163000D01*
X17117000Y-11089000D02*
X17157000Y-11129000D01*
X17157000Y-11089000D02*
X17117000Y-11129000D01*
X17132000Y-11366000D02*
X17172000Y-11406000D01*
X17172000Y-11366000D02*
X17132000Y-11406000D01*
X17242758Y-11828550D02*
X17282758Y-11868550D01*
X17282758Y-11828550D02*
X17242758Y-11868550D01*
X17278000Y-11682000D02*
X17318000Y-11722000D01*
X17318000Y-11682000D02*
X17278000Y-11722000D01*
X17375050Y-11651450D02*
X17415050Y-11691450D01*
X17415050Y-11651450D02*
X17375050Y-11691450D01*
X17488000Y-8719000D02*
X17528000Y-8759000D01*
X17528000Y-8719000D02*
X17488000Y-8759000D01*
X17521000Y-10356000D02*
X17561000Y-10396000D01*
X17561000Y-10356000D02*
X17521000Y-10396000D01*
X17632000Y-8995000D02*
X17672000Y-9035000D01*
X17672000Y-8995000D02*
X17632000Y-9035000D01*
X17837000Y-11254000D02*
X17877000Y-11294000D01*
X17877000Y-11254000D02*
X17837000Y-11294000D01*
D13*
X13339000Y-9368000D02*
G75*
G03*
X13339000Y-9368000I-40000J0D01*
G01*
X13593000Y-9368000D02*
G75*
G03*
X13593000Y-9368000I-40000J0D01*
G01*
X13696000Y-11415000D02*
G75*
G03*
X13696000Y-11415000I-40000J0D01*
G01*
X13847000Y-9368000D02*
G75*
G03*
X13847000Y-9368000I-40000J0D01*
G01*
X13950000Y-11415000D02*
G75*
G03*
X13950000Y-11415000I-40000J0D01*
G01*
X14204000Y-11415000D02*
G75*
G03*
X14204000Y-11415000I-40000J0D01*
G01*
X14478000Y-9371000D02*
G75*
G03*
X14478000Y-9371000I-40000J0D01*
G01*
X14732000Y-9371000D02*
G75*
G03*
X14732000Y-9371000I-40000J0D01*
G01*
X14986000Y-9371000D02*
G75*
G03*
X14986000Y-9371000I-40000J0D01*
G01*
X15896000Y-9371000D02*
G75*
G03*
X15896000Y-9371000I-40000J0D01*
G01*
X16150000Y-9371000D02*
G75*
G03*
X16150000Y-9371000I-40000J0D01*
G01*
X16404000Y-9371000D02*
G75*
G03*
X16404000Y-9371000I-40000J0D01*
G01*
X17036000Y-9370000D02*
G75*
G03*
X17036000Y-9370000I-40000J0D01*
G01*
X17290000Y-9370000D02*
G75*
G03*
X17290000Y-9370000I-40000J0D01*
G01*
X17544000Y-9370000D02*
G75*
G03*
X17544000Y-9370000I-40000J0D01*
G01*
D10*
X14608500Y-11472500D02*
X14608500Y-11572500D01*
X14558500Y-11522500D02*
X14658500Y-11522500D01*
X14608500Y-11726500D02*
X14608500Y-11826500D01*
X14558500Y-11776500D02*
X14658500Y-11776500D01*
X14862500Y-11472500D02*
X14862500Y-11572500D01*
X14812500Y-11522500D02*
X14912500Y-11522500D01*
X14862500Y-11726500D02*
X14862500Y-11826500D01*
X14812500Y-11776500D02*
X14912500Y-11776500D01*
X15116500Y-11472500D02*
X15116500Y-11572500D01*
X15066500Y-11522500D02*
X15166500Y-11522500D01*
X15116500Y-11726500D02*
X15116500Y-11826500D01*
X15066500Y-11776500D02*
X15166500Y-11776500D01*
X15370500Y-11472500D02*
X15370500Y-11572500D01*
X15320500Y-11522500D02*
X15420500Y-11522500D01*
X15370500Y-11726500D02*
X15370500Y-11826500D01*
X15320500Y-11776500D02*
X15420500Y-11776500D01*
X15624500Y-11472500D02*
X15624500Y-11572500D01*
X15574500Y-11522500D02*
X15674500Y-11522500D01*
X15624500Y-11726500D02*
X15624500Y-11826500D01*
X15574500Y-11776500D02*
X15674500Y-11776500D01*
X15878500Y-11472500D02*
X15878500Y-11572500D01*
X15828500Y-11522500D02*
X15928500Y-11522500D01*
X15878500Y-11726500D02*
X15878500Y-11826500D01*
X15828500Y-11776500D02*
X15928500Y-11776500D01*
X16132500Y-11472500D02*
X16132500Y-11572500D01*
X16082500Y-11522500D02*
X16182500Y-11522500D01*
X16132500Y-11726500D02*
X16132500Y-11826500D01*
X16082500Y-11776500D02*
X16182500Y-11776500D01*
X16386500Y-11472500D02*
X16386500Y-11572500D01*
X16336500Y-11522500D02*
X16436500Y-11522500D01*
X16386500Y-11726500D02*
X16386500Y-11826500D01*
X16336500Y-11776500D02*
X16436500Y-11776500D01*
X18012500Y-8670000D02*
X18012500Y-8770000D01*
X17962500Y-8720000D02*
X18062500Y-8720000D01*
X18012500Y-8924000D02*
X18012500Y-9024000D01*
X17962500Y-8974000D02*
X18062500Y-8974000D01*
X18012500Y-9178000D02*
X18012500Y-9278000D01*
X17962500Y-9228000D02*
X18062500Y-9228000D01*
X18012500Y-9432000D02*
X18012500Y-9532000D01*
X17962500Y-9482000D02*
X18062500Y-9482000D01*
X18012500Y-9686000D02*
X18012500Y-9786000D01*
X17962500Y-9736000D02*
X18062500Y-9736000D01*
X18012500Y-9940000D02*
X18012500Y-10040000D01*
X17962500Y-9990000D02*
X18062500Y-9990000D01*
X18012500Y-10194000D02*
X18012500Y-10294000D01*
X17962500Y-10244000D02*
X18062500Y-10244000D01*
X18012500Y-10448000D02*
X18012500Y-10548000D01*
X17962500Y-10498000D02*
X18062500Y-10498000D01*
X18012500Y-10702000D02*
X18012500Y-10802000D01*
X17962500Y-10752000D02*
X18062500Y-10752000D01*
X18012500Y-10956000D02*
X18012500Y-11056000D01*
X17962500Y-11006000D02*
X18062500Y-11006000D01*
D14*
X13263498Y-7777248D02*
X13263498Y-7678252D01*
X13164502Y-7678252D01*
X13164502Y-7777248D01*
X13263498Y-7777248D01*
X13299498Y-7077248D02*
X13299498Y-6978252D01*
X13200502Y-6978252D01*
X13200502Y-7077248D01*
X13299498Y-7077248D01*
X13771498Y-7777248D02*
X13771498Y-7678252D01*
X13672502Y-7678252D01*
X13672502Y-7777248D01*
X13771498Y-7777248D01*
X13799498Y-7077248D02*
X13799498Y-6978252D01*
X13700502Y-6978252D01*
X13700502Y-7077248D01*
X13799498Y-7077248D01*
X14279498Y-7777248D02*
X14279498Y-7678252D01*
X14180502Y-7678252D01*
X14180502Y-7777248D01*
X14279498Y-7777248D01*
X14299498Y-7077248D02*
X14299498Y-6978252D01*
X14200502Y-6978252D01*
X14200502Y-7077248D01*
X14299498Y-7077248D01*
X14787498Y-7777248D02*
X14787498Y-7678252D01*
X14688502Y-7678252D01*
X14688502Y-7777248D01*
X14787498Y-7777248D01*
X14799498Y-7077248D02*
X14799498Y-6978252D01*
X14700502Y-6978252D01*
X14700502Y-7077248D01*
X14799498Y-7077248D01*
X15295498Y-7777248D02*
X15295498Y-7678252D01*
X15196502Y-7678252D01*
X15196502Y-7777248D01*
X15295498Y-7777248D01*
X15299498Y-7077248D02*
X15299498Y-6978252D01*
X15200502Y-6978252D01*
X15200502Y-7077248D01*
X15299498Y-7077248D01*
X15799498Y-7077248D02*
X15799498Y-6978252D01*
X15700502Y-6978252D01*
X15700502Y-7077248D01*
X15799498Y-7077248D01*
X15803498Y-7777248D02*
X15803498Y-7678252D01*
X15704502Y-7678252D01*
X15704502Y-7777248D01*
X15803498Y-7777248D01*
X16299498Y-7077248D02*
X16299498Y-6978252D01*
X16200502Y-6978252D01*
X16200502Y-7077248D01*
X16299498Y-7077248D01*
X16311498Y-7777248D02*
X16311498Y-7678252D01*
X16212502Y-7678252D01*
X16212502Y-7777248D01*
X16311498Y-7777248D01*
X16799498Y-7077248D02*
X16799498Y-6978252D01*
X16700502Y-6978252D01*
X16700502Y-7077248D01*
X16799498Y-7077248D01*
X16819498Y-7777248D02*
X16819498Y-7678252D01*
X16720502Y-7678252D01*
X16720502Y-7777248D01*
X16819498Y-7777248D01*
X17299498Y-7077248D02*
X17299498Y-6978252D01*
X17200502Y-6978252D01*
X17200502Y-7077248D01*
X17299498Y-7077248D01*
X17327498Y-7777248D02*
X17327498Y-7678252D01*
X17228502Y-7678252D01*
X17228502Y-7777248D01*
X17327498Y-7777248D01*
X17799498Y-7077248D02*
X17799498Y-6978252D01*
X17700502Y-6978252D01*
X17700502Y-7077248D01*
X17799498Y-7077248D01*
X17835498Y-7777248D02*
X17835498Y-7678252D01*
X17736502Y-7678252D01*
X17736502Y-7777248D01*
X17835498Y-7777248D01*
D11*
X13052619Y-12315476D02*
X13052619Y-12115476D01*
X13100238Y-12115476D01*
X13128809Y-12125000D01*
X13147857Y-12144048D01*
X13157381Y-12163095D01*
X13166905Y-12201190D01*
X13166905Y-12229762D01*
X13157381Y-12267857D01*
X13147857Y-12286905D01*
X13128809Y-12305952D01*
X13100238Y-12315476D01*
X13052619Y-12315476D01*
X13252619Y-12315476D02*
X13252619Y-12182143D01*
X13252619Y-12220238D02*
X13262143Y-12201190D01*
X13271667Y-12191667D01*
X13290714Y-12182143D01*
X13309762Y-12182143D01*
X13376428Y-12315476D02*
X13376428Y-12182143D01*
X13376428Y-12115476D02*
X13366905Y-12125000D01*
X13376428Y-12134524D01*
X13385952Y-12125000D01*
X13376428Y-12115476D01*
X13376428Y-12134524D01*
X13500238Y-12315476D02*
X13481190Y-12305952D01*
X13471667Y-12286905D01*
X13471667Y-12115476D01*
X13605000Y-12315476D02*
X13585952Y-12305952D01*
X13576428Y-12286905D01*
X13576428Y-12115476D01*
X13833571Y-12315476D02*
X13833571Y-12115476D01*
X13900238Y-12258333D01*
X13966905Y-12115476D01*
X13966905Y-12315476D01*
X14147857Y-12315476D02*
X14147857Y-12210714D01*
X14138333Y-12191667D01*
X14119286Y-12182143D01*
X14081190Y-12182143D01*
X14062143Y-12191667D01*
X14147857Y-12305952D02*
X14128809Y-12315476D01*
X14081190Y-12315476D01*
X14062143Y-12305952D01*
X14052619Y-12286905D01*
X14052619Y-12267857D01*
X14062143Y-12248809D01*
X14081190Y-12239286D01*
X14128809Y-12239286D01*
X14147857Y-12229762D01*
X14243095Y-12182143D02*
X14243095Y-12382143D01*
X14243095Y-12191667D02*
X14262143Y-12182143D01*
X14300238Y-12182143D01*
X14319286Y-12191667D01*
X14328809Y-12201190D01*
X14338333Y-12220238D01*
X14338333Y-12277381D01*
X14328809Y-12296428D01*
X14319286Y-12305952D01*
X14300238Y-12315476D01*
X14262143Y-12315476D01*
X14243095Y-12305952D01*
X14424048Y-12296428D02*
X14433571Y-12305952D01*
X14424048Y-12315476D01*
X14414524Y-12305952D01*
X14424048Y-12296428D01*
X14424048Y-12315476D01*
X14424048Y-12191667D02*
X14433571Y-12201190D01*
X14424048Y-12210714D01*
X14414524Y-12201190D01*
X14424048Y-12191667D01*
X14424048Y-12210714D01*
D12*
X12755000Y-12625000D02*
X12795000Y-12665000D01*
X12795000Y-12625000D02*
X12755000Y-12665000D01*
D11*
X13090714Y-12535476D02*
X13109762Y-12535476D01*
X13128809Y-12545000D01*
X13138333Y-12554524D01*
X13147857Y-12573571D01*
X13157381Y-12611667D01*
X13157381Y-12659286D01*
X13147857Y-12697381D01*
X13138333Y-12716428D01*
X13128809Y-12725952D01*
X13109762Y-12735476D01*
X13090714Y-12735476D01*
X13071667Y-12725952D01*
X13062143Y-12716428D01*
X13052619Y-12697381D01*
X13043095Y-12659286D01*
X13043095Y-12611667D01*
X13052619Y-12573571D01*
X13062143Y-12554524D01*
X13071667Y-12545000D01*
X13090714Y-12535476D01*
X13243095Y-12716428D02*
X13252619Y-12725952D01*
X13243095Y-12735476D01*
X13233571Y-12725952D01*
X13243095Y-12716428D01*
X13243095Y-12735476D01*
X13424048Y-12602143D02*
X13424048Y-12735476D01*
X13376428Y-12525952D02*
X13328809Y-12668809D01*
X13452619Y-12668809D01*
X13566905Y-12535476D02*
X13585952Y-12535476D01*
X13605000Y-12545000D01*
X13614524Y-12554524D01*
X13624048Y-12573571D01*
X13633571Y-12611667D01*
X13633571Y-12659286D01*
X13624048Y-12697381D01*
X13614524Y-12716428D01*
X13605000Y-12725952D01*
X13585952Y-12735476D01*
X13566905Y-12735476D01*
X13547857Y-12725952D01*
X13538333Y-12716428D01*
X13528809Y-12697381D01*
X13519286Y-12659286D01*
X13519286Y-12611667D01*
X13528809Y-12573571D01*
X13538333Y-12554524D01*
X13547857Y-12545000D01*
X13566905Y-12535476D01*
X13757381Y-12535476D02*
X13776428Y-12535476D01*
X13795476Y-12545000D01*
X13805000Y-12554524D01*
X13814524Y-12573571D01*
X13824048Y-12611667D01*
X13824048Y-12659286D01*
X13814524Y-12697381D01*
X13805000Y-12716428D01*
X13795476Y-12725952D01*
X13776428Y-12735476D01*
X13757381Y-12735476D01*
X13738333Y-12725952D01*
X13728809Y-12716428D01*
X13719286Y-12697381D01*
X13709762Y-12659286D01*
X13709762Y-12611667D01*
X13719286Y-12573571D01*
X13728809Y-12554524D01*
X13738333Y-12545000D01*
X13757381Y-12535476D01*
X13909762Y-12735476D02*
X13909762Y-12602143D01*
X13909762Y-12621190D02*
X13919286Y-12611667D01*
X13938333Y-12602143D01*
X13966905Y-12602143D01*
X13985952Y-12611667D01*
X13995476Y-12630714D01*
X13995476Y-12735476D01*
X13995476Y-12630714D02*
X14005000Y-12611667D01*
X14024048Y-12602143D01*
X14052619Y-12602143D01*
X14071667Y-12611667D01*
X14081190Y-12630714D01*
X14081190Y-12735476D01*
X14176428Y-12735476D02*
X14176428Y-12602143D01*
X14176428Y-12621190D02*
X14185952Y-12611667D01*
X14205000Y-12602143D01*
X14233571Y-12602143D01*
X14252619Y-12611667D01*
X14262143Y-12630714D01*
X14262143Y-12735476D01*
X14262143Y-12630714D02*
X14271667Y-12611667D01*
X14290714Y-12602143D01*
X14319286Y-12602143D01*
X14338333Y-12611667D01*
X14347857Y-12630714D01*
X14347857Y-12735476D01*
X14738333Y-12525952D02*
X14566905Y-12783095D01*
X14995476Y-12535476D02*
X15014524Y-12535476D01*
X15033571Y-12545000D01*
X15043095Y-12554524D01*
X15052619Y-12573571D01*
X15062143Y-12611667D01*
X15062143Y-12659286D01*
X15052619Y-12697381D01*
X15043095Y-12716428D01*
X15033571Y-12725952D01*
X15014524Y-12735476D01*
X14995476Y-12735476D01*
X14976428Y-12725952D01*
X14966905Y-12716428D01*
X14957381Y-12697381D01*
X14947857Y-12659286D01*
X14947857Y-12611667D01*
X14957381Y-12573571D01*
X14966905Y-12554524D01*
X14976428Y-12545000D01*
X14995476Y-12535476D01*
X15147857Y-12716428D02*
X15157381Y-12725952D01*
X15147857Y-12735476D01*
X15138333Y-12725952D01*
X15147857Y-12716428D01*
X15147857Y-12735476D01*
X15281190Y-12535476D02*
X15300238Y-12535476D01*
X15319286Y-12545000D01*
X15328809Y-12554524D01*
X15338333Y-12573571D01*
X15347857Y-12611667D01*
X15347857Y-12659286D01*
X15338333Y-12697381D01*
X15328809Y-12716428D01*
X15319286Y-12725952D01*
X15300238Y-12735476D01*
X15281190Y-12735476D01*
X15262143Y-12725952D01*
X15252619Y-12716428D01*
X15243095Y-12697381D01*
X15233571Y-12659286D01*
X15233571Y-12611667D01*
X15243095Y-12573571D01*
X15252619Y-12554524D01*
X15262143Y-12545000D01*
X15281190Y-12535476D01*
X15538333Y-12735476D02*
X15424048Y-12735476D01*
X15481190Y-12735476D02*
X15481190Y-12535476D01*
X15462143Y-12564048D01*
X15443095Y-12583095D01*
X15424048Y-12592619D01*
X15719286Y-12535476D02*
X15624048Y-12535476D01*
X15614524Y-12630714D01*
X15624048Y-12621190D01*
X15643095Y-12611667D01*
X15690714Y-12611667D01*
X15709762Y-12621190D01*
X15719286Y-12630714D01*
X15728809Y-12649762D01*
X15728809Y-12697381D01*
X15719286Y-12716428D01*
X15709762Y-12725952D01*
X15690714Y-12735476D01*
X15643095Y-12735476D01*
X15624048Y-12725952D01*
X15614524Y-12716428D01*
X15795476Y-12535476D02*
X15928809Y-12535476D01*
X15843095Y-12735476D01*
X15995476Y-12535476D02*
X15995476Y-12573571D01*
X16071667Y-12535476D02*
X16071667Y-12573571D01*
X16366905Y-12811667D02*
X16357381Y-12802143D01*
X16338333Y-12773571D01*
X16328809Y-12754524D01*
X16319286Y-12725952D01*
X16309762Y-12678333D01*
X16309762Y-12640238D01*
X16319286Y-12592619D01*
X16328809Y-12564048D01*
X16338333Y-12545000D01*
X16357381Y-12516428D01*
X16366905Y-12506905D01*
X16538333Y-12535476D02*
X16443095Y-12535476D01*
X16433571Y-12630714D01*
X16443095Y-12621190D01*
X16462143Y-12611667D01*
X16509762Y-12611667D01*
X16528809Y-12621190D01*
X16538333Y-12630714D01*
X16547857Y-12649762D01*
X16547857Y-12697381D01*
X16538333Y-12716428D01*
X16528809Y-12725952D01*
X16509762Y-12735476D01*
X16462143Y-12735476D01*
X16443095Y-12725952D01*
X16433571Y-12716428D01*
X16728809Y-12535476D02*
X16633571Y-12535476D01*
X16624048Y-12630714D01*
X16633571Y-12621190D01*
X16652619Y-12611667D01*
X16700238Y-12611667D01*
X16719286Y-12621190D01*
X16728809Y-12630714D01*
X16738333Y-12649762D01*
X16738333Y-12697381D01*
X16728809Y-12716428D01*
X16719286Y-12725952D01*
X16700238Y-12735476D01*
X16652619Y-12735476D01*
X16633571Y-12725952D01*
X16624048Y-12716428D01*
X16976429Y-12735476D02*
X16976429Y-12535476D01*
X17062143Y-12735476D02*
X17062143Y-12630714D01*
X17052619Y-12611667D01*
X17033571Y-12602143D01*
X17005000Y-12602143D01*
X16985952Y-12611667D01*
X16976429Y-12621190D01*
X17185952Y-12735476D02*
X17166905Y-12725952D01*
X17157381Y-12716428D01*
X17147857Y-12697381D01*
X17147857Y-12640238D01*
X17157381Y-12621190D01*
X17166905Y-12611667D01*
X17185952Y-12602143D01*
X17214524Y-12602143D01*
X17233571Y-12611667D01*
X17243095Y-12621190D01*
X17252619Y-12640238D01*
X17252619Y-12697381D01*
X17243095Y-12716428D01*
X17233571Y-12725952D01*
X17214524Y-12735476D01*
X17185952Y-12735476D01*
X17366905Y-12735476D02*
X17347857Y-12725952D01*
X17338333Y-12706905D01*
X17338333Y-12535476D01*
X17519286Y-12725952D02*
X17500238Y-12735476D01*
X17462143Y-12735476D01*
X17443095Y-12725952D01*
X17433571Y-12706905D01*
X17433571Y-12630714D01*
X17443095Y-12611667D01*
X17462143Y-12602143D01*
X17500238Y-12602143D01*
X17519286Y-12611667D01*
X17528810Y-12630714D01*
X17528810Y-12649762D01*
X17433571Y-12668809D01*
X17605000Y-12725952D02*
X17624048Y-12735476D01*
X17662143Y-12735476D01*
X17681190Y-12725952D01*
X17690714Y-12706905D01*
X17690714Y-12697381D01*
X17681190Y-12678333D01*
X17662143Y-12668809D01*
X17633571Y-12668809D01*
X17614524Y-12659286D01*
X17605000Y-12640238D01*
X17605000Y-12630714D01*
X17614524Y-12611667D01*
X17633571Y-12602143D01*
X17662143Y-12602143D01*
X17681190Y-12611667D01*
X17757381Y-12811667D02*
X17766905Y-12802143D01*
X17785952Y-12773571D01*
X17795476Y-12754524D01*
X17805000Y-12725952D01*
X17814524Y-12678333D01*
X17814524Y-12640238D01*
X17805000Y-12592619D01*
X17795476Y-12564048D01*
X17785952Y-12545000D01*
X17766905Y-12516428D01*
X17757381Y-12506905D01*
D13*
X12795000Y-12909000D02*
G75*
G03*
X12795000Y-12909000I-40000J0D01*
G01*
D11*
X13090714Y-12799476D02*
X13109762Y-12799476D01*
X13128809Y-12809000D01*
X13138333Y-12818524D01*
X13147857Y-12837571D01*
X13157381Y-12875667D01*
X13157381Y-12923286D01*
X13147857Y-12961381D01*
X13138333Y-12980428D01*
X13128809Y-12989952D01*
X13109762Y-12999476D01*
X13090714Y-12999476D01*
X13071667Y-12989952D01*
X13062143Y-12980428D01*
X13052619Y-12961381D01*
X13043095Y-12923286D01*
X13043095Y-12875667D01*
X13052619Y-12837571D01*
X13062143Y-12818524D01*
X13071667Y-12809000D01*
X13090714Y-12799476D01*
X13243095Y-12980428D02*
X13252619Y-12989952D01*
X13243095Y-12999476D01*
X13233571Y-12989952D01*
X13243095Y-12980428D01*
X13243095Y-12999476D01*
X13366905Y-12885190D02*
X13347857Y-12875667D01*
X13338333Y-12866143D01*
X13328809Y-12847095D01*
X13328809Y-12837571D01*
X13338333Y-12818524D01*
X13347857Y-12809000D01*
X13366905Y-12799476D01*
X13405000Y-12799476D01*
X13424048Y-12809000D01*
X13433571Y-12818524D01*
X13443095Y-12837571D01*
X13443095Y-12847095D01*
X13433571Y-12866143D01*
X13424048Y-12875667D01*
X13405000Y-12885190D01*
X13366905Y-12885190D01*
X13347857Y-12894714D01*
X13338333Y-12904238D01*
X13328809Y-12923286D01*
X13328809Y-12961381D01*
X13338333Y-12980428D01*
X13347857Y-12989952D01*
X13366905Y-12999476D01*
X13405000Y-12999476D01*
X13424048Y-12989952D01*
X13433571Y-12980428D01*
X13443095Y-12961381D01*
X13443095Y-12923286D01*
X13433571Y-12904238D01*
X13424048Y-12894714D01*
X13405000Y-12885190D01*
X13566905Y-12799476D02*
X13585952Y-12799476D01*
X13605000Y-12809000D01*
X13614524Y-12818524D01*
X13624048Y-12837571D01*
X13633571Y-12875667D01*
X13633571Y-12923286D01*
X13624048Y-12961381D01*
X13614524Y-12980428D01*
X13605000Y-12989952D01*
X13585952Y-12999476D01*
X13566905Y-12999476D01*
X13547857Y-12989952D01*
X13538333Y-12980428D01*
X13528809Y-12961381D01*
X13519286Y-12923286D01*
X13519286Y-12875667D01*
X13528809Y-12837571D01*
X13538333Y-12818524D01*
X13547857Y-12809000D01*
X13566905Y-12799476D01*
X13757381Y-12799476D02*
X13776428Y-12799476D01*
X13795476Y-12809000D01*
X13805000Y-12818524D01*
X13814524Y-12837571D01*
X13824048Y-12875667D01*
X13824048Y-12923286D01*
X13814524Y-12961381D01*
X13805000Y-12980428D01*
X13795476Y-12989952D01*
X13776428Y-12999476D01*
X13757381Y-12999476D01*
X13738333Y-12989952D01*
X13728809Y-12980428D01*
X13719286Y-12961381D01*
X13709762Y-12923286D01*
X13709762Y-12875667D01*
X13719286Y-12837571D01*
X13728809Y-12818524D01*
X13738333Y-12809000D01*
X13757381Y-12799476D01*
X13909762Y-12999476D02*
X13909762Y-12866143D01*
X13909762Y-12885190D02*
X13919286Y-12875667D01*
X13938333Y-12866143D01*
X13966905Y-12866143D01*
X13985952Y-12875667D01*
X13995476Y-12894714D01*
X13995476Y-12999476D01*
X13995476Y-12894714D02*
X14005000Y-12875667D01*
X14024048Y-12866143D01*
X14052619Y-12866143D01*
X14071667Y-12875667D01*
X14081190Y-12894714D01*
X14081190Y-12999476D01*
X14176428Y-12999476D02*
X14176428Y-12866143D01*
X14176428Y-12885190D02*
X14185952Y-12875667D01*
X14205000Y-12866143D01*
X14233571Y-12866143D01*
X14252619Y-12875667D01*
X14262143Y-12894714D01*
X14262143Y-12999476D01*
X14262143Y-12894714D02*
X14271667Y-12875667D01*
X14290714Y-12866143D01*
X14319286Y-12866143D01*
X14338333Y-12875667D01*
X14347857Y-12894714D01*
X14347857Y-12999476D01*
X14738333Y-12789952D02*
X14566905Y-13047095D01*
X14995476Y-12799476D02*
X15014524Y-12799476D01*
X15033571Y-12809000D01*
X15043095Y-12818524D01*
X15052619Y-12837571D01*
X15062143Y-12875667D01*
X15062143Y-12923286D01*
X15052619Y-12961381D01*
X15043095Y-12980428D01*
X15033571Y-12989952D01*
X15014524Y-12999476D01*
X14995476Y-12999476D01*
X14976428Y-12989952D01*
X14966905Y-12980428D01*
X14957381Y-12961381D01*
X14947857Y-12923286D01*
X14947857Y-12875667D01*
X14957381Y-12837571D01*
X14966905Y-12818524D01*
X14976428Y-12809000D01*
X14995476Y-12799476D01*
X15147857Y-12980428D02*
X15157381Y-12989952D01*
X15147857Y-12999476D01*
X15138333Y-12989952D01*
X15147857Y-12980428D01*
X15147857Y-12999476D01*
X15281190Y-12799476D02*
X15300238Y-12799476D01*
X15319286Y-12809000D01*
X15328809Y-12818524D01*
X15338333Y-12837571D01*
X15347857Y-12875667D01*
X15347857Y-12923286D01*
X15338333Y-12961381D01*
X15328809Y-12980428D01*
X15319286Y-12989952D01*
X15300238Y-12999476D01*
X15281190Y-12999476D01*
X15262143Y-12989952D01*
X15252619Y-12980428D01*
X15243095Y-12961381D01*
X15233571Y-12923286D01*
X15233571Y-12875667D01*
X15243095Y-12837571D01*
X15252619Y-12818524D01*
X15262143Y-12809000D01*
X15281190Y-12799476D01*
X15414524Y-12799476D02*
X15538333Y-12799476D01*
X15471667Y-12875667D01*
X15500238Y-12875667D01*
X15519286Y-12885190D01*
X15528809Y-12894714D01*
X15538333Y-12913762D01*
X15538333Y-12961381D01*
X15528809Y-12980428D01*
X15519286Y-12989952D01*
X15500238Y-12999476D01*
X15443095Y-12999476D01*
X15424048Y-12989952D01*
X15414524Y-12980428D01*
X15728809Y-12999476D02*
X15614524Y-12999476D01*
X15671667Y-12999476D02*
X15671667Y-12799476D01*
X15652619Y-12828048D01*
X15633571Y-12847095D01*
X15614524Y-12856619D01*
X15909762Y-12799476D02*
X15814524Y-12799476D01*
X15805000Y-12894714D01*
X15814524Y-12885190D01*
X15833571Y-12875667D01*
X15881190Y-12875667D01*
X15900238Y-12885190D01*
X15909762Y-12894714D01*
X15919286Y-12913762D01*
X15919286Y-12961381D01*
X15909762Y-12980428D01*
X15900238Y-12989952D01*
X15881190Y-12999476D01*
X15833571Y-12999476D01*
X15814524Y-12989952D01*
X15805000Y-12980428D01*
X15995476Y-12799476D02*
X15995476Y-12837571D01*
X16071667Y-12799476D02*
X16071667Y-12837571D01*
X16366905Y-13075667D02*
X16357381Y-13066143D01*
X16338333Y-13037571D01*
X16328809Y-13018524D01*
X16319286Y-12989952D01*
X16309762Y-12942333D01*
X16309762Y-12904238D01*
X16319286Y-12856619D01*
X16328809Y-12828048D01*
X16338333Y-12809000D01*
X16357381Y-12780428D01*
X16366905Y-12770905D01*
X16547857Y-12999476D02*
X16433571Y-12999476D01*
X16490714Y-12999476D02*
X16490714Y-12799476D01*
X16471667Y-12828048D01*
X16452619Y-12847095D01*
X16433571Y-12856619D01*
X16728809Y-12799476D02*
X16633571Y-12799476D01*
X16624048Y-12894714D01*
X16633571Y-12885190D01*
X16652619Y-12875667D01*
X16700238Y-12875667D01*
X16719286Y-12885190D01*
X16728809Y-12894714D01*
X16738333Y-12913762D01*
X16738333Y-12961381D01*
X16728809Y-12980428D01*
X16719286Y-12989952D01*
X16700238Y-12999476D01*
X16652619Y-12999476D01*
X16633571Y-12989952D01*
X16624048Y-12980428D01*
X16976429Y-12999476D02*
X16976429Y-12799476D01*
X17062143Y-12999476D02*
X17062143Y-12894714D01*
X17052619Y-12875667D01*
X17033571Y-12866143D01*
X17005000Y-12866143D01*
X16985952Y-12875667D01*
X16976429Y-12885190D01*
X17185952Y-12999476D02*
X17166905Y-12989952D01*
X17157381Y-12980428D01*
X17147857Y-12961381D01*
X17147857Y-12904238D01*
X17157381Y-12885190D01*
X17166905Y-12875667D01*
X17185952Y-12866143D01*
X17214524Y-12866143D01*
X17233571Y-12875667D01*
X17243095Y-12885190D01*
X17252619Y-12904238D01*
X17252619Y-12961381D01*
X17243095Y-12980428D01*
X17233571Y-12989952D01*
X17214524Y-12999476D01*
X17185952Y-12999476D01*
X17366905Y-12999476D02*
X17347857Y-12989952D01*
X17338333Y-12970905D01*
X17338333Y-12799476D01*
X17519286Y-12989952D02*
X17500238Y-12999476D01*
X17462143Y-12999476D01*
X17443095Y-12989952D01*
X17433571Y-12970905D01*
X17433571Y-12894714D01*
X17443095Y-12875667D01*
X17462143Y-12866143D01*
X17500238Y-12866143D01*
X17519286Y-12875667D01*
X17528810Y-12894714D01*
X17528810Y-12913762D01*
X17433571Y-12932809D01*
X17605000Y-12989952D02*
X17624048Y-12999476D01*
X17662143Y-12999476D01*
X17681190Y-12989952D01*
X17690714Y-12970905D01*
X17690714Y-12961381D01*
X17681190Y-12942333D01*
X17662143Y-12932809D01*
X17633571Y-12932809D01*
X17614524Y-12923286D01*
X17605000Y-12904238D01*
X17605000Y-12894714D01*
X17614524Y-12875667D01*
X17633571Y-12866143D01*
X17662143Y-12866143D01*
X17681190Y-12875667D01*
X17757381Y-13075667D02*
X17766905Y-13066143D01*
X17785952Y-13037571D01*
X17795476Y-13018524D01*
X17805000Y-12989952D01*
X17814524Y-12942333D01*
X17814524Y-12904238D01*
X17805000Y-12856619D01*
X17795476Y-12828048D01*
X17785952Y-12809000D01*
X17766905Y-12780428D01*
X17757381Y-12770905D01*
D10*
X12745000Y-13123000D02*
X12745000Y-13223000D01*
X12695000Y-13173000D02*
X12795000Y-13173000D01*
D11*
X13157381Y-13263476D02*
X13043095Y-13263476D01*
X13100238Y-13263476D02*
X13100238Y-13063476D01*
X13081190Y-13092048D01*
X13062143Y-13111095D01*
X13043095Y-13120619D01*
X13243095Y-13244428D02*
X13252619Y-13253952D01*
X13243095Y-13263476D01*
X13233571Y-13253952D01*
X13243095Y-13244428D01*
X13243095Y-13263476D01*
X13376428Y-13063476D02*
X13395476Y-13063476D01*
X13414524Y-13073000D01*
X13424048Y-13082524D01*
X13433571Y-13101571D01*
X13443095Y-13139667D01*
X13443095Y-13187286D01*
X13433571Y-13225381D01*
X13424048Y-13244428D01*
X13414524Y-13253952D01*
X13395476Y-13263476D01*
X13376428Y-13263476D01*
X13357381Y-13253952D01*
X13347857Y-13244428D01*
X13338333Y-13225381D01*
X13328809Y-13187286D01*
X13328809Y-13139667D01*
X13338333Y-13101571D01*
X13347857Y-13082524D01*
X13357381Y-13073000D01*
X13376428Y-13063476D01*
X13566905Y-13063476D02*
X13585952Y-13063476D01*
X13605000Y-13073000D01*
X13614524Y-13082524D01*
X13624048Y-13101571D01*
X13633571Y-13139667D01*
X13633571Y-13187286D01*
X13624048Y-13225381D01*
X13614524Y-13244428D01*
X13605000Y-13253952D01*
X13585952Y-13263476D01*
X13566905Y-13263476D01*
X13547857Y-13253952D01*
X13538333Y-13244428D01*
X13528809Y-13225381D01*
X13519286Y-13187286D01*
X13519286Y-13139667D01*
X13528809Y-13101571D01*
X13538333Y-13082524D01*
X13547857Y-13073000D01*
X13566905Y-13063476D01*
X13757381Y-13063476D02*
X13776428Y-13063476D01*
X13795476Y-13073000D01*
X13805000Y-13082524D01*
X13814524Y-13101571D01*
X13824048Y-13139667D01*
X13824048Y-13187286D01*
X13814524Y-13225381D01*
X13805000Y-13244428D01*
X13795476Y-13253952D01*
X13776428Y-13263476D01*
X13757381Y-13263476D01*
X13738333Y-13253952D01*
X13728809Y-13244428D01*
X13719286Y-13225381D01*
X13709762Y-13187286D01*
X13709762Y-13139667D01*
X13719286Y-13101571D01*
X13728809Y-13082524D01*
X13738333Y-13073000D01*
X13757381Y-13063476D01*
X13909762Y-13263476D02*
X13909762Y-13130143D01*
X13909762Y-13149190D02*
X13919286Y-13139667D01*
X13938333Y-13130143D01*
X13966905Y-13130143D01*
X13985952Y-13139667D01*
X13995476Y-13158714D01*
X13995476Y-13263476D01*
X13995476Y-13158714D02*
X14005000Y-13139667D01*
X14024048Y-13130143D01*
X14052619Y-13130143D01*
X14071667Y-13139667D01*
X14081190Y-13158714D01*
X14081190Y-13263476D01*
X14176428Y-13263476D02*
X14176428Y-13130143D01*
X14176428Y-13149190D02*
X14185952Y-13139667D01*
X14205000Y-13130143D01*
X14233571Y-13130143D01*
X14252619Y-13139667D01*
X14262143Y-13158714D01*
X14262143Y-13263476D01*
X14262143Y-13158714D02*
X14271667Y-13139667D01*
X14290714Y-13130143D01*
X14319286Y-13130143D01*
X14338333Y-13139667D01*
X14347857Y-13158714D01*
X14347857Y-13263476D01*
X14738333Y-13053952D02*
X14566905Y-13311095D01*
X14995476Y-13063476D02*
X15014524Y-13063476D01*
X15033571Y-13073000D01*
X15043095Y-13082524D01*
X15052619Y-13101571D01*
X15062143Y-13139667D01*
X15062143Y-13187286D01*
X15052619Y-13225381D01*
X15043095Y-13244428D01*
X15033571Y-13253952D01*
X15014524Y-13263476D01*
X14995476Y-13263476D01*
X14976428Y-13253952D01*
X14966905Y-13244428D01*
X14957381Y-13225381D01*
X14947857Y-13187286D01*
X14947857Y-13139667D01*
X14957381Y-13101571D01*
X14966905Y-13082524D01*
X14976428Y-13073000D01*
X14995476Y-13063476D01*
X15147857Y-13244428D02*
X15157381Y-13253952D01*
X15147857Y-13263476D01*
X15138333Y-13253952D01*
X15147857Y-13244428D01*
X15147857Y-13263476D01*
X15281190Y-13063476D02*
X15300238Y-13063476D01*
X15319286Y-13073000D01*
X15328809Y-13082524D01*
X15338333Y-13101571D01*
X15347857Y-13139667D01*
X15347857Y-13187286D01*
X15338333Y-13225381D01*
X15328809Y-13244428D01*
X15319286Y-13253952D01*
X15300238Y-13263476D01*
X15281190Y-13263476D01*
X15262143Y-13253952D01*
X15252619Y-13244428D01*
X15243095Y-13225381D01*
X15233571Y-13187286D01*
X15233571Y-13139667D01*
X15243095Y-13101571D01*
X15252619Y-13082524D01*
X15262143Y-13073000D01*
X15281190Y-13063476D01*
X15414524Y-13063476D02*
X15538333Y-13063476D01*
X15471667Y-13139667D01*
X15500238Y-13139667D01*
X15519286Y-13149190D01*
X15528809Y-13158714D01*
X15538333Y-13177762D01*
X15538333Y-13225381D01*
X15528809Y-13244428D01*
X15519286Y-13253952D01*
X15500238Y-13263476D01*
X15443095Y-13263476D01*
X15424048Y-13253952D01*
X15414524Y-13244428D01*
X15633571Y-13263476D02*
X15671667Y-13263476D01*
X15690714Y-13253952D01*
X15700238Y-13244428D01*
X15719286Y-13215857D01*
X15728809Y-13177762D01*
X15728809Y-13101571D01*
X15719286Y-13082524D01*
X15709762Y-13073000D01*
X15690714Y-13063476D01*
X15652619Y-13063476D01*
X15633571Y-13073000D01*
X15624048Y-13082524D01*
X15614524Y-13101571D01*
X15614524Y-13149190D01*
X15624048Y-13168238D01*
X15633571Y-13177762D01*
X15652619Y-13187286D01*
X15690714Y-13187286D01*
X15709762Y-13177762D01*
X15719286Y-13168238D01*
X15728809Y-13149190D01*
X15900238Y-13130143D02*
X15900238Y-13263476D01*
X15852619Y-13053952D02*
X15805000Y-13196809D01*
X15928809Y-13196809D01*
X15995476Y-13063476D02*
X15995476Y-13101571D01*
X16071667Y-13063476D02*
X16071667Y-13101571D01*
X16366905Y-13339667D02*
X16357381Y-13330143D01*
X16338333Y-13301571D01*
X16328809Y-13282524D01*
X16319286Y-13253952D01*
X16309762Y-13206333D01*
X16309762Y-13168238D01*
X16319286Y-13120619D01*
X16328809Y-13092048D01*
X16338333Y-13073000D01*
X16357381Y-13044428D01*
X16366905Y-13034905D01*
X16433571Y-13082524D02*
X16443095Y-13073000D01*
X16462143Y-13063476D01*
X16509762Y-13063476D01*
X16528809Y-13073000D01*
X16538333Y-13082524D01*
X16547857Y-13101571D01*
X16547857Y-13120619D01*
X16538333Y-13149190D01*
X16424048Y-13263476D01*
X16547857Y-13263476D01*
X16719286Y-13063476D02*
X16681190Y-13063476D01*
X16662143Y-13073000D01*
X16652619Y-13082524D01*
X16633571Y-13111095D01*
X16624048Y-13149190D01*
X16624048Y-13225381D01*
X16633571Y-13244428D01*
X16643095Y-13253952D01*
X16662143Y-13263476D01*
X16700238Y-13263476D01*
X16719286Y-13253952D01*
X16728809Y-13244428D01*
X16738333Y-13225381D01*
X16738333Y-13177762D01*
X16728809Y-13158714D01*
X16719286Y-13149190D01*
X16700238Y-13139667D01*
X16662143Y-13139667D01*
X16643095Y-13149190D01*
X16633571Y-13158714D01*
X16624048Y-13177762D01*
X16976429Y-13263476D02*
X16976429Y-13063476D01*
X17062143Y-13263476D02*
X17062143Y-13158714D01*
X17052619Y-13139667D01*
X17033571Y-13130143D01*
X17005000Y-13130143D01*
X16985952Y-13139667D01*
X16976429Y-13149190D01*
X17185952Y-13263476D02*
X17166905Y-13253952D01*
X17157381Y-13244428D01*
X17147857Y-13225381D01*
X17147857Y-13168238D01*
X17157381Y-13149190D01*
X17166905Y-13139667D01*
X17185952Y-13130143D01*
X17214524Y-13130143D01*
X17233571Y-13139667D01*
X17243095Y-13149190D01*
X17252619Y-13168238D01*
X17252619Y-13225381D01*
X17243095Y-13244428D01*
X17233571Y-13253952D01*
X17214524Y-13263476D01*
X17185952Y-13263476D01*
X17366905Y-13263476D02*
X17347857Y-13253952D01*
X17338333Y-13234905D01*
X17338333Y-13063476D01*
X17519286Y-13253952D02*
X17500238Y-13263476D01*
X17462143Y-13263476D01*
X17443095Y-13253952D01*
X17433571Y-13234905D01*
X17433571Y-13158714D01*
X17443095Y-13139667D01*
X17462143Y-13130143D01*
X17500238Y-13130143D01*
X17519286Y-13139667D01*
X17528810Y-13158714D01*
X17528810Y-13177762D01*
X17433571Y-13196809D01*
X17605000Y-13253952D02*
X17624048Y-13263476D01*
X17662143Y-13263476D01*
X17681190Y-13253952D01*
X17690714Y-13234905D01*
X17690714Y-13225381D01*
X17681190Y-13206333D01*
X17662143Y-13196809D01*
X17633571Y-13196809D01*
X17614524Y-13187286D01*
X17605000Y-13168238D01*
X17605000Y-13158714D01*
X17614524Y-13139667D01*
X17633571Y-13130143D01*
X17662143Y-13130143D01*
X17681190Y-13139667D01*
X17757381Y-13339667D02*
X17766905Y-13330143D01*
X17785952Y-13301571D01*
X17795476Y-13282524D01*
X17805000Y-13253952D01*
X17814524Y-13206333D01*
X17814524Y-13168238D01*
X17805000Y-13120619D01*
X17795476Y-13092048D01*
X17785952Y-13073000D01*
X17766905Y-13044428D01*
X17757381Y-13034905D01*
D14*
X12774498Y-13486498D02*
X12774498Y-13387502D01*
X12675502Y-13387502D01*
X12675502Y-13486498D01*
X12774498Y-13486498D01*
D11*
X13157381Y-13527476D02*
X13043095Y-13527476D01*
X13100238Y-13527476D02*
X13100238Y-13327476D01*
X13081190Y-13356048D01*
X13062143Y-13375095D01*
X13043095Y-13384619D01*
X13243095Y-13508428D02*
X13252619Y-13517952D01*
X13243095Y-13527476D01*
X13233571Y-13517952D01*
X13243095Y-13508428D01*
X13243095Y-13527476D01*
X13424048Y-13394143D02*
X13424048Y-13527476D01*
X13376428Y-13317952D02*
X13328809Y-13460809D01*
X13452619Y-13460809D01*
X13566905Y-13327476D02*
X13585952Y-13327476D01*
X13605000Y-13337000D01*
X13614524Y-13346524D01*
X13624048Y-13365571D01*
X13633571Y-13403667D01*
X13633571Y-13451286D01*
X13624048Y-13489381D01*
X13614524Y-13508428D01*
X13605000Y-13517952D01*
X13585952Y-13527476D01*
X13566905Y-13527476D01*
X13547857Y-13517952D01*
X13538333Y-13508428D01*
X13528809Y-13489381D01*
X13519286Y-13451286D01*
X13519286Y-13403667D01*
X13528809Y-13365571D01*
X13538333Y-13346524D01*
X13547857Y-13337000D01*
X13566905Y-13327476D01*
X13757381Y-13327476D02*
X13776428Y-13327476D01*
X13795476Y-13337000D01*
X13805000Y-13346524D01*
X13814524Y-13365571D01*
X13824048Y-13403667D01*
X13824048Y-13451286D01*
X13814524Y-13489381D01*
X13805000Y-13508428D01*
X13795476Y-13517952D01*
X13776428Y-13527476D01*
X13757381Y-13527476D01*
X13738333Y-13517952D01*
X13728809Y-13508428D01*
X13719286Y-13489381D01*
X13709762Y-13451286D01*
X13709762Y-13403667D01*
X13719286Y-13365571D01*
X13728809Y-13346524D01*
X13738333Y-13337000D01*
X13757381Y-13327476D01*
X13909762Y-13527476D02*
X13909762Y-13394143D01*
X13909762Y-13413190D02*
X13919286Y-13403667D01*
X13938333Y-13394143D01*
X13966905Y-13394143D01*
X13985952Y-13403667D01*
X13995476Y-13422714D01*
X13995476Y-13527476D01*
X13995476Y-13422714D02*
X14005000Y-13403667D01*
X14024048Y-13394143D01*
X14052619Y-13394143D01*
X14071667Y-13403667D01*
X14081190Y-13422714D01*
X14081190Y-13527476D01*
X14176428Y-13527476D02*
X14176428Y-13394143D01*
X14176428Y-13413190D02*
X14185952Y-13403667D01*
X14205000Y-13394143D01*
X14233571Y-13394143D01*
X14252619Y-13403667D01*
X14262143Y-13422714D01*
X14262143Y-13527476D01*
X14262143Y-13422714D02*
X14271667Y-13403667D01*
X14290714Y-13394143D01*
X14319286Y-13394143D01*
X14338333Y-13403667D01*
X14347857Y-13422714D01*
X14347857Y-13527476D01*
X14738333Y-13317952D02*
X14566905Y-13575095D01*
X14995476Y-13327476D02*
X15014524Y-13327476D01*
X15033571Y-13337000D01*
X15043095Y-13346524D01*
X15052619Y-13365571D01*
X15062143Y-13403667D01*
X15062143Y-13451286D01*
X15052619Y-13489381D01*
X15043095Y-13508428D01*
X15033571Y-13517952D01*
X15014524Y-13527476D01*
X14995476Y-13527476D01*
X14976428Y-13517952D01*
X14966905Y-13508428D01*
X14957381Y-13489381D01*
X14947857Y-13451286D01*
X14947857Y-13403667D01*
X14957381Y-13365571D01*
X14966905Y-13346524D01*
X14976428Y-13337000D01*
X14995476Y-13327476D01*
X15147857Y-13508428D02*
X15157381Y-13517952D01*
X15147857Y-13527476D01*
X15138333Y-13517952D01*
X15147857Y-13508428D01*
X15147857Y-13527476D01*
X15281190Y-13327476D02*
X15300238Y-13327476D01*
X15319286Y-13337000D01*
X15328809Y-13346524D01*
X15338333Y-13365571D01*
X15347857Y-13403667D01*
X15347857Y-13451286D01*
X15338333Y-13489381D01*
X15328809Y-13508428D01*
X15319286Y-13517952D01*
X15300238Y-13527476D01*
X15281190Y-13527476D01*
X15262143Y-13517952D01*
X15252619Y-13508428D01*
X15243095Y-13489381D01*
X15233571Y-13451286D01*
X15233571Y-13403667D01*
X15243095Y-13365571D01*
X15252619Y-13346524D01*
X15262143Y-13337000D01*
X15281190Y-13327476D01*
X15528809Y-13327476D02*
X15433571Y-13327476D01*
X15424048Y-13422714D01*
X15433571Y-13413190D01*
X15452619Y-13403667D01*
X15500238Y-13403667D01*
X15519286Y-13413190D01*
X15528809Y-13422714D01*
X15538333Y-13441762D01*
X15538333Y-13489381D01*
X15528809Y-13508428D01*
X15519286Y-13517952D01*
X15500238Y-13527476D01*
X15452619Y-13527476D01*
X15433571Y-13517952D01*
X15424048Y-13508428D01*
X15719286Y-13327476D02*
X15624048Y-13327476D01*
X15614524Y-13422714D01*
X15624048Y-13413190D01*
X15643095Y-13403667D01*
X15690714Y-13403667D01*
X15709762Y-13413190D01*
X15719286Y-13422714D01*
X15728809Y-13441762D01*
X15728809Y-13489381D01*
X15719286Y-13508428D01*
X15709762Y-13517952D01*
X15690714Y-13527476D01*
X15643095Y-13527476D01*
X15624048Y-13517952D01*
X15614524Y-13508428D01*
X15919286Y-13527476D02*
X15805000Y-13527476D01*
X15862143Y-13527476D02*
X15862143Y-13327476D01*
X15843095Y-13356048D01*
X15824048Y-13375095D01*
X15805000Y-13384619D01*
X15995476Y-13327476D02*
X15995476Y-13365571D01*
X16071667Y-13327476D02*
X16071667Y-13365571D01*
X16366905Y-13603667D02*
X16357381Y-13594143D01*
X16338333Y-13565571D01*
X16328809Y-13546524D01*
X16319286Y-13517952D01*
X16309762Y-13470333D01*
X16309762Y-13432238D01*
X16319286Y-13384619D01*
X16328809Y-13356048D01*
X16338333Y-13337000D01*
X16357381Y-13308428D01*
X16366905Y-13298905D01*
X16433571Y-13346524D02*
X16443095Y-13337000D01*
X16462143Y-13327476D01*
X16509762Y-13327476D01*
X16528809Y-13337000D01*
X16538333Y-13346524D01*
X16547857Y-13365571D01*
X16547857Y-13384619D01*
X16538333Y-13413190D01*
X16424048Y-13527476D01*
X16547857Y-13527476D01*
X16671667Y-13327476D02*
X16690714Y-13327476D01*
X16709762Y-13337000D01*
X16719286Y-13346524D01*
X16728809Y-13365571D01*
X16738333Y-13403667D01*
X16738333Y-13451286D01*
X16728809Y-13489381D01*
X16719286Y-13508428D01*
X16709762Y-13517952D01*
X16690714Y-13527476D01*
X16671667Y-13527476D01*
X16652619Y-13517952D01*
X16643095Y-13508428D01*
X16633571Y-13489381D01*
X16624048Y-13451286D01*
X16624048Y-13403667D01*
X16633571Y-13365571D01*
X16643095Y-13346524D01*
X16652619Y-13337000D01*
X16671667Y-13327476D01*
X16976429Y-13527476D02*
X16976429Y-13327476D01*
X17062143Y-13527476D02*
X17062143Y-13422714D01*
X17052619Y-13403667D01*
X17033571Y-13394143D01*
X17005000Y-13394143D01*
X16985952Y-13403667D01*
X16976429Y-13413190D01*
X17185952Y-13527476D02*
X17166905Y-13517952D01*
X17157381Y-13508428D01*
X17147857Y-13489381D01*
X17147857Y-13432238D01*
X17157381Y-13413190D01*
X17166905Y-13403667D01*
X17185952Y-13394143D01*
X17214524Y-13394143D01*
X17233571Y-13403667D01*
X17243095Y-13413190D01*
X17252619Y-13432238D01*
X17252619Y-13489381D01*
X17243095Y-13508428D01*
X17233571Y-13517952D01*
X17214524Y-13527476D01*
X17185952Y-13527476D01*
X17366905Y-13527476D02*
X17347857Y-13517952D01*
X17338333Y-13498905D01*
X17338333Y-13327476D01*
X17519286Y-13517952D02*
X17500238Y-13527476D01*
X17462143Y-13527476D01*
X17443095Y-13517952D01*
X17433571Y-13498905D01*
X17433571Y-13422714D01*
X17443095Y-13403667D01*
X17462143Y-13394143D01*
X17500238Y-13394143D01*
X17519286Y-13403667D01*
X17528810Y-13422714D01*
X17528810Y-13441762D01*
X17433571Y-13460809D01*
X17605000Y-13517952D02*
X17624048Y-13527476D01*
X17662143Y-13527476D01*
X17681190Y-13517952D01*
X17690714Y-13498905D01*
X17690714Y-13489381D01*
X17681190Y-13470333D01*
X17662143Y-13460809D01*
X17633571Y-13460809D01*
X17614524Y-13451286D01*
X17605000Y-13432238D01*
X17605000Y-13422714D01*
X17614524Y-13403667D01*
X17633571Y-13394143D01*
X17662143Y-13394143D01*
X17681190Y-13403667D01*
X17757381Y-13603667D02*
X17766905Y-13594143D01*
X17785952Y-13565571D01*
X17795476Y-13546524D01*
X17805000Y-13517952D01*
X17814524Y-13470333D01*
X17814524Y-13432238D01*
X17805000Y-13384619D01*
X17795476Y-13356048D01*
X17785952Y-13337000D01*
X17766905Y-13308428D01*
X17757381Y-13298905D01*
M02*
