%TF.GenerationSoftware,KiCad,Pcbnew,6.0.8+dfsg-1~bpo11+1*%
%TF.CreationDate,2022-10-31T17:33:22+01:00*%
%TF.ProjectId,rib4inAd_00,72696234-696e-4416-945f-30302e6b6963,rev?*%
%TF.SameCoordinates,Original*%
%TF.FileFunction,Paste,Top*%
%TF.FilePolarity,Positive*%
%FSLAX46Y46*%
G04 Gerber Fmt 4.6, Leading zero omitted, Abs format (unit mm)*
G04 Created by KiCad (PCBNEW 6.0.8+dfsg-1~bpo11+1) date 2022-10-31 17:33:22*
%MOMM*%
%LPD*%
G01*
G04 APERTURE LIST*
G04 Aperture macros list*
%AMRoundRect*
0 Rectangle with rounded corners*
0 $1 Rounding radius*
0 $2 $3 $4 $5 $6 $7 $8 $9 X,Y pos of 4 corners*
0 Add a 4 corners polygon primitive as box body*
4,1,4,$2,$3,$4,$5,$6,$7,$8,$9,$2,$3,0*
0 Add four circle primitives for the rounded corners*
1,1,$1+$1,$2,$3*
1,1,$1+$1,$4,$5*
1,1,$1+$1,$6,$7*
1,1,$1+$1,$8,$9*
0 Add four rect primitives between the rounded corners*
20,1,$1+$1,$2,$3,$4,$5,0*
20,1,$1+$1,$4,$5,$6,$7,0*
20,1,$1+$1,$6,$7,$8,$9,0*
20,1,$1+$1,$8,$9,$2,$3,0*%
G04 Aperture macros list end*
%ADD10RoundRect,0.250000X-0.350000X-0.450000X0.350000X-0.450000X0.350000X0.450000X-0.350000X0.450000X0*%
%ADD11RoundRect,0.150000X0.587500X0.150000X-0.587500X0.150000X-0.587500X-0.150000X0.587500X-0.150000X0*%
%ADD12RoundRect,0.250000X0.475000X-0.337500X0.475000X0.337500X-0.475000X0.337500X-0.475000X-0.337500X0*%
%ADD13RoundRect,0.250000X0.350000X0.450000X-0.350000X0.450000X-0.350000X-0.450000X0.350000X-0.450000X0*%
%ADD14RoundRect,0.250000X-0.450000X0.350000X-0.450000X-0.350000X0.450000X-0.350000X0.450000X0.350000X0*%
%ADD15R,3.500000X2.300000*%
%ADD16RoundRect,0.150000X-0.150000X0.825000X-0.150000X-0.825000X0.150000X-0.825000X0.150000X0.825000X0*%
%ADD17RoundRect,0.150000X-0.587500X-0.150000X0.587500X-0.150000X0.587500X0.150000X-0.587500X0.150000X0*%
%ADD18R,1.100000X0.250000*%
%ADD19RoundRect,0.250000X-0.337500X-0.475000X0.337500X-0.475000X0.337500X0.475000X-0.337500X0.475000X0*%
G04 APERTURE END LIST*
D10*
%TO.C,R22*%
X138380000Y-107820000D03*
X140380000Y-107820000D03*
%TD*%
%TO.C,R17*%
X130550000Y-109870000D03*
X132550000Y-109870000D03*
%TD*%
D11*
%TO.C,D4*%
X153467500Y-90090000D03*
X153467500Y-88190000D03*
X151592500Y-89140000D03*
%TD*%
D12*
%TO.C,C6*%
X152770000Y-105435000D03*
X152770000Y-103360000D03*
%TD*%
D10*
%TO.C,R1*%
X135670000Y-89190000D03*
X137670000Y-89190000D03*
%TD*%
%TO.C,R44*%
X165510000Y-109840000D03*
X167510000Y-109840000D03*
%TD*%
D12*
%TO.C,C4*%
X141300000Y-105430000D03*
X141300000Y-103355000D03*
%TD*%
D10*
%TO.C,R6*%
X146580000Y-89120000D03*
X148580000Y-89120000D03*
%TD*%
D11*
%TO.C,D2*%
X142557500Y-90140000D03*
X142557500Y-88240000D03*
X140682500Y-89190000D03*
%TD*%
D13*
%TO.C,R16*%
X140380000Y-109810000D03*
X138380000Y-109810000D03*
%TD*%
D10*
%TO.C,R10*%
X153010000Y-91950000D03*
X155010000Y-91950000D03*
%TD*%
D13*
%TO.C,R5*%
X145280000Y-97540000D03*
X143280000Y-97540000D03*
%TD*%
D10*
%TO.C,R29*%
X160250000Y-97550000D03*
X162250000Y-97550000D03*
%TD*%
D13*
%TO.C,R12*%
X137920000Y-117960000D03*
X135920000Y-117960000D03*
%TD*%
D14*
%TO.C,R49*%
X159750000Y-107730000D03*
X159750000Y-109730000D03*
%TD*%
D10*
%TO.C,R19*%
X142230000Y-109810000D03*
X144230000Y-109810000D03*
%TD*%
D12*
%TO.C,C3*%
X141280000Y-101545000D03*
X141280000Y-99470000D03*
%TD*%
D10*
%TO.C,R24*%
X168360000Y-89080000D03*
X170360000Y-89080000D03*
%TD*%
D13*
%TO.C,R46*%
X167500000Y-107820000D03*
X165500000Y-107820000D03*
%TD*%
%TO.C,R31*%
X156760000Y-97550000D03*
X154760000Y-97550000D03*
%TD*%
D15*
%TO.C,D7*%
X174080000Y-85080000D03*
X168680000Y-85080000D03*
%TD*%
D12*
%TO.C,C7*%
X164230000Y-101565000D03*
X164230000Y-99490000D03*
%TD*%
D13*
%TO.C,R45*%
X155900000Y-107830000D03*
X153900000Y-107830000D03*
%TD*%
D14*
%TO.C,R50*%
X157780000Y-107730000D03*
X157780000Y-109730000D03*
%TD*%
D10*
%TO.C,R42*%
X153920000Y-109810000D03*
X155920000Y-109810000D03*
%TD*%
D13*
%TO.C,R9*%
X142470000Y-118000000D03*
X140470000Y-118000000D03*
%TD*%
D12*
%TO.C,C1*%
X129640000Y-101570000D03*
X129640000Y-99495000D03*
%TD*%
D10*
%TO.C,R30*%
X171600000Y-97540000D03*
X173600000Y-97540000D03*
%TD*%
D13*
%TO.C,R20*%
X132540000Y-107810000D03*
X130540000Y-107810000D03*
%TD*%
D10*
%TO.C,R43*%
X173240000Y-109860000D03*
X175240000Y-109860000D03*
%TD*%
D16*
%TO.C,U1*%
X139380000Y-99935000D03*
X138110000Y-99935000D03*
X136840000Y-99935000D03*
X135570000Y-99935000D03*
X134300000Y-99935000D03*
X133030000Y-99935000D03*
X131760000Y-99935000D03*
X131760000Y-104885000D03*
X133030000Y-104885000D03*
X134300000Y-104885000D03*
X135570000Y-104885000D03*
X136840000Y-104885000D03*
X138110000Y-104885000D03*
X139380000Y-104885000D03*
%TD*%
D13*
%TO.C,R14*%
X132560000Y-111880000D03*
X130560000Y-111880000D03*
%TD*%
D15*
%TO.C,D1*%
X141570000Y-85060000D03*
X136170000Y-85060000D03*
%TD*%
D12*
%TO.C,C8*%
X164250000Y-105430000D03*
X164250000Y-103355000D03*
%TD*%
D16*
%TO.C,U6*%
X173720000Y-99925000D03*
X172450000Y-99925000D03*
X171180000Y-99925000D03*
X169910000Y-99925000D03*
X168640000Y-99925000D03*
X167370000Y-99925000D03*
X166100000Y-99925000D03*
X166100000Y-104875000D03*
X167370000Y-104875000D03*
X168640000Y-104875000D03*
X169910000Y-104875000D03*
X171180000Y-104875000D03*
X172450000Y-104875000D03*
X173720000Y-104875000D03*
%TD*%
D10*
%TO.C,R48*%
X173260000Y-107880000D03*
X175260000Y-107880000D03*
%TD*%
%TO.C,R3*%
X148740000Y-97560000D03*
X150740000Y-97560000D03*
%TD*%
D13*
%TO.C,R32*%
X168170000Y-97550000D03*
X166170000Y-97550000D03*
%TD*%
D15*
%TO.C,D5*%
X163220000Y-85070000D03*
X157820000Y-85070000D03*
%TD*%
D14*
%TO.C,R51*%
X171370000Y-107760000D03*
X171370000Y-109760000D03*
%TD*%
D16*
%TO.C,U2*%
X150840000Y-99895000D03*
X149570000Y-99895000D03*
X148300000Y-99895000D03*
X147030000Y-99895000D03*
X145760000Y-99895000D03*
X144490000Y-99895000D03*
X143220000Y-99895000D03*
X143220000Y-104845000D03*
X144490000Y-104845000D03*
X145760000Y-104845000D03*
X147030000Y-104845000D03*
X148300000Y-104845000D03*
X149570000Y-104845000D03*
X150840000Y-104845000D03*
%TD*%
D14*
%TO.C,R27*%
X148170000Y-107720000D03*
X148170000Y-109720000D03*
%TD*%
D13*
%TO.C,R4*%
X133940000Y-97560000D03*
X131940000Y-97560000D03*
%TD*%
%TO.C,R41*%
X163630000Y-109820000D03*
X161630000Y-109820000D03*
%TD*%
%TO.C,R18*%
X152060000Y-109800000D03*
X150060000Y-109800000D03*
%TD*%
D10*
%TO.C,R2*%
X137240000Y-97580000D03*
X139240000Y-97580000D03*
%TD*%
D14*
%TO.C,R28*%
X146180000Y-107720000D03*
X146180000Y-109720000D03*
%TD*%
D17*
%TO.C,U4*%
X153092500Y-93810000D03*
X153092500Y-95710000D03*
X154967500Y-94760000D03*
%TD*%
D11*
%TO.C,D6*%
X164255000Y-90130000D03*
X164255000Y-88230000D03*
X162380000Y-89180000D03*
%TD*%
D14*
%TO.C,R25*%
X136470000Y-107720000D03*
X136470000Y-109720000D03*
%TD*%
D13*
%TO.C,R21*%
X144230000Y-107810000D03*
X142230000Y-107810000D03*
%TD*%
D10*
%TO.C,R47*%
X161630000Y-107840000D03*
X163630000Y-107840000D03*
%TD*%
D18*
%TO.C,U9*%
X167090000Y-115990000D03*
X167090000Y-116490000D03*
X167090000Y-116990000D03*
X167090000Y-117490000D03*
X167090000Y-117990000D03*
X171390000Y-117990000D03*
X171390000Y-117490000D03*
X171390000Y-116990000D03*
X171390000Y-116490000D03*
X171390000Y-115990000D03*
%TD*%
D15*
%TO.C,D3*%
X152460000Y-85060000D03*
X147060000Y-85060000D03*
%TD*%
D11*
%TO.C,D8*%
X175085000Y-90120000D03*
X175085000Y-88220000D03*
X173210000Y-89170000D03*
%TD*%
D19*
%TO.C,C9*%
X168005000Y-113870000D03*
X170080000Y-113870000D03*
%TD*%
D14*
%TO.C,R52*%
X169370000Y-107750000D03*
X169370000Y-109750000D03*
%TD*%
D16*
%TO.C,U5*%
X162330000Y-99975000D03*
X161060000Y-99975000D03*
X159790000Y-99975000D03*
X158520000Y-99975000D03*
X157250000Y-99975000D03*
X155980000Y-99975000D03*
X154710000Y-99975000D03*
X154710000Y-104925000D03*
X155980000Y-104925000D03*
X157250000Y-104925000D03*
X158520000Y-104925000D03*
X159790000Y-104925000D03*
X161060000Y-104925000D03*
X162330000Y-104925000D03*
%TD*%
D10*
%TO.C,R23*%
X150050000Y-107830000D03*
X152050000Y-107830000D03*
%TD*%
D12*
%TO.C,C5*%
X152780000Y-101550000D03*
X152780000Y-99475000D03*
%TD*%
D14*
%TO.C,R26*%
X134460000Y-107720000D03*
X134460000Y-109720000D03*
%TD*%
D10*
%TO.C,R15*%
X157440000Y-89200000D03*
X159440000Y-89200000D03*
%TD*%
D12*
%TO.C,C2*%
X129630000Y-105395000D03*
X129630000Y-103320000D03*
%TD*%
D13*
%TO.C,R54*%
X177410000Y-102470000D03*
X175410000Y-102470000D03*
%TD*%
%TO.C,R53*%
X177410000Y-104960000D03*
X175410000Y-104960000D03*
%TD*%
M02*
