%TF.GenerationSoftware,KiCad,Pcbnew,6.0.8+dfsg-1~bpo11+1*%
%TF.CreationDate,2022-10-31T17:37:34+01:00*%
%TF.ProjectId,rib4outAd_00,72696234-6f75-4744-9164-5f30302e6b69,rev?*%
%TF.SameCoordinates,Original*%
%TF.FileFunction,Soldermask,Top*%
%TF.FilePolarity,Negative*%
%FSLAX46Y46*%
G04 Gerber Fmt 4.6, Leading zero omitted, Abs format (unit mm)*
G04 Created by KiCad (PCBNEW 6.0.8+dfsg-1~bpo11+1) date 2022-10-31 17:37:34*
%MOMM*%
%LPD*%
G01*
G04 APERTURE LIST*
G04 Aperture macros list*
%AMRoundRect*
0 Rectangle with rounded corners*
0 $1 Rounding radius*
0 $2 $3 $4 $5 $6 $7 $8 $9 X,Y pos of 4 corners*
0 Add a 4 corners polygon primitive as box body*
4,1,4,$2,$3,$4,$5,$6,$7,$8,$9,$2,$3,0*
0 Add four circle primitives for the rounded corners*
1,1,$1+$1,$2,$3*
1,1,$1+$1,$4,$5*
1,1,$1+$1,$6,$7*
1,1,$1+$1,$8,$9*
0 Add four rect primitives between the rounded corners*
20,1,$1+$1,$2,$3,$4,$5,0*
20,1,$1+$1,$4,$5,$6,$7,0*
20,1,$1+$1,$6,$7,$8,$9,0*
20,1,$1+$1,$8,$9,$2,$3,0*%
G04 Aperture macros list end*
%ADD10RoundRect,0.249999X0.790001X1.550001X-0.790001X1.550001X-0.790001X-1.550001X0.790001X-1.550001X0*%
%ADD11O,2.080000X3.600000*%
%ADD12RoundRect,0.250000X0.350000X0.450000X-0.350000X0.450000X-0.350000X-0.450000X0.350000X-0.450000X0*%
%ADD13RoundRect,0.100000X-0.637500X-0.100000X0.637500X-0.100000X0.637500X0.100000X-0.637500X0.100000X0*%
%ADD14RoundRect,0.250000X0.337500X0.475000X-0.337500X0.475000X-0.337500X-0.475000X0.337500X-0.475000X0*%
%ADD15R,1.700000X1.700000*%
%ADD16O,1.700000X1.700000*%
%ADD17RoundRect,0.150000X-0.150000X0.587500X-0.150000X-0.587500X0.150000X-0.587500X0.150000X0.587500X0*%
%ADD18RoundRect,0.250000X-0.350000X-0.450000X0.350000X-0.450000X0.350000X0.450000X-0.350000X0.450000X0*%
%ADD19R,1.500000X2.000000*%
%ADD20R,3.800000X2.000000*%
%ADD21RoundRect,0.150000X-0.825000X-0.150000X0.825000X-0.150000X0.825000X0.150000X-0.825000X0.150000X0*%
%ADD22RoundRect,0.250000X-0.337500X-0.475000X0.337500X-0.475000X0.337500X0.475000X-0.337500X0.475000X0*%
G04 APERTURE END LIST*
D10*
%TO.C,J3*%
X168360000Y-80277500D03*
D11*
X163280000Y-80277500D03*
X158200000Y-80277500D03*
X153120000Y-80277500D03*
X148040000Y-80277500D03*
X142960000Y-80277500D03*
X137880000Y-80277500D03*
X132800000Y-80277500D03*
X127720000Y-80277500D03*
X122640000Y-80277500D03*
%TD*%
D12*
%TO.C,R11*%
X158250000Y-93800000D03*
X156250000Y-93800000D03*
%TD*%
%TO.C,R1*%
X145500000Y-104600000D03*
X143500000Y-104600000D03*
%TD*%
D13*
%TO.C,U3*%
X148037500Y-104925000D03*
X148037500Y-105575000D03*
X148037500Y-106225000D03*
X148037500Y-106875000D03*
X148037500Y-107525000D03*
X148037500Y-108175000D03*
X148037500Y-108825000D03*
X148037500Y-109475000D03*
X153762500Y-109475000D03*
X153762500Y-108825000D03*
X153762500Y-108175000D03*
X153762500Y-107525000D03*
X153762500Y-106875000D03*
X153762500Y-106225000D03*
X153762500Y-105575000D03*
X153762500Y-104925000D03*
%TD*%
D14*
%TO.C,C6*%
X149870000Y-88500000D03*
X147795000Y-88500000D03*
%TD*%
D15*
%TO.C,J6*%
X127775000Y-117825000D03*
D16*
X127775000Y-115285000D03*
X127775000Y-112745000D03*
X127775000Y-110205000D03*
X127775000Y-107665000D03*
X127775000Y-105125000D03*
%TD*%
D17*
%TO.C,U1*%
X145250000Y-107062500D03*
X143350000Y-107062500D03*
X144300000Y-108937500D03*
%TD*%
D10*
%TO.C,J2*%
X168360000Y-73277500D03*
D11*
X163280000Y-73277500D03*
X158200000Y-73277500D03*
X153120000Y-73277500D03*
X148040000Y-73277500D03*
X142960000Y-73277500D03*
X137880000Y-73277500D03*
X132800000Y-73277500D03*
X127720000Y-73277500D03*
X122640000Y-73277500D03*
%TD*%
D12*
%TO.C,R10*%
X158250000Y-96000000D03*
X156250000Y-96000000D03*
%TD*%
D18*
%TO.C,R5*%
X143500000Y-96000000D03*
X145500000Y-96000000D03*
%TD*%
D12*
%TO.C,R12*%
X158250000Y-98200000D03*
X156250000Y-98200000D03*
%TD*%
D19*
%TO.C,U2*%
X132800000Y-103400000D03*
D20*
X135100000Y-97100000D03*
D19*
X135100000Y-103400000D03*
X137400000Y-103400000D03*
%TD*%
D21*
%TO.C,U4*%
X148525000Y-91190000D03*
X148525000Y-92460000D03*
X148525000Y-93730000D03*
X148525000Y-95000000D03*
X148525000Y-96270000D03*
X148525000Y-97540000D03*
X148525000Y-98810000D03*
X153475000Y-98810000D03*
X153475000Y-97540000D03*
X153475000Y-96270000D03*
X153475000Y-95000000D03*
X153475000Y-93730000D03*
X153475000Y-92460000D03*
X153475000Y-91190000D03*
%TD*%
D12*
%TO.C,R15*%
X158300000Y-89400000D03*
X156300000Y-89400000D03*
%TD*%
D18*
%TO.C,R3*%
X156300000Y-109000000D03*
X158300000Y-109000000D03*
%TD*%
D15*
%TO.C,J5*%
X163500000Y-88340000D03*
D16*
X163500000Y-90880000D03*
X163500000Y-93420000D03*
X163500000Y-95960000D03*
X163500000Y-98500000D03*
X163500000Y-101040000D03*
%TD*%
D14*
%TO.C,C4*%
X134300000Y-106600000D03*
X132225000Y-106600000D03*
%TD*%
D22*
%TO.C,C3*%
X149625000Y-103200000D03*
X151700000Y-103200000D03*
%TD*%
D18*
%TO.C,R8*%
X143500000Y-89400000D03*
X145500000Y-89400000D03*
%TD*%
%TO.C,R9*%
X143500000Y-100400000D03*
X145500000Y-100400000D03*
%TD*%
%TO.C,R7*%
X143500000Y-98200000D03*
X145500000Y-98200000D03*
%TD*%
D12*
%TO.C,R14*%
X158250000Y-100400000D03*
X156250000Y-100400000D03*
%TD*%
D18*
%TO.C,R6*%
X143500000Y-91600000D03*
X145500000Y-91600000D03*
%TD*%
D14*
%TO.C,C1*%
X138325000Y-106600000D03*
X136250000Y-106600000D03*
%TD*%
D15*
%TO.C,J7*%
X163525000Y-105200000D03*
D16*
X163525000Y-107740000D03*
X163525000Y-110280000D03*
X163525000Y-112820000D03*
X163525000Y-115360000D03*
X163525000Y-117900000D03*
%TD*%
D18*
%TO.C,R2*%
X156300000Y-106800000D03*
X158300000Y-106800000D03*
%TD*%
D12*
%TO.C,R13*%
X158250000Y-91600000D03*
X156250000Y-91600000D03*
%TD*%
D14*
%TO.C,C5*%
X158375000Y-104600000D03*
X156300000Y-104600000D03*
%TD*%
D18*
%TO.C,R4*%
X143500000Y-93800000D03*
X145500000Y-93800000D03*
%TD*%
D14*
%TO.C,C7*%
X154135000Y-88520000D03*
X152060000Y-88520000D03*
%TD*%
%TO.C,C2*%
X138300000Y-109000000D03*
X136225000Y-109000000D03*
%TD*%
D15*
%TO.C,J4*%
X127775000Y-100925000D03*
D16*
X127775000Y-98385000D03*
X127775000Y-95845000D03*
X127775000Y-93305000D03*
X127775000Y-90765000D03*
X127775000Y-88225000D03*
%TD*%
D15*
%TO.C,J1*%
X154370000Y-114710000D03*
D16*
X154370000Y-117250000D03*
X151830000Y-114710000D03*
X151830000Y-117250000D03*
X149290000Y-114710000D03*
X149290000Y-117250000D03*
X146750000Y-114710000D03*
X146750000Y-117250000D03*
X144210000Y-114710000D03*
X144210000Y-117250000D03*
X141670000Y-114710000D03*
X141670000Y-117250000D03*
X139130000Y-114710000D03*
X139130000Y-117250000D03*
X136590000Y-114710000D03*
X136590000Y-117250000D03*
%TD*%
M02*
