%TF.GenerationSoftware,KiCad,Pcbnew,6.0.8+dfsg-1~bpo11+1*%
%TF.CreationDate,2022-10-31T17:37:23+01:00*%
%TF.ProjectId,rib4outAd_00,72696234-6f75-4744-9164-5f30302e6b69,rev?*%
%TF.SameCoordinates,Original*%
%TF.FileFunction,Plated,1,4,PTH,Drill*%
%TF.FilePolarity,Positive*%
%FSLAX46Y46*%
G04 Gerber Fmt 4.6, Leading zero omitted, Abs format (unit mm)*
G04 Created by KiCad (PCBNEW 6.0.8+dfsg-1~bpo11+1) date 2022-10-31 17:37:23*
%MOMM*%
%LPD*%
G01*
G04 APERTURE LIST*
%TA.AperFunction,ViaDrill*%
%ADD10C,0.400000*%
%TD*%
%TA.AperFunction,ComponentDrill*%
%ADD11C,1.000000*%
%TD*%
%TA.AperFunction,ComponentDrill*%
%ADD12C,1.400000*%
%TD*%
G04 APERTURE END LIST*
D10*
X146500000Y-108200000D03*
X146630000Y-105500500D03*
X148070000Y-103560000D03*
X148640000Y-86830000D03*
X149390000Y-108810000D03*
X150000000Y-97550000D03*
X150035500Y-92450000D03*
X150500000Y-109480000D03*
X150820000Y-85860000D03*
X151934500Y-92470000D03*
X152060000Y-97550000D03*
X154300000Y-110800000D03*
X155800000Y-102700000D03*
X159500000Y-91500000D03*
D11*
%TO.C,J4*%
X127775000Y-88225000D03*
X127775000Y-90765000D03*
X127775000Y-93305000D03*
X127775000Y-95845000D03*
X127775000Y-98385000D03*
X127775000Y-100925000D03*
%TO.C,J6*%
X127775000Y-105125000D03*
X127775000Y-107665000D03*
X127775000Y-110205000D03*
X127775000Y-112745000D03*
X127775000Y-115285000D03*
X127775000Y-117825000D03*
%TO.C,J1*%
X136590000Y-114710000D03*
X136590000Y-117250000D03*
X139130000Y-114710000D03*
X139130000Y-117250000D03*
X141670000Y-114710000D03*
X141670000Y-117250000D03*
X144210000Y-114710000D03*
X144210000Y-117250000D03*
X146750000Y-114710000D03*
X146750000Y-117250000D03*
X149290000Y-114710000D03*
X149290000Y-117250000D03*
X151830000Y-114710000D03*
X151830000Y-117250000D03*
X154370000Y-114710000D03*
X154370000Y-117250000D03*
%TO.C,J5*%
X163500000Y-88340000D03*
X163500000Y-90880000D03*
X163500000Y-93420000D03*
X163500000Y-95960000D03*
X163500000Y-98500000D03*
X163500000Y-101040000D03*
%TO.C,J7*%
X163525000Y-105200000D03*
X163525000Y-107740000D03*
X163525000Y-110280000D03*
X163525000Y-112820000D03*
X163525000Y-115360000D03*
X163525000Y-117900000D03*
D12*
%TO.C,J2*%
X122640000Y-73277500D03*
%TO.C,J3*%
X122640000Y-80277500D03*
%TO.C,J2*%
X127720000Y-73277500D03*
%TO.C,J3*%
X127720000Y-80277500D03*
%TO.C,J2*%
X132800000Y-73277500D03*
%TO.C,J3*%
X132800000Y-80277500D03*
%TO.C,J2*%
X137880000Y-73277500D03*
%TO.C,J3*%
X137880000Y-80277500D03*
%TO.C,J2*%
X142960000Y-73277500D03*
%TO.C,J3*%
X142960000Y-80277500D03*
%TO.C,J2*%
X148040000Y-73277500D03*
%TO.C,J3*%
X148040000Y-80277500D03*
%TO.C,J2*%
X153120000Y-73277500D03*
%TO.C,J3*%
X153120000Y-80277500D03*
%TO.C,J2*%
X158200000Y-73277500D03*
%TO.C,J3*%
X158200000Y-80277500D03*
%TO.C,J2*%
X163280000Y-73277500D03*
%TO.C,J3*%
X163280000Y-80277500D03*
%TO.C,J2*%
X168360000Y-73277500D03*
%TO.C,J3*%
X168360000Y-80277500D03*
M02*
