%TF.GenerationSoftware,KiCad,Pcbnew,6.0.8+dfsg-1~bpo11+1*%
%TF.CreationDate,2022-10-31T17:37:34+01:00*%
%TF.ProjectId,rib4outAd_00,72696234-6f75-4744-9164-5f30302e6b69,rev?*%
%TF.SameCoordinates,Original*%
%TF.FileFunction,Copper,L4,Bot*%
%TF.FilePolarity,Positive*%
%FSLAX46Y46*%
G04 Gerber Fmt 4.6, Leading zero omitted, Abs format (unit mm)*
G04 Created by KiCad (PCBNEW 6.0.8+dfsg-1~bpo11+1) date 2022-10-31 17:37:34*
%MOMM*%
%LPD*%
G01*
G04 APERTURE LIST*
G04 Aperture macros list*
%AMRoundRect*
0 Rectangle with rounded corners*
0 $1 Rounding radius*
0 $2 $3 $4 $5 $6 $7 $8 $9 X,Y pos of 4 corners*
0 Add a 4 corners polygon primitive as box body*
4,1,4,$2,$3,$4,$5,$6,$7,$8,$9,$2,$3,0*
0 Add four circle primitives for the rounded corners*
1,1,$1+$1,$2,$3*
1,1,$1+$1,$4,$5*
1,1,$1+$1,$6,$7*
1,1,$1+$1,$8,$9*
0 Add four rect primitives between the rounded corners*
20,1,$1+$1,$2,$3,$4,$5,0*
20,1,$1+$1,$4,$5,$6,$7,0*
20,1,$1+$1,$6,$7,$8,$9,0*
20,1,$1+$1,$8,$9,$2,$3,0*%
G04 Aperture macros list end*
%TA.AperFunction,ComponentPad*%
%ADD10RoundRect,0.249999X0.790001X1.550001X-0.790001X1.550001X-0.790001X-1.550001X0.790001X-1.550001X0*%
%TD*%
%TA.AperFunction,ComponentPad*%
%ADD11O,2.080000X3.600000*%
%TD*%
%TA.AperFunction,ComponentPad*%
%ADD12R,1.700000X1.700000*%
%TD*%
%TA.AperFunction,ComponentPad*%
%ADD13O,1.700000X1.700000*%
%TD*%
%TA.AperFunction,ViaPad*%
%ADD14C,0.800000*%
%TD*%
%TA.AperFunction,Conductor*%
%ADD15C,0.400000*%
%TD*%
%TA.AperFunction,Conductor*%
%ADD16C,0.250000*%
%TD*%
%TA.AperFunction,Conductor*%
%ADD17C,0.800000*%
%TD*%
G04 APERTURE END LIST*
D10*
%TO.P,J3,1,Pin_1*%
%TO.N,+VSW*%
X168360000Y-80277500D03*
D11*
%TO.P,J3,2,Pin_2*%
%TO.N,Earth*%
X163280000Y-80277500D03*
%TO.P,J3,3,Pin_3*%
%TO.N,+VSW*%
X158200000Y-80277500D03*
%TO.P,J3,4,Pin_4*%
%TO.N,Earth*%
X153120000Y-80277500D03*
%TO.P,J3,5,Pin_5*%
%TO.N,+VSW*%
X148040000Y-80277500D03*
%TO.P,J3,6,Pin_6*%
%TO.N,Earth*%
X142960000Y-80277500D03*
%TO.P,J3,7,Pin_7*%
%TO.N,+VSW*%
X137880000Y-80277500D03*
%TO.P,J3,8,Pin_8*%
%TO.N,Earth*%
X132800000Y-80277500D03*
%TO.P,J3,9,Pin_9*%
%TO.N,+VSW*%
X127720000Y-80277500D03*
%TO.P,J3,10,Pin_10*%
%TO.N,GNDD*%
X122640000Y-80277500D03*
%TD*%
D12*
%TO.P,J6,1,Pin_1*%
%TO.N,GNDD*%
X127775000Y-117825000D03*
D13*
%TO.P,J6,2,Pin_2*%
%TO.N,+5V*%
X127775000Y-115285000D03*
%TO.P,J6,3,Pin_3*%
%TO.N,/SDA1*%
X127775000Y-112745000D03*
%TO.P,J6,4,Pin_4*%
%TO.N,/SCL1*%
X127775000Y-110205000D03*
%TO.P,J6,5,Pin_5*%
%TO.N,GNDD*%
X127775000Y-107665000D03*
%TO.P,J6,6,Pin_6*%
%TO.N,/VOM3*%
X127775000Y-105125000D03*
%TD*%
D10*
%TO.P,J2,1,Pin_1*%
%TO.N,Earth*%
X168360000Y-73277500D03*
D11*
%TO.P,J2,2,Pin_2*%
%TO.N,GNDD*%
X163280000Y-73277500D03*
%TO.P,J2,3,Pin_3*%
%TO.N,/VO4*%
X158200000Y-73277500D03*
%TO.P,J2,4,Pin_4*%
%TO.N,GNDD*%
X153120000Y-73277500D03*
%TO.P,J2,5,Pin_5*%
%TO.N,/VO3*%
X148040000Y-73277500D03*
%TO.P,J2,6,Pin_6*%
%TO.N,GNDD*%
X142960000Y-73277500D03*
%TO.P,J2,7,Pin_7*%
%TO.N,/VO2*%
X137880000Y-73277500D03*
%TO.P,J2,8,Pin_8*%
%TO.N,GNDD*%
X132800000Y-73277500D03*
%TO.P,J2,9,Pin_9*%
%TO.N,/VO1*%
X127720000Y-73277500D03*
%TO.P,J2,10,Pin_10*%
%TO.N,+VSW*%
X122640000Y-73277500D03*
%TD*%
D12*
%TO.P,J5,1,Pin_1*%
%TO.N,GNDD*%
X163500000Y-88340000D03*
D13*
%TO.P,J5,2,Pin_2*%
%TO.N,+5V*%
X163500000Y-90880000D03*
%TO.P,J5,3,Pin_3*%
%TO.N,/SDA0*%
X163500000Y-93420000D03*
%TO.P,J5,4,Pin_4*%
%TO.N,/SCL0*%
X163500000Y-95960000D03*
%TO.P,J5,5,Pin_5*%
%TO.N,GNDD*%
X163500000Y-98500000D03*
%TO.P,J5,6,Pin_6*%
%TO.N,/VOM2*%
X163500000Y-101040000D03*
%TD*%
D12*
%TO.P,J7,1,Pin_1*%
%TO.N,GNDD*%
X163525000Y-105200000D03*
D13*
%TO.P,J7,2,Pin_2*%
%TO.N,+5V*%
X163525000Y-107740000D03*
%TO.P,J7,3,Pin_3*%
%TO.N,/SDA1*%
X163525000Y-110280000D03*
%TO.P,J7,4,Pin_4*%
%TO.N,/SCL1*%
X163525000Y-112820000D03*
%TO.P,J7,5,Pin_5*%
%TO.N,GNDD*%
X163525000Y-115360000D03*
%TO.P,J7,6,Pin_6*%
%TO.N,/VOM4*%
X163525000Y-117900000D03*
%TD*%
D12*
%TO.P,J4,1,Pin_1*%
%TO.N,GNDD*%
X127775000Y-100925000D03*
D13*
%TO.P,J4,2,Pin_2*%
%TO.N,+5V*%
X127775000Y-98385000D03*
%TO.P,J4,3,Pin_3*%
%TO.N,/SDA0*%
X127775000Y-95845000D03*
%TO.P,J4,4,Pin_4*%
%TO.N,/SCL0*%
X127775000Y-93305000D03*
%TO.P,J4,5,Pin_5*%
%TO.N,GNDD*%
X127775000Y-90765000D03*
%TO.P,J4,6,Pin_6*%
%TO.N,/VOM1*%
X127775000Y-88225000D03*
%TD*%
D12*
%TO.P,J1,1,Pin_1*%
%TO.N,GNDD*%
X154370000Y-114710000D03*
D13*
%TO.P,J1,2,Pin_2*%
%TO.N,/SCL0*%
X154370000Y-117250000D03*
%TO.P,J1,3,Pin_3*%
%TO.N,/SDA0*%
X151830000Y-114710000D03*
%TO.P,J1,4,Pin_4*%
%TO.N,/SCL1*%
X151830000Y-117250000D03*
%TO.P,J1,5,Pin_5*%
%TO.N,/SDA1*%
X149290000Y-114710000D03*
%TO.P,J1,6,Pin_6*%
%TO.N,unconnected-(J1-Pad6)*%
X149290000Y-117250000D03*
%TO.P,J1,7,Pin_7*%
%TO.N,unconnected-(J1-Pad7)*%
X146750000Y-114710000D03*
%TO.P,J1,8,Pin_8*%
%TO.N,unconnected-(J1-Pad8)*%
X146750000Y-117250000D03*
%TO.P,J1,9,Pin_9*%
%TO.N,unconnected-(J1-Pad9)*%
X144210000Y-114710000D03*
%TO.P,J1,10,Pin_10*%
%TO.N,+5V*%
X144210000Y-117250000D03*
%TO.P,J1,11,Pin_11*%
%TO.N,-12V*%
X141670000Y-114710000D03*
%TO.P,J1,12,Pin_12*%
%TO.N,+12V*%
X141670000Y-117250000D03*
%TO.P,J1,13,Pin_13*%
%TO.N,GNDD*%
X139130000Y-114710000D03*
%TO.P,J1,14,Pin_14*%
%TO.N,Earth*%
X139130000Y-117250000D03*
%TO.P,J1,15,Pin_15*%
%TO.N,+VSW*%
X136590000Y-114710000D03*
%TO.P,J1,16,Pin_16*%
X136590000Y-117250000D03*
%TD*%
D14*
%TO.N,+12V*%
X148640000Y-86830000D03*
%TO.N,GNDD*%
X155800000Y-102700000D03*
X159500000Y-91500000D03*
X154300000Y-110800000D03*
X146500000Y-108200000D03*
%TO.N,-12V*%
X150820000Y-85860000D03*
%TO.N,/VOM1*%
X150035500Y-92450000D03*
X148070000Y-103560000D03*
%TO.N,/VOM2*%
X150000000Y-97550000D03*
X146630000Y-105500500D03*
%TO.N,/VOM3*%
X152060000Y-97550000D03*
X149390000Y-108810000D03*
%TO.N,/VOM4*%
X150500000Y-109480000D03*
X151934500Y-92470000D03*
%TD*%
D15*
%TO.N,+12V*%
X142960000Y-115960000D02*
X142960000Y-89210000D01*
X145340000Y-86830000D02*
X148640000Y-86830000D01*
X142960000Y-89210000D02*
X145340000Y-86830000D01*
X141670000Y-117250000D02*
X142960000Y-115960000D01*
%TO.N,+5V*%
X124990000Y-114390000D02*
X125885000Y-115285000D01*
X166330000Y-106560000D02*
X166330000Y-92470000D01*
X163525000Y-107740000D02*
X165150000Y-107740000D01*
X165150000Y-107740000D02*
X166330000Y-106560000D01*
X127775000Y-98385000D02*
X125695000Y-98385000D01*
X166330000Y-92470000D02*
X164740000Y-90880000D01*
X164740000Y-90880000D02*
X163500000Y-90880000D01*
X125885000Y-115285000D02*
X127775000Y-115285000D01*
X124990000Y-99090000D02*
X124990000Y-114390000D01*
X125695000Y-98385000D02*
X124990000Y-99090000D01*
%TO.N,-12V*%
X144830000Y-85860000D02*
X150820000Y-85860000D01*
X141670000Y-89020000D02*
X144830000Y-85860000D01*
X141670000Y-114710000D02*
X141670000Y-89020000D01*
D16*
%TO.N,/SCL1*%
X155820000Y-118820000D02*
X152270000Y-118820000D01*
X161820000Y-112820000D02*
X155820000Y-118820000D01*
X152270000Y-118820000D02*
X151830000Y-118380000D01*
X151830000Y-118380000D02*
X151830000Y-117250000D01*
X163525000Y-112820000D02*
X161820000Y-112820000D01*
%TO.N,/SDA1*%
X159600000Y-112590000D02*
X161910000Y-110280000D01*
X149920000Y-112590000D02*
X159600000Y-112590000D01*
X149290000Y-113220000D02*
X149920000Y-112590000D01*
X149290000Y-114710000D02*
X149290000Y-113220000D01*
X161910000Y-110280000D02*
X163525000Y-110280000D01*
D17*
%TO.N,+VSW*%
X168360000Y-78020000D02*
X168360000Y-80277500D01*
X159600000Y-76790000D02*
X167130000Y-76790000D01*
X148040000Y-82180000D02*
X149640000Y-83780000D01*
X137880000Y-83130000D02*
X137080000Y-83930000D01*
X136590000Y-114710000D02*
X136590000Y-85480000D01*
X158200000Y-80277500D02*
X158200000Y-78190000D01*
X136590000Y-84420000D02*
X137080000Y-83930000D01*
X147090000Y-76730000D02*
X148040000Y-77680000D01*
X148040000Y-77680000D02*
X148040000Y-80277500D01*
X127720000Y-82980000D02*
X128670000Y-83930000D01*
X124000000Y-77000000D02*
X127000000Y-77000000D01*
X136590000Y-85480000D02*
X136590000Y-84420000D01*
X158200000Y-82570000D02*
X158200000Y-80277500D01*
X127000000Y-77000000D02*
X127720000Y-77720000D01*
X148040000Y-80277500D02*
X148040000Y-82180000D01*
X136590000Y-117250000D02*
X136590000Y-114710000D01*
X128670000Y-83930000D02*
X136000000Y-83930000D01*
X136590000Y-85480000D02*
X136590000Y-84520000D01*
X136000000Y-83930000D02*
X137080000Y-83930000D01*
X138950000Y-76730000D02*
X147090000Y-76730000D01*
X137880000Y-80277500D02*
X137880000Y-77800000D01*
X122640000Y-75640000D02*
X124000000Y-77000000D01*
X137880000Y-80277500D02*
X137880000Y-83130000D01*
X136590000Y-84520000D02*
X136000000Y-83930000D01*
X127720000Y-80277500D02*
X127720000Y-82980000D01*
X122640000Y-73277500D02*
X122640000Y-75640000D01*
X156990000Y-83780000D02*
X158200000Y-82570000D01*
X149640000Y-83780000D02*
X156990000Y-83780000D01*
X167130000Y-76790000D02*
X168360000Y-78020000D01*
X158200000Y-78190000D02*
X159600000Y-76790000D01*
X137880000Y-77800000D02*
X138950000Y-76730000D01*
X127720000Y-77720000D02*
X127720000Y-80277500D01*
D16*
%TO.N,/VOM1*%
X150035500Y-92450000D02*
X150035500Y-95185500D01*
X149670000Y-101370000D02*
X148070000Y-102970000D01*
X148070000Y-102970000D02*
X148070000Y-103560000D01*
X150035500Y-95185500D02*
X150920000Y-96070000D01*
X151080000Y-96230000D02*
X151080000Y-99960000D01*
X150920000Y-96070000D02*
X151080000Y-96230000D01*
X151080000Y-99960000D02*
X149670000Y-101370000D01*
%TO.N,/VOM2*%
X150320000Y-97870000D02*
X150000000Y-97550000D01*
X146630000Y-101930000D02*
X147940000Y-100620000D01*
X147940000Y-100620000D02*
X149120000Y-100620000D01*
X146630000Y-105500500D02*
X146630000Y-101930000D01*
X150320000Y-99420000D02*
X150320000Y-97870000D01*
X149120000Y-100620000D02*
X150320000Y-99420000D01*
%TO.N,/VOM3*%
X149390000Y-108810000D02*
X150030000Y-108810000D01*
X150960000Y-107880000D02*
X150960000Y-102840000D01*
X150030000Y-108810000D02*
X150960000Y-107880000D01*
X150960000Y-102840000D02*
X152060000Y-101740000D01*
X152060000Y-101740000D02*
X152060000Y-97550000D01*
%TO.N,/VOM4*%
X162480000Y-109060000D02*
X164450000Y-109060000D01*
X150590000Y-109570000D02*
X150760000Y-109570000D01*
X164490000Y-117900000D02*
X164970000Y-117420000D01*
X150760000Y-109570000D02*
X152195000Y-108135000D01*
X153500000Y-96040000D02*
X151934500Y-94474500D01*
X163525000Y-117900000D02*
X164490000Y-117900000D01*
X151934500Y-94474500D02*
X151934500Y-92470000D01*
X152195000Y-108135000D02*
X152195000Y-103585000D01*
X164450000Y-109060000D02*
X164970000Y-109580000D01*
X164970000Y-109580000D02*
X164970000Y-117420000D01*
X153500000Y-102280000D02*
X153500000Y-96040000D01*
X161555000Y-108135000D02*
X162480000Y-109060000D01*
X150500000Y-109480000D02*
X150590000Y-109570000D01*
X152195000Y-103585000D02*
X153500000Y-102280000D01*
X152195000Y-108135000D02*
X161555000Y-108135000D01*
%TD*%
%TA.AperFunction,Conductor*%
%TO.N,GNDD*%
G36*
X162317395Y-113473502D02*
G01*
X162356707Y-113513665D01*
X162424987Y-113625088D01*
X162571250Y-113793938D01*
X162743126Y-113936632D01*
X162749773Y-113940516D01*
X162816955Y-113979774D01*
X162865679Y-114031412D01*
X162878750Y-114101195D01*
X162852019Y-114166967D01*
X162811562Y-114200327D01*
X162803457Y-114204546D01*
X162794738Y-114210036D01*
X162624433Y-114337905D01*
X162616726Y-114344748D01*
X162469590Y-114498717D01*
X162463104Y-114506727D01*
X162343098Y-114682649D01*
X162338000Y-114691623D01*
X162248338Y-114884783D01*
X162244775Y-114894470D01*
X162189389Y-115094183D01*
X162190912Y-115102607D01*
X162203292Y-115106000D01*
X163653000Y-115106000D01*
X163721121Y-115126002D01*
X163767614Y-115179658D01*
X163779000Y-115232000D01*
X163779000Y-115488000D01*
X163758998Y-115556121D01*
X163705342Y-115602614D01*
X163653000Y-115614000D01*
X162208225Y-115614000D01*
X162194694Y-115617973D01*
X162193257Y-115627966D01*
X162223565Y-115762446D01*
X162226645Y-115772275D01*
X162306770Y-115969603D01*
X162311413Y-115978794D01*
X162422694Y-116160388D01*
X162428777Y-116168699D01*
X162568213Y-116329667D01*
X162575580Y-116336883D01*
X162739434Y-116472916D01*
X162747881Y-116478831D01*
X162816969Y-116519203D01*
X162865693Y-116570842D01*
X162878764Y-116640625D01*
X162852033Y-116706396D01*
X162811584Y-116739752D01*
X162798607Y-116746507D01*
X162794474Y-116749610D01*
X162794471Y-116749612D01*
X162630601Y-116872649D01*
X162619965Y-116880635D01*
X162616393Y-116884373D01*
X162479442Y-117027684D01*
X162465629Y-117042138D01*
X162339743Y-117226680D01*
X162298008Y-117316590D01*
X162263875Y-117390125D01*
X162245688Y-117429305D01*
X162185989Y-117644570D01*
X162162251Y-117866695D01*
X162162548Y-117871848D01*
X162162548Y-117871851D01*
X162171146Y-118020968D01*
X162175110Y-118089715D01*
X162176247Y-118094761D01*
X162176248Y-118094767D01*
X162184029Y-118129292D01*
X162224222Y-118307639D01*
X162281974Y-118449867D01*
X162301822Y-118498745D01*
X162308266Y-118514616D01*
X162318263Y-118530930D01*
X162398843Y-118662424D01*
X162424987Y-118705088D01*
X162571250Y-118873938D01*
X162743126Y-119016632D01*
X162936000Y-119129338D01*
X163144692Y-119209030D01*
X163149760Y-119210061D01*
X163149763Y-119210062D01*
X163306891Y-119242030D01*
X163369656Y-119275211D01*
X163404518Y-119337059D01*
X163400409Y-119407937D01*
X163358632Y-119465341D01*
X163292453Y-119491046D01*
X163281770Y-119491500D01*
X156354430Y-119491500D01*
X156286309Y-119471498D01*
X156239816Y-119417842D01*
X156229712Y-119347568D01*
X156257346Y-119285184D01*
X156285299Y-119251395D01*
X156293288Y-119242616D01*
X162045499Y-113490405D01*
X162107811Y-113456379D01*
X162134594Y-113453500D01*
X162249274Y-113453500D01*
X162317395Y-113473502D01*
G37*
%TD.AperFunction*%
%TA.AperFunction,Conductor*%
G36*
X171933621Y-66528502D02*
G01*
X171980114Y-66582158D01*
X171991500Y-66634500D01*
X171991500Y-119365500D01*
X171971498Y-119433621D01*
X171917842Y-119480114D01*
X171865500Y-119491500D01*
X163768588Y-119491500D01*
X163700467Y-119471498D01*
X163653974Y-119417842D01*
X163643870Y-119347568D01*
X163673364Y-119282988D01*
X163733090Y-119244604D01*
X163752578Y-119240521D01*
X163803288Y-119234025D01*
X163803289Y-119234025D01*
X163808416Y-119233368D01*
X163813366Y-119231883D01*
X164017429Y-119170661D01*
X164017434Y-119170659D01*
X164022384Y-119169174D01*
X164222994Y-119070896D01*
X164404860Y-118941173D01*
X164433078Y-118913054D01*
X164559435Y-118787137D01*
X164563096Y-118783489D01*
X164568478Y-118776000D01*
X164604054Y-118726490D01*
X164693453Y-118602077D01*
X164695741Y-118597448D01*
X164695745Y-118597441D01*
X164734534Y-118518958D01*
X164786791Y-118464370D01*
X164790248Y-118462469D01*
X164797617Y-118459552D01*
X164833387Y-118433564D01*
X164843307Y-118427048D01*
X164874535Y-118408580D01*
X164874538Y-118408578D01*
X164881362Y-118404542D01*
X164895683Y-118390221D01*
X164910717Y-118377380D01*
X164920694Y-118370131D01*
X164927107Y-118365472D01*
X164955298Y-118331395D01*
X164963288Y-118322616D01*
X165362247Y-117923657D01*
X165370537Y-117916113D01*
X165377018Y-117912000D01*
X165423659Y-117862332D01*
X165426413Y-117859491D01*
X165446135Y-117839769D01*
X165448612Y-117836576D01*
X165456317Y-117827555D01*
X165481159Y-117801100D01*
X165486586Y-117795321D01*
X165490407Y-117788371D01*
X165496346Y-117777568D01*
X165507202Y-117761041D01*
X165514757Y-117751302D01*
X165514758Y-117751300D01*
X165519614Y-117745040D01*
X165537174Y-117704460D01*
X165542391Y-117693812D01*
X165559875Y-117662009D01*
X165559876Y-117662007D01*
X165563695Y-117655060D01*
X165566389Y-117644570D01*
X165568733Y-117635438D01*
X165575137Y-117616734D01*
X165580033Y-117605420D01*
X165580033Y-117605419D01*
X165583181Y-117598145D01*
X165584420Y-117590322D01*
X165584423Y-117590312D01*
X165590099Y-117554476D01*
X165592505Y-117542856D01*
X165601528Y-117507711D01*
X165601528Y-117507710D01*
X165603500Y-117500030D01*
X165603500Y-117479776D01*
X165605051Y-117460065D01*
X165606980Y-117447886D01*
X165608220Y-117440057D01*
X165604059Y-117396038D01*
X165603500Y-117384181D01*
X165603500Y-116978918D01*
X167486917Y-116978918D01*
X167487334Y-116986156D01*
X167502682Y-117252320D01*
X167555405Y-117521053D01*
X167556792Y-117525103D01*
X167556793Y-117525108D01*
X167639746Y-117767392D01*
X167644112Y-117780144D01*
X167673238Y-117838054D01*
X167742837Y-117976437D01*
X167767160Y-118024799D01*
X167769586Y-118028328D01*
X167769589Y-118028334D01*
X167901340Y-118220031D01*
X167922274Y-118250490D01*
X167925161Y-118253663D01*
X167925162Y-118253664D01*
X168103692Y-118449867D01*
X168106582Y-118453043D01*
X168109877Y-118455798D01*
X168109878Y-118455799D01*
X168134243Y-118476171D01*
X168316675Y-118628707D01*
X168320316Y-118630991D01*
X168545024Y-118771951D01*
X168545028Y-118771953D01*
X168548664Y-118774234D01*
X168643617Y-118817107D01*
X168794345Y-118885164D01*
X168794349Y-118885166D01*
X168798257Y-118886930D01*
X168802377Y-118888150D01*
X168802376Y-118888150D01*
X169056723Y-118963491D01*
X169056727Y-118963492D01*
X169060836Y-118964709D01*
X169065070Y-118965357D01*
X169065075Y-118965358D01*
X169327298Y-119005483D01*
X169327300Y-119005483D01*
X169331540Y-119006132D01*
X169470912Y-119008322D01*
X169601071Y-119010367D01*
X169601077Y-119010367D01*
X169605362Y-119010434D01*
X169877235Y-118977534D01*
X170142127Y-118908041D01*
X170146087Y-118906401D01*
X170146092Y-118906399D01*
X170293626Y-118845288D01*
X170395136Y-118803241D01*
X170523567Y-118728192D01*
X170627879Y-118667237D01*
X170627880Y-118667236D01*
X170631582Y-118665073D01*
X170847089Y-118496094D01*
X170871738Y-118470659D01*
X171034686Y-118302509D01*
X171037669Y-118299431D01*
X171040202Y-118295983D01*
X171040206Y-118295978D01*
X171197257Y-118082178D01*
X171199795Y-118078723D01*
X171227154Y-118028334D01*
X171328418Y-117841830D01*
X171328419Y-117841828D01*
X171330468Y-117838054D01*
X171427269Y-117581877D01*
X171461069Y-117434297D01*
X171487449Y-117319117D01*
X171487450Y-117319113D01*
X171488407Y-117314933D01*
X171494502Y-117246646D01*
X171512531Y-117044627D01*
X171512531Y-117044625D01*
X171512751Y-117042161D01*
X171513193Y-117000000D01*
X171508444Y-116930331D01*
X171494859Y-116731055D01*
X171494858Y-116731049D01*
X171494567Y-116726778D01*
X171477995Y-116646753D01*
X171439901Y-116462809D01*
X171439032Y-116458612D01*
X171347617Y-116200465D01*
X171242753Y-115997295D01*
X171223978Y-115960919D01*
X171223978Y-115960918D01*
X171222013Y-115957112D01*
X171212040Y-115942921D01*
X171118385Y-115809664D01*
X171064545Y-115733057D01*
X170966889Y-115627966D01*
X170881046Y-115535588D01*
X170881043Y-115535585D01*
X170878125Y-115532445D01*
X170874810Y-115529731D01*
X170874806Y-115529728D01*
X170698159Y-115385144D01*
X170666205Y-115358990D01*
X170432704Y-115215901D01*
X170423387Y-115211811D01*
X170185873Y-115107549D01*
X170185869Y-115107548D01*
X170181945Y-115105825D01*
X169918566Y-115030800D01*
X169914324Y-115030196D01*
X169914318Y-115030195D01*
X169688589Y-114998069D01*
X169647443Y-114992213D01*
X169503589Y-114991460D01*
X169377877Y-114990802D01*
X169377871Y-114990802D01*
X169373591Y-114990780D01*
X169369347Y-114991339D01*
X169369343Y-114991339D01*
X169250302Y-115007011D01*
X169102078Y-115026525D01*
X169097938Y-115027658D01*
X169097936Y-115027658D01*
X169025008Y-115047609D01*
X168837928Y-115098788D01*
X168833980Y-115100472D01*
X168589982Y-115204546D01*
X168589978Y-115204548D01*
X168586030Y-115206232D01*
X168566125Y-115218145D01*
X168354725Y-115344664D01*
X168354721Y-115344667D01*
X168351043Y-115346868D01*
X168137318Y-115518094D01*
X168055159Y-115604672D01*
X167983645Y-115680032D01*
X167948808Y-115716742D01*
X167789002Y-115939136D01*
X167660857Y-116181161D01*
X167659385Y-116185184D01*
X167659383Y-116185188D01*
X167582089Y-116396403D01*
X167566743Y-116438337D01*
X167508404Y-116705907D01*
X167507092Y-116722581D01*
X167491278Y-116923514D01*
X167486917Y-116978918D01*
X165603500Y-116978918D01*
X165603500Y-109658767D01*
X165604027Y-109647584D01*
X165605702Y-109640091D01*
X165605121Y-109621589D01*
X165603562Y-109572014D01*
X165603500Y-109568055D01*
X165603500Y-109540144D01*
X165602994Y-109536135D01*
X165602062Y-109524301D01*
X165600922Y-109488030D01*
X165600673Y-109480111D01*
X165595021Y-109460657D01*
X165591013Y-109441300D01*
X165589468Y-109429070D01*
X165589468Y-109429069D01*
X165588474Y-109421203D01*
X165585555Y-109413830D01*
X165572196Y-109380088D01*
X165568351Y-109368858D01*
X165558229Y-109334017D01*
X165558229Y-109334016D01*
X165556018Y-109326407D01*
X165551985Y-109319588D01*
X165551983Y-109319583D01*
X165545707Y-109308972D01*
X165537012Y-109291224D01*
X165529552Y-109272383D01*
X165503564Y-109236613D01*
X165497048Y-109226693D01*
X165478580Y-109195465D01*
X165478578Y-109195462D01*
X165474542Y-109188638D01*
X165460221Y-109174317D01*
X165447380Y-109159283D01*
X165440132Y-109149307D01*
X165435472Y-109142893D01*
X165401407Y-109114712D01*
X165392626Y-109106722D01*
X164953647Y-108667742D01*
X164946112Y-108659462D01*
X164942000Y-108652982D01*
X164941065Y-108652104D01*
X164914218Y-108589583D01*
X164925922Y-108519558D01*
X164973626Y-108466976D01*
X165039312Y-108448500D01*
X165121088Y-108448500D01*
X165129658Y-108448792D01*
X165179776Y-108452209D01*
X165179780Y-108452209D01*
X165187352Y-108452725D01*
X165194829Y-108451420D01*
X165194830Y-108451420D01*
X165221308Y-108446799D01*
X165250303Y-108441738D01*
X165256821Y-108440777D01*
X165320242Y-108433102D01*
X165327343Y-108430419D01*
X165329952Y-108429778D01*
X165346262Y-108425315D01*
X165348798Y-108424550D01*
X165356284Y-108423243D01*
X165414800Y-108397556D01*
X165420904Y-108395065D01*
X165473548Y-108375173D01*
X165473549Y-108375172D01*
X165480656Y-108372487D01*
X165486919Y-108368183D01*
X165489285Y-108366946D01*
X165504097Y-108358701D01*
X165506351Y-108357368D01*
X165513305Y-108354315D01*
X165564002Y-108315413D01*
X165569332Y-108311541D01*
X165615720Y-108279661D01*
X165615725Y-108279656D01*
X165621981Y-108275357D01*
X165663436Y-108228829D01*
X165668416Y-108223554D01*
X166810520Y-107081450D01*
X166816785Y-107075596D01*
X166821624Y-107071375D01*
X166860385Y-107037561D01*
X166897129Y-106985280D01*
X166901061Y-106979986D01*
X166935791Y-106935693D01*
X166940476Y-106929718D01*
X166943599Y-106922802D01*
X166944983Y-106920516D01*
X166953357Y-106905835D01*
X166954622Y-106903475D01*
X166958990Y-106897261D01*
X166982203Y-106837723D01*
X166984759Y-106831642D01*
X166985611Y-106829757D01*
X167011045Y-106773427D01*
X167012429Y-106765960D01*
X167013230Y-106763405D01*
X167017859Y-106747152D01*
X167018522Y-106744572D01*
X167021282Y-106737491D01*
X167029622Y-106674139D01*
X167030653Y-106667632D01*
X167040912Y-106612280D01*
X167042296Y-106604814D01*
X167039538Y-106556976D01*
X167038709Y-106542608D01*
X167038500Y-106535354D01*
X167038500Y-92498927D01*
X167038792Y-92490358D01*
X167042210Y-92440225D01*
X167042210Y-92440221D01*
X167042726Y-92432648D01*
X167031736Y-92369681D01*
X167030775Y-92363165D01*
X167023102Y-92299758D01*
X167020419Y-92292657D01*
X167019778Y-92290048D01*
X167015313Y-92273728D01*
X167014548Y-92271195D01*
X167013243Y-92263717D01*
X166987552Y-92205190D01*
X166985067Y-92199102D01*
X166965172Y-92146449D01*
X166965171Y-92146447D01*
X166962487Y-92139344D01*
X166958186Y-92133085D01*
X166956949Y-92130720D01*
X166948727Y-92115948D01*
X166947372Y-92113656D01*
X166944316Y-92106695D01*
X166939691Y-92100668D01*
X166939689Y-92100664D01*
X166905407Y-92055987D01*
X166901529Y-92050650D01*
X166900333Y-92048909D01*
X166865357Y-91998019D01*
X166818838Y-91956572D01*
X166813563Y-91951592D01*
X165261442Y-90399472D01*
X165255588Y-90393206D01*
X165222556Y-90355340D01*
X165222553Y-90355337D01*
X165217561Y-90349615D01*
X165165280Y-90312871D01*
X165159986Y-90308939D01*
X165115693Y-90274209D01*
X165109718Y-90269524D01*
X165102802Y-90266401D01*
X165100516Y-90265017D01*
X165085835Y-90256643D01*
X165083475Y-90255378D01*
X165077261Y-90251010D01*
X165070182Y-90248250D01*
X165070180Y-90248249D01*
X165017725Y-90227798D01*
X165011656Y-90225247D01*
X164953427Y-90198955D01*
X164945960Y-90197571D01*
X164943405Y-90196770D01*
X164927152Y-90192141D01*
X164924572Y-90191478D01*
X164917491Y-90188718D01*
X164909960Y-90187727D01*
X164909958Y-90187726D01*
X164880339Y-90183827D01*
X164854139Y-90180378D01*
X164847641Y-90179348D01*
X164784814Y-90167704D01*
X164777234Y-90168141D01*
X164777232Y-90168141D01*
X164735074Y-90170572D01*
X164665915Y-90154525D01*
X164622030Y-90113222D01*
X164582824Y-90052621D01*
X164580014Y-90048277D01*
X164576540Y-90044459D01*
X164576533Y-90044450D01*
X164432435Y-89886088D01*
X164401383Y-89822242D01*
X164409779Y-89751744D01*
X164454956Y-89696976D01*
X164481400Y-89683307D01*
X164588052Y-89643325D01*
X164603649Y-89634786D01*
X164705724Y-89558285D01*
X164718285Y-89545724D01*
X164794786Y-89443649D01*
X164803324Y-89428054D01*
X164848478Y-89307606D01*
X164852105Y-89292351D01*
X164857631Y-89241486D01*
X164858000Y-89234672D01*
X164858000Y-88612115D01*
X164853525Y-88596876D01*
X164852135Y-88595671D01*
X164844452Y-88594000D01*
X162160116Y-88594000D01*
X162144877Y-88598475D01*
X162143672Y-88599865D01*
X162142001Y-88607548D01*
X162142001Y-89234669D01*
X162142371Y-89241490D01*
X162147895Y-89292352D01*
X162151521Y-89307604D01*
X162196676Y-89428054D01*
X162205214Y-89443649D01*
X162281715Y-89545724D01*
X162294276Y-89558285D01*
X162396351Y-89634786D01*
X162411946Y-89643324D01*
X162520827Y-89684142D01*
X162577591Y-89726784D01*
X162602291Y-89793345D01*
X162587083Y-89862694D01*
X162567691Y-89889175D01*
X162504024Y-89955799D01*
X162440629Y-90022138D01*
X162314743Y-90206680D01*
X162270926Y-90301077D01*
X162245738Y-90355340D01*
X162220688Y-90409305D01*
X162160989Y-90624570D01*
X162137251Y-90846695D01*
X162137548Y-90851848D01*
X162137548Y-90851851D01*
X162148849Y-91047837D01*
X162150110Y-91069715D01*
X162151247Y-91074761D01*
X162151248Y-91074767D01*
X162172135Y-91167446D01*
X162199222Y-91287639D01*
X162283266Y-91494616D01*
X162312837Y-91542872D01*
X162394539Y-91676197D01*
X162399987Y-91685088D01*
X162546250Y-91853938D01*
X162718126Y-91996632D01*
X162731211Y-92004278D01*
X162791445Y-92039476D01*
X162840169Y-92091114D01*
X162853240Y-92160897D01*
X162826509Y-92226669D01*
X162786055Y-92260027D01*
X162778967Y-92263717D01*
X162773607Y-92266507D01*
X162769474Y-92269610D01*
X162769471Y-92269612D01*
X162713189Y-92311870D01*
X162594965Y-92400635D01*
X162440629Y-92562138D01*
X162314743Y-92746680D01*
X162220688Y-92949305D01*
X162160989Y-93164570D01*
X162137251Y-93386695D01*
X162137548Y-93391848D01*
X162137548Y-93391851D01*
X162148854Y-93587939D01*
X162150110Y-93609715D01*
X162151247Y-93614761D01*
X162151248Y-93614767D01*
X162171119Y-93702939D01*
X162199222Y-93827639D01*
X162283266Y-94034616D01*
X162285965Y-94039020D01*
X162379795Y-94192137D01*
X162399987Y-94225088D01*
X162546250Y-94393938D01*
X162718126Y-94536632D01*
X162769188Y-94566470D01*
X162791445Y-94579476D01*
X162840169Y-94631114D01*
X162853240Y-94700897D01*
X162826509Y-94766669D01*
X162786055Y-94800027D01*
X162773607Y-94806507D01*
X162769474Y-94809610D01*
X162769471Y-94809612D01*
X162626899Y-94916658D01*
X162594965Y-94940635D01*
X162440629Y-95102138D01*
X162437715Y-95106410D01*
X162437714Y-95106411D01*
X162422798Y-95128277D01*
X162314743Y-95286680D01*
X162299003Y-95320590D01*
X162231941Y-95465063D01*
X162220688Y-95489305D01*
X162160989Y-95704570D01*
X162137251Y-95926695D01*
X162137548Y-95931848D01*
X162137548Y-95931851D01*
X162147858Y-96110658D01*
X162150110Y-96149715D01*
X162151247Y-96154761D01*
X162151248Y-96154767D01*
X162171119Y-96242939D01*
X162199222Y-96367639D01*
X162236570Y-96459616D01*
X162278088Y-96561863D01*
X162283266Y-96574616D01*
X162324252Y-96641500D01*
X162394539Y-96756197D01*
X162399987Y-96765088D01*
X162546250Y-96933938D01*
X162718126Y-97076632D01*
X162769960Y-97106921D01*
X162791955Y-97119774D01*
X162840679Y-97171412D01*
X162853750Y-97241195D01*
X162827019Y-97306967D01*
X162786562Y-97340327D01*
X162778457Y-97344546D01*
X162769738Y-97350036D01*
X162599433Y-97477905D01*
X162591726Y-97484748D01*
X162444590Y-97638717D01*
X162438104Y-97646727D01*
X162318098Y-97822649D01*
X162313000Y-97831623D01*
X162223338Y-98024783D01*
X162219775Y-98034470D01*
X162164389Y-98234183D01*
X162165912Y-98242607D01*
X162178292Y-98246000D01*
X164818344Y-98246000D01*
X164831875Y-98242027D01*
X164833180Y-98232947D01*
X164791214Y-98065875D01*
X164787894Y-98056124D01*
X164702972Y-97860814D01*
X164698105Y-97851739D01*
X164582426Y-97672926D01*
X164576136Y-97664757D01*
X164432806Y-97507240D01*
X164425273Y-97500215D01*
X164258139Y-97368222D01*
X164249556Y-97362520D01*
X164212602Y-97342120D01*
X164162631Y-97291687D01*
X164147859Y-97222245D01*
X164172975Y-97155839D01*
X164200327Y-97129232D01*
X164231606Y-97106921D01*
X164379860Y-97001173D01*
X164419540Y-96961632D01*
X164492254Y-96889171D01*
X164538096Y-96843489D01*
X164597594Y-96760689D01*
X164665435Y-96666277D01*
X164668453Y-96662077D01*
X164674379Y-96650088D01*
X164765136Y-96466453D01*
X164765137Y-96466451D01*
X164767430Y-96461811D01*
X164808142Y-96327811D01*
X164830865Y-96253023D01*
X164830865Y-96253021D01*
X164832370Y-96248069D01*
X164861529Y-96026590D01*
X164862417Y-95990237D01*
X164863074Y-95963365D01*
X164863074Y-95963361D01*
X164863156Y-95960000D01*
X164844852Y-95737361D01*
X164790431Y-95520702D01*
X164701354Y-95315840D01*
X164624144Y-95196492D01*
X164582822Y-95132617D01*
X164582820Y-95132614D01*
X164580014Y-95128277D01*
X164429670Y-94963051D01*
X164425619Y-94959852D01*
X164425615Y-94959848D01*
X164258414Y-94827800D01*
X164258410Y-94827798D01*
X164254359Y-94824598D01*
X164213053Y-94801796D01*
X164163084Y-94751364D01*
X164148312Y-94681921D01*
X164173428Y-94615516D01*
X164200780Y-94588909D01*
X164244603Y-94557650D01*
X164379860Y-94461173D01*
X164419540Y-94421632D01*
X164492254Y-94349171D01*
X164538096Y-94303489D01*
X164597594Y-94220689D01*
X164665435Y-94126277D01*
X164668453Y-94122077D01*
X164674379Y-94110088D01*
X164765136Y-93926453D01*
X164765137Y-93926451D01*
X164767430Y-93921811D01*
X164803875Y-93801857D01*
X164830865Y-93713023D01*
X164830865Y-93713021D01*
X164832370Y-93708069D01*
X164861529Y-93486590D01*
X164863156Y-93420000D01*
X164844852Y-93197361D01*
X164790431Y-92980702D01*
X164701354Y-92775840D01*
X164608093Y-92631680D01*
X164582822Y-92592617D01*
X164582820Y-92592614D01*
X164580014Y-92588277D01*
X164429670Y-92423051D01*
X164425619Y-92419852D01*
X164425615Y-92419848D01*
X164258414Y-92287800D01*
X164258410Y-92287798D01*
X164254359Y-92284598D01*
X164213053Y-92261796D01*
X164163084Y-92211364D01*
X164148312Y-92141921D01*
X164173428Y-92075516D01*
X164200780Y-92048909D01*
X164263350Y-92004278D01*
X164379860Y-91921173D01*
X164490787Y-91810633D01*
X164553156Y-91776718D01*
X164623963Y-91781906D01*
X164668820Y-91810790D01*
X165584595Y-92726565D01*
X165618621Y-92788877D01*
X165621500Y-92815660D01*
X165621500Y-106214340D01*
X165601498Y-106282461D01*
X165584595Y-106303435D01*
X164893435Y-106994595D01*
X164831123Y-107028621D01*
X164804340Y-107031500D01*
X164753286Y-107031500D01*
X164685165Y-107011498D01*
X164647494Y-106973941D01*
X164618885Y-106929718D01*
X164605014Y-106908277D01*
X164601540Y-106904459D01*
X164601533Y-106904450D01*
X164457435Y-106746088D01*
X164426383Y-106682242D01*
X164434779Y-106611744D01*
X164479956Y-106556976D01*
X164506400Y-106543307D01*
X164613052Y-106503325D01*
X164628649Y-106494786D01*
X164730724Y-106418285D01*
X164743285Y-106405724D01*
X164819786Y-106303649D01*
X164828324Y-106288054D01*
X164873478Y-106167606D01*
X164877105Y-106152351D01*
X164882631Y-106101486D01*
X164883000Y-106094672D01*
X164883000Y-105472115D01*
X164878525Y-105456876D01*
X164877135Y-105455671D01*
X164869452Y-105454000D01*
X162185116Y-105454000D01*
X162169877Y-105458475D01*
X162168672Y-105459865D01*
X162167001Y-105467548D01*
X162167001Y-106094669D01*
X162167371Y-106101490D01*
X162172895Y-106152352D01*
X162176521Y-106167604D01*
X162221676Y-106288054D01*
X162230214Y-106303649D01*
X162306715Y-106405724D01*
X162319276Y-106418285D01*
X162421351Y-106494786D01*
X162436946Y-106503324D01*
X162545827Y-106544142D01*
X162602591Y-106586784D01*
X162627291Y-106653345D01*
X162612083Y-106722694D01*
X162592691Y-106749175D01*
X162562898Y-106780352D01*
X162465629Y-106882138D01*
X162339743Y-107066680D01*
X162332887Y-107081450D01*
X162263527Y-107230875D01*
X162245688Y-107269305D01*
X162185989Y-107484570D01*
X162177351Y-107565405D01*
X162176626Y-107572185D01*
X162149498Y-107637794D01*
X162091206Y-107678323D01*
X162020256Y-107680902D01*
X161974122Y-107658363D01*
X161971577Y-107656388D01*
X161962551Y-107648680D01*
X161936100Y-107623841D01*
X161930321Y-107618414D01*
X161923375Y-107614595D01*
X161923372Y-107614593D01*
X161912566Y-107608652D01*
X161896047Y-107597801D01*
X161895583Y-107597441D01*
X161880041Y-107585386D01*
X161872772Y-107582241D01*
X161872768Y-107582238D01*
X161839463Y-107567826D01*
X161828813Y-107562609D01*
X161790060Y-107541305D01*
X161770437Y-107536267D01*
X161751734Y-107529863D01*
X161740420Y-107524967D01*
X161740419Y-107524967D01*
X161733145Y-107521819D01*
X161725322Y-107520580D01*
X161725312Y-107520577D01*
X161689476Y-107514901D01*
X161677856Y-107512495D01*
X161642711Y-107503472D01*
X161642710Y-107503472D01*
X161635030Y-107501500D01*
X161614776Y-107501500D01*
X161595065Y-107499949D01*
X161582886Y-107498020D01*
X161575057Y-107496780D01*
X161567165Y-107497526D01*
X161531039Y-107500941D01*
X161519181Y-107501500D01*
X152954500Y-107501500D01*
X152886379Y-107481498D01*
X152839886Y-107427842D01*
X152828500Y-107375500D01*
X152828500Y-104927885D01*
X162167000Y-104927885D01*
X162171475Y-104943124D01*
X162172865Y-104944329D01*
X162180548Y-104946000D01*
X163252885Y-104946000D01*
X163268124Y-104941525D01*
X163269329Y-104940135D01*
X163271000Y-104932452D01*
X163271000Y-104927885D01*
X163779000Y-104927885D01*
X163783475Y-104943124D01*
X163784865Y-104944329D01*
X163792548Y-104946000D01*
X164864884Y-104946000D01*
X164880123Y-104941525D01*
X164881328Y-104940135D01*
X164882999Y-104932452D01*
X164882999Y-104305331D01*
X164882629Y-104298510D01*
X164877105Y-104247648D01*
X164873479Y-104232396D01*
X164828324Y-104111946D01*
X164819786Y-104096351D01*
X164743285Y-103994276D01*
X164730724Y-103981715D01*
X164628649Y-103905214D01*
X164613054Y-103896676D01*
X164492606Y-103851522D01*
X164477351Y-103847895D01*
X164426486Y-103842369D01*
X164419672Y-103842000D01*
X163797115Y-103842000D01*
X163781876Y-103846475D01*
X163780671Y-103847865D01*
X163779000Y-103855548D01*
X163779000Y-104927885D01*
X163271000Y-104927885D01*
X163271000Y-103860116D01*
X163266525Y-103844877D01*
X163265135Y-103843672D01*
X163257452Y-103842001D01*
X162630331Y-103842001D01*
X162623510Y-103842371D01*
X162572648Y-103847895D01*
X162557396Y-103851521D01*
X162436946Y-103896676D01*
X162421351Y-103905214D01*
X162319276Y-103981715D01*
X162306715Y-103994276D01*
X162230214Y-104096351D01*
X162221676Y-104111946D01*
X162176522Y-104232394D01*
X162172895Y-104247649D01*
X162167369Y-104298514D01*
X162167000Y-104305328D01*
X162167000Y-104927885D01*
X152828500Y-104927885D01*
X152828500Y-103899594D01*
X152848502Y-103831473D01*
X152865405Y-103810499D01*
X153892247Y-102783657D01*
X153900537Y-102776113D01*
X153907018Y-102772000D01*
X153953659Y-102722332D01*
X153956413Y-102719491D01*
X153976135Y-102699769D01*
X153978619Y-102696567D01*
X153986317Y-102687555D01*
X154011161Y-102661098D01*
X154016586Y-102655321D01*
X154026347Y-102637566D01*
X154037198Y-102621047D01*
X154049614Y-102605041D01*
X154067174Y-102564463D01*
X154072391Y-102553813D01*
X154093695Y-102515060D01*
X154098733Y-102495437D01*
X154105137Y-102476734D01*
X154110033Y-102465420D01*
X154110033Y-102465419D01*
X154113181Y-102458145D01*
X154114420Y-102450322D01*
X154114423Y-102450312D01*
X154120099Y-102414476D01*
X154122505Y-102402856D01*
X154131528Y-102367711D01*
X154131528Y-102367710D01*
X154133500Y-102360030D01*
X154133500Y-102339776D01*
X154135051Y-102320065D01*
X154136980Y-102307886D01*
X154138220Y-102300057D01*
X154134059Y-102256038D01*
X154133500Y-102244181D01*
X154133500Y-101006695D01*
X162137251Y-101006695D01*
X162137548Y-101011848D01*
X162137548Y-101011851D01*
X162143011Y-101106590D01*
X162150110Y-101229715D01*
X162151247Y-101234761D01*
X162151248Y-101234767D01*
X162155470Y-101253500D01*
X162199222Y-101447639D01*
X162283266Y-101654616D01*
X162312680Y-101702616D01*
X162388588Y-101826486D01*
X162399987Y-101845088D01*
X162546250Y-102013938D01*
X162718126Y-102156632D01*
X162911000Y-102269338D01*
X162915825Y-102271180D01*
X162915826Y-102271181D01*
X162945811Y-102282631D01*
X163119692Y-102349030D01*
X163124760Y-102350061D01*
X163124763Y-102350062D01*
X163173758Y-102360030D01*
X163338597Y-102393567D01*
X163343772Y-102393757D01*
X163343774Y-102393757D01*
X163556673Y-102401564D01*
X163556677Y-102401564D01*
X163561837Y-102401753D01*
X163566957Y-102401097D01*
X163566959Y-102401097D01*
X163778288Y-102374025D01*
X163778289Y-102374025D01*
X163783416Y-102373368D01*
X163827874Y-102360030D01*
X163992429Y-102310661D01*
X163992434Y-102310659D01*
X163997384Y-102309174D01*
X164197994Y-102210896D01*
X164379860Y-102081173D01*
X164396049Y-102065041D01*
X164495618Y-101965819D01*
X164538096Y-101923489D01*
X164553456Y-101902114D01*
X164665435Y-101746277D01*
X164668453Y-101742077D01*
X164691750Y-101694940D01*
X164765136Y-101546453D01*
X164765137Y-101546451D01*
X164767430Y-101541811D01*
X164832370Y-101328069D01*
X164861529Y-101106590D01*
X164863156Y-101040000D01*
X164844852Y-100817361D01*
X164790431Y-100600702D01*
X164701354Y-100395840D01*
X164580014Y-100208277D01*
X164429670Y-100043051D01*
X164425619Y-100039852D01*
X164425615Y-100039848D01*
X164258414Y-99907800D01*
X164258410Y-99907798D01*
X164254359Y-99904598D01*
X164212569Y-99881529D01*
X164162598Y-99831097D01*
X164147826Y-99761654D01*
X164172942Y-99695248D01*
X164200294Y-99668641D01*
X164375328Y-99543792D01*
X164383200Y-99537139D01*
X164534052Y-99386812D01*
X164540730Y-99378965D01*
X164665003Y-99206020D01*
X164670313Y-99197183D01*
X164764670Y-99006267D01*
X164768469Y-98996672D01*
X164830377Y-98792910D01*
X164832555Y-98782837D01*
X164833986Y-98771962D01*
X164831775Y-98757778D01*
X164818617Y-98754000D01*
X162183225Y-98754000D01*
X162169694Y-98757973D01*
X162168257Y-98767966D01*
X162198565Y-98902446D01*
X162201645Y-98912275D01*
X162281770Y-99109603D01*
X162286413Y-99118794D01*
X162397694Y-99300388D01*
X162403777Y-99308699D01*
X162543213Y-99469667D01*
X162550580Y-99476883D01*
X162714434Y-99612916D01*
X162722881Y-99618831D01*
X162791969Y-99659203D01*
X162840693Y-99710842D01*
X162853764Y-99780625D01*
X162827033Y-99846396D01*
X162786584Y-99879752D01*
X162773607Y-99886507D01*
X162769474Y-99889610D01*
X162769471Y-99889612D01*
X162616529Y-100004444D01*
X162594965Y-100020635D01*
X162440629Y-100182138D01*
X162437715Y-100186410D01*
X162437714Y-100186411D01*
X162433101Y-100193173D01*
X162314743Y-100366680D01*
X162299003Y-100400590D01*
X162248493Y-100509405D01*
X162220688Y-100569305D01*
X162160989Y-100784570D01*
X162137251Y-101006695D01*
X154133500Y-101006695D01*
X154133500Y-96118763D01*
X154134027Y-96107579D01*
X154135701Y-96100091D01*
X154133562Y-96032032D01*
X154133500Y-96028075D01*
X154133500Y-96000144D01*
X154132994Y-95996138D01*
X154132061Y-95984292D01*
X154132053Y-95984016D01*
X154130673Y-95940110D01*
X154125022Y-95920658D01*
X154121014Y-95901306D01*
X154119467Y-95889063D01*
X154118474Y-95881203D01*
X154105473Y-95848365D01*
X154102200Y-95840097D01*
X154098355Y-95828870D01*
X154093365Y-95811695D01*
X154086018Y-95786407D01*
X154081984Y-95779585D01*
X154081981Y-95779579D01*
X154075706Y-95768968D01*
X154067010Y-95751218D01*
X154062472Y-95739756D01*
X154062469Y-95739751D01*
X154059552Y-95732383D01*
X154039345Y-95704570D01*
X154033573Y-95696625D01*
X154027057Y-95686707D01*
X154016005Y-95668019D01*
X154004542Y-95648637D01*
X153990218Y-95634313D01*
X153977376Y-95619278D01*
X153965472Y-95602893D01*
X153931406Y-95574711D01*
X153922627Y-95566722D01*
X152604905Y-94249000D01*
X152570879Y-94186688D01*
X152568000Y-94159905D01*
X152568000Y-93172524D01*
X152588002Y-93104403D01*
X152600358Y-93088221D01*
X152673540Y-93006944D01*
X152769027Y-92841556D01*
X152828042Y-92659928D01*
X152830518Y-92636375D01*
X152847314Y-92476565D01*
X152848004Y-92470000D01*
X152828042Y-92280072D01*
X152769027Y-92098444D01*
X152764060Y-92089840D01*
X152714660Y-92004278D01*
X152673540Y-91933056D01*
X152660681Y-91918774D01*
X152550175Y-91796045D01*
X152550174Y-91796044D01*
X152545753Y-91791134D01*
X152440891Y-91714947D01*
X152396594Y-91682763D01*
X152396593Y-91682762D01*
X152391252Y-91678882D01*
X152385224Y-91676198D01*
X152385222Y-91676197D01*
X152222819Y-91603891D01*
X152222818Y-91603891D01*
X152216788Y-91601206D01*
X152116241Y-91579834D01*
X152036444Y-91562872D01*
X152036439Y-91562872D01*
X152029987Y-91561500D01*
X151839013Y-91561500D01*
X151832561Y-91562872D01*
X151832556Y-91562872D01*
X151752759Y-91579834D01*
X151652212Y-91601206D01*
X151646182Y-91603891D01*
X151646181Y-91603891D01*
X151483778Y-91676197D01*
X151483776Y-91676198D01*
X151477748Y-91678882D01*
X151472407Y-91682762D01*
X151472406Y-91682763D01*
X151428109Y-91714947D01*
X151323247Y-91791134D01*
X151318826Y-91796044D01*
X151318825Y-91796045D01*
X151208320Y-91918774D01*
X151195460Y-91933056D01*
X151099973Y-92098444D01*
X151098147Y-92097389D01*
X151058567Y-92143944D01*
X150990637Y-92164586D01*
X150922332Y-92145226D01*
X150874345Y-92089840D01*
X150872068Y-92084725D01*
X150870027Y-92078444D01*
X150857062Y-92055987D01*
X150801786Y-91960248D01*
X150774540Y-91913056D01*
X150682460Y-91810790D01*
X150651175Y-91776045D01*
X150651174Y-91776044D01*
X150646753Y-91771134D01*
X150492252Y-91658882D01*
X150486224Y-91656198D01*
X150486222Y-91656197D01*
X150323819Y-91583891D01*
X150323818Y-91583891D01*
X150317788Y-91581206D01*
X150224388Y-91561353D01*
X150137444Y-91542872D01*
X150137439Y-91542872D01*
X150130987Y-91541500D01*
X149940013Y-91541500D01*
X149933561Y-91542872D01*
X149933556Y-91542872D01*
X149846612Y-91561353D01*
X149753212Y-91581206D01*
X149747182Y-91583891D01*
X149747181Y-91583891D01*
X149584778Y-91656197D01*
X149584776Y-91656198D01*
X149578748Y-91658882D01*
X149424247Y-91771134D01*
X149419826Y-91776044D01*
X149419825Y-91776045D01*
X149388541Y-91810790D01*
X149296460Y-91913056D01*
X149246700Y-91999242D01*
X149213939Y-92055987D01*
X149200973Y-92078444D01*
X149141958Y-92260072D01*
X149141268Y-92266633D01*
X149141268Y-92266635D01*
X149125165Y-92419848D01*
X149121996Y-92450000D01*
X149141958Y-92639928D01*
X149200973Y-92821556D01*
X149204276Y-92827278D01*
X149204277Y-92827279D01*
X149208891Y-92835271D01*
X149296460Y-92986944D01*
X149369637Y-93068215D01*
X149400353Y-93132221D01*
X149402000Y-93152524D01*
X149402000Y-95106733D01*
X149401473Y-95117916D01*
X149399798Y-95125409D01*
X149400047Y-95133335D01*
X149400047Y-95133336D01*
X149401938Y-95193486D01*
X149402000Y-95197445D01*
X149402000Y-95225356D01*
X149402497Y-95229290D01*
X149402497Y-95229291D01*
X149402505Y-95229356D01*
X149403438Y-95241193D01*
X149404827Y-95285389D01*
X149410478Y-95304839D01*
X149414487Y-95324200D01*
X149417026Y-95344297D01*
X149419945Y-95351668D01*
X149419945Y-95351670D01*
X149433304Y-95385412D01*
X149437149Y-95396642D01*
X149449482Y-95439093D01*
X149453515Y-95445912D01*
X149453517Y-95445917D01*
X149459793Y-95456528D01*
X149468488Y-95474276D01*
X149475948Y-95493117D01*
X149480610Y-95499533D01*
X149480610Y-95499534D01*
X149501936Y-95528887D01*
X149508452Y-95538807D01*
X149530958Y-95576862D01*
X149545279Y-95591183D01*
X149558119Y-95606216D01*
X149570028Y-95622607D01*
X149576133Y-95627658D01*
X149576138Y-95627663D01*
X149604104Y-95650799D01*
X149612882Y-95658787D01*
X150409595Y-96455500D01*
X150443621Y-96517812D01*
X150446500Y-96544595D01*
X150446500Y-96561863D01*
X150426498Y-96629984D01*
X150372842Y-96676477D01*
X150302568Y-96686581D01*
X150285385Y-96682585D01*
X150282288Y-96681206D01*
X150170469Y-96657438D01*
X150101944Y-96642872D01*
X150101939Y-96642872D01*
X150095487Y-96641500D01*
X149904513Y-96641500D01*
X149898061Y-96642872D01*
X149898056Y-96642872D01*
X149829531Y-96657438D01*
X149717712Y-96681206D01*
X149711682Y-96683891D01*
X149711681Y-96683891D01*
X149549278Y-96756197D01*
X149549276Y-96756198D01*
X149543248Y-96758882D01*
X149537907Y-96762762D01*
X149537906Y-96762763D01*
X149487843Y-96799136D01*
X149388747Y-96871134D01*
X149384326Y-96876044D01*
X149384325Y-96876045D01*
X149274941Y-96997529D01*
X149260960Y-97013056D01*
X149165473Y-97178444D01*
X149106458Y-97360072D01*
X149086496Y-97550000D01*
X149087186Y-97556565D01*
X149102229Y-97699687D01*
X149106458Y-97739928D01*
X149165473Y-97921556D01*
X149260960Y-98086944D01*
X149265378Y-98091851D01*
X149265379Y-98091852D01*
X149328866Y-98162361D01*
X149388747Y-98228866D01*
X149543248Y-98341118D01*
X149549281Y-98343804D01*
X149549286Y-98343807D01*
X149611749Y-98371618D01*
X149665845Y-98417598D01*
X149686500Y-98486724D01*
X149686500Y-99105405D01*
X149666498Y-99173526D01*
X149649595Y-99194500D01*
X148894500Y-99949595D01*
X148832188Y-99983621D01*
X148805405Y-99986500D01*
X148018768Y-99986500D01*
X148007585Y-99985973D01*
X148000092Y-99984298D01*
X147992166Y-99984547D01*
X147992165Y-99984547D01*
X147932002Y-99986438D01*
X147928044Y-99986500D01*
X147900144Y-99986500D01*
X147896154Y-99987004D01*
X147884320Y-99987936D01*
X147840111Y-99989326D01*
X147832497Y-99991538D01*
X147832492Y-99991539D01*
X147820659Y-99994977D01*
X147801296Y-99998988D01*
X147781203Y-100001526D01*
X147773836Y-100004443D01*
X147773831Y-100004444D01*
X147740092Y-100017802D01*
X147728865Y-100021646D01*
X147686407Y-100033982D01*
X147679581Y-100038019D01*
X147668972Y-100044293D01*
X147651224Y-100052988D01*
X147632383Y-100060448D01*
X147625967Y-100065110D01*
X147625966Y-100065110D01*
X147596613Y-100086436D01*
X147586693Y-100092952D01*
X147555465Y-100111420D01*
X147555462Y-100111422D01*
X147548638Y-100115458D01*
X147534317Y-100129779D01*
X147519284Y-100142619D01*
X147502893Y-100154528D01*
X147480052Y-100182138D01*
X147474702Y-100188605D01*
X147466712Y-100197384D01*
X146237747Y-101426348D01*
X146229461Y-101433888D01*
X146222982Y-101438000D01*
X146217557Y-101443777D01*
X146176357Y-101487651D01*
X146173602Y-101490493D01*
X146153865Y-101510230D01*
X146151385Y-101513427D01*
X146143682Y-101522447D01*
X146113414Y-101554679D01*
X146109595Y-101561625D01*
X146109593Y-101561628D01*
X146103652Y-101572434D01*
X146092801Y-101588953D01*
X146080386Y-101604959D01*
X146077241Y-101612228D01*
X146077238Y-101612232D01*
X146062826Y-101645537D01*
X146057609Y-101656187D01*
X146036305Y-101694940D01*
X146034334Y-101702615D01*
X146034334Y-101702616D01*
X146031267Y-101714562D01*
X146024863Y-101733266D01*
X146016819Y-101751855D01*
X146015580Y-101759678D01*
X146015577Y-101759688D01*
X146009901Y-101795524D01*
X146007495Y-101807144D01*
X146004279Y-101819672D01*
X145996500Y-101849970D01*
X145996500Y-101870224D01*
X145994949Y-101889934D01*
X145991780Y-101909943D01*
X145992526Y-101917835D01*
X145995941Y-101953961D01*
X145996500Y-101965819D01*
X145996500Y-104797976D01*
X145976498Y-104866097D01*
X145964142Y-104882279D01*
X145890960Y-104963556D01*
X145887659Y-104969274D01*
X145799687Y-105121646D01*
X145795473Y-105128944D01*
X145736458Y-105310572D01*
X145735768Y-105317133D01*
X145735768Y-105317135D01*
X145721383Y-105454000D01*
X145716496Y-105500500D01*
X145717186Y-105507065D01*
X145730260Y-105631453D01*
X145736458Y-105690428D01*
X145795473Y-105872056D01*
X145890960Y-106037444D01*
X145895378Y-106042351D01*
X145895379Y-106042352D01*
X146003587Y-106162529D01*
X146018747Y-106179366D01*
X146108041Y-106244242D01*
X146160645Y-106282461D01*
X146173248Y-106291618D01*
X146179276Y-106294302D01*
X146179278Y-106294303D01*
X146273857Y-106336412D01*
X146347712Y-106369294D01*
X146441112Y-106389147D01*
X146528056Y-106407628D01*
X146528061Y-106407628D01*
X146534513Y-106409000D01*
X146725487Y-106409000D01*
X146731939Y-106407628D01*
X146731944Y-106407628D01*
X146818888Y-106389147D01*
X146912288Y-106369294D01*
X146986143Y-106336412D01*
X147080722Y-106294303D01*
X147080724Y-106294302D01*
X147086752Y-106291618D01*
X147099356Y-106282461D01*
X147151959Y-106244242D01*
X147241253Y-106179366D01*
X147256413Y-106162529D01*
X147364621Y-106042352D01*
X147364622Y-106042351D01*
X147369040Y-106037444D01*
X147464527Y-105872056D01*
X147523542Y-105690428D01*
X147529741Y-105631453D01*
X147542814Y-105507065D01*
X147543504Y-105500500D01*
X147538617Y-105454000D01*
X147524232Y-105317135D01*
X147524232Y-105317133D01*
X147523542Y-105310572D01*
X147464527Y-105128944D01*
X147460314Y-105121646D01*
X147372341Y-104969274D01*
X147369040Y-104963556D01*
X147295863Y-104882285D01*
X147265147Y-104818279D01*
X147263500Y-104797976D01*
X147263500Y-104344300D01*
X147283502Y-104276179D01*
X147337158Y-104229686D01*
X147407432Y-104219582D01*
X147463561Y-104242364D01*
X147603864Y-104344300D01*
X147613248Y-104351118D01*
X147619276Y-104353802D01*
X147619278Y-104353803D01*
X147781681Y-104426109D01*
X147787712Y-104428794D01*
X147875251Y-104447401D01*
X147968056Y-104467128D01*
X147968061Y-104467128D01*
X147974513Y-104468500D01*
X148165487Y-104468500D01*
X148171939Y-104467128D01*
X148171944Y-104467128D01*
X148264749Y-104447401D01*
X148352288Y-104428794D01*
X148358319Y-104426109D01*
X148520722Y-104353803D01*
X148520724Y-104353802D01*
X148526752Y-104351118D01*
X148681253Y-104238866D01*
X148687079Y-104232396D01*
X148804621Y-104101852D01*
X148804622Y-104101851D01*
X148809040Y-104096944D01*
X148904527Y-103931556D01*
X148963542Y-103749928D01*
X148983504Y-103560000D01*
X148963542Y-103370072D01*
X148904527Y-103188444D01*
X148895379Y-103172599D01*
X148878640Y-103103604D01*
X148901859Y-103036511D01*
X148915402Y-103020502D01*
X150146135Y-101789769D01*
X151211405Y-100724500D01*
X151273717Y-100690474D01*
X151344532Y-100695539D01*
X151401368Y-100738086D01*
X151426179Y-100804606D01*
X151426500Y-100813595D01*
X151426500Y-101425405D01*
X151406498Y-101493526D01*
X151389595Y-101514501D01*
X150976958Y-101927137D01*
X150567742Y-102336353D01*
X150559463Y-102343887D01*
X150552982Y-102348000D01*
X150530555Y-102371883D01*
X150506357Y-102397651D01*
X150503602Y-102400493D01*
X150483865Y-102420230D01*
X150481385Y-102423427D01*
X150473682Y-102432447D01*
X150443414Y-102464679D01*
X150439595Y-102471625D01*
X150439593Y-102471628D01*
X150433652Y-102482434D01*
X150422801Y-102498953D01*
X150410386Y-102514959D01*
X150407241Y-102522228D01*
X150407238Y-102522232D01*
X150392826Y-102555537D01*
X150387609Y-102566187D01*
X150366305Y-102604940D01*
X150364334Y-102612615D01*
X150364334Y-102612616D01*
X150361267Y-102624562D01*
X150354863Y-102643266D01*
X150346819Y-102661855D01*
X150345580Y-102669678D01*
X150345577Y-102669688D01*
X150339901Y-102705524D01*
X150337495Y-102717144D01*
X150328472Y-102752289D01*
X150326500Y-102759970D01*
X150326500Y-102780224D01*
X150324949Y-102799934D01*
X150321780Y-102819943D01*
X150322526Y-102827835D01*
X150325941Y-102863961D01*
X150326500Y-102875819D01*
X150326500Y-107565405D01*
X150306498Y-107633526D01*
X150289595Y-107654501D01*
X149962275Y-107981820D01*
X149899963Y-108015845D01*
X149829147Y-108010780D01*
X149821931Y-108007831D01*
X149678319Y-107943891D01*
X149678318Y-107943891D01*
X149672288Y-107941206D01*
X149567818Y-107919000D01*
X149491944Y-107902872D01*
X149491939Y-107902872D01*
X149485487Y-107901500D01*
X149294513Y-107901500D01*
X149288061Y-107902872D01*
X149288056Y-107902872D01*
X149212182Y-107919000D01*
X149107712Y-107941206D01*
X149101682Y-107943891D01*
X149101681Y-107943891D01*
X148939278Y-108016197D01*
X148939276Y-108016198D01*
X148933248Y-108018882D01*
X148778747Y-108131134D01*
X148650960Y-108273056D01*
X148628741Y-108311541D01*
X148566013Y-108420189D01*
X148555473Y-108438444D01*
X148496458Y-108620072D01*
X148495768Y-108626633D01*
X148495768Y-108626635D01*
X148477186Y-108803435D01*
X148476496Y-108810000D01*
X148477186Y-108816565D01*
X148492434Y-108961638D01*
X148496458Y-108999928D01*
X148555473Y-109181556D01*
X148650960Y-109346944D01*
X148655378Y-109351851D01*
X148655379Y-109351852D01*
X148678578Y-109377617D01*
X148778747Y-109488866D01*
X148933248Y-109601118D01*
X148939276Y-109603802D01*
X148939278Y-109603803D01*
X149062730Y-109658767D01*
X149107712Y-109678794D01*
X149179166Y-109693982D01*
X149288056Y-109717128D01*
X149288061Y-109717128D01*
X149294513Y-109718500D01*
X149485487Y-109718500D01*
X149491946Y-109717127D01*
X149491947Y-109717127D01*
X149502435Y-109714898D01*
X149573226Y-109720301D01*
X149629858Y-109763118D01*
X149648464Y-109799209D01*
X149655427Y-109820637D01*
X149665473Y-109851556D01*
X149760960Y-110016944D01*
X149888747Y-110158866D01*
X150043248Y-110271118D01*
X150049276Y-110273802D01*
X150049278Y-110273803D01*
X150211681Y-110346109D01*
X150217712Y-110348794D01*
X150311113Y-110368647D01*
X150398056Y-110387128D01*
X150398061Y-110387128D01*
X150404513Y-110388500D01*
X150595487Y-110388500D01*
X150601939Y-110387128D01*
X150601944Y-110387128D01*
X150688887Y-110368647D01*
X150782288Y-110348794D01*
X150788319Y-110346109D01*
X150950722Y-110273803D01*
X150950724Y-110273802D01*
X150956752Y-110271118D01*
X151111253Y-110158866D01*
X151239040Y-110016944D01*
X151271837Y-109960138D01*
X151291861Y-109934043D01*
X152420499Y-108805405D01*
X152482811Y-108771379D01*
X152509594Y-108768500D01*
X161240406Y-108768500D01*
X161308527Y-108788502D01*
X161329501Y-108805405D01*
X161955722Y-109431626D01*
X161989748Y-109493938D01*
X161984683Y-109564753D01*
X161942136Y-109621589D01*
X161874542Y-109646472D01*
X161874097Y-109646500D01*
X161870144Y-109646500D01*
X161866138Y-109647006D01*
X161854296Y-109647939D01*
X161810110Y-109649327D01*
X161792744Y-109654372D01*
X161790658Y-109654978D01*
X161771306Y-109658986D01*
X161764235Y-109659880D01*
X161751203Y-109661526D01*
X161743834Y-109664443D01*
X161743832Y-109664444D01*
X161710097Y-109677800D01*
X161698869Y-109681645D01*
X161656407Y-109693982D01*
X161649585Y-109698016D01*
X161649579Y-109698019D01*
X161638968Y-109704294D01*
X161621218Y-109712990D01*
X161609756Y-109717528D01*
X161609751Y-109717531D01*
X161602383Y-109720448D01*
X161584970Y-109733099D01*
X161566625Y-109746427D01*
X161556707Y-109752943D01*
X161543162Y-109760954D01*
X161518637Y-109775458D01*
X161504313Y-109789782D01*
X161489281Y-109802621D01*
X161472893Y-109814528D01*
X161447459Y-109845272D01*
X161444712Y-109848593D01*
X161436722Y-109857373D01*
X159374500Y-111919595D01*
X159312188Y-111953621D01*
X159285405Y-111956500D01*
X149998768Y-111956500D01*
X149987585Y-111955973D01*
X149980092Y-111954298D01*
X149972166Y-111954547D01*
X149972165Y-111954547D01*
X149912002Y-111956438D01*
X149908044Y-111956500D01*
X149880144Y-111956500D01*
X149876154Y-111957004D01*
X149864320Y-111957936D01*
X149820111Y-111959326D01*
X149812495Y-111961539D01*
X149812493Y-111961539D01*
X149800652Y-111964979D01*
X149781293Y-111968988D01*
X149779983Y-111969154D01*
X149761203Y-111971526D01*
X149753837Y-111974442D01*
X149753831Y-111974444D01*
X149720098Y-111987800D01*
X149708868Y-111991645D01*
X149674017Y-112001770D01*
X149666407Y-112003981D01*
X149659584Y-112008016D01*
X149648966Y-112014295D01*
X149631213Y-112022992D01*
X149623568Y-112026019D01*
X149612383Y-112030448D01*
X149605968Y-112035109D01*
X149576612Y-112056437D01*
X149566695Y-112062951D01*
X149528638Y-112085458D01*
X149514317Y-112099779D01*
X149499284Y-112112619D01*
X149482893Y-112124528D01*
X149456516Y-112156413D01*
X149454712Y-112158593D01*
X149446722Y-112167374D01*
X148897742Y-112716353D01*
X148889463Y-112723887D01*
X148882982Y-112728000D01*
X148836357Y-112777651D01*
X148833602Y-112780493D01*
X148813865Y-112800230D01*
X148811385Y-112803427D01*
X148803682Y-112812447D01*
X148773414Y-112844679D01*
X148769595Y-112851625D01*
X148769593Y-112851628D01*
X148763652Y-112862434D01*
X148752801Y-112878953D01*
X148740386Y-112894959D01*
X148737241Y-112902228D01*
X148737238Y-112902232D01*
X148722826Y-112935537D01*
X148717609Y-112946187D01*
X148696305Y-112984940D01*
X148694334Y-112992615D01*
X148694334Y-112992616D01*
X148691267Y-113004562D01*
X148684863Y-113023266D01*
X148676819Y-113041855D01*
X148675580Y-113049678D01*
X148675577Y-113049688D01*
X148669901Y-113085524D01*
X148667495Y-113097144D01*
X148662385Y-113117048D01*
X148656500Y-113139970D01*
X148656500Y-113160224D01*
X148654949Y-113179934D01*
X148651780Y-113199943D01*
X148652526Y-113207835D01*
X148655941Y-113243961D01*
X148656500Y-113255819D01*
X148656500Y-113431692D01*
X148636498Y-113499813D01*
X148588683Y-113543453D01*
X148563607Y-113556507D01*
X148559474Y-113559610D01*
X148559471Y-113559612D01*
X148389100Y-113687530D01*
X148384965Y-113690635D01*
X148230629Y-113852138D01*
X148123201Y-114009621D01*
X148068293Y-114054621D01*
X147997768Y-114062792D01*
X147934021Y-114031538D01*
X147913324Y-114007054D01*
X147832822Y-113882617D01*
X147832820Y-113882614D01*
X147830014Y-113878277D01*
X147679670Y-113713051D01*
X147675619Y-113709852D01*
X147675615Y-113709848D01*
X147508414Y-113577800D01*
X147508410Y-113577798D01*
X147504359Y-113574598D01*
X147468028Y-113554542D01*
X147447945Y-113543456D01*
X147308789Y-113466638D01*
X147303920Y-113464914D01*
X147303916Y-113464912D01*
X147103087Y-113393795D01*
X147103083Y-113393794D01*
X147098212Y-113392069D01*
X147093119Y-113391162D01*
X147093116Y-113391161D01*
X146883373Y-113353800D01*
X146883367Y-113353799D01*
X146878284Y-113352894D01*
X146804452Y-113351992D01*
X146660081Y-113350228D01*
X146660079Y-113350228D01*
X146654911Y-113350165D01*
X146434091Y-113383955D01*
X146221756Y-113453357D01*
X146183058Y-113473502D01*
X146117017Y-113507881D01*
X146023607Y-113556507D01*
X146019474Y-113559610D01*
X146019471Y-113559612D01*
X145849100Y-113687530D01*
X145844965Y-113690635D01*
X145690629Y-113852138D01*
X145583201Y-114009621D01*
X145528293Y-114054621D01*
X145457768Y-114062792D01*
X145394021Y-114031538D01*
X145373324Y-114007054D01*
X145292822Y-113882617D01*
X145292820Y-113882614D01*
X145290014Y-113878277D01*
X145139670Y-113713051D01*
X145135619Y-113709852D01*
X145135615Y-113709848D01*
X144968414Y-113577800D01*
X144968410Y-113577798D01*
X144964359Y-113574598D01*
X144928028Y-113554542D01*
X144907945Y-113543456D01*
X144768789Y-113466638D01*
X144763920Y-113464914D01*
X144763916Y-113464912D01*
X144563087Y-113393795D01*
X144563083Y-113393794D01*
X144558212Y-113392069D01*
X144553119Y-113391162D01*
X144553116Y-113391161D01*
X144343373Y-113353800D01*
X144343367Y-113353799D01*
X144338284Y-113352894D01*
X144264452Y-113351992D01*
X144120081Y-113350228D01*
X144120079Y-113350228D01*
X144114911Y-113350165D01*
X143894091Y-113383955D01*
X143833644Y-113403712D01*
X143762682Y-113405863D01*
X143701820Y-113369307D01*
X143670383Y-113305650D01*
X143668500Y-113283947D01*
X143668500Y-89555660D01*
X143688502Y-89487539D01*
X143705405Y-89466565D01*
X144693053Y-88478918D01*
X167486917Y-88478918D01*
X167487334Y-88486156D01*
X167502682Y-88752320D01*
X167555405Y-89021053D01*
X167556792Y-89025103D01*
X167556793Y-89025108D01*
X167640355Y-89269171D01*
X167644112Y-89280144D01*
X167673238Y-89338054D01*
X167742837Y-89476437D01*
X167767160Y-89524799D01*
X167769586Y-89528328D01*
X167769589Y-89528334D01*
X167919843Y-89746953D01*
X167922274Y-89750490D01*
X167925161Y-89753663D01*
X167925162Y-89753664D01*
X168085393Y-89929757D01*
X168106582Y-89953043D01*
X168316675Y-90128707D01*
X168320316Y-90130991D01*
X168545024Y-90271951D01*
X168545028Y-90271953D01*
X168548664Y-90274234D01*
X168673460Y-90330582D01*
X168794345Y-90385164D01*
X168794349Y-90385166D01*
X168798257Y-90386930D01*
X168802377Y-90388150D01*
X168802376Y-90388150D01*
X169056723Y-90463491D01*
X169056727Y-90463492D01*
X169060836Y-90464709D01*
X169065070Y-90465357D01*
X169065075Y-90465358D01*
X169327298Y-90505483D01*
X169327300Y-90505483D01*
X169331540Y-90506132D01*
X169470912Y-90508322D01*
X169601071Y-90510367D01*
X169601077Y-90510367D01*
X169605362Y-90510434D01*
X169877235Y-90477534D01*
X170142127Y-90408041D01*
X170146087Y-90406401D01*
X170146092Y-90406399D01*
X170269358Y-90355340D01*
X170395136Y-90303241D01*
X170585261Y-90192141D01*
X170627879Y-90167237D01*
X170627880Y-90167236D01*
X170631582Y-90165073D01*
X170847089Y-89996094D01*
X170888809Y-89953043D01*
X170978358Y-89860635D01*
X171037669Y-89799431D01*
X171040202Y-89795983D01*
X171040206Y-89795978D01*
X171197257Y-89582178D01*
X171199795Y-89578723D01*
X171203463Y-89571967D01*
X171328418Y-89341830D01*
X171328419Y-89341828D01*
X171330468Y-89338054D01*
X171427269Y-89081877D01*
X171468173Y-88903279D01*
X171487449Y-88819117D01*
X171487450Y-88819113D01*
X171488407Y-88814933D01*
X171489772Y-88799648D01*
X171512531Y-88544627D01*
X171512531Y-88544625D01*
X171512751Y-88542161D01*
X171513193Y-88500000D01*
X171511465Y-88474648D01*
X171494859Y-88231055D01*
X171494858Y-88231049D01*
X171494567Y-88226778D01*
X171439032Y-87958612D01*
X171347617Y-87700465D01*
X171268615Y-87547401D01*
X171223978Y-87460919D01*
X171223978Y-87460918D01*
X171222013Y-87457112D01*
X171213734Y-87445331D01*
X171067008Y-87236562D01*
X171064545Y-87233057D01*
X170931235Y-87089598D01*
X170881046Y-87035588D01*
X170881043Y-87035585D01*
X170878125Y-87032445D01*
X170874810Y-87029731D01*
X170874806Y-87029728D01*
X170724946Y-86907069D01*
X170666205Y-86858990D01*
X170501847Y-86758272D01*
X170436366Y-86718145D01*
X170436365Y-86718145D01*
X170432704Y-86715901D01*
X170428768Y-86714173D01*
X170185873Y-86607549D01*
X170185869Y-86607548D01*
X170181945Y-86605825D01*
X169918566Y-86530800D01*
X169914324Y-86530196D01*
X169914318Y-86530195D01*
X169713834Y-86501662D01*
X169647443Y-86492213D01*
X169503589Y-86491460D01*
X169377877Y-86490802D01*
X169377871Y-86490802D01*
X169373591Y-86490780D01*
X169369347Y-86491339D01*
X169369343Y-86491339D01*
X169250302Y-86507011D01*
X169102078Y-86526525D01*
X169097938Y-86527658D01*
X169097936Y-86527658D01*
X169074918Y-86533955D01*
X168837928Y-86598788D01*
X168833980Y-86600472D01*
X168589982Y-86704546D01*
X168589978Y-86704548D01*
X168586030Y-86706232D01*
X168546039Y-86730166D01*
X168354725Y-86844664D01*
X168354721Y-86844667D01*
X168351043Y-86846868D01*
X168137318Y-87018094D01*
X168071833Y-87087101D01*
X167962295Y-87202530D01*
X167948808Y-87216742D01*
X167789002Y-87439136D01*
X167660857Y-87681161D01*
X167659385Y-87685184D01*
X167659383Y-87685188D01*
X167616872Y-87801355D01*
X167566743Y-87938337D01*
X167508404Y-88205907D01*
X167486917Y-88478918D01*
X144693053Y-88478918D01*
X145104086Y-88067885D01*
X162142000Y-88067885D01*
X162146475Y-88083124D01*
X162147865Y-88084329D01*
X162155548Y-88086000D01*
X163227885Y-88086000D01*
X163243124Y-88081525D01*
X163244329Y-88080135D01*
X163246000Y-88072452D01*
X163246000Y-88067885D01*
X163754000Y-88067885D01*
X163758475Y-88083124D01*
X163759865Y-88084329D01*
X163767548Y-88086000D01*
X164839884Y-88086000D01*
X164855123Y-88081525D01*
X164856328Y-88080135D01*
X164857999Y-88072452D01*
X164857999Y-87445331D01*
X164857629Y-87438510D01*
X164852105Y-87387648D01*
X164848479Y-87372396D01*
X164803324Y-87251946D01*
X164794786Y-87236351D01*
X164718285Y-87134276D01*
X164705724Y-87121715D01*
X164603649Y-87045214D01*
X164588054Y-87036676D01*
X164467606Y-86991522D01*
X164452351Y-86987895D01*
X164401486Y-86982369D01*
X164394672Y-86982000D01*
X163772115Y-86982000D01*
X163756876Y-86986475D01*
X163755671Y-86987865D01*
X163754000Y-86995548D01*
X163754000Y-88067885D01*
X163246000Y-88067885D01*
X163246000Y-87000116D01*
X163241525Y-86984877D01*
X163240135Y-86983672D01*
X163232452Y-86982001D01*
X162605331Y-86982001D01*
X162598510Y-86982371D01*
X162547648Y-86987895D01*
X162532396Y-86991521D01*
X162411946Y-87036676D01*
X162396351Y-87045214D01*
X162294276Y-87121715D01*
X162281715Y-87134276D01*
X162205214Y-87236351D01*
X162196676Y-87251946D01*
X162151522Y-87372394D01*
X162147895Y-87387649D01*
X162142369Y-87438514D01*
X162142000Y-87445328D01*
X162142000Y-88067885D01*
X145104086Y-88067885D01*
X145596566Y-87575405D01*
X145658878Y-87541379D01*
X145685661Y-87538500D01*
X148028595Y-87538500D01*
X148096716Y-87558502D01*
X148102656Y-87562564D01*
X148127811Y-87580840D01*
X148183248Y-87621118D01*
X148189276Y-87623802D01*
X148189278Y-87623803D01*
X148318107Y-87681161D01*
X148357712Y-87698794D01*
X148451112Y-87718647D01*
X148538056Y-87737128D01*
X148538061Y-87737128D01*
X148544513Y-87738500D01*
X148735487Y-87738500D01*
X148741939Y-87737128D01*
X148741944Y-87737128D01*
X148828888Y-87718647D01*
X148922288Y-87698794D01*
X148961893Y-87681161D01*
X149090722Y-87623803D01*
X149090724Y-87623802D01*
X149096752Y-87621118D01*
X149251253Y-87508866D01*
X149294425Y-87460919D01*
X149374621Y-87371852D01*
X149374622Y-87371851D01*
X149379040Y-87366944D01*
X149474527Y-87201556D01*
X149533542Y-87019928D01*
X149536105Y-86995548D01*
X149552814Y-86836565D01*
X149553504Y-86830000D01*
X149540647Y-86707670D01*
X149553419Y-86637832D01*
X149601921Y-86585985D01*
X149665957Y-86568500D01*
X150208595Y-86568500D01*
X150276716Y-86588502D01*
X150282656Y-86592564D01*
X150348045Y-86640072D01*
X150363248Y-86651118D01*
X150369276Y-86653802D01*
X150369278Y-86653803D01*
X150531681Y-86726109D01*
X150537712Y-86728794D01*
X150631112Y-86748647D01*
X150718056Y-86767128D01*
X150718061Y-86767128D01*
X150724513Y-86768500D01*
X150915487Y-86768500D01*
X150921939Y-86767128D01*
X150921944Y-86767128D01*
X151008888Y-86748647D01*
X151102288Y-86728794D01*
X151108319Y-86726109D01*
X151270722Y-86653803D01*
X151270724Y-86653802D01*
X151276752Y-86651118D01*
X151291956Y-86640072D01*
X151362935Y-86588502D01*
X151431253Y-86538866D01*
X151438516Y-86530800D01*
X151554621Y-86401852D01*
X151554622Y-86401851D01*
X151559040Y-86396944D01*
X151654527Y-86231556D01*
X151713542Y-86049928D01*
X151733504Y-85860000D01*
X151713542Y-85670072D01*
X151654527Y-85488444D01*
X151559040Y-85323056D01*
X151493538Y-85250308D01*
X151435675Y-85186045D01*
X151435674Y-85186044D01*
X151431253Y-85181134D01*
X151276752Y-85068882D01*
X151270724Y-85066198D01*
X151270722Y-85066197D01*
X151108319Y-84993891D01*
X151108318Y-84993891D01*
X151102288Y-84991206D01*
X151008887Y-84971353D01*
X150921944Y-84952872D01*
X150921939Y-84952872D01*
X150915487Y-84951500D01*
X150724513Y-84951500D01*
X150718061Y-84952872D01*
X150718056Y-84952872D01*
X150631113Y-84971353D01*
X150537712Y-84991206D01*
X150531682Y-84993891D01*
X150531681Y-84993891D01*
X150369278Y-85066197D01*
X150369276Y-85066198D01*
X150363248Y-85068882D01*
X150357907Y-85072762D01*
X150357906Y-85072763D01*
X150282656Y-85127436D01*
X150215789Y-85151294D01*
X150208595Y-85151500D01*
X144858927Y-85151500D01*
X144850358Y-85151208D01*
X144800225Y-85147790D01*
X144800221Y-85147790D01*
X144792648Y-85147274D01*
X144729681Y-85158264D01*
X144723169Y-85159224D01*
X144659758Y-85166898D01*
X144652657Y-85169581D01*
X144650048Y-85170222D01*
X144633715Y-85174691D01*
X144631195Y-85175452D01*
X144623717Y-85176757D01*
X144616765Y-85179809D01*
X144616764Y-85179809D01*
X144565204Y-85202441D01*
X144559099Y-85204932D01*
X144506456Y-85224825D01*
X144506452Y-85224827D01*
X144499344Y-85227513D01*
X144493083Y-85231816D01*
X144490717Y-85233053D01*
X144475937Y-85241280D01*
X144473652Y-85242631D01*
X144466695Y-85245685D01*
X144460675Y-85250305D01*
X144460669Y-85250308D01*
X144429542Y-85274194D01*
X144415998Y-85284587D01*
X144410668Y-85288459D01*
X144364280Y-85320339D01*
X144364275Y-85320344D01*
X144358019Y-85324643D01*
X144352968Y-85330313D01*
X144352966Y-85330314D01*
X144316565Y-85371170D01*
X144311584Y-85376446D01*
X141189480Y-88498550D01*
X141183215Y-88504404D01*
X141139615Y-88542439D01*
X141135248Y-88548653D01*
X141102872Y-88594719D01*
X141098939Y-88600014D01*
X141059524Y-88650282D01*
X141056401Y-88657198D01*
X141055017Y-88659484D01*
X141046643Y-88674165D01*
X141045378Y-88676525D01*
X141041010Y-88682739D01*
X141038250Y-88689818D01*
X141038249Y-88689820D01*
X141017798Y-88742275D01*
X141015247Y-88748344D01*
X140988955Y-88806573D01*
X140987571Y-88814040D01*
X140986770Y-88816595D01*
X140982141Y-88832848D01*
X140981478Y-88835428D01*
X140978718Y-88842509D01*
X140977727Y-88850040D01*
X140977726Y-88850042D01*
X140970379Y-88905852D01*
X140969348Y-88912359D01*
X140957704Y-88975186D01*
X140958141Y-88982766D01*
X140958141Y-88982767D01*
X140961291Y-89037392D01*
X140961500Y-89044646D01*
X140961500Y-113480114D01*
X140941498Y-113548235D01*
X140911153Y-113580874D01*
X140803113Y-113661993D01*
X140764965Y-113690635D01*
X140610629Y-113852138D01*
X140607720Y-113856403D01*
X140607714Y-113856411D01*
X140602372Y-113864242D01*
X140503204Y-114009618D01*
X140502898Y-114010066D01*
X140447987Y-114055069D01*
X140377462Y-114063240D01*
X140313715Y-114031986D01*
X140293018Y-114007502D01*
X140212426Y-113882926D01*
X140206136Y-113874757D01*
X140062806Y-113717240D01*
X140055273Y-113710215D01*
X139888139Y-113578222D01*
X139879552Y-113572517D01*
X139693117Y-113469599D01*
X139683705Y-113465369D01*
X139482959Y-113394280D01*
X139472988Y-113391646D01*
X139401837Y-113378972D01*
X139388540Y-113380432D01*
X139384000Y-113394989D01*
X139384000Y-114838000D01*
X139363998Y-114906121D01*
X139310342Y-114952614D01*
X139258000Y-114964000D01*
X139002000Y-114964000D01*
X138933879Y-114943998D01*
X138887386Y-114890342D01*
X138876000Y-114838000D01*
X138876000Y-113393102D01*
X138872082Y-113379758D01*
X138857806Y-113377771D01*
X138819324Y-113383660D01*
X138809288Y-113386051D01*
X138606868Y-113452212D01*
X138597359Y-113456209D01*
X138408463Y-113554542D01*
X138399738Y-113560036D01*
X138229433Y-113687905D01*
X138221726Y-113694748D01*
X138074590Y-113848717D01*
X138068109Y-113856722D01*
X137963498Y-114010074D01*
X137908587Y-114055076D01*
X137838062Y-114063247D01*
X137774315Y-114031993D01*
X137753618Y-114007509D01*
X137672822Y-113882617D01*
X137672820Y-113882614D01*
X137670014Y-113878277D01*
X137657243Y-113864242D01*
X137531307Y-113725839D01*
X137500255Y-113661993D01*
X137498500Y-113641039D01*
X137498500Y-84848503D01*
X137518502Y-84780382D01*
X137535405Y-84759408D01*
X137703256Y-84591557D01*
X137708041Y-84587016D01*
X137753957Y-84545673D01*
X137758866Y-84541253D01*
X137767140Y-84529865D01*
X137779981Y-84514832D01*
X138464832Y-83829981D01*
X138479865Y-83817140D01*
X138485913Y-83812746D01*
X138485914Y-83812745D01*
X138491253Y-83808866D01*
X138537016Y-83758041D01*
X138541557Y-83753256D01*
X138556072Y-83738741D01*
X138568994Y-83722784D01*
X138573278Y-83717769D01*
X138614619Y-83671855D01*
X138614623Y-83671850D01*
X138619040Y-83666944D01*
X138622340Y-83661228D01*
X138622343Y-83661224D01*
X138626073Y-83654763D01*
X138637273Y-83638466D01*
X138641975Y-83632660D01*
X138641976Y-83632658D01*
X138646129Y-83627530D01*
X138656060Y-83608041D01*
X138677188Y-83566574D01*
X138680336Y-83560777D01*
X138711224Y-83507277D01*
X138714527Y-83501556D01*
X138718875Y-83488174D01*
X138726438Y-83469915D01*
X138732830Y-83457370D01*
X138750537Y-83391288D01*
X138752409Y-83384969D01*
X138771501Y-83326210D01*
X138771501Y-83326209D01*
X138773542Y-83319928D01*
X138775014Y-83305925D01*
X138778615Y-83286496D01*
X138782257Y-83272903D01*
X138783083Y-83257140D01*
X138785836Y-83204616D01*
X138786353Y-83198042D01*
X138788156Y-83180884D01*
X138788156Y-83180882D01*
X138788500Y-83177610D01*
X138788500Y-83157074D01*
X138788673Y-83150480D01*
X138791907Y-83088782D01*
X138791907Y-83088777D01*
X138792252Y-83082190D01*
X138790051Y-83068292D01*
X138788500Y-83048583D01*
X138788500Y-82359086D01*
X138808502Y-82290965D01*
X138843675Y-82254876D01*
X138853453Y-82248231D01*
X138857545Y-82244362D01*
X139030824Y-82080500D01*
X139034504Y-82077020D01*
X139037840Y-82072657D01*
X139182779Y-81883084D01*
X139182782Y-81883080D01*
X139185852Y-81879064D01*
X139303604Y-81659457D01*
X139348913Y-81527873D01*
X139383082Y-81428638D01*
X139384731Y-81423849D01*
X139402482Y-81321079D01*
X139426469Y-81182211D01*
X139426470Y-81182205D01*
X139427144Y-81178301D01*
X139428500Y-81148441D01*
X139428500Y-81100118D01*
X141411500Y-81100118D01*
X141411702Y-81102626D01*
X141411702Y-81102631D01*
X141426034Y-81280759D01*
X141426446Y-81285882D01*
X141485885Y-81527873D01*
X141583249Y-81757248D01*
X141585947Y-81761532D01*
X141713148Y-81963524D01*
X141716033Y-81968106D01*
X141880822Y-82155022D01*
X142073375Y-82313187D01*
X142288738Y-82438531D01*
X142295965Y-82441305D01*
X142516643Y-82526016D01*
X142516646Y-82526017D01*
X142521372Y-82527831D01*
X142765290Y-82578788D01*
X142770339Y-82579017D01*
X142770345Y-82579018D01*
X142884004Y-82584179D01*
X143014218Y-82590092D01*
X143019238Y-82589511D01*
X143019242Y-82589511D01*
X143136026Y-82575998D01*
X143261750Y-82561451D01*
X143266624Y-82560072D01*
X143266628Y-82560071D01*
X143496651Y-82494981D01*
X143496653Y-82494980D01*
X143501520Y-82493603D01*
X143506095Y-82491469D01*
X143506102Y-82491467D01*
X143722776Y-82390429D01*
X143727357Y-82388293D01*
X143731537Y-82385452D01*
X143731541Y-82385450D01*
X143929264Y-82251078D01*
X143929265Y-82251077D01*
X143933453Y-82248231D01*
X143937545Y-82244362D01*
X144110824Y-82080500D01*
X144114504Y-82077020D01*
X144117840Y-82072657D01*
X144262779Y-81883084D01*
X144262782Y-81883080D01*
X144265852Y-81879064D01*
X144383604Y-81659457D01*
X144428913Y-81527873D01*
X144463082Y-81428638D01*
X144464731Y-81423849D01*
X144482482Y-81321079D01*
X144506469Y-81182211D01*
X144506470Y-81182205D01*
X144507144Y-81178301D01*
X144508500Y-81148441D01*
X144508500Y-79454882D01*
X144508298Y-79452369D01*
X144493960Y-79274159D01*
X144493959Y-79274154D01*
X144493554Y-79269118D01*
X144434115Y-79027127D01*
X144336751Y-78797752D01*
X144249998Y-78659990D01*
X144206663Y-78591175D01*
X144206662Y-78591174D01*
X144203967Y-78586894D01*
X144039178Y-78399978D01*
X143846625Y-78241813D01*
X143631262Y-78116469D01*
X143487795Y-78061397D01*
X143403357Y-78028984D01*
X143403354Y-78028983D01*
X143398628Y-78027169D01*
X143154710Y-77976212D01*
X143149661Y-77975983D01*
X143149655Y-77975982D01*
X143035996Y-77970821D01*
X142905782Y-77964908D01*
X142900762Y-77965489D01*
X142900758Y-77965489D01*
X142810117Y-77975977D01*
X142658250Y-77993549D01*
X142653376Y-77994928D01*
X142653372Y-77994929D01*
X142423349Y-78060019D01*
X142423347Y-78060020D01*
X142418480Y-78061397D01*
X142413905Y-78063531D01*
X142413898Y-78063533D01*
X142264143Y-78133366D01*
X142192643Y-78166707D01*
X142188463Y-78169548D01*
X142188459Y-78169550D01*
X141990736Y-78303922D01*
X141986547Y-78306769D01*
X141982872Y-78310244D01*
X141982871Y-78310245D01*
X141889511Y-78398531D01*
X141805496Y-78477980D01*
X141802418Y-78482006D01*
X141802417Y-78482007D01*
X141657221Y-78671916D01*
X141657218Y-78671920D01*
X141654148Y-78675936D01*
X141536396Y-78895543D01*
X141534750Y-78900324D01*
X141534748Y-78900328D01*
X141489341Y-79032200D01*
X141455269Y-79131151D01*
X141454407Y-79136143D01*
X141430568Y-79274159D01*
X141412856Y-79376699D01*
X141411500Y-79406559D01*
X141411500Y-81100118D01*
X139428500Y-81100118D01*
X139428500Y-79454882D01*
X139428298Y-79452369D01*
X139413960Y-79274159D01*
X139413959Y-79274154D01*
X139413554Y-79269118D01*
X139354115Y-79027127D01*
X139256751Y-78797752D01*
X139169998Y-78659990D01*
X139126663Y-78591175D01*
X139126662Y-78591174D01*
X139123967Y-78586894D01*
X138959178Y-78399978D01*
X138850051Y-78310339D01*
X138810108Y-78251646D01*
X138808238Y-78180674D01*
X138840932Y-78123881D01*
X139289408Y-77675405D01*
X139351720Y-77641379D01*
X139378503Y-77638500D01*
X146661497Y-77638500D01*
X146729618Y-77658502D01*
X146750592Y-77675405D01*
X147094595Y-78019408D01*
X147128621Y-78081720D01*
X147131500Y-78108503D01*
X147131500Y-78195914D01*
X147111498Y-78264035D01*
X147076325Y-78300124D01*
X147066547Y-78306769D01*
X147062872Y-78310244D01*
X147062871Y-78310245D01*
X146969511Y-78398531D01*
X146885496Y-78477980D01*
X146882418Y-78482006D01*
X146882417Y-78482007D01*
X146737221Y-78671916D01*
X146737218Y-78671920D01*
X146734148Y-78675936D01*
X146616396Y-78895543D01*
X146614750Y-78900324D01*
X146614748Y-78900328D01*
X146569341Y-79032200D01*
X146535269Y-79131151D01*
X146534407Y-79136143D01*
X146510568Y-79274159D01*
X146492856Y-79376699D01*
X146491500Y-79406559D01*
X146491500Y-81100118D01*
X146491702Y-81102626D01*
X146491702Y-81102631D01*
X146506034Y-81280759D01*
X146506446Y-81285882D01*
X146565885Y-81527873D01*
X146663249Y-81757248D01*
X146665947Y-81761532D01*
X146793148Y-81963524D01*
X146796033Y-81968106D01*
X146960822Y-82155022D01*
X147098735Y-82268305D01*
X147140469Y-82333076D01*
X147141388Y-82336508D01*
X147144985Y-82355925D01*
X147145766Y-82363354D01*
X147145768Y-82363363D01*
X147146458Y-82369928D01*
X147167600Y-82434997D01*
X147169467Y-82441299D01*
X147187171Y-82507370D01*
X147191160Y-82515199D01*
X147193559Y-82519907D01*
X147201125Y-82538173D01*
X147205473Y-82551556D01*
X147208776Y-82557278D01*
X147208777Y-82557279D01*
X147239667Y-82610782D01*
X147242814Y-82616577D01*
X147273871Y-82677530D01*
X147278024Y-82682658D01*
X147278025Y-82682660D01*
X147282727Y-82688466D01*
X147293927Y-82704763D01*
X147297657Y-82711224D01*
X147297660Y-82711228D01*
X147300960Y-82716944D01*
X147305377Y-82721850D01*
X147305381Y-82721855D01*
X147346722Y-82767769D01*
X147351006Y-82772784D01*
X147363928Y-82788741D01*
X147378443Y-82803256D01*
X147382984Y-82808041D01*
X147428747Y-82858866D01*
X147434086Y-82862745D01*
X147434087Y-82862746D01*
X147440135Y-82867140D01*
X147455168Y-82879981D01*
X148940019Y-84364832D01*
X148952860Y-84379865D01*
X148961134Y-84391253D01*
X148966043Y-84395673D01*
X149011959Y-84437016D01*
X149016744Y-84441557D01*
X149031259Y-84456072D01*
X149033823Y-84458148D01*
X149047216Y-84468994D01*
X149052231Y-84473278D01*
X149098145Y-84514619D01*
X149098150Y-84514623D01*
X149103056Y-84519040D01*
X149108772Y-84522340D01*
X149108776Y-84522343D01*
X149115237Y-84526073D01*
X149131534Y-84537273D01*
X149136449Y-84541253D01*
X149142470Y-84546129D01*
X149148348Y-84549124D01*
X149148351Y-84549126D01*
X149203426Y-84577188D01*
X149209223Y-84580336D01*
X149257395Y-84608148D01*
X149268444Y-84614527D01*
X149281826Y-84618875D01*
X149300085Y-84626438D01*
X149312630Y-84632830D01*
X149319000Y-84634537D01*
X149319003Y-84634538D01*
X149358074Y-84645007D01*
X149378712Y-84650537D01*
X149385025Y-84652407D01*
X149450072Y-84673542D01*
X149464075Y-84675014D01*
X149483504Y-84678615D01*
X149497097Y-84682257D01*
X149503694Y-84682603D01*
X149503696Y-84682603D01*
X149565384Y-84685836D01*
X149571958Y-84686353D01*
X149589116Y-84688156D01*
X149589118Y-84688156D01*
X149592390Y-84688500D01*
X149612926Y-84688500D01*
X149619520Y-84688673D01*
X149681218Y-84691907D01*
X149681223Y-84691907D01*
X149687810Y-84692252D01*
X149694326Y-84691220D01*
X149694327Y-84691220D01*
X149701707Y-84690051D01*
X149721417Y-84688500D01*
X156908583Y-84688500D01*
X156928292Y-84690051D01*
X156942190Y-84692252D01*
X156948777Y-84691907D01*
X156948782Y-84691907D01*
X157010480Y-84688673D01*
X157017074Y-84688500D01*
X157037610Y-84688500D01*
X157040882Y-84688156D01*
X157040884Y-84688156D01*
X157058042Y-84686353D01*
X157064616Y-84685836D01*
X157126308Y-84682603D01*
X157126312Y-84682602D01*
X157132903Y-84682257D01*
X157139284Y-84680547D01*
X157139286Y-84680547D01*
X157146491Y-84678617D01*
X157165925Y-84675015D01*
X157173354Y-84674234D01*
X157173363Y-84674232D01*
X157179928Y-84673542D01*
X157244997Y-84652400D01*
X157251299Y-84650533D01*
X157317370Y-84632829D01*
X157329908Y-84626440D01*
X157348174Y-84618875D01*
X157355272Y-84616569D01*
X157355274Y-84616568D01*
X157361556Y-84614527D01*
X157420785Y-84580331D01*
X157426579Y-84577185D01*
X157487530Y-84546129D01*
X157493552Y-84541253D01*
X157498466Y-84537273D01*
X157514763Y-84526073D01*
X157521224Y-84522343D01*
X157521228Y-84522340D01*
X157526944Y-84519040D01*
X157531850Y-84514623D01*
X157531855Y-84514619D01*
X157577769Y-84473278D01*
X157582784Y-84468994D01*
X157596177Y-84458148D01*
X157598741Y-84456072D01*
X157613256Y-84441557D01*
X157618041Y-84437016D01*
X157663957Y-84395673D01*
X157668866Y-84391253D01*
X157677140Y-84379865D01*
X157689981Y-84364832D01*
X158784832Y-83269981D01*
X158799865Y-83257140D01*
X158805913Y-83252746D01*
X158805914Y-83252745D01*
X158811253Y-83248866D01*
X158857016Y-83198041D01*
X158861557Y-83193256D01*
X158876072Y-83178741D01*
X158888997Y-83162780D01*
X158893269Y-83157779D01*
X158934619Y-83111855D01*
X158934623Y-83111850D01*
X158939040Y-83106944D01*
X158946073Y-83094763D01*
X158957267Y-83078474D01*
X158966129Y-83067531D01*
X158975784Y-83048583D01*
X158997188Y-83006574D01*
X159000336Y-83000777D01*
X159000508Y-83000480D01*
X159034527Y-82941556D01*
X159038875Y-82928173D01*
X159046441Y-82909907D01*
X159047158Y-82908501D01*
X159052829Y-82897370D01*
X159060930Y-82867140D01*
X159070529Y-82831315D01*
X159072402Y-82824991D01*
X159089365Y-82772784D01*
X159093542Y-82759928D01*
X159095012Y-82745939D01*
X159098617Y-82726486D01*
X159100547Y-82719285D01*
X159102257Y-82712904D01*
X159105836Y-82644615D01*
X159106353Y-82638040D01*
X159108156Y-82620882D01*
X159108500Y-82617610D01*
X159108500Y-82597075D01*
X159108673Y-82590481D01*
X159111907Y-82528783D01*
X159111907Y-82528778D01*
X159112252Y-82522191D01*
X159110051Y-82508293D01*
X159108500Y-82488584D01*
X159108500Y-82359086D01*
X159128502Y-82290965D01*
X159163675Y-82254876D01*
X159173453Y-82248231D01*
X159177545Y-82244362D01*
X159350824Y-82080500D01*
X159354504Y-82077020D01*
X159357840Y-82072657D01*
X159502779Y-81883084D01*
X159502782Y-81883080D01*
X159505852Y-81879064D01*
X159623604Y-81659457D01*
X159668913Y-81527873D01*
X159703082Y-81428638D01*
X159704731Y-81423849D01*
X159722482Y-81321079D01*
X159746469Y-81182211D01*
X159746470Y-81182205D01*
X159747144Y-81178301D01*
X159748500Y-81148441D01*
X159748500Y-81100118D01*
X161731500Y-81100118D01*
X161731702Y-81102626D01*
X161731702Y-81102631D01*
X161746034Y-81280759D01*
X161746446Y-81285882D01*
X161805885Y-81527873D01*
X161903249Y-81757248D01*
X161905947Y-81761532D01*
X162033148Y-81963524D01*
X162036033Y-81968106D01*
X162200822Y-82155022D01*
X162393375Y-82313187D01*
X162608738Y-82438531D01*
X162615965Y-82441305D01*
X162836643Y-82526016D01*
X162836646Y-82526017D01*
X162841372Y-82527831D01*
X163085290Y-82578788D01*
X163090339Y-82579017D01*
X163090345Y-82579018D01*
X163204004Y-82584179D01*
X163334218Y-82590092D01*
X163339238Y-82589511D01*
X163339242Y-82589511D01*
X163456026Y-82575998D01*
X163581750Y-82561451D01*
X163586624Y-82560072D01*
X163586628Y-82560071D01*
X163816651Y-82494981D01*
X163816653Y-82494980D01*
X163821520Y-82493603D01*
X163826095Y-82491469D01*
X163826102Y-82491467D01*
X164042776Y-82390429D01*
X164047357Y-82388293D01*
X164051537Y-82385452D01*
X164051541Y-82385450D01*
X164249264Y-82251078D01*
X164249265Y-82251077D01*
X164253453Y-82248231D01*
X164257545Y-82244362D01*
X164430824Y-82080500D01*
X164434504Y-82077020D01*
X164437840Y-82072657D01*
X164582779Y-81883084D01*
X164582782Y-81883080D01*
X164585852Y-81879064D01*
X164703604Y-81659457D01*
X164748913Y-81527873D01*
X164783082Y-81428638D01*
X164784731Y-81423849D01*
X164802482Y-81321079D01*
X164826469Y-81182211D01*
X164826470Y-81182205D01*
X164827144Y-81178301D01*
X164828500Y-81148441D01*
X164828500Y-79454882D01*
X164828298Y-79452369D01*
X164813960Y-79274159D01*
X164813959Y-79274154D01*
X164813554Y-79269118D01*
X164754115Y-79027127D01*
X164656751Y-78797752D01*
X164569998Y-78659990D01*
X164526663Y-78591175D01*
X164526662Y-78591174D01*
X164523967Y-78586894D01*
X164359178Y-78399978D01*
X164166625Y-78241813D01*
X163951262Y-78116469D01*
X163807795Y-78061397D01*
X163723357Y-78028984D01*
X163723354Y-78028983D01*
X163718628Y-78027169D01*
X163474710Y-77976212D01*
X163469661Y-77975983D01*
X163469655Y-77975982D01*
X163355996Y-77970821D01*
X163225782Y-77964908D01*
X163220762Y-77965489D01*
X163220758Y-77965489D01*
X163130117Y-77975977D01*
X162978250Y-77993549D01*
X162973376Y-77994928D01*
X162973372Y-77994929D01*
X162743349Y-78060019D01*
X162743347Y-78060020D01*
X162738480Y-78061397D01*
X162733905Y-78063531D01*
X162733898Y-78063533D01*
X162584143Y-78133366D01*
X162512643Y-78166707D01*
X162508463Y-78169548D01*
X162508459Y-78169550D01*
X162310736Y-78303922D01*
X162306547Y-78306769D01*
X162302872Y-78310244D01*
X162302871Y-78310245D01*
X162209511Y-78398531D01*
X162125496Y-78477980D01*
X162122418Y-78482006D01*
X162122417Y-78482007D01*
X161977221Y-78671916D01*
X161977218Y-78671920D01*
X161974148Y-78675936D01*
X161856396Y-78895543D01*
X161854750Y-78900324D01*
X161854748Y-78900328D01*
X161809341Y-79032200D01*
X161775269Y-79131151D01*
X161774407Y-79136143D01*
X161750568Y-79274159D01*
X161732856Y-79376699D01*
X161731500Y-79406559D01*
X161731500Y-81100118D01*
X159748500Y-81100118D01*
X159748500Y-79454882D01*
X159748298Y-79452369D01*
X159733960Y-79274159D01*
X159733959Y-79274154D01*
X159733554Y-79269118D01*
X159674115Y-79027127D01*
X159576751Y-78797752D01*
X159489998Y-78659990D01*
X159446663Y-78591175D01*
X159446662Y-78591174D01*
X159443967Y-78586894D01*
X159355388Y-78486421D01*
X159325345Y-78422099D01*
X159334846Y-78351741D01*
X159360809Y-78314004D01*
X159939408Y-77735405D01*
X160001720Y-77701379D01*
X160028503Y-77698500D01*
X166701497Y-77698500D01*
X166769618Y-77718502D01*
X166790592Y-77735405D01*
X167050874Y-77995687D01*
X167084900Y-78057999D01*
X167079835Y-78128814D01*
X167050955Y-78173795D01*
X166970694Y-78254197D01*
X166877885Y-78404761D01*
X166822203Y-78572638D01*
X166811500Y-78677099D01*
X166811501Y-81877900D01*
X166822474Y-81983667D01*
X166824658Y-81990213D01*
X166875730Y-82143292D01*
X166878450Y-82151446D01*
X166971521Y-82301849D01*
X166976703Y-82307022D01*
X167017441Y-82347689D01*
X167096697Y-82426806D01*
X167117928Y-82439893D01*
X167240871Y-82515676D01*
X167247261Y-82519615D01*
X167303215Y-82538174D01*
X167408610Y-82573132D01*
X167408612Y-82573132D01*
X167415138Y-82575297D01*
X167421974Y-82575997D01*
X167421977Y-82575998D01*
X167465030Y-82580409D01*
X167519599Y-82586000D01*
X168353519Y-82586000D01*
X169200400Y-82585999D01*
X169306167Y-82575026D01*
X169376515Y-82551556D01*
X169467002Y-82521367D01*
X169467004Y-82521366D01*
X169473946Y-82519050D01*
X169624349Y-82425979D01*
X169749306Y-82300803D01*
X169842115Y-82150239D01*
X169871538Y-82061532D01*
X169895632Y-81988890D01*
X169895632Y-81988888D01*
X169897797Y-81982362D01*
X169898664Y-81973905D01*
X169907969Y-81883084D01*
X169908500Y-81877901D01*
X169908499Y-78677100D01*
X169897526Y-78571333D01*
X169847737Y-78422099D01*
X169843867Y-78410498D01*
X169843866Y-78410496D01*
X169841550Y-78403554D01*
X169748479Y-78253151D01*
X169740753Y-78245438D01*
X169661395Y-78166219D01*
X169623303Y-78128194D01*
X169519166Y-78064003D01*
X169478969Y-78039225D01*
X169478967Y-78039224D01*
X169472739Y-78035385D01*
X169352245Y-77995419D01*
X169348633Y-77994221D01*
X169290273Y-77953790D01*
X169265788Y-77889872D01*
X169263635Y-77890213D01*
X169262603Y-77883695D01*
X169262257Y-77877097D01*
X169258615Y-77863504D01*
X169255014Y-77844075D01*
X169253542Y-77830072D01*
X169232407Y-77765025D01*
X169230535Y-77758706D01*
X169227966Y-77749116D01*
X169222257Y-77727810D01*
X169214538Y-77699003D01*
X169214537Y-77699000D01*
X169212830Y-77692630D01*
X169206438Y-77680085D01*
X169198874Y-77661823D01*
X169197339Y-77657097D01*
X169194527Y-77648444D01*
X169183368Y-77629116D01*
X169160336Y-77589223D01*
X169157188Y-77583426D01*
X169129126Y-77528351D01*
X169129124Y-77528348D01*
X169126129Y-77522470D01*
X169120925Y-77516043D01*
X169117273Y-77511534D01*
X169106073Y-77495237D01*
X169102343Y-77488776D01*
X169102340Y-77488772D01*
X169099040Y-77483056D01*
X169094623Y-77478150D01*
X169094619Y-77478145D01*
X169053278Y-77432231D01*
X169048994Y-77427216D01*
X169038148Y-77413823D01*
X169036072Y-77411259D01*
X169021557Y-77396744D01*
X169017016Y-77391959D01*
X168975673Y-77346043D01*
X168971253Y-77341134D01*
X168959865Y-77332860D01*
X168944832Y-77320019D01*
X167829981Y-76205168D01*
X167817140Y-76190135D01*
X167812746Y-76184087D01*
X167812745Y-76184086D01*
X167808866Y-76178747D01*
X167758041Y-76132984D01*
X167753256Y-76128443D01*
X167738741Y-76113928D01*
X167726419Y-76103950D01*
X167722784Y-76101006D01*
X167717769Y-76096722D01*
X167671855Y-76055381D01*
X167671850Y-76055377D01*
X167666944Y-76050960D01*
X167661228Y-76047660D01*
X167661224Y-76047657D01*
X167654763Y-76043927D01*
X167638466Y-76032727D01*
X167632660Y-76028025D01*
X167632658Y-76028024D01*
X167627530Y-76023871D01*
X167566577Y-75992814D01*
X167560782Y-75989667D01*
X167507279Y-75958777D01*
X167507278Y-75958776D01*
X167501556Y-75955473D01*
X167495274Y-75953432D01*
X167495272Y-75953431D01*
X167488174Y-75951125D01*
X167469907Y-75943559D01*
X167457370Y-75937171D01*
X167391299Y-75919467D01*
X167384997Y-75917600D01*
X167319928Y-75896458D01*
X167313363Y-75895768D01*
X167313354Y-75895766D01*
X167305925Y-75894985D01*
X167286491Y-75891383D01*
X167279286Y-75889453D01*
X167279284Y-75889453D01*
X167272903Y-75887743D01*
X167266312Y-75887398D01*
X167266308Y-75887397D01*
X167204616Y-75884164D01*
X167198042Y-75883647D01*
X167180884Y-75881844D01*
X167180882Y-75881844D01*
X167177610Y-75881500D01*
X167157074Y-75881500D01*
X167150480Y-75881327D01*
X167088782Y-75878093D01*
X167088777Y-75878093D01*
X167082190Y-75877748D01*
X167068292Y-75879949D01*
X167048583Y-75881500D01*
X159681417Y-75881500D01*
X159661708Y-75879949D01*
X159647810Y-75877748D01*
X159641223Y-75878093D01*
X159641218Y-75878093D01*
X159579520Y-75881327D01*
X159572926Y-75881500D01*
X159552390Y-75881500D01*
X159549118Y-75881844D01*
X159549116Y-75881844D01*
X159531958Y-75883647D01*
X159525384Y-75884164D01*
X159463692Y-75887397D01*
X159463688Y-75887398D01*
X159457097Y-75887743D01*
X159450716Y-75889453D01*
X159450714Y-75889453D01*
X159443509Y-75891383D01*
X159424075Y-75894985D01*
X159416646Y-75895766D01*
X159416637Y-75895768D01*
X159410072Y-75896458D01*
X159345003Y-75917600D01*
X159338701Y-75919467D01*
X159272630Y-75937171D01*
X159260093Y-75943559D01*
X159241826Y-75951125D01*
X159234728Y-75953431D01*
X159234726Y-75953432D01*
X159228444Y-75955473D01*
X159222722Y-75958776D01*
X159222721Y-75958777D01*
X159169218Y-75989667D01*
X159163423Y-75992814D01*
X159102470Y-76023871D01*
X159097342Y-76028024D01*
X159097340Y-76028025D01*
X159091534Y-76032727D01*
X159075237Y-76043927D01*
X159068776Y-76047657D01*
X159068772Y-76047660D01*
X159063056Y-76050960D01*
X159058150Y-76055377D01*
X159058145Y-76055381D01*
X159012231Y-76096722D01*
X159007216Y-76101006D01*
X159003581Y-76103950D01*
X158991259Y-76113928D01*
X158976744Y-76128443D01*
X158971959Y-76132984D01*
X158921134Y-76178747D01*
X158917255Y-76184086D01*
X158917254Y-76184087D01*
X158912860Y-76190135D01*
X158900019Y-76205168D01*
X157615168Y-77490019D01*
X157600135Y-77502860D01*
X157588747Y-77511134D01*
X157573245Y-77528351D01*
X157542984Y-77561959D01*
X157538443Y-77566744D01*
X157523928Y-77581259D01*
X157521852Y-77583823D01*
X157511006Y-77597216D01*
X157506722Y-77602231D01*
X157465381Y-77648145D01*
X157465377Y-77648150D01*
X157460960Y-77653056D01*
X157457660Y-77658772D01*
X157457657Y-77658776D01*
X157453927Y-77665237D01*
X157442727Y-77681533D01*
X157433871Y-77692470D01*
X157404033Y-77751030D01*
X157402815Y-77753421D01*
X157399667Y-77759218D01*
X157375928Y-77800336D01*
X157365473Y-77818444D01*
X157363432Y-77824726D01*
X157363431Y-77824728D01*
X157361125Y-77831826D01*
X157353560Y-77850092D01*
X157347171Y-77862630D01*
X157345463Y-77869003D01*
X157345463Y-77869004D01*
X157344553Y-77872402D01*
X157334465Y-77910051D01*
X157329469Y-77928695D01*
X157327600Y-77935003D01*
X157306458Y-78000072D01*
X157305768Y-78006637D01*
X157305766Y-78006646D01*
X157304985Y-78014075D01*
X157301383Y-78033509D01*
X157299852Y-78039225D01*
X157297743Y-78047097D01*
X157297398Y-78053688D01*
X157297397Y-78053692D01*
X157294164Y-78115384D01*
X157293647Y-78121958D01*
X157292992Y-78128194D01*
X157291500Y-78142390D01*
X157291500Y-78162926D01*
X157291327Y-78169518D01*
X157291303Y-78169985D01*
X157289534Y-78203728D01*
X157265994Y-78270708D01*
X157234533Y-78301341D01*
X157230740Y-78303919D01*
X157230736Y-78303922D01*
X157226547Y-78306769D01*
X157222872Y-78310244D01*
X157222871Y-78310245D01*
X157129511Y-78398531D01*
X157045496Y-78477980D01*
X157042418Y-78482006D01*
X157042417Y-78482007D01*
X156897221Y-78671916D01*
X156897218Y-78671920D01*
X156894148Y-78675936D01*
X156776396Y-78895543D01*
X156774750Y-78900324D01*
X156774748Y-78900328D01*
X156729341Y-79032200D01*
X156695269Y-79131151D01*
X156694407Y-79136143D01*
X156670568Y-79274159D01*
X156652856Y-79376699D01*
X156651500Y-79406559D01*
X156651500Y-81100118D01*
X156651702Y-81102626D01*
X156651702Y-81102631D01*
X156666034Y-81280759D01*
X156666446Y-81285882D01*
X156725885Y-81527873D01*
X156823249Y-81757248D01*
X156825947Y-81761532D01*
X156953148Y-81963524D01*
X156956033Y-81968106D01*
X157120822Y-82155022D01*
X157124730Y-82158232D01*
X157124733Y-82158235D01*
X157128376Y-82161227D01*
X157168321Y-82219920D01*
X157170193Y-82290892D01*
X157137498Y-82347689D01*
X156650592Y-82834595D01*
X156588280Y-82868621D01*
X156561497Y-82871500D01*
X150068503Y-82871500D01*
X150000382Y-82851498D01*
X149979408Y-82834595D01*
X149284342Y-82139529D01*
X149250316Y-82077217D01*
X149255381Y-82006402D01*
X149273341Y-81973905D01*
X149342779Y-81883084D01*
X149342782Y-81883080D01*
X149345852Y-81879064D01*
X149463604Y-81659457D01*
X149508913Y-81527873D01*
X149543082Y-81428638D01*
X149544731Y-81423849D01*
X149562482Y-81321079D01*
X149586469Y-81182211D01*
X149586470Y-81182205D01*
X149587144Y-81178301D01*
X149588500Y-81148441D01*
X149588500Y-81100118D01*
X151571500Y-81100118D01*
X151571702Y-81102626D01*
X151571702Y-81102631D01*
X151586034Y-81280759D01*
X151586446Y-81285882D01*
X151645885Y-81527873D01*
X151743249Y-81757248D01*
X151745947Y-81761532D01*
X151873148Y-81963524D01*
X151876033Y-81968106D01*
X152040822Y-82155022D01*
X152233375Y-82313187D01*
X152448738Y-82438531D01*
X152455965Y-82441305D01*
X152676643Y-82526016D01*
X152676646Y-82526017D01*
X152681372Y-82527831D01*
X152925290Y-82578788D01*
X152930339Y-82579017D01*
X152930345Y-82579018D01*
X153044004Y-82584179D01*
X153174218Y-82590092D01*
X153179238Y-82589511D01*
X153179242Y-82589511D01*
X153296026Y-82575998D01*
X153421750Y-82561451D01*
X153426624Y-82560072D01*
X153426628Y-82560071D01*
X153656651Y-82494981D01*
X153656653Y-82494980D01*
X153661520Y-82493603D01*
X153666095Y-82491469D01*
X153666102Y-82491467D01*
X153882776Y-82390429D01*
X153887357Y-82388293D01*
X153891537Y-82385452D01*
X153891541Y-82385450D01*
X154089264Y-82251078D01*
X154089265Y-82251077D01*
X154093453Y-82248231D01*
X154097545Y-82244362D01*
X154270824Y-82080500D01*
X154274504Y-82077020D01*
X154277840Y-82072657D01*
X154422779Y-81883084D01*
X154422782Y-81883080D01*
X154425852Y-81879064D01*
X154543604Y-81659457D01*
X154588913Y-81527873D01*
X154623082Y-81428638D01*
X154624731Y-81423849D01*
X154642482Y-81321079D01*
X154666469Y-81182211D01*
X154666470Y-81182205D01*
X154667144Y-81178301D01*
X154668500Y-81148441D01*
X154668500Y-79454882D01*
X154668298Y-79452369D01*
X154653960Y-79274159D01*
X154653959Y-79274154D01*
X154653554Y-79269118D01*
X154594115Y-79027127D01*
X154496751Y-78797752D01*
X154409998Y-78659990D01*
X154366663Y-78591175D01*
X154366662Y-78591174D01*
X154363967Y-78586894D01*
X154199178Y-78399978D01*
X154006625Y-78241813D01*
X153791262Y-78116469D01*
X153647795Y-78061397D01*
X153563357Y-78028984D01*
X153563354Y-78028983D01*
X153558628Y-78027169D01*
X153314710Y-77976212D01*
X153309661Y-77975983D01*
X153309655Y-77975982D01*
X153195996Y-77970821D01*
X153065782Y-77964908D01*
X153060762Y-77965489D01*
X153060758Y-77965489D01*
X152970117Y-77975977D01*
X152818250Y-77993549D01*
X152813376Y-77994928D01*
X152813372Y-77994929D01*
X152583349Y-78060019D01*
X152583347Y-78060020D01*
X152578480Y-78061397D01*
X152573905Y-78063531D01*
X152573898Y-78063533D01*
X152424143Y-78133366D01*
X152352643Y-78166707D01*
X152348463Y-78169548D01*
X152348459Y-78169550D01*
X152150736Y-78303922D01*
X152146547Y-78306769D01*
X152142872Y-78310244D01*
X152142871Y-78310245D01*
X152049511Y-78398531D01*
X151965496Y-78477980D01*
X151962418Y-78482006D01*
X151962417Y-78482007D01*
X151817221Y-78671916D01*
X151817218Y-78671920D01*
X151814148Y-78675936D01*
X151696396Y-78895543D01*
X151694750Y-78900324D01*
X151694748Y-78900328D01*
X151649341Y-79032200D01*
X151615269Y-79131151D01*
X151614407Y-79136143D01*
X151590568Y-79274159D01*
X151572856Y-79376699D01*
X151571500Y-79406559D01*
X151571500Y-81100118D01*
X149588500Y-81100118D01*
X149588500Y-79454882D01*
X149588298Y-79452369D01*
X149573960Y-79274159D01*
X149573959Y-79274154D01*
X149573554Y-79269118D01*
X149514115Y-79027127D01*
X149416751Y-78797752D01*
X149329998Y-78659990D01*
X149286663Y-78591175D01*
X149286662Y-78591174D01*
X149283967Y-78586894D01*
X149119178Y-78399978D01*
X148994524Y-78297585D01*
X148954581Y-78238892D01*
X148948500Y-78200222D01*
X148948500Y-77761417D01*
X148950051Y-77741705D01*
X148951174Y-77734619D01*
X148952252Y-77727810D01*
X148951765Y-77718502D01*
X148948673Y-77659520D01*
X148948500Y-77652926D01*
X148948500Y-77632390D01*
X148947626Y-77624075D01*
X148946353Y-77611958D01*
X148945836Y-77605384D01*
X148942603Y-77543696D01*
X148942603Y-77543694D01*
X148942257Y-77537097D01*
X148938615Y-77523504D01*
X148935014Y-77504075D01*
X148934232Y-77496639D01*
X148933542Y-77490072D01*
X148931263Y-77483056D01*
X148915560Y-77434728D01*
X148912407Y-77425025D01*
X148910535Y-77418706D01*
X148894538Y-77359003D01*
X148894537Y-77359000D01*
X148892830Y-77352630D01*
X148886438Y-77340085D01*
X148878874Y-77321823D01*
X148876568Y-77314726D01*
X148874527Y-77308444D01*
X148840336Y-77249223D01*
X148837188Y-77243426D01*
X148809126Y-77188351D01*
X148809124Y-77188348D01*
X148806129Y-77182470D01*
X148797273Y-77171533D01*
X148786073Y-77155237D01*
X148782343Y-77148776D01*
X148782340Y-77148772D01*
X148779040Y-77143056D01*
X148774623Y-77138150D01*
X148774619Y-77138145D01*
X148733278Y-77092231D01*
X148728994Y-77087216D01*
X148718148Y-77073823D01*
X148716072Y-77071259D01*
X148701557Y-77056744D01*
X148697016Y-77051959D01*
X148655673Y-77006043D01*
X148651253Y-77001134D01*
X148639865Y-76992860D01*
X148624832Y-76980019D01*
X147789981Y-76145168D01*
X147777140Y-76130135D01*
X147772746Y-76124087D01*
X147772745Y-76124086D01*
X147768866Y-76118747D01*
X147718041Y-76072984D01*
X147713256Y-76068443D01*
X147698741Y-76053928D01*
X147686391Y-76043927D01*
X147682784Y-76041006D01*
X147677769Y-76036722D01*
X147631855Y-75995381D01*
X147631850Y-75995377D01*
X147626944Y-75990960D01*
X147621228Y-75987660D01*
X147621224Y-75987657D01*
X147614763Y-75983927D01*
X147598466Y-75972727D01*
X147592660Y-75968025D01*
X147592658Y-75968024D01*
X147587530Y-75963871D01*
X147526573Y-75932812D01*
X147520782Y-75929667D01*
X147467279Y-75898777D01*
X147467278Y-75898776D01*
X147461556Y-75895473D01*
X147455274Y-75893432D01*
X147455272Y-75893431D01*
X147448174Y-75891125D01*
X147429907Y-75883559D01*
X147426541Y-75881844D01*
X147417370Y-75877171D01*
X147351291Y-75859465D01*
X147344997Y-75857600D01*
X147279928Y-75836458D01*
X147273363Y-75835768D01*
X147273354Y-75835766D01*
X147265925Y-75834985D01*
X147246491Y-75831383D01*
X147239286Y-75829453D01*
X147239284Y-75829453D01*
X147232903Y-75827743D01*
X147226312Y-75827398D01*
X147226308Y-75827397D01*
X147164616Y-75824164D01*
X147158042Y-75823647D01*
X147140884Y-75821844D01*
X147140882Y-75821844D01*
X147137610Y-75821500D01*
X147117074Y-75821500D01*
X147110480Y-75821327D01*
X147048782Y-75818093D01*
X147048777Y-75818093D01*
X147042190Y-75817748D01*
X147028292Y-75819949D01*
X147008583Y-75821500D01*
X143195100Y-75821500D01*
X143126979Y-75801498D01*
X143080486Y-75747842D01*
X143070382Y-75677568D01*
X143099876Y-75612988D01*
X143159602Y-75574604D01*
X143180618Y-75570335D01*
X143256620Y-75561541D01*
X143266531Y-75559579D01*
X143496476Y-75494511D01*
X143505927Y-75490997D01*
X143722528Y-75389994D01*
X143731292Y-75385015D01*
X143928951Y-75250686D01*
X143936815Y-75244362D01*
X144110451Y-75080164D01*
X144117210Y-75072657D01*
X144262357Y-74882812D01*
X144267821Y-74874333D01*
X144380752Y-74663717D01*
X144384792Y-74654471D01*
X144462596Y-74428513D01*
X144465107Y-74418732D01*
X144505969Y-74182166D01*
X144506824Y-74174294D01*
X144507936Y-74149815D01*
X144508000Y-74146982D01*
X144508000Y-74100118D01*
X146491500Y-74100118D01*
X146491702Y-74102626D01*
X146491702Y-74102631D01*
X146506034Y-74280759D01*
X146506446Y-74285882D01*
X146565885Y-74527873D01*
X146663249Y-74757248D01*
X146665947Y-74761532D01*
X146793148Y-74963524D01*
X146796033Y-74968106D01*
X146960822Y-75155022D01*
X147153375Y-75313187D01*
X147368738Y-75438531D01*
X147485055Y-75483181D01*
X147596643Y-75526016D01*
X147596646Y-75526017D01*
X147601372Y-75527831D01*
X147845290Y-75578788D01*
X147850339Y-75579017D01*
X147850345Y-75579018D01*
X147964004Y-75584179D01*
X148094218Y-75590092D01*
X148099238Y-75589511D01*
X148099242Y-75589511D01*
X148216026Y-75575998D01*
X148341750Y-75561451D01*
X148346624Y-75560072D01*
X148346628Y-75560071D01*
X148576651Y-75494981D01*
X148576653Y-75494980D01*
X148581520Y-75493603D01*
X148586095Y-75491469D01*
X148586102Y-75491467D01*
X148802776Y-75390429D01*
X148807357Y-75388293D01*
X148811537Y-75385452D01*
X148811541Y-75385450D01*
X149009264Y-75251078D01*
X149009265Y-75251077D01*
X149013453Y-75248231D01*
X149017545Y-75244362D01*
X149190824Y-75080500D01*
X149194504Y-75077020D01*
X149261884Y-74988890D01*
X149342779Y-74883084D01*
X149342782Y-74883080D01*
X149345852Y-74879064D01*
X149463604Y-74659457D01*
X149508913Y-74527873D01*
X149543082Y-74428638D01*
X149544731Y-74423849D01*
X149562482Y-74321079D01*
X149586469Y-74182211D01*
X149586470Y-74182205D01*
X149587144Y-74178301D01*
X149588500Y-74148441D01*
X149588500Y-74097572D01*
X151572000Y-74097572D01*
X151572202Y-74102604D01*
X151586536Y-74280759D01*
X151588148Y-74290712D01*
X151645154Y-74522800D01*
X151648337Y-74532370D01*
X151741718Y-74752360D01*
X151746392Y-74761299D01*
X151873739Y-74963524D01*
X151879780Y-74971599D01*
X152037827Y-75150868D01*
X152045079Y-75157871D01*
X152229750Y-75309562D01*
X152238033Y-75315318D01*
X152444579Y-75435531D01*
X152453684Y-75439893D01*
X152676785Y-75525534D01*
X152686474Y-75528385D01*
X152848264Y-75562185D01*
X152862325Y-75561062D01*
X152866000Y-75550954D01*
X152866000Y-75548358D01*
X153374000Y-75548358D01*
X153378136Y-75562444D01*
X153391114Y-75564493D01*
X153416631Y-75561540D01*
X153426521Y-75559581D01*
X153656476Y-75494511D01*
X153665927Y-75490997D01*
X153882528Y-75389994D01*
X153891292Y-75385015D01*
X154088951Y-75250686D01*
X154096815Y-75244362D01*
X154270451Y-75080164D01*
X154277210Y-75072657D01*
X154422357Y-74882812D01*
X154427821Y-74874333D01*
X154540752Y-74663717D01*
X154544792Y-74654471D01*
X154622596Y-74428513D01*
X154625107Y-74418732D01*
X154665969Y-74182166D01*
X154666824Y-74174294D01*
X154667936Y-74149815D01*
X154668000Y-74146982D01*
X154668000Y-74100118D01*
X156651500Y-74100118D01*
X156651702Y-74102626D01*
X156651702Y-74102631D01*
X156666034Y-74280759D01*
X156666446Y-74285882D01*
X156725885Y-74527873D01*
X156823249Y-74757248D01*
X156825947Y-74761532D01*
X156953148Y-74963524D01*
X156956033Y-74968106D01*
X157120822Y-75155022D01*
X157313375Y-75313187D01*
X157528738Y-75438531D01*
X157645055Y-75483181D01*
X157756643Y-75526016D01*
X157756646Y-75526017D01*
X157761372Y-75527831D01*
X158005290Y-75578788D01*
X158010339Y-75579017D01*
X158010345Y-75579018D01*
X158124004Y-75584179D01*
X158254218Y-75590092D01*
X158259238Y-75589511D01*
X158259242Y-75589511D01*
X158376026Y-75575998D01*
X158501750Y-75561451D01*
X158506624Y-75560072D01*
X158506628Y-75560071D01*
X158736651Y-75494981D01*
X158736653Y-75494980D01*
X158741520Y-75493603D01*
X158746095Y-75491469D01*
X158746102Y-75491467D01*
X158962776Y-75390429D01*
X158967357Y-75388293D01*
X158971537Y-75385452D01*
X158971541Y-75385450D01*
X159169264Y-75251078D01*
X159169265Y-75251077D01*
X159173453Y-75248231D01*
X159177545Y-75244362D01*
X159350824Y-75080500D01*
X159354504Y-75077020D01*
X159421884Y-74988890D01*
X159502779Y-74883084D01*
X159502782Y-74883080D01*
X159505852Y-74879064D01*
X159623604Y-74659457D01*
X159668913Y-74527873D01*
X159703082Y-74428638D01*
X159704731Y-74423849D01*
X159722482Y-74321079D01*
X159746469Y-74182211D01*
X159746470Y-74182205D01*
X159747144Y-74178301D01*
X159748500Y-74148441D01*
X159748500Y-74097572D01*
X161732000Y-74097572D01*
X161732202Y-74102604D01*
X161746536Y-74280759D01*
X161748148Y-74290712D01*
X161805154Y-74522800D01*
X161808337Y-74532370D01*
X161901718Y-74752360D01*
X161906392Y-74761299D01*
X162033739Y-74963524D01*
X162039780Y-74971599D01*
X162197827Y-75150868D01*
X162205079Y-75157871D01*
X162389750Y-75309562D01*
X162398033Y-75315318D01*
X162604579Y-75435531D01*
X162613684Y-75439893D01*
X162836785Y-75525534D01*
X162846474Y-75528385D01*
X163008264Y-75562185D01*
X163022325Y-75561062D01*
X163026000Y-75550954D01*
X163026000Y-75548358D01*
X163534000Y-75548358D01*
X163538136Y-75562444D01*
X163551114Y-75564493D01*
X163576631Y-75561540D01*
X163586521Y-75559581D01*
X163816476Y-75494511D01*
X163825927Y-75490997D01*
X164042528Y-75389994D01*
X164051292Y-75385015D01*
X164248951Y-75250686D01*
X164256815Y-75244362D01*
X164430451Y-75080164D01*
X164437210Y-75072657D01*
X164582357Y-74882812D01*
X164587821Y-74874333D01*
X164700752Y-74663717D01*
X164704792Y-74654471D01*
X164782596Y-74428513D01*
X164785107Y-74418732D01*
X164825969Y-74182166D01*
X164826824Y-74174294D01*
X164827936Y-74149815D01*
X164828000Y-74146982D01*
X164828000Y-73549615D01*
X164823525Y-73534376D01*
X164822135Y-73533171D01*
X164814452Y-73531500D01*
X163552115Y-73531500D01*
X163536876Y-73535975D01*
X163535671Y-73537365D01*
X163534000Y-73545048D01*
X163534000Y-75548358D01*
X163026000Y-75548358D01*
X163026000Y-73549615D01*
X163021525Y-73534376D01*
X163020135Y-73533171D01*
X163012452Y-73531500D01*
X161750115Y-73531500D01*
X161734876Y-73535975D01*
X161733671Y-73537365D01*
X161732000Y-73545048D01*
X161732000Y-74097572D01*
X159748500Y-74097572D01*
X159748500Y-73005385D01*
X161732000Y-73005385D01*
X161736475Y-73020624D01*
X161737865Y-73021829D01*
X161745548Y-73023500D01*
X163007885Y-73023500D01*
X163023124Y-73019025D01*
X163024329Y-73017635D01*
X163026000Y-73009952D01*
X163026000Y-73005385D01*
X163534000Y-73005385D01*
X163538475Y-73020624D01*
X163539865Y-73021829D01*
X163547548Y-73023500D01*
X164809885Y-73023500D01*
X164825124Y-73019025D01*
X164826329Y-73017635D01*
X164828000Y-73009952D01*
X164828000Y-72457428D01*
X164827798Y-72452396D01*
X164813464Y-72274241D01*
X164811852Y-72264288D01*
X164754846Y-72032200D01*
X164751663Y-72022630D01*
X164658282Y-71802640D01*
X164653608Y-71793701D01*
X164580180Y-71677099D01*
X166811500Y-71677099D01*
X166811501Y-74877900D01*
X166822474Y-74983667D01*
X166824658Y-74990213D01*
X166875730Y-75143292D01*
X166878450Y-75151446D01*
X166971521Y-75301849D01*
X166976703Y-75307022D01*
X166979661Y-75309975D01*
X167096697Y-75426806D01*
X167117928Y-75439893D01*
X167201597Y-75491467D01*
X167247261Y-75519615D01*
X167327004Y-75546064D01*
X167408610Y-75573132D01*
X167408612Y-75573132D01*
X167415138Y-75575297D01*
X167421974Y-75575997D01*
X167421977Y-75575998D01*
X167465030Y-75580409D01*
X167519599Y-75586000D01*
X168353519Y-75586000D01*
X169200400Y-75585999D01*
X169306167Y-75575026D01*
X169386100Y-75548358D01*
X169467002Y-75521367D01*
X169467004Y-75521366D01*
X169473946Y-75519050D01*
X169624349Y-75425979D01*
X169749306Y-75300803D01*
X169842115Y-75150239D01*
X169897797Y-74982362D01*
X169908500Y-74877901D01*
X169908499Y-71677100D01*
X169897526Y-71571333D01*
X169865220Y-71474500D01*
X169843867Y-71410498D01*
X169843866Y-71410496D01*
X169841550Y-71403554D01*
X169748479Y-71253151D01*
X169740753Y-71245438D01*
X169661883Y-71166707D01*
X169623303Y-71128194D01*
X169519166Y-71064003D01*
X169478969Y-71039225D01*
X169478967Y-71039224D01*
X169472739Y-71035385D01*
X169352245Y-70995419D01*
X169311390Y-70981868D01*
X169311388Y-70981868D01*
X169304862Y-70979703D01*
X169298026Y-70979003D01*
X169298023Y-70979002D01*
X169254970Y-70974591D01*
X169200401Y-70969000D01*
X168366481Y-70969000D01*
X167519600Y-70969001D01*
X167413833Y-70979974D01*
X167407286Y-70982158D01*
X167407287Y-70982158D01*
X167252998Y-71033633D01*
X167252996Y-71033634D01*
X167246054Y-71035950D01*
X167095651Y-71129021D01*
X166970694Y-71254197D01*
X166877885Y-71404761D01*
X166822203Y-71572638D01*
X166811500Y-71677099D01*
X164580180Y-71677099D01*
X164526261Y-71591476D01*
X164520220Y-71583401D01*
X164362173Y-71404132D01*
X164354921Y-71397129D01*
X164170250Y-71245438D01*
X164161967Y-71239682D01*
X163955421Y-71119469D01*
X163946316Y-71115107D01*
X163723215Y-71029466D01*
X163713526Y-71026615D01*
X163551736Y-70992815D01*
X163537675Y-70993938D01*
X163534000Y-71004046D01*
X163534000Y-73005385D01*
X163026000Y-73005385D01*
X163026000Y-71006642D01*
X163021864Y-70992556D01*
X163008886Y-70990507D01*
X162983369Y-70993460D01*
X162973479Y-70995419D01*
X162743524Y-71060489D01*
X162734073Y-71064003D01*
X162517472Y-71165006D01*
X162508708Y-71169985D01*
X162311049Y-71304314D01*
X162303185Y-71310638D01*
X162129549Y-71474836D01*
X162122790Y-71482343D01*
X161977643Y-71672188D01*
X161972179Y-71680667D01*
X161859248Y-71891283D01*
X161855208Y-71900529D01*
X161777404Y-72126487D01*
X161774893Y-72136268D01*
X161734031Y-72372834D01*
X161733176Y-72380706D01*
X161732064Y-72405185D01*
X161732000Y-72408018D01*
X161732000Y-73005385D01*
X159748500Y-73005385D01*
X159748500Y-72454882D01*
X159748298Y-72452369D01*
X159733960Y-72274159D01*
X159733959Y-72274154D01*
X159733554Y-72269118D01*
X159674115Y-72027127D01*
X159576751Y-71797752D01*
X159489998Y-71659990D01*
X159446663Y-71591175D01*
X159446662Y-71591174D01*
X159443967Y-71586894D01*
X159279178Y-71399978D01*
X159086625Y-71241813D01*
X158871262Y-71116469D01*
X158727795Y-71061397D01*
X158643357Y-71028984D01*
X158643354Y-71028983D01*
X158638628Y-71027169D01*
X158394710Y-70976212D01*
X158389661Y-70975983D01*
X158389655Y-70975982D01*
X158275996Y-70970821D01*
X158145782Y-70964908D01*
X158140762Y-70965489D01*
X158140758Y-70965489D01*
X158050074Y-70975982D01*
X157898250Y-70993549D01*
X157893376Y-70994928D01*
X157893372Y-70994929D01*
X157663349Y-71060019D01*
X157663347Y-71060020D01*
X157658480Y-71061397D01*
X157653905Y-71063531D01*
X157653898Y-71063533D01*
X157504143Y-71133366D01*
X157432643Y-71166707D01*
X157428463Y-71169548D01*
X157428459Y-71169550D01*
X157230736Y-71303922D01*
X157226547Y-71306769D01*
X157222872Y-71310244D01*
X157222871Y-71310245D01*
X157131375Y-71396768D01*
X157045496Y-71477980D01*
X157042418Y-71482006D01*
X157042417Y-71482007D01*
X156897221Y-71671916D01*
X156897218Y-71671920D01*
X156894148Y-71675936D01*
X156776396Y-71895543D01*
X156774750Y-71900324D01*
X156774748Y-71900328D01*
X156729341Y-72032200D01*
X156695269Y-72131151D01*
X156694407Y-72136143D01*
X156670568Y-72274159D01*
X156652856Y-72376699D01*
X156651500Y-72406559D01*
X156651500Y-74100118D01*
X154668000Y-74100118D01*
X154668000Y-73549615D01*
X154663525Y-73534376D01*
X154662135Y-73533171D01*
X154654452Y-73531500D01*
X153392115Y-73531500D01*
X153376876Y-73535975D01*
X153375671Y-73537365D01*
X153374000Y-73545048D01*
X153374000Y-75548358D01*
X152866000Y-75548358D01*
X152866000Y-73549615D01*
X152861525Y-73534376D01*
X152860135Y-73533171D01*
X152852452Y-73531500D01*
X151590115Y-73531500D01*
X151574876Y-73535975D01*
X151573671Y-73537365D01*
X151572000Y-73545048D01*
X151572000Y-74097572D01*
X149588500Y-74097572D01*
X149588500Y-73005385D01*
X151572000Y-73005385D01*
X151576475Y-73020624D01*
X151577865Y-73021829D01*
X151585548Y-73023500D01*
X152847885Y-73023500D01*
X152863124Y-73019025D01*
X152864329Y-73017635D01*
X152866000Y-73009952D01*
X152866000Y-73005385D01*
X153374000Y-73005385D01*
X153378475Y-73020624D01*
X153379865Y-73021829D01*
X153387548Y-73023500D01*
X154649885Y-73023500D01*
X154665124Y-73019025D01*
X154666329Y-73017635D01*
X154668000Y-73009952D01*
X154668000Y-72457428D01*
X154667798Y-72452396D01*
X154653464Y-72274241D01*
X154651852Y-72264288D01*
X154594846Y-72032200D01*
X154591663Y-72022630D01*
X154498282Y-71802640D01*
X154493608Y-71793701D01*
X154366261Y-71591476D01*
X154360220Y-71583401D01*
X154202173Y-71404132D01*
X154194921Y-71397129D01*
X154010250Y-71245438D01*
X154001967Y-71239682D01*
X153795421Y-71119469D01*
X153786316Y-71115107D01*
X153563215Y-71029466D01*
X153553526Y-71026615D01*
X153391736Y-70992815D01*
X153377675Y-70993938D01*
X153374000Y-71004046D01*
X153374000Y-73005385D01*
X152866000Y-73005385D01*
X152866000Y-71006642D01*
X152861864Y-70992556D01*
X152848886Y-70990507D01*
X152823369Y-70993460D01*
X152813479Y-70995419D01*
X152583524Y-71060489D01*
X152574073Y-71064003D01*
X152357472Y-71165006D01*
X152348708Y-71169985D01*
X152151049Y-71304314D01*
X152143185Y-71310638D01*
X151969549Y-71474836D01*
X151962790Y-71482343D01*
X151817643Y-71672188D01*
X151812179Y-71680667D01*
X151699248Y-71891283D01*
X151695208Y-71900529D01*
X151617404Y-72126487D01*
X151614893Y-72136268D01*
X151574031Y-72372834D01*
X151573176Y-72380706D01*
X151572064Y-72405185D01*
X151572000Y-72408018D01*
X151572000Y-73005385D01*
X149588500Y-73005385D01*
X149588500Y-72454882D01*
X149588298Y-72452369D01*
X149573960Y-72274159D01*
X149573959Y-72274154D01*
X149573554Y-72269118D01*
X149514115Y-72027127D01*
X149416751Y-71797752D01*
X149329998Y-71659990D01*
X149286663Y-71591175D01*
X149286662Y-71591174D01*
X149283967Y-71586894D01*
X149119178Y-71399978D01*
X148926625Y-71241813D01*
X148711262Y-71116469D01*
X148567795Y-71061397D01*
X148483357Y-71028984D01*
X148483354Y-71028983D01*
X148478628Y-71027169D01*
X148234710Y-70976212D01*
X148229661Y-70975983D01*
X148229655Y-70975982D01*
X148115996Y-70970821D01*
X147985782Y-70964908D01*
X147980762Y-70965489D01*
X147980758Y-70965489D01*
X147890074Y-70975982D01*
X147738250Y-70993549D01*
X147733376Y-70994928D01*
X147733372Y-70994929D01*
X147503349Y-71060019D01*
X147503347Y-71060020D01*
X147498480Y-71061397D01*
X147493905Y-71063531D01*
X147493898Y-71063533D01*
X147344143Y-71133366D01*
X147272643Y-71166707D01*
X147268463Y-71169548D01*
X147268459Y-71169550D01*
X147070736Y-71303922D01*
X147066547Y-71306769D01*
X147062872Y-71310244D01*
X147062871Y-71310245D01*
X146971375Y-71396768D01*
X146885496Y-71477980D01*
X146882418Y-71482006D01*
X146882417Y-71482007D01*
X146737221Y-71671916D01*
X146737218Y-71671920D01*
X146734148Y-71675936D01*
X146616396Y-71895543D01*
X146614750Y-71900324D01*
X146614748Y-71900328D01*
X146569341Y-72032200D01*
X146535269Y-72131151D01*
X146534407Y-72136143D01*
X146510568Y-72274159D01*
X146492856Y-72376699D01*
X146491500Y-72406559D01*
X146491500Y-74100118D01*
X144508000Y-74100118D01*
X144508000Y-73549615D01*
X144503525Y-73534376D01*
X144502135Y-73533171D01*
X144494452Y-73531500D01*
X141430115Y-73531500D01*
X141414876Y-73535975D01*
X141413671Y-73537365D01*
X141412000Y-73545048D01*
X141412000Y-74097572D01*
X141412202Y-74102604D01*
X141426536Y-74280759D01*
X141428148Y-74290712D01*
X141485154Y-74522800D01*
X141488337Y-74532370D01*
X141581718Y-74752360D01*
X141586392Y-74761299D01*
X141713739Y-74963524D01*
X141719780Y-74971599D01*
X141877827Y-75150868D01*
X141885079Y-75157871D01*
X142069750Y-75309562D01*
X142078033Y-75315318D01*
X142284579Y-75435531D01*
X142293684Y-75439893D01*
X142516790Y-75525536D01*
X142526467Y-75528384D01*
X142736025Y-75572163D01*
X142798615Y-75605673D01*
X142833153Y-75667702D01*
X142828673Y-75738557D01*
X142786596Y-75795742D01*
X142720283Y-75821101D01*
X142710258Y-75821500D01*
X139031417Y-75821500D01*
X139011707Y-75819949D01*
X139004327Y-75818780D01*
X139004326Y-75818780D01*
X138997810Y-75817748D01*
X138991223Y-75818093D01*
X138991218Y-75818093D01*
X138929520Y-75821327D01*
X138922926Y-75821500D01*
X138902390Y-75821500D01*
X138899118Y-75821844D01*
X138899116Y-75821844D01*
X138881958Y-75823647D01*
X138875384Y-75824164D01*
X138813696Y-75827397D01*
X138813694Y-75827397D01*
X138807097Y-75827743D01*
X138793504Y-75831385D01*
X138774075Y-75834986D01*
X138760072Y-75836458D01*
X138695025Y-75857593D01*
X138688712Y-75859463D01*
X138668074Y-75864993D01*
X138629003Y-75875462D01*
X138629000Y-75875463D01*
X138622630Y-75877170D01*
X138610085Y-75883562D01*
X138591826Y-75891125D01*
X138578444Y-75895473D01*
X138572723Y-75898776D01*
X138519223Y-75929664D01*
X138513426Y-75932812D01*
X138458351Y-75960874D01*
X138458348Y-75960876D01*
X138452470Y-75963871D01*
X138447342Y-75968024D01*
X138447340Y-75968025D01*
X138441534Y-75972727D01*
X138425237Y-75983927D01*
X138418776Y-75987657D01*
X138418772Y-75987660D01*
X138413056Y-75990960D01*
X138408150Y-75995377D01*
X138408145Y-75995381D01*
X138362231Y-76036722D01*
X138357216Y-76041006D01*
X138353609Y-76043927D01*
X138341259Y-76053928D01*
X138326744Y-76068443D01*
X138321959Y-76072984D01*
X138271134Y-76118747D01*
X138267255Y-76124086D01*
X138267254Y-76124087D01*
X138262860Y-76130135D01*
X138250019Y-76145168D01*
X137295168Y-77100019D01*
X137280135Y-77112860D01*
X137268747Y-77121134D01*
X137264327Y-77126043D01*
X137222984Y-77171959D01*
X137218443Y-77176744D01*
X137203928Y-77191259D01*
X137201852Y-77193823D01*
X137191006Y-77207216D01*
X137186722Y-77212231D01*
X137145381Y-77258145D01*
X137145377Y-77258150D01*
X137140960Y-77263056D01*
X137137660Y-77268772D01*
X137137657Y-77268776D01*
X137133927Y-77275237D01*
X137122727Y-77291533D01*
X137113871Y-77302470D01*
X137091306Y-77346757D01*
X137082815Y-77363421D01*
X137079669Y-77369215D01*
X137045473Y-77428444D01*
X137043432Y-77434726D01*
X137043431Y-77434728D01*
X137041125Y-77441826D01*
X137033560Y-77460092D01*
X137027171Y-77472630D01*
X137011780Y-77530072D01*
X137009469Y-77538695D01*
X137007600Y-77545003D01*
X136986458Y-77610072D01*
X136985768Y-77616637D01*
X136985766Y-77616646D01*
X136984985Y-77624075D01*
X136981383Y-77643509D01*
X136979453Y-77650714D01*
X136977743Y-77657097D01*
X136977398Y-77663688D01*
X136977397Y-77663692D01*
X136974164Y-77725384D01*
X136973647Y-77731958D01*
X136973285Y-77735405D01*
X136971500Y-77752390D01*
X136971500Y-77772926D01*
X136971327Y-77779520D01*
X136968586Y-77831826D01*
X136967748Y-77847810D01*
X136968780Y-77854325D01*
X136969949Y-77861705D01*
X136971500Y-77881417D01*
X136971500Y-78195914D01*
X136951498Y-78264035D01*
X136916325Y-78300124D01*
X136906547Y-78306769D01*
X136902872Y-78310244D01*
X136902871Y-78310245D01*
X136809511Y-78398531D01*
X136725496Y-78477980D01*
X136722418Y-78482006D01*
X136722417Y-78482007D01*
X136577221Y-78671916D01*
X136577218Y-78671920D01*
X136574148Y-78675936D01*
X136456396Y-78895543D01*
X136454750Y-78900324D01*
X136454748Y-78900328D01*
X136409341Y-79032200D01*
X136375269Y-79131151D01*
X136374407Y-79136143D01*
X136350568Y-79274159D01*
X136332856Y-79376699D01*
X136331500Y-79406559D01*
X136331500Y-81100118D01*
X136331702Y-81102626D01*
X136331702Y-81102631D01*
X136346034Y-81280759D01*
X136346446Y-81285882D01*
X136405885Y-81527873D01*
X136503249Y-81757248D01*
X136505947Y-81761532D01*
X136633148Y-81963524D01*
X136636033Y-81968106D01*
X136800822Y-82155022D01*
X136922383Y-82254873D01*
X136925476Y-82257414D01*
X136965419Y-82316108D01*
X136971500Y-82354778D01*
X136971500Y-82701497D01*
X136951498Y-82769618D01*
X136934595Y-82790592D01*
X136740592Y-82984595D01*
X136678280Y-83018621D01*
X136651497Y-83021500D01*
X136027074Y-83021500D01*
X136020480Y-83021327D01*
X135958782Y-83018093D01*
X135958777Y-83018093D01*
X135952190Y-83017748D01*
X135938292Y-83019949D01*
X135918583Y-83021500D01*
X129098503Y-83021500D01*
X129030382Y-83001498D01*
X129009408Y-82984595D01*
X128665405Y-82640592D01*
X128631379Y-82578280D01*
X128628500Y-82551497D01*
X128628500Y-82359086D01*
X128648502Y-82290965D01*
X128683675Y-82254876D01*
X128693453Y-82248231D01*
X128697545Y-82244362D01*
X128870824Y-82080500D01*
X128874504Y-82077020D01*
X128877840Y-82072657D01*
X129022779Y-81883084D01*
X129022782Y-81883080D01*
X129025852Y-81879064D01*
X129143604Y-81659457D01*
X129188913Y-81527873D01*
X129223082Y-81428638D01*
X129224731Y-81423849D01*
X129242482Y-81321079D01*
X129266469Y-81182211D01*
X129266470Y-81182205D01*
X129267144Y-81178301D01*
X129268500Y-81148441D01*
X129268500Y-81100118D01*
X131251500Y-81100118D01*
X131251702Y-81102626D01*
X131251702Y-81102631D01*
X131266034Y-81280759D01*
X131266446Y-81285882D01*
X131325885Y-81527873D01*
X131423249Y-81757248D01*
X131425947Y-81761532D01*
X131553148Y-81963524D01*
X131556033Y-81968106D01*
X131720822Y-82155022D01*
X131913375Y-82313187D01*
X132128738Y-82438531D01*
X132135965Y-82441305D01*
X132356643Y-82526016D01*
X132356646Y-82526017D01*
X132361372Y-82527831D01*
X132605290Y-82578788D01*
X132610339Y-82579017D01*
X132610345Y-82579018D01*
X132724004Y-82584179D01*
X132854218Y-82590092D01*
X132859238Y-82589511D01*
X132859242Y-82589511D01*
X132976026Y-82575998D01*
X133101750Y-82561451D01*
X133106624Y-82560072D01*
X133106628Y-82560071D01*
X133336651Y-82494981D01*
X133336653Y-82494980D01*
X133341520Y-82493603D01*
X133346095Y-82491469D01*
X133346102Y-82491467D01*
X133562776Y-82390429D01*
X133567357Y-82388293D01*
X133571537Y-82385452D01*
X133571541Y-82385450D01*
X133769264Y-82251078D01*
X133769265Y-82251077D01*
X133773453Y-82248231D01*
X133777545Y-82244362D01*
X133950824Y-82080500D01*
X133954504Y-82077020D01*
X133957840Y-82072657D01*
X134102779Y-81883084D01*
X134102782Y-81883080D01*
X134105852Y-81879064D01*
X134223604Y-81659457D01*
X134268913Y-81527873D01*
X134303082Y-81428638D01*
X134304731Y-81423849D01*
X134322482Y-81321079D01*
X134346469Y-81182211D01*
X134346470Y-81182205D01*
X134347144Y-81178301D01*
X134348500Y-81148441D01*
X134348500Y-79454882D01*
X134348298Y-79452369D01*
X134333960Y-79274159D01*
X134333959Y-79274154D01*
X134333554Y-79269118D01*
X134274115Y-79027127D01*
X134176751Y-78797752D01*
X134089998Y-78659990D01*
X134046663Y-78591175D01*
X134046662Y-78591174D01*
X134043967Y-78586894D01*
X133879178Y-78399978D01*
X133686625Y-78241813D01*
X133471262Y-78116469D01*
X133327795Y-78061397D01*
X133243357Y-78028984D01*
X133243354Y-78028983D01*
X133238628Y-78027169D01*
X132994710Y-77976212D01*
X132989661Y-77975983D01*
X132989655Y-77975982D01*
X132875996Y-77970821D01*
X132745782Y-77964908D01*
X132740762Y-77965489D01*
X132740758Y-77965489D01*
X132650117Y-77975977D01*
X132498250Y-77993549D01*
X132493376Y-77994928D01*
X132493372Y-77994929D01*
X132263349Y-78060019D01*
X132263347Y-78060020D01*
X132258480Y-78061397D01*
X132253905Y-78063531D01*
X132253898Y-78063533D01*
X132104143Y-78133366D01*
X132032643Y-78166707D01*
X132028463Y-78169548D01*
X132028459Y-78169550D01*
X131830736Y-78303922D01*
X131826547Y-78306769D01*
X131822872Y-78310244D01*
X131822871Y-78310245D01*
X131729511Y-78398531D01*
X131645496Y-78477980D01*
X131642418Y-78482006D01*
X131642417Y-78482007D01*
X131497221Y-78671916D01*
X131497218Y-78671920D01*
X131494148Y-78675936D01*
X131376396Y-78895543D01*
X131374750Y-78900324D01*
X131374748Y-78900328D01*
X131329341Y-79032200D01*
X131295269Y-79131151D01*
X131294407Y-79136143D01*
X131270568Y-79274159D01*
X131252856Y-79376699D01*
X131251500Y-79406559D01*
X131251500Y-81100118D01*
X129268500Y-81100118D01*
X129268500Y-79454882D01*
X129268298Y-79452369D01*
X129253960Y-79274159D01*
X129253959Y-79274154D01*
X129253554Y-79269118D01*
X129194115Y-79027127D01*
X129096751Y-78797752D01*
X129009998Y-78659990D01*
X128966663Y-78591175D01*
X128966662Y-78591174D01*
X128963967Y-78586894D01*
X128799178Y-78399978D01*
X128674524Y-78297585D01*
X128634581Y-78238892D01*
X128628500Y-78200222D01*
X128628500Y-77801417D01*
X128630051Y-77781707D01*
X128631220Y-77774327D01*
X128631220Y-77774326D01*
X128632252Y-77767810D01*
X128631617Y-77755680D01*
X128628673Y-77699520D01*
X128628500Y-77692926D01*
X128628500Y-77672390D01*
X128627586Y-77663692D01*
X128626353Y-77651958D01*
X128625836Y-77645384D01*
X128622603Y-77583696D01*
X128622603Y-77583694D01*
X128622257Y-77577097D01*
X128618615Y-77563504D01*
X128615014Y-77544075D01*
X128614232Y-77536639D01*
X128613542Y-77530072D01*
X128592407Y-77465025D01*
X128590535Y-77458706D01*
X128574538Y-77399003D01*
X128574537Y-77399000D01*
X128572830Y-77392630D01*
X128566438Y-77380085D01*
X128558874Y-77361823D01*
X128556568Y-77354726D01*
X128554527Y-77348444D01*
X128520336Y-77289223D01*
X128517188Y-77283426D01*
X128489126Y-77228351D01*
X128489124Y-77228348D01*
X128486129Y-77222470D01*
X128477273Y-77211533D01*
X128466073Y-77195237D01*
X128462343Y-77188776D01*
X128462340Y-77188772D01*
X128459040Y-77183056D01*
X128454623Y-77178150D01*
X128454619Y-77178145D01*
X128413278Y-77132231D01*
X128408994Y-77127216D01*
X128398148Y-77113823D01*
X128396072Y-77111259D01*
X128381557Y-77096744D01*
X128377016Y-77091959D01*
X128335673Y-77046043D01*
X128331253Y-77041134D01*
X128319865Y-77032860D01*
X128304832Y-77020019D01*
X127699981Y-76415168D01*
X127687140Y-76400135D01*
X127682746Y-76394087D01*
X127682745Y-76394086D01*
X127678866Y-76388747D01*
X127628041Y-76342984D01*
X127623256Y-76338443D01*
X127608741Y-76323928D01*
X127596428Y-76313957D01*
X127592784Y-76311006D01*
X127587769Y-76306722D01*
X127541855Y-76265381D01*
X127541850Y-76265377D01*
X127536944Y-76260960D01*
X127531228Y-76257660D01*
X127531224Y-76257657D01*
X127524763Y-76253927D01*
X127508466Y-76242727D01*
X127502660Y-76238025D01*
X127502658Y-76238024D01*
X127497530Y-76233871D01*
X127436577Y-76202814D01*
X127430782Y-76199667D01*
X127377279Y-76168777D01*
X127377278Y-76168776D01*
X127371556Y-76165473D01*
X127365274Y-76163432D01*
X127365272Y-76163431D01*
X127358174Y-76161125D01*
X127339907Y-76153559D01*
X127327370Y-76147171D01*
X127261299Y-76129467D01*
X127254997Y-76127600D01*
X127189928Y-76106458D01*
X127183363Y-76105768D01*
X127183354Y-76105766D01*
X127175925Y-76104985D01*
X127156491Y-76101383D01*
X127149286Y-76099453D01*
X127149284Y-76099453D01*
X127142903Y-76097743D01*
X127136312Y-76097398D01*
X127136308Y-76097397D01*
X127074616Y-76094164D01*
X127068042Y-76093647D01*
X127050884Y-76091844D01*
X127050882Y-76091844D01*
X127047610Y-76091500D01*
X127027074Y-76091500D01*
X127020480Y-76091327D01*
X126958782Y-76088093D01*
X126958777Y-76088093D01*
X126952190Y-76087748D01*
X126938292Y-76089949D01*
X126918583Y-76091500D01*
X124428503Y-76091500D01*
X124360382Y-76071498D01*
X124339408Y-76054595D01*
X123663745Y-75378932D01*
X123629719Y-75316620D01*
X123634784Y-75245805D01*
X123666267Y-75198289D01*
X123790818Y-75080506D01*
X123790820Y-75080504D01*
X123794504Y-75077020D01*
X123861884Y-74988890D01*
X123942779Y-74883084D01*
X123942782Y-74883080D01*
X123945852Y-74879064D01*
X124063604Y-74659457D01*
X124108913Y-74527873D01*
X124143082Y-74428638D01*
X124144731Y-74423849D01*
X124162482Y-74321079D01*
X124186469Y-74182211D01*
X124186470Y-74182205D01*
X124187144Y-74178301D01*
X124188500Y-74148441D01*
X124188500Y-74100118D01*
X126171500Y-74100118D01*
X126171702Y-74102626D01*
X126171702Y-74102631D01*
X126186034Y-74280759D01*
X126186446Y-74285882D01*
X126245885Y-74527873D01*
X126343249Y-74757248D01*
X126345947Y-74761532D01*
X126473148Y-74963524D01*
X126476033Y-74968106D01*
X126640822Y-75155022D01*
X126833375Y-75313187D01*
X127048738Y-75438531D01*
X127165055Y-75483181D01*
X127276643Y-75526016D01*
X127276646Y-75526017D01*
X127281372Y-75527831D01*
X127525290Y-75578788D01*
X127530339Y-75579017D01*
X127530345Y-75579018D01*
X127644004Y-75584179D01*
X127774218Y-75590092D01*
X127779238Y-75589511D01*
X127779242Y-75589511D01*
X127896026Y-75575998D01*
X128021750Y-75561451D01*
X128026624Y-75560072D01*
X128026628Y-75560071D01*
X128256651Y-75494981D01*
X128256653Y-75494980D01*
X128261520Y-75493603D01*
X128266095Y-75491469D01*
X128266102Y-75491467D01*
X128482776Y-75390429D01*
X128487357Y-75388293D01*
X128491537Y-75385452D01*
X128491541Y-75385450D01*
X128689264Y-75251078D01*
X128689265Y-75251077D01*
X128693453Y-75248231D01*
X128697545Y-75244362D01*
X128870824Y-75080500D01*
X128874504Y-75077020D01*
X128941884Y-74988890D01*
X129022779Y-74883084D01*
X129022782Y-74883080D01*
X129025852Y-74879064D01*
X129143604Y-74659457D01*
X129188913Y-74527873D01*
X129223082Y-74428638D01*
X129224731Y-74423849D01*
X129242482Y-74321079D01*
X129266469Y-74182211D01*
X129266470Y-74182205D01*
X129267144Y-74178301D01*
X129268500Y-74148441D01*
X129268500Y-74097572D01*
X131252000Y-74097572D01*
X131252202Y-74102604D01*
X131266536Y-74280759D01*
X131268148Y-74290712D01*
X131325154Y-74522800D01*
X131328337Y-74532370D01*
X131421718Y-74752360D01*
X131426392Y-74761299D01*
X131553739Y-74963524D01*
X131559780Y-74971599D01*
X131717827Y-75150868D01*
X131725079Y-75157871D01*
X131909750Y-75309562D01*
X131918033Y-75315318D01*
X132124579Y-75435531D01*
X132133684Y-75439893D01*
X132356785Y-75525534D01*
X132366474Y-75528385D01*
X132528264Y-75562185D01*
X132542325Y-75561062D01*
X132546000Y-75550954D01*
X132546000Y-75548358D01*
X133054000Y-75548358D01*
X133058136Y-75562444D01*
X133071114Y-75564493D01*
X133096631Y-75561540D01*
X133106521Y-75559581D01*
X133336476Y-75494511D01*
X133345927Y-75490997D01*
X133562528Y-75389994D01*
X133571292Y-75385015D01*
X133768951Y-75250686D01*
X133776815Y-75244362D01*
X133950451Y-75080164D01*
X133957210Y-75072657D01*
X134102357Y-74882812D01*
X134107821Y-74874333D01*
X134220752Y-74663717D01*
X134224792Y-74654471D01*
X134302596Y-74428513D01*
X134305107Y-74418732D01*
X134345969Y-74182166D01*
X134346824Y-74174294D01*
X134347936Y-74149815D01*
X134348000Y-74146982D01*
X134348000Y-74100118D01*
X136331500Y-74100118D01*
X136331702Y-74102626D01*
X136331702Y-74102631D01*
X136346034Y-74280759D01*
X136346446Y-74285882D01*
X136405885Y-74527873D01*
X136503249Y-74757248D01*
X136505947Y-74761532D01*
X136633148Y-74963524D01*
X136636033Y-74968106D01*
X136800822Y-75155022D01*
X136993375Y-75313187D01*
X137208738Y-75438531D01*
X137325055Y-75483181D01*
X137436643Y-75526016D01*
X137436646Y-75526017D01*
X137441372Y-75527831D01*
X137685290Y-75578788D01*
X137690339Y-75579017D01*
X137690345Y-75579018D01*
X137804004Y-75584179D01*
X137934218Y-75590092D01*
X137939238Y-75589511D01*
X137939242Y-75589511D01*
X138056026Y-75575998D01*
X138181750Y-75561451D01*
X138186624Y-75560072D01*
X138186628Y-75560071D01*
X138416651Y-75494981D01*
X138416653Y-75494980D01*
X138421520Y-75493603D01*
X138426095Y-75491469D01*
X138426102Y-75491467D01*
X138642776Y-75390429D01*
X138647357Y-75388293D01*
X138651537Y-75385452D01*
X138651541Y-75385450D01*
X138849264Y-75251078D01*
X138849265Y-75251077D01*
X138853453Y-75248231D01*
X138857545Y-75244362D01*
X139030824Y-75080500D01*
X139034504Y-75077020D01*
X139101884Y-74988890D01*
X139182779Y-74883084D01*
X139182782Y-74883080D01*
X139185852Y-74879064D01*
X139303604Y-74659457D01*
X139348913Y-74527873D01*
X139383082Y-74428638D01*
X139384731Y-74423849D01*
X139402482Y-74321079D01*
X139426469Y-74182211D01*
X139426470Y-74182205D01*
X139427144Y-74178301D01*
X139428500Y-74148441D01*
X139428500Y-73005385D01*
X141412000Y-73005385D01*
X141416475Y-73020624D01*
X141417865Y-73021829D01*
X141425548Y-73023500D01*
X142687885Y-73023500D01*
X142703124Y-73019025D01*
X142704329Y-73017635D01*
X142706000Y-73009952D01*
X142706000Y-73005385D01*
X143214000Y-73005385D01*
X143218475Y-73020624D01*
X143219865Y-73021829D01*
X143227548Y-73023500D01*
X144489885Y-73023500D01*
X144505124Y-73019025D01*
X144506329Y-73017635D01*
X144508000Y-73009952D01*
X144508000Y-72457428D01*
X144507798Y-72452396D01*
X144493464Y-72274241D01*
X144491852Y-72264288D01*
X144434846Y-72032200D01*
X144431663Y-72022630D01*
X144338282Y-71802640D01*
X144333608Y-71793701D01*
X144206261Y-71591476D01*
X144200220Y-71583401D01*
X144042173Y-71404132D01*
X144034921Y-71397129D01*
X143850250Y-71245438D01*
X143841967Y-71239682D01*
X143635421Y-71119469D01*
X143626316Y-71115107D01*
X143403215Y-71029466D01*
X143393526Y-71026615D01*
X143231736Y-70992815D01*
X143217675Y-70993938D01*
X143214000Y-71004046D01*
X143214000Y-73005385D01*
X142706000Y-73005385D01*
X142706000Y-71006642D01*
X142701864Y-70992556D01*
X142688886Y-70990507D01*
X142663369Y-70993460D01*
X142653479Y-70995419D01*
X142423524Y-71060489D01*
X142414073Y-71064003D01*
X142197472Y-71165006D01*
X142188708Y-71169985D01*
X141991049Y-71304314D01*
X141983185Y-71310638D01*
X141809549Y-71474836D01*
X141802790Y-71482343D01*
X141657643Y-71672188D01*
X141652179Y-71680667D01*
X141539248Y-71891283D01*
X141535208Y-71900529D01*
X141457404Y-72126487D01*
X141454893Y-72136268D01*
X141414031Y-72372834D01*
X141413176Y-72380706D01*
X141412064Y-72405185D01*
X141412000Y-72408018D01*
X141412000Y-73005385D01*
X139428500Y-73005385D01*
X139428500Y-72454882D01*
X139428298Y-72452369D01*
X139413960Y-72274159D01*
X139413959Y-72274154D01*
X139413554Y-72269118D01*
X139354115Y-72027127D01*
X139256751Y-71797752D01*
X139169998Y-71659990D01*
X139126663Y-71591175D01*
X139126662Y-71591174D01*
X139123967Y-71586894D01*
X138959178Y-71399978D01*
X138766625Y-71241813D01*
X138551262Y-71116469D01*
X138407795Y-71061397D01*
X138323357Y-71028984D01*
X138323354Y-71028983D01*
X138318628Y-71027169D01*
X138074710Y-70976212D01*
X138069661Y-70975983D01*
X138069655Y-70975982D01*
X137955996Y-70970821D01*
X137825782Y-70964908D01*
X137820762Y-70965489D01*
X137820758Y-70965489D01*
X137730074Y-70975982D01*
X137578250Y-70993549D01*
X137573376Y-70994928D01*
X137573372Y-70994929D01*
X137343349Y-71060019D01*
X137343347Y-71060020D01*
X137338480Y-71061397D01*
X137333905Y-71063531D01*
X137333898Y-71063533D01*
X137184143Y-71133366D01*
X137112643Y-71166707D01*
X137108463Y-71169548D01*
X137108459Y-71169550D01*
X136910736Y-71303922D01*
X136906547Y-71306769D01*
X136902872Y-71310244D01*
X136902871Y-71310245D01*
X136811375Y-71396768D01*
X136725496Y-71477980D01*
X136722418Y-71482006D01*
X136722417Y-71482007D01*
X136577221Y-71671916D01*
X136577218Y-71671920D01*
X136574148Y-71675936D01*
X136456396Y-71895543D01*
X136454750Y-71900324D01*
X136454748Y-71900328D01*
X136409341Y-72032200D01*
X136375269Y-72131151D01*
X136374407Y-72136143D01*
X136350568Y-72274159D01*
X136332856Y-72376699D01*
X136331500Y-72406559D01*
X136331500Y-74100118D01*
X134348000Y-74100118D01*
X134348000Y-73549615D01*
X134343525Y-73534376D01*
X134342135Y-73533171D01*
X134334452Y-73531500D01*
X133072115Y-73531500D01*
X133056876Y-73535975D01*
X133055671Y-73537365D01*
X133054000Y-73545048D01*
X133054000Y-75548358D01*
X132546000Y-75548358D01*
X132546000Y-73549615D01*
X132541525Y-73534376D01*
X132540135Y-73533171D01*
X132532452Y-73531500D01*
X131270115Y-73531500D01*
X131254876Y-73535975D01*
X131253671Y-73537365D01*
X131252000Y-73545048D01*
X131252000Y-74097572D01*
X129268500Y-74097572D01*
X129268500Y-73005385D01*
X131252000Y-73005385D01*
X131256475Y-73020624D01*
X131257865Y-73021829D01*
X131265548Y-73023500D01*
X132527885Y-73023500D01*
X132543124Y-73019025D01*
X132544329Y-73017635D01*
X132546000Y-73009952D01*
X132546000Y-73005385D01*
X133054000Y-73005385D01*
X133058475Y-73020624D01*
X133059865Y-73021829D01*
X133067548Y-73023500D01*
X134329885Y-73023500D01*
X134345124Y-73019025D01*
X134346329Y-73017635D01*
X134348000Y-73009952D01*
X134348000Y-72457428D01*
X134347798Y-72452396D01*
X134333464Y-72274241D01*
X134331852Y-72264288D01*
X134274846Y-72032200D01*
X134271663Y-72022630D01*
X134178282Y-71802640D01*
X134173608Y-71793701D01*
X134046261Y-71591476D01*
X134040220Y-71583401D01*
X133882173Y-71404132D01*
X133874921Y-71397129D01*
X133690250Y-71245438D01*
X133681967Y-71239682D01*
X133475421Y-71119469D01*
X133466316Y-71115107D01*
X133243215Y-71029466D01*
X133233526Y-71026615D01*
X133071736Y-70992815D01*
X133057675Y-70993938D01*
X133054000Y-71004046D01*
X133054000Y-73005385D01*
X132546000Y-73005385D01*
X132546000Y-71006642D01*
X132541864Y-70992556D01*
X132528886Y-70990507D01*
X132503369Y-70993460D01*
X132493479Y-70995419D01*
X132263524Y-71060489D01*
X132254073Y-71064003D01*
X132037472Y-71165006D01*
X132028708Y-71169985D01*
X131831049Y-71304314D01*
X131823185Y-71310638D01*
X131649549Y-71474836D01*
X131642790Y-71482343D01*
X131497643Y-71672188D01*
X131492179Y-71680667D01*
X131379248Y-71891283D01*
X131375208Y-71900529D01*
X131297404Y-72126487D01*
X131294893Y-72136268D01*
X131254031Y-72372834D01*
X131253176Y-72380706D01*
X131252064Y-72405185D01*
X131252000Y-72408018D01*
X131252000Y-73005385D01*
X129268500Y-73005385D01*
X129268500Y-72454882D01*
X129268298Y-72452369D01*
X129253960Y-72274159D01*
X129253959Y-72274154D01*
X129253554Y-72269118D01*
X129194115Y-72027127D01*
X129096751Y-71797752D01*
X129009998Y-71659990D01*
X128966663Y-71591175D01*
X128966662Y-71591174D01*
X128963967Y-71586894D01*
X128799178Y-71399978D01*
X128606625Y-71241813D01*
X128391262Y-71116469D01*
X128247795Y-71061397D01*
X128163357Y-71028984D01*
X128163354Y-71028983D01*
X128158628Y-71027169D01*
X127914710Y-70976212D01*
X127909661Y-70975983D01*
X127909655Y-70975982D01*
X127795996Y-70970821D01*
X127665782Y-70964908D01*
X127660762Y-70965489D01*
X127660758Y-70965489D01*
X127570074Y-70975982D01*
X127418250Y-70993549D01*
X127413376Y-70994928D01*
X127413372Y-70994929D01*
X127183349Y-71060019D01*
X127183347Y-71060020D01*
X127178480Y-71061397D01*
X127173905Y-71063531D01*
X127173898Y-71063533D01*
X127024143Y-71133366D01*
X126952643Y-71166707D01*
X126948463Y-71169548D01*
X126948459Y-71169550D01*
X126750736Y-71303922D01*
X126746547Y-71306769D01*
X126742872Y-71310244D01*
X126742871Y-71310245D01*
X126651375Y-71396768D01*
X126565496Y-71477980D01*
X126562418Y-71482006D01*
X126562417Y-71482007D01*
X126417221Y-71671916D01*
X126417218Y-71671920D01*
X126414148Y-71675936D01*
X126296396Y-71895543D01*
X126294750Y-71900324D01*
X126294748Y-71900328D01*
X126249341Y-72032200D01*
X126215269Y-72131151D01*
X126214407Y-72136143D01*
X126190568Y-72274159D01*
X126172856Y-72376699D01*
X126171500Y-72406559D01*
X126171500Y-74100118D01*
X124188500Y-74100118D01*
X124188500Y-72454882D01*
X124188298Y-72452369D01*
X124173960Y-72274159D01*
X124173959Y-72274154D01*
X124173554Y-72269118D01*
X124114115Y-72027127D01*
X124016751Y-71797752D01*
X123929998Y-71659990D01*
X123886663Y-71591175D01*
X123886662Y-71591174D01*
X123883967Y-71586894D01*
X123719178Y-71399978D01*
X123526625Y-71241813D01*
X123311262Y-71116469D01*
X123167795Y-71061397D01*
X123083357Y-71028984D01*
X123083354Y-71028983D01*
X123078628Y-71027169D01*
X122834710Y-70976212D01*
X122829661Y-70975983D01*
X122829655Y-70975982D01*
X122715996Y-70970821D01*
X122585782Y-70964908D01*
X122580762Y-70965489D01*
X122580758Y-70965489D01*
X122490074Y-70975982D01*
X122338250Y-70993549D01*
X122333376Y-70994928D01*
X122333372Y-70994929D01*
X122103349Y-71060019D01*
X122103347Y-71060020D01*
X122098480Y-71061397D01*
X122093905Y-71063531D01*
X122093898Y-71063533D01*
X121944143Y-71133366D01*
X121872643Y-71166707D01*
X121868463Y-71169548D01*
X121868459Y-71169550D01*
X121670736Y-71303922D01*
X121666547Y-71306769D01*
X121662872Y-71310244D01*
X121662871Y-71310245D01*
X121571375Y-71396768D01*
X121485496Y-71477980D01*
X121482418Y-71482006D01*
X121482417Y-71482007D01*
X121337221Y-71671916D01*
X121337218Y-71671920D01*
X121334148Y-71675936D01*
X121216396Y-71895543D01*
X121214750Y-71900324D01*
X121214748Y-71900328D01*
X121169341Y-72032200D01*
X121135269Y-72131151D01*
X121134407Y-72136143D01*
X121110568Y-72274159D01*
X121092856Y-72376699D01*
X121091500Y-72406559D01*
X121091500Y-74100118D01*
X121091702Y-74102626D01*
X121091702Y-74102631D01*
X121106034Y-74280759D01*
X121106446Y-74285882D01*
X121165885Y-74527873D01*
X121263249Y-74757248D01*
X121265947Y-74761532D01*
X121393148Y-74963524D01*
X121396033Y-74968106D01*
X121560822Y-75155022D01*
X121670065Y-75244755D01*
X121685476Y-75257414D01*
X121725419Y-75316108D01*
X121731500Y-75354778D01*
X121731500Y-75558583D01*
X121729949Y-75578292D01*
X121727748Y-75592190D01*
X121728093Y-75598777D01*
X121728093Y-75598782D01*
X121731327Y-75660480D01*
X121731500Y-75667074D01*
X121731500Y-75687610D01*
X121731844Y-75690882D01*
X121731844Y-75690884D01*
X121733647Y-75708042D01*
X121734164Y-75714616D01*
X121735906Y-75747842D01*
X121737743Y-75782903D01*
X121739453Y-75789284D01*
X121739453Y-75789286D01*
X121741383Y-75796491D01*
X121744985Y-75815925D01*
X121745766Y-75823354D01*
X121745768Y-75823363D01*
X121746458Y-75829928D01*
X121767600Y-75894997D01*
X121769467Y-75901299D01*
X121787171Y-75967370D01*
X121793559Y-75979907D01*
X121801125Y-75998173D01*
X121805473Y-76011556D01*
X121838317Y-76068443D01*
X121839667Y-76070782D01*
X121842814Y-76076577D01*
X121873871Y-76137530D01*
X121878024Y-76142658D01*
X121878025Y-76142660D01*
X121882727Y-76148466D01*
X121893927Y-76164763D01*
X121897657Y-76171224D01*
X121897660Y-76171228D01*
X121900960Y-76176944D01*
X121905377Y-76181850D01*
X121905381Y-76181855D01*
X121946722Y-76227769D01*
X121951006Y-76232784D01*
X121955250Y-76238025D01*
X121963928Y-76248741D01*
X121978443Y-76263256D01*
X121982984Y-76268041D01*
X122028747Y-76318866D01*
X122034086Y-76322745D01*
X122034087Y-76322746D01*
X122040135Y-76327140D01*
X122055168Y-76339981D01*
X123300019Y-77584832D01*
X123312860Y-77599865D01*
X123321134Y-77611253D01*
X123348263Y-77635680D01*
X123371959Y-77657016D01*
X123376744Y-77661557D01*
X123391259Y-77676072D01*
X123407220Y-77688997D01*
X123412221Y-77693269D01*
X123458145Y-77734619D01*
X123458150Y-77734623D01*
X123463056Y-77739040D01*
X123475237Y-77746073D01*
X123491526Y-77757267D01*
X123502469Y-77766129D01*
X123508349Y-77769125D01*
X123508352Y-77769127D01*
X123563426Y-77797188D01*
X123569223Y-77800336D01*
X123620728Y-77830072D01*
X123628444Y-77834527D01*
X123634726Y-77836568D01*
X123634728Y-77836569D01*
X123641826Y-77838875D01*
X123660092Y-77846440D01*
X123672630Y-77852829D01*
X123679006Y-77854538D01*
X123679010Y-77854539D01*
X123738685Y-77870529D01*
X123745010Y-77872402D01*
X123810072Y-77893542D01*
X123816640Y-77894232D01*
X123816644Y-77894233D01*
X123824061Y-77895012D01*
X123843508Y-77898616D01*
X123857096Y-77902257D01*
X123863695Y-77902603D01*
X123863696Y-77902603D01*
X123925385Y-77905836D01*
X123931960Y-77906353D01*
X123946222Y-77907852D01*
X123952390Y-77908500D01*
X123972925Y-77908500D01*
X123979519Y-77908673D01*
X124041217Y-77911907D01*
X124041222Y-77911907D01*
X124047809Y-77912252D01*
X124061707Y-77910051D01*
X124081416Y-77908500D01*
X126571497Y-77908500D01*
X126639618Y-77928502D01*
X126660592Y-77945405D01*
X126774595Y-78059408D01*
X126808621Y-78121720D01*
X126811500Y-78148503D01*
X126811500Y-78195914D01*
X126791498Y-78264035D01*
X126756325Y-78300124D01*
X126746547Y-78306769D01*
X126742872Y-78310244D01*
X126742871Y-78310245D01*
X126649511Y-78398531D01*
X126565496Y-78477980D01*
X126562418Y-78482006D01*
X126562417Y-78482007D01*
X126417221Y-78671916D01*
X126417218Y-78671920D01*
X126414148Y-78675936D01*
X126296396Y-78895543D01*
X126294750Y-78900324D01*
X126294748Y-78900328D01*
X126249341Y-79032200D01*
X126215269Y-79131151D01*
X126214407Y-79136143D01*
X126190568Y-79274159D01*
X126172856Y-79376699D01*
X126171500Y-79406559D01*
X126171500Y-81100118D01*
X126171702Y-81102626D01*
X126171702Y-81102631D01*
X126186034Y-81280759D01*
X126186446Y-81285882D01*
X126245885Y-81527873D01*
X126343249Y-81757248D01*
X126345947Y-81761532D01*
X126473148Y-81963524D01*
X126476033Y-81968106D01*
X126640822Y-82155022D01*
X126762383Y-82254873D01*
X126765476Y-82257414D01*
X126805419Y-82316108D01*
X126811500Y-82354778D01*
X126811500Y-82898583D01*
X126809949Y-82918292D01*
X126807748Y-82932190D01*
X126808093Y-82938777D01*
X126808093Y-82938782D01*
X126811327Y-83000480D01*
X126811500Y-83007074D01*
X126811500Y-83027610D01*
X126811844Y-83030882D01*
X126811844Y-83030884D01*
X126813647Y-83048042D01*
X126814164Y-83054616D01*
X126816907Y-83106944D01*
X126817743Y-83122903D01*
X126819453Y-83129284D01*
X126819453Y-83129286D01*
X126821383Y-83136491D01*
X126824985Y-83155925D01*
X126825766Y-83163354D01*
X126825768Y-83163363D01*
X126826458Y-83169928D01*
X126847600Y-83234997D01*
X126849467Y-83241299D01*
X126867171Y-83307370D01*
X126870224Y-83313361D01*
X126873559Y-83319907D01*
X126881125Y-83338173D01*
X126885473Y-83351556D01*
X126888776Y-83357278D01*
X126888777Y-83357279D01*
X126919667Y-83410782D01*
X126922814Y-83416577D01*
X126953871Y-83477530D01*
X126958024Y-83482658D01*
X126958025Y-83482660D01*
X126962727Y-83488466D01*
X126973927Y-83504763D01*
X126977657Y-83511224D01*
X126977660Y-83511228D01*
X126980960Y-83516944D01*
X126985377Y-83521850D01*
X126985381Y-83521855D01*
X127026722Y-83567769D01*
X127031006Y-83572784D01*
X127043928Y-83588741D01*
X127058443Y-83603256D01*
X127062984Y-83608041D01*
X127108747Y-83658866D01*
X127114086Y-83662745D01*
X127114087Y-83662746D01*
X127120135Y-83667140D01*
X127135168Y-83679981D01*
X127970019Y-84514832D01*
X127982860Y-84529865D01*
X127991134Y-84541253D01*
X127996043Y-84545673D01*
X128041959Y-84587016D01*
X128046744Y-84591557D01*
X128061259Y-84606072D01*
X128063823Y-84608148D01*
X128077216Y-84618994D01*
X128082231Y-84623278D01*
X128128145Y-84664619D01*
X128128150Y-84664623D01*
X128133056Y-84669040D01*
X128138772Y-84672340D01*
X128138776Y-84672343D01*
X128145237Y-84676073D01*
X128161533Y-84687273D01*
X128172470Y-84696129D01*
X128178348Y-84699124D01*
X128178351Y-84699126D01*
X128233426Y-84727188D01*
X128239223Y-84730336D01*
X128289578Y-84759408D01*
X128298444Y-84764527D01*
X128311826Y-84768875D01*
X128330085Y-84776438D01*
X128342630Y-84782830D01*
X128349000Y-84784537D01*
X128349003Y-84784538D01*
X128388074Y-84795007D01*
X128408712Y-84800537D01*
X128415025Y-84802407D01*
X128480072Y-84823542D01*
X128494075Y-84825014D01*
X128513504Y-84828615D01*
X128527097Y-84832257D01*
X128533694Y-84832603D01*
X128533696Y-84832603D01*
X128595384Y-84835836D01*
X128601958Y-84836353D01*
X128619116Y-84838156D01*
X128619118Y-84838156D01*
X128622390Y-84838500D01*
X128642926Y-84838500D01*
X128649520Y-84838673D01*
X128711218Y-84841907D01*
X128711223Y-84841907D01*
X128717810Y-84842252D01*
X128731708Y-84840051D01*
X128751417Y-84838500D01*
X135555500Y-84838500D01*
X135623621Y-84858502D01*
X135670114Y-84912158D01*
X135681500Y-84964500D01*
X135681500Y-113643737D01*
X135661498Y-113711858D01*
X135646594Y-113730788D01*
X135530629Y-113852138D01*
X135527720Y-113856403D01*
X135527714Y-113856411D01*
X135522372Y-113864242D01*
X135404743Y-114036680D01*
X135380376Y-114089174D01*
X135326823Y-114204546D01*
X135310688Y-114239305D01*
X135250989Y-114454570D01*
X135227251Y-114676695D01*
X135227548Y-114681848D01*
X135227548Y-114681851D01*
X135230283Y-114729285D01*
X135240110Y-114899715D01*
X135241247Y-114904761D01*
X135241248Y-114904767D01*
X135258680Y-114982115D01*
X135289222Y-115117639D01*
X135373266Y-115324616D01*
X135424942Y-115408944D01*
X135487291Y-115510688D01*
X135489987Y-115515088D01*
X135493367Y-115518990D01*
X135632866Y-115680032D01*
X135632869Y-115680035D01*
X135636250Y-115683938D01*
X135640224Y-115687237D01*
X135643658Y-115690600D01*
X135678334Y-115752553D01*
X135681500Y-115780623D01*
X135681500Y-116183737D01*
X135661498Y-116251858D01*
X135646594Y-116270788D01*
X135530629Y-116392138D01*
X135527720Y-116396403D01*
X135527714Y-116396411D01*
X135475526Y-116472916D01*
X135404743Y-116576680D01*
X135389552Y-116609407D01*
X135317515Y-116764598D01*
X135310688Y-116779305D01*
X135250989Y-116994570D01*
X135227251Y-117216695D01*
X135227548Y-117221848D01*
X135227548Y-117221851D01*
X135232915Y-117314933D01*
X135240110Y-117439715D01*
X135241247Y-117444761D01*
X135241248Y-117444767D01*
X135259354Y-117525108D01*
X135289222Y-117657639D01*
X135327461Y-117751811D01*
X135364014Y-117841830D01*
X135373266Y-117864616D01*
X135420242Y-117941274D01*
X135487291Y-118050688D01*
X135489987Y-118055088D01*
X135636250Y-118223938D01*
X135808126Y-118366632D01*
X136001000Y-118479338D01*
X136005825Y-118481180D01*
X136005826Y-118481181D01*
X136078313Y-118508861D01*
X136209692Y-118559030D01*
X136214760Y-118560061D01*
X136214763Y-118560062D01*
X136312330Y-118579912D01*
X136428597Y-118603567D01*
X136433772Y-118603757D01*
X136433774Y-118603757D01*
X136646673Y-118611564D01*
X136646677Y-118611564D01*
X136651837Y-118611753D01*
X136656957Y-118611097D01*
X136656959Y-118611097D01*
X136868288Y-118584025D01*
X136868289Y-118584025D01*
X136873416Y-118583368D01*
X136878366Y-118581883D01*
X137082429Y-118520661D01*
X137082434Y-118520659D01*
X137087384Y-118519174D01*
X137287994Y-118420896D01*
X137469860Y-118291173D01*
X137510686Y-118250490D01*
X137624435Y-118137137D01*
X137628096Y-118133489D01*
X137655921Y-118094767D01*
X137758453Y-117952077D01*
X137759776Y-117953028D01*
X137806645Y-117909857D01*
X137876580Y-117897625D01*
X137942026Y-117925144D01*
X137969875Y-117956994D01*
X138029987Y-118055088D01*
X138176250Y-118223938D01*
X138348126Y-118366632D01*
X138541000Y-118479338D01*
X138545825Y-118481180D01*
X138545826Y-118481181D01*
X138618313Y-118508861D01*
X138749692Y-118559030D01*
X138754760Y-118560061D01*
X138754763Y-118560062D01*
X138852330Y-118579912D01*
X138968597Y-118603567D01*
X138973772Y-118603757D01*
X138973774Y-118603757D01*
X139186673Y-118611564D01*
X139186677Y-118611564D01*
X139191837Y-118611753D01*
X139196957Y-118611097D01*
X139196959Y-118611097D01*
X139408288Y-118584025D01*
X139408289Y-118584025D01*
X139413416Y-118583368D01*
X139418366Y-118581883D01*
X139622429Y-118520661D01*
X139622434Y-118520659D01*
X139627384Y-118519174D01*
X139827994Y-118420896D01*
X140009860Y-118291173D01*
X140050686Y-118250490D01*
X140164435Y-118137137D01*
X140168096Y-118133489D01*
X140195921Y-118094767D01*
X140298453Y-117952077D01*
X140299776Y-117953028D01*
X140346645Y-117909857D01*
X140416580Y-117897625D01*
X140482026Y-117925144D01*
X140509875Y-117956994D01*
X140569987Y-118055088D01*
X140716250Y-118223938D01*
X140888126Y-118366632D01*
X141081000Y-118479338D01*
X141085825Y-118481180D01*
X141085826Y-118481181D01*
X141158313Y-118508861D01*
X141289692Y-118559030D01*
X141294760Y-118560061D01*
X141294763Y-118560062D01*
X141392330Y-118579912D01*
X141508597Y-118603567D01*
X141513772Y-118603757D01*
X141513774Y-118603757D01*
X141726673Y-118611564D01*
X141726677Y-118611564D01*
X141731837Y-118611753D01*
X141736957Y-118611097D01*
X141736959Y-118611097D01*
X141948288Y-118584025D01*
X141948289Y-118584025D01*
X141953416Y-118583368D01*
X141958366Y-118581883D01*
X142162429Y-118520661D01*
X142162434Y-118520659D01*
X142167384Y-118519174D01*
X142367994Y-118420896D01*
X142549860Y-118291173D01*
X142590686Y-118250490D01*
X142704435Y-118137137D01*
X142708096Y-118133489D01*
X142735921Y-118094767D01*
X142838453Y-117952077D01*
X142839776Y-117953028D01*
X142886645Y-117909857D01*
X142956580Y-117897625D01*
X143022026Y-117925144D01*
X143049875Y-117956994D01*
X143109987Y-118055088D01*
X143256250Y-118223938D01*
X143428126Y-118366632D01*
X143621000Y-118479338D01*
X143625825Y-118481180D01*
X143625826Y-118481181D01*
X143698313Y-118508861D01*
X143829692Y-118559030D01*
X143834760Y-118560061D01*
X143834763Y-118560062D01*
X143932330Y-118579912D01*
X144048597Y-118603567D01*
X144053772Y-118603757D01*
X144053774Y-118603757D01*
X144266673Y-118611564D01*
X144266677Y-118611564D01*
X144271837Y-118611753D01*
X144276957Y-118611097D01*
X144276959Y-118611097D01*
X144488288Y-118584025D01*
X144488289Y-118584025D01*
X144493416Y-118583368D01*
X144498366Y-118581883D01*
X144702429Y-118520661D01*
X144702434Y-118520659D01*
X144707384Y-118519174D01*
X144907994Y-118420896D01*
X145089860Y-118291173D01*
X145130686Y-118250490D01*
X145244435Y-118137137D01*
X145248096Y-118133489D01*
X145275921Y-118094767D01*
X145378453Y-117952077D01*
X145379776Y-117953028D01*
X145426645Y-117909857D01*
X145496580Y-117897625D01*
X145562026Y-117925144D01*
X145589875Y-117956994D01*
X145649987Y-118055088D01*
X145796250Y-118223938D01*
X145968126Y-118366632D01*
X146161000Y-118479338D01*
X146165825Y-118481180D01*
X146165826Y-118481181D01*
X146238313Y-118508861D01*
X146369692Y-118559030D01*
X146374760Y-118560061D01*
X146374763Y-118560062D01*
X146472330Y-118579912D01*
X146588597Y-118603567D01*
X146593772Y-118603757D01*
X146593774Y-118603757D01*
X146806673Y-118611564D01*
X146806677Y-118611564D01*
X146811837Y-118611753D01*
X146816957Y-118611097D01*
X146816959Y-118611097D01*
X147028288Y-118584025D01*
X147028289Y-118584025D01*
X147033416Y-118583368D01*
X147038366Y-118581883D01*
X147242429Y-118520661D01*
X147242434Y-118520659D01*
X147247384Y-118519174D01*
X147447994Y-118420896D01*
X147629860Y-118291173D01*
X147670686Y-118250490D01*
X147784435Y-118137137D01*
X147788096Y-118133489D01*
X147815921Y-118094767D01*
X147918453Y-117952077D01*
X147919776Y-117953028D01*
X147966645Y-117909857D01*
X148036580Y-117897625D01*
X148102026Y-117925144D01*
X148129875Y-117956994D01*
X148189987Y-118055088D01*
X148336250Y-118223938D01*
X148508126Y-118366632D01*
X148701000Y-118479338D01*
X148705825Y-118481180D01*
X148705826Y-118481181D01*
X148778313Y-118508861D01*
X148909692Y-118559030D01*
X148914760Y-118560061D01*
X148914763Y-118560062D01*
X149012330Y-118579912D01*
X149128597Y-118603567D01*
X149133772Y-118603757D01*
X149133774Y-118603757D01*
X149346673Y-118611564D01*
X149346677Y-118611564D01*
X149351837Y-118611753D01*
X149356957Y-118611097D01*
X149356959Y-118611097D01*
X149568288Y-118584025D01*
X149568289Y-118584025D01*
X149573416Y-118583368D01*
X149578366Y-118581883D01*
X149782429Y-118520661D01*
X149782434Y-118520659D01*
X149787384Y-118519174D01*
X149987994Y-118420896D01*
X150169860Y-118291173D01*
X150210686Y-118250490D01*
X150324435Y-118137137D01*
X150328096Y-118133489D01*
X150355921Y-118094767D01*
X150458453Y-117952077D01*
X150459776Y-117953028D01*
X150506645Y-117909857D01*
X150576580Y-117897625D01*
X150642026Y-117925144D01*
X150669875Y-117956994D01*
X150729987Y-118055088D01*
X150876250Y-118223938D01*
X151048126Y-118366632D01*
X151052593Y-118369242D01*
X151147210Y-118424532D01*
X151195934Y-118476171D01*
X151204623Y-118498119D01*
X151204964Y-118499291D01*
X151208987Y-118518700D01*
X151211526Y-118538797D01*
X151214445Y-118546168D01*
X151214445Y-118546170D01*
X151227804Y-118579912D01*
X151231649Y-118591142D01*
X151243982Y-118633593D01*
X151248015Y-118640412D01*
X151248017Y-118640417D01*
X151254293Y-118651028D01*
X151262988Y-118668776D01*
X151270448Y-118687617D01*
X151275110Y-118694033D01*
X151275110Y-118694034D01*
X151296436Y-118723387D01*
X151302952Y-118733307D01*
X151325458Y-118771362D01*
X151339779Y-118785683D01*
X151352619Y-118800716D01*
X151364528Y-118817107D01*
X151396413Y-118843484D01*
X151398593Y-118845288D01*
X151407374Y-118853278D01*
X151766354Y-119212259D01*
X151773887Y-119220537D01*
X151778000Y-119227018D01*
X151783779Y-119232445D01*
X151783781Y-119232447D01*
X151827635Y-119273627D01*
X151830478Y-119276383D01*
X151830500Y-119276405D01*
X151864526Y-119338717D01*
X151859461Y-119409532D01*
X151816914Y-119466368D01*
X151750394Y-119491179D01*
X151741405Y-119491500D01*
X119134500Y-119491500D01*
X119066379Y-119471498D01*
X119019886Y-119417842D01*
X119008500Y-119365500D01*
X119008500Y-116978918D01*
X119486917Y-116978918D01*
X119487334Y-116986156D01*
X119502682Y-117252320D01*
X119555405Y-117521053D01*
X119556792Y-117525103D01*
X119556793Y-117525108D01*
X119639746Y-117767392D01*
X119644112Y-117780144D01*
X119673238Y-117838054D01*
X119742837Y-117976437D01*
X119767160Y-118024799D01*
X119769586Y-118028328D01*
X119769589Y-118028334D01*
X119901340Y-118220031D01*
X119922274Y-118250490D01*
X119925161Y-118253663D01*
X119925162Y-118253664D01*
X120103692Y-118449867D01*
X120106582Y-118453043D01*
X120109877Y-118455798D01*
X120109878Y-118455799D01*
X120134243Y-118476171D01*
X120316675Y-118628707D01*
X120320316Y-118630991D01*
X120545024Y-118771951D01*
X120545028Y-118771953D01*
X120548664Y-118774234D01*
X120643617Y-118817107D01*
X120794345Y-118885164D01*
X120794349Y-118885166D01*
X120798257Y-118886930D01*
X120802377Y-118888150D01*
X120802376Y-118888150D01*
X121056723Y-118963491D01*
X121056727Y-118963492D01*
X121060836Y-118964709D01*
X121065070Y-118965357D01*
X121065075Y-118965358D01*
X121327298Y-119005483D01*
X121327300Y-119005483D01*
X121331540Y-119006132D01*
X121470912Y-119008322D01*
X121601071Y-119010367D01*
X121601077Y-119010367D01*
X121605362Y-119010434D01*
X121877235Y-118977534D01*
X122142127Y-118908041D01*
X122146087Y-118906401D01*
X122146092Y-118906399D01*
X122293626Y-118845288D01*
X122395136Y-118803241D01*
X122523567Y-118728192D01*
X122538152Y-118719669D01*
X126417001Y-118719669D01*
X126417371Y-118726490D01*
X126422895Y-118777352D01*
X126426521Y-118792604D01*
X126471676Y-118913054D01*
X126480214Y-118928649D01*
X126556715Y-119030724D01*
X126569276Y-119043285D01*
X126671351Y-119119786D01*
X126686946Y-119128324D01*
X126807394Y-119173478D01*
X126822649Y-119177105D01*
X126873514Y-119182631D01*
X126880328Y-119183000D01*
X127502885Y-119183000D01*
X127518124Y-119178525D01*
X127519329Y-119177135D01*
X127521000Y-119169452D01*
X127521000Y-119164884D01*
X128029000Y-119164884D01*
X128033475Y-119180123D01*
X128034865Y-119181328D01*
X128042548Y-119182999D01*
X128669669Y-119182999D01*
X128676490Y-119182629D01*
X128727352Y-119177105D01*
X128742604Y-119173479D01*
X128863054Y-119128324D01*
X128878649Y-119119786D01*
X128980724Y-119043285D01*
X128993285Y-119030724D01*
X129069786Y-118928649D01*
X129078324Y-118913054D01*
X129123478Y-118792606D01*
X129127105Y-118777351D01*
X129132631Y-118726486D01*
X129133000Y-118719672D01*
X129133000Y-118097115D01*
X129128525Y-118081876D01*
X129127135Y-118080671D01*
X129119452Y-118079000D01*
X128047115Y-118079000D01*
X128031876Y-118083475D01*
X128030671Y-118084865D01*
X128029000Y-118092548D01*
X128029000Y-119164884D01*
X127521000Y-119164884D01*
X127521000Y-118097115D01*
X127516525Y-118081876D01*
X127515135Y-118080671D01*
X127507452Y-118079000D01*
X126435116Y-118079000D01*
X126419877Y-118083475D01*
X126418672Y-118084865D01*
X126417001Y-118092548D01*
X126417001Y-118719669D01*
X122538152Y-118719669D01*
X122627879Y-118667237D01*
X122627880Y-118667236D01*
X122631582Y-118665073D01*
X122847089Y-118496094D01*
X122871738Y-118470659D01*
X123034686Y-118302509D01*
X123037669Y-118299431D01*
X123040202Y-118295983D01*
X123040206Y-118295978D01*
X123197257Y-118082178D01*
X123199795Y-118078723D01*
X123227154Y-118028334D01*
X123328418Y-117841830D01*
X123328419Y-117841828D01*
X123330468Y-117838054D01*
X123427269Y-117581877D01*
X123461069Y-117434297D01*
X123487449Y-117319117D01*
X123487450Y-117319113D01*
X123488407Y-117314933D01*
X123494502Y-117246646D01*
X123512531Y-117044627D01*
X123512531Y-117044625D01*
X123512751Y-117042161D01*
X123513193Y-117000000D01*
X123508444Y-116930331D01*
X123494859Y-116731055D01*
X123494858Y-116731049D01*
X123494567Y-116726778D01*
X123477995Y-116646753D01*
X123439901Y-116462809D01*
X123439032Y-116458612D01*
X123347617Y-116200465D01*
X123242753Y-115997295D01*
X123223978Y-115960919D01*
X123223978Y-115960918D01*
X123222013Y-115957112D01*
X123212040Y-115942921D01*
X123118385Y-115809664D01*
X123064545Y-115733057D01*
X122966889Y-115627966D01*
X122881046Y-115535588D01*
X122881043Y-115535585D01*
X122878125Y-115532445D01*
X122874810Y-115529731D01*
X122874806Y-115529728D01*
X122698159Y-115385144D01*
X122666205Y-115358990D01*
X122432704Y-115215901D01*
X122423387Y-115211811D01*
X122185873Y-115107549D01*
X122185869Y-115107548D01*
X122181945Y-115105825D01*
X121918566Y-115030800D01*
X121914324Y-115030196D01*
X121914318Y-115030195D01*
X121688589Y-114998069D01*
X121647443Y-114992213D01*
X121503589Y-114991460D01*
X121377877Y-114990802D01*
X121377871Y-114990802D01*
X121373591Y-114990780D01*
X121369347Y-114991339D01*
X121369343Y-114991339D01*
X121250302Y-115007011D01*
X121102078Y-115026525D01*
X121097938Y-115027658D01*
X121097936Y-115027658D01*
X121025008Y-115047609D01*
X120837928Y-115098788D01*
X120833980Y-115100472D01*
X120589982Y-115204546D01*
X120589978Y-115204548D01*
X120586030Y-115206232D01*
X120566125Y-115218145D01*
X120354725Y-115344664D01*
X120354721Y-115344667D01*
X120351043Y-115346868D01*
X120137318Y-115518094D01*
X120055159Y-115604672D01*
X119983645Y-115680032D01*
X119948808Y-115716742D01*
X119789002Y-115939136D01*
X119660857Y-116181161D01*
X119659385Y-116185184D01*
X119659383Y-116185188D01*
X119582089Y-116396403D01*
X119566743Y-116438337D01*
X119508404Y-116705907D01*
X119507092Y-116722581D01*
X119491278Y-116923514D01*
X119486917Y-116978918D01*
X119008500Y-116978918D01*
X119008500Y-114427352D01*
X124277275Y-114427352D01*
X124278580Y-114434829D01*
X124278580Y-114434830D01*
X124288261Y-114490299D01*
X124289223Y-114496821D01*
X124296898Y-114560242D01*
X124299581Y-114567343D01*
X124300222Y-114569952D01*
X124304685Y-114586262D01*
X124305450Y-114588798D01*
X124306757Y-114596284D01*
X124309811Y-114603241D01*
X124332442Y-114654795D01*
X124334933Y-114660899D01*
X124357513Y-114720656D01*
X124361817Y-114726919D01*
X124363054Y-114729285D01*
X124371299Y-114744097D01*
X124372632Y-114746351D01*
X124375685Y-114753305D01*
X124380307Y-114759328D01*
X124414579Y-114803991D01*
X124418459Y-114809332D01*
X124450339Y-114855720D01*
X124450344Y-114855725D01*
X124454643Y-114861981D01*
X124460313Y-114867032D01*
X124460314Y-114867034D01*
X124501161Y-114903427D01*
X124506438Y-114908408D01*
X125363565Y-115765536D01*
X125369418Y-115771801D01*
X125407439Y-115815385D01*
X125459729Y-115852136D01*
X125464971Y-115856028D01*
X125515282Y-115895476D01*
X125522201Y-115898600D01*
X125524493Y-115899988D01*
X125539165Y-115908357D01*
X125541525Y-115909622D01*
X125547739Y-115913990D01*
X125554818Y-115916750D01*
X125554820Y-115916751D01*
X125607275Y-115937202D01*
X125613344Y-115939753D01*
X125671573Y-115966045D01*
X125679046Y-115967430D01*
X125681612Y-115968234D01*
X125697835Y-115972855D01*
X125700427Y-115973520D01*
X125707509Y-115976282D01*
X125715044Y-115977274D01*
X125770861Y-115984622D01*
X125777377Y-115985654D01*
X125785055Y-115987077D01*
X125840186Y-115997295D01*
X125847766Y-115996858D01*
X125847767Y-115996858D01*
X125902380Y-115993709D01*
X125909633Y-115993500D01*
X126545234Y-115993500D01*
X126613355Y-116013502D01*
X126652667Y-116053665D01*
X126674987Y-116090088D01*
X126821250Y-116258938D01*
X126825225Y-116262238D01*
X126825231Y-116262244D01*
X126830425Y-116266556D01*
X126870059Y-116325460D01*
X126871555Y-116396441D01*
X126834439Y-116456962D01*
X126794168Y-116481480D01*
X126686946Y-116521676D01*
X126671351Y-116530214D01*
X126569276Y-116606715D01*
X126556715Y-116619276D01*
X126480214Y-116721351D01*
X126471676Y-116736946D01*
X126426522Y-116857394D01*
X126422895Y-116872649D01*
X126417369Y-116923514D01*
X126417000Y-116930328D01*
X126417000Y-117552885D01*
X126421475Y-117568124D01*
X126422865Y-117569329D01*
X126430548Y-117571000D01*
X129114884Y-117571000D01*
X129130123Y-117566525D01*
X129131328Y-117565135D01*
X129132999Y-117557452D01*
X129132999Y-116930331D01*
X129132629Y-116923510D01*
X129127105Y-116872648D01*
X129123479Y-116857396D01*
X129078324Y-116736946D01*
X129069786Y-116721351D01*
X128993285Y-116619276D01*
X128980724Y-116606715D01*
X128878649Y-116530214D01*
X128863054Y-116521676D01*
X128752813Y-116480348D01*
X128696049Y-116437706D01*
X128671349Y-116371145D01*
X128686557Y-116301796D01*
X128708104Y-116273115D01*
X128809430Y-116172144D01*
X128809440Y-116172132D01*
X128813096Y-116168489D01*
X128846686Y-116121744D01*
X128940435Y-115991277D01*
X128943453Y-115987077D01*
X128951076Y-115971654D01*
X129040136Y-115791453D01*
X129040137Y-115791451D01*
X129042430Y-115786811D01*
X129102441Y-115589292D01*
X129105865Y-115578023D01*
X129105865Y-115578021D01*
X129107370Y-115573069D01*
X129136529Y-115351590D01*
X129136611Y-115348240D01*
X129138074Y-115288365D01*
X129138074Y-115288361D01*
X129138156Y-115285000D01*
X129119852Y-115062361D01*
X129065431Y-114845702D01*
X128976354Y-114640840D01*
X128934731Y-114576500D01*
X128857822Y-114457617D01*
X128857820Y-114457614D01*
X128855014Y-114453277D01*
X128704670Y-114288051D01*
X128700619Y-114284852D01*
X128700615Y-114284848D01*
X128533414Y-114152800D01*
X128533410Y-114152798D01*
X128529359Y-114149598D01*
X128488053Y-114126796D01*
X128438084Y-114076364D01*
X128423312Y-114006921D01*
X128448428Y-113940516D01*
X128475780Y-113913909D01*
X128531099Y-113874450D01*
X128654860Y-113786173D01*
X128668189Y-113772891D01*
X128736209Y-113705107D01*
X128813096Y-113628489D01*
X128851821Y-113574598D01*
X128940435Y-113451277D01*
X128943453Y-113447077D01*
X128969197Y-113394989D01*
X129040136Y-113251453D01*
X129040137Y-113251451D01*
X129042430Y-113246811D01*
X129087466Y-113098580D01*
X129105865Y-113038023D01*
X129105865Y-113038021D01*
X129107370Y-113033069D01*
X129136529Y-112811590D01*
X129137289Y-112780493D01*
X129138074Y-112748365D01*
X129138074Y-112748361D01*
X129138156Y-112745000D01*
X129119852Y-112522361D01*
X129065431Y-112305702D01*
X128976354Y-112100840D01*
X128920366Y-112014295D01*
X128857822Y-111917617D01*
X128857820Y-111917614D01*
X128855014Y-111913277D01*
X128704670Y-111748051D01*
X128700619Y-111744852D01*
X128700615Y-111744848D01*
X128533414Y-111612800D01*
X128533410Y-111612798D01*
X128529359Y-111609598D01*
X128488053Y-111586796D01*
X128438084Y-111536364D01*
X128423312Y-111466921D01*
X128448428Y-111400516D01*
X128475780Y-111373909D01*
X128519603Y-111342650D01*
X128654860Y-111246173D01*
X128813096Y-111088489D01*
X128872594Y-111005689D01*
X128940435Y-110911277D01*
X128943453Y-110907077D01*
X129042430Y-110706811D01*
X129107370Y-110493069D01*
X129136529Y-110271590D01*
X129136611Y-110268240D01*
X129138074Y-110208365D01*
X129138074Y-110208361D01*
X129138156Y-110205000D01*
X129119852Y-109982361D01*
X129065431Y-109765702D01*
X128976354Y-109560840D01*
X128881249Y-109413830D01*
X128857822Y-109377617D01*
X128857820Y-109377614D01*
X128855014Y-109373277D01*
X128704670Y-109208051D01*
X128700619Y-109204852D01*
X128700615Y-109204848D01*
X128533414Y-109072800D01*
X128533410Y-109072798D01*
X128529359Y-109069598D01*
X128487569Y-109046529D01*
X128437598Y-108996097D01*
X128422826Y-108926654D01*
X128447942Y-108860248D01*
X128475294Y-108833641D01*
X128650328Y-108708792D01*
X128658200Y-108702139D01*
X128809052Y-108551812D01*
X128815730Y-108543965D01*
X128940003Y-108371020D01*
X128945313Y-108362183D01*
X129039670Y-108171267D01*
X129043469Y-108161672D01*
X129105377Y-107957910D01*
X129107555Y-107947837D01*
X129108986Y-107936962D01*
X129106775Y-107922778D01*
X129093617Y-107919000D01*
X126458225Y-107919000D01*
X126444694Y-107922973D01*
X126443257Y-107932966D01*
X126473565Y-108067446D01*
X126476645Y-108077275D01*
X126556770Y-108274603D01*
X126561413Y-108283794D01*
X126672694Y-108465388D01*
X126678777Y-108473699D01*
X126818213Y-108634667D01*
X126825580Y-108641883D01*
X126989434Y-108777916D01*
X126997881Y-108783831D01*
X127066969Y-108824203D01*
X127115693Y-108875842D01*
X127128764Y-108945625D01*
X127102033Y-109011396D01*
X127061584Y-109044752D01*
X127048607Y-109051507D01*
X127044474Y-109054610D01*
X127044471Y-109054612D01*
X126874100Y-109182530D01*
X126869965Y-109185635D01*
X126866393Y-109189373D01*
X126721279Y-109341226D01*
X126715629Y-109347138D01*
X126712715Y-109351410D01*
X126712714Y-109351411D01*
X126700404Y-109369457D01*
X126589743Y-109531680D01*
X126562151Y-109591122D01*
X126499957Y-109725109D01*
X126495688Y-109734305D01*
X126435989Y-109949570D01*
X126412251Y-110171695D01*
X126412548Y-110176848D01*
X126412548Y-110176851D01*
X126418011Y-110271590D01*
X126425110Y-110394715D01*
X126426247Y-110399761D01*
X126426248Y-110399767D01*
X126446119Y-110487939D01*
X126474222Y-110612639D01*
X126558266Y-110819616D01*
X126674987Y-111010088D01*
X126821250Y-111178938D01*
X126993126Y-111321632D01*
X127063595Y-111362811D01*
X127066445Y-111364476D01*
X127115169Y-111416114D01*
X127128240Y-111485897D01*
X127101509Y-111551669D01*
X127061055Y-111585027D01*
X127048607Y-111591507D01*
X127044474Y-111594610D01*
X127044471Y-111594612D01*
X126924621Y-111684598D01*
X126869965Y-111725635D01*
X126715629Y-111887138D01*
X126712715Y-111891410D01*
X126712714Y-111891411D01*
X126666386Y-111959326D01*
X126589743Y-112071680D01*
X126547274Y-112163172D01*
X126515431Y-112231773D01*
X126495688Y-112274305D01*
X126435989Y-112489570D01*
X126412251Y-112711695D01*
X126412548Y-112716848D01*
X126412548Y-112716851D01*
X126418011Y-112811590D01*
X126425110Y-112934715D01*
X126426247Y-112939761D01*
X126426248Y-112939767D01*
X126440851Y-113004562D01*
X126474222Y-113152639D01*
X126511304Y-113243961D01*
X126554467Y-113350259D01*
X126558266Y-113359616D01*
X126577597Y-113391161D01*
X126649123Y-113507881D01*
X126674987Y-113550088D01*
X126821250Y-113718938D01*
X126993126Y-113861632D01*
X127063595Y-113902811D01*
X127066445Y-113904476D01*
X127115169Y-113956114D01*
X127128240Y-114025897D01*
X127101509Y-114091669D01*
X127061055Y-114125027D01*
X127048607Y-114131507D01*
X127044474Y-114134610D01*
X127044471Y-114134612D01*
X126874100Y-114262530D01*
X126869965Y-114265635D01*
X126715629Y-114427138D01*
X126672544Y-114490299D01*
X126651257Y-114521504D01*
X126596346Y-114566507D01*
X126547169Y-114576500D01*
X126230660Y-114576500D01*
X126162539Y-114556498D01*
X126141565Y-114539595D01*
X125735405Y-114133435D01*
X125701379Y-114071123D01*
X125698500Y-114044340D01*
X125698500Y-105091695D01*
X126412251Y-105091695D01*
X126412548Y-105096848D01*
X126412548Y-105096851D01*
X126418011Y-105191590D01*
X126425110Y-105314715D01*
X126426247Y-105319761D01*
X126426248Y-105319767D01*
X126446119Y-105407939D01*
X126474222Y-105532639D01*
X126558266Y-105739616D01*
X126674987Y-105930088D01*
X126821250Y-106098938D01*
X126993126Y-106241632D01*
X127035734Y-106266530D01*
X127066955Y-106284774D01*
X127115679Y-106336412D01*
X127128750Y-106406195D01*
X127102019Y-106471967D01*
X127061562Y-106505327D01*
X127053457Y-106509546D01*
X127044738Y-106515036D01*
X126874433Y-106642905D01*
X126866726Y-106649748D01*
X126719590Y-106803717D01*
X126713104Y-106811727D01*
X126593098Y-106987649D01*
X126588000Y-106996623D01*
X126498338Y-107189783D01*
X126494775Y-107199470D01*
X126439389Y-107399183D01*
X126440912Y-107407607D01*
X126453292Y-107411000D01*
X129093344Y-107411000D01*
X129106875Y-107407027D01*
X129108180Y-107397947D01*
X129066214Y-107230875D01*
X129062894Y-107221124D01*
X128977972Y-107025814D01*
X128973105Y-107016739D01*
X128857426Y-106837926D01*
X128851136Y-106829757D01*
X128707806Y-106672240D01*
X128700273Y-106665215D01*
X128533139Y-106533222D01*
X128524556Y-106527520D01*
X128487602Y-106507120D01*
X128437631Y-106456687D01*
X128422859Y-106387245D01*
X128447975Y-106320839D01*
X128475327Y-106294232D01*
X128514164Y-106266530D01*
X128654860Y-106166173D01*
X128668730Y-106152352D01*
X128779114Y-106042352D01*
X128813096Y-106008489D01*
X128872594Y-105925689D01*
X128940435Y-105831277D01*
X128943453Y-105827077D01*
X129014233Y-105683865D01*
X129040136Y-105631453D01*
X129040137Y-105631451D01*
X129042430Y-105626811D01*
X129094060Y-105456876D01*
X129105865Y-105418023D01*
X129105865Y-105418021D01*
X129107370Y-105413069D01*
X129136529Y-105191590D01*
X129138156Y-105125000D01*
X129119852Y-104902361D01*
X129065431Y-104685702D01*
X128976354Y-104480840D01*
X128858402Y-104298514D01*
X128857822Y-104297617D01*
X128857820Y-104297614D01*
X128855014Y-104293277D01*
X128704670Y-104128051D01*
X128700619Y-104124852D01*
X128700615Y-104124848D01*
X128533414Y-103992800D01*
X128533410Y-103992798D01*
X128529359Y-103989598D01*
X128512154Y-103980100D01*
X128434583Y-103937279D01*
X128333789Y-103881638D01*
X128328920Y-103879914D01*
X128328916Y-103879912D01*
X128128087Y-103808795D01*
X128128083Y-103808794D01*
X128123212Y-103807069D01*
X128118119Y-103806162D01*
X128118116Y-103806161D01*
X127908373Y-103768800D01*
X127908367Y-103768799D01*
X127903284Y-103767894D01*
X127829452Y-103766992D01*
X127685081Y-103765228D01*
X127685079Y-103765228D01*
X127679911Y-103765165D01*
X127459091Y-103798955D01*
X127246756Y-103868357D01*
X127048607Y-103971507D01*
X127044474Y-103974610D01*
X127044471Y-103974612D01*
X127020247Y-103992800D01*
X126869965Y-104105635D01*
X126866393Y-104109373D01*
X126739304Y-104242364D01*
X126715629Y-104267138D01*
X126712715Y-104271410D01*
X126712714Y-104271411D01*
X126662993Y-104344300D01*
X126589743Y-104451680D01*
X126495688Y-104654305D01*
X126435989Y-104869570D01*
X126412251Y-105091695D01*
X125698500Y-105091695D01*
X125698500Y-101819669D01*
X126417001Y-101819669D01*
X126417371Y-101826490D01*
X126422895Y-101877352D01*
X126426521Y-101892604D01*
X126471676Y-102013054D01*
X126480214Y-102028649D01*
X126556715Y-102130724D01*
X126569276Y-102143285D01*
X126671351Y-102219786D01*
X126686946Y-102228324D01*
X126807394Y-102273478D01*
X126822649Y-102277105D01*
X126873514Y-102282631D01*
X126880328Y-102283000D01*
X127502885Y-102283000D01*
X127518124Y-102278525D01*
X127519329Y-102277135D01*
X127521000Y-102269452D01*
X127521000Y-102264884D01*
X128029000Y-102264884D01*
X128033475Y-102280123D01*
X128034865Y-102281328D01*
X128042548Y-102282999D01*
X128669669Y-102282999D01*
X128676490Y-102282629D01*
X128727352Y-102277105D01*
X128742604Y-102273479D01*
X128863054Y-102228324D01*
X128878649Y-102219786D01*
X128980724Y-102143285D01*
X128993285Y-102130724D01*
X129069786Y-102028649D01*
X129078324Y-102013054D01*
X129123478Y-101892606D01*
X129127105Y-101877351D01*
X129132631Y-101826486D01*
X129133000Y-101819672D01*
X129133000Y-101197115D01*
X129128525Y-101181876D01*
X129127135Y-101180671D01*
X129119452Y-101179000D01*
X128047115Y-101179000D01*
X128031876Y-101183475D01*
X128030671Y-101184865D01*
X128029000Y-101192548D01*
X128029000Y-102264884D01*
X127521000Y-102264884D01*
X127521000Y-101197115D01*
X127516525Y-101181876D01*
X127515135Y-101180671D01*
X127507452Y-101179000D01*
X126435116Y-101179000D01*
X126419877Y-101183475D01*
X126418672Y-101184865D01*
X126417001Y-101192548D01*
X126417001Y-101819669D01*
X125698500Y-101819669D01*
X125698500Y-99435660D01*
X125718502Y-99367539D01*
X125735405Y-99346565D01*
X125951565Y-99130405D01*
X126013877Y-99096379D01*
X126040660Y-99093500D01*
X126545234Y-99093500D01*
X126613355Y-99113502D01*
X126652667Y-99153665D01*
X126674987Y-99190088D01*
X126821250Y-99358938D01*
X126825225Y-99362238D01*
X126825231Y-99362244D01*
X126830425Y-99366556D01*
X126870059Y-99425460D01*
X126871555Y-99496441D01*
X126834439Y-99556962D01*
X126794168Y-99581480D01*
X126686946Y-99621676D01*
X126671351Y-99630214D01*
X126569276Y-99706715D01*
X126556715Y-99719276D01*
X126480214Y-99821351D01*
X126471676Y-99836946D01*
X126426522Y-99957394D01*
X126422895Y-99972649D01*
X126417369Y-100023514D01*
X126417000Y-100030328D01*
X126417000Y-100652885D01*
X126421475Y-100668124D01*
X126422865Y-100669329D01*
X126430548Y-100671000D01*
X129114884Y-100671000D01*
X129130123Y-100666525D01*
X129131328Y-100665135D01*
X129132999Y-100657452D01*
X129132999Y-100030331D01*
X129132629Y-100023510D01*
X129127105Y-99972648D01*
X129123479Y-99957396D01*
X129078324Y-99836946D01*
X129069786Y-99821351D01*
X128993285Y-99719276D01*
X128980724Y-99706715D01*
X128878649Y-99630214D01*
X128863054Y-99621676D01*
X128752813Y-99580348D01*
X128696049Y-99537706D01*
X128671349Y-99471145D01*
X128686557Y-99401796D01*
X128708104Y-99373115D01*
X128809430Y-99272144D01*
X128809440Y-99272132D01*
X128813096Y-99268489D01*
X128881334Y-99173526D01*
X128940435Y-99091277D01*
X128943453Y-99087077D01*
X128996807Y-98979124D01*
X129040136Y-98891453D01*
X129040137Y-98891451D01*
X129042430Y-98886811D01*
X129107370Y-98673069D01*
X129136529Y-98451590D01*
X129138156Y-98385000D01*
X129119852Y-98162361D01*
X129065431Y-97945702D01*
X128976354Y-97740840D01*
X128855014Y-97553277D01*
X128704670Y-97388051D01*
X128700619Y-97384852D01*
X128700615Y-97384848D01*
X128533414Y-97252800D01*
X128533410Y-97252798D01*
X128529359Y-97249598D01*
X128488053Y-97226796D01*
X128438084Y-97176364D01*
X128423312Y-97106921D01*
X128448428Y-97040516D01*
X128475780Y-97013909D01*
X128519603Y-96982650D01*
X128654860Y-96886173D01*
X128665024Y-96876045D01*
X128780783Y-96760689D01*
X128813096Y-96728489D01*
X128864393Y-96657102D01*
X128940435Y-96551277D01*
X128943453Y-96547077D01*
X128970474Y-96492405D01*
X129040136Y-96351453D01*
X129040137Y-96351451D01*
X129042430Y-96346811D01*
X129080346Y-96222014D01*
X129105865Y-96138023D01*
X129105865Y-96138021D01*
X129107370Y-96133069D01*
X129136529Y-95911590D01*
X129136780Y-95901306D01*
X129138074Y-95848365D01*
X129138074Y-95848361D01*
X129138156Y-95845000D01*
X129119852Y-95622361D01*
X129065431Y-95405702D01*
X128976354Y-95200840D01*
X128929411Y-95128277D01*
X128857822Y-95017617D01*
X128857820Y-95017614D01*
X128855014Y-95013277D01*
X128704670Y-94848051D01*
X128700619Y-94844852D01*
X128700615Y-94844848D01*
X128533414Y-94712800D01*
X128533410Y-94712798D01*
X128529359Y-94709598D01*
X128488053Y-94686796D01*
X128438084Y-94636364D01*
X128423312Y-94566921D01*
X128448428Y-94500516D01*
X128475780Y-94473909D01*
X128519603Y-94442650D01*
X128654860Y-94346173D01*
X128697694Y-94303489D01*
X128809435Y-94192137D01*
X128813096Y-94188489D01*
X128872594Y-94105689D01*
X128940435Y-94011277D01*
X128943453Y-94007077D01*
X129042430Y-93806811D01*
X129107370Y-93593069D01*
X129136529Y-93371590D01*
X129138156Y-93305000D01*
X129119852Y-93082361D01*
X129065431Y-92865702D01*
X128976354Y-92660840D01*
X128871608Y-92498927D01*
X128857822Y-92477617D01*
X128857820Y-92477614D01*
X128855014Y-92473277D01*
X128704670Y-92308051D01*
X128700619Y-92304852D01*
X128700615Y-92304848D01*
X128533414Y-92172800D01*
X128533410Y-92172798D01*
X128529359Y-92169598D01*
X128518054Y-92163357D01*
X128487569Y-92146529D01*
X128437598Y-92096097D01*
X128422826Y-92026654D01*
X128447942Y-91960248D01*
X128475294Y-91933641D01*
X128650328Y-91808792D01*
X128658200Y-91802139D01*
X128809052Y-91651812D01*
X128815730Y-91643965D01*
X128940003Y-91471020D01*
X128945313Y-91462183D01*
X129039670Y-91271267D01*
X129043469Y-91261672D01*
X129105377Y-91057910D01*
X129107555Y-91047837D01*
X129108986Y-91036962D01*
X129106775Y-91022778D01*
X129093617Y-91019000D01*
X126458225Y-91019000D01*
X126444694Y-91022973D01*
X126443257Y-91032966D01*
X126473565Y-91167446D01*
X126476645Y-91177275D01*
X126556770Y-91374603D01*
X126561413Y-91383794D01*
X126672694Y-91565388D01*
X126678777Y-91573699D01*
X126818213Y-91734667D01*
X126825580Y-91741883D01*
X126989434Y-91877916D01*
X126997881Y-91883831D01*
X127066969Y-91924203D01*
X127115693Y-91975842D01*
X127128764Y-92045625D01*
X127102033Y-92111396D01*
X127061584Y-92144752D01*
X127048607Y-92151507D01*
X127044474Y-92154610D01*
X127044471Y-92154612D01*
X126874100Y-92282530D01*
X126869965Y-92285635D01*
X126866393Y-92289373D01*
X126734998Y-92426870D01*
X126715629Y-92447138D01*
X126712715Y-92451410D01*
X126712714Y-92451411D01*
X126697798Y-92473277D01*
X126589743Y-92631680D01*
X126574003Y-92665590D01*
X126504343Y-92815660D01*
X126495688Y-92834305D01*
X126435989Y-93049570D01*
X126412251Y-93271695D01*
X126412548Y-93276848D01*
X126412548Y-93276851D01*
X126418011Y-93371590D01*
X126425110Y-93494715D01*
X126426247Y-93499761D01*
X126426248Y-93499767D01*
X126446119Y-93587939D01*
X126474222Y-93712639D01*
X126558266Y-93919616D01*
X126674987Y-94110088D01*
X126821250Y-94278938D01*
X126993126Y-94421632D01*
X127054557Y-94457529D01*
X127066445Y-94464476D01*
X127115169Y-94516114D01*
X127128240Y-94585897D01*
X127101509Y-94651669D01*
X127061055Y-94685027D01*
X127048607Y-94691507D01*
X127044474Y-94694610D01*
X127044471Y-94694612D01*
X126874100Y-94822530D01*
X126869965Y-94825635D01*
X126866393Y-94829373D01*
X126734998Y-94966870D01*
X126715629Y-94987138D01*
X126589743Y-95171680D01*
X126542715Y-95272993D01*
X126506195Y-95351670D01*
X126495688Y-95374305D01*
X126435989Y-95589570D01*
X126412251Y-95811695D01*
X126412548Y-95816848D01*
X126412548Y-95816851D01*
X126420802Y-95960000D01*
X126425110Y-96034715D01*
X126426247Y-96039761D01*
X126426248Y-96039767D01*
X126447275Y-96133069D01*
X126474222Y-96252639D01*
X126558266Y-96459616D01*
X126674987Y-96650088D01*
X126821250Y-96818938D01*
X126993126Y-96961632D01*
X127054557Y-96997529D01*
X127066445Y-97004476D01*
X127115169Y-97056114D01*
X127128240Y-97125897D01*
X127101509Y-97191669D01*
X127061055Y-97225027D01*
X127048607Y-97231507D01*
X127044474Y-97234610D01*
X127044471Y-97234612D01*
X126874100Y-97362530D01*
X126869965Y-97365635D01*
X126715629Y-97527138D01*
X126712715Y-97531410D01*
X126712714Y-97531411D01*
X126651257Y-97621504D01*
X126596346Y-97666507D01*
X126547169Y-97676500D01*
X125723927Y-97676500D01*
X125715358Y-97676208D01*
X125665225Y-97672790D01*
X125665221Y-97672790D01*
X125657648Y-97672274D01*
X125594681Y-97683264D01*
X125588169Y-97684224D01*
X125524758Y-97691898D01*
X125517657Y-97694581D01*
X125515048Y-97695222D01*
X125498728Y-97699687D01*
X125496195Y-97700452D01*
X125488717Y-97701757D01*
X125430190Y-97727448D01*
X125424108Y-97729930D01*
X125415019Y-97733365D01*
X125371449Y-97749828D01*
X125371447Y-97749829D01*
X125364344Y-97752513D01*
X125358085Y-97756814D01*
X125355720Y-97758051D01*
X125340948Y-97766273D01*
X125338656Y-97767628D01*
X125331695Y-97770684D01*
X125325668Y-97775309D01*
X125325664Y-97775311D01*
X125280987Y-97809593D01*
X125275662Y-97813462D01*
X125223019Y-97849643D01*
X125217967Y-97855313D01*
X125217966Y-97855314D01*
X125181580Y-97896153D01*
X125176600Y-97901429D01*
X124509465Y-98568565D01*
X124503198Y-98574419D01*
X124465340Y-98607444D01*
X124465337Y-98607447D01*
X124459615Y-98612439D01*
X124455248Y-98618653D01*
X124422872Y-98664719D01*
X124418939Y-98670014D01*
X124379524Y-98720282D01*
X124376401Y-98727198D01*
X124375017Y-98729484D01*
X124366643Y-98744165D01*
X124365378Y-98746525D01*
X124361010Y-98752739D01*
X124358250Y-98759818D01*
X124358249Y-98759820D01*
X124337798Y-98812275D01*
X124335247Y-98818344D01*
X124308955Y-98876573D01*
X124307571Y-98884040D01*
X124306770Y-98886595D01*
X124302141Y-98902848D01*
X124301478Y-98905428D01*
X124298718Y-98912509D01*
X124297727Y-98920040D01*
X124297726Y-98920042D01*
X124290379Y-98975852D01*
X124289348Y-98982359D01*
X124277704Y-99045186D01*
X124278141Y-99052766D01*
X124278141Y-99052767D01*
X124281291Y-99107392D01*
X124281500Y-99114646D01*
X124281500Y-114361088D01*
X124281208Y-114369658D01*
X124277275Y-114427352D01*
X119008500Y-114427352D01*
X119008500Y-88478918D01*
X119486917Y-88478918D01*
X119487334Y-88486156D01*
X119502682Y-88752320D01*
X119555405Y-89021053D01*
X119556792Y-89025103D01*
X119556793Y-89025108D01*
X119640355Y-89269171D01*
X119644112Y-89280144D01*
X119673238Y-89338054D01*
X119742837Y-89476437D01*
X119767160Y-89524799D01*
X119769586Y-89528328D01*
X119769589Y-89528334D01*
X119919843Y-89746953D01*
X119922274Y-89750490D01*
X119925161Y-89753663D01*
X119925162Y-89753664D01*
X120085393Y-89929757D01*
X120106582Y-89953043D01*
X120316675Y-90128707D01*
X120320316Y-90130991D01*
X120545024Y-90271951D01*
X120545028Y-90271953D01*
X120548664Y-90274234D01*
X120673460Y-90330582D01*
X120794345Y-90385164D01*
X120794349Y-90385166D01*
X120798257Y-90386930D01*
X120802377Y-90388150D01*
X120802376Y-90388150D01*
X121056723Y-90463491D01*
X121056727Y-90463492D01*
X121060836Y-90464709D01*
X121065070Y-90465357D01*
X121065075Y-90465358D01*
X121327298Y-90505483D01*
X121327300Y-90505483D01*
X121331540Y-90506132D01*
X121470912Y-90508322D01*
X121601071Y-90510367D01*
X121601077Y-90510367D01*
X121605362Y-90510434D01*
X121877235Y-90477534D01*
X122142127Y-90408041D01*
X122146087Y-90406401D01*
X122146092Y-90406399D01*
X122269358Y-90355340D01*
X122395136Y-90303241D01*
X122585261Y-90192141D01*
X122627879Y-90167237D01*
X122627880Y-90167236D01*
X122631582Y-90165073D01*
X122847089Y-89996094D01*
X122888809Y-89953043D01*
X122978358Y-89860635D01*
X123037669Y-89799431D01*
X123040202Y-89795983D01*
X123040206Y-89795978D01*
X123197257Y-89582178D01*
X123199795Y-89578723D01*
X123203463Y-89571967D01*
X123328418Y-89341830D01*
X123328419Y-89341828D01*
X123330468Y-89338054D01*
X123427269Y-89081877D01*
X123468173Y-88903279D01*
X123487449Y-88819117D01*
X123487450Y-88819113D01*
X123488407Y-88814933D01*
X123489772Y-88799648D01*
X123512531Y-88544627D01*
X123512531Y-88544625D01*
X123512751Y-88542161D01*
X123513193Y-88500000D01*
X123511465Y-88474648D01*
X123494859Y-88231055D01*
X123494858Y-88231049D01*
X123494567Y-88226778D01*
X123487302Y-88191695D01*
X126412251Y-88191695D01*
X126412548Y-88196848D01*
X126412548Y-88196851D01*
X126418011Y-88291590D01*
X126425110Y-88414715D01*
X126426247Y-88419761D01*
X126426248Y-88419767D01*
X126446119Y-88507939D01*
X126474222Y-88632639D01*
X126558266Y-88839616D01*
X126674987Y-89030088D01*
X126821250Y-89198938D01*
X126960047Y-89314169D01*
X126983977Y-89334036D01*
X126993126Y-89341632D01*
X127066955Y-89384774D01*
X127115679Y-89436412D01*
X127128750Y-89506195D01*
X127102019Y-89571967D01*
X127061562Y-89605327D01*
X127053457Y-89609546D01*
X127044738Y-89615036D01*
X126874433Y-89742905D01*
X126866726Y-89749748D01*
X126719590Y-89903717D01*
X126713104Y-89911727D01*
X126593098Y-90087649D01*
X126588000Y-90096623D01*
X126498338Y-90289783D01*
X126494775Y-90299470D01*
X126439389Y-90499183D01*
X126440912Y-90507607D01*
X126453292Y-90511000D01*
X129093344Y-90511000D01*
X129106875Y-90507027D01*
X129108180Y-90497947D01*
X129066214Y-90330875D01*
X129062894Y-90321124D01*
X128977972Y-90125814D01*
X128973105Y-90116739D01*
X128857426Y-89937926D01*
X128851136Y-89929757D01*
X128707806Y-89772240D01*
X128700273Y-89765215D01*
X128533139Y-89633222D01*
X128524556Y-89627520D01*
X128487602Y-89607120D01*
X128437631Y-89556687D01*
X128422859Y-89487245D01*
X128447975Y-89420839D01*
X128475327Y-89394232D01*
X128498797Y-89377491D01*
X128654860Y-89266173D01*
X128679630Y-89241490D01*
X128809435Y-89112137D01*
X128813096Y-89108489D01*
X128839652Y-89071533D01*
X128940435Y-88931277D01*
X128943453Y-88927077D01*
X129003010Y-88806573D01*
X129040136Y-88731453D01*
X129040137Y-88731451D01*
X129042430Y-88726811D01*
X129107370Y-88513069D01*
X129136529Y-88291590D01*
X129138156Y-88225000D01*
X129119852Y-88002361D01*
X129065431Y-87785702D01*
X128976354Y-87580840D01*
X128888689Y-87445331D01*
X128857822Y-87397617D01*
X128857820Y-87397614D01*
X128855014Y-87393277D01*
X128704670Y-87228051D01*
X128700619Y-87224852D01*
X128700615Y-87224848D01*
X128533414Y-87092800D01*
X128533410Y-87092798D01*
X128529359Y-87089598D01*
X128333789Y-86981638D01*
X128328920Y-86979914D01*
X128328916Y-86979912D01*
X128128087Y-86908795D01*
X128128083Y-86908794D01*
X128123212Y-86907069D01*
X128118119Y-86906162D01*
X128118116Y-86906161D01*
X127908373Y-86868800D01*
X127908367Y-86868799D01*
X127903284Y-86867894D01*
X127829452Y-86866992D01*
X127685081Y-86865228D01*
X127685079Y-86865228D01*
X127679911Y-86865165D01*
X127459091Y-86898955D01*
X127246756Y-86968357D01*
X127048607Y-87071507D01*
X127044474Y-87074610D01*
X127044471Y-87074612D01*
X126874100Y-87202530D01*
X126869965Y-87205635D01*
X126825709Y-87251946D01*
X126721279Y-87361226D01*
X126715629Y-87367138D01*
X126712715Y-87371410D01*
X126712714Y-87371411D01*
X126666942Y-87438510D01*
X126589743Y-87551680D01*
X126574003Y-87585590D01*
X126520680Y-87700465D01*
X126495688Y-87754305D01*
X126435989Y-87969570D01*
X126412251Y-88191695D01*
X123487302Y-88191695D01*
X123439032Y-87958612D01*
X123347617Y-87700465D01*
X123268615Y-87547401D01*
X123223978Y-87460919D01*
X123223978Y-87460918D01*
X123222013Y-87457112D01*
X123213734Y-87445331D01*
X123067008Y-87236562D01*
X123064545Y-87233057D01*
X122931235Y-87089598D01*
X122881046Y-87035588D01*
X122881043Y-87035585D01*
X122878125Y-87032445D01*
X122874810Y-87029731D01*
X122874806Y-87029728D01*
X122724946Y-86907069D01*
X122666205Y-86858990D01*
X122501847Y-86758272D01*
X122436366Y-86718145D01*
X122436365Y-86718145D01*
X122432704Y-86715901D01*
X122428768Y-86714173D01*
X122185873Y-86607549D01*
X122185869Y-86607548D01*
X122181945Y-86605825D01*
X121918566Y-86530800D01*
X121914324Y-86530196D01*
X121914318Y-86530195D01*
X121713834Y-86501662D01*
X121647443Y-86492213D01*
X121503589Y-86491460D01*
X121377877Y-86490802D01*
X121377871Y-86490802D01*
X121373591Y-86490780D01*
X121369347Y-86491339D01*
X121369343Y-86491339D01*
X121250302Y-86507011D01*
X121102078Y-86526525D01*
X121097938Y-86527658D01*
X121097936Y-86527658D01*
X121074918Y-86533955D01*
X120837928Y-86598788D01*
X120833980Y-86600472D01*
X120589982Y-86704546D01*
X120589978Y-86704548D01*
X120586030Y-86706232D01*
X120546039Y-86730166D01*
X120354725Y-86844664D01*
X120354721Y-86844667D01*
X120351043Y-86846868D01*
X120137318Y-87018094D01*
X120071833Y-87087101D01*
X119962295Y-87202530D01*
X119948808Y-87216742D01*
X119789002Y-87439136D01*
X119660857Y-87681161D01*
X119659385Y-87685184D01*
X119659383Y-87685188D01*
X119616872Y-87801355D01*
X119566743Y-87938337D01*
X119508404Y-88205907D01*
X119486917Y-88478918D01*
X119008500Y-88478918D01*
X119008500Y-81097572D01*
X121092000Y-81097572D01*
X121092202Y-81102604D01*
X121106536Y-81280759D01*
X121108148Y-81290712D01*
X121165154Y-81522800D01*
X121168337Y-81532370D01*
X121261718Y-81752360D01*
X121266392Y-81761299D01*
X121393739Y-81963524D01*
X121399780Y-81971599D01*
X121557827Y-82150868D01*
X121565079Y-82157871D01*
X121749750Y-82309562D01*
X121758033Y-82315318D01*
X121964579Y-82435531D01*
X121973684Y-82439893D01*
X122196785Y-82525534D01*
X122206474Y-82528385D01*
X122368264Y-82562185D01*
X122382325Y-82561062D01*
X122386000Y-82550954D01*
X122386000Y-82548358D01*
X122894000Y-82548358D01*
X122898136Y-82562444D01*
X122911114Y-82564493D01*
X122936631Y-82561540D01*
X122946521Y-82559581D01*
X123176476Y-82494511D01*
X123185927Y-82490997D01*
X123402528Y-82389994D01*
X123411292Y-82385015D01*
X123608951Y-82250686D01*
X123616815Y-82244362D01*
X123790451Y-82080164D01*
X123797210Y-82072657D01*
X123942357Y-81882812D01*
X123947821Y-81874333D01*
X124060752Y-81663717D01*
X124064792Y-81654471D01*
X124142596Y-81428513D01*
X124145107Y-81418732D01*
X124185969Y-81182166D01*
X124186824Y-81174294D01*
X124187936Y-81149815D01*
X124188000Y-81146982D01*
X124188000Y-80549615D01*
X124183525Y-80534376D01*
X124182135Y-80533171D01*
X124174452Y-80531500D01*
X122912115Y-80531500D01*
X122896876Y-80535975D01*
X122895671Y-80537365D01*
X122894000Y-80545048D01*
X122894000Y-82548358D01*
X122386000Y-82548358D01*
X122386000Y-80549615D01*
X122381525Y-80534376D01*
X122380135Y-80533171D01*
X122372452Y-80531500D01*
X121110115Y-80531500D01*
X121094876Y-80535975D01*
X121093671Y-80537365D01*
X121092000Y-80545048D01*
X121092000Y-81097572D01*
X119008500Y-81097572D01*
X119008500Y-80005385D01*
X121092000Y-80005385D01*
X121096475Y-80020624D01*
X121097865Y-80021829D01*
X121105548Y-80023500D01*
X122367885Y-80023500D01*
X122383124Y-80019025D01*
X122384329Y-80017635D01*
X122386000Y-80009952D01*
X122386000Y-80005385D01*
X122894000Y-80005385D01*
X122898475Y-80020624D01*
X122899865Y-80021829D01*
X122907548Y-80023500D01*
X124169885Y-80023500D01*
X124185124Y-80019025D01*
X124186329Y-80017635D01*
X124188000Y-80009952D01*
X124188000Y-79457428D01*
X124187798Y-79452396D01*
X124173464Y-79274241D01*
X124171852Y-79264288D01*
X124114846Y-79032200D01*
X124111663Y-79022630D01*
X124018282Y-78802640D01*
X124013608Y-78793701D01*
X123886261Y-78591476D01*
X123880220Y-78583401D01*
X123722173Y-78404132D01*
X123714921Y-78397129D01*
X123530250Y-78245438D01*
X123521967Y-78239682D01*
X123315421Y-78119469D01*
X123306316Y-78115107D01*
X123083215Y-78029466D01*
X123073526Y-78026615D01*
X122911736Y-77992815D01*
X122897675Y-77993938D01*
X122894000Y-78004046D01*
X122894000Y-80005385D01*
X122386000Y-80005385D01*
X122386000Y-78006642D01*
X122381864Y-77992556D01*
X122368886Y-77990507D01*
X122343369Y-77993460D01*
X122333479Y-77995419D01*
X122103524Y-78060489D01*
X122094073Y-78064003D01*
X121877472Y-78165006D01*
X121868708Y-78169985D01*
X121671049Y-78304314D01*
X121663185Y-78310638D01*
X121489549Y-78474836D01*
X121482790Y-78482343D01*
X121337643Y-78672188D01*
X121332179Y-78680667D01*
X121219248Y-78891283D01*
X121215208Y-78900529D01*
X121137404Y-79126487D01*
X121134893Y-79136268D01*
X121094031Y-79372834D01*
X121093176Y-79380706D01*
X121092064Y-79405185D01*
X121092000Y-79408018D01*
X121092000Y-80005385D01*
X119008500Y-80005385D01*
X119008500Y-66634500D01*
X119028502Y-66566379D01*
X119082158Y-66519886D01*
X119134500Y-66508500D01*
X171865500Y-66508500D01*
X171933621Y-66528502D01*
G37*
%TD.AperFunction*%
%TA.AperFunction,Conductor*%
G36*
X162317395Y-110933502D02*
G01*
X162356707Y-110973665D01*
X162424987Y-111085088D01*
X162571250Y-111253938D01*
X162743126Y-111396632D01*
X162749773Y-111400516D01*
X162816445Y-111439476D01*
X162865169Y-111491114D01*
X162878240Y-111560897D01*
X162851509Y-111626669D01*
X162811055Y-111660027D01*
X162798607Y-111666507D01*
X162794474Y-111669610D01*
X162794471Y-111669612D01*
X162624100Y-111797530D01*
X162619965Y-111800635D01*
X162616393Y-111804373D01*
X162469644Y-111957937D01*
X162465629Y-111962138D01*
X162462715Y-111966410D01*
X162462714Y-111966411D01*
X162350095Y-112131504D01*
X162295184Y-112176507D01*
X162246007Y-112186500D01*
X161898763Y-112186500D01*
X161887579Y-112185973D01*
X161880091Y-112184299D01*
X161872168Y-112184548D01*
X161812033Y-112186438D01*
X161808075Y-112186500D01*
X161780144Y-112186500D01*
X161776229Y-112186995D01*
X161776225Y-112186995D01*
X161776167Y-112187003D01*
X161776138Y-112187006D01*
X161764296Y-112187939D01*
X161720110Y-112189327D01*
X161702744Y-112194372D01*
X161700658Y-112194978D01*
X161681306Y-112198986D01*
X161669068Y-112200532D01*
X161669066Y-112200533D01*
X161661203Y-112201526D01*
X161620086Y-112217806D01*
X161608885Y-112221641D01*
X161566406Y-112233982D01*
X161559587Y-112238015D01*
X161559582Y-112238017D01*
X161548971Y-112244293D01*
X161531221Y-112252990D01*
X161512383Y-112260448D01*
X161505967Y-112265109D01*
X161505966Y-112265110D01*
X161476625Y-112286428D01*
X161466701Y-112292947D01*
X161435460Y-112311422D01*
X161435455Y-112311426D01*
X161428637Y-112315458D01*
X161414313Y-112329782D01*
X161399281Y-112342621D01*
X161382893Y-112354528D01*
X161354712Y-112388593D01*
X161346722Y-112397373D01*
X155831782Y-117912313D01*
X155769470Y-117946339D01*
X155698655Y-117941274D01*
X155641819Y-117898727D01*
X155617008Y-117832207D01*
X155629729Y-117767392D01*
X155635138Y-117756448D01*
X155637430Y-117751811D01*
X155681907Y-117605420D01*
X155700865Y-117543023D01*
X155700865Y-117543021D01*
X155702370Y-117538069D01*
X155731529Y-117316590D01*
X155731674Y-117310657D01*
X155733074Y-117253365D01*
X155733074Y-117253361D01*
X155733156Y-117250000D01*
X155714852Y-117027361D01*
X155660431Y-116810702D01*
X155571354Y-116605840D01*
X155476108Y-116458612D01*
X155452822Y-116422617D01*
X155452820Y-116422614D01*
X155450014Y-116418277D01*
X155446538Y-116414457D01*
X155446533Y-116414450D01*
X155302435Y-116256088D01*
X155271383Y-116192242D01*
X155279779Y-116121744D01*
X155324956Y-116066976D01*
X155351400Y-116053307D01*
X155458052Y-116013325D01*
X155473649Y-116004786D01*
X155575724Y-115928285D01*
X155588285Y-115915724D01*
X155664786Y-115813649D01*
X155673324Y-115798054D01*
X155718478Y-115677606D01*
X155722105Y-115662351D01*
X155727631Y-115611486D01*
X155728000Y-115604672D01*
X155728000Y-114982115D01*
X155723525Y-114966876D01*
X155722135Y-114965671D01*
X155714452Y-114964000D01*
X154242000Y-114964000D01*
X154173879Y-114943998D01*
X154127386Y-114890342D01*
X154116000Y-114838000D01*
X154116000Y-114582000D01*
X154136002Y-114513879D01*
X154189658Y-114467386D01*
X154242000Y-114456000D01*
X155709884Y-114456000D01*
X155725123Y-114451525D01*
X155726328Y-114450135D01*
X155727999Y-114442452D01*
X155727999Y-113815331D01*
X155727629Y-113808510D01*
X155722105Y-113757648D01*
X155718479Y-113742396D01*
X155673324Y-113621946D01*
X155664786Y-113606351D01*
X155588285Y-113504276D01*
X155575724Y-113491715D01*
X155520499Y-113450326D01*
X155477984Y-113393467D01*
X155472958Y-113322648D01*
X155507018Y-113260355D01*
X155569349Y-113226365D01*
X155596064Y-113223500D01*
X159521233Y-113223500D01*
X159532416Y-113224027D01*
X159539909Y-113225702D01*
X159547835Y-113225453D01*
X159547836Y-113225453D01*
X159607986Y-113223562D01*
X159611945Y-113223500D01*
X159639856Y-113223500D01*
X159643791Y-113223003D01*
X159643856Y-113222995D01*
X159655693Y-113222062D01*
X159687951Y-113221048D01*
X159691970Y-113220922D01*
X159699889Y-113220673D01*
X159719343Y-113215021D01*
X159738700Y-113211013D01*
X159750930Y-113209468D01*
X159750931Y-113209468D01*
X159758797Y-113208474D01*
X159766168Y-113205555D01*
X159766170Y-113205555D01*
X159799912Y-113192196D01*
X159811142Y-113188351D01*
X159845983Y-113178229D01*
X159845984Y-113178229D01*
X159853593Y-113176018D01*
X159860412Y-113171985D01*
X159860417Y-113171983D01*
X159871028Y-113165707D01*
X159888776Y-113157012D01*
X159907617Y-113149552D01*
X159943387Y-113123564D01*
X159953307Y-113117048D01*
X159984535Y-113098580D01*
X159984538Y-113098578D01*
X159991362Y-113094542D01*
X160005683Y-113080221D01*
X160020717Y-113067380D01*
X160030694Y-113060131D01*
X160037107Y-113055472D01*
X160065298Y-113021395D01*
X160073288Y-113012616D01*
X162135499Y-110950405D01*
X162197811Y-110916379D01*
X162224594Y-110913500D01*
X162249274Y-110913500D01*
X162317395Y-110933502D01*
G37*
%TD.AperFunction*%
%TD*%
M02*
