%TF.GenerationSoftware,KiCad,Pcbnew,6.0.8+dfsg-1~bpo11+1*%
%TF.CreationDate,2022-10-31T17:37:34+01:00*%
%TF.ProjectId,rib4outAd_00,72696234-6f75-4744-9164-5f30302e6b69,rev?*%
%TF.SameCoordinates,Original*%
%TF.FileFunction,Copper,L2,Inr*%
%TF.FilePolarity,Positive*%
%FSLAX46Y46*%
G04 Gerber Fmt 4.6, Leading zero omitted, Abs format (unit mm)*
G04 Created by KiCad (PCBNEW 6.0.8+dfsg-1~bpo11+1) date 2022-10-31 17:37:34*
%MOMM*%
%LPD*%
G01*
G04 APERTURE LIST*
G04 Aperture macros list*
%AMRoundRect*
0 Rectangle with rounded corners*
0 $1 Rounding radius*
0 $2 $3 $4 $5 $6 $7 $8 $9 X,Y pos of 4 corners*
0 Add a 4 corners polygon primitive as box body*
4,1,4,$2,$3,$4,$5,$6,$7,$8,$9,$2,$3,0*
0 Add four circle primitives for the rounded corners*
1,1,$1+$1,$2,$3*
1,1,$1+$1,$4,$5*
1,1,$1+$1,$6,$7*
1,1,$1+$1,$8,$9*
0 Add four rect primitives between the rounded corners*
20,1,$1+$1,$2,$3,$4,$5,0*
20,1,$1+$1,$4,$5,$6,$7,0*
20,1,$1+$1,$6,$7,$8,$9,0*
20,1,$1+$1,$8,$9,$2,$3,0*%
G04 Aperture macros list end*
%TA.AperFunction,ComponentPad*%
%ADD10RoundRect,0.249999X0.790001X1.550001X-0.790001X1.550001X-0.790001X-1.550001X0.790001X-1.550001X0*%
%TD*%
%TA.AperFunction,ComponentPad*%
%ADD11O,2.080000X3.600000*%
%TD*%
%TA.AperFunction,ComponentPad*%
%ADD12R,1.700000X1.700000*%
%TD*%
%TA.AperFunction,ComponentPad*%
%ADD13O,1.700000X1.700000*%
%TD*%
%TA.AperFunction,ViaPad*%
%ADD14C,0.800000*%
%TD*%
G04 APERTURE END LIST*
D10*
%TO.N,+VSW*%
%TO.C,J3*%
X168360000Y-80277500D03*
D11*
%TO.N,Earth*%
X163280000Y-80277500D03*
%TO.N,+VSW*%
X158200000Y-80277500D03*
%TO.N,Earth*%
X153120000Y-80277500D03*
%TO.N,+VSW*%
X148040000Y-80277500D03*
%TO.N,Earth*%
X142960000Y-80277500D03*
%TO.N,+VSW*%
X137880000Y-80277500D03*
%TO.N,Earth*%
X132800000Y-80277500D03*
%TO.N,+VSW*%
X127720000Y-80277500D03*
%TO.N,GNDD*%
X122640000Y-80277500D03*
%TD*%
D12*
%TO.N,GNDD*%
%TO.C,J6*%
X127775000Y-117825000D03*
D13*
%TO.N,+5V*%
X127775000Y-115285000D03*
%TO.N,/SDA1*%
X127775000Y-112745000D03*
%TO.N,/SCL1*%
X127775000Y-110205000D03*
%TO.N,GNDD*%
X127775000Y-107665000D03*
%TO.N,/VOM3*%
X127775000Y-105125000D03*
%TD*%
D10*
%TO.N,Earth*%
%TO.C,J2*%
X168360000Y-73277500D03*
D11*
%TO.N,GNDD*%
X163280000Y-73277500D03*
%TO.N,/VO4*%
X158200000Y-73277500D03*
%TO.N,GNDD*%
X153120000Y-73277500D03*
%TO.N,/VO3*%
X148040000Y-73277500D03*
%TO.N,GNDD*%
X142960000Y-73277500D03*
%TO.N,/VO2*%
X137880000Y-73277500D03*
%TO.N,GNDD*%
X132800000Y-73277500D03*
%TO.N,/VO1*%
X127720000Y-73277500D03*
%TO.N,+VSW*%
X122640000Y-73277500D03*
%TD*%
D12*
%TO.N,GNDD*%
%TO.C,J5*%
X163500000Y-88340000D03*
D13*
%TO.N,+5V*%
X163500000Y-90880000D03*
%TO.N,/SDA0*%
X163500000Y-93420000D03*
%TO.N,/SCL0*%
X163500000Y-95960000D03*
%TO.N,GNDD*%
X163500000Y-98500000D03*
%TO.N,/VOM2*%
X163500000Y-101040000D03*
%TD*%
D12*
%TO.N,GNDD*%
%TO.C,J7*%
X163525000Y-105200000D03*
D13*
%TO.N,+5V*%
X163525000Y-107740000D03*
%TO.N,/SDA1*%
X163525000Y-110280000D03*
%TO.N,/SCL1*%
X163525000Y-112820000D03*
%TO.N,GNDD*%
X163525000Y-115360000D03*
%TO.N,/VOM4*%
X163525000Y-117900000D03*
%TD*%
D12*
%TO.N,GNDD*%
%TO.C,J4*%
X127775000Y-100925000D03*
D13*
%TO.N,+5V*%
X127775000Y-98385000D03*
%TO.N,/SDA0*%
X127775000Y-95845000D03*
%TO.N,/SCL0*%
X127775000Y-93305000D03*
%TO.N,GNDD*%
X127775000Y-90765000D03*
%TO.N,/VOM1*%
X127775000Y-88225000D03*
%TD*%
D12*
%TO.N,GNDD*%
%TO.C,J1*%
X154370000Y-114710000D03*
D13*
%TO.N,/SCL0*%
X154370000Y-117250000D03*
%TO.N,/SDA0*%
X151830000Y-114710000D03*
%TO.N,/SCL1*%
X151830000Y-117250000D03*
%TO.N,/SDA1*%
X149290000Y-114710000D03*
%TO.N,unconnected-(J1-Pad6)*%
X149290000Y-117250000D03*
%TO.N,unconnected-(J1-Pad7)*%
X146750000Y-114710000D03*
%TO.N,unconnected-(J1-Pad8)*%
X146750000Y-117250000D03*
%TO.N,unconnected-(J1-Pad9)*%
X144210000Y-114710000D03*
%TO.N,+5V*%
X144210000Y-117250000D03*
%TO.N,-12V*%
X141670000Y-114710000D03*
%TO.N,+12V*%
X141670000Y-117250000D03*
%TO.N,GNDD*%
X139130000Y-114710000D03*
%TO.N,Earth*%
X139130000Y-117250000D03*
%TO.N,+VSW*%
X136590000Y-114710000D03*
X136590000Y-117250000D03*
%TD*%
D14*
%TO.N,+12V*%
X148640000Y-86830000D03*
%TO.N,GNDD*%
X155800000Y-102700000D03*
X159500000Y-91500000D03*
X154300000Y-110800000D03*
X146500000Y-108200000D03*
%TO.N,-12V*%
X150820000Y-85860000D03*
%TO.N,/VOM1*%
X150035500Y-92450000D03*
X148070000Y-103560000D03*
%TO.N,/VOM2*%
X150000000Y-97550000D03*
X146630000Y-105500500D03*
%TO.N,/VOM3*%
X152060000Y-97550000D03*
X149390000Y-108810000D03*
%TO.N,/VOM4*%
X150500000Y-109480000D03*
X151934500Y-92470000D03*
%TD*%
%TA.AperFunction,Conductor*%
%TO.N,Earth*%
G36*
X171933621Y-66528502D02*
G01*
X171980114Y-66582158D01*
X171991500Y-66634500D01*
X171991500Y-119365500D01*
X171971498Y-119433621D01*
X171917842Y-119480114D01*
X171865500Y-119491500D01*
X163768588Y-119491500D01*
X163700467Y-119471498D01*
X163653974Y-119417842D01*
X163643870Y-119347568D01*
X163673364Y-119282988D01*
X163733090Y-119244604D01*
X163752578Y-119240521D01*
X163803288Y-119234025D01*
X163803289Y-119234025D01*
X163808416Y-119233368D01*
X163813366Y-119231883D01*
X164017429Y-119170661D01*
X164017434Y-119170659D01*
X164022384Y-119169174D01*
X164222994Y-119070896D01*
X164404860Y-118941173D01*
X164563096Y-118783489D01*
X164568478Y-118776000D01*
X164690435Y-118606277D01*
X164693453Y-118602077D01*
X164702618Y-118583534D01*
X164790136Y-118406453D01*
X164790137Y-118406451D01*
X164792430Y-118401811D01*
X164857370Y-118188069D01*
X164886529Y-117966590D01*
X164886611Y-117963240D01*
X164888074Y-117903365D01*
X164888074Y-117903361D01*
X164888156Y-117900000D01*
X164869852Y-117677361D01*
X164815431Y-117460702D01*
X164726354Y-117255840D01*
X164605014Y-117068277D01*
X164523704Y-116978918D01*
X167486917Y-116978918D01*
X167487334Y-116986156D01*
X167502682Y-117252320D01*
X167555405Y-117521053D01*
X167556792Y-117525103D01*
X167556793Y-117525108D01*
X167642723Y-117776088D01*
X167644112Y-117780144D01*
X167673238Y-117838054D01*
X167742837Y-117976437D01*
X167767160Y-118024799D01*
X167769586Y-118028328D01*
X167769589Y-118028334D01*
X167838976Y-118129292D01*
X167922274Y-118250490D01*
X167925161Y-118253663D01*
X167925162Y-118253664D01*
X168103692Y-118449867D01*
X168106582Y-118453043D01*
X168316675Y-118628707D01*
X168320316Y-118630991D01*
X168545024Y-118771951D01*
X168545028Y-118771953D01*
X168548664Y-118774234D01*
X168616544Y-118804883D01*
X168794345Y-118885164D01*
X168794349Y-118885166D01*
X168798257Y-118886930D01*
X168802377Y-118888150D01*
X168802376Y-118888150D01*
X169056723Y-118963491D01*
X169056727Y-118963492D01*
X169060836Y-118964709D01*
X169065070Y-118965357D01*
X169065075Y-118965358D01*
X169327298Y-119005483D01*
X169327300Y-119005483D01*
X169331540Y-119006132D01*
X169470912Y-119008322D01*
X169601071Y-119010367D01*
X169601077Y-119010367D01*
X169605362Y-119010434D01*
X169877235Y-118977534D01*
X170142127Y-118908041D01*
X170146087Y-118906401D01*
X170146092Y-118906399D01*
X170268631Y-118855641D01*
X170395136Y-118803241D01*
X170631582Y-118665073D01*
X170847089Y-118496094D01*
X170888809Y-118453043D01*
X171034686Y-118302509D01*
X171037669Y-118299431D01*
X171040202Y-118295983D01*
X171040206Y-118295978D01*
X171197257Y-118082178D01*
X171199795Y-118078723D01*
X171227154Y-118028334D01*
X171328418Y-117841830D01*
X171328419Y-117841828D01*
X171330468Y-117838054D01*
X171427269Y-117581877D01*
X171461069Y-117434297D01*
X171487449Y-117319117D01*
X171487450Y-117319113D01*
X171488407Y-117314933D01*
X171494502Y-117246646D01*
X171512531Y-117044627D01*
X171512531Y-117044625D01*
X171512751Y-117042161D01*
X171513193Y-117000000D01*
X171508440Y-116930283D01*
X171494859Y-116731055D01*
X171494858Y-116731049D01*
X171494567Y-116726778D01*
X171439032Y-116458612D01*
X171347617Y-116200465D01*
X171246848Y-116005229D01*
X171223978Y-115960919D01*
X171223978Y-115960918D01*
X171222013Y-115957112D01*
X171212040Y-115942921D01*
X171121356Y-115813891D01*
X171064545Y-115733057D01*
X170949640Y-115609404D01*
X170881046Y-115535588D01*
X170881043Y-115535585D01*
X170878125Y-115532445D01*
X170874810Y-115529731D01*
X170874806Y-115529728D01*
X170669523Y-115361706D01*
X170666205Y-115358990D01*
X170432704Y-115215901D01*
X170423387Y-115211811D01*
X170185873Y-115107549D01*
X170185869Y-115107548D01*
X170181945Y-115105825D01*
X169918566Y-115030800D01*
X169914324Y-115030196D01*
X169914318Y-115030195D01*
X169713834Y-115001662D01*
X169647443Y-114992213D01*
X169503589Y-114991460D01*
X169377877Y-114990802D01*
X169377871Y-114990802D01*
X169373591Y-114990780D01*
X169369347Y-114991339D01*
X169369343Y-114991339D01*
X169250302Y-115007011D01*
X169102078Y-115026525D01*
X169097938Y-115027658D01*
X169097936Y-115027658D01*
X169025008Y-115047609D01*
X168837928Y-115098788D01*
X168833980Y-115100472D01*
X168589982Y-115204546D01*
X168589978Y-115204548D01*
X168586030Y-115206232D01*
X168467414Y-115277222D01*
X168354725Y-115344664D01*
X168354721Y-115344667D01*
X168351043Y-115346868D01*
X168137318Y-115518094D01*
X168069754Y-115589292D01*
X167975760Y-115688341D01*
X167948808Y-115716742D01*
X167789002Y-115939136D01*
X167660857Y-116181161D01*
X167659385Y-116185184D01*
X167659383Y-116185188D01*
X167582210Y-116396071D01*
X167566743Y-116438337D01*
X167508404Y-116705907D01*
X167486917Y-116978918D01*
X164523704Y-116978918D01*
X164454670Y-116903051D01*
X164450619Y-116899852D01*
X164450615Y-116899848D01*
X164283414Y-116767800D01*
X164283410Y-116767798D01*
X164279359Y-116764598D01*
X164238053Y-116741796D01*
X164188084Y-116691364D01*
X164173312Y-116621921D01*
X164198428Y-116555516D01*
X164225780Y-116528909D01*
X164294404Y-116479960D01*
X164404860Y-116401173D01*
X164435384Y-116370756D01*
X164505027Y-116301355D01*
X164563096Y-116243489D01*
X164569647Y-116234373D01*
X164690435Y-116066277D01*
X164693453Y-116062077D01*
X164697181Y-116054535D01*
X164790136Y-115866453D01*
X164790137Y-115866451D01*
X164792430Y-115861811D01*
X164835448Y-115720222D01*
X164855865Y-115653023D01*
X164855865Y-115653021D01*
X164857370Y-115648069D01*
X164886529Y-115426590D01*
X164886611Y-115423240D01*
X164888074Y-115363365D01*
X164888074Y-115363361D01*
X164888156Y-115360000D01*
X164869852Y-115137361D01*
X164815431Y-114920702D01*
X164726354Y-114715840D01*
X164677834Y-114640840D01*
X164607822Y-114532617D01*
X164607820Y-114532614D01*
X164605014Y-114528277D01*
X164454670Y-114363051D01*
X164450619Y-114359852D01*
X164450615Y-114359848D01*
X164283414Y-114227800D01*
X164283410Y-114227798D01*
X164279359Y-114224598D01*
X164238053Y-114201796D01*
X164188084Y-114151364D01*
X164173312Y-114081921D01*
X164198428Y-114015516D01*
X164225780Y-113988909D01*
X164271757Y-113956114D01*
X164404860Y-113861173D01*
X164457749Y-113808469D01*
X164524164Y-113742285D01*
X164563096Y-113703489D01*
X164569647Y-113694373D01*
X164690435Y-113526277D01*
X164693453Y-113522077D01*
X164719618Y-113469137D01*
X164790136Y-113326453D01*
X164790137Y-113326451D01*
X164792430Y-113321811D01*
X164824900Y-113214940D01*
X164855865Y-113113023D01*
X164855865Y-113113021D01*
X164857370Y-113108069D01*
X164886529Y-112886590D01*
X164888156Y-112820000D01*
X164869852Y-112597361D01*
X164815431Y-112380702D01*
X164726354Y-112175840D01*
X164677834Y-112100840D01*
X164607822Y-111992617D01*
X164607820Y-111992614D01*
X164605014Y-111988277D01*
X164454670Y-111823051D01*
X164450619Y-111819852D01*
X164450615Y-111819848D01*
X164283414Y-111687800D01*
X164283410Y-111687798D01*
X164279359Y-111684598D01*
X164238053Y-111661796D01*
X164188084Y-111611364D01*
X164173312Y-111541921D01*
X164198428Y-111475516D01*
X164225780Y-111448909D01*
X164271757Y-111416114D01*
X164404860Y-111321173D01*
X164563096Y-111163489D01*
X164620005Y-111084292D01*
X164690435Y-110986277D01*
X164693453Y-110982077D01*
X164728445Y-110911277D01*
X164790136Y-110786453D01*
X164790137Y-110786451D01*
X164792430Y-110781811D01*
X164824900Y-110674940D01*
X164855865Y-110573023D01*
X164855865Y-110573021D01*
X164857370Y-110568069D01*
X164886529Y-110346590D01*
X164888156Y-110280000D01*
X164869852Y-110057361D01*
X164815431Y-109840702D01*
X164726354Y-109635840D01*
X164677834Y-109560840D01*
X164607822Y-109452617D01*
X164607820Y-109452614D01*
X164605014Y-109448277D01*
X164454670Y-109283051D01*
X164450619Y-109279852D01*
X164450615Y-109279848D01*
X164283414Y-109147800D01*
X164283410Y-109147798D01*
X164279359Y-109144598D01*
X164238053Y-109121796D01*
X164188084Y-109071364D01*
X164173312Y-109001921D01*
X164198428Y-108935516D01*
X164225780Y-108908909D01*
X164274784Y-108873955D01*
X164404860Y-108781173D01*
X164563096Y-108623489D01*
X164597866Y-108575102D01*
X164690435Y-108446277D01*
X164693453Y-108442077D01*
X164719227Y-108389928D01*
X164790136Y-108246453D01*
X164790137Y-108246451D01*
X164792430Y-108241811D01*
X164827236Y-108127251D01*
X164855865Y-108033023D01*
X164855865Y-108033021D01*
X164857370Y-108028069D01*
X164886529Y-107806590D01*
X164888156Y-107740000D01*
X164869852Y-107517361D01*
X164815431Y-107300702D01*
X164726354Y-107095840D01*
X164677834Y-107020840D01*
X164607822Y-106912617D01*
X164607820Y-106912614D01*
X164605014Y-106908277D01*
X164601532Y-106904450D01*
X164457798Y-106746488D01*
X164426746Y-106682642D01*
X164435141Y-106612143D01*
X164480317Y-106557375D01*
X164506761Y-106543706D01*
X164613297Y-106503767D01*
X164621705Y-106500615D01*
X164738261Y-106413261D01*
X164825615Y-106296705D01*
X164876745Y-106160316D01*
X164883500Y-106098134D01*
X164883500Y-104301866D01*
X164876745Y-104239684D01*
X164825615Y-104103295D01*
X164738261Y-103986739D01*
X164621705Y-103899385D01*
X164485316Y-103848255D01*
X164423134Y-103841500D01*
X162626866Y-103841500D01*
X162564684Y-103848255D01*
X162428295Y-103899385D01*
X162311739Y-103986739D01*
X162224385Y-104103295D01*
X162173255Y-104239684D01*
X162166500Y-104301866D01*
X162166500Y-106098134D01*
X162173255Y-106160316D01*
X162224385Y-106296705D01*
X162311739Y-106413261D01*
X162428295Y-106500615D01*
X162436704Y-106503767D01*
X162436705Y-106503768D01*
X162545451Y-106544535D01*
X162602216Y-106587176D01*
X162626916Y-106653738D01*
X162611709Y-106723087D01*
X162592316Y-106749568D01*
X162465629Y-106882138D01*
X162462715Y-106886410D01*
X162462714Y-106886411D01*
X162387702Y-106996375D01*
X162339743Y-107066680D01*
X162245688Y-107269305D01*
X162185989Y-107484570D01*
X162162251Y-107706695D01*
X162162548Y-107711848D01*
X162162548Y-107711851D01*
X162168011Y-107806590D01*
X162175110Y-107929715D01*
X162176247Y-107934761D01*
X162176248Y-107934767D01*
X162196119Y-108022939D01*
X162224222Y-108147639D01*
X162308266Y-108354616D01*
X162424987Y-108545088D01*
X162571250Y-108713938D01*
X162743126Y-108856632D01*
X162749773Y-108860516D01*
X162816445Y-108899476D01*
X162865169Y-108951114D01*
X162878240Y-109020897D01*
X162851509Y-109086669D01*
X162811055Y-109120027D01*
X162798607Y-109126507D01*
X162794474Y-109129610D01*
X162794471Y-109129612D01*
X162624100Y-109257530D01*
X162619965Y-109260635D01*
X162465629Y-109422138D01*
X162462715Y-109426410D01*
X162462714Y-109426411D01*
X162387702Y-109536375D01*
X162339743Y-109606680D01*
X162245688Y-109809305D01*
X162185989Y-110024570D01*
X162162251Y-110246695D01*
X162162548Y-110251848D01*
X162162548Y-110251851D01*
X162167983Y-110346109D01*
X162175110Y-110469715D01*
X162176247Y-110474761D01*
X162176248Y-110474767D01*
X162196119Y-110562939D01*
X162224222Y-110687639D01*
X162308266Y-110894616D01*
X162424987Y-111085088D01*
X162571250Y-111253938D01*
X162743126Y-111396632D01*
X162749773Y-111400516D01*
X162816445Y-111439476D01*
X162865169Y-111491114D01*
X162878240Y-111560897D01*
X162851509Y-111626669D01*
X162811055Y-111660027D01*
X162798607Y-111666507D01*
X162794474Y-111669610D01*
X162794471Y-111669612D01*
X162624100Y-111797530D01*
X162619965Y-111800635D01*
X162465629Y-111962138D01*
X162462715Y-111966410D01*
X162462714Y-111966411D01*
X162387702Y-112076375D01*
X162339743Y-112146680D01*
X162245688Y-112349305D01*
X162185989Y-112564570D01*
X162162251Y-112786695D01*
X162162548Y-112791848D01*
X162162548Y-112791851D01*
X162168011Y-112886590D01*
X162175110Y-113009715D01*
X162176247Y-113014761D01*
X162176248Y-113014767D01*
X162196119Y-113102939D01*
X162224222Y-113227639D01*
X162308266Y-113434616D01*
X162346335Y-113496739D01*
X162413357Y-113606109D01*
X162424987Y-113625088D01*
X162571250Y-113793938D01*
X162743126Y-113936632D01*
X162749773Y-113940516D01*
X162816445Y-113979476D01*
X162865169Y-114031114D01*
X162878240Y-114100897D01*
X162851509Y-114166669D01*
X162811055Y-114200027D01*
X162798607Y-114206507D01*
X162794474Y-114209610D01*
X162794471Y-114209612D01*
X162624100Y-114337530D01*
X162619965Y-114340635D01*
X162465629Y-114502138D01*
X162462715Y-114506410D01*
X162462714Y-114506411D01*
X162387702Y-114616375D01*
X162339743Y-114686680D01*
X162245688Y-114889305D01*
X162185989Y-115104570D01*
X162162251Y-115326695D01*
X162162548Y-115331848D01*
X162162548Y-115331851D01*
X162168011Y-115426590D01*
X162175110Y-115549715D01*
X162176247Y-115554761D01*
X162176248Y-115554767D01*
X162189041Y-115611531D01*
X162224222Y-115767639D01*
X162269404Y-115878909D01*
X162292447Y-115935657D01*
X162308266Y-115974616D01*
X162327026Y-116005229D01*
X162396268Y-116118222D01*
X162424987Y-116165088D01*
X162571250Y-116333938D01*
X162743126Y-116476632D01*
X162750793Y-116481112D01*
X162816445Y-116519476D01*
X162865169Y-116571114D01*
X162878240Y-116640897D01*
X162851509Y-116706669D01*
X162811055Y-116740027D01*
X162798607Y-116746507D01*
X162794474Y-116749610D01*
X162794471Y-116749612D01*
X162624100Y-116877530D01*
X162619965Y-116880635D01*
X162616393Y-116884373D01*
X162479442Y-117027684D01*
X162465629Y-117042138D01*
X162339743Y-117226680D01*
X162298008Y-117316590D01*
X162275540Y-117364995D01*
X162245688Y-117429305D01*
X162185989Y-117644570D01*
X162162251Y-117866695D01*
X162162548Y-117871848D01*
X162162548Y-117871851D01*
X162171146Y-118020968D01*
X162175110Y-118089715D01*
X162176247Y-118094761D01*
X162176248Y-118094767D01*
X162183955Y-118128965D01*
X162224222Y-118307639D01*
X162262461Y-118401811D01*
X162301822Y-118498745D01*
X162308266Y-118514616D01*
X162341632Y-118569065D01*
X162398843Y-118662424D01*
X162424987Y-118705088D01*
X162571250Y-118873938D01*
X162743126Y-119016632D01*
X162936000Y-119129338D01*
X163144692Y-119209030D01*
X163149760Y-119210061D01*
X163149763Y-119210062D01*
X163306891Y-119242030D01*
X163369656Y-119275211D01*
X163404518Y-119337059D01*
X163400409Y-119407937D01*
X163358632Y-119465341D01*
X163292453Y-119491046D01*
X163281770Y-119491500D01*
X119134500Y-119491500D01*
X119066379Y-119471498D01*
X119019886Y-119417842D01*
X119008500Y-119365500D01*
X119008500Y-116978918D01*
X119486917Y-116978918D01*
X119487334Y-116986156D01*
X119502682Y-117252320D01*
X119555405Y-117521053D01*
X119556792Y-117525103D01*
X119556793Y-117525108D01*
X119642723Y-117776088D01*
X119644112Y-117780144D01*
X119673238Y-117838054D01*
X119742837Y-117976437D01*
X119767160Y-118024799D01*
X119769586Y-118028328D01*
X119769589Y-118028334D01*
X119838976Y-118129292D01*
X119922274Y-118250490D01*
X119925161Y-118253663D01*
X119925162Y-118253664D01*
X120103692Y-118449867D01*
X120106582Y-118453043D01*
X120316675Y-118628707D01*
X120320316Y-118630991D01*
X120545024Y-118771951D01*
X120545028Y-118771953D01*
X120548664Y-118774234D01*
X120616544Y-118804883D01*
X120794345Y-118885164D01*
X120794349Y-118885166D01*
X120798257Y-118886930D01*
X120802377Y-118888150D01*
X120802376Y-118888150D01*
X121056723Y-118963491D01*
X121056727Y-118963492D01*
X121060836Y-118964709D01*
X121065070Y-118965357D01*
X121065075Y-118965358D01*
X121327298Y-119005483D01*
X121327300Y-119005483D01*
X121331540Y-119006132D01*
X121470912Y-119008322D01*
X121601071Y-119010367D01*
X121601077Y-119010367D01*
X121605362Y-119010434D01*
X121877235Y-118977534D01*
X122142127Y-118908041D01*
X122146087Y-118906401D01*
X122146092Y-118906399D01*
X122268631Y-118855641D01*
X122395136Y-118803241D01*
X122631582Y-118665073D01*
X122847089Y-118496094D01*
X122888809Y-118453043D01*
X123034686Y-118302509D01*
X123037669Y-118299431D01*
X123040202Y-118295983D01*
X123040206Y-118295978D01*
X123197257Y-118082178D01*
X123199795Y-118078723D01*
X123227154Y-118028334D01*
X123328418Y-117841830D01*
X123328419Y-117841828D01*
X123330468Y-117838054D01*
X123427269Y-117581877D01*
X123461069Y-117434297D01*
X123487449Y-117319117D01*
X123487450Y-117319113D01*
X123488407Y-117314933D01*
X123494502Y-117246646D01*
X123512531Y-117044627D01*
X123512531Y-117044625D01*
X123512751Y-117042161D01*
X123513193Y-117000000D01*
X123508440Y-116930283D01*
X123494859Y-116731055D01*
X123494858Y-116731049D01*
X123494567Y-116726778D01*
X123439032Y-116458612D01*
X123347617Y-116200465D01*
X123246848Y-116005229D01*
X123223978Y-115960919D01*
X123223978Y-115960918D01*
X123222013Y-115957112D01*
X123212040Y-115942921D01*
X123121356Y-115813891D01*
X123064545Y-115733057D01*
X122949640Y-115609404D01*
X122881046Y-115535588D01*
X122881043Y-115535585D01*
X122878125Y-115532445D01*
X122874810Y-115529731D01*
X122874806Y-115529728D01*
X122669523Y-115361706D01*
X122666205Y-115358990D01*
X122491115Y-115251695D01*
X126412251Y-115251695D01*
X126412548Y-115256848D01*
X126412548Y-115256851D01*
X126417893Y-115349550D01*
X126425110Y-115474715D01*
X126426247Y-115479761D01*
X126426248Y-115479767D01*
X126442012Y-115549715D01*
X126474222Y-115692639D01*
X126529690Y-115829242D01*
X126550665Y-115880896D01*
X126558266Y-115899616D01*
X126595832Y-115960919D01*
X126661069Y-116067375D01*
X126674987Y-116090088D01*
X126821250Y-116258938D01*
X126825230Y-116262242D01*
X126829981Y-116266187D01*
X126869616Y-116325090D01*
X126871113Y-116396071D01*
X126833997Y-116456593D01*
X126793724Y-116481112D01*
X126678295Y-116524385D01*
X126561739Y-116611739D01*
X126474385Y-116728295D01*
X126423255Y-116864684D01*
X126416500Y-116926866D01*
X126416500Y-118723134D01*
X126423255Y-118785316D01*
X126474385Y-118921705D01*
X126561739Y-119038261D01*
X126678295Y-119125615D01*
X126814684Y-119176745D01*
X126876866Y-119183500D01*
X128673134Y-119183500D01*
X128735316Y-119176745D01*
X128871705Y-119125615D01*
X128988261Y-119038261D01*
X129075615Y-118921705D01*
X129126745Y-118785316D01*
X129133500Y-118723134D01*
X129133500Y-117216695D01*
X135227251Y-117216695D01*
X135227548Y-117221848D01*
X135227548Y-117221851D01*
X135232915Y-117314933D01*
X135240110Y-117439715D01*
X135241247Y-117444761D01*
X135241248Y-117444767D01*
X135259354Y-117525108D01*
X135289222Y-117657639D01*
X135327461Y-117751811D01*
X135364014Y-117841830D01*
X135373266Y-117864616D01*
X135424019Y-117947438D01*
X135487291Y-118050688D01*
X135489987Y-118055088D01*
X135636250Y-118223938D01*
X135808126Y-118366632D01*
X136001000Y-118479338D01*
X136209692Y-118559030D01*
X136214760Y-118560061D01*
X136214763Y-118560062D01*
X136309862Y-118579410D01*
X136428597Y-118603567D01*
X136433772Y-118603757D01*
X136433774Y-118603757D01*
X136646673Y-118611564D01*
X136646677Y-118611564D01*
X136651837Y-118611753D01*
X136656957Y-118611097D01*
X136656959Y-118611097D01*
X136868288Y-118584025D01*
X136868289Y-118584025D01*
X136873416Y-118583368D01*
X136878366Y-118581883D01*
X137082429Y-118520661D01*
X137082434Y-118520659D01*
X137087384Y-118519174D01*
X137287994Y-118420896D01*
X137469860Y-118291173D01*
X137510686Y-118250490D01*
X137624435Y-118137137D01*
X137628096Y-118133489D01*
X137655921Y-118094767D01*
X137758453Y-117952077D01*
X137759640Y-117952930D01*
X137806960Y-117909362D01*
X137876897Y-117897145D01*
X137942338Y-117924678D01*
X137970166Y-117956511D01*
X138027694Y-118050388D01*
X138033777Y-118058699D01*
X138173213Y-118219667D01*
X138180580Y-118226883D01*
X138344434Y-118362916D01*
X138352881Y-118368831D01*
X138536756Y-118476279D01*
X138546042Y-118480729D01*
X138745001Y-118556703D01*
X138754899Y-118559579D01*
X138858250Y-118580606D01*
X138872299Y-118579410D01*
X138876000Y-118569065D01*
X138876000Y-117122000D01*
X138896002Y-117053879D01*
X138949658Y-117007386D01*
X139002000Y-116996000D01*
X139258000Y-116996000D01*
X139326121Y-117016002D01*
X139372614Y-117069658D01*
X139384000Y-117122000D01*
X139384000Y-118568517D01*
X139388064Y-118582359D01*
X139401478Y-118584393D01*
X139408184Y-118583534D01*
X139418262Y-118581392D01*
X139622255Y-118520191D01*
X139631842Y-118516433D01*
X139823095Y-118422739D01*
X139831945Y-118417464D01*
X140005328Y-118293792D01*
X140013200Y-118287139D01*
X140164052Y-118136812D01*
X140170730Y-118128965D01*
X140298022Y-117951819D01*
X140299279Y-117952722D01*
X140346373Y-117909362D01*
X140416311Y-117897145D01*
X140481751Y-117924678D01*
X140509579Y-117956511D01*
X140516847Y-117968371D01*
X140569987Y-118055088D01*
X140716250Y-118223938D01*
X140888126Y-118366632D01*
X141081000Y-118479338D01*
X141289692Y-118559030D01*
X141294760Y-118560061D01*
X141294763Y-118560062D01*
X141389862Y-118579410D01*
X141508597Y-118603567D01*
X141513772Y-118603757D01*
X141513774Y-118603757D01*
X141726673Y-118611564D01*
X141726677Y-118611564D01*
X141731837Y-118611753D01*
X141736957Y-118611097D01*
X141736959Y-118611097D01*
X141948288Y-118584025D01*
X141948289Y-118584025D01*
X141953416Y-118583368D01*
X141958366Y-118581883D01*
X142162429Y-118520661D01*
X142162434Y-118520659D01*
X142167384Y-118519174D01*
X142367994Y-118420896D01*
X142549860Y-118291173D01*
X142590686Y-118250490D01*
X142704435Y-118137137D01*
X142708096Y-118133489D01*
X142735921Y-118094767D01*
X142838453Y-117952077D01*
X142839776Y-117953028D01*
X142886645Y-117909857D01*
X142956580Y-117897625D01*
X143022026Y-117925144D01*
X143049875Y-117956994D01*
X143056847Y-117968371D01*
X143109987Y-118055088D01*
X143256250Y-118223938D01*
X143428126Y-118366632D01*
X143621000Y-118479338D01*
X143829692Y-118559030D01*
X143834760Y-118560061D01*
X143834763Y-118560062D01*
X143929862Y-118579410D01*
X144048597Y-118603567D01*
X144053772Y-118603757D01*
X144053774Y-118603757D01*
X144266673Y-118611564D01*
X144266677Y-118611564D01*
X144271837Y-118611753D01*
X144276957Y-118611097D01*
X144276959Y-118611097D01*
X144488288Y-118584025D01*
X144488289Y-118584025D01*
X144493416Y-118583368D01*
X144498366Y-118581883D01*
X144702429Y-118520661D01*
X144702434Y-118520659D01*
X144707384Y-118519174D01*
X144907994Y-118420896D01*
X145089860Y-118291173D01*
X145130686Y-118250490D01*
X145244435Y-118137137D01*
X145248096Y-118133489D01*
X145275921Y-118094767D01*
X145378453Y-117952077D01*
X145379776Y-117953028D01*
X145426645Y-117909857D01*
X145496580Y-117897625D01*
X145562026Y-117925144D01*
X145589875Y-117956994D01*
X145596847Y-117968371D01*
X145649987Y-118055088D01*
X145796250Y-118223938D01*
X145968126Y-118366632D01*
X146161000Y-118479338D01*
X146369692Y-118559030D01*
X146374760Y-118560061D01*
X146374763Y-118560062D01*
X146469862Y-118579410D01*
X146588597Y-118603567D01*
X146593772Y-118603757D01*
X146593774Y-118603757D01*
X146806673Y-118611564D01*
X146806677Y-118611564D01*
X146811837Y-118611753D01*
X146816957Y-118611097D01*
X146816959Y-118611097D01*
X147028288Y-118584025D01*
X147028289Y-118584025D01*
X147033416Y-118583368D01*
X147038366Y-118581883D01*
X147242429Y-118520661D01*
X147242434Y-118520659D01*
X147247384Y-118519174D01*
X147447994Y-118420896D01*
X147629860Y-118291173D01*
X147670686Y-118250490D01*
X147784435Y-118137137D01*
X147788096Y-118133489D01*
X147815921Y-118094767D01*
X147918453Y-117952077D01*
X147919776Y-117953028D01*
X147966645Y-117909857D01*
X148036580Y-117897625D01*
X148102026Y-117925144D01*
X148129875Y-117956994D01*
X148136847Y-117968371D01*
X148189987Y-118055088D01*
X148336250Y-118223938D01*
X148508126Y-118366632D01*
X148701000Y-118479338D01*
X148909692Y-118559030D01*
X148914760Y-118560061D01*
X148914763Y-118560062D01*
X149009862Y-118579410D01*
X149128597Y-118603567D01*
X149133772Y-118603757D01*
X149133774Y-118603757D01*
X149346673Y-118611564D01*
X149346677Y-118611564D01*
X149351837Y-118611753D01*
X149356957Y-118611097D01*
X149356959Y-118611097D01*
X149568288Y-118584025D01*
X149568289Y-118584025D01*
X149573416Y-118583368D01*
X149578366Y-118581883D01*
X149782429Y-118520661D01*
X149782434Y-118520659D01*
X149787384Y-118519174D01*
X149987994Y-118420896D01*
X150169860Y-118291173D01*
X150210686Y-118250490D01*
X150324435Y-118137137D01*
X150328096Y-118133489D01*
X150355921Y-118094767D01*
X150458453Y-117952077D01*
X150459776Y-117953028D01*
X150506645Y-117909857D01*
X150576580Y-117897625D01*
X150642026Y-117925144D01*
X150669875Y-117956994D01*
X150676847Y-117968371D01*
X150729987Y-118055088D01*
X150876250Y-118223938D01*
X151048126Y-118366632D01*
X151241000Y-118479338D01*
X151449692Y-118559030D01*
X151454760Y-118560061D01*
X151454763Y-118560062D01*
X151549862Y-118579410D01*
X151668597Y-118603567D01*
X151673772Y-118603757D01*
X151673774Y-118603757D01*
X151886673Y-118611564D01*
X151886677Y-118611564D01*
X151891837Y-118611753D01*
X151896957Y-118611097D01*
X151896959Y-118611097D01*
X152108288Y-118584025D01*
X152108289Y-118584025D01*
X152113416Y-118583368D01*
X152118366Y-118581883D01*
X152322429Y-118520661D01*
X152322434Y-118520659D01*
X152327384Y-118519174D01*
X152527994Y-118420896D01*
X152709860Y-118291173D01*
X152750686Y-118250490D01*
X152864435Y-118137137D01*
X152868096Y-118133489D01*
X152895921Y-118094767D01*
X152998453Y-117952077D01*
X152999776Y-117953028D01*
X153046645Y-117909857D01*
X153116580Y-117897625D01*
X153182026Y-117925144D01*
X153209875Y-117956994D01*
X153216847Y-117968371D01*
X153269987Y-118055088D01*
X153416250Y-118223938D01*
X153588126Y-118366632D01*
X153781000Y-118479338D01*
X153989692Y-118559030D01*
X153994760Y-118560061D01*
X153994763Y-118560062D01*
X154089862Y-118579410D01*
X154208597Y-118603567D01*
X154213772Y-118603757D01*
X154213774Y-118603757D01*
X154426673Y-118611564D01*
X154426677Y-118611564D01*
X154431837Y-118611753D01*
X154436957Y-118611097D01*
X154436959Y-118611097D01*
X154648288Y-118584025D01*
X154648289Y-118584025D01*
X154653416Y-118583368D01*
X154658366Y-118581883D01*
X154862429Y-118520661D01*
X154862434Y-118520659D01*
X154867384Y-118519174D01*
X155067994Y-118420896D01*
X155249860Y-118291173D01*
X155290686Y-118250490D01*
X155404435Y-118137137D01*
X155408096Y-118133489D01*
X155435921Y-118094767D01*
X155535435Y-117956277D01*
X155538453Y-117952077D01*
X155551995Y-117924678D01*
X155635136Y-117756453D01*
X155635137Y-117756451D01*
X155637430Y-117751811D01*
X155689060Y-117581877D01*
X155700865Y-117543023D01*
X155700865Y-117543021D01*
X155702370Y-117538069D01*
X155731529Y-117316590D01*
X155732897Y-117260590D01*
X155733074Y-117253365D01*
X155733074Y-117253361D01*
X155733156Y-117250000D01*
X155714852Y-117027361D01*
X155660431Y-116810702D01*
X155571354Y-116605840D01*
X155487766Y-116476632D01*
X155452822Y-116422617D01*
X155452820Y-116422614D01*
X155450014Y-116418277D01*
X155437179Y-116404171D01*
X155302798Y-116256488D01*
X155271746Y-116192642D01*
X155280141Y-116122143D01*
X155325317Y-116067375D01*
X155351761Y-116053706D01*
X155458297Y-116013767D01*
X155466705Y-116010615D01*
X155583261Y-115923261D01*
X155670615Y-115806705D01*
X155721745Y-115670316D01*
X155728500Y-115608134D01*
X155728500Y-113811866D01*
X155721745Y-113749684D01*
X155670615Y-113613295D01*
X155583261Y-113496739D01*
X155466705Y-113409385D01*
X155330316Y-113358255D01*
X155268134Y-113351500D01*
X153471866Y-113351500D01*
X153409684Y-113358255D01*
X153273295Y-113409385D01*
X153156739Y-113496739D01*
X153069385Y-113613295D01*
X153066233Y-113621703D01*
X153024919Y-113731907D01*
X152982277Y-113788671D01*
X152915716Y-113813371D01*
X152846367Y-113798163D01*
X152813743Y-113772476D01*
X152763151Y-113716875D01*
X152763142Y-113716866D01*
X152759670Y-113713051D01*
X152755619Y-113709852D01*
X152755615Y-113709848D01*
X152588414Y-113577800D01*
X152588410Y-113577798D01*
X152584359Y-113574598D01*
X152388789Y-113466638D01*
X152383920Y-113464914D01*
X152383916Y-113464912D01*
X152183087Y-113393795D01*
X152183083Y-113393794D01*
X152178212Y-113392069D01*
X152173119Y-113391162D01*
X152173116Y-113391161D01*
X151963373Y-113353800D01*
X151963367Y-113353799D01*
X151958284Y-113352894D01*
X151884452Y-113351992D01*
X151740081Y-113350228D01*
X151740079Y-113350228D01*
X151734911Y-113350165D01*
X151514091Y-113383955D01*
X151301756Y-113453357D01*
X151103607Y-113556507D01*
X151099474Y-113559610D01*
X151099471Y-113559612D01*
X151002877Y-113632137D01*
X150924965Y-113690635D01*
X150897918Y-113718938D01*
X150831280Y-113788671D01*
X150770629Y-113852138D01*
X150663201Y-114009621D01*
X150608293Y-114054621D01*
X150537768Y-114062792D01*
X150474021Y-114031538D01*
X150453324Y-114007054D01*
X150372822Y-113882617D01*
X150372820Y-113882614D01*
X150370014Y-113878277D01*
X150219670Y-113713051D01*
X150215619Y-113709852D01*
X150215615Y-113709848D01*
X150048414Y-113577800D01*
X150048410Y-113577798D01*
X150044359Y-113574598D01*
X149848789Y-113466638D01*
X149843920Y-113464914D01*
X149843916Y-113464912D01*
X149643087Y-113393795D01*
X149643083Y-113393794D01*
X149638212Y-113392069D01*
X149633119Y-113391162D01*
X149633116Y-113391161D01*
X149423373Y-113353800D01*
X149423367Y-113353799D01*
X149418284Y-113352894D01*
X149344452Y-113351992D01*
X149200081Y-113350228D01*
X149200079Y-113350228D01*
X149194911Y-113350165D01*
X148974091Y-113383955D01*
X148761756Y-113453357D01*
X148563607Y-113556507D01*
X148559474Y-113559610D01*
X148559471Y-113559612D01*
X148462877Y-113632137D01*
X148384965Y-113690635D01*
X148357918Y-113718938D01*
X148291280Y-113788671D01*
X148230629Y-113852138D01*
X148123201Y-114009621D01*
X148068293Y-114054621D01*
X147997768Y-114062792D01*
X147934021Y-114031538D01*
X147913324Y-114007054D01*
X147832822Y-113882617D01*
X147832820Y-113882614D01*
X147830014Y-113878277D01*
X147679670Y-113713051D01*
X147675619Y-113709852D01*
X147675615Y-113709848D01*
X147508414Y-113577800D01*
X147508410Y-113577798D01*
X147504359Y-113574598D01*
X147308789Y-113466638D01*
X147303920Y-113464914D01*
X147303916Y-113464912D01*
X147103087Y-113393795D01*
X147103083Y-113393794D01*
X147098212Y-113392069D01*
X147093119Y-113391162D01*
X147093116Y-113391161D01*
X146883373Y-113353800D01*
X146883367Y-113353799D01*
X146878284Y-113352894D01*
X146804452Y-113351992D01*
X146660081Y-113350228D01*
X146660079Y-113350228D01*
X146654911Y-113350165D01*
X146434091Y-113383955D01*
X146221756Y-113453357D01*
X146023607Y-113556507D01*
X146019474Y-113559610D01*
X146019471Y-113559612D01*
X145922877Y-113632137D01*
X145844965Y-113690635D01*
X145817918Y-113718938D01*
X145751280Y-113788671D01*
X145690629Y-113852138D01*
X145583201Y-114009621D01*
X145528293Y-114054621D01*
X145457768Y-114062792D01*
X145394021Y-114031538D01*
X145373324Y-114007054D01*
X145292822Y-113882617D01*
X145292820Y-113882614D01*
X145290014Y-113878277D01*
X145139670Y-113713051D01*
X145135619Y-113709852D01*
X145135615Y-113709848D01*
X144968414Y-113577800D01*
X144968410Y-113577798D01*
X144964359Y-113574598D01*
X144768789Y-113466638D01*
X144763920Y-113464914D01*
X144763916Y-113464912D01*
X144563087Y-113393795D01*
X144563083Y-113393794D01*
X144558212Y-113392069D01*
X144553119Y-113391162D01*
X144553116Y-113391161D01*
X144343373Y-113353800D01*
X144343367Y-113353799D01*
X144338284Y-113352894D01*
X144264452Y-113351992D01*
X144120081Y-113350228D01*
X144120079Y-113350228D01*
X144114911Y-113350165D01*
X143894091Y-113383955D01*
X143681756Y-113453357D01*
X143483607Y-113556507D01*
X143479474Y-113559610D01*
X143479471Y-113559612D01*
X143382877Y-113632137D01*
X143304965Y-113690635D01*
X143277918Y-113718938D01*
X143211280Y-113788671D01*
X143150629Y-113852138D01*
X143043201Y-114009621D01*
X142988293Y-114054621D01*
X142917768Y-114062792D01*
X142854021Y-114031538D01*
X142833324Y-114007054D01*
X142752822Y-113882617D01*
X142752820Y-113882614D01*
X142750014Y-113878277D01*
X142599670Y-113713051D01*
X142595619Y-113709852D01*
X142595615Y-113709848D01*
X142428414Y-113577800D01*
X142428410Y-113577798D01*
X142424359Y-113574598D01*
X142228789Y-113466638D01*
X142223920Y-113464914D01*
X142223916Y-113464912D01*
X142023087Y-113393795D01*
X142023083Y-113393794D01*
X142018212Y-113392069D01*
X142013119Y-113391162D01*
X142013116Y-113391161D01*
X141803373Y-113353800D01*
X141803367Y-113353799D01*
X141798284Y-113352894D01*
X141724452Y-113351992D01*
X141580081Y-113350228D01*
X141580079Y-113350228D01*
X141574911Y-113350165D01*
X141354091Y-113383955D01*
X141141756Y-113453357D01*
X140943607Y-113556507D01*
X140939474Y-113559610D01*
X140939471Y-113559612D01*
X140842877Y-113632137D01*
X140764965Y-113690635D01*
X140737918Y-113718938D01*
X140671280Y-113788671D01*
X140610629Y-113852138D01*
X140503201Y-114009621D01*
X140448293Y-114054621D01*
X140377768Y-114062792D01*
X140314021Y-114031538D01*
X140293324Y-114007054D01*
X140212822Y-113882617D01*
X140212820Y-113882614D01*
X140210014Y-113878277D01*
X140059670Y-113713051D01*
X140055619Y-113709852D01*
X140055615Y-113709848D01*
X139888414Y-113577800D01*
X139888410Y-113577798D01*
X139884359Y-113574598D01*
X139688789Y-113466638D01*
X139683920Y-113464914D01*
X139683916Y-113464912D01*
X139483087Y-113393795D01*
X139483083Y-113393794D01*
X139478212Y-113392069D01*
X139473119Y-113391162D01*
X139473116Y-113391161D01*
X139263373Y-113353800D01*
X139263367Y-113353799D01*
X139258284Y-113352894D01*
X139184452Y-113351992D01*
X139040081Y-113350228D01*
X139040079Y-113350228D01*
X139034911Y-113350165D01*
X138814091Y-113383955D01*
X138601756Y-113453357D01*
X138403607Y-113556507D01*
X138399474Y-113559610D01*
X138399471Y-113559612D01*
X138302877Y-113632137D01*
X138224965Y-113690635D01*
X138197918Y-113718938D01*
X138131280Y-113788671D01*
X138070629Y-113852138D01*
X137963201Y-114009621D01*
X137908293Y-114054621D01*
X137837768Y-114062792D01*
X137774021Y-114031538D01*
X137753324Y-114007054D01*
X137672822Y-113882617D01*
X137672820Y-113882614D01*
X137670014Y-113878277D01*
X137519670Y-113713051D01*
X137515619Y-113709852D01*
X137515615Y-113709848D01*
X137348414Y-113577800D01*
X137348410Y-113577798D01*
X137344359Y-113574598D01*
X137148789Y-113466638D01*
X137143920Y-113464914D01*
X137143916Y-113464912D01*
X136943087Y-113393795D01*
X136943083Y-113393794D01*
X136938212Y-113392069D01*
X136933119Y-113391162D01*
X136933116Y-113391161D01*
X136723373Y-113353800D01*
X136723367Y-113353799D01*
X136718284Y-113352894D01*
X136644452Y-113351992D01*
X136500081Y-113350228D01*
X136500079Y-113350228D01*
X136494911Y-113350165D01*
X136274091Y-113383955D01*
X136061756Y-113453357D01*
X135863607Y-113556507D01*
X135859474Y-113559610D01*
X135859471Y-113559612D01*
X135762877Y-113632137D01*
X135684965Y-113690635D01*
X135657918Y-113718938D01*
X135591280Y-113788671D01*
X135530629Y-113852138D01*
X135527720Y-113856403D01*
X135527714Y-113856411D01*
X135522372Y-113864242D01*
X135404743Y-114036680D01*
X135383743Y-114081921D01*
X135317515Y-114224598D01*
X135310688Y-114239305D01*
X135250989Y-114454570D01*
X135227251Y-114676695D01*
X135227548Y-114681848D01*
X135227548Y-114681851D01*
X135228097Y-114691375D01*
X135240110Y-114899715D01*
X135241247Y-114904761D01*
X135241248Y-114904767D01*
X135260633Y-114990780D01*
X135289222Y-115117639D01*
X135373266Y-115324616D01*
X135410685Y-115385678D01*
X135487291Y-115510688D01*
X135489987Y-115515088D01*
X135636250Y-115683938D01*
X135808126Y-115826632D01*
X135859850Y-115856857D01*
X135881445Y-115869476D01*
X135930169Y-115921114D01*
X135943240Y-115990897D01*
X135916509Y-116056669D01*
X135876055Y-116090027D01*
X135863607Y-116096507D01*
X135859474Y-116099610D01*
X135859471Y-116099612D01*
X135689100Y-116227530D01*
X135684965Y-116230635D01*
X135530629Y-116392138D01*
X135527720Y-116396403D01*
X135527714Y-116396411D01*
X135479903Y-116466500D01*
X135404743Y-116576680D01*
X135383743Y-116621921D01*
X135317515Y-116764598D01*
X135310688Y-116779305D01*
X135250989Y-116994570D01*
X135227251Y-117216695D01*
X129133500Y-117216695D01*
X129133500Y-116926866D01*
X129126745Y-116864684D01*
X129075615Y-116728295D01*
X128988261Y-116611739D01*
X128871705Y-116524385D01*
X128858610Y-116519476D01*
X128753203Y-116479960D01*
X128696439Y-116437318D01*
X128671739Y-116370756D01*
X128686947Y-116301408D01*
X128708493Y-116272727D01*
X128724034Y-116257240D01*
X128813096Y-116168489D01*
X128851821Y-116114598D01*
X128940435Y-115991277D01*
X128943453Y-115987077D01*
X128950784Y-115972245D01*
X129040136Y-115791453D01*
X129040137Y-115791451D01*
X129042430Y-115786811D01*
X129096331Y-115609404D01*
X129105865Y-115578023D01*
X129105865Y-115578021D01*
X129107370Y-115573069D01*
X129136529Y-115351590D01*
X129136611Y-115348240D01*
X129138074Y-115288365D01*
X129138074Y-115288361D01*
X129138156Y-115285000D01*
X129119852Y-115062361D01*
X129065431Y-114845702D01*
X128976354Y-114640840D01*
X128903534Y-114528277D01*
X128857822Y-114457617D01*
X128857820Y-114457614D01*
X128855014Y-114453277D01*
X128704670Y-114288051D01*
X128700619Y-114284852D01*
X128700615Y-114284848D01*
X128533414Y-114152800D01*
X128533410Y-114152798D01*
X128529359Y-114149598D01*
X128488053Y-114126796D01*
X128438084Y-114076364D01*
X128423312Y-114006921D01*
X128448428Y-113940516D01*
X128475780Y-113913909D01*
X128531090Y-113874457D01*
X128654860Y-113786173D01*
X128813096Y-113628489D01*
X128851821Y-113574598D01*
X128940435Y-113451277D01*
X128943453Y-113447077D01*
X128951978Y-113429829D01*
X129040136Y-113251453D01*
X129040137Y-113251451D01*
X129042430Y-113246811D01*
X129107370Y-113033069D01*
X129136529Y-112811590D01*
X129138156Y-112745000D01*
X129119852Y-112522361D01*
X129065431Y-112305702D01*
X128976354Y-112100840D01*
X128903534Y-111988277D01*
X128857822Y-111917617D01*
X128857820Y-111917614D01*
X128855014Y-111913277D01*
X128704670Y-111748051D01*
X128700619Y-111744852D01*
X128700615Y-111744848D01*
X128533414Y-111612800D01*
X128533410Y-111612798D01*
X128529359Y-111609598D01*
X128488053Y-111586796D01*
X128438084Y-111536364D01*
X128423312Y-111466921D01*
X128448428Y-111400516D01*
X128475780Y-111373909D01*
X128535619Y-111331226D01*
X128654860Y-111246173D01*
X128813096Y-111088489D01*
X128872594Y-111005689D01*
X128940435Y-110911277D01*
X128943453Y-110907077D01*
X128951978Y-110889829D01*
X128996374Y-110800000D01*
X153386496Y-110800000D01*
X153387186Y-110806565D01*
X153398192Y-110911277D01*
X153406458Y-110989928D01*
X153465473Y-111171556D01*
X153560960Y-111336944D01*
X153565378Y-111341851D01*
X153565379Y-111341852D01*
X153663563Y-111450896D01*
X153688747Y-111478866D01*
X153705605Y-111491114D01*
X153837301Y-111586797D01*
X153843248Y-111591118D01*
X153849276Y-111593802D01*
X153849278Y-111593803D01*
X153923097Y-111626669D01*
X154017712Y-111668794D01*
X154092064Y-111684598D01*
X154198056Y-111707128D01*
X154198061Y-111707128D01*
X154204513Y-111708500D01*
X154395487Y-111708500D01*
X154401939Y-111707128D01*
X154401944Y-111707128D01*
X154507936Y-111684598D01*
X154582288Y-111668794D01*
X154676903Y-111626669D01*
X154750722Y-111593803D01*
X154750724Y-111593802D01*
X154756752Y-111591118D01*
X154762700Y-111586797D01*
X154894395Y-111491114D01*
X154911253Y-111478866D01*
X154936437Y-111450896D01*
X155034621Y-111341852D01*
X155034622Y-111341851D01*
X155039040Y-111336944D01*
X155134527Y-111171556D01*
X155193542Y-110989928D01*
X155201809Y-110911277D01*
X155212814Y-110806565D01*
X155213504Y-110800000D01*
X155211072Y-110776857D01*
X155194232Y-110616635D01*
X155194232Y-110616633D01*
X155193542Y-110610072D01*
X155134527Y-110428444D01*
X155039040Y-110263056D01*
X154911253Y-110121134D01*
X154774604Y-110021852D01*
X154762094Y-110012763D01*
X154762093Y-110012762D01*
X154756752Y-110008882D01*
X154750724Y-110006198D01*
X154750722Y-110006197D01*
X154588319Y-109933891D01*
X154588318Y-109933891D01*
X154582288Y-109931206D01*
X154488888Y-109911353D01*
X154401944Y-109892872D01*
X154401939Y-109892872D01*
X154395487Y-109891500D01*
X154204513Y-109891500D01*
X154198061Y-109892872D01*
X154198056Y-109892872D01*
X154111113Y-109911353D01*
X154017712Y-109931206D01*
X154011682Y-109933891D01*
X154011681Y-109933891D01*
X153849278Y-110006197D01*
X153849276Y-110006198D01*
X153843248Y-110008882D01*
X153837907Y-110012762D01*
X153837906Y-110012763D01*
X153825396Y-110021852D01*
X153688747Y-110121134D01*
X153560960Y-110263056D01*
X153465473Y-110428444D01*
X153406458Y-110610072D01*
X153405768Y-110616633D01*
X153405768Y-110616635D01*
X153388928Y-110776857D01*
X153386496Y-110800000D01*
X128996374Y-110800000D01*
X129040136Y-110711453D01*
X129040137Y-110711451D01*
X129042430Y-110706811D01*
X129107370Y-110493069D01*
X129136529Y-110271590D01*
X129136611Y-110268240D01*
X129138074Y-110208365D01*
X129138074Y-110208361D01*
X129138156Y-110205000D01*
X129119852Y-109982361D01*
X129065431Y-109765702D01*
X128976354Y-109560840D01*
X128903534Y-109448277D01*
X128857822Y-109377617D01*
X128857820Y-109377614D01*
X128855014Y-109373277D01*
X128704670Y-109208051D01*
X128700619Y-109204852D01*
X128700615Y-109204848D01*
X128533414Y-109072800D01*
X128533410Y-109072798D01*
X128529359Y-109069598D01*
X128488053Y-109046796D01*
X128438084Y-108996364D01*
X128423312Y-108926921D01*
X128448428Y-108860516D01*
X128475780Y-108833909D01*
X128527173Y-108797251D01*
X128654860Y-108706173D01*
X128813096Y-108548489D01*
X128872594Y-108465689D01*
X128940435Y-108371277D01*
X128943453Y-108367077D01*
X128951978Y-108349829D01*
X129026027Y-108200000D01*
X145586496Y-108200000D01*
X145587186Y-108206565D01*
X145602747Y-108354616D01*
X145606458Y-108389928D01*
X145665473Y-108571556D01*
X145760960Y-108736944D01*
X145765378Y-108741851D01*
X145765379Y-108741852D01*
X145884325Y-108873955D01*
X145888747Y-108878866D01*
X145954889Y-108926921D01*
X146013271Y-108969338D01*
X146043248Y-108991118D01*
X146049276Y-108993802D01*
X146049278Y-108993803D01*
X146211681Y-109066109D01*
X146217712Y-109068794D01*
X146301807Y-109086669D01*
X146398056Y-109107128D01*
X146398061Y-109107128D01*
X146404513Y-109108500D01*
X146595487Y-109108500D01*
X146601939Y-109107128D01*
X146601944Y-109107128D01*
X146698193Y-109086669D01*
X146782288Y-109068794D01*
X146788319Y-109066109D01*
X146950722Y-108993803D01*
X146950724Y-108993802D01*
X146956752Y-108991118D01*
X146986730Y-108969338D01*
X147045111Y-108926921D01*
X147111253Y-108878866D01*
X147115675Y-108873955D01*
X147173260Y-108810000D01*
X148476496Y-108810000D01*
X148477186Y-108816565D01*
X148492434Y-108961638D01*
X148496458Y-108999928D01*
X148555473Y-109181556D01*
X148650960Y-109346944D01*
X148655378Y-109351851D01*
X148655379Y-109351852D01*
X148746108Y-109452617D01*
X148778747Y-109488866D01*
X148933248Y-109601118D01*
X148939276Y-109603802D01*
X148939278Y-109603803D01*
X149101681Y-109676109D01*
X149107712Y-109678794D01*
X149201113Y-109698647D01*
X149288056Y-109717128D01*
X149288061Y-109717128D01*
X149294513Y-109718500D01*
X149485487Y-109718500D01*
X149491946Y-109717127D01*
X149491947Y-109717127D01*
X149502435Y-109714898D01*
X149573226Y-109720301D01*
X149629858Y-109763118D01*
X149648464Y-109799209D01*
X149660404Y-109835954D01*
X149665473Y-109851556D01*
X149760960Y-110016944D01*
X149765378Y-110021851D01*
X149765379Y-110021852D01*
X149851277Y-110117251D01*
X149888747Y-110158866D01*
X149952245Y-110205000D01*
X150032152Y-110263056D01*
X150043248Y-110271118D01*
X150049276Y-110273802D01*
X150049278Y-110273803D01*
X150055664Y-110276646D01*
X150217712Y-110348794D01*
X150311113Y-110368647D01*
X150398056Y-110387128D01*
X150398061Y-110387128D01*
X150404513Y-110388500D01*
X150595487Y-110388500D01*
X150601939Y-110387128D01*
X150601944Y-110387128D01*
X150688887Y-110368647D01*
X150782288Y-110348794D01*
X150944336Y-110276646D01*
X150950722Y-110273803D01*
X150950724Y-110273802D01*
X150956752Y-110271118D01*
X150967849Y-110263056D01*
X151047755Y-110205000D01*
X151111253Y-110158866D01*
X151148723Y-110117251D01*
X151234621Y-110021852D01*
X151234622Y-110021851D01*
X151239040Y-110016944D01*
X151334527Y-109851556D01*
X151393542Y-109669928D01*
X151405008Y-109560840D01*
X151412814Y-109486565D01*
X151413504Y-109480000D01*
X151399540Y-109347138D01*
X151394232Y-109296635D01*
X151394232Y-109296633D01*
X151393542Y-109290072D01*
X151334527Y-109108444D01*
X151239040Y-108943056D01*
X151233405Y-108936797D01*
X151115675Y-108806045D01*
X151115674Y-108806044D01*
X151111253Y-108801134D01*
X150995783Y-108717240D01*
X150962094Y-108692763D01*
X150962093Y-108692762D01*
X150956752Y-108688882D01*
X150950724Y-108686198D01*
X150950722Y-108686197D01*
X150788319Y-108613891D01*
X150788318Y-108613891D01*
X150782288Y-108611206D01*
X150688888Y-108591353D01*
X150601944Y-108572872D01*
X150601939Y-108572872D01*
X150595487Y-108571500D01*
X150404513Y-108571500D01*
X150398054Y-108572873D01*
X150398053Y-108572873D01*
X150387565Y-108575102D01*
X150316774Y-108569699D01*
X150260142Y-108526882D01*
X150241536Y-108490791D01*
X150226569Y-108444728D01*
X150226568Y-108444727D01*
X150224527Y-108438444D01*
X150129040Y-108273056D01*
X150020424Y-108152425D01*
X150005675Y-108136045D01*
X150005674Y-108136044D01*
X150001253Y-108131134D01*
X149902157Y-108059136D01*
X149852094Y-108022763D01*
X149852093Y-108022762D01*
X149846752Y-108018882D01*
X149840724Y-108016198D01*
X149840722Y-108016197D01*
X149678319Y-107943891D01*
X149678318Y-107943891D01*
X149672288Y-107941206D01*
X149578888Y-107921353D01*
X149491944Y-107902872D01*
X149491939Y-107902872D01*
X149485487Y-107901500D01*
X149294513Y-107901500D01*
X149288061Y-107902872D01*
X149288056Y-107902872D01*
X149201113Y-107921353D01*
X149107712Y-107941206D01*
X149101682Y-107943891D01*
X149101681Y-107943891D01*
X148939278Y-108016197D01*
X148939276Y-108016198D01*
X148933248Y-108018882D01*
X148927907Y-108022762D01*
X148927906Y-108022763D01*
X148877843Y-108059136D01*
X148778747Y-108131134D01*
X148774326Y-108136044D01*
X148774325Y-108136045D01*
X148759577Y-108152425D01*
X148650960Y-108273056D01*
X148555473Y-108438444D01*
X148496458Y-108620072D01*
X148495768Y-108626633D01*
X148495768Y-108626635D01*
X148479909Y-108777529D01*
X148476496Y-108810000D01*
X147173260Y-108810000D01*
X147234621Y-108741852D01*
X147234622Y-108741851D01*
X147239040Y-108736944D01*
X147334527Y-108571556D01*
X147393542Y-108389928D01*
X147397254Y-108354616D01*
X147412814Y-108206565D01*
X147413504Y-108200000D01*
X147395434Y-108028069D01*
X147394232Y-108016635D01*
X147394232Y-108016633D01*
X147393542Y-108010072D01*
X147334527Y-107828444D01*
X147319976Y-107803240D01*
X147297314Y-107763990D01*
X147239040Y-107663056D01*
X147210803Y-107631695D01*
X147115675Y-107526045D01*
X147115674Y-107526044D01*
X147111253Y-107521134D01*
X146995924Y-107437342D01*
X146962094Y-107412763D01*
X146962093Y-107412762D01*
X146956752Y-107408882D01*
X146950724Y-107406198D01*
X146950722Y-107406197D01*
X146788319Y-107333891D01*
X146788318Y-107333891D01*
X146782288Y-107331206D01*
X146688888Y-107311353D01*
X146601944Y-107292872D01*
X146601939Y-107292872D01*
X146595487Y-107291500D01*
X146404513Y-107291500D01*
X146398061Y-107292872D01*
X146398056Y-107292872D01*
X146311112Y-107311353D01*
X146217712Y-107331206D01*
X146211682Y-107333891D01*
X146211681Y-107333891D01*
X146049278Y-107406197D01*
X146049276Y-107406198D01*
X146043248Y-107408882D01*
X146037907Y-107412762D01*
X146037906Y-107412763D01*
X146004076Y-107437342D01*
X145888747Y-107521134D01*
X145884326Y-107526044D01*
X145884325Y-107526045D01*
X145789198Y-107631695D01*
X145760960Y-107663056D01*
X145702686Y-107763990D01*
X145680025Y-107803240D01*
X145665473Y-107828444D01*
X145606458Y-108010072D01*
X145605768Y-108016633D01*
X145605768Y-108016635D01*
X145604566Y-108028069D01*
X145586496Y-108200000D01*
X129026027Y-108200000D01*
X129040136Y-108171453D01*
X129040137Y-108171451D01*
X129042430Y-108166811D01*
X129107370Y-107953069D01*
X129136529Y-107731590D01*
X129138156Y-107665000D01*
X129119852Y-107442361D01*
X129065431Y-107225702D01*
X128976354Y-107020840D01*
X128855014Y-106833277D01*
X128704670Y-106668051D01*
X128700619Y-106664852D01*
X128700615Y-106664848D01*
X128533414Y-106532800D01*
X128533410Y-106532798D01*
X128529359Y-106529598D01*
X128488053Y-106506796D01*
X128438084Y-106456364D01*
X128423312Y-106386921D01*
X128448428Y-106320516D01*
X128475780Y-106293909D01*
X128519603Y-106262650D01*
X128654860Y-106166173D01*
X128813096Y-106008489D01*
X128872594Y-105925689D01*
X128940435Y-105831277D01*
X128943453Y-105827077D01*
X129014233Y-105683865D01*
X129040136Y-105631453D01*
X129040137Y-105631451D01*
X129042430Y-105626811D01*
X129080806Y-105500500D01*
X145716496Y-105500500D01*
X145717186Y-105507065D01*
X145730260Y-105631453D01*
X145736458Y-105690428D01*
X145795473Y-105872056D01*
X145890960Y-106037444D01*
X145895378Y-106042351D01*
X145895379Y-106042352D01*
X145994521Y-106152460D01*
X146018747Y-106179366D01*
X146173248Y-106291618D01*
X146179276Y-106294302D01*
X146179278Y-106294303D01*
X146238154Y-106320516D01*
X146347712Y-106369294D01*
X146430640Y-106386921D01*
X146528056Y-106407628D01*
X146528061Y-106407628D01*
X146534513Y-106409000D01*
X146725487Y-106409000D01*
X146731939Y-106407628D01*
X146731944Y-106407628D01*
X146829360Y-106386921D01*
X146912288Y-106369294D01*
X147021846Y-106320516D01*
X147080722Y-106294303D01*
X147080724Y-106294302D01*
X147086752Y-106291618D01*
X147241253Y-106179366D01*
X147265479Y-106152460D01*
X147364621Y-106042352D01*
X147364622Y-106042351D01*
X147369040Y-106037444D01*
X147464527Y-105872056D01*
X147523542Y-105690428D01*
X147529741Y-105631453D01*
X147542814Y-105507065D01*
X147543504Y-105500500D01*
X147542814Y-105493935D01*
X147524232Y-105317135D01*
X147524232Y-105317133D01*
X147523542Y-105310572D01*
X147464527Y-105128944D01*
X147460314Y-105121646D01*
X147372341Y-104969274D01*
X147369040Y-104963556D01*
X147241253Y-104821634D01*
X147086752Y-104709382D01*
X147080724Y-104706698D01*
X147080722Y-104706697D01*
X146918319Y-104634391D01*
X146918318Y-104634391D01*
X146912288Y-104631706D01*
X146818888Y-104611853D01*
X146731944Y-104593372D01*
X146731939Y-104593372D01*
X146725487Y-104592000D01*
X146534513Y-104592000D01*
X146528061Y-104593372D01*
X146528056Y-104593372D01*
X146441113Y-104611853D01*
X146347712Y-104631706D01*
X146341682Y-104634391D01*
X146341681Y-104634391D01*
X146179278Y-104706697D01*
X146179276Y-104706698D01*
X146173248Y-104709382D01*
X146018747Y-104821634D01*
X145890960Y-104963556D01*
X145887659Y-104969274D01*
X145799687Y-105121646D01*
X145795473Y-105128944D01*
X145736458Y-105310572D01*
X145735768Y-105317133D01*
X145735768Y-105317135D01*
X145717186Y-105493935D01*
X145716496Y-105500500D01*
X129080806Y-105500500D01*
X129107370Y-105413069D01*
X129136529Y-105191590D01*
X129138156Y-105125000D01*
X129119852Y-104902361D01*
X129065431Y-104685702D01*
X128976354Y-104480840D01*
X128862781Y-104305283D01*
X128857822Y-104297617D01*
X128857820Y-104297614D01*
X128855014Y-104293277D01*
X128704670Y-104128051D01*
X128700619Y-104124852D01*
X128700615Y-104124848D01*
X128533414Y-103992800D01*
X128533410Y-103992798D01*
X128529359Y-103989598D01*
X128333789Y-103881638D01*
X128328920Y-103879914D01*
X128328916Y-103879912D01*
X128128087Y-103808795D01*
X128128083Y-103808794D01*
X128123212Y-103807069D01*
X128118119Y-103806162D01*
X128118116Y-103806161D01*
X127908373Y-103768800D01*
X127908367Y-103768799D01*
X127903284Y-103767894D01*
X127829452Y-103766992D01*
X127685081Y-103765228D01*
X127685079Y-103765228D01*
X127679911Y-103765165D01*
X127459091Y-103798955D01*
X127246756Y-103868357D01*
X127048607Y-103971507D01*
X127044474Y-103974610D01*
X127044471Y-103974612D01*
X126889156Y-104091226D01*
X126869965Y-104105635D01*
X126715629Y-104267138D01*
X126589743Y-104451680D01*
X126574003Y-104485590D01*
X126504932Y-104634391D01*
X126495688Y-104654305D01*
X126435989Y-104869570D01*
X126412251Y-105091695D01*
X126412548Y-105096848D01*
X126412548Y-105096851D01*
X126418011Y-105191590D01*
X126425110Y-105314715D01*
X126426247Y-105319761D01*
X126426248Y-105319767D01*
X126446119Y-105407939D01*
X126474222Y-105532639D01*
X126558266Y-105739616D01*
X126674987Y-105930088D01*
X126821250Y-106098938D01*
X126993126Y-106241632D01*
X127063595Y-106282811D01*
X127066445Y-106284476D01*
X127115169Y-106336114D01*
X127128240Y-106405897D01*
X127101509Y-106471669D01*
X127061055Y-106505027D01*
X127048607Y-106511507D01*
X127044474Y-106514610D01*
X127044471Y-106514612D01*
X126987516Y-106557375D01*
X126869965Y-106645635D01*
X126866393Y-106649373D01*
X126773588Y-106746488D01*
X126715629Y-106807138D01*
X126589743Y-106991680D01*
X126495688Y-107194305D01*
X126435989Y-107409570D01*
X126412251Y-107631695D01*
X126412548Y-107636848D01*
X126412548Y-107636851D01*
X126418011Y-107731590D01*
X126425110Y-107854715D01*
X126426247Y-107859761D01*
X126426248Y-107859767D01*
X126442012Y-107929715D01*
X126474222Y-108072639D01*
X126512461Y-108166811D01*
X126540904Y-108236857D01*
X126558266Y-108279616D01*
X126560965Y-108284020D01*
X126660396Y-108446277D01*
X126674987Y-108470088D01*
X126821250Y-108638938D01*
X126993126Y-108781632D01*
X127019855Y-108797251D01*
X127066445Y-108824476D01*
X127115169Y-108876114D01*
X127128240Y-108945897D01*
X127101509Y-109011669D01*
X127061055Y-109045027D01*
X127048607Y-109051507D01*
X127044474Y-109054610D01*
X127044471Y-109054612D01*
X126874100Y-109182530D01*
X126869965Y-109185635D01*
X126866393Y-109189373D01*
X126721279Y-109341226D01*
X126715629Y-109347138D01*
X126589743Y-109531680D01*
X126574003Y-109565590D01*
X126503662Y-109717127D01*
X126495688Y-109734305D01*
X126435989Y-109949570D01*
X126412251Y-110171695D01*
X126412548Y-110176848D01*
X126412548Y-110176851D01*
X126418011Y-110271590D01*
X126425110Y-110394715D01*
X126426247Y-110399761D01*
X126426248Y-110399767D01*
X126442012Y-110469715D01*
X126474222Y-110612639D01*
X126512461Y-110706811D01*
X126552967Y-110806565D01*
X126558266Y-110819616D01*
X126560965Y-110824020D01*
X126660396Y-110986277D01*
X126674987Y-111010088D01*
X126821250Y-111178938D01*
X126993126Y-111321632D01*
X127027729Y-111341852D01*
X127066445Y-111364476D01*
X127115169Y-111416114D01*
X127128240Y-111485897D01*
X127101509Y-111551669D01*
X127061055Y-111585027D01*
X127056810Y-111587237D01*
X127048607Y-111591507D01*
X127044474Y-111594610D01*
X127044471Y-111594612D01*
X126874100Y-111722530D01*
X126869965Y-111725635D01*
X126715629Y-111887138D01*
X126589743Y-112071680D01*
X126495688Y-112274305D01*
X126435989Y-112489570D01*
X126412251Y-112711695D01*
X126412548Y-112716848D01*
X126412548Y-112716851D01*
X126418011Y-112811590D01*
X126425110Y-112934715D01*
X126426247Y-112939761D01*
X126426248Y-112939767D01*
X126442012Y-113009715D01*
X126474222Y-113152639D01*
X126512461Y-113246811D01*
X126540904Y-113316857D01*
X126558266Y-113359616D01*
X126560965Y-113364020D01*
X126660396Y-113526277D01*
X126674987Y-113550088D01*
X126821250Y-113718938D01*
X126993126Y-113861632D01*
X127021611Y-113878277D01*
X127066445Y-113904476D01*
X127115169Y-113956114D01*
X127128240Y-114025897D01*
X127101509Y-114091669D01*
X127061055Y-114125027D01*
X127048607Y-114131507D01*
X127044474Y-114134610D01*
X127044471Y-114134612D01*
X126874100Y-114262530D01*
X126869965Y-114265635D01*
X126715629Y-114427138D01*
X126589743Y-114611680D01*
X126495688Y-114814305D01*
X126435989Y-115029570D01*
X126412251Y-115251695D01*
X122491115Y-115251695D01*
X122432704Y-115215901D01*
X122423387Y-115211811D01*
X122185873Y-115107549D01*
X122185869Y-115107548D01*
X122181945Y-115105825D01*
X121918566Y-115030800D01*
X121914324Y-115030196D01*
X121914318Y-115030195D01*
X121713834Y-115001662D01*
X121647443Y-114992213D01*
X121503589Y-114991460D01*
X121377877Y-114990802D01*
X121377871Y-114990802D01*
X121373591Y-114990780D01*
X121369347Y-114991339D01*
X121369343Y-114991339D01*
X121250302Y-115007011D01*
X121102078Y-115026525D01*
X121097938Y-115027658D01*
X121097936Y-115027658D01*
X121025008Y-115047609D01*
X120837928Y-115098788D01*
X120833980Y-115100472D01*
X120589982Y-115204546D01*
X120589978Y-115204548D01*
X120586030Y-115206232D01*
X120467414Y-115277222D01*
X120354725Y-115344664D01*
X120354721Y-115344667D01*
X120351043Y-115346868D01*
X120137318Y-115518094D01*
X120069754Y-115589292D01*
X119975760Y-115688341D01*
X119948808Y-115716742D01*
X119789002Y-115939136D01*
X119660857Y-116181161D01*
X119659385Y-116185184D01*
X119659383Y-116185188D01*
X119582210Y-116396071D01*
X119566743Y-116438337D01*
X119508404Y-116705907D01*
X119486917Y-116978918D01*
X119008500Y-116978918D01*
X119008500Y-103560000D01*
X147156496Y-103560000D01*
X147176458Y-103749928D01*
X147235473Y-103931556D01*
X147330960Y-104096944D01*
X147335378Y-104101851D01*
X147335379Y-104101852D01*
X147336678Y-104103295D01*
X147458747Y-104238866D01*
X147613248Y-104351118D01*
X147619276Y-104353802D01*
X147619278Y-104353803D01*
X147781681Y-104426109D01*
X147787712Y-104428794D01*
X147875251Y-104447401D01*
X147968056Y-104467128D01*
X147968061Y-104467128D01*
X147974513Y-104468500D01*
X148165487Y-104468500D01*
X148171939Y-104467128D01*
X148171944Y-104467128D01*
X148264749Y-104447401D01*
X148352288Y-104428794D01*
X148358319Y-104426109D01*
X148520722Y-104353803D01*
X148520724Y-104353802D01*
X148526752Y-104351118D01*
X148681253Y-104238866D01*
X148803322Y-104103295D01*
X148804621Y-104101852D01*
X148804622Y-104101851D01*
X148809040Y-104096944D01*
X148904527Y-103931556D01*
X148963542Y-103749928D01*
X148983504Y-103560000D01*
X148982814Y-103553435D01*
X148964232Y-103376635D01*
X148964232Y-103376633D01*
X148963542Y-103370072D01*
X148904527Y-103188444D01*
X148809040Y-103023056D01*
X148681253Y-102881134D01*
X148526752Y-102768882D01*
X148520724Y-102766198D01*
X148520722Y-102766197D01*
X148372040Y-102700000D01*
X154886496Y-102700000D01*
X154887186Y-102706565D01*
X154905126Y-102877251D01*
X154906458Y-102889928D01*
X154965473Y-103071556D01*
X155060960Y-103236944D01*
X155188747Y-103378866D01*
X155343248Y-103491118D01*
X155349276Y-103493802D01*
X155349278Y-103493803D01*
X155483215Y-103553435D01*
X155517712Y-103568794D01*
X155611112Y-103588647D01*
X155698056Y-103607128D01*
X155698061Y-103607128D01*
X155704513Y-103608500D01*
X155895487Y-103608500D01*
X155901939Y-103607128D01*
X155901944Y-103607128D01*
X155988888Y-103588647D01*
X156082288Y-103568794D01*
X156116785Y-103553435D01*
X156250722Y-103493803D01*
X156250724Y-103493802D01*
X156256752Y-103491118D01*
X156411253Y-103378866D01*
X156539040Y-103236944D01*
X156634527Y-103071556D01*
X156693542Y-102889928D01*
X156694875Y-102877251D01*
X156712814Y-102706565D01*
X156713504Y-102700000D01*
X156693542Y-102510072D01*
X156634527Y-102328444D01*
X156623402Y-102309174D01*
X156576978Y-102228767D01*
X156539040Y-102163056D01*
X156418238Y-102028891D01*
X156415675Y-102026045D01*
X156415674Y-102026044D01*
X156411253Y-102021134D01*
X156256752Y-101908882D01*
X156250724Y-101906198D01*
X156250722Y-101906197D01*
X156088319Y-101833891D01*
X156088318Y-101833891D01*
X156082288Y-101831206D01*
X155988888Y-101811353D01*
X155901944Y-101792872D01*
X155901939Y-101792872D01*
X155895487Y-101791500D01*
X155704513Y-101791500D01*
X155698061Y-101792872D01*
X155698056Y-101792872D01*
X155611112Y-101811353D01*
X155517712Y-101831206D01*
X155511682Y-101833891D01*
X155511681Y-101833891D01*
X155349278Y-101906197D01*
X155349276Y-101906198D01*
X155343248Y-101908882D01*
X155188747Y-102021134D01*
X155184326Y-102026044D01*
X155184325Y-102026045D01*
X155181763Y-102028891D01*
X155060960Y-102163056D01*
X155023022Y-102228767D01*
X154976599Y-102309174D01*
X154965473Y-102328444D01*
X154906458Y-102510072D01*
X154886496Y-102700000D01*
X148372040Y-102700000D01*
X148358319Y-102693891D01*
X148358318Y-102693891D01*
X148352288Y-102691206D01*
X148258887Y-102671353D01*
X148171944Y-102652872D01*
X148171939Y-102652872D01*
X148165487Y-102651500D01*
X147974513Y-102651500D01*
X147968061Y-102652872D01*
X147968056Y-102652872D01*
X147881113Y-102671353D01*
X147787712Y-102691206D01*
X147781682Y-102693891D01*
X147781681Y-102693891D01*
X147619278Y-102766197D01*
X147619276Y-102766198D01*
X147613248Y-102768882D01*
X147458747Y-102881134D01*
X147330960Y-103023056D01*
X147235473Y-103188444D01*
X147176458Y-103370072D01*
X147175768Y-103376633D01*
X147175768Y-103376635D01*
X147157186Y-103553435D01*
X147156496Y-103560000D01*
X119008500Y-103560000D01*
X119008500Y-98351695D01*
X126412251Y-98351695D01*
X126412548Y-98356848D01*
X126412548Y-98356851D01*
X126418011Y-98451590D01*
X126425110Y-98574715D01*
X126426247Y-98579761D01*
X126426248Y-98579767D01*
X126446119Y-98667939D01*
X126474222Y-98792639D01*
X126558266Y-98999616D01*
X126674987Y-99190088D01*
X126821250Y-99358938D01*
X126825230Y-99362242D01*
X126829981Y-99366187D01*
X126869616Y-99425090D01*
X126871113Y-99496071D01*
X126833997Y-99556593D01*
X126793724Y-99581112D01*
X126678295Y-99624385D01*
X126561739Y-99711739D01*
X126474385Y-99828295D01*
X126423255Y-99964684D01*
X126416500Y-100026866D01*
X126416500Y-101823134D01*
X126423255Y-101885316D01*
X126474385Y-102021705D01*
X126561739Y-102138261D01*
X126678295Y-102225615D01*
X126814684Y-102276745D01*
X126876866Y-102283500D01*
X128673134Y-102283500D01*
X128735316Y-102276745D01*
X128871705Y-102225615D01*
X128988261Y-102138261D01*
X129075615Y-102021705D01*
X129126745Y-101885316D01*
X129133500Y-101823134D01*
X129133500Y-101006695D01*
X162137251Y-101006695D01*
X162137548Y-101011848D01*
X162137548Y-101011851D01*
X162143011Y-101106590D01*
X162150110Y-101229715D01*
X162151247Y-101234761D01*
X162151248Y-101234767D01*
X162171119Y-101322939D01*
X162199222Y-101447639D01*
X162283266Y-101654616D01*
X162285965Y-101659020D01*
X162386534Y-101823134D01*
X162399987Y-101845088D01*
X162546250Y-102013938D01*
X162718126Y-102156632D01*
X162911000Y-102269338D01*
X162915825Y-102271180D01*
X162915826Y-102271181D01*
X162947120Y-102283131D01*
X163119692Y-102349030D01*
X163124760Y-102350061D01*
X163124763Y-102350062D01*
X163232017Y-102371883D01*
X163338597Y-102393567D01*
X163343772Y-102393757D01*
X163343774Y-102393757D01*
X163556673Y-102401564D01*
X163556677Y-102401564D01*
X163561837Y-102401753D01*
X163566957Y-102401097D01*
X163566959Y-102401097D01*
X163778288Y-102374025D01*
X163778289Y-102374025D01*
X163783416Y-102373368D01*
X163788366Y-102371883D01*
X163992429Y-102310661D01*
X163992434Y-102310659D01*
X163997384Y-102309174D01*
X164197994Y-102210896D01*
X164379860Y-102081173D01*
X164538096Y-101923489D01*
X164545804Y-101912763D01*
X164665435Y-101746277D01*
X164668453Y-101742077D01*
X164767430Y-101541811D01*
X164832370Y-101328069D01*
X164861529Y-101106590D01*
X164863156Y-101040000D01*
X164844852Y-100817361D01*
X164790431Y-100600702D01*
X164701354Y-100395840D01*
X164580014Y-100208277D01*
X164429670Y-100043051D01*
X164425619Y-100039852D01*
X164425615Y-100039848D01*
X164258414Y-99907800D01*
X164258410Y-99907798D01*
X164254359Y-99904598D01*
X164213053Y-99881796D01*
X164163084Y-99831364D01*
X164148312Y-99761921D01*
X164173428Y-99695516D01*
X164200780Y-99668909D01*
X164267619Y-99621233D01*
X164379860Y-99541173D01*
X164383729Y-99537318D01*
X164461209Y-99460107D01*
X164538096Y-99383489D01*
X164553364Y-99362242D01*
X164665435Y-99206277D01*
X164668453Y-99202077D01*
X164674379Y-99190088D01*
X164765136Y-99006453D01*
X164765137Y-99006451D01*
X164767430Y-99001811D01*
X164803875Y-98881857D01*
X164830865Y-98793023D01*
X164830865Y-98793021D01*
X164832370Y-98788069D01*
X164861529Y-98566590D01*
X164863156Y-98500000D01*
X164844852Y-98277361D01*
X164790431Y-98060702D01*
X164701354Y-97855840D01*
X164608093Y-97711680D01*
X164582822Y-97672617D01*
X164582820Y-97672614D01*
X164580014Y-97668277D01*
X164429670Y-97503051D01*
X164425619Y-97499852D01*
X164425615Y-97499848D01*
X164258414Y-97367800D01*
X164258410Y-97367798D01*
X164254359Y-97364598D01*
X164213053Y-97341796D01*
X164163084Y-97291364D01*
X164148312Y-97221921D01*
X164173428Y-97155516D01*
X164200780Y-97128909D01*
X164244603Y-97097650D01*
X164379860Y-97001173D01*
X164419540Y-96961632D01*
X164492254Y-96889171D01*
X164538096Y-96843489D01*
X164597594Y-96760689D01*
X164665435Y-96666277D01*
X164668453Y-96662077D01*
X164674379Y-96650088D01*
X164765136Y-96466453D01*
X164765137Y-96466451D01*
X164767430Y-96461811D01*
X164803875Y-96341857D01*
X164830865Y-96253023D01*
X164830865Y-96253021D01*
X164832370Y-96248069D01*
X164861529Y-96026590D01*
X164863156Y-95960000D01*
X164844852Y-95737361D01*
X164790431Y-95520702D01*
X164701354Y-95315840D01*
X164608093Y-95171680D01*
X164582822Y-95132617D01*
X164582820Y-95132614D01*
X164580014Y-95128277D01*
X164429670Y-94963051D01*
X164425619Y-94959852D01*
X164425615Y-94959848D01*
X164258414Y-94827800D01*
X164258410Y-94827798D01*
X164254359Y-94824598D01*
X164213053Y-94801796D01*
X164163084Y-94751364D01*
X164148312Y-94681921D01*
X164173428Y-94615516D01*
X164200780Y-94588909D01*
X164244603Y-94557650D01*
X164379860Y-94461173D01*
X164419540Y-94421632D01*
X164492254Y-94349171D01*
X164538096Y-94303489D01*
X164597594Y-94220689D01*
X164665435Y-94126277D01*
X164668453Y-94122077D01*
X164674379Y-94110088D01*
X164765136Y-93926453D01*
X164765137Y-93926451D01*
X164767430Y-93921811D01*
X164803875Y-93801857D01*
X164830865Y-93713023D01*
X164830865Y-93713021D01*
X164832370Y-93708069D01*
X164861529Y-93486590D01*
X164863156Y-93420000D01*
X164844852Y-93197361D01*
X164790431Y-92980702D01*
X164701354Y-92775840D01*
X164608093Y-92631680D01*
X164582822Y-92592617D01*
X164582820Y-92592614D01*
X164580014Y-92588277D01*
X164429670Y-92423051D01*
X164425619Y-92419852D01*
X164425615Y-92419848D01*
X164258414Y-92287800D01*
X164258410Y-92287798D01*
X164254359Y-92284598D01*
X164213053Y-92261796D01*
X164163084Y-92211364D01*
X164148312Y-92141921D01*
X164173428Y-92075516D01*
X164200780Y-92048909D01*
X164244603Y-92017650D01*
X164379860Y-91921173D01*
X164388006Y-91913056D01*
X164492254Y-91809171D01*
X164538096Y-91763489D01*
X164586444Y-91696206D01*
X164665435Y-91586277D01*
X164668453Y-91582077D01*
X164674379Y-91570088D01*
X164765136Y-91386453D01*
X164765137Y-91386451D01*
X164767430Y-91381811D01*
X164803875Y-91261857D01*
X164830865Y-91173023D01*
X164830865Y-91173021D01*
X164832370Y-91168069D01*
X164861529Y-90946590D01*
X164863156Y-90880000D01*
X164844852Y-90657361D01*
X164790431Y-90440702D01*
X164701354Y-90235840D01*
X164608093Y-90091680D01*
X164582822Y-90052617D01*
X164582820Y-90052614D01*
X164580014Y-90048277D01*
X164576532Y-90044450D01*
X164432798Y-89886488D01*
X164401746Y-89822642D01*
X164410141Y-89752143D01*
X164455317Y-89697375D01*
X164481761Y-89683706D01*
X164588297Y-89643767D01*
X164596705Y-89640615D01*
X164713261Y-89553261D01*
X164800615Y-89436705D01*
X164851745Y-89300316D01*
X164858500Y-89238134D01*
X164858500Y-88478918D01*
X167486917Y-88478918D01*
X167487334Y-88486156D01*
X167502682Y-88752320D01*
X167555405Y-89021053D01*
X167556792Y-89025103D01*
X167556793Y-89025108D01*
X167640355Y-89269171D01*
X167644112Y-89280144D01*
X167673238Y-89338054D01*
X167758891Y-89508357D01*
X167767160Y-89524799D01*
X167769586Y-89528328D01*
X167769589Y-89528334D01*
X167918937Y-89745635D01*
X167922274Y-89750490D01*
X167925161Y-89753663D01*
X167925162Y-89753664D01*
X168088596Y-89933277D01*
X168106582Y-89953043D01*
X168316675Y-90128707D01*
X168320316Y-90130991D01*
X168545024Y-90271951D01*
X168545028Y-90271953D01*
X168548664Y-90274234D01*
X168616544Y-90304883D01*
X168794345Y-90385164D01*
X168794349Y-90385166D01*
X168798257Y-90386930D01*
X168802377Y-90388150D01*
X168802376Y-90388150D01*
X169056723Y-90463491D01*
X169056727Y-90463492D01*
X169060836Y-90464709D01*
X169065070Y-90465357D01*
X169065075Y-90465358D01*
X169327298Y-90505483D01*
X169327300Y-90505483D01*
X169331540Y-90506132D01*
X169470912Y-90508322D01*
X169601071Y-90510367D01*
X169601077Y-90510367D01*
X169605362Y-90510434D01*
X169877235Y-90477534D01*
X170142127Y-90408041D01*
X170146087Y-90406401D01*
X170146092Y-90406399D01*
X170352373Y-90320954D01*
X170395136Y-90303241D01*
X170631582Y-90165073D01*
X170847089Y-89996094D01*
X170888809Y-89953043D01*
X171034686Y-89802509D01*
X171037669Y-89799431D01*
X171040202Y-89795983D01*
X171040206Y-89795978D01*
X171197257Y-89582178D01*
X171199795Y-89578723D01*
X171227154Y-89528334D01*
X171328418Y-89341830D01*
X171328419Y-89341828D01*
X171330468Y-89338054D01*
X171427269Y-89081877D01*
X171468173Y-88903279D01*
X171487449Y-88819117D01*
X171487450Y-88819113D01*
X171488407Y-88814933D01*
X171495858Y-88731453D01*
X171512531Y-88544627D01*
X171512531Y-88544625D01*
X171512751Y-88542161D01*
X171513193Y-88500000D01*
X171511465Y-88474648D01*
X171494859Y-88231055D01*
X171494858Y-88231049D01*
X171494567Y-88226778D01*
X171439032Y-87958612D01*
X171347617Y-87700465D01*
X171222013Y-87457112D01*
X171213700Y-87445283D01*
X171143279Y-87345085D01*
X171064545Y-87233057D01*
X170931235Y-87089598D01*
X170881046Y-87035588D01*
X170881043Y-87035585D01*
X170878125Y-87032445D01*
X170874810Y-87029731D01*
X170874806Y-87029728D01*
X170724946Y-86907069D01*
X170666205Y-86858990D01*
X170501847Y-86758272D01*
X170436366Y-86718145D01*
X170436365Y-86718145D01*
X170432704Y-86715901D01*
X170428768Y-86714173D01*
X170185873Y-86607549D01*
X170185869Y-86607548D01*
X170181945Y-86605825D01*
X169918566Y-86530800D01*
X169914324Y-86530196D01*
X169914318Y-86530195D01*
X169713834Y-86501662D01*
X169647443Y-86492213D01*
X169503589Y-86491460D01*
X169377877Y-86490802D01*
X169377871Y-86490802D01*
X169373591Y-86490780D01*
X169369347Y-86491339D01*
X169369343Y-86491339D01*
X169250302Y-86507011D01*
X169102078Y-86526525D01*
X169097938Y-86527658D01*
X169097936Y-86527658D01*
X169074918Y-86533955D01*
X168837928Y-86598788D01*
X168833980Y-86600472D01*
X168589982Y-86704546D01*
X168589978Y-86704548D01*
X168586030Y-86706232D01*
X168546039Y-86730166D01*
X168354725Y-86844664D01*
X168354721Y-86844667D01*
X168351043Y-86846868D01*
X168137318Y-87018094D01*
X168071833Y-87087101D01*
X167962295Y-87202530D01*
X167948808Y-87216742D01*
X167789002Y-87439136D01*
X167660857Y-87681161D01*
X167659385Y-87685184D01*
X167659383Y-87685188D01*
X167616872Y-87801355D01*
X167566743Y-87938337D01*
X167508404Y-88205907D01*
X167486917Y-88478918D01*
X164858500Y-88478918D01*
X164858500Y-87441866D01*
X164857826Y-87435657D01*
X164853693Y-87397617D01*
X164851745Y-87379684D01*
X164800615Y-87243295D01*
X164713261Y-87126739D01*
X164596705Y-87039385D01*
X164460316Y-86988255D01*
X164398134Y-86981500D01*
X162601866Y-86981500D01*
X162539684Y-86988255D01*
X162403295Y-87039385D01*
X162286739Y-87126739D01*
X162199385Y-87243295D01*
X162148255Y-87379684D01*
X162146307Y-87397617D01*
X162142175Y-87435657D01*
X162141500Y-87441866D01*
X162141500Y-89238134D01*
X162148255Y-89300316D01*
X162199385Y-89436705D01*
X162286739Y-89553261D01*
X162403295Y-89640615D01*
X162411704Y-89643767D01*
X162411705Y-89643768D01*
X162520451Y-89684535D01*
X162577216Y-89727176D01*
X162601916Y-89793738D01*
X162586709Y-89863087D01*
X162567316Y-89889568D01*
X162440629Y-90022138D01*
X162314743Y-90206680D01*
X162220688Y-90409305D01*
X162160989Y-90624570D01*
X162137251Y-90846695D01*
X162137548Y-90851848D01*
X162137548Y-90851851D01*
X162143960Y-90963056D01*
X162150110Y-91069715D01*
X162151247Y-91074761D01*
X162151248Y-91074767D01*
X162163345Y-91128444D01*
X162199222Y-91287639D01*
X162283266Y-91494616D01*
X162312837Y-91542872D01*
X162394539Y-91676197D01*
X162399987Y-91685088D01*
X162546250Y-91853938D01*
X162718126Y-91996632D01*
X162769960Y-92026921D01*
X162791445Y-92039476D01*
X162840169Y-92091114D01*
X162853240Y-92160897D01*
X162826509Y-92226669D01*
X162786055Y-92260027D01*
X162773607Y-92266507D01*
X162769474Y-92269610D01*
X162769471Y-92269612D01*
X162599100Y-92397530D01*
X162594965Y-92400635D01*
X162440629Y-92562138D01*
X162314743Y-92746680D01*
X162220688Y-92949305D01*
X162160989Y-93164570D01*
X162137251Y-93386695D01*
X162137548Y-93391848D01*
X162137548Y-93391851D01*
X162148854Y-93587939D01*
X162150110Y-93609715D01*
X162151247Y-93614761D01*
X162151248Y-93614767D01*
X162171119Y-93702939D01*
X162199222Y-93827639D01*
X162283266Y-94034616D01*
X162285965Y-94039020D01*
X162379795Y-94192137D01*
X162399987Y-94225088D01*
X162546250Y-94393938D01*
X162718126Y-94536632D01*
X162769960Y-94566921D01*
X162791445Y-94579476D01*
X162840169Y-94631114D01*
X162853240Y-94700897D01*
X162826509Y-94766669D01*
X162786055Y-94800027D01*
X162773607Y-94806507D01*
X162769474Y-94809610D01*
X162769471Y-94809612D01*
X162713189Y-94851870D01*
X162594965Y-94940635D01*
X162440629Y-95102138D01*
X162314743Y-95286680D01*
X162220688Y-95489305D01*
X162160989Y-95704570D01*
X162137251Y-95926695D01*
X162137548Y-95931848D01*
X162137548Y-95931851D01*
X162148854Y-96127939D01*
X162150110Y-96149715D01*
X162151247Y-96154761D01*
X162151248Y-96154767D01*
X162171119Y-96242939D01*
X162199222Y-96367639D01*
X162283266Y-96574616D01*
X162285965Y-96579020D01*
X162394539Y-96756197D01*
X162399987Y-96765088D01*
X162546250Y-96933938D01*
X162718126Y-97076632D01*
X162769960Y-97106921D01*
X162791445Y-97119476D01*
X162840169Y-97171114D01*
X162853240Y-97240897D01*
X162826509Y-97306669D01*
X162786055Y-97340027D01*
X162773607Y-97346507D01*
X162769474Y-97349610D01*
X162769471Y-97349612D01*
X162601623Y-97475636D01*
X162594965Y-97480635D01*
X162440629Y-97642138D01*
X162314743Y-97826680D01*
X162220688Y-98029305D01*
X162160989Y-98244570D01*
X162137251Y-98466695D01*
X162137548Y-98471848D01*
X162137548Y-98471851D01*
X162148854Y-98667939D01*
X162150110Y-98689715D01*
X162151247Y-98694761D01*
X162151248Y-98694767D01*
X162171119Y-98782939D01*
X162199222Y-98907639D01*
X162283266Y-99114616D01*
X162285965Y-99119020D01*
X162379795Y-99272137D01*
X162399987Y-99305088D01*
X162546250Y-99473938D01*
X162718126Y-99616632D01*
X162726000Y-99621233D01*
X162791445Y-99659476D01*
X162840169Y-99711114D01*
X162853240Y-99780897D01*
X162826509Y-99846669D01*
X162786055Y-99880027D01*
X162773607Y-99886507D01*
X162769474Y-99889610D01*
X162769471Y-99889612D01*
X162599100Y-100017530D01*
X162594965Y-100020635D01*
X162440629Y-100182138D01*
X162314743Y-100366680D01*
X162220688Y-100569305D01*
X162160989Y-100784570D01*
X162137251Y-101006695D01*
X129133500Y-101006695D01*
X129133500Y-100026866D01*
X129126745Y-99964684D01*
X129075615Y-99828295D01*
X128988261Y-99711739D01*
X128871705Y-99624385D01*
X128842208Y-99613327D01*
X128753203Y-99579960D01*
X128696439Y-99537318D01*
X128671739Y-99470756D01*
X128686947Y-99401408D01*
X128708493Y-99372727D01*
X128809435Y-99272137D01*
X128813096Y-99268489D01*
X128872594Y-99185689D01*
X128940435Y-99091277D01*
X128943453Y-99087077D01*
X129042430Y-98886811D01*
X129107370Y-98673069D01*
X129136529Y-98451590D01*
X129138156Y-98385000D01*
X129119852Y-98162361D01*
X129065431Y-97945702D01*
X128976354Y-97740840D01*
X128855014Y-97553277D01*
X128852032Y-97550000D01*
X149086496Y-97550000D01*
X149087186Y-97556565D01*
X149103983Y-97716375D01*
X149106458Y-97739928D01*
X149165473Y-97921556D01*
X149260960Y-98086944D01*
X149265378Y-98091851D01*
X149265379Y-98091852D01*
X149328866Y-98162361D01*
X149388747Y-98228866D01*
X149543248Y-98341118D01*
X149549276Y-98343802D01*
X149549278Y-98343803D01*
X149641809Y-98385000D01*
X149717712Y-98418794D01*
X149811112Y-98438647D01*
X149898056Y-98457128D01*
X149898061Y-98457128D01*
X149904513Y-98458500D01*
X150095487Y-98458500D01*
X150101939Y-98457128D01*
X150101944Y-98457128D01*
X150188887Y-98438647D01*
X150282288Y-98418794D01*
X150358191Y-98385000D01*
X150450722Y-98343803D01*
X150450724Y-98343802D01*
X150456752Y-98341118D01*
X150611253Y-98228866D01*
X150671134Y-98162361D01*
X150734621Y-98091852D01*
X150734622Y-98091851D01*
X150739040Y-98086944D01*
X150834527Y-97921556D01*
X150893542Y-97739928D01*
X150896018Y-97716375D01*
X150904690Y-97633861D01*
X150931703Y-97568204D01*
X150957220Y-97550397D01*
X150955874Y-97549603D01*
X151102780Y-97549603D01*
X151122014Y-97560953D01*
X151153944Y-97624364D01*
X151155310Y-97633861D01*
X151163983Y-97716375D01*
X151166458Y-97739928D01*
X151225473Y-97921556D01*
X151320960Y-98086944D01*
X151325378Y-98091851D01*
X151325379Y-98091852D01*
X151388866Y-98162361D01*
X151448747Y-98228866D01*
X151603248Y-98341118D01*
X151609276Y-98343802D01*
X151609278Y-98343803D01*
X151701809Y-98385000D01*
X151777712Y-98418794D01*
X151871112Y-98438647D01*
X151958056Y-98457128D01*
X151958061Y-98457128D01*
X151964513Y-98458500D01*
X152155487Y-98458500D01*
X152161939Y-98457128D01*
X152161944Y-98457128D01*
X152248887Y-98438647D01*
X152342288Y-98418794D01*
X152418191Y-98385000D01*
X152510722Y-98343803D01*
X152510724Y-98343802D01*
X152516752Y-98341118D01*
X152671253Y-98228866D01*
X152731134Y-98162361D01*
X152794621Y-98091852D01*
X152794622Y-98091851D01*
X152799040Y-98086944D01*
X152894527Y-97921556D01*
X152953542Y-97739928D01*
X152956018Y-97716375D01*
X152972814Y-97556565D01*
X152973504Y-97550000D01*
X152953542Y-97360072D01*
X152894527Y-97178444D01*
X152881290Y-97155516D01*
X152853233Y-97106921D01*
X152799040Y-97013056D01*
X152785060Y-96997529D01*
X152675675Y-96876045D01*
X152675674Y-96876044D01*
X152671253Y-96871134D01*
X152572157Y-96799136D01*
X152522094Y-96762763D01*
X152522093Y-96762762D01*
X152516752Y-96758882D01*
X152510724Y-96756198D01*
X152510722Y-96756197D01*
X152348319Y-96683891D01*
X152348318Y-96683891D01*
X152342288Y-96681206D01*
X152214248Y-96653990D01*
X152161944Y-96642872D01*
X152161939Y-96642872D01*
X152155487Y-96641500D01*
X151964513Y-96641500D01*
X151958061Y-96642872D01*
X151958056Y-96642872D01*
X151905752Y-96653990D01*
X151777712Y-96681206D01*
X151771682Y-96683891D01*
X151771681Y-96683891D01*
X151609278Y-96756197D01*
X151609276Y-96756198D01*
X151603248Y-96758882D01*
X151597907Y-96762762D01*
X151597906Y-96762763D01*
X151547843Y-96799136D01*
X151448747Y-96871134D01*
X151444326Y-96876044D01*
X151444325Y-96876045D01*
X151334941Y-96997529D01*
X151320960Y-97013056D01*
X151266767Y-97106921D01*
X151238711Y-97155516D01*
X151225473Y-97178444D01*
X151166458Y-97360072D01*
X151165768Y-97366633D01*
X151165768Y-97366635D01*
X151155310Y-97466139D01*
X151128297Y-97531796D01*
X151102780Y-97549603D01*
X150955874Y-97549603D01*
X150937986Y-97539047D01*
X150906056Y-97475636D01*
X150904690Y-97466139D01*
X150894232Y-97366635D01*
X150894232Y-97366633D01*
X150893542Y-97360072D01*
X150834527Y-97178444D01*
X150821290Y-97155516D01*
X150793233Y-97106921D01*
X150739040Y-97013056D01*
X150725060Y-96997529D01*
X150615675Y-96876045D01*
X150615674Y-96876044D01*
X150611253Y-96871134D01*
X150512157Y-96799136D01*
X150462094Y-96762763D01*
X150462093Y-96762762D01*
X150456752Y-96758882D01*
X150450724Y-96756198D01*
X150450722Y-96756197D01*
X150288319Y-96683891D01*
X150288318Y-96683891D01*
X150282288Y-96681206D01*
X150154248Y-96653990D01*
X150101944Y-96642872D01*
X150101939Y-96642872D01*
X150095487Y-96641500D01*
X149904513Y-96641500D01*
X149898061Y-96642872D01*
X149898056Y-96642872D01*
X149845752Y-96653990D01*
X149717712Y-96681206D01*
X149711682Y-96683891D01*
X149711681Y-96683891D01*
X149549278Y-96756197D01*
X149549276Y-96756198D01*
X149543248Y-96758882D01*
X149537907Y-96762762D01*
X149537906Y-96762763D01*
X149487843Y-96799136D01*
X149388747Y-96871134D01*
X149384326Y-96876044D01*
X149384325Y-96876045D01*
X149274941Y-96997529D01*
X149260960Y-97013056D01*
X149206767Y-97106921D01*
X149178711Y-97155516D01*
X149165473Y-97178444D01*
X149106458Y-97360072D01*
X149086496Y-97550000D01*
X128852032Y-97550000D01*
X128704670Y-97388051D01*
X128700619Y-97384852D01*
X128700615Y-97384848D01*
X128533414Y-97252800D01*
X128533410Y-97252798D01*
X128529359Y-97249598D01*
X128488053Y-97226796D01*
X128438084Y-97176364D01*
X128423312Y-97106921D01*
X128448428Y-97040516D01*
X128475780Y-97013909D01*
X128519603Y-96982650D01*
X128654860Y-96886173D01*
X128665024Y-96876045D01*
X128780783Y-96760689D01*
X128813096Y-96728489D01*
X128872594Y-96645689D01*
X128940435Y-96551277D01*
X128943453Y-96547077D01*
X129042430Y-96346811D01*
X129107370Y-96133069D01*
X129136529Y-95911590D01*
X129138156Y-95845000D01*
X129119852Y-95622361D01*
X129065431Y-95405702D01*
X128976354Y-95200840D01*
X128855014Y-95013277D01*
X128704670Y-94848051D01*
X128700619Y-94844852D01*
X128700615Y-94844848D01*
X128533414Y-94712800D01*
X128533410Y-94712798D01*
X128529359Y-94709598D01*
X128488053Y-94686796D01*
X128438084Y-94636364D01*
X128423312Y-94566921D01*
X128448428Y-94500516D01*
X128475780Y-94473909D01*
X128519603Y-94442650D01*
X128654860Y-94346173D01*
X128697694Y-94303489D01*
X128809435Y-94192137D01*
X128813096Y-94188489D01*
X128872594Y-94105689D01*
X128940435Y-94011277D01*
X128943453Y-94007077D01*
X129042430Y-93806811D01*
X129107370Y-93593069D01*
X129136529Y-93371590D01*
X129136849Y-93358500D01*
X129138074Y-93308365D01*
X129138074Y-93308361D01*
X129138156Y-93305000D01*
X129119852Y-93082361D01*
X129065431Y-92865702D01*
X128976354Y-92660840D01*
X128855014Y-92473277D01*
X128833834Y-92450000D01*
X149121996Y-92450000D01*
X149141958Y-92639928D01*
X149200973Y-92821556D01*
X149204276Y-92827278D01*
X149204277Y-92827279D01*
X149208891Y-92835271D01*
X149296460Y-92986944D01*
X149300878Y-92991851D01*
X149300879Y-92991852D01*
X149382374Y-93082361D01*
X149424247Y-93128866D01*
X149578748Y-93241118D01*
X149584776Y-93243802D01*
X149584778Y-93243803D01*
X149722230Y-93305000D01*
X149753212Y-93318794D01*
X149846613Y-93338647D01*
X149933556Y-93357128D01*
X149933561Y-93357128D01*
X149940013Y-93358500D01*
X150130987Y-93358500D01*
X150137439Y-93357128D01*
X150137444Y-93357128D01*
X150224387Y-93338647D01*
X150317788Y-93318794D01*
X150348770Y-93305000D01*
X150486222Y-93243803D01*
X150486224Y-93243802D01*
X150492252Y-93241118D01*
X150646753Y-93128866D01*
X150688626Y-93082361D01*
X150770121Y-92991852D01*
X150770122Y-92991851D01*
X150774540Y-92986944D01*
X150870027Y-92821556D01*
X150871853Y-92822611D01*
X150911433Y-92776056D01*
X150979363Y-92755414D01*
X151047668Y-92774774D01*
X151095655Y-92830160D01*
X151097932Y-92835275D01*
X151099973Y-92841556D01*
X151103273Y-92847273D01*
X151103275Y-92847276D01*
X151116811Y-92870720D01*
X151195460Y-93006944D01*
X151199878Y-93011851D01*
X151199879Y-93011852D01*
X151263366Y-93082361D01*
X151323247Y-93148866D01*
X151477748Y-93261118D01*
X151483776Y-93263802D01*
X151483778Y-93263803D01*
X151646181Y-93336109D01*
X151652212Y-93338794D01*
X151738466Y-93357128D01*
X151832556Y-93377128D01*
X151832561Y-93377128D01*
X151839013Y-93378500D01*
X152029987Y-93378500D01*
X152036439Y-93377128D01*
X152036444Y-93377128D01*
X152130534Y-93357128D01*
X152216788Y-93338794D01*
X152222819Y-93336109D01*
X152385222Y-93263803D01*
X152385224Y-93263802D01*
X152391252Y-93261118D01*
X152545753Y-93148866D01*
X152605634Y-93082361D01*
X152669121Y-93011852D01*
X152669122Y-93011851D01*
X152673540Y-93006944D01*
X152769027Y-92841556D01*
X152828042Y-92659928D01*
X152830518Y-92636375D01*
X152847314Y-92476565D01*
X152848004Y-92470000D01*
X152828042Y-92280072D01*
X152769027Y-92098444D01*
X152764060Y-92089840D01*
X152727733Y-92026921D01*
X152673540Y-91933056D01*
X152660681Y-91918774D01*
X152550175Y-91796045D01*
X152550174Y-91796044D01*
X152545753Y-91791134D01*
X152446657Y-91719136D01*
X152396594Y-91682763D01*
X152396593Y-91682762D01*
X152391252Y-91678882D01*
X152385224Y-91676198D01*
X152385222Y-91676197D01*
X152222819Y-91603891D01*
X152222818Y-91603891D01*
X152216788Y-91601206D01*
X152088748Y-91573990D01*
X152036444Y-91562872D01*
X152036439Y-91562872D01*
X152029987Y-91561500D01*
X151839013Y-91561500D01*
X151832561Y-91562872D01*
X151832556Y-91562872D01*
X151780252Y-91573990D01*
X151652212Y-91601206D01*
X151646182Y-91603891D01*
X151646181Y-91603891D01*
X151483778Y-91676197D01*
X151483776Y-91676198D01*
X151477748Y-91678882D01*
X151472407Y-91682762D01*
X151472406Y-91682763D01*
X151422343Y-91719136D01*
X151323247Y-91791134D01*
X151318826Y-91796044D01*
X151318825Y-91796045D01*
X151208320Y-91918774D01*
X151195460Y-91933056D01*
X151099973Y-92098444D01*
X151098147Y-92097389D01*
X151058567Y-92143944D01*
X150990637Y-92164586D01*
X150922332Y-92145226D01*
X150874345Y-92089840D01*
X150872068Y-92084725D01*
X150870027Y-92078444D01*
X150852657Y-92048357D01*
X150789388Y-91938774D01*
X150774540Y-91913056D01*
X150646753Y-91771134D01*
X150492252Y-91658882D01*
X150486224Y-91656198D01*
X150486222Y-91656197D01*
X150323819Y-91583891D01*
X150323818Y-91583891D01*
X150317788Y-91581206D01*
X150224388Y-91561353D01*
X150137444Y-91542872D01*
X150137439Y-91542872D01*
X150130987Y-91541500D01*
X149940013Y-91541500D01*
X149933561Y-91542872D01*
X149933556Y-91542872D01*
X149846612Y-91561353D01*
X149753212Y-91581206D01*
X149747182Y-91583891D01*
X149747181Y-91583891D01*
X149584778Y-91656197D01*
X149584776Y-91656198D01*
X149578748Y-91658882D01*
X149424247Y-91771134D01*
X149296460Y-91913056D01*
X149200973Y-92078444D01*
X149141958Y-92260072D01*
X149141268Y-92266633D01*
X149141268Y-92266635D01*
X149126502Y-92407128D01*
X149121996Y-92450000D01*
X128833834Y-92450000D01*
X128704670Y-92308051D01*
X128700619Y-92304852D01*
X128700615Y-92304848D01*
X128533414Y-92172800D01*
X128533410Y-92172798D01*
X128529359Y-92169598D01*
X128488053Y-92146796D01*
X128438084Y-92096364D01*
X128423312Y-92026921D01*
X128448428Y-91960516D01*
X128475780Y-91933909D01*
X128519603Y-91902650D01*
X128654860Y-91806173D01*
X128665024Y-91796045D01*
X128780783Y-91680689D01*
X128813096Y-91648489D01*
X128861444Y-91581206D01*
X128919796Y-91500000D01*
X158586496Y-91500000D01*
X158587186Y-91506565D01*
X158602103Y-91648489D01*
X158606458Y-91689928D01*
X158665473Y-91871556D01*
X158760960Y-92036944D01*
X158765378Y-92041851D01*
X158765379Y-92041852D01*
X158872568Y-92160897D01*
X158888747Y-92178866D01*
X158954542Y-92226669D01*
X159037078Y-92286635D01*
X159043248Y-92291118D01*
X159049276Y-92293802D01*
X159049278Y-92293803D01*
X159211681Y-92366109D01*
X159217712Y-92368794D01*
X159311113Y-92388647D01*
X159398056Y-92407128D01*
X159398061Y-92407128D01*
X159404513Y-92408500D01*
X159595487Y-92408500D01*
X159601939Y-92407128D01*
X159601944Y-92407128D01*
X159688887Y-92388647D01*
X159782288Y-92368794D01*
X159788319Y-92366109D01*
X159950722Y-92293803D01*
X159950724Y-92293802D01*
X159956752Y-92291118D01*
X159962923Y-92286635D01*
X160045458Y-92226669D01*
X160111253Y-92178866D01*
X160127432Y-92160897D01*
X160234621Y-92041852D01*
X160234622Y-92041851D01*
X160239040Y-92036944D01*
X160334527Y-91871556D01*
X160393542Y-91689928D01*
X160397898Y-91648489D01*
X160412814Y-91506565D01*
X160413504Y-91500000D01*
X160393542Y-91310072D01*
X160334527Y-91128444D01*
X160239040Y-90963056D01*
X160226877Y-90949547D01*
X160115675Y-90826045D01*
X160115674Y-90826044D01*
X160111253Y-90821134D01*
X159988151Y-90731695D01*
X159962094Y-90712763D01*
X159962093Y-90712762D01*
X159956752Y-90708882D01*
X159950724Y-90706198D01*
X159950722Y-90706197D01*
X159788319Y-90633891D01*
X159788318Y-90633891D01*
X159782288Y-90631206D01*
X159688888Y-90611353D01*
X159601944Y-90592872D01*
X159601939Y-90592872D01*
X159595487Y-90591500D01*
X159404513Y-90591500D01*
X159398061Y-90592872D01*
X159398056Y-90592872D01*
X159311112Y-90611353D01*
X159217712Y-90631206D01*
X159211682Y-90633891D01*
X159211681Y-90633891D01*
X159049278Y-90706197D01*
X159049276Y-90706198D01*
X159043248Y-90708882D01*
X159037907Y-90712762D01*
X159037906Y-90712763D01*
X159011849Y-90731695D01*
X158888747Y-90821134D01*
X158884326Y-90826044D01*
X158884325Y-90826045D01*
X158773124Y-90949547D01*
X158760960Y-90963056D01*
X158665473Y-91128444D01*
X158606458Y-91310072D01*
X158586496Y-91500000D01*
X128919796Y-91500000D01*
X128940435Y-91471277D01*
X128943453Y-91467077D01*
X129042430Y-91266811D01*
X129107370Y-91053069D01*
X129136529Y-90831590D01*
X129136611Y-90828240D01*
X129138074Y-90768365D01*
X129138074Y-90768361D01*
X129138156Y-90765000D01*
X129119852Y-90542361D01*
X129065431Y-90325702D01*
X128976354Y-90120840D01*
X128855014Y-89933277D01*
X128704670Y-89768051D01*
X128700619Y-89764852D01*
X128700615Y-89764848D01*
X128533414Y-89632800D01*
X128533410Y-89632798D01*
X128529359Y-89629598D01*
X128488053Y-89606796D01*
X128438084Y-89556364D01*
X128423312Y-89486921D01*
X128448428Y-89420516D01*
X128475780Y-89393909D01*
X128519603Y-89362650D01*
X128654860Y-89266173D01*
X128813096Y-89108489D01*
X128839652Y-89071533D01*
X128940435Y-88931277D01*
X128943453Y-88927077D01*
X129042430Y-88726811D01*
X129107370Y-88513069D01*
X129136529Y-88291590D01*
X129138156Y-88225000D01*
X129119852Y-88002361D01*
X129065431Y-87785702D01*
X128976354Y-87580840D01*
X128855014Y-87393277D01*
X128704670Y-87228051D01*
X128700619Y-87224852D01*
X128700615Y-87224848D01*
X128533414Y-87092800D01*
X128533410Y-87092798D01*
X128529359Y-87089598D01*
X128333789Y-86981638D01*
X128328920Y-86979914D01*
X128328916Y-86979912D01*
X128128087Y-86908795D01*
X128128083Y-86908794D01*
X128123212Y-86907069D01*
X128118119Y-86906162D01*
X128118116Y-86906161D01*
X127908373Y-86868800D01*
X127908367Y-86868799D01*
X127903284Y-86867894D01*
X127829452Y-86866992D01*
X127685081Y-86865228D01*
X127685079Y-86865228D01*
X127679911Y-86865165D01*
X127459091Y-86898955D01*
X127246756Y-86968357D01*
X127048607Y-87071507D01*
X127044474Y-87074610D01*
X127044471Y-87074612D01*
X126874100Y-87202530D01*
X126869965Y-87205635D01*
X126833976Y-87243295D01*
X126721279Y-87361226D01*
X126715629Y-87367138D01*
X126712715Y-87371410D01*
X126712714Y-87371411D01*
X126666970Y-87438469D01*
X126589743Y-87551680D01*
X126574003Y-87585590D01*
X126520680Y-87700465D01*
X126495688Y-87754305D01*
X126435989Y-87969570D01*
X126412251Y-88191695D01*
X126412548Y-88196848D01*
X126412548Y-88196851D01*
X126418011Y-88291590D01*
X126425110Y-88414715D01*
X126426247Y-88419761D01*
X126426248Y-88419767D01*
X126439579Y-88478918D01*
X126474222Y-88632639D01*
X126558266Y-88839616D01*
X126674987Y-89030088D01*
X126821250Y-89198938D01*
X126868462Y-89238134D01*
X126983977Y-89334036D01*
X126993126Y-89341632D01*
X127063595Y-89382811D01*
X127066445Y-89384476D01*
X127115169Y-89436114D01*
X127128240Y-89505897D01*
X127101509Y-89571669D01*
X127061055Y-89605027D01*
X127048607Y-89611507D01*
X127044474Y-89614610D01*
X127044471Y-89614612D01*
X126934241Y-89697375D01*
X126869965Y-89745635D01*
X126863746Y-89752143D01*
X126735363Y-89886488D01*
X126715629Y-89907138D01*
X126589743Y-90091680D01*
X126574003Y-90125590D01*
X126505005Y-90274234D01*
X126495688Y-90294305D01*
X126435989Y-90509570D01*
X126412251Y-90731695D01*
X126412548Y-90736848D01*
X126412548Y-90736851D01*
X126418011Y-90831590D01*
X126425110Y-90954715D01*
X126426247Y-90959761D01*
X126426248Y-90959767D01*
X126428278Y-90968774D01*
X126474222Y-91172639D01*
X126558266Y-91379616D01*
X126674987Y-91570088D01*
X126821250Y-91738938D01*
X126993126Y-91881632D01*
X127038503Y-91908148D01*
X127066445Y-91924476D01*
X127115169Y-91976114D01*
X127128240Y-92045897D01*
X127101509Y-92111669D01*
X127061055Y-92145027D01*
X127048607Y-92151507D01*
X127044474Y-92154610D01*
X127044471Y-92154612D01*
X126874100Y-92282530D01*
X126869965Y-92285635D01*
X126851605Y-92304848D01*
X126734998Y-92426870D01*
X126715629Y-92447138D01*
X126712715Y-92451410D01*
X126712714Y-92451411D01*
X126697798Y-92473277D01*
X126589743Y-92631680D01*
X126574003Y-92665590D01*
X126520622Y-92780590D01*
X126495688Y-92834305D01*
X126435989Y-93049570D01*
X126412251Y-93271695D01*
X126412548Y-93276848D01*
X126412548Y-93276851D01*
X126418011Y-93371590D01*
X126425110Y-93494715D01*
X126426247Y-93499761D01*
X126426248Y-93499767D01*
X126446119Y-93587939D01*
X126474222Y-93712639D01*
X126558266Y-93919616D01*
X126674987Y-94110088D01*
X126821250Y-94278938D01*
X126993126Y-94421632D01*
X127054557Y-94457529D01*
X127066445Y-94464476D01*
X127115169Y-94516114D01*
X127128240Y-94585897D01*
X127101509Y-94651669D01*
X127061055Y-94685027D01*
X127048607Y-94691507D01*
X127044474Y-94694610D01*
X127044471Y-94694612D01*
X126874100Y-94822530D01*
X126869965Y-94825635D01*
X126866393Y-94829373D01*
X126734998Y-94966870D01*
X126715629Y-94987138D01*
X126589743Y-95171680D01*
X126574003Y-95205590D01*
X126520622Y-95320590D01*
X126495688Y-95374305D01*
X126435989Y-95589570D01*
X126412251Y-95811695D01*
X126412548Y-95816848D01*
X126412548Y-95816851D01*
X126418011Y-95911590D01*
X126425110Y-96034715D01*
X126426247Y-96039761D01*
X126426248Y-96039767D01*
X126446119Y-96127939D01*
X126474222Y-96252639D01*
X126558266Y-96459616D01*
X126674987Y-96650088D01*
X126821250Y-96818938D01*
X126993126Y-96961632D01*
X127054557Y-96997529D01*
X127066445Y-97004476D01*
X127115169Y-97056114D01*
X127128240Y-97125897D01*
X127101509Y-97191669D01*
X127061055Y-97225027D01*
X127048607Y-97231507D01*
X127044474Y-97234610D01*
X127044471Y-97234612D01*
X126874100Y-97362530D01*
X126869965Y-97365635D01*
X126866393Y-97369373D01*
X126734998Y-97506870D01*
X126715629Y-97527138D01*
X126712715Y-97531410D01*
X126712714Y-97531411D01*
X126639731Y-97638401D01*
X126589743Y-97711680D01*
X126574003Y-97745590D01*
X126520622Y-97860590D01*
X126495688Y-97914305D01*
X126435989Y-98129570D01*
X126412251Y-98351695D01*
X119008500Y-98351695D01*
X119008500Y-88478918D01*
X119486917Y-88478918D01*
X119487334Y-88486156D01*
X119502682Y-88752320D01*
X119555405Y-89021053D01*
X119556792Y-89025103D01*
X119556793Y-89025108D01*
X119640355Y-89269171D01*
X119644112Y-89280144D01*
X119673238Y-89338054D01*
X119758891Y-89508357D01*
X119767160Y-89524799D01*
X119769586Y-89528328D01*
X119769589Y-89528334D01*
X119918937Y-89745635D01*
X119922274Y-89750490D01*
X119925161Y-89753663D01*
X119925162Y-89753664D01*
X120088596Y-89933277D01*
X120106582Y-89953043D01*
X120316675Y-90128707D01*
X120320316Y-90130991D01*
X120545024Y-90271951D01*
X120545028Y-90271953D01*
X120548664Y-90274234D01*
X120616544Y-90304883D01*
X120794345Y-90385164D01*
X120794349Y-90385166D01*
X120798257Y-90386930D01*
X120802377Y-90388150D01*
X120802376Y-90388150D01*
X121056723Y-90463491D01*
X121056727Y-90463492D01*
X121060836Y-90464709D01*
X121065070Y-90465357D01*
X121065075Y-90465358D01*
X121327298Y-90505483D01*
X121327300Y-90505483D01*
X121331540Y-90506132D01*
X121470912Y-90508322D01*
X121601071Y-90510367D01*
X121601077Y-90510367D01*
X121605362Y-90510434D01*
X121877235Y-90477534D01*
X122142127Y-90408041D01*
X122146087Y-90406401D01*
X122146092Y-90406399D01*
X122352373Y-90320954D01*
X122395136Y-90303241D01*
X122631582Y-90165073D01*
X122847089Y-89996094D01*
X122888809Y-89953043D01*
X123034686Y-89802509D01*
X123037669Y-89799431D01*
X123040202Y-89795983D01*
X123040206Y-89795978D01*
X123197257Y-89582178D01*
X123199795Y-89578723D01*
X123227154Y-89528334D01*
X123328418Y-89341830D01*
X123328419Y-89341828D01*
X123330468Y-89338054D01*
X123427269Y-89081877D01*
X123468173Y-88903279D01*
X123487449Y-88819117D01*
X123487450Y-88819113D01*
X123488407Y-88814933D01*
X123495858Y-88731453D01*
X123512531Y-88544627D01*
X123512531Y-88544625D01*
X123512751Y-88542161D01*
X123513193Y-88500000D01*
X123511465Y-88474648D01*
X123494859Y-88231055D01*
X123494858Y-88231049D01*
X123494567Y-88226778D01*
X123439032Y-87958612D01*
X123347617Y-87700465D01*
X123222013Y-87457112D01*
X123213700Y-87445283D01*
X123143279Y-87345085D01*
X123064545Y-87233057D01*
X122931235Y-87089598D01*
X122881046Y-87035588D01*
X122881043Y-87035585D01*
X122878125Y-87032445D01*
X122874810Y-87029731D01*
X122874806Y-87029728D01*
X122724946Y-86907069D01*
X122666205Y-86858990D01*
X122618897Y-86830000D01*
X147726496Y-86830000D01*
X147727186Y-86836565D01*
X147743421Y-86991029D01*
X147746458Y-87019928D01*
X147805473Y-87201556D01*
X147900960Y-87366944D01*
X147905378Y-87371851D01*
X147905379Y-87371852D01*
X147985575Y-87460919D01*
X148028747Y-87508866D01*
X148183248Y-87621118D01*
X148189276Y-87623802D01*
X148189278Y-87623803D01*
X148318107Y-87681161D01*
X148357712Y-87698794D01*
X148451112Y-87718647D01*
X148538056Y-87737128D01*
X148538061Y-87737128D01*
X148544513Y-87738500D01*
X148735487Y-87738500D01*
X148741939Y-87737128D01*
X148741944Y-87737128D01*
X148828888Y-87718647D01*
X148922288Y-87698794D01*
X148961893Y-87681161D01*
X149090722Y-87623803D01*
X149090724Y-87623802D01*
X149096752Y-87621118D01*
X149251253Y-87508866D01*
X149294425Y-87460919D01*
X149374621Y-87371852D01*
X149374622Y-87371851D01*
X149379040Y-87366944D01*
X149474527Y-87201556D01*
X149533542Y-87019928D01*
X149536580Y-86991029D01*
X149552814Y-86836565D01*
X149553504Y-86830000D01*
X149540496Y-86706232D01*
X149534232Y-86646635D01*
X149534232Y-86646633D01*
X149533542Y-86640072D01*
X149474527Y-86458444D01*
X149379040Y-86293056D01*
X149251253Y-86151134D01*
X149152157Y-86079136D01*
X149102094Y-86042763D01*
X149102093Y-86042762D01*
X149096752Y-86038882D01*
X149090724Y-86036198D01*
X149090722Y-86036197D01*
X148928319Y-85963891D01*
X148928318Y-85963891D01*
X148922288Y-85961206D01*
X148828888Y-85941353D01*
X148741944Y-85922872D01*
X148741939Y-85922872D01*
X148735487Y-85921500D01*
X148544513Y-85921500D01*
X148538061Y-85922872D01*
X148538056Y-85922872D01*
X148451112Y-85941353D01*
X148357712Y-85961206D01*
X148351682Y-85963891D01*
X148351681Y-85963891D01*
X148189278Y-86036197D01*
X148189276Y-86036198D01*
X148183248Y-86038882D01*
X148177907Y-86042762D01*
X148177906Y-86042763D01*
X148127843Y-86079136D01*
X148028747Y-86151134D01*
X147900960Y-86293056D01*
X147805473Y-86458444D01*
X147746458Y-86640072D01*
X147745768Y-86646633D01*
X147745768Y-86646635D01*
X147739504Y-86706232D01*
X147726496Y-86830000D01*
X122618897Y-86830000D01*
X122501847Y-86758272D01*
X122436366Y-86718145D01*
X122436365Y-86718145D01*
X122432704Y-86715901D01*
X122428768Y-86714173D01*
X122185873Y-86607549D01*
X122185869Y-86607548D01*
X122181945Y-86605825D01*
X121918566Y-86530800D01*
X121914324Y-86530196D01*
X121914318Y-86530195D01*
X121713834Y-86501662D01*
X121647443Y-86492213D01*
X121503589Y-86491460D01*
X121377877Y-86490802D01*
X121377871Y-86490802D01*
X121373591Y-86490780D01*
X121369347Y-86491339D01*
X121369343Y-86491339D01*
X121250302Y-86507011D01*
X121102078Y-86526525D01*
X121097938Y-86527658D01*
X121097936Y-86527658D01*
X121074918Y-86533955D01*
X120837928Y-86598788D01*
X120833980Y-86600472D01*
X120589982Y-86704546D01*
X120589978Y-86704548D01*
X120586030Y-86706232D01*
X120546039Y-86730166D01*
X120354725Y-86844664D01*
X120354721Y-86844667D01*
X120351043Y-86846868D01*
X120137318Y-87018094D01*
X120071833Y-87087101D01*
X119962295Y-87202530D01*
X119948808Y-87216742D01*
X119789002Y-87439136D01*
X119660857Y-87681161D01*
X119659385Y-87685184D01*
X119659383Y-87685188D01*
X119616872Y-87801355D01*
X119566743Y-87938337D01*
X119508404Y-88205907D01*
X119486917Y-88478918D01*
X119008500Y-88478918D01*
X119008500Y-85860000D01*
X149906496Y-85860000D01*
X149926458Y-86049928D01*
X149985473Y-86231556D01*
X150080960Y-86396944D01*
X150085378Y-86401851D01*
X150085379Y-86401852D01*
X150201484Y-86530800D01*
X150208747Y-86538866D01*
X150289664Y-86597656D01*
X150357078Y-86646635D01*
X150363248Y-86651118D01*
X150369276Y-86653802D01*
X150369278Y-86653803D01*
X150531681Y-86726109D01*
X150537712Y-86728794D01*
X150631112Y-86748647D01*
X150718056Y-86767128D01*
X150718061Y-86767128D01*
X150724513Y-86768500D01*
X150915487Y-86768500D01*
X150921939Y-86767128D01*
X150921944Y-86767128D01*
X151008888Y-86748647D01*
X151102288Y-86728794D01*
X151108319Y-86726109D01*
X151270722Y-86653803D01*
X151270724Y-86653802D01*
X151276752Y-86651118D01*
X151282923Y-86646635D01*
X151350336Y-86597656D01*
X151431253Y-86538866D01*
X151438516Y-86530800D01*
X151554621Y-86401852D01*
X151554622Y-86401851D01*
X151559040Y-86396944D01*
X151654527Y-86231556D01*
X151713542Y-86049928D01*
X151733504Y-85860000D01*
X151713542Y-85670072D01*
X151654527Y-85488444D01*
X151559040Y-85323056D01*
X151431253Y-85181134D01*
X151276752Y-85068882D01*
X151270724Y-85066198D01*
X151270722Y-85066197D01*
X151108319Y-84993891D01*
X151108318Y-84993891D01*
X151102288Y-84991206D01*
X151008887Y-84971353D01*
X150921944Y-84952872D01*
X150921939Y-84952872D01*
X150915487Y-84951500D01*
X150724513Y-84951500D01*
X150718061Y-84952872D01*
X150718056Y-84952872D01*
X150631113Y-84971353D01*
X150537712Y-84991206D01*
X150531682Y-84993891D01*
X150531681Y-84993891D01*
X150369278Y-85066197D01*
X150369276Y-85066198D01*
X150363248Y-85068882D01*
X150208747Y-85181134D01*
X150080960Y-85323056D01*
X149985473Y-85488444D01*
X149926458Y-85670072D01*
X149906496Y-85860000D01*
X119008500Y-85860000D01*
X119008500Y-81100118D01*
X121091500Y-81100118D01*
X121091702Y-81102626D01*
X121091702Y-81102631D01*
X121106034Y-81280759D01*
X121106446Y-81285882D01*
X121165885Y-81527873D01*
X121263249Y-81757248D01*
X121265947Y-81761532D01*
X121393148Y-81963524D01*
X121396033Y-81968106D01*
X121560822Y-82155022D01*
X121753375Y-82313187D01*
X121968738Y-82438531D01*
X122085055Y-82483181D01*
X122196643Y-82526016D01*
X122196646Y-82526017D01*
X122201372Y-82527831D01*
X122445290Y-82578788D01*
X122450339Y-82579017D01*
X122450345Y-82579018D01*
X122564004Y-82584179D01*
X122694218Y-82590092D01*
X122699238Y-82589511D01*
X122699242Y-82589511D01*
X122816026Y-82575998D01*
X122941750Y-82561451D01*
X122946624Y-82560072D01*
X122946628Y-82560071D01*
X123176651Y-82494981D01*
X123176653Y-82494980D01*
X123181520Y-82493603D01*
X123186095Y-82491469D01*
X123186102Y-82491467D01*
X123402776Y-82390429D01*
X123407357Y-82388293D01*
X123411537Y-82385452D01*
X123411541Y-82385450D01*
X123609264Y-82251078D01*
X123609265Y-82251077D01*
X123613453Y-82248231D01*
X123617545Y-82244362D01*
X123790824Y-82080500D01*
X123794504Y-82077020D01*
X123861884Y-81988890D01*
X123942779Y-81883084D01*
X123942782Y-81883080D01*
X123945852Y-81879064D01*
X124063604Y-81659457D01*
X124108913Y-81527873D01*
X124143082Y-81428638D01*
X124144731Y-81423849D01*
X124162482Y-81321079D01*
X124186469Y-81182211D01*
X124186470Y-81182205D01*
X124187144Y-81178301D01*
X124188500Y-81148441D01*
X124188500Y-81100118D01*
X126171500Y-81100118D01*
X126171702Y-81102626D01*
X126171702Y-81102631D01*
X126186034Y-81280759D01*
X126186446Y-81285882D01*
X126245885Y-81527873D01*
X126343249Y-81757248D01*
X126345947Y-81761532D01*
X126473148Y-81963524D01*
X126476033Y-81968106D01*
X126640822Y-82155022D01*
X126833375Y-82313187D01*
X127048738Y-82438531D01*
X127165055Y-82483181D01*
X127276643Y-82526016D01*
X127276646Y-82526017D01*
X127281372Y-82527831D01*
X127525290Y-82578788D01*
X127530339Y-82579017D01*
X127530345Y-82579018D01*
X127644004Y-82584179D01*
X127774218Y-82590092D01*
X127779238Y-82589511D01*
X127779242Y-82589511D01*
X127896026Y-82575998D01*
X128021750Y-82561451D01*
X128026624Y-82560072D01*
X128026628Y-82560071D01*
X128256651Y-82494981D01*
X128256653Y-82494980D01*
X128261520Y-82493603D01*
X128266095Y-82491469D01*
X128266102Y-82491467D01*
X128482776Y-82390429D01*
X128487357Y-82388293D01*
X128491537Y-82385452D01*
X128491541Y-82385450D01*
X128689264Y-82251078D01*
X128689265Y-82251077D01*
X128693453Y-82248231D01*
X128697545Y-82244362D01*
X128870824Y-82080500D01*
X128874504Y-82077020D01*
X128941884Y-81988890D01*
X129022779Y-81883084D01*
X129022782Y-81883080D01*
X129025852Y-81879064D01*
X129143604Y-81659457D01*
X129188913Y-81527873D01*
X129223082Y-81428638D01*
X129224731Y-81423849D01*
X129242482Y-81321079D01*
X129266469Y-81182211D01*
X129266470Y-81182205D01*
X129267144Y-81178301D01*
X129268500Y-81148441D01*
X129268500Y-81097572D01*
X131252000Y-81097572D01*
X131252202Y-81102604D01*
X131266536Y-81280759D01*
X131268148Y-81290712D01*
X131325154Y-81522800D01*
X131328337Y-81532370D01*
X131421718Y-81752360D01*
X131426392Y-81761299D01*
X131553739Y-81963524D01*
X131559780Y-81971599D01*
X131717827Y-82150868D01*
X131725079Y-82157871D01*
X131909750Y-82309562D01*
X131918033Y-82315318D01*
X132124579Y-82435531D01*
X132133684Y-82439893D01*
X132356785Y-82525534D01*
X132366474Y-82528385D01*
X132528264Y-82562185D01*
X132542325Y-82561062D01*
X132546000Y-82550954D01*
X132546000Y-82548358D01*
X133054000Y-82548358D01*
X133058136Y-82562444D01*
X133071114Y-82564493D01*
X133096631Y-82561540D01*
X133106521Y-82559581D01*
X133336476Y-82494511D01*
X133345927Y-82490997D01*
X133562528Y-82389994D01*
X133571292Y-82385015D01*
X133768951Y-82250686D01*
X133776815Y-82244362D01*
X133950451Y-82080164D01*
X133957210Y-82072657D01*
X134102357Y-81882812D01*
X134107821Y-81874333D01*
X134220752Y-81663717D01*
X134224792Y-81654471D01*
X134302596Y-81428513D01*
X134305107Y-81418732D01*
X134345969Y-81182166D01*
X134346824Y-81174294D01*
X134347936Y-81149815D01*
X134348000Y-81146982D01*
X134348000Y-81100118D01*
X136331500Y-81100118D01*
X136331702Y-81102626D01*
X136331702Y-81102631D01*
X136346034Y-81280759D01*
X136346446Y-81285882D01*
X136405885Y-81527873D01*
X136503249Y-81757248D01*
X136505947Y-81761532D01*
X136633148Y-81963524D01*
X136636033Y-81968106D01*
X136800822Y-82155022D01*
X136993375Y-82313187D01*
X137208738Y-82438531D01*
X137325055Y-82483181D01*
X137436643Y-82526016D01*
X137436646Y-82526017D01*
X137441372Y-82527831D01*
X137685290Y-82578788D01*
X137690339Y-82579017D01*
X137690345Y-82579018D01*
X137804004Y-82584179D01*
X137934218Y-82590092D01*
X137939238Y-82589511D01*
X137939242Y-82589511D01*
X138056026Y-82575998D01*
X138181750Y-82561451D01*
X138186624Y-82560072D01*
X138186628Y-82560071D01*
X138416651Y-82494981D01*
X138416653Y-82494980D01*
X138421520Y-82493603D01*
X138426095Y-82491469D01*
X138426102Y-82491467D01*
X138642776Y-82390429D01*
X138647357Y-82388293D01*
X138651537Y-82385452D01*
X138651541Y-82385450D01*
X138849264Y-82251078D01*
X138849265Y-82251077D01*
X138853453Y-82248231D01*
X138857545Y-82244362D01*
X139030824Y-82080500D01*
X139034504Y-82077020D01*
X139101884Y-81988890D01*
X139182779Y-81883084D01*
X139182782Y-81883080D01*
X139185852Y-81879064D01*
X139303604Y-81659457D01*
X139348913Y-81527873D01*
X139383082Y-81428638D01*
X139384731Y-81423849D01*
X139402482Y-81321079D01*
X139426469Y-81182211D01*
X139426470Y-81182205D01*
X139427144Y-81178301D01*
X139428500Y-81148441D01*
X139428500Y-81097572D01*
X141412000Y-81097572D01*
X141412202Y-81102604D01*
X141426536Y-81280759D01*
X141428148Y-81290712D01*
X141485154Y-81522800D01*
X141488337Y-81532370D01*
X141581718Y-81752360D01*
X141586392Y-81761299D01*
X141713739Y-81963524D01*
X141719780Y-81971599D01*
X141877827Y-82150868D01*
X141885079Y-82157871D01*
X142069750Y-82309562D01*
X142078033Y-82315318D01*
X142284579Y-82435531D01*
X142293684Y-82439893D01*
X142516785Y-82525534D01*
X142526474Y-82528385D01*
X142688264Y-82562185D01*
X142702325Y-82561062D01*
X142706000Y-82550954D01*
X142706000Y-82548358D01*
X143214000Y-82548358D01*
X143218136Y-82562444D01*
X143231114Y-82564493D01*
X143256631Y-82561540D01*
X143266521Y-82559581D01*
X143496476Y-82494511D01*
X143505927Y-82490997D01*
X143722528Y-82389994D01*
X143731292Y-82385015D01*
X143928951Y-82250686D01*
X143936815Y-82244362D01*
X144110451Y-82080164D01*
X144117210Y-82072657D01*
X144262357Y-81882812D01*
X144267821Y-81874333D01*
X144380752Y-81663717D01*
X144384792Y-81654471D01*
X144462596Y-81428513D01*
X144465107Y-81418732D01*
X144505969Y-81182166D01*
X144506824Y-81174294D01*
X144507936Y-81149815D01*
X144508000Y-81146982D01*
X144508000Y-81100118D01*
X146491500Y-81100118D01*
X146491702Y-81102626D01*
X146491702Y-81102631D01*
X146506034Y-81280759D01*
X146506446Y-81285882D01*
X146565885Y-81527873D01*
X146663249Y-81757248D01*
X146665947Y-81761532D01*
X146793148Y-81963524D01*
X146796033Y-81968106D01*
X146960822Y-82155022D01*
X147153375Y-82313187D01*
X147368738Y-82438531D01*
X147485055Y-82483181D01*
X147596643Y-82526016D01*
X147596646Y-82526017D01*
X147601372Y-82527831D01*
X147845290Y-82578788D01*
X147850339Y-82579017D01*
X147850345Y-82579018D01*
X147964004Y-82584179D01*
X148094218Y-82590092D01*
X148099238Y-82589511D01*
X148099242Y-82589511D01*
X148216026Y-82575998D01*
X148341750Y-82561451D01*
X148346624Y-82560072D01*
X148346628Y-82560071D01*
X148576651Y-82494981D01*
X148576653Y-82494980D01*
X148581520Y-82493603D01*
X148586095Y-82491469D01*
X148586102Y-82491467D01*
X148802776Y-82390429D01*
X148807357Y-82388293D01*
X148811537Y-82385452D01*
X148811541Y-82385450D01*
X149009264Y-82251078D01*
X149009265Y-82251077D01*
X149013453Y-82248231D01*
X149017545Y-82244362D01*
X149190824Y-82080500D01*
X149194504Y-82077020D01*
X149261884Y-81988890D01*
X149342779Y-81883084D01*
X149342782Y-81883080D01*
X149345852Y-81879064D01*
X149463604Y-81659457D01*
X149508913Y-81527873D01*
X149543082Y-81428638D01*
X149544731Y-81423849D01*
X149562482Y-81321079D01*
X149586469Y-81182211D01*
X149586470Y-81182205D01*
X149587144Y-81178301D01*
X149588500Y-81148441D01*
X149588500Y-81097572D01*
X151572000Y-81097572D01*
X151572202Y-81102604D01*
X151586536Y-81280759D01*
X151588148Y-81290712D01*
X151645154Y-81522800D01*
X151648337Y-81532370D01*
X151741718Y-81752360D01*
X151746392Y-81761299D01*
X151873739Y-81963524D01*
X151879780Y-81971599D01*
X152037827Y-82150868D01*
X152045079Y-82157871D01*
X152229750Y-82309562D01*
X152238033Y-82315318D01*
X152444579Y-82435531D01*
X152453684Y-82439893D01*
X152676785Y-82525534D01*
X152686474Y-82528385D01*
X152848264Y-82562185D01*
X152862325Y-82561062D01*
X152866000Y-82550954D01*
X152866000Y-82548358D01*
X153374000Y-82548358D01*
X153378136Y-82562444D01*
X153391114Y-82564493D01*
X153416631Y-82561540D01*
X153426521Y-82559581D01*
X153656476Y-82494511D01*
X153665927Y-82490997D01*
X153882528Y-82389994D01*
X153891292Y-82385015D01*
X154088951Y-82250686D01*
X154096815Y-82244362D01*
X154270451Y-82080164D01*
X154277210Y-82072657D01*
X154422357Y-81882812D01*
X154427821Y-81874333D01*
X154540752Y-81663717D01*
X154544792Y-81654471D01*
X154622596Y-81428513D01*
X154625107Y-81418732D01*
X154665969Y-81182166D01*
X154666824Y-81174294D01*
X154667936Y-81149815D01*
X154668000Y-81146982D01*
X154668000Y-81100118D01*
X156651500Y-81100118D01*
X156651702Y-81102626D01*
X156651702Y-81102631D01*
X156666034Y-81280759D01*
X156666446Y-81285882D01*
X156725885Y-81527873D01*
X156823249Y-81757248D01*
X156825947Y-81761532D01*
X156953148Y-81963524D01*
X156956033Y-81968106D01*
X157120822Y-82155022D01*
X157313375Y-82313187D01*
X157528738Y-82438531D01*
X157645055Y-82483181D01*
X157756643Y-82526016D01*
X157756646Y-82526017D01*
X157761372Y-82527831D01*
X158005290Y-82578788D01*
X158010339Y-82579017D01*
X158010345Y-82579018D01*
X158124004Y-82584179D01*
X158254218Y-82590092D01*
X158259238Y-82589511D01*
X158259242Y-82589511D01*
X158376026Y-82575998D01*
X158501750Y-82561451D01*
X158506624Y-82560072D01*
X158506628Y-82560071D01*
X158736651Y-82494981D01*
X158736653Y-82494980D01*
X158741520Y-82493603D01*
X158746095Y-82491469D01*
X158746102Y-82491467D01*
X158962776Y-82390429D01*
X158967357Y-82388293D01*
X158971537Y-82385452D01*
X158971541Y-82385450D01*
X159169264Y-82251078D01*
X159169265Y-82251077D01*
X159173453Y-82248231D01*
X159177545Y-82244362D01*
X159350824Y-82080500D01*
X159354504Y-82077020D01*
X159421884Y-81988890D01*
X159502779Y-81883084D01*
X159502782Y-81883080D01*
X159505852Y-81879064D01*
X159623604Y-81659457D01*
X159668913Y-81527873D01*
X159703082Y-81428638D01*
X159704731Y-81423849D01*
X159722482Y-81321079D01*
X159746469Y-81182211D01*
X159746470Y-81182205D01*
X159747144Y-81178301D01*
X159748500Y-81148441D01*
X159748500Y-81097572D01*
X161732000Y-81097572D01*
X161732202Y-81102604D01*
X161746536Y-81280759D01*
X161748148Y-81290712D01*
X161805154Y-81522800D01*
X161808337Y-81532370D01*
X161901718Y-81752360D01*
X161906392Y-81761299D01*
X162033739Y-81963524D01*
X162039780Y-81971599D01*
X162197827Y-82150868D01*
X162205079Y-82157871D01*
X162389750Y-82309562D01*
X162398033Y-82315318D01*
X162604579Y-82435531D01*
X162613684Y-82439893D01*
X162836785Y-82525534D01*
X162846474Y-82528385D01*
X163008264Y-82562185D01*
X163022325Y-82561062D01*
X163026000Y-82550954D01*
X163026000Y-82548358D01*
X163534000Y-82548358D01*
X163538136Y-82562444D01*
X163551114Y-82564493D01*
X163576631Y-82561540D01*
X163586521Y-82559581D01*
X163816476Y-82494511D01*
X163825927Y-82490997D01*
X164042528Y-82389994D01*
X164051292Y-82385015D01*
X164248951Y-82250686D01*
X164256815Y-82244362D01*
X164430451Y-82080164D01*
X164437210Y-82072657D01*
X164582357Y-81882812D01*
X164587821Y-81874333D01*
X164700752Y-81663717D01*
X164704792Y-81654471D01*
X164782596Y-81428513D01*
X164785107Y-81418732D01*
X164825969Y-81182166D01*
X164826824Y-81174294D01*
X164827936Y-81149815D01*
X164828000Y-81146982D01*
X164828000Y-80549615D01*
X164823525Y-80534376D01*
X164822135Y-80533171D01*
X164814452Y-80531500D01*
X163552115Y-80531500D01*
X163536876Y-80535975D01*
X163535671Y-80537365D01*
X163534000Y-80545048D01*
X163534000Y-82548358D01*
X163026000Y-82548358D01*
X163026000Y-80549615D01*
X163021525Y-80534376D01*
X163020135Y-80533171D01*
X163012452Y-80531500D01*
X161750115Y-80531500D01*
X161734876Y-80535975D01*
X161733671Y-80537365D01*
X161732000Y-80545048D01*
X161732000Y-81097572D01*
X159748500Y-81097572D01*
X159748500Y-80005385D01*
X161732000Y-80005385D01*
X161736475Y-80020624D01*
X161737865Y-80021829D01*
X161745548Y-80023500D01*
X163007885Y-80023500D01*
X163023124Y-80019025D01*
X163024329Y-80017635D01*
X163026000Y-80009952D01*
X163026000Y-80005385D01*
X163534000Y-80005385D01*
X163538475Y-80020624D01*
X163539865Y-80021829D01*
X163547548Y-80023500D01*
X164809885Y-80023500D01*
X164825124Y-80019025D01*
X164826329Y-80017635D01*
X164828000Y-80009952D01*
X164828000Y-79457428D01*
X164827798Y-79452396D01*
X164813464Y-79274241D01*
X164811852Y-79264288D01*
X164754846Y-79032200D01*
X164751663Y-79022630D01*
X164658282Y-78802640D01*
X164653608Y-78793701D01*
X164580180Y-78677099D01*
X166811500Y-78677099D01*
X166811501Y-81877900D01*
X166822474Y-81983667D01*
X166824658Y-81990213D01*
X166875730Y-82143292D01*
X166878450Y-82151446D01*
X166971521Y-82301849D01*
X166976703Y-82307022D01*
X166979661Y-82309975D01*
X167096697Y-82426806D01*
X167117928Y-82439893D01*
X167201597Y-82491467D01*
X167247261Y-82519615D01*
X167327004Y-82546064D01*
X167408610Y-82573132D01*
X167408612Y-82573132D01*
X167415138Y-82575297D01*
X167421974Y-82575997D01*
X167421977Y-82575998D01*
X167465030Y-82580409D01*
X167519599Y-82586000D01*
X168353519Y-82586000D01*
X169200400Y-82585999D01*
X169306167Y-82575026D01*
X169386100Y-82548358D01*
X169467002Y-82521367D01*
X169467004Y-82521366D01*
X169473946Y-82519050D01*
X169624349Y-82425979D01*
X169749306Y-82300803D01*
X169842115Y-82150239D01*
X169897797Y-81982362D01*
X169908500Y-81877901D01*
X169908499Y-78677100D01*
X169897526Y-78571333D01*
X169865220Y-78474500D01*
X169843867Y-78410498D01*
X169843866Y-78410496D01*
X169841550Y-78403554D01*
X169748479Y-78253151D01*
X169740753Y-78245438D01*
X169661883Y-78166707D01*
X169623303Y-78128194D01*
X169519166Y-78064003D01*
X169478969Y-78039225D01*
X169478967Y-78039224D01*
X169472739Y-78035385D01*
X169352245Y-77995419D01*
X169311390Y-77981868D01*
X169311388Y-77981868D01*
X169304862Y-77979703D01*
X169298026Y-77979003D01*
X169298023Y-77979002D01*
X169254970Y-77974591D01*
X169200401Y-77969000D01*
X168366481Y-77969000D01*
X167519600Y-77969001D01*
X167413833Y-77979974D01*
X167407286Y-77982158D01*
X167407287Y-77982158D01*
X167252998Y-78033633D01*
X167252996Y-78033634D01*
X167246054Y-78035950D01*
X167095651Y-78129021D01*
X166970694Y-78254197D01*
X166877885Y-78404761D01*
X166822203Y-78572638D01*
X166811500Y-78677099D01*
X164580180Y-78677099D01*
X164526261Y-78591476D01*
X164520220Y-78583401D01*
X164362173Y-78404132D01*
X164354921Y-78397129D01*
X164170250Y-78245438D01*
X164161967Y-78239682D01*
X163955421Y-78119469D01*
X163946316Y-78115107D01*
X163723215Y-78029466D01*
X163713526Y-78026615D01*
X163551736Y-77992815D01*
X163537675Y-77993938D01*
X163534000Y-78004046D01*
X163534000Y-80005385D01*
X163026000Y-80005385D01*
X163026000Y-78006642D01*
X163021864Y-77992556D01*
X163008886Y-77990507D01*
X162983369Y-77993460D01*
X162973479Y-77995419D01*
X162743524Y-78060489D01*
X162734073Y-78064003D01*
X162517472Y-78165006D01*
X162508708Y-78169985D01*
X162311049Y-78304314D01*
X162303185Y-78310638D01*
X162129549Y-78474836D01*
X162122790Y-78482343D01*
X161977643Y-78672188D01*
X161972179Y-78680667D01*
X161859248Y-78891283D01*
X161855208Y-78900529D01*
X161777404Y-79126487D01*
X161774893Y-79136268D01*
X161734031Y-79372834D01*
X161733176Y-79380706D01*
X161732064Y-79405185D01*
X161732000Y-79408018D01*
X161732000Y-80005385D01*
X159748500Y-80005385D01*
X159748500Y-79454882D01*
X159748298Y-79452369D01*
X159733960Y-79274159D01*
X159733959Y-79274154D01*
X159733554Y-79269118D01*
X159674115Y-79027127D01*
X159576751Y-78797752D01*
X159489998Y-78659990D01*
X159446663Y-78591175D01*
X159446662Y-78591174D01*
X159443967Y-78586894D01*
X159279178Y-78399978D01*
X159086625Y-78241813D01*
X158871262Y-78116469D01*
X158727795Y-78061397D01*
X158643357Y-78028984D01*
X158643354Y-78028983D01*
X158638628Y-78027169D01*
X158394710Y-77976212D01*
X158389661Y-77975983D01*
X158389655Y-77975982D01*
X158275996Y-77970821D01*
X158145782Y-77964908D01*
X158140762Y-77965489D01*
X158140758Y-77965489D01*
X158050074Y-77975982D01*
X157898250Y-77993549D01*
X157893376Y-77994928D01*
X157893372Y-77994929D01*
X157663349Y-78060019D01*
X157663347Y-78060020D01*
X157658480Y-78061397D01*
X157653905Y-78063531D01*
X157653898Y-78063533D01*
X157504143Y-78133366D01*
X157432643Y-78166707D01*
X157428463Y-78169548D01*
X157428459Y-78169550D01*
X157230736Y-78303922D01*
X157226547Y-78306769D01*
X157222872Y-78310244D01*
X157222871Y-78310245D01*
X157131375Y-78396768D01*
X157045496Y-78477980D01*
X157042418Y-78482006D01*
X157042417Y-78482007D01*
X156897221Y-78671916D01*
X156897218Y-78671920D01*
X156894148Y-78675936D01*
X156776396Y-78895543D01*
X156774750Y-78900324D01*
X156774748Y-78900328D01*
X156729341Y-79032200D01*
X156695269Y-79131151D01*
X156694407Y-79136143D01*
X156670568Y-79274159D01*
X156652856Y-79376699D01*
X156651500Y-79406559D01*
X156651500Y-81100118D01*
X154668000Y-81100118D01*
X154668000Y-80549615D01*
X154663525Y-80534376D01*
X154662135Y-80533171D01*
X154654452Y-80531500D01*
X153392115Y-80531500D01*
X153376876Y-80535975D01*
X153375671Y-80537365D01*
X153374000Y-80545048D01*
X153374000Y-82548358D01*
X152866000Y-82548358D01*
X152866000Y-80549615D01*
X152861525Y-80534376D01*
X152860135Y-80533171D01*
X152852452Y-80531500D01*
X151590115Y-80531500D01*
X151574876Y-80535975D01*
X151573671Y-80537365D01*
X151572000Y-80545048D01*
X151572000Y-81097572D01*
X149588500Y-81097572D01*
X149588500Y-80005385D01*
X151572000Y-80005385D01*
X151576475Y-80020624D01*
X151577865Y-80021829D01*
X151585548Y-80023500D01*
X152847885Y-80023500D01*
X152863124Y-80019025D01*
X152864329Y-80017635D01*
X152866000Y-80009952D01*
X152866000Y-80005385D01*
X153374000Y-80005385D01*
X153378475Y-80020624D01*
X153379865Y-80021829D01*
X153387548Y-80023500D01*
X154649885Y-80023500D01*
X154665124Y-80019025D01*
X154666329Y-80017635D01*
X154668000Y-80009952D01*
X154668000Y-79457428D01*
X154667798Y-79452396D01*
X154653464Y-79274241D01*
X154651852Y-79264288D01*
X154594846Y-79032200D01*
X154591663Y-79022630D01*
X154498282Y-78802640D01*
X154493608Y-78793701D01*
X154366261Y-78591476D01*
X154360220Y-78583401D01*
X154202173Y-78404132D01*
X154194921Y-78397129D01*
X154010250Y-78245438D01*
X154001967Y-78239682D01*
X153795421Y-78119469D01*
X153786316Y-78115107D01*
X153563215Y-78029466D01*
X153553526Y-78026615D01*
X153391736Y-77992815D01*
X153377675Y-77993938D01*
X153374000Y-78004046D01*
X153374000Y-80005385D01*
X152866000Y-80005385D01*
X152866000Y-78006642D01*
X152861864Y-77992556D01*
X152848886Y-77990507D01*
X152823369Y-77993460D01*
X152813479Y-77995419D01*
X152583524Y-78060489D01*
X152574073Y-78064003D01*
X152357472Y-78165006D01*
X152348708Y-78169985D01*
X152151049Y-78304314D01*
X152143185Y-78310638D01*
X151969549Y-78474836D01*
X151962790Y-78482343D01*
X151817643Y-78672188D01*
X151812179Y-78680667D01*
X151699248Y-78891283D01*
X151695208Y-78900529D01*
X151617404Y-79126487D01*
X151614893Y-79136268D01*
X151574031Y-79372834D01*
X151573176Y-79380706D01*
X151572064Y-79405185D01*
X151572000Y-79408018D01*
X151572000Y-80005385D01*
X149588500Y-80005385D01*
X149588500Y-79454882D01*
X149588298Y-79452369D01*
X149573960Y-79274159D01*
X149573959Y-79274154D01*
X149573554Y-79269118D01*
X149514115Y-79027127D01*
X149416751Y-78797752D01*
X149329998Y-78659990D01*
X149286663Y-78591175D01*
X149286662Y-78591174D01*
X149283967Y-78586894D01*
X149119178Y-78399978D01*
X148926625Y-78241813D01*
X148711262Y-78116469D01*
X148567795Y-78061397D01*
X148483357Y-78028984D01*
X148483354Y-78028983D01*
X148478628Y-78027169D01*
X148234710Y-77976212D01*
X148229661Y-77975983D01*
X148229655Y-77975982D01*
X148115996Y-77970821D01*
X147985782Y-77964908D01*
X147980762Y-77965489D01*
X147980758Y-77965489D01*
X147890074Y-77975982D01*
X147738250Y-77993549D01*
X147733376Y-77994928D01*
X147733372Y-77994929D01*
X147503349Y-78060019D01*
X147503347Y-78060020D01*
X147498480Y-78061397D01*
X147493905Y-78063531D01*
X147493898Y-78063533D01*
X147344143Y-78133366D01*
X147272643Y-78166707D01*
X147268463Y-78169548D01*
X147268459Y-78169550D01*
X147070736Y-78303922D01*
X147066547Y-78306769D01*
X147062872Y-78310244D01*
X147062871Y-78310245D01*
X146971375Y-78396768D01*
X146885496Y-78477980D01*
X146882418Y-78482006D01*
X146882417Y-78482007D01*
X146737221Y-78671916D01*
X146737218Y-78671920D01*
X146734148Y-78675936D01*
X146616396Y-78895543D01*
X146614750Y-78900324D01*
X146614748Y-78900328D01*
X146569341Y-79032200D01*
X146535269Y-79131151D01*
X146534407Y-79136143D01*
X146510568Y-79274159D01*
X146492856Y-79376699D01*
X146491500Y-79406559D01*
X146491500Y-81100118D01*
X144508000Y-81100118D01*
X144508000Y-80549615D01*
X144503525Y-80534376D01*
X144502135Y-80533171D01*
X144494452Y-80531500D01*
X143232115Y-80531500D01*
X143216876Y-80535975D01*
X143215671Y-80537365D01*
X143214000Y-80545048D01*
X143214000Y-82548358D01*
X142706000Y-82548358D01*
X142706000Y-80549615D01*
X142701525Y-80534376D01*
X142700135Y-80533171D01*
X142692452Y-80531500D01*
X141430115Y-80531500D01*
X141414876Y-80535975D01*
X141413671Y-80537365D01*
X141412000Y-80545048D01*
X141412000Y-81097572D01*
X139428500Y-81097572D01*
X139428500Y-80005385D01*
X141412000Y-80005385D01*
X141416475Y-80020624D01*
X141417865Y-80021829D01*
X141425548Y-80023500D01*
X142687885Y-80023500D01*
X142703124Y-80019025D01*
X142704329Y-80017635D01*
X142706000Y-80009952D01*
X142706000Y-80005385D01*
X143214000Y-80005385D01*
X143218475Y-80020624D01*
X143219865Y-80021829D01*
X143227548Y-80023500D01*
X144489885Y-80023500D01*
X144505124Y-80019025D01*
X144506329Y-80017635D01*
X144508000Y-80009952D01*
X144508000Y-79457428D01*
X144507798Y-79452396D01*
X144493464Y-79274241D01*
X144491852Y-79264288D01*
X144434846Y-79032200D01*
X144431663Y-79022630D01*
X144338282Y-78802640D01*
X144333608Y-78793701D01*
X144206261Y-78591476D01*
X144200220Y-78583401D01*
X144042173Y-78404132D01*
X144034921Y-78397129D01*
X143850250Y-78245438D01*
X143841967Y-78239682D01*
X143635421Y-78119469D01*
X143626316Y-78115107D01*
X143403215Y-78029466D01*
X143393526Y-78026615D01*
X143231736Y-77992815D01*
X143217675Y-77993938D01*
X143214000Y-78004046D01*
X143214000Y-80005385D01*
X142706000Y-80005385D01*
X142706000Y-78006642D01*
X142701864Y-77992556D01*
X142688886Y-77990507D01*
X142663369Y-77993460D01*
X142653479Y-77995419D01*
X142423524Y-78060489D01*
X142414073Y-78064003D01*
X142197472Y-78165006D01*
X142188708Y-78169985D01*
X141991049Y-78304314D01*
X141983185Y-78310638D01*
X141809549Y-78474836D01*
X141802790Y-78482343D01*
X141657643Y-78672188D01*
X141652179Y-78680667D01*
X141539248Y-78891283D01*
X141535208Y-78900529D01*
X141457404Y-79126487D01*
X141454893Y-79136268D01*
X141414031Y-79372834D01*
X141413176Y-79380706D01*
X141412064Y-79405185D01*
X141412000Y-79408018D01*
X141412000Y-80005385D01*
X139428500Y-80005385D01*
X139428500Y-79454882D01*
X139428298Y-79452369D01*
X139413960Y-79274159D01*
X139413959Y-79274154D01*
X139413554Y-79269118D01*
X139354115Y-79027127D01*
X139256751Y-78797752D01*
X139169998Y-78659990D01*
X139126663Y-78591175D01*
X139126662Y-78591174D01*
X139123967Y-78586894D01*
X138959178Y-78399978D01*
X138766625Y-78241813D01*
X138551262Y-78116469D01*
X138407795Y-78061397D01*
X138323357Y-78028984D01*
X138323354Y-78028983D01*
X138318628Y-78027169D01*
X138074710Y-77976212D01*
X138069661Y-77975983D01*
X138069655Y-77975982D01*
X137955996Y-77970821D01*
X137825782Y-77964908D01*
X137820762Y-77965489D01*
X137820758Y-77965489D01*
X137730074Y-77975982D01*
X137578250Y-77993549D01*
X137573376Y-77994928D01*
X137573372Y-77994929D01*
X137343349Y-78060019D01*
X137343347Y-78060020D01*
X137338480Y-78061397D01*
X137333905Y-78063531D01*
X137333898Y-78063533D01*
X137184143Y-78133366D01*
X137112643Y-78166707D01*
X137108463Y-78169548D01*
X137108459Y-78169550D01*
X136910736Y-78303922D01*
X136906547Y-78306769D01*
X136902872Y-78310244D01*
X136902871Y-78310245D01*
X136811375Y-78396768D01*
X136725496Y-78477980D01*
X136722418Y-78482006D01*
X136722417Y-78482007D01*
X136577221Y-78671916D01*
X136577218Y-78671920D01*
X136574148Y-78675936D01*
X136456396Y-78895543D01*
X136454750Y-78900324D01*
X136454748Y-78900328D01*
X136409341Y-79032200D01*
X136375269Y-79131151D01*
X136374407Y-79136143D01*
X136350568Y-79274159D01*
X136332856Y-79376699D01*
X136331500Y-79406559D01*
X136331500Y-81100118D01*
X134348000Y-81100118D01*
X134348000Y-80549615D01*
X134343525Y-80534376D01*
X134342135Y-80533171D01*
X134334452Y-80531500D01*
X133072115Y-80531500D01*
X133056876Y-80535975D01*
X133055671Y-80537365D01*
X133054000Y-80545048D01*
X133054000Y-82548358D01*
X132546000Y-82548358D01*
X132546000Y-80549615D01*
X132541525Y-80534376D01*
X132540135Y-80533171D01*
X132532452Y-80531500D01*
X131270115Y-80531500D01*
X131254876Y-80535975D01*
X131253671Y-80537365D01*
X131252000Y-80545048D01*
X131252000Y-81097572D01*
X129268500Y-81097572D01*
X129268500Y-80005385D01*
X131252000Y-80005385D01*
X131256475Y-80020624D01*
X131257865Y-80021829D01*
X131265548Y-80023500D01*
X132527885Y-80023500D01*
X132543124Y-80019025D01*
X132544329Y-80017635D01*
X132546000Y-80009952D01*
X132546000Y-80005385D01*
X133054000Y-80005385D01*
X133058475Y-80020624D01*
X133059865Y-80021829D01*
X133067548Y-80023500D01*
X134329885Y-80023500D01*
X134345124Y-80019025D01*
X134346329Y-80017635D01*
X134348000Y-80009952D01*
X134348000Y-79457428D01*
X134347798Y-79452396D01*
X134333464Y-79274241D01*
X134331852Y-79264288D01*
X134274846Y-79032200D01*
X134271663Y-79022630D01*
X134178282Y-78802640D01*
X134173608Y-78793701D01*
X134046261Y-78591476D01*
X134040220Y-78583401D01*
X133882173Y-78404132D01*
X133874921Y-78397129D01*
X133690250Y-78245438D01*
X133681967Y-78239682D01*
X133475421Y-78119469D01*
X133466316Y-78115107D01*
X133243215Y-78029466D01*
X133233526Y-78026615D01*
X133071736Y-77992815D01*
X133057675Y-77993938D01*
X133054000Y-78004046D01*
X133054000Y-80005385D01*
X132546000Y-80005385D01*
X132546000Y-78006642D01*
X132541864Y-77992556D01*
X132528886Y-77990507D01*
X132503369Y-77993460D01*
X132493479Y-77995419D01*
X132263524Y-78060489D01*
X132254073Y-78064003D01*
X132037472Y-78165006D01*
X132028708Y-78169985D01*
X131831049Y-78304314D01*
X131823185Y-78310638D01*
X131649549Y-78474836D01*
X131642790Y-78482343D01*
X131497643Y-78672188D01*
X131492179Y-78680667D01*
X131379248Y-78891283D01*
X131375208Y-78900529D01*
X131297404Y-79126487D01*
X131294893Y-79136268D01*
X131254031Y-79372834D01*
X131253176Y-79380706D01*
X131252064Y-79405185D01*
X131252000Y-79408018D01*
X131252000Y-80005385D01*
X129268500Y-80005385D01*
X129268500Y-79454882D01*
X129268298Y-79452369D01*
X129253960Y-79274159D01*
X129253959Y-79274154D01*
X129253554Y-79269118D01*
X129194115Y-79027127D01*
X129096751Y-78797752D01*
X129009998Y-78659990D01*
X128966663Y-78591175D01*
X128966662Y-78591174D01*
X128963967Y-78586894D01*
X128799178Y-78399978D01*
X128606625Y-78241813D01*
X128391262Y-78116469D01*
X128247795Y-78061397D01*
X128163357Y-78028984D01*
X128163354Y-78028983D01*
X128158628Y-78027169D01*
X127914710Y-77976212D01*
X127909661Y-77975983D01*
X127909655Y-77975982D01*
X127795996Y-77970821D01*
X127665782Y-77964908D01*
X127660762Y-77965489D01*
X127660758Y-77965489D01*
X127570074Y-77975982D01*
X127418250Y-77993549D01*
X127413376Y-77994928D01*
X127413372Y-77994929D01*
X127183349Y-78060019D01*
X127183347Y-78060020D01*
X127178480Y-78061397D01*
X127173905Y-78063531D01*
X127173898Y-78063533D01*
X127024143Y-78133366D01*
X126952643Y-78166707D01*
X126948463Y-78169548D01*
X126948459Y-78169550D01*
X126750736Y-78303922D01*
X126746547Y-78306769D01*
X126742872Y-78310244D01*
X126742871Y-78310245D01*
X126651375Y-78396768D01*
X126565496Y-78477980D01*
X126562418Y-78482006D01*
X126562417Y-78482007D01*
X126417221Y-78671916D01*
X126417218Y-78671920D01*
X126414148Y-78675936D01*
X126296396Y-78895543D01*
X126294750Y-78900324D01*
X126294748Y-78900328D01*
X126249341Y-79032200D01*
X126215269Y-79131151D01*
X126214407Y-79136143D01*
X126190568Y-79274159D01*
X126172856Y-79376699D01*
X126171500Y-79406559D01*
X126171500Y-81100118D01*
X124188500Y-81100118D01*
X124188500Y-79454882D01*
X124188298Y-79452369D01*
X124173960Y-79274159D01*
X124173959Y-79274154D01*
X124173554Y-79269118D01*
X124114115Y-79027127D01*
X124016751Y-78797752D01*
X123929998Y-78659990D01*
X123886663Y-78591175D01*
X123886662Y-78591174D01*
X123883967Y-78586894D01*
X123719178Y-78399978D01*
X123526625Y-78241813D01*
X123311262Y-78116469D01*
X123167795Y-78061397D01*
X123083357Y-78028984D01*
X123083354Y-78028983D01*
X123078628Y-78027169D01*
X122834710Y-77976212D01*
X122829661Y-77975983D01*
X122829655Y-77975982D01*
X122715996Y-77970821D01*
X122585782Y-77964908D01*
X122580762Y-77965489D01*
X122580758Y-77965489D01*
X122490074Y-77975982D01*
X122338250Y-77993549D01*
X122333376Y-77994928D01*
X122333372Y-77994929D01*
X122103349Y-78060019D01*
X122103347Y-78060020D01*
X122098480Y-78061397D01*
X122093905Y-78063531D01*
X122093898Y-78063533D01*
X121944143Y-78133366D01*
X121872643Y-78166707D01*
X121868463Y-78169548D01*
X121868459Y-78169550D01*
X121670736Y-78303922D01*
X121666547Y-78306769D01*
X121662872Y-78310244D01*
X121662871Y-78310245D01*
X121571375Y-78396768D01*
X121485496Y-78477980D01*
X121482418Y-78482006D01*
X121482417Y-78482007D01*
X121337221Y-78671916D01*
X121337218Y-78671920D01*
X121334148Y-78675936D01*
X121216396Y-78895543D01*
X121214750Y-78900324D01*
X121214748Y-78900328D01*
X121169341Y-79032200D01*
X121135269Y-79131151D01*
X121134407Y-79136143D01*
X121110568Y-79274159D01*
X121092856Y-79376699D01*
X121091500Y-79406559D01*
X121091500Y-81100118D01*
X119008500Y-81100118D01*
X119008500Y-74100118D01*
X121091500Y-74100118D01*
X121091702Y-74102626D01*
X121091702Y-74102631D01*
X121097472Y-74174339D01*
X121106446Y-74285882D01*
X121165885Y-74527873D01*
X121263249Y-74757248D01*
X121396033Y-74968106D01*
X121560822Y-75155022D01*
X121753375Y-75313187D01*
X121968738Y-75438531D01*
X122085055Y-75483181D01*
X122196643Y-75526016D01*
X122196646Y-75526017D01*
X122201372Y-75527831D01*
X122445290Y-75578788D01*
X122450339Y-75579017D01*
X122450345Y-75579018D01*
X122564004Y-75584179D01*
X122694218Y-75590092D01*
X122699238Y-75589511D01*
X122699242Y-75589511D01*
X122822543Y-75575244D01*
X122941750Y-75561451D01*
X122946624Y-75560072D01*
X122946628Y-75560071D01*
X123176651Y-75494981D01*
X123176653Y-75494980D01*
X123181520Y-75493603D01*
X123186095Y-75491469D01*
X123186102Y-75491467D01*
X123402776Y-75390429D01*
X123407357Y-75388293D01*
X123411537Y-75385452D01*
X123411541Y-75385450D01*
X123609264Y-75251078D01*
X123609265Y-75251077D01*
X123613453Y-75248231D01*
X123794504Y-75077020D01*
X123861960Y-74988791D01*
X123942779Y-74883084D01*
X123942782Y-74883080D01*
X123945852Y-74879064D01*
X124063604Y-74659457D01*
X124108913Y-74527873D01*
X124143082Y-74428638D01*
X124144731Y-74423849D01*
X124162482Y-74321079D01*
X124186469Y-74182211D01*
X124186470Y-74182205D01*
X124187144Y-74178301D01*
X124188500Y-74148441D01*
X124188500Y-74100118D01*
X126171500Y-74100118D01*
X126171702Y-74102626D01*
X126171702Y-74102631D01*
X126177472Y-74174339D01*
X126186446Y-74285882D01*
X126245885Y-74527873D01*
X126343249Y-74757248D01*
X126476033Y-74968106D01*
X126640822Y-75155022D01*
X126833375Y-75313187D01*
X127048738Y-75438531D01*
X127165055Y-75483181D01*
X127276643Y-75526016D01*
X127276646Y-75526017D01*
X127281372Y-75527831D01*
X127525290Y-75578788D01*
X127530339Y-75579017D01*
X127530345Y-75579018D01*
X127644004Y-75584179D01*
X127774218Y-75590092D01*
X127779238Y-75589511D01*
X127779242Y-75589511D01*
X127902543Y-75575244D01*
X128021750Y-75561451D01*
X128026624Y-75560072D01*
X128026628Y-75560071D01*
X128256651Y-75494981D01*
X128256653Y-75494980D01*
X128261520Y-75493603D01*
X128266095Y-75491469D01*
X128266102Y-75491467D01*
X128482776Y-75390429D01*
X128487357Y-75388293D01*
X128491537Y-75385452D01*
X128491541Y-75385450D01*
X128689264Y-75251078D01*
X128689265Y-75251077D01*
X128693453Y-75248231D01*
X128874504Y-75077020D01*
X128941960Y-74988791D01*
X129022779Y-74883084D01*
X129022782Y-74883080D01*
X129025852Y-74879064D01*
X129143604Y-74659457D01*
X129188913Y-74527873D01*
X129223082Y-74428638D01*
X129224731Y-74423849D01*
X129242482Y-74321079D01*
X129266469Y-74182211D01*
X129266470Y-74182205D01*
X129267144Y-74178301D01*
X129268500Y-74148441D01*
X129268500Y-74100118D01*
X131251500Y-74100118D01*
X131251702Y-74102626D01*
X131251702Y-74102631D01*
X131257472Y-74174339D01*
X131266446Y-74285882D01*
X131325885Y-74527873D01*
X131423249Y-74757248D01*
X131556033Y-74968106D01*
X131720822Y-75155022D01*
X131913375Y-75313187D01*
X132128738Y-75438531D01*
X132245055Y-75483181D01*
X132356643Y-75526016D01*
X132356646Y-75526017D01*
X132361372Y-75527831D01*
X132605290Y-75578788D01*
X132610339Y-75579017D01*
X132610345Y-75579018D01*
X132724004Y-75584179D01*
X132854218Y-75590092D01*
X132859238Y-75589511D01*
X132859242Y-75589511D01*
X132982543Y-75575244D01*
X133101750Y-75561451D01*
X133106624Y-75560072D01*
X133106628Y-75560071D01*
X133336651Y-75494981D01*
X133336653Y-75494980D01*
X133341520Y-75493603D01*
X133346095Y-75491469D01*
X133346102Y-75491467D01*
X133562776Y-75390429D01*
X133567357Y-75388293D01*
X133571537Y-75385452D01*
X133571541Y-75385450D01*
X133769264Y-75251078D01*
X133769265Y-75251077D01*
X133773453Y-75248231D01*
X133954504Y-75077020D01*
X134021960Y-74988791D01*
X134102779Y-74883084D01*
X134102782Y-74883080D01*
X134105852Y-74879064D01*
X134223604Y-74659457D01*
X134268913Y-74527873D01*
X134303082Y-74428638D01*
X134304731Y-74423849D01*
X134322482Y-74321079D01*
X134346469Y-74182211D01*
X134346470Y-74182205D01*
X134347144Y-74178301D01*
X134348500Y-74148441D01*
X134348500Y-74100118D01*
X136331500Y-74100118D01*
X136331702Y-74102626D01*
X136331702Y-74102631D01*
X136337472Y-74174339D01*
X136346446Y-74285882D01*
X136405885Y-74527873D01*
X136503249Y-74757248D01*
X136636033Y-74968106D01*
X136800822Y-75155022D01*
X136993375Y-75313187D01*
X137208738Y-75438531D01*
X137325055Y-75483181D01*
X137436643Y-75526016D01*
X137436646Y-75526017D01*
X137441372Y-75527831D01*
X137685290Y-75578788D01*
X137690339Y-75579017D01*
X137690345Y-75579018D01*
X137804004Y-75584179D01*
X137934218Y-75590092D01*
X137939238Y-75589511D01*
X137939242Y-75589511D01*
X138062543Y-75575244D01*
X138181750Y-75561451D01*
X138186624Y-75560072D01*
X138186628Y-75560071D01*
X138416651Y-75494981D01*
X138416653Y-75494980D01*
X138421520Y-75493603D01*
X138426095Y-75491469D01*
X138426102Y-75491467D01*
X138642776Y-75390429D01*
X138647357Y-75388293D01*
X138651537Y-75385452D01*
X138651541Y-75385450D01*
X138849264Y-75251078D01*
X138849265Y-75251077D01*
X138853453Y-75248231D01*
X139034504Y-75077020D01*
X139101960Y-74988791D01*
X139182779Y-74883084D01*
X139182782Y-74883080D01*
X139185852Y-74879064D01*
X139303604Y-74659457D01*
X139348913Y-74527873D01*
X139383082Y-74428638D01*
X139384731Y-74423849D01*
X139402482Y-74321079D01*
X139426469Y-74182211D01*
X139426470Y-74182205D01*
X139427144Y-74178301D01*
X139428500Y-74148441D01*
X139428500Y-74100118D01*
X141411500Y-74100118D01*
X141411702Y-74102626D01*
X141411702Y-74102631D01*
X141417472Y-74174339D01*
X141426446Y-74285882D01*
X141485885Y-74527873D01*
X141583249Y-74757248D01*
X141716033Y-74968106D01*
X141880822Y-75155022D01*
X142073375Y-75313187D01*
X142288738Y-75438531D01*
X142405055Y-75483181D01*
X142516643Y-75526016D01*
X142516646Y-75526017D01*
X142521372Y-75527831D01*
X142765290Y-75578788D01*
X142770339Y-75579017D01*
X142770345Y-75579018D01*
X142884004Y-75584179D01*
X143014218Y-75590092D01*
X143019238Y-75589511D01*
X143019242Y-75589511D01*
X143142543Y-75575244D01*
X143261750Y-75561451D01*
X143266624Y-75560072D01*
X143266628Y-75560071D01*
X143496651Y-75494981D01*
X143496653Y-75494980D01*
X143501520Y-75493603D01*
X143506095Y-75491469D01*
X143506102Y-75491467D01*
X143722776Y-75390429D01*
X143727357Y-75388293D01*
X143731537Y-75385452D01*
X143731541Y-75385450D01*
X143929264Y-75251078D01*
X143929265Y-75251077D01*
X143933453Y-75248231D01*
X144114504Y-75077020D01*
X144181960Y-74988791D01*
X144262779Y-74883084D01*
X144262782Y-74883080D01*
X144265852Y-74879064D01*
X144383604Y-74659457D01*
X144428913Y-74527873D01*
X144463082Y-74428638D01*
X144464731Y-74423849D01*
X144482482Y-74321079D01*
X144506469Y-74182211D01*
X144506470Y-74182205D01*
X144507144Y-74178301D01*
X144508500Y-74148441D01*
X144508500Y-74100118D01*
X146491500Y-74100118D01*
X146491702Y-74102626D01*
X146491702Y-74102631D01*
X146497472Y-74174339D01*
X146506446Y-74285882D01*
X146565885Y-74527873D01*
X146663249Y-74757248D01*
X146796033Y-74968106D01*
X146960822Y-75155022D01*
X147153375Y-75313187D01*
X147368738Y-75438531D01*
X147485055Y-75483181D01*
X147596643Y-75526016D01*
X147596646Y-75526017D01*
X147601372Y-75527831D01*
X147845290Y-75578788D01*
X147850339Y-75579017D01*
X147850345Y-75579018D01*
X147964004Y-75584179D01*
X148094218Y-75590092D01*
X148099238Y-75589511D01*
X148099242Y-75589511D01*
X148222543Y-75575244D01*
X148341750Y-75561451D01*
X148346624Y-75560072D01*
X148346628Y-75560071D01*
X148576651Y-75494981D01*
X148576653Y-75494980D01*
X148581520Y-75493603D01*
X148586095Y-75491469D01*
X148586102Y-75491467D01*
X148802776Y-75390429D01*
X148807357Y-75388293D01*
X148811537Y-75385452D01*
X148811541Y-75385450D01*
X149009264Y-75251078D01*
X149009265Y-75251077D01*
X149013453Y-75248231D01*
X149194504Y-75077020D01*
X149261960Y-74988791D01*
X149342779Y-74883084D01*
X149342782Y-74883080D01*
X149345852Y-74879064D01*
X149463604Y-74659457D01*
X149508913Y-74527873D01*
X149543082Y-74428638D01*
X149544731Y-74423849D01*
X149562482Y-74321079D01*
X149586469Y-74182211D01*
X149586470Y-74182205D01*
X149587144Y-74178301D01*
X149588500Y-74148441D01*
X149588500Y-74100118D01*
X151571500Y-74100118D01*
X151571702Y-74102626D01*
X151571702Y-74102631D01*
X151577472Y-74174339D01*
X151586446Y-74285882D01*
X151645885Y-74527873D01*
X151743249Y-74757248D01*
X151876033Y-74968106D01*
X152040822Y-75155022D01*
X152233375Y-75313187D01*
X152448738Y-75438531D01*
X152565055Y-75483181D01*
X152676643Y-75526016D01*
X152676646Y-75526017D01*
X152681372Y-75527831D01*
X152925290Y-75578788D01*
X152930339Y-75579017D01*
X152930345Y-75579018D01*
X153044004Y-75584179D01*
X153174218Y-75590092D01*
X153179238Y-75589511D01*
X153179242Y-75589511D01*
X153302543Y-75575244D01*
X153421750Y-75561451D01*
X153426624Y-75560072D01*
X153426628Y-75560071D01*
X153656651Y-75494981D01*
X153656653Y-75494980D01*
X153661520Y-75493603D01*
X153666095Y-75491469D01*
X153666102Y-75491467D01*
X153882776Y-75390429D01*
X153887357Y-75388293D01*
X153891537Y-75385452D01*
X153891541Y-75385450D01*
X154089264Y-75251078D01*
X154089265Y-75251077D01*
X154093453Y-75248231D01*
X154274504Y-75077020D01*
X154341960Y-74988791D01*
X154422779Y-74883084D01*
X154422782Y-74883080D01*
X154425852Y-74879064D01*
X154543604Y-74659457D01*
X154588913Y-74527873D01*
X154623082Y-74428638D01*
X154624731Y-74423849D01*
X154642482Y-74321079D01*
X154666469Y-74182211D01*
X154666470Y-74182205D01*
X154667144Y-74178301D01*
X154668500Y-74148441D01*
X154668500Y-74100118D01*
X156651500Y-74100118D01*
X156651702Y-74102626D01*
X156651702Y-74102631D01*
X156657472Y-74174339D01*
X156666446Y-74285882D01*
X156725885Y-74527873D01*
X156823249Y-74757248D01*
X156956033Y-74968106D01*
X157120822Y-75155022D01*
X157313375Y-75313187D01*
X157528738Y-75438531D01*
X157645055Y-75483181D01*
X157756643Y-75526016D01*
X157756646Y-75526017D01*
X157761372Y-75527831D01*
X158005290Y-75578788D01*
X158010339Y-75579017D01*
X158010345Y-75579018D01*
X158124004Y-75584179D01*
X158254218Y-75590092D01*
X158259238Y-75589511D01*
X158259242Y-75589511D01*
X158382543Y-75575244D01*
X158501750Y-75561451D01*
X158506624Y-75560072D01*
X158506628Y-75560071D01*
X158736651Y-75494981D01*
X158736653Y-75494980D01*
X158741520Y-75493603D01*
X158746095Y-75491469D01*
X158746102Y-75491467D01*
X158962776Y-75390429D01*
X158967357Y-75388293D01*
X158971537Y-75385452D01*
X158971541Y-75385450D01*
X159169264Y-75251078D01*
X159169265Y-75251077D01*
X159173453Y-75248231D01*
X159354504Y-75077020D01*
X159421960Y-74988791D01*
X159502779Y-74883084D01*
X159502782Y-74883080D01*
X159505852Y-74879064D01*
X159623604Y-74659457D01*
X159668913Y-74527873D01*
X159703082Y-74428638D01*
X159704731Y-74423849D01*
X159722482Y-74321079D01*
X159746469Y-74182211D01*
X159746470Y-74182205D01*
X159747144Y-74178301D01*
X159748500Y-74148441D01*
X159748500Y-74100118D01*
X161731500Y-74100118D01*
X161731702Y-74102626D01*
X161731702Y-74102631D01*
X161737472Y-74174339D01*
X161746446Y-74285882D01*
X161805885Y-74527873D01*
X161903249Y-74757248D01*
X162036033Y-74968106D01*
X162200822Y-75155022D01*
X162393375Y-75313187D01*
X162608738Y-75438531D01*
X162725055Y-75483181D01*
X162836643Y-75526016D01*
X162836646Y-75526017D01*
X162841372Y-75527831D01*
X163085290Y-75578788D01*
X163090339Y-75579017D01*
X163090345Y-75579018D01*
X163204004Y-75584179D01*
X163334218Y-75590092D01*
X163339238Y-75589511D01*
X163339242Y-75589511D01*
X163462543Y-75575244D01*
X163581750Y-75561451D01*
X163586624Y-75560072D01*
X163586628Y-75560071D01*
X163816651Y-75494981D01*
X163816653Y-75494980D01*
X163821520Y-75493603D01*
X163826095Y-75491469D01*
X163826102Y-75491467D01*
X164042776Y-75390429D01*
X164047357Y-75388293D01*
X164051537Y-75385452D01*
X164051541Y-75385450D01*
X164249264Y-75251078D01*
X164249265Y-75251077D01*
X164253453Y-75248231D01*
X164434504Y-75077020D01*
X164501960Y-74988791D01*
X164582779Y-74883084D01*
X164582782Y-74883080D01*
X164585852Y-74879064D01*
X164588247Y-74874598D01*
X166812000Y-74874598D01*
X166812337Y-74881113D01*
X166822256Y-74976705D01*
X166825150Y-74990104D01*
X166876588Y-75144285D01*
X166882762Y-75157464D01*
X166968063Y-75295310D01*
X166977099Y-75306709D01*
X167091828Y-75421238D01*
X167103239Y-75430250D01*
X167241242Y-75515316D01*
X167254423Y-75521463D01*
X167408709Y-75572638D01*
X167422085Y-75575505D01*
X167516437Y-75585172D01*
X167522853Y-75585500D01*
X168087885Y-75585500D01*
X168103124Y-75581025D01*
X168104329Y-75579635D01*
X168106000Y-75571952D01*
X168106000Y-75567385D01*
X168614000Y-75567385D01*
X168618475Y-75582624D01*
X168619865Y-75583829D01*
X168627548Y-75585500D01*
X169197098Y-75585500D01*
X169203613Y-75585163D01*
X169299205Y-75575244D01*
X169312604Y-75572350D01*
X169466785Y-75520912D01*
X169479964Y-75514738D01*
X169617810Y-75429437D01*
X169629209Y-75420401D01*
X169743738Y-75305672D01*
X169752750Y-75294261D01*
X169837816Y-75156258D01*
X169843963Y-75143077D01*
X169895138Y-74988791D01*
X169898005Y-74975415D01*
X169907672Y-74881063D01*
X169908000Y-74874647D01*
X169908000Y-73549615D01*
X169903525Y-73534376D01*
X169902135Y-73533171D01*
X169894452Y-73531500D01*
X168632115Y-73531500D01*
X168616876Y-73535975D01*
X168615671Y-73537365D01*
X168614000Y-73545048D01*
X168614000Y-75567385D01*
X168106000Y-75567385D01*
X168106000Y-73549615D01*
X168101525Y-73534376D01*
X168100135Y-73533171D01*
X168092452Y-73531500D01*
X166830115Y-73531500D01*
X166814876Y-73535975D01*
X166813671Y-73537365D01*
X166812000Y-73545048D01*
X166812000Y-74874598D01*
X164588247Y-74874598D01*
X164703604Y-74659457D01*
X164748913Y-74527873D01*
X164783082Y-74428638D01*
X164784731Y-74423849D01*
X164802482Y-74321079D01*
X164826469Y-74182211D01*
X164826470Y-74182205D01*
X164827144Y-74178301D01*
X164828500Y-74148441D01*
X164828500Y-73005385D01*
X166812000Y-73005385D01*
X166816475Y-73020624D01*
X166817865Y-73021829D01*
X166825548Y-73023500D01*
X168087885Y-73023500D01*
X168103124Y-73019025D01*
X168104329Y-73017635D01*
X168106000Y-73009952D01*
X168106000Y-73005385D01*
X168614000Y-73005385D01*
X168618475Y-73020624D01*
X168619865Y-73021829D01*
X168627548Y-73023500D01*
X169889885Y-73023500D01*
X169905124Y-73019025D01*
X169906329Y-73017635D01*
X169908000Y-73009952D01*
X169908000Y-71680402D01*
X169907663Y-71673887D01*
X169897744Y-71578295D01*
X169894850Y-71564896D01*
X169843412Y-71410715D01*
X169837238Y-71397536D01*
X169751937Y-71259690D01*
X169742901Y-71248291D01*
X169628172Y-71133762D01*
X169616761Y-71124750D01*
X169478758Y-71039684D01*
X169465577Y-71033537D01*
X169311291Y-70982362D01*
X169297915Y-70979495D01*
X169203563Y-70969828D01*
X169197146Y-70969500D01*
X168632115Y-70969500D01*
X168616876Y-70973975D01*
X168615671Y-70975365D01*
X168614000Y-70983048D01*
X168614000Y-73005385D01*
X168106000Y-73005385D01*
X168106000Y-70987615D01*
X168101525Y-70972376D01*
X168100135Y-70971171D01*
X168092452Y-70969500D01*
X167522902Y-70969500D01*
X167516387Y-70969837D01*
X167420795Y-70979756D01*
X167407396Y-70982650D01*
X167253215Y-71034088D01*
X167240036Y-71040262D01*
X167102190Y-71125563D01*
X167090791Y-71134599D01*
X166976262Y-71249328D01*
X166967250Y-71260739D01*
X166882184Y-71398742D01*
X166876037Y-71411923D01*
X166824862Y-71566209D01*
X166821995Y-71579585D01*
X166812328Y-71673937D01*
X166812000Y-71680354D01*
X166812000Y-73005385D01*
X164828500Y-73005385D01*
X164828500Y-72454882D01*
X164824498Y-72405140D01*
X164813960Y-72274159D01*
X164813959Y-72274154D01*
X164813554Y-72269118D01*
X164754115Y-72027127D01*
X164656751Y-71797752D01*
X164523967Y-71586894D01*
X164359178Y-71399978D01*
X164166625Y-71241813D01*
X163951262Y-71116469D01*
X163804205Y-71060019D01*
X163723357Y-71028984D01*
X163723354Y-71028983D01*
X163718628Y-71027169D01*
X163474710Y-70976212D01*
X163469661Y-70975983D01*
X163469655Y-70975982D01*
X163355996Y-70970821D01*
X163225782Y-70964908D01*
X163220762Y-70965489D01*
X163220758Y-70965489D01*
X163130074Y-70975982D01*
X162978250Y-70993549D01*
X162973376Y-70994928D01*
X162973372Y-70994929D01*
X162743349Y-71060019D01*
X162743347Y-71060020D01*
X162738480Y-71061397D01*
X162733905Y-71063531D01*
X162733898Y-71063533D01*
X162562131Y-71143630D01*
X162512643Y-71166707D01*
X162508463Y-71169548D01*
X162508459Y-71169550D01*
X162402127Y-71241813D01*
X162306547Y-71306769D01*
X162125496Y-71477980D01*
X162122418Y-71482006D01*
X162122417Y-71482007D01*
X161977221Y-71671916D01*
X161977218Y-71671920D01*
X161974148Y-71675936D01*
X161856396Y-71895543D01*
X161854750Y-71900324D01*
X161854748Y-71900328D01*
X161777256Y-72125382D01*
X161775269Y-72131151D01*
X161774407Y-72136143D01*
X161750568Y-72274159D01*
X161732856Y-72376699D01*
X161731500Y-72406559D01*
X161731500Y-74100118D01*
X159748500Y-74100118D01*
X159748500Y-72454882D01*
X159744498Y-72405140D01*
X159733960Y-72274159D01*
X159733959Y-72274154D01*
X159733554Y-72269118D01*
X159674115Y-72027127D01*
X159576751Y-71797752D01*
X159443967Y-71586894D01*
X159279178Y-71399978D01*
X159086625Y-71241813D01*
X158871262Y-71116469D01*
X158724205Y-71060019D01*
X158643357Y-71028984D01*
X158643354Y-71028983D01*
X158638628Y-71027169D01*
X158394710Y-70976212D01*
X158389661Y-70975983D01*
X158389655Y-70975982D01*
X158275996Y-70970821D01*
X158145782Y-70964908D01*
X158140762Y-70965489D01*
X158140758Y-70965489D01*
X158050074Y-70975982D01*
X157898250Y-70993549D01*
X157893376Y-70994928D01*
X157893372Y-70994929D01*
X157663349Y-71060019D01*
X157663347Y-71060020D01*
X157658480Y-71061397D01*
X157653905Y-71063531D01*
X157653898Y-71063533D01*
X157482131Y-71143630D01*
X157432643Y-71166707D01*
X157428463Y-71169548D01*
X157428459Y-71169550D01*
X157322127Y-71241813D01*
X157226547Y-71306769D01*
X157045496Y-71477980D01*
X157042418Y-71482006D01*
X157042417Y-71482007D01*
X156897221Y-71671916D01*
X156897218Y-71671920D01*
X156894148Y-71675936D01*
X156776396Y-71895543D01*
X156774750Y-71900324D01*
X156774748Y-71900328D01*
X156697256Y-72125382D01*
X156695269Y-72131151D01*
X156694407Y-72136143D01*
X156670568Y-72274159D01*
X156652856Y-72376699D01*
X156651500Y-72406559D01*
X156651500Y-74100118D01*
X154668500Y-74100118D01*
X154668500Y-72454882D01*
X154664498Y-72405140D01*
X154653960Y-72274159D01*
X154653959Y-72274154D01*
X154653554Y-72269118D01*
X154594115Y-72027127D01*
X154496751Y-71797752D01*
X154363967Y-71586894D01*
X154199178Y-71399978D01*
X154006625Y-71241813D01*
X153791262Y-71116469D01*
X153644205Y-71060019D01*
X153563357Y-71028984D01*
X153563354Y-71028983D01*
X153558628Y-71027169D01*
X153314710Y-70976212D01*
X153309661Y-70975983D01*
X153309655Y-70975982D01*
X153195996Y-70970821D01*
X153065782Y-70964908D01*
X153060762Y-70965489D01*
X153060758Y-70965489D01*
X152970074Y-70975982D01*
X152818250Y-70993549D01*
X152813376Y-70994928D01*
X152813372Y-70994929D01*
X152583349Y-71060019D01*
X152583347Y-71060020D01*
X152578480Y-71061397D01*
X152573905Y-71063531D01*
X152573898Y-71063533D01*
X152402131Y-71143630D01*
X152352643Y-71166707D01*
X152348463Y-71169548D01*
X152348459Y-71169550D01*
X152242127Y-71241813D01*
X152146547Y-71306769D01*
X151965496Y-71477980D01*
X151962418Y-71482006D01*
X151962417Y-71482007D01*
X151817221Y-71671916D01*
X151817218Y-71671920D01*
X151814148Y-71675936D01*
X151696396Y-71895543D01*
X151694750Y-71900324D01*
X151694748Y-71900328D01*
X151617256Y-72125382D01*
X151615269Y-72131151D01*
X151614407Y-72136143D01*
X151590568Y-72274159D01*
X151572856Y-72376699D01*
X151571500Y-72406559D01*
X151571500Y-74100118D01*
X149588500Y-74100118D01*
X149588500Y-72454882D01*
X149584498Y-72405140D01*
X149573960Y-72274159D01*
X149573959Y-72274154D01*
X149573554Y-72269118D01*
X149514115Y-72027127D01*
X149416751Y-71797752D01*
X149283967Y-71586894D01*
X149119178Y-71399978D01*
X148926625Y-71241813D01*
X148711262Y-71116469D01*
X148564205Y-71060019D01*
X148483357Y-71028984D01*
X148483354Y-71028983D01*
X148478628Y-71027169D01*
X148234710Y-70976212D01*
X148229661Y-70975983D01*
X148229655Y-70975982D01*
X148115996Y-70970821D01*
X147985782Y-70964908D01*
X147980762Y-70965489D01*
X147980758Y-70965489D01*
X147890074Y-70975982D01*
X147738250Y-70993549D01*
X147733376Y-70994928D01*
X147733372Y-70994929D01*
X147503349Y-71060019D01*
X147503347Y-71060020D01*
X147498480Y-71061397D01*
X147493905Y-71063531D01*
X147493898Y-71063533D01*
X147322131Y-71143630D01*
X147272643Y-71166707D01*
X147268463Y-71169548D01*
X147268459Y-71169550D01*
X147162127Y-71241813D01*
X147066547Y-71306769D01*
X146885496Y-71477980D01*
X146882418Y-71482006D01*
X146882417Y-71482007D01*
X146737221Y-71671916D01*
X146737218Y-71671920D01*
X146734148Y-71675936D01*
X146616396Y-71895543D01*
X146614750Y-71900324D01*
X146614748Y-71900328D01*
X146537256Y-72125382D01*
X146535269Y-72131151D01*
X146534407Y-72136143D01*
X146510568Y-72274159D01*
X146492856Y-72376699D01*
X146491500Y-72406559D01*
X146491500Y-74100118D01*
X144508500Y-74100118D01*
X144508500Y-72454882D01*
X144504498Y-72405140D01*
X144493960Y-72274159D01*
X144493959Y-72274154D01*
X144493554Y-72269118D01*
X144434115Y-72027127D01*
X144336751Y-71797752D01*
X144203967Y-71586894D01*
X144039178Y-71399978D01*
X143846625Y-71241813D01*
X143631262Y-71116469D01*
X143484205Y-71060019D01*
X143403357Y-71028984D01*
X143403354Y-71028983D01*
X143398628Y-71027169D01*
X143154710Y-70976212D01*
X143149661Y-70975983D01*
X143149655Y-70975982D01*
X143035996Y-70970821D01*
X142905782Y-70964908D01*
X142900762Y-70965489D01*
X142900758Y-70965489D01*
X142810074Y-70975982D01*
X142658250Y-70993549D01*
X142653376Y-70994928D01*
X142653372Y-70994929D01*
X142423349Y-71060019D01*
X142423347Y-71060020D01*
X142418480Y-71061397D01*
X142413905Y-71063531D01*
X142413898Y-71063533D01*
X142242131Y-71143630D01*
X142192643Y-71166707D01*
X142188463Y-71169548D01*
X142188459Y-71169550D01*
X142082127Y-71241813D01*
X141986547Y-71306769D01*
X141805496Y-71477980D01*
X141802418Y-71482006D01*
X141802417Y-71482007D01*
X141657221Y-71671916D01*
X141657218Y-71671920D01*
X141654148Y-71675936D01*
X141536396Y-71895543D01*
X141534750Y-71900324D01*
X141534748Y-71900328D01*
X141457256Y-72125382D01*
X141455269Y-72131151D01*
X141454407Y-72136143D01*
X141430568Y-72274159D01*
X141412856Y-72376699D01*
X141411500Y-72406559D01*
X141411500Y-74100118D01*
X139428500Y-74100118D01*
X139428500Y-72454882D01*
X139424498Y-72405140D01*
X139413960Y-72274159D01*
X139413959Y-72274154D01*
X139413554Y-72269118D01*
X139354115Y-72027127D01*
X139256751Y-71797752D01*
X139123967Y-71586894D01*
X138959178Y-71399978D01*
X138766625Y-71241813D01*
X138551262Y-71116469D01*
X138404205Y-71060019D01*
X138323357Y-71028984D01*
X138323354Y-71028983D01*
X138318628Y-71027169D01*
X138074710Y-70976212D01*
X138069661Y-70975983D01*
X138069655Y-70975982D01*
X137955996Y-70970821D01*
X137825782Y-70964908D01*
X137820762Y-70965489D01*
X137820758Y-70965489D01*
X137730074Y-70975982D01*
X137578250Y-70993549D01*
X137573376Y-70994928D01*
X137573372Y-70994929D01*
X137343349Y-71060019D01*
X137343347Y-71060020D01*
X137338480Y-71061397D01*
X137333905Y-71063531D01*
X137333898Y-71063533D01*
X137162131Y-71143630D01*
X137112643Y-71166707D01*
X137108463Y-71169548D01*
X137108459Y-71169550D01*
X137002127Y-71241813D01*
X136906547Y-71306769D01*
X136725496Y-71477980D01*
X136722418Y-71482006D01*
X136722417Y-71482007D01*
X136577221Y-71671916D01*
X136577218Y-71671920D01*
X136574148Y-71675936D01*
X136456396Y-71895543D01*
X136454750Y-71900324D01*
X136454748Y-71900328D01*
X136377256Y-72125382D01*
X136375269Y-72131151D01*
X136374407Y-72136143D01*
X136350568Y-72274159D01*
X136332856Y-72376699D01*
X136331500Y-72406559D01*
X136331500Y-74100118D01*
X134348500Y-74100118D01*
X134348500Y-72454882D01*
X134344498Y-72405140D01*
X134333960Y-72274159D01*
X134333959Y-72274154D01*
X134333554Y-72269118D01*
X134274115Y-72027127D01*
X134176751Y-71797752D01*
X134043967Y-71586894D01*
X133879178Y-71399978D01*
X133686625Y-71241813D01*
X133471262Y-71116469D01*
X133324205Y-71060019D01*
X133243357Y-71028984D01*
X133243354Y-71028983D01*
X133238628Y-71027169D01*
X132994710Y-70976212D01*
X132989661Y-70975983D01*
X132989655Y-70975982D01*
X132875996Y-70970821D01*
X132745782Y-70964908D01*
X132740762Y-70965489D01*
X132740758Y-70965489D01*
X132650074Y-70975982D01*
X132498250Y-70993549D01*
X132493376Y-70994928D01*
X132493372Y-70994929D01*
X132263349Y-71060019D01*
X132263347Y-71060020D01*
X132258480Y-71061397D01*
X132253905Y-71063531D01*
X132253898Y-71063533D01*
X132082131Y-71143630D01*
X132032643Y-71166707D01*
X132028463Y-71169548D01*
X132028459Y-71169550D01*
X131922127Y-71241813D01*
X131826547Y-71306769D01*
X131645496Y-71477980D01*
X131642418Y-71482006D01*
X131642417Y-71482007D01*
X131497221Y-71671916D01*
X131497218Y-71671920D01*
X131494148Y-71675936D01*
X131376396Y-71895543D01*
X131374750Y-71900324D01*
X131374748Y-71900328D01*
X131297256Y-72125382D01*
X131295269Y-72131151D01*
X131294407Y-72136143D01*
X131270568Y-72274159D01*
X131252856Y-72376699D01*
X131251500Y-72406559D01*
X131251500Y-74100118D01*
X129268500Y-74100118D01*
X129268500Y-72454882D01*
X129264498Y-72405140D01*
X129253960Y-72274159D01*
X129253959Y-72274154D01*
X129253554Y-72269118D01*
X129194115Y-72027127D01*
X129096751Y-71797752D01*
X128963967Y-71586894D01*
X128799178Y-71399978D01*
X128606625Y-71241813D01*
X128391262Y-71116469D01*
X128244205Y-71060019D01*
X128163357Y-71028984D01*
X128163354Y-71028983D01*
X128158628Y-71027169D01*
X127914710Y-70976212D01*
X127909661Y-70975983D01*
X127909655Y-70975982D01*
X127795996Y-70970821D01*
X127665782Y-70964908D01*
X127660762Y-70965489D01*
X127660758Y-70965489D01*
X127570074Y-70975982D01*
X127418250Y-70993549D01*
X127413376Y-70994928D01*
X127413372Y-70994929D01*
X127183349Y-71060019D01*
X127183347Y-71060020D01*
X127178480Y-71061397D01*
X127173905Y-71063531D01*
X127173898Y-71063533D01*
X127002131Y-71143630D01*
X126952643Y-71166707D01*
X126948463Y-71169548D01*
X126948459Y-71169550D01*
X126842127Y-71241813D01*
X126746547Y-71306769D01*
X126565496Y-71477980D01*
X126562418Y-71482006D01*
X126562417Y-71482007D01*
X126417221Y-71671916D01*
X126417218Y-71671920D01*
X126414148Y-71675936D01*
X126296396Y-71895543D01*
X126294750Y-71900324D01*
X126294748Y-71900328D01*
X126217256Y-72125382D01*
X126215269Y-72131151D01*
X126214407Y-72136143D01*
X126190568Y-72274159D01*
X126172856Y-72376699D01*
X126171500Y-72406559D01*
X126171500Y-74100118D01*
X124188500Y-74100118D01*
X124188500Y-72454882D01*
X124184498Y-72405140D01*
X124173960Y-72274159D01*
X124173959Y-72274154D01*
X124173554Y-72269118D01*
X124114115Y-72027127D01*
X124016751Y-71797752D01*
X123883967Y-71586894D01*
X123719178Y-71399978D01*
X123526625Y-71241813D01*
X123311262Y-71116469D01*
X123164205Y-71060019D01*
X123083357Y-71028984D01*
X123083354Y-71028983D01*
X123078628Y-71027169D01*
X122834710Y-70976212D01*
X122829661Y-70975983D01*
X122829655Y-70975982D01*
X122715996Y-70970821D01*
X122585782Y-70964908D01*
X122580762Y-70965489D01*
X122580758Y-70965489D01*
X122490074Y-70975982D01*
X122338250Y-70993549D01*
X122333376Y-70994928D01*
X122333372Y-70994929D01*
X122103349Y-71060019D01*
X122103347Y-71060020D01*
X122098480Y-71061397D01*
X122093905Y-71063531D01*
X122093898Y-71063533D01*
X121922131Y-71143630D01*
X121872643Y-71166707D01*
X121868463Y-71169548D01*
X121868459Y-71169550D01*
X121762127Y-71241813D01*
X121666547Y-71306769D01*
X121485496Y-71477980D01*
X121482418Y-71482006D01*
X121482417Y-71482007D01*
X121337221Y-71671916D01*
X121337218Y-71671920D01*
X121334148Y-71675936D01*
X121216396Y-71895543D01*
X121214750Y-71900324D01*
X121214748Y-71900328D01*
X121137256Y-72125382D01*
X121135269Y-72131151D01*
X121134407Y-72136143D01*
X121110568Y-72274159D01*
X121092856Y-72376699D01*
X121091500Y-72406559D01*
X121091500Y-74100118D01*
X119008500Y-74100118D01*
X119008500Y-66634500D01*
X119028502Y-66566379D01*
X119082158Y-66519886D01*
X119134500Y-66508500D01*
X171865500Y-66508500D01*
X171933621Y-66528502D01*
G37*
%TD.AperFunction*%
%TD*%
M02*
