%TF.GenerationSoftware,KiCad,Pcbnew,6.0.8+dfsg-1~bpo11+1*%
%TF.CreationDate,2022-10-31T17:37:34+01:00*%
%TF.ProjectId,rib4outAd_00,72696234-6f75-4744-9164-5f30302e6b69,rev?*%
%TF.SameCoordinates,Original*%
%TF.FileFunction,Copper,L3,Inr*%
%TF.FilePolarity,Positive*%
%FSLAX46Y46*%
G04 Gerber Fmt 4.6, Leading zero omitted, Abs format (unit mm)*
G04 Created by KiCad (PCBNEW 6.0.8+dfsg-1~bpo11+1) date 2022-10-31 17:37:34*
%MOMM*%
%LPD*%
G01*
G04 APERTURE LIST*
G04 Aperture macros list*
%AMRoundRect*
0 Rectangle with rounded corners*
0 $1 Rounding radius*
0 $2 $3 $4 $5 $6 $7 $8 $9 X,Y pos of 4 corners*
0 Add a 4 corners polygon primitive as box body*
4,1,4,$2,$3,$4,$5,$6,$7,$8,$9,$2,$3,0*
0 Add four circle primitives for the rounded corners*
1,1,$1+$1,$2,$3*
1,1,$1+$1,$4,$5*
1,1,$1+$1,$6,$7*
1,1,$1+$1,$8,$9*
0 Add four rect primitives between the rounded corners*
20,1,$1+$1,$2,$3,$4,$5,0*
20,1,$1+$1,$4,$5,$6,$7,0*
20,1,$1+$1,$6,$7,$8,$9,0*
20,1,$1+$1,$8,$9,$2,$3,0*%
G04 Aperture macros list end*
%TA.AperFunction,ComponentPad*%
%ADD10RoundRect,0.249999X0.790001X1.550001X-0.790001X1.550001X-0.790001X-1.550001X0.790001X-1.550001X0*%
%TD*%
%TA.AperFunction,ComponentPad*%
%ADD11O,2.080000X3.600000*%
%TD*%
%TA.AperFunction,ComponentPad*%
%ADD12R,1.700000X1.700000*%
%TD*%
%TA.AperFunction,ComponentPad*%
%ADD13O,1.700000X1.700000*%
%TD*%
%TA.AperFunction,ViaPad*%
%ADD14C,0.800000*%
%TD*%
%TA.AperFunction,Conductor*%
%ADD15C,0.400000*%
%TD*%
%TA.AperFunction,Conductor*%
%ADD16C,0.250000*%
%TD*%
G04 APERTURE END LIST*
D10*
%TO.N,+VSW*%
%TO.C,J3*%
X168360000Y-80277500D03*
D11*
%TO.N,Earth*%
X163280000Y-80277500D03*
%TO.N,+VSW*%
X158200000Y-80277500D03*
%TO.N,Earth*%
X153120000Y-80277500D03*
%TO.N,+VSW*%
X148040000Y-80277500D03*
%TO.N,Earth*%
X142960000Y-80277500D03*
%TO.N,+VSW*%
X137880000Y-80277500D03*
%TO.N,Earth*%
X132800000Y-80277500D03*
%TO.N,+VSW*%
X127720000Y-80277500D03*
%TO.N,GNDD*%
X122640000Y-80277500D03*
%TD*%
D12*
%TO.N,GNDD*%
%TO.C,J6*%
X127775000Y-117825000D03*
D13*
%TO.N,+5V*%
X127775000Y-115285000D03*
%TO.N,/SDA1*%
X127775000Y-112745000D03*
%TO.N,/SCL1*%
X127775000Y-110205000D03*
%TO.N,GNDD*%
X127775000Y-107665000D03*
%TO.N,/VOM3*%
X127775000Y-105125000D03*
%TD*%
D10*
%TO.N,Earth*%
%TO.C,J2*%
X168360000Y-73277500D03*
D11*
%TO.N,GNDD*%
X163280000Y-73277500D03*
%TO.N,/VO4*%
X158200000Y-73277500D03*
%TO.N,GNDD*%
X153120000Y-73277500D03*
%TO.N,/VO3*%
X148040000Y-73277500D03*
%TO.N,GNDD*%
X142960000Y-73277500D03*
%TO.N,/VO2*%
X137880000Y-73277500D03*
%TO.N,GNDD*%
X132800000Y-73277500D03*
%TO.N,/VO1*%
X127720000Y-73277500D03*
%TO.N,+VSW*%
X122640000Y-73277500D03*
%TD*%
D12*
%TO.N,GNDD*%
%TO.C,J5*%
X163500000Y-88340000D03*
D13*
%TO.N,+5V*%
X163500000Y-90880000D03*
%TO.N,/SDA0*%
X163500000Y-93420000D03*
%TO.N,/SCL0*%
X163500000Y-95960000D03*
%TO.N,GNDD*%
X163500000Y-98500000D03*
%TO.N,/VOM2*%
X163500000Y-101040000D03*
%TD*%
D12*
%TO.N,GNDD*%
%TO.C,J7*%
X163525000Y-105200000D03*
D13*
%TO.N,+5V*%
X163525000Y-107740000D03*
%TO.N,/SDA1*%
X163525000Y-110280000D03*
%TO.N,/SCL1*%
X163525000Y-112820000D03*
%TO.N,GNDD*%
X163525000Y-115360000D03*
%TO.N,/VOM4*%
X163525000Y-117900000D03*
%TD*%
D12*
%TO.N,GNDD*%
%TO.C,J4*%
X127775000Y-100925000D03*
D13*
%TO.N,+5V*%
X127775000Y-98385000D03*
%TO.N,/SDA0*%
X127775000Y-95845000D03*
%TO.N,/SCL0*%
X127775000Y-93305000D03*
%TO.N,GNDD*%
X127775000Y-90765000D03*
%TO.N,/VOM1*%
X127775000Y-88225000D03*
%TD*%
D12*
%TO.N,GNDD*%
%TO.C,J1*%
X154370000Y-114710000D03*
D13*
%TO.N,/SCL0*%
X154370000Y-117250000D03*
%TO.N,/SDA0*%
X151830000Y-114710000D03*
%TO.N,/SCL1*%
X151830000Y-117250000D03*
%TO.N,/SDA1*%
X149290000Y-114710000D03*
%TO.N,unconnected-(J1-Pad6)*%
X149290000Y-117250000D03*
%TO.N,unconnected-(J1-Pad7)*%
X146750000Y-114710000D03*
%TO.N,unconnected-(J1-Pad8)*%
X146750000Y-117250000D03*
%TO.N,unconnected-(J1-Pad9)*%
X144210000Y-114710000D03*
%TO.N,+5V*%
X144210000Y-117250000D03*
%TO.N,-12V*%
X141670000Y-114710000D03*
%TO.N,+12V*%
X141670000Y-117250000D03*
%TO.N,GNDD*%
X139130000Y-114710000D03*
%TO.N,Earth*%
X139130000Y-117250000D03*
%TO.N,+VSW*%
X136590000Y-114710000D03*
X136590000Y-117250000D03*
%TD*%
D14*
%TO.N,+12V*%
X148640000Y-86830000D03*
%TO.N,GNDD*%
X155800000Y-102700000D03*
X159500000Y-91500000D03*
X154300000Y-110800000D03*
X146500000Y-108200000D03*
%TO.N,-12V*%
X150820000Y-85860000D03*
%TO.N,/VOM1*%
X150035500Y-92450000D03*
X148070000Y-103560000D03*
%TO.N,/VOM2*%
X150000000Y-97550000D03*
X146630000Y-105500500D03*
%TO.N,/VOM3*%
X152060000Y-97550000D03*
X149390000Y-108810000D03*
%TO.N,/VOM4*%
X150500000Y-109480000D03*
X151934500Y-92470000D03*
%TD*%
D15*
%TO.N,+5V*%
X144700000Y-119000000D02*
X159300000Y-119000000D01*
X143850000Y-119000000D02*
X144210000Y-118640000D01*
X164690000Y-114110000D02*
X161690000Y-114110000D01*
X163525000Y-107740000D02*
X164440000Y-107740000D01*
X160410000Y-117890000D02*
X160410000Y-115390000D01*
X144210000Y-118620000D02*
X144490000Y-118900000D01*
X131095000Y-115285000D02*
X134810000Y-119000000D01*
X144210000Y-118640000D02*
X144210000Y-117250000D01*
X143500000Y-119000000D02*
X143850000Y-119000000D01*
X144210000Y-117250000D02*
X144210000Y-118620000D01*
X165400000Y-108700000D02*
X165400000Y-113400000D01*
X144700000Y-119000000D02*
X144570000Y-119000000D01*
X164440000Y-107740000D02*
X165400000Y-108700000D01*
X159300000Y-119000000D02*
X160150000Y-118150000D01*
X144570000Y-119000000D02*
X144210000Y-118640000D01*
X143500000Y-119000000D02*
X144700000Y-119000000D01*
X161690000Y-114110000D02*
X160410000Y-115390000D01*
X165400000Y-113400000D02*
X164690000Y-114110000D01*
X159400000Y-118900000D02*
X160150000Y-118150000D01*
X127775000Y-115285000D02*
X131095000Y-115285000D01*
X134810000Y-119000000D02*
X143500000Y-119000000D01*
X160150000Y-118150000D02*
X160410000Y-117890000D01*
%TO.N,/SCL0*%
X160630000Y-92170000D02*
X164470000Y-92170000D01*
X144205000Y-93305000D02*
X145200000Y-94300000D01*
X165400000Y-93100000D02*
X165400000Y-95300000D01*
X158500000Y-94300000D02*
X160630000Y-92170000D01*
X165400000Y-95300000D02*
X164740000Y-95960000D01*
X164740000Y-95960000D02*
X163500000Y-95960000D01*
X164470000Y-92170000D02*
X165400000Y-93100000D01*
X127775000Y-93305000D02*
X144205000Y-93305000D01*
X145200000Y-94300000D02*
X158500000Y-94300000D01*
%TO.N,/SDA0*%
X131100000Y-94200000D02*
X144200000Y-94200000D01*
X160200000Y-95200000D02*
X161980000Y-93420000D01*
X129455000Y-95845000D02*
X131100000Y-94200000D01*
X145200000Y-95200000D02*
X160200000Y-95200000D01*
X161980000Y-93420000D02*
X163500000Y-93420000D01*
X144200000Y-94200000D02*
X145200000Y-95200000D01*
X127775000Y-95845000D02*
X129455000Y-95845000D01*
%TO.N,/SCL1*%
X150580000Y-116000000D02*
X151830000Y-117250000D01*
X127775000Y-110205000D02*
X148105000Y-110205000D01*
X148105000Y-110205000D02*
X150580000Y-112680000D01*
X150580000Y-112680000D02*
X150580000Y-116000000D01*
%TO.N,/SDA1*%
X127775000Y-112745000D02*
X129455000Y-112745000D01*
X149290000Y-112490000D02*
X149290000Y-114710000D01*
X131200000Y-111000000D02*
X147800000Y-111000000D01*
X147800000Y-111000000D02*
X149290000Y-112490000D01*
X129455000Y-112745000D02*
X131200000Y-111000000D01*
D16*
%TO.N,/VOM1*%
X139895000Y-88225000D02*
X144120000Y-92450000D01*
X127775000Y-88225000D02*
X139895000Y-88225000D01*
X144120000Y-92450000D02*
X150035500Y-92450000D01*
%TO.N,/VOM2*%
X151660000Y-101040000D02*
X163500000Y-101040000D01*
X150000000Y-97550000D02*
X150000000Y-99380000D01*
X150000000Y-99380000D02*
X151660000Y-101040000D01*
%TO.N,/VOM3*%
X130545000Y-105125000D02*
X127775000Y-105125000D01*
X139740000Y-95930000D02*
X130545000Y-105125000D01*
X152060000Y-97550000D02*
X152060000Y-96560000D01*
X151430000Y-95930000D02*
X139740000Y-95930000D01*
X152060000Y-96560000D02*
X151430000Y-95930000D01*
%TO.N,/VOM4*%
X164720000Y-117900000D02*
X163525000Y-117900000D01*
X151934500Y-92470000D02*
X154270000Y-92470000D01*
X160650000Y-86090000D02*
X164560000Y-86090000D01*
X164560000Y-86090000D02*
X166160000Y-87690000D01*
X166160000Y-87690000D02*
X166160000Y-116460000D01*
X166160000Y-116460000D02*
X164720000Y-117900000D01*
X154270000Y-92470000D02*
X160650000Y-86090000D01*
%TD*%
%TA.AperFunction,Conductor*%
%TO.N,GNDD*%
G36*
X165444532Y-114461604D02*
G01*
X165501368Y-114504151D01*
X165526179Y-114570671D01*
X165526500Y-114579660D01*
X165526500Y-116145405D01*
X165506498Y-116213526D01*
X165489595Y-116234501D01*
X164722614Y-117001481D01*
X164660302Y-117035506D01*
X164589486Y-117030441D01*
X164540325Y-116997184D01*
X164458151Y-116906876D01*
X164458148Y-116906873D01*
X164454670Y-116903051D01*
X164450619Y-116899852D01*
X164450615Y-116899848D01*
X164283414Y-116767800D01*
X164283410Y-116767798D01*
X164279359Y-116764598D01*
X164237569Y-116741529D01*
X164187598Y-116691097D01*
X164172826Y-116621654D01*
X164197942Y-116555248D01*
X164225294Y-116528641D01*
X164400328Y-116403792D01*
X164408200Y-116397139D01*
X164559052Y-116246812D01*
X164565730Y-116238965D01*
X164690003Y-116066020D01*
X164695313Y-116057183D01*
X164789670Y-115866267D01*
X164793469Y-115856672D01*
X164855377Y-115652910D01*
X164857555Y-115642837D01*
X164858986Y-115631962D01*
X164856775Y-115617778D01*
X164843617Y-115614000D01*
X162208225Y-115614000D01*
X162194694Y-115617973D01*
X162193257Y-115627966D01*
X162223565Y-115762446D01*
X162226645Y-115772275D01*
X162306770Y-115969603D01*
X162311413Y-115978794D01*
X162422694Y-116160388D01*
X162428777Y-116168699D01*
X162568213Y-116329667D01*
X162575580Y-116336883D01*
X162739434Y-116472916D01*
X162747881Y-116478831D01*
X162816969Y-116519203D01*
X162865693Y-116570842D01*
X162878764Y-116640625D01*
X162852033Y-116706396D01*
X162811584Y-116739752D01*
X162798607Y-116746507D01*
X162794474Y-116749610D01*
X162794471Y-116749612D01*
X162624100Y-116877530D01*
X162619965Y-116880635D01*
X162578993Y-116923510D01*
X162479442Y-117027684D01*
X162465629Y-117042138D01*
X162339743Y-117226680D01*
X162298008Y-117316590D01*
X162275540Y-117364995D01*
X162245688Y-117429305D01*
X162185989Y-117644570D01*
X162162251Y-117866695D01*
X162162548Y-117871848D01*
X162162548Y-117871851D01*
X162170176Y-118004149D01*
X162175110Y-118089715D01*
X162176247Y-118094761D01*
X162176248Y-118094767D01*
X162191999Y-118164656D01*
X162224222Y-118307639D01*
X162281974Y-118449867D01*
X162301822Y-118498745D01*
X162308266Y-118514616D01*
X162359942Y-118598944D01*
X162398843Y-118662424D01*
X162424987Y-118705088D01*
X162571250Y-118873938D01*
X162743126Y-119016632D01*
X162936000Y-119129338D01*
X163144692Y-119209030D01*
X163149760Y-119210061D01*
X163149763Y-119210062D01*
X163306891Y-119242030D01*
X163369656Y-119275211D01*
X163404518Y-119337059D01*
X163400409Y-119407937D01*
X163358632Y-119465341D01*
X163292453Y-119491046D01*
X163281770Y-119491500D01*
X160114660Y-119491500D01*
X160046539Y-119471498D01*
X160000046Y-119417842D01*
X159989942Y-119347568D01*
X160019436Y-119282988D01*
X160025565Y-119276405D01*
X160268235Y-119033735D01*
X160681393Y-118620578D01*
X160681397Y-118620573D01*
X160890520Y-118411450D01*
X160896785Y-118405596D01*
X160904425Y-118398931D01*
X160940385Y-118367561D01*
X160977114Y-118315300D01*
X160981046Y-118310005D01*
X160995556Y-118291500D01*
X161020477Y-118259718D01*
X161023602Y-118252796D01*
X161024964Y-118250548D01*
X161033368Y-118235815D01*
X161034622Y-118233476D01*
X161038990Y-118227261D01*
X161041749Y-118220185D01*
X161041751Y-118220181D01*
X161062202Y-118167726D01*
X161064758Y-118161646D01*
X161087918Y-118110351D01*
X161091045Y-118103426D01*
X161092429Y-118095955D01*
X161093230Y-118093401D01*
X161097867Y-118077122D01*
X161098523Y-118074567D01*
X161101282Y-118067491D01*
X161109621Y-118004149D01*
X161110653Y-117997633D01*
X161120912Y-117942280D01*
X161122296Y-117934813D01*
X161118709Y-117872602D01*
X161118500Y-117865349D01*
X161118500Y-115735661D01*
X161138502Y-115667540D01*
X161155405Y-115646565D01*
X161946567Y-114855404D01*
X162008879Y-114821379D01*
X162035662Y-114818500D01*
X162100145Y-114818500D01*
X162168266Y-114838502D01*
X162214759Y-114892158D01*
X162224863Y-114962432D01*
X162221562Y-114978173D01*
X162189389Y-115094184D01*
X162190912Y-115102607D01*
X162203292Y-115106000D01*
X164843344Y-115106000D01*
X164856875Y-115102027D01*
X164858180Y-115092947D01*
X164819951Y-114940754D01*
X164822755Y-114869813D01*
X164863467Y-114811649D01*
X164896697Y-114794185D01*
X164896284Y-114793243D01*
X164954795Y-114767558D01*
X164960904Y-114765065D01*
X165013548Y-114745173D01*
X165013549Y-114745172D01*
X165020656Y-114742487D01*
X165026919Y-114738183D01*
X165029285Y-114736946D01*
X165044097Y-114728701D01*
X165046351Y-114727368D01*
X165053305Y-114724315D01*
X165104002Y-114685413D01*
X165109332Y-114681541D01*
X165155721Y-114649660D01*
X165155725Y-114649657D01*
X165161981Y-114645357D01*
X165203436Y-114598829D01*
X165208416Y-114593554D01*
X165311405Y-114490565D01*
X165373717Y-114456539D01*
X165444532Y-114461604D01*
G37*
%TD.AperFunction*%
%TA.AperFunction,Conductor*%
G36*
X171933621Y-66528502D02*
G01*
X171980114Y-66582158D01*
X171991500Y-66634500D01*
X171991500Y-119365500D01*
X171971498Y-119433621D01*
X171917842Y-119480114D01*
X171865500Y-119491500D01*
X163768588Y-119491500D01*
X163700467Y-119471498D01*
X163653974Y-119417842D01*
X163643870Y-119347568D01*
X163673364Y-119282988D01*
X163733090Y-119244604D01*
X163752578Y-119240521D01*
X163803288Y-119234025D01*
X163803289Y-119234025D01*
X163808416Y-119233368D01*
X163813366Y-119231883D01*
X164017429Y-119170661D01*
X164017434Y-119170659D01*
X164022384Y-119169174D01*
X164222994Y-119070896D01*
X164404860Y-118941173D01*
X164433078Y-118913054D01*
X164559435Y-118787137D01*
X164563096Y-118783489D01*
X164568478Y-118776000D01*
X164690435Y-118606277D01*
X164693453Y-118602077D01*
X164695745Y-118597440D01*
X164698407Y-118593009D01*
X164700404Y-118594209D01*
X164741867Y-118549157D01*
X164802827Y-118531209D01*
X164810599Y-118530965D01*
X164811971Y-118530922D01*
X164811972Y-118530922D01*
X164819889Y-118530673D01*
X164839343Y-118525021D01*
X164858700Y-118521013D01*
X164870930Y-118519468D01*
X164870931Y-118519468D01*
X164878797Y-118518474D01*
X164886168Y-118515555D01*
X164886170Y-118515555D01*
X164919912Y-118502196D01*
X164931142Y-118498351D01*
X164965983Y-118488229D01*
X164965984Y-118488229D01*
X164973593Y-118486018D01*
X164980412Y-118481985D01*
X164980417Y-118481983D01*
X164991028Y-118475707D01*
X165008776Y-118467012D01*
X165027617Y-118459552D01*
X165040948Y-118449867D01*
X165063387Y-118433564D01*
X165073307Y-118427048D01*
X165104535Y-118408580D01*
X165104538Y-118408578D01*
X165111362Y-118404542D01*
X165125683Y-118390221D01*
X165140717Y-118377380D01*
X165150694Y-118370131D01*
X165157107Y-118365472D01*
X165185298Y-118331395D01*
X165193288Y-118322616D01*
X166536986Y-116978918D01*
X167486917Y-116978918D01*
X167487334Y-116986156D01*
X167502682Y-117252320D01*
X167555405Y-117521053D01*
X167556792Y-117525103D01*
X167556793Y-117525108D01*
X167642723Y-117776088D01*
X167644112Y-117780144D01*
X167673238Y-117838054D01*
X167755127Y-118000873D01*
X167767160Y-118024799D01*
X167769586Y-118028328D01*
X167769589Y-118028334D01*
X167899848Y-118217860D01*
X167922274Y-118250490D01*
X167925161Y-118253663D01*
X167925162Y-118253664D01*
X168103692Y-118449867D01*
X168106582Y-118453043D01*
X168109877Y-118455798D01*
X168109878Y-118455799D01*
X168133688Y-118475707D01*
X168316675Y-118628707D01*
X168320316Y-118630991D01*
X168545024Y-118771951D01*
X168545028Y-118771953D01*
X168548664Y-118774234D01*
X168616544Y-118804883D01*
X168794345Y-118885164D01*
X168794349Y-118885166D01*
X168798257Y-118886930D01*
X168802377Y-118888150D01*
X168802376Y-118888150D01*
X169056723Y-118963491D01*
X169056727Y-118963492D01*
X169060836Y-118964709D01*
X169065070Y-118965357D01*
X169065075Y-118965358D01*
X169327298Y-119005483D01*
X169327300Y-119005483D01*
X169331540Y-119006132D01*
X169470912Y-119008322D01*
X169601071Y-119010367D01*
X169601077Y-119010367D01*
X169605362Y-119010434D01*
X169877235Y-118977534D01*
X170142127Y-118908041D01*
X170146087Y-118906401D01*
X170146092Y-118906399D01*
X170268631Y-118855641D01*
X170395136Y-118803241D01*
X170513359Y-118734157D01*
X170627879Y-118667237D01*
X170627880Y-118667236D01*
X170631582Y-118665073D01*
X170847089Y-118496094D01*
X170856854Y-118486018D01*
X171034686Y-118302509D01*
X171037669Y-118299431D01*
X171040202Y-118295983D01*
X171040206Y-118295978D01*
X171197257Y-118082178D01*
X171199795Y-118078723D01*
X171201841Y-118074955D01*
X171328418Y-117841830D01*
X171328419Y-117841828D01*
X171330468Y-117838054D01*
X171427269Y-117581877D01*
X171461069Y-117434297D01*
X171487449Y-117319117D01*
X171487450Y-117319113D01*
X171488407Y-117314933D01*
X171494502Y-117246646D01*
X171512531Y-117044627D01*
X171512531Y-117044625D01*
X171512751Y-117042161D01*
X171513193Y-117000000D01*
X171511465Y-116974648D01*
X171494859Y-116731055D01*
X171494858Y-116731049D01*
X171494567Y-116726778D01*
X171487999Y-116695060D01*
X171462274Y-116570842D01*
X171439032Y-116458612D01*
X171347617Y-116200465D01*
X171240794Y-115993500D01*
X171223978Y-115960919D01*
X171223978Y-115960918D01*
X171222013Y-115957112D01*
X171212040Y-115942921D01*
X171121186Y-115813649D01*
X171064545Y-115733057D01*
X170980797Y-115642933D01*
X170881046Y-115535588D01*
X170881043Y-115535585D01*
X170878125Y-115532445D01*
X170874810Y-115529731D01*
X170874806Y-115529728D01*
X170729768Y-115411016D01*
X170666205Y-115358990D01*
X170432704Y-115215901D01*
X170423387Y-115211811D01*
X170185873Y-115107549D01*
X170185869Y-115107548D01*
X170181945Y-115105825D01*
X169918566Y-115030800D01*
X169914324Y-115030196D01*
X169914318Y-115030195D01*
X169688589Y-114998069D01*
X169647443Y-114992213D01*
X169503589Y-114991460D01*
X169377877Y-114990802D01*
X169377871Y-114990802D01*
X169373591Y-114990780D01*
X169369347Y-114991339D01*
X169369343Y-114991339D01*
X169250302Y-115007011D01*
X169102078Y-115026525D01*
X169097938Y-115027658D01*
X169097936Y-115027658D01*
X169037597Y-115044165D01*
X168837928Y-115098788D01*
X168833980Y-115100472D01*
X168589982Y-115204546D01*
X168589978Y-115204548D01*
X168586030Y-115206232D01*
X168469703Y-115275852D01*
X168354725Y-115344664D01*
X168354721Y-115344667D01*
X168351043Y-115346868D01*
X168137318Y-115518094D01*
X168062309Y-115597137D01*
X167976467Y-115687596D01*
X167948808Y-115716742D01*
X167789002Y-115939136D01*
X167660857Y-116181161D01*
X167659385Y-116185184D01*
X167659383Y-116185188D01*
X167582089Y-116396403D01*
X167566743Y-116438337D01*
X167508404Y-116705907D01*
X167507092Y-116722581D01*
X167489036Y-116952000D01*
X167486917Y-116978918D01*
X166536986Y-116978918D01*
X166552247Y-116963657D01*
X166560537Y-116956113D01*
X166567018Y-116952000D01*
X166613659Y-116902332D01*
X166616413Y-116899491D01*
X166636135Y-116879769D01*
X166638612Y-116876576D01*
X166646317Y-116867555D01*
X166655857Y-116857396D01*
X166676586Y-116835321D01*
X166680407Y-116828371D01*
X166686346Y-116817568D01*
X166697202Y-116801041D01*
X166704757Y-116791302D01*
X166704758Y-116791300D01*
X166709614Y-116785040D01*
X166727174Y-116744460D01*
X166732391Y-116733812D01*
X166749875Y-116702009D01*
X166749876Y-116702007D01*
X166753695Y-116695060D01*
X166758733Y-116675437D01*
X166765137Y-116656734D01*
X166770033Y-116645420D01*
X166770033Y-116645419D01*
X166773181Y-116638145D01*
X166774420Y-116630322D01*
X166774423Y-116630312D01*
X166780099Y-116594476D01*
X166782505Y-116582856D01*
X166791528Y-116547711D01*
X166791528Y-116547710D01*
X166793500Y-116540030D01*
X166793500Y-116519776D01*
X166795051Y-116500065D01*
X166796980Y-116487886D01*
X166798220Y-116480057D01*
X166794059Y-116436038D01*
X166793500Y-116424181D01*
X166793500Y-88478918D01*
X167486917Y-88478918D01*
X167487334Y-88486156D01*
X167502682Y-88752320D01*
X167555405Y-89021053D01*
X167556792Y-89025103D01*
X167556793Y-89025108D01*
X167640355Y-89269171D01*
X167644112Y-89280144D01*
X167673238Y-89338054D01*
X167742837Y-89476437D01*
X167767160Y-89524799D01*
X167769586Y-89528328D01*
X167769589Y-89528334D01*
X167919843Y-89746953D01*
X167922274Y-89750490D01*
X167925161Y-89753663D01*
X167925162Y-89753664D01*
X168085393Y-89929757D01*
X168106582Y-89953043D01*
X168316675Y-90128707D01*
X168320316Y-90130991D01*
X168545024Y-90271951D01*
X168545028Y-90271953D01*
X168548664Y-90274234D01*
X168673460Y-90330582D01*
X168794345Y-90385164D01*
X168794349Y-90385166D01*
X168798257Y-90386930D01*
X168802377Y-90388150D01*
X168802376Y-90388150D01*
X169056723Y-90463491D01*
X169056727Y-90463492D01*
X169060836Y-90464709D01*
X169065070Y-90465357D01*
X169065075Y-90465358D01*
X169327298Y-90505483D01*
X169327300Y-90505483D01*
X169331540Y-90506132D01*
X169470912Y-90508322D01*
X169601071Y-90510367D01*
X169601077Y-90510367D01*
X169605362Y-90510434D01*
X169877235Y-90477534D01*
X170142127Y-90408041D01*
X170146087Y-90406401D01*
X170146092Y-90406399D01*
X170268631Y-90355641D01*
X170395136Y-90303241D01*
X170631582Y-90165073D01*
X170847089Y-89996094D01*
X170888809Y-89953043D01*
X170978358Y-89860635D01*
X171037669Y-89799431D01*
X171040202Y-89795983D01*
X171040206Y-89795978D01*
X171197257Y-89582178D01*
X171199795Y-89578723D01*
X171203463Y-89571967D01*
X171328418Y-89341830D01*
X171328419Y-89341828D01*
X171330468Y-89338054D01*
X171427269Y-89081877D01*
X171473848Y-88878502D01*
X171487449Y-88819117D01*
X171487450Y-88819113D01*
X171488407Y-88814933D01*
X171496910Y-88719665D01*
X171512531Y-88544627D01*
X171512531Y-88544625D01*
X171512751Y-88542161D01*
X171513193Y-88500000D01*
X171511465Y-88474648D01*
X171494859Y-88231055D01*
X171494858Y-88231049D01*
X171494567Y-88226778D01*
X171439032Y-87958612D01*
X171347617Y-87700465D01*
X171222013Y-87457112D01*
X171212814Y-87444022D01*
X171100571Y-87284317D01*
X171064545Y-87233057D01*
X170931235Y-87089598D01*
X170881046Y-87035588D01*
X170881043Y-87035585D01*
X170878125Y-87032445D01*
X170874810Y-87029731D01*
X170874806Y-87029728D01*
X170724946Y-86907069D01*
X170666205Y-86858990D01*
X170477745Y-86743502D01*
X170436366Y-86718145D01*
X170436365Y-86718145D01*
X170432704Y-86715901D01*
X170428768Y-86714173D01*
X170185873Y-86607549D01*
X170185869Y-86607548D01*
X170181945Y-86605825D01*
X169918566Y-86530800D01*
X169914324Y-86530196D01*
X169914318Y-86530195D01*
X169713834Y-86501662D01*
X169647443Y-86492213D01*
X169503589Y-86491460D01*
X169377877Y-86490802D01*
X169377871Y-86490802D01*
X169373591Y-86490780D01*
X169369347Y-86491339D01*
X169369343Y-86491339D01*
X169250302Y-86507011D01*
X169102078Y-86526525D01*
X169097938Y-86527658D01*
X169097936Y-86527658D01*
X169074918Y-86533955D01*
X168837928Y-86598788D01*
X168833980Y-86600472D01*
X168589982Y-86704546D01*
X168589978Y-86704548D01*
X168586030Y-86706232D01*
X168546039Y-86730166D01*
X168354725Y-86844664D01*
X168354721Y-86844667D01*
X168351043Y-86846868D01*
X168137318Y-87018094D01*
X168071833Y-87087101D01*
X167962295Y-87202530D01*
X167948808Y-87216742D01*
X167789002Y-87439136D01*
X167660857Y-87681161D01*
X167659385Y-87685184D01*
X167659383Y-87685188D01*
X167568214Y-87934317D01*
X167566743Y-87938337D01*
X167508404Y-88205907D01*
X167486917Y-88478918D01*
X166793500Y-88478918D01*
X166793500Y-87768768D01*
X166794027Y-87757585D01*
X166795702Y-87750092D01*
X166793562Y-87682001D01*
X166793500Y-87678044D01*
X166793500Y-87650144D01*
X166792996Y-87646153D01*
X166792063Y-87634311D01*
X166791811Y-87626267D01*
X166790674Y-87590111D01*
X166788462Y-87582497D01*
X166788461Y-87582492D01*
X166785023Y-87570659D01*
X166781012Y-87551295D01*
X166779467Y-87539064D01*
X166778474Y-87531203D01*
X166775557Y-87523836D01*
X166775556Y-87523831D01*
X166762198Y-87490092D01*
X166758354Y-87478865D01*
X166753140Y-87460919D01*
X166746018Y-87436407D01*
X166735707Y-87418972D01*
X166727012Y-87401224D01*
X166719552Y-87382383D01*
X166693564Y-87346613D01*
X166687048Y-87336693D01*
X166668580Y-87305465D01*
X166668578Y-87305462D01*
X166664542Y-87298638D01*
X166650221Y-87284317D01*
X166637380Y-87269283D01*
X166630131Y-87259306D01*
X166625472Y-87252893D01*
X166591395Y-87224702D01*
X166582616Y-87216712D01*
X165063652Y-85697747D01*
X165056112Y-85689461D01*
X165052000Y-85682982D01*
X165002348Y-85636356D01*
X164999507Y-85633602D01*
X164979770Y-85613865D01*
X164976573Y-85611385D01*
X164967551Y-85603680D01*
X164963397Y-85599779D01*
X164935321Y-85573414D01*
X164928375Y-85569595D01*
X164928372Y-85569593D01*
X164917566Y-85563652D01*
X164901047Y-85552801D01*
X164900583Y-85552441D01*
X164885041Y-85540386D01*
X164877772Y-85537241D01*
X164877768Y-85537238D01*
X164844463Y-85522826D01*
X164833813Y-85517609D01*
X164795060Y-85496305D01*
X164775437Y-85491267D01*
X164756734Y-85484863D01*
X164745420Y-85479967D01*
X164745419Y-85479967D01*
X164738145Y-85476819D01*
X164730322Y-85475580D01*
X164730312Y-85475577D01*
X164694476Y-85469901D01*
X164682856Y-85467495D01*
X164647711Y-85458472D01*
X164647710Y-85458472D01*
X164640030Y-85456500D01*
X164619776Y-85456500D01*
X164600065Y-85454949D01*
X164587886Y-85453020D01*
X164580057Y-85451780D01*
X164550786Y-85454547D01*
X164536039Y-85455941D01*
X164524181Y-85456500D01*
X160728768Y-85456500D01*
X160717585Y-85455973D01*
X160710092Y-85454298D01*
X160702166Y-85454547D01*
X160702165Y-85454547D01*
X160642002Y-85456438D01*
X160638044Y-85456500D01*
X160610144Y-85456500D01*
X160606154Y-85457004D01*
X160594320Y-85457936D01*
X160550111Y-85459326D01*
X160542495Y-85461539D01*
X160542493Y-85461539D01*
X160530652Y-85464979D01*
X160511293Y-85468988D01*
X160509983Y-85469154D01*
X160491203Y-85471526D01*
X160483837Y-85474442D01*
X160483831Y-85474444D01*
X160450098Y-85487800D01*
X160438868Y-85491645D01*
X160428253Y-85494729D01*
X160396407Y-85503981D01*
X160389584Y-85508016D01*
X160378966Y-85514295D01*
X160361213Y-85522992D01*
X160353568Y-85526019D01*
X160342383Y-85530448D01*
X160328705Y-85540386D01*
X160306612Y-85556437D01*
X160296695Y-85562951D01*
X160258638Y-85585458D01*
X160244317Y-85599779D01*
X160229284Y-85612619D01*
X160212893Y-85624528D01*
X160204217Y-85635016D01*
X160184702Y-85658605D01*
X160176712Y-85667384D01*
X154044500Y-91799595D01*
X153982188Y-91833621D01*
X153955405Y-91836500D01*
X152642700Y-91836500D01*
X152574579Y-91816498D01*
X152555353Y-91800157D01*
X152555080Y-91800460D01*
X152550168Y-91796037D01*
X152545753Y-91791134D01*
X152401663Y-91686446D01*
X152396594Y-91682763D01*
X152396593Y-91682762D01*
X152391252Y-91678882D01*
X152385224Y-91676198D01*
X152385222Y-91676197D01*
X152222819Y-91603891D01*
X152222818Y-91603891D01*
X152216788Y-91601206D01*
X152116241Y-91579834D01*
X152036444Y-91562872D01*
X152036439Y-91562872D01*
X152029987Y-91561500D01*
X151839013Y-91561500D01*
X151832561Y-91562872D01*
X151832556Y-91562872D01*
X151752759Y-91579834D01*
X151652212Y-91601206D01*
X151646182Y-91603891D01*
X151646181Y-91603891D01*
X151483778Y-91676197D01*
X151483776Y-91676198D01*
X151477748Y-91678882D01*
X151472407Y-91682762D01*
X151472406Y-91682763D01*
X151467337Y-91686446D01*
X151323247Y-91791134D01*
X151318826Y-91796044D01*
X151318825Y-91796045D01*
X151208320Y-91918774D01*
X151195460Y-91933056D01*
X151099973Y-92098444D01*
X151098147Y-92097389D01*
X151058567Y-92143944D01*
X150990637Y-92164586D01*
X150922332Y-92145226D01*
X150874345Y-92089840D01*
X150872068Y-92084725D01*
X150870027Y-92078444D01*
X150852657Y-92048357D01*
X150783253Y-91928148D01*
X150774540Y-91913056D01*
X150703017Y-91833621D01*
X150651175Y-91776045D01*
X150651174Y-91776044D01*
X150646753Y-91771134D01*
X150534346Y-91689465D01*
X150497594Y-91662763D01*
X150497593Y-91662762D01*
X150492252Y-91658882D01*
X150486224Y-91656198D01*
X150486222Y-91656197D01*
X150323819Y-91583891D01*
X150323818Y-91583891D01*
X150317788Y-91581206D01*
X150215783Y-91559524D01*
X150137444Y-91542872D01*
X150137439Y-91542872D01*
X150130987Y-91541500D01*
X149940013Y-91541500D01*
X149933561Y-91542872D01*
X149933556Y-91542872D01*
X149855217Y-91559524D01*
X149753212Y-91581206D01*
X149747182Y-91583891D01*
X149747181Y-91583891D01*
X149584778Y-91656197D01*
X149584776Y-91656198D01*
X149578748Y-91658882D01*
X149573407Y-91662762D01*
X149573406Y-91662763D01*
X149536654Y-91689465D01*
X149424247Y-91771134D01*
X149419832Y-91776037D01*
X149414920Y-91780460D01*
X149413795Y-91779211D01*
X149360486Y-91812051D01*
X149327300Y-91816500D01*
X144434595Y-91816500D01*
X144366474Y-91796498D01*
X144345500Y-91779595D01*
X140398652Y-87832747D01*
X140391112Y-87824461D01*
X140387000Y-87817982D01*
X140337348Y-87771356D01*
X140334507Y-87768602D01*
X140314770Y-87748865D01*
X140311573Y-87746385D01*
X140302551Y-87738680D01*
X140270321Y-87708414D01*
X140263375Y-87704595D01*
X140263372Y-87704593D01*
X140252566Y-87698652D01*
X140236047Y-87687801D01*
X140232678Y-87685188D01*
X140220041Y-87675386D01*
X140212772Y-87672241D01*
X140212768Y-87672238D01*
X140179463Y-87657826D01*
X140168813Y-87652609D01*
X140130060Y-87631305D01*
X140110437Y-87626267D01*
X140091734Y-87619863D01*
X140080420Y-87614967D01*
X140080419Y-87614967D01*
X140073145Y-87611819D01*
X140065322Y-87610580D01*
X140065312Y-87610577D01*
X140029476Y-87604901D01*
X140017856Y-87602495D01*
X139982711Y-87593472D01*
X139982710Y-87593472D01*
X139975030Y-87591500D01*
X139954776Y-87591500D01*
X139935065Y-87589949D01*
X139922886Y-87588020D01*
X139915057Y-87586780D01*
X139907165Y-87587526D01*
X139871039Y-87590941D01*
X139859181Y-87591500D01*
X129051805Y-87591500D01*
X128983684Y-87571498D01*
X128946013Y-87533940D01*
X128857822Y-87397617D01*
X128857820Y-87397614D01*
X128855014Y-87393277D01*
X128704670Y-87228051D01*
X128700619Y-87224852D01*
X128700615Y-87224848D01*
X128533414Y-87092800D01*
X128533410Y-87092798D01*
X128529359Y-87089598D01*
X128333789Y-86981638D01*
X128328920Y-86979914D01*
X128328916Y-86979912D01*
X128128087Y-86908795D01*
X128128083Y-86908794D01*
X128123212Y-86907069D01*
X128118119Y-86906162D01*
X128118116Y-86906161D01*
X127908373Y-86868800D01*
X127908367Y-86868799D01*
X127903284Y-86867894D01*
X127829452Y-86866992D01*
X127685081Y-86865228D01*
X127685079Y-86865228D01*
X127679911Y-86865165D01*
X127459091Y-86898955D01*
X127246756Y-86968357D01*
X127048607Y-87071507D01*
X127044474Y-87074610D01*
X127044471Y-87074612D01*
X126874100Y-87202530D01*
X126869965Y-87205635D01*
X126804346Y-87274301D01*
X126721279Y-87361226D01*
X126715629Y-87367138D01*
X126712715Y-87371410D01*
X126712714Y-87371411D01*
X126668377Y-87436407D01*
X126589743Y-87551680D01*
X126551387Y-87634311D01*
X126514471Y-87713841D01*
X126495688Y-87754305D01*
X126435989Y-87969570D01*
X126412251Y-88191695D01*
X126412548Y-88196848D01*
X126412548Y-88196851D01*
X126414032Y-88222581D01*
X126425110Y-88414715D01*
X126426247Y-88419761D01*
X126426248Y-88419767D01*
X126439579Y-88478918D01*
X126474222Y-88632639D01*
X126558266Y-88839616D01*
X126674987Y-89030088D01*
X126821250Y-89198938D01*
X126960047Y-89314169D01*
X126983977Y-89334036D01*
X126993126Y-89341632D01*
X127066955Y-89384774D01*
X127115679Y-89436412D01*
X127128750Y-89506195D01*
X127102019Y-89571967D01*
X127061562Y-89605327D01*
X127053457Y-89609546D01*
X127044738Y-89615036D01*
X126874433Y-89742905D01*
X126866726Y-89749748D01*
X126719590Y-89903717D01*
X126713104Y-89911727D01*
X126593098Y-90087649D01*
X126588000Y-90096623D01*
X126498338Y-90289783D01*
X126494775Y-90299470D01*
X126439389Y-90499183D01*
X126440912Y-90507607D01*
X126453292Y-90511000D01*
X129093344Y-90511000D01*
X129106875Y-90507027D01*
X129108180Y-90497947D01*
X129066214Y-90330875D01*
X129062894Y-90321124D01*
X128977972Y-90125814D01*
X128973105Y-90116739D01*
X128857426Y-89937926D01*
X128851136Y-89929757D01*
X128707806Y-89772240D01*
X128700273Y-89765215D01*
X128533139Y-89633222D01*
X128524556Y-89627520D01*
X128487602Y-89607120D01*
X128437631Y-89556687D01*
X128422859Y-89487245D01*
X128447975Y-89420839D01*
X128475327Y-89394232D01*
X128498797Y-89377491D01*
X128654860Y-89266173D01*
X128679630Y-89241490D01*
X128809435Y-89112137D01*
X128813096Y-89108489D01*
X128839652Y-89071533D01*
X128940435Y-88931277D01*
X128943453Y-88927077D01*
X128945746Y-88922437D01*
X128947446Y-88919608D01*
X128999674Y-88871518D01*
X129055451Y-88858500D01*
X139580406Y-88858500D01*
X139648527Y-88878502D01*
X139669501Y-88895405D01*
X143155501Y-92381405D01*
X143189527Y-92443717D01*
X143184462Y-92514532D01*
X143141915Y-92571368D01*
X143075395Y-92596179D01*
X143066406Y-92596500D01*
X129003286Y-92596500D01*
X128935165Y-92576498D01*
X128897494Y-92538941D01*
X128857818Y-92477612D01*
X128855014Y-92473277D01*
X128704670Y-92308051D01*
X128700619Y-92304852D01*
X128700615Y-92304848D01*
X128533414Y-92172800D01*
X128533410Y-92172798D01*
X128529359Y-92169598D01*
X128487569Y-92146529D01*
X128437598Y-92096097D01*
X128422826Y-92026654D01*
X128447942Y-91960248D01*
X128475294Y-91933641D01*
X128650328Y-91808792D01*
X128658200Y-91802139D01*
X128809052Y-91651812D01*
X128815730Y-91643965D01*
X128940003Y-91471020D01*
X128945313Y-91462183D01*
X129039670Y-91271267D01*
X129043469Y-91261672D01*
X129105377Y-91057910D01*
X129107555Y-91047837D01*
X129108986Y-91036962D01*
X129106775Y-91022778D01*
X129093617Y-91019000D01*
X126458225Y-91019000D01*
X126444694Y-91022973D01*
X126443257Y-91032966D01*
X126473565Y-91167446D01*
X126476645Y-91177275D01*
X126556770Y-91374603D01*
X126561413Y-91383794D01*
X126672694Y-91565388D01*
X126678777Y-91573699D01*
X126818213Y-91734667D01*
X126825580Y-91741883D01*
X126989434Y-91877916D01*
X126997881Y-91883831D01*
X127066969Y-91924203D01*
X127115693Y-91975842D01*
X127128764Y-92045625D01*
X127102033Y-92111396D01*
X127061584Y-92144752D01*
X127048607Y-92151507D01*
X127044474Y-92154610D01*
X127044471Y-92154612D01*
X126877374Y-92280072D01*
X126869965Y-92285635D01*
X126715629Y-92447138D01*
X126712715Y-92451410D01*
X126712714Y-92451411D01*
X126697798Y-92473277D01*
X126589743Y-92631680D01*
X126495688Y-92834305D01*
X126435989Y-93049570D01*
X126412251Y-93271695D01*
X126412548Y-93276848D01*
X126412548Y-93276851D01*
X126422392Y-93447568D01*
X126425110Y-93494715D01*
X126426247Y-93499761D01*
X126426248Y-93499767D01*
X126441177Y-93566008D01*
X126474222Y-93712639D01*
X126558266Y-93919616D01*
X126560965Y-93924020D01*
X126660936Y-94087158D01*
X126674987Y-94110088D01*
X126821250Y-94278938D01*
X126993126Y-94421632D01*
X127048622Y-94454061D01*
X127066445Y-94464476D01*
X127115169Y-94516114D01*
X127128240Y-94585897D01*
X127101509Y-94651669D01*
X127061055Y-94685027D01*
X127048607Y-94691507D01*
X127044474Y-94694610D01*
X127044471Y-94694612D01*
X126874100Y-94822530D01*
X126869965Y-94825635D01*
X126866393Y-94829373D01*
X126763036Y-94937530D01*
X126715629Y-94987138D01*
X126589743Y-95171680D01*
X126587564Y-95176375D01*
X126507890Y-95348019D01*
X126495688Y-95374305D01*
X126435989Y-95589570D01*
X126412251Y-95811695D01*
X126412548Y-95816848D01*
X126412548Y-95816851D01*
X126417849Y-95908792D01*
X126425110Y-96034715D01*
X126426247Y-96039761D01*
X126426248Y-96039767D01*
X126448676Y-96139283D01*
X126474222Y-96252639D01*
X126507190Y-96333830D01*
X126555374Y-96452493D01*
X126558266Y-96459616D01*
X126604325Y-96534778D01*
X126667064Y-96637158D01*
X126674987Y-96650088D01*
X126821250Y-96818938D01*
X126993126Y-96961632D01*
X127054557Y-96997529D01*
X127066445Y-97004476D01*
X127115169Y-97056114D01*
X127128240Y-97125897D01*
X127101509Y-97191669D01*
X127061055Y-97225027D01*
X127048607Y-97231507D01*
X127044474Y-97234610D01*
X127044471Y-97234612D01*
X126874100Y-97362530D01*
X126869965Y-97365635D01*
X126866393Y-97369373D01*
X126764846Y-97475636D01*
X126715629Y-97527138D01*
X126712715Y-97531410D01*
X126712714Y-97531411D01*
X126639515Y-97638717D01*
X126589743Y-97711680D01*
X126574003Y-97745590D01*
X126520518Y-97860814D01*
X126495688Y-97914305D01*
X126435989Y-98129570D01*
X126412251Y-98351695D01*
X126412548Y-98356848D01*
X126412548Y-98356851D01*
X126418011Y-98451590D01*
X126425110Y-98574715D01*
X126426247Y-98579761D01*
X126426248Y-98579767D01*
X126446119Y-98667939D01*
X126474222Y-98792639D01*
X126558266Y-98999616D01*
X126674987Y-99190088D01*
X126821250Y-99358938D01*
X126825225Y-99362238D01*
X126825231Y-99362244D01*
X126830425Y-99366556D01*
X126870059Y-99425460D01*
X126871555Y-99496441D01*
X126834439Y-99556962D01*
X126794168Y-99581480D01*
X126686946Y-99621676D01*
X126671351Y-99630214D01*
X126569276Y-99706715D01*
X126556715Y-99719276D01*
X126480214Y-99821351D01*
X126471676Y-99836946D01*
X126426522Y-99957394D01*
X126422895Y-99972649D01*
X126417369Y-100023514D01*
X126417000Y-100030328D01*
X126417000Y-100652885D01*
X126421475Y-100668124D01*
X126422865Y-100669329D01*
X126430548Y-100671000D01*
X129114884Y-100671000D01*
X129130123Y-100666525D01*
X129131328Y-100665135D01*
X129132999Y-100657452D01*
X129132999Y-100030331D01*
X129132629Y-100023510D01*
X129127105Y-99972648D01*
X129123479Y-99957396D01*
X129078324Y-99836946D01*
X129069786Y-99821351D01*
X128993285Y-99719276D01*
X128980724Y-99706715D01*
X128878649Y-99630214D01*
X128863054Y-99621676D01*
X128752813Y-99580348D01*
X128696049Y-99537706D01*
X128671349Y-99471145D01*
X128686557Y-99401796D01*
X128708104Y-99373115D01*
X128809430Y-99272144D01*
X128809440Y-99272132D01*
X128813096Y-99268489D01*
X128872594Y-99185689D01*
X128940435Y-99091277D01*
X128943453Y-99087077D01*
X129042430Y-98886811D01*
X129107370Y-98673069D01*
X129136529Y-98451590D01*
X129138156Y-98385000D01*
X129119852Y-98162361D01*
X129065431Y-97945702D01*
X128976354Y-97740840D01*
X128855014Y-97553277D01*
X128704670Y-97388051D01*
X128700619Y-97384852D01*
X128700615Y-97384848D01*
X128533414Y-97252800D01*
X128533410Y-97252798D01*
X128529359Y-97249598D01*
X128488053Y-97226796D01*
X128438084Y-97176364D01*
X128423312Y-97106921D01*
X128448428Y-97040516D01*
X128475780Y-97013909D01*
X128519603Y-96982650D01*
X128654860Y-96886173D01*
X128665024Y-96876045D01*
X128780783Y-96760689D01*
X128813096Y-96728489D01*
X128849049Y-96678455D01*
X128901132Y-96605974D01*
X128957127Y-96562326D01*
X129003455Y-96553500D01*
X129426088Y-96553500D01*
X129434658Y-96553792D01*
X129484776Y-96557209D01*
X129484780Y-96557209D01*
X129492352Y-96557725D01*
X129499829Y-96556420D01*
X129499830Y-96556420D01*
X129526308Y-96551799D01*
X129555303Y-96546738D01*
X129561821Y-96545777D01*
X129625242Y-96538102D01*
X129632343Y-96535419D01*
X129634952Y-96534778D01*
X129651262Y-96530315D01*
X129653798Y-96529550D01*
X129661284Y-96528243D01*
X129719800Y-96502556D01*
X129725904Y-96500065D01*
X129726974Y-96499661D01*
X129785656Y-96477487D01*
X129791919Y-96473183D01*
X129794285Y-96471946D01*
X129809097Y-96463701D01*
X129811351Y-96462368D01*
X129818305Y-96459315D01*
X129869002Y-96420413D01*
X129874332Y-96416541D01*
X129920720Y-96384661D01*
X129920725Y-96384656D01*
X129926981Y-96380357D01*
X129938313Y-96367639D01*
X129968435Y-96333830D01*
X129973416Y-96328554D01*
X131356566Y-94945405D01*
X131418878Y-94911379D01*
X131445661Y-94908500D01*
X143854340Y-94908500D01*
X143922461Y-94928502D01*
X143943435Y-94945405D01*
X144079435Y-95081405D01*
X144113461Y-95143717D01*
X144108396Y-95214532D01*
X144065849Y-95271368D01*
X143999329Y-95296179D01*
X143990340Y-95296500D01*
X139818768Y-95296500D01*
X139807585Y-95295973D01*
X139800092Y-95294298D01*
X139792166Y-95294547D01*
X139792165Y-95294547D01*
X139732002Y-95296438D01*
X139728044Y-95296500D01*
X139700144Y-95296500D01*
X139696154Y-95297004D01*
X139684320Y-95297936D01*
X139640111Y-95299326D01*
X139632497Y-95301538D01*
X139632492Y-95301539D01*
X139620659Y-95304977D01*
X139601296Y-95308988D01*
X139581203Y-95311526D01*
X139573836Y-95314443D01*
X139573831Y-95314444D01*
X139540092Y-95327802D01*
X139528865Y-95331646D01*
X139486407Y-95343982D01*
X139479581Y-95348019D01*
X139468972Y-95354293D01*
X139451224Y-95362988D01*
X139432383Y-95370448D01*
X139425967Y-95375110D01*
X139425966Y-95375110D01*
X139396613Y-95396436D01*
X139386693Y-95402952D01*
X139355465Y-95421420D01*
X139355462Y-95421422D01*
X139348638Y-95425458D01*
X139334317Y-95439779D01*
X139319284Y-95452619D01*
X139302893Y-95464528D01*
X139297842Y-95470634D01*
X139274702Y-95498605D01*
X139266712Y-95507384D01*
X130319500Y-104454595D01*
X130257188Y-104488621D01*
X130230405Y-104491500D01*
X129051805Y-104491500D01*
X128983684Y-104471498D01*
X128946013Y-104433940D01*
X128943572Y-104430166D01*
X128892433Y-104351118D01*
X128857822Y-104297617D01*
X128857820Y-104297614D01*
X128855014Y-104293277D01*
X128704670Y-104128051D01*
X128700619Y-104124852D01*
X128700615Y-104124848D01*
X128533414Y-103992800D01*
X128533410Y-103992798D01*
X128529359Y-103989598D01*
X128333789Y-103881638D01*
X128328920Y-103879914D01*
X128328916Y-103879912D01*
X128128087Y-103808795D01*
X128128083Y-103808794D01*
X128123212Y-103807069D01*
X128118119Y-103806162D01*
X128118116Y-103806161D01*
X127908373Y-103768800D01*
X127908367Y-103768799D01*
X127903284Y-103767894D01*
X127829452Y-103766992D01*
X127685081Y-103765228D01*
X127685079Y-103765228D01*
X127679911Y-103765165D01*
X127459091Y-103798955D01*
X127246756Y-103868357D01*
X127048607Y-103971507D01*
X127044474Y-103974610D01*
X127044471Y-103974612D01*
X127020247Y-103992800D01*
X126869965Y-104105635D01*
X126715629Y-104267138D01*
X126712715Y-104271410D01*
X126712714Y-104271411D01*
X126660989Y-104347237D01*
X126589743Y-104451680D01*
X126572596Y-104488621D01*
X126504932Y-104634391D01*
X126495688Y-104654305D01*
X126435989Y-104869570D01*
X126412251Y-105091695D01*
X126412548Y-105096848D01*
X126412548Y-105096851D01*
X126414761Y-105135229D01*
X126425110Y-105314715D01*
X126426247Y-105319761D01*
X126426248Y-105319767D01*
X126450304Y-105426508D01*
X126474222Y-105532639D01*
X126534014Y-105679890D01*
X126551662Y-105723351D01*
X126558266Y-105739616D01*
X126674987Y-105930088D01*
X126821250Y-106098938D01*
X126993126Y-106241632D01*
X127066955Y-106284774D01*
X127115679Y-106336412D01*
X127128750Y-106406195D01*
X127102019Y-106471967D01*
X127061562Y-106505327D01*
X127053457Y-106509546D01*
X127044738Y-106515036D01*
X126874433Y-106642905D01*
X126866726Y-106649748D01*
X126719590Y-106803717D01*
X126713104Y-106811727D01*
X126593098Y-106987649D01*
X126588000Y-106996623D01*
X126498338Y-107189783D01*
X126494775Y-107199470D01*
X126439389Y-107399183D01*
X126440912Y-107407607D01*
X126453292Y-107411000D01*
X129093344Y-107411000D01*
X129106875Y-107407027D01*
X129108180Y-107397947D01*
X129066214Y-107230875D01*
X129062894Y-107221124D01*
X128977972Y-107025814D01*
X128973105Y-107016739D01*
X128857426Y-106837926D01*
X128851136Y-106829757D01*
X128707806Y-106672240D01*
X128700273Y-106665215D01*
X128533139Y-106533222D01*
X128524556Y-106527520D01*
X128487602Y-106507120D01*
X128437631Y-106456687D01*
X128422859Y-106387245D01*
X128447975Y-106320839D01*
X128475327Y-106294232D01*
X128498797Y-106277491D01*
X128654860Y-106166173D01*
X128668730Y-106152352D01*
X128779114Y-106042352D01*
X128813096Y-106008489D01*
X128872594Y-105925689D01*
X128940435Y-105831277D01*
X128943453Y-105827077D01*
X128945746Y-105822437D01*
X128947446Y-105819608D01*
X128999674Y-105771518D01*
X129055451Y-105758500D01*
X130466233Y-105758500D01*
X130477416Y-105759027D01*
X130484909Y-105760702D01*
X130492835Y-105760453D01*
X130492836Y-105760453D01*
X130552986Y-105758562D01*
X130556945Y-105758500D01*
X130584856Y-105758500D01*
X130588791Y-105758003D01*
X130588856Y-105757995D01*
X130600693Y-105757062D01*
X130632951Y-105756048D01*
X130636970Y-105755922D01*
X130644889Y-105755673D01*
X130664343Y-105750021D01*
X130683700Y-105746013D01*
X130695930Y-105744468D01*
X130695931Y-105744468D01*
X130703797Y-105743474D01*
X130711168Y-105740555D01*
X130711170Y-105740555D01*
X130744912Y-105727196D01*
X130756142Y-105723351D01*
X130790983Y-105713229D01*
X130790984Y-105713229D01*
X130798593Y-105711018D01*
X130805412Y-105706985D01*
X130805417Y-105706983D01*
X130816028Y-105700707D01*
X130833776Y-105692012D01*
X130852617Y-105684552D01*
X130888387Y-105658564D01*
X130898307Y-105652048D01*
X130929535Y-105633580D01*
X130929538Y-105633578D01*
X130936362Y-105629542D01*
X130950683Y-105615221D01*
X130965717Y-105602380D01*
X130975694Y-105595131D01*
X130982107Y-105590472D01*
X131010298Y-105556395D01*
X131018288Y-105547616D01*
X131065404Y-105500500D01*
X145716496Y-105500500D01*
X145717186Y-105507065D01*
X145728554Y-105615221D01*
X145736458Y-105690428D01*
X145795473Y-105872056D01*
X145890960Y-106037444D01*
X145895378Y-106042351D01*
X145895379Y-106042352D01*
X146003587Y-106162529D01*
X146018747Y-106179366D01*
X146173248Y-106291618D01*
X146179276Y-106294302D01*
X146179278Y-106294303D01*
X146273857Y-106336412D01*
X146347712Y-106369294D01*
X146441112Y-106389147D01*
X146528056Y-106407628D01*
X146528061Y-106407628D01*
X146534513Y-106409000D01*
X146725487Y-106409000D01*
X146731939Y-106407628D01*
X146731944Y-106407628D01*
X146818888Y-106389147D01*
X146912288Y-106369294D01*
X146986143Y-106336412D01*
X147080722Y-106294303D01*
X147080724Y-106294302D01*
X147086752Y-106291618D01*
X147241253Y-106179366D01*
X147256413Y-106162529D01*
X147364621Y-106042352D01*
X147364622Y-106042351D01*
X147369040Y-106037444D01*
X147464527Y-105872056D01*
X147523542Y-105690428D01*
X147531447Y-105615221D01*
X147542814Y-105507065D01*
X147543504Y-105500500D01*
X147538617Y-105454000D01*
X147524232Y-105317135D01*
X147524232Y-105317133D01*
X147523542Y-105310572D01*
X147464527Y-105128944D01*
X147369040Y-104963556D01*
X147336922Y-104927885D01*
X162167000Y-104927885D01*
X162171475Y-104943124D01*
X162172865Y-104944329D01*
X162180548Y-104946000D01*
X163252885Y-104946000D01*
X163268124Y-104941525D01*
X163269329Y-104940135D01*
X163271000Y-104932452D01*
X163271000Y-104927885D01*
X163779000Y-104927885D01*
X163783475Y-104943124D01*
X163784865Y-104944329D01*
X163792548Y-104946000D01*
X164864884Y-104946000D01*
X164880123Y-104941525D01*
X164881328Y-104940135D01*
X164882999Y-104932452D01*
X164882999Y-104305331D01*
X164882629Y-104298510D01*
X164877105Y-104247648D01*
X164873479Y-104232396D01*
X164828324Y-104111946D01*
X164819786Y-104096351D01*
X164743285Y-103994276D01*
X164730724Y-103981715D01*
X164628649Y-103905214D01*
X164613054Y-103896676D01*
X164492606Y-103851522D01*
X164477351Y-103847895D01*
X164426486Y-103842369D01*
X164419672Y-103842000D01*
X163797115Y-103842000D01*
X163781876Y-103846475D01*
X163780671Y-103847865D01*
X163779000Y-103855548D01*
X163779000Y-104927885D01*
X163271000Y-104927885D01*
X163271000Y-103860116D01*
X163266525Y-103844877D01*
X163265135Y-103843672D01*
X163257452Y-103842001D01*
X162630331Y-103842001D01*
X162623510Y-103842371D01*
X162572648Y-103847895D01*
X162557396Y-103851521D01*
X162436946Y-103896676D01*
X162421351Y-103905214D01*
X162319276Y-103981715D01*
X162306715Y-103994276D01*
X162230214Y-104096351D01*
X162221676Y-104111946D01*
X162176522Y-104232394D01*
X162172895Y-104247649D01*
X162167369Y-104298514D01*
X162167000Y-104305328D01*
X162167000Y-104927885D01*
X147336922Y-104927885D01*
X147241253Y-104821634D01*
X147086752Y-104709382D01*
X147080724Y-104706698D01*
X147080722Y-104706697D01*
X146918319Y-104634391D01*
X146918318Y-104634391D01*
X146912288Y-104631706D01*
X146818888Y-104611853D01*
X146731944Y-104593372D01*
X146731939Y-104593372D01*
X146725487Y-104592000D01*
X146534513Y-104592000D01*
X146528061Y-104593372D01*
X146528056Y-104593372D01*
X146441113Y-104611853D01*
X146347712Y-104631706D01*
X146341682Y-104634391D01*
X146341681Y-104634391D01*
X146179278Y-104706697D01*
X146179276Y-104706698D01*
X146173248Y-104709382D01*
X146018747Y-104821634D01*
X145890960Y-104963556D01*
X145795473Y-105128944D01*
X145736458Y-105310572D01*
X145735768Y-105317133D01*
X145735768Y-105317135D01*
X145721383Y-105454000D01*
X145716496Y-105500500D01*
X131065404Y-105500500D01*
X133005904Y-103560000D01*
X147156496Y-103560000D01*
X147176458Y-103749928D01*
X147235473Y-103931556D01*
X147330960Y-104096944D01*
X147335378Y-104101851D01*
X147335379Y-104101852D01*
X147452921Y-104232396D01*
X147458747Y-104238866D01*
X147613248Y-104351118D01*
X147619276Y-104353802D01*
X147619278Y-104353803D01*
X147781681Y-104426109D01*
X147787712Y-104428794D01*
X147875251Y-104447401D01*
X147968056Y-104467128D01*
X147968061Y-104467128D01*
X147974513Y-104468500D01*
X148165487Y-104468500D01*
X148171939Y-104467128D01*
X148171944Y-104467128D01*
X148264749Y-104447401D01*
X148352288Y-104428794D01*
X148358319Y-104426109D01*
X148520722Y-104353803D01*
X148520724Y-104353802D01*
X148526752Y-104351118D01*
X148681253Y-104238866D01*
X148687079Y-104232396D01*
X148804621Y-104101852D01*
X148804622Y-104101851D01*
X148809040Y-104096944D01*
X148904527Y-103931556D01*
X148963542Y-103749928D01*
X148983504Y-103560000D01*
X148963542Y-103370072D01*
X148904527Y-103188444D01*
X148809040Y-103023056D01*
X148681253Y-102881134D01*
X148526752Y-102768882D01*
X148520724Y-102766198D01*
X148520722Y-102766197D01*
X148358319Y-102693891D01*
X148358318Y-102693891D01*
X148352288Y-102691206D01*
X148258887Y-102671353D01*
X148171944Y-102652872D01*
X148171939Y-102652872D01*
X148165487Y-102651500D01*
X147974513Y-102651500D01*
X147968061Y-102652872D01*
X147968056Y-102652872D01*
X147881113Y-102671353D01*
X147787712Y-102691206D01*
X147781682Y-102693891D01*
X147781681Y-102693891D01*
X147619278Y-102766197D01*
X147619276Y-102766198D01*
X147613248Y-102768882D01*
X147458747Y-102881134D01*
X147330960Y-103023056D01*
X147235473Y-103188444D01*
X147176458Y-103370072D01*
X147156496Y-103560000D01*
X133005904Y-103560000D01*
X139965499Y-96600405D01*
X140027811Y-96566379D01*
X140054594Y-96563500D01*
X149424380Y-96563500D01*
X149492501Y-96583502D01*
X149538994Y-96637158D01*
X149549098Y-96707432D01*
X149519604Y-96772012D01*
X149498441Y-96791436D01*
X149455818Y-96822404D01*
X149388747Y-96871134D01*
X149384326Y-96876044D01*
X149384325Y-96876045D01*
X149274941Y-96997529D01*
X149260960Y-97013056D01*
X149165473Y-97178444D01*
X149106458Y-97360072D01*
X149086496Y-97550000D01*
X149087186Y-97556565D01*
X149103983Y-97716375D01*
X149106458Y-97739928D01*
X149165473Y-97921556D01*
X149260960Y-98086944D01*
X149334137Y-98168215D01*
X149364853Y-98232221D01*
X149366500Y-98252524D01*
X149366500Y-99301233D01*
X149365973Y-99312416D01*
X149364298Y-99319909D01*
X149364547Y-99327835D01*
X149364547Y-99327836D01*
X149366438Y-99387986D01*
X149366500Y-99391945D01*
X149366500Y-99419856D01*
X149366997Y-99423790D01*
X149366997Y-99423791D01*
X149367005Y-99423856D01*
X149367938Y-99435693D01*
X149369327Y-99479889D01*
X149374136Y-99496441D01*
X149374978Y-99499339D01*
X149378987Y-99518700D01*
X149381526Y-99538797D01*
X149384445Y-99546168D01*
X149384445Y-99546170D01*
X149397804Y-99579912D01*
X149401649Y-99591142D01*
X149413982Y-99633593D01*
X149418015Y-99640412D01*
X149418017Y-99640417D01*
X149424293Y-99651028D01*
X149432988Y-99668776D01*
X149440448Y-99687617D01*
X149445110Y-99694033D01*
X149445110Y-99694034D01*
X149466436Y-99723387D01*
X149472952Y-99733307D01*
X149489717Y-99761654D01*
X149495458Y-99771362D01*
X149509779Y-99785683D01*
X149522619Y-99800716D01*
X149534528Y-99817107D01*
X149540634Y-99822158D01*
X149568605Y-99845298D01*
X149577384Y-99853288D01*
X151156343Y-101432247D01*
X151163887Y-101440537D01*
X151168000Y-101447018D01*
X151173777Y-101452443D01*
X151217667Y-101493658D01*
X151220509Y-101496413D01*
X151240231Y-101516135D01*
X151243355Y-101518558D01*
X151243359Y-101518562D01*
X151243424Y-101518612D01*
X151252445Y-101526317D01*
X151284679Y-101556586D01*
X151291627Y-101560405D01*
X151291629Y-101560407D01*
X151302432Y-101566346D01*
X151318959Y-101577202D01*
X151328698Y-101584757D01*
X151328700Y-101584758D01*
X151334960Y-101589614D01*
X151375540Y-101607174D01*
X151386188Y-101612391D01*
X151424940Y-101633695D01*
X151432616Y-101635666D01*
X151432619Y-101635667D01*
X151444562Y-101638733D01*
X151463267Y-101645137D01*
X151481855Y-101653181D01*
X151489678Y-101654420D01*
X151489688Y-101654423D01*
X151525524Y-101660099D01*
X151537144Y-101662505D01*
X151572289Y-101671528D01*
X151579970Y-101673500D01*
X151600224Y-101673500D01*
X151619934Y-101675051D01*
X151639943Y-101678220D01*
X151647835Y-101677474D01*
X151683961Y-101674059D01*
X151695819Y-101673500D01*
X162224274Y-101673500D01*
X162292395Y-101693502D01*
X162331707Y-101733665D01*
X162399987Y-101845088D01*
X162546250Y-102013938D01*
X162718126Y-102156632D01*
X162911000Y-102269338D01*
X162915825Y-102271180D01*
X162915826Y-102271181D01*
X162945811Y-102282631D01*
X163119692Y-102349030D01*
X163124760Y-102350061D01*
X163124763Y-102350062D01*
X163232017Y-102371883D01*
X163338597Y-102393567D01*
X163343772Y-102393757D01*
X163343774Y-102393757D01*
X163556673Y-102401564D01*
X163556677Y-102401564D01*
X163561837Y-102401753D01*
X163566957Y-102401097D01*
X163566959Y-102401097D01*
X163778288Y-102374025D01*
X163778289Y-102374025D01*
X163783416Y-102373368D01*
X163788366Y-102371883D01*
X163992429Y-102310661D01*
X163992434Y-102310659D01*
X163997384Y-102309174D01*
X164197994Y-102210896D01*
X164379860Y-102081173D01*
X164448218Y-102013054D01*
X164534435Y-101927137D01*
X164538096Y-101923489D01*
X164607797Y-101826490D01*
X164665435Y-101746277D01*
X164668453Y-101742077D01*
X164672611Y-101733665D01*
X164765136Y-101546453D01*
X164765137Y-101546451D01*
X164767430Y-101541811D01*
X164832370Y-101328069D01*
X164861529Y-101106590D01*
X164863156Y-101040000D01*
X164844852Y-100817361D01*
X164790431Y-100600702D01*
X164701354Y-100395840D01*
X164580014Y-100208277D01*
X164429670Y-100043051D01*
X164425619Y-100039852D01*
X164425615Y-100039848D01*
X164258414Y-99907800D01*
X164258410Y-99907798D01*
X164254359Y-99904598D01*
X164212569Y-99881529D01*
X164162598Y-99831097D01*
X164147826Y-99761654D01*
X164172942Y-99695248D01*
X164200294Y-99668641D01*
X164375328Y-99543792D01*
X164383200Y-99537139D01*
X164534052Y-99386812D01*
X164540730Y-99378965D01*
X164665003Y-99206020D01*
X164670313Y-99197183D01*
X164764670Y-99006267D01*
X164768469Y-98996672D01*
X164830377Y-98792910D01*
X164832555Y-98782837D01*
X164833986Y-98771962D01*
X164831775Y-98757778D01*
X164818617Y-98754000D01*
X162183225Y-98754000D01*
X162169694Y-98757973D01*
X162168257Y-98767966D01*
X162198565Y-98902446D01*
X162201645Y-98912275D01*
X162281770Y-99109603D01*
X162286413Y-99118794D01*
X162397694Y-99300388D01*
X162403777Y-99308699D01*
X162543213Y-99469667D01*
X162550580Y-99476883D01*
X162714434Y-99612916D01*
X162722881Y-99618831D01*
X162791969Y-99659203D01*
X162840693Y-99710842D01*
X162853764Y-99780625D01*
X162827033Y-99846396D01*
X162786584Y-99879752D01*
X162773607Y-99886507D01*
X162769474Y-99889610D01*
X162769471Y-99889612D01*
X162658876Y-99972649D01*
X162594965Y-100020635D01*
X162440629Y-100182138D01*
X162437715Y-100186410D01*
X162437714Y-100186411D01*
X162325095Y-100351504D01*
X162270184Y-100396507D01*
X162221007Y-100406500D01*
X151974594Y-100406500D01*
X151906473Y-100386498D01*
X151885499Y-100369595D01*
X150670405Y-99154500D01*
X150636379Y-99092188D01*
X150633500Y-99065405D01*
X150633500Y-98252524D01*
X150653502Y-98184403D01*
X150665858Y-98168221D01*
X150739040Y-98086944D01*
X150834527Y-97921556D01*
X150893542Y-97739928D01*
X150896018Y-97716375D01*
X150904690Y-97633861D01*
X150931703Y-97568204D01*
X150957220Y-97550397D01*
X150937986Y-97539047D01*
X150906056Y-97475636D01*
X150904690Y-97466139D01*
X150894232Y-97366635D01*
X150894232Y-97366633D01*
X150893542Y-97360072D01*
X150834527Y-97178444D01*
X150739040Y-97013056D01*
X150725060Y-96997529D01*
X150615675Y-96876045D01*
X150615674Y-96876044D01*
X150611253Y-96871134D01*
X150544182Y-96822404D01*
X150501559Y-96791436D01*
X150458205Y-96735213D01*
X150452130Y-96664477D01*
X150485262Y-96601686D01*
X150547082Y-96566774D01*
X150575620Y-96563500D01*
X151115406Y-96563500D01*
X151183527Y-96583502D01*
X151204501Y-96600405D01*
X151376747Y-96772651D01*
X151410773Y-96834963D01*
X151405708Y-96905778D01*
X151381292Y-96946051D01*
X151320960Y-97013056D01*
X151225473Y-97178444D01*
X151166458Y-97360072D01*
X151165768Y-97366633D01*
X151165768Y-97366635D01*
X151155310Y-97466139D01*
X151128297Y-97531796D01*
X151102780Y-97549603D01*
X151122014Y-97560953D01*
X151153944Y-97624364D01*
X151155310Y-97633861D01*
X151163983Y-97716375D01*
X151166458Y-97739928D01*
X151225473Y-97921556D01*
X151320960Y-98086944D01*
X151325375Y-98091847D01*
X151325379Y-98091852D01*
X151388866Y-98162361D01*
X151448747Y-98228866D01*
X151603248Y-98341118D01*
X151609276Y-98343802D01*
X151609278Y-98343803D01*
X151701809Y-98385000D01*
X151777712Y-98418794D01*
X151871112Y-98438647D01*
X151958056Y-98457128D01*
X151958061Y-98457128D01*
X151964513Y-98458500D01*
X152155487Y-98458500D01*
X152161939Y-98457128D01*
X152161944Y-98457128D01*
X152248887Y-98438647D01*
X152342288Y-98418794D01*
X152418191Y-98385000D01*
X152510722Y-98343803D01*
X152510724Y-98343802D01*
X152516752Y-98341118D01*
X152671253Y-98228866D01*
X152731134Y-98162361D01*
X152794621Y-98091852D01*
X152794625Y-98091847D01*
X152799040Y-98086944D01*
X152894527Y-97921556D01*
X152953542Y-97739928D01*
X152956018Y-97716375D01*
X152972814Y-97556565D01*
X152973504Y-97550000D01*
X152953542Y-97360072D01*
X152894527Y-97178444D01*
X152799040Y-97013056D01*
X152725863Y-96931785D01*
X152695147Y-96867779D01*
X152693500Y-96847476D01*
X152693500Y-96638768D01*
X152694027Y-96627585D01*
X152695702Y-96620092D01*
X152693562Y-96552001D01*
X152693500Y-96548044D01*
X152693500Y-96520144D01*
X152692996Y-96516153D01*
X152692063Y-96504311D01*
X152691967Y-96501232D01*
X152690674Y-96460111D01*
X152687397Y-96448830D01*
X152685021Y-96440652D01*
X152681012Y-96421293D01*
X152680648Y-96418411D01*
X152678474Y-96401203D01*
X152675558Y-96393837D01*
X152675556Y-96393831D01*
X152662200Y-96360098D01*
X152658355Y-96348868D01*
X152648230Y-96314017D01*
X152648230Y-96314016D01*
X152646019Y-96306407D01*
X152635705Y-96288966D01*
X152627008Y-96271213D01*
X152622472Y-96259758D01*
X152619552Y-96252383D01*
X152593563Y-96216612D01*
X152587047Y-96206692D01*
X152568578Y-96175463D01*
X152564542Y-96168638D01*
X152550221Y-96154317D01*
X152537380Y-96139283D01*
X152530132Y-96129307D01*
X152525472Y-96122893D01*
X152521534Y-96119635D01*
X152490048Y-96057404D01*
X152497334Y-95986783D01*
X152541644Y-95931311D01*
X152613949Y-95908500D01*
X160171088Y-95908500D01*
X160179658Y-95908792D01*
X160229776Y-95912209D01*
X160229780Y-95912209D01*
X160237352Y-95912725D01*
X160244829Y-95911420D01*
X160244830Y-95911420D01*
X160271308Y-95906799D01*
X160300303Y-95901738D01*
X160306821Y-95900777D01*
X160370242Y-95893102D01*
X160377343Y-95890419D01*
X160379952Y-95889778D01*
X160396262Y-95885315D01*
X160398798Y-95884550D01*
X160406284Y-95883243D01*
X160464800Y-95857556D01*
X160470904Y-95855065D01*
X160523548Y-95835173D01*
X160523549Y-95835172D01*
X160530656Y-95832487D01*
X160536919Y-95828183D01*
X160539285Y-95826946D01*
X160554097Y-95818701D01*
X160556351Y-95817368D01*
X160563305Y-95814315D01*
X160614002Y-95775413D01*
X160619332Y-95771541D01*
X160665720Y-95739661D01*
X160665725Y-95739656D01*
X160671981Y-95735357D01*
X160713436Y-95688829D01*
X160718416Y-95683554D01*
X162202199Y-94199772D01*
X162264511Y-94165746D01*
X162335327Y-94170811D01*
X162392162Y-94213358D01*
X162395172Y-94217793D01*
X162397290Y-94220687D01*
X162399987Y-94225088D01*
X162546250Y-94393938D01*
X162718126Y-94536632D01*
X162769960Y-94566921D01*
X162791445Y-94579476D01*
X162840169Y-94631114D01*
X162853240Y-94700897D01*
X162826509Y-94766669D01*
X162786055Y-94800027D01*
X162773607Y-94806507D01*
X162769474Y-94809610D01*
X162769471Y-94809612D01*
X162599100Y-94937530D01*
X162594965Y-94940635D01*
X162591393Y-94944373D01*
X162462797Y-95078941D01*
X162440629Y-95102138D01*
X162314743Y-95286680D01*
X162286271Y-95348019D01*
X162229355Y-95470634D01*
X162220688Y-95489305D01*
X162160989Y-95704570D01*
X162137251Y-95926695D01*
X162137548Y-95931848D01*
X162137548Y-95931851D01*
X162149812Y-96144547D01*
X162150110Y-96149715D01*
X162151247Y-96154761D01*
X162151248Y-96154767D01*
X162164104Y-96211810D01*
X162199222Y-96367639D01*
X162243826Y-96477487D01*
X162278276Y-96562326D01*
X162283266Y-96574616D01*
X162317170Y-96629943D01*
X162381680Y-96735213D01*
X162399987Y-96765088D01*
X162546250Y-96933938D01*
X162718126Y-97076632D01*
X162769960Y-97106921D01*
X162791955Y-97119774D01*
X162840679Y-97171412D01*
X162853750Y-97241195D01*
X162827019Y-97306967D01*
X162786562Y-97340327D01*
X162778457Y-97344546D01*
X162769738Y-97350036D01*
X162599433Y-97477905D01*
X162591726Y-97484748D01*
X162444590Y-97638717D01*
X162438104Y-97646727D01*
X162318098Y-97822649D01*
X162313000Y-97831623D01*
X162223338Y-98024783D01*
X162219775Y-98034470D01*
X162164389Y-98234183D01*
X162165912Y-98242607D01*
X162178292Y-98246000D01*
X164818344Y-98246000D01*
X164831875Y-98242027D01*
X164833180Y-98232947D01*
X164791214Y-98065875D01*
X164787894Y-98056124D01*
X164702972Y-97860814D01*
X164698105Y-97851739D01*
X164582426Y-97672926D01*
X164576136Y-97664757D01*
X164432806Y-97507240D01*
X164425273Y-97500215D01*
X164258139Y-97368222D01*
X164249556Y-97362520D01*
X164212602Y-97342120D01*
X164162631Y-97291687D01*
X164147859Y-97222245D01*
X164172975Y-97155839D01*
X164200327Y-97129232D01*
X164231606Y-97106921D01*
X164379860Y-97001173D01*
X164419540Y-96961632D01*
X164492254Y-96889171D01*
X164538096Y-96843489D01*
X164541110Y-96839295D01*
X164541119Y-96839284D01*
X164625322Y-96722103D01*
X164681316Y-96678455D01*
X164736212Y-96669921D01*
X164769774Y-96672209D01*
X164769779Y-96672209D01*
X164777352Y-96672725D01*
X164784829Y-96671420D01*
X164784830Y-96671420D01*
X164824611Y-96664477D01*
X164840303Y-96661738D01*
X164846821Y-96660777D01*
X164910242Y-96653102D01*
X164917343Y-96650419D01*
X164919952Y-96649778D01*
X164936262Y-96645315D01*
X164938798Y-96644550D01*
X164946284Y-96643243D01*
X165004800Y-96617556D01*
X165010904Y-96615065D01*
X165063548Y-96595173D01*
X165063549Y-96595172D01*
X165070656Y-96592487D01*
X165076919Y-96588183D01*
X165079285Y-96586946D01*
X165094097Y-96578701D01*
X165096351Y-96577368D01*
X165103305Y-96574315D01*
X165154002Y-96535413D01*
X165159332Y-96531541D01*
X165205720Y-96499661D01*
X165205725Y-96499656D01*
X165211981Y-96495357D01*
X165225510Y-96480173D01*
X165253435Y-96448830D01*
X165258416Y-96443554D01*
X165311405Y-96390565D01*
X165373717Y-96356539D01*
X165444532Y-96361604D01*
X165501368Y-96404151D01*
X165526179Y-96470671D01*
X165526500Y-96479660D01*
X165526500Y-107520340D01*
X165506498Y-107588461D01*
X165452842Y-107634954D01*
X165382568Y-107645058D01*
X165317988Y-107615564D01*
X165311405Y-107609435D01*
X164961450Y-107259480D01*
X164955596Y-107253215D01*
X164927601Y-107221124D01*
X164917561Y-107209615D01*
X164865280Y-107172871D01*
X164859986Y-107168939D01*
X164815693Y-107134209D01*
X164809718Y-107129524D01*
X164802802Y-107126401D01*
X164800516Y-107125017D01*
X164785835Y-107116643D01*
X164783475Y-107115378D01*
X164777261Y-107111010D01*
X164769234Y-107107880D01*
X164760221Y-107104366D01*
X164700202Y-107055414D01*
X164607822Y-106912617D01*
X164607820Y-106912614D01*
X164605014Y-106908277D01*
X164601540Y-106904459D01*
X164601533Y-106904450D01*
X164457435Y-106746088D01*
X164426383Y-106682242D01*
X164434779Y-106611744D01*
X164479956Y-106556976D01*
X164506400Y-106543307D01*
X164613052Y-106503325D01*
X164628649Y-106494786D01*
X164730724Y-106418285D01*
X164743285Y-106405724D01*
X164819786Y-106303649D01*
X164828324Y-106288054D01*
X164873478Y-106167606D01*
X164877105Y-106152351D01*
X164882631Y-106101486D01*
X164883000Y-106094672D01*
X164883000Y-105472115D01*
X164878525Y-105456876D01*
X164877135Y-105455671D01*
X164869452Y-105454000D01*
X162185116Y-105454000D01*
X162169877Y-105458475D01*
X162168672Y-105459865D01*
X162167001Y-105467548D01*
X162167001Y-106094669D01*
X162167371Y-106101490D01*
X162172895Y-106152352D01*
X162176521Y-106167604D01*
X162221676Y-106288054D01*
X162230214Y-106303649D01*
X162306715Y-106405724D01*
X162319276Y-106418285D01*
X162421351Y-106494786D01*
X162436946Y-106503324D01*
X162545827Y-106544142D01*
X162602591Y-106586784D01*
X162627291Y-106653345D01*
X162612083Y-106722694D01*
X162592691Y-106749175D01*
X162540570Y-106803717D01*
X162465629Y-106882138D01*
X162339743Y-107066680D01*
X162322250Y-107104366D01*
X162250249Y-107259480D01*
X162245688Y-107269305D01*
X162185989Y-107484570D01*
X162162251Y-107706695D01*
X162175110Y-107929715D01*
X162176247Y-107934761D01*
X162176248Y-107934767D01*
X162200304Y-108041508D01*
X162224222Y-108147639D01*
X162308266Y-108354616D01*
X162424987Y-108545088D01*
X162571250Y-108713938D01*
X162743126Y-108856632D01*
X162795213Y-108887069D01*
X162816445Y-108899476D01*
X162865169Y-108951114D01*
X162878240Y-109020897D01*
X162851509Y-109086669D01*
X162811055Y-109120027D01*
X162798607Y-109126507D01*
X162794474Y-109129610D01*
X162794471Y-109129612D01*
X162677238Y-109217633D01*
X162619965Y-109260635D01*
X162465629Y-109422138D01*
X162462715Y-109426410D01*
X162462714Y-109426411D01*
X162387702Y-109536375D01*
X162339743Y-109606680D01*
X162245688Y-109809305D01*
X162185989Y-110024570D01*
X162162251Y-110246695D01*
X162175110Y-110469715D01*
X162176247Y-110474761D01*
X162176248Y-110474767D01*
X162200304Y-110581508D01*
X162224222Y-110687639D01*
X162308266Y-110894616D01*
X162424987Y-111085088D01*
X162571250Y-111253938D01*
X162743126Y-111396632D01*
X162749773Y-111400516D01*
X162816445Y-111439476D01*
X162865169Y-111491114D01*
X162878240Y-111560897D01*
X162851509Y-111626669D01*
X162811055Y-111660027D01*
X162798607Y-111666507D01*
X162794474Y-111669610D01*
X162794471Y-111669612D01*
X162677238Y-111757633D01*
X162619965Y-111800635D01*
X162465629Y-111962138D01*
X162462715Y-111966410D01*
X162462714Y-111966411D01*
X162387702Y-112076375D01*
X162339743Y-112146680D01*
X162337564Y-112151375D01*
X162252847Y-112333883D01*
X162245688Y-112349305D01*
X162185989Y-112564570D01*
X162162251Y-112786695D01*
X162175110Y-113009715D01*
X162176247Y-113014761D01*
X162176248Y-113014767D01*
X162200304Y-113121508D01*
X162224222Y-113227639D01*
X162226166Y-113232427D01*
X162227714Y-113237367D01*
X162225391Y-113238095D01*
X162231523Y-113298636D01*
X162199352Y-113361926D01*
X162138072Y-113397776D01*
X162107665Y-113401500D01*
X161718912Y-113401500D01*
X161710342Y-113401208D01*
X161660224Y-113397791D01*
X161660220Y-113397791D01*
X161652648Y-113397275D01*
X161645171Y-113398580D01*
X161645170Y-113398580D01*
X161628440Y-113401500D01*
X161589703Y-113408261D01*
X161583186Y-113409222D01*
X161519758Y-113416898D01*
X161512650Y-113419584D01*
X161510056Y-113420221D01*
X161493750Y-113424682D01*
X161491199Y-113425452D01*
X161483716Y-113426758D01*
X161476764Y-113429810D01*
X161476763Y-113429810D01*
X161425212Y-113452439D01*
X161419105Y-113454931D01*
X161366452Y-113474827D01*
X161359344Y-113477513D01*
X161353083Y-113481816D01*
X161350717Y-113483053D01*
X161335937Y-113491280D01*
X161333652Y-113492631D01*
X161326695Y-113495685D01*
X161320675Y-113500305D01*
X161320669Y-113500308D01*
X161289542Y-113524194D01*
X161275998Y-113534587D01*
X161270668Y-113538459D01*
X161224280Y-113570339D01*
X161224275Y-113570344D01*
X161218019Y-113574643D01*
X161212968Y-113580313D01*
X161212966Y-113580314D01*
X161176565Y-113621170D01*
X161171584Y-113626446D01*
X159929480Y-114868550D01*
X159923215Y-114874404D01*
X159879615Y-114912439D01*
X159875248Y-114918653D01*
X159842872Y-114964719D01*
X159838939Y-114970014D01*
X159799524Y-115020282D01*
X159796401Y-115027198D01*
X159795017Y-115029484D01*
X159786643Y-115044165D01*
X159785378Y-115046525D01*
X159781010Y-115052739D01*
X159778250Y-115059818D01*
X159778249Y-115059820D01*
X159757798Y-115112275D01*
X159755247Y-115118344D01*
X159728955Y-115176573D01*
X159727571Y-115184040D01*
X159726770Y-115186595D01*
X159722141Y-115202848D01*
X159721478Y-115205428D01*
X159718718Y-115212509D01*
X159717727Y-115220040D01*
X159717726Y-115220042D01*
X159710379Y-115275852D01*
X159709348Y-115282359D01*
X159697704Y-115345186D01*
X159698141Y-115352766D01*
X159698141Y-115352767D01*
X159701291Y-115407392D01*
X159701500Y-115414646D01*
X159701500Y-117544339D01*
X159681498Y-117612460D01*
X159664600Y-117633429D01*
X159043434Y-118254596D01*
X158981123Y-118288620D01*
X158954340Y-118291500D01*
X155540250Y-118291500D01*
X155472129Y-118271498D01*
X155425636Y-118217842D01*
X155415532Y-118147568D01*
X155437927Y-118091974D01*
X155439551Y-118089715D01*
X155538453Y-117952077D01*
X155546986Y-117934813D01*
X155635136Y-117756453D01*
X155635137Y-117756451D01*
X155637430Y-117751811D01*
X155689060Y-117581877D01*
X155700865Y-117543023D01*
X155700865Y-117543021D01*
X155702370Y-117538069D01*
X155731529Y-117316590D01*
X155731674Y-117310657D01*
X155733074Y-117253365D01*
X155733074Y-117253361D01*
X155733156Y-117250000D01*
X155714852Y-117027361D01*
X155660431Y-116810702D01*
X155571354Y-116605840D01*
X155512159Y-116514338D01*
X155452822Y-116422617D01*
X155452820Y-116422614D01*
X155450014Y-116418277D01*
X155446538Y-116414457D01*
X155446533Y-116414450D01*
X155302435Y-116256088D01*
X155271383Y-116192242D01*
X155279779Y-116121744D01*
X155324956Y-116066976D01*
X155351400Y-116053307D01*
X155458052Y-116013325D01*
X155473649Y-116004786D01*
X155575724Y-115928285D01*
X155588285Y-115915724D01*
X155664786Y-115813649D01*
X155673324Y-115798054D01*
X155718478Y-115677606D01*
X155722105Y-115662351D01*
X155727631Y-115611486D01*
X155728000Y-115604672D01*
X155728000Y-114982115D01*
X155723525Y-114966876D01*
X155722135Y-114965671D01*
X155714452Y-114964000D01*
X154242000Y-114964000D01*
X154173879Y-114943998D01*
X154127386Y-114890342D01*
X154116000Y-114838000D01*
X154116000Y-114437885D01*
X154624000Y-114437885D01*
X154628475Y-114453124D01*
X154629865Y-114454329D01*
X154637548Y-114456000D01*
X155709884Y-114456000D01*
X155725123Y-114451525D01*
X155726328Y-114450135D01*
X155727999Y-114442452D01*
X155727999Y-113815331D01*
X155727629Y-113808510D01*
X155722105Y-113757648D01*
X155718479Y-113742396D01*
X155673324Y-113621946D01*
X155664786Y-113606351D01*
X155588285Y-113504276D01*
X155575724Y-113491715D01*
X155473649Y-113415214D01*
X155458054Y-113406676D01*
X155337606Y-113361522D01*
X155322351Y-113357895D01*
X155271486Y-113352369D01*
X155264672Y-113352000D01*
X154642115Y-113352000D01*
X154626876Y-113356475D01*
X154625671Y-113357865D01*
X154624000Y-113365548D01*
X154624000Y-114437885D01*
X154116000Y-114437885D01*
X154116000Y-113370116D01*
X154111525Y-113354877D01*
X154110135Y-113353672D01*
X154102452Y-113352001D01*
X153475331Y-113352001D01*
X153468510Y-113352371D01*
X153417648Y-113357895D01*
X153402396Y-113361521D01*
X153281946Y-113406676D01*
X153266351Y-113415214D01*
X153164276Y-113491715D01*
X153151715Y-113504276D01*
X153075214Y-113606351D01*
X153066676Y-113621946D01*
X153025297Y-113732322D01*
X152982655Y-113789087D01*
X152916093Y-113813786D01*
X152846744Y-113798578D01*
X152814121Y-113772891D01*
X152763151Y-113716876D01*
X152763145Y-113716870D01*
X152759670Y-113713051D01*
X152755619Y-113709852D01*
X152755615Y-113709848D01*
X152588414Y-113577800D01*
X152588410Y-113577798D01*
X152584359Y-113574598D01*
X152548028Y-113554542D01*
X152518893Y-113538459D01*
X152388789Y-113466638D01*
X152383920Y-113464914D01*
X152383916Y-113464912D01*
X152183087Y-113393795D01*
X152183083Y-113393794D01*
X152178212Y-113392069D01*
X152173119Y-113391162D01*
X152173116Y-113391161D01*
X151963373Y-113353800D01*
X151963367Y-113353799D01*
X151958284Y-113352894D01*
X151884452Y-113351992D01*
X151740081Y-113350228D01*
X151740079Y-113350228D01*
X151734911Y-113350165D01*
X151514091Y-113383955D01*
X151453644Y-113403712D01*
X151382682Y-113405863D01*
X151321820Y-113369307D01*
X151290383Y-113305650D01*
X151288500Y-113283947D01*
X151288500Y-112708927D01*
X151288792Y-112700358D01*
X151292210Y-112650225D01*
X151292210Y-112650221D01*
X151292726Y-112642648D01*
X151281736Y-112579681D01*
X151280775Y-112573165D01*
X151274014Y-112517298D01*
X151273102Y-112509758D01*
X151270419Y-112502657D01*
X151269778Y-112500048D01*
X151265313Y-112483728D01*
X151264548Y-112481195D01*
X151263243Y-112473717D01*
X151237552Y-112415190D01*
X151235067Y-112409102D01*
X151215172Y-112356449D01*
X151215171Y-112356447D01*
X151212487Y-112349344D01*
X151208186Y-112343085D01*
X151206949Y-112340720D01*
X151198727Y-112325948D01*
X151197372Y-112323656D01*
X151194316Y-112316695D01*
X151189691Y-112310668D01*
X151189689Y-112310664D01*
X151155407Y-112265987D01*
X151151529Y-112260650D01*
X151119659Y-112214278D01*
X151119658Y-112214277D01*
X151115357Y-112208019D01*
X151068838Y-112166572D01*
X151063563Y-112161592D01*
X148626442Y-109724472D01*
X148620588Y-109718206D01*
X148587556Y-109680340D01*
X148587553Y-109680337D01*
X148582561Y-109674615D01*
X148530280Y-109637871D01*
X148524986Y-109633939D01*
X148480693Y-109599209D01*
X148474718Y-109594524D01*
X148467802Y-109591401D01*
X148465516Y-109590017D01*
X148450835Y-109581643D01*
X148448475Y-109580378D01*
X148442261Y-109576010D01*
X148435182Y-109573250D01*
X148435180Y-109573249D01*
X148382725Y-109552798D01*
X148376656Y-109550247D01*
X148318427Y-109523955D01*
X148310960Y-109522571D01*
X148308405Y-109521770D01*
X148292152Y-109517141D01*
X148289572Y-109516478D01*
X148282491Y-109513718D01*
X148274960Y-109512727D01*
X148274958Y-109512726D01*
X148245339Y-109508827D01*
X148219139Y-109505378D01*
X148212641Y-109504348D01*
X148149814Y-109492704D01*
X148142234Y-109493141D01*
X148142233Y-109493141D01*
X148087608Y-109496291D01*
X148080354Y-109496500D01*
X129003286Y-109496500D01*
X128935165Y-109476498D01*
X128897494Y-109438941D01*
X128857818Y-109377612D01*
X128855014Y-109373277D01*
X128704670Y-109208051D01*
X128700619Y-109204852D01*
X128700615Y-109204848D01*
X128533414Y-109072800D01*
X128533410Y-109072798D01*
X128529359Y-109069598D01*
X128487569Y-109046529D01*
X128437598Y-108996097D01*
X128422826Y-108926654D01*
X128447942Y-108860248D01*
X128475294Y-108833641D01*
X128508438Y-108810000D01*
X148476496Y-108810000D01*
X148477186Y-108816565D01*
X148492434Y-108961638D01*
X148496458Y-108999928D01*
X148555473Y-109181556D01*
X148650960Y-109346944D01*
X148655378Y-109351851D01*
X148655379Y-109351852D01*
X148764853Y-109473435D01*
X148778747Y-109488866D01*
X148933248Y-109601118D01*
X148939276Y-109603802D01*
X148939278Y-109603803D01*
X149101681Y-109676109D01*
X149107712Y-109678794D01*
X149201113Y-109698647D01*
X149288056Y-109717128D01*
X149288061Y-109717128D01*
X149294513Y-109718500D01*
X149485487Y-109718500D01*
X149491946Y-109717127D01*
X149491947Y-109717127D01*
X149502435Y-109714898D01*
X149573226Y-109720301D01*
X149629858Y-109763118D01*
X149648464Y-109799209D01*
X149653367Y-109814297D01*
X149665473Y-109851556D01*
X149760960Y-110016944D01*
X149888747Y-110158866D01*
X150043248Y-110271118D01*
X150049276Y-110273802D01*
X150049278Y-110273803D01*
X150211681Y-110346109D01*
X150217712Y-110348794D01*
X150311113Y-110368647D01*
X150398056Y-110387128D01*
X150398061Y-110387128D01*
X150404513Y-110388500D01*
X150595487Y-110388500D01*
X150601939Y-110387128D01*
X150601944Y-110387128D01*
X150688887Y-110368647D01*
X150782288Y-110348794D01*
X150788319Y-110346109D01*
X150950722Y-110273803D01*
X150950724Y-110273802D01*
X150956752Y-110271118D01*
X151111253Y-110158866D01*
X151239040Y-110016944D01*
X151334527Y-109851556D01*
X151393542Y-109669928D01*
X151406122Y-109550241D01*
X151412814Y-109486565D01*
X151413504Y-109480000D01*
X151399540Y-109347138D01*
X151394232Y-109296635D01*
X151394232Y-109296633D01*
X151393542Y-109290072D01*
X151334527Y-109108444D01*
X151239040Y-108943056D01*
X151199801Y-108899476D01*
X151115675Y-108806045D01*
X151115674Y-108806044D01*
X151111253Y-108801134D01*
X150995783Y-108717240D01*
X150962094Y-108692763D01*
X150962093Y-108692762D01*
X150956752Y-108688882D01*
X150950724Y-108686198D01*
X150950722Y-108686197D01*
X150788319Y-108613891D01*
X150788318Y-108613891D01*
X150782288Y-108611206D01*
X150688888Y-108591353D01*
X150601944Y-108572872D01*
X150601939Y-108572872D01*
X150595487Y-108571500D01*
X150404513Y-108571500D01*
X150398054Y-108572873D01*
X150398053Y-108572873D01*
X150387565Y-108575102D01*
X150316774Y-108569699D01*
X150260142Y-108526882D01*
X150241536Y-108490791D01*
X150226569Y-108444728D01*
X150226568Y-108444727D01*
X150224527Y-108438444D01*
X150129040Y-108273056D01*
X150020424Y-108152425D01*
X150005675Y-108136045D01*
X150005674Y-108136044D01*
X150001253Y-108131134D01*
X149846752Y-108018882D01*
X149840724Y-108016198D01*
X149840722Y-108016197D01*
X149678319Y-107943891D01*
X149678318Y-107943891D01*
X149672288Y-107941206D01*
X149567818Y-107919000D01*
X149491944Y-107902872D01*
X149491939Y-107902872D01*
X149485487Y-107901500D01*
X149294513Y-107901500D01*
X149288061Y-107902872D01*
X149288056Y-107902872D01*
X149212182Y-107919000D01*
X149107712Y-107941206D01*
X149101682Y-107943891D01*
X149101681Y-107943891D01*
X148939278Y-108016197D01*
X148939276Y-108016198D01*
X148933248Y-108018882D01*
X148778747Y-108131134D01*
X148774326Y-108136044D01*
X148774325Y-108136045D01*
X148759577Y-108152425D01*
X148650960Y-108273056D01*
X148555473Y-108438444D01*
X148496458Y-108620072D01*
X148495768Y-108626633D01*
X148495768Y-108626635D01*
X148487133Y-108708792D01*
X148476496Y-108810000D01*
X128508438Y-108810000D01*
X128650328Y-108708792D01*
X128658200Y-108702139D01*
X128809052Y-108551812D01*
X128815730Y-108543965D01*
X128940003Y-108371020D01*
X128945313Y-108362183D01*
X129039670Y-108171267D01*
X129043469Y-108161672D01*
X129105377Y-107957910D01*
X129107555Y-107947837D01*
X129108986Y-107936962D01*
X129106775Y-107922778D01*
X129093617Y-107919000D01*
X126458225Y-107919000D01*
X126444694Y-107922973D01*
X126443257Y-107932966D01*
X126473565Y-108067446D01*
X126476645Y-108077275D01*
X126556770Y-108274603D01*
X126561413Y-108283794D01*
X126672694Y-108465388D01*
X126678777Y-108473699D01*
X126818213Y-108634667D01*
X126825580Y-108641883D01*
X126989434Y-108777916D01*
X126997881Y-108783831D01*
X127066969Y-108824203D01*
X127115693Y-108875842D01*
X127128764Y-108945625D01*
X127102033Y-109011396D01*
X127061584Y-109044752D01*
X127048607Y-109051507D01*
X127044474Y-109054610D01*
X127044471Y-109054612D01*
X126874100Y-109182530D01*
X126869965Y-109185635D01*
X126866393Y-109189373D01*
X126720204Y-109342351D01*
X126715629Y-109347138D01*
X126589743Y-109531680D01*
X126569166Y-109576010D01*
X126503662Y-109717127D01*
X126495688Y-109734305D01*
X126435989Y-109949570D01*
X126412251Y-110171695D01*
X126412548Y-110176848D01*
X126412548Y-110176851D01*
X126418138Y-110273803D01*
X126425110Y-110394715D01*
X126426247Y-110399761D01*
X126426248Y-110399767D01*
X126442012Y-110469715D01*
X126474222Y-110612639D01*
X126558266Y-110819616D01*
X126560965Y-110824020D01*
X126660936Y-110987158D01*
X126674987Y-111010088D01*
X126821250Y-111178938D01*
X126993126Y-111321632D01*
X127063595Y-111362811D01*
X127066445Y-111364476D01*
X127115169Y-111416114D01*
X127128240Y-111485897D01*
X127101509Y-111551669D01*
X127061055Y-111585027D01*
X127048607Y-111591507D01*
X127044474Y-111594610D01*
X127044471Y-111594612D01*
X126888952Y-111711379D01*
X126869965Y-111725635D01*
X126866393Y-111729373D01*
X126720204Y-111882351D01*
X126715629Y-111887138D01*
X126589743Y-112071680D01*
X126495688Y-112274305D01*
X126435989Y-112489570D01*
X126412251Y-112711695D01*
X126412548Y-112716848D01*
X126412548Y-112716851D01*
X126417854Y-112808878D01*
X126425110Y-112934715D01*
X126426247Y-112939761D01*
X126426248Y-112939767D01*
X126442012Y-113009715D01*
X126474222Y-113152639D01*
X126507190Y-113233830D01*
X126541535Y-113318411D01*
X126558266Y-113359616D01*
X126584581Y-113402558D01*
X126667861Y-113538459D01*
X126674987Y-113550088D01*
X126821250Y-113718938D01*
X126993126Y-113861632D01*
X127063595Y-113902811D01*
X127066445Y-113904476D01*
X127115169Y-113956114D01*
X127128240Y-114025897D01*
X127101509Y-114091669D01*
X127061055Y-114125027D01*
X127048607Y-114131507D01*
X127044474Y-114134610D01*
X127044471Y-114134612D01*
X126874100Y-114262530D01*
X126869965Y-114265635D01*
X126715629Y-114427138D01*
X126712715Y-114431410D01*
X126712714Y-114431411D01*
X126696916Y-114454570D01*
X126589743Y-114611680D01*
X126569166Y-114656010D01*
X126500249Y-114804480D01*
X126495688Y-114814305D01*
X126435989Y-115029570D01*
X126412251Y-115251695D01*
X126412548Y-115256848D01*
X126412548Y-115256851D01*
X126421754Y-115416511D01*
X126425110Y-115474715D01*
X126426247Y-115479761D01*
X126426248Y-115479767D01*
X126450304Y-115586508D01*
X126474222Y-115692639D01*
X126529523Y-115828831D01*
X126550665Y-115880896D01*
X126558266Y-115899616D01*
X126595832Y-115960919D01*
X126654341Y-116056396D01*
X126674987Y-116090088D01*
X126821250Y-116258938D01*
X126825225Y-116262238D01*
X126825231Y-116262244D01*
X126830425Y-116266556D01*
X126870059Y-116325460D01*
X126871555Y-116396441D01*
X126834439Y-116456962D01*
X126794168Y-116481480D01*
X126686946Y-116521676D01*
X126671351Y-116530214D01*
X126569276Y-116606715D01*
X126556715Y-116619276D01*
X126480214Y-116721351D01*
X126471676Y-116736946D01*
X126426522Y-116857394D01*
X126422895Y-116872649D01*
X126417369Y-116923514D01*
X126417000Y-116930328D01*
X126417000Y-117552885D01*
X126421475Y-117568124D01*
X126422865Y-117569329D01*
X126430548Y-117571000D01*
X129114884Y-117571000D01*
X129130123Y-117566525D01*
X129131328Y-117565135D01*
X129132999Y-117557452D01*
X129132999Y-116930331D01*
X129132629Y-116923510D01*
X129127105Y-116872648D01*
X129123479Y-116857396D01*
X129078324Y-116736946D01*
X129069786Y-116721351D01*
X128993285Y-116619276D01*
X128980724Y-116606715D01*
X128878649Y-116530214D01*
X128863054Y-116521676D01*
X128752813Y-116480348D01*
X128696049Y-116437706D01*
X128671349Y-116371145D01*
X128686557Y-116301796D01*
X128708104Y-116273115D01*
X128809430Y-116172144D01*
X128809440Y-116172132D01*
X128813096Y-116168489D01*
X128818917Y-116160388D01*
X128901132Y-116045974D01*
X128957127Y-116002326D01*
X129003455Y-115993500D01*
X130749340Y-115993500D01*
X130817461Y-116013502D01*
X130838435Y-116030405D01*
X134084434Y-119276405D01*
X134118460Y-119338717D01*
X134113395Y-119409533D01*
X134070848Y-119466368D01*
X134004328Y-119491179D01*
X133995339Y-119491500D01*
X119134500Y-119491500D01*
X119066379Y-119471498D01*
X119019886Y-119417842D01*
X119008500Y-119365500D01*
X119008500Y-116978918D01*
X119486917Y-116978918D01*
X119487334Y-116986156D01*
X119502682Y-117252320D01*
X119555405Y-117521053D01*
X119556792Y-117525103D01*
X119556793Y-117525108D01*
X119642723Y-117776088D01*
X119644112Y-117780144D01*
X119673238Y-117838054D01*
X119755127Y-118000873D01*
X119767160Y-118024799D01*
X119769586Y-118028328D01*
X119769589Y-118028334D01*
X119899848Y-118217860D01*
X119922274Y-118250490D01*
X119925161Y-118253663D01*
X119925162Y-118253664D01*
X120103692Y-118449867D01*
X120106582Y-118453043D01*
X120109877Y-118455798D01*
X120109878Y-118455799D01*
X120133688Y-118475707D01*
X120316675Y-118628707D01*
X120320316Y-118630991D01*
X120545024Y-118771951D01*
X120545028Y-118771953D01*
X120548664Y-118774234D01*
X120616544Y-118804883D01*
X120794345Y-118885164D01*
X120794349Y-118885166D01*
X120798257Y-118886930D01*
X120802377Y-118888150D01*
X120802376Y-118888150D01*
X121056723Y-118963491D01*
X121056727Y-118963492D01*
X121060836Y-118964709D01*
X121065070Y-118965357D01*
X121065075Y-118965358D01*
X121327298Y-119005483D01*
X121327300Y-119005483D01*
X121331540Y-119006132D01*
X121470912Y-119008322D01*
X121601071Y-119010367D01*
X121601077Y-119010367D01*
X121605362Y-119010434D01*
X121877235Y-118977534D01*
X122142127Y-118908041D01*
X122146087Y-118906401D01*
X122146092Y-118906399D01*
X122268631Y-118855641D01*
X122395136Y-118803241D01*
X122513359Y-118734157D01*
X122538152Y-118719669D01*
X126417001Y-118719669D01*
X126417371Y-118726490D01*
X126422895Y-118777352D01*
X126426521Y-118792604D01*
X126471676Y-118913054D01*
X126480214Y-118928649D01*
X126556715Y-119030724D01*
X126569276Y-119043285D01*
X126671351Y-119119786D01*
X126686946Y-119128324D01*
X126807394Y-119173478D01*
X126822649Y-119177105D01*
X126873514Y-119182631D01*
X126880328Y-119183000D01*
X127502885Y-119183000D01*
X127518124Y-119178525D01*
X127519329Y-119177135D01*
X127521000Y-119169452D01*
X127521000Y-119164884D01*
X128029000Y-119164884D01*
X128033475Y-119180123D01*
X128034865Y-119181328D01*
X128042548Y-119182999D01*
X128669669Y-119182999D01*
X128676490Y-119182629D01*
X128727352Y-119177105D01*
X128742604Y-119173479D01*
X128863054Y-119128324D01*
X128878649Y-119119786D01*
X128980724Y-119043285D01*
X128993285Y-119030724D01*
X129069786Y-118928649D01*
X129078324Y-118913054D01*
X129123478Y-118792606D01*
X129127105Y-118777351D01*
X129132631Y-118726486D01*
X129133000Y-118719672D01*
X129133000Y-118097115D01*
X129128525Y-118081876D01*
X129127135Y-118080671D01*
X129119452Y-118079000D01*
X128047115Y-118079000D01*
X128031876Y-118083475D01*
X128030671Y-118084865D01*
X128029000Y-118092548D01*
X128029000Y-119164884D01*
X127521000Y-119164884D01*
X127521000Y-118097115D01*
X127516525Y-118081876D01*
X127515135Y-118080671D01*
X127507452Y-118079000D01*
X126435116Y-118079000D01*
X126419877Y-118083475D01*
X126418672Y-118084865D01*
X126417001Y-118092548D01*
X126417001Y-118719669D01*
X122538152Y-118719669D01*
X122627879Y-118667237D01*
X122627880Y-118667236D01*
X122631582Y-118665073D01*
X122847089Y-118496094D01*
X122856854Y-118486018D01*
X123034686Y-118302509D01*
X123037669Y-118299431D01*
X123040202Y-118295983D01*
X123040206Y-118295978D01*
X123197257Y-118082178D01*
X123199795Y-118078723D01*
X123201841Y-118074955D01*
X123328418Y-117841830D01*
X123328419Y-117841828D01*
X123330468Y-117838054D01*
X123427269Y-117581877D01*
X123461069Y-117434297D01*
X123487449Y-117319117D01*
X123487450Y-117319113D01*
X123488407Y-117314933D01*
X123494502Y-117246646D01*
X123512531Y-117044627D01*
X123512531Y-117044625D01*
X123512751Y-117042161D01*
X123513193Y-117000000D01*
X123511465Y-116974648D01*
X123494859Y-116731055D01*
X123494858Y-116731049D01*
X123494567Y-116726778D01*
X123487999Y-116695060D01*
X123462274Y-116570842D01*
X123439032Y-116458612D01*
X123347617Y-116200465D01*
X123240794Y-115993500D01*
X123223978Y-115960919D01*
X123223978Y-115960918D01*
X123222013Y-115957112D01*
X123212040Y-115942921D01*
X123121186Y-115813649D01*
X123064545Y-115733057D01*
X122980797Y-115642933D01*
X122881046Y-115535588D01*
X122881043Y-115535585D01*
X122878125Y-115532445D01*
X122874810Y-115529731D01*
X122874806Y-115529728D01*
X122729768Y-115411016D01*
X122666205Y-115358990D01*
X122432704Y-115215901D01*
X122423387Y-115211811D01*
X122185873Y-115107549D01*
X122185869Y-115107548D01*
X122181945Y-115105825D01*
X121918566Y-115030800D01*
X121914324Y-115030196D01*
X121914318Y-115030195D01*
X121688589Y-114998069D01*
X121647443Y-114992213D01*
X121503589Y-114991460D01*
X121377877Y-114990802D01*
X121377871Y-114990802D01*
X121373591Y-114990780D01*
X121369347Y-114991339D01*
X121369343Y-114991339D01*
X121250302Y-115007011D01*
X121102078Y-115026525D01*
X121097938Y-115027658D01*
X121097936Y-115027658D01*
X121037597Y-115044165D01*
X120837928Y-115098788D01*
X120833980Y-115100472D01*
X120589982Y-115204546D01*
X120589978Y-115204548D01*
X120586030Y-115206232D01*
X120469703Y-115275852D01*
X120354725Y-115344664D01*
X120354721Y-115344667D01*
X120351043Y-115346868D01*
X120137318Y-115518094D01*
X120062309Y-115597137D01*
X119976467Y-115687596D01*
X119948808Y-115716742D01*
X119789002Y-115939136D01*
X119660857Y-116181161D01*
X119659385Y-116185184D01*
X119659383Y-116185188D01*
X119582089Y-116396403D01*
X119566743Y-116438337D01*
X119508404Y-116705907D01*
X119507092Y-116722581D01*
X119489036Y-116952000D01*
X119486917Y-116978918D01*
X119008500Y-116978918D01*
X119008500Y-101819669D01*
X126417001Y-101819669D01*
X126417371Y-101826490D01*
X126422895Y-101877352D01*
X126426521Y-101892604D01*
X126471676Y-102013054D01*
X126480214Y-102028649D01*
X126556715Y-102130724D01*
X126569276Y-102143285D01*
X126671351Y-102219786D01*
X126686946Y-102228324D01*
X126807394Y-102273478D01*
X126822649Y-102277105D01*
X126873514Y-102282631D01*
X126880328Y-102283000D01*
X127502885Y-102283000D01*
X127518124Y-102278525D01*
X127519329Y-102277135D01*
X127521000Y-102269452D01*
X127521000Y-102264884D01*
X128029000Y-102264884D01*
X128033475Y-102280123D01*
X128034865Y-102281328D01*
X128042548Y-102282999D01*
X128669669Y-102282999D01*
X128676490Y-102282629D01*
X128727352Y-102277105D01*
X128742604Y-102273479D01*
X128863054Y-102228324D01*
X128878649Y-102219786D01*
X128980724Y-102143285D01*
X128993285Y-102130724D01*
X129069786Y-102028649D01*
X129078324Y-102013054D01*
X129123478Y-101892606D01*
X129127105Y-101877351D01*
X129132631Y-101826486D01*
X129133000Y-101819672D01*
X129133000Y-101197115D01*
X129128525Y-101181876D01*
X129127135Y-101180671D01*
X129119452Y-101179000D01*
X128047115Y-101179000D01*
X128031876Y-101183475D01*
X128030671Y-101184865D01*
X128029000Y-101192548D01*
X128029000Y-102264884D01*
X127521000Y-102264884D01*
X127521000Y-101197115D01*
X127516525Y-101181876D01*
X127515135Y-101180671D01*
X127507452Y-101179000D01*
X126435116Y-101179000D01*
X126419877Y-101183475D01*
X126418672Y-101184865D01*
X126417001Y-101192548D01*
X126417001Y-101819669D01*
X119008500Y-101819669D01*
X119008500Y-88478918D01*
X119486917Y-88478918D01*
X119487334Y-88486156D01*
X119502682Y-88752320D01*
X119555405Y-89021053D01*
X119556792Y-89025103D01*
X119556793Y-89025108D01*
X119640355Y-89269171D01*
X119644112Y-89280144D01*
X119673238Y-89338054D01*
X119742837Y-89476437D01*
X119767160Y-89524799D01*
X119769586Y-89528328D01*
X119769589Y-89528334D01*
X119919843Y-89746953D01*
X119922274Y-89750490D01*
X119925161Y-89753663D01*
X119925162Y-89753664D01*
X120085393Y-89929757D01*
X120106582Y-89953043D01*
X120316675Y-90128707D01*
X120320316Y-90130991D01*
X120545024Y-90271951D01*
X120545028Y-90271953D01*
X120548664Y-90274234D01*
X120673460Y-90330582D01*
X120794345Y-90385164D01*
X120794349Y-90385166D01*
X120798257Y-90386930D01*
X120802377Y-90388150D01*
X120802376Y-90388150D01*
X121056723Y-90463491D01*
X121056727Y-90463492D01*
X121060836Y-90464709D01*
X121065070Y-90465357D01*
X121065075Y-90465358D01*
X121327298Y-90505483D01*
X121327300Y-90505483D01*
X121331540Y-90506132D01*
X121470912Y-90508322D01*
X121601071Y-90510367D01*
X121601077Y-90510367D01*
X121605362Y-90510434D01*
X121877235Y-90477534D01*
X122142127Y-90408041D01*
X122146087Y-90406401D01*
X122146092Y-90406399D01*
X122268631Y-90355641D01*
X122395136Y-90303241D01*
X122631582Y-90165073D01*
X122847089Y-89996094D01*
X122888809Y-89953043D01*
X122978358Y-89860635D01*
X123037669Y-89799431D01*
X123040202Y-89795983D01*
X123040206Y-89795978D01*
X123197257Y-89582178D01*
X123199795Y-89578723D01*
X123203463Y-89571967D01*
X123328418Y-89341830D01*
X123328419Y-89341828D01*
X123330468Y-89338054D01*
X123427269Y-89081877D01*
X123473848Y-88878502D01*
X123487449Y-88819117D01*
X123487450Y-88819113D01*
X123488407Y-88814933D01*
X123496910Y-88719665D01*
X123512531Y-88544627D01*
X123512531Y-88544625D01*
X123512751Y-88542161D01*
X123513193Y-88500000D01*
X123511465Y-88474648D01*
X123494859Y-88231055D01*
X123494858Y-88231049D01*
X123494567Y-88226778D01*
X123439032Y-87958612D01*
X123347617Y-87700465D01*
X123222013Y-87457112D01*
X123212814Y-87444022D01*
X123100571Y-87284317D01*
X123064545Y-87233057D01*
X122931235Y-87089598D01*
X122881046Y-87035588D01*
X122881043Y-87035585D01*
X122878125Y-87032445D01*
X122874810Y-87029731D01*
X122874806Y-87029728D01*
X122724946Y-86907069D01*
X122666205Y-86858990D01*
X122618897Y-86830000D01*
X147726496Y-86830000D01*
X147727186Y-86836565D01*
X147743896Y-86995548D01*
X147746458Y-87019928D01*
X147805473Y-87201556D01*
X147808776Y-87207278D01*
X147808777Y-87207279D01*
X147818836Y-87224702D01*
X147900960Y-87366944D01*
X147905378Y-87371851D01*
X147905379Y-87371852D01*
X148011843Y-87490092D01*
X148028747Y-87508866D01*
X148114952Y-87571498D01*
X148168740Y-87610577D01*
X148183248Y-87621118D01*
X148189276Y-87623802D01*
X148189278Y-87623803D01*
X148351681Y-87696109D01*
X148357712Y-87698794D01*
X148451112Y-87718647D01*
X148538056Y-87737128D01*
X148538061Y-87737128D01*
X148544513Y-87738500D01*
X148735487Y-87738500D01*
X148741939Y-87737128D01*
X148741944Y-87737128D01*
X148828888Y-87718647D01*
X148922288Y-87698794D01*
X148928319Y-87696109D01*
X149090722Y-87623803D01*
X149090724Y-87623802D01*
X149096752Y-87621118D01*
X149111261Y-87610577D01*
X149165048Y-87571498D01*
X149251253Y-87508866D01*
X149268157Y-87490092D01*
X149374621Y-87371852D01*
X149374622Y-87371851D01*
X149379040Y-87366944D01*
X149461164Y-87224702D01*
X149471223Y-87207279D01*
X149471224Y-87207278D01*
X149474527Y-87201556D01*
X149533542Y-87019928D01*
X149536105Y-86995548D01*
X149552814Y-86836565D01*
X149553504Y-86830000D01*
X149540496Y-86706232D01*
X149534232Y-86646635D01*
X149534232Y-86646633D01*
X149533542Y-86640072D01*
X149474527Y-86458444D01*
X149379040Y-86293056D01*
X149251253Y-86151134D01*
X149152157Y-86079136D01*
X149102094Y-86042763D01*
X149102093Y-86042762D01*
X149096752Y-86038882D01*
X149090724Y-86036198D01*
X149090722Y-86036197D01*
X148928319Y-85963891D01*
X148928318Y-85963891D01*
X148922288Y-85961206D01*
X148828888Y-85941353D01*
X148741944Y-85922872D01*
X148741939Y-85922872D01*
X148735487Y-85921500D01*
X148544513Y-85921500D01*
X148538061Y-85922872D01*
X148538056Y-85922872D01*
X148451112Y-85941353D01*
X148357712Y-85961206D01*
X148351682Y-85963891D01*
X148351681Y-85963891D01*
X148189278Y-86036197D01*
X148189276Y-86036198D01*
X148183248Y-86038882D01*
X148177907Y-86042762D01*
X148177906Y-86042763D01*
X148127843Y-86079136D01*
X148028747Y-86151134D01*
X147900960Y-86293056D01*
X147805473Y-86458444D01*
X147746458Y-86640072D01*
X147745768Y-86646633D01*
X147745768Y-86646635D01*
X147739504Y-86706232D01*
X147726496Y-86830000D01*
X122618897Y-86830000D01*
X122477745Y-86743502D01*
X122436366Y-86718145D01*
X122436365Y-86718145D01*
X122432704Y-86715901D01*
X122428768Y-86714173D01*
X122185873Y-86607549D01*
X122185869Y-86607548D01*
X122181945Y-86605825D01*
X121918566Y-86530800D01*
X121914324Y-86530196D01*
X121914318Y-86530195D01*
X121713834Y-86501662D01*
X121647443Y-86492213D01*
X121503589Y-86491460D01*
X121377877Y-86490802D01*
X121377871Y-86490802D01*
X121373591Y-86490780D01*
X121369347Y-86491339D01*
X121369343Y-86491339D01*
X121250302Y-86507011D01*
X121102078Y-86526525D01*
X121097938Y-86527658D01*
X121097936Y-86527658D01*
X121074918Y-86533955D01*
X120837928Y-86598788D01*
X120833980Y-86600472D01*
X120589982Y-86704546D01*
X120589978Y-86704548D01*
X120586030Y-86706232D01*
X120546039Y-86730166D01*
X120354725Y-86844664D01*
X120354721Y-86844667D01*
X120351043Y-86846868D01*
X120137318Y-87018094D01*
X120071833Y-87087101D01*
X119962295Y-87202530D01*
X119948808Y-87216742D01*
X119789002Y-87439136D01*
X119660857Y-87681161D01*
X119659385Y-87685184D01*
X119659383Y-87685188D01*
X119568214Y-87934317D01*
X119566743Y-87938337D01*
X119508404Y-88205907D01*
X119486917Y-88478918D01*
X119008500Y-88478918D01*
X119008500Y-85860000D01*
X149906496Y-85860000D01*
X149926458Y-86049928D01*
X149985473Y-86231556D01*
X150080960Y-86396944D01*
X150085378Y-86401851D01*
X150085379Y-86401852D01*
X150201484Y-86530800D01*
X150208747Y-86538866D01*
X150289664Y-86597656D01*
X150357078Y-86646635D01*
X150363248Y-86651118D01*
X150369276Y-86653802D01*
X150369278Y-86653803D01*
X150525821Y-86723500D01*
X150537712Y-86728794D01*
X150631112Y-86748647D01*
X150718056Y-86767128D01*
X150718061Y-86767128D01*
X150724513Y-86768500D01*
X150915487Y-86768500D01*
X150921939Y-86767128D01*
X150921944Y-86767128D01*
X151008888Y-86748647D01*
X151102288Y-86728794D01*
X151114179Y-86723500D01*
X151270722Y-86653803D01*
X151270724Y-86653802D01*
X151276752Y-86651118D01*
X151282923Y-86646635D01*
X151350336Y-86597656D01*
X151431253Y-86538866D01*
X151438516Y-86530800D01*
X151554621Y-86401852D01*
X151554622Y-86401851D01*
X151559040Y-86396944D01*
X151654527Y-86231556D01*
X151713542Y-86049928D01*
X151733504Y-85860000D01*
X151716451Y-85697747D01*
X151714232Y-85676635D01*
X151714232Y-85676633D01*
X151713542Y-85670072D01*
X151654527Y-85488444D01*
X151644760Y-85471526D01*
X151562341Y-85328774D01*
X151559040Y-85323056D01*
X151431253Y-85181134D01*
X151276752Y-85068882D01*
X151270724Y-85066198D01*
X151270722Y-85066197D01*
X151108319Y-84993891D01*
X151108318Y-84993891D01*
X151102288Y-84991206D01*
X151008887Y-84971353D01*
X150921944Y-84952872D01*
X150921939Y-84952872D01*
X150915487Y-84951500D01*
X150724513Y-84951500D01*
X150718061Y-84952872D01*
X150718056Y-84952872D01*
X150631113Y-84971353D01*
X150537712Y-84991206D01*
X150531682Y-84993891D01*
X150531681Y-84993891D01*
X150369278Y-85066197D01*
X150369276Y-85066198D01*
X150363248Y-85068882D01*
X150208747Y-85181134D01*
X150080960Y-85323056D01*
X150077659Y-85328774D01*
X149995241Y-85471526D01*
X149985473Y-85488444D01*
X149926458Y-85670072D01*
X149925768Y-85676633D01*
X149925768Y-85676635D01*
X149923549Y-85697747D01*
X149906496Y-85860000D01*
X119008500Y-85860000D01*
X119008500Y-81097572D01*
X121092000Y-81097572D01*
X121092202Y-81102604D01*
X121106536Y-81280759D01*
X121108148Y-81290712D01*
X121165154Y-81522800D01*
X121168337Y-81532370D01*
X121261718Y-81752360D01*
X121266392Y-81761299D01*
X121393739Y-81963524D01*
X121399780Y-81971599D01*
X121557827Y-82150868D01*
X121565079Y-82157871D01*
X121749750Y-82309562D01*
X121758033Y-82315318D01*
X121964579Y-82435531D01*
X121973684Y-82439893D01*
X122196785Y-82525534D01*
X122206474Y-82528385D01*
X122368264Y-82562185D01*
X122382325Y-82561062D01*
X122386000Y-82550954D01*
X122386000Y-82548358D01*
X122894000Y-82548358D01*
X122898136Y-82562444D01*
X122911114Y-82564493D01*
X122936631Y-82561540D01*
X122946521Y-82559581D01*
X123176476Y-82494511D01*
X123185927Y-82490997D01*
X123402528Y-82389994D01*
X123411292Y-82385015D01*
X123608951Y-82250686D01*
X123616815Y-82244362D01*
X123790451Y-82080164D01*
X123797210Y-82072657D01*
X123942357Y-81882812D01*
X123947821Y-81874333D01*
X124060752Y-81663717D01*
X124064792Y-81654471D01*
X124142596Y-81428513D01*
X124145107Y-81418732D01*
X124185969Y-81182166D01*
X124186824Y-81174294D01*
X124187936Y-81149815D01*
X124188000Y-81146982D01*
X124188000Y-81100118D01*
X126171500Y-81100118D01*
X126171702Y-81102626D01*
X126171702Y-81102631D01*
X126186034Y-81280759D01*
X126186446Y-81285882D01*
X126245885Y-81527873D01*
X126343249Y-81757248D01*
X126345947Y-81761532D01*
X126473148Y-81963524D01*
X126476033Y-81968106D01*
X126640822Y-82155022D01*
X126833375Y-82313187D01*
X127048738Y-82438531D01*
X127165055Y-82483181D01*
X127276643Y-82526016D01*
X127276646Y-82526017D01*
X127281372Y-82527831D01*
X127525290Y-82578788D01*
X127530339Y-82579017D01*
X127530345Y-82579018D01*
X127644004Y-82584179D01*
X127774218Y-82590092D01*
X127779238Y-82589511D01*
X127779242Y-82589511D01*
X127896026Y-82575998D01*
X128021750Y-82561451D01*
X128026624Y-82560072D01*
X128026628Y-82560071D01*
X128256651Y-82494981D01*
X128256653Y-82494980D01*
X128261520Y-82493603D01*
X128266095Y-82491469D01*
X128266102Y-82491467D01*
X128482776Y-82390429D01*
X128487357Y-82388293D01*
X128491537Y-82385452D01*
X128491541Y-82385450D01*
X128689264Y-82251078D01*
X128689265Y-82251077D01*
X128693453Y-82248231D01*
X128697545Y-82244362D01*
X128870824Y-82080500D01*
X128874504Y-82077020D01*
X128941884Y-81988890D01*
X129022779Y-81883084D01*
X129022782Y-81883080D01*
X129025852Y-81879064D01*
X129143604Y-81659457D01*
X129188913Y-81527873D01*
X129223082Y-81428638D01*
X129224731Y-81423849D01*
X129242482Y-81321079D01*
X129266469Y-81182211D01*
X129266470Y-81182205D01*
X129267144Y-81178301D01*
X129268500Y-81148441D01*
X129268500Y-81100118D01*
X131251500Y-81100118D01*
X131251702Y-81102626D01*
X131251702Y-81102631D01*
X131266034Y-81280759D01*
X131266446Y-81285882D01*
X131325885Y-81527873D01*
X131423249Y-81757248D01*
X131425947Y-81761532D01*
X131553148Y-81963524D01*
X131556033Y-81968106D01*
X131720822Y-82155022D01*
X131913375Y-82313187D01*
X132128738Y-82438531D01*
X132245055Y-82483181D01*
X132356643Y-82526016D01*
X132356646Y-82526017D01*
X132361372Y-82527831D01*
X132605290Y-82578788D01*
X132610339Y-82579017D01*
X132610345Y-82579018D01*
X132724004Y-82584179D01*
X132854218Y-82590092D01*
X132859238Y-82589511D01*
X132859242Y-82589511D01*
X132976026Y-82575998D01*
X133101750Y-82561451D01*
X133106624Y-82560072D01*
X133106628Y-82560071D01*
X133336651Y-82494981D01*
X133336653Y-82494980D01*
X133341520Y-82493603D01*
X133346095Y-82491469D01*
X133346102Y-82491467D01*
X133562776Y-82390429D01*
X133567357Y-82388293D01*
X133571537Y-82385452D01*
X133571541Y-82385450D01*
X133769264Y-82251078D01*
X133769265Y-82251077D01*
X133773453Y-82248231D01*
X133777545Y-82244362D01*
X133950824Y-82080500D01*
X133954504Y-82077020D01*
X134021884Y-81988890D01*
X134102779Y-81883084D01*
X134102782Y-81883080D01*
X134105852Y-81879064D01*
X134223604Y-81659457D01*
X134268913Y-81527873D01*
X134303082Y-81428638D01*
X134304731Y-81423849D01*
X134322482Y-81321079D01*
X134346469Y-81182211D01*
X134346470Y-81182205D01*
X134347144Y-81178301D01*
X134348500Y-81148441D01*
X134348500Y-81100118D01*
X136331500Y-81100118D01*
X136331702Y-81102626D01*
X136331702Y-81102631D01*
X136346034Y-81280759D01*
X136346446Y-81285882D01*
X136405885Y-81527873D01*
X136503249Y-81757248D01*
X136505947Y-81761532D01*
X136633148Y-81963524D01*
X136636033Y-81968106D01*
X136800822Y-82155022D01*
X136993375Y-82313187D01*
X137208738Y-82438531D01*
X137325055Y-82483181D01*
X137436643Y-82526016D01*
X137436646Y-82526017D01*
X137441372Y-82527831D01*
X137685290Y-82578788D01*
X137690339Y-82579017D01*
X137690345Y-82579018D01*
X137804004Y-82584179D01*
X137934218Y-82590092D01*
X137939238Y-82589511D01*
X137939242Y-82589511D01*
X138056026Y-82575998D01*
X138181750Y-82561451D01*
X138186624Y-82560072D01*
X138186628Y-82560071D01*
X138416651Y-82494981D01*
X138416653Y-82494980D01*
X138421520Y-82493603D01*
X138426095Y-82491469D01*
X138426102Y-82491467D01*
X138642776Y-82390429D01*
X138647357Y-82388293D01*
X138651537Y-82385452D01*
X138651541Y-82385450D01*
X138849264Y-82251078D01*
X138849265Y-82251077D01*
X138853453Y-82248231D01*
X138857545Y-82244362D01*
X139030824Y-82080500D01*
X139034504Y-82077020D01*
X139101884Y-81988890D01*
X139182779Y-81883084D01*
X139182782Y-81883080D01*
X139185852Y-81879064D01*
X139303604Y-81659457D01*
X139348913Y-81527873D01*
X139383082Y-81428638D01*
X139384731Y-81423849D01*
X139402482Y-81321079D01*
X139426469Y-81182211D01*
X139426470Y-81182205D01*
X139427144Y-81178301D01*
X139428500Y-81148441D01*
X139428500Y-81100118D01*
X141411500Y-81100118D01*
X141411702Y-81102626D01*
X141411702Y-81102631D01*
X141426034Y-81280759D01*
X141426446Y-81285882D01*
X141485885Y-81527873D01*
X141583249Y-81757248D01*
X141585947Y-81761532D01*
X141713148Y-81963524D01*
X141716033Y-81968106D01*
X141880822Y-82155022D01*
X142073375Y-82313187D01*
X142288738Y-82438531D01*
X142405055Y-82483181D01*
X142516643Y-82526016D01*
X142516646Y-82526017D01*
X142521372Y-82527831D01*
X142765290Y-82578788D01*
X142770339Y-82579017D01*
X142770345Y-82579018D01*
X142884004Y-82584179D01*
X143014218Y-82590092D01*
X143019238Y-82589511D01*
X143019242Y-82589511D01*
X143136026Y-82575998D01*
X143261750Y-82561451D01*
X143266624Y-82560072D01*
X143266628Y-82560071D01*
X143496651Y-82494981D01*
X143496653Y-82494980D01*
X143501520Y-82493603D01*
X143506095Y-82491469D01*
X143506102Y-82491467D01*
X143722776Y-82390429D01*
X143727357Y-82388293D01*
X143731537Y-82385452D01*
X143731541Y-82385450D01*
X143929264Y-82251078D01*
X143929265Y-82251077D01*
X143933453Y-82248231D01*
X143937545Y-82244362D01*
X144110824Y-82080500D01*
X144114504Y-82077020D01*
X144181884Y-81988890D01*
X144262779Y-81883084D01*
X144262782Y-81883080D01*
X144265852Y-81879064D01*
X144383604Y-81659457D01*
X144428913Y-81527873D01*
X144463082Y-81428638D01*
X144464731Y-81423849D01*
X144482482Y-81321079D01*
X144506469Y-81182211D01*
X144506470Y-81182205D01*
X144507144Y-81178301D01*
X144508500Y-81148441D01*
X144508500Y-81100118D01*
X146491500Y-81100118D01*
X146491702Y-81102626D01*
X146491702Y-81102631D01*
X146506034Y-81280759D01*
X146506446Y-81285882D01*
X146565885Y-81527873D01*
X146663249Y-81757248D01*
X146665947Y-81761532D01*
X146793148Y-81963524D01*
X146796033Y-81968106D01*
X146960822Y-82155022D01*
X147153375Y-82313187D01*
X147368738Y-82438531D01*
X147485055Y-82483181D01*
X147596643Y-82526016D01*
X147596646Y-82526017D01*
X147601372Y-82527831D01*
X147845290Y-82578788D01*
X147850339Y-82579017D01*
X147850345Y-82579018D01*
X147964004Y-82584179D01*
X148094218Y-82590092D01*
X148099238Y-82589511D01*
X148099242Y-82589511D01*
X148216026Y-82575998D01*
X148341750Y-82561451D01*
X148346624Y-82560072D01*
X148346628Y-82560071D01*
X148576651Y-82494981D01*
X148576653Y-82494980D01*
X148581520Y-82493603D01*
X148586095Y-82491469D01*
X148586102Y-82491467D01*
X148802776Y-82390429D01*
X148807357Y-82388293D01*
X148811537Y-82385452D01*
X148811541Y-82385450D01*
X149009264Y-82251078D01*
X149009265Y-82251077D01*
X149013453Y-82248231D01*
X149017545Y-82244362D01*
X149190824Y-82080500D01*
X149194504Y-82077020D01*
X149261884Y-81988890D01*
X149342779Y-81883084D01*
X149342782Y-81883080D01*
X149345852Y-81879064D01*
X149463604Y-81659457D01*
X149508913Y-81527873D01*
X149543082Y-81428638D01*
X149544731Y-81423849D01*
X149562482Y-81321079D01*
X149586469Y-81182211D01*
X149586470Y-81182205D01*
X149587144Y-81178301D01*
X149588500Y-81148441D01*
X149588500Y-81100118D01*
X151571500Y-81100118D01*
X151571702Y-81102626D01*
X151571702Y-81102631D01*
X151586034Y-81280759D01*
X151586446Y-81285882D01*
X151645885Y-81527873D01*
X151743249Y-81757248D01*
X151745947Y-81761532D01*
X151873148Y-81963524D01*
X151876033Y-81968106D01*
X152040822Y-82155022D01*
X152233375Y-82313187D01*
X152448738Y-82438531D01*
X152565055Y-82483181D01*
X152676643Y-82526016D01*
X152676646Y-82526017D01*
X152681372Y-82527831D01*
X152925290Y-82578788D01*
X152930339Y-82579017D01*
X152930345Y-82579018D01*
X153044004Y-82584179D01*
X153174218Y-82590092D01*
X153179238Y-82589511D01*
X153179242Y-82589511D01*
X153296026Y-82575998D01*
X153421750Y-82561451D01*
X153426624Y-82560072D01*
X153426628Y-82560071D01*
X153656651Y-82494981D01*
X153656653Y-82494980D01*
X153661520Y-82493603D01*
X153666095Y-82491469D01*
X153666102Y-82491467D01*
X153882776Y-82390429D01*
X153887357Y-82388293D01*
X153891537Y-82385452D01*
X153891541Y-82385450D01*
X154089264Y-82251078D01*
X154089265Y-82251077D01*
X154093453Y-82248231D01*
X154097545Y-82244362D01*
X154270824Y-82080500D01*
X154274504Y-82077020D01*
X154341884Y-81988890D01*
X154422779Y-81883084D01*
X154422782Y-81883080D01*
X154425852Y-81879064D01*
X154543604Y-81659457D01*
X154588913Y-81527873D01*
X154623082Y-81428638D01*
X154624731Y-81423849D01*
X154642482Y-81321079D01*
X154666469Y-81182211D01*
X154666470Y-81182205D01*
X154667144Y-81178301D01*
X154668500Y-81148441D01*
X154668500Y-81100118D01*
X156651500Y-81100118D01*
X156651702Y-81102626D01*
X156651702Y-81102631D01*
X156666034Y-81280759D01*
X156666446Y-81285882D01*
X156725885Y-81527873D01*
X156823249Y-81757248D01*
X156825947Y-81761532D01*
X156953148Y-81963524D01*
X156956033Y-81968106D01*
X157120822Y-82155022D01*
X157313375Y-82313187D01*
X157528738Y-82438531D01*
X157645055Y-82483181D01*
X157756643Y-82526016D01*
X157756646Y-82526017D01*
X157761372Y-82527831D01*
X158005290Y-82578788D01*
X158010339Y-82579017D01*
X158010345Y-82579018D01*
X158124004Y-82584179D01*
X158254218Y-82590092D01*
X158259238Y-82589511D01*
X158259242Y-82589511D01*
X158376026Y-82575998D01*
X158501750Y-82561451D01*
X158506624Y-82560072D01*
X158506628Y-82560071D01*
X158736651Y-82494981D01*
X158736653Y-82494980D01*
X158741520Y-82493603D01*
X158746095Y-82491469D01*
X158746102Y-82491467D01*
X158962776Y-82390429D01*
X158967357Y-82388293D01*
X158971537Y-82385452D01*
X158971541Y-82385450D01*
X159169264Y-82251078D01*
X159169265Y-82251077D01*
X159173453Y-82248231D01*
X159177545Y-82244362D01*
X159350824Y-82080500D01*
X159354504Y-82077020D01*
X159421884Y-81988890D01*
X159502779Y-81883084D01*
X159502782Y-81883080D01*
X159505852Y-81879064D01*
X159623604Y-81659457D01*
X159668913Y-81527873D01*
X159703082Y-81428638D01*
X159704731Y-81423849D01*
X159722482Y-81321079D01*
X159746469Y-81182211D01*
X159746470Y-81182205D01*
X159747144Y-81178301D01*
X159748500Y-81148441D01*
X159748500Y-81100118D01*
X161731500Y-81100118D01*
X161731702Y-81102626D01*
X161731702Y-81102631D01*
X161746034Y-81280759D01*
X161746446Y-81285882D01*
X161805885Y-81527873D01*
X161903249Y-81757248D01*
X161905947Y-81761532D01*
X162033148Y-81963524D01*
X162036033Y-81968106D01*
X162200822Y-82155022D01*
X162393375Y-82313187D01*
X162608738Y-82438531D01*
X162725055Y-82483181D01*
X162836643Y-82526016D01*
X162836646Y-82526017D01*
X162841372Y-82527831D01*
X163085290Y-82578788D01*
X163090339Y-82579017D01*
X163090345Y-82579018D01*
X163204004Y-82584179D01*
X163334218Y-82590092D01*
X163339238Y-82589511D01*
X163339242Y-82589511D01*
X163456026Y-82575998D01*
X163581750Y-82561451D01*
X163586624Y-82560072D01*
X163586628Y-82560071D01*
X163816651Y-82494981D01*
X163816653Y-82494980D01*
X163821520Y-82493603D01*
X163826095Y-82491469D01*
X163826102Y-82491467D01*
X164042776Y-82390429D01*
X164047357Y-82388293D01*
X164051537Y-82385452D01*
X164051541Y-82385450D01*
X164249264Y-82251078D01*
X164249265Y-82251077D01*
X164253453Y-82248231D01*
X164257545Y-82244362D01*
X164430824Y-82080500D01*
X164434504Y-82077020D01*
X164501884Y-81988890D01*
X164582779Y-81883084D01*
X164582782Y-81883080D01*
X164585852Y-81879064D01*
X164703604Y-81659457D01*
X164748913Y-81527873D01*
X164783082Y-81428638D01*
X164784731Y-81423849D01*
X164802482Y-81321079D01*
X164826469Y-81182211D01*
X164826470Y-81182205D01*
X164827144Y-81178301D01*
X164828500Y-81148441D01*
X164828500Y-79454882D01*
X164828298Y-79452369D01*
X164813960Y-79274159D01*
X164813959Y-79274154D01*
X164813554Y-79269118D01*
X164754115Y-79027127D01*
X164656751Y-78797752D01*
X164580772Y-78677099D01*
X166811500Y-78677099D01*
X166811501Y-81877900D01*
X166822474Y-81983667D01*
X166824658Y-81990213D01*
X166875730Y-82143292D01*
X166878450Y-82151446D01*
X166971521Y-82301849D01*
X166976703Y-82307022D01*
X166979661Y-82309975D01*
X167096697Y-82426806D01*
X167117928Y-82439893D01*
X167201597Y-82491467D01*
X167247261Y-82519615D01*
X167327004Y-82546064D01*
X167408610Y-82573132D01*
X167408612Y-82573132D01*
X167415138Y-82575297D01*
X167421974Y-82575997D01*
X167421977Y-82575998D01*
X167465030Y-82580409D01*
X167519599Y-82586000D01*
X168353519Y-82586000D01*
X169200400Y-82585999D01*
X169306167Y-82575026D01*
X169386100Y-82548358D01*
X169467002Y-82521367D01*
X169467004Y-82521366D01*
X169473946Y-82519050D01*
X169624349Y-82425979D01*
X169749306Y-82300803D01*
X169842115Y-82150239D01*
X169897797Y-81982362D01*
X169908500Y-81877901D01*
X169908499Y-78677100D01*
X169897526Y-78571333D01*
X169865220Y-78474500D01*
X169843867Y-78410498D01*
X169843866Y-78410496D01*
X169841550Y-78403554D01*
X169748479Y-78253151D01*
X169740753Y-78245438D01*
X169661883Y-78166707D01*
X169623303Y-78128194D01*
X169519166Y-78064003D01*
X169478969Y-78039225D01*
X169478967Y-78039224D01*
X169472739Y-78035385D01*
X169352245Y-77995419D01*
X169311390Y-77981868D01*
X169311388Y-77981868D01*
X169304862Y-77979703D01*
X169298026Y-77979003D01*
X169298023Y-77979002D01*
X169254970Y-77974591D01*
X169200401Y-77969000D01*
X168366481Y-77969000D01*
X167519600Y-77969001D01*
X167413833Y-77979974D01*
X167407286Y-77982158D01*
X167407287Y-77982158D01*
X167252998Y-78033633D01*
X167252996Y-78033634D01*
X167246054Y-78035950D01*
X167095651Y-78129021D01*
X166970694Y-78254197D01*
X166877885Y-78404761D01*
X166822203Y-78572638D01*
X166811500Y-78677099D01*
X164580772Y-78677099D01*
X164569998Y-78659990D01*
X164526663Y-78591175D01*
X164526662Y-78591174D01*
X164523967Y-78586894D01*
X164359178Y-78399978D01*
X164166625Y-78241813D01*
X163951262Y-78116469D01*
X163807795Y-78061397D01*
X163723357Y-78028984D01*
X163723354Y-78028983D01*
X163718628Y-78027169D01*
X163474710Y-77976212D01*
X163469661Y-77975983D01*
X163469655Y-77975982D01*
X163355996Y-77970821D01*
X163225782Y-77964908D01*
X163220762Y-77965489D01*
X163220758Y-77965489D01*
X163130074Y-77975982D01*
X162978250Y-77993549D01*
X162973376Y-77994928D01*
X162973372Y-77994929D01*
X162743349Y-78060019D01*
X162743347Y-78060020D01*
X162738480Y-78061397D01*
X162733905Y-78063531D01*
X162733898Y-78063533D01*
X162584143Y-78133366D01*
X162512643Y-78166707D01*
X162508463Y-78169548D01*
X162508459Y-78169550D01*
X162310736Y-78303922D01*
X162306547Y-78306769D01*
X162302872Y-78310244D01*
X162302871Y-78310245D01*
X162211375Y-78396768D01*
X162125496Y-78477980D01*
X162122418Y-78482006D01*
X162122417Y-78482007D01*
X161977221Y-78671916D01*
X161977218Y-78671920D01*
X161974148Y-78675936D01*
X161856396Y-78895543D01*
X161854750Y-78900324D01*
X161854748Y-78900328D01*
X161809341Y-79032200D01*
X161775269Y-79131151D01*
X161774407Y-79136143D01*
X161750568Y-79274159D01*
X161732856Y-79376699D01*
X161731500Y-79406559D01*
X161731500Y-81100118D01*
X159748500Y-81100118D01*
X159748500Y-79454882D01*
X159748298Y-79452369D01*
X159733960Y-79274159D01*
X159733959Y-79274154D01*
X159733554Y-79269118D01*
X159674115Y-79027127D01*
X159576751Y-78797752D01*
X159489998Y-78659990D01*
X159446663Y-78591175D01*
X159446662Y-78591174D01*
X159443967Y-78586894D01*
X159279178Y-78399978D01*
X159086625Y-78241813D01*
X158871262Y-78116469D01*
X158727795Y-78061397D01*
X158643357Y-78028984D01*
X158643354Y-78028983D01*
X158638628Y-78027169D01*
X158394710Y-77976212D01*
X158389661Y-77975983D01*
X158389655Y-77975982D01*
X158275996Y-77970821D01*
X158145782Y-77964908D01*
X158140762Y-77965489D01*
X158140758Y-77965489D01*
X158050074Y-77975982D01*
X157898250Y-77993549D01*
X157893376Y-77994928D01*
X157893372Y-77994929D01*
X157663349Y-78060019D01*
X157663347Y-78060020D01*
X157658480Y-78061397D01*
X157653905Y-78063531D01*
X157653898Y-78063533D01*
X157504143Y-78133366D01*
X157432643Y-78166707D01*
X157428463Y-78169548D01*
X157428459Y-78169550D01*
X157230736Y-78303922D01*
X157226547Y-78306769D01*
X157222872Y-78310244D01*
X157222871Y-78310245D01*
X157131375Y-78396768D01*
X157045496Y-78477980D01*
X157042418Y-78482006D01*
X157042417Y-78482007D01*
X156897221Y-78671916D01*
X156897218Y-78671920D01*
X156894148Y-78675936D01*
X156776396Y-78895543D01*
X156774750Y-78900324D01*
X156774748Y-78900328D01*
X156729341Y-79032200D01*
X156695269Y-79131151D01*
X156694407Y-79136143D01*
X156670568Y-79274159D01*
X156652856Y-79376699D01*
X156651500Y-79406559D01*
X156651500Y-81100118D01*
X154668500Y-81100118D01*
X154668500Y-79454882D01*
X154668298Y-79452369D01*
X154653960Y-79274159D01*
X154653959Y-79274154D01*
X154653554Y-79269118D01*
X154594115Y-79027127D01*
X154496751Y-78797752D01*
X154409998Y-78659990D01*
X154366663Y-78591175D01*
X154366662Y-78591174D01*
X154363967Y-78586894D01*
X154199178Y-78399978D01*
X154006625Y-78241813D01*
X153791262Y-78116469D01*
X153647795Y-78061397D01*
X153563357Y-78028984D01*
X153563354Y-78028983D01*
X153558628Y-78027169D01*
X153314710Y-77976212D01*
X153309661Y-77975983D01*
X153309655Y-77975982D01*
X153195996Y-77970821D01*
X153065782Y-77964908D01*
X153060762Y-77965489D01*
X153060758Y-77965489D01*
X152970074Y-77975982D01*
X152818250Y-77993549D01*
X152813376Y-77994928D01*
X152813372Y-77994929D01*
X152583349Y-78060019D01*
X152583347Y-78060020D01*
X152578480Y-78061397D01*
X152573905Y-78063531D01*
X152573898Y-78063533D01*
X152424143Y-78133366D01*
X152352643Y-78166707D01*
X152348463Y-78169548D01*
X152348459Y-78169550D01*
X152150736Y-78303922D01*
X152146547Y-78306769D01*
X152142872Y-78310244D01*
X152142871Y-78310245D01*
X152051375Y-78396768D01*
X151965496Y-78477980D01*
X151962418Y-78482006D01*
X151962417Y-78482007D01*
X151817221Y-78671916D01*
X151817218Y-78671920D01*
X151814148Y-78675936D01*
X151696396Y-78895543D01*
X151694750Y-78900324D01*
X151694748Y-78900328D01*
X151649341Y-79032200D01*
X151615269Y-79131151D01*
X151614407Y-79136143D01*
X151590568Y-79274159D01*
X151572856Y-79376699D01*
X151571500Y-79406559D01*
X151571500Y-81100118D01*
X149588500Y-81100118D01*
X149588500Y-79454882D01*
X149588298Y-79452369D01*
X149573960Y-79274159D01*
X149573959Y-79274154D01*
X149573554Y-79269118D01*
X149514115Y-79027127D01*
X149416751Y-78797752D01*
X149329998Y-78659990D01*
X149286663Y-78591175D01*
X149286662Y-78591174D01*
X149283967Y-78586894D01*
X149119178Y-78399978D01*
X148926625Y-78241813D01*
X148711262Y-78116469D01*
X148567795Y-78061397D01*
X148483357Y-78028984D01*
X148483354Y-78028983D01*
X148478628Y-78027169D01*
X148234710Y-77976212D01*
X148229661Y-77975983D01*
X148229655Y-77975982D01*
X148115996Y-77970821D01*
X147985782Y-77964908D01*
X147980762Y-77965489D01*
X147980758Y-77965489D01*
X147890074Y-77975982D01*
X147738250Y-77993549D01*
X147733376Y-77994928D01*
X147733372Y-77994929D01*
X147503349Y-78060019D01*
X147503347Y-78060020D01*
X147498480Y-78061397D01*
X147493905Y-78063531D01*
X147493898Y-78063533D01*
X147344143Y-78133366D01*
X147272643Y-78166707D01*
X147268463Y-78169548D01*
X147268459Y-78169550D01*
X147070736Y-78303922D01*
X147066547Y-78306769D01*
X147062872Y-78310244D01*
X147062871Y-78310245D01*
X146971375Y-78396768D01*
X146885496Y-78477980D01*
X146882418Y-78482006D01*
X146882417Y-78482007D01*
X146737221Y-78671916D01*
X146737218Y-78671920D01*
X146734148Y-78675936D01*
X146616396Y-78895543D01*
X146614750Y-78900324D01*
X146614748Y-78900328D01*
X146569341Y-79032200D01*
X146535269Y-79131151D01*
X146534407Y-79136143D01*
X146510568Y-79274159D01*
X146492856Y-79376699D01*
X146491500Y-79406559D01*
X146491500Y-81100118D01*
X144508500Y-81100118D01*
X144508500Y-79454882D01*
X144508298Y-79452369D01*
X144493960Y-79274159D01*
X144493959Y-79274154D01*
X144493554Y-79269118D01*
X144434115Y-79027127D01*
X144336751Y-78797752D01*
X144249998Y-78659990D01*
X144206663Y-78591175D01*
X144206662Y-78591174D01*
X144203967Y-78586894D01*
X144039178Y-78399978D01*
X143846625Y-78241813D01*
X143631262Y-78116469D01*
X143487795Y-78061397D01*
X143403357Y-78028984D01*
X143403354Y-78028983D01*
X143398628Y-78027169D01*
X143154710Y-77976212D01*
X143149661Y-77975983D01*
X143149655Y-77975982D01*
X143035996Y-77970821D01*
X142905782Y-77964908D01*
X142900762Y-77965489D01*
X142900758Y-77965489D01*
X142810074Y-77975982D01*
X142658250Y-77993549D01*
X142653376Y-77994928D01*
X142653372Y-77994929D01*
X142423349Y-78060019D01*
X142423347Y-78060020D01*
X142418480Y-78061397D01*
X142413905Y-78063531D01*
X142413898Y-78063533D01*
X142264143Y-78133366D01*
X142192643Y-78166707D01*
X142188463Y-78169548D01*
X142188459Y-78169550D01*
X141990736Y-78303922D01*
X141986547Y-78306769D01*
X141982872Y-78310244D01*
X141982871Y-78310245D01*
X141891375Y-78396768D01*
X141805496Y-78477980D01*
X141802418Y-78482006D01*
X141802417Y-78482007D01*
X141657221Y-78671916D01*
X141657218Y-78671920D01*
X141654148Y-78675936D01*
X141536396Y-78895543D01*
X141534750Y-78900324D01*
X141534748Y-78900328D01*
X141489341Y-79032200D01*
X141455269Y-79131151D01*
X141454407Y-79136143D01*
X141430568Y-79274159D01*
X141412856Y-79376699D01*
X141411500Y-79406559D01*
X141411500Y-81100118D01*
X139428500Y-81100118D01*
X139428500Y-79454882D01*
X139428298Y-79452369D01*
X139413960Y-79274159D01*
X139413959Y-79274154D01*
X139413554Y-79269118D01*
X139354115Y-79027127D01*
X139256751Y-78797752D01*
X139169998Y-78659990D01*
X139126663Y-78591175D01*
X139126662Y-78591174D01*
X139123967Y-78586894D01*
X138959178Y-78399978D01*
X138766625Y-78241813D01*
X138551262Y-78116469D01*
X138407795Y-78061397D01*
X138323357Y-78028984D01*
X138323354Y-78028983D01*
X138318628Y-78027169D01*
X138074710Y-77976212D01*
X138069661Y-77975983D01*
X138069655Y-77975982D01*
X137955996Y-77970821D01*
X137825782Y-77964908D01*
X137820762Y-77965489D01*
X137820758Y-77965489D01*
X137730074Y-77975982D01*
X137578250Y-77993549D01*
X137573376Y-77994928D01*
X137573372Y-77994929D01*
X137343349Y-78060019D01*
X137343347Y-78060020D01*
X137338480Y-78061397D01*
X137333905Y-78063531D01*
X137333898Y-78063533D01*
X137184143Y-78133366D01*
X137112643Y-78166707D01*
X137108463Y-78169548D01*
X137108459Y-78169550D01*
X136910736Y-78303922D01*
X136906547Y-78306769D01*
X136902872Y-78310244D01*
X136902871Y-78310245D01*
X136811375Y-78396768D01*
X136725496Y-78477980D01*
X136722418Y-78482006D01*
X136722417Y-78482007D01*
X136577221Y-78671916D01*
X136577218Y-78671920D01*
X136574148Y-78675936D01*
X136456396Y-78895543D01*
X136454750Y-78900324D01*
X136454748Y-78900328D01*
X136409341Y-79032200D01*
X136375269Y-79131151D01*
X136374407Y-79136143D01*
X136350568Y-79274159D01*
X136332856Y-79376699D01*
X136331500Y-79406559D01*
X136331500Y-81100118D01*
X134348500Y-81100118D01*
X134348500Y-79454882D01*
X134348298Y-79452369D01*
X134333960Y-79274159D01*
X134333959Y-79274154D01*
X134333554Y-79269118D01*
X134274115Y-79027127D01*
X134176751Y-78797752D01*
X134089998Y-78659990D01*
X134046663Y-78591175D01*
X134046662Y-78591174D01*
X134043967Y-78586894D01*
X133879178Y-78399978D01*
X133686625Y-78241813D01*
X133471262Y-78116469D01*
X133327795Y-78061397D01*
X133243357Y-78028984D01*
X133243354Y-78028983D01*
X133238628Y-78027169D01*
X132994710Y-77976212D01*
X132989661Y-77975983D01*
X132989655Y-77975982D01*
X132875996Y-77970821D01*
X132745782Y-77964908D01*
X132740762Y-77965489D01*
X132740758Y-77965489D01*
X132650074Y-77975982D01*
X132498250Y-77993549D01*
X132493376Y-77994928D01*
X132493372Y-77994929D01*
X132263349Y-78060019D01*
X132263347Y-78060020D01*
X132258480Y-78061397D01*
X132253905Y-78063531D01*
X132253898Y-78063533D01*
X132104143Y-78133366D01*
X132032643Y-78166707D01*
X132028463Y-78169548D01*
X132028459Y-78169550D01*
X131830736Y-78303922D01*
X131826547Y-78306769D01*
X131822872Y-78310244D01*
X131822871Y-78310245D01*
X131731375Y-78396768D01*
X131645496Y-78477980D01*
X131642418Y-78482006D01*
X131642417Y-78482007D01*
X131497221Y-78671916D01*
X131497218Y-78671920D01*
X131494148Y-78675936D01*
X131376396Y-78895543D01*
X131374750Y-78900324D01*
X131374748Y-78900328D01*
X131329341Y-79032200D01*
X131295269Y-79131151D01*
X131294407Y-79136143D01*
X131270568Y-79274159D01*
X131252856Y-79376699D01*
X131251500Y-79406559D01*
X131251500Y-81100118D01*
X129268500Y-81100118D01*
X129268500Y-79454882D01*
X129268298Y-79452369D01*
X129253960Y-79274159D01*
X129253959Y-79274154D01*
X129253554Y-79269118D01*
X129194115Y-79027127D01*
X129096751Y-78797752D01*
X129009998Y-78659990D01*
X128966663Y-78591175D01*
X128966662Y-78591174D01*
X128963967Y-78586894D01*
X128799178Y-78399978D01*
X128606625Y-78241813D01*
X128391262Y-78116469D01*
X128247795Y-78061397D01*
X128163357Y-78028984D01*
X128163354Y-78028983D01*
X128158628Y-78027169D01*
X127914710Y-77976212D01*
X127909661Y-77975983D01*
X127909655Y-77975982D01*
X127795996Y-77970821D01*
X127665782Y-77964908D01*
X127660762Y-77965489D01*
X127660758Y-77965489D01*
X127570074Y-77975982D01*
X127418250Y-77993549D01*
X127413376Y-77994928D01*
X127413372Y-77994929D01*
X127183349Y-78060019D01*
X127183347Y-78060020D01*
X127178480Y-78061397D01*
X127173905Y-78063531D01*
X127173898Y-78063533D01*
X127024143Y-78133366D01*
X126952643Y-78166707D01*
X126948463Y-78169548D01*
X126948459Y-78169550D01*
X126750736Y-78303922D01*
X126746547Y-78306769D01*
X126742872Y-78310244D01*
X126742871Y-78310245D01*
X126651375Y-78396768D01*
X126565496Y-78477980D01*
X126562418Y-78482006D01*
X126562417Y-78482007D01*
X126417221Y-78671916D01*
X126417218Y-78671920D01*
X126414148Y-78675936D01*
X126296396Y-78895543D01*
X126294750Y-78900324D01*
X126294748Y-78900328D01*
X126249341Y-79032200D01*
X126215269Y-79131151D01*
X126214407Y-79136143D01*
X126190568Y-79274159D01*
X126172856Y-79376699D01*
X126171500Y-79406559D01*
X126171500Y-81100118D01*
X124188000Y-81100118D01*
X124188000Y-80549615D01*
X124183525Y-80534376D01*
X124182135Y-80533171D01*
X124174452Y-80531500D01*
X122912115Y-80531500D01*
X122896876Y-80535975D01*
X122895671Y-80537365D01*
X122894000Y-80545048D01*
X122894000Y-82548358D01*
X122386000Y-82548358D01*
X122386000Y-80549615D01*
X122381525Y-80534376D01*
X122380135Y-80533171D01*
X122372452Y-80531500D01*
X121110115Y-80531500D01*
X121094876Y-80535975D01*
X121093671Y-80537365D01*
X121092000Y-80545048D01*
X121092000Y-81097572D01*
X119008500Y-81097572D01*
X119008500Y-80005385D01*
X121092000Y-80005385D01*
X121096475Y-80020624D01*
X121097865Y-80021829D01*
X121105548Y-80023500D01*
X122367885Y-80023500D01*
X122383124Y-80019025D01*
X122384329Y-80017635D01*
X122386000Y-80009952D01*
X122386000Y-80005385D01*
X122894000Y-80005385D01*
X122898475Y-80020624D01*
X122899865Y-80021829D01*
X122907548Y-80023500D01*
X124169885Y-80023500D01*
X124185124Y-80019025D01*
X124186329Y-80017635D01*
X124188000Y-80009952D01*
X124188000Y-79457428D01*
X124187798Y-79452396D01*
X124173464Y-79274241D01*
X124171852Y-79264288D01*
X124114846Y-79032200D01*
X124111663Y-79022630D01*
X124018282Y-78802640D01*
X124013608Y-78793701D01*
X123886261Y-78591476D01*
X123880220Y-78583401D01*
X123722173Y-78404132D01*
X123714921Y-78397129D01*
X123530250Y-78245438D01*
X123521967Y-78239682D01*
X123315421Y-78119469D01*
X123306316Y-78115107D01*
X123083215Y-78029466D01*
X123073526Y-78026615D01*
X122911736Y-77992815D01*
X122897675Y-77993938D01*
X122894000Y-78004046D01*
X122894000Y-80005385D01*
X122386000Y-80005385D01*
X122386000Y-78006642D01*
X122381864Y-77992556D01*
X122368886Y-77990507D01*
X122343369Y-77993460D01*
X122333479Y-77995419D01*
X122103524Y-78060489D01*
X122094073Y-78064003D01*
X121877472Y-78165006D01*
X121868708Y-78169985D01*
X121671049Y-78304314D01*
X121663185Y-78310638D01*
X121489549Y-78474836D01*
X121482790Y-78482343D01*
X121337643Y-78672188D01*
X121332179Y-78680667D01*
X121219248Y-78891283D01*
X121215208Y-78900529D01*
X121137404Y-79126487D01*
X121134893Y-79136268D01*
X121094031Y-79372834D01*
X121093176Y-79380706D01*
X121092064Y-79405185D01*
X121092000Y-79408018D01*
X121092000Y-80005385D01*
X119008500Y-80005385D01*
X119008500Y-74100118D01*
X121091500Y-74100118D01*
X121091702Y-74102626D01*
X121091702Y-74102631D01*
X121106034Y-74280759D01*
X121106446Y-74285882D01*
X121165885Y-74527873D01*
X121263249Y-74757248D01*
X121265947Y-74761532D01*
X121393148Y-74963524D01*
X121396033Y-74968106D01*
X121560822Y-75155022D01*
X121753375Y-75313187D01*
X121968738Y-75438531D01*
X122085055Y-75483181D01*
X122196643Y-75526016D01*
X122196646Y-75526017D01*
X122201372Y-75527831D01*
X122445290Y-75578788D01*
X122450339Y-75579017D01*
X122450345Y-75579018D01*
X122564004Y-75584179D01*
X122694218Y-75590092D01*
X122699238Y-75589511D01*
X122699242Y-75589511D01*
X122816026Y-75575998D01*
X122941750Y-75561451D01*
X122946624Y-75560072D01*
X122946628Y-75560071D01*
X123176651Y-75494981D01*
X123176653Y-75494980D01*
X123181520Y-75493603D01*
X123186095Y-75491469D01*
X123186102Y-75491467D01*
X123402776Y-75390429D01*
X123407357Y-75388293D01*
X123411537Y-75385452D01*
X123411541Y-75385450D01*
X123609264Y-75251078D01*
X123609265Y-75251077D01*
X123613453Y-75248231D01*
X123617545Y-75244362D01*
X123790824Y-75080500D01*
X123794504Y-75077020D01*
X123861884Y-74988890D01*
X123942779Y-74883084D01*
X123942782Y-74883080D01*
X123945852Y-74879064D01*
X124063604Y-74659457D01*
X124108913Y-74527873D01*
X124143082Y-74428638D01*
X124144731Y-74423849D01*
X124162482Y-74321079D01*
X124186469Y-74182211D01*
X124186470Y-74182205D01*
X124187144Y-74178301D01*
X124188500Y-74148441D01*
X124188500Y-74100118D01*
X126171500Y-74100118D01*
X126171702Y-74102626D01*
X126171702Y-74102631D01*
X126186034Y-74280759D01*
X126186446Y-74285882D01*
X126245885Y-74527873D01*
X126343249Y-74757248D01*
X126345947Y-74761532D01*
X126473148Y-74963524D01*
X126476033Y-74968106D01*
X126640822Y-75155022D01*
X126833375Y-75313187D01*
X127048738Y-75438531D01*
X127165055Y-75483181D01*
X127276643Y-75526016D01*
X127276646Y-75526017D01*
X127281372Y-75527831D01*
X127525290Y-75578788D01*
X127530339Y-75579017D01*
X127530345Y-75579018D01*
X127644004Y-75584179D01*
X127774218Y-75590092D01*
X127779238Y-75589511D01*
X127779242Y-75589511D01*
X127896026Y-75575998D01*
X128021750Y-75561451D01*
X128026624Y-75560072D01*
X128026628Y-75560071D01*
X128256651Y-75494981D01*
X128256653Y-75494980D01*
X128261520Y-75493603D01*
X128266095Y-75491469D01*
X128266102Y-75491467D01*
X128482776Y-75390429D01*
X128487357Y-75388293D01*
X128491537Y-75385452D01*
X128491541Y-75385450D01*
X128689264Y-75251078D01*
X128689265Y-75251077D01*
X128693453Y-75248231D01*
X128697545Y-75244362D01*
X128870824Y-75080500D01*
X128874504Y-75077020D01*
X128941884Y-74988890D01*
X129022779Y-74883084D01*
X129022782Y-74883080D01*
X129025852Y-74879064D01*
X129143604Y-74659457D01*
X129188913Y-74527873D01*
X129223082Y-74428638D01*
X129224731Y-74423849D01*
X129242482Y-74321079D01*
X129266469Y-74182211D01*
X129266470Y-74182205D01*
X129267144Y-74178301D01*
X129268500Y-74148441D01*
X129268500Y-74097572D01*
X131252000Y-74097572D01*
X131252202Y-74102604D01*
X131266536Y-74280759D01*
X131268148Y-74290712D01*
X131325154Y-74522800D01*
X131328337Y-74532370D01*
X131421718Y-74752360D01*
X131426392Y-74761299D01*
X131553739Y-74963524D01*
X131559780Y-74971599D01*
X131717827Y-75150868D01*
X131725079Y-75157871D01*
X131909750Y-75309562D01*
X131918033Y-75315318D01*
X132124579Y-75435531D01*
X132133684Y-75439893D01*
X132356785Y-75525534D01*
X132366474Y-75528385D01*
X132528264Y-75562185D01*
X132542325Y-75561062D01*
X132546000Y-75550954D01*
X132546000Y-75548358D01*
X133054000Y-75548358D01*
X133058136Y-75562444D01*
X133071114Y-75564493D01*
X133096631Y-75561540D01*
X133106521Y-75559581D01*
X133336476Y-75494511D01*
X133345927Y-75490997D01*
X133562528Y-75389994D01*
X133571292Y-75385015D01*
X133768951Y-75250686D01*
X133776815Y-75244362D01*
X133950451Y-75080164D01*
X133957210Y-75072657D01*
X134102357Y-74882812D01*
X134107821Y-74874333D01*
X134220752Y-74663717D01*
X134224792Y-74654471D01*
X134302596Y-74428513D01*
X134305107Y-74418732D01*
X134345969Y-74182166D01*
X134346824Y-74174294D01*
X134347936Y-74149815D01*
X134348000Y-74146982D01*
X134348000Y-74100118D01*
X136331500Y-74100118D01*
X136331702Y-74102626D01*
X136331702Y-74102631D01*
X136346034Y-74280759D01*
X136346446Y-74285882D01*
X136405885Y-74527873D01*
X136503249Y-74757248D01*
X136505947Y-74761532D01*
X136633148Y-74963524D01*
X136636033Y-74968106D01*
X136800822Y-75155022D01*
X136993375Y-75313187D01*
X137208738Y-75438531D01*
X137325055Y-75483181D01*
X137436643Y-75526016D01*
X137436646Y-75526017D01*
X137441372Y-75527831D01*
X137685290Y-75578788D01*
X137690339Y-75579017D01*
X137690345Y-75579018D01*
X137804004Y-75584179D01*
X137934218Y-75590092D01*
X137939238Y-75589511D01*
X137939242Y-75589511D01*
X138056026Y-75575998D01*
X138181750Y-75561451D01*
X138186624Y-75560072D01*
X138186628Y-75560071D01*
X138416651Y-75494981D01*
X138416653Y-75494980D01*
X138421520Y-75493603D01*
X138426095Y-75491469D01*
X138426102Y-75491467D01*
X138642776Y-75390429D01*
X138647357Y-75388293D01*
X138651537Y-75385452D01*
X138651541Y-75385450D01*
X138849264Y-75251078D01*
X138849265Y-75251077D01*
X138853453Y-75248231D01*
X138857545Y-75244362D01*
X139030824Y-75080500D01*
X139034504Y-75077020D01*
X139101884Y-74988890D01*
X139182779Y-74883084D01*
X139182782Y-74883080D01*
X139185852Y-74879064D01*
X139303604Y-74659457D01*
X139348913Y-74527873D01*
X139383082Y-74428638D01*
X139384731Y-74423849D01*
X139402482Y-74321079D01*
X139426469Y-74182211D01*
X139426470Y-74182205D01*
X139427144Y-74178301D01*
X139428500Y-74148441D01*
X139428500Y-74097572D01*
X141412000Y-74097572D01*
X141412202Y-74102604D01*
X141426536Y-74280759D01*
X141428148Y-74290712D01*
X141485154Y-74522800D01*
X141488337Y-74532370D01*
X141581718Y-74752360D01*
X141586392Y-74761299D01*
X141713739Y-74963524D01*
X141719780Y-74971599D01*
X141877827Y-75150868D01*
X141885079Y-75157871D01*
X142069750Y-75309562D01*
X142078033Y-75315318D01*
X142284579Y-75435531D01*
X142293684Y-75439893D01*
X142516785Y-75525534D01*
X142526474Y-75528385D01*
X142688264Y-75562185D01*
X142702325Y-75561062D01*
X142706000Y-75550954D01*
X142706000Y-75548358D01*
X143214000Y-75548358D01*
X143218136Y-75562444D01*
X143231114Y-75564493D01*
X143256631Y-75561540D01*
X143266521Y-75559581D01*
X143496476Y-75494511D01*
X143505927Y-75490997D01*
X143722528Y-75389994D01*
X143731292Y-75385015D01*
X143928951Y-75250686D01*
X143936815Y-75244362D01*
X144110451Y-75080164D01*
X144117210Y-75072657D01*
X144262357Y-74882812D01*
X144267821Y-74874333D01*
X144380752Y-74663717D01*
X144384792Y-74654471D01*
X144462596Y-74428513D01*
X144465107Y-74418732D01*
X144505969Y-74182166D01*
X144506824Y-74174294D01*
X144507936Y-74149815D01*
X144508000Y-74146982D01*
X144508000Y-74100118D01*
X146491500Y-74100118D01*
X146491702Y-74102626D01*
X146491702Y-74102631D01*
X146506034Y-74280759D01*
X146506446Y-74285882D01*
X146565885Y-74527873D01*
X146663249Y-74757248D01*
X146665947Y-74761532D01*
X146793148Y-74963524D01*
X146796033Y-74968106D01*
X146960822Y-75155022D01*
X147153375Y-75313187D01*
X147368738Y-75438531D01*
X147485055Y-75483181D01*
X147596643Y-75526016D01*
X147596646Y-75526017D01*
X147601372Y-75527831D01*
X147845290Y-75578788D01*
X147850339Y-75579017D01*
X147850345Y-75579018D01*
X147964004Y-75584179D01*
X148094218Y-75590092D01*
X148099238Y-75589511D01*
X148099242Y-75589511D01*
X148216026Y-75575998D01*
X148341750Y-75561451D01*
X148346624Y-75560072D01*
X148346628Y-75560071D01*
X148576651Y-75494981D01*
X148576653Y-75494980D01*
X148581520Y-75493603D01*
X148586095Y-75491469D01*
X148586102Y-75491467D01*
X148802776Y-75390429D01*
X148807357Y-75388293D01*
X148811537Y-75385452D01*
X148811541Y-75385450D01*
X149009264Y-75251078D01*
X149009265Y-75251077D01*
X149013453Y-75248231D01*
X149017545Y-75244362D01*
X149190824Y-75080500D01*
X149194504Y-75077020D01*
X149261884Y-74988890D01*
X149342779Y-74883084D01*
X149342782Y-74883080D01*
X149345852Y-74879064D01*
X149463604Y-74659457D01*
X149508913Y-74527873D01*
X149543082Y-74428638D01*
X149544731Y-74423849D01*
X149562482Y-74321079D01*
X149586469Y-74182211D01*
X149586470Y-74182205D01*
X149587144Y-74178301D01*
X149588500Y-74148441D01*
X149588500Y-74097572D01*
X151572000Y-74097572D01*
X151572202Y-74102604D01*
X151586536Y-74280759D01*
X151588148Y-74290712D01*
X151645154Y-74522800D01*
X151648337Y-74532370D01*
X151741718Y-74752360D01*
X151746392Y-74761299D01*
X151873739Y-74963524D01*
X151879780Y-74971599D01*
X152037827Y-75150868D01*
X152045079Y-75157871D01*
X152229750Y-75309562D01*
X152238033Y-75315318D01*
X152444579Y-75435531D01*
X152453684Y-75439893D01*
X152676785Y-75525534D01*
X152686474Y-75528385D01*
X152848264Y-75562185D01*
X152862325Y-75561062D01*
X152866000Y-75550954D01*
X152866000Y-75548358D01*
X153374000Y-75548358D01*
X153378136Y-75562444D01*
X153391114Y-75564493D01*
X153416631Y-75561540D01*
X153426521Y-75559581D01*
X153656476Y-75494511D01*
X153665927Y-75490997D01*
X153882528Y-75389994D01*
X153891292Y-75385015D01*
X154088951Y-75250686D01*
X154096815Y-75244362D01*
X154270451Y-75080164D01*
X154277210Y-75072657D01*
X154422357Y-74882812D01*
X154427821Y-74874333D01*
X154540752Y-74663717D01*
X154544792Y-74654471D01*
X154622596Y-74428513D01*
X154625107Y-74418732D01*
X154665969Y-74182166D01*
X154666824Y-74174294D01*
X154667936Y-74149815D01*
X154668000Y-74146982D01*
X154668000Y-74100118D01*
X156651500Y-74100118D01*
X156651702Y-74102626D01*
X156651702Y-74102631D01*
X156666034Y-74280759D01*
X156666446Y-74285882D01*
X156725885Y-74527873D01*
X156823249Y-74757248D01*
X156825947Y-74761532D01*
X156953148Y-74963524D01*
X156956033Y-74968106D01*
X157120822Y-75155022D01*
X157313375Y-75313187D01*
X157528738Y-75438531D01*
X157645055Y-75483181D01*
X157756643Y-75526016D01*
X157756646Y-75526017D01*
X157761372Y-75527831D01*
X158005290Y-75578788D01*
X158010339Y-75579017D01*
X158010345Y-75579018D01*
X158124004Y-75584179D01*
X158254218Y-75590092D01*
X158259238Y-75589511D01*
X158259242Y-75589511D01*
X158376026Y-75575998D01*
X158501750Y-75561451D01*
X158506624Y-75560072D01*
X158506628Y-75560071D01*
X158736651Y-75494981D01*
X158736653Y-75494980D01*
X158741520Y-75493603D01*
X158746095Y-75491469D01*
X158746102Y-75491467D01*
X158962776Y-75390429D01*
X158967357Y-75388293D01*
X158971537Y-75385452D01*
X158971541Y-75385450D01*
X159169264Y-75251078D01*
X159169265Y-75251077D01*
X159173453Y-75248231D01*
X159177545Y-75244362D01*
X159350824Y-75080500D01*
X159354504Y-75077020D01*
X159421884Y-74988890D01*
X159502779Y-74883084D01*
X159502782Y-74883080D01*
X159505852Y-74879064D01*
X159623604Y-74659457D01*
X159668913Y-74527873D01*
X159703082Y-74428638D01*
X159704731Y-74423849D01*
X159722482Y-74321079D01*
X159746469Y-74182211D01*
X159746470Y-74182205D01*
X159747144Y-74178301D01*
X159748500Y-74148441D01*
X159748500Y-74097572D01*
X161732000Y-74097572D01*
X161732202Y-74102604D01*
X161746536Y-74280759D01*
X161748148Y-74290712D01*
X161805154Y-74522800D01*
X161808337Y-74532370D01*
X161901718Y-74752360D01*
X161906392Y-74761299D01*
X162033739Y-74963524D01*
X162039780Y-74971599D01*
X162197827Y-75150868D01*
X162205079Y-75157871D01*
X162389750Y-75309562D01*
X162398033Y-75315318D01*
X162604579Y-75435531D01*
X162613684Y-75439893D01*
X162836785Y-75525534D01*
X162846474Y-75528385D01*
X163008264Y-75562185D01*
X163022325Y-75561062D01*
X163026000Y-75550954D01*
X163026000Y-75548358D01*
X163534000Y-75548358D01*
X163538136Y-75562444D01*
X163551114Y-75564493D01*
X163576631Y-75561540D01*
X163586521Y-75559581D01*
X163816476Y-75494511D01*
X163825927Y-75490997D01*
X164042528Y-75389994D01*
X164051292Y-75385015D01*
X164248951Y-75250686D01*
X164256815Y-75244362D01*
X164430451Y-75080164D01*
X164437210Y-75072657D01*
X164582357Y-74882812D01*
X164587821Y-74874333D01*
X164700752Y-74663717D01*
X164704792Y-74654471D01*
X164782596Y-74428513D01*
X164785107Y-74418732D01*
X164825969Y-74182166D01*
X164826824Y-74174294D01*
X164827936Y-74149815D01*
X164828000Y-74146982D01*
X164828000Y-73549615D01*
X164823525Y-73534376D01*
X164822135Y-73533171D01*
X164814452Y-73531500D01*
X163552115Y-73531500D01*
X163536876Y-73535975D01*
X163535671Y-73537365D01*
X163534000Y-73545048D01*
X163534000Y-75548358D01*
X163026000Y-75548358D01*
X163026000Y-73549615D01*
X163021525Y-73534376D01*
X163020135Y-73533171D01*
X163012452Y-73531500D01*
X161750115Y-73531500D01*
X161734876Y-73535975D01*
X161733671Y-73537365D01*
X161732000Y-73545048D01*
X161732000Y-74097572D01*
X159748500Y-74097572D01*
X159748500Y-73005385D01*
X161732000Y-73005385D01*
X161736475Y-73020624D01*
X161737865Y-73021829D01*
X161745548Y-73023500D01*
X163007885Y-73023500D01*
X163023124Y-73019025D01*
X163024329Y-73017635D01*
X163026000Y-73009952D01*
X163026000Y-73005385D01*
X163534000Y-73005385D01*
X163538475Y-73020624D01*
X163539865Y-73021829D01*
X163547548Y-73023500D01*
X164809885Y-73023500D01*
X164825124Y-73019025D01*
X164826329Y-73017635D01*
X164828000Y-73009952D01*
X164828000Y-72457428D01*
X164827798Y-72452396D01*
X164813464Y-72274241D01*
X164811852Y-72264288D01*
X164754846Y-72032200D01*
X164751663Y-72022630D01*
X164658282Y-71802640D01*
X164653608Y-71793701D01*
X164580180Y-71677099D01*
X166811500Y-71677099D01*
X166811501Y-74877900D01*
X166822474Y-74983667D01*
X166824658Y-74990213D01*
X166875730Y-75143292D01*
X166878450Y-75151446D01*
X166971521Y-75301849D01*
X166976703Y-75307022D01*
X166979661Y-75309975D01*
X167096697Y-75426806D01*
X167117928Y-75439893D01*
X167201597Y-75491467D01*
X167247261Y-75519615D01*
X167327004Y-75546064D01*
X167408610Y-75573132D01*
X167408612Y-75573132D01*
X167415138Y-75575297D01*
X167421974Y-75575997D01*
X167421977Y-75575998D01*
X167465030Y-75580409D01*
X167519599Y-75586000D01*
X168353519Y-75586000D01*
X169200400Y-75585999D01*
X169306167Y-75575026D01*
X169386100Y-75548358D01*
X169467002Y-75521367D01*
X169467004Y-75521366D01*
X169473946Y-75519050D01*
X169624349Y-75425979D01*
X169749306Y-75300803D01*
X169842115Y-75150239D01*
X169897797Y-74982362D01*
X169908500Y-74877901D01*
X169908499Y-71677100D01*
X169897526Y-71571333D01*
X169865220Y-71474500D01*
X169843867Y-71410498D01*
X169843866Y-71410496D01*
X169841550Y-71403554D01*
X169748479Y-71253151D01*
X169740753Y-71245438D01*
X169661883Y-71166707D01*
X169623303Y-71128194D01*
X169519166Y-71064003D01*
X169478969Y-71039225D01*
X169478967Y-71039224D01*
X169472739Y-71035385D01*
X169352245Y-70995419D01*
X169311390Y-70981868D01*
X169311388Y-70981868D01*
X169304862Y-70979703D01*
X169298026Y-70979003D01*
X169298023Y-70979002D01*
X169254970Y-70974591D01*
X169200401Y-70969000D01*
X168366481Y-70969000D01*
X167519600Y-70969001D01*
X167413833Y-70979974D01*
X167407286Y-70982158D01*
X167407287Y-70982158D01*
X167252998Y-71033633D01*
X167252996Y-71033634D01*
X167246054Y-71035950D01*
X167095651Y-71129021D01*
X166970694Y-71254197D01*
X166877885Y-71404761D01*
X166822203Y-71572638D01*
X166811500Y-71677099D01*
X164580180Y-71677099D01*
X164526261Y-71591476D01*
X164520220Y-71583401D01*
X164362173Y-71404132D01*
X164354921Y-71397129D01*
X164170250Y-71245438D01*
X164161967Y-71239682D01*
X163955421Y-71119469D01*
X163946316Y-71115107D01*
X163723215Y-71029466D01*
X163713526Y-71026615D01*
X163551736Y-70992815D01*
X163537675Y-70993938D01*
X163534000Y-71004046D01*
X163534000Y-73005385D01*
X163026000Y-73005385D01*
X163026000Y-71006642D01*
X163021864Y-70992556D01*
X163008886Y-70990507D01*
X162983369Y-70993460D01*
X162973479Y-70995419D01*
X162743524Y-71060489D01*
X162734073Y-71064003D01*
X162517472Y-71165006D01*
X162508708Y-71169985D01*
X162311049Y-71304314D01*
X162303185Y-71310638D01*
X162129549Y-71474836D01*
X162122790Y-71482343D01*
X161977643Y-71672188D01*
X161972179Y-71680667D01*
X161859248Y-71891283D01*
X161855208Y-71900529D01*
X161777404Y-72126487D01*
X161774893Y-72136268D01*
X161734031Y-72372834D01*
X161733176Y-72380706D01*
X161732064Y-72405185D01*
X161732000Y-72408018D01*
X161732000Y-73005385D01*
X159748500Y-73005385D01*
X159748500Y-72454882D01*
X159748298Y-72452369D01*
X159733960Y-72274159D01*
X159733959Y-72274154D01*
X159733554Y-72269118D01*
X159674115Y-72027127D01*
X159576751Y-71797752D01*
X159489998Y-71659990D01*
X159446663Y-71591175D01*
X159446662Y-71591174D01*
X159443967Y-71586894D01*
X159279178Y-71399978D01*
X159086625Y-71241813D01*
X158871262Y-71116469D01*
X158727795Y-71061397D01*
X158643357Y-71028984D01*
X158643354Y-71028983D01*
X158638628Y-71027169D01*
X158394710Y-70976212D01*
X158389661Y-70975983D01*
X158389655Y-70975982D01*
X158275996Y-70970821D01*
X158145782Y-70964908D01*
X158140762Y-70965489D01*
X158140758Y-70965489D01*
X158050074Y-70975982D01*
X157898250Y-70993549D01*
X157893376Y-70994928D01*
X157893372Y-70994929D01*
X157663349Y-71060019D01*
X157663347Y-71060020D01*
X157658480Y-71061397D01*
X157653905Y-71063531D01*
X157653898Y-71063533D01*
X157504143Y-71133366D01*
X157432643Y-71166707D01*
X157428463Y-71169548D01*
X157428459Y-71169550D01*
X157230736Y-71303922D01*
X157226547Y-71306769D01*
X157222872Y-71310244D01*
X157222871Y-71310245D01*
X157131375Y-71396768D01*
X157045496Y-71477980D01*
X157042418Y-71482006D01*
X157042417Y-71482007D01*
X156897221Y-71671916D01*
X156897218Y-71671920D01*
X156894148Y-71675936D01*
X156776396Y-71895543D01*
X156774750Y-71900324D01*
X156774748Y-71900328D01*
X156729341Y-72032200D01*
X156695269Y-72131151D01*
X156694407Y-72136143D01*
X156670568Y-72274159D01*
X156652856Y-72376699D01*
X156651500Y-72406559D01*
X156651500Y-74100118D01*
X154668000Y-74100118D01*
X154668000Y-73549615D01*
X154663525Y-73534376D01*
X154662135Y-73533171D01*
X154654452Y-73531500D01*
X153392115Y-73531500D01*
X153376876Y-73535975D01*
X153375671Y-73537365D01*
X153374000Y-73545048D01*
X153374000Y-75548358D01*
X152866000Y-75548358D01*
X152866000Y-73549615D01*
X152861525Y-73534376D01*
X152860135Y-73533171D01*
X152852452Y-73531500D01*
X151590115Y-73531500D01*
X151574876Y-73535975D01*
X151573671Y-73537365D01*
X151572000Y-73545048D01*
X151572000Y-74097572D01*
X149588500Y-74097572D01*
X149588500Y-73005385D01*
X151572000Y-73005385D01*
X151576475Y-73020624D01*
X151577865Y-73021829D01*
X151585548Y-73023500D01*
X152847885Y-73023500D01*
X152863124Y-73019025D01*
X152864329Y-73017635D01*
X152866000Y-73009952D01*
X152866000Y-73005385D01*
X153374000Y-73005385D01*
X153378475Y-73020624D01*
X153379865Y-73021829D01*
X153387548Y-73023500D01*
X154649885Y-73023500D01*
X154665124Y-73019025D01*
X154666329Y-73017635D01*
X154668000Y-73009952D01*
X154668000Y-72457428D01*
X154667798Y-72452396D01*
X154653464Y-72274241D01*
X154651852Y-72264288D01*
X154594846Y-72032200D01*
X154591663Y-72022630D01*
X154498282Y-71802640D01*
X154493608Y-71793701D01*
X154366261Y-71591476D01*
X154360220Y-71583401D01*
X154202173Y-71404132D01*
X154194921Y-71397129D01*
X154010250Y-71245438D01*
X154001967Y-71239682D01*
X153795421Y-71119469D01*
X153786316Y-71115107D01*
X153563215Y-71029466D01*
X153553526Y-71026615D01*
X153391736Y-70992815D01*
X153377675Y-70993938D01*
X153374000Y-71004046D01*
X153374000Y-73005385D01*
X152866000Y-73005385D01*
X152866000Y-71006642D01*
X152861864Y-70992556D01*
X152848886Y-70990507D01*
X152823369Y-70993460D01*
X152813479Y-70995419D01*
X152583524Y-71060489D01*
X152574073Y-71064003D01*
X152357472Y-71165006D01*
X152348708Y-71169985D01*
X152151049Y-71304314D01*
X152143185Y-71310638D01*
X151969549Y-71474836D01*
X151962790Y-71482343D01*
X151817643Y-71672188D01*
X151812179Y-71680667D01*
X151699248Y-71891283D01*
X151695208Y-71900529D01*
X151617404Y-72126487D01*
X151614893Y-72136268D01*
X151574031Y-72372834D01*
X151573176Y-72380706D01*
X151572064Y-72405185D01*
X151572000Y-72408018D01*
X151572000Y-73005385D01*
X149588500Y-73005385D01*
X149588500Y-72454882D01*
X149588298Y-72452369D01*
X149573960Y-72274159D01*
X149573959Y-72274154D01*
X149573554Y-72269118D01*
X149514115Y-72027127D01*
X149416751Y-71797752D01*
X149329998Y-71659990D01*
X149286663Y-71591175D01*
X149286662Y-71591174D01*
X149283967Y-71586894D01*
X149119178Y-71399978D01*
X148926625Y-71241813D01*
X148711262Y-71116469D01*
X148567795Y-71061397D01*
X148483357Y-71028984D01*
X148483354Y-71028983D01*
X148478628Y-71027169D01*
X148234710Y-70976212D01*
X148229661Y-70975983D01*
X148229655Y-70975982D01*
X148115996Y-70970821D01*
X147985782Y-70964908D01*
X147980762Y-70965489D01*
X147980758Y-70965489D01*
X147890074Y-70975982D01*
X147738250Y-70993549D01*
X147733376Y-70994928D01*
X147733372Y-70994929D01*
X147503349Y-71060019D01*
X147503347Y-71060020D01*
X147498480Y-71061397D01*
X147493905Y-71063531D01*
X147493898Y-71063533D01*
X147344143Y-71133366D01*
X147272643Y-71166707D01*
X147268463Y-71169548D01*
X147268459Y-71169550D01*
X147070736Y-71303922D01*
X147066547Y-71306769D01*
X147062872Y-71310244D01*
X147062871Y-71310245D01*
X146971375Y-71396768D01*
X146885496Y-71477980D01*
X146882418Y-71482006D01*
X146882417Y-71482007D01*
X146737221Y-71671916D01*
X146737218Y-71671920D01*
X146734148Y-71675936D01*
X146616396Y-71895543D01*
X146614750Y-71900324D01*
X146614748Y-71900328D01*
X146569341Y-72032200D01*
X146535269Y-72131151D01*
X146534407Y-72136143D01*
X146510568Y-72274159D01*
X146492856Y-72376699D01*
X146491500Y-72406559D01*
X146491500Y-74100118D01*
X144508000Y-74100118D01*
X144508000Y-73549615D01*
X144503525Y-73534376D01*
X144502135Y-73533171D01*
X144494452Y-73531500D01*
X143232115Y-73531500D01*
X143216876Y-73535975D01*
X143215671Y-73537365D01*
X143214000Y-73545048D01*
X143214000Y-75548358D01*
X142706000Y-75548358D01*
X142706000Y-73549615D01*
X142701525Y-73534376D01*
X142700135Y-73533171D01*
X142692452Y-73531500D01*
X141430115Y-73531500D01*
X141414876Y-73535975D01*
X141413671Y-73537365D01*
X141412000Y-73545048D01*
X141412000Y-74097572D01*
X139428500Y-74097572D01*
X139428500Y-73005385D01*
X141412000Y-73005385D01*
X141416475Y-73020624D01*
X141417865Y-73021829D01*
X141425548Y-73023500D01*
X142687885Y-73023500D01*
X142703124Y-73019025D01*
X142704329Y-73017635D01*
X142706000Y-73009952D01*
X142706000Y-73005385D01*
X143214000Y-73005385D01*
X143218475Y-73020624D01*
X143219865Y-73021829D01*
X143227548Y-73023500D01*
X144489885Y-73023500D01*
X144505124Y-73019025D01*
X144506329Y-73017635D01*
X144508000Y-73009952D01*
X144508000Y-72457428D01*
X144507798Y-72452396D01*
X144493464Y-72274241D01*
X144491852Y-72264288D01*
X144434846Y-72032200D01*
X144431663Y-72022630D01*
X144338282Y-71802640D01*
X144333608Y-71793701D01*
X144206261Y-71591476D01*
X144200220Y-71583401D01*
X144042173Y-71404132D01*
X144034921Y-71397129D01*
X143850250Y-71245438D01*
X143841967Y-71239682D01*
X143635421Y-71119469D01*
X143626316Y-71115107D01*
X143403215Y-71029466D01*
X143393526Y-71026615D01*
X143231736Y-70992815D01*
X143217675Y-70993938D01*
X143214000Y-71004046D01*
X143214000Y-73005385D01*
X142706000Y-73005385D01*
X142706000Y-71006642D01*
X142701864Y-70992556D01*
X142688886Y-70990507D01*
X142663369Y-70993460D01*
X142653479Y-70995419D01*
X142423524Y-71060489D01*
X142414073Y-71064003D01*
X142197472Y-71165006D01*
X142188708Y-71169985D01*
X141991049Y-71304314D01*
X141983185Y-71310638D01*
X141809549Y-71474836D01*
X141802790Y-71482343D01*
X141657643Y-71672188D01*
X141652179Y-71680667D01*
X141539248Y-71891283D01*
X141535208Y-71900529D01*
X141457404Y-72126487D01*
X141454893Y-72136268D01*
X141414031Y-72372834D01*
X141413176Y-72380706D01*
X141412064Y-72405185D01*
X141412000Y-72408018D01*
X141412000Y-73005385D01*
X139428500Y-73005385D01*
X139428500Y-72454882D01*
X139428298Y-72452369D01*
X139413960Y-72274159D01*
X139413959Y-72274154D01*
X139413554Y-72269118D01*
X139354115Y-72027127D01*
X139256751Y-71797752D01*
X139169998Y-71659990D01*
X139126663Y-71591175D01*
X139126662Y-71591174D01*
X139123967Y-71586894D01*
X138959178Y-71399978D01*
X138766625Y-71241813D01*
X138551262Y-71116469D01*
X138407795Y-71061397D01*
X138323357Y-71028984D01*
X138323354Y-71028983D01*
X138318628Y-71027169D01*
X138074710Y-70976212D01*
X138069661Y-70975983D01*
X138069655Y-70975982D01*
X137955996Y-70970821D01*
X137825782Y-70964908D01*
X137820762Y-70965489D01*
X137820758Y-70965489D01*
X137730074Y-70975982D01*
X137578250Y-70993549D01*
X137573376Y-70994928D01*
X137573372Y-70994929D01*
X137343349Y-71060019D01*
X137343347Y-71060020D01*
X137338480Y-71061397D01*
X137333905Y-71063531D01*
X137333898Y-71063533D01*
X137184143Y-71133366D01*
X137112643Y-71166707D01*
X137108463Y-71169548D01*
X137108459Y-71169550D01*
X136910736Y-71303922D01*
X136906547Y-71306769D01*
X136902872Y-71310244D01*
X136902871Y-71310245D01*
X136811375Y-71396768D01*
X136725496Y-71477980D01*
X136722418Y-71482006D01*
X136722417Y-71482007D01*
X136577221Y-71671916D01*
X136577218Y-71671920D01*
X136574148Y-71675936D01*
X136456396Y-71895543D01*
X136454750Y-71900324D01*
X136454748Y-71900328D01*
X136409341Y-72032200D01*
X136375269Y-72131151D01*
X136374407Y-72136143D01*
X136350568Y-72274159D01*
X136332856Y-72376699D01*
X136331500Y-72406559D01*
X136331500Y-74100118D01*
X134348000Y-74100118D01*
X134348000Y-73549615D01*
X134343525Y-73534376D01*
X134342135Y-73533171D01*
X134334452Y-73531500D01*
X133072115Y-73531500D01*
X133056876Y-73535975D01*
X133055671Y-73537365D01*
X133054000Y-73545048D01*
X133054000Y-75548358D01*
X132546000Y-75548358D01*
X132546000Y-73549615D01*
X132541525Y-73534376D01*
X132540135Y-73533171D01*
X132532452Y-73531500D01*
X131270115Y-73531500D01*
X131254876Y-73535975D01*
X131253671Y-73537365D01*
X131252000Y-73545048D01*
X131252000Y-74097572D01*
X129268500Y-74097572D01*
X129268500Y-73005385D01*
X131252000Y-73005385D01*
X131256475Y-73020624D01*
X131257865Y-73021829D01*
X131265548Y-73023500D01*
X132527885Y-73023500D01*
X132543124Y-73019025D01*
X132544329Y-73017635D01*
X132546000Y-73009952D01*
X132546000Y-73005385D01*
X133054000Y-73005385D01*
X133058475Y-73020624D01*
X133059865Y-73021829D01*
X133067548Y-73023500D01*
X134329885Y-73023500D01*
X134345124Y-73019025D01*
X134346329Y-73017635D01*
X134348000Y-73009952D01*
X134348000Y-72457428D01*
X134347798Y-72452396D01*
X134333464Y-72274241D01*
X134331852Y-72264288D01*
X134274846Y-72032200D01*
X134271663Y-72022630D01*
X134178282Y-71802640D01*
X134173608Y-71793701D01*
X134046261Y-71591476D01*
X134040220Y-71583401D01*
X133882173Y-71404132D01*
X133874921Y-71397129D01*
X133690250Y-71245438D01*
X133681967Y-71239682D01*
X133475421Y-71119469D01*
X133466316Y-71115107D01*
X133243215Y-71029466D01*
X133233526Y-71026615D01*
X133071736Y-70992815D01*
X133057675Y-70993938D01*
X133054000Y-71004046D01*
X133054000Y-73005385D01*
X132546000Y-73005385D01*
X132546000Y-71006642D01*
X132541864Y-70992556D01*
X132528886Y-70990507D01*
X132503369Y-70993460D01*
X132493479Y-70995419D01*
X132263524Y-71060489D01*
X132254073Y-71064003D01*
X132037472Y-71165006D01*
X132028708Y-71169985D01*
X131831049Y-71304314D01*
X131823185Y-71310638D01*
X131649549Y-71474836D01*
X131642790Y-71482343D01*
X131497643Y-71672188D01*
X131492179Y-71680667D01*
X131379248Y-71891283D01*
X131375208Y-71900529D01*
X131297404Y-72126487D01*
X131294893Y-72136268D01*
X131254031Y-72372834D01*
X131253176Y-72380706D01*
X131252064Y-72405185D01*
X131252000Y-72408018D01*
X131252000Y-73005385D01*
X129268500Y-73005385D01*
X129268500Y-72454882D01*
X129268298Y-72452369D01*
X129253960Y-72274159D01*
X129253959Y-72274154D01*
X129253554Y-72269118D01*
X129194115Y-72027127D01*
X129096751Y-71797752D01*
X129009998Y-71659990D01*
X128966663Y-71591175D01*
X128966662Y-71591174D01*
X128963967Y-71586894D01*
X128799178Y-71399978D01*
X128606625Y-71241813D01*
X128391262Y-71116469D01*
X128247795Y-71061397D01*
X128163357Y-71028984D01*
X128163354Y-71028983D01*
X128158628Y-71027169D01*
X127914710Y-70976212D01*
X127909661Y-70975983D01*
X127909655Y-70975982D01*
X127795996Y-70970821D01*
X127665782Y-70964908D01*
X127660762Y-70965489D01*
X127660758Y-70965489D01*
X127570074Y-70975982D01*
X127418250Y-70993549D01*
X127413376Y-70994928D01*
X127413372Y-70994929D01*
X127183349Y-71060019D01*
X127183347Y-71060020D01*
X127178480Y-71061397D01*
X127173905Y-71063531D01*
X127173898Y-71063533D01*
X127024143Y-71133366D01*
X126952643Y-71166707D01*
X126948463Y-71169548D01*
X126948459Y-71169550D01*
X126750736Y-71303922D01*
X126746547Y-71306769D01*
X126742872Y-71310244D01*
X126742871Y-71310245D01*
X126651375Y-71396768D01*
X126565496Y-71477980D01*
X126562418Y-71482006D01*
X126562417Y-71482007D01*
X126417221Y-71671916D01*
X126417218Y-71671920D01*
X126414148Y-71675936D01*
X126296396Y-71895543D01*
X126294750Y-71900324D01*
X126294748Y-71900328D01*
X126249341Y-72032200D01*
X126215269Y-72131151D01*
X126214407Y-72136143D01*
X126190568Y-72274159D01*
X126172856Y-72376699D01*
X126171500Y-72406559D01*
X126171500Y-74100118D01*
X124188500Y-74100118D01*
X124188500Y-72454882D01*
X124188298Y-72452369D01*
X124173960Y-72274159D01*
X124173959Y-72274154D01*
X124173554Y-72269118D01*
X124114115Y-72027127D01*
X124016751Y-71797752D01*
X123929998Y-71659990D01*
X123886663Y-71591175D01*
X123886662Y-71591174D01*
X123883967Y-71586894D01*
X123719178Y-71399978D01*
X123526625Y-71241813D01*
X123311262Y-71116469D01*
X123167795Y-71061397D01*
X123083357Y-71028984D01*
X123083354Y-71028983D01*
X123078628Y-71027169D01*
X122834710Y-70976212D01*
X122829661Y-70975983D01*
X122829655Y-70975982D01*
X122715996Y-70970821D01*
X122585782Y-70964908D01*
X122580762Y-70965489D01*
X122580758Y-70965489D01*
X122490074Y-70975982D01*
X122338250Y-70993549D01*
X122333376Y-70994928D01*
X122333372Y-70994929D01*
X122103349Y-71060019D01*
X122103347Y-71060020D01*
X122098480Y-71061397D01*
X122093905Y-71063531D01*
X122093898Y-71063533D01*
X121944143Y-71133366D01*
X121872643Y-71166707D01*
X121868463Y-71169548D01*
X121868459Y-71169550D01*
X121670736Y-71303922D01*
X121666547Y-71306769D01*
X121662872Y-71310244D01*
X121662871Y-71310245D01*
X121571375Y-71396768D01*
X121485496Y-71477980D01*
X121482418Y-71482006D01*
X121482417Y-71482007D01*
X121337221Y-71671916D01*
X121337218Y-71671920D01*
X121334148Y-71675936D01*
X121216396Y-71895543D01*
X121214750Y-71900324D01*
X121214748Y-71900328D01*
X121169341Y-72032200D01*
X121135269Y-72131151D01*
X121134407Y-72136143D01*
X121110568Y-72274159D01*
X121092856Y-72376699D01*
X121091500Y-72406559D01*
X121091500Y-74100118D01*
X119008500Y-74100118D01*
X119008500Y-66634500D01*
X119028502Y-66566379D01*
X119082158Y-66519886D01*
X119134500Y-66508500D01*
X171865500Y-66508500D01*
X171933621Y-66528502D01*
G37*
%TD.AperFunction*%
%TA.AperFunction,Conductor*%
G36*
X147522461Y-111728502D02*
G01*
X147543435Y-111745405D01*
X148544595Y-112746566D01*
X148578621Y-112808878D01*
X148581500Y-112835661D01*
X148581500Y-113480114D01*
X148561498Y-113548235D01*
X148531153Y-113580874D01*
X148473326Y-113624292D01*
X148384965Y-113690635D01*
X148230629Y-113852138D01*
X148123201Y-114009621D01*
X148068293Y-114054621D01*
X147997768Y-114062792D01*
X147934021Y-114031538D01*
X147913324Y-114007054D01*
X147832822Y-113882617D01*
X147832820Y-113882614D01*
X147830014Y-113878277D01*
X147679670Y-113713051D01*
X147675619Y-113709852D01*
X147675615Y-113709848D01*
X147508414Y-113577800D01*
X147508410Y-113577798D01*
X147504359Y-113574598D01*
X147468028Y-113554542D01*
X147438893Y-113538459D01*
X147308789Y-113466638D01*
X147303920Y-113464914D01*
X147303916Y-113464912D01*
X147103087Y-113393795D01*
X147103083Y-113393794D01*
X147098212Y-113392069D01*
X147093119Y-113391162D01*
X147093116Y-113391161D01*
X146883373Y-113353800D01*
X146883367Y-113353799D01*
X146878284Y-113352894D01*
X146804452Y-113351992D01*
X146660081Y-113350228D01*
X146660079Y-113350228D01*
X146654911Y-113350165D01*
X146434091Y-113383955D01*
X146221756Y-113453357D01*
X146023607Y-113556507D01*
X146019474Y-113559610D01*
X146019471Y-113559612D01*
X145922877Y-113632137D01*
X145844965Y-113690635D01*
X145690629Y-113852138D01*
X145583201Y-114009621D01*
X145528293Y-114054621D01*
X145457768Y-114062792D01*
X145394021Y-114031538D01*
X145373324Y-114007054D01*
X145292822Y-113882617D01*
X145292820Y-113882614D01*
X145290014Y-113878277D01*
X145139670Y-113713051D01*
X145135619Y-113709852D01*
X145135615Y-113709848D01*
X144968414Y-113577800D01*
X144968410Y-113577798D01*
X144964359Y-113574598D01*
X144928028Y-113554542D01*
X144898893Y-113538459D01*
X144768789Y-113466638D01*
X144763920Y-113464914D01*
X144763916Y-113464912D01*
X144563087Y-113393795D01*
X144563083Y-113393794D01*
X144558212Y-113392069D01*
X144553119Y-113391162D01*
X144553116Y-113391161D01*
X144343373Y-113353800D01*
X144343367Y-113353799D01*
X144338284Y-113352894D01*
X144264452Y-113351992D01*
X144120081Y-113350228D01*
X144120079Y-113350228D01*
X144114911Y-113350165D01*
X143894091Y-113383955D01*
X143681756Y-113453357D01*
X143483607Y-113556507D01*
X143479474Y-113559610D01*
X143479471Y-113559612D01*
X143382877Y-113632137D01*
X143304965Y-113690635D01*
X143150629Y-113852138D01*
X143043201Y-114009621D01*
X142988293Y-114054621D01*
X142917768Y-114062792D01*
X142854021Y-114031538D01*
X142833324Y-114007054D01*
X142752822Y-113882617D01*
X142752820Y-113882614D01*
X142750014Y-113878277D01*
X142599670Y-113713051D01*
X142595619Y-113709852D01*
X142595615Y-113709848D01*
X142428414Y-113577800D01*
X142428410Y-113577798D01*
X142424359Y-113574598D01*
X142388028Y-113554542D01*
X142358893Y-113538459D01*
X142228789Y-113466638D01*
X142223920Y-113464914D01*
X142223916Y-113464912D01*
X142023087Y-113393795D01*
X142023083Y-113393794D01*
X142018212Y-113392069D01*
X142013119Y-113391162D01*
X142013116Y-113391161D01*
X141803373Y-113353800D01*
X141803367Y-113353799D01*
X141798284Y-113352894D01*
X141724452Y-113351992D01*
X141580081Y-113350228D01*
X141580079Y-113350228D01*
X141574911Y-113350165D01*
X141354091Y-113383955D01*
X141141756Y-113453357D01*
X140943607Y-113556507D01*
X140939474Y-113559610D01*
X140939471Y-113559612D01*
X140842877Y-113632137D01*
X140764965Y-113690635D01*
X140610629Y-113852138D01*
X140607720Y-113856403D01*
X140607714Y-113856411D01*
X140602372Y-113864242D01*
X140503204Y-114009618D01*
X140502898Y-114010066D01*
X140447987Y-114055069D01*
X140377462Y-114063240D01*
X140313715Y-114031986D01*
X140293018Y-114007502D01*
X140212426Y-113882926D01*
X140206136Y-113874757D01*
X140062806Y-113717240D01*
X140055273Y-113710215D01*
X139888139Y-113578222D01*
X139879552Y-113572517D01*
X139693117Y-113469599D01*
X139683705Y-113465369D01*
X139482959Y-113394280D01*
X139472988Y-113391646D01*
X139401837Y-113378972D01*
X139388540Y-113380432D01*
X139384000Y-113394989D01*
X139384000Y-114838000D01*
X139363998Y-114906121D01*
X139310342Y-114952614D01*
X139258000Y-114964000D01*
X139002000Y-114964000D01*
X138933879Y-114943998D01*
X138887386Y-114890342D01*
X138876000Y-114838000D01*
X138876000Y-113393102D01*
X138872082Y-113379758D01*
X138857806Y-113377771D01*
X138819324Y-113383660D01*
X138809288Y-113386051D01*
X138606868Y-113452212D01*
X138597359Y-113456209D01*
X138408463Y-113554542D01*
X138399738Y-113560036D01*
X138229433Y-113687905D01*
X138221726Y-113694748D01*
X138074590Y-113848717D01*
X138068109Y-113856722D01*
X137963498Y-114010074D01*
X137908587Y-114055076D01*
X137838062Y-114063247D01*
X137774315Y-114031993D01*
X137753618Y-114007509D01*
X137672822Y-113882617D01*
X137672820Y-113882614D01*
X137670014Y-113878277D01*
X137519670Y-113713051D01*
X137515619Y-113709852D01*
X137515615Y-113709848D01*
X137348414Y-113577800D01*
X137348410Y-113577798D01*
X137344359Y-113574598D01*
X137308028Y-113554542D01*
X137278893Y-113538459D01*
X137148789Y-113466638D01*
X137143920Y-113464914D01*
X137143916Y-113464912D01*
X136943087Y-113393795D01*
X136943083Y-113393794D01*
X136938212Y-113392069D01*
X136933119Y-113391162D01*
X136933116Y-113391161D01*
X136723373Y-113353800D01*
X136723367Y-113353799D01*
X136718284Y-113352894D01*
X136644452Y-113351992D01*
X136500081Y-113350228D01*
X136500079Y-113350228D01*
X136494911Y-113350165D01*
X136274091Y-113383955D01*
X136061756Y-113453357D01*
X135863607Y-113556507D01*
X135859474Y-113559610D01*
X135859471Y-113559612D01*
X135762877Y-113632137D01*
X135684965Y-113690635D01*
X135530629Y-113852138D01*
X135527720Y-113856403D01*
X135527714Y-113856411D01*
X135522372Y-113864242D01*
X135404743Y-114036680D01*
X135310688Y-114239305D01*
X135250989Y-114454570D01*
X135227251Y-114676695D01*
X135227548Y-114681848D01*
X135227548Y-114681851D01*
X135237555Y-114855404D01*
X135240110Y-114899715D01*
X135241247Y-114904761D01*
X135241248Y-114904767D01*
X135258680Y-114982115D01*
X135289222Y-115117639D01*
X135373266Y-115324616D01*
X135423991Y-115407392D01*
X135487291Y-115510688D01*
X135489987Y-115515088D01*
X135636250Y-115683938D01*
X135808126Y-115826632D01*
X135859534Y-115856672D01*
X135881445Y-115869476D01*
X135930169Y-115921114D01*
X135943240Y-115990897D01*
X135916509Y-116056669D01*
X135876055Y-116090027D01*
X135863607Y-116096507D01*
X135859474Y-116099610D01*
X135859471Y-116099612D01*
X135707752Y-116213526D01*
X135684965Y-116230635D01*
X135530629Y-116392138D01*
X135527720Y-116396403D01*
X135527714Y-116396411D01*
X135476038Y-116472165D01*
X135404743Y-116576680D01*
X135389552Y-116609407D01*
X135317515Y-116764598D01*
X135310688Y-116779305D01*
X135250989Y-116994570D01*
X135227251Y-117216695D01*
X135227548Y-117221848D01*
X135227548Y-117221851D01*
X135232915Y-117314933D01*
X135240110Y-117439715D01*
X135241247Y-117444761D01*
X135241248Y-117444767D01*
X135259354Y-117525108D01*
X135289222Y-117657639D01*
X135327461Y-117751811D01*
X135364014Y-117841830D01*
X135373266Y-117864616D01*
X135411637Y-117927232D01*
X135487291Y-118050688D01*
X135489987Y-118055088D01*
X135493367Y-118058990D01*
X135514167Y-118083002D01*
X135543650Y-118147588D01*
X135533535Y-118217860D01*
X135487034Y-118271509D01*
X135418930Y-118291500D01*
X135155660Y-118291500D01*
X135087539Y-118271498D01*
X135066565Y-118254595D01*
X131616450Y-114804480D01*
X131610596Y-114798215D01*
X131581677Y-114765065D01*
X131572561Y-114754615D01*
X131520280Y-114717871D01*
X131514986Y-114713939D01*
X131509962Y-114710000D01*
X131464718Y-114674524D01*
X131457802Y-114671401D01*
X131455516Y-114670017D01*
X131440835Y-114661643D01*
X131438475Y-114660378D01*
X131432261Y-114656010D01*
X131425182Y-114653250D01*
X131425180Y-114653249D01*
X131372725Y-114632798D01*
X131366656Y-114630247D01*
X131308427Y-114603955D01*
X131300960Y-114602571D01*
X131298405Y-114601770D01*
X131282152Y-114597141D01*
X131279572Y-114596478D01*
X131272491Y-114593718D01*
X131264960Y-114592727D01*
X131264958Y-114592726D01*
X131235339Y-114588827D01*
X131209139Y-114585378D01*
X131202641Y-114584348D01*
X131139814Y-114572704D01*
X131132234Y-114573141D01*
X131132233Y-114573141D01*
X131077608Y-114576291D01*
X131070354Y-114576500D01*
X129003286Y-114576500D01*
X128935165Y-114556498D01*
X128897494Y-114518941D01*
X128860401Y-114461604D01*
X128855014Y-114453277D01*
X128704670Y-114288051D01*
X128700619Y-114284852D01*
X128700615Y-114284848D01*
X128533414Y-114152800D01*
X128533410Y-114152798D01*
X128529359Y-114149598D01*
X128488053Y-114126796D01*
X128438084Y-114076364D01*
X128423312Y-114006921D01*
X128448428Y-113940516D01*
X128475780Y-113913909D01*
X128531090Y-113874457D01*
X128654860Y-113786173D01*
X128668189Y-113772891D01*
X128809435Y-113632137D01*
X128813096Y-113628489D01*
X128847713Y-113580314D01*
X128901132Y-113505974D01*
X128957127Y-113462326D01*
X129003455Y-113453500D01*
X129426088Y-113453500D01*
X129434658Y-113453792D01*
X129484776Y-113457209D01*
X129484780Y-113457209D01*
X129492352Y-113457725D01*
X129499829Y-113456420D01*
X129499830Y-113456420D01*
X129526588Y-113451750D01*
X129555303Y-113446738D01*
X129561821Y-113445777D01*
X129625242Y-113438102D01*
X129632343Y-113435419D01*
X129634952Y-113434778D01*
X129651262Y-113430315D01*
X129653798Y-113429550D01*
X129661284Y-113428243D01*
X129719800Y-113402556D01*
X129725904Y-113400065D01*
X129742498Y-113393795D01*
X129768539Y-113383955D01*
X129778548Y-113380173D01*
X129778549Y-113380172D01*
X129785656Y-113377487D01*
X129791919Y-113373183D01*
X129794285Y-113371946D01*
X129809097Y-113363701D01*
X129811351Y-113362368D01*
X129818305Y-113359315D01*
X129869002Y-113320413D01*
X129874332Y-113316541D01*
X129920720Y-113284661D01*
X129920725Y-113284656D01*
X129926981Y-113280357D01*
X129968436Y-113233829D01*
X129973416Y-113228554D01*
X131456565Y-111745405D01*
X131518877Y-111711379D01*
X131545660Y-111708500D01*
X147454340Y-111708500D01*
X147522461Y-111728502D01*
G37*
%TD.AperFunction*%
%TA.AperFunction,Conductor*%
G36*
X164313527Y-86743502D02*
G01*
X164334501Y-86760405D01*
X164341001Y-86766905D01*
X164375027Y-86829217D01*
X164369962Y-86900032D01*
X164327415Y-86956868D01*
X164260895Y-86981679D01*
X164251906Y-86982000D01*
X163772115Y-86982000D01*
X163756876Y-86986475D01*
X163755671Y-86987865D01*
X163754000Y-86995548D01*
X163754000Y-88067885D01*
X163758475Y-88083124D01*
X163759865Y-88084329D01*
X163767548Y-88086000D01*
X164839884Y-88086000D01*
X164855123Y-88081525D01*
X164856328Y-88080135D01*
X164857999Y-88072452D01*
X164857999Y-87588093D01*
X164878001Y-87519972D01*
X164931657Y-87473479D01*
X165001931Y-87463375D01*
X165066511Y-87492869D01*
X165073094Y-87498998D01*
X165489595Y-87915499D01*
X165523621Y-87977811D01*
X165526500Y-88004594D01*
X165526500Y-91920338D01*
X165506498Y-91988459D01*
X165452842Y-92034952D01*
X165382568Y-92045056D01*
X165317988Y-92015562D01*
X165311405Y-92009434D01*
X164991435Y-91689465D01*
X164985581Y-91683198D01*
X164952556Y-91645340D01*
X164952553Y-91645337D01*
X164947561Y-91639615D01*
X164895280Y-91602871D01*
X164889986Y-91598939D01*
X164884425Y-91594579D01*
X164839718Y-91559524D01*
X164832798Y-91556400D01*
X164830510Y-91555014D01*
X164812858Y-91544944D01*
X164807646Y-91541280D01*
X164763421Y-91485740D01*
X164756244Y-91415107D01*
X164764077Y-91391590D01*
X164763235Y-91391257D01*
X164765142Y-91386441D01*
X164767430Y-91381811D01*
X164832370Y-91168069D01*
X164861529Y-90946590D01*
X164863156Y-90880000D01*
X164844852Y-90657361D01*
X164790431Y-90440702D01*
X164701354Y-90235840D01*
X164624304Y-90116739D01*
X164582822Y-90052617D01*
X164582820Y-90052614D01*
X164580014Y-90048277D01*
X164576540Y-90044459D01*
X164576533Y-90044450D01*
X164432435Y-89886088D01*
X164401383Y-89822242D01*
X164409779Y-89751744D01*
X164454956Y-89696976D01*
X164481400Y-89683307D01*
X164588052Y-89643325D01*
X164603649Y-89634786D01*
X164705724Y-89558285D01*
X164718285Y-89545724D01*
X164794786Y-89443649D01*
X164803324Y-89428054D01*
X164848478Y-89307606D01*
X164852105Y-89292351D01*
X164857631Y-89241486D01*
X164858000Y-89234672D01*
X164858000Y-88612115D01*
X164853525Y-88596876D01*
X164852135Y-88595671D01*
X164844452Y-88594000D01*
X162160116Y-88594000D01*
X162144877Y-88598475D01*
X162143672Y-88599865D01*
X162142001Y-88607548D01*
X162142001Y-89234669D01*
X162142371Y-89241490D01*
X162147895Y-89292352D01*
X162151521Y-89307604D01*
X162196676Y-89428054D01*
X162205214Y-89443649D01*
X162281715Y-89545724D01*
X162294276Y-89558285D01*
X162396351Y-89634786D01*
X162411946Y-89643324D01*
X162520827Y-89684142D01*
X162577591Y-89726784D01*
X162602291Y-89793345D01*
X162587083Y-89862694D01*
X162567691Y-89889175D01*
X162504024Y-89955799D01*
X162440629Y-90022138D01*
X162314743Y-90206680D01*
X162220688Y-90409305D01*
X162160989Y-90624570D01*
X162137251Y-90846695D01*
X162137548Y-90851848D01*
X162137548Y-90851851D01*
X162148849Y-91047837D01*
X162150110Y-91069715D01*
X162151247Y-91074761D01*
X162151248Y-91074767D01*
X162171119Y-91162939D01*
X162199222Y-91287639D01*
X162201166Y-91292427D01*
X162202714Y-91297367D01*
X162200391Y-91298095D01*
X162206523Y-91358636D01*
X162174352Y-91421926D01*
X162113072Y-91457776D01*
X162082665Y-91461500D01*
X160658927Y-91461500D01*
X160650358Y-91461208D01*
X160600225Y-91457790D01*
X160600221Y-91457790D01*
X160592648Y-91457274D01*
X160529681Y-91468264D01*
X160523169Y-91469224D01*
X160459758Y-91476898D01*
X160452657Y-91479581D01*
X160450048Y-91480222D01*
X160433715Y-91484691D01*
X160431195Y-91485452D01*
X160423717Y-91486757D01*
X160416765Y-91489809D01*
X160416764Y-91489809D01*
X160365204Y-91512441D01*
X160359099Y-91514932D01*
X160306456Y-91534825D01*
X160306452Y-91534827D01*
X160299344Y-91537513D01*
X160293083Y-91541816D01*
X160290717Y-91543053D01*
X160275937Y-91551280D01*
X160273652Y-91552631D01*
X160266695Y-91555685D01*
X160260675Y-91560305D01*
X160260669Y-91560308D01*
X160243219Y-91573699D01*
X160215998Y-91594587D01*
X160210668Y-91598459D01*
X160164280Y-91630339D01*
X160164275Y-91630344D01*
X160158019Y-91634643D01*
X160118604Y-91678882D01*
X160116565Y-91681170D01*
X160111584Y-91686446D01*
X158243435Y-93554595D01*
X158181123Y-93588621D01*
X158154340Y-93591500D01*
X152226712Y-93591500D01*
X152158591Y-93571498D01*
X152112098Y-93517842D01*
X152101994Y-93447568D01*
X152131488Y-93382988D01*
X152191214Y-93344604D01*
X152200515Y-93342254D01*
X152210322Y-93340169D01*
X152210327Y-93340167D01*
X152216788Y-93338794D01*
X152222819Y-93336109D01*
X152385222Y-93263803D01*
X152385224Y-93263802D01*
X152391252Y-93261118D01*
X152425435Y-93236283D01*
X152524171Y-93164546D01*
X152545753Y-93148866D01*
X152550168Y-93143963D01*
X152555080Y-93139540D01*
X152556205Y-93140789D01*
X152609514Y-93107949D01*
X152642700Y-93103500D01*
X154191233Y-93103500D01*
X154202416Y-93104027D01*
X154209909Y-93105702D01*
X154217835Y-93105453D01*
X154217836Y-93105453D01*
X154277986Y-93103562D01*
X154281945Y-93103500D01*
X154309856Y-93103500D01*
X154313791Y-93103003D01*
X154313856Y-93102995D01*
X154325693Y-93102062D01*
X154357951Y-93101048D01*
X154361970Y-93100922D01*
X154369889Y-93100673D01*
X154389343Y-93095021D01*
X154408700Y-93091013D01*
X154420930Y-93089468D01*
X154420931Y-93089468D01*
X154428797Y-93088474D01*
X154436168Y-93085555D01*
X154436170Y-93085555D01*
X154469912Y-93072196D01*
X154481142Y-93068351D01*
X154515983Y-93058229D01*
X154515984Y-93058229D01*
X154523593Y-93056018D01*
X154530412Y-93051985D01*
X154530417Y-93051983D01*
X154541028Y-93045707D01*
X154558776Y-93037012D01*
X154577617Y-93029552D01*
X154613387Y-93003564D01*
X154623307Y-92997048D01*
X154654535Y-92978580D01*
X154654538Y-92978578D01*
X154661362Y-92974542D01*
X154675683Y-92960221D01*
X154690717Y-92947380D01*
X154700694Y-92940131D01*
X154707107Y-92935472D01*
X154735298Y-92901395D01*
X154743288Y-92892616D01*
X159568019Y-88067885D01*
X162142000Y-88067885D01*
X162146475Y-88083124D01*
X162147865Y-88084329D01*
X162155548Y-88086000D01*
X163227885Y-88086000D01*
X163243124Y-88081525D01*
X163244329Y-88080135D01*
X163246000Y-88072452D01*
X163246000Y-87000116D01*
X163241525Y-86984877D01*
X163240135Y-86983672D01*
X163232452Y-86982001D01*
X162605331Y-86982001D01*
X162598510Y-86982371D01*
X162547648Y-86987895D01*
X162532396Y-86991521D01*
X162411946Y-87036676D01*
X162396351Y-87045214D01*
X162294276Y-87121715D01*
X162281715Y-87134276D01*
X162205214Y-87236351D01*
X162196676Y-87251946D01*
X162151522Y-87372394D01*
X162147895Y-87387649D01*
X162142369Y-87438514D01*
X162142000Y-87445328D01*
X162142000Y-88067885D01*
X159568019Y-88067885D01*
X160875499Y-86760405D01*
X160937811Y-86726379D01*
X160964594Y-86723500D01*
X164245406Y-86723500D01*
X164313527Y-86743502D01*
G37*
%TD.AperFunction*%
%TD*%
M02*
