M48
; DRILL file {KiCad 6.0.11+dfsg-1~bpo11+1} date Mon 15 May 2023 10:43:26 CEST
; FORMAT={-:-/ absolute / metric / decimal}
; #@! TF.CreationDate,2023-05-15T10:43:26+02:00
; #@! TF.GenerationSoftware,Kicad,Pcbnew,6.0.11+dfsg-1~bpo11+1
; #@! TF.FileFunction,Plated,1,2,PTH
FMAT,2
METRIC
; #@! TA.AperFunction,Plated,PTH,ViaDrill
T1C0.400
; #@! TA.AperFunction,Plated,PTH,ComponentDrill
T2C1.000
%
G90
G05
T1
X118.2Y-80.86
X118.5Y-108.48
X124.39Y-110.05
X127.35Y-94.95
X127.71Y-108.57
X129.7Y-113.43
X136.5Y-102.53
X136.67Y-85.55
X137.7Y-96.65
X139.12Y-94.95
X139.69Y-103.19
X140.04Y-107.72
X143.45Y-86.02
X144.62Y-77.46
X145.388Y-101.518
X146.05Y-86.04
X146.11Y-102.21
X147.03Y-102.94
X147.75Y-94.95
X147.79Y-97.81
X147.86Y-103.67
X148.1Y-77.47
X151.05Y-102.86
X152.22Y-100.57
X152.74Y-102.87
X154.94Y-115.66
X156.97Y-75.93
X156.97Y-79.75
X156.98Y-74.67
X157.06Y-81.17
X159.68Y-102.83
X160.605Y-95.19
X161.32Y-93.8
X162.51Y-80.17
X163.75Y-106.55
X166.28Y-80.18
T2
X119.76Y-84.08
X119.76Y-86.62
X119.76Y-89.16
X119.76Y-91.7
X119.76Y-94.24
X119.76Y-96.78
X119.76Y-99.32
X119.76Y-101.86
X122.3Y-84.08
X122.3Y-86.62
X122.3Y-89.16
X122.3Y-91.7
X122.3Y-94.24
X122.3Y-96.78
X122.3Y-99.32
X122.3Y-101.86
X134.1Y-113.76
X134.1Y-116.3
X134.11Y-69.748
X134.11Y-72.287
X136.64Y-113.76
X136.64Y-116.3
X136.65Y-69.748
X136.65Y-72.287
X138.885Y-84.115
X139.18Y-113.76
X139.18Y-116.3
X139.19Y-69.748
X139.19Y-72.287
X141.425Y-84.115
X141.72Y-113.76
X141.72Y-116.3
X141.73Y-69.748
X141.73Y-72.287
X143.965Y-84.115
X144.26Y-113.76
X144.26Y-116.3
X144.27Y-69.748
X144.27Y-72.287
X146.505Y-84.115
X146.8Y-113.76
X146.8Y-116.3
X146.81Y-69.748
X146.81Y-72.287
X149.045Y-84.115
X149.34Y-113.76
X149.34Y-116.3
X149.35Y-69.748
X149.35Y-72.287
X151.585Y-84.115
X151.88Y-113.76
X151.88Y-116.3
X151.89Y-69.748
X151.89Y-72.287
X157.985Y-91.545
X157.985Y-94.085
X157.985Y-96.625
X157.985Y-99.165
X157.985Y-101.705
X157.985Y-104.245
X159.46Y-68.5
X159.56Y-110.38
X159.56Y-112.92
X159.56Y-115.46
X159.56Y-118.0
X162.0Y-68.5
X162.1Y-110.38
X162.1Y-112.92
X162.1Y-115.46
X162.1Y-118.0
X163.75Y-84.1
X163.75Y-86.64
X163.75Y-89.18
X163.75Y-91.72
X163.75Y-94.26
X163.75Y-96.8
X163.75Y-99.34
X163.75Y-101.88
X166.29Y-84.1
X166.29Y-86.64
X166.29Y-89.18
X166.29Y-91.72
X166.29Y-94.26
X166.29Y-96.8
X166.29Y-99.34
X166.29Y-101.88
T0
M30
