M48
; DRILL file {KiCad 6.0.11+dfsg-1~bpo11+1} date Thu 06 Apr 2023 13:56:28 CEST
; FORMAT={-:-/ absolute / metric / decimal}
; #@! TF.CreationDate,2023-04-06T13:56:28+02:00
; #@! TF.GenerationSoftware,Kicad,Pcbnew,6.0.11+dfsg-1~bpo11+1
; #@! TF.FileFunction,Plated,1,2,PTH
FMAT,2
METRIC
; #@! TA.AperFunction,Plated,PTH,ViaDrill
T1C0.400
; #@! TA.AperFunction,Plated,PTH,ViaDrill
T2C0.800
; #@! TA.AperFunction,Plated,PTH,ComponentDrill
T3C1.000
; #@! TA.AperFunction,Plated,PTH,ComponentDrill
T4C1.400
%
G90
G05
T1
X130.3Y-83.7
X132.65Y-104.65
X133.0Y-113.3
X133.65Y-107.55
X135.3Y-98.9
X135.85Y-113.35
X137.4Y-82.9
X139.15Y-104.65
X139.6Y-107.5
X142.1Y-98.85
X145.6Y-104.65
X146.05Y-107.5
X148.15Y-98.95
X150.45Y-98.85
X152.05Y-104.65
X152.7Y-107.7
X155.95Y-99.1
X158.55Y-104.65
X159.05Y-107.6
X162.8Y-98.95
X164.85Y-104.65
X165.75Y-107.85
X169.25Y-98.9
X171.25Y-104.65
X172.4Y-107.9
X175.6Y-98.8
X177.75Y-104.7
X177.85Y-95.3
X178.25Y-107.9
T2
X134.4Y-82.0
X135.5Y-78.25
X137.1Y-85.6
X139.9Y-82.0
X145.1Y-82.0
X150.5Y-82.0
X156.1Y-82.0
X162.1Y-82.0
X168.1Y-81.9
X174.0Y-82.0
T3
X128.0Y-76.775
X128.0Y-79.315
X128.0Y-81.855
X144.11Y-115.12
X144.11Y-117.66
X146.65Y-115.12
X146.65Y-117.66
X149.19Y-115.12
X149.19Y-117.66
X151.73Y-115.12
X151.73Y-117.66
X154.27Y-115.12
X154.27Y-117.66
X156.81Y-115.12
X156.81Y-117.66
X159.35Y-115.12
X159.35Y-117.66
X161.89Y-115.12
X161.89Y-117.66
T4
X130.14Y-70.778
X135.22Y-70.778
X140.3Y-70.778
X145.38Y-70.778
X150.46Y-70.778
X155.54Y-70.778
X160.62Y-70.778
X165.7Y-70.778
X170.78Y-70.778
X175.86Y-70.778
T0
M30
