%TF.GenerationSoftware,KiCad,Pcbnew,6.0.7+dfsg-1~bpo11+1*%
%TF.CreationDate,2022-10-12T23:47:36+02:00*%
%TF.ProjectId,vertExpIO_00,76657274-4578-4704-994f-5f30302e6b69,rev?*%
%TF.SameCoordinates,Original*%
%TF.FileFunction,Paste,Top*%
%TF.FilePolarity,Positive*%
%FSLAX46Y46*%
G04 Gerber Fmt 4.6, Leading zero omitted, Abs format (unit mm)*
G04 Created by KiCad (PCBNEW 6.0.7+dfsg-1~bpo11+1) date 2022-10-12 23:47:36*
%MOMM*%
%LPD*%
G01*
G04 APERTURE LIST*
G04 Aperture macros list*
%AMRoundRect*
0 Rectangle with rounded corners*
0 $1 Rounding radius*
0 $2 $3 $4 $5 $6 $7 $8 $9 X,Y pos of 4 corners*
0 Add a 4 corners polygon primitive as box body*
4,1,4,$2,$3,$4,$5,$6,$7,$8,$9,$2,$3,0*
0 Add four circle primitives for the rounded corners*
1,1,$1+$1,$2,$3*
1,1,$1+$1,$4,$5*
1,1,$1+$1,$6,$7*
1,1,$1+$1,$8,$9*
0 Add four rect primitives between the rounded corners*
20,1,$1+$1,$2,$3,$4,$5,0*
20,1,$1+$1,$4,$5,$6,$7,0*
20,1,$1+$1,$6,$7,$8,$9,0*
20,1,$1+$1,$8,$9,$2,$3,0*%
G04 Aperture macros list end*
%ADD10RoundRect,0.250000X-0.350000X-0.450000X0.350000X-0.450000X0.350000X0.450000X-0.350000X0.450000X0*%
%ADD11RoundRect,0.150000X-0.150000X0.875000X-0.150000X-0.875000X0.150000X-0.875000X0.150000X0.875000X0*%
%ADD12RoundRect,0.250000X0.350000X0.450000X-0.350000X0.450000X-0.350000X-0.450000X0.350000X-0.450000X0*%
%ADD13R,2.440000X1.120000*%
%ADD14RoundRect,0.250001X-0.462499X-0.624999X0.462499X-0.624999X0.462499X0.624999X-0.462499X0.624999X0*%
%ADD15RoundRect,0.250000X-0.337500X-0.475000X0.337500X-0.475000X0.337500X0.475000X-0.337500X0.475000X0*%
G04 APERTURE END LIST*
D10*
%TO.C,R2*%
X150127500Y-100730000D03*
X152127500Y-100730000D03*
%TD*%
D11*
%TO.C,U1*%
X146962500Y-96080000D03*
X145692500Y-96080000D03*
X144422500Y-96080000D03*
X143152500Y-96080000D03*
X141882500Y-96080000D03*
X140612500Y-96080000D03*
X139342500Y-96080000D03*
X138072500Y-96080000D03*
X136802500Y-96080000D03*
X135532500Y-96080000D03*
X134262500Y-96080000D03*
X132992500Y-96080000D03*
X132992500Y-105380000D03*
X134262500Y-105380000D03*
X135532500Y-105380000D03*
X136802500Y-105380000D03*
X138072500Y-105380000D03*
X139342500Y-105380000D03*
X140612500Y-105380000D03*
X141882500Y-105380000D03*
X143152500Y-105380000D03*
X144422500Y-105380000D03*
X145692500Y-105380000D03*
X146962500Y-105380000D03*
%TD*%
D10*
%TO.C,R3*%
X150127500Y-96830000D03*
X152127500Y-96830000D03*
%TD*%
D12*
%TO.C,R4*%
X134477500Y-122230000D03*
X132477500Y-122230000D03*
%TD*%
D10*
%TO.C,R1*%
X150127500Y-104580000D03*
X152127500Y-104580000D03*
%TD*%
D13*
%TO.C,SW1*%
X155772500Y-96920000D03*
X155772500Y-99460000D03*
X155772500Y-102000000D03*
X155772500Y-104540000D03*
X164382500Y-104540000D03*
X164382500Y-102000000D03*
X164382500Y-99460000D03*
X164382500Y-96920000D03*
%TD*%
D14*
%TO.C,D1*%
X126990000Y-122230000D03*
X129965000Y-122230000D03*
%TD*%
D15*
%TO.C,C1*%
X150082500Y-108070000D03*
X152157500Y-108070000D03*
%TD*%
M02*
