%TF.GenerationSoftware,KiCad,Pcbnew,6.0.7+dfsg-1~bpo11+1*%
%TF.CreationDate,2022-10-12T23:47:36+02:00*%
%TF.ProjectId,vertExpIO_00,76657274-4578-4704-994f-5f30302e6b69,rev?*%
%TF.SameCoordinates,Original*%
%TF.FileFunction,Legend,Top*%
%TF.FilePolarity,Positive*%
%FSLAX46Y46*%
G04 Gerber Fmt 4.6, Leading zero omitted, Abs format (unit mm)*
G04 Created by KiCad (PCBNEW 6.0.7+dfsg-1~bpo11+1) date 2022-10-12 23:47:36*
%MOMM*%
%LPD*%
G01*
G04 APERTURE LIST*
%ADD10C,0.150000*%
%ADD11C,0.120000*%
G04 APERTURE END LIST*
D10*
X141691785Y-81682380D02*
X141358452Y-81206190D01*
X141120357Y-81682380D02*
X141120357Y-80682380D01*
X141501309Y-80682380D01*
X141596547Y-80730000D01*
X141644166Y-80777619D01*
X141691785Y-80872857D01*
X141691785Y-81015714D01*
X141644166Y-81110952D01*
X141596547Y-81158571D01*
X141501309Y-81206190D01*
X141120357Y-81206190D01*
X142120357Y-81682380D02*
X142120357Y-80682380D01*
X142929880Y-81158571D02*
X143072738Y-81206190D01*
X143120357Y-81253809D01*
X143167976Y-81349047D01*
X143167976Y-81491904D01*
X143120357Y-81587142D01*
X143072738Y-81634761D01*
X142977500Y-81682380D01*
X142596547Y-81682380D01*
X142596547Y-80682380D01*
X142929880Y-80682380D01*
X143025119Y-80730000D01*
X143072738Y-80777619D01*
X143120357Y-80872857D01*
X143120357Y-80968095D01*
X143072738Y-81063333D01*
X143025119Y-81110952D01*
X142929880Y-81158571D01*
X142596547Y-81158571D01*
X145072738Y-80634761D02*
X144215595Y-81920476D01*
X146739404Y-81587142D02*
X146691785Y-81634761D01*
X146548928Y-81682380D01*
X146453690Y-81682380D01*
X146310833Y-81634761D01*
X146215595Y-81539523D01*
X146167976Y-81444285D01*
X146120357Y-81253809D01*
X146120357Y-81110952D01*
X146167976Y-80920476D01*
X146215595Y-80825238D01*
X146310833Y-80730000D01*
X146453690Y-80682380D01*
X146548928Y-80682380D01*
X146691785Y-80730000D01*
X146739404Y-80777619D01*
X147358452Y-80682380D02*
X147548928Y-80682380D01*
X147644166Y-80730000D01*
X147739404Y-80825238D01*
X147787023Y-81015714D01*
X147787023Y-81349047D01*
X147739404Y-81539523D01*
X147644166Y-81634761D01*
X147548928Y-81682380D01*
X147358452Y-81682380D01*
X147263214Y-81634761D01*
X147167976Y-81539523D01*
X147120357Y-81349047D01*
X147120357Y-81015714D01*
X147167976Y-80825238D01*
X147263214Y-80730000D01*
X147358452Y-80682380D01*
X148167976Y-81634761D02*
X148310833Y-81682380D01*
X148548928Y-81682380D01*
X148644166Y-81634761D01*
X148691785Y-81587142D01*
X148739404Y-81491904D01*
X148739404Y-81396666D01*
X148691785Y-81301428D01*
X148644166Y-81253809D01*
X148548928Y-81206190D01*
X148358452Y-81158571D01*
X148263214Y-81110952D01*
X148215595Y-81063333D01*
X148167976Y-80968095D01*
X148167976Y-80872857D01*
X148215595Y-80777619D01*
X148263214Y-80730000D01*
X148358452Y-80682380D01*
X148596547Y-80682380D01*
X148739404Y-80730000D01*
X149025119Y-80682380D02*
X149596547Y-80682380D01*
X149310833Y-81682380D02*
X149310833Y-80682380D01*
X149929880Y-81158571D02*
X150263214Y-81158571D01*
X150406071Y-81682380D02*
X149929880Y-81682380D01*
X149929880Y-80682380D01*
X150406071Y-80682380D01*
X151310833Y-81682380D02*
X150834642Y-81682380D01*
X150834642Y-80682380D01*
X152120357Y-81682380D02*
X151644166Y-81682380D01*
X151644166Y-80682380D01*
X152406071Y-81396666D02*
X152882261Y-81396666D01*
X152310833Y-81682380D02*
X152644166Y-80682380D01*
X152977500Y-81682380D01*
X126346547Y-126182380D02*
X126346547Y-125182380D01*
X126965595Y-126182380D02*
X126870357Y-126134761D01*
X126822738Y-126087142D01*
X126775119Y-125991904D01*
X126775119Y-125706190D01*
X126822738Y-125610952D01*
X126870357Y-125563333D01*
X126965595Y-125515714D01*
X127108452Y-125515714D01*
X127203690Y-125563333D01*
X127251309Y-125610952D01*
X127298928Y-125706190D01*
X127298928Y-125991904D01*
X127251309Y-126087142D01*
X127203690Y-126134761D01*
X127108452Y-126182380D01*
X126965595Y-126182380D01*
X127584642Y-125182380D02*
X128156071Y-125182380D01*
X127870357Y-126182380D02*
X127870357Y-125182380D01*
X128346547Y-125182380D02*
X128679880Y-126182380D01*
X129013214Y-125182380D01*
X129346547Y-125801428D02*
X130108452Y-125801428D01*
X130441785Y-125182380D02*
X130775119Y-126182380D01*
X131108452Y-125182380D01*
X131441785Y-125658571D02*
X131775119Y-125658571D01*
X131917976Y-126182380D02*
X131441785Y-126182380D01*
X131441785Y-125182380D01*
X131917976Y-125182380D01*
X132251309Y-126182380D02*
X132775119Y-125515714D01*
X132251309Y-125515714D02*
X132775119Y-126182380D01*
X133156071Y-125515714D02*
X133156071Y-126515714D01*
X133156071Y-125563333D02*
X133251309Y-125515714D01*
X133441785Y-125515714D01*
X133537023Y-125563333D01*
X133584642Y-125610952D01*
X133632261Y-125706190D01*
X133632261Y-125991904D01*
X133584642Y-126087142D01*
X133537023Y-126134761D01*
X133441785Y-126182380D01*
X133251309Y-126182380D01*
X133156071Y-126134761D01*
X134060833Y-126182380D02*
X134060833Y-125182380D01*
X134727500Y-125182380D02*
X134917976Y-125182380D01*
X135013214Y-125230000D01*
X135108452Y-125325238D01*
X135156071Y-125515714D01*
X135156071Y-125849047D01*
X135108452Y-126039523D01*
X135013214Y-126134761D01*
X134917976Y-126182380D01*
X134727500Y-126182380D01*
X134632261Y-126134761D01*
X134537023Y-126039523D01*
X134489404Y-125849047D01*
X134489404Y-125515714D01*
X134537023Y-125325238D01*
X134632261Y-125230000D01*
X134727500Y-125182380D01*
X126929880Y-104027619D02*
X127929880Y-103694285D01*
X126929880Y-103360952D01*
X127406071Y-103027619D02*
X127406071Y-102694285D01*
X127929880Y-102551428D02*
X127929880Y-103027619D01*
X126929880Y-103027619D01*
X126929880Y-102551428D01*
X127929880Y-101551428D02*
X127453690Y-101884761D01*
X127929880Y-102122857D02*
X126929880Y-102122857D01*
X126929880Y-101741904D01*
X126977500Y-101646666D01*
X127025119Y-101599047D01*
X127120357Y-101551428D01*
X127263214Y-101551428D01*
X127358452Y-101599047D01*
X127406071Y-101646666D01*
X127453690Y-101741904D01*
X127453690Y-102122857D01*
X126929880Y-101265714D02*
X126929880Y-100694285D01*
X127929880Y-100980000D02*
X126929880Y-100980000D01*
X127406071Y-100360952D02*
X127406071Y-100027619D01*
X127929880Y-99884761D02*
X127929880Y-100360952D01*
X126929880Y-100360952D01*
X126929880Y-99884761D01*
X127406071Y-99122857D02*
X127453690Y-98980000D01*
X127501309Y-98932380D01*
X127596547Y-98884761D01*
X127739404Y-98884761D01*
X127834642Y-98932380D01*
X127882261Y-98980000D01*
X127929880Y-99075238D01*
X127929880Y-99456190D01*
X126929880Y-99456190D01*
X126929880Y-99122857D01*
X126977500Y-99027619D01*
X127025119Y-98980000D01*
X127120357Y-98932380D01*
X127215595Y-98932380D01*
X127310833Y-98980000D01*
X127358452Y-99027619D01*
X127406071Y-99122857D01*
X127406071Y-99456190D01*
X127929880Y-97884761D02*
X127453690Y-98218095D01*
X127929880Y-98456190D02*
X126929880Y-98456190D01*
X126929880Y-98075238D01*
X126977500Y-97980000D01*
X127025119Y-97932380D01*
X127120357Y-97884761D01*
X127263214Y-97884761D01*
X127358452Y-97932380D01*
X127406071Y-97980000D01*
X127453690Y-98075238D01*
X127453690Y-98456190D01*
X127644166Y-97503809D02*
X127644166Y-97027619D01*
X127929880Y-97599047D02*
X126929880Y-97265714D01*
X127929880Y-96932380D01*
X172179880Y-122206190D02*
X171179880Y-122206190D01*
X172179880Y-121587142D02*
X172132261Y-121682380D01*
X172084642Y-121730000D01*
X171989404Y-121777619D01*
X171703690Y-121777619D01*
X171608452Y-121730000D01*
X171560833Y-121682380D01*
X171513214Y-121587142D01*
X171513214Y-121444285D01*
X171560833Y-121349047D01*
X171608452Y-121301428D01*
X171703690Y-121253809D01*
X171989404Y-121253809D01*
X172084642Y-121301428D01*
X172132261Y-121349047D01*
X172179880Y-121444285D01*
X172179880Y-121587142D01*
X171179880Y-120968095D02*
X171179880Y-120396666D01*
X172179880Y-120682380D02*
X171179880Y-120682380D01*
X171798928Y-120063333D02*
X171798928Y-119301428D01*
X171179880Y-118968095D02*
X172179880Y-118634761D01*
X171179880Y-118301428D01*
X172132261Y-117587142D02*
X172179880Y-117682380D01*
X172179880Y-117872857D01*
X172132261Y-117968095D01*
X172037023Y-118015714D01*
X171656071Y-118015714D01*
X171560833Y-117968095D01*
X171513214Y-117872857D01*
X171513214Y-117682380D01*
X171560833Y-117587142D01*
X171656071Y-117539523D01*
X171751309Y-117539523D01*
X171846547Y-118015714D01*
X172179880Y-117110952D02*
X171513214Y-117110952D01*
X171703690Y-117110952D02*
X171608452Y-117063333D01*
X171560833Y-117015714D01*
X171513214Y-116920476D01*
X171513214Y-116825238D01*
X171513214Y-116634761D02*
X171513214Y-116253809D01*
X171179880Y-116491904D02*
X172037023Y-116491904D01*
X172132261Y-116444285D01*
X172179880Y-116349047D01*
X172179880Y-116253809D01*
X172132261Y-115539523D02*
X172179880Y-115634761D01*
X172179880Y-115825238D01*
X172132261Y-115920476D01*
X172037023Y-115968095D01*
X171656071Y-115968095D01*
X171560833Y-115920476D01*
X171513214Y-115825238D01*
X171513214Y-115634761D01*
X171560833Y-115539523D01*
X171656071Y-115491904D01*
X171751309Y-115491904D01*
X171846547Y-115968095D01*
X172179880Y-115063333D02*
X171179880Y-115063333D01*
X171560833Y-115063333D02*
X171513214Y-114968095D01*
X171513214Y-114777619D01*
X171560833Y-114682380D01*
X171608452Y-114634761D01*
X171703690Y-114587142D01*
X171989404Y-114587142D01*
X172084642Y-114634761D01*
X172132261Y-114682380D01*
X172179880Y-114777619D01*
X172179880Y-114968095D01*
X172132261Y-115063333D01*
X172179880Y-114158571D02*
X171513214Y-114158571D01*
X171703690Y-114158571D02*
X171608452Y-114110952D01*
X171560833Y-114063333D01*
X171513214Y-113968095D01*
X171513214Y-113872857D01*
X172179880Y-113110952D02*
X171656071Y-113110952D01*
X171560833Y-113158571D01*
X171513214Y-113253809D01*
X171513214Y-113444285D01*
X171560833Y-113539523D01*
X172132261Y-113110952D02*
X172179880Y-113206190D01*
X172179880Y-113444285D01*
X172132261Y-113539523D01*
X172037023Y-113587142D01*
X171941785Y-113587142D01*
X171846547Y-113539523D01*
X171798928Y-113444285D01*
X171798928Y-113206190D01*
X171751309Y-113110952D01*
X172132261Y-112253809D02*
X172179880Y-112349047D01*
X172179880Y-112539523D01*
X172132261Y-112634761D01*
X172037023Y-112682380D01*
X171656071Y-112682380D01*
X171560833Y-112634761D01*
X171513214Y-112539523D01*
X171513214Y-112349047D01*
X171560833Y-112253809D01*
X171656071Y-112206190D01*
X171751309Y-112206190D01*
X171846547Y-112682380D01*
X141941785Y-120682380D02*
X141608452Y-120206190D01*
X141370357Y-120682380D02*
X141370357Y-119682380D01*
X141751309Y-119682380D01*
X141846547Y-119730000D01*
X141894166Y-119777619D01*
X141941785Y-119872857D01*
X141941785Y-120015714D01*
X141894166Y-120110952D01*
X141846547Y-120158571D01*
X141751309Y-120206190D01*
X141370357Y-120206190D01*
X142370357Y-120682380D02*
X142370357Y-119682380D01*
X143179880Y-120158571D02*
X143322738Y-120206190D01*
X143370357Y-120253809D01*
X143417976Y-120349047D01*
X143417976Y-120491904D01*
X143370357Y-120587142D01*
X143322738Y-120634761D01*
X143227500Y-120682380D01*
X142846547Y-120682380D01*
X142846547Y-119682380D01*
X143179880Y-119682380D01*
X143275119Y-119730000D01*
X143322738Y-119777619D01*
X143370357Y-119872857D01*
X143370357Y-119968095D01*
X143322738Y-120063333D01*
X143275119Y-120110952D01*
X143179880Y-120158571D01*
X142846547Y-120158571D01*
X145322738Y-119634761D02*
X144465595Y-120920476D01*
X146989404Y-120587142D02*
X146941785Y-120634761D01*
X146798928Y-120682380D01*
X146703690Y-120682380D01*
X146560833Y-120634761D01*
X146465595Y-120539523D01*
X146417976Y-120444285D01*
X146370357Y-120253809D01*
X146370357Y-120110952D01*
X146417976Y-119920476D01*
X146465595Y-119825238D01*
X146560833Y-119730000D01*
X146703690Y-119682380D01*
X146798928Y-119682380D01*
X146941785Y-119730000D01*
X146989404Y-119777619D01*
X147608452Y-119682380D02*
X147798928Y-119682380D01*
X147894166Y-119730000D01*
X147989404Y-119825238D01*
X148037023Y-120015714D01*
X148037023Y-120349047D01*
X147989404Y-120539523D01*
X147894166Y-120634761D01*
X147798928Y-120682380D01*
X147608452Y-120682380D01*
X147513214Y-120634761D01*
X147417976Y-120539523D01*
X147370357Y-120349047D01*
X147370357Y-120015714D01*
X147417976Y-119825238D01*
X147513214Y-119730000D01*
X147608452Y-119682380D01*
X148417976Y-120634761D02*
X148560833Y-120682380D01*
X148798928Y-120682380D01*
X148894166Y-120634761D01*
X148941785Y-120587142D01*
X148989404Y-120491904D01*
X148989404Y-120396666D01*
X148941785Y-120301428D01*
X148894166Y-120253809D01*
X148798928Y-120206190D01*
X148608452Y-120158571D01*
X148513214Y-120110952D01*
X148465595Y-120063333D01*
X148417976Y-119968095D01*
X148417976Y-119872857D01*
X148465595Y-119777619D01*
X148513214Y-119730000D01*
X148608452Y-119682380D01*
X148846547Y-119682380D01*
X148989404Y-119730000D01*
X149275119Y-119682380D02*
X149846547Y-119682380D01*
X149560833Y-120682380D02*
X149560833Y-119682380D01*
X150179880Y-120158571D02*
X150513214Y-120158571D01*
X150656071Y-120682380D02*
X150179880Y-120682380D01*
X150179880Y-119682380D01*
X150656071Y-119682380D01*
X151560833Y-120682380D02*
X151084642Y-120682380D01*
X151084642Y-119682380D01*
X152370357Y-120682380D02*
X151894166Y-120682380D01*
X151894166Y-119682380D01*
X152656071Y-120396666D02*
X153132261Y-120396666D01*
X152560833Y-120682380D02*
X152894166Y-119682380D01*
X153227500Y-120682380D01*
X166429880Y-104027619D02*
X167429880Y-103694285D01*
X166429880Y-103360952D01*
X166906071Y-103027619D02*
X166906071Y-102694285D01*
X167429880Y-102551428D02*
X167429880Y-103027619D01*
X166429880Y-103027619D01*
X166429880Y-102551428D01*
X167429880Y-101551428D02*
X166953690Y-101884761D01*
X167429880Y-102122857D02*
X166429880Y-102122857D01*
X166429880Y-101741904D01*
X166477500Y-101646666D01*
X166525119Y-101599047D01*
X166620357Y-101551428D01*
X166763214Y-101551428D01*
X166858452Y-101599047D01*
X166906071Y-101646666D01*
X166953690Y-101741904D01*
X166953690Y-102122857D01*
X166429880Y-101265714D02*
X166429880Y-100694285D01*
X167429880Y-100980000D02*
X166429880Y-100980000D01*
X166906071Y-100360952D02*
X166906071Y-100027619D01*
X167429880Y-99884761D02*
X167429880Y-100360952D01*
X166429880Y-100360952D01*
X166429880Y-99884761D01*
X166906071Y-99122857D02*
X166953690Y-98980000D01*
X167001309Y-98932380D01*
X167096547Y-98884761D01*
X167239404Y-98884761D01*
X167334642Y-98932380D01*
X167382261Y-98980000D01*
X167429880Y-99075238D01*
X167429880Y-99456190D01*
X166429880Y-99456190D01*
X166429880Y-99122857D01*
X166477500Y-99027619D01*
X166525119Y-98980000D01*
X166620357Y-98932380D01*
X166715595Y-98932380D01*
X166810833Y-98980000D01*
X166858452Y-99027619D01*
X166906071Y-99122857D01*
X166906071Y-99456190D01*
X167429880Y-97884761D02*
X166953690Y-98218095D01*
X167429880Y-98456190D02*
X166429880Y-98456190D01*
X166429880Y-98075238D01*
X166477500Y-97980000D01*
X166525119Y-97932380D01*
X166620357Y-97884761D01*
X166763214Y-97884761D01*
X166858452Y-97932380D01*
X166906071Y-97980000D01*
X166953690Y-98075238D01*
X166953690Y-98456190D01*
X167144166Y-97503809D02*
X167144166Y-97027619D01*
X167429880Y-97599047D02*
X166429880Y-97265714D01*
X167429880Y-96932380D01*
%TO.C,J3*%
X170009166Y-88987380D02*
X170009166Y-89701666D01*
X169961547Y-89844523D01*
X169866309Y-89939761D01*
X169723452Y-89987380D01*
X169628214Y-89987380D01*
X170390119Y-88987380D02*
X171009166Y-88987380D01*
X170675833Y-89368333D01*
X170818690Y-89368333D01*
X170913928Y-89415952D01*
X170961547Y-89463571D01*
X171009166Y-89558809D01*
X171009166Y-89796904D01*
X170961547Y-89892142D01*
X170913928Y-89939761D01*
X170818690Y-89987380D01*
X170532976Y-89987380D01*
X170437738Y-89939761D01*
X170390119Y-89892142D01*
%TO.C,R2*%
X150960833Y-99532380D02*
X150627500Y-99056190D01*
X150389404Y-99532380D02*
X150389404Y-98532380D01*
X150770357Y-98532380D01*
X150865595Y-98580000D01*
X150913214Y-98627619D01*
X150960833Y-98722857D01*
X150960833Y-98865714D01*
X150913214Y-98960952D01*
X150865595Y-99008571D01*
X150770357Y-99056190D01*
X150389404Y-99056190D01*
X151341785Y-98627619D02*
X151389404Y-98580000D01*
X151484642Y-98532380D01*
X151722738Y-98532380D01*
X151817976Y-98580000D01*
X151865595Y-98627619D01*
X151913214Y-98722857D01*
X151913214Y-98818095D01*
X151865595Y-98960952D01*
X151294166Y-99532380D01*
X151913214Y-99532380D01*
%TO.C,U1*%
X146215595Y-93432380D02*
X146215595Y-94241904D01*
X146263214Y-94337142D01*
X146310833Y-94384761D01*
X146406071Y-94432380D01*
X146596547Y-94432380D01*
X146691785Y-94384761D01*
X146739404Y-94337142D01*
X146787023Y-94241904D01*
X146787023Y-93432380D01*
X147787023Y-94432380D02*
X147215595Y-94432380D01*
X147501309Y-94432380D02*
X147501309Y-93432380D01*
X147406071Y-93575238D01*
X147310833Y-93670476D01*
X147215595Y-93718095D01*
%TO.C,J4*%
X123354166Y-88942380D02*
X123354166Y-89656666D01*
X123306547Y-89799523D01*
X123211309Y-89894761D01*
X123068452Y-89942380D01*
X122973214Y-89942380D01*
X124258928Y-89275714D02*
X124258928Y-89942380D01*
X124020833Y-88894761D02*
X123782738Y-89609047D01*
X124401785Y-89609047D01*
%TO.C,R3*%
X150960833Y-95632380D02*
X150627500Y-95156190D01*
X150389404Y-95632380D02*
X150389404Y-94632380D01*
X150770357Y-94632380D01*
X150865595Y-94680000D01*
X150913214Y-94727619D01*
X150960833Y-94822857D01*
X150960833Y-94965714D01*
X150913214Y-95060952D01*
X150865595Y-95108571D01*
X150770357Y-95156190D01*
X150389404Y-95156190D01*
X151294166Y-94632380D02*
X151913214Y-94632380D01*
X151579880Y-95013333D01*
X151722738Y-95013333D01*
X151817976Y-95060952D01*
X151865595Y-95108571D01*
X151913214Y-95203809D01*
X151913214Y-95441904D01*
X151865595Y-95537142D01*
X151817976Y-95584761D01*
X151722738Y-95632380D01*
X151437023Y-95632380D01*
X151341785Y-95584761D01*
X151294166Y-95537142D01*
%TO.C,R4*%
X133340833Y-121042380D02*
X133007500Y-120566190D01*
X132769404Y-121042380D02*
X132769404Y-120042380D01*
X133150357Y-120042380D01*
X133245595Y-120090000D01*
X133293214Y-120137619D01*
X133340833Y-120232857D01*
X133340833Y-120375714D01*
X133293214Y-120470952D01*
X133245595Y-120518571D01*
X133150357Y-120566190D01*
X132769404Y-120566190D01*
X134197976Y-120375714D02*
X134197976Y-121042380D01*
X133959880Y-119994761D02*
X133721785Y-120709047D01*
X134340833Y-120709047D01*
%TO.C,R1*%
X150960833Y-103382380D02*
X150627500Y-102906190D01*
X150389404Y-103382380D02*
X150389404Y-102382380D01*
X150770357Y-102382380D01*
X150865595Y-102430000D01*
X150913214Y-102477619D01*
X150960833Y-102572857D01*
X150960833Y-102715714D01*
X150913214Y-102810952D01*
X150865595Y-102858571D01*
X150770357Y-102906190D01*
X150389404Y-102906190D01*
X151913214Y-103382380D02*
X151341785Y-103382380D01*
X151627500Y-103382380D02*
X151627500Y-102382380D01*
X151532261Y-102525238D01*
X151437023Y-102620476D01*
X151341785Y-102668095D01*
%TO.C,SW1*%
X158744166Y-94214761D02*
X158887023Y-94262380D01*
X159125119Y-94262380D01*
X159220357Y-94214761D01*
X159267976Y-94167142D01*
X159315595Y-94071904D01*
X159315595Y-93976666D01*
X159267976Y-93881428D01*
X159220357Y-93833809D01*
X159125119Y-93786190D01*
X158934642Y-93738571D01*
X158839404Y-93690952D01*
X158791785Y-93643333D01*
X158744166Y-93548095D01*
X158744166Y-93452857D01*
X158791785Y-93357619D01*
X158839404Y-93310000D01*
X158934642Y-93262380D01*
X159172738Y-93262380D01*
X159315595Y-93310000D01*
X159648928Y-93262380D02*
X159887023Y-94262380D01*
X160077500Y-93548095D01*
X160267976Y-94262380D01*
X160506071Y-93262380D01*
X161410833Y-94262380D02*
X160839404Y-94262380D01*
X161125119Y-94262380D02*
X161125119Y-93262380D01*
X161029880Y-93405238D01*
X160934642Y-93500476D01*
X160839404Y-93548095D01*
%TO.C,J1*%
X157634880Y-77333333D02*
X158349166Y-77333333D01*
X158492023Y-77380952D01*
X158587261Y-77476190D01*
X158634880Y-77619047D01*
X158634880Y-77714285D01*
X158634880Y-76333333D02*
X158634880Y-76904761D01*
X158634880Y-76619047D02*
X157634880Y-76619047D01*
X157777738Y-76714285D01*
X157872976Y-76809523D01*
X157920595Y-76904761D01*
%TO.C,J2*%
X158144166Y-126182380D02*
X158144166Y-126896666D01*
X158096547Y-127039523D01*
X158001309Y-127134761D01*
X157858452Y-127182380D01*
X157763214Y-127182380D01*
X158572738Y-126277619D02*
X158620357Y-126230000D01*
X158715595Y-126182380D01*
X158953690Y-126182380D01*
X159048928Y-126230000D01*
X159096547Y-126277619D01*
X159144166Y-126372857D01*
X159144166Y-126468095D01*
X159096547Y-126610952D01*
X158525119Y-127182380D01*
X159144166Y-127182380D01*
%TO.C,D1*%
X127739404Y-120862380D02*
X127739404Y-119862380D01*
X127977500Y-119862380D01*
X128120357Y-119910000D01*
X128215595Y-120005238D01*
X128263214Y-120100476D01*
X128310833Y-120290952D01*
X128310833Y-120433809D01*
X128263214Y-120624285D01*
X128215595Y-120719523D01*
X128120357Y-120814761D01*
X127977500Y-120862380D01*
X127739404Y-120862380D01*
X129263214Y-120862380D02*
X128691785Y-120862380D01*
X128977500Y-120862380D02*
X128977500Y-119862380D01*
X128882261Y-120005238D01*
X128787023Y-120100476D01*
X128691785Y-120148095D01*
%TO.C,C1*%
X150953333Y-106747142D02*
X150905714Y-106794761D01*
X150762857Y-106842380D01*
X150667619Y-106842380D01*
X150524761Y-106794761D01*
X150429523Y-106699523D01*
X150381904Y-106604285D01*
X150334285Y-106413809D01*
X150334285Y-106270952D01*
X150381904Y-106080476D01*
X150429523Y-105985238D01*
X150524761Y-105890000D01*
X150667619Y-105842380D01*
X150762857Y-105842380D01*
X150905714Y-105890000D01*
X150953333Y-105937619D01*
X151905714Y-106842380D02*
X151334285Y-106842380D01*
X151620000Y-106842380D02*
X151620000Y-105842380D01*
X151524761Y-105985238D01*
X151429523Y-106080476D01*
X151334285Y-106128095D01*
D11*
%TO.C,J3*%
X167742500Y-93135000D02*
X167742500Y-110975000D01*
X167742500Y-93135000D02*
X170342500Y-93135000D01*
X167742500Y-91865000D02*
X167742500Y-90535000D01*
X172942500Y-90535000D02*
X172942500Y-110975000D01*
X167742500Y-110975000D02*
X172942500Y-110975000D01*
X170342500Y-93135000D02*
X170342500Y-90535000D01*
X170342500Y-90535000D02*
X172942500Y-90535000D01*
X167742500Y-90535000D02*
X169072500Y-90535000D01*
%TO.C,R2*%
X150900436Y-101465000D02*
X151354564Y-101465000D01*
X150900436Y-99995000D02*
X151354564Y-99995000D01*
%TO.C,U1*%
X147787500Y-100730000D02*
X147787500Y-96870000D01*
X147787500Y-96870000D02*
X147522500Y-96870000D01*
X147787500Y-100730000D02*
X147787500Y-104590000D01*
X132167500Y-100730000D02*
X132167500Y-96870000D01*
X132167500Y-96870000D02*
X132432500Y-96870000D01*
X147787500Y-104590000D02*
X147522500Y-104590000D01*
X132167500Y-100730000D02*
X132167500Y-104590000D01*
X132167500Y-104590000D02*
X132432500Y-104590000D01*
X147522500Y-96870000D02*
X147522500Y-95055000D01*
%TO.C,J4*%
X121087500Y-110930000D02*
X126287500Y-110930000D01*
X121087500Y-91820000D02*
X121087500Y-90490000D01*
X121087500Y-90490000D02*
X122417500Y-90490000D01*
X126287500Y-90490000D02*
X126287500Y-110930000D01*
X123687500Y-93090000D02*
X123687500Y-90490000D01*
X123687500Y-90490000D02*
X126287500Y-90490000D01*
X121087500Y-93090000D02*
X121087500Y-110930000D01*
X121087500Y-93090000D02*
X123687500Y-93090000D01*
%TO.C,R3*%
X150900436Y-96095000D02*
X151354564Y-96095000D01*
X150900436Y-97565000D02*
X151354564Y-97565000D01*
%TO.C,R4*%
X133704564Y-121495000D02*
X133250436Y-121495000D01*
X133704564Y-122965000D02*
X133250436Y-122965000D01*
%TO.C,R1*%
X150900436Y-105315000D02*
X151354564Y-105315000D01*
X150900436Y-103845000D02*
X151354564Y-103845000D01*
%TO.C,SW1*%
X158267500Y-99665000D02*
X159474167Y-99665000D01*
X158267500Y-104505000D02*
X159474167Y-104505000D01*
X156427500Y-94570000D02*
X156427500Y-95953000D01*
X158267500Y-99065000D02*
X159474167Y-99065000D01*
X158267500Y-102635000D02*
X161887500Y-102635000D01*
X158267500Y-100095000D02*
X161887500Y-100095000D01*
X156667500Y-97720000D02*
X156667500Y-98660000D01*
X159474167Y-98825000D02*
X159474167Y-100095000D01*
X158267500Y-101485000D02*
X159474167Y-101485000D01*
X158267500Y-97125000D02*
X159474167Y-97125000D01*
X161887500Y-105175000D02*
X161887500Y-103905000D01*
X158267500Y-104025000D02*
X159474167Y-104025000D01*
X158267500Y-101365000D02*
X158267500Y-102635000D01*
X159474167Y-96285000D02*
X159474167Y-97555000D01*
X158267500Y-101845000D02*
X159474167Y-101845000D01*
X156667500Y-100260000D02*
X156667500Y-101200000D01*
X161887500Y-103905000D02*
X158267500Y-103905000D01*
X156667500Y-94810000D02*
X156667500Y-96120000D01*
X158267500Y-99185000D02*
X159474167Y-99185000D01*
X158267500Y-104265000D02*
X159474167Y-104265000D01*
X158267500Y-96885000D02*
X159474167Y-96885000D01*
X158267500Y-97485000D02*
X159474167Y-97485000D01*
X158267500Y-100025000D02*
X159474167Y-100025000D01*
X158267500Y-101965000D02*
X159474167Y-101965000D01*
X158267500Y-97245000D02*
X159474167Y-97245000D01*
X158267500Y-98825000D02*
X158267500Y-100095000D01*
X158267500Y-99545000D02*
X159474167Y-99545000D01*
X163487500Y-105340000D02*
X163487500Y-106650000D01*
X158267500Y-104745000D02*
X159474167Y-104745000D01*
X158267500Y-104865000D02*
X159474167Y-104865000D01*
X158267500Y-101605000D02*
X159474167Y-101605000D01*
X161887500Y-101365000D02*
X158267500Y-101365000D01*
X158267500Y-101725000D02*
X159474167Y-101725000D01*
X158267500Y-96285000D02*
X158267500Y-97555000D01*
X158267500Y-102445000D02*
X159474167Y-102445000D01*
X158267500Y-104985000D02*
X159474167Y-104985000D01*
X156667500Y-94810000D02*
X163487500Y-94810000D01*
X156667500Y-106650000D02*
X163487500Y-106650000D01*
X158267500Y-99425000D02*
X159474167Y-99425000D01*
X158267500Y-97555000D02*
X161887500Y-97555000D01*
X158267500Y-97365000D02*
X159474167Y-97365000D01*
X158267500Y-96525000D02*
X159474167Y-96525000D01*
X158267500Y-97005000D02*
X159474167Y-97005000D01*
X159474167Y-101365000D02*
X159474167Y-102635000D01*
X156667500Y-102800000D02*
X156667500Y-103740000D01*
X161887500Y-98825000D02*
X158267500Y-98825000D01*
X158267500Y-102205000D02*
X159474167Y-102205000D01*
X158267500Y-99905000D02*
X159474167Y-99905000D01*
X161887500Y-97555000D02*
X161887500Y-96285000D01*
X158267500Y-98945000D02*
X159474167Y-98945000D01*
X158267500Y-99305000D02*
X159474167Y-99305000D01*
X158267500Y-96765000D02*
X159474167Y-96765000D01*
X161887500Y-96285000D02*
X158267500Y-96285000D01*
X158267500Y-96645000D02*
X159474167Y-96645000D01*
X158267500Y-104625000D02*
X159474167Y-104625000D01*
X158267500Y-102325000D02*
X159474167Y-102325000D01*
X156667500Y-105340000D02*
X156667500Y-106650000D01*
X156427500Y-94570000D02*
X157810500Y-94570000D01*
X158267500Y-105175000D02*
X161887500Y-105175000D01*
X158267500Y-96405000D02*
X159474167Y-96405000D01*
X158267500Y-103905000D02*
X158267500Y-105175000D01*
X158267500Y-99785000D02*
X159474167Y-99785000D01*
X159474167Y-103905000D02*
X159474167Y-105175000D01*
X158267500Y-102565000D02*
X159474167Y-102565000D01*
X163487500Y-100260000D02*
X163487500Y-101200000D01*
X163487500Y-94810000D02*
X163487500Y-96120000D01*
X158267500Y-104385000D02*
X159474167Y-104385000D01*
X158267500Y-104145000D02*
X159474167Y-104145000D01*
X158267500Y-102085000D02*
X159474167Y-102085000D01*
X163487500Y-97720000D02*
X163487500Y-98660000D01*
X158267500Y-105105000D02*
X159474167Y-105105000D01*
X161887500Y-100095000D02*
X161887500Y-98825000D01*
X161887500Y-102635000D02*
X161887500Y-101365000D01*
X163487500Y-102800000D02*
X163487500Y-103740000D01*
%TO.C,J1*%
X154582500Y-74400000D02*
X136742500Y-74400000D01*
X155852500Y-74400000D02*
X157182500Y-74400000D01*
X157182500Y-79600000D02*
X136742500Y-79600000D01*
X136742500Y-74400000D02*
X136742500Y-79600000D01*
X154582500Y-77000000D02*
X157182500Y-77000000D01*
X157182500Y-77000000D02*
X157182500Y-79600000D01*
X157182500Y-74400000D02*
X157182500Y-75730000D01*
X154582500Y-74400000D02*
X154582500Y-77000000D01*
%TO.C,J2*%
X136742500Y-121525000D02*
X157182500Y-121525000D01*
X139342500Y-126725000D02*
X157182500Y-126725000D01*
X136742500Y-124125000D02*
X136742500Y-121525000D01*
X138072500Y-126725000D02*
X136742500Y-126725000D01*
X136742500Y-126725000D02*
X136742500Y-125395000D01*
X139342500Y-124125000D02*
X136742500Y-124125000D01*
X139342500Y-126725000D02*
X139342500Y-124125000D01*
X157182500Y-126725000D02*
X157182500Y-121525000D01*
%TO.C,D1*%
X126017500Y-121095000D02*
X126017500Y-123365000D01*
X130077500Y-121095000D02*
X126017500Y-121095000D01*
X126017500Y-123365000D02*
X130077500Y-123365000D01*
%TO.C,C1*%
X150858748Y-107335000D02*
X151381252Y-107335000D01*
X150858748Y-108805000D02*
X151381252Y-108805000D01*
%TD*%
M02*
