%TF.GenerationSoftware,KiCad,Pcbnew,6.0.7+dfsg-1~bpo11+1*%
%TF.CreationDate,2022-10-12T23:47:36+02:00*%
%TF.ProjectId,vertExpIO_00,76657274-4578-4704-994f-5f30302e6b69,rev?*%
%TF.SameCoordinates,Original*%
%TF.FileFunction,Soldermask,Bot*%
%TF.FilePolarity,Negative*%
%FSLAX46Y46*%
G04 Gerber Fmt 4.6, Leading zero omitted, Abs format (unit mm)*
G04 Created by KiCad (PCBNEW 6.0.7+dfsg-1~bpo11+1) date 2022-10-12 23:47:36*
%MOMM*%
%LPD*%
G01*
G04 APERTURE LIST*
%ADD10R,1.700000X1.700000*%
%ADD11O,1.700000X1.700000*%
G04 APERTURE END LIST*
D10*
%TO.C,J3*%
X169072500Y-91865000D03*
D11*
X171612500Y-91865000D03*
X169072500Y-94405000D03*
X171612500Y-94405000D03*
X169072500Y-96945000D03*
X171612500Y-96945000D03*
X169072500Y-99485000D03*
X171612500Y-99485000D03*
X169072500Y-102025000D03*
X171612500Y-102025000D03*
X169072500Y-104565000D03*
X171612500Y-104565000D03*
X169072500Y-107105000D03*
X171612500Y-107105000D03*
X169072500Y-109645000D03*
X171612500Y-109645000D03*
%TD*%
D10*
%TO.C,J4*%
X122417500Y-91820000D03*
D11*
X124957500Y-91820000D03*
X122417500Y-94360000D03*
X124957500Y-94360000D03*
X122417500Y-96900000D03*
X124957500Y-96900000D03*
X122417500Y-99440000D03*
X124957500Y-99440000D03*
X122417500Y-101980000D03*
X124957500Y-101980000D03*
X122417500Y-104520000D03*
X124957500Y-104520000D03*
X122417500Y-107060000D03*
X124957500Y-107060000D03*
X122417500Y-109600000D03*
X124957500Y-109600000D03*
%TD*%
D10*
%TO.C,J1*%
X155852500Y-75730000D03*
D11*
X155852500Y-78270000D03*
X153312500Y-75730000D03*
X153312500Y-78270000D03*
X150772500Y-75730000D03*
X150772500Y-78270000D03*
X148232500Y-75730000D03*
X148232500Y-78270000D03*
X145692500Y-75730000D03*
X145692500Y-78270000D03*
X143152500Y-75730000D03*
X143152500Y-78270000D03*
X140612500Y-75730000D03*
X140612500Y-78270000D03*
X138072500Y-75730000D03*
X138072500Y-78270000D03*
%TD*%
D10*
%TO.C,J2*%
X138072500Y-125395000D03*
D11*
X138072500Y-122855000D03*
X140612500Y-125395000D03*
X140612500Y-122855000D03*
X143152500Y-125395000D03*
X143152500Y-122855000D03*
X145692500Y-125395000D03*
X145692500Y-122855000D03*
X148232500Y-125395000D03*
X148232500Y-122855000D03*
X150772500Y-125395000D03*
X150772500Y-122855000D03*
X153312500Y-125395000D03*
X153312500Y-122855000D03*
X155852500Y-125395000D03*
X155852500Y-122855000D03*
%TD*%
M02*
