%TF.GenerationSoftware,KiCad,Pcbnew,6.0.7+dfsg-1~bpo11+1*%
%TF.CreationDate,2022-10-12T23:47:36+02:00*%
%TF.ProjectId,vertExpIO_00,76657274-4578-4704-994f-5f30302e6b69,rev?*%
%TF.SameCoordinates,Original*%
%TF.FileFunction,Copper,L2,Bot*%
%TF.FilePolarity,Positive*%
%FSLAX46Y46*%
G04 Gerber Fmt 4.6, Leading zero omitted, Abs format (unit mm)*
G04 Created by KiCad (PCBNEW 6.0.7+dfsg-1~bpo11+1) date 2022-10-12 23:47:36*
%MOMM*%
%LPD*%
G01*
G04 APERTURE LIST*
%TA.AperFunction,ComponentPad*%
%ADD10R,1.700000X1.700000*%
%TD*%
%TA.AperFunction,ComponentPad*%
%ADD11O,1.700000X1.700000*%
%TD*%
%TA.AperFunction,ViaPad*%
%ADD12C,0.800000*%
%TD*%
%TA.AperFunction,Conductor*%
%ADD13C,1.500000*%
%TD*%
%TA.AperFunction,Conductor*%
%ADD14C,0.250000*%
%TD*%
G04 APERTURE END LIST*
D10*
%TO.P,J3,1,Pin_1*%
%TO.N,+3.3V*%
X169072500Y-91865000D03*
D11*
%TO.P,J3,2,Pin_2*%
%TO.N,GND*%
X171612500Y-91865000D03*
%TO.P,J3,3,Pin_3*%
%TO.N,/TXD*%
X169072500Y-94405000D03*
%TO.P,J3,4,Pin_4*%
%TO.N,/RXD*%
X171612500Y-94405000D03*
%TO.P,J3,5,Pin_5*%
%TO.N,/SCL*%
X169072500Y-96945000D03*
%TO.P,J3,6,Pin_6*%
%TO.N,/SDA*%
X171612500Y-96945000D03*
%TO.P,J3,7,Pin_7*%
%TO.N,/MISO*%
X169072500Y-99485000D03*
%TO.P,J3,8,Pin_8*%
%TO.N,/MOSI*%
X171612500Y-99485000D03*
%TO.P,J3,9,Pin_9*%
%TO.N,/SCK*%
X169072500Y-102025000D03*
%TO.P,J3,10,Pin_10*%
%TO.N,/SSEL1*%
X171612500Y-102025000D03*
%TO.P,J3,11,Pin_11*%
%TO.N,/SSEL2*%
X169072500Y-104565000D03*
%TO.P,J3,12,Pin_12*%
%TO.N,/SSEL3*%
X171612500Y-104565000D03*
%TO.P,J3,13,Pin_13*%
%TO.N,/SSEL4*%
X169072500Y-107105000D03*
%TO.P,J3,14,Pin_14*%
%TO.N,GND*%
X171612500Y-107105000D03*
%TO.P,J3,15,Pin_15*%
%TO.N,+24V*%
X169072500Y-109645000D03*
%TO.P,J3,16,Pin_16*%
X171612500Y-109645000D03*
%TD*%
D10*
%TO.P,J4,1,Pin_1*%
%TO.N,+3.3V*%
X122417500Y-91820000D03*
D11*
%TO.P,J4,2,Pin_2*%
%TO.N,GND*%
X124957500Y-91820000D03*
%TO.P,J4,3,Pin_3*%
%TO.N,/TXD*%
X122417500Y-94360000D03*
%TO.P,J4,4,Pin_4*%
%TO.N,/RXD*%
X124957500Y-94360000D03*
%TO.P,J4,5,Pin_5*%
%TO.N,/SCL*%
X122417500Y-96900000D03*
%TO.P,J4,6,Pin_6*%
%TO.N,/SDA*%
X124957500Y-96900000D03*
%TO.P,J4,7,Pin_7*%
%TO.N,/MISO*%
X122417500Y-99440000D03*
%TO.P,J4,8,Pin_8*%
%TO.N,/MOSI*%
X124957500Y-99440000D03*
%TO.P,J4,9,Pin_9*%
%TO.N,/SCK*%
X122417500Y-101980000D03*
%TO.P,J4,10,Pin_10*%
%TO.N,/SSEL1*%
X124957500Y-101980000D03*
%TO.P,J4,11,Pin_11*%
%TO.N,/SSEL2*%
X122417500Y-104520000D03*
%TO.P,J4,12,Pin_12*%
%TO.N,/SSEL3*%
X124957500Y-104520000D03*
%TO.P,J4,13,Pin_13*%
%TO.N,/SSEL4*%
X122417500Y-107060000D03*
%TO.P,J4,14,Pin_14*%
%TO.N,GND*%
X124957500Y-107060000D03*
%TO.P,J4,15,Pin_15*%
%TO.N,+24V*%
X122417500Y-109600000D03*
%TO.P,J4,16,Pin_16*%
X124957500Y-109600000D03*
%TD*%
D10*
%TO.P,J1,1,Pin_1*%
%TO.N,GND*%
X155852500Y-75730000D03*
D11*
%TO.P,J1,2,Pin_2*%
%TO.N,/IO0_0*%
X155852500Y-78270000D03*
%TO.P,J1,3,Pin_3*%
%TO.N,/IO0_1*%
X153312500Y-75730000D03*
%TO.P,J1,4,Pin_4*%
%TO.N,/IO0_2*%
X153312500Y-78270000D03*
%TO.P,J1,5,Pin_5*%
%TO.N,/IO0_3*%
X150772500Y-75730000D03*
%TO.P,J1,6,Pin_6*%
%TO.N,/IO0_4*%
X150772500Y-78270000D03*
%TO.P,J1,7,Pin_7*%
%TO.N,/IO0_5*%
X148232500Y-75730000D03*
%TO.P,J1,8,Pin_8*%
%TO.N,/IO0_6*%
X148232500Y-78270000D03*
%TO.P,J1,9,Pin_9*%
%TO.N,/IO0_7*%
X145692500Y-75730000D03*
%TO.P,J1,10,Pin_10*%
%TO.N,GND*%
X145692500Y-78270000D03*
%TO.P,J1,11,Pin_11*%
%TO.N,+3.3V*%
X143152500Y-75730000D03*
%TO.P,J1,12,Pin_12*%
X143152500Y-78270000D03*
%TO.P,J1,13,Pin_13*%
%TO.N,GND*%
X140612500Y-75730000D03*
%TO.P,J1,14,Pin_14*%
X140612500Y-78270000D03*
%TO.P,J1,15,Pin_15*%
%TO.N,+24V*%
X138072500Y-75730000D03*
%TO.P,J1,16,Pin_16*%
X138072500Y-78270000D03*
%TD*%
D10*
%TO.P,J2,1,Pin_1*%
%TO.N,GND*%
X138072500Y-125395000D03*
D11*
%TO.P,J2,2,Pin_2*%
%TO.N,/IO1_0*%
X138072500Y-122855000D03*
%TO.P,J2,3,Pin_3*%
%TO.N,/IO1_1*%
X140612500Y-125395000D03*
%TO.P,J2,4,Pin_4*%
%TO.N,/IO1_2*%
X140612500Y-122855000D03*
%TO.P,J2,5,Pin_5*%
%TO.N,/IO1_3*%
X143152500Y-125395000D03*
%TO.P,J2,6,Pin_6*%
%TO.N,/IO1_4*%
X143152500Y-122855000D03*
%TO.P,J2,7,Pin_7*%
%TO.N,/IO1_5*%
X145692500Y-125395000D03*
%TO.P,J2,8,Pin_8*%
%TO.N,/IO1_6*%
X145692500Y-122855000D03*
%TO.P,J2,9,Pin_9*%
%TO.N,/IO1_7*%
X148232500Y-125395000D03*
%TO.P,J2,10,Pin_10*%
%TO.N,GND*%
X148232500Y-122855000D03*
%TO.P,J2,11,Pin_11*%
%TO.N,+3.3V*%
X150772500Y-125395000D03*
%TO.P,J2,12,Pin_12*%
X150772500Y-122855000D03*
%TO.P,J2,13,Pin_13*%
%TO.N,GND*%
X153312500Y-125395000D03*
%TO.P,J2,14,Pin_14*%
X153312500Y-122855000D03*
%TO.P,J2,15,Pin_15*%
%TO.N,+24V*%
X155852500Y-125395000D03*
%TO.P,J2,16,Pin_16*%
X155852500Y-122855000D03*
%TD*%
D12*
%TO.N,GND*%
X165387500Y-92100000D03*
%TO.N,/SCL*%
X130402500Y-96935000D03*
%TO.N,/SDA*%
X131517500Y-95600000D03*
%TO.N,Net-(R1-Pad2)*%
X143167500Y-102960000D03*
X152127500Y-102830000D03*
%TD*%
D13*
%TO.N,+3.3V*%
X122857500Y-89270000D02*
X141617500Y-89270000D01*
X143152500Y-78270000D02*
X143152500Y-87735000D01*
X122417500Y-89710000D02*
X122857500Y-89270000D01*
X143152500Y-87735000D02*
X141617500Y-89270000D01*
X168357500Y-89270000D02*
X169047500Y-89960000D01*
X143152500Y-78270000D02*
X143152500Y-87745000D01*
X169047500Y-89960000D02*
X169047500Y-91840000D01*
X143152500Y-76080000D02*
X143152500Y-78620000D01*
X122417500Y-91820000D02*
X122417500Y-89710000D01*
X141617500Y-89270000D02*
X144677500Y-89270000D01*
X143152500Y-87745000D02*
X144677500Y-89270000D01*
X144677500Y-89270000D02*
X168357500Y-89270000D01*
X169047500Y-91840000D02*
X169072500Y-91865000D01*
D14*
%TO.N,GND*%
X171667500Y-91855000D02*
X171582500Y-91855000D01*
D13*
%TO.N,+24V*%
X124867500Y-109635000D02*
X169127500Y-109635000D01*
X155882500Y-125380000D02*
X164087500Y-125380000D01*
X171667500Y-109635000D02*
X169127500Y-109635000D01*
X171667500Y-109635000D02*
X171667500Y-117800000D01*
X122327500Y-109635000D02*
X124867500Y-109635000D01*
X155882500Y-125380000D02*
X155882500Y-122840000D01*
X164087500Y-125380000D02*
X171667500Y-117800000D01*
D14*
%TO.N,/TXD*%
X126652500Y-94395000D02*
X164782500Y-94395000D01*
X122417500Y-94360000D02*
X123727500Y-95670000D01*
X164782500Y-94395000D02*
X164792500Y-94405000D01*
X164792500Y-94405000D02*
X166162500Y-94405000D01*
X123727500Y-95670000D02*
X125377500Y-95670000D01*
X166162500Y-94405000D02*
X169072500Y-94405000D01*
X125377500Y-95670000D02*
X126652500Y-94395000D01*
%TO.N,/RXD*%
X170347500Y-93140000D02*
X171612500Y-94405000D01*
X126177500Y-93140000D02*
X170347500Y-93140000D01*
X124957500Y-94360000D02*
X126177500Y-93140000D01*
%TO.N,/SCL*%
X130367500Y-96900000D02*
X130402500Y-96935000D01*
X127332500Y-98075000D02*
X128507500Y-96900000D01*
X130402500Y-96935000D02*
X164022500Y-96935000D01*
X122417500Y-96900000D02*
X123592500Y-98075000D01*
X123592500Y-98075000D02*
X127332500Y-98075000D01*
X164032500Y-96945000D02*
X164022500Y-96935000D01*
X169072500Y-96945000D02*
X164032500Y-96945000D01*
X128507500Y-96900000D02*
X130367500Y-96900000D01*
%TO.N,/SDA*%
X131577500Y-95660000D02*
X131517500Y-95600000D01*
X170327500Y-95660000D02*
X131577500Y-95660000D01*
X126507500Y-96910000D02*
X126497500Y-96900000D01*
X127817500Y-95600000D02*
X126507500Y-96910000D01*
X126497500Y-96900000D02*
X124957500Y-96900000D01*
X171612500Y-96945000D02*
X170327500Y-95660000D01*
X131517500Y-95600000D02*
X127817500Y-95600000D01*
%TO.N,/MISO*%
X128038222Y-100629278D02*
X129182500Y-99485000D01*
X122417500Y-99440000D02*
X123606778Y-100629278D01*
X123606778Y-100629278D02*
X128038222Y-100629278D01*
X129182500Y-99485000D02*
X169072500Y-99485000D01*
%TO.N,/MOSI*%
X170287500Y-98160000D02*
X128827500Y-98160000D01*
X127547500Y-99440000D02*
X124957500Y-99440000D01*
X128827500Y-98160000D02*
X127547500Y-99440000D01*
X171612500Y-99485000D02*
X170287500Y-98160000D01*
%TO.N,/SCK*%
X169072500Y-102025000D02*
X161922500Y-102025000D01*
X123662500Y-103225000D02*
X127292500Y-103225000D01*
X122417500Y-101980000D02*
X123662500Y-103225000D01*
X161912500Y-102015000D02*
X128502500Y-102015000D01*
X161922500Y-102025000D02*
X161912500Y-102015000D01*
X128502500Y-102015000D02*
X127292500Y-103225000D01*
%TO.N,/SSEL1*%
X128857500Y-100740000D02*
X170327500Y-100740000D01*
X127617500Y-101980000D02*
X128857500Y-100740000D01*
X124957500Y-101980000D02*
X127617500Y-101980000D01*
X170327500Y-100740000D02*
X171612500Y-102025000D01*
%TO.N,/SSEL2*%
X123707500Y-105810000D02*
X128057500Y-105810000D01*
X161592500Y-104565000D02*
X161582500Y-104555000D01*
X129312500Y-104555000D02*
X161582500Y-104555000D01*
X122417500Y-104520000D02*
X123707500Y-105810000D01*
X169072500Y-104565000D02*
X161592500Y-104565000D01*
X128057500Y-105810000D02*
X129312500Y-104555000D01*
%TO.N,/SSEL3*%
X124957500Y-104520000D02*
X127577500Y-104520000D01*
X151347500Y-103960000D02*
X152887500Y-103960000D01*
X127577500Y-104520000D02*
X128817500Y-103280000D01*
X150667500Y-103280000D02*
X151347500Y-103960000D01*
X153567500Y-103280000D02*
X170327500Y-103280000D01*
X145047500Y-103920000D02*
X145687500Y-103280000D01*
X141237500Y-103280000D02*
X141877500Y-103920000D01*
X141877500Y-103920000D02*
X145047500Y-103920000D01*
X152887500Y-103960000D02*
X153567500Y-103280000D01*
X128817500Y-103280000D02*
X141237500Y-103280000D01*
X145687500Y-103280000D02*
X150667500Y-103280000D01*
X170327500Y-103280000D02*
X171612500Y-104565000D01*
%TO.N,/SSEL4*%
X160902500Y-107105000D02*
X169072500Y-107105000D01*
X123717500Y-108360000D02*
X126307500Y-108360000D01*
X160892500Y-107095000D02*
X160902500Y-107105000D01*
X126307500Y-108360000D02*
X127572500Y-107095000D01*
X127572500Y-107095000D02*
X160892500Y-107095000D01*
X122417500Y-107060000D02*
X123717500Y-108360000D01*
%TO.N,Net-(R1-Pad2)*%
X144497500Y-102960000D02*
X144847500Y-102610000D01*
X151257500Y-102830000D02*
X151037500Y-102610000D01*
X151037500Y-102610000D02*
X144847500Y-102610000D01*
X143167500Y-102960000D02*
X144497500Y-102960000D01*
X152127500Y-102830000D02*
X151257500Y-102830000D01*
%TD*%
%TA.AperFunction,Conductor*%
%TO.N,GND*%
G36*
X137548615Y-74258502D02*
G01*
X137595108Y-74312158D01*
X137605212Y-74382432D01*
X137575718Y-74447012D01*
X137538675Y-74476262D01*
X137346107Y-74576507D01*
X137341974Y-74579610D01*
X137341971Y-74579612D01*
X137258950Y-74641946D01*
X137167465Y-74710635D01*
X137142041Y-74737240D01*
X137047831Y-74835825D01*
X137013129Y-74872138D01*
X137010220Y-74876403D01*
X137010214Y-74876411D01*
X136925056Y-75001249D01*
X136887243Y-75056680D01*
X136870985Y-75091706D01*
X136799635Y-75245417D01*
X136793188Y-75259305D01*
X136733489Y-75474570D01*
X136709751Y-75696695D01*
X136722610Y-75919715D01*
X136723747Y-75924761D01*
X136723748Y-75924767D01*
X136741180Y-76002115D01*
X136771722Y-76137639D01*
X136855766Y-76344616D01*
X136907442Y-76428944D01*
X136969791Y-76530688D01*
X136972487Y-76535088D01*
X137118750Y-76703938D01*
X137290626Y-76846632D01*
X137361095Y-76887811D01*
X137363945Y-76889476D01*
X137412669Y-76941114D01*
X137425740Y-77010897D01*
X137399009Y-77076669D01*
X137358555Y-77110027D01*
X137346107Y-77116507D01*
X137341974Y-77119610D01*
X137341971Y-77119612D01*
X137172511Y-77246846D01*
X137167465Y-77250635D01*
X137013129Y-77412138D01*
X137010220Y-77416403D01*
X137010214Y-77416411D01*
X136925056Y-77541249D01*
X136887243Y-77596680D01*
X136793188Y-77799305D01*
X136733489Y-78014570D01*
X136709751Y-78236695D01*
X136710048Y-78241848D01*
X136710048Y-78241851D01*
X136715511Y-78336590D01*
X136722610Y-78459715D01*
X136723747Y-78464761D01*
X136723748Y-78464767D01*
X136732128Y-78501951D01*
X136771722Y-78677639D01*
X136855766Y-78884616D01*
X136906519Y-78967438D01*
X136969791Y-79070688D01*
X136972487Y-79075088D01*
X137118750Y-79243938D01*
X137290626Y-79386632D01*
X137483500Y-79499338D01*
X137692192Y-79579030D01*
X137697260Y-79580061D01*
X137697263Y-79580062D01*
X137792362Y-79599410D01*
X137911097Y-79623567D01*
X137916272Y-79623757D01*
X137916274Y-79623757D01*
X138129173Y-79631564D01*
X138129177Y-79631564D01*
X138134337Y-79631753D01*
X138139457Y-79631097D01*
X138139459Y-79631097D01*
X138350788Y-79604025D01*
X138350789Y-79604025D01*
X138355916Y-79603368D01*
X138360866Y-79601883D01*
X138564929Y-79540661D01*
X138564934Y-79540659D01*
X138569884Y-79539174D01*
X138770494Y-79440896D01*
X138952360Y-79311173D01*
X139110596Y-79153489D01*
X139170094Y-79070689D01*
X139240953Y-78972077D01*
X139242140Y-78972930D01*
X139289460Y-78929362D01*
X139359397Y-78917145D01*
X139424838Y-78944678D01*
X139452666Y-78976511D01*
X139510194Y-79070388D01*
X139516277Y-79078699D01*
X139655713Y-79239667D01*
X139663080Y-79246883D01*
X139826934Y-79382916D01*
X139835381Y-79388831D01*
X140019256Y-79496279D01*
X140028542Y-79500729D01*
X140227501Y-79576703D01*
X140237399Y-79579579D01*
X140340750Y-79600606D01*
X140354799Y-79599410D01*
X140358500Y-79589065D01*
X140358500Y-75602000D01*
X140378502Y-75533879D01*
X140432158Y-75487386D01*
X140484500Y-75476000D01*
X140740500Y-75476000D01*
X140808621Y-75496002D01*
X140855114Y-75549658D01*
X140866500Y-75602000D01*
X140866500Y-79588517D01*
X140870564Y-79602359D01*
X140883978Y-79604393D01*
X140890684Y-79603534D01*
X140900762Y-79601392D01*
X141104755Y-79540191D01*
X141114342Y-79536433D01*
X141305595Y-79442739D01*
X141314445Y-79437464D01*
X141487828Y-79313792D01*
X141495700Y-79307139D01*
X141646552Y-79156812D01*
X141653223Y-79148973D01*
X141665677Y-79131641D01*
X141721672Y-79087993D01*
X141792375Y-79081547D01*
X141855339Y-79114350D01*
X141890574Y-79175986D01*
X141894000Y-79205167D01*
X141894000Y-87161522D01*
X141873998Y-87229643D01*
X141857095Y-87250617D01*
X141133117Y-87974595D01*
X141070805Y-88008621D01*
X141044022Y-88011500D01*
X122948896Y-88011500D01*
X122932449Y-88010422D01*
X122927770Y-88009806D01*
X122910414Y-88007521D01*
X122904814Y-88007785D01*
X122904813Y-88007785D01*
X122829004Y-88011360D01*
X122823069Y-88011500D01*
X122800501Y-88011500D01*
X122797718Y-88011748D01*
X122797704Y-88011749D01*
X122774523Y-88013818D01*
X122769260Y-88014177D01*
X122739842Y-88015564D01*
X122686012Y-88018103D01*
X122668523Y-88022108D01*
X122651604Y-88024788D01*
X122647118Y-88025189D01*
X122633738Y-88026383D01*
X122628330Y-88027862D01*
X122628327Y-88027863D01*
X122553370Y-88048369D01*
X122548252Y-88049655D01*
X122472500Y-88067005D01*
X122472498Y-88067006D01*
X122467030Y-88068258D01*
X122456530Y-88072737D01*
X122450533Y-88075294D01*
X122434358Y-88080927D01*
X122422461Y-88084182D01*
X122422457Y-88084183D01*
X122417049Y-88085663D01*
X122411983Y-88088079D01*
X122411984Y-88088079D01*
X122341833Y-88121539D01*
X122337024Y-88123710D01*
X122265551Y-88154196D01*
X122260391Y-88156397D01*
X122245390Y-88166251D01*
X122230475Y-88174654D01*
X122214282Y-88182378D01*
X122209731Y-88185648D01*
X122209728Y-88185650D01*
X122202119Y-88191118D01*
X122148523Y-88229631D01*
X122146619Y-88230999D01*
X122142268Y-88233989D01*
X122076490Y-88277196D01*
X122076482Y-88277202D01*
X122072626Y-88279735D01*
X122051838Y-88298257D01*
X122041561Y-88306490D01*
X122031846Y-88313471D01*
X121958588Y-88389067D01*
X121957472Y-88390219D01*
X121956083Y-88391630D01*
X121592230Y-88755482D01*
X121579846Y-88766343D01*
X121562208Y-88779877D01*
X121558437Y-88784022D01*
X121558433Y-88784025D01*
X121507351Y-88840164D01*
X121503253Y-88844459D01*
X121487302Y-88860410D01*
X121485507Y-88862557D01*
X121485505Y-88862559D01*
X121470568Y-88880423D01*
X121467100Y-88884398D01*
X121414788Y-88941888D01*
X121414781Y-88941897D01*
X121411015Y-88946036D01*
X121408038Y-88950782D01*
X121408037Y-88950783D01*
X121401487Y-88961225D01*
X121391411Y-88975093D01*
X121383504Y-88984549D01*
X121383497Y-88984559D01*
X121379906Y-88988854D01*
X121338618Y-89061240D01*
X121335913Y-89065759D01*
X121291636Y-89136344D01*
X121289543Y-89141549D01*
X121289542Y-89141552D01*
X121284948Y-89152979D01*
X121277488Y-89168411D01*
X121271380Y-89179119D01*
X121271376Y-89179128D01*
X121268601Y-89183993D01*
X121266732Y-89189270D01*
X121266730Y-89189275D01*
X121240785Y-89262542D01*
X121238920Y-89267478D01*
X121219100Y-89316782D01*
X121207844Y-89344783D01*
X121206708Y-89350270D01*
X121206707Y-89350272D01*
X121204206Y-89362349D01*
X121199601Y-89378844D01*
X121193611Y-89395759D01*
X121185657Y-89444333D01*
X121180143Y-89478001D01*
X121179183Y-89483180D01*
X121162287Y-89564767D01*
X121162021Y-89569379D01*
X121162021Y-89569380D01*
X121160685Y-89592548D01*
X121159238Y-89605653D01*
X121158214Y-89611910D01*
X121157306Y-89617457D01*
X121157394Y-89623070D01*
X121157394Y-89623072D01*
X121158984Y-89724264D01*
X121159000Y-89726243D01*
X121159000Y-90625126D01*
X121138998Y-90693247D01*
X121133839Y-90700673D01*
X121116885Y-90723295D01*
X121065755Y-90859684D01*
X121059000Y-90921866D01*
X121059000Y-92718134D01*
X121065755Y-92780316D01*
X121116885Y-92916705D01*
X121204239Y-93033261D01*
X121320795Y-93120615D01*
X121329204Y-93123767D01*
X121329205Y-93123768D01*
X121437951Y-93164535D01*
X121494716Y-93207176D01*
X121519416Y-93273738D01*
X121504209Y-93343087D01*
X121484816Y-93369568D01*
X121358129Y-93502138D01*
X121232243Y-93686680D01*
X121138188Y-93889305D01*
X121078489Y-94104570D01*
X121054751Y-94326695D01*
X121055048Y-94331848D01*
X121055048Y-94331851D01*
X121059266Y-94405000D01*
X121067610Y-94549715D01*
X121068747Y-94554761D01*
X121068748Y-94554767D01*
X121092804Y-94661508D01*
X121116722Y-94767639D01*
X121200766Y-94974616D01*
X121233786Y-95028500D01*
X121278924Y-95102158D01*
X121317487Y-95165088D01*
X121463750Y-95333938D01*
X121635626Y-95476632D01*
X121706095Y-95517811D01*
X121708945Y-95519476D01*
X121757669Y-95571114D01*
X121770740Y-95640897D01*
X121744009Y-95706669D01*
X121703555Y-95740027D01*
X121691107Y-95746507D01*
X121686974Y-95749610D01*
X121686971Y-95749612D01*
X121516600Y-95877530D01*
X121512465Y-95880635D01*
X121358129Y-96042138D01*
X121232243Y-96226680D01*
X121138188Y-96429305D01*
X121078489Y-96644570D01*
X121054751Y-96866695D01*
X121055048Y-96871848D01*
X121055048Y-96871851D01*
X121059266Y-96945000D01*
X121067610Y-97089715D01*
X121068747Y-97094761D01*
X121068748Y-97094767D01*
X121092804Y-97201508D01*
X121116722Y-97307639D01*
X121200766Y-97514616D01*
X121317487Y-97705088D01*
X121463750Y-97873938D01*
X121635626Y-98016632D01*
X121706095Y-98057811D01*
X121708945Y-98059476D01*
X121757669Y-98111114D01*
X121770740Y-98180897D01*
X121744009Y-98246669D01*
X121703555Y-98280027D01*
X121691107Y-98286507D01*
X121686974Y-98289610D01*
X121686971Y-98289612D01*
X121516600Y-98417530D01*
X121512465Y-98420635D01*
X121358129Y-98582138D01*
X121232243Y-98766680D01*
X121138188Y-98969305D01*
X121078489Y-99184570D01*
X121054751Y-99406695D01*
X121055048Y-99411848D01*
X121055048Y-99411851D01*
X121059266Y-99485000D01*
X121067610Y-99629715D01*
X121068747Y-99634761D01*
X121068748Y-99634767D01*
X121092804Y-99741508D01*
X121116722Y-99847639D01*
X121200766Y-100054616D01*
X121317487Y-100245088D01*
X121463750Y-100413938D01*
X121635626Y-100556632D01*
X121706095Y-100597811D01*
X121708945Y-100599476D01*
X121757669Y-100651114D01*
X121770740Y-100720897D01*
X121744009Y-100786669D01*
X121703555Y-100820027D01*
X121691107Y-100826507D01*
X121686974Y-100829610D01*
X121686971Y-100829612D01*
X121516600Y-100957530D01*
X121512465Y-100960635D01*
X121358129Y-101122138D01*
X121232243Y-101306680D01*
X121138188Y-101509305D01*
X121078489Y-101724570D01*
X121054751Y-101946695D01*
X121055048Y-101951848D01*
X121055048Y-101951851D01*
X121059266Y-102025000D01*
X121067610Y-102169715D01*
X121068747Y-102174761D01*
X121068748Y-102174767D01*
X121092804Y-102281508D01*
X121116722Y-102387639D01*
X121200766Y-102594616D01*
X121233786Y-102648500D01*
X121311586Y-102775458D01*
X121317487Y-102785088D01*
X121463750Y-102953938D01*
X121635626Y-103096632D01*
X121706095Y-103137811D01*
X121708945Y-103139476D01*
X121757669Y-103191114D01*
X121770740Y-103260897D01*
X121744009Y-103326669D01*
X121703555Y-103360027D01*
X121691107Y-103366507D01*
X121686974Y-103369610D01*
X121686971Y-103369612D01*
X121516600Y-103497530D01*
X121512465Y-103500635D01*
X121358129Y-103662138D01*
X121232243Y-103846680D01*
X121199704Y-103916780D01*
X121154646Y-104013850D01*
X121138188Y-104049305D01*
X121078489Y-104264570D01*
X121054751Y-104486695D01*
X121055048Y-104491848D01*
X121055048Y-104491851D01*
X121059266Y-104565000D01*
X121067610Y-104709715D01*
X121068747Y-104714761D01*
X121068748Y-104714767D01*
X121092804Y-104821508D01*
X121116722Y-104927639D01*
X121200766Y-105134616D01*
X121317487Y-105325088D01*
X121463750Y-105493938D01*
X121635626Y-105636632D01*
X121706095Y-105677811D01*
X121708945Y-105679476D01*
X121757669Y-105731114D01*
X121770740Y-105800897D01*
X121744009Y-105866669D01*
X121703555Y-105900027D01*
X121691107Y-105906507D01*
X121686974Y-105909610D01*
X121686971Y-105909612D01*
X121516600Y-106037530D01*
X121512465Y-106040635D01*
X121358129Y-106202138D01*
X121232243Y-106386680D01*
X121196584Y-106463502D01*
X121175473Y-106508982D01*
X121138188Y-106589305D01*
X121078489Y-106804570D01*
X121054751Y-107026695D01*
X121067610Y-107249715D01*
X121068747Y-107254761D01*
X121068748Y-107254767D01*
X121087731Y-107338998D01*
X121116722Y-107467639D01*
X121200766Y-107674616D01*
X121317487Y-107865088D01*
X121463750Y-108033938D01*
X121635626Y-108176632D01*
X121696935Y-108212458D01*
X121708945Y-108219476D01*
X121757669Y-108271114D01*
X121770740Y-108340897D01*
X121744009Y-108406669D01*
X121703555Y-108440027D01*
X121691107Y-108446507D01*
X121686974Y-108449610D01*
X121686971Y-108449612D01*
X121516600Y-108577530D01*
X121512465Y-108580635D01*
X121358129Y-108742138D01*
X121232243Y-108926680D01*
X121138188Y-109129305D01*
X121078489Y-109344570D01*
X121054751Y-109566695D01*
X121055048Y-109571848D01*
X121055048Y-109571851D01*
X121059266Y-109645000D01*
X121067610Y-109789715D01*
X121068747Y-109794761D01*
X121068748Y-109794767D01*
X121091033Y-109893650D01*
X121090831Y-109893696D01*
X121091114Y-109894316D01*
X121091525Y-109897715D01*
X121093111Y-109902871D01*
X121093443Y-109904346D01*
X121093450Y-109904377D01*
X121093449Y-109904391D01*
X121093615Y-109905148D01*
X121093973Y-109906834D01*
X121094175Y-109907591D01*
X121116722Y-110007639D01*
X121119262Y-110013894D01*
X121150221Y-110090138D01*
X121153907Y-110100491D01*
X121155930Y-110107068D01*
X121155934Y-110107077D01*
X121157582Y-110112435D01*
X121160153Y-110117417D01*
X121160154Y-110117419D01*
X121162898Y-110122735D01*
X121167667Y-110133103D01*
X121200766Y-110214616D01*
X121317487Y-110405088D01*
X121463750Y-110573938D01*
X121635626Y-110716632D01*
X121828500Y-110829338D01*
X122037192Y-110909030D01*
X122042260Y-110910061D01*
X122042263Y-110910062D01*
X122149517Y-110931883D01*
X122256097Y-110953567D01*
X122261272Y-110953757D01*
X122261274Y-110953757D01*
X122474173Y-110961564D01*
X122474177Y-110961564D01*
X122479337Y-110961753D01*
X122484457Y-110961097D01*
X122484459Y-110961097D01*
X122695788Y-110934025D01*
X122695789Y-110934025D01*
X122700916Y-110933368D01*
X122705866Y-110931883D01*
X122816090Y-110898814D01*
X122852298Y-110893500D01*
X124513283Y-110893500D01*
X124558231Y-110901790D01*
X124572356Y-110907184D01*
X124572364Y-110907186D01*
X124577192Y-110909030D01*
X124582260Y-110910061D01*
X124582263Y-110910062D01*
X124689517Y-110931883D01*
X124796097Y-110953567D01*
X124801272Y-110953757D01*
X124801274Y-110953757D01*
X125014173Y-110961564D01*
X125014177Y-110961564D01*
X125019337Y-110961753D01*
X125024457Y-110961097D01*
X125024459Y-110961097D01*
X125235788Y-110934025D01*
X125235789Y-110934025D01*
X125240916Y-110933368D01*
X125245866Y-110931883D01*
X125356090Y-110898814D01*
X125392298Y-110893500D01*
X168510440Y-110893500D01*
X168555389Y-110901790D01*
X168569515Y-110907184D01*
X168692192Y-110954030D01*
X168697260Y-110955061D01*
X168697263Y-110955062D01*
X168804517Y-110976883D01*
X168911097Y-110998567D01*
X168916272Y-110998757D01*
X168916274Y-110998757D01*
X169129173Y-111006564D01*
X169129177Y-111006564D01*
X169134337Y-111006753D01*
X169139457Y-111006097D01*
X169139459Y-111006097D01*
X169350788Y-110979025D01*
X169350789Y-110979025D01*
X169355916Y-110978368D01*
X169433599Y-110955062D01*
X169564931Y-110915660D01*
X169569884Y-110914174D01*
X169585859Y-110906348D01*
X169641291Y-110893500D01*
X170283000Y-110893500D01*
X170351121Y-110913502D01*
X170397614Y-110967158D01*
X170409000Y-111019500D01*
X170409000Y-117226522D01*
X170388998Y-117294643D01*
X170372095Y-117315617D01*
X163603117Y-124084595D01*
X163540805Y-124118621D01*
X163514022Y-124121500D01*
X157267000Y-124121500D01*
X157198879Y-124101498D01*
X157152386Y-124047842D01*
X157141000Y-123995500D01*
X157141000Y-123306179D01*
X157146442Y-123269550D01*
X157183365Y-123148023D01*
X157183365Y-123148021D01*
X157184870Y-123143069D01*
X157214029Y-122921590D01*
X157215656Y-122855000D01*
X157197352Y-122632361D01*
X157142931Y-122415702D01*
X157053854Y-122210840D01*
X156932514Y-122023277D01*
X156782170Y-121858051D01*
X156778119Y-121854852D01*
X156778115Y-121854848D01*
X156610914Y-121722800D01*
X156610910Y-121722798D01*
X156606859Y-121719598D01*
X156570528Y-121699542D01*
X156554636Y-121690769D01*
X156411289Y-121611638D01*
X156406420Y-121609914D01*
X156406416Y-121609912D01*
X156205587Y-121538795D01*
X156205583Y-121538794D01*
X156200712Y-121537069D01*
X156195619Y-121536162D01*
X156195616Y-121536161D01*
X155985873Y-121498800D01*
X155985867Y-121498799D01*
X155980784Y-121497894D01*
X155906952Y-121496992D01*
X155762581Y-121495228D01*
X155762579Y-121495228D01*
X155757411Y-121495165D01*
X155536591Y-121528955D01*
X155324256Y-121598357D01*
X155126107Y-121701507D01*
X155121974Y-121704610D01*
X155121971Y-121704612D01*
X155097747Y-121722800D01*
X154947465Y-121835635D01*
X154793129Y-121997138D01*
X154685704Y-122154618D01*
X154685398Y-122155066D01*
X154630487Y-122200069D01*
X154559962Y-122208240D01*
X154496215Y-122176986D01*
X154475518Y-122152502D01*
X154394926Y-122027926D01*
X154388636Y-122019757D01*
X154245306Y-121862240D01*
X154237773Y-121855215D01*
X154070639Y-121723222D01*
X154062052Y-121717517D01*
X153875617Y-121614599D01*
X153866205Y-121610369D01*
X153665459Y-121539280D01*
X153655488Y-121536646D01*
X153584337Y-121523972D01*
X153571040Y-121525432D01*
X153566500Y-121539989D01*
X153566500Y-126713517D01*
X153570564Y-126727359D01*
X153583978Y-126729393D01*
X153590684Y-126728534D01*
X153600762Y-126726392D01*
X153804755Y-126665191D01*
X153814342Y-126661433D01*
X154005595Y-126567739D01*
X154014445Y-126562464D01*
X154187828Y-126438792D01*
X154195700Y-126432139D01*
X154346552Y-126281812D01*
X154353230Y-126273965D01*
X154480522Y-126096819D01*
X154481779Y-126097722D01*
X154528873Y-126054362D01*
X154598811Y-126042145D01*
X154664251Y-126069678D01*
X154692079Y-126101511D01*
X154752487Y-126200088D01*
X154898750Y-126368938D01*
X155070626Y-126511632D01*
X155263500Y-126624338D01*
X155268325Y-126626180D01*
X155268326Y-126626181D01*
X155299384Y-126638041D01*
X155472192Y-126704030D01*
X155477260Y-126705061D01*
X155477263Y-126705062D01*
X155572362Y-126724410D01*
X155691097Y-126748567D01*
X155696272Y-126748757D01*
X155696274Y-126748757D01*
X155909173Y-126756564D01*
X155909177Y-126756564D01*
X155914337Y-126756753D01*
X155919457Y-126756097D01*
X155919459Y-126756097D01*
X156130788Y-126729025D01*
X156130789Y-126729025D01*
X156135916Y-126728368D01*
X156140866Y-126726883D01*
X156344929Y-126665661D01*
X156344934Y-126665659D01*
X156349884Y-126664174D01*
X156376063Y-126651349D01*
X156431495Y-126638500D01*
X163996104Y-126638500D01*
X164012551Y-126639578D01*
X164029016Y-126641746D01*
X164029020Y-126641746D01*
X164034586Y-126642479D01*
X164115989Y-126638640D01*
X164121924Y-126638500D01*
X164144499Y-126638500D01*
X164170489Y-126636181D01*
X164175748Y-126635822D01*
X164258988Y-126631896D01*
X164264447Y-126630646D01*
X164264452Y-126630645D01*
X164276470Y-126627892D01*
X164293399Y-126625211D01*
X164311262Y-126623617D01*
X164316678Y-126622135D01*
X164316680Y-126622135D01*
X164391633Y-126601630D01*
X164396751Y-126600344D01*
X164472500Y-126582995D01*
X164472502Y-126582994D01*
X164477970Y-126581742D01*
X164488470Y-126577263D01*
X164494467Y-126574706D01*
X164510642Y-126569073D01*
X164522539Y-126565818D01*
X164522543Y-126565817D01*
X164527951Y-126564337D01*
X164603167Y-126528461D01*
X164607976Y-126526290D01*
X164679449Y-126495804D01*
X164679450Y-126495804D01*
X164684609Y-126493603D01*
X164699610Y-126483749D01*
X164714525Y-126475346D01*
X164730718Y-126467622D01*
X164735269Y-126464352D01*
X164735272Y-126464350D01*
X164798381Y-126419001D01*
X164802732Y-126416011D01*
X164868510Y-126372804D01*
X164868518Y-126372798D01*
X164872374Y-126370265D01*
X164893162Y-126351743D01*
X164903439Y-126343510D01*
X164913154Y-126336529D01*
X164987563Y-126259745D01*
X164988952Y-126258335D01*
X166538369Y-124708918D01*
X168964417Y-124708918D01*
X168964834Y-124716156D01*
X168980182Y-124982320D01*
X169032905Y-125251053D01*
X169034292Y-125255103D01*
X169034293Y-125255108D01*
X169104988Y-125461590D01*
X169121612Y-125510144D01*
X169150738Y-125568054D01*
X169220337Y-125706437D01*
X169244660Y-125754799D01*
X169247086Y-125758328D01*
X169247089Y-125758334D01*
X169397343Y-125976953D01*
X169399774Y-125980490D01*
X169402661Y-125983663D01*
X169402662Y-125983664D01*
X169581192Y-126179867D01*
X169584082Y-126183043D01*
X169587377Y-126185798D01*
X169587378Y-126185799D01*
X169599205Y-126195688D01*
X169794175Y-126358707D01*
X169797816Y-126360991D01*
X170022524Y-126501951D01*
X170022528Y-126501953D01*
X170026164Y-126504234D01*
X170094044Y-126534883D01*
X170271845Y-126615164D01*
X170271849Y-126615166D01*
X170275757Y-126616930D01*
X170305462Y-126625729D01*
X170534223Y-126693491D01*
X170534227Y-126693492D01*
X170538336Y-126694709D01*
X170542570Y-126695357D01*
X170542575Y-126695358D01*
X170804798Y-126735483D01*
X170804800Y-126735483D01*
X170809040Y-126736132D01*
X170948412Y-126738322D01*
X171078571Y-126740367D01*
X171078577Y-126740367D01*
X171082862Y-126740434D01*
X171354735Y-126707534D01*
X171619627Y-126638041D01*
X171623587Y-126636401D01*
X171623592Y-126636399D01*
X171755544Y-126581742D01*
X171872636Y-126533241D01*
X172109082Y-126395073D01*
X172324589Y-126226094D01*
X172346010Y-126203990D01*
X172512186Y-126032509D01*
X172515169Y-126029431D01*
X172517702Y-126025983D01*
X172517706Y-126025978D01*
X172674757Y-125812178D01*
X172677295Y-125808723D01*
X172704654Y-125758334D01*
X172805918Y-125571830D01*
X172805919Y-125571828D01*
X172807968Y-125568054D01*
X172873360Y-125395000D01*
X172903251Y-125315895D01*
X172903252Y-125315891D01*
X172904769Y-125311877D01*
X172948054Y-125122885D01*
X172964949Y-125049117D01*
X172964950Y-125049113D01*
X172965907Y-125044933D01*
X172974410Y-124949665D01*
X172990031Y-124774627D01*
X172990031Y-124774625D01*
X172990251Y-124772161D01*
X172990507Y-124747792D01*
X172990667Y-124732484D01*
X172990667Y-124732483D01*
X172990693Y-124730000D01*
X172988106Y-124692054D01*
X172972359Y-124461055D01*
X172972358Y-124461049D01*
X172972067Y-124456778D01*
X172916532Y-124188612D01*
X172825117Y-123930465D01*
X172699513Y-123687112D01*
X172689540Y-123672921D01*
X172611239Y-123561511D01*
X172542045Y-123463057D01*
X172378872Y-123287462D01*
X172358546Y-123265588D01*
X172358543Y-123265585D01*
X172355625Y-123262445D01*
X172352310Y-123259731D01*
X172352306Y-123259728D01*
X172147023Y-123091706D01*
X172143705Y-123088990D01*
X171910204Y-122945901D01*
X171906268Y-122944173D01*
X171663373Y-122837549D01*
X171663369Y-122837548D01*
X171659445Y-122835825D01*
X171396066Y-122760800D01*
X171391824Y-122760196D01*
X171391818Y-122760195D01*
X171191334Y-122731662D01*
X171124943Y-122722213D01*
X170981089Y-122721460D01*
X170855377Y-122720802D01*
X170855371Y-122720802D01*
X170851091Y-122720780D01*
X170846847Y-122721339D01*
X170846843Y-122721339D01*
X170727802Y-122737011D01*
X170579578Y-122756525D01*
X170575438Y-122757658D01*
X170575436Y-122757658D01*
X170502508Y-122777609D01*
X170315428Y-122828788D01*
X170311480Y-122830472D01*
X170067482Y-122934546D01*
X170067478Y-122934548D01*
X170063530Y-122936232D01*
X170043625Y-122948145D01*
X169832225Y-123074664D01*
X169832221Y-123074667D01*
X169828543Y-123076868D01*
X169614818Y-123248094D01*
X169525059Y-123342680D01*
X169432099Y-123440640D01*
X169426308Y-123446742D01*
X169266502Y-123669136D01*
X169138357Y-123911161D01*
X169136885Y-123915184D01*
X169136883Y-123915188D01*
X169056214Y-124135625D01*
X169044243Y-124168337D01*
X168985904Y-124435907D01*
X168964417Y-124708918D01*
X166538369Y-124708918D01*
X172492759Y-118754528D01*
X172505151Y-118743660D01*
X172518343Y-118733538D01*
X172518351Y-118733531D01*
X172522792Y-118730123D01*
X172577668Y-118669815D01*
X172581767Y-118665520D01*
X172597698Y-118649589D01*
X172614434Y-118629573D01*
X172617879Y-118625624D01*
X172670203Y-118568121D01*
X172670206Y-118568117D01*
X172673985Y-118563964D01*
X172683513Y-118548775D01*
X172693591Y-118534903D01*
X172701492Y-118525455D01*
X172701497Y-118525448D01*
X172705094Y-118521146D01*
X172746387Y-118448752D01*
X172749092Y-118444232D01*
X172790386Y-118378404D01*
X172790388Y-118378401D01*
X172793364Y-118373656D01*
X172800052Y-118357021D01*
X172807512Y-118341589D01*
X172813620Y-118330881D01*
X172813624Y-118330872D01*
X172816399Y-118326007D01*
X172818268Y-118320730D01*
X172818270Y-118320725D01*
X172844215Y-118247458D01*
X172846080Y-118242522D01*
X172875066Y-118170416D01*
X172877156Y-118165217D01*
X172880794Y-118147650D01*
X172885399Y-118131156D01*
X172891389Y-118114241D01*
X172904855Y-118032009D01*
X172905817Y-118026819D01*
X172921777Y-117949754D01*
X172921778Y-117949750D01*
X172922713Y-117945233D01*
X172924315Y-117917452D01*
X172925762Y-117904347D01*
X172926786Y-117898090D01*
X172926786Y-117898083D01*
X172927694Y-117892542D01*
X172926016Y-117785736D01*
X172926000Y-117783757D01*
X172926000Y-110013894D01*
X172931442Y-109977265D01*
X172943365Y-109938022D01*
X172944870Y-109933069D01*
X172974029Y-109711590D01*
X172975656Y-109645000D01*
X172957352Y-109422361D01*
X172902931Y-109205702D01*
X172813854Y-109000840D01*
X172692514Y-108813277D01*
X172542170Y-108648051D01*
X172538119Y-108644852D01*
X172538115Y-108644848D01*
X172370914Y-108512800D01*
X172370910Y-108512798D01*
X172366859Y-108509598D01*
X172325069Y-108486529D01*
X172275098Y-108436097D01*
X172260326Y-108366654D01*
X172285442Y-108300248D01*
X172312794Y-108273641D01*
X172487828Y-108148792D01*
X172495700Y-108142139D01*
X172646552Y-107991812D01*
X172653230Y-107983965D01*
X172777503Y-107811020D01*
X172782813Y-107802183D01*
X172877170Y-107611267D01*
X172880969Y-107601672D01*
X172942877Y-107397910D01*
X172945055Y-107387837D01*
X172946486Y-107376962D01*
X172944275Y-107362778D01*
X172931117Y-107359000D01*
X171484500Y-107359000D01*
X171416379Y-107338998D01*
X171369886Y-107285342D01*
X171358500Y-107233000D01*
X171358500Y-106977000D01*
X171378502Y-106908879D01*
X171432158Y-106862386D01*
X171484500Y-106851000D01*
X172930844Y-106851000D01*
X172944375Y-106847027D01*
X172945680Y-106837947D01*
X172903714Y-106670875D01*
X172900394Y-106661124D01*
X172815472Y-106465814D01*
X172810605Y-106456739D01*
X172694926Y-106277926D01*
X172688636Y-106269757D01*
X172545306Y-106112240D01*
X172537773Y-106105215D01*
X172370639Y-105973222D01*
X172362056Y-105967520D01*
X172325102Y-105947120D01*
X172275131Y-105896687D01*
X172260359Y-105827245D01*
X172285475Y-105760839D01*
X172312827Y-105734232D01*
X172336297Y-105717491D01*
X172492360Y-105606173D01*
X172650596Y-105448489D01*
X172780953Y-105267077D01*
X172785111Y-105258665D01*
X172877636Y-105071453D01*
X172877637Y-105071451D01*
X172879930Y-105066811D01*
X172944870Y-104853069D01*
X172974029Y-104631590D01*
X172975656Y-104565000D01*
X172957352Y-104342361D01*
X172902931Y-104125702D01*
X172813854Y-103920840D01*
X172692514Y-103733277D01*
X172542170Y-103568051D01*
X172538119Y-103564852D01*
X172538115Y-103564848D01*
X172370914Y-103432800D01*
X172370910Y-103432798D01*
X172366859Y-103429598D01*
X172325553Y-103406796D01*
X172275584Y-103356364D01*
X172260812Y-103286921D01*
X172285928Y-103220516D01*
X172313280Y-103193909D01*
X172389592Y-103139476D01*
X172492360Y-103066173D01*
X172650596Y-102908489D01*
X172684398Y-102861449D01*
X172777935Y-102731277D01*
X172780953Y-102727077D01*
X172784230Y-102720448D01*
X172877636Y-102531453D01*
X172877637Y-102531451D01*
X172879930Y-102526811D01*
X172944870Y-102313069D01*
X172974029Y-102091590D01*
X172975656Y-102025000D01*
X172957352Y-101802361D01*
X172902931Y-101585702D01*
X172813854Y-101380840D01*
X172740530Y-101267498D01*
X172695322Y-101197617D01*
X172695320Y-101197614D01*
X172692514Y-101193277D01*
X172542170Y-101028051D01*
X172538119Y-101024852D01*
X172538115Y-101024848D01*
X172370914Y-100892800D01*
X172370910Y-100892798D01*
X172366859Y-100889598D01*
X172325553Y-100866796D01*
X172275584Y-100816364D01*
X172260812Y-100746921D01*
X172285928Y-100680516D01*
X172313280Y-100653909D01*
X172389592Y-100599476D01*
X172492360Y-100526173D01*
X172650596Y-100368489D01*
X172780953Y-100187077D01*
X172820777Y-100106500D01*
X172877636Y-99991453D01*
X172877637Y-99991451D01*
X172879930Y-99986811D01*
X172944870Y-99773069D01*
X172974029Y-99551590D01*
X172975656Y-99485000D01*
X172957352Y-99262361D01*
X172902931Y-99045702D01*
X172813854Y-98840840D01*
X172731293Y-98713220D01*
X172695322Y-98657617D01*
X172695320Y-98657614D01*
X172692514Y-98653277D01*
X172542170Y-98488051D01*
X172538119Y-98484852D01*
X172538115Y-98484848D01*
X172370914Y-98352800D01*
X172370910Y-98352798D01*
X172366859Y-98349598D01*
X172325553Y-98326796D01*
X172275584Y-98276364D01*
X172260812Y-98206921D01*
X172285928Y-98140516D01*
X172313280Y-98113909D01*
X172389592Y-98059476D01*
X172492360Y-97986173D01*
X172650596Y-97828489D01*
X172780953Y-97647077D01*
X172838451Y-97530739D01*
X172877636Y-97451453D01*
X172877637Y-97451451D01*
X172879930Y-97446811D01*
X172944870Y-97233069D01*
X172974029Y-97011590D01*
X172975656Y-96945000D01*
X172957352Y-96722361D01*
X172902931Y-96505702D01*
X172813854Y-96300840D01*
X172692514Y-96113277D01*
X172542170Y-95948051D01*
X172538119Y-95944852D01*
X172538115Y-95944848D01*
X172370914Y-95812800D01*
X172370910Y-95812798D01*
X172366859Y-95809598D01*
X172325553Y-95786796D01*
X172275584Y-95736364D01*
X172260812Y-95666921D01*
X172285928Y-95600516D01*
X172313280Y-95573909D01*
X172389592Y-95519476D01*
X172492360Y-95446173D01*
X172650596Y-95288489D01*
X172733459Y-95173173D01*
X172777935Y-95111277D01*
X172780953Y-95107077D01*
X172786696Y-95095458D01*
X172877636Y-94911453D01*
X172877637Y-94911451D01*
X172879930Y-94906811D01*
X172944870Y-94693069D01*
X172974029Y-94471590D01*
X172975656Y-94405000D01*
X172957352Y-94182361D01*
X172902931Y-93965702D01*
X172813854Y-93760840D01*
X172692514Y-93573277D01*
X172542170Y-93408051D01*
X172538119Y-93404852D01*
X172538115Y-93404848D01*
X172370914Y-93272800D01*
X172370910Y-93272798D01*
X172366859Y-93269598D01*
X172325069Y-93246529D01*
X172275098Y-93196097D01*
X172260326Y-93126654D01*
X172285442Y-93060248D01*
X172312794Y-93033641D01*
X172487828Y-92908792D01*
X172495700Y-92902139D01*
X172646552Y-92751812D01*
X172653230Y-92743965D01*
X172777503Y-92571020D01*
X172782813Y-92562183D01*
X172877170Y-92371267D01*
X172880969Y-92361672D01*
X172942877Y-92157910D01*
X172945055Y-92147837D01*
X172946486Y-92136962D01*
X172944275Y-92122778D01*
X172931117Y-92119000D01*
X171484500Y-92119000D01*
X171416379Y-92098998D01*
X171369886Y-92045342D01*
X171358500Y-91993000D01*
X171358500Y-91592885D01*
X171866500Y-91592885D01*
X171870975Y-91608124D01*
X171872365Y-91609329D01*
X171880048Y-91611000D01*
X172930844Y-91611000D01*
X172944375Y-91607027D01*
X172945680Y-91597947D01*
X172903714Y-91430875D01*
X172900394Y-91421124D01*
X172815472Y-91225814D01*
X172810605Y-91216739D01*
X172694926Y-91037926D01*
X172688636Y-91029757D01*
X172545306Y-90872240D01*
X172537773Y-90865215D01*
X172370639Y-90733222D01*
X172362052Y-90727517D01*
X172175617Y-90624599D01*
X172166205Y-90620369D01*
X171965459Y-90549280D01*
X171955488Y-90546646D01*
X171884337Y-90533972D01*
X171871040Y-90535432D01*
X171866500Y-90549989D01*
X171866500Y-91592885D01*
X171358500Y-91592885D01*
X171358500Y-90548102D01*
X171354582Y-90534758D01*
X171340306Y-90532771D01*
X171301824Y-90538660D01*
X171291788Y-90541051D01*
X171089368Y-90607212D01*
X171079859Y-90611209D01*
X170890963Y-90709542D01*
X170882238Y-90715036D01*
X170711933Y-90842905D01*
X170704226Y-90849748D01*
X170626978Y-90930584D01*
X170565454Y-90966014D01*
X170494542Y-90962557D01*
X170436755Y-90921311D01*
X170417902Y-90887763D01*
X170376267Y-90776703D01*
X170376266Y-90776701D01*
X170373115Y-90768295D01*
X170361939Y-90753382D01*
X170331174Y-90712333D01*
X170306326Y-90645826D01*
X170306000Y-90636768D01*
X170306000Y-90051395D01*
X170307078Y-90034948D01*
X170309246Y-90018483D01*
X170309246Y-90018479D01*
X170309979Y-90012913D01*
X170306140Y-89931511D01*
X170306000Y-89925576D01*
X170306000Y-89903001D01*
X170303681Y-89877011D01*
X170303322Y-89871749D01*
X170299660Y-89794113D01*
X170299396Y-89788512D01*
X170295392Y-89771030D01*
X170292711Y-89754100D01*
X170291616Y-89741832D01*
X170291117Y-89736238D01*
X170269130Y-89655867D01*
X170267844Y-89650749D01*
X170250495Y-89575000D01*
X170250494Y-89574998D01*
X170249242Y-89569530D01*
X170242206Y-89553033D01*
X170236573Y-89536858D01*
X170233318Y-89524961D01*
X170233317Y-89524957D01*
X170231837Y-89519549D01*
X170195961Y-89444333D01*
X170193790Y-89439524D01*
X170163304Y-89368051D01*
X170163304Y-89368050D01*
X170161103Y-89362891D01*
X170151249Y-89347890D01*
X170142843Y-89332970D01*
X170137535Y-89321841D01*
X170135122Y-89316782D01*
X170131854Y-89312234D01*
X170131851Y-89312229D01*
X170086498Y-89249114D01*
X170083509Y-89244765D01*
X170037765Y-89175125D01*
X170019247Y-89154341D01*
X170010998Y-89144045D01*
X170007304Y-89138904D01*
X170004029Y-89134346D01*
X169927277Y-89059968D01*
X169925867Y-89058579D01*
X169312025Y-88444737D01*
X169301157Y-88432346D01*
X169291033Y-88419152D01*
X169287623Y-88414708D01*
X169227326Y-88359842D01*
X169223031Y-88355743D01*
X169207090Y-88339802D01*
X169204940Y-88338004D01*
X169187077Y-88323068D01*
X169183102Y-88319600D01*
X169125612Y-88267288D01*
X169125603Y-88267281D01*
X169121464Y-88263515D01*
X169106273Y-88253986D01*
X169092407Y-88243911D01*
X169082951Y-88236004D01*
X169082941Y-88235997D01*
X169078646Y-88232406D01*
X169006252Y-88191113D01*
X169001732Y-88188408D01*
X168997336Y-88185650D01*
X168950702Y-88156397D01*
X168935904Y-88147114D01*
X168935901Y-88147112D01*
X168931156Y-88144136D01*
X168925951Y-88142043D01*
X168925948Y-88142042D01*
X168914521Y-88137448D01*
X168899089Y-88129988D01*
X168888381Y-88123880D01*
X168888372Y-88123876D01*
X168883507Y-88121101D01*
X168878230Y-88119232D01*
X168878225Y-88119230D01*
X168804958Y-88093285D01*
X168800022Y-88091420D01*
X168727916Y-88062434D01*
X168722717Y-88060344D01*
X168717230Y-88059208D01*
X168717228Y-88059207D01*
X168705151Y-88056706D01*
X168688656Y-88052101D01*
X168671741Y-88046111D01*
X168589490Y-88032641D01*
X168584320Y-88031683D01*
X168502733Y-88014787D01*
X168498121Y-88014521D01*
X168498120Y-88014521D01*
X168474952Y-88013185D01*
X168461847Y-88011738D01*
X168455590Y-88010714D01*
X168455586Y-88010714D01*
X168450043Y-88009806D01*
X168444430Y-88009894D01*
X168444428Y-88009894D01*
X168343236Y-88011484D01*
X168341257Y-88011500D01*
X145250978Y-88011500D01*
X145182857Y-87991498D01*
X145161883Y-87974595D01*
X144447905Y-87260617D01*
X144413879Y-87198305D01*
X144411000Y-87171522D01*
X144411000Y-79202709D01*
X144431002Y-79134588D01*
X144484658Y-79088095D01*
X144554932Y-79077991D01*
X144619512Y-79107485D01*
X144632237Y-79120212D01*
X144735713Y-79239667D01*
X144743080Y-79246883D01*
X144906934Y-79382916D01*
X144915381Y-79388831D01*
X145099256Y-79496279D01*
X145108542Y-79500729D01*
X145307501Y-79576703D01*
X145317399Y-79579579D01*
X145420750Y-79600606D01*
X145434799Y-79599410D01*
X145438500Y-79589065D01*
X145438500Y-78142000D01*
X145458502Y-78073879D01*
X145512158Y-78027386D01*
X145564500Y-78016000D01*
X145820500Y-78016000D01*
X145888621Y-78036002D01*
X145935114Y-78089658D01*
X145946500Y-78142000D01*
X145946500Y-79588517D01*
X145950564Y-79602359D01*
X145963978Y-79604393D01*
X145970684Y-79603534D01*
X145980762Y-79601392D01*
X146184755Y-79540191D01*
X146194342Y-79536433D01*
X146385595Y-79442739D01*
X146394445Y-79437464D01*
X146567828Y-79313792D01*
X146575700Y-79307139D01*
X146726552Y-79156812D01*
X146733230Y-79148965D01*
X146860522Y-78971819D01*
X146861779Y-78972722D01*
X146908873Y-78929362D01*
X146978811Y-78917145D01*
X147044251Y-78944678D01*
X147072079Y-78976511D01*
X147132487Y-79075088D01*
X147278750Y-79243938D01*
X147450626Y-79386632D01*
X147643500Y-79499338D01*
X147852192Y-79579030D01*
X147857260Y-79580061D01*
X147857263Y-79580062D01*
X147952362Y-79599410D01*
X148071097Y-79623567D01*
X148076272Y-79623757D01*
X148076274Y-79623757D01*
X148289173Y-79631564D01*
X148289177Y-79631564D01*
X148294337Y-79631753D01*
X148299457Y-79631097D01*
X148299459Y-79631097D01*
X148510788Y-79604025D01*
X148510789Y-79604025D01*
X148515916Y-79603368D01*
X148520866Y-79601883D01*
X148724929Y-79540661D01*
X148724934Y-79540659D01*
X148729884Y-79539174D01*
X148930494Y-79440896D01*
X149112360Y-79311173D01*
X149270596Y-79153489D01*
X149330094Y-79070689D01*
X149400953Y-78972077D01*
X149402276Y-78973028D01*
X149449145Y-78929857D01*
X149519080Y-78917625D01*
X149584526Y-78945144D01*
X149612375Y-78976994D01*
X149672487Y-79075088D01*
X149818750Y-79243938D01*
X149990626Y-79386632D01*
X150183500Y-79499338D01*
X150392192Y-79579030D01*
X150397260Y-79580061D01*
X150397263Y-79580062D01*
X150492362Y-79599410D01*
X150611097Y-79623567D01*
X150616272Y-79623757D01*
X150616274Y-79623757D01*
X150829173Y-79631564D01*
X150829177Y-79631564D01*
X150834337Y-79631753D01*
X150839457Y-79631097D01*
X150839459Y-79631097D01*
X151050788Y-79604025D01*
X151050789Y-79604025D01*
X151055916Y-79603368D01*
X151060866Y-79601883D01*
X151264929Y-79540661D01*
X151264934Y-79540659D01*
X151269884Y-79539174D01*
X151470494Y-79440896D01*
X151652360Y-79311173D01*
X151810596Y-79153489D01*
X151870094Y-79070689D01*
X151940953Y-78972077D01*
X151942276Y-78973028D01*
X151989145Y-78929857D01*
X152059080Y-78917625D01*
X152124526Y-78945144D01*
X152152375Y-78976994D01*
X152212487Y-79075088D01*
X152358750Y-79243938D01*
X152530626Y-79386632D01*
X152723500Y-79499338D01*
X152932192Y-79579030D01*
X152937260Y-79580061D01*
X152937263Y-79580062D01*
X153032362Y-79599410D01*
X153151097Y-79623567D01*
X153156272Y-79623757D01*
X153156274Y-79623757D01*
X153369173Y-79631564D01*
X153369177Y-79631564D01*
X153374337Y-79631753D01*
X153379457Y-79631097D01*
X153379459Y-79631097D01*
X153590788Y-79604025D01*
X153590789Y-79604025D01*
X153595916Y-79603368D01*
X153600866Y-79601883D01*
X153804929Y-79540661D01*
X153804934Y-79540659D01*
X153809884Y-79539174D01*
X154010494Y-79440896D01*
X154192360Y-79311173D01*
X154350596Y-79153489D01*
X154410094Y-79070689D01*
X154480953Y-78972077D01*
X154482276Y-78973028D01*
X154529145Y-78929857D01*
X154599080Y-78917625D01*
X154664526Y-78945144D01*
X154692375Y-78976994D01*
X154752487Y-79075088D01*
X154898750Y-79243938D01*
X155070626Y-79386632D01*
X155263500Y-79499338D01*
X155472192Y-79579030D01*
X155477260Y-79580061D01*
X155477263Y-79580062D01*
X155572362Y-79599410D01*
X155691097Y-79623567D01*
X155696272Y-79623757D01*
X155696274Y-79623757D01*
X155909173Y-79631564D01*
X155909177Y-79631564D01*
X155914337Y-79631753D01*
X155919457Y-79631097D01*
X155919459Y-79631097D01*
X156130788Y-79604025D01*
X156130789Y-79604025D01*
X156135916Y-79603368D01*
X156140866Y-79601883D01*
X156344929Y-79540661D01*
X156344934Y-79540659D01*
X156349884Y-79539174D01*
X156550494Y-79440896D01*
X156732360Y-79311173D01*
X156890596Y-79153489D01*
X156950094Y-79070689D01*
X157017935Y-78976277D01*
X157020953Y-78972077D01*
X157034495Y-78944678D01*
X157117636Y-78776453D01*
X157117637Y-78776451D01*
X157119930Y-78771811D01*
X157184870Y-78558069D01*
X157214029Y-78336590D01*
X157215656Y-78270000D01*
X157197352Y-78047361D01*
X157142931Y-77830702D01*
X157053854Y-77625840D01*
X156939693Y-77449374D01*
X156935322Y-77442617D01*
X156935320Y-77442614D01*
X156932514Y-77438277D01*
X156929038Y-77434457D01*
X156929033Y-77434450D01*
X156784935Y-77276088D01*
X156753883Y-77212242D01*
X156762279Y-77141744D01*
X156807456Y-77086976D01*
X156833900Y-77073307D01*
X156940552Y-77033325D01*
X156956149Y-77024786D01*
X157058224Y-76948285D01*
X157070785Y-76935724D01*
X157147286Y-76833649D01*
X157155824Y-76818054D01*
X157196737Y-76708918D01*
X168964417Y-76708918D01*
X168964834Y-76716156D01*
X168980182Y-76982320D01*
X169032905Y-77251053D01*
X169034292Y-77255103D01*
X169034293Y-77255108D01*
X169101618Y-77451747D01*
X169121612Y-77510144D01*
X169152637Y-77571830D01*
X169220337Y-77706437D01*
X169244660Y-77754799D01*
X169247086Y-77758328D01*
X169247089Y-77758334D01*
X169397343Y-77976953D01*
X169399774Y-77980490D01*
X169402661Y-77983663D01*
X169402662Y-77983664D01*
X169465318Y-78052522D01*
X169584082Y-78183043D01*
X169794175Y-78358707D01*
X169797816Y-78360991D01*
X170022524Y-78501951D01*
X170022528Y-78501953D01*
X170026164Y-78504234D01*
X170094044Y-78534883D01*
X170271845Y-78615164D01*
X170271849Y-78615166D01*
X170275757Y-78616930D01*
X170279877Y-78618150D01*
X170279876Y-78618150D01*
X170534223Y-78693491D01*
X170534227Y-78693492D01*
X170538336Y-78694709D01*
X170542570Y-78695357D01*
X170542575Y-78695358D01*
X170804798Y-78735483D01*
X170804800Y-78735483D01*
X170809040Y-78736132D01*
X170948412Y-78738322D01*
X171078571Y-78740367D01*
X171078577Y-78740367D01*
X171082862Y-78740434D01*
X171354735Y-78707534D01*
X171619627Y-78638041D01*
X171623587Y-78636401D01*
X171623592Y-78636399D01*
X171812696Y-78558069D01*
X171872636Y-78533241D01*
X172109082Y-78395073D01*
X172324589Y-78226094D01*
X172366309Y-78183043D01*
X172492792Y-78052522D01*
X172515169Y-78029431D01*
X172517702Y-78025983D01*
X172517706Y-78025978D01*
X172674757Y-77812178D01*
X172677295Y-77808723D01*
X172705234Y-77757266D01*
X172805918Y-77571830D01*
X172805919Y-77571828D01*
X172807968Y-77568054D01*
X172864764Y-77417747D01*
X172903251Y-77315895D01*
X172903252Y-77315891D01*
X172904769Y-77311877D01*
X172934207Y-77183345D01*
X172964949Y-77049117D01*
X172964950Y-77049113D01*
X172965907Y-77044933D01*
X172968943Y-77010923D01*
X172990031Y-76774627D01*
X172990031Y-76774625D01*
X172990251Y-76772161D01*
X172990693Y-76730000D01*
X172989190Y-76707954D01*
X172972359Y-76461055D01*
X172972358Y-76461049D01*
X172972067Y-76456778D01*
X172916532Y-76188612D01*
X172825117Y-75930465D01*
X172699513Y-75687112D01*
X172689540Y-75672921D01*
X172565199Y-75496002D01*
X172542045Y-75463057D01*
X172355625Y-75262445D01*
X172352310Y-75259731D01*
X172352306Y-75259728D01*
X172147023Y-75091706D01*
X172143705Y-75088990D01*
X171910204Y-74945901D01*
X171906268Y-74944173D01*
X171663373Y-74837549D01*
X171663369Y-74837548D01*
X171659445Y-74835825D01*
X171396066Y-74760800D01*
X171391824Y-74760196D01*
X171391818Y-74760195D01*
X171181167Y-74730215D01*
X171124943Y-74722213D01*
X170981089Y-74721460D01*
X170855377Y-74720802D01*
X170855371Y-74720802D01*
X170851091Y-74720780D01*
X170846847Y-74721339D01*
X170846843Y-74721339D01*
X170728874Y-74736870D01*
X170579578Y-74756525D01*
X170575438Y-74757658D01*
X170575436Y-74757658D01*
X170558117Y-74762396D01*
X170315428Y-74828788D01*
X170311480Y-74830472D01*
X170067482Y-74934546D01*
X170067478Y-74934548D01*
X170063530Y-74936232D01*
X170043625Y-74948145D01*
X169832225Y-75074664D01*
X169832221Y-75074667D01*
X169828543Y-75076868D01*
X169614818Y-75248094D01*
X169426308Y-75446742D01*
X169266502Y-75669136D01*
X169138357Y-75911161D01*
X169136885Y-75915184D01*
X169136883Y-75915188D01*
X169045714Y-76164317D01*
X169044243Y-76168337D01*
X168985904Y-76435907D01*
X168985568Y-76440177D01*
X168970706Y-76629017D01*
X168964417Y-76708918D01*
X157196737Y-76708918D01*
X157200978Y-76697606D01*
X157204605Y-76682351D01*
X157210131Y-76631486D01*
X157210500Y-76624672D01*
X157210500Y-76002115D01*
X157206025Y-75986876D01*
X157204635Y-75985671D01*
X157196952Y-75984000D01*
X155724500Y-75984000D01*
X155656379Y-75963998D01*
X155609886Y-75910342D01*
X155598500Y-75858000D01*
X155598500Y-75602000D01*
X155618502Y-75533879D01*
X155672158Y-75487386D01*
X155724500Y-75476000D01*
X157192384Y-75476000D01*
X157207623Y-75471525D01*
X157208828Y-75470135D01*
X157210499Y-75462452D01*
X157210499Y-74835331D01*
X157210129Y-74828510D01*
X157204605Y-74777648D01*
X157200979Y-74762396D01*
X157155824Y-74641946D01*
X157147286Y-74626351D01*
X157070785Y-74524276D01*
X157058224Y-74511715D01*
X156996327Y-74465326D01*
X156953812Y-74408467D01*
X156948786Y-74337649D01*
X156982846Y-74275355D01*
X157045177Y-74241365D01*
X157071892Y-74238500D01*
X173343000Y-74238500D01*
X173411121Y-74258502D01*
X173457614Y-74312158D01*
X173469000Y-74364500D01*
X173469000Y-127095500D01*
X173448998Y-127163621D01*
X173395342Y-127210114D01*
X173343000Y-127221500D01*
X120612000Y-127221500D01*
X120543879Y-127201498D01*
X120497386Y-127147842D01*
X120486000Y-127095500D01*
X120486000Y-124708918D01*
X120964417Y-124708918D01*
X120964834Y-124716156D01*
X120980182Y-124982320D01*
X121032905Y-125251053D01*
X121034292Y-125255103D01*
X121034293Y-125255108D01*
X121104988Y-125461590D01*
X121121612Y-125510144D01*
X121150738Y-125568054D01*
X121220337Y-125706437D01*
X121244660Y-125754799D01*
X121247086Y-125758328D01*
X121247089Y-125758334D01*
X121397343Y-125976953D01*
X121399774Y-125980490D01*
X121402661Y-125983663D01*
X121402662Y-125983664D01*
X121581192Y-126179867D01*
X121584082Y-126183043D01*
X121587377Y-126185798D01*
X121587378Y-126185799D01*
X121599205Y-126195688D01*
X121794175Y-126358707D01*
X121797816Y-126360991D01*
X122022524Y-126501951D01*
X122022528Y-126501953D01*
X122026164Y-126504234D01*
X122094044Y-126534883D01*
X122271845Y-126615164D01*
X122271849Y-126615166D01*
X122275757Y-126616930D01*
X122305462Y-126625729D01*
X122534223Y-126693491D01*
X122534227Y-126693492D01*
X122538336Y-126694709D01*
X122542570Y-126695357D01*
X122542575Y-126695358D01*
X122804798Y-126735483D01*
X122804800Y-126735483D01*
X122809040Y-126736132D01*
X122948412Y-126738322D01*
X123078571Y-126740367D01*
X123078577Y-126740367D01*
X123082862Y-126740434D01*
X123354735Y-126707534D01*
X123619627Y-126638041D01*
X123623587Y-126636401D01*
X123623592Y-126636399D01*
X123755544Y-126581742D01*
X123872636Y-126533241D01*
X124109082Y-126395073D01*
X124243509Y-126289669D01*
X136714501Y-126289669D01*
X136714871Y-126296490D01*
X136720395Y-126347352D01*
X136724021Y-126362604D01*
X136769176Y-126483054D01*
X136777714Y-126498649D01*
X136854215Y-126600724D01*
X136866776Y-126613285D01*
X136968851Y-126689786D01*
X136984446Y-126698324D01*
X137104894Y-126743478D01*
X137120149Y-126747105D01*
X137171014Y-126752631D01*
X137177828Y-126753000D01*
X137800385Y-126753000D01*
X137815624Y-126748525D01*
X137816829Y-126747135D01*
X137818500Y-126739452D01*
X137818500Y-125667115D01*
X137814025Y-125651876D01*
X137812635Y-125650671D01*
X137804952Y-125649000D01*
X136732616Y-125649000D01*
X136717377Y-125653475D01*
X136716172Y-125654865D01*
X136714501Y-125662548D01*
X136714501Y-126289669D01*
X124243509Y-126289669D01*
X124324589Y-126226094D01*
X124346010Y-126203990D01*
X124512186Y-126032509D01*
X124515169Y-126029431D01*
X124517702Y-126025983D01*
X124517706Y-126025978D01*
X124674757Y-125812178D01*
X124677295Y-125808723D01*
X124704654Y-125758334D01*
X124805918Y-125571830D01*
X124805919Y-125571828D01*
X124807968Y-125568054D01*
X124873360Y-125395000D01*
X124903251Y-125315895D01*
X124903252Y-125315891D01*
X124904769Y-125311877D01*
X124948054Y-125122885D01*
X124964949Y-125049117D01*
X124964950Y-125049113D01*
X124965907Y-125044933D01*
X124974410Y-124949665D01*
X124990031Y-124774627D01*
X124990031Y-124774625D01*
X124990251Y-124772161D01*
X124990507Y-124747792D01*
X124990667Y-124732484D01*
X124990667Y-124732483D01*
X124990693Y-124730000D01*
X124988106Y-124692054D01*
X124972359Y-124461055D01*
X124972358Y-124461049D01*
X124972067Y-124456778D01*
X124916532Y-124188612D01*
X124825117Y-123930465D01*
X124699513Y-123687112D01*
X124689540Y-123672921D01*
X124611239Y-123561511D01*
X124542045Y-123463057D01*
X124378872Y-123287462D01*
X124358546Y-123265588D01*
X124358543Y-123265585D01*
X124355625Y-123262445D01*
X124352310Y-123259731D01*
X124352306Y-123259728D01*
X124147023Y-123091706D01*
X124143705Y-123088990D01*
X123910204Y-122945901D01*
X123906268Y-122944173D01*
X123663373Y-122837549D01*
X123663369Y-122837548D01*
X123659445Y-122835825D01*
X123609841Y-122821695D01*
X136709751Y-122821695D01*
X136710048Y-122826848D01*
X136710048Y-122826851D01*
X136717042Y-122948145D01*
X136722610Y-123044715D01*
X136723747Y-123049761D01*
X136723748Y-123049767D01*
X136733200Y-123091706D01*
X136771722Y-123262639D01*
X136789402Y-123306179D01*
X136853103Y-123463057D01*
X136855766Y-123469616D01*
X136907442Y-123553944D01*
X136969791Y-123655688D01*
X136972487Y-123660088D01*
X137118750Y-123828938D01*
X137122725Y-123832238D01*
X137122731Y-123832244D01*
X137127925Y-123836556D01*
X137167559Y-123895460D01*
X137169055Y-123966441D01*
X137131939Y-124026962D01*
X137091668Y-124051480D01*
X136984446Y-124091676D01*
X136968851Y-124100214D01*
X136866776Y-124176715D01*
X136854215Y-124189276D01*
X136777714Y-124291351D01*
X136769176Y-124306946D01*
X136724022Y-124427394D01*
X136720395Y-124442649D01*
X136714869Y-124493514D01*
X136714500Y-124500328D01*
X136714500Y-125122885D01*
X136718975Y-125138124D01*
X136720365Y-125139329D01*
X136728048Y-125141000D01*
X138200500Y-125141000D01*
X138268621Y-125161002D01*
X138315114Y-125214658D01*
X138326500Y-125267000D01*
X138326500Y-126734884D01*
X138330975Y-126750123D01*
X138332365Y-126751328D01*
X138340048Y-126752999D01*
X138967169Y-126752999D01*
X138973990Y-126752629D01*
X139024852Y-126747105D01*
X139040104Y-126743479D01*
X139160554Y-126698324D01*
X139176149Y-126689786D01*
X139278224Y-126613285D01*
X139290785Y-126600724D01*
X139367286Y-126498649D01*
X139375824Y-126483054D01*
X139416725Y-126373952D01*
X139459367Y-126317188D01*
X139525928Y-126292488D01*
X139595277Y-126307696D01*
X139629944Y-126335684D01*
X139655365Y-126365031D01*
X139655369Y-126365035D01*
X139658750Y-126368938D01*
X139830626Y-126511632D01*
X140023500Y-126624338D01*
X140028325Y-126626180D01*
X140028326Y-126626181D01*
X140059384Y-126638041D01*
X140232192Y-126704030D01*
X140237260Y-126705061D01*
X140237263Y-126705062D01*
X140332362Y-126724410D01*
X140451097Y-126748567D01*
X140456272Y-126748757D01*
X140456274Y-126748757D01*
X140669173Y-126756564D01*
X140669177Y-126756564D01*
X140674337Y-126756753D01*
X140679457Y-126756097D01*
X140679459Y-126756097D01*
X140890788Y-126729025D01*
X140890789Y-126729025D01*
X140895916Y-126728368D01*
X140900866Y-126726883D01*
X141104929Y-126665661D01*
X141104934Y-126665659D01*
X141109884Y-126664174D01*
X141310494Y-126565896D01*
X141492360Y-126436173D01*
X141561578Y-126367197D01*
X141596394Y-126332502D01*
X141650596Y-126278489D01*
X141686341Y-126228745D01*
X141780953Y-126097077D01*
X141782276Y-126098028D01*
X141829145Y-126054857D01*
X141899080Y-126042625D01*
X141964526Y-126070144D01*
X141992375Y-126101994D01*
X142052487Y-126200088D01*
X142198750Y-126368938D01*
X142370626Y-126511632D01*
X142563500Y-126624338D01*
X142568325Y-126626180D01*
X142568326Y-126626181D01*
X142599384Y-126638041D01*
X142772192Y-126704030D01*
X142777260Y-126705061D01*
X142777263Y-126705062D01*
X142872362Y-126724410D01*
X142991097Y-126748567D01*
X142996272Y-126748757D01*
X142996274Y-126748757D01*
X143209173Y-126756564D01*
X143209177Y-126756564D01*
X143214337Y-126756753D01*
X143219457Y-126756097D01*
X143219459Y-126756097D01*
X143430788Y-126729025D01*
X143430789Y-126729025D01*
X143435916Y-126728368D01*
X143440866Y-126726883D01*
X143644929Y-126665661D01*
X143644934Y-126665659D01*
X143649884Y-126664174D01*
X143850494Y-126565896D01*
X144032360Y-126436173D01*
X144101578Y-126367197D01*
X144136394Y-126332502D01*
X144190596Y-126278489D01*
X144226341Y-126228745D01*
X144320953Y-126097077D01*
X144322276Y-126098028D01*
X144369145Y-126054857D01*
X144439080Y-126042625D01*
X144504526Y-126070144D01*
X144532375Y-126101994D01*
X144592487Y-126200088D01*
X144738750Y-126368938D01*
X144910626Y-126511632D01*
X145103500Y-126624338D01*
X145108325Y-126626180D01*
X145108326Y-126626181D01*
X145139384Y-126638041D01*
X145312192Y-126704030D01*
X145317260Y-126705061D01*
X145317263Y-126705062D01*
X145412362Y-126724410D01*
X145531097Y-126748567D01*
X145536272Y-126748757D01*
X145536274Y-126748757D01*
X145749173Y-126756564D01*
X145749177Y-126756564D01*
X145754337Y-126756753D01*
X145759457Y-126756097D01*
X145759459Y-126756097D01*
X145970788Y-126729025D01*
X145970789Y-126729025D01*
X145975916Y-126728368D01*
X145980866Y-126726883D01*
X146184929Y-126665661D01*
X146184934Y-126665659D01*
X146189884Y-126664174D01*
X146390494Y-126565896D01*
X146572360Y-126436173D01*
X146641578Y-126367197D01*
X146676394Y-126332502D01*
X146730596Y-126278489D01*
X146766341Y-126228745D01*
X146860953Y-126097077D01*
X146862276Y-126098028D01*
X146909145Y-126054857D01*
X146979080Y-126042625D01*
X147044526Y-126070144D01*
X147072375Y-126101994D01*
X147132487Y-126200088D01*
X147278750Y-126368938D01*
X147450626Y-126511632D01*
X147643500Y-126624338D01*
X147648325Y-126626180D01*
X147648326Y-126626181D01*
X147679384Y-126638041D01*
X147852192Y-126704030D01*
X147857260Y-126705061D01*
X147857263Y-126705062D01*
X147952362Y-126724410D01*
X148071097Y-126748567D01*
X148076272Y-126748757D01*
X148076274Y-126748757D01*
X148289173Y-126756564D01*
X148289177Y-126756564D01*
X148294337Y-126756753D01*
X148299457Y-126756097D01*
X148299459Y-126756097D01*
X148510788Y-126729025D01*
X148510789Y-126729025D01*
X148515916Y-126728368D01*
X148520866Y-126726883D01*
X148724929Y-126665661D01*
X148724934Y-126665659D01*
X148729884Y-126664174D01*
X148930494Y-126565896D01*
X149112360Y-126436173D01*
X149181578Y-126367197D01*
X149216394Y-126332502D01*
X149270596Y-126278489D01*
X149306341Y-126228745D01*
X149400953Y-126097077D01*
X149402276Y-126098028D01*
X149449145Y-126054857D01*
X149519080Y-126042625D01*
X149584526Y-126070144D01*
X149612375Y-126101994D01*
X149672487Y-126200088D01*
X149818750Y-126368938D01*
X149990626Y-126511632D01*
X150183500Y-126624338D01*
X150188325Y-126626180D01*
X150188326Y-126626181D01*
X150219384Y-126638041D01*
X150392192Y-126704030D01*
X150397260Y-126705061D01*
X150397263Y-126705062D01*
X150492362Y-126724410D01*
X150611097Y-126748567D01*
X150616272Y-126748757D01*
X150616274Y-126748757D01*
X150829173Y-126756564D01*
X150829177Y-126756564D01*
X150834337Y-126756753D01*
X150839457Y-126756097D01*
X150839459Y-126756097D01*
X151050788Y-126729025D01*
X151050789Y-126729025D01*
X151055916Y-126728368D01*
X151060866Y-126726883D01*
X151264929Y-126665661D01*
X151264934Y-126665659D01*
X151269884Y-126664174D01*
X151470494Y-126565896D01*
X151652360Y-126436173D01*
X151721578Y-126367197D01*
X151756394Y-126332502D01*
X151810596Y-126278489D01*
X151846341Y-126228745D01*
X151940953Y-126097077D01*
X151942140Y-126097930D01*
X151989460Y-126054362D01*
X152059397Y-126042145D01*
X152124838Y-126069678D01*
X152152666Y-126101511D01*
X152210194Y-126195388D01*
X152216277Y-126203699D01*
X152355713Y-126364667D01*
X152363080Y-126371883D01*
X152526934Y-126507916D01*
X152535381Y-126513831D01*
X152719256Y-126621279D01*
X152728542Y-126625729D01*
X152927501Y-126701703D01*
X152937399Y-126704579D01*
X153040750Y-126725606D01*
X153054799Y-126724410D01*
X153058500Y-126714065D01*
X153058500Y-121538102D01*
X153054582Y-121524758D01*
X153040306Y-121522771D01*
X153001824Y-121528660D01*
X152991788Y-121531051D01*
X152789368Y-121597212D01*
X152779859Y-121601209D01*
X152590963Y-121699542D01*
X152582238Y-121705036D01*
X152411933Y-121832905D01*
X152404226Y-121839748D01*
X152257090Y-121993717D01*
X152250609Y-122001722D01*
X152145998Y-122155074D01*
X152091087Y-122200076D01*
X152020562Y-122208247D01*
X151956815Y-122176993D01*
X151936118Y-122152509D01*
X151855322Y-122027617D01*
X151855320Y-122027614D01*
X151852514Y-122023277D01*
X151702170Y-121858051D01*
X151698119Y-121854852D01*
X151698115Y-121854848D01*
X151530914Y-121722800D01*
X151530910Y-121722798D01*
X151526859Y-121719598D01*
X151490528Y-121699542D01*
X151474636Y-121690769D01*
X151331289Y-121611638D01*
X151326420Y-121609914D01*
X151326416Y-121609912D01*
X151125587Y-121538795D01*
X151125583Y-121538794D01*
X151120712Y-121537069D01*
X151115619Y-121536162D01*
X151115616Y-121536161D01*
X150905873Y-121498800D01*
X150905867Y-121498799D01*
X150900784Y-121497894D01*
X150826952Y-121496992D01*
X150682581Y-121495228D01*
X150682579Y-121495228D01*
X150677411Y-121495165D01*
X150456591Y-121528955D01*
X150244256Y-121598357D01*
X150046107Y-121701507D01*
X150041974Y-121704610D01*
X150041971Y-121704612D01*
X150017747Y-121722800D01*
X149867465Y-121835635D01*
X149713129Y-121997138D01*
X149605704Y-122154618D01*
X149605398Y-122155066D01*
X149550487Y-122200069D01*
X149479962Y-122208240D01*
X149416215Y-122176986D01*
X149395518Y-122152502D01*
X149314926Y-122027926D01*
X149308636Y-122019757D01*
X149165306Y-121862240D01*
X149157773Y-121855215D01*
X148990639Y-121723222D01*
X148982052Y-121717517D01*
X148795617Y-121614599D01*
X148786205Y-121610369D01*
X148585459Y-121539280D01*
X148575488Y-121536646D01*
X148504337Y-121523972D01*
X148491040Y-121525432D01*
X148486500Y-121539989D01*
X148486500Y-122983000D01*
X148466498Y-123051121D01*
X148412842Y-123097614D01*
X148360500Y-123109000D01*
X148104500Y-123109000D01*
X148036379Y-123088998D01*
X147989886Y-123035342D01*
X147978500Y-122983000D01*
X147978500Y-121538102D01*
X147974582Y-121524758D01*
X147960306Y-121522771D01*
X147921824Y-121528660D01*
X147911788Y-121531051D01*
X147709368Y-121597212D01*
X147699859Y-121601209D01*
X147510963Y-121699542D01*
X147502238Y-121705036D01*
X147331933Y-121832905D01*
X147324226Y-121839748D01*
X147177090Y-121993717D01*
X147170609Y-122001722D01*
X147065998Y-122155074D01*
X147011087Y-122200076D01*
X146940562Y-122208247D01*
X146876815Y-122176993D01*
X146856118Y-122152509D01*
X146775322Y-122027617D01*
X146775320Y-122027614D01*
X146772514Y-122023277D01*
X146622170Y-121858051D01*
X146618119Y-121854852D01*
X146618115Y-121854848D01*
X146450914Y-121722800D01*
X146450910Y-121722798D01*
X146446859Y-121719598D01*
X146410528Y-121699542D01*
X146394636Y-121690769D01*
X146251289Y-121611638D01*
X146246420Y-121609914D01*
X146246416Y-121609912D01*
X146045587Y-121538795D01*
X146045583Y-121538794D01*
X146040712Y-121537069D01*
X146035619Y-121536162D01*
X146035616Y-121536161D01*
X145825873Y-121498800D01*
X145825867Y-121498799D01*
X145820784Y-121497894D01*
X145746952Y-121496992D01*
X145602581Y-121495228D01*
X145602579Y-121495228D01*
X145597411Y-121495165D01*
X145376591Y-121528955D01*
X145164256Y-121598357D01*
X144966107Y-121701507D01*
X144961974Y-121704610D01*
X144961971Y-121704612D01*
X144937747Y-121722800D01*
X144787465Y-121835635D01*
X144633129Y-121997138D01*
X144525701Y-122154621D01*
X144470793Y-122199621D01*
X144400268Y-122207792D01*
X144336521Y-122176538D01*
X144315824Y-122152054D01*
X144235322Y-122027617D01*
X144235320Y-122027614D01*
X144232514Y-122023277D01*
X144082170Y-121858051D01*
X144078119Y-121854852D01*
X144078115Y-121854848D01*
X143910914Y-121722800D01*
X143910910Y-121722798D01*
X143906859Y-121719598D01*
X143870528Y-121699542D01*
X143854636Y-121690769D01*
X143711289Y-121611638D01*
X143706420Y-121609914D01*
X143706416Y-121609912D01*
X143505587Y-121538795D01*
X143505583Y-121538794D01*
X143500712Y-121537069D01*
X143495619Y-121536162D01*
X143495616Y-121536161D01*
X143285873Y-121498800D01*
X143285867Y-121498799D01*
X143280784Y-121497894D01*
X143206952Y-121496992D01*
X143062581Y-121495228D01*
X143062579Y-121495228D01*
X143057411Y-121495165D01*
X142836591Y-121528955D01*
X142624256Y-121598357D01*
X142426107Y-121701507D01*
X142421974Y-121704610D01*
X142421971Y-121704612D01*
X142397747Y-121722800D01*
X142247465Y-121835635D01*
X142093129Y-121997138D01*
X141985701Y-122154621D01*
X141930793Y-122199621D01*
X141860268Y-122207792D01*
X141796521Y-122176538D01*
X141775824Y-122152054D01*
X141695322Y-122027617D01*
X141695320Y-122027614D01*
X141692514Y-122023277D01*
X141542170Y-121858051D01*
X141538119Y-121854852D01*
X141538115Y-121854848D01*
X141370914Y-121722800D01*
X141370910Y-121722798D01*
X141366859Y-121719598D01*
X141330528Y-121699542D01*
X141314636Y-121690769D01*
X141171289Y-121611638D01*
X141166420Y-121609914D01*
X141166416Y-121609912D01*
X140965587Y-121538795D01*
X140965583Y-121538794D01*
X140960712Y-121537069D01*
X140955619Y-121536162D01*
X140955616Y-121536161D01*
X140745873Y-121498800D01*
X140745867Y-121498799D01*
X140740784Y-121497894D01*
X140666952Y-121496992D01*
X140522581Y-121495228D01*
X140522579Y-121495228D01*
X140517411Y-121495165D01*
X140296591Y-121528955D01*
X140084256Y-121598357D01*
X139886107Y-121701507D01*
X139881974Y-121704610D01*
X139881971Y-121704612D01*
X139857747Y-121722800D01*
X139707465Y-121835635D01*
X139553129Y-121997138D01*
X139445701Y-122154621D01*
X139390793Y-122199621D01*
X139320268Y-122207792D01*
X139256521Y-122176538D01*
X139235824Y-122152054D01*
X139155322Y-122027617D01*
X139155320Y-122027614D01*
X139152514Y-122023277D01*
X139002170Y-121858051D01*
X138998119Y-121854852D01*
X138998115Y-121854848D01*
X138830914Y-121722800D01*
X138830910Y-121722798D01*
X138826859Y-121719598D01*
X138790528Y-121699542D01*
X138774636Y-121690769D01*
X138631289Y-121611638D01*
X138626420Y-121609914D01*
X138626416Y-121609912D01*
X138425587Y-121538795D01*
X138425583Y-121538794D01*
X138420712Y-121537069D01*
X138415619Y-121536162D01*
X138415616Y-121536161D01*
X138205873Y-121498800D01*
X138205867Y-121498799D01*
X138200784Y-121497894D01*
X138126952Y-121496992D01*
X137982581Y-121495228D01*
X137982579Y-121495228D01*
X137977411Y-121495165D01*
X137756591Y-121528955D01*
X137544256Y-121598357D01*
X137346107Y-121701507D01*
X137341974Y-121704610D01*
X137341971Y-121704612D01*
X137317747Y-121722800D01*
X137167465Y-121835635D01*
X137013129Y-121997138D01*
X136887243Y-122181680D01*
X136793188Y-122384305D01*
X136733489Y-122599570D01*
X136709751Y-122821695D01*
X123609841Y-122821695D01*
X123396066Y-122760800D01*
X123391824Y-122760196D01*
X123391818Y-122760195D01*
X123191334Y-122731662D01*
X123124943Y-122722213D01*
X122981089Y-122721460D01*
X122855377Y-122720802D01*
X122855371Y-122720802D01*
X122851091Y-122720780D01*
X122846847Y-122721339D01*
X122846843Y-122721339D01*
X122727802Y-122737011D01*
X122579578Y-122756525D01*
X122575438Y-122757658D01*
X122575436Y-122757658D01*
X122502508Y-122777609D01*
X122315428Y-122828788D01*
X122311480Y-122830472D01*
X122067482Y-122934546D01*
X122067478Y-122934548D01*
X122063530Y-122936232D01*
X122043625Y-122948145D01*
X121832225Y-123074664D01*
X121832221Y-123074667D01*
X121828543Y-123076868D01*
X121614818Y-123248094D01*
X121525059Y-123342680D01*
X121432099Y-123440640D01*
X121426308Y-123446742D01*
X121266502Y-123669136D01*
X121138357Y-123911161D01*
X121136885Y-123915184D01*
X121136883Y-123915188D01*
X121056214Y-124135625D01*
X121044243Y-124168337D01*
X120985904Y-124435907D01*
X120964417Y-124708918D01*
X120486000Y-124708918D01*
X120486000Y-76708918D01*
X120964417Y-76708918D01*
X120964834Y-76716156D01*
X120980182Y-76982320D01*
X121032905Y-77251053D01*
X121034292Y-77255103D01*
X121034293Y-77255108D01*
X121101618Y-77451747D01*
X121121612Y-77510144D01*
X121152637Y-77571830D01*
X121220337Y-77706437D01*
X121244660Y-77754799D01*
X121247086Y-77758328D01*
X121247089Y-77758334D01*
X121397343Y-77976953D01*
X121399774Y-77980490D01*
X121402661Y-77983663D01*
X121402662Y-77983664D01*
X121465318Y-78052522D01*
X121584082Y-78183043D01*
X121794175Y-78358707D01*
X121797816Y-78360991D01*
X122022524Y-78501951D01*
X122022528Y-78501953D01*
X122026164Y-78504234D01*
X122094044Y-78534883D01*
X122271845Y-78615164D01*
X122271849Y-78615166D01*
X122275757Y-78616930D01*
X122279877Y-78618150D01*
X122279876Y-78618150D01*
X122534223Y-78693491D01*
X122534227Y-78693492D01*
X122538336Y-78694709D01*
X122542570Y-78695357D01*
X122542575Y-78695358D01*
X122804798Y-78735483D01*
X122804800Y-78735483D01*
X122809040Y-78736132D01*
X122948412Y-78738322D01*
X123078571Y-78740367D01*
X123078577Y-78740367D01*
X123082862Y-78740434D01*
X123354735Y-78707534D01*
X123619627Y-78638041D01*
X123623587Y-78636401D01*
X123623592Y-78636399D01*
X123812696Y-78558069D01*
X123872636Y-78533241D01*
X124109082Y-78395073D01*
X124324589Y-78226094D01*
X124366309Y-78183043D01*
X124492792Y-78052522D01*
X124515169Y-78029431D01*
X124517702Y-78025983D01*
X124517706Y-78025978D01*
X124674757Y-77812178D01*
X124677295Y-77808723D01*
X124705234Y-77757266D01*
X124805918Y-77571830D01*
X124805919Y-77571828D01*
X124807968Y-77568054D01*
X124864764Y-77417747D01*
X124903251Y-77315895D01*
X124903252Y-77315891D01*
X124904769Y-77311877D01*
X124934207Y-77183345D01*
X124964949Y-77049117D01*
X124964950Y-77049113D01*
X124965907Y-77044933D01*
X124968943Y-77010923D01*
X124990031Y-76774627D01*
X124990031Y-76774625D01*
X124990251Y-76772161D01*
X124990693Y-76730000D01*
X124989190Y-76707954D01*
X124972359Y-76461055D01*
X124972358Y-76461049D01*
X124972067Y-76456778D01*
X124916532Y-76188612D01*
X124825117Y-75930465D01*
X124699513Y-75687112D01*
X124689540Y-75672921D01*
X124565199Y-75496002D01*
X124542045Y-75463057D01*
X124355625Y-75262445D01*
X124352310Y-75259731D01*
X124352306Y-75259728D01*
X124147023Y-75091706D01*
X124143705Y-75088990D01*
X123910204Y-74945901D01*
X123906268Y-74944173D01*
X123663373Y-74837549D01*
X123663369Y-74837548D01*
X123659445Y-74835825D01*
X123396066Y-74760800D01*
X123391824Y-74760196D01*
X123391818Y-74760195D01*
X123181167Y-74730215D01*
X123124943Y-74722213D01*
X122981089Y-74721460D01*
X122855377Y-74720802D01*
X122855371Y-74720802D01*
X122851091Y-74720780D01*
X122846847Y-74721339D01*
X122846843Y-74721339D01*
X122728874Y-74736870D01*
X122579578Y-74756525D01*
X122575438Y-74757658D01*
X122575436Y-74757658D01*
X122558117Y-74762396D01*
X122315428Y-74828788D01*
X122311480Y-74830472D01*
X122067482Y-74934546D01*
X122067478Y-74934548D01*
X122063530Y-74936232D01*
X122043625Y-74948145D01*
X121832225Y-75074664D01*
X121832221Y-75074667D01*
X121828543Y-75076868D01*
X121614818Y-75248094D01*
X121426308Y-75446742D01*
X121266502Y-75669136D01*
X121138357Y-75911161D01*
X121136885Y-75915184D01*
X121136883Y-75915188D01*
X121045714Y-76164317D01*
X121044243Y-76168337D01*
X120985904Y-76435907D01*
X120985568Y-76440177D01*
X120970706Y-76629017D01*
X120964417Y-76708918D01*
X120486000Y-76708918D01*
X120486000Y-74364500D01*
X120506002Y-74296379D01*
X120559658Y-74249886D01*
X120612000Y-74238500D01*
X137480494Y-74238500D01*
X137548615Y-74258502D01*
G37*
%TD.AperFunction*%
%TA.AperFunction,Conductor*%
G36*
X127089646Y-106463502D02*
G01*
X127136139Y-106517158D01*
X127146243Y-106587432D01*
X127118610Y-106649815D01*
X127109255Y-106661124D01*
X127107212Y-106663593D01*
X127099222Y-106672373D01*
X126461791Y-107309804D01*
X126399479Y-107343830D01*
X126328664Y-107338765D01*
X126304377Y-107322115D01*
X126276117Y-107314000D01*
X124829500Y-107314000D01*
X124761379Y-107293998D01*
X124714886Y-107240342D01*
X124703500Y-107188000D01*
X124703500Y-106932000D01*
X124723502Y-106863879D01*
X124777158Y-106817386D01*
X124829500Y-106806000D01*
X126275844Y-106806000D01*
X126289375Y-106802027D01*
X126290680Y-106792947D01*
X126248714Y-106625875D01*
X126243727Y-106611226D01*
X126245805Y-106610519D01*
X126238155Y-106549256D01*
X126268842Y-106485234D01*
X126329270Y-106447966D01*
X126362518Y-106443500D01*
X127021525Y-106443500D01*
X127089646Y-106463502D01*
G37*
%TD.AperFunction*%
%TA.AperFunction,Conductor*%
G36*
X141542551Y-90529578D02*
G01*
X141559016Y-90531746D01*
X141559020Y-90531746D01*
X141564586Y-90532479D01*
X141645989Y-90528640D01*
X141651924Y-90528500D01*
X144564365Y-90528500D01*
X144573793Y-90529267D01*
X144573822Y-90528876D01*
X144579419Y-90529287D01*
X144584958Y-90530194D01*
X144590571Y-90530106D01*
X144590574Y-90530106D01*
X144691764Y-90528516D01*
X144693743Y-90528500D01*
X167663000Y-90528500D01*
X167731121Y-90548502D01*
X167777614Y-90602158D01*
X167789000Y-90654500D01*
X167789000Y-90707450D01*
X167774236Y-90765158D01*
X167771885Y-90768295D01*
X167720755Y-90904684D01*
X167714000Y-90966866D01*
X167714000Y-92380500D01*
X167693998Y-92448621D01*
X167640342Y-92495114D01*
X167588000Y-92506500D01*
X126335915Y-92506500D01*
X126267794Y-92486498D01*
X126221301Y-92432842D01*
X126211197Y-92362568D01*
X126220896Y-92331317D01*
X126220269Y-92331069D01*
X126225969Y-92316672D01*
X126287877Y-92112910D01*
X126290055Y-92102837D01*
X126291486Y-92091962D01*
X126289275Y-92077778D01*
X126276117Y-92074000D01*
X124829500Y-92074000D01*
X124761379Y-92053998D01*
X124714886Y-92000342D01*
X124703500Y-91948000D01*
X124703500Y-91692000D01*
X124723502Y-91623879D01*
X124777158Y-91577386D01*
X124829500Y-91566000D01*
X126275844Y-91566000D01*
X126289375Y-91562027D01*
X126290680Y-91552947D01*
X126248714Y-91385875D01*
X126245394Y-91376124D01*
X126160472Y-91180814D01*
X126155605Y-91171739D01*
X126039926Y-90992926D01*
X126033636Y-90984757D01*
X125890306Y-90827240D01*
X125882773Y-90820215D01*
X125798147Y-90753382D01*
X125757084Y-90695465D01*
X125753852Y-90624542D01*
X125789477Y-90563130D01*
X125852649Y-90530728D01*
X125876239Y-90528500D01*
X141526104Y-90528500D01*
X141542551Y-90529578D01*
G37*
%TD.AperFunction*%
%TD*%
M02*
