%TF.GenerationSoftware,KiCad,Pcbnew,6.0.7+dfsg-1~bpo11+1*%
%TF.CreationDate,2022-10-12T23:40:47+02:00*%
%TF.ProjectId,rib6out_01,72696236-6f75-4745-9f30-312e6b696361,rev?*%
%TF.SameCoordinates,Original*%
%TF.FileFunction,Plated,1,2,PTH,Drill*%
%TF.FilePolarity,Positive*%
%FSLAX46Y46*%
G04 Gerber Fmt 4.6, Leading zero omitted, Abs format (unit mm)*
G04 Created by KiCad (PCBNEW 6.0.7+dfsg-1~bpo11+1) date 2022-10-12 23:40:47*
%MOMM*%
%LPD*%
G01*
G04 APERTURE LIST*
%TA.AperFunction,ViaDrill*%
%ADD10C,0.400000*%
%TD*%
%TA.AperFunction,ViaDrill*%
%ADD11C,0.800000*%
%TD*%
%TA.AperFunction,ComponentDrill*%
%ADD12C,1.000000*%
%TD*%
%TA.AperFunction,ComponentDrill*%
%ADD13C,1.400000*%
%TD*%
G04 APERTURE END LIST*
D10*
X128000000Y-68000000D03*
X128650000Y-97420000D03*
X130150000Y-91850000D03*
X133910000Y-73310000D03*
X136000000Y-117000000D03*
X136500000Y-105000000D03*
X137770000Y-97530000D03*
X139150000Y-91870000D03*
X147050000Y-97560000D03*
X147980000Y-91870000D03*
X148530000Y-112760000D03*
X148550000Y-102930000D03*
X149760000Y-101870000D03*
X149810000Y-112720000D03*
X151090000Y-112000000D03*
X152320000Y-111210000D03*
X152360000Y-97560000D03*
X153000000Y-69000000D03*
X153615000Y-97875000D03*
X154860000Y-98820000D03*
X155500000Y-105000000D03*
X156330000Y-91850000D03*
X156830000Y-111200000D03*
X158035000Y-111995000D03*
X159350000Y-112730000D03*
X160670000Y-113270000D03*
X161740000Y-96090000D03*
X164840000Y-91840000D03*
X165500000Y-105000000D03*
X170460000Y-96120000D03*
X173400000Y-91850000D03*
X178000000Y-68000000D03*
D11*
X127070000Y-74910000D03*
X127090000Y-78020000D03*
X135220000Y-74890000D03*
X135290000Y-77980000D03*
X143460000Y-77980000D03*
X143490000Y-74990000D03*
X151350000Y-75020000D03*
X151350000Y-78000000D03*
X159300000Y-75030000D03*
X159350000Y-78050000D03*
X167400000Y-75100000D03*
X167400000Y-78050000D03*
D12*
%TO.C,J1*%
X144110000Y-115120000D03*
X144110000Y-117660000D03*
X146650000Y-115120000D03*
X146650000Y-117660000D03*
X149190000Y-115120000D03*
X149190000Y-117660000D03*
X151730000Y-115120000D03*
X151730000Y-117660000D03*
X154270000Y-115120000D03*
X154270000Y-117660000D03*
X156810000Y-115120000D03*
X156810000Y-117660000D03*
X159350000Y-115120000D03*
X159350000Y-117660000D03*
X161890000Y-115120000D03*
X161890000Y-117660000D03*
D13*
%TO.C,J2*%
X130140000Y-70777500D03*
X135220000Y-70777500D03*
X140300000Y-70777500D03*
X145380000Y-70777500D03*
X150460000Y-70777500D03*
X155540000Y-70777500D03*
X160620000Y-70777500D03*
X165700000Y-70777500D03*
X170780000Y-70777500D03*
X175860000Y-70777500D03*
M02*
