%TF.GenerationSoftware,KiCad,Pcbnew,6.0.7+dfsg-1~bpo11+1*%
%TF.CreationDate,2022-10-12T23:41:27+02:00*%
%TF.ProjectId,rib6out_01,72696236-6f75-4745-9f30-312e6b696361,rev?*%
%TF.SameCoordinates,Original*%
%TF.FileFunction,Legend,Top*%
%TF.FilePolarity,Positive*%
%FSLAX46Y46*%
G04 Gerber Fmt 4.6, Leading zero omitted, Abs format (unit mm)*
G04 Created by KiCad (PCBNEW 6.0.7+dfsg-1~bpo11+1) date 2022-10-12 23:41:27*
%MOMM*%
%LPD*%
G01*
G04 APERTURE LIST*
%ADD10C,0.150000*%
%ADD11C,0.120000*%
G04 APERTURE END LIST*
D10*
X176940476Y-74352380D02*
X176940476Y-73352380D01*
X177511904Y-74352380D01*
X177511904Y-73352380D01*
X177988095Y-74352380D02*
X177988095Y-73352380D01*
X178369047Y-73352380D01*
X178464285Y-73400000D01*
X178511904Y-73447619D01*
X178559523Y-73542857D01*
X178559523Y-73685714D01*
X178511904Y-73780952D01*
X178464285Y-73828571D01*
X178369047Y-73876190D01*
X177988095Y-73876190D01*
X178988095Y-74352380D02*
X178988095Y-73352380D01*
X179559523Y-74352380D01*
X179559523Y-73352380D01*
X178952380Y-112976190D02*
X177952380Y-112976190D01*
X178952380Y-112357142D02*
X178904761Y-112452380D01*
X178857142Y-112500000D01*
X178761904Y-112547619D01*
X178476190Y-112547619D01*
X178380952Y-112500000D01*
X178333333Y-112452380D01*
X178285714Y-112357142D01*
X178285714Y-112214285D01*
X178333333Y-112119047D01*
X178380952Y-112071428D01*
X178476190Y-112023809D01*
X178761904Y-112023809D01*
X178857142Y-112071428D01*
X178904761Y-112119047D01*
X178952380Y-112214285D01*
X178952380Y-112357142D01*
X177952380Y-111738095D02*
X177952380Y-111166666D01*
X178952380Y-111452380D02*
X177952380Y-111452380D01*
X178571428Y-110833333D02*
X178571428Y-110071428D01*
X177952380Y-109738095D02*
X178952380Y-109404761D01*
X177952380Y-109071428D01*
X178904761Y-108357142D02*
X178952380Y-108452380D01*
X178952380Y-108642857D01*
X178904761Y-108738095D01*
X178809523Y-108785714D01*
X178428571Y-108785714D01*
X178333333Y-108738095D01*
X178285714Y-108642857D01*
X178285714Y-108452380D01*
X178333333Y-108357142D01*
X178428571Y-108309523D01*
X178523809Y-108309523D01*
X178619047Y-108785714D01*
X178952380Y-107880952D02*
X178285714Y-107880952D01*
X178476190Y-107880952D02*
X178380952Y-107833333D01*
X178333333Y-107785714D01*
X178285714Y-107690476D01*
X178285714Y-107595238D01*
X178285714Y-107404761D02*
X178285714Y-107023809D01*
X177952380Y-107261904D02*
X178809523Y-107261904D01*
X178904761Y-107214285D01*
X178952380Y-107119047D01*
X178952380Y-107023809D01*
X178904761Y-106309523D02*
X178952380Y-106404761D01*
X178952380Y-106595238D01*
X178904761Y-106690476D01*
X178809523Y-106738095D01*
X178428571Y-106738095D01*
X178333333Y-106690476D01*
X178285714Y-106595238D01*
X178285714Y-106404761D01*
X178333333Y-106309523D01*
X178428571Y-106261904D01*
X178523809Y-106261904D01*
X178619047Y-106738095D01*
X178952380Y-105833333D02*
X177952380Y-105833333D01*
X178333333Y-105833333D02*
X178285714Y-105738095D01*
X178285714Y-105547619D01*
X178333333Y-105452380D01*
X178380952Y-105404761D01*
X178476190Y-105357142D01*
X178761904Y-105357142D01*
X178857142Y-105404761D01*
X178904761Y-105452380D01*
X178952380Y-105547619D01*
X178952380Y-105738095D01*
X178904761Y-105833333D01*
X178952380Y-104928571D02*
X178285714Y-104928571D01*
X178476190Y-104928571D02*
X178380952Y-104880952D01*
X178333333Y-104833333D01*
X178285714Y-104738095D01*
X178285714Y-104642857D01*
X178952380Y-103880952D02*
X178428571Y-103880952D01*
X178333333Y-103928571D01*
X178285714Y-104023809D01*
X178285714Y-104214285D01*
X178333333Y-104309523D01*
X178904761Y-103880952D02*
X178952380Y-103976190D01*
X178952380Y-104214285D01*
X178904761Y-104309523D01*
X178809523Y-104357142D01*
X178714285Y-104357142D01*
X178619047Y-104309523D01*
X178571428Y-104214285D01*
X178571428Y-103976190D01*
X178523809Y-103880952D01*
X178904761Y-103023809D02*
X178952380Y-103119047D01*
X178952380Y-103309523D01*
X178904761Y-103404761D01*
X178809523Y-103452380D01*
X178428571Y-103452380D01*
X178333333Y-103404761D01*
X178285714Y-103309523D01*
X178285714Y-103119047D01*
X178333333Y-103023809D01*
X178428571Y-102976190D01*
X178523809Y-102976190D01*
X178619047Y-103452380D01*
X131595238Y-118952380D02*
X131595238Y-117952380D01*
X132214285Y-118952380D02*
X132119047Y-118904761D01*
X132071428Y-118857142D01*
X132023809Y-118761904D01*
X132023809Y-118476190D01*
X132071428Y-118380952D01*
X132119047Y-118333333D01*
X132214285Y-118285714D01*
X132357142Y-118285714D01*
X132452380Y-118333333D01*
X132500000Y-118380952D01*
X132547619Y-118476190D01*
X132547619Y-118761904D01*
X132500000Y-118857142D01*
X132452380Y-118904761D01*
X132357142Y-118952380D01*
X132214285Y-118952380D01*
X132833333Y-117952380D02*
X133404761Y-117952380D01*
X133119047Y-118952380D02*
X133119047Y-117952380D01*
X133595238Y-117952380D02*
X133928571Y-118952380D01*
X134261904Y-117952380D01*
X134595238Y-118571428D02*
X135357142Y-118571428D01*
X136404761Y-118952380D02*
X136071428Y-118476190D01*
X135833333Y-118952380D02*
X135833333Y-117952380D01*
X136214285Y-117952380D01*
X136309523Y-118000000D01*
X136357142Y-118047619D01*
X136404761Y-118142857D01*
X136404761Y-118285714D01*
X136357142Y-118380952D01*
X136309523Y-118428571D01*
X136214285Y-118476190D01*
X135833333Y-118476190D01*
X136833333Y-118571428D02*
X137595238Y-118571428D01*
X138500000Y-117952380D02*
X138309523Y-117952380D01*
X138214285Y-118000000D01*
X138166666Y-118047619D01*
X138071428Y-118190476D01*
X138023809Y-118380952D01*
X138023809Y-118761904D01*
X138071428Y-118857142D01*
X138119047Y-118904761D01*
X138214285Y-118952380D01*
X138404761Y-118952380D01*
X138500000Y-118904761D01*
X138547619Y-118857142D01*
X138595238Y-118761904D01*
X138595238Y-118523809D01*
X138547619Y-118428571D01*
X138500000Y-118380952D01*
X138404761Y-118333333D01*
X138214285Y-118333333D01*
X138119047Y-118380952D01*
X138071428Y-118428571D01*
X138023809Y-118523809D01*
X139214285Y-117952380D02*
X139404761Y-117952380D01*
X139500000Y-118000000D01*
X139595238Y-118095238D01*
X139642857Y-118285714D01*
X139642857Y-118619047D01*
X139595238Y-118809523D01*
X139500000Y-118904761D01*
X139404761Y-118952380D01*
X139214285Y-118952380D01*
X139119047Y-118904761D01*
X139023809Y-118809523D01*
X138976190Y-118619047D01*
X138976190Y-118285714D01*
X139023809Y-118095238D01*
X139119047Y-118000000D01*
X139214285Y-117952380D01*
X140071428Y-117952380D02*
X140071428Y-118761904D01*
X140119047Y-118857142D01*
X140166666Y-118904761D01*
X140261904Y-118952380D01*
X140452380Y-118952380D01*
X140547619Y-118904761D01*
X140595238Y-118857142D01*
X140642857Y-118761904D01*
X140642857Y-117952380D01*
X140976190Y-117952380D02*
X141547619Y-117952380D01*
X141261904Y-118952380D02*
X141261904Y-117952380D01*
X177014285Y-79452380D02*
X177014285Y-78452380D01*
X177395238Y-78452380D01*
X177490476Y-78500000D01*
X177538095Y-78547619D01*
X177585714Y-78642857D01*
X177585714Y-78785714D01*
X177538095Y-78880952D01*
X177490476Y-78928571D01*
X177395238Y-78976190D01*
X177014285Y-78976190D01*
X178014285Y-79452380D02*
X178014285Y-78452380D01*
X178585714Y-79452380D01*
X178585714Y-78452380D01*
X179061904Y-79452380D02*
X179061904Y-78452380D01*
X179442857Y-78452380D01*
X179538095Y-78500000D01*
X179585714Y-78547619D01*
X179633333Y-78642857D01*
X179633333Y-78785714D01*
X179585714Y-78880952D01*
X179538095Y-78928571D01*
X179442857Y-78976190D01*
X179061904Y-78976190D01*
%TO.C,U7*%
X131948095Y-79642380D02*
X131948095Y-80451904D01*
X131995714Y-80547142D01*
X132043333Y-80594761D01*
X132138571Y-80642380D01*
X132329047Y-80642380D01*
X132424285Y-80594761D01*
X132471904Y-80547142D01*
X132519523Y-80451904D01*
X132519523Y-79642380D01*
X132900476Y-79642380D02*
X133567142Y-79642380D01*
X133138571Y-80642380D01*
%TO.C,Q4*%
X151154761Y-96957619D02*
X151059523Y-96910000D01*
X150964285Y-96814761D01*
X150821428Y-96671904D01*
X150726190Y-96624285D01*
X150630952Y-96624285D01*
X150678571Y-96862380D02*
X150583333Y-96814761D01*
X150488095Y-96719523D01*
X150440476Y-96529047D01*
X150440476Y-96195714D01*
X150488095Y-96005238D01*
X150583333Y-95910000D01*
X150678571Y-95862380D01*
X150869047Y-95862380D01*
X150964285Y-95910000D01*
X151059523Y-96005238D01*
X151107142Y-96195714D01*
X151107142Y-96529047D01*
X151059523Y-96719523D01*
X150964285Y-96814761D01*
X150869047Y-96862380D01*
X150678571Y-96862380D01*
X151964285Y-96195714D02*
X151964285Y-96862380D01*
X151726190Y-95814761D02*
X151488095Y-96529047D01*
X152107142Y-96529047D01*
%TO.C,Q1*%
X176784761Y-97157619D02*
X176689523Y-97110000D01*
X176594285Y-97014761D01*
X176451428Y-96871904D01*
X176356190Y-96824285D01*
X176260952Y-96824285D01*
X176308571Y-97062380D02*
X176213333Y-97014761D01*
X176118095Y-96919523D01*
X176070476Y-96729047D01*
X176070476Y-96395714D01*
X176118095Y-96205238D01*
X176213333Y-96110000D01*
X176308571Y-96062380D01*
X176499047Y-96062380D01*
X176594285Y-96110000D01*
X176689523Y-96205238D01*
X176737142Y-96395714D01*
X176737142Y-96729047D01*
X176689523Y-96919523D01*
X176594285Y-97014761D01*
X176499047Y-97062380D01*
X176308571Y-97062380D01*
X177689523Y-97062380D02*
X177118095Y-97062380D01*
X177403809Y-97062380D02*
X177403809Y-96062380D01*
X177308571Y-96205238D01*
X177213333Y-96300476D01*
X177118095Y-96348095D01*
%TO.C,R15*%
X127452380Y-95862857D02*
X126976190Y-96196190D01*
X127452380Y-96434285D02*
X126452380Y-96434285D01*
X126452380Y-96053333D01*
X126500000Y-95958095D01*
X126547619Y-95910476D01*
X126642857Y-95862857D01*
X126785714Y-95862857D01*
X126880952Y-95910476D01*
X126928571Y-95958095D01*
X126976190Y-96053333D01*
X126976190Y-96434285D01*
X127452380Y-94910476D02*
X127452380Y-95481904D01*
X127452380Y-95196190D02*
X126452380Y-95196190D01*
X126595238Y-95291428D01*
X126690476Y-95386666D01*
X126738095Y-95481904D01*
X126452380Y-94005714D02*
X126452380Y-94481904D01*
X126928571Y-94529523D01*
X126880952Y-94481904D01*
X126833333Y-94386666D01*
X126833333Y-94148571D01*
X126880952Y-94053333D01*
X126928571Y-94005714D01*
X127023809Y-93958095D01*
X127261904Y-93958095D01*
X127357142Y-94005714D01*
X127404761Y-94053333D01*
X127452380Y-94148571D01*
X127452380Y-94386666D01*
X127404761Y-94481904D01*
X127357142Y-94529523D01*
%TO.C,D18*%
X142832380Y-76054285D02*
X141832380Y-76054285D01*
X141832380Y-75816190D01*
X141880000Y-75673333D01*
X141975238Y-75578095D01*
X142070476Y-75530476D01*
X142260952Y-75482857D01*
X142403809Y-75482857D01*
X142594285Y-75530476D01*
X142689523Y-75578095D01*
X142784761Y-75673333D01*
X142832380Y-75816190D01*
X142832380Y-76054285D01*
X142832380Y-74530476D02*
X142832380Y-75101904D01*
X142832380Y-74816190D02*
X141832380Y-74816190D01*
X141975238Y-74911428D01*
X142070476Y-75006666D01*
X142118095Y-75101904D01*
X142260952Y-73959047D02*
X142213333Y-74054285D01*
X142165714Y-74101904D01*
X142070476Y-74149523D01*
X142022857Y-74149523D01*
X141927619Y-74101904D01*
X141880000Y-74054285D01*
X141832380Y-73959047D01*
X141832380Y-73768571D01*
X141880000Y-73673333D01*
X141927619Y-73625714D01*
X142022857Y-73578095D01*
X142070476Y-73578095D01*
X142165714Y-73625714D01*
X142213333Y-73673333D01*
X142260952Y-73768571D01*
X142260952Y-73959047D01*
X142308571Y-74054285D01*
X142356190Y-74101904D01*
X142451428Y-74149523D01*
X142641904Y-74149523D01*
X142737142Y-74101904D01*
X142784761Y-74054285D01*
X142832380Y-73959047D01*
X142832380Y-73768571D01*
X142784761Y-73673333D01*
X142737142Y-73625714D01*
X142641904Y-73578095D01*
X142451428Y-73578095D01*
X142356190Y-73625714D01*
X142308571Y-73673333D01*
X142260952Y-73768571D01*
%TO.C,D4*%
X159691904Y-94742380D02*
X159691904Y-93742380D01*
X159930000Y-93742380D01*
X160072857Y-93790000D01*
X160168095Y-93885238D01*
X160215714Y-93980476D01*
X160263333Y-94170952D01*
X160263333Y-94313809D01*
X160215714Y-94504285D01*
X160168095Y-94599523D01*
X160072857Y-94694761D01*
X159930000Y-94742380D01*
X159691904Y-94742380D01*
X161120476Y-94075714D02*
X161120476Y-94742380D01*
X160882380Y-93694761D02*
X160644285Y-94409047D01*
X161263333Y-94409047D01*
%TO.C,R6*%
X170942380Y-90966666D02*
X170466190Y-91300000D01*
X170942380Y-91538095D02*
X169942380Y-91538095D01*
X169942380Y-91157142D01*
X169990000Y-91061904D01*
X170037619Y-91014285D01*
X170132857Y-90966666D01*
X170275714Y-90966666D01*
X170370952Y-91014285D01*
X170418571Y-91061904D01*
X170466190Y-91157142D01*
X170466190Y-91538095D01*
X169942380Y-90109523D02*
X169942380Y-90300000D01*
X169990000Y-90395238D01*
X170037619Y-90442857D01*
X170180476Y-90538095D01*
X170370952Y-90585714D01*
X170751904Y-90585714D01*
X170847142Y-90538095D01*
X170894761Y-90490476D01*
X170942380Y-90395238D01*
X170942380Y-90204761D01*
X170894761Y-90109523D01*
X170847142Y-90061904D01*
X170751904Y-90014285D01*
X170513809Y-90014285D01*
X170418571Y-90061904D01*
X170370952Y-90109523D01*
X170323333Y-90204761D01*
X170323333Y-90395238D01*
X170370952Y-90490476D01*
X170418571Y-90538095D01*
X170513809Y-90585714D01*
%TO.C,R12*%
X154032380Y-91592857D02*
X153556190Y-91926190D01*
X154032380Y-92164285D02*
X153032380Y-92164285D01*
X153032380Y-91783333D01*
X153080000Y-91688095D01*
X153127619Y-91640476D01*
X153222857Y-91592857D01*
X153365714Y-91592857D01*
X153460952Y-91640476D01*
X153508571Y-91688095D01*
X153556190Y-91783333D01*
X153556190Y-92164285D01*
X154032380Y-90640476D02*
X154032380Y-91211904D01*
X154032380Y-90926190D02*
X153032380Y-90926190D01*
X153175238Y-91021428D01*
X153270476Y-91116666D01*
X153318095Y-91211904D01*
X153127619Y-90259523D02*
X153080000Y-90211904D01*
X153032380Y-90116666D01*
X153032380Y-89878571D01*
X153080000Y-89783333D01*
X153127619Y-89735714D01*
X153222857Y-89688095D01*
X153318095Y-89688095D01*
X153460952Y-89735714D01*
X154032380Y-90307142D01*
X154032380Y-89688095D01*
%TO.C,D16*%
X158712380Y-76284285D02*
X157712380Y-76284285D01*
X157712380Y-76046190D01*
X157760000Y-75903333D01*
X157855238Y-75808095D01*
X157950476Y-75760476D01*
X158140952Y-75712857D01*
X158283809Y-75712857D01*
X158474285Y-75760476D01*
X158569523Y-75808095D01*
X158664761Y-75903333D01*
X158712380Y-76046190D01*
X158712380Y-76284285D01*
X158712380Y-74760476D02*
X158712380Y-75331904D01*
X158712380Y-75046190D02*
X157712380Y-75046190D01*
X157855238Y-75141428D01*
X157950476Y-75236666D01*
X157998095Y-75331904D01*
X157712380Y-73903333D02*
X157712380Y-74093809D01*
X157760000Y-74189047D01*
X157807619Y-74236666D01*
X157950476Y-74331904D01*
X158140952Y-74379523D01*
X158521904Y-74379523D01*
X158617142Y-74331904D01*
X158664761Y-74284285D01*
X158712380Y-74189047D01*
X158712380Y-73998571D01*
X158664761Y-73903333D01*
X158617142Y-73855714D01*
X158521904Y-73808095D01*
X158283809Y-73808095D01*
X158188571Y-73855714D01*
X158140952Y-73903333D01*
X158093333Y-73998571D01*
X158093333Y-74189047D01*
X158140952Y-74284285D01*
X158188571Y-74331904D01*
X158283809Y-74379523D01*
%TO.C,D17*%
X150862380Y-76284285D02*
X149862380Y-76284285D01*
X149862380Y-76046190D01*
X149910000Y-75903333D01*
X150005238Y-75808095D01*
X150100476Y-75760476D01*
X150290952Y-75712857D01*
X150433809Y-75712857D01*
X150624285Y-75760476D01*
X150719523Y-75808095D01*
X150814761Y-75903333D01*
X150862380Y-76046190D01*
X150862380Y-76284285D01*
X150862380Y-74760476D02*
X150862380Y-75331904D01*
X150862380Y-75046190D02*
X149862380Y-75046190D01*
X150005238Y-75141428D01*
X150100476Y-75236666D01*
X150148095Y-75331904D01*
X149862380Y-74427142D02*
X149862380Y-73760476D01*
X150862380Y-74189047D01*
%TO.C,Q2*%
X168264761Y-96957619D02*
X168169523Y-96910000D01*
X168074285Y-96814761D01*
X167931428Y-96671904D01*
X167836190Y-96624285D01*
X167740952Y-96624285D01*
X167788571Y-96862380D02*
X167693333Y-96814761D01*
X167598095Y-96719523D01*
X167550476Y-96529047D01*
X167550476Y-96195714D01*
X167598095Y-96005238D01*
X167693333Y-95910000D01*
X167788571Y-95862380D01*
X167979047Y-95862380D01*
X168074285Y-95910000D01*
X168169523Y-96005238D01*
X168217142Y-96195714D01*
X168217142Y-96529047D01*
X168169523Y-96719523D01*
X168074285Y-96814761D01*
X167979047Y-96862380D01*
X167788571Y-96862380D01*
X168598095Y-95957619D02*
X168645714Y-95910000D01*
X168740952Y-95862380D01*
X168979047Y-95862380D01*
X169074285Y-95910000D01*
X169121904Y-95957619D01*
X169169523Y-96052857D01*
X169169523Y-96148095D01*
X169121904Y-96290952D01*
X168550476Y-96862380D01*
X169169523Y-96862380D01*
%TO.C,D14*%
X174812380Y-76294285D02*
X173812380Y-76294285D01*
X173812380Y-76056190D01*
X173860000Y-75913333D01*
X173955238Y-75818095D01*
X174050476Y-75770476D01*
X174240952Y-75722857D01*
X174383809Y-75722857D01*
X174574285Y-75770476D01*
X174669523Y-75818095D01*
X174764761Y-75913333D01*
X174812380Y-76056190D01*
X174812380Y-76294285D01*
X174812380Y-74770476D02*
X174812380Y-75341904D01*
X174812380Y-75056190D02*
X173812380Y-75056190D01*
X173955238Y-75151428D01*
X174050476Y-75246666D01*
X174098095Y-75341904D01*
X174145714Y-73913333D02*
X174812380Y-73913333D01*
X173764761Y-74151428D02*
X174479047Y-74389523D01*
X174479047Y-73770476D01*
%TO.C,D19*%
X134282380Y-76174285D02*
X133282380Y-76174285D01*
X133282380Y-75936190D01*
X133330000Y-75793333D01*
X133425238Y-75698095D01*
X133520476Y-75650476D01*
X133710952Y-75602857D01*
X133853809Y-75602857D01*
X134044285Y-75650476D01*
X134139523Y-75698095D01*
X134234761Y-75793333D01*
X134282380Y-75936190D01*
X134282380Y-76174285D01*
X134282380Y-74650476D02*
X134282380Y-75221904D01*
X134282380Y-74936190D02*
X133282380Y-74936190D01*
X133425238Y-75031428D01*
X133520476Y-75126666D01*
X133568095Y-75221904D01*
X134282380Y-74174285D02*
X134282380Y-73983809D01*
X134234761Y-73888571D01*
X134187142Y-73840952D01*
X134044285Y-73745714D01*
X133853809Y-73698095D01*
X133472857Y-73698095D01*
X133377619Y-73745714D01*
X133330000Y-73793333D01*
X133282380Y-73888571D01*
X133282380Y-74079047D01*
X133330000Y-74174285D01*
X133377619Y-74221904D01*
X133472857Y-74269523D01*
X133710952Y-74269523D01*
X133806190Y-74221904D01*
X133853809Y-74174285D01*
X133901428Y-74079047D01*
X133901428Y-73888571D01*
X133853809Y-73793333D01*
X133806190Y-73745714D01*
X133710952Y-73698095D01*
%TO.C,D15*%
X166742380Y-76314285D02*
X165742380Y-76314285D01*
X165742380Y-76076190D01*
X165790000Y-75933333D01*
X165885238Y-75838095D01*
X165980476Y-75790476D01*
X166170952Y-75742857D01*
X166313809Y-75742857D01*
X166504285Y-75790476D01*
X166599523Y-75838095D01*
X166694761Y-75933333D01*
X166742380Y-76076190D01*
X166742380Y-76314285D01*
X166742380Y-74790476D02*
X166742380Y-75361904D01*
X166742380Y-75076190D02*
X165742380Y-75076190D01*
X165885238Y-75171428D01*
X165980476Y-75266666D01*
X166028095Y-75361904D01*
X165742380Y-73885714D02*
X165742380Y-74361904D01*
X166218571Y-74409523D01*
X166170952Y-74361904D01*
X166123333Y-74266666D01*
X166123333Y-74028571D01*
X166170952Y-73933333D01*
X166218571Y-73885714D01*
X166313809Y-73838095D01*
X166551904Y-73838095D01*
X166647142Y-73885714D01*
X166694761Y-73933333D01*
X166742380Y-74028571D01*
X166742380Y-74266666D01*
X166694761Y-74361904D01*
X166647142Y-74409523D01*
%TO.C,D11*%
X150892380Y-79174285D02*
X149892380Y-79174285D01*
X149892380Y-78936190D01*
X149940000Y-78793333D01*
X150035238Y-78698095D01*
X150130476Y-78650476D01*
X150320952Y-78602857D01*
X150463809Y-78602857D01*
X150654285Y-78650476D01*
X150749523Y-78698095D01*
X150844761Y-78793333D01*
X150892380Y-78936190D01*
X150892380Y-79174285D01*
X150892380Y-77650476D02*
X150892380Y-78221904D01*
X150892380Y-77936190D02*
X149892380Y-77936190D01*
X150035238Y-78031428D01*
X150130476Y-78126666D01*
X150178095Y-78221904D01*
X150892380Y-76698095D02*
X150892380Y-77269523D01*
X150892380Y-76983809D02*
X149892380Y-76983809D01*
X150035238Y-77079047D01*
X150130476Y-77174285D01*
X150178095Y-77269523D01*
%TO.C,F2*%
X161566666Y-85488571D02*
X161233333Y-85488571D01*
X161233333Y-86012380D02*
X161233333Y-85012380D01*
X161709523Y-85012380D01*
X162042857Y-85107619D02*
X162090476Y-85060000D01*
X162185714Y-85012380D01*
X162423809Y-85012380D01*
X162519047Y-85060000D01*
X162566666Y-85107619D01*
X162614285Y-85202857D01*
X162614285Y-85298095D01*
X162566666Y-85440952D01*
X161995238Y-86012380D01*
X162614285Y-86012380D01*
%TO.C,F3*%
X152686666Y-85218571D02*
X152353333Y-85218571D01*
X152353333Y-85742380D02*
X152353333Y-84742380D01*
X152829523Y-84742380D01*
X153115238Y-84742380D02*
X153734285Y-84742380D01*
X153400952Y-85123333D01*
X153543809Y-85123333D01*
X153639047Y-85170952D01*
X153686666Y-85218571D01*
X153734285Y-85313809D01*
X153734285Y-85551904D01*
X153686666Y-85647142D01*
X153639047Y-85694761D01*
X153543809Y-85742380D01*
X153258095Y-85742380D01*
X153162857Y-85694761D01*
X153115238Y-85647142D01*
%TO.C,Q3*%
X159534761Y-97007619D02*
X159439523Y-96960000D01*
X159344285Y-96864761D01*
X159201428Y-96721904D01*
X159106190Y-96674285D01*
X159010952Y-96674285D01*
X159058571Y-96912380D02*
X158963333Y-96864761D01*
X158868095Y-96769523D01*
X158820476Y-96579047D01*
X158820476Y-96245714D01*
X158868095Y-96055238D01*
X158963333Y-95960000D01*
X159058571Y-95912380D01*
X159249047Y-95912380D01*
X159344285Y-95960000D01*
X159439523Y-96055238D01*
X159487142Y-96245714D01*
X159487142Y-96579047D01*
X159439523Y-96769523D01*
X159344285Y-96864761D01*
X159249047Y-96912380D01*
X159058571Y-96912380D01*
X159820476Y-95912380D02*
X160439523Y-95912380D01*
X160106190Y-96293333D01*
X160249047Y-96293333D01*
X160344285Y-96340952D01*
X160391904Y-96388571D01*
X160439523Y-96483809D01*
X160439523Y-96721904D01*
X160391904Y-96817142D01*
X160344285Y-96864761D01*
X160249047Y-96912380D01*
X159963333Y-96912380D01*
X159868095Y-96864761D01*
X159820476Y-96817142D01*
%TO.C,R3*%
X162392380Y-96036666D02*
X161916190Y-96370000D01*
X162392380Y-96608095D02*
X161392380Y-96608095D01*
X161392380Y-96227142D01*
X161440000Y-96131904D01*
X161487619Y-96084285D01*
X161582857Y-96036666D01*
X161725714Y-96036666D01*
X161820952Y-96084285D01*
X161868571Y-96131904D01*
X161916190Y-96227142D01*
X161916190Y-96608095D01*
X161392380Y-95703333D02*
X161392380Y-95084285D01*
X161773333Y-95417619D01*
X161773333Y-95274761D01*
X161820952Y-95179523D01*
X161868571Y-95131904D01*
X161963809Y-95084285D01*
X162201904Y-95084285D01*
X162297142Y-95131904D01*
X162344761Y-95179523D01*
X162392380Y-95274761D01*
X162392380Y-95560476D01*
X162344761Y-95655714D01*
X162297142Y-95703333D01*
%TO.C,D2*%
X176931904Y-94852380D02*
X176931904Y-93852380D01*
X177170000Y-93852380D01*
X177312857Y-93900000D01*
X177408095Y-93995238D01*
X177455714Y-94090476D01*
X177503333Y-94280952D01*
X177503333Y-94423809D01*
X177455714Y-94614285D01*
X177408095Y-94709523D01*
X177312857Y-94804761D01*
X177170000Y-94852380D01*
X176931904Y-94852380D01*
X177884285Y-93947619D02*
X177931904Y-93900000D01*
X178027142Y-93852380D01*
X178265238Y-93852380D01*
X178360476Y-93900000D01*
X178408095Y-93947619D01*
X178455714Y-94042857D01*
X178455714Y-94138095D01*
X178408095Y-94280952D01*
X177836666Y-94852380D01*
X178455714Y-94852380D01*
%TO.C,F1*%
X170366666Y-85323571D02*
X170033333Y-85323571D01*
X170033333Y-85847380D02*
X170033333Y-84847380D01*
X170509523Y-84847380D01*
X171414285Y-85847380D02*
X170842857Y-85847380D01*
X171128571Y-85847380D02*
X171128571Y-84847380D01*
X171033333Y-84990238D01*
X170938095Y-85085476D01*
X170842857Y-85133095D01*
%TO.C,R18*%
X136752380Y-91552857D02*
X136276190Y-91886190D01*
X136752380Y-92124285D02*
X135752380Y-92124285D01*
X135752380Y-91743333D01*
X135800000Y-91648095D01*
X135847619Y-91600476D01*
X135942857Y-91552857D01*
X136085714Y-91552857D01*
X136180952Y-91600476D01*
X136228571Y-91648095D01*
X136276190Y-91743333D01*
X136276190Y-92124285D01*
X136752380Y-90600476D02*
X136752380Y-91171904D01*
X136752380Y-90886190D02*
X135752380Y-90886190D01*
X135895238Y-90981428D01*
X135990476Y-91076666D01*
X136038095Y-91171904D01*
X136180952Y-90029047D02*
X136133333Y-90124285D01*
X136085714Y-90171904D01*
X135990476Y-90219523D01*
X135942857Y-90219523D01*
X135847619Y-90171904D01*
X135800000Y-90124285D01*
X135752380Y-90029047D01*
X135752380Y-89838571D01*
X135800000Y-89743333D01*
X135847619Y-89695714D01*
X135942857Y-89648095D01*
X135990476Y-89648095D01*
X136085714Y-89695714D01*
X136133333Y-89743333D01*
X136180952Y-89838571D01*
X136180952Y-90029047D01*
X136228571Y-90124285D01*
X136276190Y-90171904D01*
X136371428Y-90219523D01*
X136561904Y-90219523D01*
X136657142Y-90171904D01*
X136704761Y-90124285D01*
X136752380Y-90029047D01*
X136752380Y-89838571D01*
X136704761Y-89743333D01*
X136657142Y-89695714D01*
X136561904Y-89648095D01*
X136371428Y-89648095D01*
X136276190Y-89695714D01*
X136228571Y-89743333D01*
X136180952Y-89838571D01*
%TO.C,U6*%
X140168095Y-79652380D02*
X140168095Y-80461904D01*
X140215714Y-80557142D01*
X140263333Y-80604761D01*
X140358571Y-80652380D01*
X140549047Y-80652380D01*
X140644285Y-80604761D01*
X140691904Y-80557142D01*
X140739523Y-80461904D01*
X140739523Y-79652380D01*
X141644285Y-79652380D02*
X141453809Y-79652380D01*
X141358571Y-79700000D01*
X141310952Y-79747619D01*
X141215714Y-79890476D01*
X141168095Y-80080952D01*
X141168095Y-80461904D01*
X141215714Y-80557142D01*
X141263333Y-80604761D01*
X141358571Y-80652380D01*
X141549047Y-80652380D01*
X141644285Y-80604761D01*
X141691904Y-80557142D01*
X141739523Y-80461904D01*
X141739523Y-80223809D01*
X141691904Y-80128571D01*
X141644285Y-80080952D01*
X141549047Y-80033333D01*
X141358571Y-80033333D01*
X141263333Y-80080952D01*
X141215714Y-80128571D01*
X141168095Y-80223809D01*
%TO.C,R16*%
X139742380Y-91492857D02*
X139266190Y-91826190D01*
X139742380Y-92064285D02*
X138742380Y-92064285D01*
X138742380Y-91683333D01*
X138790000Y-91588095D01*
X138837619Y-91540476D01*
X138932857Y-91492857D01*
X139075714Y-91492857D01*
X139170952Y-91540476D01*
X139218571Y-91588095D01*
X139266190Y-91683333D01*
X139266190Y-92064285D01*
X139742380Y-90540476D02*
X139742380Y-91111904D01*
X139742380Y-90826190D02*
X138742380Y-90826190D01*
X138885238Y-90921428D01*
X138980476Y-91016666D01*
X139028095Y-91111904D01*
X138742380Y-89683333D02*
X138742380Y-89873809D01*
X138790000Y-89969047D01*
X138837619Y-90016666D01*
X138980476Y-90111904D01*
X139170952Y-90159523D01*
X139551904Y-90159523D01*
X139647142Y-90111904D01*
X139694761Y-90064285D01*
X139742380Y-89969047D01*
X139742380Y-89778571D01*
X139694761Y-89683333D01*
X139647142Y-89635714D01*
X139551904Y-89588095D01*
X139313809Y-89588095D01*
X139218571Y-89635714D01*
X139170952Y-89683333D01*
X139123333Y-89778571D01*
X139123333Y-89969047D01*
X139170952Y-90064285D01*
X139218571Y-90111904D01*
X139313809Y-90159523D01*
%TO.C,D7*%
X133921904Y-94732380D02*
X133921904Y-93732380D01*
X134160000Y-93732380D01*
X134302857Y-93780000D01*
X134398095Y-93875238D01*
X134445714Y-93970476D01*
X134493333Y-94160952D01*
X134493333Y-94303809D01*
X134445714Y-94494285D01*
X134398095Y-94589523D01*
X134302857Y-94684761D01*
X134160000Y-94732380D01*
X133921904Y-94732380D01*
X134826666Y-93732380D02*
X135493333Y-93732380D01*
X135064761Y-94732380D01*
%TO.C,R17*%
X130792380Y-91502857D02*
X130316190Y-91836190D01*
X130792380Y-92074285D02*
X129792380Y-92074285D01*
X129792380Y-91693333D01*
X129840000Y-91598095D01*
X129887619Y-91550476D01*
X129982857Y-91502857D01*
X130125714Y-91502857D01*
X130220952Y-91550476D01*
X130268571Y-91598095D01*
X130316190Y-91693333D01*
X130316190Y-92074285D01*
X130792380Y-90550476D02*
X130792380Y-91121904D01*
X130792380Y-90836190D02*
X129792380Y-90836190D01*
X129935238Y-90931428D01*
X130030476Y-91026666D01*
X130078095Y-91121904D01*
X129792380Y-90217142D02*
X129792380Y-89550476D01*
X130792380Y-89979047D01*
%TO.C,D9*%
X166742380Y-78828095D02*
X165742380Y-78828095D01*
X165742380Y-78590000D01*
X165790000Y-78447142D01*
X165885238Y-78351904D01*
X165980476Y-78304285D01*
X166170952Y-78256666D01*
X166313809Y-78256666D01*
X166504285Y-78304285D01*
X166599523Y-78351904D01*
X166694761Y-78447142D01*
X166742380Y-78590000D01*
X166742380Y-78828095D01*
X166742380Y-77780476D02*
X166742380Y-77590000D01*
X166694761Y-77494761D01*
X166647142Y-77447142D01*
X166504285Y-77351904D01*
X166313809Y-77304285D01*
X165932857Y-77304285D01*
X165837619Y-77351904D01*
X165790000Y-77399523D01*
X165742380Y-77494761D01*
X165742380Y-77685238D01*
X165790000Y-77780476D01*
X165837619Y-77828095D01*
X165932857Y-77875714D01*
X166170952Y-77875714D01*
X166266190Y-77828095D01*
X166313809Y-77780476D01*
X166361428Y-77685238D01*
X166361428Y-77494761D01*
X166313809Y-77399523D01*
X166266190Y-77351904D01*
X166170952Y-77304285D01*
%TO.C,D12*%
X142832380Y-79304285D02*
X141832380Y-79304285D01*
X141832380Y-79066190D01*
X141880000Y-78923333D01*
X141975238Y-78828095D01*
X142070476Y-78780476D01*
X142260952Y-78732857D01*
X142403809Y-78732857D01*
X142594285Y-78780476D01*
X142689523Y-78828095D01*
X142784761Y-78923333D01*
X142832380Y-79066190D01*
X142832380Y-79304285D01*
X142832380Y-77780476D02*
X142832380Y-78351904D01*
X142832380Y-78066190D02*
X141832380Y-78066190D01*
X141975238Y-78161428D01*
X142070476Y-78256666D01*
X142118095Y-78351904D01*
X141927619Y-77399523D02*
X141880000Y-77351904D01*
X141832380Y-77256666D01*
X141832380Y-77018571D01*
X141880000Y-76923333D01*
X141927619Y-76875714D01*
X142022857Y-76828095D01*
X142118095Y-76828095D01*
X142260952Y-76875714D01*
X142832380Y-77447142D01*
X142832380Y-76828095D01*
%TO.C,D3*%
X168141904Y-94732380D02*
X168141904Y-93732380D01*
X168380000Y-93732380D01*
X168522857Y-93780000D01*
X168618095Y-93875238D01*
X168665714Y-93970476D01*
X168713333Y-94160952D01*
X168713333Y-94303809D01*
X168665714Y-94494285D01*
X168618095Y-94589523D01*
X168522857Y-94684761D01*
X168380000Y-94732380D01*
X168141904Y-94732380D01*
X169046666Y-93732380D02*
X169665714Y-93732380D01*
X169332380Y-94113333D01*
X169475238Y-94113333D01*
X169570476Y-94160952D01*
X169618095Y-94208571D01*
X169665714Y-94303809D01*
X169665714Y-94541904D01*
X169618095Y-94637142D01*
X169570476Y-94684761D01*
X169475238Y-94732380D01*
X169189523Y-94732380D01*
X169094285Y-94684761D01*
X169046666Y-94637142D01*
%TO.C,J1*%
X163672380Y-116723333D02*
X164386666Y-116723333D01*
X164529523Y-116770952D01*
X164624761Y-116866190D01*
X164672380Y-117009047D01*
X164672380Y-117104285D01*
X164672380Y-115723333D02*
X164672380Y-116294761D01*
X164672380Y-116009047D02*
X163672380Y-116009047D01*
X163815238Y-116104285D01*
X163910476Y-116199523D01*
X163958095Y-116294761D01*
%TO.C,U2*%
X174568095Y-79682380D02*
X174568095Y-80491904D01*
X174615714Y-80587142D01*
X174663333Y-80634761D01*
X174758571Y-80682380D01*
X174949047Y-80682380D01*
X175044285Y-80634761D01*
X175091904Y-80587142D01*
X175139523Y-80491904D01*
X175139523Y-79682380D01*
X175568095Y-79777619D02*
X175615714Y-79730000D01*
X175710952Y-79682380D01*
X175949047Y-79682380D01*
X176044285Y-79730000D01*
X176091904Y-79777619D01*
X176139523Y-79872857D01*
X176139523Y-79968095D01*
X176091904Y-80110952D01*
X175520476Y-80682380D01*
X176139523Y-80682380D01*
%TO.C,D10*%
X158862380Y-79304285D02*
X157862380Y-79304285D01*
X157862380Y-79066190D01*
X157910000Y-78923333D01*
X158005238Y-78828095D01*
X158100476Y-78780476D01*
X158290952Y-78732857D01*
X158433809Y-78732857D01*
X158624285Y-78780476D01*
X158719523Y-78828095D01*
X158814761Y-78923333D01*
X158862380Y-79066190D01*
X158862380Y-79304285D01*
X158862380Y-77780476D02*
X158862380Y-78351904D01*
X158862380Y-78066190D02*
X157862380Y-78066190D01*
X158005238Y-78161428D01*
X158100476Y-78256666D01*
X158148095Y-78351904D01*
X157862380Y-77161428D02*
X157862380Y-77066190D01*
X157910000Y-76970952D01*
X157957619Y-76923333D01*
X158052857Y-76875714D01*
X158243333Y-76828095D01*
X158481428Y-76828095D01*
X158671904Y-76875714D01*
X158767142Y-76923333D01*
X158814761Y-76970952D01*
X158862380Y-77066190D01*
X158862380Y-77161428D01*
X158814761Y-77256666D01*
X158767142Y-77304285D01*
X158671904Y-77351904D01*
X158481428Y-77399523D01*
X158243333Y-77399523D01*
X158052857Y-77351904D01*
X157957619Y-77304285D01*
X157910000Y-77256666D01*
X157862380Y-77161428D01*
%TO.C,F4*%
X144476666Y-85258571D02*
X144143333Y-85258571D01*
X144143333Y-85782380D02*
X144143333Y-84782380D01*
X144619523Y-84782380D01*
X145429047Y-85115714D02*
X145429047Y-85782380D01*
X145190952Y-84734761D02*
X144952857Y-85449047D01*
X145571904Y-85449047D01*
%TO.C,C1*%
X143077142Y-104846666D02*
X143124761Y-104894285D01*
X143172380Y-105037142D01*
X143172380Y-105132380D01*
X143124761Y-105275238D01*
X143029523Y-105370476D01*
X142934285Y-105418095D01*
X142743809Y-105465714D01*
X142600952Y-105465714D01*
X142410476Y-105418095D01*
X142315238Y-105370476D01*
X142220000Y-105275238D01*
X142172380Y-105132380D01*
X142172380Y-105037142D01*
X142220000Y-104894285D01*
X142267619Y-104846666D01*
X143172380Y-103894285D02*
X143172380Y-104465714D01*
X143172380Y-104180000D02*
X142172380Y-104180000D01*
X142315238Y-104275238D01*
X142410476Y-104370476D01*
X142458095Y-104465714D01*
%TO.C,D13*%
X134352380Y-79364285D02*
X133352380Y-79364285D01*
X133352380Y-79126190D01*
X133400000Y-78983333D01*
X133495238Y-78888095D01*
X133590476Y-78840476D01*
X133780952Y-78792857D01*
X133923809Y-78792857D01*
X134114285Y-78840476D01*
X134209523Y-78888095D01*
X134304761Y-78983333D01*
X134352380Y-79126190D01*
X134352380Y-79364285D01*
X134352380Y-77840476D02*
X134352380Y-78411904D01*
X134352380Y-78126190D02*
X133352380Y-78126190D01*
X133495238Y-78221428D01*
X133590476Y-78316666D01*
X133638095Y-78411904D01*
X133352380Y-77507142D02*
X133352380Y-76888095D01*
X133733333Y-77221428D01*
X133733333Y-77078571D01*
X133780952Y-76983333D01*
X133828571Y-76935714D01*
X133923809Y-76888095D01*
X134161904Y-76888095D01*
X134257142Y-76935714D01*
X134304761Y-76983333D01*
X134352380Y-77078571D01*
X134352380Y-77364285D01*
X134304761Y-77459523D01*
X134257142Y-77507142D01*
%TO.C,R8*%
X153982380Y-95826666D02*
X153506190Y-96160000D01*
X153982380Y-96398095D02*
X152982380Y-96398095D01*
X152982380Y-96017142D01*
X153030000Y-95921904D01*
X153077619Y-95874285D01*
X153172857Y-95826666D01*
X153315714Y-95826666D01*
X153410952Y-95874285D01*
X153458571Y-95921904D01*
X153506190Y-96017142D01*
X153506190Y-96398095D01*
X153410952Y-95255238D02*
X153363333Y-95350476D01*
X153315714Y-95398095D01*
X153220476Y-95445714D01*
X153172857Y-95445714D01*
X153077619Y-95398095D01*
X153030000Y-95350476D01*
X152982380Y-95255238D01*
X152982380Y-95064761D01*
X153030000Y-94969523D01*
X153077619Y-94921904D01*
X153172857Y-94874285D01*
X153220476Y-94874285D01*
X153315714Y-94921904D01*
X153363333Y-94969523D01*
X153410952Y-95064761D01*
X153410952Y-95255238D01*
X153458571Y-95350476D01*
X153506190Y-95398095D01*
X153601428Y-95445714D01*
X153791904Y-95445714D01*
X153887142Y-95398095D01*
X153934761Y-95350476D01*
X153982380Y-95255238D01*
X153982380Y-95064761D01*
X153934761Y-94969523D01*
X153887142Y-94921904D01*
X153791904Y-94874285D01*
X153601428Y-94874285D01*
X153506190Y-94921904D01*
X153458571Y-94969523D01*
X153410952Y-95064761D01*
%TO.C,R11*%
X148562380Y-91542857D02*
X148086190Y-91876190D01*
X148562380Y-92114285D02*
X147562380Y-92114285D01*
X147562380Y-91733333D01*
X147610000Y-91638095D01*
X147657619Y-91590476D01*
X147752857Y-91542857D01*
X147895714Y-91542857D01*
X147990952Y-91590476D01*
X148038571Y-91638095D01*
X148086190Y-91733333D01*
X148086190Y-92114285D01*
X148562380Y-90590476D02*
X148562380Y-91161904D01*
X148562380Y-90876190D02*
X147562380Y-90876190D01*
X147705238Y-90971428D01*
X147800476Y-91066666D01*
X147848095Y-91161904D01*
X148562380Y-89638095D02*
X148562380Y-90209523D01*
X148562380Y-89923809D02*
X147562380Y-89923809D01*
X147705238Y-90019047D01*
X147800476Y-90114285D01*
X147848095Y-90209523D01*
%TO.C,U3*%
X165548095Y-79682380D02*
X165548095Y-80491904D01*
X165595714Y-80587142D01*
X165643333Y-80634761D01*
X165738571Y-80682380D01*
X165929047Y-80682380D01*
X166024285Y-80634761D01*
X166071904Y-80587142D01*
X166119523Y-80491904D01*
X166119523Y-79682380D01*
X166500476Y-79682380D02*
X167119523Y-79682380D01*
X166786190Y-80063333D01*
X166929047Y-80063333D01*
X167024285Y-80110952D01*
X167071904Y-80158571D01*
X167119523Y-80253809D01*
X167119523Y-80491904D01*
X167071904Y-80587142D01*
X167024285Y-80634761D01*
X166929047Y-80682380D01*
X166643333Y-80682380D01*
X166548095Y-80634761D01*
X166500476Y-80587142D01*
%TO.C,R5*%
X165392380Y-91036666D02*
X164916190Y-91370000D01*
X165392380Y-91608095D02*
X164392380Y-91608095D01*
X164392380Y-91227142D01*
X164440000Y-91131904D01*
X164487619Y-91084285D01*
X164582857Y-91036666D01*
X164725714Y-91036666D01*
X164820952Y-91084285D01*
X164868571Y-91131904D01*
X164916190Y-91227142D01*
X164916190Y-91608095D01*
X164392380Y-90131904D02*
X164392380Y-90608095D01*
X164868571Y-90655714D01*
X164820952Y-90608095D01*
X164773333Y-90512857D01*
X164773333Y-90274761D01*
X164820952Y-90179523D01*
X164868571Y-90131904D01*
X164963809Y-90084285D01*
X165201904Y-90084285D01*
X165297142Y-90131904D01*
X165344761Y-90179523D01*
X165392380Y-90274761D01*
X165392380Y-90512857D01*
X165344761Y-90608095D01*
X165297142Y-90655714D01*
%TO.C,F5*%
X136486666Y-85208571D02*
X136153333Y-85208571D01*
X136153333Y-85732380D02*
X136153333Y-84732380D01*
X136629523Y-84732380D01*
X137486666Y-84732380D02*
X137010476Y-84732380D01*
X136962857Y-85208571D01*
X137010476Y-85160952D01*
X137105714Y-85113333D01*
X137343809Y-85113333D01*
X137439047Y-85160952D01*
X137486666Y-85208571D01*
X137534285Y-85303809D01*
X137534285Y-85541904D01*
X137486666Y-85637142D01*
X137439047Y-85684761D01*
X137343809Y-85732380D01*
X137105714Y-85732380D01*
X137010476Y-85684761D01*
X136962857Y-85637142D01*
%TO.C,D1*%
X137981904Y-114782380D02*
X137981904Y-113782380D01*
X138220000Y-113782380D01*
X138362857Y-113830000D01*
X138458095Y-113925238D01*
X138505714Y-114020476D01*
X138553333Y-114210952D01*
X138553333Y-114353809D01*
X138505714Y-114544285D01*
X138458095Y-114639523D01*
X138362857Y-114734761D01*
X138220000Y-114782380D01*
X137981904Y-114782380D01*
X139505714Y-114782380D02*
X138934285Y-114782380D01*
X139220000Y-114782380D02*
X139220000Y-113782380D01*
X139124761Y-113925238D01*
X139029523Y-114020476D01*
X138934285Y-114068095D01*
%TO.C,R4*%
X173982380Y-91016666D02*
X173506190Y-91350000D01*
X173982380Y-91588095D02*
X172982380Y-91588095D01*
X172982380Y-91207142D01*
X173030000Y-91111904D01*
X173077619Y-91064285D01*
X173172857Y-91016666D01*
X173315714Y-91016666D01*
X173410952Y-91064285D01*
X173458571Y-91111904D01*
X173506190Y-91207142D01*
X173506190Y-91588095D01*
X173315714Y-90159523D02*
X173982380Y-90159523D01*
X172934761Y-90397619D02*
X173649047Y-90635714D01*
X173649047Y-90016666D01*
%TO.C,R9*%
X145512380Y-95996666D02*
X145036190Y-96330000D01*
X145512380Y-96568095D02*
X144512380Y-96568095D01*
X144512380Y-96187142D01*
X144560000Y-96091904D01*
X144607619Y-96044285D01*
X144702857Y-95996666D01*
X144845714Y-95996666D01*
X144940952Y-96044285D01*
X144988571Y-96091904D01*
X145036190Y-96187142D01*
X145036190Y-96568095D01*
X145512380Y-95520476D02*
X145512380Y-95330000D01*
X145464761Y-95234761D01*
X145417142Y-95187142D01*
X145274285Y-95091904D01*
X145083809Y-95044285D01*
X144702857Y-95044285D01*
X144607619Y-95091904D01*
X144560000Y-95139523D01*
X144512380Y-95234761D01*
X144512380Y-95425238D01*
X144560000Y-95520476D01*
X144607619Y-95568095D01*
X144702857Y-95615714D01*
X144940952Y-95615714D01*
X145036190Y-95568095D01*
X145083809Y-95520476D01*
X145131428Y-95425238D01*
X145131428Y-95234761D01*
X145083809Y-95139523D01*
X145036190Y-95091904D01*
X144940952Y-95044285D01*
%TO.C,R13*%
X145602380Y-91522857D02*
X145126190Y-91856190D01*
X145602380Y-92094285D02*
X144602380Y-92094285D01*
X144602380Y-91713333D01*
X144650000Y-91618095D01*
X144697619Y-91570476D01*
X144792857Y-91522857D01*
X144935714Y-91522857D01*
X145030952Y-91570476D01*
X145078571Y-91618095D01*
X145126190Y-91713333D01*
X145126190Y-92094285D01*
X145602380Y-90570476D02*
X145602380Y-91141904D01*
X145602380Y-90856190D02*
X144602380Y-90856190D01*
X144745238Y-90951428D01*
X144840476Y-91046666D01*
X144888095Y-91141904D01*
X144602380Y-90237142D02*
X144602380Y-89618095D01*
X144983333Y-89951428D01*
X144983333Y-89808571D01*
X145030952Y-89713333D01*
X145078571Y-89665714D01*
X145173809Y-89618095D01*
X145411904Y-89618095D01*
X145507142Y-89665714D01*
X145554761Y-89713333D01*
X145602380Y-89808571D01*
X145602380Y-90094285D01*
X145554761Y-90189523D01*
X145507142Y-90237142D01*
%TO.C,R19*%
X127722380Y-91522857D02*
X127246190Y-91856190D01*
X127722380Y-92094285D02*
X126722380Y-92094285D01*
X126722380Y-91713333D01*
X126770000Y-91618095D01*
X126817619Y-91570476D01*
X126912857Y-91522857D01*
X127055714Y-91522857D01*
X127150952Y-91570476D01*
X127198571Y-91618095D01*
X127246190Y-91713333D01*
X127246190Y-92094285D01*
X127722380Y-90570476D02*
X127722380Y-91141904D01*
X127722380Y-90856190D02*
X126722380Y-90856190D01*
X126865238Y-90951428D01*
X126960476Y-91046666D01*
X127008095Y-91141904D01*
X127722380Y-90094285D02*
X127722380Y-89903809D01*
X127674761Y-89808571D01*
X127627142Y-89760952D01*
X127484285Y-89665714D01*
X127293809Y-89618095D01*
X126912857Y-89618095D01*
X126817619Y-89665714D01*
X126770000Y-89713333D01*
X126722380Y-89808571D01*
X126722380Y-89999047D01*
X126770000Y-90094285D01*
X126817619Y-90141904D01*
X126912857Y-90189523D01*
X127150952Y-90189523D01*
X127246190Y-90141904D01*
X127293809Y-90094285D01*
X127341428Y-89999047D01*
X127341428Y-89808571D01*
X127293809Y-89713333D01*
X127246190Y-89665714D01*
X127150952Y-89618095D01*
%TO.C,R14*%
X136792380Y-95952857D02*
X136316190Y-96286190D01*
X136792380Y-96524285D02*
X135792380Y-96524285D01*
X135792380Y-96143333D01*
X135840000Y-96048095D01*
X135887619Y-96000476D01*
X135982857Y-95952857D01*
X136125714Y-95952857D01*
X136220952Y-96000476D01*
X136268571Y-96048095D01*
X136316190Y-96143333D01*
X136316190Y-96524285D01*
X136792380Y-95000476D02*
X136792380Y-95571904D01*
X136792380Y-95286190D02*
X135792380Y-95286190D01*
X135935238Y-95381428D01*
X136030476Y-95476666D01*
X136078095Y-95571904D01*
X136125714Y-94143333D02*
X136792380Y-94143333D01*
X135744761Y-94381428D02*
X136459047Y-94619523D01*
X136459047Y-94000476D01*
%TO.C,Q6*%
X133274761Y-97007619D02*
X133179523Y-96960000D01*
X133084285Y-96864761D01*
X132941428Y-96721904D01*
X132846190Y-96674285D01*
X132750952Y-96674285D01*
X132798571Y-96912380D02*
X132703333Y-96864761D01*
X132608095Y-96769523D01*
X132560476Y-96579047D01*
X132560476Y-96245714D01*
X132608095Y-96055238D01*
X132703333Y-95960000D01*
X132798571Y-95912380D01*
X132989047Y-95912380D01*
X133084285Y-95960000D01*
X133179523Y-96055238D01*
X133227142Y-96245714D01*
X133227142Y-96579047D01*
X133179523Y-96769523D01*
X133084285Y-96864761D01*
X132989047Y-96912380D01*
X132798571Y-96912380D01*
X134084285Y-95912380D02*
X133893809Y-95912380D01*
X133798571Y-95960000D01*
X133750952Y-96007619D01*
X133655714Y-96150476D01*
X133608095Y-96340952D01*
X133608095Y-96721904D01*
X133655714Y-96817142D01*
X133703333Y-96864761D01*
X133798571Y-96912380D01*
X133989047Y-96912380D01*
X134084285Y-96864761D01*
X134131904Y-96817142D01*
X134179523Y-96721904D01*
X134179523Y-96483809D01*
X134131904Y-96388571D01*
X134084285Y-96340952D01*
X133989047Y-96293333D01*
X133798571Y-96293333D01*
X133703333Y-96340952D01*
X133655714Y-96388571D01*
X133608095Y-96483809D01*
%TO.C,U1*%
X145012380Y-109431904D02*
X145821904Y-109431904D01*
X145917142Y-109384285D01*
X145964761Y-109336666D01*
X146012380Y-109241428D01*
X146012380Y-109050952D01*
X145964761Y-108955714D01*
X145917142Y-108908095D01*
X145821904Y-108860476D01*
X145012380Y-108860476D01*
X146012380Y-107860476D02*
X146012380Y-108431904D01*
X146012380Y-108146190D02*
X145012380Y-108146190D01*
X145155238Y-108241428D01*
X145250476Y-108336666D01*
X145298095Y-108431904D01*
%TO.C,J2*%
X178032380Y-71763333D02*
X178746666Y-71763333D01*
X178889523Y-71810952D01*
X178984761Y-71906190D01*
X179032380Y-72049047D01*
X179032380Y-72144285D01*
X178127619Y-71334761D02*
X178080000Y-71287142D01*
X178032380Y-71191904D01*
X178032380Y-70953809D01*
X178080000Y-70858571D01*
X178127619Y-70810952D01*
X178222857Y-70763333D01*
X178318095Y-70763333D01*
X178460952Y-70810952D01*
X179032380Y-71382380D01*
X179032380Y-70763333D01*
%TO.C,F6*%
X127896666Y-85158571D02*
X127563333Y-85158571D01*
X127563333Y-85682380D02*
X127563333Y-84682380D01*
X128039523Y-84682380D01*
X128849047Y-84682380D02*
X128658571Y-84682380D01*
X128563333Y-84730000D01*
X128515714Y-84777619D01*
X128420476Y-84920476D01*
X128372857Y-85110952D01*
X128372857Y-85491904D01*
X128420476Y-85587142D01*
X128468095Y-85634761D01*
X128563333Y-85682380D01*
X128753809Y-85682380D01*
X128849047Y-85634761D01*
X128896666Y-85587142D01*
X128944285Y-85491904D01*
X128944285Y-85253809D01*
X128896666Y-85158571D01*
X128849047Y-85110952D01*
X128753809Y-85063333D01*
X128563333Y-85063333D01*
X128468095Y-85110952D01*
X128420476Y-85158571D01*
X128372857Y-85253809D01*
%TO.C,D8*%
X174802380Y-78838095D02*
X173802380Y-78838095D01*
X173802380Y-78600000D01*
X173850000Y-78457142D01*
X173945238Y-78361904D01*
X174040476Y-78314285D01*
X174230952Y-78266666D01*
X174373809Y-78266666D01*
X174564285Y-78314285D01*
X174659523Y-78361904D01*
X174754761Y-78457142D01*
X174802380Y-78600000D01*
X174802380Y-78838095D01*
X174230952Y-77695238D02*
X174183333Y-77790476D01*
X174135714Y-77838095D01*
X174040476Y-77885714D01*
X173992857Y-77885714D01*
X173897619Y-77838095D01*
X173850000Y-77790476D01*
X173802380Y-77695238D01*
X173802380Y-77504761D01*
X173850000Y-77409523D01*
X173897619Y-77361904D01*
X173992857Y-77314285D01*
X174040476Y-77314285D01*
X174135714Y-77361904D01*
X174183333Y-77409523D01*
X174230952Y-77504761D01*
X174230952Y-77695238D01*
X174278571Y-77790476D01*
X174326190Y-77838095D01*
X174421428Y-77885714D01*
X174611904Y-77885714D01*
X174707142Y-77838095D01*
X174754761Y-77790476D01*
X174802380Y-77695238D01*
X174802380Y-77504761D01*
X174754761Y-77409523D01*
X174707142Y-77361904D01*
X174611904Y-77314285D01*
X174421428Y-77314285D01*
X174326190Y-77361904D01*
X174278571Y-77409523D01*
X174230952Y-77504761D01*
%TO.C,U4*%
X156668095Y-79652380D02*
X156668095Y-80461904D01*
X156715714Y-80557142D01*
X156763333Y-80604761D01*
X156858571Y-80652380D01*
X157049047Y-80652380D01*
X157144285Y-80604761D01*
X157191904Y-80557142D01*
X157239523Y-80461904D01*
X157239523Y-79652380D01*
X158144285Y-79985714D02*
X158144285Y-80652380D01*
X157906190Y-79604761D02*
X157668095Y-80319047D01*
X158287142Y-80319047D01*
%TO.C,R1*%
X133983333Y-114712380D02*
X133650000Y-114236190D01*
X133411904Y-114712380D02*
X133411904Y-113712380D01*
X133792857Y-113712380D01*
X133888095Y-113760000D01*
X133935714Y-113807619D01*
X133983333Y-113902857D01*
X133983333Y-114045714D01*
X133935714Y-114140952D01*
X133888095Y-114188571D01*
X133792857Y-114236190D01*
X133411904Y-114236190D01*
X134935714Y-114712380D02*
X134364285Y-114712380D01*
X134650000Y-114712380D02*
X134650000Y-113712380D01*
X134554761Y-113855238D01*
X134459523Y-113950476D01*
X134364285Y-113998095D01*
%TO.C,U5*%
X148098095Y-79652380D02*
X148098095Y-80461904D01*
X148145714Y-80557142D01*
X148193333Y-80604761D01*
X148288571Y-80652380D01*
X148479047Y-80652380D01*
X148574285Y-80604761D01*
X148621904Y-80557142D01*
X148669523Y-80461904D01*
X148669523Y-79652380D01*
X149621904Y-79652380D02*
X149145714Y-79652380D01*
X149098095Y-80128571D01*
X149145714Y-80080952D01*
X149240952Y-80033333D01*
X149479047Y-80033333D01*
X149574285Y-80080952D01*
X149621904Y-80128571D01*
X149669523Y-80223809D01*
X149669523Y-80461904D01*
X149621904Y-80557142D01*
X149574285Y-80604761D01*
X149479047Y-80652380D01*
X149240952Y-80652380D01*
X149145714Y-80604761D01*
X149098095Y-80557142D01*
%TO.C,Q5*%
X142364761Y-97017619D02*
X142269523Y-96970000D01*
X142174285Y-96874761D01*
X142031428Y-96731904D01*
X141936190Y-96684285D01*
X141840952Y-96684285D01*
X141888571Y-96922380D02*
X141793333Y-96874761D01*
X141698095Y-96779523D01*
X141650476Y-96589047D01*
X141650476Y-96255714D01*
X141698095Y-96065238D01*
X141793333Y-95970000D01*
X141888571Y-95922380D01*
X142079047Y-95922380D01*
X142174285Y-95970000D01*
X142269523Y-96065238D01*
X142317142Y-96255714D01*
X142317142Y-96589047D01*
X142269523Y-96779523D01*
X142174285Y-96874761D01*
X142079047Y-96922380D01*
X141888571Y-96922380D01*
X143221904Y-95922380D02*
X142745714Y-95922380D01*
X142698095Y-96398571D01*
X142745714Y-96350952D01*
X142840952Y-96303333D01*
X143079047Y-96303333D01*
X143174285Y-96350952D01*
X143221904Y-96398571D01*
X143269523Y-96493809D01*
X143269523Y-96731904D01*
X143221904Y-96827142D01*
X143174285Y-96874761D01*
X143079047Y-96922380D01*
X142840952Y-96922380D01*
X142745714Y-96874761D01*
X142698095Y-96827142D01*
%TO.C,D6*%
X142961904Y-94752380D02*
X142961904Y-93752380D01*
X143200000Y-93752380D01*
X143342857Y-93800000D01*
X143438095Y-93895238D01*
X143485714Y-93990476D01*
X143533333Y-94180952D01*
X143533333Y-94323809D01*
X143485714Y-94514285D01*
X143438095Y-94609523D01*
X143342857Y-94704761D01*
X143200000Y-94752380D01*
X142961904Y-94752380D01*
X144390476Y-93752380D02*
X144200000Y-93752380D01*
X144104761Y-93800000D01*
X144057142Y-93847619D01*
X143961904Y-93990476D01*
X143914285Y-94180952D01*
X143914285Y-94561904D01*
X143961904Y-94657142D01*
X144009523Y-94704761D01*
X144104761Y-94752380D01*
X144295238Y-94752380D01*
X144390476Y-94704761D01*
X144438095Y-94657142D01*
X144485714Y-94561904D01*
X144485714Y-94323809D01*
X144438095Y-94228571D01*
X144390476Y-94180952D01*
X144295238Y-94133333D01*
X144104761Y-94133333D01*
X144009523Y-94180952D01*
X143961904Y-94228571D01*
X143914285Y-94323809D01*
%TO.C,R10*%
X156942380Y-91462857D02*
X156466190Y-91796190D01*
X156942380Y-92034285D02*
X155942380Y-92034285D01*
X155942380Y-91653333D01*
X155990000Y-91558095D01*
X156037619Y-91510476D01*
X156132857Y-91462857D01*
X156275714Y-91462857D01*
X156370952Y-91510476D01*
X156418571Y-91558095D01*
X156466190Y-91653333D01*
X156466190Y-92034285D01*
X156942380Y-90510476D02*
X156942380Y-91081904D01*
X156942380Y-90796190D02*
X155942380Y-90796190D01*
X156085238Y-90891428D01*
X156180476Y-90986666D01*
X156228095Y-91081904D01*
X155942380Y-89891428D02*
X155942380Y-89796190D01*
X155990000Y-89700952D01*
X156037619Y-89653333D01*
X156132857Y-89605714D01*
X156323333Y-89558095D01*
X156561428Y-89558095D01*
X156751904Y-89605714D01*
X156847142Y-89653333D01*
X156894761Y-89700952D01*
X156942380Y-89796190D01*
X156942380Y-89891428D01*
X156894761Y-89986666D01*
X156847142Y-90034285D01*
X156751904Y-90081904D01*
X156561428Y-90129523D01*
X156323333Y-90129523D01*
X156132857Y-90081904D01*
X156037619Y-90034285D01*
X155990000Y-89986666D01*
X155942380Y-89891428D01*
%TO.C,R2*%
X170902380Y-96026666D02*
X170426190Y-96360000D01*
X170902380Y-96598095D02*
X169902380Y-96598095D01*
X169902380Y-96217142D01*
X169950000Y-96121904D01*
X169997619Y-96074285D01*
X170092857Y-96026666D01*
X170235714Y-96026666D01*
X170330952Y-96074285D01*
X170378571Y-96121904D01*
X170426190Y-96217142D01*
X170426190Y-96598095D01*
X169997619Y-95645714D02*
X169950000Y-95598095D01*
X169902380Y-95502857D01*
X169902380Y-95264761D01*
X169950000Y-95169523D01*
X169997619Y-95121904D01*
X170092857Y-95074285D01*
X170188095Y-95074285D01*
X170330952Y-95121904D01*
X170902380Y-95693333D01*
X170902380Y-95074285D01*
%TO.C,D5*%
X151241904Y-94692380D02*
X151241904Y-93692380D01*
X151480000Y-93692380D01*
X151622857Y-93740000D01*
X151718095Y-93835238D01*
X151765714Y-93930476D01*
X151813333Y-94120952D01*
X151813333Y-94263809D01*
X151765714Y-94454285D01*
X151718095Y-94549523D01*
X151622857Y-94644761D01*
X151480000Y-94692380D01*
X151241904Y-94692380D01*
X152718095Y-93692380D02*
X152241904Y-93692380D01*
X152194285Y-94168571D01*
X152241904Y-94120952D01*
X152337142Y-94073333D01*
X152575238Y-94073333D01*
X152670476Y-94120952D01*
X152718095Y-94168571D01*
X152765714Y-94263809D01*
X152765714Y-94501904D01*
X152718095Y-94597142D01*
X152670476Y-94644761D01*
X152575238Y-94692380D01*
X152337142Y-94692380D01*
X152241904Y-94644761D01*
X152194285Y-94597142D01*
%TO.C,R7*%
X162452380Y-90986666D02*
X161976190Y-91320000D01*
X162452380Y-91558095D02*
X161452380Y-91558095D01*
X161452380Y-91177142D01*
X161500000Y-91081904D01*
X161547619Y-91034285D01*
X161642857Y-90986666D01*
X161785714Y-90986666D01*
X161880952Y-91034285D01*
X161928571Y-91081904D01*
X161976190Y-91177142D01*
X161976190Y-91558095D01*
X161452380Y-90653333D02*
X161452380Y-89986666D01*
X162452380Y-90415238D01*
D11*
%TO.C,U7*%
X130490000Y-84720000D02*
X130490000Y-86730000D01*
X134810000Y-84720000D02*
X134810000Y-86730000D01*
X130490000Y-84720000D02*
X130490000Y-82710000D01*
X130490000Y-82710000D02*
X130845000Y-82710000D01*
X130490000Y-86730000D02*
X130845000Y-86730000D01*
X134810000Y-84720000D02*
X134810000Y-82710000D01*
X134810000Y-82710000D02*
X134455000Y-82710000D01*
X134810000Y-86730000D02*
X134455000Y-86730000D01*
X130845000Y-86730000D02*
X130845000Y-88195000D01*
%TO.C,Q4*%
X149570000Y-93730000D02*
X147895000Y-93730000D01*
X149570000Y-96850000D02*
X148920000Y-96850000D01*
X149570000Y-93730000D02*
X150220000Y-93730000D01*
X149570000Y-96850000D02*
X150220000Y-96850000D01*
%TO.C,Q1*%
X175220000Y-93920000D02*
X173545000Y-93920000D01*
X175220000Y-97040000D02*
X174570000Y-97040000D01*
X175220000Y-97040000D02*
X175870000Y-97040000D01*
X175220000Y-93920000D02*
X175870000Y-93920000D01*
%TO.C,R15*%
X129385000Y-95447064D02*
X129385000Y-94992936D01*
X127915000Y-95447064D02*
X127915000Y-94992936D01*
%TO.C,D18*%
X140750000Y-74000000D02*
X136450000Y-74000000D01*
X136450000Y-74000000D02*
X136450000Y-76000000D01*
X136450000Y-76000000D02*
X140750000Y-76000000D01*
%TO.C,D4*%
X161265000Y-93507500D02*
X161265000Y-89447500D01*
X158995000Y-93507500D02*
X161265000Y-93507500D01*
X158995000Y-89447500D02*
X158995000Y-93507500D01*
%TO.C,R6*%
X171115000Y-91077064D02*
X171115000Y-90622936D01*
X172585000Y-91077064D02*
X172585000Y-90622936D01*
%TO.C,R12*%
X155665000Y-91067064D02*
X155665000Y-90612936D01*
X154195000Y-91067064D02*
X154195000Y-90612936D01*
%TO.C,D16*%
X156600000Y-74000000D02*
X152300000Y-74000000D01*
X152300000Y-76000000D02*
X156600000Y-76000000D01*
X152300000Y-74000000D02*
X152300000Y-76000000D01*
%TO.C,D17*%
X144450000Y-74000000D02*
X144450000Y-76000000D01*
X144450000Y-76000000D02*
X148750000Y-76000000D01*
X148750000Y-74000000D02*
X144450000Y-74000000D01*
%TO.C,Q2*%
X166610000Y-93810000D02*
X167260000Y-93810000D01*
X166610000Y-96930000D02*
X165960000Y-96930000D01*
X166610000Y-93810000D02*
X164935000Y-93810000D01*
X166610000Y-96930000D02*
X167260000Y-96930000D01*
%TO.C,D14*%
X172650000Y-74000000D02*
X168350000Y-74000000D01*
X168350000Y-74000000D02*
X168350000Y-76000000D01*
X168350000Y-76000000D02*
X172650000Y-76000000D01*
%TO.C,D19*%
X127950000Y-74000000D02*
X127950000Y-76000000D01*
X127950000Y-76000000D02*
X132250000Y-76000000D01*
X132250000Y-74000000D02*
X127950000Y-74000000D01*
%TO.C,D15*%
X164600000Y-74000000D02*
X160300000Y-74000000D01*
X160300000Y-74000000D02*
X160300000Y-76000000D01*
X160300000Y-76000000D02*
X164600000Y-76000000D01*
%TO.C,D11*%
X145250000Y-79000000D02*
X149550000Y-79000000D01*
X149550000Y-79000000D02*
X149550000Y-77000000D01*
X149550000Y-77000000D02*
X145250000Y-77000000D01*
%TO.C,F2*%
X163190000Y-82649564D02*
X163190000Y-81445436D01*
X160470000Y-82649564D02*
X160470000Y-81445436D01*
%TO.C,F3*%
X151660000Y-82624564D02*
X151660000Y-81420436D01*
X154380000Y-82624564D02*
X154380000Y-81420436D01*
%TO.C,Q3*%
X157970000Y-93780000D02*
X158620000Y-93780000D01*
X157970000Y-96900000D02*
X158620000Y-96900000D01*
X157970000Y-93780000D02*
X156295000Y-93780000D01*
X157970000Y-96900000D02*
X157320000Y-96900000D01*
%TO.C,R3*%
X164095000Y-95337064D02*
X164095000Y-94882936D01*
X162625000Y-95337064D02*
X162625000Y-94882936D01*
%TO.C,D2*%
X176235000Y-89587500D02*
X176235000Y-93647500D01*
X178505000Y-93647500D02*
X178505000Y-89587500D01*
X176235000Y-93647500D02*
X178505000Y-93647500D01*
%TO.C,F1*%
X169330000Y-82629564D02*
X169330000Y-81425436D01*
X172050000Y-82629564D02*
X172050000Y-81425436D01*
%TO.C,R18*%
X136995000Y-91097064D02*
X136995000Y-90642936D01*
X138465000Y-91097064D02*
X138465000Y-90642936D01*
%TO.C,U6*%
X142970000Y-84740000D02*
X142970000Y-82730000D01*
X138650000Y-86750000D02*
X139005000Y-86750000D01*
X142970000Y-84740000D02*
X142970000Y-86750000D01*
X139005000Y-86750000D02*
X139005000Y-88215000D01*
X138650000Y-84740000D02*
X138650000Y-86750000D01*
X142970000Y-86750000D02*
X142615000Y-86750000D01*
X142970000Y-82730000D02*
X142615000Y-82730000D01*
X138650000Y-84740000D02*
X138650000Y-82730000D01*
X138650000Y-82730000D02*
X139005000Y-82730000D01*
%TO.C,R16*%
X141425000Y-91117064D02*
X141425000Y-90662936D01*
X139955000Y-91117064D02*
X139955000Y-90662936D01*
%TO.C,D7*%
X133325000Y-89467500D02*
X133325000Y-93527500D01*
X133325000Y-93527500D02*
X135595000Y-93527500D01*
X135595000Y-93527500D02*
X135595000Y-89467500D01*
%TO.C,R17*%
X132415000Y-91077064D02*
X132415000Y-90622936D01*
X130945000Y-91077064D02*
X130945000Y-90622936D01*
%TO.C,D9*%
X165400000Y-77100000D02*
X161100000Y-77100000D01*
X161100000Y-79100000D02*
X165400000Y-79100000D01*
X165400000Y-79100000D02*
X165400000Y-77100000D01*
%TO.C,D12*%
X141550000Y-79000000D02*
X141550000Y-77000000D01*
X141550000Y-77000000D02*
X137250000Y-77000000D01*
X137250000Y-79000000D02*
X141550000Y-79000000D01*
%TO.C,D3*%
X167465000Y-89447500D02*
X167465000Y-93507500D01*
X169735000Y-93507500D02*
X169735000Y-89447500D01*
X167465000Y-93507500D02*
X169735000Y-93507500D01*
%TO.C,J1*%
X161890000Y-113790000D02*
X163220000Y-113790000D01*
X160620000Y-113790000D02*
X160620000Y-116390000D01*
X142780000Y-113790000D02*
X142780000Y-118990000D01*
X163220000Y-113790000D02*
X163220000Y-115120000D01*
X160620000Y-116390000D02*
X163220000Y-116390000D01*
X163220000Y-118990000D02*
X142780000Y-118990000D01*
X160620000Y-113790000D02*
X142780000Y-113790000D01*
X163220000Y-116390000D02*
X163220000Y-118990000D01*
%TO.C,U2*%
X173140000Y-84760000D02*
X173140000Y-82750000D01*
X177460000Y-82750000D02*
X177105000Y-82750000D01*
X173140000Y-84760000D02*
X173140000Y-86770000D01*
X173140000Y-82750000D02*
X173495000Y-82750000D01*
X173495000Y-86770000D02*
X173495000Y-88235000D01*
X177460000Y-86770000D02*
X177105000Y-86770000D01*
X177460000Y-84760000D02*
X177460000Y-86770000D01*
X173140000Y-86770000D02*
X173495000Y-86770000D01*
X177460000Y-84760000D02*
X177460000Y-82750000D01*
%TO.C,D10*%
X157450000Y-77000000D02*
X153150000Y-77000000D01*
X153150000Y-79000000D02*
X157450000Y-79000000D01*
X157450000Y-79000000D02*
X157450000Y-77000000D01*
%TO.C,F4*%
X146200000Y-82629564D02*
X146200000Y-81425436D01*
X143480000Y-82629564D02*
X143480000Y-81425436D01*
%TO.C,C1*%
X145295000Y-104471248D02*
X145295000Y-104993752D01*
X143825000Y-104471248D02*
X143825000Y-104993752D01*
%TO.C,D13*%
X133050000Y-77000000D02*
X128750000Y-77000000D01*
X128750000Y-79000000D02*
X133050000Y-79000000D01*
X133050000Y-79000000D02*
X133050000Y-77000000D01*
%TO.C,R8*%
X155625000Y-95427064D02*
X155625000Y-94972936D01*
X154155000Y-95427064D02*
X154155000Y-94972936D01*
%TO.C,R11*%
X150205000Y-91117064D02*
X150205000Y-90662936D01*
X148735000Y-91117064D02*
X148735000Y-90662936D01*
%TO.C,U3*%
X164170000Y-84740000D02*
X164170000Y-86750000D01*
X164525000Y-86750000D02*
X164525000Y-88215000D01*
X164170000Y-82730000D02*
X164525000Y-82730000D01*
X164170000Y-86750000D02*
X164525000Y-86750000D01*
X168490000Y-84740000D02*
X168490000Y-86750000D01*
X164170000Y-84740000D02*
X164170000Y-82730000D01*
X168490000Y-84740000D02*
X168490000Y-82730000D01*
X168490000Y-82730000D02*
X168135000Y-82730000D01*
X168490000Y-86750000D02*
X168135000Y-86750000D01*
%TO.C,R5*%
X167055000Y-91047064D02*
X167055000Y-90592936D01*
X165585000Y-91047064D02*
X165585000Y-90592936D01*
%TO.C,F5*%
X138090000Y-82592064D02*
X138090000Y-81387936D01*
X135370000Y-82592064D02*
X135370000Y-81387936D01*
%TO.C,D1*%
X137120000Y-113645000D02*
X141180000Y-113645000D01*
X141180000Y-113645000D02*
X141180000Y-111375000D01*
X141180000Y-111375000D02*
X137120000Y-111375000D01*
%TO.C,R4*%
X175695000Y-91077064D02*
X175695000Y-90622936D01*
X174225000Y-91077064D02*
X174225000Y-90622936D01*
%TO.C,R9*%
X145745000Y-95367064D02*
X145745000Y-94912936D01*
X147215000Y-95367064D02*
X147215000Y-94912936D01*
%TO.C,R13*%
X145815000Y-91117064D02*
X145815000Y-90662936D01*
X147285000Y-91117064D02*
X147285000Y-90662936D01*
%TO.C,R19*%
X129415000Y-91077064D02*
X129415000Y-90622936D01*
X127945000Y-91077064D02*
X127945000Y-90622936D01*
%TO.C,R14*%
X138475000Y-95477064D02*
X138475000Y-95022936D01*
X137005000Y-95477064D02*
X137005000Y-95022936D01*
%TO.C,Q6*%
X131680000Y-96920000D02*
X131030000Y-96920000D01*
X131680000Y-93800000D02*
X130005000Y-93800000D01*
X131680000Y-96920000D02*
X132330000Y-96920000D01*
X131680000Y-93800000D02*
X132330000Y-93800000D01*
%TO.C,U1*%
X146450000Y-109980000D02*
X146450000Y-104980000D01*
X159510000Y-107980000D02*
X159510000Y-101980000D01*
%TO.C,J2*%
X175560000Y-73687500D02*
X175860000Y-73087500D01*
X151210000Y-62167500D02*
X151460000Y-60667500D01*
X171780000Y-60667500D02*
X169780000Y-60667500D01*
X175860000Y-73087500D02*
X176160000Y-73687500D01*
X179510000Y-63967500D02*
X126490000Y-63967500D01*
X131140000Y-60667500D02*
X129140000Y-60667500D01*
X179510000Y-60667500D02*
X126490000Y-60667500D01*
X156540000Y-60667500D02*
X154540000Y-60667500D01*
X135970000Y-62167500D02*
X136220000Y-60667500D01*
X179510000Y-72887500D02*
X179510000Y-60667500D01*
X176160000Y-73687500D02*
X175560000Y-73687500D01*
X166450000Y-62167500D02*
X166700000Y-60667500D01*
X161370000Y-62167500D02*
X161620000Y-60667500D01*
X146130000Y-62167500D02*
X146380000Y-60667500D01*
X166700000Y-60667500D02*
X164700000Y-60667500D01*
X156290000Y-62167500D02*
X156540000Y-60667500D01*
X159870000Y-62167500D02*
X161370000Y-62167500D01*
X171530000Y-62167500D02*
X171780000Y-60667500D01*
X179510000Y-62167500D02*
X179510000Y-63967500D01*
X144380000Y-60667500D02*
X144630000Y-62167500D01*
X151460000Y-60667500D02*
X149460000Y-60667500D01*
X126490000Y-62167500D02*
X179510000Y-62167500D01*
X175110000Y-62167500D02*
X176610000Y-62167500D01*
X130890000Y-62167500D02*
X131140000Y-60667500D01*
X159620000Y-60667500D02*
X159870000Y-62167500D01*
X161620000Y-60667500D02*
X159620000Y-60667500D01*
X126490000Y-60667500D02*
X126490000Y-72887500D01*
X170030000Y-62167500D02*
X171530000Y-62167500D01*
X149710000Y-62167500D02*
X151210000Y-62167500D01*
X169780000Y-60667500D02*
X170030000Y-62167500D01*
X126490000Y-72887500D02*
X179510000Y-72887500D01*
X134470000Y-62167500D02*
X135970000Y-62167500D01*
X134220000Y-60667500D02*
X134470000Y-62167500D01*
X154540000Y-60667500D02*
X154790000Y-62167500D01*
X164700000Y-60667500D02*
X164950000Y-62167500D01*
X146380000Y-60667500D02*
X144380000Y-60667500D01*
X174860000Y-60667500D02*
X175110000Y-62167500D01*
X164950000Y-62167500D02*
X166450000Y-62167500D01*
X129140000Y-60667500D02*
X129390000Y-62167500D01*
X149460000Y-60667500D02*
X149710000Y-62167500D01*
X176860000Y-60667500D02*
X174860000Y-60667500D01*
X129390000Y-62167500D02*
X130890000Y-62167500D01*
X154790000Y-62167500D02*
X156290000Y-62167500D01*
X144630000Y-62167500D02*
X146130000Y-62167500D01*
X139300000Y-60667500D02*
X139550000Y-62167500D01*
X126490000Y-63967500D02*
X126490000Y-62167500D01*
X176610000Y-62167500D02*
X176860000Y-60667500D01*
X139550000Y-62167500D02*
X141050000Y-62167500D01*
X136220000Y-60667500D02*
X134220000Y-60667500D01*
X141050000Y-62167500D02*
X141300000Y-60667500D01*
X141300000Y-60667500D02*
X139300000Y-60667500D01*
%TO.C,F6*%
X129520000Y-82622064D02*
X129520000Y-81417936D01*
X126800000Y-82622064D02*
X126800000Y-81417936D01*
%TO.C,D8*%
X173500000Y-77050000D02*
X169200000Y-77050000D01*
X169200000Y-79050000D02*
X173500000Y-79050000D01*
X173500000Y-79050000D02*
X173500000Y-77050000D01*
%TO.C,U4*%
X159470000Y-84710000D02*
X159470000Y-86720000D01*
X159470000Y-82700000D02*
X159115000Y-82700000D01*
X155505000Y-86720000D02*
X155505000Y-88185000D01*
X155150000Y-84710000D02*
X155150000Y-82700000D01*
X155150000Y-82700000D02*
X155505000Y-82700000D01*
X159470000Y-86720000D02*
X159115000Y-86720000D01*
X155150000Y-84710000D02*
X155150000Y-86720000D01*
X155150000Y-86720000D02*
X155505000Y-86720000D01*
X159470000Y-84710000D02*
X159470000Y-82700000D01*
%TO.C,R1*%
X133842936Y-111845000D02*
X134297064Y-111845000D01*
X133842936Y-113315000D02*
X134297064Y-113315000D01*
%TO.C,U5*%
X146620000Y-84670000D02*
X146620000Y-82660000D01*
X150940000Y-86680000D02*
X150585000Y-86680000D01*
X146620000Y-86680000D02*
X146975000Y-86680000D01*
X146620000Y-82660000D02*
X146975000Y-82660000D01*
X150940000Y-82660000D02*
X150585000Y-82660000D01*
X146620000Y-84670000D02*
X146620000Y-86680000D01*
X150940000Y-84670000D02*
X150940000Y-86680000D01*
X150940000Y-84670000D02*
X150940000Y-82660000D01*
X146975000Y-86680000D02*
X146975000Y-88145000D01*
%TO.C,Q5*%
X140800000Y-93830000D02*
X139125000Y-93830000D01*
X140800000Y-93830000D02*
X141450000Y-93830000D01*
X140800000Y-96950000D02*
X141450000Y-96950000D01*
X140800000Y-96950000D02*
X140150000Y-96950000D01*
%TO.C,D6*%
X142185000Y-93567500D02*
X144455000Y-93567500D01*
X142185000Y-89507500D02*
X142185000Y-93567500D01*
X144455000Y-93567500D02*
X144455000Y-89507500D01*
%TO.C,R10*%
X157125000Y-91077064D02*
X157125000Y-90622936D01*
X158595000Y-91077064D02*
X158595000Y-90622936D01*
%TO.C,R2*%
X172635000Y-95367064D02*
X172635000Y-94912936D01*
X171165000Y-95367064D02*
X171165000Y-94912936D01*
%TO.C,D5*%
X150575000Y-89392500D02*
X150575000Y-93452500D01*
X150575000Y-93452500D02*
X152845000Y-93452500D01*
X152845000Y-93452500D02*
X152845000Y-89392500D01*
%TO.C,R7*%
X164075000Y-91087064D02*
X164075000Y-90632936D01*
X162605000Y-91087064D02*
X162605000Y-90632936D01*
%TD*%
M02*
