%TF.GenerationSoftware,KiCad,Pcbnew,6.0.7+dfsg-1~bpo11+1*%
%TF.CreationDate,2022-10-12T23:41:27+02:00*%
%TF.ProjectId,rib6out_01,72696236-6f75-4745-9f30-312e6b696361,rev?*%
%TF.SameCoordinates,Original*%
%TF.FileFunction,Paste,Top*%
%TF.FilePolarity,Positive*%
%FSLAX46Y46*%
G04 Gerber Fmt 4.6, Leading zero omitted, Abs format (unit mm)*
G04 Created by KiCad (PCBNEW 6.0.7+dfsg-1~bpo11+1) date 2022-10-12 23:41:27*
%MOMM*%
%LPD*%
G01*
G04 APERTURE LIST*
G04 Aperture macros list*
%AMRoundRect*
0 Rectangle with rounded corners*
0 $1 Rounding radius*
0 $2 $3 $4 $5 $6 $7 $8 $9 X,Y pos of 4 corners*
0 Add a 4 corners polygon primitive as box body*
4,1,4,$2,$3,$4,$5,$6,$7,$8,$9,$2,$3,0*
0 Add four circle primitives for the rounded corners*
1,1,$1+$1,$2,$3*
1,1,$1+$1,$4,$5*
1,1,$1+$1,$6,$7*
1,1,$1+$1,$8,$9*
0 Add four rect primitives between the rounded corners*
20,1,$1+$1,$2,$3,$4,$5,0*
20,1,$1+$1,$4,$5,$6,$7,0*
20,1,$1+$1,$6,$7,$8,$9,0*
20,1,$1+$1,$8,$9,$2,$3,0*%
G04 Aperture macros list end*
%ADD10RoundRect,0.137500X0.137500X-0.587500X0.137500X0.587500X-0.137500X0.587500X-0.137500X-0.587500X0*%
%ADD11RoundRect,0.150000X-0.587500X-0.150000X0.587500X-0.150000X0.587500X0.150000X-0.587500X0.150000X0*%
%ADD12RoundRect,0.250000X0.450000X-0.350000X0.450000X0.350000X-0.450000X0.350000X-0.450000X-0.350000X0*%
%ADD13R,1.300000X1.700000*%
%ADD14RoundRect,0.250001X0.624999X-0.462499X0.624999X0.462499X-0.624999X0.462499X-0.624999X-0.462499X0*%
%ADD15RoundRect,0.250001X1.074999X-0.462499X1.074999X0.462499X-1.074999X0.462499X-1.074999X-0.462499X0*%
%ADD16RoundRect,0.250000X-0.475000X0.337500X-0.475000X-0.337500X0.475000X-0.337500X0.475000X0.337500X0*%
%ADD17RoundRect,0.250001X0.462499X0.624999X-0.462499X0.624999X-0.462499X-0.624999X0.462499X-0.624999X0*%
%ADD18R,0.600000X1.500000*%
%ADD19RoundRect,0.250000X-0.350000X-0.450000X0.350000X-0.450000X0.350000X0.450000X-0.350000X0.450000X0*%
G04 APERTURE END LIST*
D10*
%TO.C,U7*%
X131380000Y-87470000D03*
X133920000Y-87470000D03*
X133920000Y-81970000D03*
X131380000Y-81970000D03*
%TD*%
D11*
%TO.C,Q4*%
X148632500Y-94340000D03*
X148632500Y-96240000D03*
X150507500Y-95290000D03*
%TD*%
%TO.C,Q1*%
X174282500Y-94530000D03*
X174282500Y-96430000D03*
X176157500Y-95480000D03*
%TD*%
D12*
%TO.C,R15*%
X128650000Y-96220000D03*
X128650000Y-94220000D03*
%TD*%
D13*
%TO.C,D18*%
X137250000Y-75000000D03*
X140750000Y-75000000D03*
%TD*%
D14*
%TO.C,D4*%
X160130000Y-92535000D03*
X160130000Y-89560000D03*
%TD*%
D12*
%TO.C,R6*%
X171850000Y-91850000D03*
X171850000Y-89850000D03*
%TD*%
%TO.C,R12*%
X154930000Y-91840000D03*
X154930000Y-89840000D03*
%TD*%
D13*
%TO.C,D16*%
X153100000Y-75000000D03*
X156600000Y-75000000D03*
%TD*%
%TO.C,D17*%
X145250000Y-75000000D03*
X148750000Y-75000000D03*
%TD*%
D11*
%TO.C,Q2*%
X165672500Y-94420000D03*
X165672500Y-96320000D03*
X167547500Y-95370000D03*
%TD*%
D13*
%TO.C,D14*%
X169150000Y-75000000D03*
X172650000Y-75000000D03*
%TD*%
%TO.C,D19*%
X128750000Y-75000000D03*
X132250000Y-75000000D03*
%TD*%
%TO.C,D15*%
X161100000Y-75000000D03*
X164600000Y-75000000D03*
%TD*%
%TO.C,D11*%
X148750000Y-78000000D03*
X145250000Y-78000000D03*
%TD*%
D15*
%TO.C,F2*%
X161830000Y-83535000D03*
X161830000Y-80560000D03*
%TD*%
%TO.C,F3*%
X153020000Y-83510000D03*
X153020000Y-80535000D03*
%TD*%
D11*
%TO.C,Q3*%
X157032500Y-94390000D03*
X157032500Y-96290000D03*
X158907500Y-95340000D03*
%TD*%
D12*
%TO.C,R3*%
X163360000Y-96110000D03*
X163360000Y-94110000D03*
%TD*%
D14*
%TO.C,D2*%
X177370000Y-92675000D03*
X177370000Y-89700000D03*
%TD*%
D15*
%TO.C,F1*%
X170690000Y-83515000D03*
X170690000Y-80540000D03*
%TD*%
D12*
%TO.C,R18*%
X137730000Y-91870000D03*
X137730000Y-89870000D03*
%TD*%
D10*
%TO.C,U6*%
X139540000Y-87490000D03*
X142080000Y-87490000D03*
X142080000Y-81990000D03*
X139540000Y-81990000D03*
%TD*%
D12*
%TO.C,R16*%
X140690000Y-91890000D03*
X140690000Y-89890000D03*
%TD*%
D14*
%TO.C,D7*%
X134460000Y-92555000D03*
X134460000Y-89580000D03*
%TD*%
D12*
%TO.C,R17*%
X131680000Y-91850000D03*
X131680000Y-89850000D03*
%TD*%
D13*
%TO.C,D9*%
X164600000Y-78100000D03*
X161100000Y-78100000D03*
%TD*%
%TO.C,D12*%
X140750000Y-78000000D03*
X137250000Y-78000000D03*
%TD*%
D14*
%TO.C,D3*%
X168600000Y-92535000D03*
X168600000Y-89560000D03*
%TD*%
D10*
%TO.C,U2*%
X174030000Y-87510000D03*
X176570000Y-87510000D03*
X176570000Y-82010000D03*
X174030000Y-82010000D03*
%TD*%
D13*
%TO.C,D10*%
X156650000Y-78000000D03*
X153150000Y-78000000D03*
%TD*%
D15*
%TO.C,F4*%
X144840000Y-83515000D03*
X144840000Y-80540000D03*
%TD*%
D16*
%TO.C,C1*%
X144560000Y-103695000D03*
X144560000Y-105770000D03*
%TD*%
D13*
%TO.C,D13*%
X132250000Y-78000000D03*
X128750000Y-78000000D03*
%TD*%
D12*
%TO.C,R8*%
X154890000Y-96200000D03*
X154890000Y-94200000D03*
%TD*%
%TO.C,R11*%
X149470000Y-91890000D03*
X149470000Y-89890000D03*
%TD*%
D10*
%TO.C,U3*%
X165060000Y-87490000D03*
X167600000Y-87490000D03*
X167600000Y-81990000D03*
X165060000Y-81990000D03*
%TD*%
D12*
%TO.C,R5*%
X166320000Y-91820000D03*
X166320000Y-89820000D03*
%TD*%
D15*
%TO.C,F5*%
X136730000Y-83477500D03*
X136730000Y-80502500D03*
%TD*%
D17*
%TO.C,D1*%
X140207500Y-112510000D03*
X137232500Y-112510000D03*
%TD*%
D12*
%TO.C,R4*%
X174960000Y-91850000D03*
X174960000Y-89850000D03*
%TD*%
%TO.C,R9*%
X146480000Y-96140000D03*
X146480000Y-94140000D03*
%TD*%
%TO.C,R13*%
X146550000Y-91890000D03*
X146550000Y-89890000D03*
%TD*%
%TO.C,R19*%
X128680000Y-91850000D03*
X128680000Y-89850000D03*
%TD*%
%TO.C,R14*%
X137740000Y-96250000D03*
X137740000Y-94250000D03*
%TD*%
D11*
%TO.C,Q6*%
X130742500Y-94410000D03*
X130742500Y-96310000D03*
X132617500Y-95360000D03*
%TD*%
D18*
%TO.C,U1*%
X147265000Y-109730000D03*
X148535000Y-109730000D03*
X149805000Y-109730000D03*
X151075000Y-109730000D03*
X152345000Y-109730000D03*
X153615000Y-109730000D03*
X154885000Y-109730000D03*
X156155000Y-109730000D03*
X157425000Y-109730000D03*
X158695000Y-109730000D03*
X158695000Y-100230000D03*
X157425000Y-100230000D03*
X156155000Y-100230000D03*
X154885000Y-100230000D03*
X153615000Y-100230000D03*
X152345000Y-100230000D03*
X151075000Y-100230000D03*
X149805000Y-100230000D03*
X148535000Y-100230000D03*
X147265000Y-100230000D03*
%TD*%
D15*
%TO.C,F6*%
X128160000Y-83507500D03*
X128160000Y-80532500D03*
%TD*%
D13*
%TO.C,D8*%
X172700000Y-78050000D03*
X169200000Y-78050000D03*
%TD*%
D10*
%TO.C,U4*%
X156040000Y-87460000D03*
X158580000Y-87460000D03*
X158580000Y-81960000D03*
X156040000Y-81960000D03*
%TD*%
D19*
%TO.C,R1*%
X133070000Y-112580000D03*
X135070000Y-112580000D03*
%TD*%
D10*
%TO.C,U5*%
X147510000Y-87420000D03*
X150050000Y-87420000D03*
X150050000Y-81920000D03*
X147510000Y-81920000D03*
%TD*%
D11*
%TO.C,Q5*%
X139862500Y-94440000D03*
X139862500Y-96340000D03*
X141737500Y-95390000D03*
%TD*%
D14*
%TO.C,D6*%
X143320000Y-92595000D03*
X143320000Y-89620000D03*
%TD*%
D12*
%TO.C,R10*%
X157860000Y-91850000D03*
X157860000Y-89850000D03*
%TD*%
%TO.C,R2*%
X171900000Y-96140000D03*
X171900000Y-94140000D03*
%TD*%
D14*
%TO.C,D5*%
X151710000Y-92480000D03*
X151710000Y-89505000D03*
%TD*%
D12*
%TO.C,R7*%
X163340000Y-91860000D03*
X163340000Y-89860000D03*
%TD*%
M02*
