%TF.GenerationSoftware,KiCad,Pcbnew,6.0.11+dfsg-1~bpo11+1*%
%TF.CreationDate,2023-04-06T12:14:25+02:00*%
%TF.ProjectId,avert_10,61766572-745f-4313-902e-6b696361645f,1.0*%
%TF.SameCoordinates,Original*%
%TF.FileFunction,Soldermask,Top*%
%TF.FilePolarity,Negative*%
%FSLAX46Y46*%
G04 Gerber Fmt 4.6, Leading zero omitted, Abs format (unit mm)*
G04 Created by KiCad (PCBNEW 6.0.11+dfsg-1~bpo11+1) date 2023-04-06 12:14:25*
%MOMM*%
%LPD*%
G01*
G04 APERTURE LIST*
G04 Aperture macros list*
%AMRoundRect*
0 Rectangle with rounded corners*
0 $1 Rounding radius*
0 $2 $3 $4 $5 $6 $7 $8 $9 X,Y pos of 4 corners*
0 Add a 4 corners polygon primitive as box body*
4,1,4,$2,$3,$4,$5,$6,$7,$8,$9,$2,$3,0*
0 Add four circle primitives for the rounded corners*
1,1,$1+$1,$2,$3*
1,1,$1+$1,$4,$5*
1,1,$1+$1,$6,$7*
1,1,$1+$1,$8,$9*
0 Add four rect primitives between the rounded corners*
20,1,$1+$1,$2,$3,$4,$5,0*
20,1,$1+$1,$4,$5,$6,$7,0*
20,1,$1+$1,$6,$7,$8,$9,0*
20,1,$1+$1,$8,$9,$2,$3,0*%
G04 Aperture macros list end*
%ADD10RoundRect,0.250000X-0.475000X0.337500X-0.475000X-0.337500X0.475000X-0.337500X0.475000X0.337500X0*%
%ADD11RoundRect,0.250000X-0.350000X-0.450000X0.350000X-0.450000X0.350000X0.450000X-0.350000X0.450000X0*%
%ADD12RoundRect,0.250000X0.337500X0.475000X-0.337500X0.475000X-0.337500X-0.475000X0.337500X-0.475000X0*%
%ADD13RoundRect,0.250000X0.475000X-0.337500X0.475000X0.337500X-0.475000X0.337500X-0.475000X-0.337500X0*%
%ADD14R,1.700000X1.700000*%
%ADD15O,1.700000X1.700000*%
%ADD16RoundRect,0.250000X0.350000X0.450000X-0.350000X0.450000X-0.350000X-0.450000X0.350000X-0.450000X0*%
%ADD17RoundRect,0.250000X-0.337500X-0.475000X0.337500X-0.475000X0.337500X0.475000X-0.337500X0.475000X0*%
%ADD18RoundRect,0.150000X0.150000X-0.825000X0.150000X0.825000X-0.150000X0.825000X-0.150000X-0.825000X0*%
%ADD19RoundRect,0.150000X-0.150000X0.875000X-0.150000X-0.875000X0.150000X-0.875000X0.150000X0.875000X0*%
%ADD20RoundRect,0.150000X-0.150000X0.825000X-0.150000X-0.825000X0.150000X-0.825000X0.150000X0.825000X0*%
%ADD21RoundRect,0.250001X0.462499X0.624999X-0.462499X0.624999X-0.462499X-0.624999X0.462499X-0.624999X0*%
%ADD22R,2.000000X1.500000*%
%ADD23R,2.000000X3.800000*%
%ADD24R,3.500000X2.950000*%
%ADD25R,2.100000X1.000000*%
%ADD26R,1.500000X1.500000*%
%ADD27RoundRect,0.250001X-0.462499X-0.624999X0.462499X-0.624999X0.462499X0.624999X-0.462499X0.624999X0*%
G04 APERTURE END LIST*
D10*
%TO.C,C19*%
X143000000Y-82000000D03*
X143000000Y-84075000D03*
%TD*%
D11*
%TO.C,R6*%
X154710000Y-120850000D03*
X156710000Y-120850000D03*
%TD*%
D12*
%TO.C,C13*%
X132975000Y-88600000D03*
X130900000Y-88600000D03*
%TD*%
D13*
%TO.C,C4*%
X118140000Y-114835000D03*
X118140000Y-112760000D03*
%TD*%
D14*
%TO.C,J2*%
X134125000Y-123175000D03*
D15*
X134125000Y-120635000D03*
X136665000Y-123175000D03*
X136665000Y-120635000D03*
X139205000Y-123175000D03*
X139205000Y-120635000D03*
X141745000Y-123175000D03*
X141745000Y-120635000D03*
X144285000Y-123175000D03*
X144285000Y-120635000D03*
X146825000Y-123175000D03*
X146825000Y-120635000D03*
X149365000Y-123175000D03*
X149365000Y-120635000D03*
X151905000Y-123175000D03*
X151905000Y-120635000D03*
%TD*%
D12*
%TO.C,C16*%
X131375000Y-77300000D03*
X129300000Y-77300000D03*
%TD*%
D14*
%TO.C,J5*%
X156375000Y-82785000D03*
D15*
X156375000Y-80245000D03*
X158915000Y-82785000D03*
X158915000Y-80245000D03*
X161455000Y-82785000D03*
X161455000Y-80245000D03*
%TD*%
D14*
%TO.C,J3*%
X165100000Y-89600000D03*
D15*
X167640000Y-89600000D03*
X165100000Y-92140000D03*
X167640000Y-92140000D03*
X165100000Y-94680000D03*
X167640000Y-94680000D03*
X165100000Y-97220000D03*
X167640000Y-97220000D03*
X165100000Y-99760000D03*
X167640000Y-99760000D03*
X165100000Y-102300000D03*
X167640000Y-102300000D03*
X165100000Y-104840000D03*
X167640000Y-104840000D03*
X165100000Y-107380000D03*
X167640000Y-107380000D03*
%TD*%
D16*
%TO.C,R1*%
X159600000Y-89000000D03*
X157600000Y-89000000D03*
%TD*%
D11*
%TO.C,R5*%
X152900000Y-86050000D03*
X154900000Y-86050000D03*
%TD*%
D17*
%TO.C,C6*%
X154725000Y-118140000D03*
X156800000Y-118140000D03*
%TD*%
D10*
%TO.C,C1*%
X161800000Y-110925000D03*
X161800000Y-113000000D03*
%TD*%
D18*
%TO.C,U3*%
X145895000Y-85575000D03*
X147165000Y-85575000D03*
X148435000Y-85575000D03*
X149705000Y-85575000D03*
X149705000Y-80625000D03*
X148435000Y-80625000D03*
X147165000Y-80625000D03*
X145895000Y-80625000D03*
%TD*%
D16*
%TO.C,R20*%
X154900000Y-107400000D03*
X152900000Y-107400000D03*
%TD*%
D13*
%TO.C,C3*%
X143000000Y-114875000D03*
X143000000Y-112800000D03*
%TD*%
D11*
%TO.C,R11*%
X152900000Y-89000000D03*
X154900000Y-89000000D03*
%TD*%
D14*
%TO.C,J1*%
X151920000Y-73900000D03*
D15*
X151920000Y-76440000D03*
X149380000Y-73900000D03*
X149380000Y-76440000D03*
X146840000Y-73900000D03*
X146840000Y-76440000D03*
X144300000Y-73900000D03*
X144300000Y-76440000D03*
X141760000Y-73900000D03*
X141760000Y-76440000D03*
X139220000Y-73900000D03*
X139220000Y-76440000D03*
X136680000Y-73900000D03*
X136680000Y-76440000D03*
X134140000Y-73900000D03*
X134140000Y-76440000D03*
%TD*%
D11*
%TO.C,R19*%
X139000000Y-107400000D03*
X141000000Y-107400000D03*
%TD*%
D19*
%TO.C,U1*%
X153765000Y-93670000D03*
X152495000Y-93670000D03*
X151225000Y-93670000D03*
X149955000Y-93670000D03*
X148685000Y-93670000D03*
X147415000Y-93670000D03*
X146145000Y-93670000D03*
X144875000Y-93670000D03*
X143605000Y-93670000D03*
X142335000Y-93670000D03*
X141065000Y-93670000D03*
X139795000Y-93670000D03*
X139795000Y-102970000D03*
X141065000Y-102970000D03*
X142335000Y-102970000D03*
X143605000Y-102970000D03*
X144875000Y-102970000D03*
X146145000Y-102970000D03*
X147415000Y-102970000D03*
X148685000Y-102970000D03*
X149955000Y-102970000D03*
X151225000Y-102970000D03*
X152495000Y-102970000D03*
X153765000Y-102970000D03*
%TD*%
D17*
%TO.C,C12*%
X117800000Y-85600000D03*
X119875000Y-85600000D03*
%TD*%
D20*
%TO.C,U7*%
X140005000Y-111425000D03*
X138735000Y-111425000D03*
X137465000Y-111425000D03*
X136195000Y-111425000D03*
X136195000Y-116375000D03*
X137465000Y-116375000D03*
X138735000Y-116375000D03*
X140005000Y-116375000D03*
%TD*%
D21*
%TO.C,D2*%
X161605000Y-120850000D03*
X158630000Y-120850000D03*
%TD*%
D12*
%TO.C,C14*%
X132175000Y-107000000D03*
X130100000Y-107000000D03*
%TD*%
D22*
%TO.C,U11*%
X124200000Y-112600000D03*
X124200000Y-114900000D03*
D23*
X130500000Y-114900000D03*
D22*
X124200000Y-117200000D03*
%TD*%
D17*
%TO.C,C17*%
X129125000Y-73500000D03*
X131200000Y-73500000D03*
%TD*%
%TO.C,C2*%
X166230000Y-86050000D03*
X168305000Y-86050000D03*
%TD*%
%TO.C,C5*%
X157725000Y-107300000D03*
X159800000Y-107300000D03*
%TD*%
D11*
%TO.C,R13*%
X143800000Y-89000000D03*
X145800000Y-89000000D03*
%TD*%
D12*
%TO.C,C9*%
X133000000Y-85300000D03*
X130925000Y-85300000D03*
%TD*%
D13*
%TO.C,C18*%
X124200000Y-108337500D03*
X124200000Y-106262500D03*
%TD*%
D14*
%TO.C,J4*%
X118400000Y-89600000D03*
D15*
X120940000Y-89600000D03*
X118400000Y-92140000D03*
X120940000Y-92140000D03*
X118400000Y-94680000D03*
X120940000Y-94680000D03*
X118400000Y-97220000D03*
X120940000Y-97220000D03*
X118400000Y-99760000D03*
X120940000Y-99760000D03*
X118400000Y-102300000D03*
X120940000Y-102300000D03*
X118400000Y-104840000D03*
X120940000Y-104840000D03*
X118400000Y-107380000D03*
X120940000Y-107380000D03*
%TD*%
D17*
%TO.C,C11*%
X124625000Y-88600000D03*
X126700000Y-88600000D03*
%TD*%
D24*
%TO.C,L1*%
X124600000Y-79175000D03*
X124600000Y-84625000D03*
%TD*%
D11*
%TO.C,R2*%
X165800000Y-110500000D03*
X167800000Y-110500000D03*
%TD*%
D16*
%TO.C,R10*%
X150300000Y-89000000D03*
X148300000Y-89000000D03*
%TD*%
D17*
%TO.C,C8*%
X123725000Y-75400000D03*
X125800000Y-75400000D03*
%TD*%
D11*
%TO.C,R21*%
X148300000Y-107400000D03*
X150300000Y-107400000D03*
%TD*%
D25*
%TO.C,U2*%
X125100000Y-92900000D03*
X125120000Y-95460000D03*
X125120000Y-100540000D03*
X125120000Y-103080000D03*
X135280000Y-100540000D03*
X135280000Y-92920000D03*
%TD*%
D13*
%TO.C,C15*%
X121340000Y-114825000D03*
X121340000Y-112750000D03*
%TD*%
D12*
%TO.C,C10*%
X132175000Y-110000000D03*
X130100000Y-110000000D03*
%TD*%
D16*
%TO.C,R12*%
X141200000Y-89000000D03*
X139200000Y-89000000D03*
%TD*%
D26*
%TO.C,SW1*%
X158910000Y-102250000D03*
X158910000Y-94450000D03*
%TD*%
D18*
%TO.C,U4*%
X136195000Y-85575000D03*
X137465000Y-85575000D03*
X138735000Y-85575000D03*
X140005000Y-85575000D03*
X140005000Y-80625000D03*
X138735000Y-80625000D03*
X137465000Y-80625000D03*
X136195000Y-80625000D03*
%TD*%
D16*
%TO.C,R4*%
X159580000Y-86020000D03*
X157580000Y-86020000D03*
%TD*%
D12*
%TO.C,C7*%
X156840000Y-123620000D03*
X154765000Y-123620000D03*
%TD*%
D20*
%TO.C,U8*%
X150005000Y-111425000D03*
X148735000Y-111425000D03*
X147465000Y-111425000D03*
X146195000Y-111425000D03*
X146195000Y-116375000D03*
X147465000Y-116375000D03*
X148735000Y-116375000D03*
X150005000Y-116375000D03*
%TD*%
D16*
%TO.C,R18*%
X145800000Y-107400000D03*
X143800000Y-107400000D03*
%TD*%
D27*
%TO.C,D1*%
X165100000Y-113200000D03*
X168075000Y-113200000D03*
%TD*%
D16*
%TO.C,R3*%
X163900000Y-86030000D03*
X161900000Y-86030000D03*
%TD*%
M02*
