%TF.GenerationSoftware,KiCad,Pcbnew,6.0.11+dfsg-1~bpo11+1*%
%TF.CreationDate,2023-04-06T12:14:04+02:00*%
%TF.ProjectId,avert_10,61766572-745f-4313-902e-6b696361645f,1.0*%
%TF.SameCoordinates,Original*%
%TF.FileFunction,Drillmap*%
%TF.FilePolarity,Positive*%
%FSLAX45Y45*%
G04 Gerber Fmt 4.5, Leading zero omitted, Abs format (unit mm)*
G04 Created by KiCad (PCBNEW 6.0.11+dfsg-1~bpo11+1) date 2023-04-06 12:14:04*
%MOMM*%
%LPD*%
G01*
G04 APERTURE LIST*
%ADD10C,0.100000*%
%ADD11C,0.200000*%
G04 APERTURE END LIST*
D10*
X12050000Y-12250000D02*
G75*
G03*
X12050000Y-12250000I-150000J0D01*
G01*
X16850000Y-7450000D02*
G75*
G03*
X16850000Y-7450000I-150000J0D01*
G01*
X12050000Y-7450000D02*
G75*
G03*
X12050000Y-7450000I-150000J0D01*
G01*
X11600000Y-12550000D02*
X17000000Y-12550000D01*
X17000000Y-12550000D02*
X17000000Y-7150000D01*
X17000000Y-7150000D02*
X11600000Y-7150000D01*
X11600000Y-7150000D02*
X11600000Y-12550000D01*
X16850000Y-12250000D02*
G75*
G03*
X16850000Y-12250000I-150000J0D01*
G01*
D11*
X11852619Y-12865476D02*
X11852619Y-12665476D01*
X11900238Y-12665476D01*
X11928809Y-12675000D01*
X11947857Y-12694048D01*
X11957381Y-12713095D01*
X11966905Y-12751190D01*
X11966905Y-12779762D01*
X11957381Y-12817857D01*
X11947857Y-12836905D01*
X11928809Y-12855952D01*
X11900238Y-12865476D01*
X11852619Y-12865476D01*
X12052619Y-12865476D02*
X12052619Y-12732143D01*
X12052619Y-12770238D02*
X12062143Y-12751190D01*
X12071667Y-12741667D01*
X12090714Y-12732143D01*
X12109762Y-12732143D01*
X12176428Y-12865476D02*
X12176428Y-12732143D01*
X12176428Y-12665476D02*
X12166905Y-12675000D01*
X12176428Y-12684524D01*
X12185952Y-12675000D01*
X12176428Y-12665476D01*
X12176428Y-12684524D01*
X12300238Y-12865476D02*
X12281190Y-12855952D01*
X12271667Y-12836905D01*
X12271667Y-12665476D01*
X12405000Y-12865476D02*
X12385952Y-12855952D01*
X12376428Y-12836905D01*
X12376428Y-12665476D01*
X12633571Y-12865476D02*
X12633571Y-12665476D01*
X12700238Y-12808333D01*
X12766905Y-12665476D01*
X12766905Y-12865476D01*
X12947857Y-12865476D02*
X12947857Y-12760714D01*
X12938333Y-12741667D01*
X12919286Y-12732143D01*
X12881190Y-12732143D01*
X12862143Y-12741667D01*
X12947857Y-12855952D02*
X12928809Y-12865476D01*
X12881190Y-12865476D01*
X12862143Y-12855952D01*
X12852619Y-12836905D01*
X12852619Y-12817857D01*
X12862143Y-12798809D01*
X12881190Y-12789286D01*
X12928809Y-12789286D01*
X12947857Y-12779762D01*
X13043095Y-12732143D02*
X13043095Y-12932143D01*
X13043095Y-12741667D02*
X13062143Y-12732143D01*
X13100238Y-12732143D01*
X13119286Y-12741667D01*
X13128809Y-12751190D01*
X13138333Y-12770238D01*
X13138333Y-12827381D01*
X13128809Y-12846428D01*
X13119286Y-12855952D01*
X13100238Y-12865476D01*
X13062143Y-12865476D01*
X13043095Y-12855952D01*
X13224048Y-12846428D02*
X13233571Y-12855952D01*
X13224048Y-12865476D01*
X13214524Y-12855952D01*
X13224048Y-12846428D01*
X13224048Y-12865476D01*
X13224048Y-12741667D02*
X13233571Y-12751190D01*
X13224048Y-12760714D01*
X13214524Y-12751190D01*
X13224048Y-12741667D01*
X13224048Y-12760714D01*
M02*
