M48
; DRILL file {KiCad 6.0.11+dfsg-1~bpo11+1} date Thu 06 Apr 2023 12:15:01 CEST
; FORMAT={-:-/ absolute / metric / decimal}
; #@! TF.CreationDate,2023-04-06T12:15:01+02:00
; #@! TF.GenerationSoftware,Kicad,Pcbnew,6.0.11+dfsg-1~bpo11+1
; #@! TF.FileFunction,Plated,1,4,PTH
FMAT,2
METRIC
; #@! TA.AperFunction,Plated,PTH,ViaDrill
T1C0.400
; #@! TA.AperFunction,Plated,PTH,ComponentDrill
T2C1.000
%
G90
G05
T1
X124.5Y-73.87
X126.01Y-117.33
X128.39Y-110.04
X128.99Y-79.28
X129.3Y-84.49
X132.31Y-79.38
X132.59Y-114.9
X133.02Y-83.32
X134.93Y-79.79
X135.37Y-106.08
X136.195Y-110.035
X136.66Y-103.59
X136.68Y-89.44
X137.91Y-114.4
X139.83Y-108.91
X140.0Y-104.84
X140.975Y-115.3
X141.9Y-116.3
X142.24Y-108.91
X142.94Y-91.25
X143.0Y-80.54
X144.27Y-79.44
X144.37Y-86.71
X144.49Y-115.47
X144.84Y-110.1
X145.05Y-108.93
X145.1Y-114.6
X147.0Y-91.25
X148.7Y-118.0
X149.04Y-91.29
X150.88Y-85.59
X151.46Y-108.92
X151.71Y-91.32
X154.14Y-108.91
X156.7Y-91.17
X159.28Y-110.06
T2
X118.4Y-89.6
X118.4Y-92.14
X118.4Y-94.68
X118.4Y-97.22
X118.4Y-99.76
X118.4Y-102.3
X118.4Y-104.84
X118.4Y-107.38
X120.94Y-89.6
X120.94Y-92.14
X120.94Y-94.68
X120.94Y-97.22
X120.94Y-99.76
X120.94Y-102.3
X120.94Y-104.84
X120.94Y-107.38
X134.125Y-120.635
X134.125Y-123.175
X134.14Y-73.9
X134.14Y-76.44
X136.665Y-120.635
X136.665Y-123.175
X136.68Y-73.9
X136.68Y-76.44
X139.205Y-120.635
X139.205Y-123.175
X139.22Y-73.9
X139.22Y-76.44
X141.745Y-120.635
X141.745Y-123.175
X141.76Y-73.9
X141.76Y-76.44
X144.285Y-120.635
X144.285Y-123.175
X144.3Y-73.9
X144.3Y-76.44
X146.825Y-120.635
X146.825Y-123.175
X146.84Y-73.9
X146.84Y-76.44
X149.365Y-120.635
X149.365Y-123.175
X149.38Y-73.9
X149.38Y-76.44
X151.905Y-120.635
X151.905Y-123.175
X151.92Y-73.9
X151.92Y-76.44
X156.375Y-80.245
X156.375Y-82.785
X158.915Y-80.245
X158.915Y-82.785
X161.455Y-80.245
X161.455Y-82.785
X165.1Y-89.6
X165.1Y-92.14
X165.1Y-94.68
X165.1Y-97.22
X165.1Y-99.76
X165.1Y-102.3
X165.1Y-104.84
X165.1Y-107.38
X167.64Y-89.6
X167.64Y-92.14
X167.64Y-94.68
X167.64Y-97.22
X167.64Y-99.76
X167.64Y-102.3
X167.64Y-104.84
X167.64Y-107.38
T0
M30
