M48
; DRILL file {KiCad 6.0.7+dfsg-1~bpo11+1} date Wed 12 Oct 2022 23:41:58 CEST
; FORMAT={-:-/ absolute / metric / decimal}
; #@! TF.CreationDate,2022-10-12T23:41:58+02:00
; #@! TF.GenerationSoftware,Kicad,Pcbnew,6.0.7+dfsg-1~bpo11+1
; #@! TF.FileFunction,Plated,1,2,PTH
FMAT,2
METRIC
; #@! TA.AperFunction,Plated,PTH,ViaDrill
T1C0.400
; #@! TA.AperFunction,Plated,PTH,ViaDrill
T2C0.800
; #@! TA.AperFunction,Plated,PTH,ComponentDrill
T3C1.000
; #@! TA.AperFunction,Plated,PTH,ComponentDrill
T4C1.400
%
G90
G05
T1
X128.0Y-68.0
X128.65Y-97.42
X130.15Y-91.85
X133.91Y-73.31
X136.0Y-117.0
X136.5Y-105.0
X137.77Y-97.53
X139.15Y-91.87
X147.05Y-97.56
X147.98Y-91.87
X148.53Y-112.76
X148.55Y-102.93
X149.76Y-101.87
X149.81Y-112.72
X151.09Y-112.0
X152.32Y-111.21
X152.36Y-97.56
X153.0Y-69.0
X153.615Y-97.875
X154.86Y-98.82
X155.5Y-105.0
X156.33Y-91.85
X156.83Y-111.2
X158.035Y-111.995
X159.35Y-112.73
X160.67Y-113.27
X161.74Y-96.09
X164.84Y-91.84
X165.5Y-105.0
X170.46Y-96.12
X173.4Y-91.85
X178.0Y-68.0
T2
X127.07Y-74.91
X127.09Y-78.02
X135.22Y-74.89
X135.29Y-77.98
X143.46Y-77.98
X143.49Y-74.99
X151.35Y-75.02
X151.35Y-78.0
X159.3Y-75.03
X159.35Y-78.05
X167.4Y-75.1
X167.4Y-78.05
T3
X144.11Y-115.12
X144.11Y-117.66
X146.65Y-115.12
X146.65Y-117.66
X149.19Y-115.12
X149.19Y-117.66
X151.73Y-115.12
X151.73Y-117.66
X154.27Y-115.12
X154.27Y-117.66
X156.81Y-115.12
X156.81Y-117.66
X159.35Y-115.12
X159.35Y-117.66
X161.89Y-115.12
X161.89Y-117.66
T4
X130.14Y-70.778
X135.22Y-70.778
X140.3Y-70.778
X145.38Y-70.778
X150.46Y-70.778
X155.54Y-70.778
X160.62Y-70.778
X165.7Y-70.778
X170.78Y-70.778
X175.86Y-70.778
T0
M30
