%TF.GenerationSoftware,KiCad,Pcbnew,6.0.11+dfsg-1~bpo11+1*%
%TF.CreationDate,2023-04-06T13:54:09+02:00*%
%TF.ProjectId,din-8_11,64696e2d-385f-4313-912e-6b696361645f,1.1*%
%TF.SameCoordinates,Original*%
%TF.FileFunction,Drillmap*%
%TF.FilePolarity,Positive*%
%FSLAX45Y45*%
G04 Gerber Fmt 4.5, Leading zero omitted, Abs format (unit mm)*
G04 Created by KiCad (PCBNEW 6.0.11+dfsg-1~bpo11+1) date 2023-04-06 13:54:09*
%MOMM*%
%LPD*%
G01*
G04 APERTURE LIST*
%ADD10C,0.100000*%
%ADD11C,0.200000*%
G04 APERTURE END LIST*
D10*
X12850000Y-8850000D02*
G75*
G03*
X12850000Y-8850000I-150000J0D01*
G01*
X17650000Y-8850000D02*
G75*
G03*
X17650000Y-8850000I-150000J0D01*
G01*
X12850000Y-11700000D02*
G75*
G03*
X12850000Y-11700000I-150000J0D01*
G01*
X12400000Y-12000000D02*
X17800000Y-12000000D01*
X17800000Y-12000000D02*
X17800000Y-6600000D01*
X17800000Y-6600000D02*
X12400000Y-6600000D01*
X12400000Y-6600000D02*
X12400000Y-12000000D01*
X17650000Y-11700000D02*
G75*
G03*
X17650000Y-11700000I-150000J0D01*
G01*
D11*
X12652619Y-12315476D02*
X12652619Y-12115476D01*
X12700238Y-12115476D01*
X12728809Y-12125000D01*
X12747857Y-12144048D01*
X12757381Y-12163095D01*
X12766905Y-12201190D01*
X12766905Y-12229762D01*
X12757381Y-12267857D01*
X12747857Y-12286905D01*
X12728809Y-12305952D01*
X12700238Y-12315476D01*
X12652619Y-12315476D01*
X12852619Y-12315476D02*
X12852619Y-12182143D01*
X12852619Y-12220238D02*
X12862143Y-12201190D01*
X12871667Y-12191667D01*
X12890714Y-12182143D01*
X12909762Y-12182143D01*
X12976428Y-12315476D02*
X12976428Y-12182143D01*
X12976428Y-12115476D02*
X12966905Y-12125000D01*
X12976428Y-12134524D01*
X12985952Y-12125000D01*
X12976428Y-12115476D01*
X12976428Y-12134524D01*
X13100238Y-12315476D02*
X13081190Y-12305952D01*
X13071667Y-12286905D01*
X13071667Y-12115476D01*
X13205000Y-12315476D02*
X13185952Y-12305952D01*
X13176428Y-12286905D01*
X13176428Y-12115476D01*
X13433571Y-12315476D02*
X13433571Y-12115476D01*
X13500238Y-12258333D01*
X13566905Y-12115476D01*
X13566905Y-12315476D01*
X13747857Y-12315476D02*
X13747857Y-12210714D01*
X13738333Y-12191667D01*
X13719286Y-12182143D01*
X13681190Y-12182143D01*
X13662143Y-12191667D01*
X13747857Y-12305952D02*
X13728809Y-12315476D01*
X13681190Y-12315476D01*
X13662143Y-12305952D01*
X13652619Y-12286905D01*
X13652619Y-12267857D01*
X13662143Y-12248809D01*
X13681190Y-12239286D01*
X13728809Y-12239286D01*
X13747857Y-12229762D01*
X13843095Y-12182143D02*
X13843095Y-12382143D01*
X13843095Y-12191667D02*
X13862143Y-12182143D01*
X13900238Y-12182143D01*
X13919286Y-12191667D01*
X13928809Y-12201190D01*
X13938333Y-12220238D01*
X13938333Y-12277381D01*
X13928809Y-12296428D01*
X13919286Y-12305952D01*
X13900238Y-12315476D01*
X13862143Y-12315476D01*
X13843095Y-12305952D01*
X14024048Y-12296428D02*
X14033571Y-12305952D01*
X14024048Y-12315476D01*
X14014524Y-12305952D01*
X14024048Y-12296428D01*
X14024048Y-12315476D01*
X14024048Y-12191667D02*
X14033571Y-12201190D01*
X14024048Y-12210714D01*
X14014524Y-12201190D01*
X14024048Y-12191667D01*
X14024048Y-12210714D01*
M02*
