%TF.GenerationSoftware,KiCad,Pcbnew,6.0.11+dfsg-1~bpo11+1*%
%TF.CreationDate,2023-04-06T13:54:20+02:00*%
%TF.ProjectId,din-8_11,64696e2d-385f-4313-912e-6b696361645f,1.1*%
%TF.SameCoordinates,Original*%
%TF.FileFunction,Legend,Bot*%
%TF.FilePolarity,Positive*%
%FSLAX46Y46*%
G04 Gerber Fmt 4.6, Leading zero omitted, Abs format (unit mm)*
G04 Created by KiCad (PCBNEW 6.0.11+dfsg-1~bpo11+1) date 2023-04-06 13:54:20*
%MOMM*%
%LPD*%
G01*
G04 APERTURE LIST*
%ADD10C,0.150000*%
%ADD11C,0.100000*%
%ADD12C,0.600000*%
%ADD13C,0.300000*%
%ADD14C,0.010000*%
G04 APERTURE END LIST*
D10*
X152823809Y-91452380D02*
X152490476Y-92452380D01*
X152157142Y-91452380D01*
X151300000Y-92452380D02*
X151871428Y-92452380D01*
X151585714Y-92452380D02*
X151585714Y-91452380D01*
X151680952Y-91595238D01*
X151776190Y-91690476D01*
X151871428Y-91738095D01*
X150871428Y-92357142D02*
X150823809Y-92404761D01*
X150871428Y-92452380D01*
X150919047Y-92404761D01*
X150871428Y-92357142D01*
X150871428Y-92452380D01*
X149871428Y-92452380D02*
X150442857Y-92452380D01*
X150157142Y-92452380D02*
X150157142Y-91452380D01*
X150252380Y-91595238D01*
X150347619Y-91690476D01*
X150442857Y-91738095D01*
X165180952Y-73552380D02*
X165180952Y-72552380D01*
X164704761Y-73552380D02*
X164704761Y-72552380D01*
X164133333Y-73552380D01*
X164133333Y-72552380D01*
X163895238Y-73647619D02*
X163133333Y-73647619D01*
X162371428Y-73552380D02*
X162942857Y-73552380D01*
X162657142Y-73552380D02*
X162657142Y-72552380D01*
X162752380Y-72695238D01*
X162847619Y-72790476D01*
X162942857Y-72838095D01*
D11*
X152557142Y-119739285D02*
X152557142Y-118989285D01*
X151878571Y-118989285D02*
X152021428Y-118989285D01*
X152092857Y-119025000D01*
X152128571Y-119060714D01*
X152200000Y-119167857D01*
X152235714Y-119310714D01*
X152235714Y-119596428D01*
X152200000Y-119667857D01*
X152164285Y-119703571D01*
X152092857Y-119739285D01*
X151950000Y-119739285D01*
X151878571Y-119703571D01*
X151842857Y-119667857D01*
X151807142Y-119596428D01*
X151807142Y-119417857D01*
X151842857Y-119346428D01*
X151878571Y-119310714D01*
X151950000Y-119275000D01*
X152092857Y-119275000D01*
X152164285Y-119310714D01*
X152200000Y-119346428D01*
X152235714Y-119417857D01*
D10*
X149880952Y-73552380D02*
X149880952Y-72552380D01*
X149404761Y-73552380D02*
X149404761Y-72552380D01*
X148833333Y-73552380D01*
X148833333Y-72552380D01*
X148595238Y-73647619D02*
X147833333Y-73647619D01*
X147166666Y-72885714D02*
X147166666Y-73552380D01*
X147404761Y-72504761D02*
X147642857Y-73219047D01*
X147023809Y-73219047D01*
D11*
X142992857Y-119060714D02*
X142957142Y-119025000D01*
X142885714Y-118989285D01*
X142707142Y-118989285D01*
X142635714Y-119025000D01*
X142600000Y-119060714D01*
X142564285Y-119132142D01*
X142564285Y-119203571D01*
X142600000Y-119310714D01*
X143028571Y-119739285D01*
X142564285Y-119739285D01*
X141921428Y-119239285D02*
X141921428Y-119739285D01*
X142100000Y-118953571D02*
X142278571Y-119489285D01*
X141814285Y-119489285D01*
X141635714Y-118989285D02*
X141385714Y-119739285D01*
X141135714Y-118989285D01*
D10*
X173590476Y-73457142D02*
X173638095Y-73504761D01*
X173780952Y-73552380D01*
X173876190Y-73552380D01*
X174019047Y-73504761D01*
X174114285Y-73409523D01*
X174161904Y-73314285D01*
X174209523Y-73123809D01*
X174209523Y-72980952D01*
X174161904Y-72790476D01*
X174114285Y-72695238D01*
X174019047Y-72600000D01*
X173876190Y-72552380D01*
X173780952Y-72552380D01*
X173638095Y-72600000D01*
X173590476Y-72647619D01*
D11*
X150371428Y-119025000D02*
X150442857Y-118989285D01*
X150550000Y-118989285D01*
X150657142Y-119025000D01*
X150728571Y-119096428D01*
X150764285Y-119167857D01*
X150800000Y-119310714D01*
X150800000Y-119417857D01*
X150764285Y-119560714D01*
X150728571Y-119632142D01*
X150657142Y-119703571D01*
X150550000Y-119739285D01*
X150478571Y-119739285D01*
X150371428Y-119703571D01*
X150335714Y-119667857D01*
X150335714Y-119417857D01*
X150478571Y-119417857D01*
X150014285Y-119739285D02*
X150014285Y-118989285D01*
X149585714Y-119739285D01*
X149585714Y-118989285D01*
X149228571Y-119739285D02*
X149228571Y-118989285D01*
X149050000Y-118989285D01*
X148942857Y-119025000D01*
X148871428Y-119096428D01*
X148835714Y-119167857D01*
X148800000Y-119310714D01*
X148800000Y-119417857D01*
X148835714Y-119560714D01*
X148871428Y-119632142D01*
X148942857Y-119703571D01*
X149050000Y-119739285D01*
X149228571Y-119739285D01*
D10*
X156085714Y-112152380D02*
X156419047Y-111676190D01*
X156657142Y-112152380D02*
X156657142Y-111152380D01*
X156276190Y-111152380D01*
X156180952Y-111200000D01*
X156133333Y-111247619D01*
X156085714Y-111342857D01*
X156085714Y-111485714D01*
X156133333Y-111580952D01*
X156180952Y-111628571D01*
X156276190Y-111676190D01*
X156657142Y-111676190D01*
X155657142Y-112152380D02*
X155657142Y-111152380D01*
X154847619Y-111628571D02*
X154704761Y-111676190D01*
X154657142Y-111723809D01*
X154609523Y-111819047D01*
X154609523Y-111961904D01*
X154657142Y-112057142D01*
X154704761Y-112104761D01*
X154800000Y-112152380D01*
X155180952Y-112152380D01*
X155180952Y-111152380D01*
X154847619Y-111152380D01*
X154752380Y-111200000D01*
X154704761Y-111247619D01*
X154657142Y-111342857D01*
X154657142Y-111438095D01*
X154704761Y-111533333D01*
X154752380Y-111580952D01*
X154847619Y-111628571D01*
X155180952Y-111628571D01*
X152704761Y-111104761D02*
X153561904Y-112390476D01*
X151038095Y-112057142D02*
X151085714Y-112104761D01*
X151228571Y-112152380D01*
X151323809Y-112152380D01*
X151466666Y-112104761D01*
X151561904Y-112009523D01*
X151609523Y-111914285D01*
X151657142Y-111723809D01*
X151657142Y-111580952D01*
X151609523Y-111390476D01*
X151561904Y-111295238D01*
X151466666Y-111200000D01*
X151323809Y-111152380D01*
X151228571Y-111152380D01*
X151085714Y-111200000D01*
X151038095Y-111247619D01*
X150419047Y-111152380D02*
X150228571Y-111152380D01*
X150133333Y-111200000D01*
X150038095Y-111295238D01*
X149990476Y-111485714D01*
X149990476Y-111819047D01*
X150038095Y-112009523D01*
X150133333Y-112104761D01*
X150228571Y-112152380D01*
X150419047Y-112152380D01*
X150514285Y-112104761D01*
X150609523Y-112009523D01*
X150657142Y-111819047D01*
X150657142Y-111485714D01*
X150609523Y-111295238D01*
X150514285Y-111200000D01*
X150419047Y-111152380D01*
X149609523Y-112104761D02*
X149466666Y-112152380D01*
X149228571Y-112152380D01*
X149133333Y-112104761D01*
X149085714Y-112057142D01*
X149038095Y-111961904D01*
X149038095Y-111866666D01*
X149085714Y-111771428D01*
X149133333Y-111723809D01*
X149228571Y-111676190D01*
X149419047Y-111628571D01*
X149514285Y-111580952D01*
X149561904Y-111533333D01*
X149609523Y-111438095D01*
X149609523Y-111342857D01*
X149561904Y-111247619D01*
X149514285Y-111200000D01*
X149419047Y-111152380D01*
X149180952Y-111152380D01*
X149038095Y-111200000D01*
X148752380Y-111152380D02*
X148180952Y-111152380D01*
X148466666Y-112152380D02*
X148466666Y-111152380D01*
X147847619Y-111628571D02*
X147514285Y-111628571D01*
X147371428Y-112152380D02*
X147847619Y-112152380D01*
X147847619Y-111152380D01*
X147371428Y-111152380D01*
X146466666Y-112152380D02*
X146942857Y-112152380D01*
X146942857Y-111152380D01*
X145657142Y-112152380D02*
X146133333Y-112152380D01*
X146133333Y-111152380D01*
X145371428Y-111866666D02*
X144895238Y-111866666D01*
X145466666Y-112152380D02*
X145133333Y-111152380D01*
X144800000Y-112152380D01*
D11*
X152657142Y-114039285D02*
X152657142Y-113289285D01*
X151942857Y-113289285D02*
X152300000Y-113289285D01*
X152335714Y-113646428D01*
X152300000Y-113610714D01*
X152228571Y-113575000D01*
X152050000Y-113575000D01*
X151978571Y-113610714D01*
X151942857Y-113646428D01*
X151907142Y-113717857D01*
X151907142Y-113896428D01*
X151942857Y-113967857D01*
X151978571Y-114003571D01*
X152050000Y-114039285D01*
X152228571Y-114039285D01*
X152300000Y-114003571D01*
X152335714Y-113967857D01*
X160471428Y-113325000D02*
X160542857Y-113289285D01*
X160650000Y-113289285D01*
X160757142Y-113325000D01*
X160828571Y-113396428D01*
X160864285Y-113467857D01*
X160900000Y-113610714D01*
X160900000Y-113717857D01*
X160864285Y-113860714D01*
X160828571Y-113932142D01*
X160757142Y-114003571D01*
X160650000Y-114039285D01*
X160578571Y-114039285D01*
X160471428Y-114003571D01*
X160435714Y-113967857D01*
X160435714Y-113717857D01*
X160578571Y-113717857D01*
X160114285Y-114039285D02*
X160114285Y-113289285D01*
X159685714Y-114039285D01*
X159685714Y-113289285D01*
X159328571Y-114039285D02*
X159328571Y-113289285D01*
X159150000Y-113289285D01*
X159042857Y-113325000D01*
X158971428Y-113396428D01*
X158935714Y-113467857D01*
X158900000Y-113610714D01*
X158900000Y-113717857D01*
X158935714Y-113860714D01*
X158971428Y-113932142D01*
X159042857Y-114003571D01*
X159150000Y-114039285D01*
X159328571Y-114039285D01*
D10*
X159980952Y-73552380D02*
X159980952Y-72552380D01*
X159504761Y-73552380D02*
X159504761Y-72552380D01*
X158933333Y-73552380D01*
X158933333Y-72552380D01*
X158695238Y-73647619D02*
X157933333Y-73647619D01*
X157742857Y-72647619D02*
X157695238Y-72600000D01*
X157600000Y-72552380D01*
X157361904Y-72552380D01*
X157266666Y-72600000D01*
X157219047Y-72647619D01*
X157171428Y-72742857D01*
X157171428Y-72838095D01*
X157219047Y-72980952D01*
X157790476Y-73552380D01*
X157171428Y-73552380D01*
X134580952Y-73552380D02*
X134580952Y-72552380D01*
X134104761Y-73552380D02*
X134104761Y-72552380D01*
X133533333Y-73552380D01*
X133533333Y-72552380D01*
X133295238Y-73647619D02*
X132533333Y-73647619D01*
X132390476Y-72552380D02*
X131723809Y-72552380D01*
X132152380Y-73552380D01*
D11*
X157757142Y-119739285D02*
X157757142Y-118989285D01*
X157435714Y-119060714D02*
X157400000Y-119025000D01*
X157328571Y-118989285D01*
X157150000Y-118989285D01*
X157078571Y-119025000D01*
X157042857Y-119060714D01*
X157007142Y-119132142D01*
X157007142Y-119203571D01*
X157042857Y-119310714D01*
X157471428Y-119739285D01*
X157007142Y-119739285D01*
D10*
X139580952Y-73552380D02*
X139580952Y-72552380D01*
X139104761Y-73552380D02*
X139104761Y-72552380D01*
X138533333Y-73552380D01*
X138533333Y-72552380D01*
X138295238Y-73647619D02*
X137533333Y-73647619D01*
X136866666Y-72552380D02*
X137057142Y-72552380D01*
X137152380Y-72600000D01*
X137200000Y-72647619D01*
X137295238Y-72790476D01*
X137342857Y-72980952D01*
X137342857Y-73361904D01*
X137295238Y-73457142D01*
X137247619Y-73504761D01*
X137152380Y-73552380D01*
X136961904Y-73552380D01*
X136866666Y-73504761D01*
X136819047Y-73457142D01*
X136771428Y-73361904D01*
X136771428Y-73123809D01*
X136819047Y-73028571D01*
X136866666Y-72980952D01*
X136961904Y-72933333D01*
X137152380Y-72933333D01*
X137247619Y-72980952D01*
X137295238Y-73028571D01*
X137342857Y-73123809D01*
D11*
X148307142Y-113289285D02*
X147842857Y-113289285D01*
X148092857Y-113575000D01*
X147985714Y-113575000D01*
X147914285Y-113610714D01*
X147878571Y-113646428D01*
X147842857Y-113717857D01*
X147842857Y-113896428D01*
X147878571Y-113967857D01*
X147914285Y-114003571D01*
X147985714Y-114039285D01*
X148200000Y-114039285D01*
X148271428Y-114003571D01*
X148307142Y-113967857D01*
X147521428Y-113967857D02*
X147485714Y-114003571D01*
X147521428Y-114039285D01*
X147557142Y-114003571D01*
X147521428Y-113967857D01*
X147521428Y-114039285D01*
X147235714Y-113289285D02*
X146771428Y-113289285D01*
X147021428Y-113575000D01*
X146914285Y-113575000D01*
X146842857Y-113610714D01*
X146807142Y-113646428D01*
X146771428Y-113717857D01*
X146771428Y-113896428D01*
X146807142Y-113967857D01*
X146842857Y-114003571D01*
X146914285Y-114039285D01*
X147128571Y-114039285D01*
X147200000Y-114003571D01*
X147235714Y-113967857D01*
X146557142Y-113289285D02*
X146307142Y-114039285D01*
X146057142Y-113289285D01*
D10*
X170180952Y-73552380D02*
X170180952Y-72552380D01*
X169704761Y-73552380D02*
X169704761Y-72552380D01*
X169133333Y-73552380D01*
X169133333Y-72552380D01*
X168895238Y-73647619D02*
X168133333Y-73647619D01*
X167704761Y-72552380D02*
X167609523Y-72552380D01*
X167514285Y-72600000D01*
X167466666Y-72647619D01*
X167419047Y-72742857D01*
X167371428Y-72933333D01*
X167371428Y-73171428D01*
X167419047Y-73361904D01*
X167466666Y-73457142D01*
X167514285Y-73504761D01*
X167609523Y-73552380D01*
X167704761Y-73552380D01*
X167800000Y-73504761D01*
X167847619Y-73457142D01*
X167895238Y-73361904D01*
X167942857Y-73171428D01*
X167942857Y-72933333D01*
X167895238Y-72742857D01*
X167847619Y-72647619D01*
X167800000Y-72600000D01*
X167704761Y-72552380D01*
D11*
X155157142Y-114039285D02*
X155157142Y-113289285D01*
X154871428Y-113289285D02*
X154407142Y-113289285D01*
X154657142Y-113575000D01*
X154550000Y-113575000D01*
X154478571Y-113610714D01*
X154442857Y-113646428D01*
X154407142Y-113717857D01*
X154407142Y-113896428D01*
X154442857Y-113967857D01*
X154478571Y-114003571D01*
X154550000Y-114039285D01*
X154764285Y-114039285D01*
X154835714Y-114003571D01*
X154871428Y-113967857D01*
X145171428Y-119025000D02*
X145242857Y-118989285D01*
X145350000Y-118989285D01*
X145457142Y-119025000D01*
X145528571Y-119096428D01*
X145564285Y-119167857D01*
X145600000Y-119310714D01*
X145600000Y-119417857D01*
X145564285Y-119560714D01*
X145528571Y-119632142D01*
X145457142Y-119703571D01*
X145350000Y-119739285D01*
X145278571Y-119739285D01*
X145171428Y-119703571D01*
X145135714Y-119667857D01*
X145135714Y-119417857D01*
X145278571Y-119417857D01*
X144814285Y-119739285D02*
X144814285Y-118989285D01*
X144385714Y-119739285D01*
X144385714Y-118989285D01*
X144028571Y-119739285D02*
X144028571Y-118989285D01*
X143850000Y-118989285D01*
X143742857Y-119025000D01*
X143671428Y-119096428D01*
X143635714Y-119167857D01*
X143600000Y-119310714D01*
X143600000Y-119417857D01*
X143635714Y-119560714D01*
X143671428Y-119632142D01*
X143742857Y-119703571D01*
X143850000Y-119739285D01*
X144028571Y-119739285D01*
X150057142Y-114039285D02*
X150057142Y-113289285D01*
X149771428Y-113289285D02*
X149271428Y-113289285D01*
X149592857Y-114039285D01*
D10*
X144780952Y-73552380D02*
X144780952Y-72552380D01*
X144304761Y-73552380D02*
X144304761Y-72552380D01*
X143733333Y-73552380D01*
X143733333Y-72552380D01*
X143495238Y-73647619D02*
X142733333Y-73647619D01*
X142019047Y-72552380D02*
X142495238Y-72552380D01*
X142542857Y-73028571D01*
X142495238Y-72980952D01*
X142400000Y-72933333D01*
X142161904Y-72933333D01*
X142066666Y-72980952D01*
X142019047Y-73028571D01*
X141971428Y-73123809D01*
X141971428Y-73361904D01*
X142019047Y-73457142D01*
X142066666Y-73504761D01*
X142161904Y-73552380D01*
X142400000Y-73552380D01*
X142495238Y-73504761D01*
X142542857Y-73457142D01*
D11*
X142992857Y-113360714D02*
X142957142Y-113325000D01*
X142885714Y-113289285D01*
X142707142Y-113289285D01*
X142635714Y-113325000D01*
X142600000Y-113360714D01*
X142564285Y-113432142D01*
X142564285Y-113503571D01*
X142600000Y-113610714D01*
X143028571Y-114039285D01*
X142564285Y-114039285D01*
X141921428Y-113539285D02*
X141921428Y-114039285D01*
X142100000Y-113253571D02*
X142278571Y-113789285D01*
X141814285Y-113789285D01*
X141635714Y-113289285D02*
X141385714Y-114039285D01*
X141135714Y-113289285D01*
D10*
X127890476Y-73457142D02*
X127938095Y-73504761D01*
X128080952Y-73552380D01*
X128176190Y-73552380D01*
X128319047Y-73504761D01*
X128414285Y-73409523D01*
X128461904Y-73314285D01*
X128509523Y-73123809D01*
X128509523Y-72980952D01*
X128461904Y-72790476D01*
X128414285Y-72695238D01*
X128319047Y-72600000D01*
X128176190Y-72552380D01*
X128080952Y-72552380D01*
X127938095Y-72600000D01*
X127890476Y-72647619D01*
D11*
X155157142Y-119739285D02*
X155157142Y-118989285D01*
X154478571Y-119239285D02*
X154478571Y-119739285D01*
X154657142Y-118953571D02*
X154835714Y-119489285D01*
X154371428Y-119489285D01*
X160357142Y-119739285D02*
X160357142Y-118989285D01*
X159857142Y-118989285D02*
X159785714Y-118989285D01*
X159714285Y-119025000D01*
X159678571Y-119060714D01*
X159642857Y-119132142D01*
X159607142Y-119275000D01*
X159607142Y-119453571D01*
X159642857Y-119596428D01*
X159678571Y-119667857D01*
X159714285Y-119703571D01*
X159785714Y-119739285D01*
X159857142Y-119739285D01*
X159928571Y-119703571D01*
X159964285Y-119667857D01*
X160000000Y-119596428D01*
X160035714Y-119453571D01*
X160035714Y-119275000D01*
X160000000Y-119132142D01*
X159964285Y-119060714D01*
X159928571Y-119025000D01*
X159857142Y-118989285D01*
D12*
X158685714Y-90109523D02*
X158685714Y-86109523D01*
X158685714Y-89919047D02*
X159066666Y-90109523D01*
X159828571Y-90109523D01*
X160209523Y-89919047D01*
X160400000Y-89728571D01*
X160590476Y-89347619D01*
X160590476Y-88204761D01*
X160400000Y-87823809D01*
X160209523Y-87633333D01*
X159828571Y-87442857D01*
X159066666Y-87442857D01*
X158685714Y-87633333D01*
X156780952Y-90109523D02*
X156780952Y-87442857D01*
X156780952Y-86109523D02*
X156971428Y-86300000D01*
X156780952Y-86490476D01*
X156590476Y-86300000D01*
X156780952Y-86109523D01*
X156780952Y-86490476D01*
X154876190Y-87442857D02*
X154876190Y-90109523D01*
X154876190Y-87823809D02*
X154685714Y-87633333D01*
X154304761Y-87442857D01*
X153733333Y-87442857D01*
X153352380Y-87633333D01*
X153161904Y-88014285D01*
X153161904Y-90109523D01*
X151257142Y-88585714D02*
X148209523Y-88585714D01*
X145733333Y-87823809D02*
X146114285Y-87633333D01*
X146304761Y-87442857D01*
X146495238Y-87061904D01*
X146495238Y-86871428D01*
X146304761Y-86490476D01*
X146114285Y-86300000D01*
X145733333Y-86109523D01*
X144971428Y-86109523D01*
X144590476Y-86300000D01*
X144400000Y-86490476D01*
X144209523Y-86871428D01*
X144209523Y-87061904D01*
X144400000Y-87442857D01*
X144590476Y-87633333D01*
X144971428Y-87823809D01*
X145733333Y-87823809D01*
X146114285Y-88014285D01*
X146304761Y-88204761D01*
X146495238Y-88585714D01*
X146495238Y-89347619D01*
X146304761Y-89728571D01*
X146114285Y-89919047D01*
X145733333Y-90109523D01*
X144971428Y-90109523D01*
X144590476Y-89919047D01*
X144400000Y-89728571D01*
X144209523Y-89347619D01*
X144209523Y-88585714D01*
X144400000Y-88204761D01*
X144590476Y-88014285D01*
X144971428Y-87823809D01*
D10*
X154980952Y-73552380D02*
X154980952Y-72552380D01*
X154504761Y-73552380D02*
X154504761Y-72552380D01*
X153933333Y-73552380D01*
X153933333Y-72552380D01*
X153695238Y-73647619D02*
X152933333Y-73647619D01*
X152790476Y-72552380D02*
X152171428Y-72552380D01*
X152504761Y-72933333D01*
X152361904Y-72933333D01*
X152266666Y-72980952D01*
X152219047Y-73028571D01*
X152171428Y-73123809D01*
X152171428Y-73361904D01*
X152219047Y-73457142D01*
X152266666Y-73504761D01*
X152361904Y-73552380D01*
X152647619Y-73552380D01*
X152742857Y-73504761D01*
X152790476Y-73457142D01*
D11*
X148307142Y-118989285D02*
X147842857Y-118989285D01*
X148092857Y-119275000D01*
X147985714Y-119275000D01*
X147914285Y-119310714D01*
X147878571Y-119346428D01*
X147842857Y-119417857D01*
X147842857Y-119596428D01*
X147878571Y-119667857D01*
X147914285Y-119703571D01*
X147985714Y-119739285D01*
X148200000Y-119739285D01*
X148271428Y-119703571D01*
X148307142Y-119667857D01*
X147521428Y-119667857D02*
X147485714Y-119703571D01*
X147521428Y-119739285D01*
X147557142Y-119703571D01*
X147521428Y-119667857D01*
X147521428Y-119739285D01*
X147235714Y-118989285D02*
X146771428Y-118989285D01*
X147021428Y-119275000D01*
X146914285Y-119275000D01*
X146842857Y-119310714D01*
X146807142Y-119346428D01*
X146771428Y-119417857D01*
X146771428Y-119596428D01*
X146807142Y-119667857D01*
X146842857Y-119703571D01*
X146914285Y-119739285D01*
X147128571Y-119739285D01*
X147200000Y-119703571D01*
X147235714Y-119667857D01*
X146557142Y-118989285D02*
X146307142Y-119739285D01*
X146057142Y-118989285D01*
X157657142Y-114039285D02*
X157657142Y-113289285D01*
X156907142Y-114039285D02*
X157335714Y-114039285D01*
X157121428Y-114039285D02*
X157121428Y-113289285D01*
X157192857Y-113396428D01*
X157264285Y-113467857D01*
X157335714Y-113503571D01*
X145271428Y-113325000D02*
X145342857Y-113289285D01*
X145450000Y-113289285D01*
X145557142Y-113325000D01*
X145628571Y-113396428D01*
X145664285Y-113467857D01*
X145700000Y-113610714D01*
X145700000Y-113717857D01*
X145664285Y-113860714D01*
X145628571Y-113932142D01*
X145557142Y-114003571D01*
X145450000Y-114039285D01*
X145378571Y-114039285D01*
X145271428Y-114003571D01*
X145235714Y-113967857D01*
X145235714Y-113717857D01*
X145378571Y-113717857D01*
X144914285Y-114039285D02*
X144914285Y-113289285D01*
X144485714Y-114039285D01*
X144485714Y-113289285D01*
X144128571Y-114039285D02*
X144128571Y-113289285D01*
X143950000Y-113289285D01*
X143842857Y-113325000D01*
X143771428Y-113396428D01*
X143735714Y-113467857D01*
X143700000Y-113610714D01*
X143700000Y-113717857D01*
X143735714Y-113860714D01*
X143771428Y-113932142D01*
X143842857Y-114003571D01*
X143950000Y-114039285D01*
X144128571Y-114039285D01*
D13*
X167509523Y-106371428D02*
X167128571Y-107704761D01*
X166747619Y-106752380D01*
X166366666Y-107704761D01*
X165985714Y-106371428D01*
X165414285Y-106371428D02*
X165033333Y-107704761D01*
X164652380Y-106752380D01*
X164271428Y-107704761D01*
X163890476Y-106371428D01*
X163319047Y-106371428D02*
X162938095Y-107704761D01*
X162557142Y-106752380D01*
X162176190Y-107704761D01*
X161795238Y-106371428D01*
X161033333Y-107514285D02*
X160938095Y-107609523D01*
X161033333Y-107704761D01*
X161128571Y-107609523D01*
X161033333Y-107514285D01*
X161033333Y-107704761D01*
X160080952Y-107704761D02*
X160080952Y-106371428D01*
X160080952Y-105704761D02*
X160176190Y-105800000D01*
X160080952Y-105895238D01*
X159985714Y-105800000D01*
X160080952Y-105704761D01*
X160080952Y-105895238D01*
X158842857Y-107704761D02*
X159033333Y-107609523D01*
X159128571Y-107514285D01*
X159223809Y-107323809D01*
X159223809Y-106752380D01*
X159128571Y-106561904D01*
X159033333Y-106466666D01*
X158842857Y-106371428D01*
X158557142Y-106371428D01*
X158366666Y-106466666D01*
X158271428Y-106561904D01*
X158176190Y-106752380D01*
X158176190Y-107323809D01*
X158271428Y-107514285D01*
X158366666Y-107609523D01*
X158557142Y-107704761D01*
X158842857Y-107704761D01*
X157604761Y-106371428D02*
X156842857Y-106371428D01*
X157319047Y-105704761D02*
X157319047Y-107419047D01*
X157223809Y-107609523D01*
X157033333Y-107704761D01*
X156842857Y-107704761D01*
X156366666Y-106371428D02*
X155890476Y-107704761D01*
X155414285Y-106371428D01*
X153890476Y-107609523D02*
X154080952Y-107704761D01*
X154461904Y-107704761D01*
X154652380Y-107609523D01*
X154747619Y-107419047D01*
X154747619Y-106657142D01*
X154652380Y-106466666D01*
X154461904Y-106371428D01*
X154080952Y-106371428D01*
X153890476Y-106466666D01*
X153795238Y-106657142D01*
X153795238Y-106847619D01*
X154747619Y-107038095D01*
X152938095Y-107704761D02*
X152938095Y-106371428D01*
X152938095Y-106752380D02*
X152842857Y-106561904D01*
X152747619Y-106466666D01*
X152557142Y-106371428D01*
X152366666Y-106371428D01*
X151985714Y-106371428D02*
X151223809Y-106371428D01*
X151700000Y-105704761D02*
X151700000Y-107419047D01*
X151604761Y-107609523D01*
X151414285Y-107704761D01*
X151223809Y-107704761D01*
X149795238Y-107609523D02*
X149985714Y-107704761D01*
X150366666Y-107704761D01*
X150557142Y-107609523D01*
X150652380Y-107419047D01*
X150652380Y-106657142D01*
X150557142Y-106466666D01*
X150366666Y-106371428D01*
X149985714Y-106371428D01*
X149795238Y-106466666D01*
X149700000Y-106657142D01*
X149700000Y-106847619D01*
X150652380Y-107038095D01*
X148842857Y-107704761D02*
X148842857Y-105704761D01*
X148842857Y-106466666D02*
X148652380Y-106371428D01*
X148271428Y-106371428D01*
X148080952Y-106466666D01*
X147985714Y-106561904D01*
X147890476Y-106752380D01*
X147890476Y-107323809D01*
X147985714Y-107514285D01*
X148080952Y-107609523D01*
X148271428Y-107704761D01*
X148652380Y-107704761D01*
X148842857Y-107609523D01*
X147033333Y-107704761D02*
X147033333Y-106371428D01*
X147033333Y-106752380D02*
X146938095Y-106561904D01*
X146842857Y-106466666D01*
X146652380Y-106371428D01*
X146461904Y-106371428D01*
X144938095Y-107704761D02*
X144938095Y-106657142D01*
X145033333Y-106466666D01*
X145223809Y-106371428D01*
X145604761Y-106371428D01*
X145795238Y-106466666D01*
X144938095Y-107609523D02*
X145128571Y-107704761D01*
X145604761Y-107704761D01*
X145795238Y-107609523D01*
X145890476Y-107419047D01*
X145890476Y-107228571D01*
X145795238Y-107038095D01*
X145604761Y-106942857D01*
X145128571Y-106942857D01*
X144938095Y-106847619D01*
X143223809Y-107609523D02*
X143414285Y-107704761D01*
X143795238Y-107704761D01*
X143985714Y-107609523D01*
X144080952Y-107419047D01*
X144080952Y-106657142D01*
X143985714Y-106466666D01*
X143795238Y-106371428D01*
X143414285Y-106371428D01*
X143223809Y-106466666D01*
X143128571Y-106657142D01*
X143128571Y-106847619D01*
X144080952Y-107038095D01*
X142271428Y-107514285D02*
X142176190Y-107609523D01*
X142271428Y-107704761D01*
X142366666Y-107609523D01*
X142271428Y-107514285D01*
X142271428Y-107704761D01*
X140461904Y-107609523D02*
X140652380Y-107704761D01*
X141033333Y-107704761D01*
X141223809Y-107609523D01*
X141319047Y-107514285D01*
X141414285Y-107323809D01*
X141414285Y-106752380D01*
X141319047Y-106561904D01*
X141223809Y-106466666D01*
X141033333Y-106371428D01*
X140652380Y-106371428D01*
X140461904Y-106466666D01*
X139319047Y-107704761D02*
X139509523Y-107609523D01*
X139604761Y-107514285D01*
X139700000Y-107323809D01*
X139700000Y-106752380D01*
X139604761Y-106561904D01*
X139509523Y-106466666D01*
X139319047Y-106371428D01*
X139033333Y-106371428D01*
X138842857Y-106466666D01*
X138747619Y-106561904D01*
X138652380Y-106752380D01*
X138652380Y-107323809D01*
X138747619Y-107514285D01*
X138842857Y-107609523D01*
X139033333Y-107704761D01*
X139319047Y-107704761D01*
X137795238Y-107704761D02*
X137795238Y-106371428D01*
X137795238Y-106561904D02*
X137700000Y-106466666D01*
X137509523Y-106371428D01*
X137223809Y-106371428D01*
X137033333Y-106466666D01*
X136938095Y-106657142D01*
X136938095Y-107704761D01*
X136938095Y-106657142D02*
X136842857Y-106466666D01*
X136652380Y-106371428D01*
X136366666Y-106371428D01*
X136176190Y-106466666D01*
X136080952Y-106657142D01*
X136080952Y-107704761D01*
%TO.C,REF\u002A\u002A*%
G36*
X152187275Y-98918931D02*
G01*
X152271095Y-99363555D01*
X152889667Y-99618551D01*
X153260707Y-99366246D01*
X153334144Y-99316506D01*
X153431499Y-99251218D01*
X153515787Y-99195454D01*
X153582631Y-99152078D01*
X153627654Y-99123953D01*
X153646478Y-99113942D01*
X153658039Y-99121061D01*
X153692596Y-99150894D01*
X153744894Y-99199852D01*
X153810500Y-99263440D01*
X153884983Y-99337163D01*
X153963913Y-99416525D01*
X154042856Y-99497031D01*
X154117384Y-99574185D01*
X154183063Y-99643493D01*
X154235463Y-99700457D01*
X154270153Y-99740584D01*
X154282701Y-99759377D01*
X154279782Y-99767451D01*
X154259571Y-99803469D01*
X154222663Y-99862744D01*
X154172050Y-99940630D01*
X154110725Y-100032481D01*
X154041679Y-100133650D01*
X154003787Y-100188826D01*
X153938606Y-100284884D01*
X153882723Y-100368717D01*
X153839117Y-100435777D01*
X153810769Y-100481519D01*
X153800657Y-100501396D01*
X153800823Y-100502497D01*
X153809743Y-100527694D01*
X153830206Y-100579147D01*
X153859360Y-100650135D01*
X153894353Y-100733935D01*
X153932332Y-100823828D01*
X153970445Y-100913091D01*
X154005839Y-100995003D01*
X154035662Y-101062843D01*
X154057061Y-101109890D01*
X154067184Y-101129422D01*
X154073174Y-101131155D01*
X154109566Y-101138969D01*
X154174427Y-101151915D01*
X154262565Y-101168979D01*
X154368787Y-101189151D01*
X154487902Y-101211418D01*
X154550683Y-101223223D01*
X154665912Y-101245748D01*
X154766662Y-101266550D01*
X154847426Y-101284435D01*
X154902698Y-101298208D01*
X154926971Y-101306674D01*
X154931331Y-101315066D01*
X154938563Y-101356072D01*
X154944246Y-101424368D01*
X154948382Y-101513529D01*
X154950977Y-101617128D01*
X154952036Y-101728740D01*
X154951561Y-101841938D01*
X154949559Y-101950296D01*
X154946033Y-102047389D01*
X154940987Y-102126790D01*
X154934427Y-102182072D01*
X154926356Y-102206810D01*
X154921458Y-102209600D01*
X154884930Y-102221569D01*
X154821565Y-102237405D01*
X154738686Y-102255374D01*
X154643618Y-102273741D01*
X154611542Y-102279591D01*
X154463393Y-102306798D01*
X154346961Y-102328663D01*
X154258209Y-102346093D01*
X154193103Y-102359996D01*
X154147606Y-102371277D01*
X154117682Y-102380843D01*
X154099294Y-102389601D01*
X154088407Y-102398457D01*
X154087142Y-102399943D01*
X154069338Y-102430931D01*
X154042994Y-102487634D01*
X154010661Y-102563399D01*
X153974893Y-102651574D01*
X153938244Y-102745507D01*
X153903266Y-102838547D01*
X153872513Y-102924041D01*
X153848538Y-102995336D01*
X153833895Y-103045782D01*
X153831136Y-103068726D01*
X153832981Y-103071703D01*
X153852075Y-103100493D01*
X153887984Y-103153595D01*
X153937378Y-103226117D01*
X153996927Y-103313167D01*
X154063303Y-103409854D01*
X154081520Y-103436456D01*
X154145577Y-103531875D01*
X154200937Y-103617212D01*
X154244439Y-103687405D01*
X154272924Y-103737394D01*
X154283232Y-103762116D01*
X154281011Y-103768616D01*
X154257858Y-103800644D01*
X154212177Y-103852945D01*
X154147241Y-103921999D01*
X154066319Y-104004286D01*
X153972685Y-104096286D01*
X153919165Y-104147781D01*
X153834542Y-104227983D01*
X153760475Y-104296678D01*
X153700941Y-104350252D01*
X153659917Y-104385085D01*
X153641381Y-104397563D01*
X153628646Y-104392938D01*
X153589436Y-104371057D01*
X153532495Y-104335273D01*
X153465250Y-104290117D01*
X153417438Y-104257165D01*
X153321985Y-104191727D01*
X153220125Y-104122228D01*
X153127088Y-104059075D01*
X152944832Y-103935800D01*
X152791841Y-104018520D01*
X152755817Y-104037613D01*
X152690303Y-104070272D01*
X152639640Y-104092819D01*
X152612564Y-104101226D01*
X152603703Y-104090430D01*
X152581699Y-104049323D01*
X152549199Y-103981549D01*
X152508010Y-103891409D01*
X152459942Y-103783205D01*
X152406802Y-103661237D01*
X152350399Y-103529808D01*
X152292542Y-103393218D01*
X152235038Y-103255767D01*
X152179697Y-103121758D01*
X152128326Y-102995491D01*
X152082735Y-102881268D01*
X152044732Y-102783390D01*
X152016124Y-102706157D01*
X151998721Y-102653871D01*
X151994331Y-102630833D01*
X151994628Y-102630160D01*
X152015077Y-102608863D01*
X152057850Y-102575508D01*
X152114117Y-102537011D01*
X152131877Y-102525256D01*
X152267014Y-102413735D01*
X152378856Y-102280906D01*
X152464755Y-102132298D01*
X152522062Y-101973440D01*
X152548131Y-101809860D01*
X152540313Y-101647088D01*
X152508644Y-101502315D01*
X152451782Y-101356124D01*
X152368888Y-101225703D01*
X152255131Y-101101813D01*
X152210433Y-101062235D01*
X152065935Y-100964723D01*
X151909838Y-100899050D01*
X151746667Y-100864630D01*
X151580943Y-100860874D01*
X151417192Y-100887194D01*
X151259936Y-100943003D01*
X151113698Y-101027714D01*
X150983004Y-101140737D01*
X150872374Y-101281487D01*
X150851105Y-101316342D01*
X150778810Y-101475655D01*
X150740415Y-101641552D01*
X150734914Y-101809737D01*
X150761301Y-101975913D01*
X150818570Y-102135784D01*
X150905717Y-102285053D01*
X151021736Y-102419423D01*
X151165622Y-102534599D01*
X151170294Y-102537702D01*
X151225964Y-102576933D01*
X151267689Y-102610286D01*
X151286746Y-102630833D01*
X151284342Y-102646941D01*
X151269391Y-102693844D01*
X151242881Y-102766539D01*
X151206620Y-102860725D01*
X151162416Y-102972098D01*
X151112076Y-103096358D01*
X151057407Y-103229202D01*
X151000218Y-103366327D01*
X150942316Y-103503432D01*
X150885510Y-103636215D01*
X150831606Y-103760374D01*
X150782412Y-103871606D01*
X150739737Y-103965609D01*
X150705387Y-104038082D01*
X150681171Y-104084722D01*
X150668897Y-104101226D01*
X150658689Y-104098991D01*
X150618586Y-104082926D01*
X150559318Y-104054759D01*
X150489619Y-104018520D01*
X150336629Y-103935800D01*
X150154373Y-104059075D01*
X150100527Y-104095579D01*
X150000374Y-104163784D01*
X149900525Y-104232098D01*
X149816211Y-104290117D01*
X149769679Y-104321736D01*
X149709200Y-104361020D01*
X149664357Y-104387912D01*
X149642455Y-104397883D01*
X149633045Y-104393650D01*
X149599031Y-104367721D01*
X149546595Y-104322070D01*
X149480301Y-104261186D01*
X149404713Y-104189561D01*
X149324396Y-104111683D01*
X149243913Y-104032045D01*
X149167829Y-103955135D01*
X149100707Y-103885445D01*
X149047112Y-103827464D01*
X149011608Y-103785684D01*
X148998759Y-103764593D01*
X148999500Y-103760581D01*
X149014793Y-103727920D01*
X149047462Y-103671412D01*
X149094350Y-103596163D01*
X149152301Y-103507275D01*
X149218157Y-103409854D01*
X149236627Y-103382982D01*
X149301482Y-103288423D01*
X149358609Y-103204827D01*
X149404678Y-103137084D01*
X149436359Y-103090086D01*
X149450324Y-103068726D01*
X149450668Y-103067811D01*
X149446546Y-103041678D01*
X149430807Y-102988740D01*
X149406004Y-102915647D01*
X149374689Y-102829052D01*
X149339417Y-102735608D01*
X149302740Y-102641965D01*
X149267212Y-102554777D01*
X149235386Y-102480695D01*
X149209816Y-102426371D01*
X149193053Y-102398457D01*
X149191374Y-102396724D01*
X149179372Y-102387956D01*
X149159103Y-102379115D01*
X149126529Y-102369292D01*
X149077616Y-102357583D01*
X149008327Y-102343080D01*
X148914625Y-102324876D01*
X148792476Y-102302066D01*
X148637842Y-102273741D01*
X148605770Y-102267780D01*
X148513893Y-102249352D01*
X148436607Y-102231892D01*
X148381236Y-102217133D01*
X148355105Y-102206810D01*
X148350733Y-102198197D01*
X148343445Y-102156826D01*
X148337669Y-102088241D01*
X148333410Y-101998868D01*
X148330673Y-101895135D01*
X148329462Y-101783465D01*
X148329782Y-101670287D01*
X148331636Y-101562026D01*
X148335030Y-101465108D01*
X148339967Y-101385959D01*
X148346452Y-101331006D01*
X148354489Y-101306674D01*
X148362696Y-101303079D01*
X148403519Y-101291748D01*
X148472524Y-101275722D01*
X148564203Y-101256195D01*
X148673050Y-101234362D01*
X148793558Y-101211418D01*
X148859357Y-101199159D01*
X148972135Y-101177901D01*
X149069207Y-101159287D01*
X149145382Y-101144328D01*
X149195469Y-101134036D01*
X149214276Y-101129422D01*
X149214983Y-101128471D01*
X149226961Y-101104310D01*
X149249794Y-101053694D01*
X149280630Y-100983338D01*
X149316613Y-100899958D01*
X149354891Y-100810270D01*
X149392609Y-100720989D01*
X149426913Y-100638832D01*
X149454949Y-100570513D01*
X149473864Y-100522748D01*
X149480803Y-100502254D01*
X149477742Y-100495043D01*
X149457372Y-100460728D01*
X149420422Y-100402970D01*
X149369860Y-100326299D01*
X149308657Y-100235248D01*
X149239781Y-100134350D01*
X149201994Y-100079093D01*
X149136782Y-99982215D01*
X149080871Y-99897193D01*
X149037241Y-99828662D01*
X149008877Y-99781260D01*
X148998759Y-99759623D01*
X149005790Y-99747887D01*
X149035197Y-99712818D01*
X149083441Y-99659745D01*
X149146093Y-99593164D01*
X149218725Y-99517574D01*
X149296908Y-99437472D01*
X149376214Y-99357354D01*
X149452213Y-99281718D01*
X149520478Y-99215062D01*
X149576580Y-99161882D01*
X149616090Y-99126676D01*
X149634579Y-99113942D01*
X149644843Y-99118893D01*
X149682530Y-99141857D01*
X149743348Y-99180938D01*
X149822913Y-99233272D01*
X149916843Y-99295996D01*
X150020754Y-99366246D01*
X150391794Y-99618551D01*
X150701080Y-99491053D01*
X151010365Y-99363555D01*
X151094186Y-98918931D01*
X151178006Y-98474307D01*
X152103454Y-98474307D01*
X152187275Y-98918931D01*
G37*
D14*
X152187275Y-98918931D02*
X152271095Y-99363555D01*
X152889667Y-99618551D01*
X153260707Y-99366246D01*
X153334144Y-99316506D01*
X153431499Y-99251218D01*
X153515787Y-99195454D01*
X153582631Y-99152078D01*
X153627654Y-99123953D01*
X153646478Y-99113942D01*
X153658039Y-99121061D01*
X153692596Y-99150894D01*
X153744894Y-99199852D01*
X153810500Y-99263440D01*
X153884983Y-99337163D01*
X153963913Y-99416525D01*
X154042856Y-99497031D01*
X154117384Y-99574185D01*
X154183063Y-99643493D01*
X154235463Y-99700457D01*
X154270153Y-99740584D01*
X154282701Y-99759377D01*
X154279782Y-99767451D01*
X154259571Y-99803469D01*
X154222663Y-99862744D01*
X154172050Y-99940630D01*
X154110725Y-100032481D01*
X154041679Y-100133650D01*
X154003787Y-100188826D01*
X153938606Y-100284884D01*
X153882723Y-100368717D01*
X153839117Y-100435777D01*
X153810769Y-100481519D01*
X153800657Y-100501396D01*
X153800823Y-100502497D01*
X153809743Y-100527694D01*
X153830206Y-100579147D01*
X153859360Y-100650135D01*
X153894353Y-100733935D01*
X153932332Y-100823828D01*
X153970445Y-100913091D01*
X154005839Y-100995003D01*
X154035662Y-101062843D01*
X154057061Y-101109890D01*
X154067184Y-101129422D01*
X154073174Y-101131155D01*
X154109566Y-101138969D01*
X154174427Y-101151915D01*
X154262565Y-101168979D01*
X154368787Y-101189151D01*
X154487902Y-101211418D01*
X154550683Y-101223223D01*
X154665912Y-101245748D01*
X154766662Y-101266550D01*
X154847426Y-101284435D01*
X154902698Y-101298208D01*
X154926971Y-101306674D01*
X154931331Y-101315066D01*
X154938563Y-101356072D01*
X154944246Y-101424368D01*
X154948382Y-101513529D01*
X154950977Y-101617128D01*
X154952036Y-101728740D01*
X154951561Y-101841938D01*
X154949559Y-101950296D01*
X154946033Y-102047389D01*
X154940987Y-102126790D01*
X154934427Y-102182072D01*
X154926356Y-102206810D01*
X154921458Y-102209600D01*
X154884930Y-102221569D01*
X154821565Y-102237405D01*
X154738686Y-102255374D01*
X154643618Y-102273741D01*
X154611542Y-102279591D01*
X154463393Y-102306798D01*
X154346961Y-102328663D01*
X154258209Y-102346093D01*
X154193103Y-102359996D01*
X154147606Y-102371277D01*
X154117682Y-102380843D01*
X154099294Y-102389601D01*
X154088407Y-102398457D01*
X154087142Y-102399943D01*
X154069338Y-102430931D01*
X154042994Y-102487634D01*
X154010661Y-102563399D01*
X153974893Y-102651574D01*
X153938244Y-102745507D01*
X153903266Y-102838547D01*
X153872513Y-102924041D01*
X153848538Y-102995336D01*
X153833895Y-103045782D01*
X153831136Y-103068726D01*
X153832981Y-103071703D01*
X153852075Y-103100493D01*
X153887984Y-103153595D01*
X153937378Y-103226117D01*
X153996927Y-103313167D01*
X154063303Y-103409854D01*
X154081520Y-103436456D01*
X154145577Y-103531875D01*
X154200937Y-103617212D01*
X154244439Y-103687405D01*
X154272924Y-103737394D01*
X154283232Y-103762116D01*
X154281011Y-103768616D01*
X154257858Y-103800644D01*
X154212177Y-103852945D01*
X154147241Y-103921999D01*
X154066319Y-104004286D01*
X153972685Y-104096286D01*
X153919165Y-104147781D01*
X153834542Y-104227983D01*
X153760475Y-104296678D01*
X153700941Y-104350252D01*
X153659917Y-104385085D01*
X153641381Y-104397563D01*
X153628646Y-104392938D01*
X153589436Y-104371057D01*
X153532495Y-104335273D01*
X153465250Y-104290117D01*
X153417438Y-104257165D01*
X153321985Y-104191727D01*
X153220125Y-104122228D01*
X153127088Y-104059075D01*
X152944832Y-103935800D01*
X152791841Y-104018520D01*
X152755817Y-104037613D01*
X152690303Y-104070272D01*
X152639640Y-104092819D01*
X152612564Y-104101226D01*
X152603703Y-104090430D01*
X152581699Y-104049323D01*
X152549199Y-103981549D01*
X152508010Y-103891409D01*
X152459942Y-103783205D01*
X152406802Y-103661237D01*
X152350399Y-103529808D01*
X152292542Y-103393218D01*
X152235038Y-103255767D01*
X152179697Y-103121758D01*
X152128326Y-102995491D01*
X152082735Y-102881268D01*
X152044732Y-102783390D01*
X152016124Y-102706157D01*
X151998721Y-102653871D01*
X151994331Y-102630833D01*
X151994628Y-102630160D01*
X152015077Y-102608863D01*
X152057850Y-102575508D01*
X152114117Y-102537011D01*
X152131877Y-102525256D01*
X152267014Y-102413735D01*
X152378856Y-102280906D01*
X152464755Y-102132298D01*
X152522062Y-101973440D01*
X152548131Y-101809860D01*
X152540313Y-101647088D01*
X152508644Y-101502315D01*
X152451782Y-101356124D01*
X152368888Y-101225703D01*
X152255131Y-101101813D01*
X152210433Y-101062235D01*
X152065935Y-100964723D01*
X151909838Y-100899050D01*
X151746667Y-100864630D01*
X151580943Y-100860874D01*
X151417192Y-100887194D01*
X151259936Y-100943003D01*
X151113698Y-101027714D01*
X150983004Y-101140737D01*
X150872374Y-101281487D01*
X150851105Y-101316342D01*
X150778810Y-101475655D01*
X150740415Y-101641552D01*
X150734914Y-101809737D01*
X150761301Y-101975913D01*
X150818570Y-102135784D01*
X150905717Y-102285053D01*
X151021736Y-102419423D01*
X151165622Y-102534599D01*
X151170294Y-102537702D01*
X151225964Y-102576933D01*
X151267689Y-102610286D01*
X151286746Y-102630833D01*
X151284342Y-102646941D01*
X151269391Y-102693844D01*
X151242881Y-102766539D01*
X151206620Y-102860725D01*
X151162416Y-102972098D01*
X151112076Y-103096358D01*
X151057407Y-103229202D01*
X151000218Y-103366327D01*
X150942316Y-103503432D01*
X150885510Y-103636215D01*
X150831606Y-103760374D01*
X150782412Y-103871606D01*
X150739737Y-103965609D01*
X150705387Y-104038082D01*
X150681171Y-104084722D01*
X150668897Y-104101226D01*
X150658689Y-104098991D01*
X150618586Y-104082926D01*
X150559318Y-104054759D01*
X150489619Y-104018520D01*
X150336629Y-103935800D01*
X150154373Y-104059075D01*
X150100527Y-104095579D01*
X150000374Y-104163784D01*
X149900525Y-104232098D01*
X149816211Y-104290117D01*
X149769679Y-104321736D01*
X149709200Y-104361020D01*
X149664357Y-104387912D01*
X149642455Y-104397883D01*
X149633045Y-104393650D01*
X149599031Y-104367721D01*
X149546595Y-104322070D01*
X149480301Y-104261186D01*
X149404713Y-104189561D01*
X149324396Y-104111683D01*
X149243913Y-104032045D01*
X149167829Y-103955135D01*
X149100707Y-103885445D01*
X149047112Y-103827464D01*
X149011608Y-103785684D01*
X148998759Y-103764593D01*
X148999500Y-103760581D01*
X149014793Y-103727920D01*
X149047462Y-103671412D01*
X149094350Y-103596163D01*
X149152301Y-103507275D01*
X149218157Y-103409854D01*
X149236627Y-103382982D01*
X149301482Y-103288423D01*
X149358609Y-103204827D01*
X149404678Y-103137084D01*
X149436359Y-103090086D01*
X149450324Y-103068726D01*
X149450668Y-103067811D01*
X149446546Y-103041678D01*
X149430807Y-102988740D01*
X149406004Y-102915647D01*
X149374689Y-102829052D01*
X149339417Y-102735608D01*
X149302740Y-102641965D01*
X149267212Y-102554777D01*
X149235386Y-102480695D01*
X149209816Y-102426371D01*
X149193053Y-102398457D01*
X149191374Y-102396724D01*
X149179372Y-102387956D01*
X149159103Y-102379115D01*
X149126529Y-102369292D01*
X149077616Y-102357583D01*
X149008327Y-102343080D01*
X148914625Y-102324876D01*
X148792476Y-102302066D01*
X148637842Y-102273741D01*
X148605770Y-102267780D01*
X148513893Y-102249352D01*
X148436607Y-102231892D01*
X148381236Y-102217133D01*
X148355105Y-102206810D01*
X148350733Y-102198197D01*
X148343445Y-102156826D01*
X148337669Y-102088241D01*
X148333410Y-101998868D01*
X148330673Y-101895135D01*
X148329462Y-101783465D01*
X148329782Y-101670287D01*
X148331636Y-101562026D01*
X148335030Y-101465108D01*
X148339967Y-101385959D01*
X148346452Y-101331006D01*
X148354489Y-101306674D01*
X148362696Y-101303079D01*
X148403519Y-101291748D01*
X148472524Y-101275722D01*
X148564203Y-101256195D01*
X148673050Y-101234362D01*
X148793558Y-101211418D01*
X148859357Y-101199159D01*
X148972135Y-101177901D01*
X149069207Y-101159287D01*
X149145382Y-101144328D01*
X149195469Y-101134036D01*
X149214276Y-101129422D01*
X149214983Y-101128471D01*
X149226961Y-101104310D01*
X149249794Y-101053694D01*
X149280630Y-100983338D01*
X149316613Y-100899958D01*
X149354891Y-100810270D01*
X149392609Y-100720989D01*
X149426913Y-100638832D01*
X149454949Y-100570513D01*
X149473864Y-100522748D01*
X149480803Y-100502254D01*
X149477742Y-100495043D01*
X149457372Y-100460728D01*
X149420422Y-100402970D01*
X149369860Y-100326299D01*
X149308657Y-100235248D01*
X149239781Y-100134350D01*
X149201994Y-100079093D01*
X149136782Y-99982215D01*
X149080871Y-99897193D01*
X149037241Y-99828662D01*
X149008877Y-99781260D01*
X148998759Y-99759623D01*
X149005790Y-99747887D01*
X149035197Y-99712818D01*
X149083441Y-99659745D01*
X149146093Y-99593164D01*
X149218725Y-99517574D01*
X149296908Y-99437472D01*
X149376214Y-99357354D01*
X149452213Y-99281718D01*
X149520478Y-99215062D01*
X149576580Y-99161882D01*
X149616090Y-99126676D01*
X149634579Y-99113942D01*
X149644843Y-99118893D01*
X149682530Y-99141857D01*
X149743348Y-99180938D01*
X149822913Y-99233272D01*
X149916843Y-99295996D01*
X150020754Y-99366246D01*
X150391794Y-99618551D01*
X150701080Y-99491053D01*
X151010365Y-99363555D01*
X151094186Y-98918931D01*
X151178006Y-98474307D01*
X152103454Y-98474307D01*
X152187275Y-98918931D01*
G36*
X136372971Y-119217822D02*
G01*
X132852178Y-119217822D01*
X132852178Y-118350198D01*
X136372971Y-118350198D01*
X136372971Y-119217822D01*
G37*
X136372971Y-119217822D02*
X132852178Y-119217822D01*
X132852178Y-118350198D01*
X136372971Y-118350198D01*
X136372971Y-119217822D01*
G36*
X135611662Y-113960696D02*
G01*
X135651314Y-113961782D01*
X135719109Y-113961782D01*
X135719109Y-114074951D01*
X135559577Y-114074951D01*
X135544682Y-114252732D01*
X135542682Y-114277037D01*
X135538023Y-114337880D01*
X135534731Y-114387389D01*
X135533092Y-114420992D01*
X135533390Y-114434116D01*
X135537724Y-114430343D01*
X135557496Y-114410676D01*
X135591679Y-114375818D01*
X135638541Y-114327576D01*
X135696354Y-114267757D01*
X135763387Y-114198167D01*
X135837912Y-114120615D01*
X135918197Y-114036907D01*
X136002513Y-113948849D01*
X136089130Y-113858250D01*
X136176319Y-113766915D01*
X136262349Y-113676653D01*
X136345492Y-113589269D01*
X136424016Y-113506572D01*
X136496192Y-113430368D01*
X136560291Y-113362463D01*
X136614583Y-113304666D01*
X136711592Y-113201040D01*
X136712034Y-113289315D01*
X136712475Y-113377589D01*
X136111938Y-114009158D01*
X135511401Y-114640726D01*
X135499396Y-114784674D01*
X135451365Y-115360635D01*
X135442876Y-115462791D01*
X135432343Y-115590612D01*
X135422621Y-115709767D01*
X135413898Y-115817914D01*
X135406358Y-115912713D01*
X135400187Y-115991819D01*
X135395573Y-116052892D01*
X135392700Y-116093590D01*
X135391754Y-116111570D01*
X135394251Y-116119808D01*
X135405471Y-116137599D01*
X135426751Y-116164411D01*
X135437021Y-116176129D01*
X135459225Y-116201466D01*
X135504023Y-116249986D01*
X135562281Y-116311192D01*
X135635129Y-116386307D01*
X135723703Y-116476550D01*
X135829134Y-116583145D01*
X135898492Y-116653093D01*
X135995179Y-116750658D01*
X136091526Y-116847941D01*
X136184638Y-116942014D01*
X136271618Y-117029950D01*
X136349569Y-117108820D01*
X136415596Y-117175699D01*
X136466802Y-117227658D01*
X136667514Y-117431620D01*
X136631058Y-117469671D01*
X136622460Y-117478245D01*
X136597095Y-117499297D01*
X136579695Y-117507723D01*
X136566071Y-117500530D01*
X136540743Y-117478944D01*
X136510379Y-117447995D01*
X136491896Y-117428448D01*
X136457427Y-117392752D01*
X136408712Y-117342684D01*
X136347469Y-117280001D01*
X136275420Y-117206457D01*
X136194285Y-117123810D01*
X136105784Y-117033815D01*
X136011637Y-116938228D01*
X135913565Y-116838805D01*
X135371161Y-116289343D01*
X135349066Y-116574746D01*
X135344250Y-116635662D01*
X135337216Y-116717548D01*
X135330872Y-116779569D01*
X135324748Y-116824987D01*
X135318373Y-116857062D01*
X135311277Y-116879052D01*
X135302991Y-116894219D01*
X135291393Y-116915416D01*
X135281850Y-116954386D01*
X135279010Y-117010531D01*
X135279010Y-117092773D01*
X135052674Y-117092773D01*
X135052674Y-116916733D01*
X134207082Y-116916733D01*
X134158203Y-116972262D01*
X134144836Y-116986722D01*
X134072388Y-117044813D01*
X133990532Y-117080576D01*
X133901900Y-117092773D01*
X133823692Y-117086306D01*
X133735233Y-117059047D01*
X133659507Y-117010328D01*
X133644748Y-116996403D01*
X133607864Y-116951328D01*
X133575503Y-116898819D01*
X133552297Y-116847061D01*
X133542879Y-116804239D01*
X133542697Y-116798023D01*
X133541342Y-116775246D01*
X133537800Y-116759513D01*
X133530390Y-116752068D01*
X133517431Y-116754156D01*
X133497243Y-116767020D01*
X133468145Y-116791905D01*
X133428456Y-116830053D01*
X133376496Y-116882710D01*
X133310584Y-116951119D01*
X133229040Y-117036524D01*
X133185604Y-117082112D01*
X133113000Y-117158441D01*
X133044309Y-117230808D01*
X132982223Y-117296366D01*
X132929434Y-117352274D01*
X132888634Y-117395686D01*
X132862515Y-117423758D01*
X132791119Y-117501436D01*
X132702863Y-117413416D01*
X133248690Y-116841287D01*
X133283105Y-116805188D01*
X133405546Y-116676272D01*
X133510651Y-116564754D01*
X133598736Y-116470288D01*
X133670116Y-116392529D01*
X133720588Y-116336174D01*
X133927247Y-116336174D01*
X133928872Y-116349434D01*
X133929156Y-116350819D01*
X133942698Y-116382228D01*
X133969748Y-116396863D01*
X134053129Y-116428063D01*
X134127418Y-116480038D01*
X134185846Y-116548791D01*
X134225890Y-116631315D01*
X134245026Y-116724606D01*
X134251364Y-116803565D01*
X135200838Y-116803565D01*
X135207458Y-116775273D01*
X135208629Y-116768329D01*
X135212268Y-116737281D01*
X135217234Y-116687081D01*
X135223157Y-116621727D01*
X135229669Y-116545219D01*
X135236401Y-116461555D01*
X135258724Y-116176129D01*
X134957826Y-115870565D01*
X134902636Y-115814704D01*
X134835109Y-115746888D01*
X134774529Y-115686643D01*
X134723021Y-115636052D01*
X134682710Y-115597200D01*
X134655722Y-115572170D01*
X134644182Y-115563046D01*
X134636444Y-115567405D01*
X134613395Y-115587241D01*
X134578709Y-115620375D01*
X134535487Y-115663820D01*
X134486832Y-115714587D01*
X134474140Y-115728051D01*
X134417229Y-115788275D01*
X134349414Y-115859864D01*
X134275800Y-115937437D01*
X134201493Y-116015611D01*
X134131599Y-116089005D01*
X134127401Y-116093409D01*
X134062420Y-116161785D01*
X134012836Y-116214732D01*
X133976688Y-116254767D01*
X133952016Y-116284411D01*
X133936858Y-116306181D01*
X133929256Y-116322595D01*
X133927247Y-116336174D01*
X133720588Y-116336174D01*
X133725105Y-116331131D01*
X133764019Y-116285748D01*
X133787173Y-116256035D01*
X133794882Y-116241644D01*
X133794883Y-116241559D01*
X133793825Y-116223624D01*
X133790737Y-116183421D01*
X133785858Y-116123687D01*
X133779432Y-116047158D01*
X133771700Y-115956569D01*
X133762905Y-115854657D01*
X133753287Y-115744159D01*
X133743091Y-115627811D01*
X133732556Y-115508348D01*
X133721926Y-115388507D01*
X133711442Y-115271025D01*
X133701346Y-115158637D01*
X133691881Y-115054081D01*
X133683288Y-114960091D01*
X133675809Y-114879405D01*
X133669687Y-114814759D01*
X133665162Y-114768888D01*
X133662478Y-114744530D01*
X133657067Y-114703732D01*
X133786253Y-114703732D01*
X133787908Y-114734653D01*
X133791549Y-114786653D01*
X133796995Y-114857487D01*
X133804063Y-114944911D01*
X133812570Y-115046681D01*
X133822335Y-115160552D01*
X133833174Y-115284279D01*
X133844907Y-115415618D01*
X133854079Y-115516908D01*
X133865566Y-115642526D01*
X133876322Y-115758762D01*
X133886131Y-115863380D01*
X133894781Y-115954140D01*
X133902057Y-116028804D01*
X133907746Y-116085134D01*
X133911634Y-116120891D01*
X133913506Y-116133837D01*
X133919188Y-116129826D01*
X133940020Y-116110138D01*
X133973872Y-116076322D01*
X134018412Y-116030837D01*
X134071310Y-115976146D01*
X134130236Y-115914710D01*
X134192858Y-115848990D01*
X134256848Y-115781449D01*
X134319874Y-115714547D01*
X134379606Y-115650746D01*
X134433713Y-115592507D01*
X134479865Y-115542292D01*
X134515733Y-115502563D01*
X134538984Y-115475780D01*
X134545778Y-115466477D01*
X134727601Y-115466477D01*
X135003305Y-115741968D01*
X135070726Y-115809224D01*
X135134267Y-115872162D01*
X135183490Y-115920100D01*
X135220196Y-115954594D01*
X135246190Y-115977199D01*
X135263276Y-115989471D01*
X135273256Y-115992966D01*
X135277935Y-115989238D01*
X135279116Y-115979844D01*
X135279873Y-115964749D01*
X135282601Y-115925883D01*
X135287108Y-115866895D01*
X135293179Y-115790473D01*
X135300596Y-115699305D01*
X135309142Y-115596080D01*
X135318602Y-115483483D01*
X135328758Y-115364205D01*
X135337723Y-115259077D01*
X135347066Y-115148351D01*
X135355443Y-115047814D01*
X135362653Y-114959943D01*
X135368496Y-114887215D01*
X135372769Y-114832110D01*
X135375273Y-114797104D01*
X135375805Y-114784674D01*
X135375384Y-114784908D01*
X135363509Y-114796350D01*
X135337130Y-114823198D01*
X135298570Y-114863018D01*
X135250153Y-114913372D01*
X135194203Y-114971828D01*
X135133042Y-115035948D01*
X135068995Y-115103298D01*
X135004385Y-115171443D01*
X134941535Y-115237948D01*
X134882768Y-115300377D01*
X134830409Y-115356295D01*
X134729533Y-115464406D01*
X134727601Y-115466477D01*
X134545778Y-115466477D01*
X134547290Y-115464406D01*
X134539148Y-115453383D01*
X134515478Y-115426999D01*
X134478478Y-115387527D01*
X134430350Y-115337191D01*
X134373296Y-115278217D01*
X134309520Y-115212830D01*
X134241222Y-115143255D01*
X134170605Y-115071716D01*
X134099871Y-115000438D01*
X134031222Y-114931647D01*
X133966861Y-114867566D01*
X133908989Y-114810422D01*
X133859810Y-114762439D01*
X133821524Y-114725841D01*
X133796334Y-114702854D01*
X133786442Y-114695703D01*
X133786253Y-114703732D01*
X133657067Y-114703732D01*
X133655390Y-114691089D01*
X133380297Y-114691089D01*
X133380140Y-114590495D01*
X133480891Y-114590495D01*
X133562624Y-114590495D01*
X133569895Y-114590489D01*
X133610950Y-114589613D01*
X133633277Y-114585867D01*
X133642529Y-114577270D01*
X133644357Y-114561840D01*
X133636306Y-114539159D01*
X133608730Y-114501428D01*
X133562624Y-114452179D01*
X133480891Y-114371172D01*
X133480891Y-114590495D01*
X133380140Y-114590495D01*
X133379968Y-114480471D01*
X133379639Y-114269852D01*
X132927914Y-113810891D01*
X132476189Y-113351931D01*
X132475570Y-113264848D01*
X132474951Y-113177767D01*
X133016769Y-113726952D01*
X133069137Y-113779998D01*
X133177803Y-113889772D01*
X133270709Y-113983114D01*
X133349055Y-114061173D01*
X133414043Y-114125097D01*
X133466872Y-114176035D01*
X133508743Y-114215135D01*
X133540855Y-114243548D01*
X133564410Y-114262420D01*
X133580608Y-114272901D01*
X133590649Y-114276139D01*
X133607579Y-114275158D01*
X133617084Y-114267996D01*
X133618723Y-114248401D01*
X133614782Y-114210124D01*
X133612065Y-114186025D01*
X133608284Y-114145744D01*
X133606760Y-114118961D01*
X133606015Y-114109728D01*
X133598746Y-114099839D01*
X133578668Y-114096562D01*
X133539689Y-114097992D01*
X133529737Y-114098553D01*
X133489898Y-114097921D01*
X133461560Y-114089167D01*
X133441586Y-114074951D01*
X133724852Y-114074951D01*
X133729013Y-114122104D01*
X133730935Y-114143498D01*
X133736924Y-114201909D01*
X133742826Y-114240381D01*
X133749727Y-114262912D01*
X133758712Y-114273498D01*
X133770870Y-114276139D01*
X133781801Y-114277937D01*
X133789050Y-114286530D01*
X133793100Y-114306505D01*
X133794863Y-114342450D01*
X133795248Y-114398952D01*
X133795248Y-114521766D01*
X133835447Y-114561840D01*
X133933565Y-114659654D01*
X134071881Y-114797542D01*
X134071881Y-114691089D01*
X134826337Y-114691089D01*
X134826337Y-114930000D01*
X134207831Y-114930000D01*
X134417592Y-115146906D01*
X134457770Y-115188334D01*
X134513328Y-115245200D01*
X134561570Y-115294082D01*
X134599971Y-115332441D01*
X134626003Y-115357741D01*
X134637140Y-115367442D01*
X134641373Y-115364767D01*
X134661224Y-115346782D01*
X134695451Y-115313481D01*
X134742227Y-115266712D01*
X134799724Y-115208325D01*
X134866112Y-115140169D01*
X134939564Y-115064094D01*
X135018251Y-114981950D01*
X135097341Y-114898943D01*
X135174871Y-114817136D01*
X135237746Y-114750083D01*
X135287502Y-114696007D01*
X135325678Y-114653129D01*
X135353811Y-114619673D01*
X135373440Y-114593861D01*
X135386101Y-114573914D01*
X135393334Y-114558056D01*
X135396675Y-114544509D01*
X135397561Y-114537910D01*
X135401488Y-114501548D01*
X135406459Y-114448018D01*
X135411927Y-114383421D01*
X135417344Y-114313862D01*
X135419181Y-114289635D01*
X135424488Y-114224178D01*
X135429548Y-114167717D01*
X135433863Y-114125618D01*
X135436934Y-114103243D01*
X135442955Y-114074951D01*
X133724852Y-114074951D01*
X133441586Y-114074951D01*
X133433630Y-114069289D01*
X133428820Y-114065104D01*
X133389482Y-114014427D01*
X133373903Y-113961782D01*
X133714698Y-113961782D01*
X135129221Y-113961782D01*
X135341881Y-113961782D01*
X135398908Y-113961782D01*
X135415993Y-113961662D01*
X135441308Y-113959462D01*
X135448616Y-113952334D01*
X135442943Y-113937508D01*
X135441267Y-113934682D01*
X135422448Y-113912944D01*
X135395183Y-113888820D01*
X135367987Y-113869254D01*
X135349371Y-113861188D01*
X135347697Y-113862463D01*
X135343544Y-113879976D01*
X135341881Y-113911485D01*
X135341881Y-113961782D01*
X135129221Y-113961782D01*
X135125526Y-113871095D01*
X135121832Y-113780407D01*
X135046386Y-113765252D01*
X135008551Y-113758379D01*
X134945368Y-113748756D01*
X134886065Y-113741496D01*
X134801188Y-113732893D01*
X134801188Y-113836040D01*
X134222773Y-113836040D01*
X134222773Y-113745122D01*
X134150471Y-113753753D01*
X134039998Y-113772249D01*
X133928816Y-113805691D01*
X133836850Y-113852324D01*
X133762542Y-113912786D01*
X133714698Y-113961782D01*
X133373903Y-113961782D01*
X133372172Y-113955934D01*
X133377474Y-113894575D01*
X133405975Y-113835297D01*
X133408733Y-113831606D01*
X133446822Y-113799851D01*
X133496476Y-113781067D01*
X133550002Y-113776071D01*
X133599707Y-113785678D01*
X133637900Y-113810704D01*
X133650831Y-113823480D01*
X133663428Y-113826576D01*
X133681467Y-113816998D01*
X133711928Y-113793082D01*
X133721274Y-113785731D01*
X133793430Y-113739339D01*
X133878915Y-113698084D01*
X133948830Y-113672575D01*
X134323367Y-113672575D01*
X134323367Y-113735446D01*
X134700594Y-113735446D01*
X134700594Y-113672575D01*
X134323367Y-113672575D01*
X133948830Y-113672575D01*
X133969767Y-113664936D01*
X134058027Y-113642868D01*
X134135736Y-113634852D01*
X134143991Y-113634788D01*
X134189879Y-113630321D01*
X134215079Y-113617795D01*
X134222773Y-113595784D01*
X134223676Y-113588849D01*
X134228615Y-113582885D01*
X134240611Y-113578519D01*
X134262680Y-113575503D01*
X134297836Y-113573590D01*
X134349094Y-113572530D01*
X134419471Y-113572077D01*
X134511980Y-113571980D01*
X134598660Y-113572150D01*
X134672332Y-113572834D01*
X134726265Y-113574215D01*
X134763288Y-113576470D01*
X134786230Y-113579778D01*
X134797920Y-113584320D01*
X134801188Y-113590272D01*
X134811937Y-113604888D01*
X134842055Y-113614215D01*
X134853582Y-113615847D01*
X134892886Y-113621591D01*
X134945188Y-113629378D01*
X135002376Y-113638003D01*
X135033916Y-113642393D01*
X135080074Y-113647148D01*
X135112641Y-113648295D01*
X135126023Y-113645495D01*
X135128308Y-113643671D01*
X135149405Y-113639165D01*
X135187355Y-113636029D01*
X135236048Y-113634852D01*
X135341881Y-113634852D01*
X135341894Y-113672575D01*
X135341894Y-113675718D01*
X135342388Y-113688668D01*
X135348819Y-113710411D01*
X135367123Y-113728851D01*
X135402830Y-113750801D01*
X135434174Y-113770854D01*
X135481893Y-113809356D01*
X135525138Y-113852579D01*
X135558219Y-113894627D01*
X135575442Y-113929604D01*
X135579662Y-113943081D01*
X135587480Y-113952334D01*
X135590116Y-113955454D01*
X135611662Y-113960696D01*
G37*
X135611662Y-113960696D02*
X135651314Y-113961782D01*
X135719109Y-113961782D01*
X135719109Y-114074951D01*
X135559577Y-114074951D01*
X135544682Y-114252732D01*
X135542682Y-114277037D01*
X135538023Y-114337880D01*
X135534731Y-114387389D01*
X135533092Y-114420992D01*
X135533390Y-114434116D01*
X135537724Y-114430343D01*
X135557496Y-114410676D01*
X135591679Y-114375818D01*
X135638541Y-114327576D01*
X135696354Y-114267757D01*
X135763387Y-114198167D01*
X135837912Y-114120615D01*
X135918197Y-114036907D01*
X136002513Y-113948849D01*
X136089130Y-113858250D01*
X136176319Y-113766915D01*
X136262349Y-113676653D01*
X136345492Y-113589269D01*
X136424016Y-113506572D01*
X136496192Y-113430368D01*
X136560291Y-113362463D01*
X136614583Y-113304666D01*
X136711592Y-113201040D01*
X136712034Y-113289315D01*
X136712475Y-113377589D01*
X136111938Y-114009158D01*
X135511401Y-114640726D01*
X135499396Y-114784674D01*
X135451365Y-115360635D01*
X135442876Y-115462791D01*
X135432343Y-115590612D01*
X135422621Y-115709767D01*
X135413898Y-115817914D01*
X135406358Y-115912713D01*
X135400187Y-115991819D01*
X135395573Y-116052892D01*
X135392700Y-116093590D01*
X135391754Y-116111570D01*
X135394251Y-116119808D01*
X135405471Y-116137599D01*
X135426751Y-116164411D01*
X135437021Y-116176129D01*
X135459225Y-116201466D01*
X135504023Y-116249986D01*
X135562281Y-116311192D01*
X135635129Y-116386307D01*
X135723703Y-116476550D01*
X135829134Y-116583145D01*
X135898492Y-116653093D01*
X135995179Y-116750658D01*
X136091526Y-116847941D01*
X136184638Y-116942014D01*
X136271618Y-117029950D01*
X136349569Y-117108820D01*
X136415596Y-117175699D01*
X136466802Y-117227658D01*
X136667514Y-117431620D01*
X136631058Y-117469671D01*
X136622460Y-117478245D01*
X136597095Y-117499297D01*
X136579695Y-117507723D01*
X136566071Y-117500530D01*
X136540743Y-117478944D01*
X136510379Y-117447995D01*
X136491896Y-117428448D01*
X136457427Y-117392752D01*
X136408712Y-117342684D01*
X136347469Y-117280001D01*
X136275420Y-117206457D01*
X136194285Y-117123810D01*
X136105784Y-117033815D01*
X136011637Y-116938228D01*
X135913565Y-116838805D01*
X135371161Y-116289343D01*
X135349066Y-116574746D01*
X135344250Y-116635662D01*
X135337216Y-116717548D01*
X135330872Y-116779569D01*
X135324748Y-116824987D01*
X135318373Y-116857062D01*
X135311277Y-116879052D01*
X135302991Y-116894219D01*
X135291393Y-116915416D01*
X135281850Y-116954386D01*
X135279010Y-117010531D01*
X135279010Y-117092773D01*
X135052674Y-117092773D01*
X135052674Y-116916733D01*
X134207082Y-116916733D01*
X134158203Y-116972262D01*
X134144836Y-116986722D01*
X134072388Y-117044813D01*
X133990532Y-117080576D01*
X133901900Y-117092773D01*
X133823692Y-117086306D01*
X133735233Y-117059047D01*
X133659507Y-117010328D01*
X133644748Y-116996403D01*
X133607864Y-116951328D01*
X133575503Y-116898819D01*
X133552297Y-116847061D01*
X133542879Y-116804239D01*
X133542697Y-116798023D01*
X133541342Y-116775246D01*
X133537800Y-116759513D01*
X133530390Y-116752068D01*
X133517431Y-116754156D01*
X133497243Y-116767020D01*
X133468145Y-116791905D01*
X133428456Y-116830053D01*
X133376496Y-116882710D01*
X133310584Y-116951119D01*
X133229040Y-117036524D01*
X133185604Y-117082112D01*
X133113000Y-117158441D01*
X133044309Y-117230808D01*
X132982223Y-117296366D01*
X132929434Y-117352274D01*
X132888634Y-117395686D01*
X132862515Y-117423758D01*
X132791119Y-117501436D01*
X132702863Y-117413416D01*
X133248690Y-116841287D01*
X133283105Y-116805188D01*
X133405546Y-116676272D01*
X133510651Y-116564754D01*
X133598736Y-116470288D01*
X133670116Y-116392529D01*
X133720588Y-116336174D01*
X133927247Y-116336174D01*
X133928872Y-116349434D01*
X133929156Y-116350819D01*
X133942698Y-116382228D01*
X133969748Y-116396863D01*
X134053129Y-116428063D01*
X134127418Y-116480038D01*
X134185846Y-116548791D01*
X134225890Y-116631315D01*
X134245026Y-116724606D01*
X134251364Y-116803565D01*
X135200838Y-116803565D01*
X135207458Y-116775273D01*
X135208629Y-116768329D01*
X135212268Y-116737281D01*
X135217234Y-116687081D01*
X135223157Y-116621727D01*
X135229669Y-116545219D01*
X135236401Y-116461555D01*
X135258724Y-116176129D01*
X134957826Y-115870565D01*
X134902636Y-115814704D01*
X134835109Y-115746888D01*
X134774529Y-115686643D01*
X134723021Y-115636052D01*
X134682710Y-115597200D01*
X134655722Y-115572170D01*
X134644182Y-115563046D01*
X134636444Y-115567405D01*
X134613395Y-115587241D01*
X134578709Y-115620375D01*
X134535487Y-115663820D01*
X134486832Y-115714587D01*
X134474140Y-115728051D01*
X134417229Y-115788275D01*
X134349414Y-115859864D01*
X134275800Y-115937437D01*
X134201493Y-116015611D01*
X134131599Y-116089005D01*
X134127401Y-116093409D01*
X134062420Y-116161785D01*
X134012836Y-116214732D01*
X133976688Y-116254767D01*
X133952016Y-116284411D01*
X133936858Y-116306181D01*
X133929256Y-116322595D01*
X133927247Y-116336174D01*
X133720588Y-116336174D01*
X133725105Y-116331131D01*
X133764019Y-116285748D01*
X133787173Y-116256035D01*
X133794882Y-116241644D01*
X133794883Y-116241559D01*
X133793825Y-116223624D01*
X133790737Y-116183421D01*
X133785858Y-116123687D01*
X133779432Y-116047158D01*
X133771700Y-115956569D01*
X133762905Y-115854657D01*
X133753287Y-115744159D01*
X133743091Y-115627811D01*
X133732556Y-115508348D01*
X133721926Y-115388507D01*
X133711442Y-115271025D01*
X133701346Y-115158637D01*
X133691881Y-115054081D01*
X133683288Y-114960091D01*
X133675809Y-114879405D01*
X133669687Y-114814759D01*
X133665162Y-114768888D01*
X133662478Y-114744530D01*
X133657067Y-114703732D01*
X133786253Y-114703732D01*
X133787908Y-114734653D01*
X133791549Y-114786653D01*
X133796995Y-114857487D01*
X133804063Y-114944911D01*
X133812570Y-115046681D01*
X133822335Y-115160552D01*
X133833174Y-115284279D01*
X133844907Y-115415618D01*
X133854079Y-115516908D01*
X133865566Y-115642526D01*
X133876322Y-115758762D01*
X133886131Y-115863380D01*
X133894781Y-115954140D01*
X133902057Y-116028804D01*
X133907746Y-116085134D01*
X133911634Y-116120891D01*
X133913506Y-116133837D01*
X133919188Y-116129826D01*
X133940020Y-116110138D01*
X133973872Y-116076322D01*
X134018412Y-116030837D01*
X134071310Y-115976146D01*
X134130236Y-115914710D01*
X134192858Y-115848990D01*
X134256848Y-115781449D01*
X134319874Y-115714547D01*
X134379606Y-115650746D01*
X134433713Y-115592507D01*
X134479865Y-115542292D01*
X134515733Y-115502563D01*
X134538984Y-115475780D01*
X134545778Y-115466477D01*
X134727601Y-115466477D01*
X135003305Y-115741968D01*
X135070726Y-115809224D01*
X135134267Y-115872162D01*
X135183490Y-115920100D01*
X135220196Y-115954594D01*
X135246190Y-115977199D01*
X135263276Y-115989471D01*
X135273256Y-115992966D01*
X135277935Y-115989238D01*
X135279116Y-115979844D01*
X135279873Y-115964749D01*
X135282601Y-115925883D01*
X135287108Y-115866895D01*
X135293179Y-115790473D01*
X135300596Y-115699305D01*
X135309142Y-115596080D01*
X135318602Y-115483483D01*
X135328758Y-115364205D01*
X135337723Y-115259077D01*
X135347066Y-115148351D01*
X135355443Y-115047814D01*
X135362653Y-114959943D01*
X135368496Y-114887215D01*
X135372769Y-114832110D01*
X135375273Y-114797104D01*
X135375805Y-114784674D01*
X135375384Y-114784908D01*
X135363509Y-114796350D01*
X135337130Y-114823198D01*
X135298570Y-114863018D01*
X135250153Y-114913372D01*
X135194203Y-114971828D01*
X135133042Y-115035948D01*
X135068995Y-115103298D01*
X135004385Y-115171443D01*
X134941535Y-115237948D01*
X134882768Y-115300377D01*
X134830409Y-115356295D01*
X134729533Y-115464406D01*
X134727601Y-115466477D01*
X134545778Y-115466477D01*
X134547290Y-115464406D01*
X134539148Y-115453383D01*
X134515478Y-115426999D01*
X134478478Y-115387527D01*
X134430350Y-115337191D01*
X134373296Y-115278217D01*
X134309520Y-115212830D01*
X134241222Y-115143255D01*
X134170605Y-115071716D01*
X134099871Y-115000438D01*
X134031222Y-114931647D01*
X133966861Y-114867566D01*
X133908989Y-114810422D01*
X133859810Y-114762439D01*
X133821524Y-114725841D01*
X133796334Y-114702854D01*
X133786442Y-114695703D01*
X133786253Y-114703732D01*
X133657067Y-114703732D01*
X133655390Y-114691089D01*
X133380297Y-114691089D01*
X133380140Y-114590495D01*
X133480891Y-114590495D01*
X133562624Y-114590495D01*
X133569895Y-114590489D01*
X133610950Y-114589613D01*
X133633277Y-114585867D01*
X133642529Y-114577270D01*
X133644357Y-114561840D01*
X133636306Y-114539159D01*
X133608730Y-114501428D01*
X133562624Y-114452179D01*
X133480891Y-114371172D01*
X133480891Y-114590495D01*
X133380140Y-114590495D01*
X133379968Y-114480471D01*
X133379639Y-114269852D01*
X132927914Y-113810891D01*
X132476189Y-113351931D01*
X132475570Y-113264848D01*
X132474951Y-113177767D01*
X133016769Y-113726952D01*
X133069137Y-113779998D01*
X133177803Y-113889772D01*
X133270709Y-113983114D01*
X133349055Y-114061173D01*
X133414043Y-114125097D01*
X133466872Y-114176035D01*
X133508743Y-114215135D01*
X133540855Y-114243548D01*
X133564410Y-114262420D01*
X133580608Y-114272901D01*
X133590649Y-114276139D01*
X133607579Y-114275158D01*
X133617084Y-114267996D01*
X133618723Y-114248401D01*
X133614782Y-114210124D01*
X133612065Y-114186025D01*
X133608284Y-114145744D01*
X133606760Y-114118961D01*
X133606015Y-114109728D01*
X133598746Y-114099839D01*
X133578668Y-114096562D01*
X133539689Y-114097992D01*
X133529737Y-114098553D01*
X133489898Y-114097921D01*
X133461560Y-114089167D01*
X133441586Y-114074951D01*
X133724852Y-114074951D01*
X133729013Y-114122104D01*
X133730935Y-114143498D01*
X133736924Y-114201909D01*
X133742826Y-114240381D01*
X133749727Y-114262912D01*
X133758712Y-114273498D01*
X133770870Y-114276139D01*
X133781801Y-114277937D01*
X133789050Y-114286530D01*
X133793100Y-114306505D01*
X133794863Y-114342450D01*
X133795248Y-114398952D01*
X133795248Y-114521766D01*
X133835447Y-114561840D01*
X133933565Y-114659654D01*
X134071881Y-114797542D01*
X134071881Y-114691089D01*
X134826337Y-114691089D01*
X134826337Y-114930000D01*
X134207831Y-114930000D01*
X134417592Y-115146906D01*
X134457770Y-115188334D01*
X134513328Y-115245200D01*
X134561570Y-115294082D01*
X134599971Y-115332441D01*
X134626003Y-115357741D01*
X134637140Y-115367442D01*
X134641373Y-115364767D01*
X134661224Y-115346782D01*
X134695451Y-115313481D01*
X134742227Y-115266712D01*
X134799724Y-115208325D01*
X134866112Y-115140169D01*
X134939564Y-115064094D01*
X135018251Y-114981950D01*
X135097341Y-114898943D01*
X135174871Y-114817136D01*
X135237746Y-114750083D01*
X135287502Y-114696007D01*
X135325678Y-114653129D01*
X135353811Y-114619673D01*
X135373440Y-114593861D01*
X135386101Y-114573914D01*
X135393334Y-114558056D01*
X135396675Y-114544509D01*
X135397561Y-114537910D01*
X135401488Y-114501548D01*
X135406459Y-114448018D01*
X135411927Y-114383421D01*
X135417344Y-114313862D01*
X135419181Y-114289635D01*
X135424488Y-114224178D01*
X135429548Y-114167717D01*
X135433863Y-114125618D01*
X135436934Y-114103243D01*
X135442955Y-114074951D01*
X133724852Y-114074951D01*
X133441586Y-114074951D01*
X133433630Y-114069289D01*
X133428820Y-114065104D01*
X133389482Y-114014427D01*
X133373903Y-113961782D01*
X133714698Y-113961782D01*
X135129221Y-113961782D01*
X135341881Y-113961782D01*
X135398908Y-113961782D01*
X135415993Y-113961662D01*
X135441308Y-113959462D01*
X135448616Y-113952334D01*
X135442943Y-113937508D01*
X135441267Y-113934682D01*
X135422448Y-113912944D01*
X135395183Y-113888820D01*
X135367987Y-113869254D01*
X135349371Y-113861188D01*
X135347697Y-113862463D01*
X135343544Y-113879976D01*
X135341881Y-113911485D01*
X135341881Y-113961782D01*
X135129221Y-113961782D01*
X135125526Y-113871095D01*
X135121832Y-113780407D01*
X135046386Y-113765252D01*
X135008551Y-113758379D01*
X134945368Y-113748756D01*
X134886065Y-113741496D01*
X134801188Y-113732893D01*
X134801188Y-113836040D01*
X134222773Y-113836040D01*
X134222773Y-113745122D01*
X134150471Y-113753753D01*
X134039998Y-113772249D01*
X133928816Y-113805691D01*
X133836850Y-113852324D01*
X133762542Y-113912786D01*
X133714698Y-113961782D01*
X133373903Y-113961782D01*
X133372172Y-113955934D01*
X133377474Y-113894575D01*
X133405975Y-113835297D01*
X133408733Y-113831606D01*
X133446822Y-113799851D01*
X133496476Y-113781067D01*
X133550002Y-113776071D01*
X133599707Y-113785678D01*
X133637900Y-113810704D01*
X133650831Y-113823480D01*
X133663428Y-113826576D01*
X133681467Y-113816998D01*
X133711928Y-113793082D01*
X133721274Y-113785731D01*
X133793430Y-113739339D01*
X133878915Y-113698084D01*
X133948830Y-113672575D01*
X134323367Y-113672575D01*
X134323367Y-113735446D01*
X134700594Y-113735446D01*
X134700594Y-113672575D01*
X134323367Y-113672575D01*
X133948830Y-113672575D01*
X133969767Y-113664936D01*
X134058027Y-113642868D01*
X134135736Y-113634852D01*
X134143991Y-113634788D01*
X134189879Y-113630321D01*
X134215079Y-113617795D01*
X134222773Y-113595784D01*
X134223676Y-113588849D01*
X134228615Y-113582885D01*
X134240611Y-113578519D01*
X134262680Y-113575503D01*
X134297836Y-113573590D01*
X134349094Y-113572530D01*
X134419471Y-113572077D01*
X134511980Y-113571980D01*
X134598660Y-113572150D01*
X134672332Y-113572834D01*
X134726265Y-113574215D01*
X134763288Y-113576470D01*
X134786230Y-113579778D01*
X134797920Y-113584320D01*
X134801188Y-113590272D01*
X134811937Y-113604888D01*
X134842055Y-113614215D01*
X134853582Y-113615847D01*
X134892886Y-113621591D01*
X134945188Y-113629378D01*
X135002376Y-113638003D01*
X135033916Y-113642393D01*
X135080074Y-113647148D01*
X135112641Y-113648295D01*
X135126023Y-113645495D01*
X135128308Y-113643671D01*
X135149405Y-113639165D01*
X135187355Y-113636029D01*
X135236048Y-113634852D01*
X135341881Y-113634852D01*
X135341894Y-113672575D01*
X135341894Y-113675718D01*
X135342388Y-113688668D01*
X135348819Y-113710411D01*
X135367123Y-113728851D01*
X135402830Y-113750801D01*
X135434174Y-113770854D01*
X135481893Y-113809356D01*
X135525138Y-113852579D01*
X135558219Y-113894627D01*
X135575442Y-113929604D01*
X135579662Y-113943081D01*
X135587480Y-113952334D01*
X135590116Y-113955454D01*
X135611662Y-113960696D01*
%TD*%
M02*
