%TF.GenerationSoftware,KiCad,Pcbnew,6.0.8+dfsg-1~bpo11+1*%
%TF.CreationDate,2022-10-31T17:28:34+01:00*%
%TF.ProjectId,vertExpI2c_00,76657274-4578-4704-9932-635f30302e6b,rev?*%
%TF.SameCoordinates,Original*%
%TF.FileFunction,Legend,Bot*%
%TF.FilePolarity,Positive*%
%FSLAX46Y46*%
G04 Gerber Fmt 4.6, Leading zero omitted, Abs format (unit mm)*
G04 Created by KiCad (PCBNEW 6.0.8+dfsg-1~bpo11+1) date 2022-10-31 17:28:34*
%MOMM*%
%LPD*%
G01*
G04 APERTURE LIST*
%ADD10C,0.110000*%
%ADD11C,0.150000*%
%ADD12C,0.350000*%
%ADD13C,0.300000*%
%ADD14C,0.010000*%
G04 APERTURE END LIST*
D10*
X116983333Y-93866666D02*
X117016666Y-93966666D01*
X117016666Y-94133333D01*
X116983333Y-94200000D01*
X116950000Y-94233333D01*
X116883333Y-94266666D01*
X116816666Y-94266666D01*
X116750000Y-94233333D01*
X116716666Y-94200000D01*
X116683333Y-94133333D01*
X116650000Y-94000000D01*
X116616666Y-93933333D01*
X116583333Y-93900000D01*
X116516666Y-93866666D01*
X116450000Y-93866666D01*
X116383333Y-93900000D01*
X116350000Y-93933333D01*
X116316666Y-94000000D01*
X116316666Y-94166666D01*
X116350000Y-94266666D01*
X116950000Y-94966666D02*
X116983333Y-94933333D01*
X117016666Y-94833333D01*
X117016666Y-94766666D01*
X116983333Y-94666666D01*
X116916666Y-94600000D01*
X116850000Y-94566666D01*
X116716666Y-94533333D01*
X116616666Y-94533333D01*
X116483333Y-94566666D01*
X116416666Y-94600000D01*
X116350000Y-94666666D01*
X116316666Y-94766666D01*
X116316666Y-94833333D01*
X116350000Y-94933333D01*
X116383333Y-94966666D01*
X117016666Y-95600000D02*
X117016666Y-95266666D01*
X116316666Y-95266666D01*
D11*
X144528571Y-93485714D02*
X144290476Y-94152380D01*
X144052380Y-93485714D01*
X143147619Y-94152380D02*
X143719047Y-94152380D01*
X143433333Y-94152380D02*
X143433333Y-93152380D01*
X143528571Y-93295238D01*
X143623809Y-93390476D01*
X143719047Y-93438095D01*
X142719047Y-94057142D02*
X142671428Y-94104761D01*
X142719047Y-94152380D01*
X142766666Y-94104761D01*
X142719047Y-94057142D01*
X142719047Y-94152380D01*
X142052380Y-93152380D02*
X141957142Y-93152380D01*
X141861904Y-93200000D01*
X141814285Y-93247619D01*
X141766666Y-93342857D01*
X141719047Y-93533333D01*
X141719047Y-93771428D01*
X141766666Y-93961904D01*
X141814285Y-94057142D01*
X141861904Y-94104761D01*
X141957142Y-94152380D01*
X142052380Y-94152380D01*
X142147619Y-94104761D01*
X142195238Y-94057142D01*
X142242857Y-93961904D01*
X142290476Y-93771428D01*
X142290476Y-93533333D01*
X142242857Y-93342857D01*
X142195238Y-93247619D01*
X142147619Y-93200000D01*
X142052380Y-93152380D01*
D10*
X117016666Y-96100000D02*
X116316666Y-96100000D01*
X116816666Y-96333333D01*
X116316666Y-96566666D01*
X117016666Y-96566666D01*
X117016666Y-96900000D02*
X116316666Y-96900000D01*
X116983333Y-97200000D02*
X117016666Y-97300000D01*
X117016666Y-97466666D01*
X116983333Y-97533333D01*
X116950000Y-97566666D01*
X116883333Y-97600000D01*
X116816666Y-97600000D01*
X116750000Y-97566666D01*
X116716666Y-97533333D01*
X116683333Y-97466666D01*
X116650000Y-97333333D01*
X116616666Y-97266666D01*
X116583333Y-97233333D01*
X116516666Y-97200000D01*
X116450000Y-97200000D01*
X116383333Y-97233333D01*
X116350000Y-97266666D01*
X116316666Y-97333333D01*
X116316666Y-97500000D01*
X116350000Y-97600000D01*
X116316666Y-98033333D02*
X116316666Y-98166666D01*
X116350000Y-98233333D01*
X116416666Y-98300000D01*
X116550000Y-98333333D01*
X116783333Y-98333333D01*
X116916666Y-98300000D01*
X116983333Y-98233333D01*
X117016666Y-98166666D01*
X117016666Y-98033333D01*
X116983333Y-97966666D01*
X116916666Y-97900000D01*
X116783333Y-97866666D01*
X116550000Y-97866666D01*
X116416666Y-97900000D01*
X116350000Y-97966666D01*
X116316666Y-98033333D01*
X140733333Y-78150000D02*
X140200000Y-78150000D01*
X140466666Y-78416666D02*
X140466666Y-77883333D01*
X139500000Y-78416666D02*
X139900000Y-78416666D01*
X139700000Y-78416666D02*
X139700000Y-77716666D01*
X139766666Y-77816666D01*
X139833333Y-77883333D01*
X139900000Y-77916666D01*
X139233333Y-77783333D02*
X139200000Y-77750000D01*
X139133333Y-77716666D01*
X138966666Y-77716666D01*
X138900000Y-77750000D01*
X138866666Y-77783333D01*
X138833333Y-77850000D01*
X138833333Y-77916666D01*
X138866666Y-78016666D01*
X139266666Y-78416666D01*
X138833333Y-78416666D01*
X138633333Y-77716666D02*
X138400000Y-78416666D01*
X138166666Y-77716666D01*
X137483333Y-77950000D02*
X137250000Y-77950000D01*
X137150000Y-78316666D02*
X137483333Y-78316666D01*
X137483333Y-77616666D01*
X137150000Y-77616666D01*
X136950000Y-77616666D02*
X136550000Y-77616666D01*
X136750000Y-78316666D02*
X136750000Y-77616666D01*
X136316666Y-78316666D02*
X136316666Y-77616666D01*
X136316666Y-77950000D02*
X135916666Y-77950000D01*
X135916666Y-78316666D02*
X135916666Y-77616666D01*
X163783333Y-101433333D02*
X163816666Y-101533333D01*
X163816666Y-101700000D01*
X163783333Y-101766666D01*
X163750000Y-101800000D01*
X163683333Y-101833333D01*
X163616666Y-101833333D01*
X163550000Y-101800000D01*
X163516666Y-101766666D01*
X163483333Y-101700000D01*
X163450000Y-101566666D01*
X163416666Y-101500000D01*
X163383333Y-101466666D01*
X163316666Y-101433333D01*
X163250000Y-101433333D01*
X163183333Y-101466666D01*
X163150000Y-101500000D01*
X163116666Y-101566666D01*
X163116666Y-101733333D01*
X163150000Y-101833333D01*
X163783333Y-102100000D02*
X163816666Y-102200000D01*
X163816666Y-102366666D01*
X163783333Y-102433333D01*
X163750000Y-102466666D01*
X163683333Y-102500000D01*
X163616666Y-102500000D01*
X163550000Y-102466666D01*
X163516666Y-102433333D01*
X163483333Y-102366666D01*
X163450000Y-102233333D01*
X163416666Y-102166666D01*
X163383333Y-102133333D01*
X163316666Y-102100000D01*
X163250000Y-102100000D01*
X163183333Y-102133333D01*
X163150000Y-102166666D01*
X163116666Y-102233333D01*
X163116666Y-102400000D01*
X163150000Y-102500000D01*
X163183333Y-102766666D02*
X163150000Y-102800000D01*
X163116666Y-102866666D01*
X163116666Y-103033333D01*
X163150000Y-103100000D01*
X163183333Y-103133333D01*
X163250000Y-103166666D01*
X163316666Y-103166666D01*
X163416666Y-103133333D01*
X163816666Y-102733333D01*
X163816666Y-103166666D01*
X163816666Y-96200000D02*
X163116666Y-96200000D01*
X163616666Y-96433333D01*
X163116666Y-96666666D01*
X163816666Y-96666666D01*
X163816666Y-97000000D02*
X163116666Y-97000000D01*
X163783333Y-97300000D02*
X163816666Y-97400000D01*
X163816666Y-97566666D01*
X163783333Y-97633333D01*
X163750000Y-97666666D01*
X163683333Y-97700000D01*
X163616666Y-97700000D01*
X163550000Y-97666666D01*
X163516666Y-97633333D01*
X163483333Y-97566666D01*
X163450000Y-97433333D01*
X163416666Y-97366666D01*
X163383333Y-97333333D01*
X163316666Y-97300000D01*
X163250000Y-97300000D01*
X163183333Y-97333333D01*
X163150000Y-97366666D01*
X163116666Y-97433333D01*
X163116666Y-97600000D01*
X163150000Y-97700000D01*
X163116666Y-98133333D02*
X163116666Y-98266666D01*
X163150000Y-98333333D01*
X163216666Y-98400000D01*
X163350000Y-98433333D01*
X163583333Y-98433333D01*
X163716666Y-98400000D01*
X163783333Y-98333333D01*
X163816666Y-98266666D01*
X163816666Y-98133333D01*
X163783333Y-98066666D01*
X163716666Y-98000000D01*
X163583333Y-97966666D01*
X163350000Y-97966666D01*
X163216666Y-98000000D01*
X163150000Y-98066666D01*
X163116666Y-98133333D01*
X163016666Y-91216666D02*
X163016666Y-91616666D01*
X163716666Y-91416666D02*
X163016666Y-91416666D01*
X163016666Y-91783333D02*
X163716666Y-92250000D01*
X163016666Y-92250000D02*
X163716666Y-91783333D01*
X163716666Y-92516666D02*
X163016666Y-92516666D01*
X163016666Y-92683333D01*
X163050000Y-92783333D01*
X163116666Y-92850000D01*
X163183333Y-92883333D01*
X163316666Y-92916666D01*
X163416666Y-92916666D01*
X163550000Y-92883333D01*
X163616666Y-92850000D01*
X163683333Y-92783333D01*
X163716666Y-92683333D01*
X163716666Y-92516666D01*
X148233333Y-119050000D02*
X147700000Y-119050000D01*
X147966666Y-119316666D02*
X147966666Y-118783333D01*
X147000000Y-119316666D02*
X147400000Y-119316666D01*
X147200000Y-119316666D02*
X147200000Y-118616666D01*
X147266666Y-118716666D01*
X147333333Y-118783333D01*
X147400000Y-118816666D01*
X146733333Y-118683333D02*
X146700000Y-118650000D01*
X146633333Y-118616666D01*
X146466666Y-118616666D01*
X146400000Y-118650000D01*
X146366666Y-118683333D01*
X146333333Y-118750000D01*
X146333333Y-118816666D01*
X146366666Y-118916666D01*
X146766666Y-119316666D01*
X146333333Y-119316666D01*
X146133333Y-118616666D02*
X145900000Y-119316666D01*
X145666666Y-118616666D01*
X122916666Y-91633333D02*
X122583333Y-91400000D01*
X122916666Y-91233333D02*
X122216666Y-91233333D01*
X122216666Y-91500000D01*
X122250000Y-91566666D01*
X122283333Y-91600000D01*
X122350000Y-91633333D01*
X122450000Y-91633333D01*
X122516666Y-91600000D01*
X122550000Y-91566666D01*
X122583333Y-91500000D01*
X122583333Y-91233333D01*
X122216666Y-91866666D02*
X122916666Y-92333333D01*
X122216666Y-92333333D02*
X122916666Y-91866666D01*
X122916666Y-92600000D02*
X122216666Y-92600000D01*
X122216666Y-92766666D01*
X122250000Y-92866666D01*
X122316666Y-92933333D01*
X122383333Y-92966666D01*
X122516666Y-93000000D01*
X122616666Y-93000000D01*
X122750000Y-92966666D01*
X122816666Y-92933333D01*
X122883333Y-92866666D01*
X122916666Y-92766666D01*
X122916666Y-92600000D01*
X140083333Y-125283333D02*
X139983333Y-125316666D01*
X139816666Y-125316666D01*
X139750000Y-125283333D01*
X139716666Y-125250000D01*
X139683333Y-125183333D01*
X139683333Y-125116666D01*
X139716666Y-125050000D01*
X139750000Y-125016666D01*
X139816666Y-124983333D01*
X139950000Y-124950000D01*
X140016666Y-124916666D01*
X140050000Y-124883333D01*
X140083333Y-124816666D01*
X140083333Y-124750000D01*
X140050000Y-124683333D01*
X140016666Y-124650000D01*
X139950000Y-124616666D01*
X139783333Y-124616666D01*
X139683333Y-124650000D01*
X139383333Y-125316666D02*
X139383333Y-124616666D01*
X139216666Y-124616666D01*
X139116666Y-124650000D01*
X139050000Y-124716666D01*
X139016666Y-124783333D01*
X138983333Y-124916666D01*
X138983333Y-125016666D01*
X139016666Y-125150000D01*
X139050000Y-125216666D01*
X139116666Y-125283333D01*
X139216666Y-125316666D01*
X139383333Y-125316666D01*
X138350000Y-124616666D02*
X138683333Y-124616666D01*
X138716666Y-124950000D01*
X138683333Y-124916666D01*
X138616666Y-124883333D01*
X138450000Y-124883333D01*
X138383333Y-124916666D01*
X138350000Y-124950000D01*
X138316666Y-125016666D01*
X138316666Y-125183333D01*
X138350000Y-125250000D01*
X138383333Y-125283333D01*
X138450000Y-125316666D01*
X138616666Y-125316666D01*
X138683333Y-125283333D01*
X138716666Y-125250000D01*
X150083333Y-118950000D02*
X149850000Y-118950000D01*
X149750000Y-119316666D02*
X150083333Y-119316666D01*
X150083333Y-118616666D01*
X149750000Y-118616666D01*
X149550000Y-118616666D02*
X149150000Y-118616666D01*
X149350000Y-119316666D02*
X149350000Y-118616666D01*
X148916666Y-119316666D02*
X148916666Y-118616666D01*
X148916666Y-118950000D02*
X148516666Y-118950000D01*
X148516666Y-119316666D02*
X148516666Y-118616666D01*
X122883333Y-98833333D02*
X122916666Y-98933333D01*
X122916666Y-99100000D01*
X122883333Y-99166666D01*
X122850000Y-99200000D01*
X122783333Y-99233333D01*
X122716666Y-99233333D01*
X122650000Y-99200000D01*
X122616666Y-99166666D01*
X122583333Y-99100000D01*
X122550000Y-98966666D01*
X122516666Y-98900000D01*
X122483333Y-98866666D01*
X122416666Y-98833333D01*
X122350000Y-98833333D01*
X122283333Y-98866666D01*
X122250000Y-98900000D01*
X122216666Y-98966666D01*
X122216666Y-99133333D01*
X122250000Y-99233333D01*
X122883333Y-99500000D02*
X122916666Y-99600000D01*
X122916666Y-99766666D01*
X122883333Y-99833333D01*
X122850000Y-99866666D01*
X122783333Y-99900000D01*
X122716666Y-99900000D01*
X122650000Y-99866666D01*
X122616666Y-99833333D01*
X122583333Y-99766666D01*
X122550000Y-99633333D01*
X122516666Y-99566666D01*
X122483333Y-99533333D01*
X122416666Y-99500000D01*
X122350000Y-99500000D01*
X122283333Y-99533333D01*
X122250000Y-99566666D01*
X122216666Y-99633333D01*
X122216666Y-99800000D01*
X122250000Y-99900000D01*
X122916666Y-100566666D02*
X122916666Y-100166666D01*
X122916666Y-100366666D02*
X122216666Y-100366666D01*
X122316666Y-100300000D01*
X122383333Y-100233333D01*
X122416666Y-100166666D01*
X140833333Y-72350000D02*
X140300000Y-72350000D01*
X139600000Y-72616666D02*
X140000000Y-72616666D01*
X139800000Y-72616666D02*
X139800000Y-71916666D01*
X139866666Y-72016666D01*
X139933333Y-72083333D01*
X140000000Y-72116666D01*
X139333333Y-71983333D02*
X139300000Y-71950000D01*
X139233333Y-71916666D01*
X139066666Y-71916666D01*
X139000000Y-71950000D01*
X138966666Y-71983333D01*
X138933333Y-72050000D01*
X138933333Y-72116666D01*
X138966666Y-72216666D01*
X139366666Y-72616666D01*
X138933333Y-72616666D01*
X138733333Y-71916666D02*
X138500000Y-72616666D01*
X138266666Y-71916666D01*
X152883333Y-71850000D02*
X152950000Y-71816666D01*
X153050000Y-71816666D01*
X153150000Y-71850000D01*
X153216666Y-71916666D01*
X153250000Y-71983333D01*
X153283333Y-72116666D01*
X153283333Y-72216666D01*
X153250000Y-72350000D01*
X153216666Y-72416666D01*
X153150000Y-72483333D01*
X153050000Y-72516666D01*
X152983333Y-72516666D01*
X152883333Y-72483333D01*
X152850000Y-72450000D01*
X152850000Y-72216666D01*
X152983333Y-72216666D01*
X152550000Y-72516666D02*
X152550000Y-71816666D01*
X152150000Y-72516666D01*
X152150000Y-71816666D01*
X151816666Y-72516666D02*
X151816666Y-71816666D01*
X151650000Y-71816666D01*
X151550000Y-71850000D01*
X151483333Y-71916666D01*
X151450000Y-71983333D01*
X151416666Y-72116666D01*
X151416666Y-72216666D01*
X151450000Y-72350000D01*
X151483333Y-72416666D01*
X151550000Y-72483333D01*
X151650000Y-72516666D01*
X151816666Y-72516666D01*
X151116666Y-72516666D02*
X151116666Y-71816666D01*
X150950000Y-71816666D01*
X150850000Y-71850000D01*
X150783333Y-71916666D01*
X150750000Y-71983333D01*
X150716666Y-72116666D01*
X150716666Y-72216666D01*
X150750000Y-72350000D01*
X150783333Y-72416666D01*
X150850000Y-72483333D01*
X150950000Y-72516666D01*
X151116666Y-72516666D01*
X153316666Y-119050000D02*
X152783333Y-119050000D01*
X153050000Y-119316666D02*
X153050000Y-118783333D01*
X152550000Y-118616666D02*
X152316666Y-119316666D01*
X152083333Y-118616666D01*
X151850000Y-118950000D02*
X151616666Y-118950000D01*
X151516666Y-119316666D02*
X151850000Y-119316666D01*
X151850000Y-118616666D01*
X151516666Y-118616666D01*
X151283333Y-118616666D02*
X150816666Y-119316666D01*
X150816666Y-118616666D02*
X151283333Y-119316666D01*
D12*
X149466666Y-89533333D02*
X148514285Y-89533333D01*
X149657142Y-90104761D02*
X148990476Y-88104761D01*
X148323809Y-90104761D01*
X146419047Y-88104761D02*
X145752380Y-90104761D01*
X145085714Y-88104761D01*
X144419047Y-89057142D02*
X143752380Y-89057142D01*
X143466666Y-90104761D02*
X144419047Y-90104761D01*
X144419047Y-88104761D01*
X143466666Y-88104761D01*
X141466666Y-90104761D02*
X142133333Y-89152380D01*
X142609523Y-90104761D02*
X142609523Y-88104761D01*
X141847619Y-88104761D01*
X141657142Y-88200000D01*
X141561904Y-88295238D01*
X141466666Y-88485714D01*
X141466666Y-88771428D01*
X141561904Y-88961904D01*
X141657142Y-89057142D01*
X141847619Y-89152380D01*
X142609523Y-89152380D01*
X140895238Y-88104761D02*
X139752380Y-88104761D01*
X140323809Y-90104761D02*
X140323809Y-88104761D01*
X139085714Y-89057142D02*
X138419047Y-89057142D01*
X138133333Y-90104761D02*
X139085714Y-90104761D01*
X139085714Y-88104761D01*
X138133333Y-88104761D01*
X136609523Y-89057142D02*
X136323809Y-89152380D01*
X136228571Y-89247619D01*
X136133333Y-89438095D01*
X136133333Y-89723809D01*
X136228571Y-89914285D01*
X136323809Y-90009523D01*
X136514285Y-90104761D01*
X137276190Y-90104761D01*
X137276190Y-88104761D01*
X136609523Y-88104761D01*
X136419047Y-88200000D01*
X136323809Y-88295238D01*
X136228571Y-88485714D01*
X136228571Y-88676190D01*
X136323809Y-88866666D01*
X136419047Y-88961904D01*
X136609523Y-89057142D01*
X137276190Y-89057142D01*
D10*
X168950000Y-89066666D02*
X168916666Y-89000000D01*
X168916666Y-88900000D01*
X168950000Y-88800000D01*
X169016666Y-88733333D01*
X169083333Y-88700000D01*
X169216666Y-88666666D01*
X169316666Y-88666666D01*
X169450000Y-88700000D01*
X169516666Y-88733333D01*
X169583333Y-88800000D01*
X169616666Y-88900000D01*
X169616666Y-88966666D01*
X169583333Y-89066666D01*
X169550000Y-89100000D01*
X169316666Y-89100000D01*
X169316666Y-88966666D01*
X169616666Y-89400000D02*
X168916666Y-89400000D01*
X169616666Y-89800000D01*
X168916666Y-89800000D01*
X169616666Y-90133333D02*
X168916666Y-90133333D01*
X168916666Y-90300000D01*
X168950000Y-90400000D01*
X169016666Y-90466666D01*
X169083333Y-90500000D01*
X169216666Y-90533333D01*
X169316666Y-90533333D01*
X169450000Y-90500000D01*
X169516666Y-90466666D01*
X169583333Y-90400000D01*
X169616666Y-90300000D01*
X169616666Y-90133333D01*
X116750000Y-104116666D02*
X116750000Y-104350000D01*
X117116666Y-104450000D02*
X117116666Y-104116666D01*
X116416666Y-104116666D01*
X116416666Y-104450000D01*
X116416666Y-104650000D02*
X116416666Y-105050000D01*
X117116666Y-104850000D02*
X116416666Y-104850000D01*
X117116666Y-105283333D02*
X116416666Y-105283333D01*
X116750000Y-105283333D02*
X116750000Y-105683333D01*
X117116666Y-105683333D02*
X116416666Y-105683333D01*
X169583333Y-98833333D02*
X169616666Y-98933333D01*
X169616666Y-99100000D01*
X169583333Y-99166666D01*
X169550000Y-99200000D01*
X169483333Y-99233333D01*
X169416666Y-99233333D01*
X169350000Y-99200000D01*
X169316666Y-99166666D01*
X169283333Y-99100000D01*
X169250000Y-98966666D01*
X169216666Y-98900000D01*
X169183333Y-98866666D01*
X169116666Y-98833333D01*
X169050000Y-98833333D01*
X168983333Y-98866666D01*
X168950000Y-98900000D01*
X168916666Y-98966666D01*
X168916666Y-99133333D01*
X168950000Y-99233333D01*
X169583333Y-99500000D02*
X169616666Y-99600000D01*
X169616666Y-99766666D01*
X169583333Y-99833333D01*
X169550000Y-99866666D01*
X169483333Y-99900000D01*
X169416666Y-99900000D01*
X169350000Y-99866666D01*
X169316666Y-99833333D01*
X169283333Y-99766666D01*
X169250000Y-99633333D01*
X169216666Y-99566666D01*
X169183333Y-99533333D01*
X169116666Y-99500000D01*
X169050000Y-99500000D01*
X168983333Y-99533333D01*
X168950000Y-99566666D01*
X168916666Y-99633333D01*
X168916666Y-99800000D01*
X168950000Y-99900000D01*
X169616666Y-100566666D02*
X169616666Y-100166666D01*
X169616666Y-100366666D02*
X168916666Y-100366666D01*
X169016666Y-100300000D01*
X169083333Y-100233333D01*
X169116666Y-100166666D01*
X135216666Y-78050000D02*
X134683333Y-78050000D01*
X134950000Y-78316666D02*
X134950000Y-77783333D01*
X134450000Y-77616666D02*
X134216666Y-78316666D01*
X133983333Y-77616666D01*
X133750000Y-77950000D02*
X133516666Y-77950000D01*
X133416666Y-78316666D02*
X133750000Y-78316666D01*
X133750000Y-77616666D01*
X133416666Y-77616666D01*
X133183333Y-77616666D02*
X132716666Y-78316666D01*
X132716666Y-77616666D02*
X133183333Y-78316666D01*
X169616666Y-91633333D02*
X169283333Y-91400000D01*
X169616666Y-91233333D02*
X168916666Y-91233333D01*
X168916666Y-91500000D01*
X168950000Y-91566666D01*
X168983333Y-91600000D01*
X169050000Y-91633333D01*
X169150000Y-91633333D01*
X169216666Y-91600000D01*
X169250000Y-91566666D01*
X169283333Y-91500000D01*
X169283333Y-91233333D01*
X168916666Y-91866666D02*
X169616666Y-92333333D01*
X168916666Y-92333333D02*
X169616666Y-91866666D01*
X169616666Y-92600000D02*
X168916666Y-92600000D01*
X168916666Y-92766666D01*
X168950000Y-92866666D01*
X169016666Y-92933333D01*
X169083333Y-92966666D01*
X169216666Y-93000000D01*
X169316666Y-93000000D01*
X169450000Y-92966666D01*
X169516666Y-92933333D01*
X169583333Y-92866666D01*
X169616666Y-92766666D01*
X169616666Y-92600000D01*
X116983333Y-101433333D02*
X117016666Y-101533333D01*
X117016666Y-101700000D01*
X116983333Y-101766666D01*
X116950000Y-101800000D01*
X116883333Y-101833333D01*
X116816666Y-101833333D01*
X116750000Y-101800000D01*
X116716666Y-101766666D01*
X116683333Y-101700000D01*
X116650000Y-101566666D01*
X116616666Y-101500000D01*
X116583333Y-101466666D01*
X116516666Y-101433333D01*
X116450000Y-101433333D01*
X116383333Y-101466666D01*
X116350000Y-101500000D01*
X116316666Y-101566666D01*
X116316666Y-101733333D01*
X116350000Y-101833333D01*
X116983333Y-102100000D02*
X117016666Y-102200000D01*
X117016666Y-102366666D01*
X116983333Y-102433333D01*
X116950000Y-102466666D01*
X116883333Y-102500000D01*
X116816666Y-102500000D01*
X116750000Y-102466666D01*
X116716666Y-102433333D01*
X116683333Y-102366666D01*
X116650000Y-102233333D01*
X116616666Y-102166666D01*
X116583333Y-102133333D01*
X116516666Y-102100000D01*
X116450000Y-102100000D01*
X116383333Y-102133333D01*
X116350000Y-102166666D01*
X116316666Y-102233333D01*
X116316666Y-102400000D01*
X116350000Y-102500000D01*
X116383333Y-102766666D02*
X116350000Y-102800000D01*
X116316666Y-102866666D01*
X116316666Y-103033333D01*
X116350000Y-103100000D01*
X116383333Y-103133333D01*
X116450000Y-103166666D01*
X116516666Y-103166666D01*
X116616666Y-103133333D01*
X117016666Y-102733333D01*
X117016666Y-103166666D01*
X135083333Y-124650000D02*
X135150000Y-124616666D01*
X135250000Y-124616666D01*
X135350000Y-124650000D01*
X135416666Y-124716666D01*
X135450000Y-124783333D01*
X135483333Y-124916666D01*
X135483333Y-125016666D01*
X135450000Y-125150000D01*
X135416666Y-125216666D01*
X135350000Y-125283333D01*
X135250000Y-125316666D01*
X135183333Y-125316666D01*
X135083333Y-125283333D01*
X135050000Y-125250000D01*
X135050000Y-125016666D01*
X135183333Y-125016666D01*
X134750000Y-125316666D02*
X134750000Y-124616666D01*
X134350000Y-125316666D01*
X134350000Y-124616666D01*
X134016666Y-125316666D02*
X134016666Y-124616666D01*
X133850000Y-124616666D01*
X133750000Y-124650000D01*
X133683333Y-124716666D01*
X133650000Y-124783333D01*
X133616666Y-124916666D01*
X133616666Y-125016666D01*
X133650000Y-125150000D01*
X133683333Y-125216666D01*
X133750000Y-125283333D01*
X133850000Y-125316666D01*
X134016666Y-125316666D01*
X133316666Y-125316666D02*
X133316666Y-124616666D01*
X133150000Y-124616666D01*
X133050000Y-124650000D01*
X132983333Y-124716666D01*
X132950000Y-124783333D01*
X132916666Y-124916666D01*
X132916666Y-125016666D01*
X132950000Y-125150000D01*
X132983333Y-125216666D01*
X133050000Y-125283333D01*
X133150000Y-125316666D01*
X133316666Y-125316666D01*
X116416666Y-88733333D02*
X116416666Y-89166666D01*
X116683333Y-88933333D01*
X116683333Y-89033333D01*
X116716666Y-89100000D01*
X116750000Y-89133333D01*
X116816666Y-89166666D01*
X116983333Y-89166666D01*
X117050000Y-89133333D01*
X117083333Y-89100000D01*
X117116666Y-89033333D01*
X117116666Y-88833333D01*
X117083333Y-88766666D01*
X117050000Y-88733333D01*
X116416666Y-89366666D02*
X117116666Y-89600000D01*
X116416666Y-89833333D01*
X116416666Y-90000000D02*
X116416666Y-90433333D01*
X116683333Y-90200000D01*
X116683333Y-90300000D01*
X116716666Y-90366666D01*
X116750000Y-90400000D01*
X116816666Y-90433333D01*
X116983333Y-90433333D01*
X117050000Y-90400000D01*
X117083333Y-90366666D01*
X117116666Y-90300000D01*
X117116666Y-90100000D01*
X117083333Y-90033333D01*
X117050000Y-90000000D01*
X163016666Y-88633333D02*
X163016666Y-89066666D01*
X163283333Y-88833333D01*
X163283333Y-88933333D01*
X163316666Y-89000000D01*
X163350000Y-89033333D01*
X163416666Y-89066666D01*
X163583333Y-89066666D01*
X163650000Y-89033333D01*
X163683333Y-89000000D01*
X163716666Y-88933333D01*
X163716666Y-88733333D01*
X163683333Y-88666666D01*
X163650000Y-88633333D01*
X163016666Y-89266666D02*
X163716666Y-89500000D01*
X163016666Y-89733333D01*
X163016666Y-89900000D02*
X163016666Y-90333333D01*
X163283333Y-90100000D01*
X163283333Y-90200000D01*
X163316666Y-90266666D01*
X163350000Y-90300000D01*
X163416666Y-90333333D01*
X163583333Y-90333333D01*
X163650000Y-90300000D01*
X163683333Y-90266666D01*
X163716666Y-90200000D01*
X163716666Y-90000000D01*
X163683333Y-89933333D01*
X163650000Y-89900000D01*
X122550000Y-106166666D02*
X122550000Y-106700000D01*
X122816666Y-106433333D02*
X122283333Y-106433333D01*
X122183333Y-107000000D02*
X122150000Y-107033333D01*
X122116666Y-107100000D01*
X122116666Y-107266666D01*
X122150000Y-107333333D01*
X122183333Y-107366666D01*
X122250000Y-107400000D01*
X122316666Y-107400000D01*
X122416666Y-107366666D01*
X122816666Y-106966666D01*
X122816666Y-107400000D01*
X122350000Y-108000000D02*
X122816666Y-108000000D01*
X122083333Y-107833333D02*
X122583333Y-107666666D01*
X122583333Y-108100000D01*
X122116666Y-108266666D02*
X122816666Y-108500000D01*
X122116666Y-108733333D01*
X150183333Y-124650000D02*
X150250000Y-124616666D01*
X150350000Y-124616666D01*
X150450000Y-124650000D01*
X150516666Y-124716666D01*
X150550000Y-124783333D01*
X150583333Y-124916666D01*
X150583333Y-125016666D01*
X150550000Y-125150000D01*
X150516666Y-125216666D01*
X150450000Y-125283333D01*
X150350000Y-125316666D01*
X150283333Y-125316666D01*
X150183333Y-125283333D01*
X150150000Y-125250000D01*
X150150000Y-125016666D01*
X150283333Y-125016666D01*
X149850000Y-125316666D02*
X149850000Y-124616666D01*
X149450000Y-125316666D01*
X149450000Y-124616666D01*
X149116666Y-125316666D02*
X149116666Y-124616666D01*
X148950000Y-124616666D01*
X148850000Y-124650000D01*
X148783333Y-124716666D01*
X148750000Y-124783333D01*
X148716666Y-124916666D01*
X148716666Y-125016666D01*
X148750000Y-125150000D01*
X148783333Y-125216666D01*
X148850000Y-125283333D01*
X148950000Y-125316666D01*
X149116666Y-125316666D01*
X148416666Y-125316666D02*
X148416666Y-124616666D01*
X148250000Y-124616666D01*
X148150000Y-124650000D01*
X148083333Y-124716666D01*
X148050000Y-124783333D01*
X148016666Y-124916666D01*
X148016666Y-125016666D01*
X148050000Y-125150000D01*
X148083333Y-125216666D01*
X148150000Y-125283333D01*
X148250000Y-125316666D01*
X148416666Y-125316666D01*
X122916666Y-96100000D02*
X122216666Y-96100000D01*
X122716666Y-96333333D01*
X122216666Y-96566666D01*
X122916666Y-96566666D01*
X122216666Y-97033333D02*
X122216666Y-97166666D01*
X122250000Y-97233333D01*
X122316666Y-97300000D01*
X122450000Y-97333333D01*
X122683333Y-97333333D01*
X122816666Y-97300000D01*
X122883333Y-97233333D01*
X122916666Y-97166666D01*
X122916666Y-97033333D01*
X122883333Y-96966666D01*
X122816666Y-96900000D01*
X122683333Y-96866666D01*
X122450000Y-96866666D01*
X122316666Y-96900000D01*
X122250000Y-96966666D01*
X122216666Y-97033333D01*
X122883333Y-97600000D02*
X122916666Y-97700000D01*
X122916666Y-97866666D01*
X122883333Y-97933333D01*
X122850000Y-97966666D01*
X122783333Y-98000000D01*
X122716666Y-98000000D01*
X122650000Y-97966666D01*
X122616666Y-97933333D01*
X122583333Y-97866666D01*
X122550000Y-97733333D01*
X122516666Y-97666666D01*
X122483333Y-97633333D01*
X122416666Y-97600000D01*
X122350000Y-97600000D01*
X122283333Y-97633333D01*
X122250000Y-97666666D01*
X122216666Y-97733333D01*
X122216666Y-97900000D01*
X122250000Y-98000000D01*
X122916666Y-98300000D02*
X122216666Y-98300000D01*
X169583333Y-93850000D02*
X169616666Y-93950000D01*
X169616666Y-94116666D01*
X169583333Y-94183333D01*
X169550000Y-94216666D01*
X169483333Y-94250000D01*
X169416666Y-94250000D01*
X169350000Y-94216666D01*
X169316666Y-94183333D01*
X169283333Y-94116666D01*
X169250000Y-93983333D01*
X169216666Y-93916666D01*
X169183333Y-93883333D01*
X169116666Y-93850000D01*
X169050000Y-93850000D01*
X168983333Y-93883333D01*
X168950000Y-93916666D01*
X168916666Y-93983333D01*
X168916666Y-94150000D01*
X168950000Y-94250000D01*
X169616666Y-94550000D02*
X168916666Y-94550000D01*
X168916666Y-94716666D01*
X168950000Y-94816666D01*
X169016666Y-94883333D01*
X169083333Y-94916666D01*
X169216666Y-94950000D01*
X169316666Y-94950000D01*
X169450000Y-94916666D01*
X169516666Y-94883333D01*
X169583333Y-94816666D01*
X169616666Y-94716666D01*
X169616666Y-94550000D01*
X169416666Y-95216666D02*
X169416666Y-95550000D01*
X169616666Y-95150000D02*
X168916666Y-95383333D01*
X169616666Y-95616666D01*
X116316666Y-91316666D02*
X116316666Y-91716666D01*
X117016666Y-91516666D02*
X116316666Y-91516666D01*
X116316666Y-91883333D02*
X117016666Y-92350000D01*
X116316666Y-92350000D02*
X117016666Y-91883333D01*
X117016666Y-92616666D02*
X116316666Y-92616666D01*
X116316666Y-92783333D01*
X116350000Y-92883333D01*
X116416666Y-92950000D01*
X116483333Y-92983333D01*
X116616666Y-93016666D01*
X116716666Y-93016666D01*
X116850000Y-92983333D01*
X116916666Y-92950000D01*
X116983333Y-92883333D01*
X117016666Y-92783333D01*
X117016666Y-92616666D01*
X163450000Y-106466666D02*
X163450000Y-107000000D01*
X163716666Y-106733333D02*
X163183333Y-106733333D01*
X163083333Y-107300000D02*
X163050000Y-107333333D01*
X163016666Y-107400000D01*
X163016666Y-107566666D01*
X163050000Y-107633333D01*
X163083333Y-107666666D01*
X163150000Y-107700000D01*
X163216666Y-107700000D01*
X163316666Y-107666666D01*
X163716666Y-107266666D01*
X163716666Y-107700000D01*
X163250000Y-108300000D02*
X163716666Y-108300000D01*
X162983333Y-108133333D02*
X163483333Y-107966666D01*
X163483333Y-108400000D01*
X163016666Y-108566666D02*
X163716666Y-108800000D01*
X163016666Y-109033333D01*
D11*
X160138095Y-78166666D02*
X159661904Y-78166666D01*
X160233333Y-78452380D02*
X159900000Y-77452380D01*
X159566666Y-78452380D01*
X159233333Y-78452380D02*
X159233333Y-77452380D01*
X158995238Y-77452380D01*
X158852380Y-77500000D01*
X158757142Y-77595238D01*
X158709523Y-77690476D01*
X158661904Y-77880952D01*
X158661904Y-78023809D01*
X158709523Y-78214285D01*
X158757142Y-78309523D01*
X158852380Y-78404761D01*
X158995238Y-78452380D01*
X159233333Y-78452380D01*
X157661904Y-78452380D02*
X157995238Y-77976190D01*
X158233333Y-78452380D02*
X158233333Y-77452380D01*
X157852380Y-77452380D01*
X157757142Y-77500000D01*
X157709523Y-77547619D01*
X157661904Y-77642857D01*
X157661904Y-77785714D01*
X157709523Y-77880952D01*
X157757142Y-77928571D01*
X157852380Y-77976190D01*
X158233333Y-77976190D01*
D10*
X147683333Y-72483333D02*
X147583333Y-72516666D01*
X147416666Y-72516666D01*
X147350000Y-72483333D01*
X147316666Y-72450000D01*
X147283333Y-72383333D01*
X147283333Y-72316666D01*
X147316666Y-72250000D01*
X147350000Y-72216666D01*
X147416666Y-72183333D01*
X147550000Y-72150000D01*
X147616666Y-72116666D01*
X147650000Y-72083333D01*
X147683333Y-72016666D01*
X147683333Y-71950000D01*
X147650000Y-71883333D01*
X147616666Y-71850000D01*
X147550000Y-71816666D01*
X147383333Y-71816666D01*
X147283333Y-71850000D01*
X146983333Y-72516666D02*
X146983333Y-71816666D01*
X146816666Y-71816666D01*
X146716666Y-71850000D01*
X146650000Y-71916666D01*
X146616666Y-71983333D01*
X146583333Y-72116666D01*
X146583333Y-72216666D01*
X146616666Y-72350000D01*
X146650000Y-72416666D01*
X146716666Y-72483333D01*
X146816666Y-72516666D01*
X146983333Y-72516666D01*
X145916666Y-72516666D02*
X146316666Y-72516666D01*
X146116666Y-72516666D02*
X146116666Y-71816666D01*
X146183333Y-71916666D01*
X146250000Y-71983333D01*
X146316666Y-72016666D01*
X152883333Y-78383333D02*
X152783333Y-78416666D01*
X152616666Y-78416666D01*
X152550000Y-78383333D01*
X152516666Y-78350000D01*
X152483333Y-78283333D01*
X152483333Y-78216666D01*
X152516666Y-78150000D01*
X152550000Y-78116666D01*
X152616666Y-78083333D01*
X152750000Y-78050000D01*
X152816666Y-78016666D01*
X152850000Y-77983333D01*
X152883333Y-77916666D01*
X152883333Y-77850000D01*
X152850000Y-77783333D01*
X152816666Y-77750000D01*
X152750000Y-77716666D01*
X152583333Y-77716666D01*
X152483333Y-77750000D01*
X151783333Y-78350000D02*
X151816666Y-78383333D01*
X151916666Y-78416666D01*
X151983333Y-78416666D01*
X152083333Y-78383333D01*
X152150000Y-78316666D01*
X152183333Y-78250000D01*
X152216666Y-78116666D01*
X152216666Y-78016666D01*
X152183333Y-77883333D01*
X152150000Y-77816666D01*
X152083333Y-77750000D01*
X151983333Y-77716666D01*
X151916666Y-77716666D01*
X151816666Y-77750000D01*
X151783333Y-77783333D01*
X151350000Y-77716666D02*
X151283333Y-77716666D01*
X151216666Y-77750000D01*
X151183333Y-77783333D01*
X151150000Y-77850000D01*
X151116666Y-77983333D01*
X151116666Y-78150000D01*
X151150000Y-78283333D01*
X151183333Y-78350000D01*
X151216666Y-78383333D01*
X151283333Y-78416666D01*
X151350000Y-78416666D01*
X151416666Y-78383333D01*
X151450000Y-78350000D01*
X151483333Y-78283333D01*
X151516666Y-78150000D01*
X151516666Y-77983333D01*
X151483333Y-77850000D01*
X151450000Y-77783333D01*
X151416666Y-77750000D01*
X151350000Y-77716666D01*
X168950000Y-104366666D02*
X168916666Y-104300000D01*
X168916666Y-104200000D01*
X168950000Y-104100000D01*
X169016666Y-104033333D01*
X169083333Y-104000000D01*
X169216666Y-103966666D01*
X169316666Y-103966666D01*
X169450000Y-104000000D01*
X169516666Y-104033333D01*
X169583333Y-104100000D01*
X169616666Y-104200000D01*
X169616666Y-104266666D01*
X169583333Y-104366666D01*
X169550000Y-104400000D01*
X169316666Y-104400000D01*
X169316666Y-104266666D01*
X169616666Y-104700000D02*
X168916666Y-104700000D01*
X169616666Y-105100000D01*
X168916666Y-105100000D01*
X169616666Y-105433333D02*
X168916666Y-105433333D01*
X168916666Y-105600000D01*
X168950000Y-105700000D01*
X169016666Y-105766666D01*
X169083333Y-105800000D01*
X169216666Y-105833333D01*
X169316666Y-105833333D01*
X169450000Y-105800000D01*
X169516666Y-105766666D01*
X169583333Y-105700000D01*
X169616666Y-105600000D01*
X169616666Y-105433333D01*
X122883333Y-101433333D02*
X122916666Y-101533333D01*
X122916666Y-101700000D01*
X122883333Y-101766666D01*
X122850000Y-101800000D01*
X122783333Y-101833333D01*
X122716666Y-101833333D01*
X122650000Y-101800000D01*
X122616666Y-101766666D01*
X122583333Y-101700000D01*
X122550000Y-101566666D01*
X122516666Y-101500000D01*
X122483333Y-101466666D01*
X122416666Y-101433333D01*
X122350000Y-101433333D01*
X122283333Y-101466666D01*
X122250000Y-101500000D01*
X122216666Y-101566666D01*
X122216666Y-101733333D01*
X122250000Y-101833333D01*
X122883333Y-102100000D02*
X122916666Y-102200000D01*
X122916666Y-102366666D01*
X122883333Y-102433333D01*
X122850000Y-102466666D01*
X122783333Y-102500000D01*
X122716666Y-102500000D01*
X122650000Y-102466666D01*
X122616666Y-102433333D01*
X122583333Y-102366666D01*
X122550000Y-102233333D01*
X122516666Y-102166666D01*
X122483333Y-102133333D01*
X122416666Y-102100000D01*
X122350000Y-102100000D01*
X122283333Y-102133333D01*
X122250000Y-102166666D01*
X122216666Y-102233333D01*
X122216666Y-102400000D01*
X122250000Y-102500000D01*
X122216666Y-102733333D02*
X122216666Y-103166666D01*
X122483333Y-102933333D01*
X122483333Y-103033333D01*
X122516666Y-103100000D01*
X122550000Y-103133333D01*
X122616666Y-103166666D01*
X122783333Y-103166666D01*
X122850000Y-103133333D01*
X122883333Y-103100000D01*
X122916666Y-103033333D01*
X122916666Y-102833333D01*
X122883333Y-102766666D01*
X122850000Y-102733333D01*
X150283333Y-72483333D02*
X150183333Y-72516666D01*
X150016666Y-72516666D01*
X149950000Y-72483333D01*
X149916666Y-72450000D01*
X149883333Y-72383333D01*
X149883333Y-72316666D01*
X149916666Y-72250000D01*
X149950000Y-72216666D01*
X150016666Y-72183333D01*
X150150000Y-72150000D01*
X150216666Y-72116666D01*
X150250000Y-72083333D01*
X150283333Y-72016666D01*
X150283333Y-71950000D01*
X150250000Y-71883333D01*
X150216666Y-71850000D01*
X150150000Y-71816666D01*
X149983333Y-71816666D01*
X149883333Y-71850000D01*
X149583333Y-72516666D02*
X149583333Y-71816666D01*
X149416666Y-71816666D01*
X149316666Y-71850000D01*
X149250000Y-71916666D01*
X149216666Y-71983333D01*
X149183333Y-72116666D01*
X149183333Y-72216666D01*
X149216666Y-72350000D01*
X149250000Y-72416666D01*
X149316666Y-72483333D01*
X149416666Y-72516666D01*
X149583333Y-72516666D01*
X148750000Y-71816666D02*
X148683333Y-71816666D01*
X148616666Y-71850000D01*
X148583333Y-71883333D01*
X148550000Y-71950000D01*
X148516666Y-72083333D01*
X148516666Y-72250000D01*
X148550000Y-72383333D01*
X148583333Y-72450000D01*
X148616666Y-72483333D01*
X148683333Y-72516666D01*
X148750000Y-72516666D01*
X148816666Y-72483333D01*
X148850000Y-72450000D01*
X148883333Y-72383333D01*
X148916666Y-72250000D01*
X148916666Y-72083333D01*
X148883333Y-71950000D01*
X148850000Y-71883333D01*
X148816666Y-71850000D01*
X148750000Y-71816666D01*
X142800000Y-78150000D02*
X142266666Y-78150000D01*
X142533333Y-78416666D02*
X142533333Y-77883333D01*
X141600000Y-77716666D02*
X141933333Y-77716666D01*
X141966666Y-78050000D01*
X141933333Y-78016666D01*
X141866666Y-77983333D01*
X141700000Y-77983333D01*
X141633333Y-78016666D01*
X141600000Y-78050000D01*
X141566666Y-78116666D01*
X141566666Y-78283333D01*
X141600000Y-78350000D01*
X141633333Y-78383333D01*
X141700000Y-78416666D01*
X141866666Y-78416666D01*
X141933333Y-78383333D01*
X141966666Y-78350000D01*
X141366666Y-77716666D02*
X141133333Y-78416666D01*
X140900000Y-77716666D01*
X145200000Y-119050000D02*
X144666666Y-119050000D01*
X144933333Y-119316666D02*
X144933333Y-118783333D01*
X144000000Y-118616666D02*
X144333333Y-118616666D01*
X144366666Y-118950000D01*
X144333333Y-118916666D01*
X144266666Y-118883333D01*
X144100000Y-118883333D01*
X144033333Y-118916666D01*
X144000000Y-118950000D01*
X143966666Y-119016666D01*
X143966666Y-119183333D01*
X144000000Y-119250000D01*
X144033333Y-119283333D01*
X144100000Y-119316666D01*
X144266666Y-119316666D01*
X144333333Y-119283333D01*
X144366666Y-119250000D01*
X143766666Y-118616666D02*
X143533333Y-119316666D01*
X143300000Y-118616666D01*
X135083333Y-119283333D02*
X134983333Y-119316666D01*
X134816666Y-119316666D01*
X134750000Y-119283333D01*
X134716666Y-119250000D01*
X134683333Y-119183333D01*
X134683333Y-119116666D01*
X134716666Y-119050000D01*
X134750000Y-119016666D01*
X134816666Y-118983333D01*
X134950000Y-118950000D01*
X135016666Y-118916666D01*
X135050000Y-118883333D01*
X135083333Y-118816666D01*
X135083333Y-118750000D01*
X135050000Y-118683333D01*
X135016666Y-118650000D01*
X134950000Y-118616666D01*
X134783333Y-118616666D01*
X134683333Y-118650000D01*
X133983333Y-119250000D02*
X134016666Y-119283333D01*
X134116666Y-119316666D01*
X134183333Y-119316666D01*
X134283333Y-119283333D01*
X134350000Y-119216666D01*
X134383333Y-119150000D01*
X134416666Y-119016666D01*
X134416666Y-118916666D01*
X134383333Y-118783333D01*
X134350000Y-118716666D01*
X134283333Y-118650000D01*
X134183333Y-118616666D01*
X134116666Y-118616666D01*
X134016666Y-118650000D01*
X133983333Y-118683333D01*
X133383333Y-118850000D02*
X133383333Y-119316666D01*
X133550000Y-118583333D02*
X133716666Y-119083333D01*
X133283333Y-119083333D01*
X169350000Y-106466666D02*
X169350000Y-107000000D01*
X169616666Y-106733333D02*
X169083333Y-106733333D01*
X168983333Y-107300000D02*
X168950000Y-107333333D01*
X168916666Y-107400000D01*
X168916666Y-107566666D01*
X168950000Y-107633333D01*
X168983333Y-107666666D01*
X169050000Y-107700000D01*
X169116666Y-107700000D01*
X169216666Y-107666666D01*
X169616666Y-107266666D01*
X169616666Y-107700000D01*
X169150000Y-108300000D02*
X169616666Y-108300000D01*
X168883333Y-108133333D02*
X169383333Y-107966666D01*
X169383333Y-108400000D01*
X168916666Y-108566666D02*
X169616666Y-108800000D01*
X168916666Y-109033333D01*
X137683333Y-125283333D02*
X137583333Y-125316666D01*
X137416666Y-125316666D01*
X137350000Y-125283333D01*
X137316666Y-125250000D01*
X137283333Y-125183333D01*
X137283333Y-125116666D01*
X137316666Y-125050000D01*
X137350000Y-125016666D01*
X137416666Y-124983333D01*
X137550000Y-124950000D01*
X137616666Y-124916666D01*
X137650000Y-124883333D01*
X137683333Y-124816666D01*
X137683333Y-124750000D01*
X137650000Y-124683333D01*
X137616666Y-124650000D01*
X137550000Y-124616666D01*
X137383333Y-124616666D01*
X137283333Y-124650000D01*
X136983333Y-125316666D02*
X136983333Y-124616666D01*
X136816666Y-124616666D01*
X136716666Y-124650000D01*
X136650000Y-124716666D01*
X136616666Y-124783333D01*
X136583333Y-124916666D01*
X136583333Y-125016666D01*
X136616666Y-125150000D01*
X136650000Y-125216666D01*
X136716666Y-125283333D01*
X136816666Y-125316666D01*
X136983333Y-125316666D01*
X135983333Y-124850000D02*
X135983333Y-125316666D01*
X136150000Y-124583333D02*
X136316666Y-125083333D01*
X135883333Y-125083333D01*
X116950000Y-106066666D02*
X116950000Y-106600000D01*
X117216666Y-106333333D02*
X116683333Y-106333333D01*
X116583333Y-106900000D02*
X116550000Y-106933333D01*
X116516666Y-107000000D01*
X116516666Y-107166666D01*
X116550000Y-107233333D01*
X116583333Y-107266666D01*
X116650000Y-107300000D01*
X116716666Y-107300000D01*
X116816666Y-107266666D01*
X117216666Y-106866666D01*
X117216666Y-107300000D01*
X116750000Y-107900000D02*
X117216666Y-107900000D01*
X116483333Y-107733333D02*
X116983333Y-107566666D01*
X116983333Y-108000000D01*
X116516666Y-108166666D02*
X117216666Y-108400000D01*
X116516666Y-108633333D01*
X122250000Y-104266666D02*
X122216666Y-104200000D01*
X122216666Y-104100000D01*
X122250000Y-104000000D01*
X122316666Y-103933333D01*
X122383333Y-103900000D01*
X122516666Y-103866666D01*
X122616666Y-103866666D01*
X122750000Y-103900000D01*
X122816666Y-103933333D01*
X122883333Y-104000000D01*
X122916666Y-104100000D01*
X122916666Y-104166666D01*
X122883333Y-104266666D01*
X122850000Y-104300000D01*
X122616666Y-104300000D01*
X122616666Y-104166666D01*
X122916666Y-104600000D02*
X122216666Y-104600000D01*
X122916666Y-105000000D01*
X122216666Y-105000000D01*
X122916666Y-105333333D02*
X122216666Y-105333333D01*
X122216666Y-105500000D01*
X122250000Y-105600000D01*
X122316666Y-105666666D01*
X122383333Y-105700000D01*
X122516666Y-105733333D01*
X122616666Y-105733333D01*
X122750000Y-105700000D01*
X122816666Y-105666666D01*
X122883333Y-105600000D01*
X122916666Y-105500000D01*
X122916666Y-105333333D01*
X122250000Y-89066666D02*
X122216666Y-89000000D01*
X122216666Y-88900000D01*
X122250000Y-88800000D01*
X122316666Y-88733333D01*
X122383333Y-88700000D01*
X122516666Y-88666666D01*
X122616666Y-88666666D01*
X122750000Y-88700000D01*
X122816666Y-88733333D01*
X122883333Y-88800000D01*
X122916666Y-88900000D01*
X122916666Y-88966666D01*
X122883333Y-89066666D01*
X122850000Y-89100000D01*
X122616666Y-89100000D01*
X122616666Y-88966666D01*
X122916666Y-89400000D02*
X122216666Y-89400000D01*
X122916666Y-89800000D01*
X122216666Y-89800000D01*
X122916666Y-90133333D02*
X122216666Y-90133333D01*
X122216666Y-90300000D01*
X122250000Y-90400000D01*
X122316666Y-90466666D01*
X122383333Y-90500000D01*
X122516666Y-90533333D01*
X122616666Y-90533333D01*
X122750000Y-90500000D01*
X122816666Y-90466666D01*
X122883333Y-90400000D01*
X122916666Y-90300000D01*
X122916666Y-90133333D01*
X169583333Y-101333333D02*
X169616666Y-101433333D01*
X169616666Y-101600000D01*
X169583333Y-101666666D01*
X169550000Y-101700000D01*
X169483333Y-101733333D01*
X169416666Y-101733333D01*
X169350000Y-101700000D01*
X169316666Y-101666666D01*
X169283333Y-101600000D01*
X169250000Y-101466666D01*
X169216666Y-101400000D01*
X169183333Y-101366666D01*
X169116666Y-101333333D01*
X169050000Y-101333333D01*
X168983333Y-101366666D01*
X168950000Y-101400000D01*
X168916666Y-101466666D01*
X168916666Y-101633333D01*
X168950000Y-101733333D01*
X169583333Y-102000000D02*
X169616666Y-102100000D01*
X169616666Y-102266666D01*
X169583333Y-102333333D01*
X169550000Y-102366666D01*
X169483333Y-102400000D01*
X169416666Y-102400000D01*
X169350000Y-102366666D01*
X169316666Y-102333333D01*
X169283333Y-102266666D01*
X169250000Y-102133333D01*
X169216666Y-102066666D01*
X169183333Y-102033333D01*
X169116666Y-102000000D01*
X169050000Y-102000000D01*
X168983333Y-102033333D01*
X168950000Y-102066666D01*
X168916666Y-102133333D01*
X168916666Y-102300000D01*
X168950000Y-102400000D01*
X168916666Y-102633333D02*
X168916666Y-103066666D01*
X169183333Y-102833333D01*
X169183333Y-102933333D01*
X169216666Y-103000000D01*
X169250000Y-103033333D01*
X169316666Y-103066666D01*
X169483333Y-103066666D01*
X169550000Y-103033333D01*
X169583333Y-103000000D01*
X169616666Y-102933333D01*
X169616666Y-102733333D01*
X169583333Y-102666666D01*
X169550000Y-102633333D01*
X150283333Y-78383333D02*
X150183333Y-78416666D01*
X150016666Y-78416666D01*
X149950000Y-78383333D01*
X149916666Y-78350000D01*
X149883333Y-78283333D01*
X149883333Y-78216666D01*
X149916666Y-78150000D01*
X149950000Y-78116666D01*
X150016666Y-78083333D01*
X150150000Y-78050000D01*
X150216666Y-78016666D01*
X150250000Y-77983333D01*
X150283333Y-77916666D01*
X150283333Y-77850000D01*
X150250000Y-77783333D01*
X150216666Y-77750000D01*
X150150000Y-77716666D01*
X149983333Y-77716666D01*
X149883333Y-77750000D01*
X149183333Y-78350000D02*
X149216666Y-78383333D01*
X149316666Y-78416666D01*
X149383333Y-78416666D01*
X149483333Y-78383333D01*
X149550000Y-78316666D01*
X149583333Y-78250000D01*
X149616666Y-78116666D01*
X149616666Y-78016666D01*
X149583333Y-77883333D01*
X149550000Y-77816666D01*
X149483333Y-77750000D01*
X149383333Y-77716666D01*
X149316666Y-77716666D01*
X149216666Y-77750000D01*
X149183333Y-77783333D01*
X148516666Y-78416666D02*
X148916666Y-78416666D01*
X148716666Y-78416666D02*
X148716666Y-77716666D01*
X148783333Y-77816666D01*
X148850000Y-77883333D01*
X148916666Y-77916666D01*
X122883333Y-93850000D02*
X122916666Y-93950000D01*
X122916666Y-94116666D01*
X122883333Y-94183333D01*
X122850000Y-94216666D01*
X122783333Y-94250000D01*
X122716666Y-94250000D01*
X122650000Y-94216666D01*
X122616666Y-94183333D01*
X122583333Y-94116666D01*
X122550000Y-93983333D01*
X122516666Y-93916666D01*
X122483333Y-93883333D01*
X122416666Y-93850000D01*
X122350000Y-93850000D01*
X122283333Y-93883333D01*
X122250000Y-93916666D01*
X122216666Y-93983333D01*
X122216666Y-94150000D01*
X122250000Y-94250000D01*
X122916666Y-94550000D02*
X122216666Y-94550000D01*
X122216666Y-94716666D01*
X122250000Y-94816666D01*
X122316666Y-94883333D01*
X122383333Y-94916666D01*
X122516666Y-94950000D01*
X122616666Y-94950000D01*
X122750000Y-94916666D01*
X122816666Y-94883333D01*
X122883333Y-94816666D01*
X122916666Y-94716666D01*
X122916666Y-94550000D01*
X122716666Y-95216666D02*
X122716666Y-95550000D01*
X122916666Y-95150000D02*
X122216666Y-95383333D01*
X122916666Y-95616666D01*
X153516666Y-125050000D02*
X152983333Y-125050000D01*
X153250000Y-125316666D02*
X153250000Y-124783333D01*
X152750000Y-124616666D02*
X152516666Y-125316666D01*
X152283333Y-124616666D01*
X152050000Y-124950000D02*
X151816666Y-124950000D01*
X151716666Y-125316666D02*
X152050000Y-125316666D01*
X152050000Y-124616666D01*
X151716666Y-124616666D01*
X151483333Y-124616666D02*
X151016666Y-125316666D01*
X151016666Y-124616666D02*
X151483333Y-125316666D01*
X163783333Y-98900000D02*
X163816666Y-99000000D01*
X163816666Y-99166666D01*
X163783333Y-99233333D01*
X163750000Y-99266666D01*
X163683333Y-99300000D01*
X163616666Y-99300000D01*
X163550000Y-99266666D01*
X163516666Y-99233333D01*
X163483333Y-99166666D01*
X163450000Y-99033333D01*
X163416666Y-98966666D01*
X163383333Y-98933333D01*
X163316666Y-98900000D01*
X163250000Y-98900000D01*
X163183333Y-98933333D01*
X163150000Y-98966666D01*
X163116666Y-99033333D01*
X163116666Y-99200000D01*
X163150000Y-99300000D01*
X163750000Y-100000000D02*
X163783333Y-99966666D01*
X163816666Y-99866666D01*
X163816666Y-99800000D01*
X163783333Y-99700000D01*
X163716666Y-99633333D01*
X163650000Y-99600000D01*
X163516666Y-99566666D01*
X163416666Y-99566666D01*
X163283333Y-99600000D01*
X163216666Y-99633333D01*
X163150000Y-99700000D01*
X163116666Y-99800000D01*
X163116666Y-99866666D01*
X163150000Y-99966666D01*
X163183333Y-100000000D01*
X163816666Y-100300000D02*
X163116666Y-100300000D01*
X163816666Y-100700000D02*
X163416666Y-100400000D01*
X163116666Y-100700000D02*
X163516666Y-100300000D01*
X163450000Y-104116666D02*
X163450000Y-104350000D01*
X163816666Y-104450000D02*
X163816666Y-104116666D01*
X163116666Y-104116666D01*
X163116666Y-104450000D01*
X163116666Y-104650000D02*
X163116666Y-105050000D01*
X163816666Y-104850000D02*
X163116666Y-104850000D01*
X163816666Y-105283333D02*
X163116666Y-105283333D01*
X163450000Y-105283333D02*
X163450000Y-105683333D01*
X163816666Y-105683333D02*
X163116666Y-105683333D01*
D13*
X151378571Y-84350000D02*
X150664285Y-84350000D01*
X151521428Y-84778571D02*
X151021428Y-83278571D01*
X150521428Y-84778571D01*
X150021428Y-83778571D02*
X150021428Y-84778571D01*
X150021428Y-83921428D02*
X149950000Y-83850000D01*
X149807142Y-83778571D01*
X149592857Y-83778571D01*
X149450000Y-83850000D01*
X149378571Y-83992857D01*
X149378571Y-84778571D01*
X148021428Y-84778571D02*
X148021428Y-83992857D01*
X148092857Y-83850000D01*
X148235714Y-83778571D01*
X148521428Y-83778571D01*
X148664285Y-83850000D01*
X148021428Y-84707142D02*
X148164285Y-84778571D01*
X148521428Y-84778571D01*
X148664285Y-84707142D01*
X148735714Y-84564285D01*
X148735714Y-84421428D01*
X148664285Y-84278571D01*
X148521428Y-84207142D01*
X148164285Y-84207142D01*
X148021428Y-84135714D01*
X147092857Y-84778571D02*
X147235714Y-84707142D01*
X147307142Y-84564285D01*
X147307142Y-83278571D01*
X146307142Y-84778571D02*
X146450000Y-84707142D01*
X146521428Y-84635714D01*
X146592857Y-84492857D01*
X146592857Y-84064285D01*
X146521428Y-83921428D01*
X146450000Y-83850000D01*
X146307142Y-83778571D01*
X146092857Y-83778571D01*
X145950000Y-83850000D01*
X145878571Y-83921428D01*
X145807142Y-84064285D01*
X145807142Y-84492857D01*
X145878571Y-84635714D01*
X145950000Y-84707142D01*
X146092857Y-84778571D01*
X146307142Y-84778571D01*
X144521428Y-83778571D02*
X144521428Y-84992857D01*
X144592857Y-85135714D01*
X144664285Y-85207142D01*
X144807142Y-85278571D01*
X145021428Y-85278571D01*
X145164285Y-85207142D01*
X144521428Y-84707142D02*
X144664285Y-84778571D01*
X144950000Y-84778571D01*
X145092857Y-84707142D01*
X145164285Y-84635714D01*
X145235714Y-84492857D01*
X145235714Y-84064285D01*
X145164285Y-83921428D01*
X145092857Y-83850000D01*
X144950000Y-83778571D01*
X144664285Y-83778571D01*
X144521428Y-83850000D01*
X142878571Y-83278571D02*
X142378571Y-84778571D01*
X141878571Y-83278571D01*
X140807142Y-84707142D02*
X140950000Y-84778571D01*
X141235714Y-84778571D01*
X141378571Y-84707142D01*
X141450000Y-84564285D01*
X141450000Y-83992857D01*
X141378571Y-83850000D01*
X141235714Y-83778571D01*
X140950000Y-83778571D01*
X140807142Y-83850000D01*
X140735714Y-83992857D01*
X140735714Y-84135714D01*
X141450000Y-84278571D01*
X140092857Y-84778571D02*
X140092857Y-83778571D01*
X140092857Y-84064285D02*
X140021428Y-83921428D01*
X139950000Y-83850000D01*
X139807142Y-83778571D01*
X139664285Y-83778571D01*
X139378571Y-83778571D02*
X138807142Y-83778571D01*
X139164285Y-83278571D02*
X139164285Y-84564285D01*
X139092857Y-84707142D01*
X138950000Y-84778571D01*
X138807142Y-84778571D01*
X137735714Y-84707142D02*
X137878571Y-84778571D01*
X138164285Y-84778571D01*
X138307142Y-84707142D01*
X138378571Y-84564285D01*
X138378571Y-83992857D01*
X138307142Y-83850000D01*
X138164285Y-83778571D01*
X137878571Y-83778571D01*
X137735714Y-83850000D01*
X137664285Y-83992857D01*
X137664285Y-84135714D01*
X138378571Y-84278571D01*
X137021428Y-84778571D02*
X137021428Y-83278571D01*
X137021428Y-83850000D02*
X136878571Y-83778571D01*
X136592857Y-83778571D01*
X136450000Y-83850000D01*
X136378571Y-83921428D01*
X136307142Y-84064285D01*
X136307142Y-84492857D01*
X136378571Y-84635714D01*
X136450000Y-84707142D01*
X136592857Y-84778571D01*
X136878571Y-84778571D01*
X137021428Y-84707142D01*
X135664285Y-84778571D02*
X135664285Y-83778571D01*
X135664285Y-84064285D02*
X135592857Y-83921428D01*
X135521428Y-83850000D01*
X135378571Y-83778571D01*
X135235714Y-83778571D01*
X134092857Y-84778571D02*
X134092857Y-83992857D01*
X134164285Y-83850000D01*
X134307142Y-83778571D01*
X134592857Y-83778571D01*
X134735714Y-83850000D01*
X134092857Y-84707142D02*
X134235714Y-84778571D01*
X134592857Y-84778571D01*
X134735714Y-84707142D01*
X134807142Y-84564285D01*
X134807142Y-84421428D01*
X134735714Y-84278571D01*
X134592857Y-84207142D01*
X134235714Y-84207142D01*
X134092857Y-84135714D01*
D10*
X169616666Y-96100000D02*
X168916666Y-96100000D01*
X169416666Y-96333333D01*
X168916666Y-96566666D01*
X169616666Y-96566666D01*
X168916666Y-97033333D02*
X168916666Y-97166666D01*
X168950000Y-97233333D01*
X169016666Y-97300000D01*
X169150000Y-97333333D01*
X169383333Y-97333333D01*
X169516666Y-97300000D01*
X169583333Y-97233333D01*
X169616666Y-97166666D01*
X169616666Y-97033333D01*
X169583333Y-96966666D01*
X169516666Y-96900000D01*
X169383333Y-96866666D01*
X169150000Y-96866666D01*
X169016666Y-96900000D01*
X168950000Y-96966666D01*
X168916666Y-97033333D01*
X169583333Y-97600000D02*
X169616666Y-97700000D01*
X169616666Y-97866666D01*
X169583333Y-97933333D01*
X169550000Y-97966666D01*
X169483333Y-98000000D01*
X169416666Y-98000000D01*
X169350000Y-97966666D01*
X169316666Y-97933333D01*
X169283333Y-97866666D01*
X169250000Y-97733333D01*
X169216666Y-97666666D01*
X169183333Y-97633333D01*
X169116666Y-97600000D01*
X169050000Y-97600000D01*
X168983333Y-97633333D01*
X168950000Y-97666666D01*
X168916666Y-97733333D01*
X168916666Y-97900000D01*
X168950000Y-98000000D01*
X169616666Y-98300000D02*
X168916666Y-98300000D01*
X163783333Y-93866666D02*
X163816666Y-93966666D01*
X163816666Y-94133333D01*
X163783333Y-94200000D01*
X163750000Y-94233333D01*
X163683333Y-94266666D01*
X163616666Y-94266666D01*
X163550000Y-94233333D01*
X163516666Y-94200000D01*
X163483333Y-94133333D01*
X163450000Y-94000000D01*
X163416666Y-93933333D01*
X163383333Y-93900000D01*
X163316666Y-93866666D01*
X163250000Y-93866666D01*
X163183333Y-93900000D01*
X163150000Y-93933333D01*
X163116666Y-94000000D01*
X163116666Y-94166666D01*
X163150000Y-94266666D01*
X163750000Y-94966666D02*
X163783333Y-94933333D01*
X163816666Y-94833333D01*
X163816666Y-94766666D01*
X163783333Y-94666666D01*
X163716666Y-94600000D01*
X163650000Y-94566666D01*
X163516666Y-94533333D01*
X163416666Y-94533333D01*
X163283333Y-94566666D01*
X163216666Y-94600000D01*
X163150000Y-94666666D01*
X163116666Y-94766666D01*
X163116666Y-94833333D01*
X163150000Y-94933333D01*
X163183333Y-94966666D01*
X163816666Y-95600000D02*
X163816666Y-95266666D01*
X163116666Y-95266666D01*
D11*
X150904761Y-97585714D02*
X150714285Y-98252380D01*
X150523809Y-97776190D01*
X150333333Y-98252380D01*
X150142857Y-97585714D01*
X149857142Y-97585714D02*
X149666666Y-98252380D01*
X149476190Y-97776190D01*
X149285714Y-98252380D01*
X149095238Y-97585714D01*
X148809523Y-97585714D02*
X148619047Y-98252380D01*
X148428571Y-97776190D01*
X148238095Y-98252380D01*
X148047619Y-97585714D01*
X147666666Y-98157142D02*
X147619047Y-98204761D01*
X147666666Y-98252380D01*
X147714285Y-98204761D01*
X147666666Y-98157142D01*
X147666666Y-98252380D01*
X147190476Y-98252380D02*
X147190476Y-97585714D01*
X147190476Y-97252380D02*
X147238095Y-97300000D01*
X147190476Y-97347619D01*
X147142857Y-97300000D01*
X147190476Y-97252380D01*
X147190476Y-97347619D01*
X146571428Y-98252380D02*
X146666666Y-98204761D01*
X146714285Y-98157142D01*
X146761904Y-98061904D01*
X146761904Y-97776190D01*
X146714285Y-97680952D01*
X146666666Y-97633333D01*
X146571428Y-97585714D01*
X146428571Y-97585714D01*
X146333333Y-97633333D01*
X146285714Y-97680952D01*
X146238095Y-97776190D01*
X146238095Y-98061904D01*
X146285714Y-98157142D01*
X146333333Y-98204761D01*
X146428571Y-98252380D01*
X146571428Y-98252380D01*
X145952380Y-97585714D02*
X145571428Y-97585714D01*
X145809523Y-97252380D02*
X145809523Y-98109523D01*
X145761904Y-98204761D01*
X145666666Y-98252380D01*
X145571428Y-98252380D01*
X145333333Y-97585714D02*
X145095238Y-98252380D01*
X144857142Y-97585714D01*
X144095238Y-98204761D02*
X144190476Y-98252380D01*
X144380952Y-98252380D01*
X144476190Y-98204761D01*
X144523809Y-98109523D01*
X144523809Y-97728571D01*
X144476190Y-97633333D01*
X144380952Y-97585714D01*
X144190476Y-97585714D01*
X144095238Y-97633333D01*
X144047619Y-97728571D01*
X144047619Y-97823809D01*
X144523809Y-97919047D01*
X143619047Y-98252380D02*
X143619047Y-97585714D01*
X143619047Y-97776190D02*
X143571428Y-97680952D01*
X143523809Y-97633333D01*
X143428571Y-97585714D01*
X143333333Y-97585714D01*
X143142857Y-97585714D02*
X142761904Y-97585714D01*
X143000000Y-97252380D02*
X143000000Y-98109523D01*
X142952380Y-98204761D01*
X142857142Y-98252380D01*
X142761904Y-98252380D01*
X142047619Y-98204761D02*
X142142857Y-98252380D01*
X142333333Y-98252380D01*
X142428571Y-98204761D01*
X142476190Y-98109523D01*
X142476190Y-97728571D01*
X142428571Y-97633333D01*
X142333333Y-97585714D01*
X142142857Y-97585714D01*
X142047619Y-97633333D01*
X142000000Y-97728571D01*
X142000000Y-97823809D01*
X142476190Y-97919047D01*
X141571428Y-98252380D02*
X141571428Y-97252380D01*
X141571428Y-97633333D02*
X141476190Y-97585714D01*
X141285714Y-97585714D01*
X141190476Y-97633333D01*
X141142857Y-97680952D01*
X141095238Y-97776190D01*
X141095238Y-98061904D01*
X141142857Y-98157142D01*
X141190476Y-98204761D01*
X141285714Y-98252380D01*
X141476190Y-98252380D01*
X141571428Y-98204761D01*
X140666666Y-98252380D02*
X140666666Y-97585714D01*
X140666666Y-97776190D02*
X140619047Y-97680952D01*
X140571428Y-97633333D01*
X140476190Y-97585714D01*
X140380952Y-97585714D01*
X139619047Y-98252380D02*
X139619047Y-97728571D01*
X139666666Y-97633333D01*
X139761904Y-97585714D01*
X139952380Y-97585714D01*
X140047619Y-97633333D01*
X139619047Y-98204761D02*
X139714285Y-98252380D01*
X139952380Y-98252380D01*
X140047619Y-98204761D01*
X140095238Y-98109523D01*
X140095238Y-98014285D01*
X140047619Y-97919047D01*
X139952380Y-97871428D01*
X139714285Y-97871428D01*
X139619047Y-97823809D01*
X138761904Y-98204761D02*
X138857142Y-98252380D01*
X139047619Y-98252380D01*
X139142857Y-98204761D01*
X139190476Y-98109523D01*
X139190476Y-97728571D01*
X139142857Y-97633333D01*
X139047619Y-97585714D01*
X138857142Y-97585714D01*
X138761904Y-97633333D01*
X138714285Y-97728571D01*
X138714285Y-97823809D01*
X139190476Y-97919047D01*
X138285714Y-98157142D02*
X138238095Y-98204761D01*
X138285714Y-98252380D01*
X138333333Y-98204761D01*
X138285714Y-98157142D01*
X138285714Y-98252380D01*
X137380952Y-98204761D02*
X137476190Y-98252380D01*
X137666666Y-98252380D01*
X137761904Y-98204761D01*
X137809523Y-98157142D01*
X137857142Y-98061904D01*
X137857142Y-97776190D01*
X137809523Y-97680952D01*
X137761904Y-97633333D01*
X137666666Y-97585714D01*
X137476190Y-97585714D01*
X137380952Y-97633333D01*
X136809523Y-98252380D02*
X136904761Y-98204761D01*
X136952380Y-98157142D01*
X137000000Y-98061904D01*
X137000000Y-97776190D01*
X136952380Y-97680952D01*
X136904761Y-97633333D01*
X136809523Y-97585714D01*
X136666666Y-97585714D01*
X136571428Y-97633333D01*
X136523809Y-97680952D01*
X136476190Y-97776190D01*
X136476190Y-98061904D01*
X136523809Y-98157142D01*
X136571428Y-98204761D01*
X136666666Y-98252380D01*
X136809523Y-98252380D01*
X136047619Y-98252380D02*
X136047619Y-97585714D01*
X136047619Y-97680952D02*
X136000000Y-97633333D01*
X135904761Y-97585714D01*
X135761904Y-97585714D01*
X135666666Y-97633333D01*
X135619047Y-97728571D01*
X135619047Y-98252380D01*
X135619047Y-97728571D02*
X135571428Y-97633333D01*
X135476190Y-97585714D01*
X135333333Y-97585714D01*
X135238095Y-97633333D01*
X135190476Y-97728571D01*
X135190476Y-98252380D01*
D10*
X147833333Y-125050000D02*
X147300000Y-125050000D01*
X146600000Y-125316666D02*
X147000000Y-125316666D01*
X146800000Y-125316666D02*
X146800000Y-124616666D01*
X146866666Y-124716666D01*
X146933333Y-124783333D01*
X147000000Y-124816666D01*
X146333333Y-124683333D02*
X146300000Y-124650000D01*
X146233333Y-124616666D01*
X146066666Y-124616666D01*
X146000000Y-124650000D01*
X145966666Y-124683333D01*
X145933333Y-124750000D01*
X145933333Y-124816666D01*
X145966666Y-124916666D01*
X146366666Y-125316666D01*
X145933333Y-125316666D01*
X145733333Y-124616666D02*
X145500000Y-125316666D01*
X145266666Y-124616666D01*
X137483333Y-119283333D02*
X137383333Y-119316666D01*
X137216666Y-119316666D01*
X137150000Y-119283333D01*
X137116666Y-119250000D01*
X137083333Y-119183333D01*
X137083333Y-119116666D01*
X137116666Y-119050000D01*
X137150000Y-119016666D01*
X137216666Y-118983333D01*
X137350000Y-118950000D01*
X137416666Y-118916666D01*
X137450000Y-118883333D01*
X137483333Y-118816666D01*
X137483333Y-118750000D01*
X137450000Y-118683333D01*
X137416666Y-118650000D01*
X137350000Y-118616666D01*
X137183333Y-118616666D01*
X137083333Y-118650000D01*
X136383333Y-119250000D02*
X136416666Y-119283333D01*
X136516666Y-119316666D01*
X136583333Y-119316666D01*
X136683333Y-119283333D01*
X136750000Y-119216666D01*
X136783333Y-119150000D01*
X136816666Y-119016666D01*
X136816666Y-118916666D01*
X136783333Y-118783333D01*
X136750000Y-118716666D01*
X136683333Y-118650000D01*
X136583333Y-118616666D01*
X136516666Y-118616666D01*
X136416666Y-118650000D01*
X136383333Y-118683333D01*
X135750000Y-118616666D02*
X136083333Y-118616666D01*
X136116666Y-118950000D01*
X136083333Y-118916666D01*
X136016666Y-118883333D01*
X135850000Y-118883333D01*
X135783333Y-118916666D01*
X135750000Y-118950000D01*
X135716666Y-119016666D01*
X135716666Y-119183333D01*
X135750000Y-119250000D01*
X135783333Y-119283333D01*
X135850000Y-119316666D01*
X136016666Y-119316666D01*
X136083333Y-119283333D01*
X136116666Y-119250000D01*
X135216666Y-72350000D02*
X134683333Y-72350000D01*
X134950000Y-72616666D02*
X134950000Y-72083333D01*
X134450000Y-71916666D02*
X134216666Y-72616666D01*
X133983333Y-71916666D01*
X133750000Y-72250000D02*
X133516666Y-72250000D01*
X133416666Y-72616666D02*
X133750000Y-72616666D01*
X133750000Y-71916666D01*
X133416666Y-71916666D01*
X133183333Y-71916666D02*
X132716666Y-72616666D01*
X132716666Y-71916666D02*
X133183333Y-72616666D01*
X116983333Y-98800000D02*
X117016666Y-98900000D01*
X117016666Y-99066666D01*
X116983333Y-99133333D01*
X116950000Y-99166666D01*
X116883333Y-99200000D01*
X116816666Y-99200000D01*
X116750000Y-99166666D01*
X116716666Y-99133333D01*
X116683333Y-99066666D01*
X116650000Y-98933333D01*
X116616666Y-98866666D01*
X116583333Y-98833333D01*
X116516666Y-98800000D01*
X116450000Y-98800000D01*
X116383333Y-98833333D01*
X116350000Y-98866666D01*
X116316666Y-98933333D01*
X116316666Y-99100000D01*
X116350000Y-99200000D01*
X116950000Y-99900000D02*
X116983333Y-99866666D01*
X117016666Y-99766666D01*
X117016666Y-99700000D01*
X116983333Y-99600000D01*
X116916666Y-99533333D01*
X116850000Y-99500000D01*
X116716666Y-99466666D01*
X116616666Y-99466666D01*
X116483333Y-99500000D01*
X116416666Y-99533333D01*
X116350000Y-99600000D01*
X116316666Y-99700000D01*
X116316666Y-99766666D01*
X116350000Y-99866666D01*
X116383333Y-99900000D01*
X117016666Y-100200000D02*
X116316666Y-100200000D01*
X117016666Y-100600000D02*
X116616666Y-100300000D01*
X116316666Y-100600000D02*
X116716666Y-100200000D01*
X137683333Y-71950000D02*
X137750000Y-71916666D01*
X137850000Y-71916666D01*
X137950000Y-71950000D01*
X138016666Y-72016666D01*
X138050000Y-72083333D01*
X138083333Y-72216666D01*
X138083333Y-72316666D01*
X138050000Y-72450000D01*
X138016666Y-72516666D01*
X137950000Y-72583333D01*
X137850000Y-72616666D01*
X137783333Y-72616666D01*
X137683333Y-72583333D01*
X137650000Y-72550000D01*
X137650000Y-72316666D01*
X137783333Y-72316666D01*
X137350000Y-72616666D02*
X137350000Y-71916666D01*
X136950000Y-72616666D01*
X136950000Y-71916666D01*
X136616666Y-72616666D02*
X136616666Y-71916666D01*
X136450000Y-71916666D01*
X136350000Y-71950000D01*
X136283333Y-72016666D01*
X136250000Y-72083333D01*
X136216666Y-72216666D01*
X136216666Y-72316666D01*
X136250000Y-72450000D01*
X136283333Y-72516666D01*
X136350000Y-72583333D01*
X136450000Y-72616666D01*
X136616666Y-72616666D01*
X135916666Y-72616666D02*
X135916666Y-71916666D01*
X135750000Y-71916666D01*
X135650000Y-71950000D01*
X135583333Y-72016666D01*
X135550000Y-72083333D01*
X135516666Y-72216666D01*
X135516666Y-72316666D01*
X135550000Y-72450000D01*
X135583333Y-72516666D01*
X135650000Y-72583333D01*
X135750000Y-72616666D01*
X135916666Y-72616666D01*
%TO.C,REF\u002A\u002A*%
G36*
X127572971Y-124517822D02*
G01*
X124052178Y-124517822D01*
X124052178Y-123650198D01*
X127572971Y-123650198D01*
X127572971Y-124517822D01*
G37*
D14*
X127572971Y-124517822D02*
X124052178Y-124517822D01*
X124052178Y-123650198D01*
X127572971Y-123650198D01*
X127572971Y-124517822D01*
G36*
X126811662Y-119260696D02*
G01*
X126851314Y-119261782D01*
X126919109Y-119261782D01*
X126919109Y-119374951D01*
X126759577Y-119374951D01*
X126744682Y-119552732D01*
X126742682Y-119577037D01*
X126738023Y-119637880D01*
X126734731Y-119687389D01*
X126733092Y-119720992D01*
X126733390Y-119734116D01*
X126737724Y-119730343D01*
X126757496Y-119710676D01*
X126791679Y-119675818D01*
X126838541Y-119627576D01*
X126896354Y-119567757D01*
X126963387Y-119498167D01*
X127037912Y-119420615D01*
X127118197Y-119336907D01*
X127202513Y-119248849D01*
X127289130Y-119158250D01*
X127376319Y-119066915D01*
X127462349Y-118976653D01*
X127545492Y-118889269D01*
X127624016Y-118806572D01*
X127696192Y-118730368D01*
X127760291Y-118662463D01*
X127814583Y-118604666D01*
X127911592Y-118501040D01*
X127912034Y-118589315D01*
X127912475Y-118677589D01*
X127311938Y-119309158D01*
X126711401Y-119940726D01*
X126699396Y-120084674D01*
X126651365Y-120660635D01*
X126642876Y-120762791D01*
X126632343Y-120890612D01*
X126622621Y-121009767D01*
X126613898Y-121117914D01*
X126606358Y-121212713D01*
X126600187Y-121291819D01*
X126595573Y-121352892D01*
X126592700Y-121393590D01*
X126591754Y-121411570D01*
X126594251Y-121419808D01*
X126605471Y-121437599D01*
X126626751Y-121464411D01*
X126637021Y-121476129D01*
X126659225Y-121501466D01*
X126704023Y-121549986D01*
X126762281Y-121611192D01*
X126835129Y-121686307D01*
X126923703Y-121776550D01*
X127029134Y-121883145D01*
X127098492Y-121953093D01*
X127195179Y-122050658D01*
X127291526Y-122147941D01*
X127384638Y-122242014D01*
X127471618Y-122329950D01*
X127549569Y-122408820D01*
X127615596Y-122475699D01*
X127666802Y-122527658D01*
X127867514Y-122731620D01*
X127831058Y-122769671D01*
X127822460Y-122778245D01*
X127797095Y-122799297D01*
X127779695Y-122807723D01*
X127766071Y-122800530D01*
X127740743Y-122778944D01*
X127710379Y-122747995D01*
X127691896Y-122728448D01*
X127657427Y-122692752D01*
X127608712Y-122642684D01*
X127547469Y-122580001D01*
X127475420Y-122506457D01*
X127394285Y-122423810D01*
X127305784Y-122333815D01*
X127211637Y-122238228D01*
X127113565Y-122138805D01*
X126571161Y-121589343D01*
X126549066Y-121874746D01*
X126544250Y-121935662D01*
X126537216Y-122017548D01*
X126530872Y-122079569D01*
X126524748Y-122124987D01*
X126518373Y-122157062D01*
X126511277Y-122179052D01*
X126502991Y-122194219D01*
X126491393Y-122215416D01*
X126481850Y-122254386D01*
X126479010Y-122310531D01*
X126479010Y-122392773D01*
X126252674Y-122392773D01*
X126252674Y-122216733D01*
X125407082Y-122216733D01*
X125358203Y-122272262D01*
X125344836Y-122286722D01*
X125272388Y-122344813D01*
X125190532Y-122380576D01*
X125101900Y-122392773D01*
X125023692Y-122386306D01*
X124935233Y-122359047D01*
X124859507Y-122310328D01*
X124844748Y-122296403D01*
X124807864Y-122251328D01*
X124775503Y-122198819D01*
X124752297Y-122147061D01*
X124742879Y-122104239D01*
X124742697Y-122098023D01*
X124741342Y-122075246D01*
X124737800Y-122059513D01*
X124730390Y-122052068D01*
X124717431Y-122054156D01*
X124697243Y-122067020D01*
X124668145Y-122091905D01*
X124628456Y-122130053D01*
X124576496Y-122182710D01*
X124510584Y-122251119D01*
X124429040Y-122336524D01*
X124385604Y-122382112D01*
X124313000Y-122458441D01*
X124244309Y-122530808D01*
X124182223Y-122596366D01*
X124129434Y-122652274D01*
X124088634Y-122695686D01*
X124062515Y-122723758D01*
X123991119Y-122801436D01*
X123902863Y-122713416D01*
X124448690Y-122141287D01*
X124483105Y-122105188D01*
X124605546Y-121976272D01*
X124710651Y-121864754D01*
X124798736Y-121770288D01*
X124870116Y-121692529D01*
X124920588Y-121636174D01*
X125127247Y-121636174D01*
X125128872Y-121649434D01*
X125129156Y-121650819D01*
X125142698Y-121682228D01*
X125169748Y-121696863D01*
X125253129Y-121728063D01*
X125327418Y-121780038D01*
X125385846Y-121848791D01*
X125425890Y-121931315D01*
X125445026Y-122024606D01*
X125451364Y-122103565D01*
X126400838Y-122103565D01*
X126407458Y-122075273D01*
X126408629Y-122068329D01*
X126412268Y-122037281D01*
X126417234Y-121987081D01*
X126423157Y-121921727D01*
X126429669Y-121845219D01*
X126436401Y-121761555D01*
X126458724Y-121476129D01*
X126157826Y-121170565D01*
X126102636Y-121114704D01*
X126035109Y-121046888D01*
X125974529Y-120986643D01*
X125923021Y-120936052D01*
X125882710Y-120897200D01*
X125855722Y-120872170D01*
X125844182Y-120863046D01*
X125836444Y-120867405D01*
X125813395Y-120887241D01*
X125778709Y-120920375D01*
X125735487Y-120963820D01*
X125686832Y-121014587D01*
X125674140Y-121028051D01*
X125617229Y-121088275D01*
X125549414Y-121159864D01*
X125475800Y-121237437D01*
X125401493Y-121315611D01*
X125331599Y-121389005D01*
X125327401Y-121393409D01*
X125262420Y-121461785D01*
X125212836Y-121514732D01*
X125176688Y-121554767D01*
X125152016Y-121584411D01*
X125136858Y-121606181D01*
X125129256Y-121622595D01*
X125127247Y-121636174D01*
X124920588Y-121636174D01*
X124925105Y-121631131D01*
X124964019Y-121585748D01*
X124987173Y-121556035D01*
X124994882Y-121541644D01*
X124994883Y-121541559D01*
X124993825Y-121523624D01*
X124990737Y-121483421D01*
X124985858Y-121423687D01*
X124979432Y-121347158D01*
X124971700Y-121256569D01*
X124962905Y-121154657D01*
X124953287Y-121044159D01*
X124943091Y-120927811D01*
X124932556Y-120808348D01*
X124921926Y-120688507D01*
X124911442Y-120571025D01*
X124901346Y-120458637D01*
X124891881Y-120354081D01*
X124883288Y-120260091D01*
X124875809Y-120179405D01*
X124869687Y-120114759D01*
X124865162Y-120068888D01*
X124862478Y-120044530D01*
X124857067Y-120003732D01*
X124986253Y-120003732D01*
X124987908Y-120034653D01*
X124991549Y-120086653D01*
X124996995Y-120157487D01*
X125004063Y-120244911D01*
X125012570Y-120346681D01*
X125022335Y-120460552D01*
X125033174Y-120584279D01*
X125044907Y-120715618D01*
X125054079Y-120816908D01*
X125065566Y-120942526D01*
X125076322Y-121058762D01*
X125086131Y-121163380D01*
X125094781Y-121254140D01*
X125102057Y-121328804D01*
X125107746Y-121385134D01*
X125111634Y-121420891D01*
X125113506Y-121433837D01*
X125119188Y-121429826D01*
X125140020Y-121410138D01*
X125173872Y-121376322D01*
X125218412Y-121330837D01*
X125271310Y-121276146D01*
X125330236Y-121214710D01*
X125392858Y-121148990D01*
X125456848Y-121081449D01*
X125519874Y-121014547D01*
X125579606Y-120950746D01*
X125633713Y-120892507D01*
X125679865Y-120842292D01*
X125715733Y-120802563D01*
X125738984Y-120775780D01*
X125745778Y-120766477D01*
X125927601Y-120766477D01*
X126203305Y-121041968D01*
X126270726Y-121109224D01*
X126334267Y-121172162D01*
X126383490Y-121220100D01*
X126420196Y-121254594D01*
X126446190Y-121277199D01*
X126463276Y-121289471D01*
X126473256Y-121292966D01*
X126477935Y-121289238D01*
X126479116Y-121279844D01*
X126479873Y-121264749D01*
X126482601Y-121225883D01*
X126487108Y-121166895D01*
X126493179Y-121090473D01*
X126500596Y-120999305D01*
X126509142Y-120896080D01*
X126518602Y-120783483D01*
X126528758Y-120664205D01*
X126537723Y-120559077D01*
X126547066Y-120448351D01*
X126555443Y-120347814D01*
X126562653Y-120259943D01*
X126568496Y-120187215D01*
X126572769Y-120132110D01*
X126575273Y-120097104D01*
X126575805Y-120084674D01*
X126575384Y-120084908D01*
X126563509Y-120096350D01*
X126537130Y-120123198D01*
X126498570Y-120163018D01*
X126450153Y-120213372D01*
X126394203Y-120271828D01*
X126333042Y-120335948D01*
X126268995Y-120403298D01*
X126204385Y-120471443D01*
X126141535Y-120537948D01*
X126082768Y-120600377D01*
X126030409Y-120656295D01*
X125929533Y-120764406D01*
X125927601Y-120766477D01*
X125745778Y-120766477D01*
X125747290Y-120764406D01*
X125739148Y-120753383D01*
X125715478Y-120726999D01*
X125678478Y-120687527D01*
X125630350Y-120637191D01*
X125573296Y-120578217D01*
X125509520Y-120512830D01*
X125441222Y-120443255D01*
X125370605Y-120371716D01*
X125299871Y-120300438D01*
X125231222Y-120231647D01*
X125166861Y-120167566D01*
X125108989Y-120110422D01*
X125059810Y-120062439D01*
X125021524Y-120025841D01*
X124996334Y-120002854D01*
X124986442Y-119995703D01*
X124986253Y-120003732D01*
X124857067Y-120003732D01*
X124855390Y-119991089D01*
X124580297Y-119991089D01*
X124580140Y-119890495D01*
X124680891Y-119890495D01*
X124762624Y-119890495D01*
X124769895Y-119890489D01*
X124810950Y-119889613D01*
X124833277Y-119885867D01*
X124842529Y-119877270D01*
X124844357Y-119861840D01*
X124836306Y-119839159D01*
X124808730Y-119801428D01*
X124762624Y-119752179D01*
X124680891Y-119671172D01*
X124680891Y-119890495D01*
X124580140Y-119890495D01*
X124579968Y-119780471D01*
X124579639Y-119569852D01*
X124127914Y-119110891D01*
X123676189Y-118651931D01*
X123675570Y-118564848D01*
X123674951Y-118477767D01*
X124216769Y-119026952D01*
X124269137Y-119079998D01*
X124377803Y-119189772D01*
X124470709Y-119283114D01*
X124549055Y-119361173D01*
X124614043Y-119425097D01*
X124666872Y-119476035D01*
X124708743Y-119515135D01*
X124740855Y-119543548D01*
X124764410Y-119562420D01*
X124780608Y-119572901D01*
X124790649Y-119576139D01*
X124807579Y-119575158D01*
X124817084Y-119567996D01*
X124818723Y-119548401D01*
X124814782Y-119510124D01*
X124812065Y-119486025D01*
X124808284Y-119445744D01*
X124806760Y-119418961D01*
X124806015Y-119409728D01*
X124798746Y-119399839D01*
X124778668Y-119396562D01*
X124739689Y-119397992D01*
X124729737Y-119398553D01*
X124689898Y-119397921D01*
X124661560Y-119389167D01*
X124641586Y-119374951D01*
X124924852Y-119374951D01*
X124929013Y-119422104D01*
X124930935Y-119443498D01*
X124936924Y-119501909D01*
X124942826Y-119540381D01*
X124949727Y-119562912D01*
X124958712Y-119573498D01*
X124970870Y-119576139D01*
X124981801Y-119577937D01*
X124989050Y-119586530D01*
X124993100Y-119606505D01*
X124994863Y-119642450D01*
X124995248Y-119698952D01*
X124995248Y-119821766D01*
X125035447Y-119861840D01*
X125133565Y-119959654D01*
X125271881Y-120097542D01*
X125271881Y-119991089D01*
X126026337Y-119991089D01*
X126026337Y-120230000D01*
X125407831Y-120230000D01*
X125617592Y-120446906D01*
X125657770Y-120488334D01*
X125713328Y-120545200D01*
X125761570Y-120594082D01*
X125799971Y-120632441D01*
X125826003Y-120657741D01*
X125837140Y-120667442D01*
X125841373Y-120664767D01*
X125861224Y-120646782D01*
X125895451Y-120613481D01*
X125942227Y-120566712D01*
X125999724Y-120508325D01*
X126066112Y-120440169D01*
X126139564Y-120364094D01*
X126218251Y-120281950D01*
X126297341Y-120198943D01*
X126374871Y-120117136D01*
X126437746Y-120050083D01*
X126487502Y-119996007D01*
X126525678Y-119953129D01*
X126553811Y-119919673D01*
X126573440Y-119893861D01*
X126586101Y-119873914D01*
X126593334Y-119858056D01*
X126596675Y-119844509D01*
X126597561Y-119837910D01*
X126601488Y-119801548D01*
X126606459Y-119748018D01*
X126611927Y-119683421D01*
X126617344Y-119613862D01*
X126619181Y-119589635D01*
X126624488Y-119524178D01*
X126629548Y-119467717D01*
X126633863Y-119425618D01*
X126636934Y-119403243D01*
X126642955Y-119374951D01*
X124924852Y-119374951D01*
X124641586Y-119374951D01*
X124633630Y-119369289D01*
X124628820Y-119365104D01*
X124589482Y-119314427D01*
X124573903Y-119261782D01*
X124914698Y-119261782D01*
X126329221Y-119261782D01*
X126541881Y-119261782D01*
X126598908Y-119261782D01*
X126615993Y-119261662D01*
X126641308Y-119259462D01*
X126648616Y-119252334D01*
X126642943Y-119237508D01*
X126641267Y-119234682D01*
X126622448Y-119212944D01*
X126595183Y-119188820D01*
X126567987Y-119169254D01*
X126549371Y-119161188D01*
X126547697Y-119162463D01*
X126543544Y-119179976D01*
X126541881Y-119211485D01*
X126541881Y-119261782D01*
X126329221Y-119261782D01*
X126325526Y-119171095D01*
X126321832Y-119080407D01*
X126246386Y-119065252D01*
X126208551Y-119058379D01*
X126145368Y-119048756D01*
X126086065Y-119041496D01*
X126001188Y-119032893D01*
X126001188Y-119136040D01*
X125422773Y-119136040D01*
X125422773Y-119045122D01*
X125350471Y-119053753D01*
X125239998Y-119072249D01*
X125128816Y-119105691D01*
X125036850Y-119152324D01*
X124962542Y-119212786D01*
X124914698Y-119261782D01*
X124573903Y-119261782D01*
X124572172Y-119255934D01*
X124577474Y-119194575D01*
X124605975Y-119135297D01*
X124608733Y-119131606D01*
X124646822Y-119099851D01*
X124696476Y-119081067D01*
X124750002Y-119076071D01*
X124799707Y-119085678D01*
X124837900Y-119110704D01*
X124850831Y-119123480D01*
X124863428Y-119126576D01*
X124881467Y-119116998D01*
X124911928Y-119093082D01*
X124921274Y-119085731D01*
X124993430Y-119039339D01*
X125078915Y-118998084D01*
X125148830Y-118972575D01*
X125523367Y-118972575D01*
X125523367Y-119035446D01*
X125900594Y-119035446D01*
X125900594Y-118972575D01*
X125523367Y-118972575D01*
X125148830Y-118972575D01*
X125169767Y-118964936D01*
X125258027Y-118942868D01*
X125335736Y-118934852D01*
X125343991Y-118934788D01*
X125389879Y-118930321D01*
X125415079Y-118917795D01*
X125422773Y-118895784D01*
X125423676Y-118888849D01*
X125428615Y-118882885D01*
X125440611Y-118878519D01*
X125462680Y-118875503D01*
X125497836Y-118873590D01*
X125549094Y-118872530D01*
X125619471Y-118872077D01*
X125711980Y-118871980D01*
X125798660Y-118872150D01*
X125872332Y-118872834D01*
X125926265Y-118874215D01*
X125963288Y-118876470D01*
X125986230Y-118879778D01*
X125997920Y-118884320D01*
X126001188Y-118890272D01*
X126011937Y-118904888D01*
X126042055Y-118914215D01*
X126053582Y-118915847D01*
X126092886Y-118921591D01*
X126145188Y-118929378D01*
X126202376Y-118938003D01*
X126233916Y-118942393D01*
X126280074Y-118947148D01*
X126312641Y-118948295D01*
X126326023Y-118945495D01*
X126328308Y-118943671D01*
X126349405Y-118939165D01*
X126387355Y-118936029D01*
X126436048Y-118934852D01*
X126541881Y-118934852D01*
X126541894Y-118972575D01*
X126541894Y-118975718D01*
X126542388Y-118988668D01*
X126548819Y-119010411D01*
X126567123Y-119028851D01*
X126602830Y-119050801D01*
X126634174Y-119070854D01*
X126681893Y-119109356D01*
X126725138Y-119152579D01*
X126758219Y-119194627D01*
X126775442Y-119229604D01*
X126779662Y-119243081D01*
X126787480Y-119252334D01*
X126790116Y-119255454D01*
X126811662Y-119260696D01*
G37*
X126811662Y-119260696D02*
X126851314Y-119261782D01*
X126919109Y-119261782D01*
X126919109Y-119374951D01*
X126759577Y-119374951D01*
X126744682Y-119552732D01*
X126742682Y-119577037D01*
X126738023Y-119637880D01*
X126734731Y-119687389D01*
X126733092Y-119720992D01*
X126733390Y-119734116D01*
X126737724Y-119730343D01*
X126757496Y-119710676D01*
X126791679Y-119675818D01*
X126838541Y-119627576D01*
X126896354Y-119567757D01*
X126963387Y-119498167D01*
X127037912Y-119420615D01*
X127118197Y-119336907D01*
X127202513Y-119248849D01*
X127289130Y-119158250D01*
X127376319Y-119066915D01*
X127462349Y-118976653D01*
X127545492Y-118889269D01*
X127624016Y-118806572D01*
X127696192Y-118730368D01*
X127760291Y-118662463D01*
X127814583Y-118604666D01*
X127911592Y-118501040D01*
X127912034Y-118589315D01*
X127912475Y-118677589D01*
X127311938Y-119309158D01*
X126711401Y-119940726D01*
X126699396Y-120084674D01*
X126651365Y-120660635D01*
X126642876Y-120762791D01*
X126632343Y-120890612D01*
X126622621Y-121009767D01*
X126613898Y-121117914D01*
X126606358Y-121212713D01*
X126600187Y-121291819D01*
X126595573Y-121352892D01*
X126592700Y-121393590D01*
X126591754Y-121411570D01*
X126594251Y-121419808D01*
X126605471Y-121437599D01*
X126626751Y-121464411D01*
X126637021Y-121476129D01*
X126659225Y-121501466D01*
X126704023Y-121549986D01*
X126762281Y-121611192D01*
X126835129Y-121686307D01*
X126923703Y-121776550D01*
X127029134Y-121883145D01*
X127098492Y-121953093D01*
X127195179Y-122050658D01*
X127291526Y-122147941D01*
X127384638Y-122242014D01*
X127471618Y-122329950D01*
X127549569Y-122408820D01*
X127615596Y-122475699D01*
X127666802Y-122527658D01*
X127867514Y-122731620D01*
X127831058Y-122769671D01*
X127822460Y-122778245D01*
X127797095Y-122799297D01*
X127779695Y-122807723D01*
X127766071Y-122800530D01*
X127740743Y-122778944D01*
X127710379Y-122747995D01*
X127691896Y-122728448D01*
X127657427Y-122692752D01*
X127608712Y-122642684D01*
X127547469Y-122580001D01*
X127475420Y-122506457D01*
X127394285Y-122423810D01*
X127305784Y-122333815D01*
X127211637Y-122238228D01*
X127113565Y-122138805D01*
X126571161Y-121589343D01*
X126549066Y-121874746D01*
X126544250Y-121935662D01*
X126537216Y-122017548D01*
X126530872Y-122079569D01*
X126524748Y-122124987D01*
X126518373Y-122157062D01*
X126511277Y-122179052D01*
X126502991Y-122194219D01*
X126491393Y-122215416D01*
X126481850Y-122254386D01*
X126479010Y-122310531D01*
X126479010Y-122392773D01*
X126252674Y-122392773D01*
X126252674Y-122216733D01*
X125407082Y-122216733D01*
X125358203Y-122272262D01*
X125344836Y-122286722D01*
X125272388Y-122344813D01*
X125190532Y-122380576D01*
X125101900Y-122392773D01*
X125023692Y-122386306D01*
X124935233Y-122359047D01*
X124859507Y-122310328D01*
X124844748Y-122296403D01*
X124807864Y-122251328D01*
X124775503Y-122198819D01*
X124752297Y-122147061D01*
X124742879Y-122104239D01*
X124742697Y-122098023D01*
X124741342Y-122075246D01*
X124737800Y-122059513D01*
X124730390Y-122052068D01*
X124717431Y-122054156D01*
X124697243Y-122067020D01*
X124668145Y-122091905D01*
X124628456Y-122130053D01*
X124576496Y-122182710D01*
X124510584Y-122251119D01*
X124429040Y-122336524D01*
X124385604Y-122382112D01*
X124313000Y-122458441D01*
X124244309Y-122530808D01*
X124182223Y-122596366D01*
X124129434Y-122652274D01*
X124088634Y-122695686D01*
X124062515Y-122723758D01*
X123991119Y-122801436D01*
X123902863Y-122713416D01*
X124448690Y-122141287D01*
X124483105Y-122105188D01*
X124605546Y-121976272D01*
X124710651Y-121864754D01*
X124798736Y-121770288D01*
X124870116Y-121692529D01*
X124920588Y-121636174D01*
X125127247Y-121636174D01*
X125128872Y-121649434D01*
X125129156Y-121650819D01*
X125142698Y-121682228D01*
X125169748Y-121696863D01*
X125253129Y-121728063D01*
X125327418Y-121780038D01*
X125385846Y-121848791D01*
X125425890Y-121931315D01*
X125445026Y-122024606D01*
X125451364Y-122103565D01*
X126400838Y-122103565D01*
X126407458Y-122075273D01*
X126408629Y-122068329D01*
X126412268Y-122037281D01*
X126417234Y-121987081D01*
X126423157Y-121921727D01*
X126429669Y-121845219D01*
X126436401Y-121761555D01*
X126458724Y-121476129D01*
X126157826Y-121170565D01*
X126102636Y-121114704D01*
X126035109Y-121046888D01*
X125974529Y-120986643D01*
X125923021Y-120936052D01*
X125882710Y-120897200D01*
X125855722Y-120872170D01*
X125844182Y-120863046D01*
X125836444Y-120867405D01*
X125813395Y-120887241D01*
X125778709Y-120920375D01*
X125735487Y-120963820D01*
X125686832Y-121014587D01*
X125674140Y-121028051D01*
X125617229Y-121088275D01*
X125549414Y-121159864D01*
X125475800Y-121237437D01*
X125401493Y-121315611D01*
X125331599Y-121389005D01*
X125327401Y-121393409D01*
X125262420Y-121461785D01*
X125212836Y-121514732D01*
X125176688Y-121554767D01*
X125152016Y-121584411D01*
X125136858Y-121606181D01*
X125129256Y-121622595D01*
X125127247Y-121636174D01*
X124920588Y-121636174D01*
X124925105Y-121631131D01*
X124964019Y-121585748D01*
X124987173Y-121556035D01*
X124994882Y-121541644D01*
X124994883Y-121541559D01*
X124993825Y-121523624D01*
X124990737Y-121483421D01*
X124985858Y-121423687D01*
X124979432Y-121347158D01*
X124971700Y-121256569D01*
X124962905Y-121154657D01*
X124953287Y-121044159D01*
X124943091Y-120927811D01*
X124932556Y-120808348D01*
X124921926Y-120688507D01*
X124911442Y-120571025D01*
X124901346Y-120458637D01*
X124891881Y-120354081D01*
X124883288Y-120260091D01*
X124875809Y-120179405D01*
X124869687Y-120114759D01*
X124865162Y-120068888D01*
X124862478Y-120044530D01*
X124857067Y-120003732D01*
X124986253Y-120003732D01*
X124987908Y-120034653D01*
X124991549Y-120086653D01*
X124996995Y-120157487D01*
X125004063Y-120244911D01*
X125012570Y-120346681D01*
X125022335Y-120460552D01*
X125033174Y-120584279D01*
X125044907Y-120715618D01*
X125054079Y-120816908D01*
X125065566Y-120942526D01*
X125076322Y-121058762D01*
X125086131Y-121163380D01*
X125094781Y-121254140D01*
X125102057Y-121328804D01*
X125107746Y-121385134D01*
X125111634Y-121420891D01*
X125113506Y-121433837D01*
X125119188Y-121429826D01*
X125140020Y-121410138D01*
X125173872Y-121376322D01*
X125218412Y-121330837D01*
X125271310Y-121276146D01*
X125330236Y-121214710D01*
X125392858Y-121148990D01*
X125456848Y-121081449D01*
X125519874Y-121014547D01*
X125579606Y-120950746D01*
X125633713Y-120892507D01*
X125679865Y-120842292D01*
X125715733Y-120802563D01*
X125738984Y-120775780D01*
X125745778Y-120766477D01*
X125927601Y-120766477D01*
X126203305Y-121041968D01*
X126270726Y-121109224D01*
X126334267Y-121172162D01*
X126383490Y-121220100D01*
X126420196Y-121254594D01*
X126446190Y-121277199D01*
X126463276Y-121289471D01*
X126473256Y-121292966D01*
X126477935Y-121289238D01*
X126479116Y-121279844D01*
X126479873Y-121264749D01*
X126482601Y-121225883D01*
X126487108Y-121166895D01*
X126493179Y-121090473D01*
X126500596Y-120999305D01*
X126509142Y-120896080D01*
X126518602Y-120783483D01*
X126528758Y-120664205D01*
X126537723Y-120559077D01*
X126547066Y-120448351D01*
X126555443Y-120347814D01*
X126562653Y-120259943D01*
X126568496Y-120187215D01*
X126572769Y-120132110D01*
X126575273Y-120097104D01*
X126575805Y-120084674D01*
X126575384Y-120084908D01*
X126563509Y-120096350D01*
X126537130Y-120123198D01*
X126498570Y-120163018D01*
X126450153Y-120213372D01*
X126394203Y-120271828D01*
X126333042Y-120335948D01*
X126268995Y-120403298D01*
X126204385Y-120471443D01*
X126141535Y-120537948D01*
X126082768Y-120600377D01*
X126030409Y-120656295D01*
X125929533Y-120764406D01*
X125927601Y-120766477D01*
X125745778Y-120766477D01*
X125747290Y-120764406D01*
X125739148Y-120753383D01*
X125715478Y-120726999D01*
X125678478Y-120687527D01*
X125630350Y-120637191D01*
X125573296Y-120578217D01*
X125509520Y-120512830D01*
X125441222Y-120443255D01*
X125370605Y-120371716D01*
X125299871Y-120300438D01*
X125231222Y-120231647D01*
X125166861Y-120167566D01*
X125108989Y-120110422D01*
X125059810Y-120062439D01*
X125021524Y-120025841D01*
X124996334Y-120002854D01*
X124986442Y-119995703D01*
X124986253Y-120003732D01*
X124857067Y-120003732D01*
X124855390Y-119991089D01*
X124580297Y-119991089D01*
X124580140Y-119890495D01*
X124680891Y-119890495D01*
X124762624Y-119890495D01*
X124769895Y-119890489D01*
X124810950Y-119889613D01*
X124833277Y-119885867D01*
X124842529Y-119877270D01*
X124844357Y-119861840D01*
X124836306Y-119839159D01*
X124808730Y-119801428D01*
X124762624Y-119752179D01*
X124680891Y-119671172D01*
X124680891Y-119890495D01*
X124580140Y-119890495D01*
X124579968Y-119780471D01*
X124579639Y-119569852D01*
X124127914Y-119110891D01*
X123676189Y-118651931D01*
X123675570Y-118564848D01*
X123674951Y-118477767D01*
X124216769Y-119026952D01*
X124269137Y-119079998D01*
X124377803Y-119189772D01*
X124470709Y-119283114D01*
X124549055Y-119361173D01*
X124614043Y-119425097D01*
X124666872Y-119476035D01*
X124708743Y-119515135D01*
X124740855Y-119543548D01*
X124764410Y-119562420D01*
X124780608Y-119572901D01*
X124790649Y-119576139D01*
X124807579Y-119575158D01*
X124817084Y-119567996D01*
X124818723Y-119548401D01*
X124814782Y-119510124D01*
X124812065Y-119486025D01*
X124808284Y-119445744D01*
X124806760Y-119418961D01*
X124806015Y-119409728D01*
X124798746Y-119399839D01*
X124778668Y-119396562D01*
X124739689Y-119397992D01*
X124729737Y-119398553D01*
X124689898Y-119397921D01*
X124661560Y-119389167D01*
X124641586Y-119374951D01*
X124924852Y-119374951D01*
X124929013Y-119422104D01*
X124930935Y-119443498D01*
X124936924Y-119501909D01*
X124942826Y-119540381D01*
X124949727Y-119562912D01*
X124958712Y-119573498D01*
X124970870Y-119576139D01*
X124981801Y-119577937D01*
X124989050Y-119586530D01*
X124993100Y-119606505D01*
X124994863Y-119642450D01*
X124995248Y-119698952D01*
X124995248Y-119821766D01*
X125035447Y-119861840D01*
X125133565Y-119959654D01*
X125271881Y-120097542D01*
X125271881Y-119991089D01*
X126026337Y-119991089D01*
X126026337Y-120230000D01*
X125407831Y-120230000D01*
X125617592Y-120446906D01*
X125657770Y-120488334D01*
X125713328Y-120545200D01*
X125761570Y-120594082D01*
X125799971Y-120632441D01*
X125826003Y-120657741D01*
X125837140Y-120667442D01*
X125841373Y-120664767D01*
X125861224Y-120646782D01*
X125895451Y-120613481D01*
X125942227Y-120566712D01*
X125999724Y-120508325D01*
X126066112Y-120440169D01*
X126139564Y-120364094D01*
X126218251Y-120281950D01*
X126297341Y-120198943D01*
X126374871Y-120117136D01*
X126437746Y-120050083D01*
X126487502Y-119996007D01*
X126525678Y-119953129D01*
X126553811Y-119919673D01*
X126573440Y-119893861D01*
X126586101Y-119873914D01*
X126593334Y-119858056D01*
X126596675Y-119844509D01*
X126597561Y-119837910D01*
X126601488Y-119801548D01*
X126606459Y-119748018D01*
X126611927Y-119683421D01*
X126617344Y-119613862D01*
X126619181Y-119589635D01*
X126624488Y-119524178D01*
X126629548Y-119467717D01*
X126633863Y-119425618D01*
X126636934Y-119403243D01*
X126642955Y-119374951D01*
X124924852Y-119374951D01*
X124641586Y-119374951D01*
X124633630Y-119369289D01*
X124628820Y-119365104D01*
X124589482Y-119314427D01*
X124573903Y-119261782D01*
X124914698Y-119261782D01*
X126329221Y-119261782D01*
X126541881Y-119261782D01*
X126598908Y-119261782D01*
X126615993Y-119261662D01*
X126641308Y-119259462D01*
X126648616Y-119252334D01*
X126642943Y-119237508D01*
X126641267Y-119234682D01*
X126622448Y-119212944D01*
X126595183Y-119188820D01*
X126567987Y-119169254D01*
X126549371Y-119161188D01*
X126547697Y-119162463D01*
X126543544Y-119179976D01*
X126541881Y-119211485D01*
X126541881Y-119261782D01*
X126329221Y-119261782D01*
X126325526Y-119171095D01*
X126321832Y-119080407D01*
X126246386Y-119065252D01*
X126208551Y-119058379D01*
X126145368Y-119048756D01*
X126086065Y-119041496D01*
X126001188Y-119032893D01*
X126001188Y-119136040D01*
X125422773Y-119136040D01*
X125422773Y-119045122D01*
X125350471Y-119053753D01*
X125239998Y-119072249D01*
X125128816Y-119105691D01*
X125036850Y-119152324D01*
X124962542Y-119212786D01*
X124914698Y-119261782D01*
X124573903Y-119261782D01*
X124572172Y-119255934D01*
X124577474Y-119194575D01*
X124605975Y-119135297D01*
X124608733Y-119131606D01*
X124646822Y-119099851D01*
X124696476Y-119081067D01*
X124750002Y-119076071D01*
X124799707Y-119085678D01*
X124837900Y-119110704D01*
X124850831Y-119123480D01*
X124863428Y-119126576D01*
X124881467Y-119116998D01*
X124911928Y-119093082D01*
X124921274Y-119085731D01*
X124993430Y-119039339D01*
X125078915Y-118998084D01*
X125148830Y-118972575D01*
X125523367Y-118972575D01*
X125523367Y-119035446D01*
X125900594Y-119035446D01*
X125900594Y-118972575D01*
X125523367Y-118972575D01*
X125148830Y-118972575D01*
X125169767Y-118964936D01*
X125258027Y-118942868D01*
X125335736Y-118934852D01*
X125343991Y-118934788D01*
X125389879Y-118930321D01*
X125415079Y-118917795D01*
X125422773Y-118895784D01*
X125423676Y-118888849D01*
X125428615Y-118882885D01*
X125440611Y-118878519D01*
X125462680Y-118875503D01*
X125497836Y-118873590D01*
X125549094Y-118872530D01*
X125619471Y-118872077D01*
X125711980Y-118871980D01*
X125798660Y-118872150D01*
X125872332Y-118872834D01*
X125926265Y-118874215D01*
X125963288Y-118876470D01*
X125986230Y-118879778D01*
X125997920Y-118884320D01*
X126001188Y-118890272D01*
X126011937Y-118904888D01*
X126042055Y-118914215D01*
X126053582Y-118915847D01*
X126092886Y-118921591D01*
X126145188Y-118929378D01*
X126202376Y-118938003D01*
X126233916Y-118942393D01*
X126280074Y-118947148D01*
X126312641Y-118948295D01*
X126326023Y-118945495D01*
X126328308Y-118943671D01*
X126349405Y-118939165D01*
X126387355Y-118936029D01*
X126436048Y-118934852D01*
X126541881Y-118934852D01*
X126541894Y-118972575D01*
X126541894Y-118975718D01*
X126542388Y-118988668D01*
X126548819Y-119010411D01*
X126567123Y-119028851D01*
X126602830Y-119050801D01*
X126634174Y-119070854D01*
X126681893Y-119109356D01*
X126725138Y-119152579D01*
X126758219Y-119194627D01*
X126775442Y-119229604D01*
X126779662Y-119243081D01*
X126787480Y-119252334D01*
X126790116Y-119255454D01*
X126811662Y-119260696D01*
G36*
X139782829Y-111351097D02*
G01*
X139842753Y-111373355D01*
X139867673Y-111390080D01*
X139892910Y-111414043D01*
X139910912Y-111444526D01*
X139922858Y-111486023D01*
X139929930Y-111543032D01*
X139933308Y-111620047D01*
X139934171Y-111721565D01*
X139934002Y-111774027D01*
X139933153Y-111845715D01*
X139931711Y-111902925D01*
X139929814Y-111940809D01*
X139927597Y-111954514D01*
X139913172Y-111949981D01*
X139884054Y-111937670D01*
X139883181Y-111937272D01*
X139868060Y-111929356D01*
X139857891Y-111918495D01*
X139851691Y-111899471D01*
X139848478Y-111867069D01*
X139847270Y-111816071D01*
X139847086Y-111741261D01*
X139846714Y-111693804D01*
X139842750Y-111604615D01*
X139833673Y-111539287D01*
X139818524Y-111494393D01*
X139796345Y-111466507D01*
X139766175Y-111452203D01*
X139761990Y-111451206D01*
X139705480Y-111450427D01*
X139661410Y-111475744D01*
X139630972Y-111526502D01*
X139625544Y-111541175D01*
X139613171Y-111573649D01*
X139606905Y-111588572D01*
X139594036Y-111586516D01*
X139565933Y-111575357D01*
X139539721Y-111556927D01*
X139527771Y-111522098D01*
X139531336Y-111497151D01*
X139553235Y-111446547D01*
X139588644Y-111399128D01*
X139630052Y-111366334D01*
X139647400Y-111358752D01*
X139713089Y-111346076D01*
X139782829Y-111351097D01*
G37*
X139782829Y-111351097D02*
X139842753Y-111373355D01*
X139867673Y-111390080D01*
X139892910Y-111414043D01*
X139910912Y-111444526D01*
X139922858Y-111486023D01*
X139929930Y-111543032D01*
X139933308Y-111620047D01*
X139934171Y-111721565D01*
X139934002Y-111774027D01*
X139933153Y-111845715D01*
X139931711Y-111902925D01*
X139929814Y-111940809D01*
X139927597Y-111954514D01*
X139913172Y-111949981D01*
X139884054Y-111937670D01*
X139883181Y-111937272D01*
X139868060Y-111929356D01*
X139857891Y-111918495D01*
X139851691Y-111899471D01*
X139848478Y-111867069D01*
X139847270Y-111816071D01*
X139847086Y-111741261D01*
X139846714Y-111693804D01*
X139842750Y-111604615D01*
X139833673Y-111539287D01*
X139818524Y-111494393D01*
X139796345Y-111466507D01*
X139766175Y-111452203D01*
X139761990Y-111451206D01*
X139705480Y-111450427D01*
X139661410Y-111475744D01*
X139630972Y-111526502D01*
X139625544Y-111541175D01*
X139613171Y-111573649D01*
X139606905Y-111588572D01*
X139594036Y-111586516D01*
X139565933Y-111575357D01*
X139539721Y-111556927D01*
X139527771Y-111522098D01*
X139531336Y-111497151D01*
X139553235Y-111446547D01*
X139588644Y-111399128D01*
X139630052Y-111366334D01*
X139647400Y-111358752D01*
X139713089Y-111346076D01*
X139782829Y-111351097D01*
G36*
X142413933Y-106642371D02*
G01*
X142489856Y-106642865D01*
X142544491Y-106644135D01*
X142581500Y-106646547D01*
X142604547Y-106650467D01*
X142617296Y-106656262D01*
X142623411Y-106664299D01*
X142626556Y-106674943D01*
X142626646Y-106675325D01*
X142631814Y-106700347D01*
X142641209Y-106748681D01*
X142653867Y-106815260D01*
X142668825Y-106895014D01*
X142685119Y-106982875D01*
X142686448Y-106990064D01*
X142702691Y-107075340D01*
X142717805Y-107150242D01*
X142730808Y-107210219D01*
X142740715Y-107250717D01*
X142746544Y-107267184D01*
X142746575Y-107267210D01*
X142764943Y-107276320D01*
X142802640Y-107291457D01*
X142851543Y-107309358D01*
X142854297Y-107310330D01*
X142916817Y-107333959D01*
X142989543Y-107363595D01*
X143057294Y-107393062D01*
X143168703Y-107443626D01*
X143415399Y-107275160D01*
X143432775Y-107263311D01*
X143507202Y-107212947D01*
X143573614Y-107168612D01*
X143628039Y-107132916D01*
X143666506Y-107108471D01*
X143685042Y-107097889D01*
X143697743Y-107100315D01*
X143726579Y-107119110D01*
X143771143Y-107156330D01*
X143832670Y-107213020D01*
X143912398Y-107290227D01*
X143919532Y-107297255D01*
X143982796Y-107360222D01*
X144038990Y-107417268D01*
X144084677Y-107464817D01*
X144116414Y-107499297D01*
X144130764Y-107517131D01*
X144130810Y-107517217D01*
X144132633Y-107530795D01*
X144125910Y-107552820D01*
X144108946Y-107586304D01*
X144080044Y-107634261D01*
X144037508Y-107699704D01*
X143979644Y-107785645D01*
X143969783Y-107800151D01*
X143919913Y-107873635D01*
X143875905Y-107938687D01*
X143840380Y-107991417D01*
X143815959Y-108027936D01*
X143805264Y-108044356D01*
X143804458Y-108047834D01*
X143809518Y-108073785D01*
X143824677Y-108116159D01*
X143847463Y-108167728D01*
X143878429Y-108235170D01*
X143913004Y-108315195D01*
X143942366Y-108387629D01*
X143949645Y-108406377D01*
X143968710Y-108454246D01*
X143982715Y-108487596D01*
X143989041Y-108500114D01*
X143996025Y-108501050D01*
X144027413Y-108506461D01*
X144078787Y-108515806D01*
X144144802Y-108528069D01*
X144220113Y-108542232D01*
X144299375Y-108557280D01*
X144377243Y-108572195D01*
X144448370Y-108585961D01*
X144507412Y-108597562D01*
X144549022Y-108605980D01*
X144567857Y-108610199D01*
X144570980Y-108611389D01*
X144578591Y-108617805D01*
X144584254Y-108631465D01*
X144588251Y-108655999D01*
X144590866Y-108695038D01*
X144592384Y-108752213D01*
X144593086Y-108831154D01*
X144593257Y-108935492D01*
X144593257Y-109252799D01*
X144517057Y-109267839D01*
X144507840Y-109269642D01*
X144458891Y-109278980D01*
X144391205Y-109291669D01*
X144312478Y-109306273D01*
X144230400Y-109321355D01*
X144198078Y-109327422D01*
X144125855Y-109342181D01*
X144065666Y-109356137D01*
X144023040Y-109367952D01*
X144003510Y-109376287D01*
X143994660Y-109389905D01*
X143978548Y-109425938D01*
X143962065Y-109472572D01*
X143956263Y-109490034D01*
X143934906Y-109547358D01*
X143907359Y-109615201D01*
X143878107Y-109682355D01*
X143862463Y-109717430D01*
X143840174Y-109769822D01*
X143824857Y-109809058D01*
X143819162Y-109828563D01*
X143819478Y-109830036D01*
X143830281Y-109850729D01*
X143854638Y-109890665D01*
X143890081Y-109945972D01*
X143934136Y-110012781D01*
X143984332Y-110087220D01*
X144149501Y-110329623D01*
X143932503Y-110546983D01*
X143911516Y-110567899D01*
X143847342Y-110630505D01*
X143789990Y-110684495D01*
X143742820Y-110726826D01*
X143709192Y-110754457D01*
X143692467Y-110764343D01*
X143674303Y-110756821D01*
X143636265Y-110735227D01*
X143582726Y-110702151D01*
X143517884Y-110660191D01*
X143445940Y-110611943D01*
X143375275Y-110564291D01*
X143311526Y-110522328D01*
X143259513Y-110489165D01*
X143223279Y-110467378D01*
X143206867Y-110459543D01*
X143205905Y-110459614D01*
X143184103Y-110467338D01*
X143145440Y-110485323D01*
X143097612Y-110510013D01*
X143097110Y-110510284D01*
X143033587Y-110542099D01*
X142990060Y-110557642D01*
X142963052Y-110557685D01*
X142949090Y-110543000D01*
X142943180Y-110528544D01*
X142927229Y-110489831D01*
X142902660Y-110430316D01*
X142870779Y-110353165D01*
X142832893Y-110261541D01*
X142790310Y-110158607D01*
X142744337Y-110047526D01*
X142702667Y-109946472D01*
X142660268Y-109842780D01*
X142622756Y-109750119D01*
X142591388Y-109671642D01*
X142567425Y-109610500D01*
X142552123Y-109569843D01*
X142546743Y-109552825D01*
X142557018Y-109537219D01*
X142585563Y-109511162D01*
X142625971Y-109480887D01*
X142722979Y-109401684D01*
X142809793Y-109300475D01*
X142873322Y-109189116D01*
X142913177Y-109070893D01*
X142928965Y-108949095D01*
X142920296Y-108827010D01*
X142886778Y-108707925D01*
X142828021Y-108595129D01*
X142743632Y-108491911D01*
X142699631Y-108451713D01*
X142594211Y-108380638D01*
X142481410Y-108334301D01*
X142364525Y-108311599D01*
X142246853Y-108311428D01*
X142131690Y-108332687D01*
X142022335Y-108374270D01*
X141922083Y-108435076D01*
X141834233Y-108514001D01*
X141762080Y-108609941D01*
X141708922Y-108721795D01*
X141678057Y-108848457D01*
X141672392Y-108909507D01*
X141680185Y-109041776D01*
X141715284Y-109167266D01*
X141776649Y-109283759D01*
X141863243Y-109389039D01*
X141974029Y-109480887D01*
X142012931Y-109509930D01*
X142042104Y-109536272D01*
X142053257Y-109552800D01*
X142048810Y-109567209D01*
X142034378Y-109605815D01*
X142011173Y-109665201D01*
X141980452Y-109742215D01*
X141943474Y-109833703D01*
X141901496Y-109936516D01*
X141855778Y-110047502D01*
X141814178Y-110148072D01*
X141771222Y-110251947D01*
X141732829Y-110344819D01*
X141700305Y-110423525D01*
X141674958Y-110484899D01*
X141658095Y-110525779D01*
X141651025Y-110543000D01*
X141650943Y-110543204D01*
X141636798Y-110557745D01*
X141609659Y-110557579D01*
X141566023Y-110541927D01*
X141502388Y-110510013D01*
X141497379Y-110507326D01*
X141450125Y-110483150D01*
X141412811Y-110466037D01*
X141393133Y-110459543D01*
X141377005Y-110467218D01*
X141340959Y-110488871D01*
X141289092Y-110521928D01*
X141225445Y-110563810D01*
X141154060Y-110611943D01*
X141083724Y-110659131D01*
X141018670Y-110701267D01*
X140964820Y-110734578D01*
X140926374Y-110756469D01*
X140907534Y-110764343D01*
X140904325Y-110763343D01*
X140881954Y-110747584D01*
X140843733Y-110715033D01*
X140793021Y-110668733D01*
X140733181Y-110611726D01*
X140667571Y-110547058D01*
X140450648Y-110329772D01*
X140619601Y-110081253D01*
X140788553Y-109832733D01*
X140737183Y-109721595D01*
X140737031Y-109721266D01*
X140706183Y-109650418D01*
X140674661Y-109571523D01*
X140649266Y-109501600D01*
X140645423Y-109490322D01*
X140626047Y-109437967D01*
X140608574Y-109397283D01*
X140596388Y-109376287D01*
X140591426Y-109373322D01*
X140561634Y-109363375D01*
X140511047Y-109350505D01*
X140445194Y-109336053D01*
X140369600Y-109321355D01*
X140346957Y-109317210D01*
X140265038Y-109302116D01*
X140188600Y-109287899D01*
X140125337Y-109275995D01*
X140082943Y-109267839D01*
X140006743Y-109252799D01*
X140006743Y-108935492D01*
X140006760Y-108896476D01*
X140007082Y-108801292D01*
X140008033Y-108730255D01*
X140009896Y-108679734D01*
X140012955Y-108646098D01*
X140017494Y-108625718D01*
X140023795Y-108614962D01*
X140032143Y-108610199D01*
X140040224Y-108608270D01*
X140073172Y-108601445D01*
X140125736Y-108591022D01*
X140192569Y-108578018D01*
X140268328Y-108563449D01*
X140347665Y-108548333D01*
X140425237Y-108533685D01*
X140495698Y-108520523D01*
X140553702Y-108509863D01*
X140593904Y-108502721D01*
X140610959Y-108500114D01*
X140612112Y-108498541D01*
X140621385Y-108478119D01*
X140637432Y-108439045D01*
X140657635Y-108387629D01*
X140685672Y-108318353D01*
X140720186Y-108238290D01*
X140752538Y-108167728D01*
X140759952Y-108151889D01*
X140780755Y-108102293D01*
X140793219Y-108064038D01*
X140794863Y-108044356D01*
X140794015Y-108042962D01*
X140780548Y-108022420D01*
X140753850Y-107982516D01*
X140716539Y-107927140D01*
X140671234Y-107860177D01*
X140620552Y-107785517D01*
X140563445Y-107700692D01*
X140520607Y-107634800D01*
X140491460Y-107586478D01*
X140474317Y-107552733D01*
X140467495Y-107530572D01*
X140469306Y-107517002D01*
X140469915Y-107515984D01*
X140486297Y-107496210D01*
X140519695Y-107460175D01*
X140566671Y-107411451D01*
X140623786Y-107353612D01*
X140687603Y-107290227D01*
X140753802Y-107225905D01*
X140818648Y-107165447D01*
X140866299Y-107124655D01*
X140897990Y-107102484D01*
X140914958Y-107097889D01*
X140917175Y-107098921D01*
X140940524Y-107112837D01*
X140982912Y-107140030D01*
X141040369Y-107177889D01*
X141108923Y-107223803D01*
X141184601Y-107275160D01*
X141431298Y-107443626D01*
X141542706Y-107393062D01*
X141545943Y-107391597D01*
X141614343Y-107361965D01*
X141686907Y-107332493D01*
X141748457Y-107309358D01*
X141748729Y-107309262D01*
X141797595Y-107291367D01*
X141835212Y-107276253D01*
X141853457Y-107267184D01*
X141853752Y-107266855D01*
X141859946Y-107248282D01*
X141870139Y-107206045D01*
X141883348Y-107144696D01*
X141898590Y-107068789D01*
X141914881Y-106982875D01*
X141915449Y-106979796D01*
X141931713Y-106892128D01*
X141946608Y-106812741D01*
X141959171Y-106746701D01*
X141968438Y-106699079D01*
X141973444Y-106674943D01*
X141973764Y-106673605D01*
X141977060Y-106663273D01*
X141983738Y-106655506D01*
X141997462Y-106649940D01*
X142021895Y-106646207D01*
X142060702Y-106643942D01*
X142117546Y-106642778D01*
X142196090Y-106642348D01*
X142300000Y-106642286D01*
X142313056Y-106642286D01*
X142413933Y-106642371D01*
G37*
X142413933Y-106642371D02*
X142489856Y-106642865D01*
X142544491Y-106644135D01*
X142581500Y-106646547D01*
X142604547Y-106650467D01*
X142617296Y-106656262D01*
X142623411Y-106664299D01*
X142626556Y-106674943D01*
X142626646Y-106675325D01*
X142631814Y-106700347D01*
X142641209Y-106748681D01*
X142653867Y-106815260D01*
X142668825Y-106895014D01*
X142685119Y-106982875D01*
X142686448Y-106990064D01*
X142702691Y-107075340D01*
X142717805Y-107150242D01*
X142730808Y-107210219D01*
X142740715Y-107250717D01*
X142746544Y-107267184D01*
X142746575Y-107267210D01*
X142764943Y-107276320D01*
X142802640Y-107291457D01*
X142851543Y-107309358D01*
X142854297Y-107310330D01*
X142916817Y-107333959D01*
X142989543Y-107363595D01*
X143057294Y-107393062D01*
X143168703Y-107443626D01*
X143415399Y-107275160D01*
X143432775Y-107263311D01*
X143507202Y-107212947D01*
X143573614Y-107168612D01*
X143628039Y-107132916D01*
X143666506Y-107108471D01*
X143685042Y-107097889D01*
X143697743Y-107100315D01*
X143726579Y-107119110D01*
X143771143Y-107156330D01*
X143832670Y-107213020D01*
X143912398Y-107290227D01*
X143919532Y-107297255D01*
X143982796Y-107360222D01*
X144038990Y-107417268D01*
X144084677Y-107464817D01*
X144116414Y-107499297D01*
X144130764Y-107517131D01*
X144130810Y-107517217D01*
X144132633Y-107530795D01*
X144125910Y-107552820D01*
X144108946Y-107586304D01*
X144080044Y-107634261D01*
X144037508Y-107699704D01*
X143979644Y-107785645D01*
X143969783Y-107800151D01*
X143919913Y-107873635D01*
X143875905Y-107938687D01*
X143840380Y-107991417D01*
X143815959Y-108027936D01*
X143805264Y-108044356D01*
X143804458Y-108047834D01*
X143809518Y-108073785D01*
X143824677Y-108116159D01*
X143847463Y-108167728D01*
X143878429Y-108235170D01*
X143913004Y-108315195D01*
X143942366Y-108387629D01*
X143949645Y-108406377D01*
X143968710Y-108454246D01*
X143982715Y-108487596D01*
X143989041Y-108500114D01*
X143996025Y-108501050D01*
X144027413Y-108506461D01*
X144078787Y-108515806D01*
X144144802Y-108528069D01*
X144220113Y-108542232D01*
X144299375Y-108557280D01*
X144377243Y-108572195D01*
X144448370Y-108585961D01*
X144507412Y-108597562D01*
X144549022Y-108605980D01*
X144567857Y-108610199D01*
X144570980Y-108611389D01*
X144578591Y-108617805D01*
X144584254Y-108631465D01*
X144588251Y-108655999D01*
X144590866Y-108695038D01*
X144592384Y-108752213D01*
X144593086Y-108831154D01*
X144593257Y-108935492D01*
X144593257Y-109252799D01*
X144517057Y-109267839D01*
X144507840Y-109269642D01*
X144458891Y-109278980D01*
X144391205Y-109291669D01*
X144312478Y-109306273D01*
X144230400Y-109321355D01*
X144198078Y-109327422D01*
X144125855Y-109342181D01*
X144065666Y-109356137D01*
X144023040Y-109367952D01*
X144003510Y-109376287D01*
X143994660Y-109389905D01*
X143978548Y-109425938D01*
X143962065Y-109472572D01*
X143956263Y-109490034D01*
X143934906Y-109547358D01*
X143907359Y-109615201D01*
X143878107Y-109682355D01*
X143862463Y-109717430D01*
X143840174Y-109769822D01*
X143824857Y-109809058D01*
X143819162Y-109828563D01*
X143819478Y-109830036D01*
X143830281Y-109850729D01*
X143854638Y-109890665D01*
X143890081Y-109945972D01*
X143934136Y-110012781D01*
X143984332Y-110087220D01*
X144149501Y-110329623D01*
X143932503Y-110546983D01*
X143911516Y-110567899D01*
X143847342Y-110630505D01*
X143789990Y-110684495D01*
X143742820Y-110726826D01*
X143709192Y-110754457D01*
X143692467Y-110764343D01*
X143674303Y-110756821D01*
X143636265Y-110735227D01*
X143582726Y-110702151D01*
X143517884Y-110660191D01*
X143445940Y-110611943D01*
X143375275Y-110564291D01*
X143311526Y-110522328D01*
X143259513Y-110489165D01*
X143223279Y-110467378D01*
X143206867Y-110459543D01*
X143205905Y-110459614D01*
X143184103Y-110467338D01*
X143145440Y-110485323D01*
X143097612Y-110510013D01*
X143097110Y-110510284D01*
X143033587Y-110542099D01*
X142990060Y-110557642D01*
X142963052Y-110557685D01*
X142949090Y-110543000D01*
X142943180Y-110528544D01*
X142927229Y-110489831D01*
X142902660Y-110430316D01*
X142870779Y-110353165D01*
X142832893Y-110261541D01*
X142790310Y-110158607D01*
X142744337Y-110047526D01*
X142702667Y-109946472D01*
X142660268Y-109842780D01*
X142622756Y-109750119D01*
X142591388Y-109671642D01*
X142567425Y-109610500D01*
X142552123Y-109569843D01*
X142546743Y-109552825D01*
X142557018Y-109537219D01*
X142585563Y-109511162D01*
X142625971Y-109480887D01*
X142722979Y-109401684D01*
X142809793Y-109300475D01*
X142873322Y-109189116D01*
X142913177Y-109070893D01*
X142928965Y-108949095D01*
X142920296Y-108827010D01*
X142886778Y-108707925D01*
X142828021Y-108595129D01*
X142743632Y-108491911D01*
X142699631Y-108451713D01*
X142594211Y-108380638D01*
X142481410Y-108334301D01*
X142364525Y-108311599D01*
X142246853Y-108311428D01*
X142131690Y-108332687D01*
X142022335Y-108374270D01*
X141922083Y-108435076D01*
X141834233Y-108514001D01*
X141762080Y-108609941D01*
X141708922Y-108721795D01*
X141678057Y-108848457D01*
X141672392Y-108909507D01*
X141680185Y-109041776D01*
X141715284Y-109167266D01*
X141776649Y-109283759D01*
X141863243Y-109389039D01*
X141974029Y-109480887D01*
X142012931Y-109509930D01*
X142042104Y-109536272D01*
X142053257Y-109552800D01*
X142048810Y-109567209D01*
X142034378Y-109605815D01*
X142011173Y-109665201D01*
X141980452Y-109742215D01*
X141943474Y-109833703D01*
X141901496Y-109936516D01*
X141855778Y-110047502D01*
X141814178Y-110148072D01*
X141771222Y-110251947D01*
X141732829Y-110344819D01*
X141700305Y-110423525D01*
X141674958Y-110484899D01*
X141658095Y-110525779D01*
X141651025Y-110543000D01*
X141650943Y-110543204D01*
X141636798Y-110557745D01*
X141609659Y-110557579D01*
X141566023Y-110541927D01*
X141502388Y-110510013D01*
X141497379Y-110507326D01*
X141450125Y-110483150D01*
X141412811Y-110466037D01*
X141393133Y-110459543D01*
X141377005Y-110467218D01*
X141340959Y-110488871D01*
X141289092Y-110521928D01*
X141225445Y-110563810D01*
X141154060Y-110611943D01*
X141083724Y-110659131D01*
X141018670Y-110701267D01*
X140964820Y-110734578D01*
X140926374Y-110756469D01*
X140907534Y-110764343D01*
X140904325Y-110763343D01*
X140881954Y-110747584D01*
X140843733Y-110715033D01*
X140793021Y-110668733D01*
X140733181Y-110611726D01*
X140667571Y-110547058D01*
X140450648Y-110329772D01*
X140619601Y-110081253D01*
X140788553Y-109832733D01*
X140737183Y-109721595D01*
X140737031Y-109721266D01*
X140706183Y-109650418D01*
X140674661Y-109571523D01*
X140649266Y-109501600D01*
X140645423Y-109490322D01*
X140626047Y-109437967D01*
X140608574Y-109397283D01*
X140596388Y-109376287D01*
X140591426Y-109373322D01*
X140561634Y-109363375D01*
X140511047Y-109350505D01*
X140445194Y-109336053D01*
X140369600Y-109321355D01*
X140346957Y-109317210D01*
X140265038Y-109302116D01*
X140188600Y-109287899D01*
X140125337Y-109275995D01*
X140082943Y-109267839D01*
X140006743Y-109252799D01*
X140006743Y-108935492D01*
X140006760Y-108896476D01*
X140007082Y-108801292D01*
X140008033Y-108730255D01*
X140009896Y-108679734D01*
X140012955Y-108646098D01*
X140017494Y-108625718D01*
X140023795Y-108614962D01*
X140032143Y-108610199D01*
X140040224Y-108608270D01*
X140073172Y-108601445D01*
X140125736Y-108591022D01*
X140192569Y-108578018D01*
X140268328Y-108563449D01*
X140347665Y-108548333D01*
X140425237Y-108533685D01*
X140495698Y-108520523D01*
X140553702Y-108509863D01*
X140593904Y-108502721D01*
X140610959Y-108500114D01*
X140612112Y-108498541D01*
X140621385Y-108478119D01*
X140637432Y-108439045D01*
X140657635Y-108387629D01*
X140685672Y-108318353D01*
X140720186Y-108238290D01*
X140752538Y-108167728D01*
X140759952Y-108151889D01*
X140780755Y-108102293D01*
X140793219Y-108064038D01*
X140794863Y-108044356D01*
X140794015Y-108042962D01*
X140780548Y-108022420D01*
X140753850Y-107982516D01*
X140716539Y-107927140D01*
X140671234Y-107860177D01*
X140620552Y-107785517D01*
X140563445Y-107700692D01*
X140520607Y-107634800D01*
X140491460Y-107586478D01*
X140474317Y-107552733D01*
X140467495Y-107530572D01*
X140469306Y-107517002D01*
X140469915Y-107515984D01*
X140486297Y-107496210D01*
X140519695Y-107460175D01*
X140566671Y-107411451D01*
X140623786Y-107353612D01*
X140687603Y-107290227D01*
X140753802Y-107225905D01*
X140818648Y-107165447D01*
X140866299Y-107124655D01*
X140897990Y-107102484D01*
X140914958Y-107097889D01*
X140917175Y-107098921D01*
X140940524Y-107112837D01*
X140982912Y-107140030D01*
X141040369Y-107177889D01*
X141108923Y-107223803D01*
X141184601Y-107275160D01*
X141431298Y-107443626D01*
X141542706Y-107393062D01*
X141545943Y-107391597D01*
X141614343Y-107361965D01*
X141686907Y-107332493D01*
X141748457Y-107309358D01*
X141748729Y-107309262D01*
X141797595Y-107291367D01*
X141835212Y-107276253D01*
X141853457Y-107267184D01*
X141853752Y-107266855D01*
X141859946Y-107248282D01*
X141870139Y-107206045D01*
X141883348Y-107144696D01*
X141898590Y-107068789D01*
X141914881Y-106982875D01*
X141915449Y-106979796D01*
X141931713Y-106892128D01*
X141946608Y-106812741D01*
X141959171Y-106746701D01*
X141968438Y-106699079D01*
X141973444Y-106674943D01*
X141973764Y-106673605D01*
X141977060Y-106663273D01*
X141983738Y-106655506D01*
X141997462Y-106649940D01*
X142021895Y-106646207D01*
X142060702Y-106643942D01*
X142117546Y-106642778D01*
X142196090Y-106642348D01*
X142300000Y-106642286D01*
X142313056Y-106642286D01*
X142413933Y-106642371D01*
G36*
X144457684Y-111704078D02*
G01*
X144455078Y-111727387D01*
X144435660Y-111810352D01*
X144400573Y-111873448D01*
X144347212Y-111921808D01*
X144344196Y-111923804D01*
X144276362Y-111952185D01*
X144205535Y-111954711D01*
X144137289Y-111933097D01*
X144077196Y-111889062D01*
X144030829Y-111824322D01*
X144030050Y-111822761D01*
X144014643Y-111782558D01*
X144003357Y-111736866D01*
X143997370Y-111693972D01*
X143997861Y-111662160D01*
X144006007Y-111649714D01*
X144013244Y-111650471D01*
X144047851Y-111664235D01*
X144087078Y-111689546D01*
X144120448Y-111718845D01*
X144137483Y-111744572D01*
X144155192Y-111779471D01*
X144191485Y-111811212D01*
X144233630Y-111823886D01*
X144249077Y-111820221D01*
X144279569Y-111801774D01*
X144306128Y-111776166D01*
X144317486Y-111752934D01*
X144317482Y-111752848D01*
X144304596Y-111742179D01*
X144270241Y-111722933D01*
X144219593Y-111697813D01*
X144157829Y-111669524D01*
X144157489Y-111669374D01*
X144090388Y-111639498D01*
X144045411Y-111617973D01*
X144018145Y-111601437D01*
X144004178Y-111586531D01*
X143999097Y-111569893D01*
X143998490Y-111548162D01*
X144002712Y-111507013D01*
X144146000Y-111507013D01*
X144160791Y-111519949D01*
X144197644Y-111539333D01*
X144198725Y-111539881D01*
X144242205Y-111560587D01*
X144281102Y-111577105D01*
X144305778Y-111584093D01*
X144315676Y-111574753D01*
X144317486Y-111542748D01*
X144309966Y-111502915D01*
X144283897Y-111466717D01*
X144246154Y-111447950D01*
X144204077Y-111449845D01*
X144165005Y-111475632D01*
X144149647Y-111493451D01*
X144146000Y-111507013D01*
X144002712Y-111507013D01*
X144003833Y-111496086D01*
X144030251Y-111425335D01*
X144074473Y-111369735D01*
X144131697Y-111331239D01*
X144197120Y-111311797D01*
X144265937Y-111313359D01*
X144333347Y-111337878D01*
X144394544Y-111387302D01*
X144428450Y-111436212D01*
X144452806Y-111506027D01*
X144456767Y-111542748D01*
X144462299Y-111594055D01*
X144457684Y-111704078D01*
G37*
X144457684Y-111704078D02*
X144455078Y-111727387D01*
X144435660Y-111810352D01*
X144400573Y-111873448D01*
X144347212Y-111921808D01*
X144344196Y-111923804D01*
X144276362Y-111952185D01*
X144205535Y-111954711D01*
X144137289Y-111933097D01*
X144077196Y-111889062D01*
X144030829Y-111824322D01*
X144030050Y-111822761D01*
X144014643Y-111782558D01*
X144003357Y-111736866D01*
X143997370Y-111693972D01*
X143997861Y-111662160D01*
X144006007Y-111649714D01*
X144013244Y-111650471D01*
X144047851Y-111664235D01*
X144087078Y-111689546D01*
X144120448Y-111718845D01*
X144137483Y-111744572D01*
X144155192Y-111779471D01*
X144191485Y-111811212D01*
X144233630Y-111823886D01*
X144249077Y-111820221D01*
X144279569Y-111801774D01*
X144306128Y-111776166D01*
X144317486Y-111752934D01*
X144317482Y-111752848D01*
X144304596Y-111742179D01*
X144270241Y-111722933D01*
X144219593Y-111697813D01*
X144157829Y-111669524D01*
X144157489Y-111669374D01*
X144090388Y-111639498D01*
X144045411Y-111617973D01*
X144018145Y-111601437D01*
X144004178Y-111586531D01*
X143999097Y-111569893D01*
X143998490Y-111548162D01*
X144002712Y-111507013D01*
X144146000Y-111507013D01*
X144160791Y-111519949D01*
X144197644Y-111539333D01*
X144198725Y-111539881D01*
X144242205Y-111560587D01*
X144281102Y-111577105D01*
X144305778Y-111584093D01*
X144315676Y-111574753D01*
X144317486Y-111542748D01*
X144309966Y-111502915D01*
X144283897Y-111466717D01*
X144246154Y-111447950D01*
X144204077Y-111449845D01*
X144165005Y-111475632D01*
X144149647Y-111493451D01*
X144146000Y-111507013D01*
X144002712Y-111507013D01*
X144003833Y-111496086D01*
X144030251Y-111425335D01*
X144074473Y-111369735D01*
X144131697Y-111331239D01*
X144197120Y-111311797D01*
X144265937Y-111313359D01*
X144333347Y-111337878D01*
X144394544Y-111387302D01*
X144428450Y-111436212D01*
X144452806Y-111506027D01*
X144456767Y-111542748D01*
X144462299Y-111594055D01*
X144457684Y-111704078D01*
G36*
X145565701Y-111650935D02*
G01*
X145564914Y-111721119D01*
X145562210Y-111770022D01*
X145556606Y-111804178D01*
X145547119Y-111830124D01*
X145532768Y-111854397D01*
X145529237Y-111859433D01*
X145491878Y-111899143D01*
X145449311Y-111929092D01*
X145427452Y-111938810D01*
X145348908Y-111955020D01*
X145271231Y-111944535D01*
X145199645Y-111908707D01*
X145139374Y-111848887D01*
X145134286Y-111840873D01*
X145117730Y-111794342D01*
X145106573Y-111729552D01*
X145101160Y-111654727D01*
X145101768Y-111585513D01*
X145248248Y-111585513D01*
X145249402Y-111681399D01*
X145249866Y-111687569D01*
X145256629Y-111740478D01*
X145268671Y-111774029D01*
X145289005Y-111797016D01*
X145323097Y-111818548D01*
X145356814Y-111819680D01*
X145391543Y-111794857D01*
X145397584Y-111788325D01*
X145409417Y-111768779D01*
X145416404Y-111740386D01*
X145419727Y-111696430D01*
X145420571Y-111630192D01*
X145419125Y-111568150D01*
X145411907Y-111509042D01*
X145397006Y-111471686D01*
X145372636Y-111452152D01*
X145337008Y-111446514D01*
X145323440Y-111447635D01*
X145285430Y-111468194D01*
X145260312Y-111514299D01*
X145248248Y-111585513D01*
X145101768Y-111585513D01*
X145101833Y-111578096D01*
X145108937Y-111507882D01*
X145122815Y-111452312D01*
X145140649Y-111415301D01*
X145190855Y-111357733D01*
X145258885Y-111321962D01*
X145342158Y-111309665D01*
X145364398Y-111310331D01*
X145429891Y-111323947D01*
X145483687Y-111358249D01*
X145533057Y-111417338D01*
X145535995Y-111421722D01*
X145549287Y-111445299D01*
X145557932Y-111471949D01*
X145562904Y-111508159D01*
X145565174Y-111560413D01*
X145565678Y-111630192D01*
X145565714Y-111635200D01*
X145565701Y-111650935D01*
G37*
X145565701Y-111650935D02*
X145564914Y-111721119D01*
X145562210Y-111770022D01*
X145556606Y-111804178D01*
X145547119Y-111830124D01*
X145532768Y-111854397D01*
X145529237Y-111859433D01*
X145491878Y-111899143D01*
X145449311Y-111929092D01*
X145427452Y-111938810D01*
X145348908Y-111955020D01*
X145271231Y-111944535D01*
X145199645Y-111908707D01*
X145139374Y-111848887D01*
X145134286Y-111840873D01*
X145117730Y-111794342D01*
X145106573Y-111729552D01*
X145101160Y-111654727D01*
X145101768Y-111585513D01*
X145248248Y-111585513D01*
X145249402Y-111681399D01*
X145249866Y-111687569D01*
X145256629Y-111740478D01*
X145268671Y-111774029D01*
X145289005Y-111797016D01*
X145323097Y-111818548D01*
X145356814Y-111819680D01*
X145391543Y-111794857D01*
X145397584Y-111788325D01*
X145409417Y-111768779D01*
X145416404Y-111740386D01*
X145419727Y-111696430D01*
X145420571Y-111630192D01*
X145419125Y-111568150D01*
X145411907Y-111509042D01*
X145397006Y-111471686D01*
X145372636Y-111452152D01*
X145337008Y-111446514D01*
X145323440Y-111447635D01*
X145285430Y-111468194D01*
X145260312Y-111514299D01*
X145248248Y-111585513D01*
X145101768Y-111585513D01*
X145101833Y-111578096D01*
X145108937Y-111507882D01*
X145122815Y-111452312D01*
X145140649Y-111415301D01*
X145190855Y-111357733D01*
X145258885Y-111321962D01*
X145342158Y-111309665D01*
X145364398Y-111310331D01*
X145429891Y-111323947D01*
X145483687Y-111358249D01*
X145533057Y-111417338D01*
X145535995Y-111421722D01*
X145549287Y-111445299D01*
X145557932Y-111471949D01*
X145562904Y-111508159D01*
X145565174Y-111560413D01*
X145565678Y-111630192D01*
X145565714Y-111635200D01*
X145565701Y-111650935D01*
G36*
X139440307Y-111691305D02*
G01*
X139436762Y-111767521D01*
X139427483Y-111823294D01*
X139410375Y-111864613D01*
X139383344Y-111897467D01*
X139344292Y-111927846D01*
X139319445Y-111941660D01*
X139279615Y-111950965D01*
X139223665Y-111950230D01*
X139192385Y-111947283D01*
X139154653Y-111938283D01*
X139124494Y-111918720D01*
X139089408Y-111882267D01*
X139084720Y-111876943D01*
X139053177Y-111835969D01*
X139038128Y-111800283D01*
X139034286Y-111757966D01*
X139034286Y-111695779D01*
X139077742Y-111712182D01*
X139109424Y-111731356D01*
X139136962Y-111776347D01*
X139142711Y-111790752D01*
X139174855Y-111831546D01*
X139218611Y-111852081D01*
X139266254Y-111850235D01*
X139310057Y-111823886D01*
X139325111Y-111807455D01*
X139338763Y-111782667D01*
X139334493Y-111760144D01*
X139309916Y-111736964D01*
X139262651Y-111710202D01*
X139190314Y-111676934D01*
X139041543Y-111611816D01*
X139037595Y-111547308D01*
X139039079Y-111506220D01*
X139136010Y-111506220D01*
X139143368Y-111531657D01*
X139176848Y-111558814D01*
X139237614Y-111589714D01*
X139247669Y-111594190D01*
X139295751Y-111615017D01*
X139331726Y-111629665D01*
X139348444Y-111635200D01*
X139350977Y-111631126D01*
X139351993Y-111606247D01*
X139348369Y-111566257D01*
X139339242Y-111527152D01*
X139310773Y-111477884D01*
X139269678Y-111450122D01*
X139220590Y-111446364D01*
X139168144Y-111469109D01*
X139153609Y-111480481D01*
X139136010Y-111506220D01*
X139039079Y-111506220D01*
X139039338Y-111499064D01*
X139061281Y-111438096D01*
X139088979Y-111404497D01*
X139146405Y-111366966D01*
X139214527Y-111348006D01*
X139284947Y-111349507D01*
X139349267Y-111373355D01*
X139363426Y-111382513D01*
X139395904Y-111410849D01*
X139418116Y-111446695D01*
X139431804Y-111495384D01*
X139438715Y-111562249D01*
X139439628Y-111606247D01*
X139440590Y-111652622D01*
X139440307Y-111691305D01*
G37*
X139440307Y-111691305D02*
X139436762Y-111767521D01*
X139427483Y-111823294D01*
X139410375Y-111864613D01*
X139383344Y-111897467D01*
X139344292Y-111927846D01*
X139319445Y-111941660D01*
X139279615Y-111950965D01*
X139223665Y-111950230D01*
X139192385Y-111947283D01*
X139154653Y-111938283D01*
X139124494Y-111918720D01*
X139089408Y-111882267D01*
X139084720Y-111876943D01*
X139053177Y-111835969D01*
X139038128Y-111800283D01*
X139034286Y-111757966D01*
X139034286Y-111695779D01*
X139077742Y-111712182D01*
X139109424Y-111731356D01*
X139136962Y-111776347D01*
X139142711Y-111790752D01*
X139174855Y-111831546D01*
X139218611Y-111852081D01*
X139266254Y-111850235D01*
X139310057Y-111823886D01*
X139325111Y-111807455D01*
X139338763Y-111782667D01*
X139334493Y-111760144D01*
X139309916Y-111736964D01*
X139262651Y-111710202D01*
X139190314Y-111676934D01*
X139041543Y-111611816D01*
X139037595Y-111547308D01*
X139039079Y-111506220D01*
X139136010Y-111506220D01*
X139143368Y-111531657D01*
X139176848Y-111558814D01*
X139237614Y-111589714D01*
X139247669Y-111594190D01*
X139295751Y-111615017D01*
X139331726Y-111629665D01*
X139348444Y-111635200D01*
X139350977Y-111631126D01*
X139351993Y-111606247D01*
X139348369Y-111566257D01*
X139339242Y-111527152D01*
X139310773Y-111477884D01*
X139269678Y-111450122D01*
X139220590Y-111446364D01*
X139168144Y-111469109D01*
X139153609Y-111480481D01*
X139136010Y-111506220D01*
X139039079Y-111506220D01*
X139039338Y-111499064D01*
X139061281Y-111438096D01*
X139088979Y-111404497D01*
X139146405Y-111366966D01*
X139214527Y-111348006D01*
X139284947Y-111349507D01*
X139349267Y-111373355D01*
X139363426Y-111382513D01*
X139395904Y-111410849D01*
X139418116Y-111446695D01*
X139431804Y-111495384D01*
X139438715Y-111562249D01*
X139439628Y-111606247D01*
X139440590Y-111652622D01*
X139440307Y-111691305D01*
G36*
X142978543Y-111149444D02*
G01*
X143025714Y-111169342D01*
X143025714Y-111566509D01*
X143025519Y-111669498D01*
X143024998Y-111762141D01*
X143024199Y-111840700D01*
X143023172Y-111901439D01*
X143021963Y-111940623D01*
X143020623Y-111954514D01*
X143020099Y-111954468D01*
X143002287Y-111949420D01*
X142969823Y-111938580D01*
X142924114Y-111922646D01*
X142924114Y-111718173D01*
X142923824Y-111637832D01*
X142922474Y-111579562D01*
X142919369Y-111539909D01*
X142913812Y-111513618D01*
X142905107Y-111495436D01*
X142892556Y-111480107D01*
X142883999Y-111471955D01*
X142837728Y-111449375D01*
X142786728Y-111451375D01*
X142739993Y-111478073D01*
X142733189Y-111484698D01*
X142722293Y-111498456D01*
X142714836Y-111516642D01*
X142710169Y-111544177D01*
X142707642Y-111585981D01*
X142706602Y-111646973D01*
X142706400Y-111732073D01*
X142706303Y-111775234D01*
X142705674Y-111846224D01*
X142704556Y-111903076D01*
X142703063Y-111940828D01*
X142701309Y-111954514D01*
X142700785Y-111954468D01*
X142682973Y-111949420D01*
X142650509Y-111938580D01*
X142604800Y-111922646D01*
X142604823Y-111717237D01*
X142604857Y-111698951D01*
X142606778Y-111603626D01*
X142612678Y-111531543D01*
X142624001Y-111477813D01*
X142642187Y-111437549D01*
X142668679Y-111405861D01*
X142704918Y-111377861D01*
X142740263Y-111360333D01*
X142796773Y-111346785D01*
X142852356Y-111346015D01*
X142895086Y-111359195D01*
X142898298Y-111361015D01*
X142908205Y-111360820D01*
X142914975Y-111345572D01*
X142919861Y-111310613D01*
X142924114Y-111251289D01*
X142931371Y-111129547D01*
X142978543Y-111149444D01*
G37*
X142978543Y-111149444D02*
X143025714Y-111169342D01*
X143025714Y-111566509D01*
X143025519Y-111669498D01*
X143024998Y-111762141D01*
X143024199Y-111840700D01*
X143023172Y-111901439D01*
X143021963Y-111940623D01*
X143020623Y-111954514D01*
X143020099Y-111954468D01*
X143002287Y-111949420D01*
X142969823Y-111938580D01*
X142924114Y-111922646D01*
X142924114Y-111718173D01*
X142923824Y-111637832D01*
X142922474Y-111579562D01*
X142919369Y-111539909D01*
X142913812Y-111513618D01*
X142905107Y-111495436D01*
X142892556Y-111480107D01*
X142883999Y-111471955D01*
X142837728Y-111449375D01*
X142786728Y-111451375D01*
X142739993Y-111478073D01*
X142733189Y-111484698D01*
X142722293Y-111498456D01*
X142714836Y-111516642D01*
X142710169Y-111544177D01*
X142707642Y-111585981D01*
X142706602Y-111646973D01*
X142706400Y-111732073D01*
X142706303Y-111775234D01*
X142705674Y-111846224D01*
X142704556Y-111903076D01*
X142703063Y-111940828D01*
X142701309Y-111954514D01*
X142700785Y-111954468D01*
X142682973Y-111949420D01*
X142650509Y-111938580D01*
X142604800Y-111922646D01*
X142604823Y-111717237D01*
X142604857Y-111698951D01*
X142606778Y-111603626D01*
X142612678Y-111531543D01*
X142624001Y-111477813D01*
X142642187Y-111437549D01*
X142668679Y-111405861D01*
X142704918Y-111377861D01*
X142740263Y-111360333D01*
X142796773Y-111346785D01*
X142852356Y-111346015D01*
X142895086Y-111359195D01*
X142898298Y-111361015D01*
X142908205Y-111360820D01*
X142914975Y-111345572D01*
X142919861Y-111310613D01*
X142924114Y-111251289D01*
X142931371Y-111129547D01*
X142978543Y-111149444D01*
G36*
X141529537Y-111706313D02*
G01*
X141521345Y-111783462D01*
X141503519Y-111841276D01*
X141473975Y-111885422D01*
X141430625Y-111921568D01*
X141389332Y-111942463D01*
X141319987Y-111954090D01*
X141250736Y-111941377D01*
X141188145Y-111905945D01*
X141138779Y-111849418D01*
X141132818Y-111838995D01*
X141124945Y-111820733D01*
X141119106Y-111797429D01*
X141114999Y-111765085D01*
X141112325Y-111719704D01*
X141110781Y-111657287D01*
X141110734Y-111651748D01*
X141211429Y-111651748D01*
X141211772Y-111704577D01*
X141213942Y-111752362D01*
X141219307Y-111783209D01*
X141229217Y-111803935D01*
X141245021Y-111821356D01*
X141248724Y-111824705D01*
X141296299Y-111849419D01*
X141346635Y-111846890D01*
X141393517Y-111817288D01*
X141407477Y-111801953D01*
X141419160Y-111781622D01*
X141425686Y-111753514D01*
X141428524Y-111710550D01*
X141429143Y-111645647D01*
X141428837Y-111596122D01*
X141426722Y-111547782D01*
X141421390Y-111516587D01*
X141411460Y-111495647D01*
X141395550Y-111478073D01*
X141386204Y-111470159D01*
X141337776Y-111448843D01*
X141287040Y-111452198D01*
X141242987Y-111480107D01*
X141233504Y-111491173D01*
X141221939Y-111512009D01*
X141215252Y-111541106D01*
X141212173Y-111585381D01*
X141211429Y-111651748D01*
X141110734Y-111651748D01*
X141110067Y-111573837D01*
X141109883Y-111465358D01*
X141109829Y-111128601D01*
X141157000Y-111148362D01*
X141169472Y-111153770D01*
X141189324Y-111165985D01*
X141200687Y-111184482D01*
X141206933Y-111216829D01*
X141211429Y-111270593D01*
X141215535Y-111318866D01*
X141220963Y-111350557D01*
X141228739Y-111362383D01*
X141240457Y-111359212D01*
X141270318Y-111348067D01*
X141323684Y-111345304D01*
X141381093Y-111355625D01*
X141430625Y-111377861D01*
X141457876Y-111398443D01*
X141492865Y-111438600D01*
X141515274Y-111490086D01*
X141527190Y-111558568D01*
X141530542Y-111645647D01*
X141530698Y-111649714D01*
X141529537Y-111706313D01*
G37*
X141529537Y-111706313D02*
X141521345Y-111783462D01*
X141503519Y-111841276D01*
X141473975Y-111885422D01*
X141430625Y-111921568D01*
X141389332Y-111942463D01*
X141319987Y-111954090D01*
X141250736Y-111941377D01*
X141188145Y-111905945D01*
X141138779Y-111849418D01*
X141132818Y-111838995D01*
X141124945Y-111820733D01*
X141119106Y-111797429D01*
X141114999Y-111765085D01*
X141112325Y-111719704D01*
X141110781Y-111657287D01*
X141110734Y-111651748D01*
X141211429Y-111651748D01*
X141211772Y-111704577D01*
X141213942Y-111752362D01*
X141219307Y-111783209D01*
X141229217Y-111803935D01*
X141245021Y-111821356D01*
X141248724Y-111824705D01*
X141296299Y-111849419D01*
X141346635Y-111846890D01*
X141393517Y-111817288D01*
X141407477Y-111801953D01*
X141419160Y-111781622D01*
X141425686Y-111753514D01*
X141428524Y-111710550D01*
X141429143Y-111645647D01*
X141428837Y-111596122D01*
X141426722Y-111547782D01*
X141421390Y-111516587D01*
X141411460Y-111495647D01*
X141395550Y-111478073D01*
X141386204Y-111470159D01*
X141337776Y-111448843D01*
X141287040Y-111452198D01*
X141242987Y-111480107D01*
X141233504Y-111491173D01*
X141221939Y-111512009D01*
X141215252Y-111541106D01*
X141212173Y-111585381D01*
X141211429Y-111651748D01*
X141110734Y-111651748D01*
X141110067Y-111573837D01*
X141109883Y-111465358D01*
X141109829Y-111128601D01*
X141157000Y-111148362D01*
X141169472Y-111153770D01*
X141189324Y-111165985D01*
X141200687Y-111184482D01*
X141206933Y-111216829D01*
X141211429Y-111270593D01*
X141215535Y-111318866D01*
X141220963Y-111350557D01*
X141228739Y-111362383D01*
X141240457Y-111359212D01*
X141270318Y-111348067D01*
X141323684Y-111345304D01*
X141381093Y-111355625D01*
X141430625Y-111377861D01*
X141457876Y-111398443D01*
X141492865Y-111438600D01*
X141515274Y-111490086D01*
X141527190Y-111558568D01*
X141530542Y-111645647D01*
X141530698Y-111649714D01*
X141529537Y-111706313D01*
G36*
X140267495Y-111346220D02*
G01*
X140298599Y-111354121D01*
X140327559Y-111373817D01*
X140364831Y-111410484D01*
X140388801Y-111436378D01*
X140413770Y-111469997D01*
X140425031Y-111501506D01*
X140427657Y-111541485D01*
X140427657Y-111606917D01*
X140383035Y-111583842D01*
X140347673Y-111555724D01*
X140323451Y-111517848D01*
X140319291Y-111507551D01*
X140287594Y-111467637D01*
X140243554Y-111447624D01*
X140195531Y-111449572D01*
X140151886Y-111475543D01*
X140133420Y-111496635D01*
X140122663Y-111523619D01*
X140134178Y-111547634D01*
X140169981Y-111571791D01*
X140232090Y-111599199D01*
X140241515Y-111602985D01*
X140298058Y-111627759D01*
X140346580Y-111652189D01*
X140377451Y-111671486D01*
X140408371Y-111705953D01*
X140428927Y-111760957D01*
X140426744Y-111819983D01*
X140402424Y-111875845D01*
X140356568Y-111921355D01*
X140319438Y-111940727D01*
X140247711Y-111954292D01*
X140207852Y-111952462D01*
X140170953Y-111942568D01*
X140156797Y-111921806D01*
X140162091Y-111887613D01*
X140163631Y-111883092D01*
X140175842Y-111859116D01*
X140196174Y-111850042D01*
X140234908Y-111850649D01*
X140262257Y-111851474D01*
X140294257Y-111844392D01*
X140316182Y-111823219D01*
X140328670Y-111797152D01*
X140330062Y-111769845D01*
X140329998Y-111769685D01*
X140313807Y-111754930D01*
X140279155Y-111733457D01*
X140234321Y-111709458D01*
X140187582Y-111687125D01*
X140147217Y-111670652D01*
X140121504Y-111664229D01*
X140117679Y-111670518D01*
X140112864Y-111700115D01*
X140109566Y-111748447D01*
X140108343Y-111809372D01*
X140108058Y-111851542D01*
X140106718Y-111904653D01*
X140104528Y-111941025D01*
X140101769Y-111954514D01*
X140087344Y-111949981D01*
X140058226Y-111937670D01*
X140021257Y-111920826D01*
X140021257Y-111704721D01*
X140021493Y-111649327D01*
X140023729Y-111565207D01*
X140029423Y-111502800D01*
X140039903Y-111457358D01*
X140056497Y-111424133D01*
X140080531Y-111398378D01*
X140113333Y-111375344D01*
X140155124Y-111356335D01*
X140232287Y-111344914D01*
X140267495Y-111346220D01*
G37*
X140267495Y-111346220D02*
X140298599Y-111354121D01*
X140327559Y-111373817D01*
X140364831Y-111410484D01*
X140388801Y-111436378D01*
X140413770Y-111469997D01*
X140425031Y-111501506D01*
X140427657Y-111541485D01*
X140427657Y-111606917D01*
X140383035Y-111583842D01*
X140347673Y-111555724D01*
X140323451Y-111517848D01*
X140319291Y-111507551D01*
X140287594Y-111467637D01*
X140243554Y-111447624D01*
X140195531Y-111449572D01*
X140151886Y-111475543D01*
X140133420Y-111496635D01*
X140122663Y-111523619D01*
X140134178Y-111547634D01*
X140169981Y-111571791D01*
X140232090Y-111599199D01*
X140241515Y-111602985D01*
X140298058Y-111627759D01*
X140346580Y-111652189D01*
X140377451Y-111671486D01*
X140408371Y-111705953D01*
X140428927Y-111760957D01*
X140426744Y-111819983D01*
X140402424Y-111875845D01*
X140356568Y-111921355D01*
X140319438Y-111940727D01*
X140247711Y-111954292D01*
X140207852Y-111952462D01*
X140170953Y-111942568D01*
X140156797Y-111921806D01*
X140162091Y-111887613D01*
X140163631Y-111883092D01*
X140175842Y-111859116D01*
X140196174Y-111850042D01*
X140234908Y-111850649D01*
X140262257Y-111851474D01*
X140294257Y-111844392D01*
X140316182Y-111823219D01*
X140328670Y-111797152D01*
X140330062Y-111769845D01*
X140329998Y-111769685D01*
X140313807Y-111754930D01*
X140279155Y-111733457D01*
X140234321Y-111709458D01*
X140187582Y-111687125D01*
X140147217Y-111670652D01*
X140121504Y-111664229D01*
X140117679Y-111670518D01*
X140112864Y-111700115D01*
X140109566Y-111748447D01*
X140108343Y-111809372D01*
X140108058Y-111851542D01*
X140106718Y-111904653D01*
X140104528Y-111941025D01*
X140101769Y-111954514D01*
X140087344Y-111949981D01*
X140058226Y-111937670D01*
X140021257Y-111920826D01*
X140021257Y-111704721D01*
X140021493Y-111649327D01*
X140023729Y-111565207D01*
X140029423Y-111502800D01*
X140039903Y-111457358D01*
X140056497Y-111424133D01*
X140080531Y-111398378D01*
X140113333Y-111375344D01*
X140155124Y-111356335D01*
X140232287Y-111344914D01*
X140267495Y-111346220D01*
G36*
X145011252Y-111813000D02*
G01*
X145011651Y-111845339D01*
X145012929Y-111953455D01*
X145013185Y-112036186D01*
X145011634Y-112096426D01*
X145007490Y-112137073D01*
X144999964Y-112161023D01*
X144988271Y-112171171D01*
X144971624Y-112170414D01*
X144949236Y-112161648D01*
X144920321Y-112147769D01*
X144914142Y-112144808D01*
X144888413Y-112130311D01*
X144874976Y-112113065D01*
X144869834Y-112084308D01*
X144868990Y-112035283D01*
X144868952Y-111947257D01*
X144778276Y-111947257D01*
X144722498Y-111944815D01*
X144678640Y-111934908D01*
X144642218Y-111914886D01*
X144639503Y-111912929D01*
X144602546Y-111879869D01*
X144576826Y-111839931D01*
X144560606Y-111787657D01*
X144552148Y-111717588D01*
X144550083Y-111638430D01*
X144694857Y-111638430D01*
X144694882Y-111651697D01*
X144696261Y-111711584D01*
X144700687Y-111750732D01*
X144709461Y-111776153D01*
X144723886Y-111794857D01*
X144724784Y-111795750D01*
X144760237Y-111819952D01*
X144794596Y-111817567D01*
X144833403Y-111788260D01*
X144842895Y-111778244D01*
X144856876Y-111757708D01*
X144864760Y-111730997D01*
X144868245Y-111690499D01*
X144869029Y-111628603D01*
X144868350Y-111591130D01*
X144860983Y-111522980D01*
X144844168Y-111478330D01*
X144816234Y-111453926D01*
X144775509Y-111446514D01*
X144758350Y-111448094D01*
X144728660Y-111463766D01*
X144709031Y-111498691D01*
X144698188Y-111555901D01*
X144694857Y-111638430D01*
X144550083Y-111638430D01*
X144549714Y-111624267D01*
X144550253Y-111556169D01*
X144552707Y-111504587D01*
X144558158Y-111468816D01*
X144567686Y-111442015D01*
X144582371Y-111417338D01*
X144595852Y-111398480D01*
X144644799Y-111347568D01*
X144700256Y-111319918D01*
X144769928Y-111311165D01*
X144849664Y-111319890D01*
X144918595Y-111351185D01*
X144973113Y-111406381D01*
X144977223Y-111412224D01*
X144986808Y-111427753D01*
X144994151Y-111445498D01*
X144999612Y-111469290D01*
X145003550Y-111502958D01*
X145006323Y-111550333D01*
X145008292Y-111615245D01*
X145008528Y-111628603D01*
X145009815Y-111701524D01*
X145011252Y-111813000D01*
G37*
X145011252Y-111813000D02*
X145011651Y-111845339D01*
X145012929Y-111953455D01*
X145013185Y-112036186D01*
X145011634Y-112096426D01*
X145007490Y-112137073D01*
X144999964Y-112161023D01*
X144988271Y-112171171D01*
X144971624Y-112170414D01*
X144949236Y-112161648D01*
X144920321Y-112147769D01*
X144914142Y-112144808D01*
X144888413Y-112130311D01*
X144874976Y-112113065D01*
X144869834Y-112084308D01*
X144868990Y-112035283D01*
X144868952Y-111947257D01*
X144778276Y-111947257D01*
X144722498Y-111944815D01*
X144678640Y-111934908D01*
X144642218Y-111914886D01*
X144639503Y-111912929D01*
X144602546Y-111879869D01*
X144576826Y-111839931D01*
X144560606Y-111787657D01*
X144552148Y-111717588D01*
X144550083Y-111638430D01*
X144694857Y-111638430D01*
X144694882Y-111651697D01*
X144696261Y-111711584D01*
X144700687Y-111750732D01*
X144709461Y-111776153D01*
X144723886Y-111794857D01*
X144724784Y-111795750D01*
X144760237Y-111819952D01*
X144794596Y-111817567D01*
X144833403Y-111788260D01*
X144842895Y-111778244D01*
X144856876Y-111757708D01*
X144864760Y-111730997D01*
X144868245Y-111690499D01*
X144869029Y-111628603D01*
X144868350Y-111591130D01*
X144860983Y-111522980D01*
X144844168Y-111478330D01*
X144816234Y-111453926D01*
X144775509Y-111446514D01*
X144758350Y-111448094D01*
X144728660Y-111463766D01*
X144709031Y-111498691D01*
X144698188Y-111555901D01*
X144694857Y-111638430D01*
X144550083Y-111638430D01*
X144549714Y-111624267D01*
X144550253Y-111556169D01*
X144552707Y-111504587D01*
X144558158Y-111468816D01*
X144567686Y-111442015D01*
X144582371Y-111417338D01*
X144595852Y-111398480D01*
X144644799Y-111347568D01*
X144700256Y-111319918D01*
X144769928Y-111311165D01*
X144849664Y-111319890D01*
X144918595Y-111351185D01*
X144973113Y-111406381D01*
X144977223Y-111412224D01*
X144986808Y-111427753D01*
X144994151Y-111445498D01*
X144999612Y-111469290D01*
X145003550Y-111502958D01*
X145006323Y-111550333D01*
X145008292Y-111615245D01*
X145008528Y-111628603D01*
X145009815Y-111701524D01*
X145011252Y-111813000D01*
G36*
X142389483Y-111360569D02*
G01*
X142439376Y-111389661D01*
X142461325Y-111412327D01*
X142503504Y-111480082D01*
X142517714Y-111553950D01*
X142517714Y-111604770D01*
X142470999Y-111585128D01*
X142438692Y-111565308D01*
X142413231Y-111524160D01*
X142410616Y-111515675D01*
X142382478Y-111472451D01*
X142340067Y-111449103D01*
X142291370Y-111448100D01*
X142244373Y-111471914D01*
X142237357Y-111478056D01*
X142213893Y-111504745D01*
X142210019Y-111528014D01*
X142227768Y-111550862D01*
X142269179Y-111576287D01*
X142336286Y-111607288D01*
X142340824Y-111609252D01*
X142415322Y-111643990D01*
X142466203Y-111674763D01*
X142497525Y-111705488D01*
X142513343Y-111740082D01*
X142517714Y-111782462D01*
X142511986Y-111829446D01*
X142483062Y-111889585D01*
X142432178Y-111932788D01*
X142395374Y-111945759D01*
X142343434Y-111952856D01*
X142292999Y-111951340D01*
X142256983Y-111940632D01*
X142253158Y-111937966D01*
X142242998Y-111919337D01*
X142250048Y-111886505D01*
X142262297Y-111860735D01*
X142281939Y-111850006D01*
X142319191Y-111850539D01*
X142370908Y-111847462D01*
X142404701Y-111826212D01*
X142416114Y-111786877D01*
X142416104Y-111785747D01*
X142409187Y-111762913D01*
X142385659Y-111741963D01*
X142339914Y-111717815D01*
X142277704Y-111688741D01*
X142236499Y-111672925D01*
X142212712Y-111673944D01*
X142201597Y-111694837D01*
X142198408Y-111738641D01*
X142198400Y-111808393D01*
X142198044Y-111851452D01*
X142196413Y-111904626D01*
X142193761Y-111941022D01*
X142190422Y-111954514D01*
X142189530Y-111954423D01*
X142170237Y-111947110D01*
X142138284Y-111931678D01*
X142094124Y-111908842D01*
X142099371Y-111703078D01*
X142099736Y-111689432D01*
X142103904Y-111593651D01*
X142111268Y-111521462D01*
X142123330Y-111468058D01*
X142141593Y-111428633D01*
X142167560Y-111398380D01*
X142202733Y-111372493D01*
X142203384Y-111372087D01*
X142260256Y-111350968D01*
X142326033Y-111347400D01*
X142389483Y-111360569D01*
G37*
X142389483Y-111360569D02*
X142439376Y-111389661D01*
X142461325Y-111412327D01*
X142503504Y-111480082D01*
X142517714Y-111553950D01*
X142517714Y-111604770D01*
X142470999Y-111585128D01*
X142438692Y-111565308D01*
X142413231Y-111524160D01*
X142410616Y-111515675D01*
X142382478Y-111472451D01*
X142340067Y-111449103D01*
X142291370Y-111448100D01*
X142244373Y-111471914D01*
X142237357Y-111478056D01*
X142213893Y-111504745D01*
X142210019Y-111528014D01*
X142227768Y-111550862D01*
X142269179Y-111576287D01*
X142336286Y-111607288D01*
X142340824Y-111609252D01*
X142415322Y-111643990D01*
X142466203Y-111674763D01*
X142497525Y-111705488D01*
X142513343Y-111740082D01*
X142517714Y-111782462D01*
X142511986Y-111829446D01*
X142483062Y-111889585D01*
X142432178Y-111932788D01*
X142395374Y-111945759D01*
X142343434Y-111952856D01*
X142292999Y-111951340D01*
X142256983Y-111940632D01*
X142253158Y-111937966D01*
X142242998Y-111919337D01*
X142250048Y-111886505D01*
X142262297Y-111860735D01*
X142281939Y-111850006D01*
X142319191Y-111850539D01*
X142370908Y-111847462D01*
X142404701Y-111826212D01*
X142416114Y-111786877D01*
X142416104Y-111785747D01*
X142409187Y-111762913D01*
X142385659Y-111741963D01*
X142339914Y-111717815D01*
X142277704Y-111688741D01*
X142236499Y-111672925D01*
X142212712Y-111673944D01*
X142201597Y-111694837D01*
X142198408Y-111738641D01*
X142198400Y-111808393D01*
X142198044Y-111851452D01*
X142196413Y-111904626D01*
X142193761Y-111941022D01*
X142190422Y-111954514D01*
X142189530Y-111954423D01*
X142170237Y-111947110D01*
X142138284Y-111931678D01*
X142094124Y-111908842D01*
X142099371Y-111703078D01*
X142099736Y-111689432D01*
X142103904Y-111593651D01*
X142111268Y-111521462D01*
X142123330Y-111468058D01*
X142141593Y-111428633D01*
X142167560Y-111398380D01*
X142202733Y-111372493D01*
X142203384Y-111372087D01*
X142260256Y-111350968D01*
X142326033Y-111347400D01*
X142389483Y-111360569D01*
G36*
X141907691Y-111366467D02*
G01*
X141912273Y-111369003D01*
X141949704Y-111398057D01*
X141983170Y-111435410D01*
X141989007Y-111443852D01*
X142000165Y-111463553D01*
X142008136Y-111486935D01*
X142013618Y-111519067D01*
X142017307Y-111565019D01*
X142019899Y-111629859D01*
X142022092Y-111718657D01*
X142022402Y-111733669D01*
X142023400Y-111830999D01*
X142021994Y-111899934D01*
X142018164Y-111940948D01*
X142011889Y-111954514D01*
X141992898Y-111950452D01*
X141960638Y-111938144D01*
X141953041Y-111934545D01*
X141941176Y-111926398D01*
X141932994Y-111913004D01*
X141927643Y-111889608D01*
X141924269Y-111851455D01*
X141922019Y-111793790D01*
X141920040Y-111711857D01*
X141919498Y-111687907D01*
X141917403Y-111612266D01*
X141914683Y-111559328D01*
X141910515Y-111524075D01*
X141904079Y-111501487D01*
X141894550Y-111486544D01*
X141881106Y-111474227D01*
X141841305Y-111452634D01*
X141792341Y-111448476D01*
X141748529Y-111464999D01*
X141717008Y-111499210D01*
X141704914Y-111548114D01*
X141704578Y-111561407D01*
X141697972Y-111585472D01*
X141678470Y-111589144D01*
X141640283Y-111574813D01*
X141631438Y-111570217D01*
X141607534Y-111543186D01*
X141607061Y-111502994D01*
X141629836Y-111447409D01*
X141650727Y-111417117D01*
X141704142Y-111374084D01*
X141770074Y-111349755D01*
X141840574Y-111346443D01*
X141907691Y-111366467D01*
G37*
X141907691Y-111366467D02*
X141912273Y-111369003D01*
X141949704Y-111398057D01*
X141983170Y-111435410D01*
X141989007Y-111443852D01*
X142000165Y-111463553D01*
X142008136Y-111486935D01*
X142013618Y-111519067D01*
X142017307Y-111565019D01*
X142019899Y-111629859D01*
X142022092Y-111718657D01*
X142022402Y-111733669D01*
X142023400Y-111830999D01*
X142021994Y-111899934D01*
X142018164Y-111940948D01*
X142011889Y-111954514D01*
X141992898Y-111950452D01*
X141960638Y-111938144D01*
X141953041Y-111934545D01*
X141941176Y-111926398D01*
X141932994Y-111913004D01*
X141927643Y-111889608D01*
X141924269Y-111851455D01*
X141922019Y-111793790D01*
X141920040Y-111711857D01*
X141919498Y-111687907D01*
X141917403Y-111612266D01*
X141914683Y-111559328D01*
X141910515Y-111524075D01*
X141904079Y-111501487D01*
X141894550Y-111486544D01*
X141881106Y-111474227D01*
X141841305Y-111452634D01*
X141792341Y-111448476D01*
X141748529Y-111464999D01*
X141717008Y-111499210D01*
X141704914Y-111548114D01*
X141704578Y-111561407D01*
X141697972Y-111585472D01*
X141678470Y-111589144D01*
X141640283Y-111574813D01*
X141631438Y-111570217D01*
X141607534Y-111543186D01*
X141607061Y-111502994D01*
X141629836Y-111447409D01*
X141650727Y-111417117D01*
X141704142Y-111374084D01*
X141770074Y-111349755D01*
X141840574Y-111346443D01*
X141907691Y-111366467D01*
G36*
X143731020Y-111317822D02*
G01*
X143798810Y-111349680D01*
X143854366Y-111404770D01*
X143865881Y-111422016D01*
X143875432Y-111441562D01*
X143882206Y-111466198D01*
X143886819Y-111500711D01*
X143889888Y-111549889D01*
X143892029Y-111618519D01*
X143893859Y-111711389D01*
X143898404Y-111969007D01*
X143860225Y-111954491D01*
X143825268Y-111941156D01*
X143799097Y-111928323D01*
X143782013Y-111911780D01*
X143772086Y-111886465D01*
X143767386Y-111847316D01*
X143765982Y-111789268D01*
X143765943Y-111707261D01*
X143765744Y-111641895D01*
X143764559Y-111579173D01*
X143761729Y-111536334D01*
X143756609Y-111508220D01*
X143748553Y-111489675D01*
X143736914Y-111475543D01*
X143708303Y-111455600D01*
X143660239Y-111448083D01*
X143612688Y-111467079D01*
X143609550Y-111469511D01*
X143599769Y-111480748D01*
X143592553Y-111498770D01*
X143587299Y-111528026D01*
X143583402Y-111572962D01*
X143580256Y-111638028D01*
X143577257Y-111727670D01*
X143570000Y-111967697D01*
X143508314Y-111940044D01*
X143446629Y-111912391D01*
X143446629Y-111693246D01*
X143446884Y-111633711D01*
X143449086Y-111550892D01*
X143454661Y-111489227D01*
X143464941Y-111443748D01*
X143481258Y-111409484D01*
X143504943Y-111381466D01*
X143537328Y-111354723D01*
X143583907Y-111327780D01*
X143657287Y-111310191D01*
X143731020Y-111317822D01*
G37*
X143731020Y-111317822D02*
X143798810Y-111349680D01*
X143854366Y-111404770D01*
X143865881Y-111422016D01*
X143875432Y-111441562D01*
X143882206Y-111466198D01*
X143886819Y-111500711D01*
X143889888Y-111549889D01*
X143892029Y-111618519D01*
X143893859Y-111711389D01*
X143898404Y-111969007D01*
X143860225Y-111954491D01*
X143825268Y-111941156D01*
X143799097Y-111928323D01*
X143782013Y-111911780D01*
X143772086Y-111886465D01*
X143767386Y-111847316D01*
X143765982Y-111789268D01*
X143765943Y-111707261D01*
X143765744Y-111641895D01*
X143764559Y-111579173D01*
X143761729Y-111536334D01*
X143756609Y-111508220D01*
X143748553Y-111489675D01*
X143736914Y-111475543D01*
X143708303Y-111455600D01*
X143660239Y-111448083D01*
X143612688Y-111467079D01*
X143609550Y-111469511D01*
X143599769Y-111480748D01*
X143592553Y-111498770D01*
X143587299Y-111528026D01*
X143583402Y-111572962D01*
X143580256Y-111638028D01*
X143577257Y-111727670D01*
X143570000Y-111967697D01*
X143508314Y-111940044D01*
X143446629Y-111912391D01*
X143446629Y-111693246D01*
X143446884Y-111633711D01*
X143449086Y-111550892D01*
X143454661Y-111489227D01*
X143464941Y-111443748D01*
X143481258Y-111409484D01*
X143504943Y-111381466D01*
X143537328Y-111354723D01*
X143583907Y-111327780D01*
X143657287Y-111310191D01*
X143731020Y-111317822D01*
G36*
X140953941Y-111349282D02*
G01*
X140985774Y-111361758D01*
X141022743Y-111378602D01*
X141022743Y-111865196D01*
X140976812Y-111911127D01*
X140966320Y-111921427D01*
X140937255Y-111944320D01*
X140907943Y-111951735D01*
X140864326Y-111948321D01*
X140846568Y-111946114D01*
X140800767Y-111941445D01*
X140768743Y-111939585D01*
X140759244Y-111939869D01*
X140720274Y-111942948D01*
X140673160Y-111948321D01*
X140658085Y-111950168D01*
X140620110Y-111950893D01*
X140592325Y-111939429D01*
X140560674Y-111911127D01*
X140514743Y-111865196D01*
X140514743Y-111605055D01*
X140515101Y-111528180D01*
X140516216Y-111454886D01*
X140517952Y-111396850D01*
X140520167Y-111358663D01*
X140522721Y-111344914D01*
X140523256Y-111344951D01*
X140541808Y-111351793D01*
X140573153Y-111366868D01*
X140615608Y-111388822D01*
X140619604Y-111617240D01*
X140623600Y-111845657D01*
X140710686Y-111845657D01*
X140714657Y-111595286D01*
X140715916Y-111527227D01*
X140717718Y-111454482D01*
X140719671Y-111396730D01*
X140721612Y-111358648D01*
X140723377Y-111344914D01*
X140723885Y-111344962D01*
X140741482Y-111350015D01*
X140773834Y-111360849D01*
X140819543Y-111376783D01*
X140819765Y-111596706D01*
X140819988Y-111634909D01*
X140821531Y-111709146D01*
X140824292Y-111771145D01*
X140827977Y-111815308D01*
X140832292Y-111836041D01*
X140847732Y-111847131D01*
X140879241Y-111850556D01*
X140913886Y-111845657D01*
X140917857Y-111595286D01*
X140919278Y-111531663D01*
X140922225Y-111456356D01*
X140926079Y-111397286D01*
X140930542Y-111358718D01*
X140935317Y-111344914D01*
X140953941Y-111349282D01*
G37*
X140953941Y-111349282D02*
X140985774Y-111361758D01*
X141022743Y-111378602D01*
X141022743Y-111865196D01*
X140976812Y-111911127D01*
X140966320Y-111921427D01*
X140937255Y-111944320D01*
X140907943Y-111951735D01*
X140864326Y-111948321D01*
X140846568Y-111946114D01*
X140800767Y-111941445D01*
X140768743Y-111939585D01*
X140759244Y-111939869D01*
X140720274Y-111942948D01*
X140673160Y-111948321D01*
X140658085Y-111950168D01*
X140620110Y-111950893D01*
X140592325Y-111939429D01*
X140560674Y-111911127D01*
X140514743Y-111865196D01*
X140514743Y-111605055D01*
X140515101Y-111528180D01*
X140516216Y-111454886D01*
X140517952Y-111396850D01*
X140520167Y-111358663D01*
X140522721Y-111344914D01*
X140523256Y-111344951D01*
X140541808Y-111351793D01*
X140573153Y-111366868D01*
X140615608Y-111388822D01*
X140619604Y-111617240D01*
X140623600Y-111845657D01*
X140710686Y-111845657D01*
X140714657Y-111595286D01*
X140715916Y-111527227D01*
X140717718Y-111454482D01*
X140719671Y-111396730D01*
X140721612Y-111358648D01*
X140723377Y-111344914D01*
X140723885Y-111344962D01*
X140741482Y-111350015D01*
X140773834Y-111360849D01*
X140819543Y-111376783D01*
X140819765Y-111596706D01*
X140819988Y-111634909D01*
X140821531Y-111709146D01*
X140824292Y-111771145D01*
X140827977Y-111815308D01*
X140832292Y-111836041D01*
X140847732Y-111847131D01*
X140879241Y-111850556D01*
X140913886Y-111845657D01*
X140917857Y-111595286D01*
X140919278Y-111531663D01*
X140922225Y-111456356D01*
X140926079Y-111397286D01*
X140930542Y-111358718D01*
X140935317Y-111344914D01*
X140953941Y-111349282D01*
%TD*%
M02*
