%TF.GenerationSoftware,KiCad,Pcbnew,6.0.8+dfsg-1~bpo11+1*%
%TF.CreationDate,2022-10-31T17:28:35+01:00*%
%TF.ProjectId,vertExpI2c_00,76657274-4578-4704-9932-635f30302e6b,rev?*%
%TF.SameCoordinates,Original*%
%TF.FileFunction,Soldermask,Bot*%
%TF.FilePolarity,Negative*%
%FSLAX46Y46*%
G04 Gerber Fmt 4.6, Leading zero omitted, Abs format (unit mm)*
G04 Created by KiCad (PCBNEW 6.0.8+dfsg-1~bpo11+1) date 2022-10-31 17:28:35*
%MOMM*%
%LPD*%
G01*
G04 APERTURE LIST*
%ADD10R,1.700000X1.700000*%
%ADD11O,1.700000X1.700000*%
G04 APERTURE END LIST*
D10*
%TO.C,J2*%
X134125000Y-123175000D03*
D11*
X134125000Y-120635000D03*
X136665000Y-123175000D03*
X136665000Y-120635000D03*
X139205000Y-123175000D03*
X139205000Y-120635000D03*
X141745000Y-123175000D03*
X141745000Y-120635000D03*
X144285000Y-123175000D03*
X144285000Y-120635000D03*
X146825000Y-123175000D03*
X146825000Y-120635000D03*
X149365000Y-123175000D03*
X149365000Y-120635000D03*
X151905000Y-123175000D03*
X151905000Y-120635000D03*
%TD*%
D10*
%TO.C,J5*%
X156375000Y-82785000D03*
D11*
X156375000Y-80245000D03*
X158915000Y-82785000D03*
X158915000Y-80245000D03*
X161455000Y-82785000D03*
X161455000Y-80245000D03*
%TD*%
D10*
%TO.C,J3*%
X165100000Y-89600000D03*
D11*
X167640000Y-89600000D03*
X165100000Y-92140000D03*
X167640000Y-92140000D03*
X165100000Y-94680000D03*
X167640000Y-94680000D03*
X165100000Y-97220000D03*
X167640000Y-97220000D03*
X165100000Y-99760000D03*
X167640000Y-99760000D03*
X165100000Y-102300000D03*
X167640000Y-102300000D03*
X165100000Y-104840000D03*
X167640000Y-104840000D03*
X165100000Y-107380000D03*
X167640000Y-107380000D03*
%TD*%
D10*
%TO.C,J1*%
X151920000Y-73900000D03*
D11*
X151920000Y-76440000D03*
X149380000Y-73900000D03*
X149380000Y-76440000D03*
X146840000Y-73900000D03*
X146840000Y-76440000D03*
X144300000Y-73900000D03*
X144300000Y-76440000D03*
X141760000Y-73900000D03*
X141760000Y-76440000D03*
X139220000Y-73900000D03*
X139220000Y-76440000D03*
X136680000Y-73900000D03*
X136680000Y-76440000D03*
X134140000Y-73900000D03*
X134140000Y-76440000D03*
%TD*%
D10*
%TO.C,J4*%
X118400000Y-89600000D03*
D11*
X120940000Y-89600000D03*
X118400000Y-92140000D03*
X120940000Y-92140000D03*
X118400000Y-94680000D03*
X120940000Y-94680000D03*
X118400000Y-97220000D03*
X120940000Y-97220000D03*
X118400000Y-99760000D03*
X120940000Y-99760000D03*
X118400000Y-102300000D03*
X120940000Y-102300000D03*
X118400000Y-104840000D03*
X120940000Y-104840000D03*
X118400000Y-107380000D03*
X120940000Y-107380000D03*
%TD*%
M02*
