%TF.GenerationSoftware,KiCad,Pcbnew,6.0.8+dfsg-1~bpo11+1*%
%TF.CreationDate,2022-10-31T17:28:34+01:00*%
%TF.ProjectId,vertExpI2c_00,76657274-4578-4704-9932-635f30302e6b,rev?*%
%TF.SameCoordinates,Original*%
%TF.FileFunction,Copper,L3,Inr*%
%TF.FilePolarity,Positive*%
%FSLAX46Y46*%
G04 Gerber Fmt 4.6, Leading zero omitted, Abs format (unit mm)*
G04 Created by KiCad (PCBNEW 6.0.8+dfsg-1~bpo11+1) date 2022-10-31 17:28:34*
%MOMM*%
%LPD*%
G01*
G04 APERTURE LIST*
%TA.AperFunction,ComponentPad*%
%ADD10R,1.700000X1.700000*%
%TD*%
%TA.AperFunction,ComponentPad*%
%ADD11O,1.700000X1.700000*%
%TD*%
%TA.AperFunction,ViaPad*%
%ADD12C,0.800000*%
%TD*%
G04 APERTURE END LIST*
D10*
%TO.N,GNDD*%
%TO.C,J2*%
X134125000Y-123175000D03*
D11*
%TO.N,/SC4*%
X134125000Y-120635000D03*
%TO.N,/SD4*%
X136665000Y-123175000D03*
%TO.N,/SC5*%
X136665000Y-120635000D03*
%TO.N,/SD5*%
X139205000Y-123175000D03*
%TO.N,unconnected-(J2-Pad6)*%
X139205000Y-120635000D03*
%TO.N,unconnected-(J2-Pad7)*%
X141745000Y-123175000D03*
%TO.N,unconnected-(J2-Pad8)*%
X141745000Y-120635000D03*
%TO.N,unconnected-(J2-Pad9)*%
X144285000Y-123175000D03*
%TO.N,+5V*%
X144285000Y-120635000D03*
%TO.N,-12V*%
X146825000Y-123175000D03*
%TO.N,+12V*%
X146825000Y-120635000D03*
%TO.N,GNDD*%
X149365000Y-123175000D03*
%TO.N,Earth*%
X149365000Y-120635000D03*
%TO.N,+VSW*%
X151905000Y-123175000D03*
X151905000Y-120635000D03*
%TD*%
D10*
%TO.N,Net-(J5-Pad1)*%
%TO.C,J5*%
X156375000Y-82785000D03*
D11*
%TO.N,GND*%
X156375000Y-80245000D03*
%TO.N,Net-(J5-Pad3)*%
X158915000Y-82785000D03*
%TO.N,GND*%
X158915000Y-80245000D03*
%TO.N,Net-(J5-Pad5)*%
X161455000Y-82785000D03*
%TO.N,GND*%
X161455000Y-80245000D03*
%TD*%
D10*
%TO.N,+3V3*%
%TO.C,J3*%
X165100000Y-89600000D03*
D11*
%TO.N,GND*%
X167640000Y-89600000D03*
%TO.N,/TXD*%
X165100000Y-92140000D03*
%TO.N,/RXD*%
X167640000Y-92140000D03*
%TO.N,/SCL*%
X165100000Y-94680000D03*
%TO.N,/SDA*%
X167640000Y-94680000D03*
%TO.N,/MISO*%
X165100000Y-97220000D03*
%TO.N,/MOSI*%
X167640000Y-97220000D03*
%TO.N,/SCK*%
X165100000Y-99760000D03*
%TO.N,/SSEL1*%
X167640000Y-99760000D03*
%TO.N,/SSEL2*%
X165100000Y-102300000D03*
%TO.N,/SSEL3*%
X167640000Y-102300000D03*
%TO.N,Earth*%
X165100000Y-104840000D03*
%TO.N,GND*%
X167640000Y-104840000D03*
%TO.N,+24V*%
X165100000Y-107380000D03*
X167640000Y-107380000D03*
%TD*%
D10*
%TO.N,GNDD*%
%TO.C,J1*%
X151920000Y-73900000D03*
D11*
%TO.N,/SC0*%
X151920000Y-76440000D03*
%TO.N,/SD0*%
X149380000Y-73900000D03*
%TO.N,/SC1*%
X149380000Y-76440000D03*
%TO.N,/SD1*%
X146840000Y-73900000D03*
%TO.N,unconnected-(J1-Pad6)*%
X146840000Y-76440000D03*
%TO.N,unconnected-(J1-Pad7)*%
X144300000Y-73900000D03*
%TO.N,unconnected-(J1-Pad8)*%
X144300000Y-76440000D03*
%TO.N,unconnected-(J1-Pad9)*%
X141760000Y-73900000D03*
%TO.N,+5V*%
X141760000Y-76440000D03*
%TO.N,-12V*%
X139220000Y-73900000D03*
%TO.N,+12V*%
X139220000Y-76440000D03*
%TO.N,GNDD*%
X136680000Y-73900000D03*
%TO.N,Earth*%
X136680000Y-76440000D03*
%TO.N,+VSW*%
X134140000Y-73900000D03*
X134140000Y-76440000D03*
%TD*%
D10*
%TO.N,+3V3*%
%TO.C,J4*%
X118400000Y-89600000D03*
D11*
%TO.N,GND*%
X120940000Y-89600000D03*
%TO.N,/TXD*%
X118400000Y-92140000D03*
%TO.N,/RXD*%
X120940000Y-92140000D03*
%TO.N,/SCL*%
X118400000Y-94680000D03*
%TO.N,/SDA*%
X120940000Y-94680000D03*
%TO.N,/MISO*%
X118400000Y-97220000D03*
%TO.N,/MOSI*%
X120940000Y-97220000D03*
%TO.N,/SCK*%
X118400000Y-99760000D03*
%TO.N,/SSEL1*%
X120940000Y-99760000D03*
%TO.N,/SSEL2*%
X118400000Y-102300000D03*
%TO.N,/SSEL3*%
X120940000Y-102300000D03*
%TO.N,Earth*%
X118400000Y-104840000D03*
%TO.N,GND*%
X120940000Y-104840000D03*
%TO.N,+24V*%
X118400000Y-107380000D03*
X120940000Y-107380000D03*
%TD*%
D12*
%TO.N,GND*%
X144370000Y-86710000D03*
X150880000Y-85590000D03*
X144840000Y-110100000D03*
X136660000Y-103590000D03*
X136195000Y-110035000D03*
%TO.N,+5V*%
X143000000Y-80540000D03*
X132590000Y-114900000D03*
%TO.N,GNDD*%
X144270000Y-79440000D03*
X129300000Y-84490000D03*
X137910000Y-114400000D03*
X144490000Y-115470000D03*
X134930000Y-79790000D03*
X132310000Y-79380000D03*
X128990000Y-79280000D03*
%TO.N,+3V3*%
X145050000Y-108930000D03*
X139830000Y-108910000D03*
X154140000Y-108910000D03*
X151460000Y-108920000D03*
X142240000Y-108910000D03*
%TO.N,+12V*%
X133020000Y-83320000D03*
X126010000Y-117330000D03*
X135370000Y-106080000D03*
%TO.N,-12V*%
X128390000Y-110040000D03*
%TO.N,+VSW*%
X124500000Y-73870000D03*
%TO.N,/SC5*%
X140975500Y-115300000D03*
X145100000Y-114600000D03*
%TO.N,/SD5*%
X148700000Y-118000000D03*
X141900000Y-116300000D03*
%TO.N,Earth*%
X159280000Y-110060000D03*
X140000000Y-104840000D03*
X136680000Y-89440000D03*
%TO.N,Net-(J5-Pad1)*%
X156700000Y-91170000D03*
%TO.N,Net-(R11-Pad1)*%
X151710000Y-91320000D03*
X149040000Y-91290000D03*
%TO.N,Net-(R12-Pad1)*%
X142940000Y-91250000D03*
X147000000Y-91250000D03*
%TD*%
%TA.AperFunction,Conductor*%
%TO.N,Earth*%
G36*
X169433621Y-72028502D02*
G01*
X169480114Y-72082158D01*
X169491500Y-72134500D01*
X169491500Y-124865500D01*
X169471498Y-124933621D01*
X169417842Y-124980114D01*
X169365500Y-124991500D01*
X116634500Y-124991500D01*
X116566379Y-124971498D01*
X116519886Y-124917842D01*
X116508500Y-124865500D01*
X116508500Y-122478918D01*
X116986917Y-122478918D01*
X116987334Y-122486156D01*
X117002682Y-122752320D01*
X117055405Y-123021053D01*
X117056792Y-123025103D01*
X117056793Y-123025108D01*
X117129765Y-123238240D01*
X117144112Y-123280144D01*
X117173238Y-123338054D01*
X117242837Y-123476437D01*
X117267160Y-123524799D01*
X117269586Y-123528328D01*
X117269589Y-123528334D01*
X117374826Y-123681453D01*
X117422274Y-123750490D01*
X117425161Y-123753663D01*
X117425162Y-123753664D01*
X117537459Y-123877077D01*
X117606582Y-123953043D01*
X117816675Y-124128707D01*
X117820316Y-124130991D01*
X118045024Y-124271951D01*
X118045028Y-124271953D01*
X118048664Y-124274234D01*
X118116544Y-124304883D01*
X118294345Y-124385164D01*
X118294349Y-124385166D01*
X118298257Y-124386930D01*
X118348225Y-124401731D01*
X118556723Y-124463491D01*
X118556727Y-124463492D01*
X118560836Y-124464709D01*
X118565070Y-124465357D01*
X118565075Y-124465358D01*
X118827298Y-124505483D01*
X118827300Y-124505483D01*
X118831540Y-124506132D01*
X118970912Y-124508322D01*
X119101071Y-124510367D01*
X119101077Y-124510367D01*
X119105362Y-124510434D01*
X119377235Y-124477534D01*
X119642127Y-124408041D01*
X119646087Y-124406401D01*
X119646092Y-124406399D01*
X119799410Y-124342892D01*
X119895136Y-124303241D01*
X120131582Y-124165073D01*
X120347089Y-123996094D01*
X120388809Y-123953043D01*
X120534686Y-123802509D01*
X120537669Y-123799431D01*
X120540202Y-123795983D01*
X120540206Y-123795978D01*
X120697257Y-123582178D01*
X120699795Y-123578723D01*
X120727154Y-123528334D01*
X120828418Y-123341830D01*
X120828419Y-123341828D01*
X120830468Y-123338054D01*
X120927269Y-123081877D01*
X120956932Y-122952361D01*
X120987449Y-122819117D01*
X120987450Y-122819113D01*
X120988407Y-122814933D01*
X120995031Y-122740720D01*
X121012531Y-122544627D01*
X121012531Y-122544625D01*
X121012751Y-122542161D01*
X121013193Y-122500000D01*
X121000727Y-122317138D01*
X120994859Y-122231055D01*
X120994858Y-122231049D01*
X120994567Y-122226778D01*
X120993690Y-122222540D01*
X120956467Y-122042800D01*
X120939032Y-121958612D01*
X120847617Y-121700465D01*
X120722013Y-121457112D01*
X120712587Y-121443699D01*
X120641107Y-121341994D01*
X120564545Y-121233057D01*
X120470504Y-121131857D01*
X120381046Y-121035588D01*
X120381043Y-121035585D01*
X120378125Y-121032445D01*
X120374810Y-121029731D01*
X120374806Y-121029728D01*
X120169523Y-120861706D01*
X120166205Y-120858990D01*
X119932704Y-120715901D01*
X119928768Y-120714173D01*
X119685873Y-120607549D01*
X119685869Y-120607548D01*
X119681945Y-120605825D01*
X119667446Y-120601695D01*
X132762251Y-120601695D01*
X132762548Y-120606848D01*
X132762548Y-120606851D01*
X132768011Y-120701590D01*
X132775110Y-120824715D01*
X132776247Y-120829761D01*
X132776248Y-120829767D01*
X132787031Y-120877614D01*
X132824222Y-121042639D01*
X132908266Y-121249616D01*
X132959019Y-121332438D01*
X133022291Y-121435688D01*
X133024987Y-121440088D01*
X133171250Y-121608938D01*
X133175230Y-121612242D01*
X133179981Y-121616187D01*
X133219616Y-121675090D01*
X133221113Y-121746071D01*
X133183997Y-121806593D01*
X133143725Y-121831112D01*
X133096129Y-121848955D01*
X133028295Y-121874385D01*
X132911739Y-121961739D01*
X132824385Y-122078295D01*
X132773255Y-122214684D01*
X132766500Y-122276866D01*
X132766500Y-124073134D01*
X132773255Y-124135316D01*
X132824385Y-124271705D01*
X132911739Y-124388261D01*
X133028295Y-124475615D01*
X133164684Y-124526745D01*
X133226866Y-124533500D01*
X135023134Y-124533500D01*
X135085316Y-124526745D01*
X135221705Y-124475615D01*
X135338261Y-124388261D01*
X135425615Y-124271705D01*
X135447799Y-124212529D01*
X135469598Y-124154382D01*
X135512240Y-124097618D01*
X135578802Y-124072918D01*
X135648150Y-124088126D01*
X135682817Y-124116114D01*
X135711250Y-124148938D01*
X135883126Y-124291632D01*
X136076000Y-124404338D01*
X136284692Y-124484030D01*
X136289760Y-124485061D01*
X136289763Y-124485062D01*
X136390136Y-124505483D01*
X136503597Y-124528567D01*
X136508772Y-124528757D01*
X136508774Y-124528757D01*
X136721673Y-124536564D01*
X136721677Y-124536564D01*
X136726837Y-124536753D01*
X136731957Y-124536097D01*
X136731959Y-124536097D01*
X136943288Y-124509025D01*
X136943289Y-124509025D01*
X136948416Y-124508368D01*
X136958032Y-124505483D01*
X137157429Y-124445661D01*
X137157434Y-124445659D01*
X137162384Y-124444174D01*
X137362994Y-124345896D01*
X137544860Y-124216173D01*
X137703096Y-124058489D01*
X137833453Y-123877077D01*
X137834776Y-123878028D01*
X137881645Y-123834857D01*
X137951580Y-123822625D01*
X138017026Y-123850144D01*
X138044875Y-123881994D01*
X138104987Y-123980088D01*
X138251250Y-124148938D01*
X138423126Y-124291632D01*
X138616000Y-124404338D01*
X138824692Y-124484030D01*
X138829760Y-124485061D01*
X138829763Y-124485062D01*
X138930136Y-124505483D01*
X139043597Y-124528567D01*
X139048772Y-124528757D01*
X139048774Y-124528757D01*
X139261673Y-124536564D01*
X139261677Y-124536564D01*
X139266837Y-124536753D01*
X139271957Y-124536097D01*
X139271959Y-124536097D01*
X139483288Y-124509025D01*
X139483289Y-124509025D01*
X139488416Y-124508368D01*
X139498032Y-124505483D01*
X139697429Y-124445661D01*
X139697434Y-124445659D01*
X139702384Y-124444174D01*
X139902994Y-124345896D01*
X140084860Y-124216173D01*
X140243096Y-124058489D01*
X140373453Y-123877077D01*
X140374776Y-123878028D01*
X140421645Y-123834857D01*
X140491580Y-123822625D01*
X140557026Y-123850144D01*
X140584875Y-123881994D01*
X140644987Y-123980088D01*
X140791250Y-124148938D01*
X140963126Y-124291632D01*
X141156000Y-124404338D01*
X141364692Y-124484030D01*
X141369760Y-124485061D01*
X141369763Y-124485062D01*
X141470136Y-124505483D01*
X141583597Y-124528567D01*
X141588772Y-124528757D01*
X141588774Y-124528757D01*
X141801673Y-124536564D01*
X141801677Y-124536564D01*
X141806837Y-124536753D01*
X141811957Y-124536097D01*
X141811959Y-124536097D01*
X142023288Y-124509025D01*
X142023289Y-124509025D01*
X142028416Y-124508368D01*
X142038032Y-124505483D01*
X142237429Y-124445661D01*
X142237434Y-124445659D01*
X142242384Y-124444174D01*
X142442994Y-124345896D01*
X142624860Y-124216173D01*
X142783096Y-124058489D01*
X142913453Y-123877077D01*
X142914776Y-123878028D01*
X142961645Y-123834857D01*
X143031580Y-123822625D01*
X143097026Y-123850144D01*
X143124875Y-123881994D01*
X143184987Y-123980088D01*
X143331250Y-124148938D01*
X143503126Y-124291632D01*
X143696000Y-124404338D01*
X143904692Y-124484030D01*
X143909760Y-124485061D01*
X143909763Y-124485062D01*
X144010136Y-124505483D01*
X144123597Y-124528567D01*
X144128772Y-124528757D01*
X144128774Y-124528757D01*
X144341673Y-124536564D01*
X144341677Y-124536564D01*
X144346837Y-124536753D01*
X144351957Y-124536097D01*
X144351959Y-124536097D01*
X144563288Y-124509025D01*
X144563289Y-124509025D01*
X144568416Y-124508368D01*
X144578032Y-124505483D01*
X144777429Y-124445661D01*
X144777434Y-124445659D01*
X144782384Y-124444174D01*
X144982994Y-124345896D01*
X145164860Y-124216173D01*
X145323096Y-124058489D01*
X145453453Y-123877077D01*
X145454776Y-123878028D01*
X145501645Y-123834857D01*
X145571580Y-123822625D01*
X145637026Y-123850144D01*
X145664875Y-123881994D01*
X145724987Y-123980088D01*
X145871250Y-124148938D01*
X146043126Y-124291632D01*
X146236000Y-124404338D01*
X146444692Y-124484030D01*
X146449760Y-124485061D01*
X146449763Y-124485062D01*
X146550136Y-124505483D01*
X146663597Y-124528567D01*
X146668772Y-124528757D01*
X146668774Y-124528757D01*
X146881673Y-124536564D01*
X146881677Y-124536564D01*
X146886837Y-124536753D01*
X146891957Y-124536097D01*
X146891959Y-124536097D01*
X147103288Y-124509025D01*
X147103289Y-124509025D01*
X147108416Y-124508368D01*
X147118032Y-124505483D01*
X147317429Y-124445661D01*
X147317434Y-124445659D01*
X147322384Y-124444174D01*
X147522994Y-124345896D01*
X147704860Y-124216173D01*
X147863096Y-124058489D01*
X147993453Y-123877077D01*
X147994776Y-123878028D01*
X148041645Y-123834857D01*
X148111580Y-123822625D01*
X148177026Y-123850144D01*
X148204875Y-123881994D01*
X148264987Y-123980088D01*
X148411250Y-124148938D01*
X148583126Y-124291632D01*
X148776000Y-124404338D01*
X148984692Y-124484030D01*
X148989760Y-124485061D01*
X148989763Y-124485062D01*
X149090136Y-124505483D01*
X149203597Y-124528567D01*
X149208772Y-124528757D01*
X149208774Y-124528757D01*
X149421673Y-124536564D01*
X149421677Y-124536564D01*
X149426837Y-124536753D01*
X149431957Y-124536097D01*
X149431959Y-124536097D01*
X149643288Y-124509025D01*
X149643289Y-124509025D01*
X149648416Y-124508368D01*
X149658032Y-124505483D01*
X149857429Y-124445661D01*
X149857434Y-124445659D01*
X149862384Y-124444174D01*
X150062994Y-124345896D01*
X150244860Y-124216173D01*
X150403096Y-124058489D01*
X150533453Y-123877077D01*
X150534776Y-123878028D01*
X150581645Y-123834857D01*
X150651580Y-123822625D01*
X150717026Y-123850144D01*
X150744875Y-123881994D01*
X150804987Y-123980088D01*
X150951250Y-124148938D01*
X151123126Y-124291632D01*
X151316000Y-124404338D01*
X151524692Y-124484030D01*
X151529760Y-124485061D01*
X151529763Y-124485062D01*
X151630136Y-124505483D01*
X151743597Y-124528567D01*
X151748772Y-124528757D01*
X151748774Y-124528757D01*
X151961673Y-124536564D01*
X151961677Y-124536564D01*
X151966837Y-124536753D01*
X151971957Y-124536097D01*
X151971959Y-124536097D01*
X152183288Y-124509025D01*
X152183289Y-124509025D01*
X152188416Y-124508368D01*
X152198032Y-124505483D01*
X152397429Y-124445661D01*
X152397434Y-124445659D01*
X152402384Y-124444174D01*
X152602994Y-124345896D01*
X152784860Y-124216173D01*
X152943096Y-124058489D01*
X153073453Y-123877077D01*
X153094320Y-123834857D01*
X153170136Y-123681453D01*
X153170137Y-123681451D01*
X153172430Y-123676811D01*
X153228798Y-123491283D01*
X153235865Y-123468023D01*
X153235865Y-123468021D01*
X153237370Y-123463069D01*
X153266529Y-123241590D01*
X153268156Y-123175000D01*
X153249852Y-122952361D01*
X153195431Y-122735702D01*
X153106354Y-122530840D01*
X153072764Y-122478918D01*
X164986917Y-122478918D01*
X164987334Y-122486156D01*
X165002682Y-122752320D01*
X165055405Y-123021053D01*
X165056792Y-123025103D01*
X165056793Y-123025108D01*
X165129765Y-123238240D01*
X165144112Y-123280144D01*
X165173238Y-123338054D01*
X165242837Y-123476437D01*
X165267160Y-123524799D01*
X165269586Y-123528328D01*
X165269589Y-123528334D01*
X165374826Y-123681453D01*
X165422274Y-123750490D01*
X165425161Y-123753663D01*
X165425162Y-123753664D01*
X165537459Y-123877077D01*
X165606582Y-123953043D01*
X165816675Y-124128707D01*
X165820316Y-124130991D01*
X166045024Y-124271951D01*
X166045028Y-124271953D01*
X166048664Y-124274234D01*
X166116544Y-124304883D01*
X166294345Y-124385164D01*
X166294349Y-124385166D01*
X166298257Y-124386930D01*
X166348225Y-124401731D01*
X166556723Y-124463491D01*
X166556727Y-124463492D01*
X166560836Y-124464709D01*
X166565070Y-124465357D01*
X166565075Y-124465358D01*
X166827298Y-124505483D01*
X166827300Y-124505483D01*
X166831540Y-124506132D01*
X166970912Y-124508322D01*
X167101071Y-124510367D01*
X167101077Y-124510367D01*
X167105362Y-124510434D01*
X167377235Y-124477534D01*
X167642127Y-124408041D01*
X167646087Y-124406401D01*
X167646092Y-124406399D01*
X167799410Y-124342892D01*
X167895136Y-124303241D01*
X168131582Y-124165073D01*
X168347089Y-123996094D01*
X168388809Y-123953043D01*
X168534686Y-123802509D01*
X168537669Y-123799431D01*
X168540202Y-123795983D01*
X168540206Y-123795978D01*
X168697257Y-123582178D01*
X168699795Y-123578723D01*
X168727154Y-123528334D01*
X168828418Y-123341830D01*
X168828419Y-123341828D01*
X168830468Y-123338054D01*
X168927269Y-123081877D01*
X168956932Y-122952361D01*
X168987449Y-122819117D01*
X168987450Y-122819113D01*
X168988407Y-122814933D01*
X168995031Y-122740720D01*
X169012531Y-122544627D01*
X169012531Y-122544625D01*
X169012751Y-122542161D01*
X169013193Y-122500000D01*
X169000727Y-122317138D01*
X168994859Y-122231055D01*
X168994858Y-122231049D01*
X168994567Y-122226778D01*
X168993690Y-122222540D01*
X168956467Y-122042800D01*
X168939032Y-121958612D01*
X168847617Y-121700465D01*
X168722013Y-121457112D01*
X168712587Y-121443699D01*
X168641107Y-121341994D01*
X168564545Y-121233057D01*
X168470504Y-121131857D01*
X168381046Y-121035588D01*
X168381043Y-121035585D01*
X168378125Y-121032445D01*
X168374810Y-121029731D01*
X168374806Y-121029728D01*
X168169523Y-120861706D01*
X168166205Y-120858990D01*
X167932704Y-120715901D01*
X167928768Y-120714173D01*
X167685873Y-120607549D01*
X167685869Y-120607548D01*
X167681945Y-120605825D01*
X167418566Y-120530800D01*
X167414324Y-120530196D01*
X167414318Y-120530195D01*
X167213834Y-120501662D01*
X167147443Y-120492213D01*
X167003589Y-120491460D01*
X166877877Y-120490802D01*
X166877871Y-120490802D01*
X166873591Y-120490780D01*
X166869347Y-120491339D01*
X166869343Y-120491339D01*
X166750302Y-120507011D01*
X166602078Y-120526525D01*
X166597938Y-120527658D01*
X166597936Y-120527658D01*
X166525008Y-120547609D01*
X166337928Y-120598788D01*
X166333980Y-120600472D01*
X166089982Y-120704546D01*
X166089978Y-120704548D01*
X166086030Y-120706232D01*
X166066125Y-120718145D01*
X165854725Y-120844664D01*
X165854721Y-120844667D01*
X165851043Y-120846868D01*
X165637318Y-121018094D01*
X165448808Y-121216742D01*
X165289002Y-121439136D01*
X165160857Y-121681161D01*
X165159385Y-121685184D01*
X165159383Y-121685188D01*
X165068214Y-121934317D01*
X165066743Y-121938337D01*
X165008404Y-122205907D01*
X164986917Y-122478918D01*
X153072764Y-122478918D01*
X152985014Y-122343277D01*
X152834670Y-122178051D01*
X152830619Y-122174852D01*
X152830615Y-122174848D01*
X152663414Y-122042800D01*
X152663410Y-122042798D01*
X152659359Y-122039598D01*
X152618053Y-122016796D01*
X152568084Y-121966364D01*
X152553312Y-121896921D01*
X152578428Y-121830516D01*
X152605780Y-121803909D01*
X152649603Y-121772650D01*
X152784860Y-121676173D01*
X152790706Y-121670348D01*
X152939435Y-121522137D01*
X152943096Y-121518489D01*
X153002594Y-121435689D01*
X153070435Y-121341277D01*
X153073453Y-121337077D01*
X153086995Y-121309678D01*
X153170136Y-121141453D01*
X153170137Y-121141451D01*
X153172430Y-121136811D01*
X153237370Y-120923069D01*
X153266529Y-120701590D01*
X153268156Y-120635000D01*
X153249852Y-120412361D01*
X153195431Y-120195702D01*
X153106354Y-119990840D01*
X152985014Y-119803277D01*
X152834670Y-119638051D01*
X152830619Y-119634852D01*
X152830615Y-119634848D01*
X152663414Y-119502800D01*
X152663410Y-119502798D01*
X152659359Y-119499598D01*
X152623028Y-119479542D01*
X152607136Y-119470769D01*
X152463789Y-119391638D01*
X152458920Y-119389914D01*
X152458916Y-119389912D01*
X152258087Y-119318795D01*
X152258083Y-119318794D01*
X152253212Y-119317069D01*
X152248119Y-119316162D01*
X152248116Y-119316161D01*
X152038373Y-119278800D01*
X152038367Y-119278799D01*
X152033284Y-119277894D01*
X151959452Y-119276992D01*
X151815081Y-119275228D01*
X151815079Y-119275228D01*
X151809911Y-119275165D01*
X151589091Y-119308955D01*
X151376756Y-119378357D01*
X151178607Y-119481507D01*
X151174474Y-119484610D01*
X151174471Y-119484612D01*
X151150247Y-119502800D01*
X150999965Y-119615635D01*
X150845629Y-119777138D01*
X150738204Y-119934618D01*
X150737898Y-119935066D01*
X150682987Y-119980069D01*
X150612462Y-119988240D01*
X150548715Y-119956986D01*
X150528018Y-119932502D01*
X150447426Y-119807926D01*
X150441136Y-119799757D01*
X150297806Y-119642240D01*
X150290273Y-119635215D01*
X150123139Y-119503222D01*
X150114552Y-119497517D01*
X149928117Y-119394599D01*
X149918705Y-119390369D01*
X149717959Y-119319280D01*
X149707988Y-119316646D01*
X149636837Y-119303972D01*
X149623540Y-119305432D01*
X149619000Y-119319989D01*
X149619000Y-120763000D01*
X149598998Y-120831121D01*
X149545342Y-120877614D01*
X149493000Y-120889000D01*
X149237000Y-120889000D01*
X149168879Y-120868998D01*
X149122386Y-120815342D01*
X149111000Y-120763000D01*
X149111000Y-119318102D01*
X149107082Y-119304758D01*
X149092806Y-119302771D01*
X149054324Y-119308660D01*
X149044288Y-119311051D01*
X148841868Y-119377212D01*
X148832359Y-119381209D01*
X148643463Y-119479542D01*
X148634738Y-119485036D01*
X148464433Y-119612905D01*
X148456726Y-119619748D01*
X148309590Y-119773717D01*
X148303109Y-119781722D01*
X148198498Y-119935074D01*
X148143587Y-119980076D01*
X148073062Y-119988247D01*
X148009315Y-119956993D01*
X147988618Y-119932509D01*
X147907822Y-119807617D01*
X147907820Y-119807614D01*
X147905014Y-119803277D01*
X147754670Y-119638051D01*
X147750619Y-119634852D01*
X147750615Y-119634848D01*
X147583414Y-119502800D01*
X147583410Y-119502798D01*
X147579359Y-119499598D01*
X147543028Y-119479542D01*
X147527136Y-119470769D01*
X147383789Y-119391638D01*
X147378920Y-119389914D01*
X147378916Y-119389912D01*
X147178087Y-119318795D01*
X147178083Y-119318794D01*
X147173212Y-119317069D01*
X147168119Y-119316162D01*
X147168116Y-119316161D01*
X146958373Y-119278800D01*
X146958367Y-119278799D01*
X146953284Y-119277894D01*
X146879452Y-119276992D01*
X146735081Y-119275228D01*
X146735079Y-119275228D01*
X146729911Y-119275165D01*
X146509091Y-119308955D01*
X146296756Y-119378357D01*
X146098607Y-119481507D01*
X146094474Y-119484610D01*
X146094471Y-119484612D01*
X146070247Y-119502800D01*
X145919965Y-119615635D01*
X145765629Y-119777138D01*
X145658201Y-119934621D01*
X145603293Y-119979621D01*
X145532768Y-119987792D01*
X145469021Y-119956538D01*
X145448324Y-119932054D01*
X145367822Y-119807617D01*
X145367820Y-119807614D01*
X145365014Y-119803277D01*
X145214670Y-119638051D01*
X145210619Y-119634852D01*
X145210615Y-119634848D01*
X145043414Y-119502800D01*
X145043410Y-119502798D01*
X145039359Y-119499598D01*
X145003028Y-119479542D01*
X144987136Y-119470769D01*
X144843789Y-119391638D01*
X144838920Y-119389914D01*
X144838916Y-119389912D01*
X144638087Y-119318795D01*
X144638083Y-119318794D01*
X144633212Y-119317069D01*
X144628119Y-119316162D01*
X144628116Y-119316161D01*
X144418373Y-119278800D01*
X144418367Y-119278799D01*
X144413284Y-119277894D01*
X144339452Y-119276992D01*
X144195081Y-119275228D01*
X144195079Y-119275228D01*
X144189911Y-119275165D01*
X143969091Y-119308955D01*
X143756756Y-119378357D01*
X143558607Y-119481507D01*
X143554474Y-119484610D01*
X143554471Y-119484612D01*
X143530247Y-119502800D01*
X143379965Y-119615635D01*
X143225629Y-119777138D01*
X143118201Y-119934621D01*
X143063293Y-119979621D01*
X142992768Y-119987792D01*
X142929021Y-119956538D01*
X142908324Y-119932054D01*
X142827822Y-119807617D01*
X142827820Y-119807614D01*
X142825014Y-119803277D01*
X142674670Y-119638051D01*
X142670619Y-119634852D01*
X142670615Y-119634848D01*
X142503414Y-119502800D01*
X142503410Y-119502798D01*
X142499359Y-119499598D01*
X142463028Y-119479542D01*
X142447136Y-119470769D01*
X142303789Y-119391638D01*
X142298920Y-119389914D01*
X142298916Y-119389912D01*
X142098087Y-119318795D01*
X142098083Y-119318794D01*
X142093212Y-119317069D01*
X142088119Y-119316162D01*
X142088116Y-119316161D01*
X141878373Y-119278800D01*
X141878367Y-119278799D01*
X141873284Y-119277894D01*
X141799452Y-119276992D01*
X141655081Y-119275228D01*
X141655079Y-119275228D01*
X141649911Y-119275165D01*
X141429091Y-119308955D01*
X141216756Y-119378357D01*
X141018607Y-119481507D01*
X141014474Y-119484610D01*
X141014471Y-119484612D01*
X140990247Y-119502800D01*
X140839965Y-119615635D01*
X140685629Y-119777138D01*
X140578201Y-119934621D01*
X140523293Y-119979621D01*
X140452768Y-119987792D01*
X140389021Y-119956538D01*
X140368324Y-119932054D01*
X140287822Y-119807617D01*
X140287820Y-119807614D01*
X140285014Y-119803277D01*
X140134670Y-119638051D01*
X140130619Y-119634852D01*
X140130615Y-119634848D01*
X139963414Y-119502800D01*
X139963410Y-119502798D01*
X139959359Y-119499598D01*
X139923028Y-119479542D01*
X139907136Y-119470769D01*
X139763789Y-119391638D01*
X139758920Y-119389914D01*
X139758916Y-119389912D01*
X139558087Y-119318795D01*
X139558083Y-119318794D01*
X139553212Y-119317069D01*
X139548119Y-119316162D01*
X139548116Y-119316161D01*
X139338373Y-119278800D01*
X139338367Y-119278799D01*
X139333284Y-119277894D01*
X139259452Y-119276992D01*
X139115081Y-119275228D01*
X139115079Y-119275228D01*
X139109911Y-119275165D01*
X138889091Y-119308955D01*
X138676756Y-119378357D01*
X138478607Y-119481507D01*
X138474474Y-119484610D01*
X138474471Y-119484612D01*
X138450247Y-119502800D01*
X138299965Y-119615635D01*
X138145629Y-119777138D01*
X138038201Y-119934621D01*
X137983293Y-119979621D01*
X137912768Y-119987792D01*
X137849021Y-119956538D01*
X137828324Y-119932054D01*
X137747822Y-119807617D01*
X137747820Y-119807614D01*
X137745014Y-119803277D01*
X137594670Y-119638051D01*
X137590619Y-119634852D01*
X137590615Y-119634848D01*
X137423414Y-119502800D01*
X137423410Y-119502798D01*
X137419359Y-119499598D01*
X137383028Y-119479542D01*
X137367136Y-119470769D01*
X137223789Y-119391638D01*
X137218920Y-119389914D01*
X137218916Y-119389912D01*
X137018087Y-119318795D01*
X137018083Y-119318794D01*
X137013212Y-119317069D01*
X137008119Y-119316162D01*
X137008116Y-119316161D01*
X136798373Y-119278800D01*
X136798367Y-119278799D01*
X136793284Y-119277894D01*
X136719452Y-119276992D01*
X136575081Y-119275228D01*
X136575079Y-119275228D01*
X136569911Y-119275165D01*
X136349091Y-119308955D01*
X136136756Y-119378357D01*
X135938607Y-119481507D01*
X135934474Y-119484610D01*
X135934471Y-119484612D01*
X135910247Y-119502800D01*
X135759965Y-119615635D01*
X135605629Y-119777138D01*
X135498201Y-119934621D01*
X135443293Y-119979621D01*
X135372768Y-119987792D01*
X135309021Y-119956538D01*
X135288324Y-119932054D01*
X135207822Y-119807617D01*
X135207820Y-119807614D01*
X135205014Y-119803277D01*
X135054670Y-119638051D01*
X135050619Y-119634852D01*
X135050615Y-119634848D01*
X134883414Y-119502800D01*
X134883410Y-119502798D01*
X134879359Y-119499598D01*
X134843028Y-119479542D01*
X134827136Y-119470769D01*
X134683789Y-119391638D01*
X134678920Y-119389914D01*
X134678916Y-119389912D01*
X134478087Y-119318795D01*
X134478083Y-119318794D01*
X134473212Y-119317069D01*
X134468119Y-119316162D01*
X134468116Y-119316161D01*
X134258373Y-119278800D01*
X134258367Y-119278799D01*
X134253284Y-119277894D01*
X134179452Y-119276992D01*
X134035081Y-119275228D01*
X134035079Y-119275228D01*
X134029911Y-119275165D01*
X133809091Y-119308955D01*
X133596756Y-119378357D01*
X133398607Y-119481507D01*
X133394474Y-119484610D01*
X133394471Y-119484612D01*
X133370247Y-119502800D01*
X133219965Y-119615635D01*
X133065629Y-119777138D01*
X132939743Y-119961680D01*
X132845688Y-120164305D01*
X132785989Y-120379570D01*
X132762251Y-120601695D01*
X119667446Y-120601695D01*
X119418566Y-120530800D01*
X119414324Y-120530196D01*
X119414318Y-120530195D01*
X119213834Y-120501662D01*
X119147443Y-120492213D01*
X119003589Y-120491460D01*
X118877877Y-120490802D01*
X118877871Y-120490802D01*
X118873591Y-120490780D01*
X118869347Y-120491339D01*
X118869343Y-120491339D01*
X118750302Y-120507011D01*
X118602078Y-120526525D01*
X118597938Y-120527658D01*
X118597936Y-120527658D01*
X118525008Y-120547609D01*
X118337928Y-120598788D01*
X118333980Y-120600472D01*
X118089982Y-120704546D01*
X118089978Y-120704548D01*
X118086030Y-120706232D01*
X118066125Y-120718145D01*
X117854725Y-120844664D01*
X117854721Y-120844667D01*
X117851043Y-120846868D01*
X117637318Y-121018094D01*
X117448808Y-121216742D01*
X117289002Y-121439136D01*
X117160857Y-121681161D01*
X117159385Y-121685184D01*
X117159383Y-121685188D01*
X117068214Y-121934317D01*
X117066743Y-121938337D01*
X117008404Y-122205907D01*
X116986917Y-122478918D01*
X116508500Y-122478918D01*
X116508500Y-117330000D01*
X125096496Y-117330000D01*
X125097186Y-117336565D01*
X125111082Y-117468774D01*
X125116458Y-117519928D01*
X125175473Y-117701556D01*
X125270960Y-117866944D01*
X125398747Y-118008866D01*
X125553248Y-118121118D01*
X125559276Y-118123802D01*
X125559278Y-118123803D01*
X125721681Y-118196109D01*
X125727712Y-118198794D01*
X125821112Y-118218647D01*
X125908056Y-118237128D01*
X125908061Y-118237128D01*
X125914513Y-118238500D01*
X126105487Y-118238500D01*
X126111939Y-118237128D01*
X126111944Y-118237128D01*
X126198888Y-118218647D01*
X126292288Y-118198794D01*
X126298319Y-118196109D01*
X126460722Y-118123803D01*
X126460724Y-118123802D01*
X126466752Y-118121118D01*
X126621253Y-118008866D01*
X126629236Y-118000000D01*
X147786496Y-118000000D01*
X147806458Y-118189928D01*
X147865473Y-118371556D01*
X147960960Y-118536944D01*
X148088747Y-118678866D01*
X148243248Y-118791118D01*
X148249276Y-118793802D01*
X148249278Y-118793803D01*
X148411681Y-118866109D01*
X148417712Y-118868794D01*
X148511112Y-118888647D01*
X148598056Y-118907128D01*
X148598061Y-118907128D01*
X148604513Y-118908500D01*
X148795487Y-118908500D01*
X148801939Y-118907128D01*
X148801944Y-118907128D01*
X148888888Y-118888647D01*
X148982288Y-118868794D01*
X148988319Y-118866109D01*
X149150722Y-118793803D01*
X149150724Y-118793802D01*
X149156752Y-118791118D01*
X149311253Y-118678866D01*
X149439040Y-118536944D01*
X149534527Y-118371556D01*
X149593542Y-118189928D01*
X149613504Y-118000000D01*
X149600035Y-117871852D01*
X149594232Y-117816635D01*
X149594232Y-117816633D01*
X149593542Y-117810072D01*
X149534527Y-117628444D01*
X149439040Y-117463056D01*
X149311253Y-117321134D01*
X149156752Y-117208882D01*
X149150724Y-117206198D01*
X149150722Y-117206197D01*
X148988319Y-117133891D01*
X148988318Y-117133891D01*
X148982288Y-117131206D01*
X148888888Y-117111353D01*
X148801944Y-117092872D01*
X148801939Y-117092872D01*
X148795487Y-117091500D01*
X148604513Y-117091500D01*
X148598061Y-117092872D01*
X148598056Y-117092872D01*
X148511112Y-117111353D01*
X148417712Y-117131206D01*
X148411682Y-117133891D01*
X148411681Y-117133891D01*
X148249278Y-117206197D01*
X148249276Y-117206198D01*
X148243248Y-117208882D01*
X148088747Y-117321134D01*
X147960960Y-117463056D01*
X147865473Y-117628444D01*
X147806458Y-117810072D01*
X147805768Y-117816633D01*
X147805768Y-117816635D01*
X147799965Y-117871852D01*
X147786496Y-118000000D01*
X126629236Y-118000000D01*
X126749040Y-117866944D01*
X126844527Y-117701556D01*
X126903542Y-117519928D01*
X126908919Y-117468774D01*
X126922814Y-117336565D01*
X126923504Y-117330000D01*
X126903542Y-117140072D01*
X126844527Y-116958444D01*
X126749040Y-116793056D01*
X126621253Y-116651134D01*
X126466752Y-116538882D01*
X126460724Y-116536198D01*
X126460722Y-116536197D01*
X126298319Y-116463891D01*
X126298318Y-116463891D01*
X126292288Y-116461206D01*
X126198887Y-116441353D01*
X126111944Y-116422872D01*
X126111939Y-116422872D01*
X126105487Y-116421500D01*
X125914513Y-116421500D01*
X125908061Y-116422872D01*
X125908056Y-116422872D01*
X125821113Y-116441353D01*
X125727712Y-116461206D01*
X125721682Y-116463891D01*
X125721681Y-116463891D01*
X125559278Y-116536197D01*
X125559276Y-116536198D01*
X125553248Y-116538882D01*
X125398747Y-116651134D01*
X125270960Y-116793056D01*
X125175473Y-116958444D01*
X125116458Y-117140072D01*
X125096496Y-117330000D01*
X116508500Y-117330000D01*
X116508500Y-114900000D01*
X131676496Y-114900000D01*
X131696458Y-115089928D01*
X131755473Y-115271556D01*
X131758776Y-115277278D01*
X131758777Y-115277279D01*
X131776130Y-115307335D01*
X131850960Y-115436944D01*
X131855378Y-115441851D01*
X131855379Y-115441852D01*
X131915733Y-115508882D01*
X131978747Y-115578866D01*
X132133248Y-115691118D01*
X132139276Y-115693802D01*
X132139278Y-115693803D01*
X132294824Y-115763056D01*
X132307712Y-115768794D01*
X132401113Y-115788647D01*
X132488056Y-115807128D01*
X132488061Y-115807128D01*
X132494513Y-115808500D01*
X132685487Y-115808500D01*
X132691939Y-115807128D01*
X132691944Y-115807128D01*
X132778887Y-115788647D01*
X132872288Y-115768794D01*
X132885176Y-115763056D01*
X133040722Y-115693803D01*
X133040724Y-115693802D01*
X133046752Y-115691118D01*
X133201253Y-115578866D01*
X133264267Y-115508882D01*
X133324621Y-115441852D01*
X133324622Y-115441851D01*
X133329040Y-115436944D01*
X133403870Y-115307335D01*
X133421223Y-115277279D01*
X133421224Y-115277278D01*
X133424527Y-115271556D01*
X133483542Y-115089928D01*
X133503504Y-114900000D01*
X133483542Y-114710072D01*
X133424527Y-114528444D01*
X133350370Y-114400000D01*
X136996496Y-114400000D01*
X137016458Y-114589928D01*
X137075473Y-114771556D01*
X137078776Y-114777278D01*
X137078777Y-114777279D01*
X137086080Y-114789928D01*
X137170960Y-114936944D01*
X137298747Y-115078866D01*
X137453248Y-115191118D01*
X137459276Y-115193802D01*
X137459278Y-115193803D01*
X137619799Y-115265271D01*
X137627712Y-115268794D01*
X137693365Y-115282749D01*
X137808056Y-115307128D01*
X137808061Y-115307128D01*
X137814513Y-115308500D01*
X138005487Y-115308500D01*
X138011939Y-115307128D01*
X138011944Y-115307128D01*
X138045478Y-115300000D01*
X140061996Y-115300000D01*
X140062686Y-115306565D01*
X140080554Y-115476565D01*
X140081958Y-115489928D01*
X140140973Y-115671556D01*
X140236460Y-115836944D01*
X140240878Y-115841851D01*
X140240879Y-115841852D01*
X140313694Y-115922721D01*
X140364247Y-115978866D01*
X140518748Y-116091118D01*
X140524776Y-116093802D01*
X140524778Y-116093803D01*
X140657174Y-116152749D01*
X140693212Y-116168794D01*
X140877962Y-116208064D01*
X140880013Y-116208500D01*
X140879933Y-116208875D01*
X140942072Y-116234443D01*
X140982701Y-116292665D01*
X140988552Y-116319565D01*
X141006458Y-116489928D01*
X141065473Y-116671556D01*
X141160960Y-116836944D01*
X141288747Y-116978866D01*
X141443248Y-117091118D01*
X141449276Y-117093802D01*
X141449278Y-117093803D01*
X141611681Y-117166109D01*
X141617712Y-117168794D01*
X141711113Y-117188647D01*
X141798056Y-117207128D01*
X141798061Y-117207128D01*
X141804513Y-117208500D01*
X141995487Y-117208500D01*
X142001939Y-117207128D01*
X142001944Y-117207128D01*
X142088887Y-117188647D01*
X142182288Y-117168794D01*
X142188319Y-117166109D01*
X142350722Y-117093803D01*
X142350724Y-117093802D01*
X142356752Y-117091118D01*
X142511253Y-116978866D01*
X142639040Y-116836944D01*
X142734527Y-116671556D01*
X142793542Y-116489928D01*
X142805254Y-116378500D01*
X142812814Y-116306565D01*
X142813504Y-116300000D01*
X142809417Y-116261118D01*
X142794232Y-116116635D01*
X142794232Y-116116633D01*
X142793542Y-116110072D01*
X142734527Y-115928444D01*
X142639040Y-115763056D01*
X142576685Y-115693803D01*
X142515675Y-115626045D01*
X142515674Y-115626044D01*
X142511253Y-115621134D01*
X142412157Y-115549136D01*
X142362094Y-115512763D01*
X142362093Y-115512762D01*
X142356752Y-115508882D01*
X142350724Y-115506198D01*
X142350722Y-115506197D01*
X142269422Y-115470000D01*
X143576496Y-115470000D01*
X143577186Y-115476565D01*
X143592381Y-115621134D01*
X143596458Y-115659928D01*
X143655473Y-115841556D01*
X143750960Y-116006944D01*
X143755378Y-116011851D01*
X143755379Y-116011852D01*
X143829168Y-116093803D01*
X143878747Y-116148866D01*
X144033248Y-116261118D01*
X144039276Y-116263802D01*
X144039278Y-116263803D01*
X144135324Y-116306565D01*
X144207712Y-116338794D01*
X144301112Y-116358647D01*
X144388056Y-116377128D01*
X144388061Y-116377128D01*
X144394513Y-116378500D01*
X144585487Y-116378500D01*
X144591939Y-116377128D01*
X144591944Y-116377128D01*
X144678888Y-116358647D01*
X144772288Y-116338794D01*
X144844676Y-116306565D01*
X144940722Y-116263803D01*
X144940724Y-116263802D01*
X144946752Y-116261118D01*
X145101253Y-116148866D01*
X145150832Y-116093803D01*
X145224621Y-116011852D01*
X145224622Y-116011851D01*
X145229040Y-116006944D01*
X145324527Y-115841556D01*
X145383542Y-115659928D01*
X145387103Y-115626045D01*
X145397075Y-115531172D01*
X145424088Y-115465515D01*
X145471135Y-115429237D01*
X145556752Y-115391118D01*
X145711253Y-115278866D01*
X145720322Y-115268794D01*
X145834621Y-115141852D01*
X145834622Y-115141851D01*
X145839040Y-115136944D01*
X145934527Y-114971556D01*
X145993542Y-114789928D01*
X145994872Y-114777279D01*
X146012814Y-114606565D01*
X146013504Y-114600000D01*
X146003645Y-114506197D01*
X145994232Y-114416635D01*
X145994232Y-114416633D01*
X145993542Y-114410072D01*
X145934527Y-114228444D01*
X145839040Y-114063056D01*
X145711253Y-113921134D01*
X145556752Y-113808882D01*
X145550724Y-113806198D01*
X145550722Y-113806197D01*
X145388319Y-113733891D01*
X145388318Y-113733891D01*
X145382288Y-113731206D01*
X145288887Y-113711353D01*
X145201944Y-113692872D01*
X145201939Y-113692872D01*
X145195487Y-113691500D01*
X145004513Y-113691500D01*
X144998061Y-113692872D01*
X144998056Y-113692872D01*
X144911113Y-113711353D01*
X144817712Y-113731206D01*
X144811682Y-113733891D01*
X144811681Y-113733891D01*
X144649278Y-113806197D01*
X144649276Y-113806198D01*
X144643248Y-113808882D01*
X144488747Y-113921134D01*
X144360960Y-114063056D01*
X144265473Y-114228444D01*
X144206458Y-114410072D01*
X144205768Y-114416633D01*
X144205768Y-114416635D01*
X144192925Y-114538828D01*
X144165912Y-114604485D01*
X144118865Y-114640763D01*
X144033248Y-114678882D01*
X143878747Y-114791134D01*
X143874326Y-114796044D01*
X143874325Y-114796045D01*
X143760266Y-114922721D01*
X143750960Y-114933056D01*
X143747659Y-114938774D01*
X143664535Y-115082749D01*
X143655473Y-115098444D01*
X143596458Y-115280072D01*
X143595768Y-115286633D01*
X143595768Y-115286635D01*
X143584701Y-115391936D01*
X143576496Y-115470000D01*
X142269422Y-115470000D01*
X142188319Y-115433891D01*
X142188318Y-115433891D01*
X142182288Y-115431206D01*
X141995487Y-115391500D01*
X141995567Y-115391125D01*
X141933428Y-115365557D01*
X141892799Y-115307335D01*
X141886947Y-115280432D01*
X141886910Y-115280072D01*
X141871866Y-115136944D01*
X141869732Y-115116635D01*
X141869732Y-115116633D01*
X141869042Y-115110072D01*
X141810027Y-114928444D01*
X141714540Y-114763056D01*
X141672743Y-114716635D01*
X141591175Y-114626045D01*
X141591174Y-114626044D01*
X141586753Y-114621134D01*
X141432252Y-114508882D01*
X141426224Y-114506198D01*
X141426222Y-114506197D01*
X141263819Y-114433891D01*
X141263818Y-114433891D01*
X141257788Y-114431206D01*
X141141862Y-114406565D01*
X141077444Y-114392872D01*
X141077439Y-114392872D01*
X141070987Y-114391500D01*
X140880013Y-114391500D01*
X140873561Y-114392872D01*
X140873556Y-114392872D01*
X140809138Y-114406565D01*
X140693212Y-114431206D01*
X140687182Y-114433891D01*
X140687181Y-114433891D01*
X140524778Y-114506197D01*
X140524776Y-114506198D01*
X140518748Y-114508882D01*
X140364247Y-114621134D01*
X140359826Y-114626044D01*
X140359825Y-114626045D01*
X140278258Y-114716635D01*
X140236460Y-114763056D01*
X140140973Y-114928444D01*
X140081958Y-115110072D01*
X140081268Y-115116633D01*
X140081268Y-115116635D01*
X140078618Y-115141852D01*
X140061996Y-115300000D01*
X138045478Y-115300000D01*
X138126635Y-115282749D01*
X138192288Y-115268794D01*
X138200201Y-115265271D01*
X138360722Y-115193803D01*
X138360724Y-115193802D01*
X138366752Y-115191118D01*
X138521253Y-115078866D01*
X138649040Y-114936944D01*
X138733920Y-114789928D01*
X138741223Y-114777279D01*
X138741224Y-114777278D01*
X138744527Y-114771556D01*
X138803542Y-114589928D01*
X138823504Y-114400000D01*
X138805221Y-114226045D01*
X138804232Y-114216635D01*
X138804232Y-114216633D01*
X138803542Y-114210072D01*
X138744527Y-114028444D01*
X138723990Y-113992872D01*
X138682571Y-113921134D01*
X138649040Y-113863056D01*
X138532740Y-113733891D01*
X138525675Y-113726045D01*
X138525674Y-113726044D01*
X138521253Y-113721134D01*
X138366752Y-113608882D01*
X138360724Y-113606198D01*
X138360722Y-113606197D01*
X138198319Y-113533891D01*
X138198318Y-113533891D01*
X138192288Y-113531206D01*
X138098888Y-113511353D01*
X138011944Y-113492872D01*
X138011939Y-113492872D01*
X138005487Y-113491500D01*
X137814513Y-113491500D01*
X137808061Y-113492872D01*
X137808056Y-113492872D01*
X137721112Y-113511353D01*
X137627712Y-113531206D01*
X137621682Y-113533891D01*
X137621681Y-113533891D01*
X137459278Y-113606197D01*
X137459276Y-113606198D01*
X137453248Y-113608882D01*
X137298747Y-113721134D01*
X137294326Y-113726044D01*
X137294325Y-113726045D01*
X137287261Y-113733891D01*
X137170960Y-113863056D01*
X137137429Y-113921134D01*
X137096011Y-113992872D01*
X137075473Y-114028444D01*
X137016458Y-114210072D01*
X137015768Y-114216633D01*
X137015768Y-114216635D01*
X137014779Y-114226045D01*
X136996496Y-114400000D01*
X133350370Y-114400000D01*
X133329040Y-114363056D01*
X133201253Y-114221134D01*
X133046752Y-114108882D01*
X133040724Y-114106198D01*
X133040722Y-114106197D01*
X132878319Y-114033891D01*
X132878318Y-114033891D01*
X132872288Y-114031206D01*
X132778888Y-114011353D01*
X132691944Y-113992872D01*
X132691939Y-113992872D01*
X132685487Y-113991500D01*
X132494513Y-113991500D01*
X132488061Y-113992872D01*
X132488056Y-113992872D01*
X132401112Y-114011353D01*
X132307712Y-114031206D01*
X132301682Y-114033891D01*
X132301681Y-114033891D01*
X132139278Y-114106197D01*
X132139276Y-114106198D01*
X132133248Y-114108882D01*
X131978747Y-114221134D01*
X131850960Y-114363056D01*
X131755473Y-114528444D01*
X131696458Y-114710072D01*
X131676496Y-114900000D01*
X116508500Y-114900000D01*
X116508500Y-110040000D01*
X127476496Y-110040000D01*
X127477186Y-110046565D01*
X127495243Y-110218365D01*
X127496458Y-110229928D01*
X127555473Y-110411556D01*
X127650960Y-110576944D01*
X127778747Y-110718866D01*
X127933248Y-110831118D01*
X127939276Y-110833802D01*
X127939278Y-110833803D01*
X128099563Y-110905166D01*
X128107712Y-110908794D01*
X128201112Y-110928647D01*
X128288056Y-110947128D01*
X128288061Y-110947128D01*
X128294513Y-110948500D01*
X128485487Y-110948500D01*
X128491939Y-110947128D01*
X128491944Y-110947128D01*
X128578888Y-110928647D01*
X128672288Y-110908794D01*
X128680437Y-110905166D01*
X128840722Y-110833803D01*
X128840724Y-110833802D01*
X128846752Y-110831118D01*
X129001253Y-110718866D01*
X129129040Y-110576944D01*
X129224527Y-110411556D01*
X129283542Y-110229928D01*
X129284758Y-110218365D01*
X129302814Y-110046565D01*
X129303504Y-110040000D01*
X129302978Y-110035000D01*
X135281496Y-110035000D01*
X135301458Y-110224928D01*
X135360473Y-110406556D01*
X135455960Y-110571944D01*
X135583747Y-110713866D01*
X135738248Y-110826118D01*
X135744276Y-110828802D01*
X135744278Y-110828803D01*
X135906681Y-110901109D01*
X135912712Y-110903794D01*
X136006112Y-110923647D01*
X136093056Y-110942128D01*
X136093061Y-110942128D01*
X136099513Y-110943500D01*
X136290487Y-110943500D01*
X136296939Y-110942128D01*
X136296944Y-110942128D01*
X136383888Y-110923647D01*
X136477288Y-110903794D01*
X136483319Y-110901109D01*
X136645722Y-110828803D01*
X136645724Y-110828802D01*
X136651752Y-110826118D01*
X136806253Y-110713866D01*
X136934040Y-110571944D01*
X137029527Y-110406556D01*
X137088542Y-110224928D01*
X137101672Y-110100000D01*
X143926496Y-110100000D01*
X143927186Y-110106565D01*
X143938937Y-110218365D01*
X143946458Y-110289928D01*
X144005473Y-110471556D01*
X144100960Y-110636944D01*
X144228747Y-110778866D01*
X144383248Y-110891118D01*
X144389276Y-110893802D01*
X144389278Y-110893803D01*
X144551681Y-110966109D01*
X144557712Y-110968794D01*
X144651112Y-110988647D01*
X144738056Y-111007128D01*
X144738061Y-111007128D01*
X144744513Y-111008500D01*
X144935487Y-111008500D01*
X144941939Y-111007128D01*
X144941944Y-111007128D01*
X145028888Y-110988647D01*
X145122288Y-110968794D01*
X145128319Y-110966109D01*
X145290722Y-110893803D01*
X145290724Y-110893802D01*
X145296752Y-110891118D01*
X145451253Y-110778866D01*
X145579040Y-110636944D01*
X145674527Y-110471556D01*
X145733542Y-110289928D01*
X145741064Y-110218365D01*
X145752814Y-110106565D01*
X145753504Y-110100000D01*
X145733542Y-109910072D01*
X145674527Y-109728444D01*
X145671223Y-109722721D01*
X145668539Y-109716693D01*
X145670597Y-109715777D01*
X145656308Y-109656895D01*
X145679524Y-109589801D01*
X145688517Y-109578586D01*
X145789040Y-109466944D01*
X145884527Y-109301556D01*
X145943542Y-109119928D01*
X145963504Y-108930000D01*
X145962453Y-108920000D01*
X150546496Y-108920000D01*
X150566458Y-109109928D01*
X150625473Y-109291556D01*
X150628776Y-109297278D01*
X150628777Y-109297279D01*
X150634551Y-109307279D01*
X150720960Y-109456944D01*
X150725378Y-109461851D01*
X150725379Y-109461852D01*
X150821652Y-109568774D01*
X150848747Y-109598866D01*
X150862511Y-109608866D01*
X150984143Y-109697237D01*
X151003248Y-109711118D01*
X151009276Y-109713802D01*
X151009278Y-109713803D01*
X151158333Y-109780166D01*
X151177712Y-109788794D01*
X151271113Y-109808647D01*
X151358056Y-109827128D01*
X151358061Y-109827128D01*
X151364513Y-109828500D01*
X151555487Y-109828500D01*
X151561939Y-109827128D01*
X151561944Y-109827128D01*
X151648887Y-109808647D01*
X151742288Y-109788794D01*
X151761667Y-109780166D01*
X151910722Y-109713803D01*
X151910724Y-109713802D01*
X151916752Y-109711118D01*
X151935858Y-109697237D01*
X152057489Y-109608866D01*
X152071253Y-109598866D01*
X152098348Y-109568774D01*
X152194621Y-109461852D01*
X152194622Y-109461851D01*
X152199040Y-109456944D01*
X152285449Y-109307279D01*
X152291223Y-109297279D01*
X152291224Y-109297278D01*
X152294527Y-109291556D01*
X152353542Y-109109928D01*
X152373504Y-108920000D01*
X152372453Y-108910000D01*
X153226496Y-108910000D01*
X153246458Y-109099928D01*
X153305473Y-109281556D01*
X153308776Y-109287278D01*
X153308777Y-109287279D01*
X153313391Y-109295271D01*
X153400960Y-109446944D01*
X153405378Y-109451851D01*
X153405379Y-109451852D01*
X153510656Y-109568774D01*
X153528747Y-109588866D01*
X153683248Y-109701118D01*
X153689276Y-109703802D01*
X153689278Y-109703803D01*
X153851681Y-109776109D01*
X153857712Y-109778794D01*
X153951113Y-109798647D01*
X154038056Y-109817128D01*
X154038061Y-109817128D01*
X154044513Y-109818500D01*
X154235487Y-109818500D01*
X154241939Y-109817128D01*
X154241944Y-109817128D01*
X154328887Y-109798647D01*
X154422288Y-109778794D01*
X154428319Y-109776109D01*
X154590722Y-109703803D01*
X154590724Y-109703802D01*
X154596752Y-109701118D01*
X154751253Y-109588866D01*
X154769344Y-109568774D01*
X154874621Y-109451852D01*
X154874622Y-109451851D01*
X154879040Y-109446944D01*
X154966609Y-109295271D01*
X154971223Y-109287279D01*
X154971224Y-109287278D01*
X154974527Y-109281556D01*
X155033542Y-109099928D01*
X155053504Y-108910000D01*
X155034984Y-108733794D01*
X155034232Y-108726635D01*
X155034232Y-108726633D01*
X155033542Y-108720072D01*
X154974527Y-108538444D01*
X154879040Y-108373056D01*
X154751253Y-108231134D01*
X154620584Y-108136197D01*
X154602094Y-108122763D01*
X154602093Y-108122762D01*
X154596752Y-108118882D01*
X154590724Y-108116198D01*
X154590722Y-108116197D01*
X154428319Y-108043891D01*
X154428318Y-108043891D01*
X154422288Y-108041206D01*
X154328888Y-108021353D01*
X154241944Y-108002872D01*
X154241939Y-108002872D01*
X154235487Y-108001500D01*
X154044513Y-108001500D01*
X154038061Y-108002872D01*
X154038056Y-108002872D01*
X153951112Y-108021353D01*
X153857712Y-108041206D01*
X153851682Y-108043891D01*
X153851681Y-108043891D01*
X153689278Y-108116197D01*
X153689276Y-108116198D01*
X153683248Y-108118882D01*
X153677907Y-108122762D01*
X153677906Y-108122763D01*
X153659416Y-108136197D01*
X153528747Y-108231134D01*
X153400960Y-108373056D01*
X153305473Y-108538444D01*
X153246458Y-108720072D01*
X153245768Y-108726633D01*
X153245768Y-108726635D01*
X153245016Y-108733794D01*
X153226496Y-108910000D01*
X152372453Y-108910000D01*
X152353542Y-108730072D01*
X152294527Y-108548444D01*
X152288754Y-108538444D01*
X152208115Y-108398774D01*
X152199040Y-108383056D01*
X152071253Y-108241134D01*
X151972157Y-108169136D01*
X151922094Y-108132763D01*
X151922093Y-108132762D01*
X151916752Y-108128882D01*
X151910724Y-108126198D01*
X151910722Y-108126197D01*
X151748319Y-108053891D01*
X151748318Y-108053891D01*
X151742288Y-108051206D01*
X151631349Y-108027625D01*
X151561944Y-108012872D01*
X151561939Y-108012872D01*
X151555487Y-108011500D01*
X151364513Y-108011500D01*
X151358061Y-108012872D01*
X151358056Y-108012872D01*
X151288651Y-108027625D01*
X151177712Y-108051206D01*
X151171682Y-108053891D01*
X151171681Y-108053891D01*
X151009278Y-108126197D01*
X151009276Y-108126198D01*
X151003248Y-108128882D01*
X150997907Y-108132762D01*
X150997906Y-108132763D01*
X150947843Y-108169136D01*
X150848747Y-108241134D01*
X150720960Y-108383056D01*
X150711885Y-108398774D01*
X150631247Y-108538444D01*
X150625473Y-108548444D01*
X150566458Y-108730072D01*
X150546496Y-108920000D01*
X145962453Y-108920000D01*
X145943542Y-108740072D01*
X145884527Y-108558444D01*
X145878754Y-108548444D01*
X145805273Y-108421173D01*
X145789040Y-108393056D01*
X145776181Y-108378774D01*
X145665675Y-108256045D01*
X145665674Y-108256044D01*
X145661253Y-108251134D01*
X145506752Y-108138882D01*
X145500724Y-108136198D01*
X145500722Y-108136197D01*
X145338319Y-108063891D01*
X145338318Y-108063891D01*
X145332288Y-108061206D01*
X145238196Y-108041206D01*
X145151944Y-108022872D01*
X145151939Y-108022872D01*
X145145487Y-108021500D01*
X144954513Y-108021500D01*
X144948061Y-108022872D01*
X144948056Y-108022872D01*
X144861804Y-108041206D01*
X144767712Y-108061206D01*
X144761682Y-108063891D01*
X144761681Y-108063891D01*
X144599278Y-108136197D01*
X144599276Y-108136198D01*
X144593248Y-108138882D01*
X144438747Y-108251134D01*
X144434326Y-108256044D01*
X144434325Y-108256045D01*
X144323820Y-108378774D01*
X144310960Y-108393056D01*
X144294727Y-108421173D01*
X144221247Y-108548444D01*
X144215473Y-108558444D01*
X144156458Y-108740072D01*
X144136496Y-108930000D01*
X144156458Y-109119928D01*
X144215473Y-109301556D01*
X144218777Y-109307279D01*
X144221461Y-109313307D01*
X144219403Y-109314223D01*
X144233692Y-109373105D01*
X144210476Y-109440199D01*
X144201483Y-109451414D01*
X144100960Y-109563056D01*
X144080285Y-109598866D01*
X144019700Y-109703803D01*
X144005473Y-109728444D01*
X143946458Y-109910072D01*
X143926496Y-110100000D01*
X137101672Y-110100000D01*
X137108504Y-110035000D01*
X137107814Y-110028435D01*
X137089232Y-109851635D01*
X137089232Y-109851633D01*
X137088542Y-109845072D01*
X137029527Y-109663444D01*
X136934040Y-109498056D01*
X136910442Y-109471847D01*
X136810675Y-109361045D01*
X136810674Y-109361044D01*
X136806253Y-109356134D01*
X136651752Y-109243882D01*
X136645724Y-109241198D01*
X136645722Y-109241197D01*
X136483319Y-109168891D01*
X136483318Y-109168891D01*
X136477288Y-109166206D01*
X136383888Y-109146353D01*
X136296944Y-109127872D01*
X136296939Y-109127872D01*
X136290487Y-109126500D01*
X136099513Y-109126500D01*
X136093061Y-109127872D01*
X136093056Y-109127872D01*
X136006113Y-109146353D01*
X135912712Y-109166206D01*
X135906682Y-109168891D01*
X135906681Y-109168891D01*
X135744278Y-109241197D01*
X135744276Y-109241198D01*
X135738248Y-109243882D01*
X135583747Y-109356134D01*
X135579326Y-109361044D01*
X135579325Y-109361045D01*
X135479559Y-109471847D01*
X135455960Y-109498056D01*
X135360473Y-109663444D01*
X135301458Y-109845072D01*
X135300768Y-109851633D01*
X135300768Y-109851635D01*
X135282186Y-110028435D01*
X135281496Y-110035000D01*
X129302978Y-110035000D01*
X129283542Y-109850072D01*
X129224527Y-109668444D01*
X129129040Y-109503056D01*
X129072444Y-109440199D01*
X129005675Y-109366045D01*
X129005674Y-109366044D01*
X129001253Y-109361134D01*
X128846752Y-109248882D01*
X128840724Y-109246198D01*
X128840722Y-109246197D01*
X128678319Y-109173891D01*
X128678318Y-109173891D01*
X128672288Y-109171206D01*
X128578887Y-109151353D01*
X128491944Y-109132872D01*
X128491939Y-109132872D01*
X128485487Y-109131500D01*
X128294513Y-109131500D01*
X128288061Y-109132872D01*
X128288056Y-109132872D01*
X128201112Y-109151353D01*
X128107712Y-109171206D01*
X128101682Y-109173891D01*
X128101681Y-109173891D01*
X127939278Y-109246197D01*
X127939276Y-109246198D01*
X127933248Y-109248882D01*
X127778747Y-109361134D01*
X127774326Y-109366044D01*
X127774325Y-109366045D01*
X127707557Y-109440199D01*
X127650960Y-109503056D01*
X127555473Y-109668444D01*
X127496458Y-109850072D01*
X127476496Y-110040000D01*
X116508500Y-110040000D01*
X116508500Y-108910000D01*
X138916496Y-108910000D01*
X138936458Y-109099928D01*
X138995473Y-109281556D01*
X138998776Y-109287278D01*
X138998777Y-109287279D01*
X139003391Y-109295271D01*
X139090960Y-109446944D01*
X139095378Y-109451851D01*
X139095379Y-109451852D01*
X139200656Y-109568774D01*
X139218747Y-109588866D01*
X139373248Y-109701118D01*
X139379276Y-109703802D01*
X139379278Y-109703803D01*
X139541681Y-109776109D01*
X139547712Y-109778794D01*
X139641113Y-109798647D01*
X139728056Y-109817128D01*
X139728061Y-109817128D01*
X139734513Y-109818500D01*
X139925487Y-109818500D01*
X139931939Y-109817128D01*
X139931944Y-109817128D01*
X140018887Y-109798647D01*
X140112288Y-109778794D01*
X140118319Y-109776109D01*
X140280722Y-109703803D01*
X140280724Y-109703802D01*
X140286752Y-109701118D01*
X140441253Y-109588866D01*
X140459344Y-109568774D01*
X140564621Y-109451852D01*
X140564622Y-109451851D01*
X140569040Y-109446944D01*
X140656609Y-109295271D01*
X140661223Y-109287279D01*
X140661224Y-109287278D01*
X140664527Y-109281556D01*
X140723542Y-109099928D01*
X140743504Y-108910000D01*
X141326496Y-108910000D01*
X141346458Y-109099928D01*
X141405473Y-109281556D01*
X141408776Y-109287278D01*
X141408777Y-109287279D01*
X141413391Y-109295271D01*
X141500960Y-109446944D01*
X141505378Y-109451851D01*
X141505379Y-109451852D01*
X141610656Y-109568774D01*
X141628747Y-109588866D01*
X141783248Y-109701118D01*
X141789276Y-109703802D01*
X141789278Y-109703803D01*
X141951681Y-109776109D01*
X141957712Y-109778794D01*
X142051113Y-109798647D01*
X142138056Y-109817128D01*
X142138061Y-109817128D01*
X142144513Y-109818500D01*
X142335487Y-109818500D01*
X142341939Y-109817128D01*
X142341944Y-109817128D01*
X142428887Y-109798647D01*
X142522288Y-109778794D01*
X142528319Y-109776109D01*
X142690722Y-109703803D01*
X142690724Y-109703802D01*
X142696752Y-109701118D01*
X142851253Y-109588866D01*
X142869344Y-109568774D01*
X142974621Y-109451852D01*
X142974622Y-109451851D01*
X142979040Y-109446944D01*
X143066609Y-109295271D01*
X143071223Y-109287279D01*
X143071224Y-109287278D01*
X143074527Y-109281556D01*
X143133542Y-109099928D01*
X143153504Y-108910000D01*
X143134984Y-108733794D01*
X143134232Y-108726635D01*
X143134232Y-108726633D01*
X143133542Y-108720072D01*
X143074527Y-108538444D01*
X142979040Y-108373056D01*
X142851253Y-108231134D01*
X142720584Y-108136197D01*
X142702094Y-108122763D01*
X142702093Y-108122762D01*
X142696752Y-108118882D01*
X142690724Y-108116198D01*
X142690722Y-108116197D01*
X142528319Y-108043891D01*
X142528318Y-108043891D01*
X142522288Y-108041206D01*
X142428888Y-108021353D01*
X142341944Y-108002872D01*
X142341939Y-108002872D01*
X142335487Y-108001500D01*
X142144513Y-108001500D01*
X142138061Y-108002872D01*
X142138056Y-108002872D01*
X142051112Y-108021353D01*
X141957712Y-108041206D01*
X141951682Y-108043891D01*
X141951681Y-108043891D01*
X141789278Y-108116197D01*
X141789276Y-108116198D01*
X141783248Y-108118882D01*
X141777907Y-108122762D01*
X141777906Y-108122763D01*
X141759416Y-108136197D01*
X141628747Y-108231134D01*
X141500960Y-108373056D01*
X141405473Y-108538444D01*
X141346458Y-108720072D01*
X141345768Y-108726633D01*
X141345768Y-108726635D01*
X141345016Y-108733794D01*
X141326496Y-108910000D01*
X140743504Y-108910000D01*
X140724984Y-108733794D01*
X140724232Y-108726635D01*
X140724232Y-108726633D01*
X140723542Y-108720072D01*
X140664527Y-108538444D01*
X140569040Y-108373056D01*
X140441253Y-108231134D01*
X140310584Y-108136197D01*
X140292094Y-108122763D01*
X140292093Y-108122762D01*
X140286752Y-108118882D01*
X140280724Y-108116198D01*
X140280722Y-108116197D01*
X140118319Y-108043891D01*
X140118318Y-108043891D01*
X140112288Y-108041206D01*
X140018888Y-108021353D01*
X139931944Y-108002872D01*
X139931939Y-108002872D01*
X139925487Y-108001500D01*
X139734513Y-108001500D01*
X139728061Y-108002872D01*
X139728056Y-108002872D01*
X139641112Y-108021353D01*
X139547712Y-108041206D01*
X139541682Y-108043891D01*
X139541681Y-108043891D01*
X139379278Y-108116197D01*
X139379276Y-108116198D01*
X139373248Y-108118882D01*
X139367907Y-108122762D01*
X139367906Y-108122763D01*
X139349416Y-108136197D01*
X139218747Y-108231134D01*
X139090960Y-108373056D01*
X138995473Y-108538444D01*
X138936458Y-108720072D01*
X138935768Y-108726633D01*
X138935768Y-108726635D01*
X138935016Y-108733794D01*
X138916496Y-108910000D01*
X116508500Y-108910000D01*
X116508500Y-107346695D01*
X117037251Y-107346695D01*
X117037548Y-107351848D01*
X117037548Y-107351851D01*
X117043011Y-107446590D01*
X117050110Y-107569715D01*
X117051247Y-107574761D01*
X117051248Y-107574767D01*
X117071119Y-107662939D01*
X117099222Y-107787639D01*
X117183266Y-107994616D01*
X117223232Y-108059834D01*
X117297291Y-108180688D01*
X117299987Y-108185088D01*
X117446250Y-108353938D01*
X117618126Y-108496632D01*
X117811000Y-108609338D01*
X118019692Y-108689030D01*
X118024760Y-108690061D01*
X118024763Y-108690062D01*
X118132017Y-108711883D01*
X118238597Y-108733567D01*
X118243772Y-108733757D01*
X118243774Y-108733757D01*
X118456673Y-108741564D01*
X118456677Y-108741564D01*
X118461837Y-108741753D01*
X118466957Y-108741097D01*
X118466959Y-108741097D01*
X118678288Y-108714025D01*
X118678289Y-108714025D01*
X118683416Y-108713368D01*
X118688366Y-108711883D01*
X118892429Y-108650661D01*
X118892434Y-108650659D01*
X118897384Y-108649174D01*
X119097994Y-108550896D01*
X119279860Y-108421173D01*
X119302338Y-108398774D01*
X119434435Y-108267137D01*
X119438096Y-108263489D01*
X119457817Y-108236045D01*
X119568453Y-108082077D01*
X119569776Y-108083028D01*
X119616645Y-108039857D01*
X119686580Y-108027625D01*
X119752026Y-108055144D01*
X119779875Y-108086994D01*
X119839987Y-108185088D01*
X119986250Y-108353938D01*
X120158126Y-108496632D01*
X120351000Y-108609338D01*
X120559692Y-108689030D01*
X120564760Y-108690061D01*
X120564763Y-108690062D01*
X120672017Y-108711883D01*
X120778597Y-108733567D01*
X120783772Y-108733757D01*
X120783774Y-108733757D01*
X120996673Y-108741564D01*
X120996677Y-108741564D01*
X121001837Y-108741753D01*
X121006957Y-108741097D01*
X121006959Y-108741097D01*
X121218288Y-108714025D01*
X121218289Y-108714025D01*
X121223416Y-108713368D01*
X121228366Y-108711883D01*
X121432429Y-108650661D01*
X121432434Y-108650659D01*
X121437384Y-108649174D01*
X121637994Y-108550896D01*
X121819860Y-108421173D01*
X121842338Y-108398774D01*
X121974435Y-108267137D01*
X121978096Y-108263489D01*
X121997817Y-108236045D01*
X122105435Y-108086277D01*
X122108453Y-108082077D01*
X122122384Y-108053891D01*
X122205136Y-107886453D01*
X122205137Y-107886451D01*
X122207430Y-107881811D01*
X122272370Y-107668069D01*
X122301529Y-107446590D01*
X122303156Y-107380000D01*
X122300418Y-107346695D01*
X163737251Y-107346695D01*
X163737548Y-107351848D01*
X163737548Y-107351851D01*
X163743011Y-107446590D01*
X163750110Y-107569715D01*
X163751247Y-107574761D01*
X163751248Y-107574767D01*
X163771119Y-107662939D01*
X163799222Y-107787639D01*
X163883266Y-107994616D01*
X163923232Y-108059834D01*
X163997291Y-108180688D01*
X163999987Y-108185088D01*
X164146250Y-108353938D01*
X164318126Y-108496632D01*
X164511000Y-108609338D01*
X164719692Y-108689030D01*
X164724760Y-108690061D01*
X164724763Y-108690062D01*
X164832017Y-108711883D01*
X164938597Y-108733567D01*
X164943772Y-108733757D01*
X164943774Y-108733757D01*
X165156673Y-108741564D01*
X165156677Y-108741564D01*
X165161837Y-108741753D01*
X165166957Y-108741097D01*
X165166959Y-108741097D01*
X165378288Y-108714025D01*
X165378289Y-108714025D01*
X165383416Y-108713368D01*
X165388366Y-108711883D01*
X165592429Y-108650661D01*
X165592434Y-108650659D01*
X165597384Y-108649174D01*
X165797994Y-108550896D01*
X165979860Y-108421173D01*
X166002338Y-108398774D01*
X166134435Y-108267137D01*
X166138096Y-108263489D01*
X166157817Y-108236045D01*
X166268453Y-108082077D01*
X166269776Y-108083028D01*
X166316645Y-108039857D01*
X166386580Y-108027625D01*
X166452026Y-108055144D01*
X166479875Y-108086994D01*
X166539987Y-108185088D01*
X166686250Y-108353938D01*
X166858126Y-108496632D01*
X167051000Y-108609338D01*
X167259692Y-108689030D01*
X167264760Y-108690061D01*
X167264763Y-108690062D01*
X167372017Y-108711883D01*
X167478597Y-108733567D01*
X167483772Y-108733757D01*
X167483774Y-108733757D01*
X167696673Y-108741564D01*
X167696677Y-108741564D01*
X167701837Y-108741753D01*
X167706957Y-108741097D01*
X167706959Y-108741097D01*
X167918288Y-108714025D01*
X167918289Y-108714025D01*
X167923416Y-108713368D01*
X167928366Y-108711883D01*
X168132429Y-108650661D01*
X168132434Y-108650659D01*
X168137384Y-108649174D01*
X168337994Y-108550896D01*
X168519860Y-108421173D01*
X168542338Y-108398774D01*
X168674435Y-108267137D01*
X168678096Y-108263489D01*
X168697817Y-108236045D01*
X168805435Y-108086277D01*
X168808453Y-108082077D01*
X168822384Y-108053891D01*
X168905136Y-107886453D01*
X168905137Y-107886451D01*
X168907430Y-107881811D01*
X168972370Y-107668069D01*
X169001529Y-107446590D01*
X169003156Y-107380000D01*
X168984852Y-107157361D01*
X168930431Y-106940702D01*
X168841354Y-106735840D01*
X168720014Y-106548277D01*
X168569670Y-106383051D01*
X168565619Y-106379852D01*
X168565615Y-106379848D01*
X168398414Y-106247800D01*
X168398410Y-106247798D01*
X168394359Y-106244598D01*
X168353053Y-106221796D01*
X168303084Y-106171364D01*
X168288312Y-106101921D01*
X168313428Y-106035516D01*
X168340780Y-106008909D01*
X168384603Y-105977650D01*
X168519860Y-105881173D01*
X168678096Y-105723489D01*
X168808453Y-105542077D01*
X168821995Y-105514678D01*
X168905136Y-105346453D01*
X168905137Y-105346451D01*
X168907430Y-105341811D01*
X168972370Y-105128069D01*
X169001529Y-104906590D01*
X169003156Y-104840000D01*
X168984852Y-104617361D01*
X168930431Y-104400702D01*
X168841354Y-104195840D01*
X168720014Y-104008277D01*
X168569670Y-103843051D01*
X168565619Y-103839852D01*
X168565615Y-103839848D01*
X168398414Y-103707800D01*
X168398410Y-103707798D01*
X168394359Y-103704598D01*
X168353053Y-103681796D01*
X168303084Y-103631364D01*
X168288312Y-103561921D01*
X168313428Y-103495516D01*
X168340780Y-103468909D01*
X168384603Y-103437650D01*
X168519860Y-103341173D01*
X168678096Y-103183489D01*
X168737594Y-103100689D01*
X168805435Y-103006277D01*
X168808453Y-103002077D01*
X168829320Y-102959857D01*
X168905136Y-102806453D01*
X168905137Y-102806451D01*
X168907430Y-102801811D01*
X168972370Y-102588069D01*
X169001529Y-102366590D01*
X169003156Y-102300000D01*
X168984852Y-102077361D01*
X168930431Y-101860702D01*
X168841354Y-101655840D01*
X168720014Y-101468277D01*
X168569670Y-101303051D01*
X168565619Y-101299852D01*
X168565615Y-101299848D01*
X168398414Y-101167800D01*
X168398410Y-101167798D01*
X168394359Y-101164598D01*
X168353053Y-101141796D01*
X168303084Y-101091364D01*
X168288312Y-101021921D01*
X168313428Y-100955516D01*
X168340780Y-100928909D01*
X168384603Y-100897650D01*
X168519860Y-100801173D01*
X168678096Y-100643489D01*
X168737594Y-100560689D01*
X168805435Y-100466277D01*
X168808453Y-100462077D01*
X168829320Y-100419857D01*
X168905136Y-100266453D01*
X168905137Y-100266451D01*
X168907430Y-100261811D01*
X168972370Y-100048069D01*
X169001529Y-99826590D01*
X169003156Y-99760000D01*
X168984852Y-99537361D01*
X168930431Y-99320702D01*
X168841354Y-99115840D01*
X168720014Y-98928277D01*
X168569670Y-98763051D01*
X168565619Y-98759852D01*
X168565615Y-98759848D01*
X168398414Y-98627800D01*
X168398410Y-98627798D01*
X168394359Y-98624598D01*
X168353053Y-98601796D01*
X168303084Y-98551364D01*
X168288312Y-98481921D01*
X168313428Y-98415516D01*
X168340780Y-98388909D01*
X168384603Y-98357650D01*
X168519860Y-98261173D01*
X168678096Y-98103489D01*
X168737594Y-98020689D01*
X168805435Y-97926277D01*
X168808453Y-97922077D01*
X168829320Y-97879857D01*
X168905136Y-97726453D01*
X168905137Y-97726451D01*
X168907430Y-97721811D01*
X168972370Y-97508069D01*
X169001529Y-97286590D01*
X169003156Y-97220000D01*
X168984852Y-96997361D01*
X168930431Y-96780702D01*
X168841354Y-96575840D01*
X168720014Y-96388277D01*
X168569670Y-96223051D01*
X168565619Y-96219852D01*
X168565615Y-96219848D01*
X168398414Y-96087800D01*
X168398410Y-96087798D01*
X168394359Y-96084598D01*
X168353053Y-96061796D01*
X168303084Y-96011364D01*
X168288312Y-95941921D01*
X168313428Y-95875516D01*
X168340780Y-95848909D01*
X168384603Y-95817650D01*
X168519860Y-95721173D01*
X168678096Y-95563489D01*
X168737594Y-95480689D01*
X168805435Y-95386277D01*
X168808453Y-95382077D01*
X168829320Y-95339857D01*
X168905136Y-95186453D01*
X168905137Y-95186451D01*
X168907430Y-95181811D01*
X168972370Y-94968069D01*
X169001529Y-94746590D01*
X169003156Y-94680000D01*
X168984852Y-94457361D01*
X168930431Y-94240702D01*
X168841354Y-94035840D01*
X168720014Y-93848277D01*
X168569670Y-93683051D01*
X168565619Y-93679852D01*
X168565615Y-93679848D01*
X168398414Y-93547800D01*
X168398410Y-93547798D01*
X168394359Y-93544598D01*
X168353053Y-93521796D01*
X168303084Y-93471364D01*
X168288312Y-93401921D01*
X168313428Y-93335516D01*
X168340780Y-93308909D01*
X168384603Y-93277650D01*
X168519860Y-93181173D01*
X168678096Y-93023489D01*
X168737594Y-92940689D01*
X168805435Y-92846277D01*
X168808453Y-92842077D01*
X168829320Y-92799857D01*
X168905136Y-92646453D01*
X168905137Y-92646451D01*
X168907430Y-92641811D01*
X168972370Y-92428069D01*
X169001529Y-92206590D01*
X169001964Y-92188794D01*
X169003074Y-92143365D01*
X169003074Y-92143361D01*
X169003156Y-92140000D01*
X168984852Y-91917361D01*
X168930431Y-91700702D01*
X168841354Y-91495840D01*
X168720014Y-91308277D01*
X168569670Y-91143051D01*
X168565619Y-91139852D01*
X168565615Y-91139848D01*
X168398414Y-91007800D01*
X168398410Y-91007798D01*
X168394359Y-91004598D01*
X168353053Y-90981796D01*
X168303084Y-90931364D01*
X168288312Y-90861921D01*
X168313428Y-90795516D01*
X168340780Y-90768909D01*
X168384603Y-90737650D01*
X168519860Y-90641173D01*
X168528006Y-90633056D01*
X168620268Y-90541115D01*
X168678096Y-90483489D01*
X168702280Y-90449834D01*
X168805435Y-90306277D01*
X168808453Y-90302077D01*
X168828508Y-90261500D01*
X168905136Y-90106453D01*
X168905137Y-90106451D01*
X168907430Y-90101811D01*
X168972370Y-89888069D01*
X169001529Y-89666590D01*
X169003156Y-89600000D01*
X168984852Y-89377361D01*
X168930431Y-89160702D01*
X168841354Y-88955840D01*
X168720014Y-88768277D01*
X168569670Y-88603051D01*
X168565619Y-88599852D01*
X168565615Y-88599848D01*
X168398414Y-88467800D01*
X168398410Y-88467798D01*
X168394359Y-88464598D01*
X168198789Y-88356638D01*
X168193920Y-88354914D01*
X168193916Y-88354912D01*
X167993087Y-88283795D01*
X167993083Y-88283794D01*
X167988212Y-88282069D01*
X167983119Y-88281162D01*
X167983116Y-88281161D01*
X167773373Y-88243800D01*
X167773367Y-88243799D01*
X167768284Y-88242894D01*
X167694452Y-88241992D01*
X167550081Y-88240228D01*
X167550079Y-88240228D01*
X167544911Y-88240165D01*
X167324091Y-88273955D01*
X167111756Y-88343357D01*
X166913607Y-88446507D01*
X166909474Y-88449610D01*
X166909471Y-88449612D01*
X166739100Y-88577530D01*
X166734965Y-88580635D01*
X166678537Y-88639684D01*
X166654283Y-88665064D01*
X166592759Y-88700494D01*
X166521846Y-88697037D01*
X166464060Y-88655791D01*
X166445207Y-88622243D01*
X166403767Y-88511703D01*
X166400615Y-88503295D01*
X166313261Y-88386739D01*
X166196705Y-88299385D01*
X166060316Y-88248255D01*
X165998134Y-88241500D01*
X164201866Y-88241500D01*
X164139684Y-88248255D01*
X164003295Y-88299385D01*
X163886739Y-88386739D01*
X163799385Y-88503295D01*
X163748255Y-88639684D01*
X163741500Y-88701866D01*
X163741500Y-90498134D01*
X163748255Y-90560316D01*
X163799385Y-90696705D01*
X163886739Y-90813261D01*
X164003295Y-90900615D01*
X164011704Y-90903767D01*
X164011705Y-90903768D01*
X164120451Y-90944535D01*
X164177216Y-90987176D01*
X164201916Y-91053738D01*
X164186709Y-91123087D01*
X164167316Y-91149568D01*
X164040629Y-91282138D01*
X164037720Y-91286403D01*
X164037714Y-91286411D01*
X163992041Y-91353365D01*
X163914743Y-91466680D01*
X163894668Y-91509928D01*
X163845770Y-91615271D01*
X163820688Y-91669305D01*
X163760989Y-91884570D01*
X163737251Y-92106695D01*
X163737548Y-92111848D01*
X163737548Y-92111851D01*
X163743011Y-92206590D01*
X163750110Y-92329715D01*
X163751247Y-92334761D01*
X163751248Y-92334767D01*
X163771119Y-92422939D01*
X163799222Y-92547639D01*
X163883266Y-92754616D01*
X163934019Y-92837438D01*
X163997291Y-92940688D01*
X163999987Y-92945088D01*
X164146250Y-93113938D01*
X164318126Y-93256632D01*
X164388595Y-93297811D01*
X164391445Y-93299476D01*
X164440169Y-93351114D01*
X164453240Y-93420897D01*
X164426509Y-93486669D01*
X164386055Y-93520027D01*
X164373607Y-93526507D01*
X164369474Y-93529610D01*
X164369471Y-93529612D01*
X164345247Y-93547800D01*
X164194965Y-93660635D01*
X164040629Y-93822138D01*
X163914743Y-94006680D01*
X163820688Y-94209305D01*
X163760989Y-94424570D01*
X163737251Y-94646695D01*
X163737548Y-94651848D01*
X163737548Y-94651851D01*
X163743011Y-94746590D01*
X163750110Y-94869715D01*
X163751247Y-94874761D01*
X163751248Y-94874767D01*
X163771119Y-94962939D01*
X163799222Y-95087639D01*
X163883266Y-95294616D01*
X163934019Y-95377438D01*
X163997291Y-95480688D01*
X163999987Y-95485088D01*
X164146250Y-95653938D01*
X164318126Y-95796632D01*
X164388595Y-95837811D01*
X164391445Y-95839476D01*
X164440169Y-95891114D01*
X164453240Y-95960897D01*
X164426509Y-96026669D01*
X164386055Y-96060027D01*
X164373607Y-96066507D01*
X164369474Y-96069610D01*
X164369471Y-96069612D01*
X164345247Y-96087800D01*
X164194965Y-96200635D01*
X164040629Y-96362138D01*
X163914743Y-96546680D01*
X163820688Y-96749305D01*
X163760989Y-96964570D01*
X163737251Y-97186695D01*
X163737548Y-97191848D01*
X163737548Y-97191851D01*
X163743011Y-97286590D01*
X163750110Y-97409715D01*
X163751247Y-97414761D01*
X163751248Y-97414767D01*
X163771119Y-97502939D01*
X163799222Y-97627639D01*
X163883266Y-97834616D01*
X163934019Y-97917438D01*
X163997291Y-98020688D01*
X163999987Y-98025088D01*
X164146250Y-98193938D01*
X164318126Y-98336632D01*
X164388595Y-98377811D01*
X164391445Y-98379476D01*
X164440169Y-98431114D01*
X164453240Y-98500897D01*
X164426509Y-98566669D01*
X164386055Y-98600027D01*
X164373607Y-98606507D01*
X164369474Y-98609610D01*
X164369471Y-98609612D01*
X164345247Y-98627800D01*
X164194965Y-98740635D01*
X164040629Y-98902138D01*
X163914743Y-99086680D01*
X163820688Y-99289305D01*
X163760989Y-99504570D01*
X163737251Y-99726695D01*
X163737548Y-99731848D01*
X163737548Y-99731851D01*
X163743011Y-99826590D01*
X163750110Y-99949715D01*
X163751247Y-99954761D01*
X163751248Y-99954767D01*
X163771119Y-100042939D01*
X163799222Y-100167639D01*
X163883266Y-100374616D01*
X163934019Y-100457438D01*
X163997291Y-100560688D01*
X163999987Y-100565088D01*
X164146250Y-100733938D01*
X164318126Y-100876632D01*
X164388595Y-100917811D01*
X164391445Y-100919476D01*
X164440169Y-100971114D01*
X164453240Y-101040897D01*
X164426509Y-101106669D01*
X164386055Y-101140027D01*
X164373607Y-101146507D01*
X164369474Y-101149610D01*
X164369471Y-101149612D01*
X164345247Y-101167800D01*
X164194965Y-101280635D01*
X164040629Y-101442138D01*
X163914743Y-101626680D01*
X163820688Y-101829305D01*
X163760989Y-102044570D01*
X163737251Y-102266695D01*
X163737548Y-102271848D01*
X163737548Y-102271851D01*
X163743011Y-102366590D01*
X163750110Y-102489715D01*
X163751247Y-102494761D01*
X163751248Y-102494767D01*
X163771119Y-102582939D01*
X163799222Y-102707639D01*
X163883266Y-102914616D01*
X163934019Y-102997438D01*
X163997291Y-103100688D01*
X163999987Y-103105088D01*
X164146250Y-103273938D01*
X164222846Y-103337529D01*
X164306085Y-103406635D01*
X164318126Y-103416632D01*
X164391445Y-103459476D01*
X164391955Y-103459774D01*
X164440679Y-103511412D01*
X164453750Y-103581195D01*
X164427019Y-103646967D01*
X164386562Y-103680327D01*
X164378457Y-103684546D01*
X164369738Y-103690036D01*
X164199433Y-103817905D01*
X164191726Y-103824748D01*
X164044590Y-103978717D01*
X164038104Y-103986727D01*
X163918098Y-104162649D01*
X163913000Y-104171623D01*
X163823338Y-104364783D01*
X163819775Y-104374470D01*
X163764389Y-104574183D01*
X163765912Y-104582607D01*
X163778292Y-104586000D01*
X165228000Y-104586000D01*
X165296121Y-104606002D01*
X165342614Y-104659658D01*
X165354000Y-104712000D01*
X165354000Y-104968000D01*
X165333998Y-105036121D01*
X165280342Y-105082614D01*
X165228000Y-105094000D01*
X163783225Y-105094000D01*
X163769694Y-105097973D01*
X163768257Y-105107966D01*
X163798565Y-105242446D01*
X163801645Y-105252275D01*
X163881770Y-105449603D01*
X163886413Y-105458794D01*
X163997694Y-105640388D01*
X164003777Y-105648699D01*
X164143213Y-105809667D01*
X164150580Y-105816883D01*
X164314434Y-105952916D01*
X164322881Y-105958831D01*
X164391969Y-105999203D01*
X164440693Y-106050842D01*
X164453764Y-106120625D01*
X164427033Y-106186396D01*
X164386584Y-106219752D01*
X164373607Y-106226507D01*
X164369474Y-106229610D01*
X164369471Y-106229612D01*
X164307414Y-106276206D01*
X164194965Y-106360635D01*
X164040629Y-106522138D01*
X163914743Y-106706680D01*
X163820688Y-106909305D01*
X163760989Y-107124570D01*
X163737251Y-107346695D01*
X122300418Y-107346695D01*
X122284852Y-107157361D01*
X122230431Y-106940702D01*
X122141354Y-106735840D01*
X122020014Y-106548277D01*
X121869670Y-106383051D01*
X121865619Y-106379852D01*
X121865615Y-106379848D01*
X121698414Y-106247800D01*
X121698410Y-106247798D01*
X121694359Y-106244598D01*
X121653053Y-106221796D01*
X121603084Y-106171364D01*
X121588312Y-106101921D01*
X121596603Y-106080000D01*
X134456496Y-106080000D01*
X134457186Y-106086565D01*
X134473534Y-106242104D01*
X134476458Y-106269928D01*
X134535473Y-106451556D01*
X134630960Y-106616944D01*
X134635378Y-106621851D01*
X134635379Y-106621852D01*
X134715986Y-106711375D01*
X134758747Y-106758866D01*
X134913248Y-106871118D01*
X134919276Y-106873802D01*
X134919278Y-106873803D01*
X135081681Y-106946109D01*
X135087712Y-106948794D01*
X135181113Y-106968647D01*
X135268056Y-106987128D01*
X135268061Y-106987128D01*
X135274513Y-106988500D01*
X135465487Y-106988500D01*
X135471939Y-106987128D01*
X135471944Y-106987128D01*
X135558887Y-106968647D01*
X135652288Y-106948794D01*
X135658319Y-106946109D01*
X135820722Y-106873803D01*
X135820724Y-106873802D01*
X135826752Y-106871118D01*
X135981253Y-106758866D01*
X136024014Y-106711375D01*
X136104621Y-106621852D01*
X136104622Y-106621851D01*
X136109040Y-106616944D01*
X136204527Y-106451556D01*
X136263542Y-106269928D01*
X136266467Y-106242104D01*
X136282814Y-106086565D01*
X136283504Y-106080000D01*
X136263542Y-105890072D01*
X136204527Y-105708444D01*
X136109040Y-105543056D01*
X136083489Y-105514678D01*
X135985675Y-105406045D01*
X135985674Y-105406044D01*
X135981253Y-105401134D01*
X135826752Y-105288882D01*
X135820724Y-105286198D01*
X135820722Y-105286197D01*
X135658319Y-105213891D01*
X135658318Y-105213891D01*
X135652288Y-105211206D01*
X135558887Y-105191353D01*
X135471944Y-105172872D01*
X135471939Y-105172872D01*
X135465487Y-105171500D01*
X135274513Y-105171500D01*
X135268061Y-105172872D01*
X135268056Y-105172872D01*
X135181113Y-105191353D01*
X135087712Y-105211206D01*
X135081682Y-105213891D01*
X135081681Y-105213891D01*
X134919278Y-105286197D01*
X134919276Y-105286198D01*
X134913248Y-105288882D01*
X134758747Y-105401134D01*
X134754326Y-105406044D01*
X134754325Y-105406045D01*
X134656512Y-105514678D01*
X134630960Y-105543056D01*
X134535473Y-105708444D01*
X134476458Y-105890072D01*
X134456496Y-106080000D01*
X121596603Y-106080000D01*
X121613428Y-106035516D01*
X121640780Y-106008909D01*
X121684603Y-105977650D01*
X121819860Y-105881173D01*
X121978096Y-105723489D01*
X122108453Y-105542077D01*
X122121995Y-105514678D01*
X122205136Y-105346453D01*
X122205137Y-105346451D01*
X122207430Y-105341811D01*
X122272370Y-105128069D01*
X122301529Y-104906590D01*
X122303156Y-104840000D01*
X122284852Y-104617361D01*
X122230431Y-104400702D01*
X122141354Y-104195840D01*
X122020014Y-104008277D01*
X121869670Y-103843051D01*
X121865619Y-103839852D01*
X121865615Y-103839848D01*
X121698414Y-103707800D01*
X121698410Y-103707798D01*
X121694359Y-103704598D01*
X121653053Y-103681796D01*
X121603084Y-103631364D01*
X121594285Y-103590000D01*
X135746496Y-103590000D01*
X135747186Y-103596565D01*
X135758541Y-103704598D01*
X135766458Y-103779928D01*
X135825473Y-103961556D01*
X135828776Y-103967278D01*
X135828777Y-103967279D01*
X135850242Y-104004457D01*
X135920960Y-104126944D01*
X136048747Y-104268866D01*
X136203248Y-104381118D01*
X136209276Y-104383802D01*
X136209278Y-104383803D01*
X136258505Y-104405720D01*
X136377712Y-104458794D01*
X136471113Y-104478647D01*
X136558056Y-104497128D01*
X136558061Y-104497128D01*
X136564513Y-104498500D01*
X136755487Y-104498500D01*
X136761939Y-104497128D01*
X136761944Y-104497128D01*
X136848887Y-104478647D01*
X136942288Y-104458794D01*
X137061495Y-104405720D01*
X137110722Y-104383803D01*
X137110724Y-104383802D01*
X137116752Y-104381118D01*
X137271253Y-104268866D01*
X137399040Y-104126944D01*
X137469758Y-104004457D01*
X137491223Y-103967279D01*
X137491224Y-103967278D01*
X137494527Y-103961556D01*
X137553542Y-103779928D01*
X137561460Y-103704598D01*
X137572814Y-103596565D01*
X137573504Y-103590000D01*
X137565213Y-103511114D01*
X137554232Y-103406635D01*
X137554232Y-103406633D01*
X137553542Y-103400072D01*
X137494527Y-103218444D01*
X137399040Y-103053056D01*
X137353139Y-103002077D01*
X137275675Y-102916045D01*
X137275674Y-102916044D01*
X137271253Y-102911134D01*
X137116752Y-102798882D01*
X137110724Y-102796198D01*
X137110722Y-102796197D01*
X136948319Y-102723891D01*
X136948318Y-102723891D01*
X136942288Y-102721206D01*
X136848887Y-102701353D01*
X136761944Y-102682872D01*
X136761939Y-102682872D01*
X136755487Y-102681500D01*
X136564513Y-102681500D01*
X136558061Y-102682872D01*
X136558056Y-102682872D01*
X136471112Y-102701353D01*
X136377712Y-102721206D01*
X136371682Y-102723891D01*
X136371681Y-102723891D01*
X136209278Y-102796197D01*
X136209276Y-102796198D01*
X136203248Y-102798882D01*
X136048747Y-102911134D01*
X136044326Y-102916044D01*
X136044325Y-102916045D01*
X135966862Y-103002077D01*
X135920960Y-103053056D01*
X135825473Y-103218444D01*
X135766458Y-103400072D01*
X135765768Y-103406633D01*
X135765768Y-103406635D01*
X135754787Y-103511114D01*
X135746496Y-103590000D01*
X121594285Y-103590000D01*
X121588312Y-103561921D01*
X121613428Y-103495516D01*
X121640780Y-103468909D01*
X121684603Y-103437650D01*
X121819860Y-103341173D01*
X121978096Y-103183489D01*
X122037594Y-103100689D01*
X122105435Y-103006277D01*
X122108453Y-103002077D01*
X122129320Y-102959857D01*
X122205136Y-102806453D01*
X122205137Y-102806451D01*
X122207430Y-102801811D01*
X122272370Y-102588069D01*
X122301529Y-102366590D01*
X122303156Y-102300000D01*
X122284852Y-102077361D01*
X122230431Y-101860702D01*
X122141354Y-101655840D01*
X122020014Y-101468277D01*
X121869670Y-101303051D01*
X121865619Y-101299852D01*
X121865615Y-101299848D01*
X121698414Y-101167800D01*
X121698410Y-101167798D01*
X121694359Y-101164598D01*
X121653053Y-101141796D01*
X121603084Y-101091364D01*
X121588312Y-101021921D01*
X121613428Y-100955516D01*
X121640780Y-100928909D01*
X121684603Y-100897650D01*
X121819860Y-100801173D01*
X121978096Y-100643489D01*
X122037594Y-100560689D01*
X122105435Y-100466277D01*
X122108453Y-100462077D01*
X122129320Y-100419857D01*
X122205136Y-100266453D01*
X122205137Y-100266451D01*
X122207430Y-100261811D01*
X122272370Y-100048069D01*
X122301529Y-99826590D01*
X122303156Y-99760000D01*
X122284852Y-99537361D01*
X122230431Y-99320702D01*
X122141354Y-99115840D01*
X122020014Y-98928277D01*
X121869670Y-98763051D01*
X121865619Y-98759852D01*
X121865615Y-98759848D01*
X121698414Y-98627800D01*
X121698410Y-98627798D01*
X121694359Y-98624598D01*
X121653053Y-98601796D01*
X121603084Y-98551364D01*
X121588312Y-98481921D01*
X121613428Y-98415516D01*
X121640780Y-98388909D01*
X121684603Y-98357650D01*
X121819860Y-98261173D01*
X121978096Y-98103489D01*
X122037594Y-98020689D01*
X122105435Y-97926277D01*
X122108453Y-97922077D01*
X122129320Y-97879857D01*
X122205136Y-97726453D01*
X122205137Y-97726451D01*
X122207430Y-97721811D01*
X122272370Y-97508069D01*
X122301529Y-97286590D01*
X122303156Y-97220000D01*
X122284852Y-96997361D01*
X122230431Y-96780702D01*
X122141354Y-96575840D01*
X122020014Y-96388277D01*
X121869670Y-96223051D01*
X121865619Y-96219852D01*
X121865615Y-96219848D01*
X121698414Y-96087800D01*
X121698410Y-96087798D01*
X121694359Y-96084598D01*
X121653053Y-96061796D01*
X121603084Y-96011364D01*
X121588312Y-95941921D01*
X121613428Y-95875516D01*
X121640780Y-95848909D01*
X121684603Y-95817650D01*
X121819860Y-95721173D01*
X121978096Y-95563489D01*
X122037594Y-95480689D01*
X122105435Y-95386277D01*
X122108453Y-95382077D01*
X122129320Y-95339857D01*
X122205136Y-95186453D01*
X122205137Y-95186451D01*
X122207430Y-95181811D01*
X122272370Y-94968069D01*
X122301529Y-94746590D01*
X122303156Y-94680000D01*
X122284852Y-94457361D01*
X122230431Y-94240702D01*
X122141354Y-94035840D01*
X122020014Y-93848277D01*
X121869670Y-93683051D01*
X121865619Y-93679852D01*
X121865615Y-93679848D01*
X121698414Y-93547800D01*
X121698410Y-93547798D01*
X121694359Y-93544598D01*
X121653053Y-93521796D01*
X121603084Y-93471364D01*
X121588312Y-93401921D01*
X121613428Y-93335516D01*
X121640780Y-93308909D01*
X121684603Y-93277650D01*
X121819860Y-93181173D01*
X121978096Y-93023489D01*
X122037594Y-92940689D01*
X122105435Y-92846277D01*
X122108453Y-92842077D01*
X122129320Y-92799857D01*
X122205136Y-92646453D01*
X122205137Y-92646451D01*
X122207430Y-92641811D01*
X122272370Y-92428069D01*
X122301529Y-92206590D01*
X122301964Y-92188794D01*
X122303074Y-92143365D01*
X122303074Y-92143361D01*
X122303156Y-92140000D01*
X122284852Y-91917361D01*
X122230431Y-91700702D01*
X122141354Y-91495840D01*
X122020014Y-91308277D01*
X121966986Y-91250000D01*
X142026496Y-91250000D01*
X142027186Y-91256565D01*
X142038710Y-91366206D01*
X142046458Y-91439928D01*
X142105473Y-91621556D01*
X142200960Y-91786944D01*
X142205378Y-91791851D01*
X142205379Y-91791852D01*
X142236976Y-91826944D01*
X142328747Y-91928866D01*
X142377043Y-91963955D01*
X142476354Y-92036109D01*
X142483248Y-92041118D01*
X142489276Y-92043802D01*
X142489278Y-92043803D01*
X142646502Y-92113803D01*
X142657712Y-92118794D01*
X142741699Y-92136646D01*
X142838056Y-92157128D01*
X142838061Y-92157128D01*
X142844513Y-92158500D01*
X143035487Y-92158500D01*
X143041939Y-92157128D01*
X143041944Y-92157128D01*
X143138301Y-92136646D01*
X143222288Y-92118794D01*
X143233498Y-92113803D01*
X143390722Y-92043803D01*
X143390724Y-92043802D01*
X143396752Y-92041118D01*
X143403647Y-92036109D01*
X143502957Y-91963955D01*
X143551253Y-91928866D01*
X143643024Y-91826944D01*
X143674621Y-91791852D01*
X143674622Y-91791851D01*
X143679040Y-91786944D01*
X143774527Y-91621556D01*
X143833542Y-91439928D01*
X143841291Y-91366206D01*
X143852814Y-91256565D01*
X143853504Y-91250000D01*
X146086496Y-91250000D01*
X146087186Y-91256565D01*
X146098710Y-91366206D01*
X146106458Y-91439928D01*
X146165473Y-91621556D01*
X146260960Y-91786944D01*
X146265378Y-91791851D01*
X146265379Y-91791852D01*
X146296976Y-91826944D01*
X146388747Y-91928866D01*
X146437043Y-91963955D01*
X146536354Y-92036109D01*
X146543248Y-92041118D01*
X146549276Y-92043802D01*
X146549278Y-92043803D01*
X146706502Y-92113803D01*
X146717712Y-92118794D01*
X146801699Y-92136646D01*
X146898056Y-92157128D01*
X146898061Y-92157128D01*
X146904513Y-92158500D01*
X147095487Y-92158500D01*
X147101939Y-92157128D01*
X147101944Y-92157128D01*
X147198301Y-92136646D01*
X147282288Y-92118794D01*
X147293498Y-92113803D01*
X147450722Y-92043803D01*
X147450724Y-92043802D01*
X147456752Y-92041118D01*
X147463647Y-92036109D01*
X147562957Y-91963955D01*
X147611253Y-91928866D01*
X147703024Y-91826944D01*
X147734621Y-91791852D01*
X147734622Y-91791851D01*
X147739040Y-91786944D01*
X147834527Y-91621556D01*
X147868758Y-91516206D01*
X147891503Y-91446204D01*
X147891503Y-91446202D01*
X147893542Y-91439928D01*
X147894232Y-91433365D01*
X147894329Y-91432908D01*
X147928057Y-91370434D01*
X147990207Y-91336113D01*
X148061046Y-91340841D01*
X148118083Y-91383117D01*
X148142885Y-91445934D01*
X148145066Y-91466680D01*
X148146458Y-91479928D01*
X148205473Y-91661556D01*
X148208776Y-91667278D01*
X148208777Y-91667279D01*
X148230971Y-91705720D01*
X148300960Y-91826944D01*
X148305378Y-91831851D01*
X148305379Y-91831852D01*
X148382372Y-91917361D01*
X148428747Y-91968866D01*
X148475383Y-92002749D01*
X148531889Y-92043803D01*
X148583248Y-92081118D01*
X148589276Y-92083802D01*
X148589278Y-92083803D01*
X148751681Y-92156109D01*
X148757712Y-92158794D01*
X148851112Y-92178647D01*
X148938056Y-92197128D01*
X148938061Y-92197128D01*
X148944513Y-92198500D01*
X149135487Y-92198500D01*
X149141939Y-92197128D01*
X149141944Y-92197128D01*
X149228887Y-92178647D01*
X149322288Y-92158794D01*
X149328319Y-92156109D01*
X149490722Y-92083803D01*
X149490724Y-92083802D01*
X149496752Y-92081118D01*
X149548112Y-92043803D01*
X149604617Y-92002749D01*
X149651253Y-91968866D01*
X149697628Y-91917361D01*
X149774621Y-91831852D01*
X149774622Y-91831851D01*
X149779040Y-91826944D01*
X149849029Y-91705720D01*
X149871223Y-91667279D01*
X149871224Y-91667278D01*
X149874527Y-91661556D01*
X149933542Y-91479928D01*
X149934935Y-91466680D01*
X149950351Y-91320000D01*
X150796496Y-91320000D01*
X150797186Y-91326565D01*
X150815477Y-91500590D01*
X150816458Y-91509928D01*
X150875473Y-91691556D01*
X150878776Y-91697278D01*
X150878777Y-91697279D01*
X150884357Y-91706944D01*
X150970960Y-91856944D01*
X150975378Y-91861851D01*
X150975379Y-91861852D01*
X151067176Y-91963803D01*
X151098747Y-91998866D01*
X151253248Y-92111118D01*
X151259276Y-92113802D01*
X151259278Y-92113803D01*
X151363412Y-92160166D01*
X151427712Y-92188794D01*
X151495675Y-92203240D01*
X151608056Y-92227128D01*
X151608061Y-92227128D01*
X151614513Y-92228500D01*
X151805487Y-92228500D01*
X151811939Y-92227128D01*
X151811944Y-92227128D01*
X151924325Y-92203240D01*
X151992288Y-92188794D01*
X152056588Y-92160166D01*
X152160722Y-92113803D01*
X152160724Y-92113802D01*
X152166752Y-92111118D01*
X152321253Y-91998866D01*
X152352824Y-91963803D01*
X152444621Y-91861852D01*
X152444622Y-91861851D01*
X152449040Y-91856944D01*
X152535643Y-91706944D01*
X152541223Y-91697279D01*
X152541224Y-91697278D01*
X152544527Y-91691556D01*
X152603542Y-91509928D01*
X152604524Y-91500590D01*
X152622814Y-91326565D01*
X152623504Y-91320000D01*
X152607739Y-91170000D01*
X155786496Y-91170000D01*
X155806458Y-91359928D01*
X155865473Y-91541556D01*
X155960960Y-91706944D01*
X155965378Y-91711851D01*
X155965379Y-91711852D01*
X156084325Y-91843955D01*
X156088747Y-91848866D01*
X156106621Y-91861852D01*
X156204202Y-91932749D01*
X156243248Y-91961118D01*
X156249276Y-91963802D01*
X156249278Y-91963803D01*
X156336753Y-92002749D01*
X156417712Y-92038794D01*
X156511112Y-92058647D01*
X156598056Y-92077128D01*
X156598061Y-92077128D01*
X156604513Y-92078500D01*
X156795487Y-92078500D01*
X156801939Y-92077128D01*
X156801944Y-92077128D01*
X156888888Y-92058647D01*
X156982288Y-92038794D01*
X157063247Y-92002749D01*
X157150722Y-91963803D01*
X157150724Y-91963802D01*
X157156752Y-91961118D01*
X157195799Y-91932749D01*
X157293379Y-91861852D01*
X157311253Y-91848866D01*
X157315675Y-91843955D01*
X157434621Y-91711852D01*
X157434622Y-91711851D01*
X157439040Y-91706944D01*
X157534527Y-91541556D01*
X157593542Y-91359928D01*
X157613504Y-91170000D01*
X157609307Y-91130072D01*
X157594232Y-90986635D01*
X157594232Y-90986633D01*
X157593542Y-90980072D01*
X157534527Y-90798444D01*
X157511624Y-90758774D01*
X157442341Y-90638774D01*
X157439040Y-90633056D01*
X157419302Y-90611134D01*
X157315675Y-90496045D01*
X157315674Y-90496044D01*
X157311253Y-90491134D01*
X157192821Y-90405088D01*
X157162094Y-90382763D01*
X157162093Y-90382762D01*
X157156752Y-90378882D01*
X157150724Y-90376198D01*
X157150722Y-90376197D01*
X156988319Y-90303891D01*
X156988318Y-90303891D01*
X156982288Y-90301206D01*
X156888887Y-90281353D01*
X156801944Y-90262872D01*
X156801939Y-90262872D01*
X156795487Y-90261500D01*
X156604513Y-90261500D01*
X156598061Y-90262872D01*
X156598056Y-90262872D01*
X156511113Y-90281353D01*
X156417712Y-90301206D01*
X156411682Y-90303891D01*
X156411681Y-90303891D01*
X156249278Y-90376197D01*
X156249276Y-90376198D01*
X156243248Y-90378882D01*
X156237907Y-90382762D01*
X156237906Y-90382763D01*
X156207179Y-90405088D01*
X156088747Y-90491134D01*
X156084326Y-90496044D01*
X156084325Y-90496045D01*
X155980699Y-90611134D01*
X155960960Y-90633056D01*
X155957659Y-90638774D01*
X155888377Y-90758774D01*
X155865473Y-90798444D01*
X155806458Y-90980072D01*
X155805768Y-90986633D01*
X155805768Y-90986635D01*
X155790693Y-91130072D01*
X155786496Y-91170000D01*
X152607739Y-91170000D01*
X152605308Y-91146870D01*
X152604232Y-91136635D01*
X152604232Y-91136633D01*
X152603542Y-91130072D01*
X152544527Y-90948444D01*
X152527207Y-90918444D01*
X152475761Y-90829338D01*
X152449040Y-90783056D01*
X152427809Y-90759476D01*
X152325675Y-90646045D01*
X152325674Y-90646044D01*
X152321253Y-90641134D01*
X152166752Y-90528882D01*
X152160724Y-90526198D01*
X152160722Y-90526197D01*
X151998319Y-90453891D01*
X151998318Y-90453891D01*
X151992288Y-90451206D01*
X151898888Y-90431353D01*
X151811944Y-90412872D01*
X151811939Y-90412872D01*
X151805487Y-90411500D01*
X151614513Y-90411500D01*
X151608061Y-90412872D01*
X151608056Y-90412872D01*
X151521112Y-90431353D01*
X151427712Y-90451206D01*
X151421682Y-90453891D01*
X151421681Y-90453891D01*
X151259278Y-90526197D01*
X151259276Y-90526198D01*
X151253248Y-90528882D01*
X151098747Y-90641134D01*
X151094326Y-90646044D01*
X151094325Y-90646045D01*
X150992192Y-90759476D01*
X150970960Y-90783056D01*
X150944239Y-90829338D01*
X150892794Y-90918444D01*
X150875473Y-90948444D01*
X150816458Y-91130072D01*
X150815768Y-91136633D01*
X150815768Y-91136635D01*
X150814692Y-91146870D01*
X150796496Y-91320000D01*
X149950351Y-91320000D01*
X149952814Y-91296565D01*
X149953504Y-91290000D01*
X149938461Y-91146870D01*
X149934232Y-91106635D01*
X149934232Y-91106633D01*
X149933542Y-91100072D01*
X149874527Y-90918444D01*
X149864234Y-90900615D01*
X149837314Y-90853990D01*
X149779040Y-90753056D01*
X149748173Y-90718774D01*
X149655675Y-90616045D01*
X149655674Y-90616044D01*
X149651253Y-90611134D01*
X149496752Y-90498882D01*
X149490724Y-90496198D01*
X149490722Y-90496197D01*
X149328319Y-90423891D01*
X149328318Y-90423891D01*
X149322288Y-90421206D01*
X149228887Y-90401353D01*
X149141944Y-90382872D01*
X149141939Y-90382872D01*
X149135487Y-90381500D01*
X148944513Y-90381500D01*
X148938061Y-90382872D01*
X148938056Y-90382872D01*
X148851112Y-90401353D01*
X148757712Y-90421206D01*
X148751682Y-90423891D01*
X148751681Y-90423891D01*
X148589278Y-90496197D01*
X148589276Y-90496198D01*
X148583248Y-90498882D01*
X148428747Y-90611134D01*
X148424326Y-90616044D01*
X148424325Y-90616045D01*
X148331828Y-90718774D01*
X148300960Y-90753056D01*
X148242686Y-90853990D01*
X148215767Y-90900615D01*
X148205473Y-90918444D01*
X148146458Y-91100072D01*
X148145768Y-91106634D01*
X148145671Y-91107092D01*
X148111943Y-91169566D01*
X148049793Y-91203887D01*
X147978954Y-91199159D01*
X147921917Y-91156883D01*
X147897115Y-91094066D01*
X147894232Y-91066635D01*
X147894232Y-91066633D01*
X147893542Y-91060072D01*
X147834527Y-90878444D01*
X147830690Y-90871797D01*
X147797314Y-90813990D01*
X147739040Y-90713056D01*
X147611253Y-90571134D01*
X147510480Y-90497918D01*
X147462094Y-90462763D01*
X147462093Y-90462762D01*
X147456752Y-90458882D01*
X147450724Y-90456198D01*
X147450722Y-90456197D01*
X147288319Y-90383891D01*
X147288318Y-90383891D01*
X147282288Y-90381206D01*
X147188888Y-90361353D01*
X147101944Y-90342872D01*
X147101939Y-90342872D01*
X147095487Y-90341500D01*
X146904513Y-90341500D01*
X146898061Y-90342872D01*
X146898056Y-90342872D01*
X146811113Y-90361353D01*
X146717712Y-90381206D01*
X146711682Y-90383891D01*
X146711681Y-90383891D01*
X146549278Y-90456197D01*
X146549276Y-90456198D01*
X146543248Y-90458882D01*
X146537907Y-90462762D01*
X146537906Y-90462763D01*
X146489520Y-90497918D01*
X146388747Y-90571134D01*
X146260960Y-90713056D01*
X146202686Y-90813990D01*
X146169311Y-90871797D01*
X146165473Y-90878444D01*
X146106458Y-91060072D01*
X146105768Y-91066633D01*
X146105768Y-91066635D01*
X146091343Y-91203887D01*
X146086496Y-91250000D01*
X143853504Y-91250000D01*
X143848657Y-91203887D01*
X143834232Y-91066635D01*
X143834232Y-91066633D01*
X143833542Y-91060072D01*
X143774527Y-90878444D01*
X143770690Y-90871797D01*
X143737314Y-90813990D01*
X143679040Y-90713056D01*
X143551253Y-90571134D01*
X143450480Y-90497918D01*
X143402094Y-90462763D01*
X143402093Y-90462762D01*
X143396752Y-90458882D01*
X143390724Y-90456198D01*
X143390722Y-90456197D01*
X143228319Y-90383891D01*
X143228318Y-90383891D01*
X143222288Y-90381206D01*
X143128888Y-90361353D01*
X143041944Y-90342872D01*
X143041939Y-90342872D01*
X143035487Y-90341500D01*
X142844513Y-90341500D01*
X142838061Y-90342872D01*
X142838056Y-90342872D01*
X142751113Y-90361353D01*
X142657712Y-90381206D01*
X142651682Y-90383891D01*
X142651681Y-90383891D01*
X142489278Y-90456197D01*
X142489276Y-90456198D01*
X142483248Y-90458882D01*
X142477907Y-90462762D01*
X142477906Y-90462763D01*
X142429520Y-90497918D01*
X142328747Y-90571134D01*
X142200960Y-90713056D01*
X142142686Y-90813990D01*
X142109311Y-90871797D01*
X142105473Y-90878444D01*
X142046458Y-91060072D01*
X142045768Y-91066633D01*
X142045768Y-91066635D01*
X142031343Y-91203887D01*
X142026496Y-91250000D01*
X121966986Y-91250000D01*
X121869670Y-91143051D01*
X121865619Y-91139852D01*
X121865615Y-91139848D01*
X121698414Y-91007800D01*
X121698410Y-91007798D01*
X121694359Y-91004598D01*
X121653053Y-90981796D01*
X121603084Y-90931364D01*
X121588312Y-90861921D01*
X121613428Y-90795516D01*
X121640780Y-90768909D01*
X121684603Y-90737650D01*
X121819860Y-90641173D01*
X121828006Y-90633056D01*
X121920268Y-90541115D01*
X121978096Y-90483489D01*
X122002280Y-90449834D01*
X122105435Y-90306277D01*
X122108453Y-90302077D01*
X122128508Y-90261500D01*
X122205136Y-90106453D01*
X122205137Y-90106451D01*
X122207430Y-90101811D01*
X122272370Y-89888069D01*
X122301529Y-89666590D01*
X122303156Y-89600000D01*
X122284852Y-89377361D01*
X122230431Y-89160702D01*
X122141354Y-88955840D01*
X122020014Y-88768277D01*
X121869670Y-88603051D01*
X121865619Y-88599852D01*
X121865615Y-88599848D01*
X121698414Y-88467800D01*
X121698410Y-88467798D01*
X121694359Y-88464598D01*
X121498789Y-88356638D01*
X121493920Y-88354914D01*
X121493916Y-88354912D01*
X121293087Y-88283795D01*
X121293083Y-88283794D01*
X121288212Y-88282069D01*
X121283119Y-88281162D01*
X121283116Y-88281161D01*
X121073373Y-88243800D01*
X121073367Y-88243799D01*
X121068284Y-88242894D01*
X120994452Y-88241992D01*
X120850081Y-88240228D01*
X120850079Y-88240228D01*
X120844911Y-88240165D01*
X120624091Y-88273955D01*
X120411756Y-88343357D01*
X120213607Y-88446507D01*
X120209474Y-88449610D01*
X120209471Y-88449612D01*
X120039100Y-88577530D01*
X120034965Y-88580635D01*
X119978537Y-88639684D01*
X119954283Y-88665064D01*
X119892759Y-88700494D01*
X119821846Y-88697037D01*
X119764060Y-88655791D01*
X119745207Y-88622243D01*
X119703767Y-88511703D01*
X119700615Y-88503295D01*
X119613261Y-88386739D01*
X119496705Y-88299385D01*
X119360316Y-88248255D01*
X119298134Y-88241500D01*
X117501866Y-88241500D01*
X117439684Y-88248255D01*
X117303295Y-88299385D01*
X117186739Y-88386739D01*
X117099385Y-88503295D01*
X117048255Y-88639684D01*
X117041500Y-88701866D01*
X117041500Y-90498134D01*
X117048255Y-90560316D01*
X117099385Y-90696705D01*
X117186739Y-90813261D01*
X117303295Y-90900615D01*
X117311704Y-90903767D01*
X117311705Y-90903768D01*
X117420451Y-90944535D01*
X117477216Y-90987176D01*
X117501916Y-91053738D01*
X117486709Y-91123087D01*
X117467316Y-91149568D01*
X117340629Y-91282138D01*
X117337720Y-91286403D01*
X117337714Y-91286411D01*
X117292041Y-91353365D01*
X117214743Y-91466680D01*
X117194668Y-91509928D01*
X117145770Y-91615271D01*
X117120688Y-91669305D01*
X117060989Y-91884570D01*
X117037251Y-92106695D01*
X117037548Y-92111848D01*
X117037548Y-92111851D01*
X117043011Y-92206590D01*
X117050110Y-92329715D01*
X117051247Y-92334761D01*
X117051248Y-92334767D01*
X117071119Y-92422939D01*
X117099222Y-92547639D01*
X117183266Y-92754616D01*
X117234019Y-92837438D01*
X117297291Y-92940688D01*
X117299987Y-92945088D01*
X117446250Y-93113938D01*
X117618126Y-93256632D01*
X117688595Y-93297811D01*
X117691445Y-93299476D01*
X117740169Y-93351114D01*
X117753240Y-93420897D01*
X117726509Y-93486669D01*
X117686055Y-93520027D01*
X117673607Y-93526507D01*
X117669474Y-93529610D01*
X117669471Y-93529612D01*
X117645247Y-93547800D01*
X117494965Y-93660635D01*
X117340629Y-93822138D01*
X117214743Y-94006680D01*
X117120688Y-94209305D01*
X117060989Y-94424570D01*
X117037251Y-94646695D01*
X117037548Y-94651848D01*
X117037548Y-94651851D01*
X117043011Y-94746590D01*
X117050110Y-94869715D01*
X117051247Y-94874761D01*
X117051248Y-94874767D01*
X117071119Y-94962939D01*
X117099222Y-95087639D01*
X117183266Y-95294616D01*
X117234019Y-95377438D01*
X117297291Y-95480688D01*
X117299987Y-95485088D01*
X117446250Y-95653938D01*
X117618126Y-95796632D01*
X117688595Y-95837811D01*
X117691445Y-95839476D01*
X117740169Y-95891114D01*
X117753240Y-95960897D01*
X117726509Y-96026669D01*
X117686055Y-96060027D01*
X117673607Y-96066507D01*
X117669474Y-96069610D01*
X117669471Y-96069612D01*
X117645247Y-96087800D01*
X117494965Y-96200635D01*
X117340629Y-96362138D01*
X117214743Y-96546680D01*
X117120688Y-96749305D01*
X117060989Y-96964570D01*
X117037251Y-97186695D01*
X117037548Y-97191848D01*
X117037548Y-97191851D01*
X117043011Y-97286590D01*
X117050110Y-97409715D01*
X117051247Y-97414761D01*
X117051248Y-97414767D01*
X117071119Y-97502939D01*
X117099222Y-97627639D01*
X117183266Y-97834616D01*
X117234019Y-97917438D01*
X117297291Y-98020688D01*
X117299987Y-98025088D01*
X117446250Y-98193938D01*
X117618126Y-98336632D01*
X117688595Y-98377811D01*
X117691445Y-98379476D01*
X117740169Y-98431114D01*
X117753240Y-98500897D01*
X117726509Y-98566669D01*
X117686055Y-98600027D01*
X117673607Y-98606507D01*
X117669474Y-98609610D01*
X117669471Y-98609612D01*
X117645247Y-98627800D01*
X117494965Y-98740635D01*
X117340629Y-98902138D01*
X117214743Y-99086680D01*
X117120688Y-99289305D01*
X117060989Y-99504570D01*
X117037251Y-99726695D01*
X117037548Y-99731848D01*
X117037548Y-99731851D01*
X117043011Y-99826590D01*
X117050110Y-99949715D01*
X117051247Y-99954761D01*
X117051248Y-99954767D01*
X117071119Y-100042939D01*
X117099222Y-100167639D01*
X117183266Y-100374616D01*
X117234019Y-100457438D01*
X117297291Y-100560688D01*
X117299987Y-100565088D01*
X117446250Y-100733938D01*
X117618126Y-100876632D01*
X117688595Y-100917811D01*
X117691445Y-100919476D01*
X117740169Y-100971114D01*
X117753240Y-101040897D01*
X117726509Y-101106669D01*
X117686055Y-101140027D01*
X117673607Y-101146507D01*
X117669474Y-101149610D01*
X117669471Y-101149612D01*
X117645247Y-101167800D01*
X117494965Y-101280635D01*
X117340629Y-101442138D01*
X117214743Y-101626680D01*
X117120688Y-101829305D01*
X117060989Y-102044570D01*
X117037251Y-102266695D01*
X117037548Y-102271848D01*
X117037548Y-102271851D01*
X117043011Y-102366590D01*
X117050110Y-102489715D01*
X117051247Y-102494761D01*
X117051248Y-102494767D01*
X117071119Y-102582939D01*
X117099222Y-102707639D01*
X117183266Y-102914616D01*
X117234019Y-102997438D01*
X117297291Y-103100688D01*
X117299987Y-103105088D01*
X117446250Y-103273938D01*
X117522846Y-103337529D01*
X117606085Y-103406635D01*
X117618126Y-103416632D01*
X117691445Y-103459476D01*
X117691955Y-103459774D01*
X117740679Y-103511412D01*
X117753750Y-103581195D01*
X117727019Y-103646967D01*
X117686562Y-103680327D01*
X117678457Y-103684546D01*
X117669738Y-103690036D01*
X117499433Y-103817905D01*
X117491726Y-103824748D01*
X117344590Y-103978717D01*
X117338104Y-103986727D01*
X117218098Y-104162649D01*
X117213000Y-104171623D01*
X117123338Y-104364783D01*
X117119775Y-104374470D01*
X117064389Y-104574183D01*
X117065912Y-104582607D01*
X117078292Y-104586000D01*
X118528000Y-104586000D01*
X118596121Y-104606002D01*
X118642614Y-104659658D01*
X118654000Y-104712000D01*
X118654000Y-104968000D01*
X118633998Y-105036121D01*
X118580342Y-105082614D01*
X118528000Y-105094000D01*
X117083225Y-105094000D01*
X117069694Y-105097973D01*
X117068257Y-105107966D01*
X117098565Y-105242446D01*
X117101645Y-105252275D01*
X117181770Y-105449603D01*
X117186413Y-105458794D01*
X117297694Y-105640388D01*
X117303777Y-105648699D01*
X117443213Y-105809667D01*
X117450580Y-105816883D01*
X117614434Y-105952916D01*
X117622881Y-105958831D01*
X117691969Y-105999203D01*
X117740693Y-106050842D01*
X117753764Y-106120625D01*
X117727033Y-106186396D01*
X117686584Y-106219752D01*
X117673607Y-106226507D01*
X117669474Y-106229610D01*
X117669471Y-106229612D01*
X117607414Y-106276206D01*
X117494965Y-106360635D01*
X117340629Y-106522138D01*
X117214743Y-106706680D01*
X117120688Y-106909305D01*
X117060989Y-107124570D01*
X117037251Y-107346695D01*
X116508500Y-107346695D01*
X116508500Y-86710000D01*
X143456496Y-86710000D01*
X143476458Y-86899928D01*
X143535473Y-87081556D01*
X143630960Y-87246944D01*
X143758747Y-87388866D01*
X143913248Y-87501118D01*
X143919276Y-87503802D01*
X143919278Y-87503803D01*
X144081681Y-87576109D01*
X144087712Y-87578794D01*
X144181113Y-87598647D01*
X144268056Y-87617128D01*
X144268061Y-87617128D01*
X144274513Y-87618500D01*
X144465487Y-87618500D01*
X144471939Y-87617128D01*
X144471944Y-87617128D01*
X144558888Y-87598647D01*
X144652288Y-87578794D01*
X144658319Y-87576109D01*
X144820722Y-87503803D01*
X144820724Y-87503802D01*
X144826752Y-87501118D01*
X144981253Y-87388866D01*
X145109040Y-87246944D01*
X145204527Y-87081556D01*
X145263542Y-86899928D01*
X145283504Y-86710000D01*
X145263542Y-86520072D01*
X145204527Y-86338444D01*
X145109040Y-86173056D01*
X144981253Y-86031134D01*
X144826752Y-85918882D01*
X144820724Y-85916198D01*
X144820722Y-85916197D01*
X144658319Y-85843891D01*
X144658318Y-85843891D01*
X144652288Y-85841206D01*
X144558888Y-85821353D01*
X144471944Y-85802872D01*
X144471939Y-85802872D01*
X144465487Y-85801500D01*
X144274513Y-85801500D01*
X144268061Y-85802872D01*
X144268056Y-85802872D01*
X144181113Y-85821353D01*
X144087712Y-85841206D01*
X144081682Y-85843891D01*
X144081681Y-85843891D01*
X143919278Y-85916197D01*
X143919276Y-85916198D01*
X143913248Y-85918882D01*
X143758747Y-86031134D01*
X143630960Y-86173056D01*
X143535473Y-86338444D01*
X143476458Y-86520072D01*
X143456496Y-86710000D01*
X116508500Y-86710000D01*
X116508500Y-85590000D01*
X149966496Y-85590000D01*
X149986458Y-85779928D01*
X150045473Y-85961556D01*
X150140960Y-86126944D01*
X150268747Y-86268866D01*
X150423248Y-86381118D01*
X150429276Y-86383802D01*
X150429278Y-86383803D01*
X150591681Y-86456109D01*
X150597712Y-86458794D01*
X150691112Y-86478647D01*
X150778056Y-86497128D01*
X150778061Y-86497128D01*
X150784513Y-86498500D01*
X150975487Y-86498500D01*
X150981939Y-86497128D01*
X150981944Y-86497128D01*
X151068888Y-86478647D01*
X151162288Y-86458794D01*
X151168319Y-86456109D01*
X151330722Y-86383803D01*
X151330724Y-86383802D01*
X151336752Y-86381118D01*
X151491253Y-86268866D01*
X151619040Y-86126944D01*
X151714527Y-85961556D01*
X151773542Y-85779928D01*
X151793504Y-85590000D01*
X151773542Y-85400072D01*
X151714527Y-85218444D01*
X151619040Y-85053056D01*
X151491253Y-84911134D01*
X151336752Y-84798882D01*
X151330724Y-84796198D01*
X151330722Y-84796197D01*
X151168319Y-84723891D01*
X151168318Y-84723891D01*
X151162288Y-84721206D01*
X151068887Y-84701353D01*
X150981944Y-84682872D01*
X150981939Y-84682872D01*
X150975487Y-84681500D01*
X150784513Y-84681500D01*
X150778061Y-84682872D01*
X150778056Y-84682872D01*
X150691113Y-84701353D01*
X150597712Y-84721206D01*
X150591682Y-84723891D01*
X150591681Y-84723891D01*
X150429278Y-84796197D01*
X150429276Y-84796198D01*
X150423248Y-84798882D01*
X150268747Y-84911134D01*
X150140960Y-85053056D01*
X150045473Y-85218444D01*
X149986458Y-85400072D01*
X149966496Y-85590000D01*
X116508500Y-85590000D01*
X116508500Y-84490000D01*
X128386496Y-84490000D01*
X128406458Y-84679928D01*
X128465473Y-84861556D01*
X128560960Y-85026944D01*
X128688747Y-85168866D01*
X128843248Y-85281118D01*
X128849276Y-85283802D01*
X128849278Y-85283803D01*
X129011681Y-85356109D01*
X129017712Y-85358794D01*
X129111113Y-85378647D01*
X129198056Y-85397128D01*
X129198061Y-85397128D01*
X129204513Y-85398500D01*
X129395487Y-85398500D01*
X129401939Y-85397128D01*
X129401944Y-85397128D01*
X129488887Y-85378647D01*
X129582288Y-85358794D01*
X129588319Y-85356109D01*
X129750722Y-85283803D01*
X129750724Y-85283802D01*
X129756752Y-85281118D01*
X129911253Y-85168866D01*
X130039040Y-85026944D01*
X130134527Y-84861556D01*
X130193542Y-84679928D01*
X130213504Y-84490000D01*
X130193542Y-84300072D01*
X130134527Y-84118444D01*
X130130298Y-84111118D01*
X130042341Y-83958774D01*
X130039040Y-83953056D01*
X129952501Y-83856944D01*
X129915675Y-83816045D01*
X129915674Y-83816044D01*
X129911253Y-83811134D01*
X129756752Y-83698882D01*
X129750724Y-83696198D01*
X129750722Y-83696197D01*
X129588319Y-83623891D01*
X129588318Y-83623891D01*
X129582288Y-83621206D01*
X129454248Y-83593990D01*
X129401944Y-83582872D01*
X129401939Y-83582872D01*
X129395487Y-83581500D01*
X129204513Y-83581500D01*
X129198061Y-83582872D01*
X129198056Y-83582872D01*
X129145752Y-83593990D01*
X129017712Y-83621206D01*
X129011682Y-83623891D01*
X129011681Y-83623891D01*
X128849278Y-83696197D01*
X128849276Y-83696198D01*
X128843248Y-83698882D01*
X128688747Y-83811134D01*
X128684326Y-83816044D01*
X128684325Y-83816045D01*
X128647500Y-83856944D01*
X128560960Y-83953056D01*
X128557659Y-83958774D01*
X128469703Y-84111118D01*
X128465473Y-84118444D01*
X128406458Y-84300072D01*
X128386496Y-84490000D01*
X116508500Y-84490000D01*
X116508500Y-83320000D01*
X132106496Y-83320000D01*
X132107186Y-83326565D01*
X132121226Y-83460144D01*
X132126458Y-83509928D01*
X132185473Y-83691556D01*
X132188776Y-83697278D01*
X132188777Y-83697279D01*
X132191943Y-83702763D01*
X132280960Y-83856944D01*
X132285378Y-83861851D01*
X132285379Y-83861852D01*
X132370057Y-83955896D01*
X132408747Y-83998866D01*
X132432579Y-84016181D01*
X132532485Y-84088767D01*
X132563248Y-84111118D01*
X132569276Y-84113802D01*
X132569278Y-84113803D01*
X132731681Y-84186109D01*
X132737712Y-84188794D01*
X132831112Y-84208647D01*
X132918056Y-84227128D01*
X132918061Y-84227128D01*
X132924513Y-84228500D01*
X133115487Y-84228500D01*
X133121939Y-84227128D01*
X133121944Y-84227128D01*
X133208888Y-84208647D01*
X133302288Y-84188794D01*
X133308319Y-84186109D01*
X133470722Y-84113803D01*
X133470724Y-84113802D01*
X133476752Y-84111118D01*
X133507516Y-84088767D01*
X133607421Y-84016181D01*
X133631253Y-83998866D01*
X133669943Y-83955896D01*
X133754621Y-83861852D01*
X133754622Y-83861851D01*
X133759040Y-83856944D01*
X133848057Y-83702763D01*
X133851223Y-83697279D01*
X133851224Y-83697278D01*
X133854527Y-83691556D01*
X133913542Y-83509928D01*
X133918775Y-83460144D01*
X133932814Y-83326565D01*
X133933504Y-83320000D01*
X133913542Y-83130072D01*
X133854527Y-82948444D01*
X133759040Y-82783056D01*
X133631253Y-82641134D01*
X133476752Y-82528882D01*
X133470724Y-82526198D01*
X133470722Y-82526197D01*
X133308319Y-82453891D01*
X133308318Y-82453891D01*
X133302288Y-82451206D01*
X133208887Y-82431353D01*
X133121944Y-82412872D01*
X133121939Y-82412872D01*
X133115487Y-82411500D01*
X132924513Y-82411500D01*
X132918061Y-82412872D01*
X132918056Y-82412872D01*
X132831113Y-82431353D01*
X132737712Y-82451206D01*
X132731682Y-82453891D01*
X132731681Y-82453891D01*
X132569278Y-82526197D01*
X132569276Y-82526198D01*
X132563248Y-82528882D01*
X132408747Y-82641134D01*
X132280960Y-82783056D01*
X132185473Y-82948444D01*
X132126458Y-83130072D01*
X132106496Y-83320000D01*
X116508500Y-83320000D01*
X116508500Y-79280000D01*
X128076496Y-79280000D01*
X128077186Y-79286565D01*
X128087757Y-79387138D01*
X128096458Y-79469928D01*
X128155473Y-79651556D01*
X128250960Y-79816944D01*
X128255378Y-79821851D01*
X128255379Y-79821852D01*
X128290749Y-79861134D01*
X128378747Y-79958866D01*
X128477843Y-80030864D01*
X128516385Y-80058866D01*
X128533248Y-80071118D01*
X128539276Y-80073802D01*
X128539278Y-80073803D01*
X128701681Y-80146109D01*
X128707712Y-80148794D01*
X128794479Y-80167237D01*
X128888056Y-80187128D01*
X128888061Y-80187128D01*
X128894513Y-80188500D01*
X129085487Y-80188500D01*
X129091939Y-80187128D01*
X129091944Y-80187128D01*
X129185521Y-80167237D01*
X129272288Y-80148794D01*
X129278319Y-80146109D01*
X129440722Y-80073803D01*
X129440724Y-80073802D01*
X129446752Y-80071118D01*
X129463616Y-80058866D01*
X129502157Y-80030864D01*
X129601253Y-79958866D01*
X129689251Y-79861134D01*
X129724621Y-79821852D01*
X129724622Y-79821851D01*
X129729040Y-79816944D01*
X129824527Y-79651556D01*
X129883542Y-79469928D01*
X129892244Y-79387138D01*
X129892994Y-79380000D01*
X131396496Y-79380000D01*
X131397186Y-79386565D01*
X131406608Y-79476206D01*
X131416458Y-79569928D01*
X131475473Y-79751556D01*
X131478776Y-79757278D01*
X131478777Y-79757279D01*
X131488607Y-79774305D01*
X131570960Y-79916944D01*
X131575378Y-79921851D01*
X131575379Y-79921852D01*
X131653644Y-80008774D01*
X131698747Y-80058866D01*
X131719306Y-80073803D01*
X131841691Y-80162721D01*
X131853248Y-80171118D01*
X131859276Y-80173802D01*
X131859278Y-80173803D01*
X131994041Y-80233803D01*
X132027712Y-80248794D01*
X132121112Y-80268647D01*
X132208056Y-80287128D01*
X132208061Y-80287128D01*
X132214513Y-80288500D01*
X132405487Y-80288500D01*
X132411939Y-80287128D01*
X132411944Y-80287128D01*
X132498888Y-80268647D01*
X132592288Y-80248794D01*
X132625959Y-80233803D01*
X132760722Y-80173803D01*
X132760724Y-80173802D01*
X132766752Y-80171118D01*
X132778310Y-80162721D01*
X132900694Y-80073803D01*
X132921253Y-80058866D01*
X132966356Y-80008774D01*
X133044621Y-79921852D01*
X133044622Y-79921851D01*
X133049040Y-79916944D01*
X133122331Y-79790000D01*
X134016496Y-79790000D01*
X134017186Y-79796565D01*
X134024489Y-79866045D01*
X134036458Y-79979928D01*
X134095473Y-80161556D01*
X134098776Y-80167278D01*
X134098777Y-80167279D01*
X134102544Y-80173803D01*
X134190960Y-80326944D01*
X134195378Y-80331851D01*
X134195379Y-80331852D01*
X134283344Y-80429547D01*
X134318747Y-80468866D01*
X134473248Y-80581118D01*
X134479276Y-80583802D01*
X134479278Y-80583803D01*
X134641681Y-80656109D01*
X134647712Y-80658794D01*
X134741113Y-80678647D01*
X134828056Y-80697128D01*
X134828061Y-80697128D01*
X134834513Y-80698500D01*
X135025487Y-80698500D01*
X135031939Y-80697128D01*
X135031944Y-80697128D01*
X135118887Y-80678647D01*
X135212288Y-80658794D01*
X135218319Y-80656109D01*
X135380722Y-80583803D01*
X135380724Y-80583802D01*
X135386752Y-80581118D01*
X135443346Y-80540000D01*
X142086496Y-80540000D01*
X142087186Y-80546565D01*
X142103011Y-80697128D01*
X142106458Y-80729928D01*
X142165473Y-80911556D01*
X142260960Y-81076944D01*
X142388747Y-81218866D01*
X142543248Y-81331118D01*
X142549276Y-81333802D01*
X142549278Y-81333803D01*
X142711681Y-81406109D01*
X142717712Y-81408794D01*
X142801012Y-81426500D01*
X142898056Y-81447128D01*
X142898061Y-81447128D01*
X142904513Y-81448500D01*
X143095487Y-81448500D01*
X143101939Y-81447128D01*
X143101944Y-81447128D01*
X143198988Y-81426500D01*
X143282288Y-81408794D01*
X143288319Y-81406109D01*
X143450722Y-81333803D01*
X143450724Y-81333802D01*
X143456752Y-81331118D01*
X143611253Y-81218866D01*
X143739040Y-81076944D01*
X143834527Y-80911556D01*
X143893542Y-80729928D01*
X143896990Y-80697128D01*
X143912814Y-80546565D01*
X143913504Y-80540000D01*
X143905080Y-80459851D01*
X143917852Y-80390013D01*
X143966354Y-80338166D01*
X144035187Y-80320772D01*
X144056587Y-80323434D01*
X144168056Y-80347128D01*
X144168061Y-80347128D01*
X144174513Y-80348500D01*
X144365487Y-80348500D01*
X144371939Y-80347128D01*
X144371944Y-80347128D01*
X144466899Y-80326944D01*
X144552288Y-80308794D01*
X144558319Y-80306109D01*
X144720722Y-80233803D01*
X144720724Y-80233802D01*
X144726752Y-80231118D01*
X144753486Y-80211695D01*
X155012251Y-80211695D01*
X155012548Y-80216848D01*
X155012548Y-80216851D01*
X155024812Y-80429547D01*
X155025110Y-80434715D01*
X155026247Y-80439761D01*
X155026248Y-80439767D01*
X155032806Y-80468866D01*
X155074222Y-80652639D01*
X155158266Y-80859616D01*
X155209019Y-80942438D01*
X155272291Y-81045688D01*
X155274987Y-81050088D01*
X155421250Y-81218938D01*
X155427095Y-81223791D01*
X155429981Y-81226187D01*
X155469616Y-81285090D01*
X155471113Y-81356071D01*
X155433997Y-81416593D01*
X155393725Y-81441112D01*
X155305095Y-81474338D01*
X155278295Y-81484385D01*
X155161739Y-81571739D01*
X155074385Y-81688295D01*
X155023255Y-81824684D01*
X155016500Y-81886866D01*
X155016500Y-83683134D01*
X155023255Y-83745316D01*
X155074385Y-83881705D01*
X155161739Y-83998261D01*
X155278295Y-84085615D01*
X155414684Y-84136745D01*
X155476866Y-84143500D01*
X157273134Y-84143500D01*
X157335316Y-84136745D01*
X157471705Y-84085615D01*
X157588261Y-83998261D01*
X157675615Y-83881705D01*
X157683058Y-83861852D01*
X157719598Y-83764382D01*
X157762240Y-83707618D01*
X157828802Y-83682918D01*
X157898150Y-83698126D01*
X157932817Y-83726114D01*
X157961250Y-83758938D01*
X158133126Y-83901632D01*
X158326000Y-84014338D01*
X158534692Y-84094030D01*
X158539760Y-84095061D01*
X158539763Y-84095062D01*
X158631879Y-84113803D01*
X158753597Y-84138567D01*
X158758772Y-84138757D01*
X158758774Y-84138757D01*
X158971673Y-84146564D01*
X158971677Y-84146564D01*
X158976837Y-84146753D01*
X158981957Y-84146097D01*
X158981959Y-84146097D01*
X159193288Y-84119025D01*
X159193289Y-84119025D01*
X159198416Y-84118368D01*
X159213632Y-84113803D01*
X159407429Y-84055661D01*
X159407434Y-84055659D01*
X159412384Y-84054174D01*
X159612994Y-83955896D01*
X159794860Y-83826173D01*
X159805024Y-83816045D01*
X159918702Y-83702763D01*
X159953096Y-83668489D01*
X160083453Y-83487077D01*
X160084776Y-83488028D01*
X160131645Y-83444857D01*
X160201580Y-83432625D01*
X160267026Y-83460144D01*
X160294875Y-83491994D01*
X160354987Y-83590088D01*
X160501250Y-83758938D01*
X160673126Y-83901632D01*
X160866000Y-84014338D01*
X161074692Y-84094030D01*
X161079760Y-84095061D01*
X161079763Y-84095062D01*
X161171879Y-84113803D01*
X161293597Y-84138567D01*
X161298772Y-84138757D01*
X161298774Y-84138757D01*
X161511673Y-84146564D01*
X161511677Y-84146564D01*
X161516837Y-84146753D01*
X161521957Y-84146097D01*
X161521959Y-84146097D01*
X161733288Y-84119025D01*
X161733289Y-84119025D01*
X161738416Y-84118368D01*
X161753632Y-84113803D01*
X161947429Y-84055661D01*
X161947434Y-84055659D01*
X161952384Y-84054174D01*
X162152994Y-83955896D01*
X162334860Y-83826173D01*
X162345024Y-83816045D01*
X162458702Y-83702763D01*
X162493096Y-83668489D01*
X162623453Y-83487077D01*
X162644320Y-83444857D01*
X162720136Y-83291453D01*
X162720137Y-83291451D01*
X162722430Y-83286811D01*
X162787370Y-83073069D01*
X162816529Y-82851590D01*
X162818156Y-82785000D01*
X162799852Y-82562361D01*
X162745431Y-82345702D01*
X162656354Y-82140840D01*
X162535014Y-81953277D01*
X162384670Y-81788051D01*
X162380619Y-81784852D01*
X162380615Y-81784848D01*
X162213414Y-81652800D01*
X162213410Y-81652798D01*
X162209359Y-81649598D01*
X162168053Y-81626796D01*
X162118084Y-81576364D01*
X162103312Y-81506921D01*
X162128428Y-81440516D01*
X162155780Y-81413909D01*
X162199603Y-81382650D01*
X162334860Y-81286173D01*
X162493096Y-81128489D01*
X162534244Y-81071226D01*
X162620435Y-80951277D01*
X162623453Y-80947077D01*
X162641009Y-80911556D01*
X162720136Y-80751453D01*
X162720137Y-80751451D01*
X162722430Y-80746811D01*
X162787370Y-80533069D01*
X162816529Y-80311590D01*
X162818030Y-80250166D01*
X162818074Y-80248365D01*
X162818074Y-80248361D01*
X162818156Y-80245000D01*
X162799852Y-80022361D01*
X162745431Y-79805702D01*
X162656354Y-79600840D01*
X162571663Y-79469928D01*
X162537822Y-79417617D01*
X162537820Y-79417614D01*
X162535014Y-79413277D01*
X162384670Y-79248051D01*
X162380619Y-79244852D01*
X162380615Y-79244848D01*
X162213414Y-79112800D01*
X162213410Y-79112798D01*
X162209359Y-79109598D01*
X162185877Y-79096635D01*
X162037503Y-79014729D01*
X162013789Y-79001638D01*
X162008920Y-78999914D01*
X162008916Y-78999912D01*
X161808087Y-78928795D01*
X161808083Y-78928794D01*
X161803212Y-78927069D01*
X161798119Y-78926162D01*
X161798116Y-78926161D01*
X161588373Y-78888800D01*
X161588367Y-78888799D01*
X161583284Y-78887894D01*
X161509452Y-78886992D01*
X161365081Y-78885228D01*
X161365079Y-78885228D01*
X161359911Y-78885165D01*
X161139091Y-78918955D01*
X160926756Y-78988357D01*
X160899163Y-79002721D01*
X160743424Y-79083794D01*
X160728607Y-79091507D01*
X160724474Y-79094610D01*
X160724471Y-79094612D01*
X160588589Y-79196635D01*
X160549965Y-79225635D01*
X160395629Y-79387138D01*
X160288201Y-79544621D01*
X160233293Y-79589621D01*
X160162768Y-79597792D01*
X160099021Y-79566538D01*
X160078324Y-79542054D01*
X159997822Y-79417617D01*
X159997820Y-79417614D01*
X159995014Y-79413277D01*
X159844670Y-79248051D01*
X159840619Y-79244852D01*
X159840615Y-79244848D01*
X159673414Y-79112800D01*
X159673410Y-79112798D01*
X159669359Y-79109598D01*
X159645877Y-79096635D01*
X159497503Y-79014729D01*
X159473789Y-79001638D01*
X159468920Y-78999914D01*
X159468916Y-78999912D01*
X159268087Y-78928795D01*
X159268083Y-78928794D01*
X159263212Y-78927069D01*
X159258119Y-78926162D01*
X159258116Y-78926161D01*
X159048373Y-78888800D01*
X159048367Y-78888799D01*
X159043284Y-78887894D01*
X158969452Y-78886992D01*
X158825081Y-78885228D01*
X158825079Y-78885228D01*
X158819911Y-78885165D01*
X158599091Y-78918955D01*
X158386756Y-78988357D01*
X158359163Y-79002721D01*
X158203424Y-79083794D01*
X158188607Y-79091507D01*
X158184474Y-79094610D01*
X158184471Y-79094612D01*
X158048589Y-79196635D01*
X158009965Y-79225635D01*
X157855629Y-79387138D01*
X157748201Y-79544621D01*
X157693293Y-79589621D01*
X157622768Y-79597792D01*
X157559021Y-79566538D01*
X157538324Y-79542054D01*
X157457822Y-79417617D01*
X157457820Y-79417614D01*
X157455014Y-79413277D01*
X157304670Y-79248051D01*
X157300619Y-79244852D01*
X157300615Y-79244848D01*
X157133414Y-79112800D01*
X157133410Y-79112798D01*
X157129359Y-79109598D01*
X157105877Y-79096635D01*
X156957503Y-79014729D01*
X156933789Y-79001638D01*
X156928920Y-78999914D01*
X156928916Y-78999912D01*
X156728087Y-78928795D01*
X156728083Y-78928794D01*
X156723212Y-78927069D01*
X156718119Y-78926162D01*
X156718116Y-78926161D01*
X156508373Y-78888800D01*
X156508367Y-78888799D01*
X156503284Y-78887894D01*
X156429452Y-78886992D01*
X156285081Y-78885228D01*
X156285079Y-78885228D01*
X156279911Y-78885165D01*
X156059091Y-78918955D01*
X155846756Y-78988357D01*
X155819163Y-79002721D01*
X155663424Y-79083794D01*
X155648607Y-79091507D01*
X155644474Y-79094610D01*
X155644471Y-79094612D01*
X155508589Y-79196635D01*
X155469965Y-79225635D01*
X155315629Y-79387138D01*
X155189743Y-79571680D01*
X155165752Y-79623365D01*
X155106248Y-79751556D01*
X155095688Y-79774305D01*
X155035989Y-79989570D01*
X155012251Y-80211695D01*
X144753486Y-80211695D01*
X144805639Y-80173803D01*
X144881253Y-80118866D01*
X144921828Y-80073803D01*
X145004621Y-79981852D01*
X145004622Y-79981851D01*
X145009040Y-79976944D01*
X145104527Y-79811556D01*
X145163542Y-79629928D01*
X145167779Y-79589621D01*
X145182814Y-79446565D01*
X145182814Y-79446564D01*
X145183504Y-79440000D01*
X145163542Y-79250072D01*
X145104527Y-79068444D01*
X145009040Y-78903056D01*
X144995332Y-78887831D01*
X144885675Y-78766045D01*
X144885674Y-78766044D01*
X144881253Y-78761134D01*
X144726752Y-78648882D01*
X144720724Y-78646198D01*
X144720722Y-78646197D01*
X144558319Y-78573891D01*
X144558318Y-78573891D01*
X144552288Y-78571206D01*
X144458888Y-78551353D01*
X144371944Y-78532872D01*
X144371939Y-78532872D01*
X144365487Y-78531500D01*
X144174513Y-78531500D01*
X144168061Y-78532872D01*
X144168056Y-78532872D01*
X144081112Y-78551353D01*
X143987712Y-78571206D01*
X143981682Y-78573891D01*
X143981681Y-78573891D01*
X143819278Y-78646197D01*
X143819276Y-78646198D01*
X143813248Y-78648882D01*
X143658747Y-78761134D01*
X143654326Y-78766044D01*
X143654325Y-78766045D01*
X143544669Y-78887831D01*
X143530960Y-78903056D01*
X143435473Y-79068444D01*
X143376458Y-79250072D01*
X143356496Y-79440000D01*
X143360302Y-79476206D01*
X143364920Y-79520148D01*
X143352148Y-79589987D01*
X143303646Y-79641834D01*
X143234813Y-79659228D01*
X143213413Y-79656566D01*
X143101944Y-79632872D01*
X143101939Y-79632872D01*
X143095487Y-79631500D01*
X142904513Y-79631500D01*
X142898061Y-79632872D01*
X142898056Y-79632872D01*
X142811113Y-79651353D01*
X142717712Y-79671206D01*
X142711682Y-79673891D01*
X142711681Y-79673891D01*
X142549278Y-79746197D01*
X142549276Y-79746198D01*
X142543248Y-79748882D01*
X142537907Y-79752762D01*
X142537906Y-79752763D01*
X142495690Y-79783435D01*
X142388747Y-79861134D01*
X142384326Y-79866044D01*
X142384325Y-79866045D01*
X142277589Y-79984588D01*
X142260960Y-80003056D01*
X142165473Y-80168444D01*
X142106458Y-80350072D01*
X142105768Y-80356633D01*
X142105768Y-80356635D01*
X142093972Y-80468866D01*
X142086496Y-80540000D01*
X135443346Y-80540000D01*
X135541253Y-80468866D01*
X135576656Y-80429547D01*
X135664621Y-80331852D01*
X135664622Y-80331851D01*
X135669040Y-80326944D01*
X135757456Y-80173803D01*
X135761223Y-80167279D01*
X135761224Y-80167278D01*
X135764527Y-80161556D01*
X135823542Y-79979928D01*
X135835512Y-79866045D01*
X135842814Y-79796565D01*
X135843504Y-79790000D01*
X135831301Y-79673891D01*
X135824232Y-79606635D01*
X135824232Y-79606633D01*
X135823542Y-79600072D01*
X135764527Y-79418444D01*
X135759339Y-79409457D01*
X135672341Y-79258774D01*
X135669040Y-79253056D01*
X135664534Y-79248051D01*
X135545675Y-79116045D01*
X135545674Y-79116044D01*
X135541253Y-79111134D01*
X135442157Y-79039136D01*
X135392094Y-79002763D01*
X135392093Y-79002762D01*
X135386752Y-78998882D01*
X135380724Y-78996198D01*
X135380722Y-78996197D01*
X135218319Y-78923891D01*
X135218318Y-78923891D01*
X135212288Y-78921206D01*
X135118887Y-78901353D01*
X135031944Y-78882872D01*
X135031939Y-78882872D01*
X135025487Y-78881500D01*
X134834513Y-78881500D01*
X134828061Y-78882872D01*
X134828056Y-78882872D01*
X134741113Y-78901353D01*
X134647712Y-78921206D01*
X134641682Y-78923891D01*
X134641681Y-78923891D01*
X134479278Y-78996197D01*
X134479276Y-78996198D01*
X134473248Y-78998882D01*
X134467907Y-79002762D01*
X134467906Y-79002763D01*
X134417843Y-79039136D01*
X134318747Y-79111134D01*
X134314326Y-79116044D01*
X134314325Y-79116045D01*
X134195467Y-79248051D01*
X134190960Y-79253056D01*
X134187659Y-79258774D01*
X134100662Y-79409457D01*
X134095473Y-79418444D01*
X134036458Y-79600072D01*
X134035768Y-79606633D01*
X134035768Y-79606635D01*
X134028699Y-79673891D01*
X134016496Y-79790000D01*
X133122331Y-79790000D01*
X133131393Y-79774305D01*
X133141223Y-79757279D01*
X133141224Y-79757278D01*
X133144527Y-79751556D01*
X133203542Y-79569928D01*
X133213393Y-79476206D01*
X133222814Y-79386565D01*
X133223504Y-79380000D01*
X133207280Y-79225635D01*
X133204232Y-79196635D01*
X133204232Y-79196633D01*
X133203542Y-79190072D01*
X133144527Y-79008444D01*
X133139007Y-78998882D01*
X133107314Y-78943990D01*
X133049040Y-78843056D01*
X132921253Y-78701134D01*
X132790375Y-78606045D01*
X132772094Y-78592763D01*
X132772093Y-78592762D01*
X132766752Y-78588882D01*
X132760724Y-78586198D01*
X132760722Y-78586197D01*
X132598319Y-78513891D01*
X132598318Y-78513891D01*
X132592288Y-78511206D01*
X132498888Y-78491353D01*
X132411944Y-78472872D01*
X132411939Y-78472872D01*
X132405487Y-78471500D01*
X132214513Y-78471500D01*
X132208061Y-78472872D01*
X132208056Y-78472872D01*
X132121112Y-78491353D01*
X132027712Y-78511206D01*
X132021682Y-78513891D01*
X132021681Y-78513891D01*
X131859278Y-78586197D01*
X131859276Y-78586198D01*
X131853248Y-78588882D01*
X131847907Y-78592762D01*
X131847906Y-78592763D01*
X131829625Y-78606045D01*
X131698747Y-78701134D01*
X131570960Y-78843056D01*
X131512686Y-78943990D01*
X131480994Y-78998882D01*
X131475473Y-79008444D01*
X131416458Y-79190072D01*
X131415768Y-79196633D01*
X131415768Y-79196635D01*
X131412720Y-79225635D01*
X131396496Y-79380000D01*
X129892994Y-79380000D01*
X129902814Y-79286565D01*
X129903504Y-79280000D01*
X129900547Y-79251870D01*
X129884232Y-79096635D01*
X129884232Y-79096633D01*
X129883542Y-79090072D01*
X129824527Y-78908444D01*
X129812663Y-78887894D01*
X129786775Y-78843056D01*
X129729040Y-78743056D01*
X129644246Y-78648882D01*
X129605675Y-78606045D01*
X129605674Y-78606044D01*
X129601253Y-78601134D01*
X129446752Y-78488882D01*
X129440724Y-78486198D01*
X129440722Y-78486197D01*
X129278319Y-78413891D01*
X129278318Y-78413891D01*
X129272288Y-78411206D01*
X129178888Y-78391353D01*
X129091944Y-78372872D01*
X129091939Y-78372872D01*
X129085487Y-78371500D01*
X128894513Y-78371500D01*
X128888061Y-78372872D01*
X128888056Y-78372872D01*
X128801112Y-78391353D01*
X128707712Y-78411206D01*
X128701682Y-78413891D01*
X128701681Y-78413891D01*
X128539278Y-78486197D01*
X128539276Y-78486198D01*
X128533248Y-78488882D01*
X128378747Y-78601134D01*
X128374326Y-78606044D01*
X128374325Y-78606045D01*
X128335755Y-78648882D01*
X128250960Y-78743056D01*
X128193225Y-78843056D01*
X128167338Y-78887894D01*
X128155473Y-78908444D01*
X128096458Y-79090072D01*
X128095768Y-79096633D01*
X128095768Y-79096635D01*
X128079453Y-79251870D01*
X128076496Y-79280000D01*
X116508500Y-79280000D01*
X116508500Y-74478918D01*
X116986917Y-74478918D01*
X116987334Y-74486156D01*
X117002682Y-74752320D01*
X117055405Y-75021053D01*
X117056792Y-75025103D01*
X117056793Y-75025108D01*
X117137815Y-75261753D01*
X117144112Y-75280144D01*
X117173238Y-75338054D01*
X117242837Y-75476437D01*
X117267160Y-75524799D01*
X117269586Y-75528328D01*
X117269589Y-75528334D01*
X117413352Y-75737509D01*
X117422274Y-75750490D01*
X117606582Y-75953043D01*
X117816675Y-76128707D01*
X117820316Y-76130991D01*
X118045024Y-76271951D01*
X118045028Y-76271953D01*
X118048664Y-76274234D01*
X118116544Y-76304883D01*
X118294345Y-76385164D01*
X118294349Y-76385166D01*
X118298257Y-76386930D01*
X118302377Y-76388150D01*
X118302376Y-76388150D01*
X118556723Y-76463491D01*
X118556727Y-76463492D01*
X118560836Y-76464709D01*
X118565070Y-76465357D01*
X118565075Y-76465358D01*
X118827298Y-76505483D01*
X118827300Y-76505483D01*
X118831540Y-76506132D01*
X118970912Y-76508322D01*
X119101071Y-76510367D01*
X119101077Y-76510367D01*
X119105362Y-76510434D01*
X119377235Y-76477534D01*
X119642127Y-76408041D01*
X119645377Y-76406695D01*
X132777251Y-76406695D01*
X132777548Y-76411848D01*
X132777548Y-76411851D01*
X132783232Y-76510434D01*
X132790110Y-76629715D01*
X132791247Y-76634761D01*
X132791248Y-76634767D01*
X132811119Y-76722939D01*
X132839222Y-76847639D01*
X132923266Y-77054616D01*
X132974019Y-77137438D01*
X133037291Y-77240688D01*
X133039987Y-77245088D01*
X133186250Y-77413938D01*
X133358126Y-77556632D01*
X133551000Y-77669338D01*
X133759692Y-77749030D01*
X133764760Y-77750061D01*
X133764763Y-77750062D01*
X133859862Y-77769410D01*
X133978597Y-77793567D01*
X133983772Y-77793757D01*
X133983774Y-77793757D01*
X134196673Y-77801564D01*
X134196677Y-77801564D01*
X134201837Y-77801753D01*
X134206957Y-77801097D01*
X134206959Y-77801097D01*
X134418288Y-77774025D01*
X134418289Y-77774025D01*
X134423416Y-77773368D01*
X134428366Y-77771883D01*
X134632429Y-77710661D01*
X134632434Y-77710659D01*
X134637384Y-77709174D01*
X134837994Y-77610896D01*
X135019860Y-77481173D01*
X135178096Y-77323489D01*
X135237594Y-77240689D01*
X135308453Y-77142077D01*
X135309640Y-77142930D01*
X135356960Y-77099362D01*
X135426897Y-77087145D01*
X135492338Y-77114678D01*
X135520166Y-77146511D01*
X135577694Y-77240388D01*
X135583777Y-77248699D01*
X135723213Y-77409667D01*
X135730580Y-77416883D01*
X135894434Y-77552916D01*
X135902881Y-77558831D01*
X136086756Y-77666279D01*
X136096042Y-77670729D01*
X136295001Y-77746703D01*
X136304899Y-77749579D01*
X136408250Y-77770606D01*
X136422299Y-77769410D01*
X136426000Y-77759065D01*
X136426000Y-76312000D01*
X136446002Y-76243879D01*
X136499658Y-76197386D01*
X136552000Y-76186000D01*
X136808000Y-76186000D01*
X136876121Y-76206002D01*
X136922614Y-76259658D01*
X136934000Y-76312000D01*
X136934000Y-77758517D01*
X136938064Y-77772359D01*
X136951478Y-77774393D01*
X136958184Y-77773534D01*
X136968262Y-77771392D01*
X137172255Y-77710191D01*
X137181842Y-77706433D01*
X137373095Y-77612739D01*
X137381945Y-77607464D01*
X137555328Y-77483792D01*
X137563200Y-77477139D01*
X137714052Y-77326812D01*
X137720730Y-77318965D01*
X137848022Y-77141819D01*
X137849279Y-77142722D01*
X137896373Y-77099362D01*
X137966311Y-77087145D01*
X138031751Y-77114678D01*
X138059579Y-77146511D01*
X138119987Y-77245088D01*
X138266250Y-77413938D01*
X138438126Y-77556632D01*
X138631000Y-77669338D01*
X138839692Y-77749030D01*
X138844760Y-77750061D01*
X138844763Y-77750062D01*
X138939862Y-77769410D01*
X139058597Y-77793567D01*
X139063772Y-77793757D01*
X139063774Y-77793757D01*
X139276673Y-77801564D01*
X139276677Y-77801564D01*
X139281837Y-77801753D01*
X139286957Y-77801097D01*
X139286959Y-77801097D01*
X139498288Y-77774025D01*
X139498289Y-77774025D01*
X139503416Y-77773368D01*
X139508366Y-77771883D01*
X139712429Y-77710661D01*
X139712434Y-77710659D01*
X139717384Y-77709174D01*
X139917994Y-77610896D01*
X140099860Y-77481173D01*
X140258096Y-77323489D01*
X140317594Y-77240689D01*
X140388453Y-77142077D01*
X140389776Y-77143028D01*
X140436645Y-77099857D01*
X140506580Y-77087625D01*
X140572026Y-77115144D01*
X140599875Y-77146994D01*
X140659987Y-77245088D01*
X140806250Y-77413938D01*
X140978126Y-77556632D01*
X141171000Y-77669338D01*
X141379692Y-77749030D01*
X141384760Y-77750061D01*
X141384763Y-77750062D01*
X141479862Y-77769410D01*
X141598597Y-77793567D01*
X141603772Y-77793757D01*
X141603774Y-77793757D01*
X141816673Y-77801564D01*
X141816677Y-77801564D01*
X141821837Y-77801753D01*
X141826957Y-77801097D01*
X141826959Y-77801097D01*
X142038288Y-77774025D01*
X142038289Y-77774025D01*
X142043416Y-77773368D01*
X142048366Y-77771883D01*
X142252429Y-77710661D01*
X142252434Y-77710659D01*
X142257384Y-77709174D01*
X142457994Y-77610896D01*
X142639860Y-77481173D01*
X142798096Y-77323489D01*
X142857594Y-77240689D01*
X142928453Y-77142077D01*
X142929776Y-77143028D01*
X142976645Y-77099857D01*
X143046580Y-77087625D01*
X143112026Y-77115144D01*
X143139875Y-77146994D01*
X143199987Y-77245088D01*
X143346250Y-77413938D01*
X143518126Y-77556632D01*
X143711000Y-77669338D01*
X143919692Y-77749030D01*
X143924760Y-77750061D01*
X143924763Y-77750062D01*
X144019862Y-77769410D01*
X144138597Y-77793567D01*
X144143772Y-77793757D01*
X144143774Y-77793757D01*
X144356673Y-77801564D01*
X144356677Y-77801564D01*
X144361837Y-77801753D01*
X144366957Y-77801097D01*
X144366959Y-77801097D01*
X144578288Y-77774025D01*
X144578289Y-77774025D01*
X144583416Y-77773368D01*
X144588366Y-77771883D01*
X144792429Y-77710661D01*
X144792434Y-77710659D01*
X144797384Y-77709174D01*
X144997994Y-77610896D01*
X145179860Y-77481173D01*
X145338096Y-77323489D01*
X145397594Y-77240689D01*
X145468453Y-77142077D01*
X145469776Y-77143028D01*
X145516645Y-77099857D01*
X145586580Y-77087625D01*
X145652026Y-77115144D01*
X145679875Y-77146994D01*
X145739987Y-77245088D01*
X145886250Y-77413938D01*
X146058126Y-77556632D01*
X146251000Y-77669338D01*
X146459692Y-77749030D01*
X146464760Y-77750061D01*
X146464763Y-77750062D01*
X146559862Y-77769410D01*
X146678597Y-77793567D01*
X146683772Y-77793757D01*
X146683774Y-77793757D01*
X146896673Y-77801564D01*
X146896677Y-77801564D01*
X146901837Y-77801753D01*
X146906957Y-77801097D01*
X146906959Y-77801097D01*
X147118288Y-77774025D01*
X147118289Y-77774025D01*
X147123416Y-77773368D01*
X147128366Y-77771883D01*
X147332429Y-77710661D01*
X147332434Y-77710659D01*
X147337384Y-77709174D01*
X147537994Y-77610896D01*
X147719860Y-77481173D01*
X147878096Y-77323489D01*
X147937594Y-77240689D01*
X148008453Y-77142077D01*
X148009776Y-77143028D01*
X148056645Y-77099857D01*
X148126580Y-77087625D01*
X148192026Y-77115144D01*
X148219875Y-77146994D01*
X148279987Y-77245088D01*
X148426250Y-77413938D01*
X148598126Y-77556632D01*
X148791000Y-77669338D01*
X148999692Y-77749030D01*
X149004760Y-77750061D01*
X149004763Y-77750062D01*
X149099862Y-77769410D01*
X149218597Y-77793567D01*
X149223772Y-77793757D01*
X149223774Y-77793757D01*
X149436673Y-77801564D01*
X149436677Y-77801564D01*
X149441837Y-77801753D01*
X149446957Y-77801097D01*
X149446959Y-77801097D01*
X149658288Y-77774025D01*
X149658289Y-77774025D01*
X149663416Y-77773368D01*
X149668366Y-77771883D01*
X149872429Y-77710661D01*
X149872434Y-77710659D01*
X149877384Y-77709174D01*
X150077994Y-77610896D01*
X150259860Y-77481173D01*
X150418096Y-77323489D01*
X150477594Y-77240689D01*
X150548453Y-77142077D01*
X150549776Y-77143028D01*
X150596645Y-77099857D01*
X150666580Y-77087625D01*
X150732026Y-77115144D01*
X150759875Y-77146994D01*
X150819987Y-77245088D01*
X150966250Y-77413938D01*
X151138126Y-77556632D01*
X151331000Y-77669338D01*
X151539692Y-77749030D01*
X151544760Y-77750061D01*
X151544763Y-77750062D01*
X151639862Y-77769410D01*
X151758597Y-77793567D01*
X151763772Y-77793757D01*
X151763774Y-77793757D01*
X151976673Y-77801564D01*
X151976677Y-77801564D01*
X151981837Y-77801753D01*
X151986957Y-77801097D01*
X151986959Y-77801097D01*
X152198288Y-77774025D01*
X152198289Y-77774025D01*
X152203416Y-77773368D01*
X152208366Y-77771883D01*
X152412429Y-77710661D01*
X152412434Y-77710659D01*
X152417384Y-77709174D01*
X152617994Y-77610896D01*
X152799860Y-77481173D01*
X152958096Y-77323489D01*
X153017594Y-77240689D01*
X153085435Y-77146277D01*
X153088453Y-77142077D01*
X153101995Y-77114678D01*
X153185136Y-76946453D01*
X153185137Y-76946451D01*
X153187430Y-76941811D01*
X153252370Y-76728069D01*
X153281529Y-76506590D01*
X153282266Y-76476445D01*
X153283074Y-76443365D01*
X153283074Y-76443361D01*
X153283156Y-76440000D01*
X153264852Y-76217361D01*
X153210431Y-76000702D01*
X153121354Y-75795840D01*
X153000014Y-75608277D01*
X152996532Y-75604450D01*
X152852798Y-75446488D01*
X152821746Y-75382642D01*
X152830141Y-75312143D01*
X152875317Y-75257375D01*
X152901761Y-75243706D01*
X153008297Y-75203767D01*
X153016705Y-75200615D01*
X153133261Y-75113261D01*
X153220615Y-74996705D01*
X153271745Y-74860316D01*
X153278500Y-74798134D01*
X153278500Y-74478918D01*
X164986917Y-74478918D01*
X164987334Y-74486156D01*
X165002682Y-74752320D01*
X165055405Y-75021053D01*
X165056792Y-75025103D01*
X165056793Y-75025108D01*
X165137815Y-75261753D01*
X165144112Y-75280144D01*
X165173238Y-75338054D01*
X165242837Y-75476437D01*
X165267160Y-75524799D01*
X165269586Y-75528328D01*
X165269589Y-75528334D01*
X165413352Y-75737509D01*
X165422274Y-75750490D01*
X165606582Y-75953043D01*
X165816675Y-76128707D01*
X165820316Y-76130991D01*
X166045024Y-76271951D01*
X166045028Y-76271953D01*
X166048664Y-76274234D01*
X166116544Y-76304883D01*
X166294345Y-76385164D01*
X166294349Y-76385166D01*
X166298257Y-76386930D01*
X166302377Y-76388150D01*
X166302376Y-76388150D01*
X166556723Y-76463491D01*
X166556727Y-76463492D01*
X166560836Y-76464709D01*
X166565070Y-76465357D01*
X166565075Y-76465358D01*
X166827298Y-76505483D01*
X166827300Y-76505483D01*
X166831540Y-76506132D01*
X166970912Y-76508322D01*
X167101071Y-76510367D01*
X167101077Y-76510367D01*
X167105362Y-76510434D01*
X167377235Y-76477534D01*
X167642127Y-76408041D01*
X167646087Y-76406401D01*
X167646092Y-76406399D01*
X167768631Y-76355641D01*
X167895136Y-76303241D01*
X168050691Y-76212342D01*
X168127879Y-76167237D01*
X168127880Y-76167236D01*
X168131582Y-76165073D01*
X168347089Y-75996094D01*
X168373050Y-75969305D01*
X168534686Y-75802509D01*
X168537669Y-75799431D01*
X168540202Y-75795983D01*
X168540206Y-75795978D01*
X168697257Y-75582178D01*
X168699795Y-75578723D01*
X168727154Y-75528334D01*
X168828418Y-75341830D01*
X168828419Y-75341828D01*
X168830468Y-75338054D01*
X168916109Y-75111412D01*
X168925751Y-75085895D01*
X168925752Y-75085891D01*
X168927269Y-75081877D01*
X168975788Y-74870031D01*
X168987449Y-74819117D01*
X168987450Y-74819113D01*
X168988407Y-74814933D01*
X168989907Y-74798134D01*
X169012531Y-74544627D01*
X169012531Y-74544625D01*
X169012751Y-74542161D01*
X169013193Y-74500000D01*
X169006849Y-74406944D01*
X168994859Y-74231055D01*
X168994858Y-74231049D01*
X168994567Y-74226778D01*
X168939032Y-73958612D01*
X168847617Y-73700465D01*
X168722013Y-73457112D01*
X168712040Y-73442921D01*
X168567008Y-73236562D01*
X168564545Y-73233057D01*
X168494466Y-73157643D01*
X168381046Y-73035588D01*
X168381043Y-73035585D01*
X168378125Y-73032445D01*
X168374810Y-73029731D01*
X168374806Y-73029728D01*
X168220037Y-72903051D01*
X168166205Y-72858990D01*
X167932704Y-72715901D01*
X167928768Y-72714173D01*
X167685873Y-72607549D01*
X167685869Y-72607548D01*
X167681945Y-72605825D01*
X167418566Y-72530800D01*
X167414324Y-72530196D01*
X167414318Y-72530195D01*
X167213834Y-72501662D01*
X167147443Y-72492213D01*
X167003589Y-72491460D01*
X166877877Y-72490802D01*
X166877871Y-72490802D01*
X166873591Y-72490780D01*
X166869347Y-72491339D01*
X166869343Y-72491339D01*
X166750302Y-72507011D01*
X166602078Y-72526525D01*
X166597938Y-72527658D01*
X166597936Y-72527658D01*
X166542473Y-72542831D01*
X166337928Y-72598788D01*
X166333980Y-72600472D01*
X166089982Y-72704546D01*
X166089978Y-72704548D01*
X166086030Y-72706232D01*
X166066125Y-72718145D01*
X165854725Y-72844664D01*
X165854721Y-72844667D01*
X165851043Y-72846868D01*
X165637318Y-73018094D01*
X165525964Y-73135436D01*
X165468449Y-73196045D01*
X165448808Y-73216742D01*
X165289002Y-73439136D01*
X165160857Y-73681161D01*
X165159385Y-73685184D01*
X165159383Y-73685188D01*
X165068214Y-73934317D01*
X165066743Y-73938337D01*
X165008404Y-74205907D01*
X164986917Y-74478918D01*
X153278500Y-74478918D01*
X153278500Y-73001866D01*
X153271745Y-72939684D01*
X153220615Y-72803295D01*
X153133261Y-72686739D01*
X153016705Y-72599385D01*
X152880316Y-72548255D01*
X152818134Y-72541500D01*
X151021866Y-72541500D01*
X150959684Y-72548255D01*
X150823295Y-72599385D01*
X150706739Y-72686739D01*
X150619385Y-72803295D01*
X150616233Y-72811703D01*
X150574919Y-72921907D01*
X150532277Y-72978671D01*
X150465716Y-73003371D01*
X150396367Y-72988163D01*
X150363743Y-72962476D01*
X150313151Y-72906875D01*
X150313142Y-72906866D01*
X150309670Y-72903051D01*
X150305619Y-72899852D01*
X150305615Y-72899848D01*
X150138414Y-72767800D01*
X150138410Y-72767798D01*
X150134359Y-72764598D01*
X149938789Y-72656638D01*
X149933920Y-72654914D01*
X149933916Y-72654912D01*
X149733087Y-72583795D01*
X149733083Y-72583794D01*
X149728212Y-72582069D01*
X149723119Y-72581162D01*
X149723116Y-72581161D01*
X149513373Y-72543800D01*
X149513367Y-72543799D01*
X149508284Y-72542894D01*
X149434452Y-72541992D01*
X149290081Y-72540228D01*
X149290079Y-72540228D01*
X149284911Y-72540165D01*
X149064091Y-72573955D01*
X148851756Y-72643357D01*
X148653607Y-72746507D01*
X148649474Y-72749610D01*
X148649471Y-72749612D01*
X148503793Y-72858990D01*
X148474965Y-72880635D01*
X148435525Y-72921907D01*
X148359745Y-73001206D01*
X148320629Y-73042138D01*
X148213201Y-73199621D01*
X148158293Y-73244621D01*
X148087768Y-73252792D01*
X148024021Y-73221538D01*
X148003324Y-73197054D01*
X147922822Y-73072617D01*
X147922820Y-73072614D01*
X147920014Y-73068277D01*
X147769670Y-72903051D01*
X147765619Y-72899852D01*
X147765615Y-72899848D01*
X147598414Y-72767800D01*
X147598410Y-72767798D01*
X147594359Y-72764598D01*
X147398789Y-72656638D01*
X147393920Y-72654914D01*
X147393916Y-72654912D01*
X147193087Y-72583795D01*
X147193083Y-72583794D01*
X147188212Y-72582069D01*
X147183119Y-72581162D01*
X147183116Y-72581161D01*
X146973373Y-72543800D01*
X146973367Y-72543799D01*
X146968284Y-72542894D01*
X146894452Y-72541992D01*
X146750081Y-72540228D01*
X146750079Y-72540228D01*
X146744911Y-72540165D01*
X146524091Y-72573955D01*
X146311756Y-72643357D01*
X146113607Y-72746507D01*
X146109474Y-72749610D01*
X146109471Y-72749612D01*
X145963793Y-72858990D01*
X145934965Y-72880635D01*
X145895525Y-72921907D01*
X145819745Y-73001206D01*
X145780629Y-73042138D01*
X145673201Y-73199621D01*
X145618293Y-73244621D01*
X145547768Y-73252792D01*
X145484021Y-73221538D01*
X145463324Y-73197054D01*
X145382822Y-73072617D01*
X145382820Y-73072614D01*
X145380014Y-73068277D01*
X145229670Y-72903051D01*
X145225619Y-72899852D01*
X145225615Y-72899848D01*
X145058414Y-72767800D01*
X145058410Y-72767798D01*
X145054359Y-72764598D01*
X144858789Y-72656638D01*
X144853920Y-72654914D01*
X144853916Y-72654912D01*
X144653087Y-72583795D01*
X144653083Y-72583794D01*
X144648212Y-72582069D01*
X144643119Y-72581162D01*
X144643116Y-72581161D01*
X144433373Y-72543800D01*
X144433367Y-72543799D01*
X144428284Y-72542894D01*
X144354452Y-72541992D01*
X144210081Y-72540228D01*
X144210079Y-72540228D01*
X144204911Y-72540165D01*
X143984091Y-72573955D01*
X143771756Y-72643357D01*
X143573607Y-72746507D01*
X143569474Y-72749610D01*
X143569471Y-72749612D01*
X143423793Y-72858990D01*
X143394965Y-72880635D01*
X143355525Y-72921907D01*
X143279745Y-73001206D01*
X143240629Y-73042138D01*
X143133201Y-73199621D01*
X143078293Y-73244621D01*
X143007768Y-73252792D01*
X142944021Y-73221538D01*
X142923324Y-73197054D01*
X142842822Y-73072617D01*
X142842820Y-73072614D01*
X142840014Y-73068277D01*
X142689670Y-72903051D01*
X142685619Y-72899852D01*
X142685615Y-72899848D01*
X142518414Y-72767800D01*
X142518410Y-72767798D01*
X142514359Y-72764598D01*
X142318789Y-72656638D01*
X142313920Y-72654914D01*
X142313916Y-72654912D01*
X142113087Y-72583795D01*
X142113083Y-72583794D01*
X142108212Y-72582069D01*
X142103119Y-72581162D01*
X142103116Y-72581161D01*
X141893373Y-72543800D01*
X141893367Y-72543799D01*
X141888284Y-72542894D01*
X141814452Y-72541992D01*
X141670081Y-72540228D01*
X141670079Y-72540228D01*
X141664911Y-72540165D01*
X141444091Y-72573955D01*
X141231756Y-72643357D01*
X141033607Y-72746507D01*
X141029474Y-72749610D01*
X141029471Y-72749612D01*
X140883793Y-72858990D01*
X140854965Y-72880635D01*
X140815525Y-72921907D01*
X140739745Y-73001206D01*
X140700629Y-73042138D01*
X140593201Y-73199621D01*
X140538293Y-73244621D01*
X140467768Y-73252792D01*
X140404021Y-73221538D01*
X140383324Y-73197054D01*
X140302822Y-73072617D01*
X140302820Y-73072614D01*
X140300014Y-73068277D01*
X140149670Y-72903051D01*
X140145619Y-72899852D01*
X140145615Y-72899848D01*
X139978414Y-72767800D01*
X139978410Y-72767798D01*
X139974359Y-72764598D01*
X139778789Y-72656638D01*
X139773920Y-72654914D01*
X139773916Y-72654912D01*
X139573087Y-72583795D01*
X139573083Y-72583794D01*
X139568212Y-72582069D01*
X139563119Y-72581162D01*
X139563116Y-72581161D01*
X139353373Y-72543800D01*
X139353367Y-72543799D01*
X139348284Y-72542894D01*
X139274452Y-72541992D01*
X139130081Y-72540228D01*
X139130079Y-72540228D01*
X139124911Y-72540165D01*
X138904091Y-72573955D01*
X138691756Y-72643357D01*
X138493607Y-72746507D01*
X138489474Y-72749610D01*
X138489471Y-72749612D01*
X138343793Y-72858990D01*
X138314965Y-72880635D01*
X138275525Y-72921907D01*
X138199745Y-73001206D01*
X138160629Y-73042138D01*
X138053201Y-73199621D01*
X137998293Y-73244621D01*
X137927768Y-73252792D01*
X137864021Y-73221538D01*
X137843324Y-73197054D01*
X137762822Y-73072617D01*
X137762820Y-73072614D01*
X137760014Y-73068277D01*
X137609670Y-72903051D01*
X137605619Y-72899852D01*
X137605615Y-72899848D01*
X137438414Y-72767800D01*
X137438410Y-72767798D01*
X137434359Y-72764598D01*
X137238789Y-72656638D01*
X137233920Y-72654914D01*
X137233916Y-72654912D01*
X137033087Y-72583795D01*
X137033083Y-72583794D01*
X137028212Y-72582069D01*
X137023119Y-72581162D01*
X137023116Y-72581161D01*
X136813373Y-72543800D01*
X136813367Y-72543799D01*
X136808284Y-72542894D01*
X136734452Y-72541992D01*
X136590081Y-72540228D01*
X136590079Y-72540228D01*
X136584911Y-72540165D01*
X136364091Y-72573955D01*
X136151756Y-72643357D01*
X135953607Y-72746507D01*
X135949474Y-72749610D01*
X135949471Y-72749612D01*
X135803793Y-72858990D01*
X135774965Y-72880635D01*
X135735525Y-72921907D01*
X135659745Y-73001206D01*
X135620629Y-73042138D01*
X135513201Y-73199621D01*
X135458293Y-73244621D01*
X135387768Y-73252792D01*
X135324021Y-73221538D01*
X135303324Y-73197054D01*
X135222822Y-73072617D01*
X135222820Y-73072614D01*
X135220014Y-73068277D01*
X135069670Y-72903051D01*
X135065619Y-72899852D01*
X135065615Y-72899848D01*
X134898414Y-72767800D01*
X134898410Y-72767798D01*
X134894359Y-72764598D01*
X134698789Y-72656638D01*
X134693920Y-72654914D01*
X134693916Y-72654912D01*
X134493087Y-72583795D01*
X134493083Y-72583794D01*
X134488212Y-72582069D01*
X134483119Y-72581162D01*
X134483116Y-72581161D01*
X134273373Y-72543800D01*
X134273367Y-72543799D01*
X134268284Y-72542894D01*
X134194452Y-72541992D01*
X134050081Y-72540228D01*
X134050079Y-72540228D01*
X134044911Y-72540165D01*
X133824091Y-72573955D01*
X133611756Y-72643357D01*
X133413607Y-72746507D01*
X133409474Y-72749610D01*
X133409471Y-72749612D01*
X133263793Y-72858990D01*
X133234965Y-72880635D01*
X133195525Y-72921907D01*
X133119745Y-73001206D01*
X133080629Y-73042138D01*
X133077720Y-73046403D01*
X133077714Y-73046411D01*
X132992556Y-73171249D01*
X132954743Y-73226680D01*
X132860688Y-73429305D01*
X132800989Y-73644570D01*
X132777251Y-73866695D01*
X132777548Y-73871848D01*
X132777548Y-73871851D01*
X132789812Y-74084547D01*
X132790110Y-74089715D01*
X132791247Y-74094761D01*
X132791248Y-74094767D01*
X132797424Y-74122169D01*
X132839222Y-74307639D01*
X132923266Y-74514616D01*
X132960685Y-74575678D01*
X133037291Y-74700688D01*
X133039987Y-74705088D01*
X133186250Y-74873938D01*
X133358126Y-75016632D01*
X133365692Y-75021053D01*
X133431445Y-75059476D01*
X133480169Y-75111114D01*
X133493240Y-75180897D01*
X133466509Y-75246669D01*
X133426055Y-75280027D01*
X133413607Y-75286507D01*
X133409474Y-75289610D01*
X133409471Y-75289612D01*
X133239100Y-75417530D01*
X133234965Y-75420635D01*
X133080629Y-75582138D01*
X132954743Y-75766680D01*
X132939541Y-75799431D01*
X132868237Y-75953043D01*
X132860688Y-75969305D01*
X132800989Y-76184570D01*
X132777251Y-76406695D01*
X119645377Y-76406695D01*
X119646087Y-76406401D01*
X119646092Y-76406399D01*
X119768631Y-76355641D01*
X119895136Y-76303241D01*
X120050691Y-76212342D01*
X120127879Y-76167237D01*
X120127880Y-76167236D01*
X120131582Y-76165073D01*
X120347089Y-75996094D01*
X120373050Y-75969305D01*
X120534686Y-75802509D01*
X120537669Y-75799431D01*
X120540202Y-75795983D01*
X120540206Y-75795978D01*
X120697257Y-75582178D01*
X120699795Y-75578723D01*
X120727154Y-75528334D01*
X120828418Y-75341830D01*
X120828419Y-75341828D01*
X120830468Y-75338054D01*
X120916109Y-75111412D01*
X120925751Y-75085895D01*
X120925752Y-75085891D01*
X120927269Y-75081877D01*
X120975788Y-74870031D01*
X120987449Y-74819117D01*
X120987450Y-74819113D01*
X120988407Y-74814933D01*
X120989907Y-74798134D01*
X121012531Y-74544627D01*
X121012531Y-74544625D01*
X121012751Y-74542161D01*
X121013193Y-74500000D01*
X121006849Y-74406944D01*
X120994859Y-74231055D01*
X120994858Y-74231049D01*
X120994567Y-74226778D01*
X120939032Y-73958612D01*
X120907653Y-73870000D01*
X123586496Y-73870000D01*
X123587186Y-73876565D01*
X123596251Y-73962809D01*
X123606458Y-74059928D01*
X123665473Y-74241556D01*
X123760960Y-74406944D01*
X123765378Y-74411851D01*
X123765379Y-74411852D01*
X123869675Y-74527684D01*
X123888747Y-74548866D01*
X124043248Y-74661118D01*
X124049276Y-74663802D01*
X124049278Y-74663803D01*
X124174747Y-74719665D01*
X124217712Y-74738794D01*
X124301172Y-74756534D01*
X124398056Y-74777128D01*
X124398061Y-74777128D01*
X124404513Y-74778500D01*
X124595487Y-74778500D01*
X124601939Y-74777128D01*
X124601944Y-74777128D01*
X124698828Y-74756534D01*
X124782288Y-74738794D01*
X124825253Y-74719665D01*
X124950722Y-74663803D01*
X124950724Y-74663802D01*
X124956752Y-74661118D01*
X125111253Y-74548866D01*
X125130325Y-74527684D01*
X125234621Y-74411852D01*
X125234622Y-74411851D01*
X125239040Y-74406944D01*
X125334527Y-74241556D01*
X125393542Y-74059928D01*
X125403750Y-73962809D01*
X125412814Y-73876565D01*
X125413504Y-73870000D01*
X125396110Y-73704506D01*
X125394232Y-73686635D01*
X125394232Y-73686633D01*
X125393542Y-73680072D01*
X125334527Y-73498444D01*
X125239040Y-73333056D01*
X125169515Y-73255840D01*
X125115675Y-73196045D01*
X125115674Y-73196044D01*
X125111253Y-73191134D01*
X124956752Y-73078882D01*
X124950724Y-73076198D01*
X124950722Y-73076197D01*
X124788319Y-73003891D01*
X124788318Y-73003891D01*
X124782288Y-73001206D01*
X124676270Y-72978671D01*
X124601944Y-72962872D01*
X124601939Y-72962872D01*
X124595487Y-72961500D01*
X124404513Y-72961500D01*
X124398061Y-72962872D01*
X124398056Y-72962872D01*
X124323730Y-72978671D01*
X124217712Y-73001206D01*
X124211682Y-73003891D01*
X124211681Y-73003891D01*
X124049278Y-73076197D01*
X124049276Y-73076198D01*
X124043248Y-73078882D01*
X123888747Y-73191134D01*
X123884326Y-73196044D01*
X123884325Y-73196045D01*
X123830486Y-73255840D01*
X123760960Y-73333056D01*
X123665473Y-73498444D01*
X123606458Y-73680072D01*
X123605768Y-73686633D01*
X123605768Y-73686635D01*
X123603890Y-73704506D01*
X123586496Y-73870000D01*
X120907653Y-73870000D01*
X120847617Y-73700465D01*
X120722013Y-73457112D01*
X120712040Y-73442921D01*
X120567008Y-73236562D01*
X120564545Y-73233057D01*
X120494466Y-73157643D01*
X120381046Y-73035588D01*
X120381043Y-73035585D01*
X120378125Y-73032445D01*
X120374810Y-73029731D01*
X120374806Y-73029728D01*
X120220037Y-72903051D01*
X120166205Y-72858990D01*
X119932704Y-72715901D01*
X119928768Y-72714173D01*
X119685873Y-72607549D01*
X119685869Y-72607548D01*
X119681945Y-72605825D01*
X119418566Y-72530800D01*
X119414324Y-72530196D01*
X119414318Y-72530195D01*
X119213834Y-72501662D01*
X119147443Y-72492213D01*
X119003589Y-72491460D01*
X118877877Y-72490802D01*
X118877871Y-72490802D01*
X118873591Y-72490780D01*
X118869347Y-72491339D01*
X118869343Y-72491339D01*
X118750302Y-72507011D01*
X118602078Y-72526525D01*
X118597938Y-72527658D01*
X118597936Y-72527658D01*
X118542473Y-72542831D01*
X118337928Y-72598788D01*
X118333980Y-72600472D01*
X118089982Y-72704546D01*
X118089978Y-72704548D01*
X118086030Y-72706232D01*
X118066125Y-72718145D01*
X117854725Y-72844664D01*
X117854721Y-72844667D01*
X117851043Y-72846868D01*
X117637318Y-73018094D01*
X117525964Y-73135436D01*
X117468449Y-73196045D01*
X117448808Y-73216742D01*
X117289002Y-73439136D01*
X117160857Y-73681161D01*
X117159385Y-73685184D01*
X117159383Y-73685188D01*
X117068214Y-73934317D01*
X117066743Y-73938337D01*
X117008404Y-74205907D01*
X116986917Y-74478918D01*
X116508500Y-74478918D01*
X116508500Y-72134500D01*
X116528502Y-72066379D01*
X116582158Y-72019886D01*
X116634500Y-72008500D01*
X169365500Y-72008500D01*
X169433621Y-72028502D01*
G37*
%TD.AperFunction*%
%TD*%
M02*
