%TF.GenerationSoftware,KiCad,Pcbnew,6.0.8+dfsg-1~bpo11+1*%
%TF.CreationDate,2022-10-31T17:28:34+01:00*%
%TF.ProjectId,vertExpI2c_00,76657274-4578-4704-9932-635f30302e6b,rev?*%
%TF.SameCoordinates,Original*%
%TF.FileFunction,Copper,L2,Inr*%
%TF.FilePolarity,Positive*%
%FSLAX46Y46*%
G04 Gerber Fmt 4.6, Leading zero omitted, Abs format (unit mm)*
G04 Created by KiCad (PCBNEW 6.0.8+dfsg-1~bpo11+1) date 2022-10-31 17:28:34*
%MOMM*%
%LPD*%
G01*
G04 APERTURE LIST*
%TA.AperFunction,ComponentPad*%
%ADD10R,1.700000X1.700000*%
%TD*%
%TA.AperFunction,ComponentPad*%
%ADD11O,1.700000X1.700000*%
%TD*%
%TA.AperFunction,ViaPad*%
%ADD12C,0.800000*%
%TD*%
%TA.AperFunction,Conductor*%
%ADD13C,0.800000*%
%TD*%
%TA.AperFunction,Conductor*%
%ADD14C,0.400000*%
%TD*%
G04 APERTURE END LIST*
D10*
%TO.N,GNDD*%
%TO.C,J2*%
X134125000Y-123175000D03*
D11*
%TO.N,/SC4*%
X134125000Y-120635000D03*
%TO.N,/SD4*%
X136665000Y-123175000D03*
%TO.N,/SC5*%
X136665000Y-120635000D03*
%TO.N,/SD5*%
X139205000Y-123175000D03*
%TO.N,unconnected-(J2-Pad6)*%
X139205000Y-120635000D03*
%TO.N,unconnected-(J2-Pad7)*%
X141745000Y-123175000D03*
%TO.N,unconnected-(J2-Pad8)*%
X141745000Y-120635000D03*
%TO.N,unconnected-(J2-Pad9)*%
X144285000Y-123175000D03*
%TO.N,+5V*%
X144285000Y-120635000D03*
%TO.N,-12V*%
X146825000Y-123175000D03*
%TO.N,+12V*%
X146825000Y-120635000D03*
%TO.N,GNDD*%
X149365000Y-123175000D03*
%TO.N,Earth*%
X149365000Y-120635000D03*
%TO.N,+VSW*%
X151905000Y-123175000D03*
X151905000Y-120635000D03*
%TD*%
D10*
%TO.N,Net-(J5-Pad1)*%
%TO.C,J5*%
X156375000Y-82785000D03*
D11*
%TO.N,GND*%
X156375000Y-80245000D03*
%TO.N,Net-(J5-Pad3)*%
X158915000Y-82785000D03*
%TO.N,GND*%
X158915000Y-80245000D03*
%TO.N,Net-(J5-Pad5)*%
X161455000Y-82785000D03*
%TO.N,GND*%
X161455000Y-80245000D03*
%TD*%
D10*
%TO.N,+3V3*%
%TO.C,J3*%
X165100000Y-89600000D03*
D11*
%TO.N,GND*%
X167640000Y-89600000D03*
%TO.N,/TXD*%
X165100000Y-92140000D03*
%TO.N,/RXD*%
X167640000Y-92140000D03*
%TO.N,/SCL*%
X165100000Y-94680000D03*
%TO.N,/SDA*%
X167640000Y-94680000D03*
%TO.N,/MISO*%
X165100000Y-97220000D03*
%TO.N,/MOSI*%
X167640000Y-97220000D03*
%TO.N,/SCK*%
X165100000Y-99760000D03*
%TO.N,/SSEL1*%
X167640000Y-99760000D03*
%TO.N,/SSEL2*%
X165100000Y-102300000D03*
%TO.N,/SSEL3*%
X167640000Y-102300000D03*
%TO.N,Earth*%
X165100000Y-104840000D03*
%TO.N,GND*%
X167640000Y-104840000D03*
%TO.N,+24V*%
X165100000Y-107380000D03*
X167640000Y-107380000D03*
%TD*%
D10*
%TO.N,GNDD*%
%TO.C,J1*%
X151920000Y-73900000D03*
D11*
%TO.N,/SC0*%
X151920000Y-76440000D03*
%TO.N,/SD0*%
X149380000Y-73900000D03*
%TO.N,/SC1*%
X149380000Y-76440000D03*
%TO.N,/SD1*%
X146840000Y-73900000D03*
%TO.N,unconnected-(J1-Pad6)*%
X146840000Y-76440000D03*
%TO.N,unconnected-(J1-Pad7)*%
X144300000Y-73900000D03*
%TO.N,unconnected-(J1-Pad8)*%
X144300000Y-76440000D03*
%TO.N,unconnected-(J1-Pad9)*%
X141760000Y-73900000D03*
%TO.N,+5V*%
X141760000Y-76440000D03*
%TO.N,-12V*%
X139220000Y-73900000D03*
%TO.N,+12V*%
X139220000Y-76440000D03*
%TO.N,GNDD*%
X136680000Y-73900000D03*
%TO.N,Earth*%
X136680000Y-76440000D03*
%TO.N,+VSW*%
X134140000Y-73900000D03*
X134140000Y-76440000D03*
%TD*%
D10*
%TO.N,+3V3*%
%TO.C,J4*%
X118400000Y-89600000D03*
D11*
%TO.N,GND*%
X120940000Y-89600000D03*
%TO.N,/TXD*%
X118400000Y-92140000D03*
%TO.N,/RXD*%
X120940000Y-92140000D03*
%TO.N,/SCL*%
X118400000Y-94680000D03*
%TO.N,/SDA*%
X120940000Y-94680000D03*
%TO.N,/MISO*%
X118400000Y-97220000D03*
%TO.N,/MOSI*%
X120940000Y-97220000D03*
%TO.N,/SCK*%
X118400000Y-99760000D03*
%TO.N,/SSEL1*%
X120940000Y-99760000D03*
%TO.N,/SSEL2*%
X118400000Y-102300000D03*
%TO.N,/SSEL3*%
X120940000Y-102300000D03*
%TO.N,Earth*%
X118400000Y-104840000D03*
%TO.N,GND*%
X120940000Y-104840000D03*
%TO.N,+24V*%
X118400000Y-107380000D03*
X120940000Y-107380000D03*
%TD*%
D12*
%TO.N,GND*%
X144370000Y-86710000D03*
X150880000Y-85590000D03*
X144840000Y-110100000D03*
X136660000Y-103590000D03*
X136195000Y-110035000D03*
%TO.N,+5V*%
X143000000Y-80540000D03*
X132590000Y-114900000D03*
%TO.N,GNDD*%
X144270000Y-79440000D03*
X129300000Y-84490000D03*
X137910000Y-114400000D03*
X144490000Y-115470000D03*
X134930000Y-79790000D03*
X132310000Y-79380000D03*
X128990000Y-79280000D03*
%TO.N,+3V3*%
X145050000Y-108930000D03*
X139830000Y-108910000D03*
X154140000Y-108910000D03*
X151460000Y-108920000D03*
X142240000Y-108910000D03*
%TO.N,+12V*%
X133020000Y-83320000D03*
X126010000Y-117330000D03*
X135370000Y-106080000D03*
%TO.N,-12V*%
X128390000Y-110040000D03*
%TO.N,+VSW*%
X124500000Y-73870000D03*
%TO.N,/SC5*%
X140975500Y-115300000D03*
X145100000Y-114600000D03*
%TO.N,/SD5*%
X148700000Y-118000000D03*
X141900000Y-116300000D03*
%TO.N,Earth*%
X159280000Y-110060000D03*
X140000000Y-104840000D03*
X136680000Y-89440000D03*
%TO.N,Net-(J5-Pad1)*%
X156700000Y-91170000D03*
%TO.N,Net-(R11-Pad1)*%
X151710000Y-91320000D03*
X149040000Y-91290000D03*
%TO.N,Net-(R12-Pad1)*%
X142940000Y-91250000D03*
X147000000Y-91250000D03*
%TD*%
D13*
%TO.N,+24V*%
X120940000Y-107380000D02*
X165100000Y-107380000D01*
X167640000Y-107380000D02*
X165100000Y-107380000D01*
X118400000Y-107380000D02*
X120940000Y-107380000D01*
D14*
%TO.N,GND*%
X167640000Y-104840000D02*
X166390000Y-103590000D01*
X166390000Y-103590000D02*
X136660000Y-103590000D01*
X136660000Y-103590000D02*
X123360000Y-103590000D01*
X122110000Y-104840000D02*
X120940000Y-104840000D01*
X123360000Y-103590000D02*
X122110000Y-104840000D01*
%TO.N,/TXD*%
X121417767Y-93430000D02*
X122707767Y-92140000D01*
X119690000Y-93430000D02*
X121417767Y-93430000D01*
X122707767Y-92140000D02*
X165100000Y-92140000D01*
X118400000Y-92140000D02*
X119690000Y-93430000D01*
%TO.N,/RXD*%
X122190000Y-90890000D02*
X139740000Y-90890000D01*
X141130000Y-89500000D02*
X161420000Y-89500000D01*
X120940000Y-92140000D02*
X122190000Y-90890000D01*
X166390000Y-90890000D02*
X167640000Y-92140000D01*
X161420000Y-89500000D02*
X162810000Y-90890000D01*
X162810000Y-90890000D02*
X166390000Y-90890000D01*
X139740000Y-90890000D02*
X141130000Y-89500000D01*
%TO.N,/SCL*%
X118400000Y-94680000D02*
X119650000Y-95930000D01*
X122707767Y-94680000D02*
X121457767Y-95930000D01*
X124560000Y-94680000D02*
X165100000Y-94680000D01*
X119650000Y-95930000D02*
X121457767Y-95930000D01*
X124560000Y-94680000D02*
X122707767Y-94680000D01*
%TO.N,/SDA*%
X166390000Y-93430000D02*
X167640000Y-94680000D01*
X121410000Y-94680000D02*
X122660000Y-93430000D01*
X120940000Y-94680000D02*
X121410000Y-94680000D01*
X122660000Y-93430000D02*
X166390000Y-93430000D01*
%TO.N,/MISO*%
X165100000Y-97220000D02*
X122980000Y-97220000D01*
X121690000Y-98510000D02*
X119690000Y-98510000D01*
X122980000Y-97220000D02*
X121690000Y-98510000D01*
X119690000Y-98510000D02*
X118400000Y-97220000D01*
%TO.N,/MOSI*%
X120940000Y-97220000D02*
X121690000Y-97220000D01*
X122940000Y-95970000D02*
X166390000Y-95970000D01*
X166390000Y-95970000D02*
X167640000Y-97220000D01*
X121690000Y-97220000D02*
X122940000Y-95970000D01*
%TO.N,/SCK*%
X121930000Y-101050000D02*
X119690000Y-101050000D01*
X123220000Y-99760000D02*
X121930000Y-101050000D01*
X119690000Y-101050000D02*
X118400000Y-99760000D01*
X165100000Y-99760000D02*
X123220000Y-99760000D01*
%TO.N,/SSEL1*%
X166390000Y-98510000D02*
X123140000Y-98510000D01*
X167640000Y-99760000D02*
X166390000Y-98510000D01*
X121890000Y-99760000D02*
X120940000Y-99760000D01*
X123140000Y-98510000D02*
X121890000Y-99760000D01*
%TO.N,/SSEL2*%
X123090000Y-102300000D02*
X121800000Y-103590000D01*
X165100000Y-102300000D02*
X123090000Y-102300000D01*
X119690000Y-103590000D02*
X118400000Y-102300000D01*
X121800000Y-103590000D02*
X119690000Y-103590000D01*
%TO.N,/SSEL3*%
X166390000Y-101050000D02*
X167640000Y-102300000D01*
X122000000Y-102300000D02*
X123250000Y-101050000D01*
X120940000Y-102300000D02*
X122000000Y-102300000D01*
X123250000Y-101050000D02*
X166390000Y-101050000D01*
D13*
%TO.N,Earth*%
X136680000Y-76440000D02*
X136680000Y-89440000D01*
D14*
X140000000Y-104840000D02*
X123370000Y-104840000D01*
D13*
X149700000Y-119640000D02*
X159280000Y-110060000D01*
D14*
X119690000Y-106130000D02*
X118400000Y-104840000D01*
D13*
X149700000Y-120300000D02*
X149700000Y-119640000D01*
X149365000Y-120635000D02*
X149700000Y-120300000D01*
D14*
X122080000Y-106130000D02*
X119690000Y-106130000D01*
X123370000Y-104840000D02*
X122080000Y-106130000D01*
X165100000Y-104840000D02*
X140000000Y-104840000D01*
%TD*%
%TA.AperFunction,Conductor*%
%TO.N,GNDD*%
G36*
X169433621Y-72028502D02*
G01*
X169480114Y-72082158D01*
X169491500Y-72134500D01*
X169491500Y-77374000D01*
X169471498Y-77442121D01*
X169417842Y-77488614D01*
X169365500Y-77500000D01*
X153500000Y-77500000D01*
X153500000Y-83874000D01*
X153479998Y-83942121D01*
X153426342Y-83988614D01*
X153374000Y-84000000D01*
X137714500Y-84000000D01*
X137646379Y-83979998D01*
X137599886Y-83926342D01*
X137588500Y-83874000D01*
X137588500Y-80540000D01*
X142086496Y-80540000D01*
X142106458Y-80729928D01*
X142165473Y-80911556D01*
X142260960Y-81076944D01*
X142388747Y-81218866D01*
X142543248Y-81331118D01*
X142549276Y-81333802D01*
X142549278Y-81333803D01*
X142711681Y-81406109D01*
X142717712Y-81408794D01*
X142801012Y-81426500D01*
X142898056Y-81447128D01*
X142898061Y-81447128D01*
X142904513Y-81448500D01*
X143095487Y-81448500D01*
X143101939Y-81447128D01*
X143101944Y-81447128D01*
X143198988Y-81426500D01*
X143282288Y-81408794D01*
X143288319Y-81406109D01*
X143450722Y-81333803D01*
X143450724Y-81333802D01*
X143456752Y-81331118D01*
X143611253Y-81218866D01*
X143739040Y-81076944D01*
X143834527Y-80911556D01*
X143893542Y-80729928D01*
X143913504Y-80540000D01*
X143893542Y-80350072D01*
X143834527Y-80168444D01*
X143739040Y-80003056D01*
X143611253Y-79861134D01*
X143456752Y-79748882D01*
X143450724Y-79746198D01*
X143450722Y-79746197D01*
X143288319Y-79673891D01*
X143288318Y-79673891D01*
X143282288Y-79671206D01*
X143188887Y-79651353D01*
X143101944Y-79632872D01*
X143101939Y-79632872D01*
X143095487Y-79631500D01*
X142904513Y-79631500D01*
X142898061Y-79632872D01*
X142898056Y-79632872D01*
X142811113Y-79651353D01*
X142717712Y-79671206D01*
X142711682Y-79673891D01*
X142711681Y-79673891D01*
X142549278Y-79746197D01*
X142549276Y-79746198D01*
X142543248Y-79748882D01*
X142388747Y-79861134D01*
X142260960Y-80003056D01*
X142165473Y-80168444D01*
X142106458Y-80350072D01*
X142086496Y-80540000D01*
X137588500Y-80540000D01*
X137588500Y-77504953D01*
X137608502Y-77436832D01*
X137625560Y-77415702D01*
X137714435Y-77327137D01*
X137718096Y-77323489D01*
X137777594Y-77240689D01*
X137848453Y-77142077D01*
X137849776Y-77143028D01*
X137896645Y-77099857D01*
X137966580Y-77087625D01*
X138032026Y-77115144D01*
X138059875Y-77146994D01*
X138119987Y-77245088D01*
X138266250Y-77413938D01*
X138438126Y-77556632D01*
X138631000Y-77669338D01*
X138839692Y-77749030D01*
X138844760Y-77750061D01*
X138844763Y-77750062D01*
X138952017Y-77771883D01*
X139058597Y-77793567D01*
X139063772Y-77793757D01*
X139063774Y-77793757D01*
X139276673Y-77801564D01*
X139276677Y-77801564D01*
X139281837Y-77801753D01*
X139286957Y-77801097D01*
X139286959Y-77801097D01*
X139498288Y-77774025D01*
X139498289Y-77774025D01*
X139503416Y-77773368D01*
X139508366Y-77771883D01*
X139712429Y-77710661D01*
X139712434Y-77710659D01*
X139717384Y-77709174D01*
X139917994Y-77610896D01*
X140099860Y-77481173D01*
X140258096Y-77323489D01*
X140317594Y-77240689D01*
X140388453Y-77142077D01*
X140389776Y-77143028D01*
X140436645Y-77099857D01*
X140506580Y-77087625D01*
X140572026Y-77115144D01*
X140599875Y-77146994D01*
X140659987Y-77245088D01*
X140806250Y-77413938D01*
X140978126Y-77556632D01*
X141171000Y-77669338D01*
X141379692Y-77749030D01*
X141384760Y-77750061D01*
X141384763Y-77750062D01*
X141492017Y-77771883D01*
X141598597Y-77793567D01*
X141603772Y-77793757D01*
X141603774Y-77793757D01*
X141816673Y-77801564D01*
X141816677Y-77801564D01*
X141821837Y-77801753D01*
X141826957Y-77801097D01*
X141826959Y-77801097D01*
X142038288Y-77774025D01*
X142038289Y-77774025D01*
X142043416Y-77773368D01*
X142048366Y-77771883D01*
X142252429Y-77710661D01*
X142252434Y-77710659D01*
X142257384Y-77709174D01*
X142457994Y-77610896D01*
X142639860Y-77481173D01*
X142798096Y-77323489D01*
X142857594Y-77240689D01*
X142928453Y-77142077D01*
X142929776Y-77143028D01*
X142976645Y-77099857D01*
X143046580Y-77087625D01*
X143112026Y-77115144D01*
X143139875Y-77146994D01*
X143199987Y-77245088D01*
X143346250Y-77413938D01*
X143518126Y-77556632D01*
X143711000Y-77669338D01*
X143919692Y-77749030D01*
X143924760Y-77750061D01*
X143924763Y-77750062D01*
X144032017Y-77771883D01*
X144138597Y-77793567D01*
X144143772Y-77793757D01*
X144143774Y-77793757D01*
X144356673Y-77801564D01*
X144356677Y-77801564D01*
X144361837Y-77801753D01*
X144366957Y-77801097D01*
X144366959Y-77801097D01*
X144578288Y-77774025D01*
X144578289Y-77774025D01*
X144583416Y-77773368D01*
X144588366Y-77771883D01*
X144792429Y-77710661D01*
X144792434Y-77710659D01*
X144797384Y-77709174D01*
X144997994Y-77610896D01*
X145179860Y-77481173D01*
X145338096Y-77323489D01*
X145397594Y-77240689D01*
X145468453Y-77142077D01*
X145469776Y-77143028D01*
X145516645Y-77099857D01*
X145586580Y-77087625D01*
X145652026Y-77115144D01*
X145679875Y-77146994D01*
X145739987Y-77245088D01*
X145886250Y-77413938D01*
X146058126Y-77556632D01*
X146251000Y-77669338D01*
X146459692Y-77749030D01*
X146464760Y-77750061D01*
X146464763Y-77750062D01*
X146572017Y-77771883D01*
X146678597Y-77793567D01*
X146683772Y-77793757D01*
X146683774Y-77793757D01*
X146896673Y-77801564D01*
X146896677Y-77801564D01*
X146901837Y-77801753D01*
X146906957Y-77801097D01*
X146906959Y-77801097D01*
X147118288Y-77774025D01*
X147118289Y-77774025D01*
X147123416Y-77773368D01*
X147128366Y-77771883D01*
X147332429Y-77710661D01*
X147332434Y-77710659D01*
X147337384Y-77709174D01*
X147537994Y-77610896D01*
X147719860Y-77481173D01*
X147878096Y-77323489D01*
X147937594Y-77240689D01*
X148008453Y-77142077D01*
X148009776Y-77143028D01*
X148056645Y-77099857D01*
X148126580Y-77087625D01*
X148192026Y-77115144D01*
X148219875Y-77146994D01*
X148279987Y-77245088D01*
X148426250Y-77413938D01*
X148598126Y-77556632D01*
X148791000Y-77669338D01*
X148999692Y-77749030D01*
X149004760Y-77750061D01*
X149004763Y-77750062D01*
X149112017Y-77771883D01*
X149218597Y-77793567D01*
X149223772Y-77793757D01*
X149223774Y-77793757D01*
X149436673Y-77801564D01*
X149436677Y-77801564D01*
X149441837Y-77801753D01*
X149446957Y-77801097D01*
X149446959Y-77801097D01*
X149658288Y-77774025D01*
X149658289Y-77774025D01*
X149663416Y-77773368D01*
X149668366Y-77771883D01*
X149872429Y-77710661D01*
X149872434Y-77710659D01*
X149877384Y-77709174D01*
X150077994Y-77610896D01*
X150259860Y-77481173D01*
X150418096Y-77323489D01*
X150477594Y-77240689D01*
X150548453Y-77142077D01*
X150549776Y-77143028D01*
X150596645Y-77099857D01*
X150666580Y-77087625D01*
X150732026Y-77115144D01*
X150759875Y-77146994D01*
X150819987Y-77245088D01*
X150966250Y-77413938D01*
X151138126Y-77556632D01*
X151331000Y-77669338D01*
X151539692Y-77749030D01*
X151544760Y-77750061D01*
X151544763Y-77750062D01*
X151652017Y-77771883D01*
X151758597Y-77793567D01*
X151763772Y-77793757D01*
X151763774Y-77793757D01*
X151976673Y-77801564D01*
X151976677Y-77801564D01*
X151981837Y-77801753D01*
X151986957Y-77801097D01*
X151986959Y-77801097D01*
X152198288Y-77774025D01*
X152198289Y-77774025D01*
X152203416Y-77773368D01*
X152208366Y-77771883D01*
X152412429Y-77710661D01*
X152412434Y-77710659D01*
X152417384Y-77709174D01*
X152617994Y-77610896D01*
X152799860Y-77481173D01*
X152958096Y-77323489D01*
X153017594Y-77240689D01*
X153085435Y-77146277D01*
X153088453Y-77142077D01*
X153109320Y-77099857D01*
X153185136Y-76946453D01*
X153185137Y-76946451D01*
X153187430Y-76941811D01*
X153252370Y-76728069D01*
X153281529Y-76506590D01*
X153282266Y-76476445D01*
X153283074Y-76443365D01*
X153283074Y-76443361D01*
X153283156Y-76440000D01*
X153264852Y-76217361D01*
X153210431Y-76000702D01*
X153121354Y-75795840D01*
X153000014Y-75608277D01*
X152996538Y-75604457D01*
X152996533Y-75604450D01*
X152852435Y-75446088D01*
X152821383Y-75382242D01*
X152829779Y-75311744D01*
X152874956Y-75256976D01*
X152901400Y-75243307D01*
X153008052Y-75203325D01*
X153023649Y-75194786D01*
X153125724Y-75118285D01*
X153138285Y-75105724D01*
X153214786Y-75003649D01*
X153223324Y-74988054D01*
X153268478Y-74867606D01*
X153272105Y-74852351D01*
X153277631Y-74801486D01*
X153278000Y-74794672D01*
X153278000Y-74478918D01*
X164986917Y-74478918D01*
X164987334Y-74486156D01*
X165002682Y-74752320D01*
X165055405Y-75021053D01*
X165056792Y-75025103D01*
X165056793Y-75025108D01*
X165142723Y-75276088D01*
X165144112Y-75280144D01*
X165173238Y-75338054D01*
X165242837Y-75476437D01*
X165267160Y-75524799D01*
X165269586Y-75528328D01*
X165269589Y-75528334D01*
X165324533Y-75608277D01*
X165422274Y-75750490D01*
X165606582Y-75953043D01*
X165816675Y-76128707D01*
X165820316Y-76130991D01*
X166045024Y-76271951D01*
X166045028Y-76271953D01*
X166048664Y-76274234D01*
X166116544Y-76304883D01*
X166294345Y-76385164D01*
X166294349Y-76385166D01*
X166298257Y-76386930D01*
X166302377Y-76388150D01*
X166302376Y-76388150D01*
X166556723Y-76463491D01*
X166556727Y-76463492D01*
X166560836Y-76464709D01*
X166565070Y-76465357D01*
X166565075Y-76465358D01*
X166827298Y-76505483D01*
X166827300Y-76505483D01*
X166831540Y-76506132D01*
X166970912Y-76508322D01*
X167101071Y-76510367D01*
X167101077Y-76510367D01*
X167105362Y-76510434D01*
X167377235Y-76477534D01*
X167642127Y-76408041D01*
X167646087Y-76406401D01*
X167646092Y-76406399D01*
X167768631Y-76355641D01*
X167895136Y-76303241D01*
X168131582Y-76165073D01*
X168347089Y-75996094D01*
X168373050Y-75969305D01*
X168534686Y-75802509D01*
X168537669Y-75799431D01*
X168540202Y-75795983D01*
X168540206Y-75795978D01*
X168697257Y-75582178D01*
X168699795Y-75578723D01*
X168727154Y-75528334D01*
X168828418Y-75341830D01*
X168828419Y-75341828D01*
X168830468Y-75338054D01*
X168915148Y-75113955D01*
X168925751Y-75085895D01*
X168925752Y-75085891D01*
X168927269Y-75081877D01*
X168968173Y-74903279D01*
X168987449Y-74819117D01*
X168987450Y-74819113D01*
X168988407Y-74814933D01*
X168989365Y-74804205D01*
X169012531Y-74544627D01*
X169012531Y-74544625D01*
X169012751Y-74542161D01*
X169013193Y-74500000D01*
X169006849Y-74406944D01*
X168994859Y-74231055D01*
X168994858Y-74231049D01*
X168994567Y-74226778D01*
X168939032Y-73958612D01*
X168847617Y-73700465D01*
X168722013Y-73457112D01*
X168712040Y-73442921D01*
X168580557Y-73255840D01*
X168564545Y-73233057D01*
X168494466Y-73157643D01*
X168381046Y-73035588D01*
X168381043Y-73035585D01*
X168378125Y-73032445D01*
X168374810Y-73029731D01*
X168374806Y-73029728D01*
X168216572Y-72900215D01*
X168166205Y-72858990D01*
X168001847Y-72758272D01*
X167936366Y-72718145D01*
X167936365Y-72718145D01*
X167932704Y-72715901D01*
X167928768Y-72714173D01*
X167685873Y-72607549D01*
X167685869Y-72607548D01*
X167681945Y-72605825D01*
X167418566Y-72530800D01*
X167414324Y-72530196D01*
X167414318Y-72530195D01*
X167213834Y-72501662D01*
X167147443Y-72492213D01*
X167003589Y-72491460D01*
X166877877Y-72490802D01*
X166877871Y-72490802D01*
X166873591Y-72490780D01*
X166869347Y-72491339D01*
X166869343Y-72491339D01*
X166750302Y-72507011D01*
X166602078Y-72526525D01*
X166597938Y-72527658D01*
X166597936Y-72527658D01*
X166542473Y-72542831D01*
X166337928Y-72598788D01*
X166333980Y-72600472D01*
X166089982Y-72704546D01*
X166089978Y-72704548D01*
X166086030Y-72706232D01*
X165992679Y-72762101D01*
X165854725Y-72844664D01*
X165854721Y-72844667D01*
X165851043Y-72846868D01*
X165637318Y-73018094D01*
X165525964Y-73135436D01*
X165468449Y-73196045D01*
X165448808Y-73216742D01*
X165289002Y-73439136D01*
X165160857Y-73681161D01*
X165159385Y-73685184D01*
X165159383Y-73685188D01*
X165080772Y-73900000D01*
X165066743Y-73938337D01*
X165008404Y-74205907D01*
X164986917Y-74478918D01*
X153278000Y-74478918D01*
X153278000Y-74172115D01*
X153273525Y-74156876D01*
X153272135Y-74155671D01*
X153264452Y-74154000D01*
X151792000Y-74154000D01*
X151723879Y-74133998D01*
X151677386Y-74080342D01*
X151666000Y-74028000D01*
X151666000Y-73627885D01*
X152174000Y-73627885D01*
X152178475Y-73643124D01*
X152179865Y-73644329D01*
X152187548Y-73646000D01*
X153259884Y-73646000D01*
X153275123Y-73641525D01*
X153276328Y-73640135D01*
X153277999Y-73632452D01*
X153277999Y-73005331D01*
X153277629Y-72998510D01*
X153272105Y-72947648D01*
X153268479Y-72932396D01*
X153223324Y-72811946D01*
X153214786Y-72796351D01*
X153138285Y-72694276D01*
X153125724Y-72681715D01*
X153023649Y-72605214D01*
X153008054Y-72596676D01*
X152887606Y-72551522D01*
X152872351Y-72547895D01*
X152821486Y-72542369D01*
X152814672Y-72542000D01*
X152192115Y-72542000D01*
X152176876Y-72546475D01*
X152175671Y-72547865D01*
X152174000Y-72555548D01*
X152174000Y-73627885D01*
X151666000Y-73627885D01*
X151666000Y-72560116D01*
X151661525Y-72544877D01*
X151660135Y-72543672D01*
X151652452Y-72542001D01*
X151025331Y-72542001D01*
X151018510Y-72542371D01*
X150967648Y-72547895D01*
X150952396Y-72551521D01*
X150831946Y-72596676D01*
X150816351Y-72605214D01*
X150714276Y-72681715D01*
X150701715Y-72694276D01*
X150625214Y-72796351D01*
X150616676Y-72811946D01*
X150575297Y-72922322D01*
X150532655Y-72979087D01*
X150466093Y-73003786D01*
X150396744Y-72988578D01*
X150364121Y-72962891D01*
X150313151Y-72906876D01*
X150313145Y-72906870D01*
X150309670Y-72903051D01*
X150305619Y-72899852D01*
X150305615Y-72899848D01*
X150138414Y-72767800D01*
X150138410Y-72767798D01*
X150134359Y-72764598D01*
X150098028Y-72744542D01*
X150043014Y-72714173D01*
X149938789Y-72656638D01*
X149933920Y-72654914D01*
X149933916Y-72654912D01*
X149733087Y-72583795D01*
X149733083Y-72583794D01*
X149728212Y-72582069D01*
X149723119Y-72581162D01*
X149723116Y-72581161D01*
X149513373Y-72543800D01*
X149513367Y-72543799D01*
X149508284Y-72542894D01*
X149434452Y-72541992D01*
X149290081Y-72540228D01*
X149290079Y-72540228D01*
X149284911Y-72540165D01*
X149064091Y-72573955D01*
X148851756Y-72643357D01*
X148653607Y-72746507D01*
X148649474Y-72749610D01*
X148649471Y-72749612D01*
X148503793Y-72858990D01*
X148474965Y-72880635D01*
X148449541Y-72907240D01*
X148359745Y-73001206D01*
X148320629Y-73042138D01*
X148213201Y-73199621D01*
X148158293Y-73244621D01*
X148087768Y-73252792D01*
X148024021Y-73221538D01*
X148003324Y-73197054D01*
X147922822Y-73072617D01*
X147922820Y-73072614D01*
X147920014Y-73068277D01*
X147769670Y-72903051D01*
X147765619Y-72899852D01*
X147765615Y-72899848D01*
X147598414Y-72767800D01*
X147598410Y-72767798D01*
X147594359Y-72764598D01*
X147558028Y-72744542D01*
X147503014Y-72714173D01*
X147398789Y-72656638D01*
X147393920Y-72654914D01*
X147393916Y-72654912D01*
X147193087Y-72583795D01*
X147193083Y-72583794D01*
X147188212Y-72582069D01*
X147183119Y-72581162D01*
X147183116Y-72581161D01*
X146973373Y-72543800D01*
X146973367Y-72543799D01*
X146968284Y-72542894D01*
X146894452Y-72541992D01*
X146750081Y-72540228D01*
X146750079Y-72540228D01*
X146744911Y-72540165D01*
X146524091Y-72573955D01*
X146311756Y-72643357D01*
X146113607Y-72746507D01*
X146109474Y-72749610D01*
X146109471Y-72749612D01*
X145963793Y-72858990D01*
X145934965Y-72880635D01*
X145909541Y-72907240D01*
X145819745Y-73001206D01*
X145780629Y-73042138D01*
X145673201Y-73199621D01*
X145618293Y-73244621D01*
X145547768Y-73252792D01*
X145484021Y-73221538D01*
X145463324Y-73197054D01*
X145382822Y-73072617D01*
X145382820Y-73072614D01*
X145380014Y-73068277D01*
X145229670Y-72903051D01*
X145225619Y-72899852D01*
X145225615Y-72899848D01*
X145058414Y-72767800D01*
X145058410Y-72767798D01*
X145054359Y-72764598D01*
X145018028Y-72744542D01*
X144963014Y-72714173D01*
X144858789Y-72656638D01*
X144853920Y-72654914D01*
X144853916Y-72654912D01*
X144653087Y-72583795D01*
X144653083Y-72583794D01*
X144648212Y-72582069D01*
X144643119Y-72581162D01*
X144643116Y-72581161D01*
X144433373Y-72543800D01*
X144433367Y-72543799D01*
X144428284Y-72542894D01*
X144354452Y-72541992D01*
X144210081Y-72540228D01*
X144210079Y-72540228D01*
X144204911Y-72540165D01*
X143984091Y-72573955D01*
X143771756Y-72643357D01*
X143573607Y-72746507D01*
X143569474Y-72749610D01*
X143569471Y-72749612D01*
X143423793Y-72858990D01*
X143394965Y-72880635D01*
X143369541Y-72907240D01*
X143279745Y-73001206D01*
X143240629Y-73042138D01*
X143133201Y-73199621D01*
X143078293Y-73244621D01*
X143007768Y-73252792D01*
X142944021Y-73221538D01*
X142923324Y-73197054D01*
X142842822Y-73072617D01*
X142842820Y-73072614D01*
X142840014Y-73068277D01*
X142689670Y-72903051D01*
X142685619Y-72899852D01*
X142685615Y-72899848D01*
X142518414Y-72767800D01*
X142518410Y-72767798D01*
X142514359Y-72764598D01*
X142478028Y-72744542D01*
X142423014Y-72714173D01*
X142318789Y-72656638D01*
X142313920Y-72654914D01*
X142313916Y-72654912D01*
X142113087Y-72583795D01*
X142113083Y-72583794D01*
X142108212Y-72582069D01*
X142103119Y-72581162D01*
X142103116Y-72581161D01*
X141893373Y-72543800D01*
X141893367Y-72543799D01*
X141888284Y-72542894D01*
X141814452Y-72541992D01*
X141670081Y-72540228D01*
X141670079Y-72540228D01*
X141664911Y-72540165D01*
X141444091Y-72573955D01*
X141231756Y-72643357D01*
X141033607Y-72746507D01*
X141029474Y-72749610D01*
X141029471Y-72749612D01*
X140883793Y-72858990D01*
X140854965Y-72880635D01*
X140829541Y-72907240D01*
X140739745Y-73001206D01*
X140700629Y-73042138D01*
X140593201Y-73199621D01*
X140538293Y-73244621D01*
X140467768Y-73252792D01*
X140404021Y-73221538D01*
X140383324Y-73197054D01*
X140302822Y-73072617D01*
X140302820Y-73072614D01*
X140300014Y-73068277D01*
X140149670Y-72903051D01*
X140145619Y-72899852D01*
X140145615Y-72899848D01*
X139978414Y-72767800D01*
X139978410Y-72767798D01*
X139974359Y-72764598D01*
X139938028Y-72744542D01*
X139883014Y-72714173D01*
X139778789Y-72656638D01*
X139773920Y-72654914D01*
X139773916Y-72654912D01*
X139573087Y-72583795D01*
X139573083Y-72583794D01*
X139568212Y-72582069D01*
X139563119Y-72581162D01*
X139563116Y-72581161D01*
X139353373Y-72543800D01*
X139353367Y-72543799D01*
X139348284Y-72542894D01*
X139274452Y-72541992D01*
X139130081Y-72540228D01*
X139130079Y-72540228D01*
X139124911Y-72540165D01*
X138904091Y-72573955D01*
X138691756Y-72643357D01*
X138493607Y-72746507D01*
X138489474Y-72749610D01*
X138489471Y-72749612D01*
X138343793Y-72858990D01*
X138314965Y-72880635D01*
X138289541Y-72907240D01*
X138199745Y-73001206D01*
X138160629Y-73042138D01*
X138157720Y-73046403D01*
X138157714Y-73046411D01*
X138106153Y-73121997D01*
X138053204Y-73199618D01*
X138052898Y-73200066D01*
X137997987Y-73245069D01*
X137927462Y-73253240D01*
X137863715Y-73221986D01*
X137843018Y-73197502D01*
X137762426Y-73072926D01*
X137756136Y-73064757D01*
X137612806Y-72907240D01*
X137605273Y-72900215D01*
X137438139Y-72768222D01*
X137429552Y-72762517D01*
X137243117Y-72659599D01*
X137233705Y-72655369D01*
X137032959Y-72584280D01*
X137022988Y-72581646D01*
X136951837Y-72568972D01*
X136938540Y-72570432D01*
X136934000Y-72584989D01*
X136934000Y-74028000D01*
X136913998Y-74096121D01*
X136860342Y-74142614D01*
X136808000Y-74154000D01*
X136552000Y-74154000D01*
X136483879Y-74133998D01*
X136437386Y-74080342D01*
X136426000Y-74028000D01*
X136426000Y-72583102D01*
X136422082Y-72569758D01*
X136407806Y-72567771D01*
X136369324Y-72573660D01*
X136359288Y-72576051D01*
X136156868Y-72642212D01*
X136147359Y-72646209D01*
X135958463Y-72744542D01*
X135949738Y-72750036D01*
X135779433Y-72877905D01*
X135771726Y-72884748D01*
X135624590Y-73038717D01*
X135618109Y-73046722D01*
X135513498Y-73200074D01*
X135458587Y-73245076D01*
X135388062Y-73253247D01*
X135324315Y-73221993D01*
X135303618Y-73197509D01*
X135222822Y-73072617D01*
X135222820Y-73072614D01*
X135220014Y-73068277D01*
X135069670Y-72903051D01*
X135065619Y-72899852D01*
X135065615Y-72899848D01*
X134898414Y-72767800D01*
X134898410Y-72767798D01*
X134894359Y-72764598D01*
X134858028Y-72744542D01*
X134803014Y-72714173D01*
X134698789Y-72656638D01*
X134693920Y-72654914D01*
X134693916Y-72654912D01*
X134493087Y-72583795D01*
X134493083Y-72583794D01*
X134488212Y-72582069D01*
X134483119Y-72581162D01*
X134483116Y-72581161D01*
X134273373Y-72543800D01*
X134273367Y-72543799D01*
X134268284Y-72542894D01*
X134194452Y-72541992D01*
X134050081Y-72540228D01*
X134050079Y-72540228D01*
X134044911Y-72540165D01*
X133824091Y-72573955D01*
X133611756Y-72643357D01*
X133413607Y-72746507D01*
X133409474Y-72749610D01*
X133409471Y-72749612D01*
X133263793Y-72858990D01*
X133234965Y-72880635D01*
X133209541Y-72907240D01*
X133119745Y-73001206D01*
X133080629Y-73042138D01*
X133077720Y-73046403D01*
X133077714Y-73046411D01*
X132992556Y-73171249D01*
X132954743Y-73226680D01*
X132860688Y-73429305D01*
X132800989Y-73644570D01*
X132777251Y-73866695D01*
X132777548Y-73871848D01*
X132777548Y-73871851D01*
X132789570Y-74080342D01*
X132790110Y-74089715D01*
X132791247Y-74094761D01*
X132791248Y-74094767D01*
X132808680Y-74172115D01*
X132839222Y-74307639D01*
X132923266Y-74514616D01*
X132974942Y-74598944D01*
X133037291Y-74700688D01*
X133039987Y-74705088D01*
X133186250Y-74873938D01*
X133358126Y-75016632D01*
X133365692Y-75021053D01*
X133431445Y-75059476D01*
X133480169Y-75111114D01*
X133493240Y-75180897D01*
X133466509Y-75246669D01*
X133426055Y-75280027D01*
X133413607Y-75286507D01*
X133409474Y-75289610D01*
X133409471Y-75289612D01*
X133239100Y-75417530D01*
X133234965Y-75420635D01*
X133080629Y-75582138D01*
X132954743Y-75766680D01*
X132939541Y-75799431D01*
X132868237Y-75953043D01*
X132860688Y-75969305D01*
X132800989Y-76184570D01*
X132777251Y-76406695D01*
X132777548Y-76411848D01*
X132777548Y-76411851D01*
X132783232Y-76510434D01*
X132790110Y-76629715D01*
X132791247Y-76634761D01*
X132791248Y-76634767D01*
X132811119Y-76722939D01*
X132839222Y-76847639D01*
X132923266Y-77054616D01*
X132974019Y-77137438D01*
X133037291Y-77240688D01*
X133039987Y-77245088D01*
X133186250Y-77413938D01*
X133358126Y-77556632D01*
X133551000Y-77669338D01*
X133759692Y-77749030D01*
X133764760Y-77750061D01*
X133764763Y-77750062D01*
X133872017Y-77771883D01*
X133978597Y-77793567D01*
X133983772Y-77793757D01*
X133983774Y-77793757D01*
X134196673Y-77801564D01*
X134196677Y-77801564D01*
X134201837Y-77801753D01*
X134206957Y-77801097D01*
X134206959Y-77801097D01*
X134418288Y-77774025D01*
X134418289Y-77774025D01*
X134423416Y-77773368D01*
X134428366Y-77771883D01*
X134632429Y-77710661D01*
X134632434Y-77710659D01*
X134637384Y-77709174D01*
X134837994Y-77610896D01*
X135019860Y-77481173D01*
X135178096Y-77323489D01*
X135237594Y-77240689D01*
X135308453Y-77142077D01*
X135309776Y-77143028D01*
X135356645Y-77099857D01*
X135426580Y-77087625D01*
X135492026Y-77115144D01*
X135519875Y-77146994D01*
X135579987Y-77245088D01*
X135583367Y-77248990D01*
X135722866Y-77410032D01*
X135722869Y-77410035D01*
X135726250Y-77413938D01*
X135730224Y-77417237D01*
X135733658Y-77420600D01*
X135768334Y-77482553D01*
X135771500Y-77510623D01*
X135771500Y-89385784D01*
X135770810Y-89398955D01*
X135766496Y-89440000D01*
X135786458Y-89629928D01*
X135845473Y-89811556D01*
X135848776Y-89817278D01*
X135848777Y-89817279D01*
X135937658Y-89971225D01*
X135940960Y-89976944D01*
X135945126Y-89981571D01*
X135968938Y-90048307D01*
X135952857Y-90117459D01*
X135901943Y-90166939D01*
X135843143Y-90181500D01*
X122353187Y-90181500D01*
X122285066Y-90161498D01*
X122238573Y-90107842D01*
X122228469Y-90037568D01*
X122232629Y-90018871D01*
X122245368Y-89976944D01*
X122272370Y-89888069D01*
X122301529Y-89666590D01*
X122301611Y-89663240D01*
X122303074Y-89603365D01*
X122303074Y-89603361D01*
X122303156Y-89600000D01*
X122284852Y-89377361D01*
X122230431Y-89160702D01*
X122141354Y-88955840D01*
X122050587Y-88815535D01*
X122022822Y-88772617D01*
X122022820Y-88772614D01*
X122020014Y-88768277D01*
X121869670Y-88603051D01*
X121865619Y-88599852D01*
X121865615Y-88599848D01*
X121698414Y-88467800D01*
X121698410Y-88467798D01*
X121694359Y-88464598D01*
X121498789Y-88356638D01*
X121493920Y-88354914D01*
X121493916Y-88354912D01*
X121293087Y-88283795D01*
X121293083Y-88283794D01*
X121288212Y-88282069D01*
X121283119Y-88281162D01*
X121283116Y-88281161D01*
X121073373Y-88243800D01*
X121073367Y-88243799D01*
X121068284Y-88242894D01*
X120994452Y-88241992D01*
X120850081Y-88240228D01*
X120850079Y-88240228D01*
X120844911Y-88240165D01*
X120624091Y-88273955D01*
X120411756Y-88343357D01*
X120213607Y-88446507D01*
X120209474Y-88449610D01*
X120209471Y-88449612D01*
X120039100Y-88577530D01*
X120034965Y-88580635D01*
X119978537Y-88639684D01*
X119954283Y-88665064D01*
X119892759Y-88700494D01*
X119821846Y-88697037D01*
X119764060Y-88655791D01*
X119745207Y-88622243D01*
X119703767Y-88511703D01*
X119700615Y-88503295D01*
X119613261Y-88386739D01*
X119496705Y-88299385D01*
X119360316Y-88248255D01*
X119298134Y-88241500D01*
X117501866Y-88241500D01*
X117439684Y-88248255D01*
X117303295Y-88299385D01*
X117186739Y-88386739D01*
X117099385Y-88503295D01*
X117048255Y-88639684D01*
X117041500Y-88701866D01*
X117041500Y-90498134D01*
X117048255Y-90560316D01*
X117099385Y-90696705D01*
X117186739Y-90813261D01*
X117303295Y-90900615D01*
X117311704Y-90903767D01*
X117311705Y-90903768D01*
X117420451Y-90944535D01*
X117477216Y-90987176D01*
X117501916Y-91053738D01*
X117486709Y-91123087D01*
X117467316Y-91149568D01*
X117340629Y-91282138D01*
X117214743Y-91466680D01*
X117120688Y-91669305D01*
X117060989Y-91884570D01*
X117037251Y-92106695D01*
X117050110Y-92329715D01*
X117051247Y-92334761D01*
X117051248Y-92334767D01*
X117072275Y-92428069D01*
X117099222Y-92547639D01*
X117183266Y-92754616D01*
X117299987Y-92945088D01*
X117446250Y-93113938D01*
X117618126Y-93256632D01*
X117688595Y-93297811D01*
X117691445Y-93299476D01*
X117740169Y-93351114D01*
X117753240Y-93420897D01*
X117726509Y-93486669D01*
X117686055Y-93520027D01*
X117673607Y-93526507D01*
X117669474Y-93529610D01*
X117669471Y-93529612D01*
X117499100Y-93657530D01*
X117494965Y-93660635D01*
X117340629Y-93822138D01*
X117214743Y-94006680D01*
X117120688Y-94209305D01*
X117060989Y-94424570D01*
X117037251Y-94646695D01*
X117050110Y-94869715D01*
X117051247Y-94874761D01*
X117051248Y-94874767D01*
X117072275Y-94968069D01*
X117099222Y-95087639D01*
X117183266Y-95294616D01*
X117299987Y-95485088D01*
X117446250Y-95653938D01*
X117618126Y-95796632D01*
X117688595Y-95837811D01*
X117691445Y-95839476D01*
X117740169Y-95891114D01*
X117753240Y-95960897D01*
X117726509Y-96026669D01*
X117686055Y-96060027D01*
X117673607Y-96066507D01*
X117669474Y-96069610D01*
X117669471Y-96069612D01*
X117499100Y-96197530D01*
X117494965Y-96200635D01*
X117340629Y-96362138D01*
X117214743Y-96546680D01*
X117120688Y-96749305D01*
X117060989Y-96964570D01*
X117037251Y-97186695D01*
X117050110Y-97409715D01*
X117051247Y-97414761D01*
X117051248Y-97414767D01*
X117072275Y-97508069D01*
X117099222Y-97627639D01*
X117183266Y-97834616D01*
X117299987Y-98025088D01*
X117446250Y-98193938D01*
X117618126Y-98336632D01*
X117688595Y-98377811D01*
X117691445Y-98379476D01*
X117740169Y-98431114D01*
X117753240Y-98500897D01*
X117726509Y-98566669D01*
X117686055Y-98600027D01*
X117673607Y-98606507D01*
X117669474Y-98609610D01*
X117669471Y-98609612D01*
X117499100Y-98737530D01*
X117494965Y-98740635D01*
X117340629Y-98902138D01*
X117214743Y-99086680D01*
X117120688Y-99289305D01*
X117060989Y-99504570D01*
X117037251Y-99726695D01*
X117050110Y-99949715D01*
X117051247Y-99954761D01*
X117051248Y-99954767D01*
X117072275Y-100048069D01*
X117099222Y-100167639D01*
X117183266Y-100374616D01*
X117299987Y-100565088D01*
X117446250Y-100733938D01*
X117618126Y-100876632D01*
X117688595Y-100917811D01*
X117691445Y-100919476D01*
X117740169Y-100971114D01*
X117753240Y-101040897D01*
X117726509Y-101106669D01*
X117686055Y-101140027D01*
X117673607Y-101146507D01*
X117669474Y-101149610D01*
X117669471Y-101149612D01*
X117499100Y-101277530D01*
X117494965Y-101280635D01*
X117340629Y-101442138D01*
X117214743Y-101626680D01*
X117120688Y-101829305D01*
X117060989Y-102044570D01*
X117037251Y-102266695D01*
X117050110Y-102489715D01*
X117051247Y-102494761D01*
X117051248Y-102494767D01*
X117072275Y-102588069D01*
X117099222Y-102707639D01*
X117183266Y-102914616D01*
X117299987Y-103105088D01*
X117446250Y-103273938D01*
X117618126Y-103416632D01*
X117688595Y-103457811D01*
X117691445Y-103459476D01*
X117740169Y-103511114D01*
X117753240Y-103580897D01*
X117726509Y-103646669D01*
X117686055Y-103680027D01*
X117673607Y-103686507D01*
X117669474Y-103689610D01*
X117669471Y-103689612D01*
X117499100Y-103817530D01*
X117494965Y-103820635D01*
X117340629Y-103982138D01*
X117214743Y-104166680D01*
X117120688Y-104369305D01*
X117060989Y-104584570D01*
X117037251Y-104806695D01*
X117050110Y-105029715D01*
X117051247Y-105034761D01*
X117051248Y-105034767D01*
X117072275Y-105128069D01*
X117099222Y-105247639D01*
X117183266Y-105454616D01*
X117185965Y-105459020D01*
X117285936Y-105622158D01*
X117299987Y-105645088D01*
X117446250Y-105813938D01*
X117618126Y-105956632D01*
X117688595Y-105997811D01*
X117691445Y-105999476D01*
X117740169Y-106051114D01*
X117753240Y-106120897D01*
X117726509Y-106186669D01*
X117686055Y-106220027D01*
X117673607Y-106226507D01*
X117669474Y-106229610D01*
X117669471Y-106229612D01*
X117607419Y-106276202D01*
X117494965Y-106360635D01*
X117340629Y-106522138D01*
X117214743Y-106706680D01*
X117120688Y-106909305D01*
X117060989Y-107124570D01*
X117037251Y-107346695D01*
X117050110Y-107569715D01*
X117051247Y-107574761D01*
X117051248Y-107574767D01*
X117072275Y-107668069D01*
X117099222Y-107787639D01*
X117183266Y-107994616D01*
X117299987Y-108185088D01*
X117446250Y-108353938D01*
X117618126Y-108496632D01*
X117811000Y-108609338D01*
X118019692Y-108689030D01*
X118024760Y-108690061D01*
X118024763Y-108690062D01*
X118132017Y-108711883D01*
X118238597Y-108733567D01*
X118243772Y-108733757D01*
X118243774Y-108733757D01*
X118456673Y-108741564D01*
X118456677Y-108741564D01*
X118461837Y-108741753D01*
X118466957Y-108741097D01*
X118466959Y-108741097D01*
X118678288Y-108714025D01*
X118678289Y-108714025D01*
X118683416Y-108713368D01*
X118688366Y-108711883D01*
X118892429Y-108650661D01*
X118892434Y-108650659D01*
X118897384Y-108649174D01*
X119097994Y-108550896D01*
X119279860Y-108421173D01*
X119376120Y-108325248D01*
X119438490Y-108291333D01*
X119465059Y-108288500D01*
X119872011Y-108288500D01*
X119940132Y-108308502D01*
X119967248Y-108332002D01*
X119982864Y-108350030D01*
X119982869Y-108350035D01*
X119986250Y-108353938D01*
X120158126Y-108496632D01*
X120351000Y-108609338D01*
X120559692Y-108689030D01*
X120564760Y-108690061D01*
X120564763Y-108690062D01*
X120672017Y-108711883D01*
X120778597Y-108733567D01*
X120783772Y-108733757D01*
X120783774Y-108733757D01*
X120996673Y-108741564D01*
X120996677Y-108741564D01*
X121001837Y-108741753D01*
X121006957Y-108741097D01*
X121006959Y-108741097D01*
X121218288Y-108714025D01*
X121218289Y-108714025D01*
X121223416Y-108713368D01*
X121228366Y-108711883D01*
X121432429Y-108650661D01*
X121432434Y-108650659D01*
X121437384Y-108649174D01*
X121637994Y-108550896D01*
X121819860Y-108421173D01*
X121916120Y-108325248D01*
X121978490Y-108291333D01*
X122005059Y-108288500D01*
X136374000Y-108288500D01*
X136442121Y-108308502D01*
X136488614Y-108362158D01*
X136500000Y-108414500D01*
X136500000Y-109015436D01*
X136479998Y-109083557D01*
X136426342Y-109130050D01*
X136356068Y-109140154D01*
X136347803Y-109138683D01*
X136296944Y-109127872D01*
X136296939Y-109127872D01*
X136290487Y-109126500D01*
X136099513Y-109126500D01*
X136093061Y-109127872D01*
X136093056Y-109127872D01*
X136035276Y-109140154D01*
X135912712Y-109166206D01*
X135906682Y-109168891D01*
X135906681Y-109168891D01*
X135744278Y-109241197D01*
X135744276Y-109241198D01*
X135738248Y-109243882D01*
X135732907Y-109247762D01*
X135732906Y-109247763D01*
X135686394Y-109281556D01*
X135583747Y-109356134D01*
X135455960Y-109498056D01*
X135360473Y-109663444D01*
X135301458Y-109845072D01*
X135300768Y-109851633D01*
X135300768Y-109851635D01*
X135298830Y-109870072D01*
X135281496Y-110035000D01*
X135301458Y-110224928D01*
X135360473Y-110406556D01*
X135455960Y-110571944D01*
X135583747Y-110713866D01*
X135738248Y-110826118D01*
X135744276Y-110828802D01*
X135744278Y-110828803D01*
X135884241Y-110891118D01*
X135912712Y-110903794D01*
X136006112Y-110923647D01*
X136093056Y-110942128D01*
X136093061Y-110942128D01*
X136099513Y-110943500D01*
X136290487Y-110943500D01*
X136296939Y-110942128D01*
X136296944Y-110942128D01*
X136347803Y-110931317D01*
X136418594Y-110936719D01*
X136475226Y-110979536D01*
X136499720Y-111046173D01*
X136500000Y-111054564D01*
X136500000Y-111500000D01*
X156250997Y-111500000D01*
X156319118Y-111520002D01*
X156365611Y-111573658D01*
X156375715Y-111643932D01*
X156346221Y-111708512D01*
X156340092Y-111715095D01*
X149813227Y-118241960D01*
X149750915Y-118275986D01*
X149680100Y-118270921D01*
X149623264Y-118228374D01*
X149598453Y-118161854D01*
X149598822Y-118139695D01*
X149612814Y-118006565D01*
X149613504Y-118000000D01*
X149600035Y-117871852D01*
X149594232Y-117816635D01*
X149594232Y-117816633D01*
X149593542Y-117810072D01*
X149534527Y-117628444D01*
X149439040Y-117463056D01*
X149311253Y-117321134D01*
X149156752Y-117208882D01*
X149150724Y-117206198D01*
X149150722Y-117206197D01*
X148988319Y-117133891D01*
X148988318Y-117133891D01*
X148982288Y-117131206D01*
X148888888Y-117111353D01*
X148801944Y-117092872D01*
X148801939Y-117092872D01*
X148795487Y-117091500D01*
X148604513Y-117091500D01*
X148598061Y-117092872D01*
X148598056Y-117092872D01*
X148511112Y-117111353D01*
X148417712Y-117131206D01*
X148411682Y-117133891D01*
X148411681Y-117133891D01*
X148249278Y-117206197D01*
X148249276Y-117206198D01*
X148243248Y-117208882D01*
X148088747Y-117321134D01*
X147960960Y-117463056D01*
X147865473Y-117628444D01*
X147806458Y-117810072D01*
X147805768Y-117816633D01*
X147805768Y-117816635D01*
X147799965Y-117871852D01*
X147786496Y-118000000D01*
X147806458Y-118189928D01*
X147865473Y-118371556D01*
X147960960Y-118536944D01*
X148088747Y-118678866D01*
X148243248Y-118791118D01*
X148249276Y-118793802D01*
X148249278Y-118793803D01*
X148411681Y-118866109D01*
X148417712Y-118868794D01*
X148511112Y-118888647D01*
X148598056Y-118907128D01*
X148598061Y-118907128D01*
X148604513Y-118908500D01*
X148795487Y-118908500D01*
X148812871Y-118904805D01*
X148838292Y-118899402D01*
X148909083Y-118904805D01*
X148965715Y-118947622D01*
X148990208Y-119014259D01*
X148974786Y-119083561D01*
X148966423Y-119096711D01*
X148965377Y-119098150D01*
X148960960Y-119103056D01*
X148957663Y-119108767D01*
X148957657Y-119108775D01*
X148953927Y-119115237D01*
X148942727Y-119131533D01*
X148933871Y-119142470D01*
X148916394Y-119176771D01*
X148902815Y-119203421D01*
X148899669Y-119209215D01*
X148865473Y-119268444D01*
X148863432Y-119274726D01*
X148863431Y-119274728D01*
X148861125Y-119281826D01*
X148853560Y-119300092D01*
X148847171Y-119312630D01*
X148845464Y-119319002D01*
X148842742Y-119329160D01*
X148805790Y-119389782D01*
X148779216Y-119408310D01*
X148638607Y-119481507D01*
X148634474Y-119484610D01*
X148634471Y-119484612D01*
X148464100Y-119612530D01*
X148459965Y-119615635D01*
X148305629Y-119777138D01*
X148198201Y-119934621D01*
X148143293Y-119979621D01*
X148072768Y-119987792D01*
X148009021Y-119956538D01*
X147988324Y-119932054D01*
X147907822Y-119807617D01*
X147907820Y-119807614D01*
X147905014Y-119803277D01*
X147754670Y-119638051D01*
X147750619Y-119634852D01*
X147750615Y-119634848D01*
X147583414Y-119502800D01*
X147583410Y-119502798D01*
X147579359Y-119499598D01*
X147383789Y-119391638D01*
X147378920Y-119389914D01*
X147378916Y-119389912D01*
X147178087Y-119318795D01*
X147178083Y-119318794D01*
X147173212Y-119317069D01*
X147168119Y-119316162D01*
X147168116Y-119316161D01*
X146958373Y-119278800D01*
X146958367Y-119278799D01*
X146953284Y-119277894D01*
X146879452Y-119276992D01*
X146735081Y-119275228D01*
X146735079Y-119275228D01*
X146729911Y-119275165D01*
X146509091Y-119308955D01*
X146296756Y-119378357D01*
X146098607Y-119481507D01*
X146094474Y-119484610D01*
X146094471Y-119484612D01*
X145924100Y-119612530D01*
X145919965Y-119615635D01*
X145765629Y-119777138D01*
X145658201Y-119934621D01*
X145603293Y-119979621D01*
X145532768Y-119987792D01*
X145469021Y-119956538D01*
X145448324Y-119932054D01*
X145367822Y-119807617D01*
X145367820Y-119807614D01*
X145365014Y-119803277D01*
X145214670Y-119638051D01*
X145210619Y-119634852D01*
X145210615Y-119634848D01*
X145043414Y-119502800D01*
X145043410Y-119502798D01*
X145039359Y-119499598D01*
X144843789Y-119391638D01*
X144838920Y-119389914D01*
X144838916Y-119389912D01*
X144638087Y-119318795D01*
X144638083Y-119318794D01*
X144633212Y-119317069D01*
X144628119Y-119316162D01*
X144628116Y-119316161D01*
X144418373Y-119278800D01*
X144418367Y-119278799D01*
X144413284Y-119277894D01*
X144339452Y-119276992D01*
X144195081Y-119275228D01*
X144195079Y-119275228D01*
X144189911Y-119275165D01*
X143969091Y-119308955D01*
X143756756Y-119378357D01*
X143558607Y-119481507D01*
X143554474Y-119484610D01*
X143554471Y-119484612D01*
X143384100Y-119612530D01*
X143379965Y-119615635D01*
X143225629Y-119777138D01*
X143118201Y-119934621D01*
X143063293Y-119979621D01*
X142992768Y-119987792D01*
X142929021Y-119956538D01*
X142908324Y-119932054D01*
X142827822Y-119807617D01*
X142827820Y-119807614D01*
X142825014Y-119803277D01*
X142674670Y-119638051D01*
X142670619Y-119634852D01*
X142670615Y-119634848D01*
X142503414Y-119502800D01*
X142503410Y-119502798D01*
X142499359Y-119499598D01*
X142303789Y-119391638D01*
X142298920Y-119389914D01*
X142298916Y-119389912D01*
X142098087Y-119318795D01*
X142098083Y-119318794D01*
X142093212Y-119317069D01*
X142088119Y-119316162D01*
X142088116Y-119316161D01*
X141878373Y-119278800D01*
X141878367Y-119278799D01*
X141873284Y-119277894D01*
X141799452Y-119276992D01*
X141655081Y-119275228D01*
X141655079Y-119275228D01*
X141649911Y-119275165D01*
X141429091Y-119308955D01*
X141216756Y-119378357D01*
X141018607Y-119481507D01*
X141014474Y-119484610D01*
X141014471Y-119484612D01*
X140844100Y-119612530D01*
X140839965Y-119615635D01*
X140685629Y-119777138D01*
X140578201Y-119934621D01*
X140523293Y-119979621D01*
X140452768Y-119987792D01*
X140389021Y-119956538D01*
X140368324Y-119932054D01*
X140287822Y-119807617D01*
X140287820Y-119807614D01*
X140285014Y-119803277D01*
X140134670Y-119638051D01*
X140130619Y-119634852D01*
X140130615Y-119634848D01*
X139963414Y-119502800D01*
X139963410Y-119502798D01*
X139959359Y-119499598D01*
X139763789Y-119391638D01*
X139758920Y-119389914D01*
X139758916Y-119389912D01*
X139558087Y-119318795D01*
X139558083Y-119318794D01*
X139553212Y-119317069D01*
X139548119Y-119316162D01*
X139548116Y-119316161D01*
X139338373Y-119278800D01*
X139338367Y-119278799D01*
X139333284Y-119277894D01*
X139259452Y-119276992D01*
X139115081Y-119275228D01*
X139115079Y-119275228D01*
X139109911Y-119275165D01*
X138889091Y-119308955D01*
X138676756Y-119378357D01*
X138478607Y-119481507D01*
X138474474Y-119484610D01*
X138474471Y-119484612D01*
X138304100Y-119612530D01*
X138299965Y-119615635D01*
X138145629Y-119777138D01*
X138038201Y-119934621D01*
X137983293Y-119979621D01*
X137912768Y-119987792D01*
X137849021Y-119956538D01*
X137828324Y-119932054D01*
X137747822Y-119807617D01*
X137747820Y-119807614D01*
X137745014Y-119803277D01*
X137594670Y-119638051D01*
X137590619Y-119634852D01*
X137590615Y-119634848D01*
X137423414Y-119502800D01*
X137423410Y-119502798D01*
X137419359Y-119499598D01*
X137223789Y-119391638D01*
X137218920Y-119389914D01*
X137218916Y-119389912D01*
X137018087Y-119318795D01*
X137018083Y-119318794D01*
X137013212Y-119317069D01*
X137008119Y-119316162D01*
X137008116Y-119316161D01*
X136798373Y-119278800D01*
X136798367Y-119278799D01*
X136793284Y-119277894D01*
X136719452Y-119276992D01*
X136575081Y-119275228D01*
X136575079Y-119275228D01*
X136569911Y-119275165D01*
X136349091Y-119308955D01*
X136136756Y-119378357D01*
X135938607Y-119481507D01*
X135934474Y-119484610D01*
X135934471Y-119484612D01*
X135764100Y-119612530D01*
X135759965Y-119615635D01*
X135605629Y-119777138D01*
X135498201Y-119934621D01*
X135443293Y-119979621D01*
X135372768Y-119987792D01*
X135309021Y-119956538D01*
X135288324Y-119932054D01*
X135207822Y-119807617D01*
X135207820Y-119807614D01*
X135205014Y-119803277D01*
X135054670Y-119638051D01*
X135050619Y-119634852D01*
X135050615Y-119634848D01*
X134883414Y-119502800D01*
X134883410Y-119502798D01*
X134879359Y-119499598D01*
X134683789Y-119391638D01*
X134678920Y-119389914D01*
X134678916Y-119389912D01*
X134478087Y-119318795D01*
X134478083Y-119318794D01*
X134473212Y-119317069D01*
X134468119Y-119316162D01*
X134468116Y-119316161D01*
X134258373Y-119278800D01*
X134258367Y-119278799D01*
X134253284Y-119277894D01*
X134179452Y-119276992D01*
X134035081Y-119275228D01*
X134035079Y-119275228D01*
X134029911Y-119275165D01*
X133809091Y-119308955D01*
X133596756Y-119378357D01*
X133398607Y-119481507D01*
X133394474Y-119484610D01*
X133394471Y-119484612D01*
X133224100Y-119612530D01*
X133219965Y-119615635D01*
X133065629Y-119777138D01*
X132939743Y-119961680D01*
X132845688Y-120164305D01*
X132785989Y-120379570D01*
X132762251Y-120601695D01*
X132762548Y-120606848D01*
X132762548Y-120606851D01*
X132768011Y-120701590D01*
X132775110Y-120824715D01*
X132776247Y-120829761D01*
X132776248Y-120829767D01*
X132782834Y-120858990D01*
X132824222Y-121042639D01*
X132908266Y-121249616D01*
X132959019Y-121332438D01*
X133022291Y-121435688D01*
X133024987Y-121440088D01*
X133171250Y-121608938D01*
X133175225Y-121612238D01*
X133175231Y-121612244D01*
X133180425Y-121616556D01*
X133220059Y-121675460D01*
X133221555Y-121746441D01*
X133184439Y-121806962D01*
X133144168Y-121831480D01*
X133036946Y-121871676D01*
X133021351Y-121880214D01*
X132919276Y-121956715D01*
X132906715Y-121969276D01*
X132830214Y-122071351D01*
X132821676Y-122086946D01*
X132776522Y-122207394D01*
X132772895Y-122222649D01*
X132767369Y-122273514D01*
X132767000Y-122280328D01*
X132767000Y-122902885D01*
X132771475Y-122918124D01*
X132772865Y-122919329D01*
X132780548Y-122921000D01*
X134253000Y-122921000D01*
X134321121Y-122941002D01*
X134367614Y-122994658D01*
X134379000Y-123047000D01*
X134379000Y-124514884D01*
X134383475Y-124530123D01*
X134384865Y-124531328D01*
X134392548Y-124532999D01*
X135019669Y-124532999D01*
X135026490Y-124532629D01*
X135077352Y-124527105D01*
X135092604Y-124523479D01*
X135213054Y-124478324D01*
X135228649Y-124469786D01*
X135330724Y-124393285D01*
X135343285Y-124380724D01*
X135419786Y-124278649D01*
X135428324Y-124263054D01*
X135469225Y-124153952D01*
X135511867Y-124097188D01*
X135578428Y-124072488D01*
X135647777Y-124087696D01*
X135682444Y-124115684D01*
X135707865Y-124145031D01*
X135707869Y-124145035D01*
X135711250Y-124148938D01*
X135883126Y-124291632D01*
X136076000Y-124404338D01*
X136284692Y-124484030D01*
X136289760Y-124485061D01*
X136289763Y-124485062D01*
X136384862Y-124504410D01*
X136503597Y-124528567D01*
X136508772Y-124528757D01*
X136508774Y-124528757D01*
X136721673Y-124536564D01*
X136721677Y-124536564D01*
X136726837Y-124536753D01*
X136731957Y-124536097D01*
X136731959Y-124536097D01*
X136943288Y-124509025D01*
X136943289Y-124509025D01*
X136948416Y-124508368D01*
X136953366Y-124506883D01*
X137157429Y-124445661D01*
X137157434Y-124445659D01*
X137162384Y-124444174D01*
X137362994Y-124345896D01*
X137544860Y-124216173D01*
X137703096Y-124058489D01*
X137833453Y-123877077D01*
X137834776Y-123878028D01*
X137881645Y-123834857D01*
X137951580Y-123822625D01*
X138017026Y-123850144D01*
X138044875Y-123881994D01*
X138104987Y-123980088D01*
X138251250Y-124148938D01*
X138423126Y-124291632D01*
X138616000Y-124404338D01*
X138824692Y-124484030D01*
X138829760Y-124485061D01*
X138829763Y-124485062D01*
X138924862Y-124504410D01*
X139043597Y-124528567D01*
X139048772Y-124528757D01*
X139048774Y-124528757D01*
X139261673Y-124536564D01*
X139261677Y-124536564D01*
X139266837Y-124536753D01*
X139271957Y-124536097D01*
X139271959Y-124536097D01*
X139483288Y-124509025D01*
X139483289Y-124509025D01*
X139488416Y-124508368D01*
X139493366Y-124506883D01*
X139697429Y-124445661D01*
X139697434Y-124445659D01*
X139702384Y-124444174D01*
X139902994Y-124345896D01*
X140084860Y-124216173D01*
X140243096Y-124058489D01*
X140373453Y-123877077D01*
X140374776Y-123878028D01*
X140421645Y-123834857D01*
X140491580Y-123822625D01*
X140557026Y-123850144D01*
X140584875Y-123881994D01*
X140644987Y-123980088D01*
X140791250Y-124148938D01*
X140963126Y-124291632D01*
X141156000Y-124404338D01*
X141364692Y-124484030D01*
X141369760Y-124485061D01*
X141369763Y-124485062D01*
X141464862Y-124504410D01*
X141583597Y-124528567D01*
X141588772Y-124528757D01*
X141588774Y-124528757D01*
X141801673Y-124536564D01*
X141801677Y-124536564D01*
X141806837Y-124536753D01*
X141811957Y-124536097D01*
X141811959Y-124536097D01*
X142023288Y-124509025D01*
X142023289Y-124509025D01*
X142028416Y-124508368D01*
X142033366Y-124506883D01*
X142237429Y-124445661D01*
X142237434Y-124445659D01*
X142242384Y-124444174D01*
X142442994Y-124345896D01*
X142624860Y-124216173D01*
X142783096Y-124058489D01*
X142913453Y-123877077D01*
X142914776Y-123878028D01*
X142961645Y-123834857D01*
X143031580Y-123822625D01*
X143097026Y-123850144D01*
X143124875Y-123881994D01*
X143184987Y-123980088D01*
X143331250Y-124148938D01*
X143503126Y-124291632D01*
X143696000Y-124404338D01*
X143904692Y-124484030D01*
X143909760Y-124485061D01*
X143909763Y-124485062D01*
X144004862Y-124504410D01*
X144123597Y-124528567D01*
X144128772Y-124528757D01*
X144128774Y-124528757D01*
X144341673Y-124536564D01*
X144341677Y-124536564D01*
X144346837Y-124536753D01*
X144351957Y-124536097D01*
X144351959Y-124536097D01*
X144563288Y-124509025D01*
X144563289Y-124509025D01*
X144568416Y-124508368D01*
X144573366Y-124506883D01*
X144777429Y-124445661D01*
X144777434Y-124445659D01*
X144782384Y-124444174D01*
X144982994Y-124345896D01*
X145164860Y-124216173D01*
X145323096Y-124058489D01*
X145453453Y-123877077D01*
X145454776Y-123878028D01*
X145501645Y-123834857D01*
X145571580Y-123822625D01*
X145637026Y-123850144D01*
X145664875Y-123881994D01*
X145724987Y-123980088D01*
X145871250Y-124148938D01*
X146043126Y-124291632D01*
X146236000Y-124404338D01*
X146444692Y-124484030D01*
X146449760Y-124485061D01*
X146449763Y-124485062D01*
X146544862Y-124504410D01*
X146663597Y-124528567D01*
X146668772Y-124528757D01*
X146668774Y-124528757D01*
X146881673Y-124536564D01*
X146881677Y-124536564D01*
X146886837Y-124536753D01*
X146891957Y-124536097D01*
X146891959Y-124536097D01*
X147103288Y-124509025D01*
X147103289Y-124509025D01*
X147108416Y-124508368D01*
X147113366Y-124506883D01*
X147317429Y-124445661D01*
X147317434Y-124445659D01*
X147322384Y-124444174D01*
X147522994Y-124345896D01*
X147704860Y-124216173D01*
X147863096Y-124058489D01*
X147993453Y-123877077D01*
X147994640Y-123877930D01*
X148041960Y-123834362D01*
X148111897Y-123822145D01*
X148177338Y-123849678D01*
X148205166Y-123881511D01*
X148262694Y-123975388D01*
X148268777Y-123983699D01*
X148408213Y-124144667D01*
X148415580Y-124151883D01*
X148579434Y-124287916D01*
X148587881Y-124293831D01*
X148771756Y-124401279D01*
X148781042Y-124405729D01*
X148980001Y-124481703D01*
X148989899Y-124484579D01*
X149093250Y-124505606D01*
X149107299Y-124504410D01*
X149111000Y-124494065D01*
X149111000Y-123047000D01*
X149131002Y-122978879D01*
X149184658Y-122932386D01*
X149237000Y-122921000D01*
X149493000Y-122921000D01*
X149561121Y-122941002D01*
X149607614Y-122994658D01*
X149619000Y-123047000D01*
X149619000Y-124493517D01*
X149623064Y-124507359D01*
X149636478Y-124509393D01*
X149643184Y-124508534D01*
X149653262Y-124506392D01*
X149857255Y-124445191D01*
X149866842Y-124441433D01*
X150058095Y-124347739D01*
X150066945Y-124342464D01*
X150240328Y-124218792D01*
X150248200Y-124212139D01*
X150399052Y-124061812D01*
X150405730Y-124053965D01*
X150533022Y-123876819D01*
X150534279Y-123877722D01*
X150581373Y-123834362D01*
X150651311Y-123822145D01*
X150716751Y-123849678D01*
X150744579Y-123881511D01*
X150804987Y-123980088D01*
X150951250Y-124148938D01*
X151123126Y-124291632D01*
X151316000Y-124404338D01*
X151524692Y-124484030D01*
X151529760Y-124485061D01*
X151529763Y-124485062D01*
X151624862Y-124504410D01*
X151743597Y-124528567D01*
X151748772Y-124528757D01*
X151748774Y-124528757D01*
X151961673Y-124536564D01*
X151961677Y-124536564D01*
X151966837Y-124536753D01*
X151971957Y-124536097D01*
X151971959Y-124536097D01*
X152183288Y-124509025D01*
X152183289Y-124509025D01*
X152188416Y-124508368D01*
X152193366Y-124506883D01*
X152397429Y-124445661D01*
X152397434Y-124445659D01*
X152402384Y-124444174D01*
X152602994Y-124345896D01*
X152784860Y-124216173D01*
X152943096Y-124058489D01*
X153073453Y-123877077D01*
X153086995Y-123849678D01*
X153170136Y-123681453D01*
X153170137Y-123681451D01*
X153172430Y-123676811D01*
X153228798Y-123491283D01*
X153235865Y-123468023D01*
X153235865Y-123468021D01*
X153237370Y-123463069D01*
X153266529Y-123241590D01*
X153268156Y-123175000D01*
X153249852Y-122952361D01*
X153195431Y-122735702D01*
X153106354Y-122530840D01*
X153072764Y-122478918D01*
X164986917Y-122478918D01*
X164987334Y-122486156D01*
X165002682Y-122752320D01*
X165055405Y-123021053D01*
X165056792Y-123025103D01*
X165056793Y-123025108D01*
X165129765Y-123238240D01*
X165144112Y-123280144D01*
X165173238Y-123338054D01*
X165242837Y-123476437D01*
X165267160Y-123524799D01*
X165269586Y-123528328D01*
X165269589Y-123528334D01*
X165374826Y-123681453D01*
X165422274Y-123750490D01*
X165425161Y-123753663D01*
X165425162Y-123753664D01*
X165538235Y-123877930D01*
X165606582Y-123953043D01*
X165816675Y-124128707D01*
X165820316Y-124130991D01*
X166045024Y-124271951D01*
X166045028Y-124271953D01*
X166048664Y-124274234D01*
X166116544Y-124304883D01*
X166294345Y-124385164D01*
X166294349Y-124385166D01*
X166298257Y-124386930D01*
X166302377Y-124388150D01*
X166302376Y-124388150D01*
X166556723Y-124463491D01*
X166556727Y-124463492D01*
X166560836Y-124464709D01*
X166565070Y-124465357D01*
X166565075Y-124465358D01*
X166827298Y-124505483D01*
X166827300Y-124505483D01*
X166831540Y-124506132D01*
X166970912Y-124508322D01*
X167101071Y-124510367D01*
X167101077Y-124510367D01*
X167105362Y-124510434D01*
X167377235Y-124477534D01*
X167642127Y-124408041D01*
X167646087Y-124406401D01*
X167646092Y-124406399D01*
X167786661Y-124348173D01*
X167895136Y-124303241D01*
X168131582Y-124165073D01*
X168347089Y-123996094D01*
X168388809Y-123953043D01*
X168515192Y-123822625D01*
X168537669Y-123799431D01*
X168540202Y-123795983D01*
X168540206Y-123795978D01*
X168697257Y-123582178D01*
X168699795Y-123578723D01*
X168727154Y-123528334D01*
X168828418Y-123341830D01*
X168828419Y-123341828D01*
X168830468Y-123338054D01*
X168927269Y-123081877D01*
X168956932Y-122952361D01*
X168987449Y-122819117D01*
X168987450Y-122819113D01*
X168988407Y-122814933D01*
X168995031Y-122740720D01*
X169012531Y-122544627D01*
X169012531Y-122544625D01*
X169012751Y-122542161D01*
X169013193Y-122500000D01*
X169011319Y-122472509D01*
X168994859Y-122231055D01*
X168994858Y-122231049D01*
X168994567Y-122226778D01*
X168939032Y-121958612D01*
X168847617Y-121700465D01*
X168722013Y-121457112D01*
X168712040Y-121442921D01*
X168618722Y-121310144D01*
X168564545Y-121233057D01*
X168470504Y-121131857D01*
X168381046Y-121035588D01*
X168381043Y-121035585D01*
X168378125Y-121032445D01*
X168374810Y-121029731D01*
X168374806Y-121029728D01*
X168169523Y-120861706D01*
X168166205Y-120858990D01*
X167932704Y-120715901D01*
X167928768Y-120714173D01*
X167685873Y-120607549D01*
X167685869Y-120607548D01*
X167681945Y-120605825D01*
X167418566Y-120530800D01*
X167414324Y-120530196D01*
X167414318Y-120530195D01*
X167213834Y-120501662D01*
X167147443Y-120492213D01*
X167003589Y-120491460D01*
X166877877Y-120490802D01*
X166877871Y-120490802D01*
X166873591Y-120490780D01*
X166869347Y-120491339D01*
X166869343Y-120491339D01*
X166750302Y-120507011D01*
X166602078Y-120526525D01*
X166597938Y-120527658D01*
X166597936Y-120527658D01*
X166525008Y-120547609D01*
X166337928Y-120598788D01*
X166333980Y-120600472D01*
X166089982Y-120704546D01*
X166089978Y-120704548D01*
X166086030Y-120706232D01*
X166066125Y-120718145D01*
X165854725Y-120844664D01*
X165854721Y-120844667D01*
X165851043Y-120846868D01*
X165637318Y-121018094D01*
X165448808Y-121216742D01*
X165289002Y-121439136D01*
X165160857Y-121681161D01*
X165159385Y-121685184D01*
X165159383Y-121685188D01*
X165068214Y-121934317D01*
X165066743Y-121938337D01*
X165008404Y-122205907D01*
X164986917Y-122478918D01*
X153072764Y-122478918D01*
X152985014Y-122343277D01*
X152834670Y-122178051D01*
X152830619Y-122174852D01*
X152830615Y-122174848D01*
X152663414Y-122042800D01*
X152663410Y-122042798D01*
X152659359Y-122039598D01*
X152618053Y-122016796D01*
X152568084Y-121966364D01*
X152553312Y-121896921D01*
X152578428Y-121830516D01*
X152605780Y-121803909D01*
X152649603Y-121772650D01*
X152784860Y-121676173D01*
X152790706Y-121670348D01*
X152939435Y-121522137D01*
X152943096Y-121518489D01*
X153002594Y-121435689D01*
X153070435Y-121341277D01*
X153073453Y-121337077D01*
X153094320Y-121294857D01*
X153170136Y-121141453D01*
X153170137Y-121141451D01*
X153172430Y-121136811D01*
X153237370Y-120923069D01*
X153266529Y-120701590D01*
X153268156Y-120635000D01*
X153249852Y-120412361D01*
X153195431Y-120195702D01*
X153106354Y-119990840D01*
X152985014Y-119803277D01*
X152834670Y-119638051D01*
X152830619Y-119634852D01*
X152830615Y-119634848D01*
X152663414Y-119502800D01*
X152663410Y-119502798D01*
X152659359Y-119499598D01*
X152463789Y-119391638D01*
X152458920Y-119389914D01*
X152458916Y-119389912D01*
X152258087Y-119318795D01*
X152258083Y-119318794D01*
X152253212Y-119317069D01*
X152248119Y-119316162D01*
X152248116Y-119316161D01*
X152038373Y-119278800D01*
X152038367Y-119278799D01*
X152033284Y-119277894D01*
X151959452Y-119276992D01*
X151815081Y-119275228D01*
X151815079Y-119275228D01*
X151809911Y-119275165D01*
X151646430Y-119300181D01*
X151576068Y-119290713D01*
X151521994Y-119244708D01*
X151501377Y-119176771D01*
X151520762Y-119108472D01*
X151538277Y-119086536D01*
X159087908Y-111536905D01*
X159150220Y-111502879D01*
X159177003Y-111500000D01*
X169365500Y-111500000D01*
X169433621Y-111520002D01*
X169480114Y-111573658D01*
X169491500Y-111626000D01*
X169491500Y-124865500D01*
X169471498Y-124933621D01*
X169417842Y-124980114D01*
X169365500Y-124991500D01*
X116634500Y-124991500D01*
X116566379Y-124971498D01*
X116519886Y-124917842D01*
X116508500Y-124865500D01*
X116508500Y-122478918D01*
X116986917Y-122478918D01*
X116987334Y-122486156D01*
X117002682Y-122752320D01*
X117055405Y-123021053D01*
X117056792Y-123025103D01*
X117056793Y-123025108D01*
X117129765Y-123238240D01*
X117144112Y-123280144D01*
X117173238Y-123338054D01*
X117242837Y-123476437D01*
X117267160Y-123524799D01*
X117269586Y-123528328D01*
X117269589Y-123528334D01*
X117374826Y-123681453D01*
X117422274Y-123750490D01*
X117425161Y-123753663D01*
X117425162Y-123753664D01*
X117538235Y-123877930D01*
X117606582Y-123953043D01*
X117816675Y-124128707D01*
X117820316Y-124130991D01*
X118045024Y-124271951D01*
X118045028Y-124271953D01*
X118048664Y-124274234D01*
X118116544Y-124304883D01*
X118294345Y-124385164D01*
X118294349Y-124385166D01*
X118298257Y-124386930D01*
X118302377Y-124388150D01*
X118302376Y-124388150D01*
X118556723Y-124463491D01*
X118556727Y-124463492D01*
X118560836Y-124464709D01*
X118565070Y-124465357D01*
X118565075Y-124465358D01*
X118827298Y-124505483D01*
X118827300Y-124505483D01*
X118831540Y-124506132D01*
X118970912Y-124508322D01*
X119101071Y-124510367D01*
X119101077Y-124510367D01*
X119105362Y-124510434D01*
X119377235Y-124477534D01*
X119642127Y-124408041D01*
X119646087Y-124406401D01*
X119646092Y-124406399D01*
X119786661Y-124348173D01*
X119895136Y-124303241D01*
X120131582Y-124165073D01*
X120253255Y-124069669D01*
X132767001Y-124069669D01*
X132767371Y-124076490D01*
X132772895Y-124127352D01*
X132776521Y-124142604D01*
X132821676Y-124263054D01*
X132830214Y-124278649D01*
X132906715Y-124380724D01*
X132919276Y-124393285D01*
X133021351Y-124469786D01*
X133036946Y-124478324D01*
X133157394Y-124523478D01*
X133172649Y-124527105D01*
X133223514Y-124532631D01*
X133230328Y-124533000D01*
X133852885Y-124533000D01*
X133868124Y-124528525D01*
X133869329Y-124527135D01*
X133871000Y-124519452D01*
X133871000Y-123447115D01*
X133866525Y-123431876D01*
X133865135Y-123430671D01*
X133857452Y-123429000D01*
X132785116Y-123429000D01*
X132769877Y-123433475D01*
X132768672Y-123434865D01*
X132767001Y-123442548D01*
X132767001Y-124069669D01*
X120253255Y-124069669D01*
X120347089Y-123996094D01*
X120388809Y-123953043D01*
X120515192Y-123822625D01*
X120537669Y-123799431D01*
X120540202Y-123795983D01*
X120540206Y-123795978D01*
X120697257Y-123582178D01*
X120699795Y-123578723D01*
X120727154Y-123528334D01*
X120828418Y-123341830D01*
X120828419Y-123341828D01*
X120830468Y-123338054D01*
X120927269Y-123081877D01*
X120956932Y-122952361D01*
X120987449Y-122819117D01*
X120987450Y-122819113D01*
X120988407Y-122814933D01*
X120995031Y-122740720D01*
X121012531Y-122544627D01*
X121012531Y-122544625D01*
X121012751Y-122542161D01*
X121013193Y-122500000D01*
X121011319Y-122472509D01*
X120994859Y-122231055D01*
X120994858Y-122231049D01*
X120994567Y-122226778D01*
X120939032Y-121958612D01*
X120847617Y-121700465D01*
X120722013Y-121457112D01*
X120712040Y-121442921D01*
X120618722Y-121310144D01*
X120564545Y-121233057D01*
X120470504Y-121131857D01*
X120381046Y-121035588D01*
X120381043Y-121035585D01*
X120378125Y-121032445D01*
X120374810Y-121029731D01*
X120374806Y-121029728D01*
X120169523Y-120861706D01*
X120166205Y-120858990D01*
X119932704Y-120715901D01*
X119928768Y-120714173D01*
X119685873Y-120607549D01*
X119685869Y-120607548D01*
X119681945Y-120605825D01*
X119418566Y-120530800D01*
X119414324Y-120530196D01*
X119414318Y-120530195D01*
X119213834Y-120501662D01*
X119147443Y-120492213D01*
X119003589Y-120491460D01*
X118877877Y-120490802D01*
X118877871Y-120490802D01*
X118873591Y-120490780D01*
X118869347Y-120491339D01*
X118869343Y-120491339D01*
X118750302Y-120507011D01*
X118602078Y-120526525D01*
X118597938Y-120527658D01*
X118597936Y-120527658D01*
X118525008Y-120547609D01*
X118337928Y-120598788D01*
X118333980Y-120600472D01*
X118089982Y-120704546D01*
X118089978Y-120704548D01*
X118086030Y-120706232D01*
X118066125Y-120718145D01*
X117854725Y-120844664D01*
X117854721Y-120844667D01*
X117851043Y-120846868D01*
X117637318Y-121018094D01*
X117448808Y-121216742D01*
X117289002Y-121439136D01*
X117160857Y-121681161D01*
X117159385Y-121685184D01*
X117159383Y-121685188D01*
X117068214Y-121934317D01*
X117066743Y-121938337D01*
X117008404Y-122205907D01*
X116986917Y-122478918D01*
X116508500Y-122478918D01*
X116508500Y-117330000D01*
X125096496Y-117330000D01*
X125097186Y-117336565D01*
X125111082Y-117468774D01*
X125116458Y-117519928D01*
X125175473Y-117701556D01*
X125270960Y-117866944D01*
X125398747Y-118008866D01*
X125553248Y-118121118D01*
X125559276Y-118123802D01*
X125559278Y-118123803D01*
X125721681Y-118196109D01*
X125727712Y-118198794D01*
X125821112Y-118218647D01*
X125908056Y-118237128D01*
X125908061Y-118237128D01*
X125914513Y-118238500D01*
X126105487Y-118238500D01*
X126111939Y-118237128D01*
X126111944Y-118237128D01*
X126198888Y-118218647D01*
X126292288Y-118198794D01*
X126298319Y-118196109D01*
X126460722Y-118123803D01*
X126460724Y-118123802D01*
X126466752Y-118121118D01*
X126621253Y-118008866D01*
X126749040Y-117866944D01*
X126844527Y-117701556D01*
X126903542Y-117519928D01*
X126908919Y-117468774D01*
X126922814Y-117336565D01*
X126923504Y-117330000D01*
X126903542Y-117140072D01*
X126844527Y-116958444D01*
X126749040Y-116793056D01*
X126621253Y-116651134D01*
X126466752Y-116538882D01*
X126460724Y-116536198D01*
X126460722Y-116536197D01*
X126298319Y-116463891D01*
X126298318Y-116463891D01*
X126292288Y-116461206D01*
X126198887Y-116441353D01*
X126111944Y-116422872D01*
X126111939Y-116422872D01*
X126105487Y-116421500D01*
X125914513Y-116421500D01*
X125908061Y-116422872D01*
X125908056Y-116422872D01*
X125821113Y-116441353D01*
X125727712Y-116461206D01*
X125721682Y-116463891D01*
X125721681Y-116463891D01*
X125559278Y-116536197D01*
X125559276Y-116536198D01*
X125553248Y-116538882D01*
X125398747Y-116651134D01*
X125270960Y-116793056D01*
X125175473Y-116958444D01*
X125116458Y-117140072D01*
X125096496Y-117330000D01*
X116508500Y-117330000D01*
X116508500Y-114900000D01*
X131676496Y-114900000D01*
X131696458Y-115089928D01*
X131755473Y-115271556D01*
X131758776Y-115277278D01*
X131758777Y-115277279D01*
X131761935Y-115282749D01*
X131850960Y-115436944D01*
X131855378Y-115441851D01*
X131855379Y-115441852D01*
X131914154Y-115507128D01*
X131978747Y-115578866D01*
X132133248Y-115691118D01*
X132139276Y-115693802D01*
X132139278Y-115693803D01*
X132294824Y-115763056D01*
X132307712Y-115768794D01*
X132401113Y-115788647D01*
X132488056Y-115807128D01*
X132488061Y-115807128D01*
X132494513Y-115808500D01*
X132685487Y-115808500D01*
X132691939Y-115807128D01*
X132691944Y-115807128D01*
X132778887Y-115788647D01*
X132872288Y-115768794D01*
X132885176Y-115763056D01*
X133040722Y-115693803D01*
X133040724Y-115693802D01*
X133046752Y-115691118D01*
X133201253Y-115578866D01*
X133265846Y-115507128D01*
X133324621Y-115441852D01*
X133324622Y-115441851D01*
X133329040Y-115436944D01*
X133408105Y-115300000D01*
X140061996Y-115300000D01*
X140062686Y-115306565D01*
X140079455Y-115466109D01*
X140081958Y-115489928D01*
X140140973Y-115671556D01*
X140236460Y-115836944D01*
X140364247Y-115978866D01*
X140518748Y-116091118D01*
X140524776Y-116093802D01*
X140524778Y-116093803D01*
X140576060Y-116116635D01*
X140693212Y-116168794D01*
X140877962Y-116208064D01*
X140880013Y-116208500D01*
X140879933Y-116208875D01*
X140942072Y-116234443D01*
X140982701Y-116292665D01*
X140988552Y-116319565D01*
X141006458Y-116489928D01*
X141065473Y-116671556D01*
X141160960Y-116836944D01*
X141288747Y-116978866D01*
X141443248Y-117091118D01*
X141449276Y-117093802D01*
X141449278Y-117093803D01*
X141611681Y-117166109D01*
X141617712Y-117168794D01*
X141711113Y-117188647D01*
X141798056Y-117207128D01*
X141798061Y-117207128D01*
X141804513Y-117208500D01*
X141995487Y-117208500D01*
X142001939Y-117207128D01*
X142001944Y-117207128D01*
X142088887Y-117188647D01*
X142182288Y-117168794D01*
X142188319Y-117166109D01*
X142350722Y-117093803D01*
X142350724Y-117093802D01*
X142356752Y-117091118D01*
X142511253Y-116978866D01*
X142639040Y-116836944D01*
X142734527Y-116671556D01*
X142793542Y-116489928D01*
X142813504Y-116300000D01*
X142806614Y-116234443D01*
X142794232Y-116116635D01*
X142794232Y-116116633D01*
X142793542Y-116110072D01*
X142734527Y-115928444D01*
X142639040Y-115763056D01*
X142576685Y-115693803D01*
X142515675Y-115626045D01*
X142515674Y-115626044D01*
X142511253Y-115621134D01*
X142356752Y-115508882D01*
X142350724Y-115506198D01*
X142350722Y-115506197D01*
X142188319Y-115433891D01*
X142188318Y-115433891D01*
X142182288Y-115431206D01*
X141995487Y-115391500D01*
X141995567Y-115391125D01*
X141933428Y-115365557D01*
X141892799Y-115307335D01*
X141886947Y-115280432D01*
X141886783Y-115278866D01*
X141871866Y-115136944D01*
X141869732Y-115116635D01*
X141869732Y-115116633D01*
X141869042Y-115110072D01*
X141810027Y-114928444D01*
X141714540Y-114763056D01*
X141672743Y-114716635D01*
X141591175Y-114626045D01*
X141591174Y-114626044D01*
X141586753Y-114621134D01*
X141557665Y-114600000D01*
X144186496Y-114600000D01*
X144187186Y-114606565D01*
X144204235Y-114768774D01*
X144206458Y-114789928D01*
X144265473Y-114971556D01*
X144360960Y-115136944D01*
X144488747Y-115278866D01*
X144643248Y-115391118D01*
X144649276Y-115393802D01*
X144649278Y-115393803D01*
X144733332Y-115431226D01*
X144817712Y-115468794D01*
X144886263Y-115483365D01*
X144998056Y-115507128D01*
X144998061Y-115507128D01*
X145004513Y-115508500D01*
X145195487Y-115508500D01*
X145201939Y-115507128D01*
X145201944Y-115507128D01*
X145313737Y-115483365D01*
X145382288Y-115468794D01*
X145466668Y-115431226D01*
X145550722Y-115393803D01*
X145550724Y-115393802D01*
X145556752Y-115391118D01*
X145711253Y-115278866D01*
X145839040Y-115136944D01*
X145934527Y-114971556D01*
X145993542Y-114789928D01*
X145995766Y-114768774D01*
X146012814Y-114606565D01*
X146013504Y-114600000D01*
X146003645Y-114506197D01*
X145994232Y-114416635D01*
X145994232Y-114416633D01*
X145993542Y-114410072D01*
X145934527Y-114228444D01*
X145839040Y-114063056D01*
X145711253Y-113921134D01*
X145556752Y-113808882D01*
X145550724Y-113806198D01*
X145550722Y-113806197D01*
X145388319Y-113733891D01*
X145388318Y-113733891D01*
X145382288Y-113731206D01*
X145288887Y-113711353D01*
X145201944Y-113692872D01*
X145201939Y-113692872D01*
X145195487Y-113691500D01*
X145004513Y-113691500D01*
X144998061Y-113692872D01*
X144998056Y-113692872D01*
X144911113Y-113711353D01*
X144817712Y-113731206D01*
X144811682Y-113733891D01*
X144811681Y-113733891D01*
X144649278Y-113806197D01*
X144649276Y-113806198D01*
X144643248Y-113808882D01*
X144488747Y-113921134D01*
X144360960Y-114063056D01*
X144265473Y-114228444D01*
X144206458Y-114410072D01*
X144205768Y-114416633D01*
X144205768Y-114416635D01*
X144196355Y-114506197D01*
X144186496Y-114600000D01*
X141557665Y-114600000D01*
X141432252Y-114508882D01*
X141426224Y-114506198D01*
X141426222Y-114506197D01*
X141263819Y-114433891D01*
X141263818Y-114433891D01*
X141257788Y-114431206D01*
X141158361Y-114410072D01*
X141077444Y-114392872D01*
X141077439Y-114392872D01*
X141070987Y-114391500D01*
X140880013Y-114391500D01*
X140873561Y-114392872D01*
X140873556Y-114392872D01*
X140792639Y-114410072D01*
X140693212Y-114431206D01*
X140687182Y-114433891D01*
X140687181Y-114433891D01*
X140524778Y-114506197D01*
X140524776Y-114506198D01*
X140518748Y-114508882D01*
X140364247Y-114621134D01*
X140359826Y-114626044D01*
X140359825Y-114626045D01*
X140278258Y-114716635D01*
X140236460Y-114763056D01*
X140140973Y-114928444D01*
X140081958Y-115110072D01*
X140081268Y-115116633D01*
X140081268Y-115116635D01*
X140078618Y-115141852D01*
X140061996Y-115300000D01*
X133408105Y-115300000D01*
X133418065Y-115282749D01*
X133421223Y-115277279D01*
X133421224Y-115277278D01*
X133424527Y-115271556D01*
X133483542Y-115089928D01*
X133503504Y-114900000D01*
X133483542Y-114710072D01*
X133424527Y-114528444D01*
X133329040Y-114363056D01*
X133201253Y-114221134D01*
X133046752Y-114108882D01*
X133040724Y-114106198D01*
X133040722Y-114106197D01*
X132878319Y-114033891D01*
X132878318Y-114033891D01*
X132872288Y-114031206D01*
X132778888Y-114011353D01*
X132691944Y-113992872D01*
X132691939Y-113992872D01*
X132685487Y-113991500D01*
X132494513Y-113991500D01*
X132488061Y-113992872D01*
X132488056Y-113992872D01*
X132401112Y-114011353D01*
X132307712Y-114031206D01*
X132301682Y-114033891D01*
X132301681Y-114033891D01*
X132139278Y-114106197D01*
X132139276Y-114106198D01*
X132133248Y-114108882D01*
X131978747Y-114221134D01*
X131850960Y-114363056D01*
X131755473Y-114528444D01*
X131696458Y-114710072D01*
X131676496Y-114900000D01*
X116508500Y-114900000D01*
X116508500Y-110040000D01*
X127476496Y-110040000D01*
X127477186Y-110046565D01*
X127495243Y-110218365D01*
X127496458Y-110229928D01*
X127555473Y-110411556D01*
X127650960Y-110576944D01*
X127778747Y-110718866D01*
X127933248Y-110831118D01*
X127939276Y-110833802D01*
X127939278Y-110833803D01*
X128099563Y-110905166D01*
X128107712Y-110908794D01*
X128201112Y-110928647D01*
X128288056Y-110947128D01*
X128288061Y-110947128D01*
X128294513Y-110948500D01*
X128485487Y-110948500D01*
X128491939Y-110947128D01*
X128491944Y-110947128D01*
X128578888Y-110928647D01*
X128672288Y-110908794D01*
X128680437Y-110905166D01*
X128840722Y-110833803D01*
X128840724Y-110833802D01*
X128846752Y-110831118D01*
X129001253Y-110718866D01*
X129129040Y-110576944D01*
X129224527Y-110411556D01*
X129283542Y-110229928D01*
X129284758Y-110218365D01*
X129302814Y-110046565D01*
X129303504Y-110040000D01*
X129283542Y-109850072D01*
X129224527Y-109668444D01*
X129129040Y-109503056D01*
X129001253Y-109361134D01*
X128846752Y-109248882D01*
X128840724Y-109246198D01*
X128840722Y-109246197D01*
X128678319Y-109173891D01*
X128678318Y-109173891D01*
X128672288Y-109171206D01*
X128578887Y-109151353D01*
X128491944Y-109132872D01*
X128491939Y-109132872D01*
X128485487Y-109131500D01*
X128294513Y-109131500D01*
X128288061Y-109132872D01*
X128288056Y-109132872D01*
X128201112Y-109151353D01*
X128107712Y-109171206D01*
X128101682Y-109173891D01*
X128101681Y-109173891D01*
X127939278Y-109246197D01*
X127939276Y-109246198D01*
X127933248Y-109248882D01*
X127778747Y-109361134D01*
X127650960Y-109503056D01*
X127555473Y-109668444D01*
X127496458Y-109850072D01*
X127476496Y-110040000D01*
X116508500Y-110040000D01*
X116508500Y-83320000D01*
X132106496Y-83320000D01*
X132126458Y-83509928D01*
X132185473Y-83691556D01*
X132280960Y-83856944D01*
X132285378Y-83861851D01*
X132285379Y-83861852D01*
X132370057Y-83955896D01*
X132408747Y-83998866D01*
X132563248Y-84111118D01*
X132569276Y-84113802D01*
X132569278Y-84113803D01*
X132731681Y-84186109D01*
X132737712Y-84188794D01*
X132831112Y-84208647D01*
X132918056Y-84227128D01*
X132918061Y-84227128D01*
X132924513Y-84228500D01*
X133115487Y-84228500D01*
X133121939Y-84227128D01*
X133121944Y-84227128D01*
X133208888Y-84208647D01*
X133302288Y-84188794D01*
X133308319Y-84186109D01*
X133470722Y-84113803D01*
X133470724Y-84113802D01*
X133476752Y-84111118D01*
X133631253Y-83998866D01*
X133669943Y-83955896D01*
X133754621Y-83861852D01*
X133754622Y-83861851D01*
X133759040Y-83856944D01*
X133854527Y-83691556D01*
X133913542Y-83509928D01*
X133933504Y-83320000D01*
X133913542Y-83130072D01*
X133854527Y-82948444D01*
X133759040Y-82783056D01*
X133631253Y-82641134D01*
X133476752Y-82528882D01*
X133470724Y-82526198D01*
X133470722Y-82526197D01*
X133308319Y-82453891D01*
X133308318Y-82453891D01*
X133302288Y-82451206D01*
X133208887Y-82431353D01*
X133121944Y-82412872D01*
X133121939Y-82412872D01*
X133115487Y-82411500D01*
X132924513Y-82411500D01*
X132918061Y-82412872D01*
X132918056Y-82412872D01*
X132831113Y-82431353D01*
X132737712Y-82451206D01*
X132731682Y-82453891D01*
X132731681Y-82453891D01*
X132569278Y-82526197D01*
X132569276Y-82526198D01*
X132563248Y-82528882D01*
X132408747Y-82641134D01*
X132280960Y-82783056D01*
X132185473Y-82948444D01*
X132126458Y-83130072D01*
X132106496Y-83320000D01*
X116508500Y-83320000D01*
X116508500Y-74478918D01*
X116986917Y-74478918D01*
X116987334Y-74486156D01*
X117002682Y-74752320D01*
X117055405Y-75021053D01*
X117056792Y-75025103D01*
X117056793Y-75025108D01*
X117142723Y-75276088D01*
X117144112Y-75280144D01*
X117173238Y-75338054D01*
X117242837Y-75476437D01*
X117267160Y-75524799D01*
X117269586Y-75528328D01*
X117269589Y-75528334D01*
X117324533Y-75608277D01*
X117422274Y-75750490D01*
X117606582Y-75953043D01*
X117816675Y-76128707D01*
X117820316Y-76130991D01*
X118045024Y-76271951D01*
X118045028Y-76271953D01*
X118048664Y-76274234D01*
X118116544Y-76304883D01*
X118294345Y-76385164D01*
X118294349Y-76385166D01*
X118298257Y-76386930D01*
X118302377Y-76388150D01*
X118302376Y-76388150D01*
X118556723Y-76463491D01*
X118556727Y-76463492D01*
X118560836Y-76464709D01*
X118565070Y-76465357D01*
X118565075Y-76465358D01*
X118827298Y-76505483D01*
X118827300Y-76505483D01*
X118831540Y-76506132D01*
X118970912Y-76508322D01*
X119101071Y-76510367D01*
X119101077Y-76510367D01*
X119105362Y-76510434D01*
X119377235Y-76477534D01*
X119642127Y-76408041D01*
X119646087Y-76406401D01*
X119646092Y-76406399D01*
X119768631Y-76355641D01*
X119895136Y-76303241D01*
X120131582Y-76165073D01*
X120347089Y-75996094D01*
X120373050Y-75969305D01*
X120534686Y-75802509D01*
X120537669Y-75799431D01*
X120540202Y-75795983D01*
X120540206Y-75795978D01*
X120697257Y-75582178D01*
X120699795Y-75578723D01*
X120727154Y-75528334D01*
X120828418Y-75341830D01*
X120828419Y-75341828D01*
X120830468Y-75338054D01*
X120915148Y-75113955D01*
X120925751Y-75085895D01*
X120925752Y-75085891D01*
X120927269Y-75081877D01*
X120968173Y-74903279D01*
X120987449Y-74819117D01*
X120987450Y-74819113D01*
X120988407Y-74814933D01*
X120989365Y-74804205D01*
X121012531Y-74544627D01*
X121012531Y-74544625D01*
X121012751Y-74542161D01*
X121013193Y-74500000D01*
X121006849Y-74406944D01*
X120994859Y-74231055D01*
X120994858Y-74231049D01*
X120994567Y-74226778D01*
X120939032Y-73958612D01*
X120907653Y-73870000D01*
X123586496Y-73870000D01*
X123587186Y-73876565D01*
X123596251Y-73962809D01*
X123606458Y-74059928D01*
X123665473Y-74241556D01*
X123760960Y-74406944D01*
X123765378Y-74411851D01*
X123765379Y-74411852D01*
X123869675Y-74527684D01*
X123888747Y-74548866D01*
X124043248Y-74661118D01*
X124049276Y-74663802D01*
X124049278Y-74663803D01*
X124174747Y-74719665D01*
X124217712Y-74738794D01*
X124301172Y-74756534D01*
X124398056Y-74777128D01*
X124398061Y-74777128D01*
X124404513Y-74778500D01*
X124595487Y-74778500D01*
X124601939Y-74777128D01*
X124601944Y-74777128D01*
X124698828Y-74756534D01*
X124782288Y-74738794D01*
X124825253Y-74719665D01*
X124950722Y-74663803D01*
X124950724Y-74663802D01*
X124956752Y-74661118D01*
X125111253Y-74548866D01*
X125130325Y-74527684D01*
X125234621Y-74411852D01*
X125234622Y-74411851D01*
X125239040Y-74406944D01*
X125334527Y-74241556D01*
X125393542Y-74059928D01*
X125403750Y-73962809D01*
X125412814Y-73876565D01*
X125413504Y-73870000D01*
X125396110Y-73704506D01*
X125394232Y-73686635D01*
X125394232Y-73686633D01*
X125393542Y-73680072D01*
X125334527Y-73498444D01*
X125239040Y-73333056D01*
X125169515Y-73255840D01*
X125115675Y-73196045D01*
X125115674Y-73196044D01*
X125111253Y-73191134D01*
X124956752Y-73078882D01*
X124950724Y-73076198D01*
X124950722Y-73076197D01*
X124788319Y-73003891D01*
X124788318Y-73003891D01*
X124782288Y-73001206D01*
X124678227Y-72979087D01*
X124601944Y-72962872D01*
X124601939Y-72962872D01*
X124595487Y-72961500D01*
X124404513Y-72961500D01*
X124398061Y-72962872D01*
X124398056Y-72962872D01*
X124321773Y-72979087D01*
X124217712Y-73001206D01*
X124211682Y-73003891D01*
X124211681Y-73003891D01*
X124049278Y-73076197D01*
X124049276Y-73076198D01*
X124043248Y-73078882D01*
X123888747Y-73191134D01*
X123884326Y-73196044D01*
X123884325Y-73196045D01*
X123830486Y-73255840D01*
X123760960Y-73333056D01*
X123665473Y-73498444D01*
X123606458Y-73680072D01*
X123605768Y-73686633D01*
X123605768Y-73686635D01*
X123603890Y-73704506D01*
X123586496Y-73870000D01*
X120907653Y-73870000D01*
X120847617Y-73700465D01*
X120722013Y-73457112D01*
X120712040Y-73442921D01*
X120580557Y-73255840D01*
X120564545Y-73233057D01*
X120494466Y-73157643D01*
X120381046Y-73035588D01*
X120381043Y-73035585D01*
X120378125Y-73032445D01*
X120374810Y-73029731D01*
X120374806Y-73029728D01*
X120216572Y-72900215D01*
X120166205Y-72858990D01*
X120001847Y-72758272D01*
X119936366Y-72718145D01*
X119936365Y-72718145D01*
X119932704Y-72715901D01*
X119928768Y-72714173D01*
X119685873Y-72607549D01*
X119685869Y-72607548D01*
X119681945Y-72605825D01*
X119418566Y-72530800D01*
X119414324Y-72530196D01*
X119414318Y-72530195D01*
X119213834Y-72501662D01*
X119147443Y-72492213D01*
X119003589Y-72491460D01*
X118877877Y-72490802D01*
X118877871Y-72490802D01*
X118873591Y-72490780D01*
X118869347Y-72491339D01*
X118869343Y-72491339D01*
X118750302Y-72507011D01*
X118602078Y-72526525D01*
X118597938Y-72527658D01*
X118597936Y-72527658D01*
X118542473Y-72542831D01*
X118337928Y-72598788D01*
X118333980Y-72600472D01*
X118089982Y-72704546D01*
X118089978Y-72704548D01*
X118086030Y-72706232D01*
X117992679Y-72762101D01*
X117854725Y-72844664D01*
X117854721Y-72844667D01*
X117851043Y-72846868D01*
X117637318Y-73018094D01*
X117525964Y-73135436D01*
X117468449Y-73196045D01*
X117448808Y-73216742D01*
X117289002Y-73439136D01*
X117160857Y-73681161D01*
X117159385Y-73685184D01*
X117159383Y-73685188D01*
X117080772Y-73900000D01*
X117066743Y-73938337D01*
X117008404Y-74205907D01*
X116986917Y-74478918D01*
X116508500Y-74478918D01*
X116508500Y-72134500D01*
X116528502Y-72066379D01*
X116582158Y-72019886D01*
X116634500Y-72008500D01*
X169365500Y-72008500D01*
X169433621Y-72028502D01*
G37*
%TD.AperFunction*%
%TD*%
%TA.AperFunction,Conductor*%
%TO.N,GND*%
G36*
X169433621Y-78520002D02*
G01*
X169480114Y-78573658D01*
X169491500Y-78626000D01*
X169491500Y-110374000D01*
X169471498Y-110442121D01*
X169417842Y-110488614D01*
X169365500Y-110500000D01*
X160266858Y-110500000D01*
X160198737Y-110479998D01*
X160152244Y-110426342D01*
X160142140Y-110356068D01*
X160145151Y-110341391D01*
X160150535Y-110321296D01*
X160152409Y-110314969D01*
X160171501Y-110256210D01*
X160171501Y-110256209D01*
X160173542Y-110249928D01*
X160175014Y-110235925D01*
X160178615Y-110216496D01*
X160182257Y-110202903D01*
X160185836Y-110134616D01*
X160186353Y-110128041D01*
X160192814Y-110066566D01*
X160192814Y-110066565D01*
X160193504Y-110060000D01*
X160192033Y-110045999D01*
X160191516Y-110026241D01*
X160191907Y-110018782D01*
X160191907Y-110018778D01*
X160192252Y-110012190D01*
X160191220Y-110005673D01*
X160181552Y-109944632D01*
X160180691Y-109938091D01*
X160174233Y-109876642D01*
X160174232Y-109876637D01*
X160173542Y-109870072D01*
X160169192Y-109856684D01*
X160164579Y-109837470D01*
X160162377Y-109823567D01*
X160137867Y-109759716D01*
X160135665Y-109753499D01*
X160116568Y-109694725D01*
X160116567Y-109694724D01*
X160114527Y-109688444D01*
X160107493Y-109676261D01*
X160098981Y-109658414D01*
X160096307Y-109651448D01*
X160096304Y-109651443D01*
X160093938Y-109645278D01*
X160072814Y-109612749D01*
X160056679Y-109587904D01*
X160053233Y-109582280D01*
X160022343Y-109528777D01*
X160019040Y-109523056D01*
X160009628Y-109512603D01*
X159997592Y-109496917D01*
X159993524Y-109490653D01*
X159993522Y-109490651D01*
X159989926Y-109485113D01*
X159941557Y-109436744D01*
X159937016Y-109431959D01*
X159895673Y-109386043D01*
X159891253Y-109381134D01*
X159879865Y-109372860D01*
X159864832Y-109360019D01*
X159854887Y-109350074D01*
X159849347Y-109346476D01*
X159797525Y-109312822D01*
X159792090Y-109309087D01*
X159762072Y-109287278D01*
X159736752Y-109268882D01*
X159730722Y-109266197D01*
X159730718Y-109266195D01*
X159723894Y-109263157D01*
X159706520Y-109253724D01*
X159694722Y-109246062D01*
X159688561Y-109243697D01*
X159688559Y-109243696D01*
X159660317Y-109232855D01*
X159630857Y-109221546D01*
X159624779Y-109219028D01*
X159584201Y-109200962D01*
X159568324Y-109193893D01*
X159568321Y-109193892D01*
X159562288Y-109191206D01*
X159555830Y-109189833D01*
X159555823Y-109189831D01*
X159548521Y-109188279D01*
X159529569Y-109182665D01*
X159522598Y-109179989D01*
X159522593Y-109179988D01*
X159516433Y-109177623D01*
X159448872Y-109166922D01*
X159442403Y-109165723D01*
X159407438Y-109158291D01*
X159381943Y-109152872D01*
X159381941Y-109152872D01*
X159375487Y-109151500D01*
X159361417Y-109151500D01*
X159341708Y-109149949D01*
X159327810Y-109147748D01*
X159321223Y-109148093D01*
X159321218Y-109148093D01*
X159259520Y-109151327D01*
X159252926Y-109151500D01*
X159184513Y-109151500D01*
X159170748Y-109154426D01*
X159151143Y-109157007D01*
X159137097Y-109157743D01*
X159130724Y-109159451D01*
X159130722Y-109159451D01*
X159071027Y-109175446D01*
X159064613Y-109176986D01*
X159004171Y-109189833D01*
X159004170Y-109189833D01*
X158997712Y-109191206D01*
X158991674Y-109193894D01*
X158991675Y-109193894D01*
X158984860Y-109196928D01*
X158966227Y-109203527D01*
X158952630Y-109207170D01*
X158891652Y-109238240D01*
X158885770Y-109241045D01*
X158823248Y-109268882D01*
X158817901Y-109272767D01*
X158811866Y-109277152D01*
X158795009Y-109287482D01*
X158788358Y-109290871D01*
X158782470Y-109293871D01*
X158777340Y-109298025D01*
X158777331Y-109298031D01*
X158729309Y-109336919D01*
X158724081Y-109340931D01*
X158668747Y-109381134D01*
X158664327Y-109386043D01*
X158664325Y-109386045D01*
X158622984Y-109431959D01*
X158618443Y-109436744D01*
X157592092Y-110463095D01*
X157529780Y-110497121D01*
X157502997Y-110500000D01*
X137626000Y-110500000D01*
X137557879Y-110479998D01*
X137511386Y-110426342D01*
X137500000Y-110374000D01*
X137500000Y-108414500D01*
X137520002Y-108346379D01*
X137573658Y-108299886D01*
X137626000Y-108288500D01*
X138921540Y-108288500D01*
X138989661Y-108308502D01*
X139036154Y-108362158D01*
X139046258Y-108432432D01*
X139030659Y-108477500D01*
X139030659Y-108477501D01*
X138995473Y-108538444D01*
X138936458Y-108720072D01*
X138935768Y-108726633D01*
X138935768Y-108726635D01*
X138935016Y-108733794D01*
X138916496Y-108910000D01*
X138936458Y-109099928D01*
X138995473Y-109281556D01*
X139090960Y-109446944D01*
X139095378Y-109451851D01*
X139095379Y-109451852D01*
X139155072Y-109518148D01*
X139218747Y-109588866D01*
X139373248Y-109701118D01*
X139379276Y-109703802D01*
X139379278Y-109703803D01*
X139541681Y-109776109D01*
X139547712Y-109778794D01*
X139641113Y-109798647D01*
X139728056Y-109817128D01*
X139728061Y-109817128D01*
X139734513Y-109818500D01*
X139925487Y-109818500D01*
X139931939Y-109817128D01*
X139931944Y-109817128D01*
X140018887Y-109798647D01*
X140112288Y-109778794D01*
X140118319Y-109776109D01*
X140280722Y-109703803D01*
X140280724Y-109703802D01*
X140286752Y-109701118D01*
X140441253Y-109588866D01*
X140504928Y-109518148D01*
X140564621Y-109451852D01*
X140564622Y-109451851D01*
X140569040Y-109446944D01*
X140664527Y-109281556D01*
X140723542Y-109099928D01*
X140743504Y-108910000D01*
X140724984Y-108733794D01*
X140724232Y-108726635D01*
X140724232Y-108726633D01*
X140723542Y-108720072D01*
X140664527Y-108538444D01*
X140629342Y-108477501D01*
X140629341Y-108477500D01*
X140612603Y-108408505D01*
X140635823Y-108341413D01*
X140691631Y-108297526D01*
X140738460Y-108288500D01*
X141331540Y-108288500D01*
X141399661Y-108308502D01*
X141446154Y-108362158D01*
X141456258Y-108432432D01*
X141440659Y-108477500D01*
X141440659Y-108477501D01*
X141405473Y-108538444D01*
X141346458Y-108720072D01*
X141345768Y-108726633D01*
X141345768Y-108726635D01*
X141345016Y-108733794D01*
X141326496Y-108910000D01*
X141346458Y-109099928D01*
X141405473Y-109281556D01*
X141500960Y-109446944D01*
X141505378Y-109451851D01*
X141505379Y-109451852D01*
X141565072Y-109518148D01*
X141628747Y-109588866D01*
X141783248Y-109701118D01*
X141789276Y-109703802D01*
X141789278Y-109703803D01*
X141951681Y-109776109D01*
X141957712Y-109778794D01*
X142051113Y-109798647D01*
X142138056Y-109817128D01*
X142138061Y-109817128D01*
X142144513Y-109818500D01*
X142335487Y-109818500D01*
X142341939Y-109817128D01*
X142341944Y-109817128D01*
X142428887Y-109798647D01*
X142522288Y-109778794D01*
X142528319Y-109776109D01*
X142690722Y-109703803D01*
X142690724Y-109703802D01*
X142696752Y-109701118D01*
X142851253Y-109588866D01*
X142914928Y-109518148D01*
X142974621Y-109451852D01*
X142974622Y-109451851D01*
X142979040Y-109446944D01*
X143074527Y-109281556D01*
X143133542Y-109099928D01*
X143153504Y-108910000D01*
X143134984Y-108733794D01*
X143134232Y-108726635D01*
X143134232Y-108726633D01*
X143133542Y-108720072D01*
X143074527Y-108538444D01*
X143039342Y-108477501D01*
X143039341Y-108477500D01*
X143022603Y-108408505D01*
X143045823Y-108341413D01*
X143101631Y-108297526D01*
X143148460Y-108288500D01*
X144153087Y-108288500D01*
X144221208Y-108308502D01*
X144267701Y-108362158D01*
X144277805Y-108432432D01*
X144262206Y-108477500D01*
X144221247Y-108548444D01*
X144215473Y-108558444D01*
X144156458Y-108740072D01*
X144136496Y-108930000D01*
X144156458Y-109119928D01*
X144215473Y-109301556D01*
X144218776Y-109307278D01*
X144218777Y-109307279D01*
X144241408Y-109346476D01*
X144310960Y-109466944D01*
X144315378Y-109471851D01*
X144315379Y-109471852D01*
X144414809Y-109582280D01*
X144438747Y-109608866D01*
X144481240Y-109639739D01*
X144574143Y-109707237D01*
X144593248Y-109721118D01*
X144599276Y-109723802D01*
X144599278Y-109723803D01*
X144748333Y-109790166D01*
X144767712Y-109798794D01*
X144860421Y-109818500D01*
X144948056Y-109837128D01*
X144948061Y-109837128D01*
X144954513Y-109838500D01*
X145145487Y-109838500D01*
X145151939Y-109837128D01*
X145151944Y-109837128D01*
X145239579Y-109818500D01*
X145332288Y-109798794D01*
X145351667Y-109790166D01*
X145500722Y-109723803D01*
X145500724Y-109723802D01*
X145506752Y-109721118D01*
X145525858Y-109707237D01*
X145618760Y-109639739D01*
X145661253Y-109608866D01*
X145685191Y-109582280D01*
X145784621Y-109471852D01*
X145784622Y-109471851D01*
X145789040Y-109466944D01*
X145858592Y-109346476D01*
X145881223Y-109307279D01*
X145881224Y-109307278D01*
X145884527Y-109301556D01*
X145943542Y-109119928D01*
X145963504Y-108930000D01*
X145943542Y-108740072D01*
X145884527Y-108558444D01*
X145878754Y-108548444D01*
X145837794Y-108477500D01*
X145821056Y-108408505D01*
X145844276Y-108341413D01*
X145900084Y-108297526D01*
X145946913Y-108288500D01*
X150557314Y-108288500D01*
X150625435Y-108308502D01*
X150671928Y-108362158D01*
X150682032Y-108432432D01*
X150666434Y-108477497D01*
X150625473Y-108548444D01*
X150566458Y-108730072D01*
X150546496Y-108920000D01*
X150566458Y-109109928D01*
X150625473Y-109291556D01*
X150628776Y-109297278D01*
X150628777Y-109297279D01*
X150636713Y-109311025D01*
X150720960Y-109456944D01*
X150725378Y-109461851D01*
X150725379Y-109461852D01*
X150776068Y-109518148D01*
X150848747Y-109598866D01*
X150943450Y-109667672D01*
X150984143Y-109697237D01*
X151003248Y-109711118D01*
X151009276Y-109713802D01*
X151009278Y-109713803D01*
X151158333Y-109780166D01*
X151177712Y-109788794D01*
X151271113Y-109808647D01*
X151358056Y-109827128D01*
X151358061Y-109827128D01*
X151364513Y-109828500D01*
X151555487Y-109828500D01*
X151561939Y-109827128D01*
X151561944Y-109827128D01*
X151648887Y-109808647D01*
X151742288Y-109788794D01*
X151761667Y-109780166D01*
X151910722Y-109713803D01*
X151910724Y-109713802D01*
X151916752Y-109711118D01*
X151935858Y-109697237D01*
X151976550Y-109667672D01*
X152071253Y-109598866D01*
X152143932Y-109518148D01*
X152194621Y-109461852D01*
X152194622Y-109461851D01*
X152199040Y-109456944D01*
X152283287Y-109311025D01*
X152291223Y-109297279D01*
X152291224Y-109297278D01*
X152294527Y-109291556D01*
X152353542Y-109109928D01*
X152373504Y-108920000D01*
X152353542Y-108730072D01*
X152294527Y-108548444D01*
X152253566Y-108477498D01*
X152236829Y-108408505D01*
X152260049Y-108341413D01*
X152315856Y-108297526D01*
X152362686Y-108288500D01*
X153231540Y-108288500D01*
X153299661Y-108308502D01*
X153346154Y-108362158D01*
X153356258Y-108432432D01*
X153340659Y-108477500D01*
X153340659Y-108477501D01*
X153305473Y-108538444D01*
X153246458Y-108720072D01*
X153245768Y-108726633D01*
X153245768Y-108726635D01*
X153245016Y-108733794D01*
X153226496Y-108910000D01*
X153246458Y-109099928D01*
X153305473Y-109281556D01*
X153400960Y-109446944D01*
X153405378Y-109451851D01*
X153405379Y-109451852D01*
X153465072Y-109518148D01*
X153528747Y-109588866D01*
X153683248Y-109701118D01*
X153689276Y-109703802D01*
X153689278Y-109703803D01*
X153851681Y-109776109D01*
X153857712Y-109778794D01*
X153951113Y-109798647D01*
X154038056Y-109817128D01*
X154038061Y-109817128D01*
X154044513Y-109818500D01*
X154235487Y-109818500D01*
X154241939Y-109817128D01*
X154241944Y-109817128D01*
X154328887Y-109798647D01*
X154422288Y-109778794D01*
X154428319Y-109776109D01*
X154590722Y-109703803D01*
X154590724Y-109703802D01*
X154596752Y-109701118D01*
X154751253Y-109588866D01*
X154814928Y-109518148D01*
X154874621Y-109451852D01*
X154874622Y-109451851D01*
X154879040Y-109446944D01*
X154974527Y-109281556D01*
X155033542Y-109099928D01*
X155053504Y-108910000D01*
X155034984Y-108733794D01*
X155034232Y-108726635D01*
X155034232Y-108726633D01*
X155033542Y-108720072D01*
X154974527Y-108538444D01*
X154939342Y-108477501D01*
X154939341Y-108477500D01*
X154922603Y-108408505D01*
X154945823Y-108341413D01*
X155001631Y-108297526D01*
X155048460Y-108288500D01*
X164032011Y-108288500D01*
X164100132Y-108308502D01*
X164127248Y-108332002D01*
X164142864Y-108350030D01*
X164142869Y-108350035D01*
X164146250Y-108353938D01*
X164318126Y-108496632D01*
X164511000Y-108609338D01*
X164719692Y-108689030D01*
X164724760Y-108690061D01*
X164724763Y-108690062D01*
X164832017Y-108711883D01*
X164938597Y-108733567D01*
X164943772Y-108733757D01*
X164943774Y-108733757D01*
X165156673Y-108741564D01*
X165156677Y-108741564D01*
X165161837Y-108741753D01*
X165166957Y-108741097D01*
X165166959Y-108741097D01*
X165378288Y-108714025D01*
X165378289Y-108714025D01*
X165383416Y-108713368D01*
X165388366Y-108711883D01*
X165592429Y-108650661D01*
X165592434Y-108650659D01*
X165597384Y-108649174D01*
X165797994Y-108550896D01*
X165979860Y-108421173D01*
X166076120Y-108325248D01*
X166138490Y-108291333D01*
X166165059Y-108288500D01*
X166572011Y-108288500D01*
X166640132Y-108308502D01*
X166667248Y-108332002D01*
X166682864Y-108350030D01*
X166682869Y-108350035D01*
X166686250Y-108353938D01*
X166858126Y-108496632D01*
X167051000Y-108609338D01*
X167259692Y-108689030D01*
X167264760Y-108690061D01*
X167264763Y-108690062D01*
X167372017Y-108711883D01*
X167478597Y-108733567D01*
X167483772Y-108733757D01*
X167483774Y-108733757D01*
X167696673Y-108741564D01*
X167696677Y-108741564D01*
X167701837Y-108741753D01*
X167706957Y-108741097D01*
X167706959Y-108741097D01*
X167918288Y-108714025D01*
X167918289Y-108714025D01*
X167923416Y-108713368D01*
X167928366Y-108711883D01*
X168132429Y-108650661D01*
X168132434Y-108650659D01*
X168137384Y-108649174D01*
X168337994Y-108550896D01*
X168519860Y-108421173D01*
X168526557Y-108414500D01*
X168632925Y-108308502D01*
X168678096Y-108263489D01*
X168808453Y-108082077D01*
X168907430Y-107881811D01*
X168972370Y-107668069D01*
X169001529Y-107446590D01*
X169003156Y-107380000D01*
X168984852Y-107157361D01*
X168930431Y-106940702D01*
X168841354Y-106735840D01*
X168720014Y-106548277D01*
X168569670Y-106383051D01*
X168565619Y-106379852D01*
X168565615Y-106379848D01*
X168398414Y-106247800D01*
X168398410Y-106247798D01*
X168394359Y-106244598D01*
X168352569Y-106221529D01*
X168302598Y-106171097D01*
X168287826Y-106101654D01*
X168312942Y-106035248D01*
X168340294Y-106008641D01*
X168515328Y-105883792D01*
X168523200Y-105877139D01*
X168674052Y-105726812D01*
X168680730Y-105718965D01*
X168805003Y-105546020D01*
X168810313Y-105537183D01*
X168904670Y-105346267D01*
X168908469Y-105336672D01*
X168970377Y-105132910D01*
X168972555Y-105122837D01*
X168973986Y-105111962D01*
X168971775Y-105097778D01*
X168958617Y-105094000D01*
X167512000Y-105094000D01*
X167443879Y-105073998D01*
X167397386Y-105020342D01*
X167386000Y-104968000D01*
X167386000Y-104712000D01*
X167406002Y-104643879D01*
X167459658Y-104597386D01*
X167512000Y-104586000D01*
X168958344Y-104586000D01*
X168971875Y-104582027D01*
X168973180Y-104572947D01*
X168931214Y-104405875D01*
X168927894Y-104396124D01*
X168842972Y-104200814D01*
X168838105Y-104191739D01*
X168722426Y-104012926D01*
X168716136Y-104004757D01*
X168572806Y-103847240D01*
X168565273Y-103840215D01*
X168398139Y-103708222D01*
X168389556Y-103702520D01*
X168352602Y-103682120D01*
X168302631Y-103631687D01*
X168287859Y-103562245D01*
X168312975Y-103495839D01*
X168340327Y-103469232D01*
X168363797Y-103452491D01*
X168519860Y-103341173D01*
X168678096Y-103183489D01*
X168808453Y-103002077D01*
X168829320Y-102959857D01*
X168905136Y-102806453D01*
X168905137Y-102806451D01*
X168907430Y-102801811D01*
X168972370Y-102588069D01*
X169001529Y-102366590D01*
X169003156Y-102300000D01*
X168984852Y-102077361D01*
X168930431Y-101860702D01*
X168841354Y-101655840D01*
X168720014Y-101468277D01*
X168569670Y-101303051D01*
X168565619Y-101299852D01*
X168565615Y-101299848D01*
X168398414Y-101167800D01*
X168398410Y-101167798D01*
X168394359Y-101164598D01*
X168353053Y-101141796D01*
X168303084Y-101091364D01*
X168288312Y-101021921D01*
X168313428Y-100955516D01*
X168340780Y-100928909D01*
X168384603Y-100897650D01*
X168519860Y-100801173D01*
X168526827Y-100794231D01*
X168674435Y-100647137D01*
X168678096Y-100643489D01*
X168808453Y-100462077D01*
X168833945Y-100410499D01*
X168905136Y-100266453D01*
X168905137Y-100266451D01*
X168907430Y-100261811D01*
X168972370Y-100048069D01*
X169001529Y-99826590D01*
X169003156Y-99760000D01*
X168984852Y-99537361D01*
X168930431Y-99320702D01*
X168841354Y-99115840D01*
X168720014Y-98928277D01*
X168569670Y-98763051D01*
X168565619Y-98759852D01*
X168565615Y-98759848D01*
X168398414Y-98627800D01*
X168398410Y-98627798D01*
X168394359Y-98624598D01*
X168353053Y-98601796D01*
X168303084Y-98551364D01*
X168288312Y-98481921D01*
X168313428Y-98415516D01*
X168340780Y-98388909D01*
X168384603Y-98357650D01*
X168519860Y-98261173D01*
X168526827Y-98254231D01*
X168674435Y-98107137D01*
X168678096Y-98103489D01*
X168808453Y-97922077D01*
X168868046Y-97801500D01*
X168905136Y-97726453D01*
X168905137Y-97726451D01*
X168907430Y-97721811D01*
X168972370Y-97508069D01*
X169001529Y-97286590D01*
X169003156Y-97220000D01*
X168984852Y-96997361D01*
X168930431Y-96780702D01*
X168841354Y-96575840D01*
X168720014Y-96388277D01*
X168569670Y-96223051D01*
X168565619Y-96219852D01*
X168565615Y-96219848D01*
X168398414Y-96087800D01*
X168398410Y-96087798D01*
X168394359Y-96084598D01*
X168353053Y-96061796D01*
X168303084Y-96011364D01*
X168288312Y-95941921D01*
X168313428Y-95875516D01*
X168340780Y-95848909D01*
X168384603Y-95817650D01*
X168519860Y-95721173D01*
X168526827Y-95714231D01*
X168674435Y-95567137D01*
X168678096Y-95563489D01*
X168808453Y-95382077D01*
X168860436Y-95276898D01*
X168905136Y-95186453D01*
X168905137Y-95186451D01*
X168907430Y-95181811D01*
X168972370Y-94968069D01*
X169001529Y-94746590D01*
X169003156Y-94680000D01*
X168984852Y-94457361D01*
X168930431Y-94240702D01*
X168841354Y-94035840D01*
X168720014Y-93848277D01*
X168569670Y-93683051D01*
X168565619Y-93679852D01*
X168565615Y-93679848D01*
X168398414Y-93547800D01*
X168398410Y-93547798D01*
X168394359Y-93544598D01*
X168353053Y-93521796D01*
X168303084Y-93471364D01*
X168288312Y-93401921D01*
X168313428Y-93335516D01*
X168340780Y-93308909D01*
X168384603Y-93277650D01*
X168519860Y-93181173D01*
X168526827Y-93174231D01*
X168674435Y-93027137D01*
X168678096Y-93023489D01*
X168808453Y-92842077D01*
X168868046Y-92721500D01*
X168905136Y-92646453D01*
X168905137Y-92646451D01*
X168907430Y-92641811D01*
X168972370Y-92428069D01*
X169001529Y-92206590D01*
X169003156Y-92140000D01*
X168984852Y-91917361D01*
X168930431Y-91700702D01*
X168841354Y-91495840D01*
X168799523Y-91431179D01*
X168722822Y-91312617D01*
X168722820Y-91312614D01*
X168720014Y-91308277D01*
X168569670Y-91143051D01*
X168565619Y-91139852D01*
X168565615Y-91139848D01*
X168398414Y-91007800D01*
X168398410Y-91007798D01*
X168394359Y-91004598D01*
X168352569Y-90981529D01*
X168302598Y-90931097D01*
X168287826Y-90861654D01*
X168312942Y-90795248D01*
X168340294Y-90768641D01*
X168515328Y-90643792D01*
X168523200Y-90637139D01*
X168674052Y-90486812D01*
X168680730Y-90478965D01*
X168805003Y-90306020D01*
X168810313Y-90297183D01*
X168904670Y-90106267D01*
X168908469Y-90096672D01*
X168970377Y-89892910D01*
X168972555Y-89882837D01*
X168973986Y-89871962D01*
X168971775Y-89857778D01*
X168958617Y-89854000D01*
X167512000Y-89854000D01*
X167443879Y-89833998D01*
X167397386Y-89780342D01*
X167386000Y-89728000D01*
X167386000Y-89327885D01*
X167894000Y-89327885D01*
X167898475Y-89343124D01*
X167899865Y-89344329D01*
X167907548Y-89346000D01*
X168958344Y-89346000D01*
X168971875Y-89342027D01*
X168973180Y-89332947D01*
X168931214Y-89165875D01*
X168927894Y-89156124D01*
X168842972Y-88960814D01*
X168838105Y-88951739D01*
X168722426Y-88772926D01*
X168716136Y-88764757D01*
X168572806Y-88607240D01*
X168565273Y-88600215D01*
X168398139Y-88468222D01*
X168389552Y-88462517D01*
X168203117Y-88359599D01*
X168193705Y-88355369D01*
X167992959Y-88284280D01*
X167982988Y-88281646D01*
X167911837Y-88268972D01*
X167898540Y-88270432D01*
X167894000Y-88284989D01*
X167894000Y-89327885D01*
X167386000Y-89327885D01*
X167386000Y-88283102D01*
X167382082Y-88269758D01*
X167367806Y-88267771D01*
X167329324Y-88273660D01*
X167319288Y-88276051D01*
X167116868Y-88342212D01*
X167107359Y-88346209D01*
X166918463Y-88444542D01*
X166909738Y-88450036D01*
X166739433Y-88577905D01*
X166731726Y-88584748D01*
X166654478Y-88665584D01*
X166592954Y-88701014D01*
X166522042Y-88697557D01*
X166464255Y-88656311D01*
X166445402Y-88622763D01*
X166403767Y-88511703D01*
X166400615Y-88503295D01*
X166313261Y-88386739D01*
X166196705Y-88299385D01*
X166060316Y-88248255D01*
X165998134Y-88241500D01*
X164201866Y-88241500D01*
X164139684Y-88248255D01*
X164003295Y-88299385D01*
X163886739Y-88386739D01*
X163799385Y-88503295D01*
X163748255Y-88639684D01*
X163741500Y-88701866D01*
X163741500Y-90055500D01*
X163721498Y-90123621D01*
X163667842Y-90170114D01*
X163615500Y-90181500D01*
X163155660Y-90181500D01*
X163087539Y-90161498D01*
X163066565Y-90144595D01*
X161941450Y-89019480D01*
X161935596Y-89013215D01*
X161933812Y-89011170D01*
X161897561Y-88969615D01*
X161845280Y-88932871D01*
X161839986Y-88928939D01*
X161795693Y-88894209D01*
X161789718Y-88889524D01*
X161782802Y-88886401D01*
X161780516Y-88885017D01*
X161765835Y-88876643D01*
X161763475Y-88875378D01*
X161757261Y-88871010D01*
X161750182Y-88868250D01*
X161750180Y-88868249D01*
X161697725Y-88847798D01*
X161691656Y-88845247D01*
X161633427Y-88818955D01*
X161625960Y-88817571D01*
X161623405Y-88816770D01*
X161607152Y-88812141D01*
X161604572Y-88811478D01*
X161597491Y-88808718D01*
X161589960Y-88807727D01*
X161589958Y-88807726D01*
X161560339Y-88803827D01*
X161534139Y-88800378D01*
X161527641Y-88799348D01*
X161464814Y-88787704D01*
X161457234Y-88788141D01*
X161457233Y-88788141D01*
X161402608Y-88791291D01*
X161395354Y-88791500D01*
X141158927Y-88791500D01*
X141150358Y-88791208D01*
X141100225Y-88787790D01*
X141100221Y-88787790D01*
X141092648Y-88787274D01*
X141029681Y-88798264D01*
X141023169Y-88799224D01*
X140959758Y-88806898D01*
X140952657Y-88809581D01*
X140950048Y-88810222D01*
X140933715Y-88814691D01*
X140931195Y-88815452D01*
X140923717Y-88816757D01*
X140916765Y-88819809D01*
X140916764Y-88819809D01*
X140865204Y-88842441D01*
X140859099Y-88844932D01*
X140806456Y-88864825D01*
X140806452Y-88864827D01*
X140799344Y-88867513D01*
X140793083Y-88871816D01*
X140790717Y-88873053D01*
X140775937Y-88881280D01*
X140773652Y-88882631D01*
X140766695Y-88885685D01*
X140760675Y-88890305D01*
X140760669Y-88890308D01*
X140729542Y-88914194D01*
X140715998Y-88924587D01*
X140710668Y-88928459D01*
X140664280Y-88960339D01*
X140664275Y-88960344D01*
X140658019Y-88964643D01*
X140652968Y-88970313D01*
X140652966Y-88970314D01*
X140616565Y-89011170D01*
X140611584Y-89016446D01*
X139483435Y-90144595D01*
X139421123Y-90178621D01*
X139394340Y-90181500D01*
X137626000Y-90181500D01*
X137557879Y-90161498D01*
X137511386Y-90107842D01*
X137500000Y-90055500D01*
X137500000Y-89869270D01*
X137510892Y-89818024D01*
X137511227Y-89817272D01*
X137514527Y-89811556D01*
X137573542Y-89629928D01*
X137588500Y-89487610D01*
X137593504Y-89440000D01*
X137589190Y-89398955D01*
X137588500Y-89385784D01*
X137588500Y-85126000D01*
X137608502Y-85057879D01*
X137662158Y-85011386D01*
X137714500Y-85000000D01*
X154500000Y-85000000D01*
X154500000Y-83683134D01*
X155016500Y-83683134D01*
X155023255Y-83745316D01*
X155074385Y-83881705D01*
X155161739Y-83998261D01*
X155278295Y-84085615D01*
X155414684Y-84136745D01*
X155476866Y-84143500D01*
X157273134Y-84143500D01*
X157335316Y-84136745D01*
X157471705Y-84085615D01*
X157588261Y-83998261D01*
X157675615Y-83881705D01*
X157697799Y-83822529D01*
X157719598Y-83764382D01*
X157762240Y-83707618D01*
X157828802Y-83682918D01*
X157898150Y-83698126D01*
X157932817Y-83726114D01*
X157961250Y-83758938D01*
X158133126Y-83901632D01*
X158326000Y-84014338D01*
X158534692Y-84094030D01*
X158539760Y-84095061D01*
X158539763Y-84095062D01*
X158647017Y-84116883D01*
X158753597Y-84138567D01*
X158758772Y-84138757D01*
X158758774Y-84138757D01*
X158971673Y-84146564D01*
X158971677Y-84146564D01*
X158976837Y-84146753D01*
X158981957Y-84146097D01*
X158981959Y-84146097D01*
X159193288Y-84119025D01*
X159193289Y-84119025D01*
X159198416Y-84118368D01*
X159203366Y-84116883D01*
X159407429Y-84055661D01*
X159407434Y-84055659D01*
X159412384Y-84054174D01*
X159612994Y-83955896D01*
X159794860Y-83826173D01*
X159953096Y-83668489D01*
X160083453Y-83487077D01*
X160084776Y-83488028D01*
X160131645Y-83444857D01*
X160201580Y-83432625D01*
X160267026Y-83460144D01*
X160294875Y-83491994D01*
X160354987Y-83590088D01*
X160501250Y-83758938D01*
X160673126Y-83901632D01*
X160866000Y-84014338D01*
X161074692Y-84094030D01*
X161079760Y-84095061D01*
X161079763Y-84095062D01*
X161187017Y-84116883D01*
X161293597Y-84138567D01*
X161298772Y-84138757D01*
X161298774Y-84138757D01*
X161511673Y-84146564D01*
X161511677Y-84146564D01*
X161516837Y-84146753D01*
X161521957Y-84146097D01*
X161521959Y-84146097D01*
X161733288Y-84119025D01*
X161733289Y-84119025D01*
X161738416Y-84118368D01*
X161743366Y-84116883D01*
X161947429Y-84055661D01*
X161947434Y-84055659D01*
X161952384Y-84054174D01*
X162152994Y-83955896D01*
X162334860Y-83826173D01*
X162493096Y-83668489D01*
X162623453Y-83487077D01*
X162644320Y-83444857D01*
X162720136Y-83291453D01*
X162720137Y-83291451D01*
X162722430Y-83286811D01*
X162787370Y-83073069D01*
X162816529Y-82851590D01*
X162818156Y-82785000D01*
X162799852Y-82562361D01*
X162745431Y-82345702D01*
X162656354Y-82140840D01*
X162535014Y-81953277D01*
X162384670Y-81788051D01*
X162380619Y-81784852D01*
X162380615Y-81784848D01*
X162213414Y-81652800D01*
X162213410Y-81652798D01*
X162209359Y-81649598D01*
X162167569Y-81626529D01*
X162117598Y-81576097D01*
X162102826Y-81506654D01*
X162127942Y-81440248D01*
X162155294Y-81413641D01*
X162330328Y-81288792D01*
X162338200Y-81282139D01*
X162489052Y-81131812D01*
X162495730Y-81123965D01*
X162620003Y-80951020D01*
X162625313Y-80942183D01*
X162719670Y-80751267D01*
X162723469Y-80741672D01*
X162785377Y-80537910D01*
X162787555Y-80527837D01*
X162788986Y-80516962D01*
X162786775Y-80502778D01*
X162773617Y-80499000D01*
X155058225Y-80499000D01*
X155044694Y-80502973D01*
X155043257Y-80512966D01*
X155073565Y-80647446D01*
X155076645Y-80657275D01*
X155156770Y-80854603D01*
X155161413Y-80863794D01*
X155272694Y-81045388D01*
X155278777Y-81053699D01*
X155418213Y-81214667D01*
X155425577Y-81221879D01*
X155430522Y-81225985D01*
X155470156Y-81284889D01*
X155471653Y-81355870D01*
X155434537Y-81416392D01*
X155394264Y-81440910D01*
X155286705Y-81481232D01*
X155286704Y-81481233D01*
X155278295Y-81484385D01*
X155161739Y-81571739D01*
X155074385Y-81688295D01*
X155023255Y-81824684D01*
X155016500Y-81886866D01*
X155016500Y-83683134D01*
X154500000Y-83683134D01*
X154500000Y-79979183D01*
X155039389Y-79979183D01*
X155040912Y-79987607D01*
X155053292Y-79991000D01*
X156102885Y-79991000D01*
X156118124Y-79986525D01*
X156119329Y-79985135D01*
X156121000Y-79977452D01*
X156121000Y-79972885D01*
X156629000Y-79972885D01*
X156633475Y-79988124D01*
X156634865Y-79989329D01*
X156642548Y-79991000D01*
X158642885Y-79991000D01*
X158658124Y-79986525D01*
X158659329Y-79985135D01*
X158661000Y-79977452D01*
X158661000Y-79972885D01*
X159169000Y-79972885D01*
X159173475Y-79988124D01*
X159174865Y-79989329D01*
X159182548Y-79991000D01*
X161182885Y-79991000D01*
X161198124Y-79986525D01*
X161199329Y-79985135D01*
X161201000Y-79977452D01*
X161201000Y-79972885D01*
X161709000Y-79972885D01*
X161713475Y-79988124D01*
X161714865Y-79989329D01*
X161722548Y-79991000D01*
X162773344Y-79991000D01*
X162786875Y-79987027D01*
X162788180Y-79977947D01*
X162746214Y-79810875D01*
X162742894Y-79801124D01*
X162657972Y-79605814D01*
X162653105Y-79596739D01*
X162537426Y-79417926D01*
X162531136Y-79409757D01*
X162387806Y-79252240D01*
X162380273Y-79245215D01*
X162213139Y-79113222D01*
X162204552Y-79107517D01*
X162018117Y-79004599D01*
X162008705Y-79000369D01*
X161807959Y-78929280D01*
X161797988Y-78926646D01*
X161726837Y-78913972D01*
X161713540Y-78915432D01*
X161709000Y-78929989D01*
X161709000Y-79972885D01*
X161201000Y-79972885D01*
X161201000Y-78928102D01*
X161197082Y-78914758D01*
X161182806Y-78912771D01*
X161144324Y-78918660D01*
X161134288Y-78921051D01*
X160931868Y-78987212D01*
X160922359Y-78991209D01*
X160733463Y-79089542D01*
X160724738Y-79095036D01*
X160554433Y-79222905D01*
X160546726Y-79229748D01*
X160399590Y-79383717D01*
X160393104Y-79391727D01*
X160288193Y-79545521D01*
X160233282Y-79590524D01*
X160162757Y-79598695D01*
X160099010Y-79567441D01*
X160078313Y-79542957D01*
X159997427Y-79417926D01*
X159991136Y-79409757D01*
X159847806Y-79252240D01*
X159840273Y-79245215D01*
X159673139Y-79113222D01*
X159664552Y-79107517D01*
X159478117Y-79004599D01*
X159468705Y-79000369D01*
X159267959Y-78929280D01*
X159257988Y-78926646D01*
X159186837Y-78913972D01*
X159173540Y-78915432D01*
X159169000Y-78929989D01*
X159169000Y-79972885D01*
X158661000Y-79972885D01*
X158661000Y-78928102D01*
X158657082Y-78914758D01*
X158642806Y-78912771D01*
X158604324Y-78918660D01*
X158594288Y-78921051D01*
X158391868Y-78987212D01*
X158382359Y-78991209D01*
X158193463Y-79089542D01*
X158184738Y-79095036D01*
X158014433Y-79222905D01*
X158006726Y-79229748D01*
X157859590Y-79383717D01*
X157853104Y-79391727D01*
X157748193Y-79545521D01*
X157693282Y-79590524D01*
X157622757Y-79598695D01*
X157559010Y-79567441D01*
X157538313Y-79542957D01*
X157457427Y-79417926D01*
X157451136Y-79409757D01*
X157307806Y-79252240D01*
X157300273Y-79245215D01*
X157133139Y-79113222D01*
X157124552Y-79107517D01*
X156938117Y-79004599D01*
X156928705Y-79000369D01*
X156727959Y-78929280D01*
X156717988Y-78926646D01*
X156646837Y-78913972D01*
X156633540Y-78915432D01*
X156629000Y-78929989D01*
X156629000Y-79972885D01*
X156121000Y-79972885D01*
X156121000Y-78928102D01*
X156117082Y-78914758D01*
X156102806Y-78912771D01*
X156064324Y-78918660D01*
X156054288Y-78921051D01*
X155851868Y-78987212D01*
X155842359Y-78991209D01*
X155653463Y-79089542D01*
X155644738Y-79095036D01*
X155474433Y-79222905D01*
X155466726Y-79229748D01*
X155319590Y-79383717D01*
X155313104Y-79391727D01*
X155193098Y-79567649D01*
X155188000Y-79576623D01*
X155098338Y-79769783D01*
X155094775Y-79779470D01*
X155039389Y-79979183D01*
X154500000Y-79979183D01*
X154500000Y-78626000D01*
X154520002Y-78557879D01*
X154573658Y-78511386D01*
X154626000Y-78500000D01*
X169365500Y-78500000D01*
X169433621Y-78520002D01*
G37*
%TD.AperFunction*%
%TA.AperFunction,Conductor*%
G36*
X166452026Y-102975144D02*
G01*
X166479875Y-103006994D01*
X166539987Y-103105088D01*
X166686250Y-103273938D01*
X166858126Y-103416632D01*
X166931445Y-103459476D01*
X166931955Y-103459774D01*
X166980679Y-103511412D01*
X166993750Y-103581195D01*
X166967019Y-103646967D01*
X166926562Y-103680327D01*
X166918457Y-103684546D01*
X166909738Y-103690036D01*
X166739433Y-103817905D01*
X166731726Y-103824748D01*
X166584590Y-103978717D01*
X166578109Y-103986722D01*
X166473498Y-104140074D01*
X166418587Y-104185076D01*
X166348062Y-104193247D01*
X166284315Y-104161993D01*
X166263618Y-104137509D01*
X166182822Y-104012617D01*
X166182820Y-104012614D01*
X166180014Y-104008277D01*
X166029670Y-103843051D01*
X166025619Y-103839852D01*
X166025615Y-103839848D01*
X165858414Y-103707800D01*
X165858410Y-103707798D01*
X165854359Y-103704598D01*
X165813053Y-103681796D01*
X165763084Y-103631364D01*
X165748312Y-103561921D01*
X165773428Y-103495516D01*
X165800780Y-103468909D01*
X165844603Y-103437650D01*
X165979860Y-103341173D01*
X166138096Y-103183489D01*
X166268453Y-103002077D01*
X166269776Y-103003028D01*
X166316645Y-102959857D01*
X166386580Y-102947625D01*
X166452026Y-102975144D01*
G37*
%TD.AperFunction*%
%TD*%
M02*
