%TF.GenerationSoftware,KiCad,Pcbnew,6.0.8+dfsg-1~bpo11+1*%
%TF.CreationDate,2022-10-31T17:28:34+01:00*%
%TF.ProjectId,vertExpI2c_00,76657274-4578-4704-9932-635f30302e6b,rev?*%
%TF.SameCoordinates,Original*%
%TF.FileFunction,Legend,Top*%
%TF.FilePolarity,Positive*%
%FSLAX46Y46*%
G04 Gerber Fmt 4.6, Leading zero omitted, Abs format (unit mm)*
G04 Created by KiCad (PCBNEW 6.0.8+dfsg-1~bpo11+1) date 2022-10-31 17:28:34*
%MOMM*%
%LPD*%
G01*
G04 APERTURE LIST*
%ADD10C,0.150000*%
%ADD11C,0.250000*%
%ADD12C,0.300000*%
%ADD13C,0.110000*%
%ADD14C,0.120000*%
G04 APERTURE END LIST*
D10*
X164833333Y-114652380D02*
X165166666Y-115652380D01*
X165500000Y-114652380D01*
X165833333Y-115128571D02*
X166166666Y-115128571D01*
X166309523Y-115652380D02*
X165833333Y-115652380D01*
X165833333Y-114652380D01*
X166309523Y-114652380D01*
X167309523Y-115652380D02*
X166976190Y-115176190D01*
X166738095Y-115652380D02*
X166738095Y-114652380D01*
X167119047Y-114652380D01*
X167214285Y-114700000D01*
X167261904Y-114747619D01*
X167309523Y-114842857D01*
X167309523Y-114985714D01*
X167261904Y-115080952D01*
X167214285Y-115128571D01*
X167119047Y-115176190D01*
X166738095Y-115176190D01*
X167595238Y-114652380D02*
X168166666Y-114652380D01*
X167880952Y-115652380D02*
X167880952Y-114652380D01*
D11*
X148632857Y-78287142D02*
X149032857Y-78858571D01*
X149318571Y-78287142D02*
X149318571Y-79487142D01*
X148861428Y-79487142D01*
X148747142Y-79430000D01*
X148690000Y-79372857D01*
X148632857Y-79258571D01*
X148632857Y-79087142D01*
X148690000Y-78972857D01*
X148747142Y-78915714D01*
X148861428Y-78858571D01*
X149318571Y-78858571D01*
X148118571Y-78287142D02*
X148118571Y-79487142D01*
X147147142Y-78915714D02*
X146975714Y-78858571D01*
X146918571Y-78801428D01*
X146861428Y-78687142D01*
X146861428Y-78515714D01*
X146918571Y-78401428D01*
X146975714Y-78344285D01*
X147090000Y-78287142D01*
X147547142Y-78287142D01*
X147547142Y-79487142D01*
X147147142Y-79487142D01*
X147032857Y-79430000D01*
X146975714Y-79372857D01*
X146918571Y-79258571D01*
X146918571Y-79144285D01*
X146975714Y-79030000D01*
X147032857Y-78972857D01*
X147147142Y-78915714D01*
X147547142Y-78915714D01*
X144575714Y-79544285D02*
X145604285Y-78001428D01*
X142575714Y-78401428D02*
X142632857Y-78344285D01*
X142804285Y-78287142D01*
X142918571Y-78287142D01*
X143090000Y-78344285D01*
X143204285Y-78458571D01*
X143261428Y-78572857D01*
X143318571Y-78801428D01*
X143318571Y-78972857D01*
X143261428Y-79201428D01*
X143204285Y-79315714D01*
X143090000Y-79430000D01*
X142918571Y-79487142D01*
X142804285Y-79487142D01*
X142632857Y-79430000D01*
X142575714Y-79372857D01*
X141832857Y-79487142D02*
X141604285Y-79487142D01*
X141490000Y-79430000D01*
X141375714Y-79315714D01*
X141318571Y-79087142D01*
X141318571Y-78687142D01*
X141375714Y-78458571D01*
X141490000Y-78344285D01*
X141604285Y-78287142D01*
X141832857Y-78287142D01*
X141947142Y-78344285D01*
X142061428Y-78458571D01*
X142118571Y-78687142D01*
X142118571Y-79087142D01*
X142061428Y-79315714D01*
X141947142Y-79430000D01*
X141832857Y-79487142D01*
X140861428Y-78344285D02*
X140690000Y-78287142D01*
X140404285Y-78287142D01*
X140290000Y-78344285D01*
X140232857Y-78401428D01*
X140175714Y-78515714D01*
X140175714Y-78630000D01*
X140232857Y-78744285D01*
X140290000Y-78801428D01*
X140404285Y-78858571D01*
X140632857Y-78915714D01*
X140747142Y-78972857D01*
X140804285Y-79030000D01*
X140861428Y-79144285D01*
X140861428Y-79258571D01*
X140804285Y-79372857D01*
X140747142Y-79430000D01*
X140632857Y-79487142D01*
X140347142Y-79487142D01*
X140175714Y-79430000D01*
X139832857Y-79487142D02*
X139147142Y-79487142D01*
X139490000Y-78287142D02*
X139490000Y-79487142D01*
X138747142Y-78915714D02*
X138347142Y-78915714D01*
X138175714Y-78287142D02*
X138747142Y-78287142D01*
X138747142Y-79487142D01*
X138175714Y-79487142D01*
X137090000Y-78287142D02*
X137661428Y-78287142D01*
X137661428Y-79487142D01*
X136118571Y-78287142D02*
X136690000Y-78287142D01*
X136690000Y-79487142D01*
X135775714Y-78630000D02*
X135204285Y-78630000D01*
X135890000Y-78287142D02*
X135490000Y-79487142D01*
X135090000Y-78287142D01*
D12*
X158700000Y-117950000D02*
X159414285Y-117950000D01*
X158557142Y-118378571D02*
X159057142Y-116878571D01*
X159557142Y-118378571D01*
X160985714Y-116878571D02*
X161485714Y-118378571D01*
X161985714Y-116878571D01*
X162485714Y-117592857D02*
X162985714Y-117592857D01*
X163200000Y-118378571D02*
X162485714Y-118378571D01*
X162485714Y-116878571D01*
X163200000Y-116878571D01*
X164700000Y-118378571D02*
X164200000Y-117664285D01*
X163842857Y-118378571D02*
X163842857Y-116878571D01*
X164414285Y-116878571D01*
X164557142Y-116950000D01*
X164628571Y-117021428D01*
X164700000Y-117164285D01*
X164700000Y-117378571D01*
X164628571Y-117521428D01*
X164557142Y-117592857D01*
X164414285Y-117664285D01*
X163842857Y-117664285D01*
X165128571Y-116878571D02*
X165985714Y-116878571D01*
X165557142Y-118378571D02*
X165557142Y-116878571D01*
X166485714Y-117592857D02*
X166985714Y-117592857D01*
X167200000Y-118378571D02*
X166485714Y-118378571D01*
X166485714Y-116878571D01*
X167200000Y-116878571D01*
X168342857Y-117592857D02*
X168557142Y-117664285D01*
X168628571Y-117735714D01*
X168700000Y-117878571D01*
X168700000Y-118092857D01*
X168628571Y-118235714D01*
X168557142Y-118307142D01*
X168414285Y-118378571D01*
X167842857Y-118378571D01*
X167842857Y-116878571D01*
X168342857Y-116878571D01*
X168485714Y-116950000D01*
X168557142Y-117021428D01*
X168628571Y-117164285D01*
X168628571Y-117307142D01*
X168557142Y-117450000D01*
X168485714Y-117521428D01*
X168342857Y-117592857D01*
X167842857Y-117592857D01*
D13*
X141800000Y-124950000D02*
X141966666Y-125416666D01*
X142133333Y-124950000D01*
X142766666Y-125416666D02*
X142366666Y-125416666D01*
X142566666Y-125416666D02*
X142566666Y-124716666D01*
X142500000Y-124816666D01*
X142433333Y-124883333D01*
X142366666Y-124916666D01*
X143066666Y-125350000D02*
X143100000Y-125383333D01*
X143066666Y-125416666D01*
X143033333Y-125383333D01*
X143066666Y-125350000D01*
X143066666Y-125416666D01*
X143533333Y-124716666D02*
X143600000Y-124716666D01*
X143666666Y-124750000D01*
X143700000Y-124783333D01*
X143733333Y-124850000D01*
X143766666Y-124983333D01*
X143766666Y-125150000D01*
X143733333Y-125283333D01*
X143700000Y-125350000D01*
X143666666Y-125383333D01*
X143600000Y-125416666D01*
X143533333Y-125416666D01*
X143466666Y-125383333D01*
X143433333Y-125350000D01*
X143400000Y-125283333D01*
X143366666Y-125150000D01*
X143366666Y-124983333D01*
X143400000Y-124850000D01*
X143433333Y-124783333D01*
X143466666Y-124750000D01*
X143533333Y-124716666D01*
D10*
X159671428Y-123252380D02*
X159338095Y-122776190D01*
X159100000Y-123252380D02*
X159100000Y-122252380D01*
X159480952Y-122252380D01*
X159576190Y-122300000D01*
X159623809Y-122347619D01*
X159671428Y-122442857D01*
X159671428Y-122585714D01*
X159623809Y-122680952D01*
X159576190Y-122728571D01*
X159480952Y-122776190D01*
X159100000Y-122776190D01*
X160100000Y-123252380D02*
X160100000Y-122252380D01*
X160909523Y-122728571D02*
X161052380Y-122776190D01*
X161100000Y-122823809D01*
X161147619Y-122919047D01*
X161147619Y-123061904D01*
X161100000Y-123157142D01*
X161052380Y-123204761D01*
X160957142Y-123252380D01*
X160576190Y-123252380D01*
X160576190Y-122252380D01*
X160909523Y-122252380D01*
X161004761Y-122300000D01*
X161052380Y-122347619D01*
X161100000Y-122442857D01*
X161100000Y-122538095D01*
X161052380Y-122633333D01*
X161004761Y-122680952D01*
X160909523Y-122728571D01*
X160576190Y-122728571D01*
D11*
X136887142Y-118792857D02*
X136487142Y-118221428D01*
X136201428Y-118792857D02*
X136201428Y-117592857D01*
X136658571Y-117592857D01*
X136772857Y-117650000D01*
X136830000Y-117707142D01*
X136887142Y-117821428D01*
X136887142Y-117992857D01*
X136830000Y-118107142D01*
X136772857Y-118164285D01*
X136658571Y-118221428D01*
X136201428Y-118221428D01*
X137401428Y-118792857D02*
X137401428Y-117592857D01*
X138372857Y-118164285D02*
X138544285Y-118221428D01*
X138601428Y-118278571D01*
X138658571Y-118392857D01*
X138658571Y-118564285D01*
X138601428Y-118678571D01*
X138544285Y-118735714D01*
X138430000Y-118792857D01*
X137972857Y-118792857D01*
X137972857Y-117592857D01*
X138372857Y-117592857D01*
X138487142Y-117650000D01*
X138544285Y-117707142D01*
X138601428Y-117821428D01*
X138601428Y-117935714D01*
X138544285Y-118050000D01*
X138487142Y-118107142D01*
X138372857Y-118164285D01*
X137972857Y-118164285D01*
X140944285Y-117535714D02*
X139915714Y-119078571D01*
X142944285Y-118678571D02*
X142887142Y-118735714D01*
X142715714Y-118792857D01*
X142601428Y-118792857D01*
X142430000Y-118735714D01*
X142315714Y-118621428D01*
X142258571Y-118507142D01*
X142201428Y-118278571D01*
X142201428Y-118107142D01*
X142258571Y-117878571D01*
X142315714Y-117764285D01*
X142430000Y-117650000D01*
X142601428Y-117592857D01*
X142715714Y-117592857D01*
X142887142Y-117650000D01*
X142944285Y-117707142D01*
X143687142Y-117592857D02*
X143915714Y-117592857D01*
X144030000Y-117650000D01*
X144144285Y-117764285D01*
X144201428Y-117992857D01*
X144201428Y-118392857D01*
X144144285Y-118621428D01*
X144030000Y-118735714D01*
X143915714Y-118792857D01*
X143687142Y-118792857D01*
X143572857Y-118735714D01*
X143458571Y-118621428D01*
X143401428Y-118392857D01*
X143401428Y-117992857D01*
X143458571Y-117764285D01*
X143572857Y-117650000D01*
X143687142Y-117592857D01*
X144658571Y-118735714D02*
X144830000Y-118792857D01*
X145115714Y-118792857D01*
X145230000Y-118735714D01*
X145287142Y-118678571D01*
X145344285Y-118564285D01*
X145344285Y-118450000D01*
X145287142Y-118335714D01*
X145230000Y-118278571D01*
X145115714Y-118221428D01*
X144887142Y-118164285D01*
X144772857Y-118107142D01*
X144715714Y-118050000D01*
X144658571Y-117935714D01*
X144658571Y-117821428D01*
X144715714Y-117707142D01*
X144772857Y-117650000D01*
X144887142Y-117592857D01*
X145172857Y-117592857D01*
X145344285Y-117650000D01*
X145687142Y-117592857D02*
X146372857Y-117592857D01*
X146030000Y-118792857D02*
X146030000Y-117592857D01*
X146772857Y-118164285D02*
X147172857Y-118164285D01*
X147344285Y-118792857D02*
X146772857Y-118792857D01*
X146772857Y-117592857D01*
X147344285Y-117592857D01*
X148430000Y-118792857D02*
X147858571Y-118792857D01*
X147858571Y-117592857D01*
X149401428Y-118792857D02*
X148830000Y-118792857D01*
X148830000Y-117592857D01*
X149744285Y-118450000D02*
X150315714Y-118450000D01*
X149630000Y-118792857D02*
X150030000Y-117592857D01*
X150430000Y-118792857D01*
D10*
X162482380Y-102057619D02*
X163482380Y-101724285D01*
X162482380Y-101390952D01*
X162958571Y-101057619D02*
X162958571Y-100724285D01*
X163482380Y-100581428D02*
X163482380Y-101057619D01*
X162482380Y-101057619D01*
X162482380Y-100581428D01*
X163482380Y-99581428D02*
X163006190Y-99914761D01*
X163482380Y-100152857D02*
X162482380Y-100152857D01*
X162482380Y-99771904D01*
X162530000Y-99676666D01*
X162577619Y-99629047D01*
X162672857Y-99581428D01*
X162815714Y-99581428D01*
X162910952Y-99629047D01*
X162958571Y-99676666D01*
X163006190Y-99771904D01*
X163006190Y-100152857D01*
X162482380Y-99295714D02*
X162482380Y-98724285D01*
X163482380Y-99010000D02*
X162482380Y-99010000D01*
X162958571Y-98390952D02*
X162958571Y-98057619D01*
X163482380Y-97914761D02*
X163482380Y-98390952D01*
X162482380Y-98390952D01*
X162482380Y-97914761D01*
X162958571Y-97152857D02*
X163006190Y-97010000D01*
X163053809Y-96962380D01*
X163149047Y-96914761D01*
X163291904Y-96914761D01*
X163387142Y-96962380D01*
X163434761Y-97010000D01*
X163482380Y-97105238D01*
X163482380Y-97486190D01*
X162482380Y-97486190D01*
X162482380Y-97152857D01*
X162530000Y-97057619D01*
X162577619Y-97010000D01*
X162672857Y-96962380D01*
X162768095Y-96962380D01*
X162863333Y-97010000D01*
X162910952Y-97057619D01*
X162958571Y-97152857D01*
X162958571Y-97486190D01*
X163482380Y-95914761D02*
X163006190Y-96248095D01*
X163482380Y-96486190D02*
X162482380Y-96486190D01*
X162482380Y-96105238D01*
X162530000Y-96010000D01*
X162577619Y-95962380D01*
X162672857Y-95914761D01*
X162815714Y-95914761D01*
X162910952Y-95962380D01*
X162958571Y-96010000D01*
X163006190Y-96105238D01*
X163006190Y-96486190D01*
X163196666Y-95533809D02*
X163196666Y-95057619D01*
X163482380Y-95629047D02*
X162482380Y-95295714D01*
X163482380Y-94962380D01*
X157661904Y-78166666D02*
X158138095Y-78166666D01*
X157566666Y-78452380D02*
X157900000Y-77452380D01*
X158233333Y-78452380D01*
X158566666Y-78452380D02*
X158566666Y-77452380D01*
X158804761Y-77452380D01*
X158947619Y-77500000D01*
X159042857Y-77595238D01*
X159090476Y-77690476D01*
X159138095Y-77880952D01*
X159138095Y-78023809D01*
X159090476Y-78214285D01*
X159042857Y-78309523D01*
X158947619Y-78404761D01*
X158804761Y-78452380D01*
X158566666Y-78452380D01*
X160138095Y-78452380D02*
X159804761Y-77976190D01*
X159566666Y-78452380D02*
X159566666Y-77452380D01*
X159947619Y-77452380D01*
X160042857Y-77500000D01*
X160090476Y-77547619D01*
X160138095Y-77642857D01*
X160138095Y-77785714D01*
X160090476Y-77880952D01*
X160042857Y-77928571D01*
X159947619Y-77976190D01*
X159566666Y-77976190D01*
X122442380Y-102037619D02*
X123442380Y-101704285D01*
X122442380Y-101370952D01*
X122918571Y-101037619D02*
X122918571Y-100704285D01*
X123442380Y-100561428D02*
X123442380Y-101037619D01*
X122442380Y-101037619D01*
X122442380Y-100561428D01*
X123442380Y-99561428D02*
X122966190Y-99894761D01*
X123442380Y-100132857D02*
X122442380Y-100132857D01*
X122442380Y-99751904D01*
X122490000Y-99656666D01*
X122537619Y-99609047D01*
X122632857Y-99561428D01*
X122775714Y-99561428D01*
X122870952Y-99609047D01*
X122918571Y-99656666D01*
X122966190Y-99751904D01*
X122966190Y-100132857D01*
X122442380Y-99275714D02*
X122442380Y-98704285D01*
X123442380Y-98990000D02*
X122442380Y-98990000D01*
X122918571Y-98370952D02*
X122918571Y-98037619D01*
X123442380Y-97894761D02*
X123442380Y-98370952D01*
X122442380Y-98370952D01*
X122442380Y-97894761D01*
X122918571Y-97132857D02*
X122966190Y-96990000D01*
X123013809Y-96942380D01*
X123109047Y-96894761D01*
X123251904Y-96894761D01*
X123347142Y-96942380D01*
X123394761Y-96990000D01*
X123442380Y-97085238D01*
X123442380Y-97466190D01*
X122442380Y-97466190D01*
X122442380Y-97132857D01*
X122490000Y-97037619D01*
X122537619Y-96990000D01*
X122632857Y-96942380D01*
X122728095Y-96942380D01*
X122823333Y-96990000D01*
X122870952Y-97037619D01*
X122918571Y-97132857D01*
X122918571Y-97466190D01*
X123442380Y-95894761D02*
X122966190Y-96228095D01*
X123442380Y-96466190D02*
X122442380Y-96466190D01*
X122442380Y-96085238D01*
X122490000Y-95990000D01*
X122537619Y-95942380D01*
X122632857Y-95894761D01*
X122775714Y-95894761D01*
X122870952Y-95942380D01*
X122918571Y-95990000D01*
X122966190Y-96085238D01*
X122966190Y-96466190D01*
X123156666Y-95513809D02*
X123156666Y-95037619D01*
X123442380Y-95609047D02*
X122442380Y-95275714D01*
X123442380Y-94942380D01*
%TO.C,C19*%
X143357142Y-87042857D02*
X143404761Y-87090476D01*
X143452380Y-87233333D01*
X143452380Y-87328571D01*
X143404761Y-87471428D01*
X143309523Y-87566666D01*
X143214285Y-87614285D01*
X143023809Y-87661904D01*
X142880952Y-87661904D01*
X142690476Y-87614285D01*
X142595238Y-87566666D01*
X142500000Y-87471428D01*
X142452380Y-87328571D01*
X142452380Y-87233333D01*
X142500000Y-87090476D01*
X142547619Y-87042857D01*
X143452380Y-86090476D02*
X143452380Y-86661904D01*
X143452380Y-86376190D02*
X142452380Y-86376190D01*
X142595238Y-86471428D01*
X142690476Y-86566666D01*
X142738095Y-86661904D01*
X143452380Y-85614285D02*
X143452380Y-85423809D01*
X143404761Y-85328571D01*
X143357142Y-85280952D01*
X143214285Y-85185714D01*
X143023809Y-85138095D01*
X142642857Y-85138095D01*
X142547619Y-85185714D01*
X142500000Y-85233333D01*
X142452380Y-85328571D01*
X142452380Y-85519047D01*
X142500000Y-85614285D01*
X142547619Y-85661904D01*
X142642857Y-85709523D01*
X142880952Y-85709523D01*
X142976190Y-85661904D01*
X143023809Y-85614285D01*
X143071428Y-85519047D01*
X143071428Y-85328571D01*
X143023809Y-85233333D01*
X142976190Y-85185714D01*
X142880952Y-85138095D01*
%TO.C,R6*%
X155503333Y-119972380D02*
X155170000Y-119496190D01*
X154931904Y-119972380D02*
X154931904Y-118972380D01*
X155312857Y-118972380D01*
X155408095Y-119020000D01*
X155455714Y-119067619D01*
X155503333Y-119162857D01*
X155503333Y-119305714D01*
X155455714Y-119400952D01*
X155408095Y-119448571D01*
X155312857Y-119496190D01*
X154931904Y-119496190D01*
X156360476Y-118972380D02*
X156170000Y-118972380D01*
X156074761Y-119020000D01*
X156027142Y-119067619D01*
X155931904Y-119210476D01*
X155884285Y-119400952D01*
X155884285Y-119781904D01*
X155931904Y-119877142D01*
X155979523Y-119924761D01*
X156074761Y-119972380D01*
X156265238Y-119972380D01*
X156360476Y-119924761D01*
X156408095Y-119877142D01*
X156455714Y-119781904D01*
X156455714Y-119543809D01*
X156408095Y-119448571D01*
X156360476Y-119400952D01*
X156265238Y-119353333D01*
X156074761Y-119353333D01*
X155979523Y-119400952D01*
X155931904Y-119448571D01*
X155884285Y-119543809D01*
%TO.C,C13*%
X131257142Y-87557142D02*
X131209523Y-87604761D01*
X131066666Y-87652380D01*
X130971428Y-87652380D01*
X130828571Y-87604761D01*
X130733333Y-87509523D01*
X130685714Y-87414285D01*
X130638095Y-87223809D01*
X130638095Y-87080952D01*
X130685714Y-86890476D01*
X130733333Y-86795238D01*
X130828571Y-86700000D01*
X130971428Y-86652380D01*
X131066666Y-86652380D01*
X131209523Y-86700000D01*
X131257142Y-86747619D01*
X132209523Y-87652380D02*
X131638095Y-87652380D01*
X131923809Y-87652380D02*
X131923809Y-86652380D01*
X131828571Y-86795238D01*
X131733333Y-86890476D01*
X131638095Y-86938095D01*
X132542857Y-86652380D02*
X133161904Y-86652380D01*
X132828571Y-87033333D01*
X132971428Y-87033333D01*
X133066666Y-87080952D01*
X133114285Y-87128571D01*
X133161904Y-87223809D01*
X133161904Y-87461904D01*
X133114285Y-87557142D01*
X133066666Y-87604761D01*
X132971428Y-87652380D01*
X132685714Y-87652380D01*
X132590476Y-87604761D01*
X132542857Y-87557142D01*
%TO.C,C4*%
X117117142Y-113956666D02*
X117164761Y-114004285D01*
X117212380Y-114147142D01*
X117212380Y-114242380D01*
X117164761Y-114385238D01*
X117069523Y-114480476D01*
X116974285Y-114528095D01*
X116783809Y-114575714D01*
X116640952Y-114575714D01*
X116450476Y-114528095D01*
X116355238Y-114480476D01*
X116260000Y-114385238D01*
X116212380Y-114242380D01*
X116212380Y-114147142D01*
X116260000Y-114004285D01*
X116307619Y-113956666D01*
X116545714Y-113099523D02*
X117212380Y-113099523D01*
X116164761Y-113337619D02*
X116879047Y-113575714D01*
X116879047Y-112956666D01*
%TO.C,J2*%
X131366666Y-124052380D02*
X131366666Y-124766666D01*
X131319047Y-124909523D01*
X131223809Y-125004761D01*
X131080952Y-125052380D01*
X130985714Y-125052380D01*
X131795238Y-124147619D02*
X131842857Y-124100000D01*
X131938095Y-124052380D01*
X132176190Y-124052380D01*
X132271428Y-124100000D01*
X132319047Y-124147619D01*
X132366666Y-124242857D01*
X132366666Y-124338095D01*
X132319047Y-124480952D01*
X131747619Y-125052380D01*
X132366666Y-125052380D01*
%TO.C,C16*%
X129694642Y-79337142D02*
X129647023Y-79384761D01*
X129504166Y-79432380D01*
X129408928Y-79432380D01*
X129266071Y-79384761D01*
X129170833Y-79289523D01*
X129123214Y-79194285D01*
X129075595Y-79003809D01*
X129075595Y-78860952D01*
X129123214Y-78670476D01*
X129170833Y-78575238D01*
X129266071Y-78480000D01*
X129408928Y-78432380D01*
X129504166Y-78432380D01*
X129647023Y-78480000D01*
X129694642Y-78527619D01*
X130647023Y-79432380D02*
X130075595Y-79432380D01*
X130361309Y-79432380D02*
X130361309Y-78432380D01*
X130266071Y-78575238D01*
X130170833Y-78670476D01*
X130075595Y-78718095D01*
X131504166Y-78432380D02*
X131313690Y-78432380D01*
X131218452Y-78480000D01*
X131170833Y-78527619D01*
X131075595Y-78670476D01*
X131027976Y-78860952D01*
X131027976Y-79241904D01*
X131075595Y-79337142D01*
X131123214Y-79384761D01*
X131218452Y-79432380D01*
X131408928Y-79432380D01*
X131504166Y-79384761D01*
X131551785Y-79337142D01*
X131599404Y-79241904D01*
X131599404Y-79003809D01*
X131551785Y-78908571D01*
X131504166Y-78860952D01*
X131408928Y-78813333D01*
X131218452Y-78813333D01*
X131123214Y-78860952D01*
X131075595Y-78908571D01*
X131027976Y-79003809D01*
%TO.C,J5*%
X163222380Y-79573333D02*
X163936666Y-79573333D01*
X164079523Y-79620952D01*
X164174761Y-79716190D01*
X164222380Y-79859047D01*
X164222380Y-79954285D01*
X163222380Y-78620952D02*
X163222380Y-79097142D01*
X163698571Y-79144761D01*
X163650952Y-79097142D01*
X163603333Y-79001904D01*
X163603333Y-78763809D01*
X163650952Y-78668571D01*
X163698571Y-78620952D01*
X163793809Y-78573333D01*
X164031904Y-78573333D01*
X164127142Y-78620952D01*
X164174761Y-78668571D01*
X164222380Y-78763809D01*
X164222380Y-79001904D01*
X164174761Y-79097142D01*
X164127142Y-79144761D01*
%TO.C,J3*%
X168876666Y-108902380D02*
X168876666Y-109616666D01*
X168829047Y-109759523D01*
X168733809Y-109854761D01*
X168590952Y-109902380D01*
X168495714Y-109902380D01*
X169257619Y-108902380D02*
X169876666Y-108902380D01*
X169543333Y-109283333D01*
X169686190Y-109283333D01*
X169781428Y-109330952D01*
X169829047Y-109378571D01*
X169876666Y-109473809D01*
X169876666Y-109711904D01*
X169829047Y-109807142D01*
X169781428Y-109854761D01*
X169686190Y-109902380D01*
X169400476Y-109902380D01*
X169305238Y-109854761D01*
X169257619Y-109807142D01*
%TO.C,R1*%
X158533333Y-90952380D02*
X158200000Y-90476190D01*
X157961904Y-90952380D02*
X157961904Y-89952380D01*
X158342857Y-89952380D01*
X158438095Y-90000000D01*
X158485714Y-90047619D01*
X158533333Y-90142857D01*
X158533333Y-90285714D01*
X158485714Y-90380952D01*
X158438095Y-90428571D01*
X158342857Y-90476190D01*
X157961904Y-90476190D01*
X159485714Y-90952380D02*
X158914285Y-90952380D01*
X159200000Y-90952380D02*
X159200000Y-89952380D01*
X159104761Y-90095238D01*
X159009523Y-90190476D01*
X158914285Y-90238095D01*
%TO.C,R5*%
X153783333Y-87922380D02*
X153450000Y-87446190D01*
X153211904Y-87922380D02*
X153211904Y-86922380D01*
X153592857Y-86922380D01*
X153688095Y-86970000D01*
X153735714Y-87017619D01*
X153783333Y-87112857D01*
X153783333Y-87255714D01*
X153735714Y-87350952D01*
X153688095Y-87398571D01*
X153592857Y-87446190D01*
X153211904Y-87446190D01*
X154688095Y-86922380D02*
X154211904Y-86922380D01*
X154164285Y-87398571D01*
X154211904Y-87350952D01*
X154307142Y-87303333D01*
X154545238Y-87303333D01*
X154640476Y-87350952D01*
X154688095Y-87398571D01*
X154735714Y-87493809D01*
X154735714Y-87731904D01*
X154688095Y-87827142D01*
X154640476Y-87874761D01*
X154545238Y-87922380D01*
X154307142Y-87922380D01*
X154211904Y-87874761D01*
X154164285Y-87827142D01*
%TO.C,C6*%
X155563333Y-117177142D02*
X155515714Y-117224761D01*
X155372857Y-117272380D01*
X155277619Y-117272380D01*
X155134761Y-117224761D01*
X155039523Y-117129523D01*
X154991904Y-117034285D01*
X154944285Y-116843809D01*
X154944285Y-116700952D01*
X154991904Y-116510476D01*
X155039523Y-116415238D01*
X155134761Y-116320000D01*
X155277619Y-116272380D01*
X155372857Y-116272380D01*
X155515714Y-116320000D01*
X155563333Y-116367619D01*
X156420476Y-116272380D02*
X156230000Y-116272380D01*
X156134761Y-116320000D01*
X156087142Y-116367619D01*
X155991904Y-116510476D01*
X155944285Y-116700952D01*
X155944285Y-117081904D01*
X155991904Y-117177142D01*
X156039523Y-117224761D01*
X156134761Y-117272380D01*
X156325238Y-117272380D01*
X156420476Y-117224761D01*
X156468095Y-117177142D01*
X156515714Y-117081904D01*
X156515714Y-116843809D01*
X156468095Y-116748571D01*
X156420476Y-116700952D01*
X156325238Y-116653333D01*
X156134761Y-116653333D01*
X156039523Y-116700952D01*
X155991904Y-116748571D01*
X155944285Y-116843809D01*
%TO.C,C1*%
X160757142Y-112129166D02*
X160804761Y-112176785D01*
X160852380Y-112319642D01*
X160852380Y-112414880D01*
X160804761Y-112557738D01*
X160709523Y-112652976D01*
X160614285Y-112700595D01*
X160423809Y-112748214D01*
X160280952Y-112748214D01*
X160090476Y-112700595D01*
X159995238Y-112652976D01*
X159900000Y-112557738D01*
X159852380Y-112414880D01*
X159852380Y-112319642D01*
X159900000Y-112176785D01*
X159947619Y-112129166D01*
X160852380Y-111176785D02*
X160852380Y-111748214D01*
X160852380Y-111462500D02*
X159852380Y-111462500D01*
X159995238Y-111557738D01*
X160090476Y-111652976D01*
X160138095Y-111748214D01*
%TO.C,U3*%
X150652380Y-83861904D02*
X151461904Y-83861904D01*
X151557142Y-83814285D01*
X151604761Y-83766666D01*
X151652380Y-83671428D01*
X151652380Y-83480952D01*
X151604761Y-83385714D01*
X151557142Y-83338095D01*
X151461904Y-83290476D01*
X150652380Y-83290476D01*
X150652380Y-82909523D02*
X150652380Y-82290476D01*
X151033333Y-82623809D01*
X151033333Y-82480952D01*
X151080952Y-82385714D01*
X151128571Y-82338095D01*
X151223809Y-82290476D01*
X151461904Y-82290476D01*
X151557142Y-82338095D01*
X151604761Y-82385714D01*
X151652380Y-82480952D01*
X151652380Y-82766666D01*
X151604761Y-82861904D01*
X151557142Y-82909523D01*
%TO.C,R20*%
X152657142Y-106452380D02*
X152323809Y-105976190D01*
X152085714Y-106452380D02*
X152085714Y-105452380D01*
X152466666Y-105452380D01*
X152561904Y-105500000D01*
X152609523Y-105547619D01*
X152657142Y-105642857D01*
X152657142Y-105785714D01*
X152609523Y-105880952D01*
X152561904Y-105928571D01*
X152466666Y-105976190D01*
X152085714Y-105976190D01*
X153038095Y-105547619D02*
X153085714Y-105500000D01*
X153180952Y-105452380D01*
X153419047Y-105452380D01*
X153514285Y-105500000D01*
X153561904Y-105547619D01*
X153609523Y-105642857D01*
X153609523Y-105738095D01*
X153561904Y-105880952D01*
X152990476Y-106452380D01*
X153609523Y-106452380D01*
X154228571Y-105452380D02*
X154323809Y-105452380D01*
X154419047Y-105500000D01*
X154466666Y-105547619D01*
X154514285Y-105642857D01*
X154561904Y-105833333D01*
X154561904Y-106071428D01*
X154514285Y-106261904D01*
X154466666Y-106357142D01*
X154419047Y-106404761D01*
X154323809Y-106452380D01*
X154228571Y-106452380D01*
X154133333Y-106404761D01*
X154085714Y-106357142D01*
X154038095Y-106261904D01*
X153990476Y-106071428D01*
X153990476Y-105833333D01*
X154038095Y-105642857D01*
X154085714Y-105547619D01*
X154133333Y-105500000D01*
X154228571Y-105452380D01*
%TO.C,C3*%
X143457142Y-111066666D02*
X143504761Y-111114285D01*
X143552380Y-111257142D01*
X143552380Y-111352380D01*
X143504761Y-111495238D01*
X143409523Y-111590476D01*
X143314285Y-111638095D01*
X143123809Y-111685714D01*
X142980952Y-111685714D01*
X142790476Y-111638095D01*
X142695238Y-111590476D01*
X142600000Y-111495238D01*
X142552380Y-111352380D01*
X142552380Y-111257142D01*
X142600000Y-111114285D01*
X142647619Y-111066666D01*
X142552380Y-110733333D02*
X142552380Y-110114285D01*
X142933333Y-110447619D01*
X142933333Y-110304761D01*
X142980952Y-110209523D01*
X143028571Y-110161904D01*
X143123809Y-110114285D01*
X143361904Y-110114285D01*
X143457142Y-110161904D01*
X143504761Y-110209523D01*
X143552380Y-110304761D01*
X143552380Y-110590476D01*
X143504761Y-110685714D01*
X143457142Y-110733333D01*
%TO.C,R11*%
X153357142Y-90952380D02*
X153023809Y-90476190D01*
X152785714Y-90952380D02*
X152785714Y-89952380D01*
X153166666Y-89952380D01*
X153261904Y-90000000D01*
X153309523Y-90047619D01*
X153357142Y-90142857D01*
X153357142Y-90285714D01*
X153309523Y-90380952D01*
X153261904Y-90428571D01*
X153166666Y-90476190D01*
X152785714Y-90476190D01*
X154309523Y-90952380D02*
X153738095Y-90952380D01*
X154023809Y-90952380D02*
X154023809Y-89952380D01*
X153928571Y-90095238D01*
X153833333Y-90190476D01*
X153738095Y-90238095D01*
X155261904Y-90952380D02*
X154690476Y-90952380D01*
X154976190Y-90952380D02*
X154976190Y-89952380D01*
X154880952Y-90095238D01*
X154785714Y-90190476D01*
X154690476Y-90238095D01*
%TO.C,J1*%
X153972380Y-73043333D02*
X154686666Y-73043333D01*
X154829523Y-73090952D01*
X154924761Y-73186190D01*
X154972380Y-73329047D01*
X154972380Y-73424285D01*
X154972380Y-72043333D02*
X154972380Y-72614761D01*
X154972380Y-72329047D02*
X153972380Y-72329047D01*
X154115238Y-72424285D01*
X154210476Y-72519523D01*
X154258095Y-72614761D01*
%TO.C,R19*%
X139357142Y-106452380D02*
X139023809Y-105976190D01*
X138785714Y-106452380D02*
X138785714Y-105452380D01*
X139166666Y-105452380D01*
X139261904Y-105500000D01*
X139309523Y-105547619D01*
X139357142Y-105642857D01*
X139357142Y-105785714D01*
X139309523Y-105880952D01*
X139261904Y-105928571D01*
X139166666Y-105976190D01*
X138785714Y-105976190D01*
X140309523Y-106452380D02*
X139738095Y-106452380D01*
X140023809Y-106452380D02*
X140023809Y-105452380D01*
X139928571Y-105595238D01*
X139833333Y-105690476D01*
X139738095Y-105738095D01*
X140785714Y-106452380D02*
X140976190Y-106452380D01*
X141071428Y-106404761D01*
X141119047Y-106357142D01*
X141214285Y-106214285D01*
X141261904Y-106023809D01*
X141261904Y-105642857D01*
X141214285Y-105547619D01*
X141166666Y-105500000D01*
X141071428Y-105452380D01*
X140880952Y-105452380D01*
X140785714Y-105500000D01*
X140738095Y-105547619D01*
X140690476Y-105642857D01*
X140690476Y-105880952D01*
X140738095Y-105976190D01*
X140785714Y-106023809D01*
X140880952Y-106071428D01*
X141071428Y-106071428D01*
X141166666Y-106023809D01*
X141214285Y-105976190D01*
X141261904Y-105880952D01*
%TO.C,U1*%
X137732380Y-97081904D02*
X138541904Y-97081904D01*
X138637142Y-97034285D01*
X138684761Y-96986666D01*
X138732380Y-96891428D01*
X138732380Y-96700952D01*
X138684761Y-96605714D01*
X138637142Y-96558095D01*
X138541904Y-96510476D01*
X137732380Y-96510476D01*
X138732380Y-95510476D02*
X138732380Y-96081904D01*
X138732380Y-95796190D02*
X137732380Y-95796190D01*
X137875238Y-95891428D01*
X137970476Y-95986666D01*
X138018095Y-96081904D01*
%TO.C,C12*%
X118194642Y-84277142D02*
X118147023Y-84324761D01*
X118004166Y-84372380D01*
X117908928Y-84372380D01*
X117766071Y-84324761D01*
X117670833Y-84229523D01*
X117623214Y-84134285D01*
X117575595Y-83943809D01*
X117575595Y-83800952D01*
X117623214Y-83610476D01*
X117670833Y-83515238D01*
X117766071Y-83420000D01*
X117908928Y-83372380D01*
X118004166Y-83372380D01*
X118147023Y-83420000D01*
X118194642Y-83467619D01*
X119147023Y-84372380D02*
X118575595Y-84372380D01*
X118861309Y-84372380D02*
X118861309Y-83372380D01*
X118766071Y-83515238D01*
X118670833Y-83610476D01*
X118575595Y-83658095D01*
X119527976Y-83467619D02*
X119575595Y-83420000D01*
X119670833Y-83372380D01*
X119908928Y-83372380D01*
X120004166Y-83420000D01*
X120051785Y-83467619D01*
X120099404Y-83562857D01*
X120099404Y-83658095D01*
X120051785Y-83800952D01*
X119480357Y-84372380D01*
X120099404Y-84372380D01*
%TO.C,U7*%
X140952380Y-114661904D02*
X141761904Y-114661904D01*
X141857142Y-114614285D01*
X141904761Y-114566666D01*
X141952380Y-114471428D01*
X141952380Y-114280952D01*
X141904761Y-114185714D01*
X141857142Y-114138095D01*
X141761904Y-114090476D01*
X140952380Y-114090476D01*
X140952380Y-113709523D02*
X140952380Y-113042857D01*
X141952380Y-113471428D01*
%TO.C,D2*%
X162781904Y-121322380D02*
X162781904Y-120322380D01*
X163020000Y-120322380D01*
X163162857Y-120370000D01*
X163258095Y-120465238D01*
X163305714Y-120560476D01*
X163353333Y-120750952D01*
X163353333Y-120893809D01*
X163305714Y-121084285D01*
X163258095Y-121179523D01*
X163162857Y-121274761D01*
X163020000Y-121322380D01*
X162781904Y-121322380D01*
X163734285Y-120417619D02*
X163781904Y-120370000D01*
X163877142Y-120322380D01*
X164115238Y-120322380D01*
X164210476Y-120370000D01*
X164258095Y-120417619D01*
X164305714Y-120512857D01*
X164305714Y-120608095D01*
X164258095Y-120750952D01*
X163686666Y-121322380D01*
X164305714Y-121322380D01*
%TO.C,C14*%
X127257142Y-107357142D02*
X127209523Y-107404761D01*
X127066666Y-107452380D01*
X126971428Y-107452380D01*
X126828571Y-107404761D01*
X126733333Y-107309523D01*
X126685714Y-107214285D01*
X126638095Y-107023809D01*
X126638095Y-106880952D01*
X126685714Y-106690476D01*
X126733333Y-106595238D01*
X126828571Y-106500000D01*
X126971428Y-106452380D01*
X127066666Y-106452380D01*
X127209523Y-106500000D01*
X127257142Y-106547619D01*
X128209523Y-107452380D02*
X127638095Y-107452380D01*
X127923809Y-107452380D02*
X127923809Y-106452380D01*
X127828571Y-106595238D01*
X127733333Y-106690476D01*
X127638095Y-106738095D01*
X129066666Y-106785714D02*
X129066666Y-107452380D01*
X128828571Y-106404761D02*
X128590476Y-107119047D01*
X129209523Y-107119047D01*
%TO.C,U11*%
X129661904Y-117352380D02*
X129661904Y-118161904D01*
X129709523Y-118257142D01*
X129757142Y-118304761D01*
X129852380Y-118352380D01*
X130042857Y-118352380D01*
X130138095Y-118304761D01*
X130185714Y-118257142D01*
X130233333Y-118161904D01*
X130233333Y-117352380D01*
X131233333Y-118352380D02*
X130661904Y-118352380D01*
X130947619Y-118352380D02*
X130947619Y-117352380D01*
X130852380Y-117495238D01*
X130757142Y-117590476D01*
X130661904Y-117638095D01*
X132185714Y-118352380D02*
X131614285Y-118352380D01*
X131900000Y-118352380D02*
X131900000Y-117352380D01*
X131804761Y-117495238D01*
X131709523Y-117590476D01*
X131614285Y-117638095D01*
%TO.C,C17*%
X129457142Y-75657142D02*
X129409523Y-75704761D01*
X129266666Y-75752380D01*
X129171428Y-75752380D01*
X129028571Y-75704761D01*
X128933333Y-75609523D01*
X128885714Y-75514285D01*
X128838095Y-75323809D01*
X128838095Y-75180952D01*
X128885714Y-74990476D01*
X128933333Y-74895238D01*
X129028571Y-74800000D01*
X129171428Y-74752380D01*
X129266666Y-74752380D01*
X129409523Y-74800000D01*
X129457142Y-74847619D01*
X130409523Y-75752380D02*
X129838095Y-75752380D01*
X130123809Y-75752380D02*
X130123809Y-74752380D01*
X130028571Y-74895238D01*
X129933333Y-74990476D01*
X129838095Y-75038095D01*
X130742857Y-74752380D02*
X131409523Y-74752380D01*
X130980952Y-75752380D01*
%TO.C,C2*%
X167100833Y-84727142D02*
X167053214Y-84774761D01*
X166910357Y-84822380D01*
X166815119Y-84822380D01*
X166672261Y-84774761D01*
X166577023Y-84679523D01*
X166529404Y-84584285D01*
X166481785Y-84393809D01*
X166481785Y-84250952D01*
X166529404Y-84060476D01*
X166577023Y-83965238D01*
X166672261Y-83870000D01*
X166815119Y-83822380D01*
X166910357Y-83822380D01*
X167053214Y-83870000D01*
X167100833Y-83917619D01*
X167481785Y-83917619D02*
X167529404Y-83870000D01*
X167624642Y-83822380D01*
X167862738Y-83822380D01*
X167957976Y-83870000D01*
X168005595Y-83917619D01*
X168053214Y-84012857D01*
X168053214Y-84108095D01*
X168005595Y-84250952D01*
X167434166Y-84822380D01*
X168053214Y-84822380D01*
%TO.C,C5*%
X158533333Y-106257142D02*
X158485714Y-106304761D01*
X158342857Y-106352380D01*
X158247619Y-106352380D01*
X158104761Y-106304761D01*
X158009523Y-106209523D01*
X157961904Y-106114285D01*
X157914285Y-105923809D01*
X157914285Y-105780952D01*
X157961904Y-105590476D01*
X158009523Y-105495238D01*
X158104761Y-105400000D01*
X158247619Y-105352380D01*
X158342857Y-105352380D01*
X158485714Y-105400000D01*
X158533333Y-105447619D01*
X159438095Y-105352380D02*
X158961904Y-105352380D01*
X158914285Y-105828571D01*
X158961904Y-105780952D01*
X159057142Y-105733333D01*
X159295238Y-105733333D01*
X159390476Y-105780952D01*
X159438095Y-105828571D01*
X159485714Y-105923809D01*
X159485714Y-106161904D01*
X159438095Y-106257142D01*
X159390476Y-106304761D01*
X159295238Y-106352380D01*
X159057142Y-106352380D01*
X158961904Y-106304761D01*
X158914285Y-106257142D01*
%TO.C,R13*%
X144157142Y-90952380D02*
X143823809Y-90476190D01*
X143585714Y-90952380D02*
X143585714Y-89952380D01*
X143966666Y-89952380D01*
X144061904Y-90000000D01*
X144109523Y-90047619D01*
X144157142Y-90142857D01*
X144157142Y-90285714D01*
X144109523Y-90380952D01*
X144061904Y-90428571D01*
X143966666Y-90476190D01*
X143585714Y-90476190D01*
X145109523Y-90952380D02*
X144538095Y-90952380D01*
X144823809Y-90952380D02*
X144823809Y-89952380D01*
X144728571Y-90095238D01*
X144633333Y-90190476D01*
X144538095Y-90238095D01*
X145442857Y-89952380D02*
X146061904Y-89952380D01*
X145728571Y-90333333D01*
X145871428Y-90333333D01*
X145966666Y-90380952D01*
X146014285Y-90428571D01*
X146061904Y-90523809D01*
X146061904Y-90761904D01*
X146014285Y-90857142D01*
X145966666Y-90904761D01*
X145871428Y-90952380D01*
X145585714Y-90952380D01*
X145490476Y-90904761D01*
X145442857Y-90857142D01*
%TO.C,C9*%
X131633333Y-84257142D02*
X131585714Y-84304761D01*
X131442857Y-84352380D01*
X131347619Y-84352380D01*
X131204761Y-84304761D01*
X131109523Y-84209523D01*
X131061904Y-84114285D01*
X131014285Y-83923809D01*
X131014285Y-83780952D01*
X131061904Y-83590476D01*
X131109523Y-83495238D01*
X131204761Y-83400000D01*
X131347619Y-83352380D01*
X131442857Y-83352380D01*
X131585714Y-83400000D01*
X131633333Y-83447619D01*
X132109523Y-84352380D02*
X132300000Y-84352380D01*
X132395238Y-84304761D01*
X132442857Y-84257142D01*
X132538095Y-84114285D01*
X132585714Y-83923809D01*
X132585714Y-83542857D01*
X132538095Y-83447619D01*
X132490476Y-83400000D01*
X132395238Y-83352380D01*
X132204761Y-83352380D01*
X132109523Y-83400000D01*
X132061904Y-83447619D01*
X132014285Y-83542857D01*
X132014285Y-83780952D01*
X132061904Y-83876190D01*
X132109523Y-83923809D01*
X132204761Y-83971428D01*
X132395238Y-83971428D01*
X132490476Y-83923809D01*
X132538095Y-83876190D01*
X132585714Y-83780952D01*
%TO.C,C18*%
X123457142Y-110357142D02*
X123409523Y-110404761D01*
X123266666Y-110452380D01*
X123171428Y-110452380D01*
X123028571Y-110404761D01*
X122933333Y-110309523D01*
X122885714Y-110214285D01*
X122838095Y-110023809D01*
X122838095Y-109880952D01*
X122885714Y-109690476D01*
X122933333Y-109595238D01*
X123028571Y-109500000D01*
X123171428Y-109452380D01*
X123266666Y-109452380D01*
X123409523Y-109500000D01*
X123457142Y-109547619D01*
X124409523Y-110452380D02*
X123838095Y-110452380D01*
X124123809Y-110452380D02*
X124123809Y-109452380D01*
X124028571Y-109595238D01*
X123933333Y-109690476D01*
X123838095Y-109738095D01*
X124980952Y-109880952D02*
X124885714Y-109833333D01*
X124838095Y-109785714D01*
X124790476Y-109690476D01*
X124790476Y-109642857D01*
X124838095Y-109547619D01*
X124885714Y-109500000D01*
X124980952Y-109452380D01*
X125171428Y-109452380D01*
X125266666Y-109500000D01*
X125314285Y-109547619D01*
X125361904Y-109642857D01*
X125361904Y-109690476D01*
X125314285Y-109785714D01*
X125266666Y-109833333D01*
X125171428Y-109880952D01*
X124980952Y-109880952D01*
X124885714Y-109928571D01*
X124838095Y-109976190D01*
X124790476Y-110071428D01*
X124790476Y-110261904D01*
X124838095Y-110357142D01*
X124885714Y-110404761D01*
X124980952Y-110452380D01*
X125171428Y-110452380D01*
X125266666Y-110404761D01*
X125314285Y-110357142D01*
X125361904Y-110261904D01*
X125361904Y-110071428D01*
X125314285Y-109976190D01*
X125266666Y-109928571D01*
X125171428Y-109880952D01*
%TO.C,J4*%
X116566666Y-109352380D02*
X116566666Y-110066666D01*
X116519047Y-110209523D01*
X116423809Y-110304761D01*
X116280952Y-110352380D01*
X116185714Y-110352380D01*
X117471428Y-109685714D02*
X117471428Y-110352380D01*
X117233333Y-109304761D02*
X116995238Y-110019047D01*
X117614285Y-110019047D01*
%TO.C,C11*%
X124957142Y-87557142D02*
X124909523Y-87604761D01*
X124766666Y-87652380D01*
X124671428Y-87652380D01*
X124528571Y-87604761D01*
X124433333Y-87509523D01*
X124385714Y-87414285D01*
X124338095Y-87223809D01*
X124338095Y-87080952D01*
X124385714Y-86890476D01*
X124433333Y-86795238D01*
X124528571Y-86700000D01*
X124671428Y-86652380D01*
X124766666Y-86652380D01*
X124909523Y-86700000D01*
X124957142Y-86747619D01*
X125909523Y-87652380D02*
X125338095Y-87652380D01*
X125623809Y-87652380D02*
X125623809Y-86652380D01*
X125528571Y-86795238D01*
X125433333Y-86890476D01*
X125338095Y-86938095D01*
X126861904Y-87652380D02*
X126290476Y-87652380D01*
X126576190Y-87652380D02*
X126576190Y-86652380D01*
X126480952Y-86795238D01*
X126385714Y-86890476D01*
X126290476Y-86938095D01*
%TO.C,L1*%
X120033333Y-79352380D02*
X119557142Y-79352380D01*
X119557142Y-78352380D01*
X120890476Y-79352380D02*
X120319047Y-79352380D01*
X120604761Y-79352380D02*
X120604761Y-78352380D01*
X120509523Y-78495238D01*
X120414285Y-78590476D01*
X120319047Y-78638095D01*
%TO.C,R2*%
X164033333Y-111052380D02*
X163700000Y-110576190D01*
X163461904Y-111052380D02*
X163461904Y-110052380D01*
X163842857Y-110052380D01*
X163938095Y-110100000D01*
X163985714Y-110147619D01*
X164033333Y-110242857D01*
X164033333Y-110385714D01*
X163985714Y-110480952D01*
X163938095Y-110528571D01*
X163842857Y-110576190D01*
X163461904Y-110576190D01*
X164414285Y-110147619D02*
X164461904Y-110100000D01*
X164557142Y-110052380D01*
X164795238Y-110052380D01*
X164890476Y-110100000D01*
X164938095Y-110147619D01*
X164985714Y-110242857D01*
X164985714Y-110338095D01*
X164938095Y-110480952D01*
X164366666Y-111052380D01*
X164985714Y-111052380D01*
%TO.C,R10*%
X148657142Y-90952380D02*
X148323809Y-90476190D01*
X148085714Y-90952380D02*
X148085714Y-89952380D01*
X148466666Y-89952380D01*
X148561904Y-90000000D01*
X148609523Y-90047619D01*
X148657142Y-90142857D01*
X148657142Y-90285714D01*
X148609523Y-90380952D01*
X148561904Y-90428571D01*
X148466666Y-90476190D01*
X148085714Y-90476190D01*
X149609523Y-90952380D02*
X149038095Y-90952380D01*
X149323809Y-90952380D02*
X149323809Y-89952380D01*
X149228571Y-90095238D01*
X149133333Y-90190476D01*
X149038095Y-90238095D01*
X150228571Y-89952380D02*
X150323809Y-89952380D01*
X150419047Y-90000000D01*
X150466666Y-90047619D01*
X150514285Y-90142857D01*
X150561904Y-90333333D01*
X150561904Y-90571428D01*
X150514285Y-90761904D01*
X150466666Y-90857142D01*
X150419047Y-90904761D01*
X150323809Y-90952380D01*
X150228571Y-90952380D01*
X150133333Y-90904761D01*
X150085714Y-90857142D01*
X150038095Y-90761904D01*
X149990476Y-90571428D01*
X149990476Y-90333333D01*
X150038095Y-90142857D01*
X150085714Y-90047619D01*
X150133333Y-90000000D01*
X150228571Y-89952380D01*
%TO.C,C8*%
X124533333Y-74057142D02*
X124485714Y-74104761D01*
X124342857Y-74152380D01*
X124247619Y-74152380D01*
X124104761Y-74104761D01*
X124009523Y-74009523D01*
X123961904Y-73914285D01*
X123914285Y-73723809D01*
X123914285Y-73580952D01*
X123961904Y-73390476D01*
X124009523Y-73295238D01*
X124104761Y-73200000D01*
X124247619Y-73152380D01*
X124342857Y-73152380D01*
X124485714Y-73200000D01*
X124533333Y-73247619D01*
X125104761Y-73580952D02*
X125009523Y-73533333D01*
X124961904Y-73485714D01*
X124914285Y-73390476D01*
X124914285Y-73342857D01*
X124961904Y-73247619D01*
X125009523Y-73200000D01*
X125104761Y-73152380D01*
X125295238Y-73152380D01*
X125390476Y-73200000D01*
X125438095Y-73247619D01*
X125485714Y-73342857D01*
X125485714Y-73390476D01*
X125438095Y-73485714D01*
X125390476Y-73533333D01*
X125295238Y-73580952D01*
X125104761Y-73580952D01*
X125009523Y-73628571D01*
X124961904Y-73676190D01*
X124914285Y-73771428D01*
X124914285Y-73961904D01*
X124961904Y-74057142D01*
X125009523Y-74104761D01*
X125104761Y-74152380D01*
X125295238Y-74152380D01*
X125390476Y-74104761D01*
X125438095Y-74057142D01*
X125485714Y-73961904D01*
X125485714Y-73771428D01*
X125438095Y-73676190D01*
X125390476Y-73628571D01*
X125295238Y-73580952D01*
%TO.C,R21*%
X148657142Y-106452380D02*
X148323809Y-105976190D01*
X148085714Y-106452380D02*
X148085714Y-105452380D01*
X148466666Y-105452380D01*
X148561904Y-105500000D01*
X148609523Y-105547619D01*
X148657142Y-105642857D01*
X148657142Y-105785714D01*
X148609523Y-105880952D01*
X148561904Y-105928571D01*
X148466666Y-105976190D01*
X148085714Y-105976190D01*
X149038095Y-105547619D02*
X149085714Y-105500000D01*
X149180952Y-105452380D01*
X149419047Y-105452380D01*
X149514285Y-105500000D01*
X149561904Y-105547619D01*
X149609523Y-105642857D01*
X149609523Y-105738095D01*
X149561904Y-105880952D01*
X148990476Y-106452380D01*
X149609523Y-106452380D01*
X150561904Y-106452380D02*
X149990476Y-106452380D01*
X150276190Y-106452380D02*
X150276190Y-105452380D01*
X150180952Y-105595238D01*
X150085714Y-105690476D01*
X149990476Y-105738095D01*
%TO.C,U2*%
X135042380Y-91921904D02*
X135851904Y-91921904D01*
X135947142Y-91874285D01*
X135994761Y-91826666D01*
X136042380Y-91731428D01*
X136042380Y-91540952D01*
X135994761Y-91445714D01*
X135947142Y-91398095D01*
X135851904Y-91350476D01*
X135042380Y-91350476D01*
X135137619Y-90921904D02*
X135090000Y-90874285D01*
X135042380Y-90779047D01*
X135042380Y-90540952D01*
X135090000Y-90445714D01*
X135137619Y-90398095D01*
X135232857Y-90350476D01*
X135328095Y-90350476D01*
X135470952Y-90398095D01*
X136042380Y-90969523D01*
X136042380Y-90350476D01*
%TO.C,C15*%
X120247142Y-114412857D02*
X120294761Y-114460476D01*
X120342380Y-114603333D01*
X120342380Y-114698571D01*
X120294761Y-114841428D01*
X120199523Y-114936666D01*
X120104285Y-114984285D01*
X119913809Y-115031904D01*
X119770952Y-115031904D01*
X119580476Y-114984285D01*
X119485238Y-114936666D01*
X119390000Y-114841428D01*
X119342380Y-114698571D01*
X119342380Y-114603333D01*
X119390000Y-114460476D01*
X119437619Y-114412857D01*
X120342380Y-113460476D02*
X120342380Y-114031904D01*
X120342380Y-113746190D02*
X119342380Y-113746190D01*
X119485238Y-113841428D01*
X119580476Y-113936666D01*
X119628095Y-114031904D01*
X119342380Y-112555714D02*
X119342380Y-113031904D01*
X119818571Y-113079523D01*
X119770952Y-113031904D01*
X119723333Y-112936666D01*
X119723333Y-112698571D01*
X119770952Y-112603333D01*
X119818571Y-112555714D01*
X119913809Y-112508095D01*
X120151904Y-112508095D01*
X120247142Y-112555714D01*
X120294761Y-112603333D01*
X120342380Y-112698571D01*
X120342380Y-112936666D01*
X120294761Y-113031904D01*
X120247142Y-113079523D01*
%TO.C,C10*%
X127257142Y-110357142D02*
X127209523Y-110404761D01*
X127066666Y-110452380D01*
X126971428Y-110452380D01*
X126828571Y-110404761D01*
X126733333Y-110309523D01*
X126685714Y-110214285D01*
X126638095Y-110023809D01*
X126638095Y-109880952D01*
X126685714Y-109690476D01*
X126733333Y-109595238D01*
X126828571Y-109500000D01*
X126971428Y-109452380D01*
X127066666Y-109452380D01*
X127209523Y-109500000D01*
X127257142Y-109547619D01*
X128209523Y-110452380D02*
X127638095Y-110452380D01*
X127923809Y-110452380D02*
X127923809Y-109452380D01*
X127828571Y-109595238D01*
X127733333Y-109690476D01*
X127638095Y-109738095D01*
X128828571Y-109452380D02*
X128923809Y-109452380D01*
X129019047Y-109500000D01*
X129066666Y-109547619D01*
X129114285Y-109642857D01*
X129161904Y-109833333D01*
X129161904Y-110071428D01*
X129114285Y-110261904D01*
X129066666Y-110357142D01*
X129019047Y-110404761D01*
X128923809Y-110452380D01*
X128828571Y-110452380D01*
X128733333Y-110404761D01*
X128685714Y-110357142D01*
X128638095Y-110261904D01*
X128590476Y-110071428D01*
X128590476Y-109833333D01*
X128638095Y-109642857D01*
X128685714Y-109547619D01*
X128733333Y-109500000D01*
X128828571Y-109452380D01*
%TO.C,R12*%
X139557142Y-90952380D02*
X139223809Y-90476190D01*
X138985714Y-90952380D02*
X138985714Y-89952380D01*
X139366666Y-89952380D01*
X139461904Y-90000000D01*
X139509523Y-90047619D01*
X139557142Y-90142857D01*
X139557142Y-90285714D01*
X139509523Y-90380952D01*
X139461904Y-90428571D01*
X139366666Y-90476190D01*
X138985714Y-90476190D01*
X140509523Y-90952380D02*
X139938095Y-90952380D01*
X140223809Y-90952380D02*
X140223809Y-89952380D01*
X140128571Y-90095238D01*
X140033333Y-90190476D01*
X139938095Y-90238095D01*
X140890476Y-90047619D02*
X140938095Y-90000000D01*
X141033333Y-89952380D01*
X141271428Y-89952380D01*
X141366666Y-90000000D01*
X141414285Y-90047619D01*
X141461904Y-90142857D01*
X141461904Y-90238095D01*
X141414285Y-90380952D01*
X140842857Y-90952380D01*
X141461904Y-90952380D01*
%TO.C,SW1*%
X156672380Y-98877619D02*
X156196190Y-99210952D01*
X156672380Y-99449047D02*
X155672380Y-99449047D01*
X155672380Y-99068095D01*
X155720000Y-98972857D01*
X155767619Y-98925238D01*
X155862857Y-98877619D01*
X156005714Y-98877619D01*
X156100952Y-98925238D01*
X156148571Y-98972857D01*
X156196190Y-99068095D01*
X156196190Y-99449047D01*
X156624761Y-98496666D02*
X156672380Y-98353809D01*
X156672380Y-98115714D01*
X156624761Y-98020476D01*
X156577142Y-97972857D01*
X156481904Y-97925238D01*
X156386666Y-97925238D01*
X156291428Y-97972857D01*
X156243809Y-98020476D01*
X156196190Y-98115714D01*
X156148571Y-98306190D01*
X156100952Y-98401428D01*
X156053333Y-98449047D01*
X155958095Y-98496666D01*
X155862857Y-98496666D01*
X155767619Y-98449047D01*
X155720000Y-98401428D01*
X155672380Y-98306190D01*
X155672380Y-98068095D01*
X155720000Y-97925238D01*
X155672380Y-97639523D02*
X155672380Y-97068095D01*
X156672380Y-97353809D02*
X155672380Y-97353809D01*
%TO.C,U4*%
X140952380Y-83861904D02*
X141761904Y-83861904D01*
X141857142Y-83814285D01*
X141904761Y-83766666D01*
X141952380Y-83671428D01*
X141952380Y-83480952D01*
X141904761Y-83385714D01*
X141857142Y-83338095D01*
X141761904Y-83290476D01*
X140952380Y-83290476D01*
X141285714Y-82385714D02*
X141952380Y-82385714D01*
X140904761Y-82623809D02*
X141619047Y-82861904D01*
X141619047Y-82242857D01*
%TO.C,R4*%
X158413333Y-87872380D02*
X158080000Y-87396190D01*
X157841904Y-87872380D02*
X157841904Y-86872380D01*
X158222857Y-86872380D01*
X158318095Y-86920000D01*
X158365714Y-86967619D01*
X158413333Y-87062857D01*
X158413333Y-87205714D01*
X158365714Y-87300952D01*
X158318095Y-87348571D01*
X158222857Y-87396190D01*
X157841904Y-87396190D01*
X159270476Y-87205714D02*
X159270476Y-87872380D01*
X159032380Y-86824761D02*
X158794285Y-87539047D01*
X159413333Y-87539047D01*
%TO.C,C7*%
X155635833Y-122647142D02*
X155588214Y-122694761D01*
X155445357Y-122742380D01*
X155350119Y-122742380D01*
X155207261Y-122694761D01*
X155112023Y-122599523D01*
X155064404Y-122504285D01*
X155016785Y-122313809D01*
X155016785Y-122170952D01*
X155064404Y-121980476D01*
X155112023Y-121885238D01*
X155207261Y-121790000D01*
X155350119Y-121742380D01*
X155445357Y-121742380D01*
X155588214Y-121790000D01*
X155635833Y-121837619D01*
X155969166Y-121742380D02*
X156635833Y-121742380D01*
X156207261Y-122742380D01*
%TO.C,U8*%
X150952380Y-114661904D02*
X151761904Y-114661904D01*
X151857142Y-114614285D01*
X151904761Y-114566666D01*
X151952380Y-114471428D01*
X151952380Y-114280952D01*
X151904761Y-114185714D01*
X151857142Y-114138095D01*
X151761904Y-114090476D01*
X150952380Y-114090476D01*
X151380952Y-113471428D02*
X151333333Y-113566666D01*
X151285714Y-113614285D01*
X151190476Y-113661904D01*
X151142857Y-113661904D01*
X151047619Y-113614285D01*
X151000000Y-113566666D01*
X150952380Y-113471428D01*
X150952380Y-113280952D01*
X151000000Y-113185714D01*
X151047619Y-113138095D01*
X151142857Y-113090476D01*
X151190476Y-113090476D01*
X151285714Y-113138095D01*
X151333333Y-113185714D01*
X151380952Y-113280952D01*
X151380952Y-113471428D01*
X151428571Y-113566666D01*
X151476190Y-113614285D01*
X151571428Y-113661904D01*
X151761904Y-113661904D01*
X151857142Y-113614285D01*
X151904761Y-113566666D01*
X151952380Y-113471428D01*
X151952380Y-113280952D01*
X151904761Y-113185714D01*
X151857142Y-113138095D01*
X151761904Y-113090476D01*
X151571428Y-113090476D01*
X151476190Y-113138095D01*
X151428571Y-113185714D01*
X151380952Y-113280952D01*
%TO.C,R18*%
X144157142Y-106452380D02*
X143823809Y-105976190D01*
X143585714Y-106452380D02*
X143585714Y-105452380D01*
X143966666Y-105452380D01*
X144061904Y-105500000D01*
X144109523Y-105547619D01*
X144157142Y-105642857D01*
X144157142Y-105785714D01*
X144109523Y-105880952D01*
X144061904Y-105928571D01*
X143966666Y-105976190D01*
X143585714Y-105976190D01*
X145109523Y-106452380D02*
X144538095Y-106452380D01*
X144823809Y-106452380D02*
X144823809Y-105452380D01*
X144728571Y-105595238D01*
X144633333Y-105690476D01*
X144538095Y-105738095D01*
X145680952Y-105880952D02*
X145585714Y-105833333D01*
X145538095Y-105785714D01*
X145490476Y-105690476D01*
X145490476Y-105642857D01*
X145538095Y-105547619D01*
X145585714Y-105500000D01*
X145680952Y-105452380D01*
X145871428Y-105452380D01*
X145966666Y-105500000D01*
X146014285Y-105547619D01*
X146061904Y-105642857D01*
X146061904Y-105690476D01*
X146014285Y-105785714D01*
X145966666Y-105833333D01*
X145871428Y-105880952D01*
X145680952Y-105880952D01*
X145585714Y-105928571D01*
X145538095Y-105976190D01*
X145490476Y-106071428D01*
X145490476Y-106261904D01*
X145538095Y-106357142D01*
X145585714Y-106404761D01*
X145680952Y-106452380D01*
X145871428Y-106452380D01*
X145966666Y-106404761D01*
X146014285Y-106357142D01*
X146061904Y-106261904D01*
X146061904Y-106071428D01*
X146014285Y-105976190D01*
X145966666Y-105928571D01*
X145871428Y-105880952D01*
%TO.C,D1*%
X163952380Y-114038095D02*
X162952380Y-114038095D01*
X162952380Y-113800000D01*
X163000000Y-113657142D01*
X163095238Y-113561904D01*
X163190476Y-113514285D01*
X163380952Y-113466666D01*
X163523809Y-113466666D01*
X163714285Y-113514285D01*
X163809523Y-113561904D01*
X163904761Y-113657142D01*
X163952380Y-113800000D01*
X163952380Y-114038095D01*
X163952380Y-112514285D02*
X163952380Y-113085714D01*
X163952380Y-112800000D02*
X162952380Y-112800000D01*
X163095238Y-112895238D01*
X163190476Y-112990476D01*
X163238095Y-113085714D01*
%TO.C,R3*%
X162843333Y-87932380D02*
X162510000Y-87456190D01*
X162271904Y-87932380D02*
X162271904Y-86932380D01*
X162652857Y-86932380D01*
X162748095Y-86980000D01*
X162795714Y-87027619D01*
X162843333Y-87122857D01*
X162843333Y-87265714D01*
X162795714Y-87360952D01*
X162748095Y-87408571D01*
X162652857Y-87456190D01*
X162271904Y-87456190D01*
X163176666Y-86932380D02*
X163795714Y-86932380D01*
X163462380Y-87313333D01*
X163605238Y-87313333D01*
X163700476Y-87360952D01*
X163748095Y-87408571D01*
X163795714Y-87503809D01*
X163795714Y-87741904D01*
X163748095Y-87837142D01*
X163700476Y-87884761D01*
X163605238Y-87932380D01*
X163319523Y-87932380D01*
X163224285Y-87884761D01*
X163176666Y-87837142D01*
D14*
%TO.C,C19*%
X142265000Y-82776248D02*
X142265000Y-83298752D01*
X143735000Y-82776248D02*
X143735000Y-83298752D01*
%TO.C,R6*%
X155482936Y-121585000D02*
X155937064Y-121585000D01*
X155482936Y-120115000D02*
X155937064Y-120115000D01*
%TO.C,C13*%
X132198752Y-87865000D02*
X131676248Y-87865000D01*
X132198752Y-89335000D02*
X131676248Y-89335000D01*
%TO.C,C4*%
X118875000Y-114058752D02*
X118875000Y-113536248D01*
X117405000Y-114058752D02*
X117405000Y-113536248D01*
%TO.C,J2*%
X153235000Y-124505000D02*
X153235000Y-119305000D01*
X132795000Y-121905000D02*
X132795000Y-119305000D01*
X132795000Y-124505000D02*
X132795000Y-123175000D01*
X135395000Y-124505000D02*
X135395000Y-121905000D01*
X135395000Y-121905000D02*
X132795000Y-121905000D01*
X134125000Y-124505000D02*
X132795000Y-124505000D01*
X135395000Y-124505000D02*
X153235000Y-124505000D01*
X132795000Y-119305000D02*
X153235000Y-119305000D01*
%TO.C,C16*%
X130598752Y-76565000D02*
X130076248Y-76565000D01*
X130598752Y-78035000D02*
X130076248Y-78035000D01*
%TO.C,J5*%
X155045000Y-81515000D02*
X155045000Y-78915000D01*
X157645000Y-84115000D02*
X157645000Y-81515000D01*
X162785000Y-84115000D02*
X162785000Y-78915000D01*
X156375000Y-84115000D02*
X155045000Y-84115000D01*
X155045000Y-84115000D02*
X155045000Y-82785000D01*
X155045000Y-78915000D02*
X162785000Y-78915000D01*
X157645000Y-84115000D02*
X162785000Y-84115000D01*
X157645000Y-81515000D02*
X155045000Y-81515000D01*
%TO.C,J3*%
X163770000Y-108710000D02*
X168970000Y-108710000D01*
X166370000Y-88270000D02*
X168970000Y-88270000D01*
X168970000Y-88270000D02*
X168970000Y-108710000D01*
X163770000Y-90870000D02*
X163770000Y-108710000D01*
X163770000Y-90870000D02*
X166370000Y-90870000D01*
X163770000Y-88270000D02*
X165100000Y-88270000D01*
X166370000Y-90870000D02*
X166370000Y-88270000D01*
X163770000Y-89600000D02*
X163770000Y-88270000D01*
%TO.C,R1*%
X158827064Y-88265000D02*
X158372936Y-88265000D01*
X158827064Y-89735000D02*
X158372936Y-89735000D01*
%TO.C,R5*%
X153672936Y-85315000D02*
X154127064Y-85315000D01*
X153672936Y-86785000D02*
X154127064Y-86785000D01*
%TO.C,C6*%
X155501248Y-117405000D02*
X156023752Y-117405000D01*
X155501248Y-118875000D02*
X156023752Y-118875000D01*
%TO.C,C1*%
X162535000Y-111701248D02*
X162535000Y-112223752D01*
X161065000Y-111701248D02*
X161065000Y-112223752D01*
%TO.C,U3*%
X145240000Y-83100000D02*
X145240000Y-86550000D01*
X150360000Y-83100000D02*
X150360000Y-85050000D01*
X150360000Y-83100000D02*
X150360000Y-81150000D01*
X145240000Y-83100000D02*
X145240000Y-81150000D01*
%TO.C,R20*%
X154127064Y-108135000D02*
X153672936Y-108135000D01*
X154127064Y-106665000D02*
X153672936Y-106665000D01*
%TO.C,C3*%
X142265000Y-114098752D02*
X142265000Y-113576248D01*
X143735000Y-114098752D02*
X143735000Y-113576248D01*
%TO.C,R11*%
X153672936Y-89735000D02*
X154127064Y-89735000D01*
X153672936Y-88265000D02*
X154127064Y-88265000D01*
%TO.C,J1*%
X151920000Y-72570000D02*
X153250000Y-72570000D01*
X150650000Y-75170000D02*
X153250000Y-75170000D01*
X153250000Y-72570000D02*
X153250000Y-73900000D01*
X153250000Y-75170000D02*
X153250000Y-77770000D01*
X150650000Y-72570000D02*
X150650000Y-75170000D01*
X153250000Y-77770000D02*
X132810000Y-77770000D01*
X132810000Y-72570000D02*
X132810000Y-77770000D01*
X150650000Y-72570000D02*
X132810000Y-72570000D01*
%TO.C,R19*%
X139772936Y-108135000D02*
X140227064Y-108135000D01*
X139772936Y-106665000D02*
X140227064Y-106665000D01*
%TO.C,U1*%
X138970000Y-98320000D02*
X138970000Y-94460000D01*
X154590000Y-102180000D02*
X154325000Y-102180000D01*
X154590000Y-98320000D02*
X154590000Y-102180000D01*
X138970000Y-94460000D02*
X139235000Y-94460000D01*
X138970000Y-102180000D02*
X139235000Y-102180000D01*
X154590000Y-94460000D02*
X154325000Y-94460000D01*
X154325000Y-94460000D02*
X154325000Y-92645000D01*
X154590000Y-98320000D02*
X154590000Y-94460000D01*
X138970000Y-98320000D02*
X138970000Y-102180000D01*
%TO.C,C12*%
X118576248Y-86335000D02*
X119098752Y-86335000D01*
X118576248Y-84865000D02*
X119098752Y-84865000D01*
%TO.C,U7*%
X135540000Y-113900000D02*
X135540000Y-111950000D01*
X140660000Y-113900000D02*
X140660000Y-115850000D01*
X140660000Y-113900000D02*
X140660000Y-110450000D01*
X135540000Y-113900000D02*
X135540000Y-115850000D01*
%TO.C,D2*%
X158517500Y-121985000D02*
X162577500Y-121985000D01*
X162577500Y-119715000D02*
X158517500Y-119715000D01*
X162577500Y-121985000D02*
X162577500Y-119715000D01*
%TO.C,C14*%
X131398752Y-106265000D02*
X130876248Y-106265000D01*
X131398752Y-107735000D02*
X130876248Y-107735000D01*
%TO.C,U11*%
X129260000Y-118310000D02*
X129260000Y-117050000D01*
X123250000Y-111490000D02*
X129260000Y-111490000D01*
X129260000Y-111490000D02*
X129260000Y-112750000D01*
X125500000Y-118310000D02*
X129260000Y-118310000D01*
%TO.C,C17*%
X129901248Y-72765000D02*
X130423752Y-72765000D01*
X129901248Y-74235000D02*
X130423752Y-74235000D01*
%TO.C,C2*%
X167006248Y-86785000D02*
X167528752Y-86785000D01*
X167006248Y-85315000D02*
X167528752Y-85315000D01*
%TO.C,C5*%
X158501248Y-106565000D02*
X159023752Y-106565000D01*
X158501248Y-108035000D02*
X159023752Y-108035000D01*
%TO.C,R13*%
X144572936Y-88265000D02*
X145027064Y-88265000D01*
X144572936Y-89735000D02*
X145027064Y-89735000D01*
%TO.C,C9*%
X132223752Y-86035000D02*
X131701248Y-86035000D01*
X132223752Y-84565000D02*
X131701248Y-84565000D01*
%TO.C,C18*%
X124935000Y-107561252D02*
X124935000Y-107038748D01*
X123465000Y-107561252D02*
X123465000Y-107038748D01*
%TO.C,J4*%
X117070000Y-89600000D02*
X117070000Y-88270000D01*
X119670000Y-90870000D02*
X119670000Y-88270000D01*
X117070000Y-108710000D02*
X122270000Y-108710000D01*
X117070000Y-90870000D02*
X119670000Y-90870000D01*
X117070000Y-88270000D02*
X118400000Y-88270000D01*
X117070000Y-90870000D02*
X117070000Y-108710000D01*
X119670000Y-88270000D02*
X122270000Y-88270000D01*
X122270000Y-88270000D02*
X122270000Y-108710000D01*
%TO.C,C11*%
X125401248Y-87865000D02*
X125923752Y-87865000D01*
X125401248Y-89335000D02*
X125923752Y-89335000D01*
%TO.C,L1*%
X122650000Y-85360000D02*
X121800000Y-85360000D01*
X126550000Y-78440000D02*
X127400000Y-78440000D01*
X121850000Y-78440000D02*
X122650000Y-78440000D01*
X128010000Y-79050000D02*
X128010000Y-84750000D01*
X127400000Y-85360000D02*
X126550000Y-85360000D01*
X121190000Y-84750000D02*
X121190000Y-79100000D01*
X121850000Y-78440000D02*
G75*
G03*
X121190000Y-79100000I2J-660002D01*
G01*
X127400000Y-85360000D02*
G75*
G03*
X128010000Y-84750000I0J610000D01*
G01*
X128010000Y-79050000D02*
G75*
G03*
X127400000Y-78440000I-610000J0D01*
G01*
X121190000Y-84750000D02*
G75*
G03*
X121800000Y-85360000I610000J0D01*
G01*
%TO.C,R2*%
X166572936Y-109765000D02*
X167027064Y-109765000D01*
X166572936Y-111235000D02*
X167027064Y-111235000D01*
%TO.C,R10*%
X149527064Y-88265000D02*
X149072936Y-88265000D01*
X149527064Y-89735000D02*
X149072936Y-89735000D01*
%TO.C,C8*%
X124501248Y-76135000D02*
X125023752Y-76135000D01*
X124501248Y-74665000D02*
X125023752Y-74665000D01*
%TO.C,R21*%
X149072936Y-108135000D02*
X149527064Y-108135000D01*
X149072936Y-106665000D02*
X149527064Y-106665000D01*
%TO.C,U2*%
X125882000Y-103842000D02*
X125882000Y-105620000D01*
X134518000Y-99778000D02*
X134518000Y-93682000D01*
X125882000Y-93682000D02*
X125882000Y-94698000D01*
X134518000Y-90380000D02*
X125882000Y-90380000D01*
X125882000Y-96222000D02*
X125882000Y-99778000D01*
X125882000Y-90380000D02*
X125882000Y-92158000D01*
X125882000Y-101302000D02*
X125882000Y-102318000D01*
X125882000Y-105620000D02*
X134518000Y-105620000D01*
X134518000Y-92158000D02*
X134518000Y-90380000D01*
X134518000Y-105620000D02*
X134518000Y-101302000D01*
%TO.C,C15*%
X120605000Y-114048752D02*
X120605000Y-113526248D01*
X122075000Y-114048752D02*
X122075000Y-113526248D01*
%TO.C,C10*%
X131398752Y-109265000D02*
X130876248Y-109265000D01*
X131398752Y-110735000D02*
X130876248Y-110735000D01*
%TO.C,R12*%
X140427064Y-89735000D02*
X139972936Y-89735000D01*
X140427064Y-88265000D02*
X139972936Y-88265000D01*
%TO.C,SW1*%
X157060000Y-95290000D02*
X160760000Y-95290000D01*
X160760000Y-95290000D02*
X160760000Y-101410000D01*
X157060000Y-101410000D02*
X157060000Y-95290000D01*
X160760000Y-101410000D02*
X157060000Y-101410000D01*
%TO.C,U4*%
X140660000Y-83100000D02*
X140660000Y-85050000D01*
X140660000Y-83100000D02*
X140660000Y-81150000D01*
X135540000Y-83100000D02*
X135540000Y-86550000D01*
X135540000Y-83100000D02*
X135540000Y-81150000D01*
%TO.C,R4*%
X158807064Y-86755000D02*
X158352936Y-86755000D01*
X158807064Y-85285000D02*
X158352936Y-85285000D01*
%TO.C,C7*%
X156063752Y-124355000D02*
X155541248Y-124355000D01*
X156063752Y-122885000D02*
X155541248Y-122885000D01*
%TO.C,U8*%
X150660000Y-113900000D02*
X150660000Y-110450000D01*
X145540000Y-113900000D02*
X145540000Y-111950000D01*
X150660000Y-113900000D02*
X150660000Y-115850000D01*
X145540000Y-113900000D02*
X145540000Y-115850000D01*
%TO.C,R18*%
X145027064Y-106665000D02*
X144572936Y-106665000D01*
X145027064Y-108135000D02*
X144572936Y-108135000D01*
%TO.C,D1*%
X168187500Y-112065000D02*
X164127500Y-112065000D01*
X164127500Y-112065000D02*
X164127500Y-114335000D01*
X164127500Y-114335000D02*
X168187500Y-114335000D01*
%TO.C,R3*%
X163127064Y-86765000D02*
X162672936Y-86765000D01*
X163127064Y-85295000D02*
X162672936Y-85295000D01*
%TD*%
M02*
