%TF.GenerationSoftware,KiCad,Pcbnew,6.0.8+dfsg-1~bpo11+1*%
%TF.CreationDate,2022-10-31T17:28:05+01:00*%
%TF.ProjectId,vertExpI2c_00,76657274-4578-4704-9932-635f30302e6b,rev?*%
%TF.SameCoordinates,Original*%
%TF.FileFunction,Drillmap*%
%TF.FilePolarity,Positive*%
%FSLAX45Y45*%
G04 Gerber Fmt 4.5, Leading zero omitted, Abs format (unit mm)*
G04 Created by KiCad (PCBNEW 6.0.8+dfsg-1~bpo11+1) date 2022-10-31 17:28:05*
%MOMM*%
%LPD*%
G01*
G04 APERTURE LIST*
%ADD10C,0.100000*%
%ADD11C,0.200000*%
%ADD12C,0.040000*%
G04 APERTURE END LIST*
D10*
X12050000Y-12250000D02*
G75*
G03*
X12050000Y-12250000I-150000J0D01*
G01*
X16850000Y-7450000D02*
G75*
G03*
X16850000Y-7450000I-150000J0D01*
G01*
X12050000Y-7450000D02*
G75*
G03*
X12050000Y-7450000I-150000J0D01*
G01*
X11600000Y-12550000D02*
X17000000Y-12550000D01*
X17000000Y-12550000D02*
X17000000Y-7150000D01*
X17000000Y-7150000D02*
X11600000Y-7150000D01*
X11600000Y-7150000D02*
X11600000Y-12550000D01*
X16850000Y-12250000D02*
G75*
G03*
X16850000Y-12250000I-150000J0D01*
G01*
D11*
D12*
X12430000Y-7367000D02*
X12470000Y-7407000D01*
X12470000Y-7367000D02*
X12430000Y-7407000D01*
X12581000Y-11713000D02*
X12621000Y-11753000D01*
X12621000Y-11713000D02*
X12581000Y-11753000D01*
X12819000Y-10984000D02*
X12859000Y-11024000D01*
X12859000Y-10984000D02*
X12819000Y-11024000D01*
X12879000Y-7908000D02*
X12919000Y-7948000D01*
X12919000Y-7908000D02*
X12879000Y-7948000D01*
X12910000Y-8429000D02*
X12950000Y-8469000D01*
X12950000Y-8429000D02*
X12910000Y-8469000D01*
X13211000Y-7918000D02*
X13251000Y-7958000D01*
X13251000Y-7918000D02*
X13211000Y-7958000D01*
X13239000Y-11470000D02*
X13279000Y-11510000D01*
X13279000Y-11470000D02*
X13239000Y-11510000D01*
X13282000Y-8312000D02*
X13322000Y-8352000D01*
X13322000Y-8312000D02*
X13282000Y-8352000D01*
X13473000Y-7959000D02*
X13513000Y-7999000D01*
X13513000Y-7959000D02*
X13473000Y-7999000D01*
X13517000Y-10588000D02*
X13557000Y-10628000D01*
X13557000Y-10588000D02*
X13517000Y-10628000D01*
X13599500Y-10983500D02*
X13639500Y-11023500D01*
X13639500Y-10983500D02*
X13599500Y-11023500D01*
X13646000Y-10339000D02*
X13686000Y-10379000D01*
X13686000Y-10339000D02*
X13646000Y-10379000D01*
X13648000Y-8924000D02*
X13688000Y-8964000D01*
X13688000Y-8924000D02*
X13648000Y-8964000D01*
X13771000Y-11420000D02*
X13811000Y-11460000D01*
X13811000Y-11420000D02*
X13771000Y-11460000D01*
X13963000Y-10871000D02*
X14003000Y-10911000D01*
X14003000Y-10871000D02*
X13963000Y-10911000D01*
X13980000Y-10464000D02*
X14020000Y-10504000D01*
X14020000Y-10464000D02*
X13980000Y-10504000D01*
X14077550Y-11510000D02*
X14117550Y-11550000D01*
X14117550Y-11510000D02*
X14077550Y-11550000D01*
X14170000Y-11610000D02*
X14210000Y-11650000D01*
X14210000Y-11610000D02*
X14170000Y-11650000D01*
X14204000Y-10871000D02*
X14244000Y-10911000D01*
X14244000Y-10871000D02*
X14204000Y-10911000D01*
X14274000Y-9105000D02*
X14314000Y-9145000D01*
X14314000Y-9105000D02*
X14274000Y-9145000D01*
X14280000Y-8034000D02*
X14320000Y-8074000D01*
X14320000Y-8034000D02*
X14280000Y-8074000D01*
X14407000Y-7924000D02*
X14447000Y-7964000D01*
X14447000Y-7924000D02*
X14407000Y-7964000D01*
X14417000Y-8651000D02*
X14457000Y-8691000D01*
X14457000Y-8651000D02*
X14417000Y-8691000D01*
X14429000Y-11527000D02*
X14469000Y-11567000D01*
X14469000Y-11527000D02*
X14429000Y-11567000D01*
X14464000Y-10990000D02*
X14504000Y-11030000D01*
X14504000Y-10990000D02*
X14464000Y-11030000D01*
X14485000Y-10873000D02*
X14525000Y-10913000D01*
X14525000Y-10873000D02*
X14485000Y-10913000D01*
X14490000Y-11440000D02*
X14530000Y-11480000D01*
X14530000Y-11440000D02*
X14490000Y-11480000D01*
X14680000Y-9105000D02*
X14720000Y-9145000D01*
X14720000Y-9105000D02*
X14680000Y-9145000D01*
X14850000Y-11780000D02*
X14890000Y-11820000D01*
X14890000Y-11780000D02*
X14850000Y-11820000D01*
X14884000Y-9109000D02*
X14924000Y-9149000D01*
X14924000Y-9109000D02*
X14884000Y-9149000D01*
X15068000Y-8539000D02*
X15108000Y-8579000D01*
X15108000Y-8539000D02*
X15068000Y-8579000D01*
X15126000Y-10872000D02*
X15166000Y-10912000D01*
X15166000Y-10872000D02*
X15126000Y-10912000D01*
X15151000Y-9112000D02*
X15191000Y-9152000D01*
X15191000Y-9112000D02*
X15151000Y-9152000D01*
X15394000Y-10871000D02*
X15434000Y-10911000D01*
X15434000Y-10871000D02*
X15394000Y-10911000D01*
X15650000Y-9097000D02*
X15690000Y-9137000D01*
X15690000Y-9097000D02*
X15650000Y-9137000D01*
X15908000Y-10986000D02*
X15948000Y-11026000D01*
X15948000Y-10986000D02*
X15908000Y-11026000D01*
D10*
X11890000Y-8960000D02*
G75*
G03*
X11890000Y-8960000I-50000J0D01*
G01*
X11890000Y-9214000D02*
G75*
G03*
X11890000Y-9214000I-50000J0D01*
G01*
X11890000Y-9468000D02*
G75*
G03*
X11890000Y-9468000I-50000J0D01*
G01*
X11890000Y-9722000D02*
G75*
G03*
X11890000Y-9722000I-50000J0D01*
G01*
X11890000Y-9976000D02*
G75*
G03*
X11890000Y-9976000I-50000J0D01*
G01*
X11890000Y-10230000D02*
G75*
G03*
X11890000Y-10230000I-50000J0D01*
G01*
X11890000Y-10484000D02*
G75*
G03*
X11890000Y-10484000I-50000J0D01*
G01*
X11890000Y-10738000D02*
G75*
G03*
X11890000Y-10738000I-50000J0D01*
G01*
X12144000Y-8960000D02*
G75*
G03*
X12144000Y-8960000I-50000J0D01*
G01*
X12144000Y-9214000D02*
G75*
G03*
X12144000Y-9214000I-50000J0D01*
G01*
X12144000Y-9468000D02*
G75*
G03*
X12144000Y-9468000I-50000J0D01*
G01*
X12144000Y-9722000D02*
G75*
G03*
X12144000Y-9722000I-50000J0D01*
G01*
X12144000Y-9976000D02*
G75*
G03*
X12144000Y-9976000I-50000J0D01*
G01*
X12144000Y-10230000D02*
G75*
G03*
X12144000Y-10230000I-50000J0D01*
G01*
X12144000Y-10484000D02*
G75*
G03*
X12144000Y-10484000I-50000J0D01*
G01*
X12144000Y-10738000D02*
G75*
G03*
X12144000Y-10738000I-50000J0D01*
G01*
X13462500Y-12063500D02*
G75*
G03*
X13462500Y-12063500I-50000J0D01*
G01*
X13462500Y-12317500D02*
G75*
G03*
X13462500Y-12317500I-50000J0D01*
G01*
X13464000Y-7390000D02*
G75*
G03*
X13464000Y-7390000I-50000J0D01*
G01*
X13464000Y-7644000D02*
G75*
G03*
X13464000Y-7644000I-50000J0D01*
G01*
X13716500Y-12063500D02*
G75*
G03*
X13716500Y-12063500I-50000J0D01*
G01*
X13716500Y-12317500D02*
G75*
G03*
X13716500Y-12317500I-50000J0D01*
G01*
X13718000Y-7390000D02*
G75*
G03*
X13718000Y-7390000I-50000J0D01*
G01*
X13718000Y-7644000D02*
G75*
G03*
X13718000Y-7644000I-50000J0D01*
G01*
X13970500Y-12063500D02*
G75*
G03*
X13970500Y-12063500I-50000J0D01*
G01*
X13970500Y-12317500D02*
G75*
G03*
X13970500Y-12317500I-50000J0D01*
G01*
X13972000Y-7390000D02*
G75*
G03*
X13972000Y-7390000I-50000J0D01*
G01*
X13972000Y-7644000D02*
G75*
G03*
X13972000Y-7644000I-50000J0D01*
G01*
X14224500Y-12063500D02*
G75*
G03*
X14224500Y-12063500I-50000J0D01*
G01*
X14224500Y-12317500D02*
G75*
G03*
X14224500Y-12317500I-50000J0D01*
G01*
X14226000Y-7390000D02*
G75*
G03*
X14226000Y-7390000I-50000J0D01*
G01*
X14226000Y-7644000D02*
G75*
G03*
X14226000Y-7644000I-50000J0D01*
G01*
X14478500Y-12063500D02*
G75*
G03*
X14478500Y-12063500I-50000J0D01*
G01*
X14478500Y-12317500D02*
G75*
G03*
X14478500Y-12317500I-50000J0D01*
G01*
X14480000Y-7390000D02*
G75*
G03*
X14480000Y-7390000I-50000J0D01*
G01*
X14480000Y-7644000D02*
G75*
G03*
X14480000Y-7644000I-50000J0D01*
G01*
X14732500Y-12063500D02*
G75*
G03*
X14732500Y-12063500I-50000J0D01*
G01*
X14732500Y-12317500D02*
G75*
G03*
X14732500Y-12317500I-50000J0D01*
G01*
X14734000Y-7390000D02*
G75*
G03*
X14734000Y-7390000I-50000J0D01*
G01*
X14734000Y-7644000D02*
G75*
G03*
X14734000Y-7644000I-50000J0D01*
G01*
X14986500Y-12063500D02*
G75*
G03*
X14986500Y-12063500I-50000J0D01*
G01*
X14986500Y-12317500D02*
G75*
G03*
X14986500Y-12317500I-50000J0D01*
G01*
X14988000Y-7390000D02*
G75*
G03*
X14988000Y-7390000I-50000J0D01*
G01*
X14988000Y-7644000D02*
G75*
G03*
X14988000Y-7644000I-50000J0D01*
G01*
X15240500Y-12063500D02*
G75*
G03*
X15240500Y-12063500I-50000J0D01*
G01*
X15240500Y-12317500D02*
G75*
G03*
X15240500Y-12317500I-50000J0D01*
G01*
X15242000Y-7390000D02*
G75*
G03*
X15242000Y-7390000I-50000J0D01*
G01*
X15242000Y-7644000D02*
G75*
G03*
X15242000Y-7644000I-50000J0D01*
G01*
X15687500Y-8024500D02*
G75*
G03*
X15687500Y-8024500I-50000J0D01*
G01*
X15687500Y-8278500D02*
G75*
G03*
X15687500Y-8278500I-50000J0D01*
G01*
X15941500Y-8024500D02*
G75*
G03*
X15941500Y-8024500I-50000J0D01*
G01*
X15941500Y-8278500D02*
G75*
G03*
X15941500Y-8278500I-50000J0D01*
G01*
X16195500Y-8024500D02*
G75*
G03*
X16195500Y-8024500I-50000J0D01*
G01*
X16195500Y-8278500D02*
G75*
G03*
X16195500Y-8278500I-50000J0D01*
G01*
X16560000Y-8960000D02*
G75*
G03*
X16560000Y-8960000I-50000J0D01*
G01*
X16560000Y-9214000D02*
G75*
G03*
X16560000Y-9214000I-50000J0D01*
G01*
X16560000Y-9468000D02*
G75*
G03*
X16560000Y-9468000I-50000J0D01*
G01*
X16560000Y-9722000D02*
G75*
G03*
X16560000Y-9722000I-50000J0D01*
G01*
X16560000Y-9976000D02*
G75*
G03*
X16560000Y-9976000I-50000J0D01*
G01*
X16560000Y-10230000D02*
G75*
G03*
X16560000Y-10230000I-50000J0D01*
G01*
X16560000Y-10484000D02*
G75*
G03*
X16560000Y-10484000I-50000J0D01*
G01*
X16560000Y-10738000D02*
G75*
G03*
X16560000Y-10738000I-50000J0D01*
G01*
X16814000Y-8960000D02*
G75*
G03*
X16814000Y-8960000I-50000J0D01*
G01*
X16814000Y-9214000D02*
G75*
G03*
X16814000Y-9214000I-50000J0D01*
G01*
X16814000Y-9468000D02*
G75*
G03*
X16814000Y-9468000I-50000J0D01*
G01*
X16814000Y-9722000D02*
G75*
G03*
X16814000Y-9722000I-50000J0D01*
G01*
X16814000Y-9976000D02*
G75*
G03*
X16814000Y-9976000I-50000J0D01*
G01*
X16814000Y-10230000D02*
G75*
G03*
X16814000Y-10230000I-50000J0D01*
G01*
X16814000Y-10484000D02*
G75*
G03*
X16814000Y-10484000I-50000J0D01*
G01*
X16814000Y-10738000D02*
G75*
G03*
X16814000Y-10738000I-50000J0D01*
G01*
D11*
X11852619Y-12865476D02*
X11852619Y-12665476D01*
X11900238Y-12665476D01*
X11928809Y-12675000D01*
X11947857Y-12694048D01*
X11957381Y-12713095D01*
X11966905Y-12751190D01*
X11966905Y-12779762D01*
X11957381Y-12817857D01*
X11947857Y-12836905D01*
X11928809Y-12855952D01*
X11900238Y-12865476D01*
X11852619Y-12865476D01*
X12052619Y-12865476D02*
X12052619Y-12732143D01*
X12052619Y-12770238D02*
X12062143Y-12751190D01*
X12071667Y-12741667D01*
X12090714Y-12732143D01*
X12109762Y-12732143D01*
X12176428Y-12865476D02*
X12176428Y-12732143D01*
X12176428Y-12665476D02*
X12166905Y-12675000D01*
X12176428Y-12684524D01*
X12185952Y-12675000D01*
X12176428Y-12665476D01*
X12176428Y-12684524D01*
X12300238Y-12865476D02*
X12281190Y-12855952D01*
X12271667Y-12836905D01*
X12271667Y-12665476D01*
X12405000Y-12865476D02*
X12385952Y-12855952D01*
X12376428Y-12836905D01*
X12376428Y-12665476D01*
X12633571Y-12865476D02*
X12633571Y-12665476D01*
X12700238Y-12808333D01*
X12766905Y-12665476D01*
X12766905Y-12865476D01*
X12947857Y-12865476D02*
X12947857Y-12760714D01*
X12938333Y-12741667D01*
X12919286Y-12732143D01*
X12881190Y-12732143D01*
X12862143Y-12741667D01*
X12947857Y-12855952D02*
X12928809Y-12865476D01*
X12881190Y-12865476D01*
X12862143Y-12855952D01*
X12852619Y-12836905D01*
X12852619Y-12817857D01*
X12862143Y-12798809D01*
X12881190Y-12789286D01*
X12928809Y-12789286D01*
X12947857Y-12779762D01*
X13043095Y-12732143D02*
X13043095Y-12932143D01*
X13043095Y-12741667D02*
X13062143Y-12732143D01*
X13100238Y-12732143D01*
X13119286Y-12741667D01*
X13128809Y-12751190D01*
X13138333Y-12770238D01*
X13138333Y-12827381D01*
X13128809Y-12846428D01*
X13119286Y-12855952D01*
X13100238Y-12865476D01*
X13062143Y-12865476D01*
X13043095Y-12855952D01*
X13224048Y-12846428D02*
X13233571Y-12855952D01*
X13224048Y-12865476D01*
X13214524Y-12855952D01*
X13224048Y-12846428D01*
X13224048Y-12865476D01*
X13224048Y-12741667D02*
X13233571Y-12751190D01*
X13224048Y-12760714D01*
X13214524Y-12751190D01*
X13224048Y-12741667D01*
X13224048Y-12760714D01*
D12*
X11555000Y-13175000D02*
X11595000Y-13215000D01*
X11595000Y-13175000D02*
X11555000Y-13215000D01*
D11*
X11890714Y-13085476D02*
X11909762Y-13085476D01*
X11928809Y-13095000D01*
X11938333Y-13104524D01*
X11947857Y-13123571D01*
X11957381Y-13161667D01*
X11957381Y-13209286D01*
X11947857Y-13247381D01*
X11938333Y-13266428D01*
X11928809Y-13275952D01*
X11909762Y-13285476D01*
X11890714Y-13285476D01*
X11871667Y-13275952D01*
X11862143Y-13266428D01*
X11852619Y-13247381D01*
X11843095Y-13209286D01*
X11843095Y-13161667D01*
X11852619Y-13123571D01*
X11862143Y-13104524D01*
X11871667Y-13095000D01*
X11890714Y-13085476D01*
X12043095Y-13266428D02*
X12052619Y-13275952D01*
X12043095Y-13285476D01*
X12033571Y-13275952D01*
X12043095Y-13266428D01*
X12043095Y-13285476D01*
X12224048Y-13152143D02*
X12224048Y-13285476D01*
X12176428Y-13075952D02*
X12128809Y-13218809D01*
X12252619Y-13218809D01*
X12366905Y-13085476D02*
X12385952Y-13085476D01*
X12405000Y-13095000D01*
X12414524Y-13104524D01*
X12424048Y-13123571D01*
X12433571Y-13161667D01*
X12433571Y-13209286D01*
X12424048Y-13247381D01*
X12414524Y-13266428D01*
X12405000Y-13275952D01*
X12385952Y-13285476D01*
X12366905Y-13285476D01*
X12347857Y-13275952D01*
X12338333Y-13266428D01*
X12328809Y-13247381D01*
X12319286Y-13209286D01*
X12319286Y-13161667D01*
X12328809Y-13123571D01*
X12338333Y-13104524D01*
X12347857Y-13095000D01*
X12366905Y-13085476D01*
X12557381Y-13085476D02*
X12576428Y-13085476D01*
X12595476Y-13095000D01*
X12605000Y-13104524D01*
X12614524Y-13123571D01*
X12624048Y-13161667D01*
X12624048Y-13209286D01*
X12614524Y-13247381D01*
X12605000Y-13266428D01*
X12595476Y-13275952D01*
X12576428Y-13285476D01*
X12557381Y-13285476D01*
X12538333Y-13275952D01*
X12528809Y-13266428D01*
X12519286Y-13247381D01*
X12509762Y-13209286D01*
X12509762Y-13161667D01*
X12519286Y-13123571D01*
X12528809Y-13104524D01*
X12538333Y-13095000D01*
X12557381Y-13085476D01*
X12709762Y-13285476D02*
X12709762Y-13152143D01*
X12709762Y-13171190D02*
X12719286Y-13161667D01*
X12738333Y-13152143D01*
X12766905Y-13152143D01*
X12785952Y-13161667D01*
X12795476Y-13180714D01*
X12795476Y-13285476D01*
X12795476Y-13180714D02*
X12805000Y-13161667D01*
X12824048Y-13152143D01*
X12852619Y-13152143D01*
X12871667Y-13161667D01*
X12881190Y-13180714D01*
X12881190Y-13285476D01*
X12976428Y-13285476D02*
X12976428Y-13152143D01*
X12976428Y-13171190D02*
X12985952Y-13161667D01*
X13005000Y-13152143D01*
X13033571Y-13152143D01*
X13052619Y-13161667D01*
X13062143Y-13180714D01*
X13062143Y-13285476D01*
X13062143Y-13180714D02*
X13071667Y-13161667D01*
X13090714Y-13152143D01*
X13119286Y-13152143D01*
X13138333Y-13161667D01*
X13147857Y-13180714D01*
X13147857Y-13285476D01*
X13538333Y-13075952D02*
X13366905Y-13333095D01*
X13795476Y-13085476D02*
X13814524Y-13085476D01*
X13833571Y-13095000D01*
X13843095Y-13104524D01*
X13852619Y-13123571D01*
X13862143Y-13161667D01*
X13862143Y-13209286D01*
X13852619Y-13247381D01*
X13843095Y-13266428D01*
X13833571Y-13275952D01*
X13814524Y-13285476D01*
X13795476Y-13285476D01*
X13776428Y-13275952D01*
X13766905Y-13266428D01*
X13757381Y-13247381D01*
X13747857Y-13209286D01*
X13747857Y-13161667D01*
X13757381Y-13123571D01*
X13766905Y-13104524D01*
X13776428Y-13095000D01*
X13795476Y-13085476D01*
X13947857Y-13266428D02*
X13957381Y-13275952D01*
X13947857Y-13285476D01*
X13938333Y-13275952D01*
X13947857Y-13266428D01*
X13947857Y-13285476D01*
X14081190Y-13085476D02*
X14100238Y-13085476D01*
X14119286Y-13095000D01*
X14128809Y-13104524D01*
X14138333Y-13123571D01*
X14147857Y-13161667D01*
X14147857Y-13209286D01*
X14138333Y-13247381D01*
X14128809Y-13266428D01*
X14119286Y-13275952D01*
X14100238Y-13285476D01*
X14081190Y-13285476D01*
X14062143Y-13275952D01*
X14052619Y-13266428D01*
X14043095Y-13247381D01*
X14033571Y-13209286D01*
X14033571Y-13161667D01*
X14043095Y-13123571D01*
X14052619Y-13104524D01*
X14062143Y-13095000D01*
X14081190Y-13085476D01*
X14338333Y-13285476D02*
X14224048Y-13285476D01*
X14281190Y-13285476D02*
X14281190Y-13085476D01*
X14262143Y-13114048D01*
X14243095Y-13133095D01*
X14224048Y-13142619D01*
X14519286Y-13085476D02*
X14424048Y-13085476D01*
X14414524Y-13180714D01*
X14424048Y-13171190D01*
X14443095Y-13161667D01*
X14490714Y-13161667D01*
X14509762Y-13171190D01*
X14519286Y-13180714D01*
X14528809Y-13199762D01*
X14528809Y-13247381D01*
X14519286Y-13266428D01*
X14509762Y-13275952D01*
X14490714Y-13285476D01*
X14443095Y-13285476D01*
X14424048Y-13275952D01*
X14414524Y-13266428D01*
X14595476Y-13085476D02*
X14728809Y-13085476D01*
X14643095Y-13285476D01*
X14795476Y-13085476D02*
X14795476Y-13123571D01*
X14871667Y-13085476D02*
X14871667Y-13123571D01*
X15166905Y-13361667D02*
X15157381Y-13352143D01*
X15138333Y-13323571D01*
X15128809Y-13304524D01*
X15119286Y-13275952D01*
X15109762Y-13228333D01*
X15109762Y-13190238D01*
X15119286Y-13142619D01*
X15128809Y-13114048D01*
X15138333Y-13095000D01*
X15157381Y-13066428D01*
X15166905Y-13056905D01*
X15224048Y-13085476D02*
X15347857Y-13085476D01*
X15281190Y-13161667D01*
X15309762Y-13161667D01*
X15328809Y-13171190D01*
X15338333Y-13180714D01*
X15347857Y-13199762D01*
X15347857Y-13247381D01*
X15338333Y-13266428D01*
X15328809Y-13275952D01*
X15309762Y-13285476D01*
X15252619Y-13285476D01*
X15233571Y-13275952D01*
X15224048Y-13266428D01*
X15519286Y-13085476D02*
X15481190Y-13085476D01*
X15462143Y-13095000D01*
X15452619Y-13104524D01*
X15433571Y-13133095D01*
X15424048Y-13171190D01*
X15424048Y-13247381D01*
X15433571Y-13266428D01*
X15443095Y-13275952D01*
X15462143Y-13285476D01*
X15500238Y-13285476D01*
X15519286Y-13275952D01*
X15528809Y-13266428D01*
X15538333Y-13247381D01*
X15538333Y-13199762D01*
X15528809Y-13180714D01*
X15519286Y-13171190D01*
X15500238Y-13161667D01*
X15462143Y-13161667D01*
X15443095Y-13171190D01*
X15433571Y-13180714D01*
X15424048Y-13199762D01*
X15776428Y-13285476D02*
X15776428Y-13085476D01*
X15862143Y-13285476D02*
X15862143Y-13180714D01*
X15852619Y-13161667D01*
X15833571Y-13152143D01*
X15805000Y-13152143D01*
X15785952Y-13161667D01*
X15776428Y-13171190D01*
X15985952Y-13285476D02*
X15966905Y-13275952D01*
X15957381Y-13266428D01*
X15947857Y-13247381D01*
X15947857Y-13190238D01*
X15957381Y-13171190D01*
X15966905Y-13161667D01*
X15985952Y-13152143D01*
X16014524Y-13152143D01*
X16033571Y-13161667D01*
X16043095Y-13171190D01*
X16052619Y-13190238D01*
X16052619Y-13247381D01*
X16043095Y-13266428D01*
X16033571Y-13275952D01*
X16014524Y-13285476D01*
X15985952Y-13285476D01*
X16166905Y-13285476D02*
X16147857Y-13275952D01*
X16138333Y-13256905D01*
X16138333Y-13085476D01*
X16319286Y-13275952D02*
X16300238Y-13285476D01*
X16262143Y-13285476D01*
X16243095Y-13275952D01*
X16233571Y-13256905D01*
X16233571Y-13180714D01*
X16243095Y-13161667D01*
X16262143Y-13152143D01*
X16300238Y-13152143D01*
X16319286Y-13161667D01*
X16328809Y-13180714D01*
X16328809Y-13199762D01*
X16233571Y-13218809D01*
X16405000Y-13275952D02*
X16424048Y-13285476D01*
X16462143Y-13285476D01*
X16481190Y-13275952D01*
X16490714Y-13256905D01*
X16490714Y-13247381D01*
X16481190Y-13228333D01*
X16462143Y-13218809D01*
X16433571Y-13218809D01*
X16414524Y-13209286D01*
X16405000Y-13190238D01*
X16405000Y-13180714D01*
X16414524Y-13161667D01*
X16433571Y-13152143D01*
X16462143Y-13152143D01*
X16481190Y-13161667D01*
X16557381Y-13361667D02*
X16566905Y-13352143D01*
X16585952Y-13323571D01*
X16595476Y-13304524D01*
X16605000Y-13275952D01*
X16614524Y-13228333D01*
X16614524Y-13190238D01*
X16605000Y-13142619D01*
X16595476Y-13114048D01*
X16585952Y-13095000D01*
X16566905Y-13066428D01*
X16557381Y-13056905D01*
D10*
X11595000Y-13459000D02*
G75*
G03*
X11595000Y-13459000I-50000J0D01*
G01*
D11*
X11957381Y-13549476D02*
X11843095Y-13549476D01*
X11900238Y-13549476D02*
X11900238Y-13349476D01*
X11881190Y-13378048D01*
X11862143Y-13397095D01*
X11843095Y-13406619D01*
X12043095Y-13530428D02*
X12052619Y-13539952D01*
X12043095Y-13549476D01*
X12033571Y-13539952D01*
X12043095Y-13530428D01*
X12043095Y-13549476D01*
X12176428Y-13349476D02*
X12195476Y-13349476D01*
X12214524Y-13359000D01*
X12224048Y-13368524D01*
X12233571Y-13387571D01*
X12243095Y-13425667D01*
X12243095Y-13473286D01*
X12233571Y-13511381D01*
X12224048Y-13530428D01*
X12214524Y-13539952D01*
X12195476Y-13549476D01*
X12176428Y-13549476D01*
X12157381Y-13539952D01*
X12147857Y-13530428D01*
X12138333Y-13511381D01*
X12128809Y-13473286D01*
X12128809Y-13425667D01*
X12138333Y-13387571D01*
X12147857Y-13368524D01*
X12157381Y-13359000D01*
X12176428Y-13349476D01*
X12366905Y-13349476D02*
X12385952Y-13349476D01*
X12405000Y-13359000D01*
X12414524Y-13368524D01*
X12424048Y-13387571D01*
X12433571Y-13425667D01*
X12433571Y-13473286D01*
X12424048Y-13511381D01*
X12414524Y-13530428D01*
X12405000Y-13539952D01*
X12385952Y-13549476D01*
X12366905Y-13549476D01*
X12347857Y-13539952D01*
X12338333Y-13530428D01*
X12328809Y-13511381D01*
X12319286Y-13473286D01*
X12319286Y-13425667D01*
X12328809Y-13387571D01*
X12338333Y-13368524D01*
X12347857Y-13359000D01*
X12366905Y-13349476D01*
X12557381Y-13349476D02*
X12576428Y-13349476D01*
X12595476Y-13359000D01*
X12605000Y-13368524D01*
X12614524Y-13387571D01*
X12624048Y-13425667D01*
X12624048Y-13473286D01*
X12614524Y-13511381D01*
X12605000Y-13530428D01*
X12595476Y-13539952D01*
X12576428Y-13549476D01*
X12557381Y-13549476D01*
X12538333Y-13539952D01*
X12528809Y-13530428D01*
X12519286Y-13511381D01*
X12509762Y-13473286D01*
X12509762Y-13425667D01*
X12519286Y-13387571D01*
X12528809Y-13368524D01*
X12538333Y-13359000D01*
X12557381Y-13349476D01*
X12709762Y-13549476D02*
X12709762Y-13416143D01*
X12709762Y-13435190D02*
X12719286Y-13425667D01*
X12738333Y-13416143D01*
X12766905Y-13416143D01*
X12785952Y-13425667D01*
X12795476Y-13444714D01*
X12795476Y-13549476D01*
X12795476Y-13444714D02*
X12805000Y-13425667D01*
X12824048Y-13416143D01*
X12852619Y-13416143D01*
X12871667Y-13425667D01*
X12881190Y-13444714D01*
X12881190Y-13549476D01*
X12976428Y-13549476D02*
X12976428Y-13416143D01*
X12976428Y-13435190D02*
X12985952Y-13425667D01*
X13005000Y-13416143D01*
X13033571Y-13416143D01*
X13052619Y-13425667D01*
X13062143Y-13444714D01*
X13062143Y-13549476D01*
X13062143Y-13444714D02*
X13071667Y-13425667D01*
X13090714Y-13416143D01*
X13119286Y-13416143D01*
X13138333Y-13425667D01*
X13147857Y-13444714D01*
X13147857Y-13549476D01*
X13538333Y-13339952D02*
X13366905Y-13597095D01*
X13795476Y-13349476D02*
X13814524Y-13349476D01*
X13833571Y-13359000D01*
X13843095Y-13368524D01*
X13852619Y-13387571D01*
X13862143Y-13425667D01*
X13862143Y-13473286D01*
X13852619Y-13511381D01*
X13843095Y-13530428D01*
X13833571Y-13539952D01*
X13814524Y-13549476D01*
X13795476Y-13549476D01*
X13776428Y-13539952D01*
X13766905Y-13530428D01*
X13757381Y-13511381D01*
X13747857Y-13473286D01*
X13747857Y-13425667D01*
X13757381Y-13387571D01*
X13766905Y-13368524D01*
X13776428Y-13359000D01*
X13795476Y-13349476D01*
X13947857Y-13530428D02*
X13957381Y-13539952D01*
X13947857Y-13549476D01*
X13938333Y-13539952D01*
X13947857Y-13530428D01*
X13947857Y-13549476D01*
X14081190Y-13349476D02*
X14100238Y-13349476D01*
X14119286Y-13359000D01*
X14128809Y-13368524D01*
X14138333Y-13387571D01*
X14147857Y-13425667D01*
X14147857Y-13473286D01*
X14138333Y-13511381D01*
X14128809Y-13530428D01*
X14119286Y-13539952D01*
X14100238Y-13549476D01*
X14081190Y-13549476D01*
X14062143Y-13539952D01*
X14052619Y-13530428D01*
X14043095Y-13511381D01*
X14033571Y-13473286D01*
X14033571Y-13425667D01*
X14043095Y-13387571D01*
X14052619Y-13368524D01*
X14062143Y-13359000D01*
X14081190Y-13349476D01*
X14214524Y-13349476D02*
X14338333Y-13349476D01*
X14271667Y-13425667D01*
X14300238Y-13425667D01*
X14319286Y-13435190D01*
X14328809Y-13444714D01*
X14338333Y-13463762D01*
X14338333Y-13511381D01*
X14328809Y-13530428D01*
X14319286Y-13539952D01*
X14300238Y-13549476D01*
X14243095Y-13549476D01*
X14224048Y-13539952D01*
X14214524Y-13530428D01*
X14433571Y-13549476D02*
X14471667Y-13549476D01*
X14490714Y-13539952D01*
X14500238Y-13530428D01*
X14519286Y-13501857D01*
X14528809Y-13463762D01*
X14528809Y-13387571D01*
X14519286Y-13368524D01*
X14509762Y-13359000D01*
X14490714Y-13349476D01*
X14452619Y-13349476D01*
X14433571Y-13359000D01*
X14424048Y-13368524D01*
X14414524Y-13387571D01*
X14414524Y-13435190D01*
X14424048Y-13454238D01*
X14433571Y-13463762D01*
X14452619Y-13473286D01*
X14490714Y-13473286D01*
X14509762Y-13463762D01*
X14519286Y-13454238D01*
X14528809Y-13435190D01*
X14700238Y-13416143D02*
X14700238Y-13549476D01*
X14652619Y-13339952D02*
X14605000Y-13482809D01*
X14728809Y-13482809D01*
X14795476Y-13349476D02*
X14795476Y-13387571D01*
X14871667Y-13349476D02*
X14871667Y-13387571D01*
X15166905Y-13625667D02*
X15157381Y-13616143D01*
X15138333Y-13587571D01*
X15128809Y-13568524D01*
X15119286Y-13539952D01*
X15109762Y-13492333D01*
X15109762Y-13454238D01*
X15119286Y-13406619D01*
X15128809Y-13378048D01*
X15138333Y-13359000D01*
X15157381Y-13330428D01*
X15166905Y-13320905D01*
X15224048Y-13349476D02*
X15357381Y-13349476D01*
X15271667Y-13549476D01*
X15471667Y-13349476D02*
X15490714Y-13349476D01*
X15509762Y-13359000D01*
X15519286Y-13368524D01*
X15528809Y-13387571D01*
X15538333Y-13425667D01*
X15538333Y-13473286D01*
X15528809Y-13511381D01*
X15519286Y-13530428D01*
X15509762Y-13539952D01*
X15490714Y-13549476D01*
X15471667Y-13549476D01*
X15452619Y-13539952D01*
X15443095Y-13530428D01*
X15433571Y-13511381D01*
X15424048Y-13473286D01*
X15424048Y-13425667D01*
X15433571Y-13387571D01*
X15443095Y-13368524D01*
X15452619Y-13359000D01*
X15471667Y-13349476D01*
X15776428Y-13549476D02*
X15776428Y-13349476D01*
X15862143Y-13549476D02*
X15862143Y-13444714D01*
X15852619Y-13425667D01*
X15833571Y-13416143D01*
X15805000Y-13416143D01*
X15785952Y-13425667D01*
X15776428Y-13435190D01*
X15985952Y-13549476D02*
X15966905Y-13539952D01*
X15957381Y-13530428D01*
X15947857Y-13511381D01*
X15947857Y-13454238D01*
X15957381Y-13435190D01*
X15966905Y-13425667D01*
X15985952Y-13416143D01*
X16014524Y-13416143D01*
X16033571Y-13425667D01*
X16043095Y-13435190D01*
X16052619Y-13454238D01*
X16052619Y-13511381D01*
X16043095Y-13530428D01*
X16033571Y-13539952D01*
X16014524Y-13549476D01*
X15985952Y-13549476D01*
X16166905Y-13549476D02*
X16147857Y-13539952D01*
X16138333Y-13520905D01*
X16138333Y-13349476D01*
X16319286Y-13539952D02*
X16300238Y-13549476D01*
X16262143Y-13549476D01*
X16243095Y-13539952D01*
X16233571Y-13520905D01*
X16233571Y-13444714D01*
X16243095Y-13425667D01*
X16262143Y-13416143D01*
X16300238Y-13416143D01*
X16319286Y-13425667D01*
X16328809Y-13444714D01*
X16328809Y-13463762D01*
X16233571Y-13482809D01*
X16405000Y-13539952D02*
X16424048Y-13549476D01*
X16462143Y-13549476D01*
X16481190Y-13539952D01*
X16490714Y-13520905D01*
X16490714Y-13511381D01*
X16481190Y-13492333D01*
X16462143Y-13482809D01*
X16433571Y-13482809D01*
X16414524Y-13473286D01*
X16405000Y-13454238D01*
X16405000Y-13444714D01*
X16414524Y-13425667D01*
X16433571Y-13416143D01*
X16462143Y-13416143D01*
X16481190Y-13425667D01*
X16557381Y-13625667D02*
X16566905Y-13616143D01*
X16585952Y-13587571D01*
X16595476Y-13568524D01*
X16605000Y-13539952D01*
X16614524Y-13492333D01*
X16614524Y-13454238D01*
X16605000Y-13406619D01*
X16595476Y-13378048D01*
X16585952Y-13359000D01*
X16566905Y-13330428D01*
X16557381Y-13320905D01*
M02*
