M48
; DRILL file {KiCad 6.0.11+dfsg-1~bpo11+1} date Thu 06 Apr 2023 13:37:59 CEST
; FORMAT={-:-/ absolute / metric / decimal}
; #@! TF.CreationDate,2023-04-06T13:37:59+02:00
; #@! TF.GenerationSoftware,Kicad,Pcbnew,6.0.11+dfsg-1~bpo11+1
; #@! TF.FileFunction,Plated,1,4,PTH
FMAT,2
METRIC
; #@! TA.AperFunction,Plated,PTH,ViaDrill
T1C0.400
; #@! TA.AperFunction,Plated,PTH,ComponentDrill
T2C1.000
; #@! TA.AperFunction,Plated,PTH,ComponentDrill
T3C1.400
%
G90
G05
T1
X140.6Y-106.67
X140.7Y-101.81
X145.25Y-106.8
X145.25Y-112.55
X147.15Y-104.35
X147.2Y-105.5
X147.9Y-100.25
X148.64Y-86.83
X150.0Y-96.7
X150.035Y-93.45
X150.3Y-106.85
X150.82Y-85.86
X151.95Y-93.45
X152.05Y-96.7
X153.0Y-106.8
X154.1Y-101.96
X155.0Y-103.65
X155.1Y-105.7
X159.5Y-91.5
X160.55Y-103.2
T2
X127.775Y-88.225
X127.775Y-90.765
X127.775Y-93.305
X127.775Y-95.845
X127.775Y-98.385
X127.775Y-100.925
X127.775Y-105.125
X127.775Y-107.665
X127.775Y-110.205
X127.775Y-112.745
X127.775Y-115.285
X127.775Y-117.825
X136.59Y-114.71
X136.59Y-117.25
X139.13Y-114.71
X139.13Y-117.25
X141.67Y-114.71
X141.67Y-117.25
X144.21Y-114.71
X144.21Y-117.25
X146.75Y-114.71
X146.75Y-117.25
X149.29Y-114.71
X149.29Y-117.25
X151.83Y-114.71
X151.83Y-117.25
X154.37Y-114.71
X154.37Y-117.25
X163.5Y-88.34
X163.5Y-90.88
X163.5Y-93.42
X163.5Y-95.96
X163.5Y-98.5
X163.5Y-101.04
X163.525Y-105.2
X163.525Y-107.74
X163.525Y-110.28
X163.525Y-112.82
X163.525Y-115.36
X163.525Y-117.9
T3
X122.64Y-73.278
X122.64Y-80.278
X127.72Y-73.278
X127.72Y-80.278
X132.8Y-73.278
X132.8Y-80.278
X137.88Y-73.278
X137.88Y-80.278
X142.96Y-73.278
X142.96Y-80.278
X148.04Y-73.278
X148.04Y-80.278
X153.12Y-73.278
X153.12Y-80.278
X158.2Y-73.278
X158.2Y-80.278
X163.28Y-73.278
X163.28Y-80.278
X168.36Y-73.278
X168.36Y-80.278
T0
M30
