%TF.GenerationSoftware,KiCad,Pcbnew,6.0.11+dfsg-1~bpo11+1*%
%TF.CreationDate,2023-04-06T13:05:17+02:00*%
%TF.ProjectId,ain-4_11,61696e2d-345f-4313-912e-6b696361645f,1.1*%
%TF.SameCoordinates,Original*%
%TF.FileFunction,Drillmap*%
%TF.FilePolarity,Positive*%
%FSLAX45Y45*%
G04 Gerber Fmt 4.5, Leading zero omitted, Abs format (unit mm)*
G04 Created by KiCad (PCBNEW 6.0.11+dfsg-1~bpo11+1) date 2023-04-06 13:05:17*
%MOMM*%
%LPD*%
G01*
G04 APERTURE LIST*
%ADD10C,0.100000*%
%ADD11C,0.200000*%
G04 APERTURE END LIST*
D10*
X18050000Y-8850000D02*
G75*
G03*
X18050000Y-8850000I-150000J0D01*
G01*
X13250000Y-8850000D02*
G75*
G03*
X13250000Y-8850000I-150000J0D01*
G01*
X18050000Y-11700000D02*
G75*
G03*
X18050000Y-11700000I-150000J0D01*
G01*
X13250000Y-11700000D02*
G75*
G03*
X13250000Y-11700000I-150000J0D01*
G01*
X12800000Y-12000000D02*
X18200000Y-12000000D01*
X18200000Y-12000000D02*
X18200000Y-6600000D01*
X18200000Y-6600000D02*
X12800000Y-6600000D01*
X12800000Y-6600000D02*
X12800000Y-12000000D01*
D11*
X13052619Y-12315476D02*
X13052619Y-12115476D01*
X13100238Y-12115476D01*
X13128809Y-12125000D01*
X13147857Y-12144048D01*
X13157381Y-12163095D01*
X13166905Y-12201190D01*
X13166905Y-12229762D01*
X13157381Y-12267857D01*
X13147857Y-12286905D01*
X13128809Y-12305952D01*
X13100238Y-12315476D01*
X13052619Y-12315476D01*
X13252619Y-12315476D02*
X13252619Y-12182143D01*
X13252619Y-12220238D02*
X13262143Y-12201190D01*
X13271667Y-12191667D01*
X13290714Y-12182143D01*
X13309762Y-12182143D01*
X13376428Y-12315476D02*
X13376428Y-12182143D01*
X13376428Y-12115476D02*
X13366905Y-12125000D01*
X13376428Y-12134524D01*
X13385952Y-12125000D01*
X13376428Y-12115476D01*
X13376428Y-12134524D01*
X13500238Y-12315476D02*
X13481190Y-12305952D01*
X13471667Y-12286905D01*
X13471667Y-12115476D01*
X13605000Y-12315476D02*
X13585952Y-12305952D01*
X13576428Y-12286905D01*
X13576428Y-12115476D01*
X13833571Y-12315476D02*
X13833571Y-12115476D01*
X13900238Y-12258333D01*
X13966905Y-12115476D01*
X13966905Y-12315476D01*
X14147857Y-12315476D02*
X14147857Y-12210714D01*
X14138333Y-12191667D01*
X14119286Y-12182143D01*
X14081190Y-12182143D01*
X14062143Y-12191667D01*
X14147857Y-12305952D02*
X14128809Y-12315476D01*
X14081190Y-12315476D01*
X14062143Y-12305952D01*
X14052619Y-12286905D01*
X14052619Y-12267857D01*
X14062143Y-12248809D01*
X14081190Y-12239286D01*
X14128809Y-12239286D01*
X14147857Y-12229762D01*
X14243095Y-12182143D02*
X14243095Y-12382143D01*
X14243095Y-12191667D02*
X14262143Y-12182143D01*
X14300238Y-12182143D01*
X14319286Y-12191667D01*
X14328809Y-12201190D01*
X14338333Y-12220238D01*
X14338333Y-12277381D01*
X14328809Y-12296428D01*
X14319286Y-12305952D01*
X14300238Y-12315476D01*
X14262143Y-12315476D01*
X14243095Y-12305952D01*
X14424048Y-12296428D02*
X14433571Y-12305952D01*
X14424048Y-12315476D01*
X14414524Y-12305952D01*
X14424048Y-12296428D01*
X14424048Y-12315476D01*
X14424048Y-12191667D02*
X14433571Y-12201190D01*
X14424048Y-12210714D01*
X14414524Y-12201190D01*
X14424048Y-12191667D01*
X14424048Y-12210714D01*
M02*
