%TF.GenerationSoftware,KiCad,Pcbnew,6.0.11+dfsg-1~bpo11+1*%
%TF.CreationDate,2023-04-06T13:05:30+02:00*%
%TF.ProjectId,ain-4_11,61696e2d-345f-4313-912e-6b696361645f,1.1*%
%TF.SameCoordinates,Original*%
%TF.FileFunction,Soldermask,Bot*%
%TF.FilePolarity,Negative*%
%FSLAX46Y46*%
G04 Gerber Fmt 4.6, Leading zero omitted, Abs format (unit mm)*
G04 Created by KiCad (PCBNEW 6.0.11+dfsg-1~bpo11+1) date 2023-04-06 13:05:30*
%MOMM*%
%LPD*%
G01*
G04 APERTURE LIST*
G04 Aperture macros list*
%AMRoundRect*
0 Rectangle with rounded corners*
0 $1 Rounding radius*
0 $2 $3 $4 $5 $6 $7 $8 $9 X,Y pos of 4 corners*
0 Add a 4 corners polygon primitive as box body*
4,1,4,$2,$3,$4,$5,$6,$7,$8,$9,$2,$3,0*
0 Add four circle primitives for the rounded corners*
1,1,$1+$1,$2,$3*
1,1,$1+$1,$4,$5*
1,1,$1+$1,$6,$7*
1,1,$1+$1,$8,$9*
0 Add four rect primitives between the rounded corners*
20,1,$1+$1,$2,$3,$4,$5,0*
20,1,$1+$1,$4,$5,$6,$7,0*
20,1,$1+$1,$6,$7,$8,$9,0*
20,1,$1+$1,$8,$9,$2,$3,0*%
G04 Aperture macros list end*
%ADD10R,1.700000X1.700000*%
%ADD11O,1.700000X1.700000*%
%ADD12C,1.440000*%
%ADD13RoundRect,0.250000X0.750000X1.550000X-0.750000X1.550000X-0.750000X-1.550000X0.750000X-1.550000X0*%
%ADD14O,2.000000X3.600000*%
%ADD15RoundRect,0.249999X0.790001X1.550001X-0.790001X1.550001X-0.790001X-1.550001X0.790001X-1.550001X0*%
%ADD16O,2.080000X3.600000*%
G04 APERTURE END LIST*
D10*
%TO.C,J1*%
X167840000Y-93450000D03*
D11*
X165300000Y-93450000D03*
X162760000Y-93450000D03*
X160220000Y-93450000D03*
X157680000Y-93450000D03*
X155140000Y-93450000D03*
X152600000Y-93450000D03*
X150060000Y-93450000D03*
X147520000Y-93450000D03*
X144980000Y-93450000D03*
%TD*%
D10*
%TO.C,J2*%
X163865000Y-115225000D03*
D11*
X163865000Y-117765000D03*
X161325000Y-115225000D03*
X161325000Y-117765000D03*
X158785000Y-115225000D03*
X158785000Y-117765000D03*
X156245000Y-115225000D03*
X156245000Y-117765000D03*
X153705000Y-115225000D03*
X153705000Y-117765000D03*
X151165000Y-115225000D03*
X151165000Y-117765000D03*
X148625000Y-115225000D03*
X148625000Y-117765000D03*
X146085000Y-115225000D03*
X146085000Y-117765000D03*
%TD*%
D12*
%TO.C,RV4*%
X140230000Y-93700000D03*
X137690000Y-93700000D03*
X135150000Y-93700000D03*
%TD*%
D13*
%TO.C,J3*%
X177500000Y-70277500D03*
D14*
X172500000Y-70277500D03*
X167500000Y-70277500D03*
X162500000Y-70277500D03*
X157500000Y-70277500D03*
X152500000Y-70277500D03*
X147500000Y-70277500D03*
X142500000Y-70277500D03*
X137500000Y-70277500D03*
X132500000Y-70277500D03*
%TD*%
D15*
%TO.C,J4*%
X177860000Y-77277500D03*
D16*
X172780000Y-77277500D03*
X167700000Y-77277500D03*
X162620000Y-77277500D03*
X157540000Y-77277500D03*
X152460000Y-77277500D03*
X147380000Y-77277500D03*
X142300000Y-77277500D03*
X137220000Y-77277500D03*
X132140000Y-77277500D03*
%TD*%
M02*
