%TF.GenerationSoftware,KiCad,Pcbnew,6.0.11+dfsg-1~bpo11+1*%
%TF.CreationDate,2023-04-06T13:05:29+02:00*%
%TF.ProjectId,ain-4_11,61696e2d-345f-4313-912e-6b696361645f,1.1*%
%TF.SameCoordinates,Original*%
%TF.FileFunction,Legend,Bot*%
%TF.FilePolarity,Positive*%
%FSLAX46Y46*%
G04 Gerber Fmt 4.6, Leading zero omitted, Abs format (unit mm)*
G04 Created by KiCad (PCBNEW 6.0.11+dfsg-1~bpo11+1) date 2023-04-06 13:05:29*
%MOMM*%
%LPD*%
G01*
G04 APERTURE LIST*
%ADD10C,0.120000*%
%ADD11C,0.150000*%
%ADD12C,0.600000*%
%ADD13C,0.300000*%
%ADD14C,0.010000*%
G04 APERTURE END LIST*
D10*
X164233333Y-113250000D02*
X164300000Y-113216666D01*
X164400000Y-113216666D01*
X164500000Y-113250000D01*
X164566666Y-113316666D01*
X164600000Y-113383333D01*
X164633333Y-113516666D01*
X164633333Y-113616666D01*
X164600000Y-113750000D01*
X164566666Y-113816666D01*
X164500000Y-113883333D01*
X164400000Y-113916666D01*
X164333333Y-113916666D01*
X164233333Y-113883333D01*
X164200000Y-113850000D01*
X164200000Y-113616666D01*
X164333333Y-113616666D01*
X163900000Y-113916666D02*
X163900000Y-113216666D01*
X163500000Y-113916666D01*
X163500000Y-113216666D01*
X163166666Y-113916666D02*
X163166666Y-113216666D01*
X163000000Y-113216666D01*
X162900000Y-113250000D01*
X162833333Y-113316666D01*
X162800000Y-113383333D01*
X162766666Y-113516666D01*
X162766666Y-113616666D01*
X162800000Y-113750000D01*
X162833333Y-113816666D01*
X162900000Y-113883333D01*
X163000000Y-113916666D01*
X163166666Y-113916666D01*
D11*
X145959523Y-91796428D02*
X145197619Y-91796428D01*
X145578571Y-92177380D02*
X145578571Y-91415476D01*
X144864285Y-91177380D02*
X144530952Y-92177380D01*
X144197619Y-91177380D01*
D10*
X147333333Y-113650000D02*
X146800000Y-113650000D01*
X147066666Y-113916666D02*
X147066666Y-113383333D01*
X146500000Y-113283333D02*
X146466666Y-113250000D01*
X146400000Y-113216666D01*
X146233333Y-113216666D01*
X146166666Y-113250000D01*
X146133333Y-113283333D01*
X146100000Y-113350000D01*
X146100000Y-113416666D01*
X146133333Y-113516666D01*
X146533333Y-113916666D01*
X146100000Y-113916666D01*
X145500000Y-113450000D02*
X145500000Y-113916666D01*
X145666666Y-113183333D02*
X145833333Y-113683333D01*
X145400000Y-113683333D01*
X145233333Y-113216666D02*
X145000000Y-113916666D01*
X144766666Y-113216666D01*
X168000000Y-67716666D02*
X167666666Y-67716666D01*
X168066666Y-67916666D02*
X167833333Y-67216666D01*
X167600000Y-67916666D01*
X167066666Y-67450000D02*
X167066666Y-67916666D01*
X167233333Y-67183333D02*
X167400000Y-67683333D01*
X166966666Y-67683333D01*
X149483333Y-119350000D02*
X149250000Y-119350000D01*
X149150000Y-119716666D02*
X149483333Y-119716666D01*
X149483333Y-119016666D01*
X149150000Y-119016666D01*
X148950000Y-119016666D02*
X148550000Y-119016666D01*
X148750000Y-119716666D02*
X148750000Y-119016666D01*
X148316666Y-119716666D02*
X148316666Y-119016666D01*
X148316666Y-119350000D02*
X147916666Y-119350000D01*
X147916666Y-119716666D02*
X147916666Y-119016666D01*
X173033333Y-67250000D02*
X173100000Y-67216666D01*
X173200000Y-67216666D01*
X173300000Y-67250000D01*
X173366666Y-67316666D01*
X173400000Y-67383333D01*
X173433333Y-67516666D01*
X173433333Y-67616666D01*
X173400000Y-67750000D01*
X173366666Y-67816666D01*
X173300000Y-67883333D01*
X173200000Y-67916666D01*
X173133333Y-67916666D01*
X173033333Y-67883333D01*
X173000000Y-67850000D01*
X173000000Y-67616666D01*
X173133333Y-67616666D01*
X172700000Y-67916666D02*
X172700000Y-67216666D01*
X172300000Y-67916666D01*
X172300000Y-67216666D01*
X171966666Y-67916666D02*
X171966666Y-67216666D01*
X171800000Y-67216666D01*
X171700000Y-67250000D01*
X171633333Y-67316666D01*
X171600000Y-67383333D01*
X171566666Y-67516666D01*
X171566666Y-67616666D01*
X171600000Y-67750000D01*
X171633333Y-67816666D01*
X171700000Y-67883333D01*
X171800000Y-67916666D01*
X171966666Y-67916666D01*
X143733333Y-79750000D02*
X143500000Y-79750000D01*
X143400000Y-80116666D02*
X143733333Y-80116666D01*
X143733333Y-79416666D01*
X143400000Y-79416666D01*
X143133333Y-79916666D02*
X142800000Y-79916666D01*
X143200000Y-80116666D02*
X142966666Y-79416666D01*
X142733333Y-80116666D01*
X142100000Y-80116666D02*
X142333333Y-79783333D01*
X142500000Y-80116666D02*
X142500000Y-79416666D01*
X142233333Y-79416666D01*
X142166666Y-79450000D01*
X142133333Y-79483333D01*
X142100000Y-79550000D01*
X142100000Y-79650000D01*
X142133333Y-79716666D01*
X142166666Y-79750000D01*
X142233333Y-79783333D01*
X142500000Y-79783333D01*
X141900000Y-79416666D02*
X141500000Y-79416666D01*
X141700000Y-80116666D02*
X141700000Y-79416666D01*
X141266666Y-80116666D02*
X141266666Y-79416666D01*
X141266666Y-79750000D02*
X140866666Y-79750000D01*
X140866666Y-80116666D02*
X140866666Y-79416666D01*
X132733333Y-79450000D02*
X132800000Y-79416666D01*
X132900000Y-79416666D01*
X133000000Y-79450000D01*
X133066666Y-79516666D01*
X133100000Y-79583333D01*
X133133333Y-79716666D01*
X133133333Y-79816666D01*
X133100000Y-79950000D01*
X133066666Y-80016666D01*
X133000000Y-80083333D01*
X132900000Y-80116666D01*
X132833333Y-80116666D01*
X132733333Y-80083333D01*
X132700000Y-80050000D01*
X132700000Y-79816666D01*
X132833333Y-79816666D01*
X132400000Y-80116666D02*
X132400000Y-79416666D01*
X132000000Y-80116666D01*
X132000000Y-79416666D01*
X131666666Y-80116666D02*
X131666666Y-79416666D01*
X131500000Y-79416666D01*
X131400000Y-79450000D01*
X131333333Y-79516666D01*
X131300000Y-79583333D01*
X131266666Y-79716666D01*
X131266666Y-79816666D01*
X131300000Y-79950000D01*
X131333333Y-80016666D01*
X131400000Y-80083333D01*
X131500000Y-80116666D01*
X131666666Y-80116666D01*
D11*
X168464285Y-91866666D02*
X167988095Y-91866666D01*
X168559523Y-92152380D02*
X168226190Y-91152380D01*
X167892857Y-92152380D01*
X167130952Y-91485714D02*
X167130952Y-92152380D01*
X167369047Y-91104761D02*
X167607142Y-91819047D01*
X166988095Y-91819047D01*
X152736904Y-92202380D02*
X152736904Y-91202380D01*
X152498809Y-91202380D01*
X152355952Y-91250000D01*
X152260714Y-91345238D01*
X152213095Y-91440476D01*
X152165476Y-91630952D01*
X152165476Y-91773809D01*
X152213095Y-91964285D01*
X152260714Y-92059523D01*
X152355952Y-92154761D01*
X152498809Y-92202380D01*
X152736904Y-92202380D01*
X154864285Y-92147619D02*
X155435714Y-92147619D01*
X155150000Y-91147619D02*
X155150000Y-92147619D01*
D10*
X133933333Y-67650000D02*
X133400000Y-67650000D01*
X133666666Y-67916666D02*
X133666666Y-67383333D01*
X133100000Y-67283333D02*
X133066666Y-67250000D01*
X133000000Y-67216666D01*
X132833333Y-67216666D01*
X132766666Y-67250000D01*
X132733333Y-67283333D01*
X132700000Y-67350000D01*
X132700000Y-67416666D01*
X132733333Y-67516666D01*
X133133333Y-67916666D01*
X132700000Y-67916666D01*
X132100000Y-67450000D02*
X132100000Y-67916666D01*
X132266666Y-67183333D02*
X132433333Y-67683333D01*
X132000000Y-67683333D01*
X131833333Y-67216666D02*
X131600000Y-67916666D01*
X131366666Y-67216666D01*
D11*
X165864285Y-91841666D02*
X165388095Y-91841666D01*
X165959523Y-92127380D02*
X165626190Y-91127380D01*
X165292857Y-92127380D01*
X165054761Y-91127380D02*
X164435714Y-91127380D01*
X164769047Y-91508333D01*
X164626190Y-91508333D01*
X164530952Y-91555952D01*
X164483333Y-91603571D01*
X164435714Y-91698809D01*
X164435714Y-91936904D01*
X164483333Y-92032142D01*
X164530952Y-92079761D01*
X164626190Y-92127380D01*
X164911904Y-92127380D01*
X165007142Y-92079761D01*
X165054761Y-92032142D01*
D10*
X138000000Y-67716666D02*
X137666666Y-67716666D01*
X138066666Y-67916666D02*
X137833333Y-67216666D01*
X137600000Y-67916666D01*
X137000000Y-67916666D02*
X137400000Y-67916666D01*
X137200000Y-67916666D02*
X137200000Y-67216666D01*
X137266666Y-67316666D01*
X137333333Y-67383333D01*
X137400000Y-67416666D01*
X152633333Y-119450000D02*
X152100000Y-119450000D01*
X152366666Y-119716666D02*
X152366666Y-119183333D01*
X151400000Y-119716666D02*
X151800000Y-119716666D01*
X151600000Y-119716666D02*
X151600000Y-119016666D01*
X151666666Y-119116666D01*
X151733333Y-119183333D01*
X151800000Y-119216666D01*
X151133333Y-119083333D02*
X151100000Y-119050000D01*
X151033333Y-119016666D01*
X150866666Y-119016666D01*
X150800000Y-119050000D01*
X150766666Y-119083333D01*
X150733333Y-119150000D01*
X150733333Y-119216666D01*
X150766666Y-119316666D01*
X151166666Y-119716666D01*
X150733333Y-119716666D01*
X150533333Y-119016666D02*
X150300000Y-119716666D01*
X150066666Y-119016666D01*
X178933333Y-67550000D02*
X178700000Y-67550000D01*
X178600000Y-67916666D02*
X178933333Y-67916666D01*
X178933333Y-67216666D01*
X178600000Y-67216666D01*
X178333333Y-67716666D02*
X178000000Y-67716666D01*
X178400000Y-67916666D02*
X178166666Y-67216666D01*
X177933333Y-67916666D01*
X177300000Y-67916666D02*
X177533333Y-67583333D01*
X177700000Y-67916666D02*
X177700000Y-67216666D01*
X177433333Y-67216666D01*
X177366666Y-67250000D01*
X177333333Y-67283333D01*
X177300000Y-67350000D01*
X177300000Y-67450000D01*
X177333333Y-67516666D01*
X177366666Y-67550000D01*
X177433333Y-67583333D01*
X177700000Y-67583333D01*
X177100000Y-67216666D02*
X176700000Y-67216666D01*
X176900000Y-67916666D02*
X176900000Y-67216666D01*
X176466666Y-67916666D02*
X176466666Y-67216666D01*
X176466666Y-67550000D02*
X176066666Y-67550000D01*
X176066666Y-67916666D02*
X176066666Y-67216666D01*
X154900000Y-119450000D02*
X154366666Y-119450000D01*
X154633333Y-119716666D02*
X154633333Y-119183333D01*
X153700000Y-119016666D02*
X154033333Y-119016666D01*
X154066666Y-119350000D01*
X154033333Y-119316666D01*
X153966666Y-119283333D01*
X153800000Y-119283333D01*
X153733333Y-119316666D01*
X153700000Y-119350000D01*
X153666666Y-119416666D01*
X153666666Y-119583333D01*
X153700000Y-119650000D01*
X153733333Y-119683333D01*
X153800000Y-119716666D01*
X153966666Y-119716666D01*
X154033333Y-119683333D01*
X154066666Y-119650000D01*
X153466666Y-119016666D02*
X153233333Y-119716666D01*
X153000000Y-119016666D01*
D11*
X163364285Y-91816666D02*
X162888095Y-91816666D01*
X163459523Y-92102380D02*
X163126190Y-91102380D01*
X162792857Y-92102380D01*
X162507142Y-91197619D02*
X162459523Y-91150000D01*
X162364285Y-91102380D01*
X162126190Y-91102380D01*
X162030952Y-91150000D01*
X161983333Y-91197619D01*
X161935714Y-91292857D01*
X161935714Y-91388095D01*
X161983333Y-91530952D01*
X162554761Y-92102380D01*
X161935714Y-92102380D01*
X160385714Y-112502380D02*
X160719047Y-112026190D01*
X160957142Y-112502380D02*
X160957142Y-111502380D01*
X160576190Y-111502380D01*
X160480952Y-111550000D01*
X160433333Y-111597619D01*
X160385714Y-111692857D01*
X160385714Y-111835714D01*
X160433333Y-111930952D01*
X160480952Y-111978571D01*
X160576190Y-112026190D01*
X160957142Y-112026190D01*
X159957142Y-112502380D02*
X159957142Y-111502380D01*
X159147619Y-111978571D02*
X159004761Y-112026190D01*
X158957142Y-112073809D01*
X158909523Y-112169047D01*
X158909523Y-112311904D01*
X158957142Y-112407142D01*
X159004761Y-112454761D01*
X159100000Y-112502380D01*
X159480952Y-112502380D01*
X159480952Y-111502380D01*
X159147619Y-111502380D01*
X159052380Y-111550000D01*
X159004761Y-111597619D01*
X158957142Y-111692857D01*
X158957142Y-111788095D01*
X159004761Y-111883333D01*
X159052380Y-111930952D01*
X159147619Y-111978571D01*
X159480952Y-111978571D01*
X157004761Y-111454761D02*
X157861904Y-112740476D01*
X155338095Y-112407142D02*
X155385714Y-112454761D01*
X155528571Y-112502380D01*
X155623809Y-112502380D01*
X155766666Y-112454761D01*
X155861904Y-112359523D01*
X155909523Y-112264285D01*
X155957142Y-112073809D01*
X155957142Y-111930952D01*
X155909523Y-111740476D01*
X155861904Y-111645238D01*
X155766666Y-111550000D01*
X155623809Y-111502380D01*
X155528571Y-111502380D01*
X155385714Y-111550000D01*
X155338095Y-111597619D01*
X154719047Y-111502380D02*
X154528571Y-111502380D01*
X154433333Y-111550000D01*
X154338095Y-111645238D01*
X154290476Y-111835714D01*
X154290476Y-112169047D01*
X154338095Y-112359523D01*
X154433333Y-112454761D01*
X154528571Y-112502380D01*
X154719047Y-112502380D01*
X154814285Y-112454761D01*
X154909523Y-112359523D01*
X154957142Y-112169047D01*
X154957142Y-111835714D01*
X154909523Y-111645238D01*
X154814285Y-111550000D01*
X154719047Y-111502380D01*
X153909523Y-112454761D02*
X153766666Y-112502380D01*
X153528571Y-112502380D01*
X153433333Y-112454761D01*
X153385714Y-112407142D01*
X153338095Y-112311904D01*
X153338095Y-112216666D01*
X153385714Y-112121428D01*
X153433333Y-112073809D01*
X153528571Y-112026190D01*
X153719047Y-111978571D01*
X153814285Y-111930952D01*
X153861904Y-111883333D01*
X153909523Y-111788095D01*
X153909523Y-111692857D01*
X153861904Y-111597619D01*
X153814285Y-111550000D01*
X153719047Y-111502380D01*
X153480952Y-111502380D01*
X153338095Y-111550000D01*
X153052380Y-111502380D02*
X152480952Y-111502380D01*
X152766666Y-112502380D02*
X152766666Y-111502380D01*
X152147619Y-111978571D02*
X151814285Y-111978571D01*
X151671428Y-112502380D02*
X152147619Y-112502380D01*
X152147619Y-111502380D01*
X151671428Y-111502380D01*
X150766666Y-112502380D02*
X151242857Y-112502380D01*
X151242857Y-111502380D01*
X149957142Y-112502380D02*
X150433333Y-112502380D01*
X150433333Y-111502380D01*
X149671428Y-112216666D02*
X149195238Y-112216666D01*
X149766666Y-112502380D02*
X149433333Y-111502380D01*
X149100000Y-112502380D01*
X147239285Y-92172619D02*
X147810714Y-92172619D01*
X147525000Y-91172619D02*
X147525000Y-92172619D01*
D10*
X156271428Y-87889285D02*
X156092857Y-88389285D01*
X155914285Y-87889285D01*
X155235714Y-88389285D02*
X155664285Y-88389285D01*
X155450000Y-88389285D02*
X155450000Y-87639285D01*
X155521428Y-87746428D01*
X155592857Y-87817857D01*
X155664285Y-87853571D01*
X154914285Y-88317857D02*
X154878571Y-88353571D01*
X154914285Y-88389285D01*
X154950000Y-88353571D01*
X154914285Y-88317857D01*
X154914285Y-88389285D01*
X154164285Y-88389285D02*
X154592857Y-88389285D01*
X154378571Y-88389285D02*
X154378571Y-87639285D01*
X154450000Y-87746428D01*
X154521428Y-87817857D01*
X154592857Y-87853571D01*
X153933333Y-79750000D02*
X153700000Y-79750000D01*
X153600000Y-80116666D02*
X153933333Y-80116666D01*
X153933333Y-79416666D01*
X153600000Y-79416666D01*
X153333333Y-79916666D02*
X153000000Y-79916666D01*
X153400000Y-80116666D02*
X153166666Y-79416666D01*
X152933333Y-80116666D01*
X152300000Y-80116666D02*
X152533333Y-79783333D01*
X152700000Y-80116666D02*
X152700000Y-79416666D01*
X152433333Y-79416666D01*
X152366666Y-79450000D01*
X152333333Y-79483333D01*
X152300000Y-79550000D01*
X152300000Y-79650000D01*
X152333333Y-79716666D01*
X152366666Y-79750000D01*
X152433333Y-79783333D01*
X152700000Y-79783333D01*
X152100000Y-79416666D02*
X151700000Y-79416666D01*
X151900000Y-80116666D02*
X151900000Y-79416666D01*
X151466666Y-80116666D02*
X151466666Y-79416666D01*
X151466666Y-79750000D02*
X151066666Y-79750000D01*
X151066666Y-80116666D02*
X151066666Y-79416666D01*
X149033333Y-113250000D02*
X149100000Y-113216666D01*
X149200000Y-113216666D01*
X149300000Y-113250000D01*
X149366666Y-113316666D01*
X149400000Y-113383333D01*
X149433333Y-113516666D01*
X149433333Y-113616666D01*
X149400000Y-113750000D01*
X149366666Y-113816666D01*
X149300000Y-113883333D01*
X149200000Y-113916666D01*
X149133333Y-113916666D01*
X149033333Y-113883333D01*
X149000000Y-113850000D01*
X149000000Y-113616666D01*
X149133333Y-113616666D01*
X148700000Y-113916666D02*
X148700000Y-113216666D01*
X148300000Y-113916666D01*
X148300000Y-113216666D01*
X147966666Y-113916666D02*
X147966666Y-113216666D01*
X147800000Y-113216666D01*
X147700000Y-113250000D01*
X147633333Y-113316666D01*
X147600000Y-113383333D01*
X147566666Y-113516666D01*
X147566666Y-113616666D01*
X147600000Y-113750000D01*
X147633333Y-113816666D01*
X147700000Y-113883333D01*
X147800000Y-113916666D01*
X147966666Y-113916666D01*
X143033333Y-67250000D02*
X143100000Y-67216666D01*
X143200000Y-67216666D01*
X143300000Y-67250000D01*
X143366666Y-67316666D01*
X143400000Y-67383333D01*
X143433333Y-67516666D01*
X143433333Y-67616666D01*
X143400000Y-67750000D01*
X143366666Y-67816666D01*
X143300000Y-67883333D01*
X143200000Y-67916666D01*
X143133333Y-67916666D01*
X143033333Y-67883333D01*
X143000000Y-67850000D01*
X143000000Y-67616666D01*
X143133333Y-67616666D01*
X142700000Y-67916666D02*
X142700000Y-67216666D01*
X142300000Y-67916666D01*
X142300000Y-67216666D01*
X141966666Y-67916666D02*
X141966666Y-67216666D01*
X141800000Y-67216666D01*
X141700000Y-67250000D01*
X141633333Y-67316666D01*
X141600000Y-67383333D01*
X141566666Y-67516666D01*
X141566666Y-67616666D01*
X141600000Y-67750000D01*
X141633333Y-67816666D01*
X141700000Y-67883333D01*
X141800000Y-67916666D01*
X141966666Y-67916666D01*
X169133333Y-79850000D02*
X168600000Y-79850000D01*
X168866666Y-80116666D02*
X168866666Y-79583333D01*
X168300000Y-79483333D02*
X168266666Y-79450000D01*
X168200000Y-79416666D01*
X168033333Y-79416666D01*
X167966666Y-79450000D01*
X167933333Y-79483333D01*
X167900000Y-79550000D01*
X167900000Y-79616666D01*
X167933333Y-79716666D01*
X168333333Y-80116666D01*
X167900000Y-80116666D01*
X167300000Y-79650000D02*
X167300000Y-80116666D01*
X167466666Y-79383333D02*
X167633333Y-79883333D01*
X167200000Y-79883333D01*
X167033333Y-79416666D02*
X166800000Y-80116666D01*
X166566666Y-79416666D01*
X164033333Y-79750000D02*
X163800000Y-79750000D01*
X163700000Y-80116666D02*
X164033333Y-80116666D01*
X164033333Y-79416666D01*
X163700000Y-79416666D01*
X163433333Y-79916666D02*
X163100000Y-79916666D01*
X163500000Y-80116666D02*
X163266666Y-79416666D01*
X163033333Y-80116666D01*
X162400000Y-80116666D02*
X162633333Y-79783333D01*
X162800000Y-80116666D02*
X162800000Y-79416666D01*
X162533333Y-79416666D01*
X162466666Y-79450000D01*
X162433333Y-79483333D01*
X162400000Y-79550000D01*
X162400000Y-79650000D01*
X162433333Y-79716666D01*
X162466666Y-79750000D01*
X162533333Y-79783333D01*
X162800000Y-79783333D01*
X162200000Y-79416666D02*
X161800000Y-79416666D01*
X162000000Y-80116666D02*
X162000000Y-79416666D01*
X161566666Y-80116666D02*
X161566666Y-79416666D01*
X161566666Y-79750000D02*
X161166666Y-79750000D01*
X161166666Y-80116666D02*
X161166666Y-79416666D01*
X174233333Y-79750000D02*
X174000000Y-79750000D01*
X173900000Y-80116666D02*
X174233333Y-80116666D01*
X174233333Y-79416666D01*
X173900000Y-79416666D01*
X173633333Y-79916666D02*
X173300000Y-79916666D01*
X173700000Y-80116666D02*
X173466666Y-79416666D01*
X173233333Y-80116666D01*
X172600000Y-80116666D02*
X172833333Y-79783333D01*
X173000000Y-80116666D02*
X173000000Y-79416666D01*
X172733333Y-79416666D01*
X172666666Y-79450000D01*
X172633333Y-79483333D01*
X172600000Y-79550000D01*
X172600000Y-79650000D01*
X172633333Y-79716666D01*
X172666666Y-79750000D01*
X172733333Y-79783333D01*
X173000000Y-79783333D01*
X172400000Y-79416666D02*
X172000000Y-79416666D01*
X172200000Y-80116666D02*
X172200000Y-79416666D01*
X171766666Y-80116666D02*
X171766666Y-79416666D01*
X171766666Y-79750000D02*
X171366666Y-79750000D01*
X171366666Y-80116666D02*
X171366666Y-79416666D01*
D11*
X160814285Y-91866666D02*
X160338095Y-91866666D01*
X160909523Y-92152380D02*
X160576190Y-91152380D01*
X160242857Y-92152380D01*
X159385714Y-92152380D02*
X159957142Y-92152380D01*
X159671428Y-92152380D02*
X159671428Y-91152380D01*
X159766666Y-91295238D01*
X159861904Y-91390476D01*
X159957142Y-91438095D01*
X149790476Y-92082142D02*
X149838095Y-92129761D01*
X149980952Y-92177380D01*
X150076190Y-92177380D01*
X150219047Y-92129761D01*
X150314285Y-92034523D01*
X150361904Y-91939285D01*
X150409523Y-91748809D01*
X150409523Y-91605952D01*
X150361904Y-91415476D01*
X150314285Y-91320238D01*
X150219047Y-91225000D01*
X150076190Y-91177380D01*
X149980952Y-91177380D01*
X149838095Y-91225000D01*
X149790476Y-91272619D01*
D10*
X153033333Y-67250000D02*
X153100000Y-67216666D01*
X153200000Y-67216666D01*
X153300000Y-67250000D01*
X153366666Y-67316666D01*
X153400000Y-67383333D01*
X153433333Y-67516666D01*
X153433333Y-67616666D01*
X153400000Y-67750000D01*
X153366666Y-67816666D01*
X153300000Y-67883333D01*
X153200000Y-67916666D01*
X153133333Y-67916666D01*
X153033333Y-67883333D01*
X153000000Y-67850000D01*
X153000000Y-67616666D01*
X153133333Y-67616666D01*
X152700000Y-67916666D02*
X152700000Y-67216666D01*
X152300000Y-67916666D01*
X152300000Y-67216666D01*
X151966666Y-67916666D02*
X151966666Y-67216666D01*
X151800000Y-67216666D01*
X151700000Y-67250000D01*
X151633333Y-67316666D01*
X151600000Y-67383333D01*
X151566666Y-67516666D01*
X151566666Y-67616666D01*
X151600000Y-67750000D01*
X151633333Y-67816666D01*
X151700000Y-67883333D01*
X151800000Y-67916666D01*
X151966666Y-67916666D01*
X138533333Y-79850000D02*
X138000000Y-79850000D01*
X138266666Y-80116666D02*
X138266666Y-79583333D01*
X137700000Y-79483333D02*
X137666666Y-79450000D01*
X137600000Y-79416666D01*
X137433333Y-79416666D01*
X137366666Y-79450000D01*
X137333333Y-79483333D01*
X137300000Y-79550000D01*
X137300000Y-79616666D01*
X137333333Y-79716666D01*
X137733333Y-80116666D01*
X137300000Y-80116666D01*
X136700000Y-79650000D02*
X136700000Y-80116666D01*
X136866666Y-79383333D02*
X137033333Y-79883333D01*
X136600000Y-79883333D01*
X136433333Y-79416666D02*
X136200000Y-80116666D01*
X135966666Y-79416666D01*
X152333333Y-113650000D02*
X151800000Y-113650000D01*
X151100000Y-113916666D02*
X151500000Y-113916666D01*
X151300000Y-113916666D02*
X151300000Y-113216666D01*
X151366666Y-113316666D01*
X151433333Y-113383333D01*
X151500000Y-113416666D01*
X150833333Y-113283333D02*
X150800000Y-113250000D01*
X150733333Y-113216666D01*
X150566666Y-113216666D01*
X150500000Y-113250000D01*
X150466666Y-113283333D01*
X150433333Y-113350000D01*
X150433333Y-113416666D01*
X150466666Y-113516666D01*
X150866666Y-113916666D01*
X150433333Y-113916666D01*
X150233333Y-113216666D02*
X150000000Y-113916666D01*
X149766666Y-113216666D01*
X148000000Y-67716666D02*
X147666666Y-67716666D01*
X148066666Y-67916666D02*
X147833333Y-67216666D01*
X147600000Y-67916666D01*
X147400000Y-67283333D02*
X147366666Y-67250000D01*
X147300000Y-67216666D01*
X147133333Y-67216666D01*
X147066666Y-67250000D01*
X147033333Y-67283333D01*
X147000000Y-67350000D01*
X147000000Y-67416666D01*
X147033333Y-67516666D01*
X147433333Y-67916666D01*
X147000000Y-67916666D01*
X179433333Y-79950000D02*
X178900000Y-79950000D01*
X179166666Y-80216666D02*
X179166666Y-79683333D01*
X178600000Y-79583333D02*
X178566666Y-79550000D01*
X178500000Y-79516666D01*
X178333333Y-79516666D01*
X178266666Y-79550000D01*
X178233333Y-79583333D01*
X178200000Y-79650000D01*
X178200000Y-79716666D01*
X178233333Y-79816666D01*
X178633333Y-80216666D01*
X178200000Y-80216666D01*
X177600000Y-79750000D02*
X177600000Y-80216666D01*
X177766666Y-79483333D02*
X177933333Y-79983333D01*
X177500000Y-79983333D01*
X177333333Y-79516666D02*
X177100000Y-80216666D01*
X176866666Y-79516666D01*
X162050000Y-113883333D02*
X161950000Y-113916666D01*
X161783333Y-113916666D01*
X161716666Y-113883333D01*
X161683333Y-113850000D01*
X161650000Y-113783333D01*
X161650000Y-113716666D01*
X161683333Y-113650000D01*
X161716666Y-113616666D01*
X161783333Y-113583333D01*
X161916666Y-113550000D01*
X161983333Y-113516666D01*
X162016666Y-113483333D01*
X162050000Y-113416666D01*
X162050000Y-113350000D01*
X162016666Y-113283333D01*
X161983333Y-113250000D01*
X161916666Y-113216666D01*
X161750000Y-113216666D01*
X161650000Y-113250000D01*
X161350000Y-113916666D02*
X161350000Y-113216666D01*
X161183333Y-113216666D01*
X161083333Y-113250000D01*
X161016666Y-113316666D01*
X160983333Y-113383333D01*
X160950000Y-113516666D01*
X160950000Y-113616666D01*
X160983333Y-113750000D01*
X161016666Y-113816666D01*
X161083333Y-113883333D01*
X161183333Y-113916666D01*
X161350000Y-113916666D01*
X160683333Y-113716666D02*
X160350000Y-113716666D01*
X160750000Y-113916666D02*
X160516666Y-113216666D01*
X160283333Y-113916666D01*
X148833333Y-79850000D02*
X148300000Y-79850000D01*
X148566666Y-80116666D02*
X148566666Y-79583333D01*
X148000000Y-79483333D02*
X147966666Y-79450000D01*
X147900000Y-79416666D01*
X147733333Y-79416666D01*
X147666666Y-79450000D01*
X147633333Y-79483333D01*
X147600000Y-79550000D01*
X147600000Y-79616666D01*
X147633333Y-79716666D01*
X148033333Y-80116666D01*
X147600000Y-80116666D01*
X147000000Y-79650000D02*
X147000000Y-80116666D01*
X147166666Y-79383333D02*
X147333333Y-79883333D01*
X146900000Y-79883333D01*
X146733333Y-79416666D02*
X146500000Y-80116666D01*
X146266666Y-79416666D01*
D12*
X161435714Y-86309523D02*
X161435714Y-84214285D01*
X161626190Y-83833333D01*
X162007142Y-83642857D01*
X162769047Y-83642857D01*
X163150000Y-83833333D01*
X161435714Y-86119047D02*
X161816666Y-86309523D01*
X162769047Y-86309523D01*
X163150000Y-86119047D01*
X163340476Y-85738095D01*
X163340476Y-85357142D01*
X163150000Y-84976190D01*
X162769047Y-84785714D01*
X161816666Y-84785714D01*
X161435714Y-84595238D01*
X159530952Y-86309523D02*
X159530952Y-83642857D01*
X159530952Y-82309523D02*
X159721428Y-82500000D01*
X159530952Y-82690476D01*
X159340476Y-82500000D01*
X159530952Y-82309523D01*
X159530952Y-82690476D01*
X157626190Y-83642857D02*
X157626190Y-86309523D01*
X157626190Y-84023809D02*
X157435714Y-83833333D01*
X157054761Y-83642857D01*
X156483333Y-83642857D01*
X156102380Y-83833333D01*
X155911904Y-84214285D01*
X155911904Y-86309523D01*
X154007142Y-84785714D02*
X150959523Y-84785714D01*
X147340476Y-83642857D02*
X147340476Y-86309523D01*
X148292857Y-82119047D02*
X149245238Y-84976190D01*
X146769047Y-84976190D01*
D10*
X159033333Y-79850000D02*
X158500000Y-79850000D01*
X158766666Y-80116666D02*
X158766666Y-79583333D01*
X158200000Y-79483333D02*
X158166666Y-79450000D01*
X158100000Y-79416666D01*
X157933333Y-79416666D01*
X157866666Y-79450000D01*
X157833333Y-79483333D01*
X157800000Y-79550000D01*
X157800000Y-79616666D01*
X157833333Y-79716666D01*
X158233333Y-80116666D01*
X157800000Y-80116666D01*
X157200000Y-79650000D02*
X157200000Y-80116666D01*
X157366666Y-79383333D02*
X157533333Y-79883333D01*
X157100000Y-79883333D01*
X156933333Y-79416666D02*
X156700000Y-80116666D01*
X156466666Y-79416666D01*
D13*
X171709523Y-104071428D02*
X171328571Y-105404761D01*
X170947619Y-104452380D01*
X170566666Y-105404761D01*
X170185714Y-104071428D01*
X169614285Y-104071428D02*
X169233333Y-105404761D01*
X168852380Y-104452380D01*
X168471428Y-105404761D01*
X168090476Y-104071428D01*
X167519047Y-104071428D02*
X167138095Y-105404761D01*
X166757142Y-104452380D01*
X166376190Y-105404761D01*
X165995238Y-104071428D01*
X165233333Y-105214285D02*
X165138095Y-105309523D01*
X165233333Y-105404761D01*
X165328571Y-105309523D01*
X165233333Y-105214285D01*
X165233333Y-105404761D01*
X164280952Y-105404761D02*
X164280952Y-104071428D01*
X164280952Y-103404761D02*
X164376190Y-103500000D01*
X164280952Y-103595238D01*
X164185714Y-103500000D01*
X164280952Y-103404761D01*
X164280952Y-103595238D01*
X163042857Y-105404761D02*
X163233333Y-105309523D01*
X163328571Y-105214285D01*
X163423809Y-105023809D01*
X163423809Y-104452380D01*
X163328571Y-104261904D01*
X163233333Y-104166666D01*
X163042857Y-104071428D01*
X162757142Y-104071428D01*
X162566666Y-104166666D01*
X162471428Y-104261904D01*
X162376190Y-104452380D01*
X162376190Y-105023809D01*
X162471428Y-105214285D01*
X162566666Y-105309523D01*
X162757142Y-105404761D01*
X163042857Y-105404761D01*
X161804761Y-104071428D02*
X161042857Y-104071428D01*
X161519047Y-103404761D02*
X161519047Y-105119047D01*
X161423809Y-105309523D01*
X161233333Y-105404761D01*
X161042857Y-105404761D01*
X160566666Y-104071428D02*
X160090476Y-105404761D01*
X159614285Y-104071428D01*
X158090476Y-105309523D02*
X158280952Y-105404761D01*
X158661904Y-105404761D01*
X158852380Y-105309523D01*
X158947619Y-105119047D01*
X158947619Y-104357142D01*
X158852380Y-104166666D01*
X158661904Y-104071428D01*
X158280952Y-104071428D01*
X158090476Y-104166666D01*
X157995238Y-104357142D01*
X157995238Y-104547619D01*
X158947619Y-104738095D01*
X157138095Y-105404761D02*
X157138095Y-104071428D01*
X157138095Y-104452380D02*
X157042857Y-104261904D01*
X156947619Y-104166666D01*
X156757142Y-104071428D01*
X156566666Y-104071428D01*
X156185714Y-104071428D02*
X155423809Y-104071428D01*
X155900000Y-103404761D02*
X155900000Y-105119047D01*
X155804761Y-105309523D01*
X155614285Y-105404761D01*
X155423809Y-105404761D01*
X153995238Y-105309523D02*
X154185714Y-105404761D01*
X154566666Y-105404761D01*
X154757142Y-105309523D01*
X154852380Y-105119047D01*
X154852380Y-104357142D01*
X154757142Y-104166666D01*
X154566666Y-104071428D01*
X154185714Y-104071428D01*
X153995238Y-104166666D01*
X153900000Y-104357142D01*
X153900000Y-104547619D01*
X154852380Y-104738095D01*
X153042857Y-105404761D02*
X153042857Y-103404761D01*
X153042857Y-104166666D02*
X152852380Y-104071428D01*
X152471428Y-104071428D01*
X152280952Y-104166666D01*
X152185714Y-104261904D01*
X152090476Y-104452380D01*
X152090476Y-105023809D01*
X152185714Y-105214285D01*
X152280952Y-105309523D01*
X152471428Y-105404761D01*
X152852380Y-105404761D01*
X153042857Y-105309523D01*
X151233333Y-105404761D02*
X151233333Y-104071428D01*
X151233333Y-104452380D02*
X151138095Y-104261904D01*
X151042857Y-104166666D01*
X150852380Y-104071428D01*
X150661904Y-104071428D01*
X149138095Y-105404761D02*
X149138095Y-104357142D01*
X149233333Y-104166666D01*
X149423809Y-104071428D01*
X149804761Y-104071428D01*
X149995238Y-104166666D01*
X149138095Y-105309523D02*
X149328571Y-105404761D01*
X149804761Y-105404761D01*
X149995238Y-105309523D01*
X150090476Y-105119047D01*
X150090476Y-104928571D01*
X149995238Y-104738095D01*
X149804761Y-104642857D01*
X149328571Y-104642857D01*
X149138095Y-104547619D01*
X147423809Y-105309523D02*
X147614285Y-105404761D01*
X147995238Y-105404761D01*
X148185714Y-105309523D01*
X148280952Y-105119047D01*
X148280952Y-104357142D01*
X148185714Y-104166666D01*
X147995238Y-104071428D01*
X147614285Y-104071428D01*
X147423809Y-104166666D01*
X147328571Y-104357142D01*
X147328571Y-104547619D01*
X148280952Y-104738095D01*
X146471428Y-105214285D02*
X146376190Y-105309523D01*
X146471428Y-105404761D01*
X146566666Y-105309523D01*
X146471428Y-105214285D01*
X146471428Y-105404761D01*
X144661904Y-105309523D02*
X144852380Y-105404761D01*
X145233333Y-105404761D01*
X145423809Y-105309523D01*
X145519047Y-105214285D01*
X145614285Y-105023809D01*
X145614285Y-104452380D01*
X145519047Y-104261904D01*
X145423809Y-104166666D01*
X145233333Y-104071428D01*
X144852380Y-104071428D01*
X144661904Y-104166666D01*
X143519047Y-105404761D02*
X143709523Y-105309523D01*
X143804761Y-105214285D01*
X143900000Y-105023809D01*
X143900000Y-104452380D01*
X143804761Y-104261904D01*
X143709523Y-104166666D01*
X143519047Y-104071428D01*
X143233333Y-104071428D01*
X143042857Y-104166666D01*
X142947619Y-104261904D01*
X142852380Y-104452380D01*
X142852380Y-105023809D01*
X142947619Y-105214285D01*
X143042857Y-105309523D01*
X143233333Y-105404761D01*
X143519047Y-105404761D01*
X141995238Y-105404761D02*
X141995238Y-104071428D01*
X141995238Y-104261904D02*
X141900000Y-104166666D01*
X141709523Y-104071428D01*
X141423809Y-104071428D01*
X141233333Y-104166666D01*
X141138095Y-104357142D01*
X141138095Y-105404761D01*
X141138095Y-104357142D02*
X141042857Y-104166666D01*
X140852380Y-104071428D01*
X140566666Y-104071428D01*
X140376190Y-104166666D01*
X140280952Y-104357142D01*
X140280952Y-105404761D01*
D10*
X158000000Y-67716666D02*
X157666666Y-67716666D01*
X158066666Y-67916666D02*
X157833333Y-67216666D01*
X157600000Y-67916666D01*
X157433333Y-67216666D02*
X157000000Y-67216666D01*
X157233333Y-67483333D01*
X157133333Y-67483333D01*
X157066666Y-67516666D01*
X157033333Y-67550000D01*
X157000000Y-67616666D01*
X157000000Y-67783333D01*
X157033333Y-67850000D01*
X157066666Y-67883333D01*
X157133333Y-67916666D01*
X157333333Y-67916666D01*
X157400000Y-67883333D01*
X157433333Y-67850000D01*
X147533333Y-119450000D02*
X147000000Y-119450000D01*
X147266666Y-119716666D02*
X147266666Y-119183333D01*
X146700000Y-119083333D02*
X146666666Y-119050000D01*
X146600000Y-119016666D01*
X146433333Y-119016666D01*
X146366666Y-119050000D01*
X146333333Y-119083333D01*
X146300000Y-119150000D01*
X146300000Y-119216666D01*
X146333333Y-119316666D01*
X146733333Y-119716666D01*
X146300000Y-119716666D01*
X145700000Y-119250000D02*
X145700000Y-119716666D01*
X145866666Y-118983333D02*
X146033333Y-119483333D01*
X145600000Y-119483333D01*
X145433333Y-119016666D02*
X145200000Y-119716666D01*
X144966666Y-119016666D01*
X164833333Y-119683333D02*
X164733333Y-119716666D01*
X164566666Y-119716666D01*
X164500000Y-119683333D01*
X164466666Y-119650000D01*
X164433333Y-119583333D01*
X164433333Y-119516666D01*
X164466666Y-119450000D01*
X164500000Y-119416666D01*
X164566666Y-119383333D01*
X164700000Y-119350000D01*
X164766666Y-119316666D01*
X164800000Y-119283333D01*
X164833333Y-119216666D01*
X164833333Y-119150000D01*
X164800000Y-119083333D01*
X164766666Y-119050000D01*
X164700000Y-119016666D01*
X164533333Y-119016666D01*
X164433333Y-119050000D01*
X163733333Y-119650000D02*
X163766666Y-119683333D01*
X163866666Y-119716666D01*
X163933333Y-119716666D01*
X164033333Y-119683333D01*
X164100000Y-119616666D01*
X164133333Y-119550000D01*
X164166666Y-119416666D01*
X164166666Y-119316666D01*
X164133333Y-119183333D01*
X164100000Y-119116666D01*
X164033333Y-119050000D01*
X163933333Y-119016666D01*
X163866666Y-119016666D01*
X163766666Y-119050000D01*
X163733333Y-119083333D01*
X163100000Y-119716666D02*
X163433333Y-119716666D01*
X163433333Y-119016666D01*
X163033333Y-67250000D02*
X163100000Y-67216666D01*
X163200000Y-67216666D01*
X163300000Y-67250000D01*
X163366666Y-67316666D01*
X163400000Y-67383333D01*
X163433333Y-67516666D01*
X163433333Y-67616666D01*
X163400000Y-67750000D01*
X163366666Y-67816666D01*
X163300000Y-67883333D01*
X163200000Y-67916666D01*
X163133333Y-67916666D01*
X163033333Y-67883333D01*
X163000000Y-67850000D01*
X163000000Y-67616666D01*
X163133333Y-67616666D01*
X162700000Y-67916666D02*
X162700000Y-67216666D01*
X162300000Y-67916666D01*
X162300000Y-67216666D01*
X161966666Y-67916666D02*
X161966666Y-67216666D01*
X161800000Y-67216666D01*
X161700000Y-67250000D01*
X161633333Y-67316666D01*
X161600000Y-67383333D01*
X161566666Y-67516666D01*
X161566666Y-67616666D01*
X161600000Y-67750000D01*
X161633333Y-67816666D01*
X161700000Y-67883333D01*
X161800000Y-67916666D01*
X161966666Y-67916666D01*
%TO.C,REF\u002A\u002A*%
G36*
X155837275Y-96918931D02*
G01*
X155921095Y-97363555D01*
X156539667Y-97618551D01*
X156910707Y-97366246D01*
X156984144Y-97316506D01*
X157081499Y-97251218D01*
X157165787Y-97195454D01*
X157232631Y-97152078D01*
X157277654Y-97123953D01*
X157296478Y-97113942D01*
X157308039Y-97121061D01*
X157342596Y-97150894D01*
X157394894Y-97199852D01*
X157460500Y-97263440D01*
X157534983Y-97337163D01*
X157613913Y-97416525D01*
X157692856Y-97497031D01*
X157767384Y-97574185D01*
X157833063Y-97643493D01*
X157885463Y-97700457D01*
X157920153Y-97740584D01*
X157932701Y-97759377D01*
X157929782Y-97767451D01*
X157909571Y-97803469D01*
X157872663Y-97862744D01*
X157822050Y-97940630D01*
X157760725Y-98032481D01*
X157691679Y-98133650D01*
X157653787Y-98188826D01*
X157588606Y-98284884D01*
X157532723Y-98368717D01*
X157489117Y-98435777D01*
X157460769Y-98481519D01*
X157450657Y-98501396D01*
X157450823Y-98502497D01*
X157459743Y-98527694D01*
X157480206Y-98579147D01*
X157509360Y-98650135D01*
X157544353Y-98733935D01*
X157582332Y-98823828D01*
X157620445Y-98913091D01*
X157655839Y-98995003D01*
X157685662Y-99062843D01*
X157707061Y-99109890D01*
X157717184Y-99129422D01*
X157723174Y-99131155D01*
X157759566Y-99138969D01*
X157824427Y-99151915D01*
X157912565Y-99168979D01*
X158018787Y-99189151D01*
X158137902Y-99211418D01*
X158200683Y-99223223D01*
X158315912Y-99245748D01*
X158416662Y-99266550D01*
X158497426Y-99284435D01*
X158552698Y-99298208D01*
X158576971Y-99306674D01*
X158581331Y-99315066D01*
X158588563Y-99356072D01*
X158594246Y-99424368D01*
X158598382Y-99513529D01*
X158600977Y-99617128D01*
X158602036Y-99728740D01*
X158601561Y-99841938D01*
X158599559Y-99950296D01*
X158596033Y-100047389D01*
X158590987Y-100126790D01*
X158584427Y-100182072D01*
X158576356Y-100206810D01*
X158571458Y-100209600D01*
X158534930Y-100221569D01*
X158471565Y-100237405D01*
X158388686Y-100255374D01*
X158293618Y-100273741D01*
X158261542Y-100279591D01*
X158113393Y-100306798D01*
X157996961Y-100328663D01*
X157908209Y-100346093D01*
X157843103Y-100359996D01*
X157797606Y-100371277D01*
X157767682Y-100380843D01*
X157749294Y-100389601D01*
X157738407Y-100398457D01*
X157737142Y-100399943D01*
X157719338Y-100430931D01*
X157692994Y-100487634D01*
X157660661Y-100563399D01*
X157624893Y-100651574D01*
X157588244Y-100745507D01*
X157553266Y-100838547D01*
X157522513Y-100924041D01*
X157498538Y-100995336D01*
X157483895Y-101045782D01*
X157481136Y-101068726D01*
X157482981Y-101071703D01*
X157502075Y-101100493D01*
X157537984Y-101153595D01*
X157587378Y-101226117D01*
X157646927Y-101313167D01*
X157713303Y-101409854D01*
X157731520Y-101436456D01*
X157795577Y-101531875D01*
X157850937Y-101617212D01*
X157894439Y-101687405D01*
X157922924Y-101737394D01*
X157933232Y-101762116D01*
X157931011Y-101768616D01*
X157907858Y-101800644D01*
X157862177Y-101852945D01*
X157797241Y-101921999D01*
X157716319Y-102004286D01*
X157622685Y-102096286D01*
X157569165Y-102147781D01*
X157484542Y-102227983D01*
X157410475Y-102296678D01*
X157350941Y-102350252D01*
X157309917Y-102385085D01*
X157291381Y-102397563D01*
X157278646Y-102392938D01*
X157239436Y-102371057D01*
X157182495Y-102335273D01*
X157115250Y-102290117D01*
X157067438Y-102257165D01*
X156971985Y-102191727D01*
X156870125Y-102122228D01*
X156777088Y-102059075D01*
X156594832Y-101935800D01*
X156441841Y-102018520D01*
X156405817Y-102037613D01*
X156340303Y-102070272D01*
X156289640Y-102092819D01*
X156262564Y-102101226D01*
X156253703Y-102090430D01*
X156231699Y-102049323D01*
X156199199Y-101981549D01*
X156158010Y-101891409D01*
X156109942Y-101783205D01*
X156056802Y-101661237D01*
X156000399Y-101529808D01*
X155942542Y-101393218D01*
X155885038Y-101255767D01*
X155829697Y-101121758D01*
X155778326Y-100995491D01*
X155732735Y-100881268D01*
X155694732Y-100783390D01*
X155666124Y-100706157D01*
X155648721Y-100653871D01*
X155644331Y-100630833D01*
X155644628Y-100630160D01*
X155665077Y-100608863D01*
X155707850Y-100575508D01*
X155764117Y-100537011D01*
X155781877Y-100525256D01*
X155917014Y-100413735D01*
X156028856Y-100280906D01*
X156114755Y-100132298D01*
X156172062Y-99973440D01*
X156198131Y-99809860D01*
X156190313Y-99647088D01*
X156158644Y-99502315D01*
X156101782Y-99356124D01*
X156018888Y-99225703D01*
X155905131Y-99101813D01*
X155860433Y-99062235D01*
X155715935Y-98964723D01*
X155559838Y-98899050D01*
X155396667Y-98864630D01*
X155230943Y-98860874D01*
X155067192Y-98887194D01*
X154909936Y-98943003D01*
X154763698Y-99027714D01*
X154633004Y-99140737D01*
X154522374Y-99281487D01*
X154501105Y-99316342D01*
X154428810Y-99475655D01*
X154390415Y-99641552D01*
X154384914Y-99809737D01*
X154411301Y-99975913D01*
X154468570Y-100135784D01*
X154555717Y-100285053D01*
X154671736Y-100419423D01*
X154815622Y-100534599D01*
X154820294Y-100537702D01*
X154875964Y-100576933D01*
X154917689Y-100610286D01*
X154936746Y-100630833D01*
X154934342Y-100646941D01*
X154919391Y-100693844D01*
X154892881Y-100766539D01*
X154856620Y-100860725D01*
X154812416Y-100972098D01*
X154762076Y-101096358D01*
X154707407Y-101229202D01*
X154650218Y-101366327D01*
X154592316Y-101503432D01*
X154535510Y-101636215D01*
X154481606Y-101760374D01*
X154432412Y-101871606D01*
X154389737Y-101965609D01*
X154355387Y-102038082D01*
X154331171Y-102084722D01*
X154318897Y-102101226D01*
X154308689Y-102098991D01*
X154268586Y-102082926D01*
X154209318Y-102054759D01*
X154139619Y-102018520D01*
X153986629Y-101935800D01*
X153804373Y-102059075D01*
X153750527Y-102095579D01*
X153650374Y-102163784D01*
X153550525Y-102232098D01*
X153466211Y-102290117D01*
X153419679Y-102321736D01*
X153359200Y-102361020D01*
X153314357Y-102387912D01*
X153292455Y-102397883D01*
X153283045Y-102393650D01*
X153249031Y-102367721D01*
X153196595Y-102322070D01*
X153130301Y-102261186D01*
X153054713Y-102189561D01*
X152974396Y-102111683D01*
X152893913Y-102032045D01*
X152817829Y-101955135D01*
X152750707Y-101885445D01*
X152697112Y-101827464D01*
X152661608Y-101785684D01*
X152648759Y-101764593D01*
X152649500Y-101760581D01*
X152664793Y-101727920D01*
X152697462Y-101671412D01*
X152744350Y-101596163D01*
X152802301Y-101507275D01*
X152868157Y-101409854D01*
X152886627Y-101382982D01*
X152951482Y-101288423D01*
X153008609Y-101204827D01*
X153054678Y-101137084D01*
X153086359Y-101090086D01*
X153100324Y-101068726D01*
X153100668Y-101067811D01*
X153096546Y-101041678D01*
X153080807Y-100988740D01*
X153056004Y-100915647D01*
X153024689Y-100829052D01*
X152989417Y-100735608D01*
X152952740Y-100641965D01*
X152917212Y-100554777D01*
X152885386Y-100480695D01*
X152859816Y-100426371D01*
X152843053Y-100398457D01*
X152841374Y-100396724D01*
X152829372Y-100387956D01*
X152809103Y-100379115D01*
X152776529Y-100369292D01*
X152727616Y-100357583D01*
X152658327Y-100343080D01*
X152564625Y-100324876D01*
X152442476Y-100302066D01*
X152287842Y-100273741D01*
X152255770Y-100267780D01*
X152163893Y-100249352D01*
X152086607Y-100231892D01*
X152031236Y-100217133D01*
X152005105Y-100206810D01*
X152000733Y-100198197D01*
X151993445Y-100156826D01*
X151987669Y-100088241D01*
X151983410Y-99998868D01*
X151980673Y-99895135D01*
X151979462Y-99783465D01*
X151979782Y-99670287D01*
X151981636Y-99562026D01*
X151985030Y-99465108D01*
X151989967Y-99385959D01*
X151996452Y-99331006D01*
X152004489Y-99306674D01*
X152012696Y-99303079D01*
X152053519Y-99291748D01*
X152122524Y-99275722D01*
X152214203Y-99256195D01*
X152323050Y-99234362D01*
X152443558Y-99211418D01*
X152509357Y-99199159D01*
X152622135Y-99177901D01*
X152719207Y-99159287D01*
X152795382Y-99144328D01*
X152845469Y-99134036D01*
X152864276Y-99129422D01*
X152864983Y-99128471D01*
X152876961Y-99104310D01*
X152899794Y-99053694D01*
X152930630Y-98983338D01*
X152966613Y-98899958D01*
X153004891Y-98810270D01*
X153042609Y-98720989D01*
X153076913Y-98638832D01*
X153104949Y-98570513D01*
X153123864Y-98522748D01*
X153130803Y-98502254D01*
X153127742Y-98495043D01*
X153107372Y-98460728D01*
X153070422Y-98402970D01*
X153019860Y-98326299D01*
X152958657Y-98235248D01*
X152889781Y-98134350D01*
X152851994Y-98079093D01*
X152786782Y-97982215D01*
X152730871Y-97897193D01*
X152687241Y-97828662D01*
X152658877Y-97781260D01*
X152648759Y-97759623D01*
X152655790Y-97747887D01*
X152685197Y-97712818D01*
X152733441Y-97659745D01*
X152796093Y-97593164D01*
X152868725Y-97517574D01*
X152946908Y-97437472D01*
X153026214Y-97357354D01*
X153102213Y-97281718D01*
X153170478Y-97215062D01*
X153226580Y-97161882D01*
X153266090Y-97126676D01*
X153284579Y-97113942D01*
X153294843Y-97118893D01*
X153332530Y-97141857D01*
X153393348Y-97180938D01*
X153472913Y-97233272D01*
X153566843Y-97295996D01*
X153670754Y-97366246D01*
X154041794Y-97618551D01*
X154351080Y-97491053D01*
X154660365Y-97363555D01*
X154744186Y-96918931D01*
X154828006Y-96474307D01*
X155753454Y-96474307D01*
X155837275Y-96918931D01*
G37*
D14*
X155837275Y-96918931D02*
X155921095Y-97363555D01*
X156539667Y-97618551D01*
X156910707Y-97366246D01*
X156984144Y-97316506D01*
X157081499Y-97251218D01*
X157165787Y-97195454D01*
X157232631Y-97152078D01*
X157277654Y-97123953D01*
X157296478Y-97113942D01*
X157308039Y-97121061D01*
X157342596Y-97150894D01*
X157394894Y-97199852D01*
X157460500Y-97263440D01*
X157534983Y-97337163D01*
X157613913Y-97416525D01*
X157692856Y-97497031D01*
X157767384Y-97574185D01*
X157833063Y-97643493D01*
X157885463Y-97700457D01*
X157920153Y-97740584D01*
X157932701Y-97759377D01*
X157929782Y-97767451D01*
X157909571Y-97803469D01*
X157872663Y-97862744D01*
X157822050Y-97940630D01*
X157760725Y-98032481D01*
X157691679Y-98133650D01*
X157653787Y-98188826D01*
X157588606Y-98284884D01*
X157532723Y-98368717D01*
X157489117Y-98435777D01*
X157460769Y-98481519D01*
X157450657Y-98501396D01*
X157450823Y-98502497D01*
X157459743Y-98527694D01*
X157480206Y-98579147D01*
X157509360Y-98650135D01*
X157544353Y-98733935D01*
X157582332Y-98823828D01*
X157620445Y-98913091D01*
X157655839Y-98995003D01*
X157685662Y-99062843D01*
X157707061Y-99109890D01*
X157717184Y-99129422D01*
X157723174Y-99131155D01*
X157759566Y-99138969D01*
X157824427Y-99151915D01*
X157912565Y-99168979D01*
X158018787Y-99189151D01*
X158137902Y-99211418D01*
X158200683Y-99223223D01*
X158315912Y-99245748D01*
X158416662Y-99266550D01*
X158497426Y-99284435D01*
X158552698Y-99298208D01*
X158576971Y-99306674D01*
X158581331Y-99315066D01*
X158588563Y-99356072D01*
X158594246Y-99424368D01*
X158598382Y-99513529D01*
X158600977Y-99617128D01*
X158602036Y-99728740D01*
X158601561Y-99841938D01*
X158599559Y-99950296D01*
X158596033Y-100047389D01*
X158590987Y-100126790D01*
X158584427Y-100182072D01*
X158576356Y-100206810D01*
X158571458Y-100209600D01*
X158534930Y-100221569D01*
X158471565Y-100237405D01*
X158388686Y-100255374D01*
X158293618Y-100273741D01*
X158261542Y-100279591D01*
X158113393Y-100306798D01*
X157996961Y-100328663D01*
X157908209Y-100346093D01*
X157843103Y-100359996D01*
X157797606Y-100371277D01*
X157767682Y-100380843D01*
X157749294Y-100389601D01*
X157738407Y-100398457D01*
X157737142Y-100399943D01*
X157719338Y-100430931D01*
X157692994Y-100487634D01*
X157660661Y-100563399D01*
X157624893Y-100651574D01*
X157588244Y-100745507D01*
X157553266Y-100838547D01*
X157522513Y-100924041D01*
X157498538Y-100995336D01*
X157483895Y-101045782D01*
X157481136Y-101068726D01*
X157482981Y-101071703D01*
X157502075Y-101100493D01*
X157537984Y-101153595D01*
X157587378Y-101226117D01*
X157646927Y-101313167D01*
X157713303Y-101409854D01*
X157731520Y-101436456D01*
X157795577Y-101531875D01*
X157850937Y-101617212D01*
X157894439Y-101687405D01*
X157922924Y-101737394D01*
X157933232Y-101762116D01*
X157931011Y-101768616D01*
X157907858Y-101800644D01*
X157862177Y-101852945D01*
X157797241Y-101921999D01*
X157716319Y-102004286D01*
X157622685Y-102096286D01*
X157569165Y-102147781D01*
X157484542Y-102227983D01*
X157410475Y-102296678D01*
X157350941Y-102350252D01*
X157309917Y-102385085D01*
X157291381Y-102397563D01*
X157278646Y-102392938D01*
X157239436Y-102371057D01*
X157182495Y-102335273D01*
X157115250Y-102290117D01*
X157067438Y-102257165D01*
X156971985Y-102191727D01*
X156870125Y-102122228D01*
X156777088Y-102059075D01*
X156594832Y-101935800D01*
X156441841Y-102018520D01*
X156405817Y-102037613D01*
X156340303Y-102070272D01*
X156289640Y-102092819D01*
X156262564Y-102101226D01*
X156253703Y-102090430D01*
X156231699Y-102049323D01*
X156199199Y-101981549D01*
X156158010Y-101891409D01*
X156109942Y-101783205D01*
X156056802Y-101661237D01*
X156000399Y-101529808D01*
X155942542Y-101393218D01*
X155885038Y-101255767D01*
X155829697Y-101121758D01*
X155778326Y-100995491D01*
X155732735Y-100881268D01*
X155694732Y-100783390D01*
X155666124Y-100706157D01*
X155648721Y-100653871D01*
X155644331Y-100630833D01*
X155644628Y-100630160D01*
X155665077Y-100608863D01*
X155707850Y-100575508D01*
X155764117Y-100537011D01*
X155781877Y-100525256D01*
X155917014Y-100413735D01*
X156028856Y-100280906D01*
X156114755Y-100132298D01*
X156172062Y-99973440D01*
X156198131Y-99809860D01*
X156190313Y-99647088D01*
X156158644Y-99502315D01*
X156101782Y-99356124D01*
X156018888Y-99225703D01*
X155905131Y-99101813D01*
X155860433Y-99062235D01*
X155715935Y-98964723D01*
X155559838Y-98899050D01*
X155396667Y-98864630D01*
X155230943Y-98860874D01*
X155067192Y-98887194D01*
X154909936Y-98943003D01*
X154763698Y-99027714D01*
X154633004Y-99140737D01*
X154522374Y-99281487D01*
X154501105Y-99316342D01*
X154428810Y-99475655D01*
X154390415Y-99641552D01*
X154384914Y-99809737D01*
X154411301Y-99975913D01*
X154468570Y-100135784D01*
X154555717Y-100285053D01*
X154671736Y-100419423D01*
X154815622Y-100534599D01*
X154820294Y-100537702D01*
X154875964Y-100576933D01*
X154917689Y-100610286D01*
X154936746Y-100630833D01*
X154934342Y-100646941D01*
X154919391Y-100693844D01*
X154892881Y-100766539D01*
X154856620Y-100860725D01*
X154812416Y-100972098D01*
X154762076Y-101096358D01*
X154707407Y-101229202D01*
X154650218Y-101366327D01*
X154592316Y-101503432D01*
X154535510Y-101636215D01*
X154481606Y-101760374D01*
X154432412Y-101871606D01*
X154389737Y-101965609D01*
X154355387Y-102038082D01*
X154331171Y-102084722D01*
X154318897Y-102101226D01*
X154308689Y-102098991D01*
X154268586Y-102082926D01*
X154209318Y-102054759D01*
X154139619Y-102018520D01*
X153986629Y-101935800D01*
X153804373Y-102059075D01*
X153750527Y-102095579D01*
X153650374Y-102163784D01*
X153550525Y-102232098D01*
X153466211Y-102290117D01*
X153419679Y-102321736D01*
X153359200Y-102361020D01*
X153314357Y-102387912D01*
X153292455Y-102397883D01*
X153283045Y-102393650D01*
X153249031Y-102367721D01*
X153196595Y-102322070D01*
X153130301Y-102261186D01*
X153054713Y-102189561D01*
X152974396Y-102111683D01*
X152893913Y-102032045D01*
X152817829Y-101955135D01*
X152750707Y-101885445D01*
X152697112Y-101827464D01*
X152661608Y-101785684D01*
X152648759Y-101764593D01*
X152649500Y-101760581D01*
X152664793Y-101727920D01*
X152697462Y-101671412D01*
X152744350Y-101596163D01*
X152802301Y-101507275D01*
X152868157Y-101409854D01*
X152886627Y-101382982D01*
X152951482Y-101288423D01*
X153008609Y-101204827D01*
X153054678Y-101137084D01*
X153086359Y-101090086D01*
X153100324Y-101068726D01*
X153100668Y-101067811D01*
X153096546Y-101041678D01*
X153080807Y-100988740D01*
X153056004Y-100915647D01*
X153024689Y-100829052D01*
X152989417Y-100735608D01*
X152952740Y-100641965D01*
X152917212Y-100554777D01*
X152885386Y-100480695D01*
X152859816Y-100426371D01*
X152843053Y-100398457D01*
X152841374Y-100396724D01*
X152829372Y-100387956D01*
X152809103Y-100379115D01*
X152776529Y-100369292D01*
X152727616Y-100357583D01*
X152658327Y-100343080D01*
X152564625Y-100324876D01*
X152442476Y-100302066D01*
X152287842Y-100273741D01*
X152255770Y-100267780D01*
X152163893Y-100249352D01*
X152086607Y-100231892D01*
X152031236Y-100217133D01*
X152005105Y-100206810D01*
X152000733Y-100198197D01*
X151993445Y-100156826D01*
X151987669Y-100088241D01*
X151983410Y-99998868D01*
X151980673Y-99895135D01*
X151979462Y-99783465D01*
X151979782Y-99670287D01*
X151981636Y-99562026D01*
X151985030Y-99465108D01*
X151989967Y-99385959D01*
X151996452Y-99331006D01*
X152004489Y-99306674D01*
X152012696Y-99303079D01*
X152053519Y-99291748D01*
X152122524Y-99275722D01*
X152214203Y-99256195D01*
X152323050Y-99234362D01*
X152443558Y-99211418D01*
X152509357Y-99199159D01*
X152622135Y-99177901D01*
X152719207Y-99159287D01*
X152795382Y-99144328D01*
X152845469Y-99134036D01*
X152864276Y-99129422D01*
X152864983Y-99128471D01*
X152876961Y-99104310D01*
X152899794Y-99053694D01*
X152930630Y-98983338D01*
X152966613Y-98899958D01*
X153004891Y-98810270D01*
X153042609Y-98720989D01*
X153076913Y-98638832D01*
X153104949Y-98570513D01*
X153123864Y-98522748D01*
X153130803Y-98502254D01*
X153127742Y-98495043D01*
X153107372Y-98460728D01*
X153070422Y-98402970D01*
X153019860Y-98326299D01*
X152958657Y-98235248D01*
X152889781Y-98134350D01*
X152851994Y-98079093D01*
X152786782Y-97982215D01*
X152730871Y-97897193D01*
X152687241Y-97828662D01*
X152658877Y-97781260D01*
X152648759Y-97759623D01*
X152655790Y-97747887D01*
X152685197Y-97712818D01*
X152733441Y-97659745D01*
X152796093Y-97593164D01*
X152868725Y-97517574D01*
X152946908Y-97437472D01*
X153026214Y-97357354D01*
X153102213Y-97281718D01*
X153170478Y-97215062D01*
X153226580Y-97161882D01*
X153266090Y-97126676D01*
X153284579Y-97113942D01*
X153294843Y-97118893D01*
X153332530Y-97141857D01*
X153393348Y-97180938D01*
X153472913Y-97233272D01*
X153566843Y-97295996D01*
X153670754Y-97366246D01*
X154041794Y-97618551D01*
X154351080Y-97491053D01*
X154660365Y-97363555D01*
X154744186Y-96918931D01*
X154828006Y-96474307D01*
X155753454Y-96474307D01*
X155837275Y-96918931D01*
G36*
X138961662Y-113910696D02*
G01*
X139001314Y-113911782D01*
X139069109Y-113911782D01*
X139069109Y-114024951D01*
X138909577Y-114024951D01*
X138894682Y-114202732D01*
X138892682Y-114227037D01*
X138888023Y-114287880D01*
X138884731Y-114337389D01*
X138883092Y-114370992D01*
X138883390Y-114384116D01*
X138887724Y-114380343D01*
X138907496Y-114360676D01*
X138941679Y-114325818D01*
X138988541Y-114277576D01*
X139046354Y-114217757D01*
X139113387Y-114148167D01*
X139187912Y-114070615D01*
X139268197Y-113986907D01*
X139352513Y-113898849D01*
X139439130Y-113808250D01*
X139526319Y-113716915D01*
X139612349Y-113626653D01*
X139695492Y-113539269D01*
X139774016Y-113456572D01*
X139846192Y-113380368D01*
X139910291Y-113312463D01*
X139964583Y-113254666D01*
X140061592Y-113151040D01*
X140062034Y-113239315D01*
X140062475Y-113327589D01*
X139461938Y-113959158D01*
X138861401Y-114590726D01*
X138849396Y-114734674D01*
X138801365Y-115310635D01*
X138792876Y-115412791D01*
X138782343Y-115540612D01*
X138772621Y-115659767D01*
X138763898Y-115767914D01*
X138756358Y-115862713D01*
X138750187Y-115941819D01*
X138745573Y-116002892D01*
X138742700Y-116043590D01*
X138741754Y-116061570D01*
X138744251Y-116069808D01*
X138755471Y-116087599D01*
X138776751Y-116114411D01*
X138787021Y-116126129D01*
X138809225Y-116151466D01*
X138854023Y-116199986D01*
X138912281Y-116261192D01*
X138985129Y-116336307D01*
X139073703Y-116426550D01*
X139179134Y-116533145D01*
X139248492Y-116603093D01*
X139345179Y-116700658D01*
X139441526Y-116797941D01*
X139534638Y-116892014D01*
X139621618Y-116979950D01*
X139699569Y-117058820D01*
X139765596Y-117125699D01*
X139816802Y-117177658D01*
X140017514Y-117381620D01*
X139981058Y-117419671D01*
X139972460Y-117428245D01*
X139947095Y-117449297D01*
X139929695Y-117457723D01*
X139916071Y-117450530D01*
X139890743Y-117428944D01*
X139860379Y-117397995D01*
X139841896Y-117378448D01*
X139807427Y-117342752D01*
X139758712Y-117292684D01*
X139697469Y-117230001D01*
X139625420Y-117156457D01*
X139544285Y-117073810D01*
X139455784Y-116983815D01*
X139361637Y-116888228D01*
X139263565Y-116788805D01*
X138721161Y-116239343D01*
X138699066Y-116524746D01*
X138694250Y-116585662D01*
X138687216Y-116667548D01*
X138680872Y-116729569D01*
X138674748Y-116774987D01*
X138668373Y-116807062D01*
X138661277Y-116829052D01*
X138652991Y-116844219D01*
X138641393Y-116865416D01*
X138631850Y-116904386D01*
X138629010Y-116960531D01*
X138629010Y-117042773D01*
X138402674Y-117042773D01*
X138402674Y-116866733D01*
X137557082Y-116866733D01*
X137508203Y-116922262D01*
X137494836Y-116936722D01*
X137422388Y-116994813D01*
X137340532Y-117030576D01*
X137251900Y-117042773D01*
X137173692Y-117036306D01*
X137085233Y-117009047D01*
X137009507Y-116960328D01*
X136994748Y-116946403D01*
X136957864Y-116901328D01*
X136925503Y-116848819D01*
X136902297Y-116797061D01*
X136892879Y-116754239D01*
X136892697Y-116748023D01*
X136891342Y-116725246D01*
X136887800Y-116709513D01*
X136880390Y-116702068D01*
X136867431Y-116704156D01*
X136847243Y-116717020D01*
X136818145Y-116741905D01*
X136778456Y-116780053D01*
X136726496Y-116832710D01*
X136660584Y-116901119D01*
X136579040Y-116986524D01*
X136535604Y-117032112D01*
X136463000Y-117108441D01*
X136394309Y-117180808D01*
X136332223Y-117246366D01*
X136279434Y-117302274D01*
X136238634Y-117345686D01*
X136212515Y-117373758D01*
X136141119Y-117451436D01*
X136052863Y-117363416D01*
X136598690Y-116791287D01*
X136633105Y-116755188D01*
X136755546Y-116626272D01*
X136860651Y-116514754D01*
X136948736Y-116420288D01*
X137020116Y-116342529D01*
X137070588Y-116286174D01*
X137277247Y-116286174D01*
X137278872Y-116299434D01*
X137279156Y-116300819D01*
X137292698Y-116332228D01*
X137319748Y-116346863D01*
X137403129Y-116378063D01*
X137477418Y-116430038D01*
X137535846Y-116498791D01*
X137575890Y-116581315D01*
X137595026Y-116674606D01*
X137601364Y-116753565D01*
X138550838Y-116753565D01*
X138557458Y-116725273D01*
X138558629Y-116718329D01*
X138562268Y-116687281D01*
X138567234Y-116637081D01*
X138573157Y-116571727D01*
X138579669Y-116495219D01*
X138586401Y-116411555D01*
X138608724Y-116126129D01*
X138307826Y-115820565D01*
X138252636Y-115764704D01*
X138185109Y-115696888D01*
X138124529Y-115636643D01*
X138073021Y-115586052D01*
X138032710Y-115547200D01*
X138005722Y-115522170D01*
X137994182Y-115513046D01*
X137986444Y-115517405D01*
X137963395Y-115537241D01*
X137928709Y-115570375D01*
X137885487Y-115613820D01*
X137836832Y-115664587D01*
X137824140Y-115678051D01*
X137767229Y-115738275D01*
X137699414Y-115809864D01*
X137625800Y-115887437D01*
X137551493Y-115965611D01*
X137481599Y-116039005D01*
X137477401Y-116043409D01*
X137412420Y-116111785D01*
X137362836Y-116164732D01*
X137326688Y-116204767D01*
X137302016Y-116234411D01*
X137286858Y-116256181D01*
X137279256Y-116272595D01*
X137277247Y-116286174D01*
X137070588Y-116286174D01*
X137075105Y-116281131D01*
X137114019Y-116235748D01*
X137137173Y-116206035D01*
X137144882Y-116191644D01*
X137144883Y-116191559D01*
X137143825Y-116173624D01*
X137140737Y-116133421D01*
X137135858Y-116073687D01*
X137129432Y-115997158D01*
X137121700Y-115906569D01*
X137112905Y-115804657D01*
X137103287Y-115694159D01*
X137093091Y-115577811D01*
X137082556Y-115458348D01*
X137071926Y-115338507D01*
X137061442Y-115221025D01*
X137051346Y-115108637D01*
X137041881Y-115004081D01*
X137033288Y-114910091D01*
X137025809Y-114829405D01*
X137019687Y-114764759D01*
X137015162Y-114718888D01*
X137012478Y-114694530D01*
X137007067Y-114653732D01*
X137136253Y-114653732D01*
X137137908Y-114684653D01*
X137141549Y-114736653D01*
X137146995Y-114807487D01*
X137154063Y-114894911D01*
X137162570Y-114996681D01*
X137172335Y-115110552D01*
X137183174Y-115234279D01*
X137194907Y-115365618D01*
X137204079Y-115466908D01*
X137215566Y-115592526D01*
X137226322Y-115708762D01*
X137236131Y-115813380D01*
X137244781Y-115904140D01*
X137252057Y-115978804D01*
X137257746Y-116035134D01*
X137261634Y-116070891D01*
X137263506Y-116083837D01*
X137269188Y-116079826D01*
X137290020Y-116060138D01*
X137323872Y-116026322D01*
X137368412Y-115980837D01*
X137421310Y-115926146D01*
X137480236Y-115864710D01*
X137542858Y-115798990D01*
X137606848Y-115731449D01*
X137669874Y-115664547D01*
X137729606Y-115600746D01*
X137783713Y-115542507D01*
X137829865Y-115492292D01*
X137865733Y-115452563D01*
X137888984Y-115425780D01*
X137895778Y-115416477D01*
X138077601Y-115416477D01*
X138353305Y-115691968D01*
X138420726Y-115759224D01*
X138484267Y-115822162D01*
X138533490Y-115870100D01*
X138570196Y-115904594D01*
X138596190Y-115927199D01*
X138613276Y-115939471D01*
X138623256Y-115942966D01*
X138627935Y-115939238D01*
X138629116Y-115929844D01*
X138629873Y-115914749D01*
X138632601Y-115875883D01*
X138637108Y-115816895D01*
X138643179Y-115740473D01*
X138650596Y-115649305D01*
X138659142Y-115546080D01*
X138668602Y-115433483D01*
X138678758Y-115314205D01*
X138687723Y-115209077D01*
X138697066Y-115098351D01*
X138705443Y-114997814D01*
X138712653Y-114909943D01*
X138718496Y-114837215D01*
X138722769Y-114782110D01*
X138725273Y-114747104D01*
X138725805Y-114734674D01*
X138725384Y-114734908D01*
X138713509Y-114746350D01*
X138687130Y-114773198D01*
X138648570Y-114813018D01*
X138600153Y-114863372D01*
X138544203Y-114921828D01*
X138483042Y-114985948D01*
X138418995Y-115053298D01*
X138354385Y-115121443D01*
X138291535Y-115187948D01*
X138232768Y-115250377D01*
X138180409Y-115306295D01*
X138079533Y-115414406D01*
X138077601Y-115416477D01*
X137895778Y-115416477D01*
X137897290Y-115414406D01*
X137889148Y-115403383D01*
X137865478Y-115376999D01*
X137828478Y-115337527D01*
X137780350Y-115287191D01*
X137723296Y-115228217D01*
X137659520Y-115162830D01*
X137591222Y-115093255D01*
X137520605Y-115021716D01*
X137449871Y-114950438D01*
X137381222Y-114881647D01*
X137316861Y-114817566D01*
X137258989Y-114760422D01*
X137209810Y-114712439D01*
X137171524Y-114675841D01*
X137146334Y-114652854D01*
X137136442Y-114645703D01*
X137136253Y-114653732D01*
X137007067Y-114653732D01*
X137005390Y-114641089D01*
X136730297Y-114641089D01*
X136730140Y-114540495D01*
X136830891Y-114540495D01*
X136912624Y-114540495D01*
X136919895Y-114540489D01*
X136960950Y-114539613D01*
X136983277Y-114535867D01*
X136992529Y-114527270D01*
X136994357Y-114511840D01*
X136986306Y-114489159D01*
X136958730Y-114451428D01*
X136912624Y-114402179D01*
X136830891Y-114321172D01*
X136830891Y-114540495D01*
X136730140Y-114540495D01*
X136729968Y-114430471D01*
X136729639Y-114219852D01*
X136277914Y-113760891D01*
X135826189Y-113301931D01*
X135825570Y-113214848D01*
X135824951Y-113127767D01*
X136366769Y-113676952D01*
X136419137Y-113729998D01*
X136527803Y-113839772D01*
X136620709Y-113933114D01*
X136699055Y-114011173D01*
X136764043Y-114075097D01*
X136816872Y-114126035D01*
X136858743Y-114165135D01*
X136890855Y-114193548D01*
X136914410Y-114212420D01*
X136930608Y-114222901D01*
X136940649Y-114226139D01*
X136957579Y-114225158D01*
X136967084Y-114217996D01*
X136968723Y-114198401D01*
X136964782Y-114160124D01*
X136962065Y-114136025D01*
X136958284Y-114095744D01*
X136956760Y-114068961D01*
X136956015Y-114059728D01*
X136948746Y-114049839D01*
X136928668Y-114046562D01*
X136889689Y-114047992D01*
X136879737Y-114048553D01*
X136839898Y-114047921D01*
X136811560Y-114039167D01*
X136791586Y-114024951D01*
X137074852Y-114024951D01*
X137079013Y-114072104D01*
X137080935Y-114093498D01*
X137086924Y-114151909D01*
X137092826Y-114190381D01*
X137099727Y-114212912D01*
X137108712Y-114223498D01*
X137120870Y-114226139D01*
X137131801Y-114227937D01*
X137139050Y-114236530D01*
X137143100Y-114256505D01*
X137144863Y-114292450D01*
X137145248Y-114348952D01*
X137145248Y-114471766D01*
X137185447Y-114511840D01*
X137283565Y-114609654D01*
X137421881Y-114747542D01*
X137421881Y-114641089D01*
X138176337Y-114641089D01*
X138176337Y-114880000D01*
X137557831Y-114880000D01*
X137767592Y-115096906D01*
X137807770Y-115138334D01*
X137863328Y-115195200D01*
X137911570Y-115244082D01*
X137949971Y-115282441D01*
X137976003Y-115307741D01*
X137987140Y-115317442D01*
X137991373Y-115314767D01*
X138011224Y-115296782D01*
X138045451Y-115263481D01*
X138092227Y-115216712D01*
X138149724Y-115158325D01*
X138216112Y-115090169D01*
X138289564Y-115014094D01*
X138368251Y-114931950D01*
X138447341Y-114848943D01*
X138524871Y-114767136D01*
X138587746Y-114700083D01*
X138637502Y-114646007D01*
X138675678Y-114603129D01*
X138703811Y-114569673D01*
X138723440Y-114543861D01*
X138736101Y-114523914D01*
X138743334Y-114508056D01*
X138746675Y-114494509D01*
X138747561Y-114487910D01*
X138751488Y-114451548D01*
X138756459Y-114398018D01*
X138761927Y-114333421D01*
X138767344Y-114263862D01*
X138769181Y-114239635D01*
X138774488Y-114174178D01*
X138779548Y-114117717D01*
X138783863Y-114075618D01*
X138786934Y-114053243D01*
X138792955Y-114024951D01*
X137074852Y-114024951D01*
X136791586Y-114024951D01*
X136783630Y-114019289D01*
X136778820Y-114015104D01*
X136739482Y-113964427D01*
X136723903Y-113911782D01*
X137064698Y-113911782D01*
X138479221Y-113911782D01*
X138691881Y-113911782D01*
X138748908Y-113911782D01*
X138765993Y-113911662D01*
X138791308Y-113909462D01*
X138798616Y-113902334D01*
X138792943Y-113887508D01*
X138791267Y-113884682D01*
X138772448Y-113862944D01*
X138745183Y-113838820D01*
X138717987Y-113819254D01*
X138699371Y-113811188D01*
X138697697Y-113812463D01*
X138693544Y-113829976D01*
X138691881Y-113861485D01*
X138691881Y-113911782D01*
X138479221Y-113911782D01*
X138475526Y-113821095D01*
X138471832Y-113730407D01*
X138396386Y-113715252D01*
X138358551Y-113708379D01*
X138295368Y-113698756D01*
X138236065Y-113691496D01*
X138151188Y-113682893D01*
X138151188Y-113786040D01*
X137572773Y-113786040D01*
X137572773Y-113695122D01*
X137500471Y-113703753D01*
X137389998Y-113722249D01*
X137278816Y-113755691D01*
X137186850Y-113802324D01*
X137112542Y-113862786D01*
X137064698Y-113911782D01*
X136723903Y-113911782D01*
X136722172Y-113905934D01*
X136727474Y-113844575D01*
X136755975Y-113785297D01*
X136758733Y-113781606D01*
X136796822Y-113749851D01*
X136846476Y-113731067D01*
X136900002Y-113726071D01*
X136949707Y-113735678D01*
X136987900Y-113760704D01*
X137000831Y-113773480D01*
X137013428Y-113776576D01*
X137031467Y-113766998D01*
X137061928Y-113743082D01*
X137071274Y-113735731D01*
X137143430Y-113689339D01*
X137228915Y-113648084D01*
X137298830Y-113622575D01*
X137673367Y-113622575D01*
X137673367Y-113685446D01*
X138050594Y-113685446D01*
X138050594Y-113622575D01*
X137673367Y-113622575D01*
X137298830Y-113622575D01*
X137319767Y-113614936D01*
X137408027Y-113592868D01*
X137485736Y-113584852D01*
X137493991Y-113584788D01*
X137539879Y-113580321D01*
X137565079Y-113567795D01*
X137572773Y-113545784D01*
X137573676Y-113538849D01*
X137578615Y-113532885D01*
X137590611Y-113528519D01*
X137612680Y-113525503D01*
X137647836Y-113523590D01*
X137699094Y-113522530D01*
X137769471Y-113522077D01*
X137861980Y-113521980D01*
X137948660Y-113522150D01*
X138022332Y-113522834D01*
X138076265Y-113524215D01*
X138113288Y-113526470D01*
X138136230Y-113529778D01*
X138147920Y-113534320D01*
X138151188Y-113540272D01*
X138161937Y-113554888D01*
X138192055Y-113564215D01*
X138203582Y-113565847D01*
X138242886Y-113571591D01*
X138295188Y-113579378D01*
X138352376Y-113588003D01*
X138383916Y-113592393D01*
X138430074Y-113597148D01*
X138462641Y-113598295D01*
X138476023Y-113595495D01*
X138478308Y-113593671D01*
X138499405Y-113589165D01*
X138537355Y-113586029D01*
X138586048Y-113584852D01*
X138691881Y-113584852D01*
X138691894Y-113622575D01*
X138691894Y-113625718D01*
X138692388Y-113638668D01*
X138698819Y-113660411D01*
X138717123Y-113678851D01*
X138752830Y-113700801D01*
X138784174Y-113720854D01*
X138831893Y-113759356D01*
X138875138Y-113802579D01*
X138908219Y-113844627D01*
X138925442Y-113879604D01*
X138929662Y-113893081D01*
X138937480Y-113902334D01*
X138940116Y-113905454D01*
X138961662Y-113910696D01*
G37*
X138961662Y-113910696D02*
X139001314Y-113911782D01*
X139069109Y-113911782D01*
X139069109Y-114024951D01*
X138909577Y-114024951D01*
X138894682Y-114202732D01*
X138892682Y-114227037D01*
X138888023Y-114287880D01*
X138884731Y-114337389D01*
X138883092Y-114370992D01*
X138883390Y-114384116D01*
X138887724Y-114380343D01*
X138907496Y-114360676D01*
X138941679Y-114325818D01*
X138988541Y-114277576D01*
X139046354Y-114217757D01*
X139113387Y-114148167D01*
X139187912Y-114070615D01*
X139268197Y-113986907D01*
X139352513Y-113898849D01*
X139439130Y-113808250D01*
X139526319Y-113716915D01*
X139612349Y-113626653D01*
X139695492Y-113539269D01*
X139774016Y-113456572D01*
X139846192Y-113380368D01*
X139910291Y-113312463D01*
X139964583Y-113254666D01*
X140061592Y-113151040D01*
X140062034Y-113239315D01*
X140062475Y-113327589D01*
X139461938Y-113959158D01*
X138861401Y-114590726D01*
X138849396Y-114734674D01*
X138801365Y-115310635D01*
X138792876Y-115412791D01*
X138782343Y-115540612D01*
X138772621Y-115659767D01*
X138763898Y-115767914D01*
X138756358Y-115862713D01*
X138750187Y-115941819D01*
X138745573Y-116002892D01*
X138742700Y-116043590D01*
X138741754Y-116061570D01*
X138744251Y-116069808D01*
X138755471Y-116087599D01*
X138776751Y-116114411D01*
X138787021Y-116126129D01*
X138809225Y-116151466D01*
X138854023Y-116199986D01*
X138912281Y-116261192D01*
X138985129Y-116336307D01*
X139073703Y-116426550D01*
X139179134Y-116533145D01*
X139248492Y-116603093D01*
X139345179Y-116700658D01*
X139441526Y-116797941D01*
X139534638Y-116892014D01*
X139621618Y-116979950D01*
X139699569Y-117058820D01*
X139765596Y-117125699D01*
X139816802Y-117177658D01*
X140017514Y-117381620D01*
X139981058Y-117419671D01*
X139972460Y-117428245D01*
X139947095Y-117449297D01*
X139929695Y-117457723D01*
X139916071Y-117450530D01*
X139890743Y-117428944D01*
X139860379Y-117397995D01*
X139841896Y-117378448D01*
X139807427Y-117342752D01*
X139758712Y-117292684D01*
X139697469Y-117230001D01*
X139625420Y-117156457D01*
X139544285Y-117073810D01*
X139455784Y-116983815D01*
X139361637Y-116888228D01*
X139263565Y-116788805D01*
X138721161Y-116239343D01*
X138699066Y-116524746D01*
X138694250Y-116585662D01*
X138687216Y-116667548D01*
X138680872Y-116729569D01*
X138674748Y-116774987D01*
X138668373Y-116807062D01*
X138661277Y-116829052D01*
X138652991Y-116844219D01*
X138641393Y-116865416D01*
X138631850Y-116904386D01*
X138629010Y-116960531D01*
X138629010Y-117042773D01*
X138402674Y-117042773D01*
X138402674Y-116866733D01*
X137557082Y-116866733D01*
X137508203Y-116922262D01*
X137494836Y-116936722D01*
X137422388Y-116994813D01*
X137340532Y-117030576D01*
X137251900Y-117042773D01*
X137173692Y-117036306D01*
X137085233Y-117009047D01*
X137009507Y-116960328D01*
X136994748Y-116946403D01*
X136957864Y-116901328D01*
X136925503Y-116848819D01*
X136902297Y-116797061D01*
X136892879Y-116754239D01*
X136892697Y-116748023D01*
X136891342Y-116725246D01*
X136887800Y-116709513D01*
X136880390Y-116702068D01*
X136867431Y-116704156D01*
X136847243Y-116717020D01*
X136818145Y-116741905D01*
X136778456Y-116780053D01*
X136726496Y-116832710D01*
X136660584Y-116901119D01*
X136579040Y-116986524D01*
X136535604Y-117032112D01*
X136463000Y-117108441D01*
X136394309Y-117180808D01*
X136332223Y-117246366D01*
X136279434Y-117302274D01*
X136238634Y-117345686D01*
X136212515Y-117373758D01*
X136141119Y-117451436D01*
X136052863Y-117363416D01*
X136598690Y-116791287D01*
X136633105Y-116755188D01*
X136755546Y-116626272D01*
X136860651Y-116514754D01*
X136948736Y-116420288D01*
X137020116Y-116342529D01*
X137070588Y-116286174D01*
X137277247Y-116286174D01*
X137278872Y-116299434D01*
X137279156Y-116300819D01*
X137292698Y-116332228D01*
X137319748Y-116346863D01*
X137403129Y-116378063D01*
X137477418Y-116430038D01*
X137535846Y-116498791D01*
X137575890Y-116581315D01*
X137595026Y-116674606D01*
X137601364Y-116753565D01*
X138550838Y-116753565D01*
X138557458Y-116725273D01*
X138558629Y-116718329D01*
X138562268Y-116687281D01*
X138567234Y-116637081D01*
X138573157Y-116571727D01*
X138579669Y-116495219D01*
X138586401Y-116411555D01*
X138608724Y-116126129D01*
X138307826Y-115820565D01*
X138252636Y-115764704D01*
X138185109Y-115696888D01*
X138124529Y-115636643D01*
X138073021Y-115586052D01*
X138032710Y-115547200D01*
X138005722Y-115522170D01*
X137994182Y-115513046D01*
X137986444Y-115517405D01*
X137963395Y-115537241D01*
X137928709Y-115570375D01*
X137885487Y-115613820D01*
X137836832Y-115664587D01*
X137824140Y-115678051D01*
X137767229Y-115738275D01*
X137699414Y-115809864D01*
X137625800Y-115887437D01*
X137551493Y-115965611D01*
X137481599Y-116039005D01*
X137477401Y-116043409D01*
X137412420Y-116111785D01*
X137362836Y-116164732D01*
X137326688Y-116204767D01*
X137302016Y-116234411D01*
X137286858Y-116256181D01*
X137279256Y-116272595D01*
X137277247Y-116286174D01*
X137070588Y-116286174D01*
X137075105Y-116281131D01*
X137114019Y-116235748D01*
X137137173Y-116206035D01*
X137144882Y-116191644D01*
X137144883Y-116191559D01*
X137143825Y-116173624D01*
X137140737Y-116133421D01*
X137135858Y-116073687D01*
X137129432Y-115997158D01*
X137121700Y-115906569D01*
X137112905Y-115804657D01*
X137103287Y-115694159D01*
X137093091Y-115577811D01*
X137082556Y-115458348D01*
X137071926Y-115338507D01*
X137061442Y-115221025D01*
X137051346Y-115108637D01*
X137041881Y-115004081D01*
X137033288Y-114910091D01*
X137025809Y-114829405D01*
X137019687Y-114764759D01*
X137015162Y-114718888D01*
X137012478Y-114694530D01*
X137007067Y-114653732D01*
X137136253Y-114653732D01*
X137137908Y-114684653D01*
X137141549Y-114736653D01*
X137146995Y-114807487D01*
X137154063Y-114894911D01*
X137162570Y-114996681D01*
X137172335Y-115110552D01*
X137183174Y-115234279D01*
X137194907Y-115365618D01*
X137204079Y-115466908D01*
X137215566Y-115592526D01*
X137226322Y-115708762D01*
X137236131Y-115813380D01*
X137244781Y-115904140D01*
X137252057Y-115978804D01*
X137257746Y-116035134D01*
X137261634Y-116070891D01*
X137263506Y-116083837D01*
X137269188Y-116079826D01*
X137290020Y-116060138D01*
X137323872Y-116026322D01*
X137368412Y-115980837D01*
X137421310Y-115926146D01*
X137480236Y-115864710D01*
X137542858Y-115798990D01*
X137606848Y-115731449D01*
X137669874Y-115664547D01*
X137729606Y-115600746D01*
X137783713Y-115542507D01*
X137829865Y-115492292D01*
X137865733Y-115452563D01*
X137888984Y-115425780D01*
X137895778Y-115416477D01*
X138077601Y-115416477D01*
X138353305Y-115691968D01*
X138420726Y-115759224D01*
X138484267Y-115822162D01*
X138533490Y-115870100D01*
X138570196Y-115904594D01*
X138596190Y-115927199D01*
X138613276Y-115939471D01*
X138623256Y-115942966D01*
X138627935Y-115939238D01*
X138629116Y-115929844D01*
X138629873Y-115914749D01*
X138632601Y-115875883D01*
X138637108Y-115816895D01*
X138643179Y-115740473D01*
X138650596Y-115649305D01*
X138659142Y-115546080D01*
X138668602Y-115433483D01*
X138678758Y-115314205D01*
X138687723Y-115209077D01*
X138697066Y-115098351D01*
X138705443Y-114997814D01*
X138712653Y-114909943D01*
X138718496Y-114837215D01*
X138722769Y-114782110D01*
X138725273Y-114747104D01*
X138725805Y-114734674D01*
X138725384Y-114734908D01*
X138713509Y-114746350D01*
X138687130Y-114773198D01*
X138648570Y-114813018D01*
X138600153Y-114863372D01*
X138544203Y-114921828D01*
X138483042Y-114985948D01*
X138418995Y-115053298D01*
X138354385Y-115121443D01*
X138291535Y-115187948D01*
X138232768Y-115250377D01*
X138180409Y-115306295D01*
X138079533Y-115414406D01*
X138077601Y-115416477D01*
X137895778Y-115416477D01*
X137897290Y-115414406D01*
X137889148Y-115403383D01*
X137865478Y-115376999D01*
X137828478Y-115337527D01*
X137780350Y-115287191D01*
X137723296Y-115228217D01*
X137659520Y-115162830D01*
X137591222Y-115093255D01*
X137520605Y-115021716D01*
X137449871Y-114950438D01*
X137381222Y-114881647D01*
X137316861Y-114817566D01*
X137258989Y-114760422D01*
X137209810Y-114712439D01*
X137171524Y-114675841D01*
X137146334Y-114652854D01*
X137136442Y-114645703D01*
X137136253Y-114653732D01*
X137007067Y-114653732D01*
X137005390Y-114641089D01*
X136730297Y-114641089D01*
X136730140Y-114540495D01*
X136830891Y-114540495D01*
X136912624Y-114540495D01*
X136919895Y-114540489D01*
X136960950Y-114539613D01*
X136983277Y-114535867D01*
X136992529Y-114527270D01*
X136994357Y-114511840D01*
X136986306Y-114489159D01*
X136958730Y-114451428D01*
X136912624Y-114402179D01*
X136830891Y-114321172D01*
X136830891Y-114540495D01*
X136730140Y-114540495D01*
X136729968Y-114430471D01*
X136729639Y-114219852D01*
X136277914Y-113760891D01*
X135826189Y-113301931D01*
X135825570Y-113214848D01*
X135824951Y-113127767D01*
X136366769Y-113676952D01*
X136419137Y-113729998D01*
X136527803Y-113839772D01*
X136620709Y-113933114D01*
X136699055Y-114011173D01*
X136764043Y-114075097D01*
X136816872Y-114126035D01*
X136858743Y-114165135D01*
X136890855Y-114193548D01*
X136914410Y-114212420D01*
X136930608Y-114222901D01*
X136940649Y-114226139D01*
X136957579Y-114225158D01*
X136967084Y-114217996D01*
X136968723Y-114198401D01*
X136964782Y-114160124D01*
X136962065Y-114136025D01*
X136958284Y-114095744D01*
X136956760Y-114068961D01*
X136956015Y-114059728D01*
X136948746Y-114049839D01*
X136928668Y-114046562D01*
X136889689Y-114047992D01*
X136879737Y-114048553D01*
X136839898Y-114047921D01*
X136811560Y-114039167D01*
X136791586Y-114024951D01*
X137074852Y-114024951D01*
X137079013Y-114072104D01*
X137080935Y-114093498D01*
X137086924Y-114151909D01*
X137092826Y-114190381D01*
X137099727Y-114212912D01*
X137108712Y-114223498D01*
X137120870Y-114226139D01*
X137131801Y-114227937D01*
X137139050Y-114236530D01*
X137143100Y-114256505D01*
X137144863Y-114292450D01*
X137145248Y-114348952D01*
X137145248Y-114471766D01*
X137185447Y-114511840D01*
X137283565Y-114609654D01*
X137421881Y-114747542D01*
X137421881Y-114641089D01*
X138176337Y-114641089D01*
X138176337Y-114880000D01*
X137557831Y-114880000D01*
X137767592Y-115096906D01*
X137807770Y-115138334D01*
X137863328Y-115195200D01*
X137911570Y-115244082D01*
X137949971Y-115282441D01*
X137976003Y-115307741D01*
X137987140Y-115317442D01*
X137991373Y-115314767D01*
X138011224Y-115296782D01*
X138045451Y-115263481D01*
X138092227Y-115216712D01*
X138149724Y-115158325D01*
X138216112Y-115090169D01*
X138289564Y-115014094D01*
X138368251Y-114931950D01*
X138447341Y-114848943D01*
X138524871Y-114767136D01*
X138587746Y-114700083D01*
X138637502Y-114646007D01*
X138675678Y-114603129D01*
X138703811Y-114569673D01*
X138723440Y-114543861D01*
X138736101Y-114523914D01*
X138743334Y-114508056D01*
X138746675Y-114494509D01*
X138747561Y-114487910D01*
X138751488Y-114451548D01*
X138756459Y-114398018D01*
X138761927Y-114333421D01*
X138767344Y-114263862D01*
X138769181Y-114239635D01*
X138774488Y-114174178D01*
X138779548Y-114117717D01*
X138783863Y-114075618D01*
X138786934Y-114053243D01*
X138792955Y-114024951D01*
X137074852Y-114024951D01*
X136791586Y-114024951D01*
X136783630Y-114019289D01*
X136778820Y-114015104D01*
X136739482Y-113964427D01*
X136723903Y-113911782D01*
X137064698Y-113911782D01*
X138479221Y-113911782D01*
X138691881Y-113911782D01*
X138748908Y-113911782D01*
X138765993Y-113911662D01*
X138791308Y-113909462D01*
X138798616Y-113902334D01*
X138792943Y-113887508D01*
X138791267Y-113884682D01*
X138772448Y-113862944D01*
X138745183Y-113838820D01*
X138717987Y-113819254D01*
X138699371Y-113811188D01*
X138697697Y-113812463D01*
X138693544Y-113829976D01*
X138691881Y-113861485D01*
X138691881Y-113911782D01*
X138479221Y-113911782D01*
X138475526Y-113821095D01*
X138471832Y-113730407D01*
X138396386Y-113715252D01*
X138358551Y-113708379D01*
X138295368Y-113698756D01*
X138236065Y-113691496D01*
X138151188Y-113682893D01*
X138151188Y-113786040D01*
X137572773Y-113786040D01*
X137572773Y-113695122D01*
X137500471Y-113703753D01*
X137389998Y-113722249D01*
X137278816Y-113755691D01*
X137186850Y-113802324D01*
X137112542Y-113862786D01*
X137064698Y-113911782D01*
X136723903Y-113911782D01*
X136722172Y-113905934D01*
X136727474Y-113844575D01*
X136755975Y-113785297D01*
X136758733Y-113781606D01*
X136796822Y-113749851D01*
X136846476Y-113731067D01*
X136900002Y-113726071D01*
X136949707Y-113735678D01*
X136987900Y-113760704D01*
X137000831Y-113773480D01*
X137013428Y-113776576D01*
X137031467Y-113766998D01*
X137061928Y-113743082D01*
X137071274Y-113735731D01*
X137143430Y-113689339D01*
X137228915Y-113648084D01*
X137298830Y-113622575D01*
X137673367Y-113622575D01*
X137673367Y-113685446D01*
X138050594Y-113685446D01*
X138050594Y-113622575D01*
X137673367Y-113622575D01*
X137298830Y-113622575D01*
X137319767Y-113614936D01*
X137408027Y-113592868D01*
X137485736Y-113584852D01*
X137493991Y-113584788D01*
X137539879Y-113580321D01*
X137565079Y-113567795D01*
X137572773Y-113545784D01*
X137573676Y-113538849D01*
X137578615Y-113532885D01*
X137590611Y-113528519D01*
X137612680Y-113525503D01*
X137647836Y-113523590D01*
X137699094Y-113522530D01*
X137769471Y-113522077D01*
X137861980Y-113521980D01*
X137948660Y-113522150D01*
X138022332Y-113522834D01*
X138076265Y-113524215D01*
X138113288Y-113526470D01*
X138136230Y-113529778D01*
X138147920Y-113534320D01*
X138151188Y-113540272D01*
X138161937Y-113554888D01*
X138192055Y-113564215D01*
X138203582Y-113565847D01*
X138242886Y-113571591D01*
X138295188Y-113579378D01*
X138352376Y-113588003D01*
X138383916Y-113592393D01*
X138430074Y-113597148D01*
X138462641Y-113598295D01*
X138476023Y-113595495D01*
X138478308Y-113593671D01*
X138499405Y-113589165D01*
X138537355Y-113586029D01*
X138586048Y-113584852D01*
X138691881Y-113584852D01*
X138691894Y-113622575D01*
X138691894Y-113625718D01*
X138692388Y-113638668D01*
X138698819Y-113660411D01*
X138717123Y-113678851D01*
X138752830Y-113700801D01*
X138784174Y-113720854D01*
X138831893Y-113759356D01*
X138875138Y-113802579D01*
X138908219Y-113844627D01*
X138925442Y-113879604D01*
X138929662Y-113893081D01*
X138937480Y-113902334D01*
X138940116Y-113905454D01*
X138961662Y-113910696D01*
G36*
X139722971Y-119167822D02*
G01*
X136202178Y-119167822D01*
X136202178Y-118300198D01*
X139722971Y-118300198D01*
X139722971Y-119167822D01*
G37*
X139722971Y-119167822D02*
X136202178Y-119167822D01*
X136202178Y-118300198D01*
X139722971Y-118300198D01*
X139722971Y-119167822D01*
%TD*%
M02*
