%TF.GenerationSoftware,KiCad,Pcbnew,6.0.11+dfsg-1~bpo11+1*%
%TF.CreationDate,2023-04-06T13:49:23+02:00*%
%TF.ProjectId,dvert_11,64766572-745f-4313-912e-6b696361645f,1.1*%
%TF.SameCoordinates,Original*%
%TF.FileFunction,Legend,Bot*%
%TF.FilePolarity,Positive*%
%FSLAX46Y46*%
G04 Gerber Fmt 4.6, Leading zero omitted, Abs format (unit mm)*
G04 Created by KiCad (PCBNEW 6.0.11+dfsg-1~bpo11+1) date 2023-04-06 13:49:23*
%MOMM*%
%LPD*%
G01*
G04 APERTURE LIST*
%ADD10C,0.150000*%
%ADD11C,0.120000*%
%ADD12C,0.600000*%
%ADD13C,0.300000*%
%ADD14C,0.010000*%
G04 APERTURE END LIST*
D10*
G36*
X172700000Y-84650000D02*
G01*
X170800000Y-87350000D01*
X170800000Y-85850000D01*
X166800000Y-85850000D01*
X166800000Y-83350000D01*
X170800000Y-83350000D01*
X170800000Y-81850000D01*
X172700000Y-84650000D01*
G37*
X172700000Y-84650000D02*
X170800000Y-87350000D01*
X170800000Y-85850000D01*
X166800000Y-85850000D01*
X166800000Y-83350000D01*
X170800000Y-83350000D01*
X170800000Y-81850000D01*
X172700000Y-84650000D01*
D11*
X121193333Y-92993333D02*
X121193333Y-92560000D01*
X120926666Y-92793333D01*
X120926666Y-92693333D01*
X120893333Y-92626666D01*
X120860000Y-92593333D01*
X120793333Y-92560000D01*
X120626666Y-92560000D01*
X120560000Y-92593333D01*
X120526666Y-92626666D01*
X120493333Y-92693333D01*
X120493333Y-92893333D01*
X120526666Y-92960000D01*
X120560000Y-92993333D01*
X120560000Y-92260000D02*
X120526666Y-92226666D01*
X120493333Y-92260000D01*
X120526666Y-92293333D01*
X120560000Y-92260000D01*
X120493333Y-92260000D01*
X121193333Y-91993333D02*
X121193333Y-91560000D01*
X120926666Y-91793333D01*
X120926666Y-91693333D01*
X120893333Y-91626666D01*
X120860000Y-91593333D01*
X120793333Y-91560000D01*
X120626666Y-91560000D01*
X120560000Y-91593333D01*
X120526666Y-91626666D01*
X120493333Y-91693333D01*
X120493333Y-91893333D01*
X120526666Y-91960000D01*
X120560000Y-91993333D01*
X121193333Y-91360000D02*
X120493333Y-91126666D01*
X121193333Y-90893333D01*
X137266666Y-80216666D02*
X137300000Y-80250000D01*
X137366666Y-80283333D01*
X137533333Y-80283333D01*
X137600000Y-80250000D01*
X137633333Y-80216666D01*
X137666666Y-80150000D01*
X137666666Y-80083333D01*
X137633333Y-79983333D01*
X137233333Y-79583333D01*
X137666666Y-79583333D01*
X138266666Y-80050000D02*
X138266666Y-79583333D01*
X138100000Y-80316666D02*
X137933333Y-79816666D01*
X138366666Y-79816666D01*
X138533333Y-80283333D02*
X138766666Y-79583333D01*
X139000000Y-80283333D01*
X162740000Y-81846666D02*
X162406666Y-81846666D01*
X162806666Y-82046666D02*
X162573333Y-81346666D01*
X162340000Y-82046666D01*
X161740000Y-82046666D02*
X162140000Y-82046666D01*
X161940000Y-82046666D02*
X161940000Y-81346666D01*
X162006666Y-81446666D01*
X162073333Y-81513333D01*
X162140000Y-81546666D01*
X121233333Y-95283333D02*
X121233333Y-94883333D01*
X120533333Y-95083333D02*
X121233333Y-95083333D01*
X121233333Y-94716666D02*
X120533333Y-94250000D01*
X121233333Y-94250000D02*
X120533333Y-94716666D01*
X120533333Y-93983333D02*
X121233333Y-93983333D01*
X121233333Y-93816666D01*
X121200000Y-93716666D01*
X121133333Y-93650000D01*
X121066666Y-93616666D01*
X120933333Y-93583333D01*
X120833333Y-93583333D01*
X120700000Y-93616666D01*
X120633333Y-93650000D01*
X120566666Y-93716666D01*
X120533333Y-93816666D01*
X120533333Y-93983333D01*
X120533333Y-100550000D02*
X121233333Y-100550000D01*
X120733333Y-100316666D01*
X121233333Y-100083333D01*
X120533333Y-100083333D01*
X120533333Y-99750000D02*
X121233333Y-99750000D01*
X120566666Y-99450000D02*
X120533333Y-99350000D01*
X120533333Y-99183333D01*
X120566666Y-99116666D01*
X120600000Y-99083333D01*
X120666666Y-99050000D01*
X120733333Y-99050000D01*
X120800000Y-99083333D01*
X120833333Y-99116666D01*
X120866666Y-99183333D01*
X120900000Y-99316666D01*
X120933333Y-99383333D01*
X120966666Y-99416666D01*
X121033333Y-99450000D01*
X121100000Y-99450000D01*
X121166666Y-99416666D01*
X121200000Y-99383333D01*
X121233333Y-99316666D01*
X121233333Y-99150000D01*
X121200000Y-99050000D01*
X121233333Y-98616666D02*
X121233333Y-98483333D01*
X121200000Y-98416666D01*
X121133333Y-98350000D01*
X121000000Y-98316666D01*
X120766666Y-98316666D01*
X120633333Y-98350000D01*
X120566666Y-98416666D01*
X120533333Y-98483333D01*
X120533333Y-98616666D01*
X120566666Y-98683333D01*
X120633333Y-98750000D01*
X120766666Y-98783333D01*
X121000000Y-98783333D01*
X121133333Y-98750000D01*
X121200000Y-98683333D01*
X121233333Y-98616666D01*
X126316666Y-97800000D02*
X126283333Y-97700000D01*
X126283333Y-97533333D01*
X126316666Y-97466666D01*
X126350000Y-97433333D01*
X126416666Y-97400000D01*
X126483333Y-97400000D01*
X126550000Y-97433333D01*
X126583333Y-97466666D01*
X126616666Y-97533333D01*
X126650000Y-97666666D01*
X126683333Y-97733333D01*
X126716666Y-97766666D01*
X126783333Y-97800000D01*
X126850000Y-97800000D01*
X126916666Y-97766666D01*
X126950000Y-97733333D01*
X126983333Y-97666666D01*
X126983333Y-97500000D01*
X126950000Y-97400000D01*
X126283333Y-97100000D02*
X126983333Y-97100000D01*
X126983333Y-96933333D01*
X126950000Y-96833333D01*
X126883333Y-96766666D01*
X126816666Y-96733333D01*
X126683333Y-96700000D01*
X126583333Y-96700000D01*
X126450000Y-96733333D01*
X126383333Y-96766666D01*
X126316666Y-96833333D01*
X126283333Y-96933333D01*
X126283333Y-97100000D01*
X126483333Y-96433333D02*
X126483333Y-96100000D01*
X126283333Y-96500000D02*
X126983333Y-96266666D01*
X126283333Y-96033333D01*
X120566666Y-97783333D02*
X120533333Y-97683333D01*
X120533333Y-97516666D01*
X120566666Y-97450000D01*
X120600000Y-97416666D01*
X120666666Y-97383333D01*
X120733333Y-97383333D01*
X120800000Y-97416666D01*
X120833333Y-97450000D01*
X120866666Y-97516666D01*
X120900000Y-97650000D01*
X120933333Y-97716666D01*
X120966666Y-97750000D01*
X121033333Y-97783333D01*
X121100000Y-97783333D01*
X121166666Y-97750000D01*
X121200000Y-97716666D01*
X121233333Y-97650000D01*
X121233333Y-97483333D01*
X121200000Y-97383333D01*
X120600000Y-96683333D02*
X120566666Y-96716666D01*
X120533333Y-96816666D01*
X120533333Y-96883333D01*
X120566666Y-96983333D01*
X120633333Y-97050000D01*
X120700000Y-97083333D01*
X120833333Y-97116666D01*
X120933333Y-97116666D01*
X121066666Y-97083333D01*
X121133333Y-97050000D01*
X121200000Y-96983333D01*
X121233333Y-96883333D01*
X121233333Y-96816666D01*
X121200000Y-96716666D01*
X121166666Y-96683333D01*
X120533333Y-96050000D02*
X120533333Y-96383333D01*
X121233333Y-96383333D01*
D10*
X165202380Y-96902380D02*
X166202380Y-97235714D01*
X165202380Y-97569047D01*
X165678571Y-97902380D02*
X165678571Y-98235714D01*
X166202380Y-98378571D02*
X166202380Y-97902380D01*
X165202380Y-97902380D01*
X165202380Y-98378571D01*
X166202380Y-99378571D02*
X165726190Y-99045238D01*
X166202380Y-98807142D02*
X165202380Y-98807142D01*
X165202380Y-99188095D01*
X165250000Y-99283333D01*
X165297619Y-99330952D01*
X165392857Y-99378571D01*
X165535714Y-99378571D01*
X165630952Y-99330952D01*
X165678571Y-99283333D01*
X165726190Y-99188095D01*
X165726190Y-98807142D01*
X165202380Y-99664285D02*
X165202380Y-100235714D01*
X166202380Y-99950000D02*
X165202380Y-99950000D01*
X165678571Y-100569047D02*
X165678571Y-100902380D01*
X166202380Y-101045238D02*
X166202380Y-100569047D01*
X165202380Y-100569047D01*
X165202380Y-101045238D01*
X165678571Y-101807142D02*
X165726190Y-101950000D01*
X165773809Y-101997619D01*
X165869047Y-102045238D01*
X166011904Y-102045238D01*
X166107142Y-101997619D01*
X166154761Y-101950000D01*
X166202380Y-101854761D01*
X166202380Y-101473809D01*
X165202380Y-101473809D01*
X165202380Y-101807142D01*
X165250000Y-101902380D01*
X165297619Y-101950000D01*
X165392857Y-101997619D01*
X165488095Y-101997619D01*
X165583333Y-101950000D01*
X165630952Y-101902380D01*
X165678571Y-101807142D01*
X165678571Y-101473809D01*
X166202380Y-103045238D02*
X165726190Y-102711904D01*
X166202380Y-102473809D02*
X165202380Y-102473809D01*
X165202380Y-102854761D01*
X165250000Y-102950000D01*
X165297619Y-102997619D01*
X165392857Y-103045238D01*
X165535714Y-103045238D01*
X165630952Y-102997619D01*
X165678571Y-102950000D01*
X165726190Y-102854761D01*
X165726190Y-102473809D01*
X165916666Y-103426190D02*
X165916666Y-103902380D01*
X166202380Y-103330952D02*
X165202380Y-103664285D01*
X166202380Y-103997619D01*
D11*
X126970000Y-107593333D02*
X127003333Y-107660000D01*
X127003333Y-107760000D01*
X126970000Y-107860000D01*
X126903333Y-107926666D01*
X126836666Y-107960000D01*
X126703333Y-107993333D01*
X126603333Y-107993333D01*
X126470000Y-107960000D01*
X126403333Y-107926666D01*
X126336666Y-107860000D01*
X126303333Y-107760000D01*
X126303333Y-107693333D01*
X126336666Y-107593333D01*
X126370000Y-107560000D01*
X126603333Y-107560000D01*
X126603333Y-107693333D01*
X126303333Y-107260000D02*
X127003333Y-107260000D01*
X126303333Y-106860000D01*
X127003333Y-106860000D01*
X126303333Y-106526666D02*
X127003333Y-106526666D01*
X127003333Y-106360000D01*
X126970000Y-106260000D01*
X126903333Y-106193333D01*
X126836666Y-106160000D01*
X126703333Y-106126666D01*
X126603333Y-106126666D01*
X126470000Y-106160000D01*
X126403333Y-106193333D01*
X126336666Y-106260000D01*
X126303333Y-106360000D01*
X126303333Y-106526666D01*
X138613333Y-126740000D02*
X138680000Y-126706666D01*
X138780000Y-126706666D01*
X138880000Y-126740000D01*
X138946666Y-126806666D01*
X138980000Y-126873333D01*
X139013333Y-127006666D01*
X139013333Y-127106666D01*
X138980000Y-127240000D01*
X138946666Y-127306666D01*
X138880000Y-127373333D01*
X138780000Y-127406666D01*
X138713333Y-127406666D01*
X138613333Y-127373333D01*
X138580000Y-127340000D01*
X138580000Y-127106666D01*
X138713333Y-127106666D01*
X138280000Y-127406666D02*
X138280000Y-126706666D01*
X137880000Y-127406666D01*
X137880000Y-126706666D01*
X137546666Y-127406666D02*
X137546666Y-126706666D01*
X137380000Y-126706666D01*
X137280000Y-126740000D01*
X137213333Y-126806666D01*
X137180000Y-126873333D01*
X137146666Y-127006666D01*
X137146666Y-127106666D01*
X137180000Y-127240000D01*
X137213333Y-127306666D01*
X137280000Y-127373333D01*
X137380000Y-127406666D01*
X137546666Y-127406666D01*
X147316666Y-79533333D02*
X147316666Y-80233333D01*
X147783333Y-80233333D02*
X147916666Y-80233333D01*
X147983333Y-80200000D01*
X148050000Y-80133333D01*
X148083333Y-80000000D01*
X148083333Y-79766666D01*
X148050000Y-79633333D01*
X147983333Y-79566666D01*
X147916666Y-79533333D01*
X147783333Y-79533333D01*
X147716666Y-79566666D01*
X147650000Y-79633333D01*
X147616666Y-79766666D01*
X147616666Y-80000000D01*
X147650000Y-80133333D01*
X147716666Y-80200000D01*
X147783333Y-80233333D01*
X148516666Y-80233333D02*
X148583333Y-80233333D01*
X148650000Y-80200000D01*
X148683333Y-80166666D01*
X148716666Y-80100000D01*
X148750000Y-79966666D01*
X148750000Y-79800000D01*
X148716666Y-79666666D01*
X148683333Y-79600000D01*
X148650000Y-79566666D01*
X148583333Y-79533333D01*
X148516666Y-79533333D01*
X148450000Y-79566666D01*
X148416666Y-79600000D01*
X148383333Y-79666666D01*
X148350000Y-79800000D01*
X148350000Y-79966666D01*
X148383333Y-80100000D01*
X148416666Y-80166666D01*
X148450000Y-80200000D01*
X148516666Y-80233333D01*
X149350000Y-80233333D02*
X149216666Y-80233333D01*
X149150000Y-80200000D01*
X149116666Y-80166666D01*
X149050000Y-80066666D01*
X149016666Y-79933333D01*
X149016666Y-79666666D01*
X149050000Y-79600000D01*
X149083333Y-79566666D01*
X149150000Y-79533333D01*
X149283333Y-79533333D01*
X149350000Y-79566666D01*
X149383333Y-79600000D01*
X149416666Y-79666666D01*
X149416666Y-79833333D01*
X149383333Y-79900000D01*
X149350000Y-79933333D01*
X149283333Y-79966666D01*
X149150000Y-79966666D01*
X149083333Y-79933333D01*
X149050000Y-79900000D01*
X149016666Y-79833333D01*
X160110000Y-81826666D02*
X159776666Y-81826666D01*
X160176666Y-82026666D02*
X159943333Y-81326666D01*
X159710000Y-82026666D01*
X159343333Y-81326666D02*
X159276666Y-81326666D01*
X159210000Y-81360000D01*
X159176666Y-81393333D01*
X159143333Y-81460000D01*
X159110000Y-81593333D01*
X159110000Y-81760000D01*
X159143333Y-81893333D01*
X159176666Y-81960000D01*
X159210000Y-81993333D01*
X159276666Y-82026666D01*
X159343333Y-82026666D01*
X159410000Y-81993333D01*
X159443333Y-81960000D01*
X159476666Y-81893333D01*
X159510000Y-81760000D01*
X159510000Y-81593333D01*
X159476666Y-81460000D01*
X159443333Y-81393333D01*
X159410000Y-81360000D01*
X159343333Y-81326666D01*
X172983333Y-108766666D02*
X172950000Y-108800000D01*
X172916666Y-108866666D01*
X172916666Y-109033333D01*
X172950000Y-109100000D01*
X172983333Y-109133333D01*
X173050000Y-109166666D01*
X173116666Y-109166666D01*
X173216666Y-109133333D01*
X173616666Y-108733333D01*
X173616666Y-109166666D01*
X173150000Y-109766666D02*
X173616666Y-109766666D01*
X172883333Y-109600000D02*
X173383333Y-109433333D01*
X173383333Y-109866666D01*
X172916666Y-110033333D02*
X173616666Y-110266666D01*
X172916666Y-110500000D01*
X156803333Y-126743333D02*
X156770000Y-126710000D01*
X156703333Y-126676666D01*
X156536666Y-126676666D01*
X156470000Y-126710000D01*
X156436666Y-126743333D01*
X156403333Y-126810000D01*
X156403333Y-126876666D01*
X156436666Y-126976666D01*
X156836666Y-127376666D01*
X156403333Y-127376666D01*
X155803333Y-126910000D02*
X155803333Y-127376666D01*
X155970000Y-126643333D02*
X156136666Y-127143333D01*
X155703333Y-127143333D01*
X155536666Y-126676666D02*
X155303333Y-127376666D01*
X155070000Y-126676666D01*
D10*
X141714285Y-81097619D02*
X141380952Y-81573809D01*
X141142857Y-81097619D02*
X141142857Y-82097619D01*
X141523809Y-82097619D01*
X141619047Y-82050000D01*
X141666666Y-82002380D01*
X141714285Y-81907142D01*
X141714285Y-81764285D01*
X141666666Y-81669047D01*
X141619047Y-81621428D01*
X141523809Y-81573809D01*
X141142857Y-81573809D01*
X142142857Y-81097619D02*
X142142857Y-82097619D01*
X142952380Y-81621428D02*
X143095238Y-81573809D01*
X143142857Y-81526190D01*
X143190476Y-81430952D01*
X143190476Y-81288095D01*
X143142857Y-81192857D01*
X143095238Y-81145238D01*
X143000000Y-81097619D01*
X142619047Y-81097619D01*
X142619047Y-82097619D01*
X142952380Y-82097619D01*
X143047619Y-82050000D01*
X143095238Y-82002380D01*
X143142857Y-81907142D01*
X143142857Y-81811904D01*
X143095238Y-81716666D01*
X143047619Y-81669047D01*
X142952380Y-81621428D01*
X142619047Y-81621428D01*
X145095238Y-82145238D02*
X144238095Y-80859523D01*
X146761904Y-81192857D02*
X146714285Y-81145238D01*
X146571428Y-81097619D01*
X146476190Y-81097619D01*
X146333333Y-81145238D01*
X146238095Y-81240476D01*
X146190476Y-81335714D01*
X146142857Y-81526190D01*
X146142857Y-81669047D01*
X146190476Y-81859523D01*
X146238095Y-81954761D01*
X146333333Y-82050000D01*
X146476190Y-82097619D01*
X146571428Y-82097619D01*
X146714285Y-82050000D01*
X146761904Y-82002380D01*
X147380952Y-82097619D02*
X147571428Y-82097619D01*
X147666666Y-82050000D01*
X147761904Y-81954761D01*
X147809523Y-81764285D01*
X147809523Y-81430952D01*
X147761904Y-81240476D01*
X147666666Y-81145238D01*
X147571428Y-81097619D01*
X147380952Y-81097619D01*
X147285714Y-81145238D01*
X147190476Y-81240476D01*
X147142857Y-81430952D01*
X147142857Y-81764285D01*
X147190476Y-81954761D01*
X147285714Y-82050000D01*
X147380952Y-82097619D01*
X148190476Y-81145238D02*
X148333333Y-81097619D01*
X148571428Y-81097619D01*
X148666666Y-81145238D01*
X148714285Y-81192857D01*
X148761904Y-81288095D01*
X148761904Y-81383333D01*
X148714285Y-81478571D01*
X148666666Y-81526190D01*
X148571428Y-81573809D01*
X148380952Y-81621428D01*
X148285714Y-81669047D01*
X148238095Y-81716666D01*
X148190476Y-81811904D01*
X148190476Y-81907142D01*
X148238095Y-82002380D01*
X148285714Y-82050000D01*
X148380952Y-82097619D01*
X148619047Y-82097619D01*
X148761904Y-82050000D01*
X149047619Y-82097619D02*
X149619047Y-82097619D01*
X149333333Y-81097619D02*
X149333333Y-82097619D01*
X149952380Y-81621428D02*
X150285714Y-81621428D01*
X150428571Y-81097619D02*
X149952380Y-81097619D01*
X149952380Y-82097619D01*
X150428571Y-82097619D01*
X151333333Y-81097619D02*
X150857142Y-81097619D01*
X150857142Y-82097619D01*
X152142857Y-81097619D02*
X151666666Y-81097619D01*
X151666666Y-82097619D01*
X152428571Y-81383333D02*
X152904761Y-81383333D01*
X152333333Y-81097619D02*
X152666666Y-82097619D01*
X153000000Y-81097619D01*
D11*
X160293333Y-87290000D02*
X160360000Y-87256666D01*
X160460000Y-87256666D01*
X160560000Y-87290000D01*
X160626666Y-87356666D01*
X160660000Y-87423333D01*
X160693333Y-87556666D01*
X160693333Y-87656666D01*
X160660000Y-87790000D01*
X160626666Y-87856666D01*
X160560000Y-87923333D01*
X160460000Y-87956666D01*
X160393333Y-87956666D01*
X160293333Y-87923333D01*
X160260000Y-87890000D01*
X160260000Y-87656666D01*
X160393333Y-87656666D01*
X159960000Y-87956666D02*
X159960000Y-87256666D01*
X159560000Y-87956666D01*
X159560000Y-87256666D01*
X159226666Y-87956666D02*
X159226666Y-87256666D01*
X159060000Y-87256666D01*
X158960000Y-87290000D01*
X158893333Y-87356666D01*
X158860000Y-87423333D01*
X158826666Y-87556666D01*
X158826666Y-87656666D01*
X158860000Y-87790000D01*
X158893333Y-87856666D01*
X158960000Y-87923333D01*
X159060000Y-87956666D01*
X159226666Y-87956666D01*
D12*
X162152380Y-78616666D02*
X160247619Y-78616666D01*
X162533333Y-79759523D02*
X161200000Y-75759523D01*
X159866666Y-79759523D01*
D11*
X173633333Y-96150000D02*
X173666666Y-96250000D01*
X173666666Y-96416666D01*
X173633333Y-96483333D01*
X173600000Y-96516666D01*
X173533333Y-96550000D01*
X173466666Y-96550000D01*
X173400000Y-96516666D01*
X173366666Y-96483333D01*
X173333333Y-96416666D01*
X173300000Y-96283333D01*
X173266666Y-96216666D01*
X173233333Y-96183333D01*
X173166666Y-96150000D01*
X173100000Y-96150000D01*
X173033333Y-96183333D01*
X173000000Y-96216666D01*
X172966666Y-96283333D01*
X172966666Y-96450000D01*
X173000000Y-96550000D01*
X173666666Y-96850000D02*
X172966666Y-96850000D01*
X172966666Y-97016666D01*
X173000000Y-97116666D01*
X173066666Y-97183333D01*
X173133333Y-97216666D01*
X173266666Y-97250000D01*
X173366666Y-97250000D01*
X173500000Y-97216666D01*
X173566666Y-97183333D01*
X173633333Y-97116666D01*
X173666666Y-97016666D01*
X173666666Y-96850000D01*
X173466666Y-97516666D02*
X173466666Y-97850000D01*
X173666666Y-97450000D02*
X172966666Y-97683333D01*
X173666666Y-97916666D01*
X126283333Y-100600000D02*
X126983333Y-100600000D01*
X126483333Y-100366666D01*
X126983333Y-100133333D01*
X126283333Y-100133333D01*
X126983333Y-99666666D02*
X126983333Y-99533333D01*
X126950000Y-99466666D01*
X126883333Y-99400000D01*
X126750000Y-99366666D01*
X126516666Y-99366666D01*
X126383333Y-99400000D01*
X126316666Y-99466666D01*
X126283333Y-99533333D01*
X126283333Y-99666666D01*
X126316666Y-99733333D01*
X126383333Y-99800000D01*
X126516666Y-99833333D01*
X126750000Y-99833333D01*
X126883333Y-99800000D01*
X126950000Y-99733333D01*
X126983333Y-99666666D01*
X126316666Y-99100000D02*
X126283333Y-99000000D01*
X126283333Y-98833333D01*
X126316666Y-98766666D01*
X126350000Y-98733333D01*
X126416666Y-98700000D01*
X126483333Y-98700000D01*
X126550000Y-98733333D01*
X126583333Y-98766666D01*
X126616666Y-98833333D01*
X126650000Y-98966666D01*
X126683333Y-99033333D01*
X126716666Y-99066666D01*
X126783333Y-99100000D01*
X126850000Y-99100000D01*
X126916666Y-99066666D01*
X126950000Y-99033333D01*
X126983333Y-98966666D01*
X126983333Y-98800000D01*
X126950000Y-98700000D01*
X126283333Y-98400000D02*
X126983333Y-98400000D01*
X147266666Y-73883333D02*
X147266666Y-74583333D01*
X147733333Y-74583333D02*
X147866666Y-74583333D01*
X147933333Y-74550000D01*
X148000000Y-74483333D01*
X148033333Y-74350000D01*
X148033333Y-74116666D01*
X148000000Y-73983333D01*
X147933333Y-73916666D01*
X147866666Y-73883333D01*
X147733333Y-73883333D01*
X147666666Y-73916666D01*
X147600000Y-73983333D01*
X147566666Y-74116666D01*
X147566666Y-74350000D01*
X147600000Y-74483333D01*
X147666666Y-74550000D01*
X147733333Y-74583333D01*
X148466666Y-74583333D02*
X148533333Y-74583333D01*
X148600000Y-74550000D01*
X148633333Y-74516666D01*
X148666666Y-74450000D01*
X148700000Y-74316666D01*
X148700000Y-74150000D01*
X148666666Y-74016666D01*
X148633333Y-73950000D01*
X148600000Y-73916666D01*
X148533333Y-73883333D01*
X148466666Y-73883333D01*
X148400000Y-73916666D01*
X148366666Y-73950000D01*
X148333333Y-74016666D01*
X148300000Y-74150000D01*
X148300000Y-74316666D01*
X148333333Y-74450000D01*
X148366666Y-74516666D01*
X148400000Y-74550000D01*
X148466666Y-74583333D01*
X149333333Y-74583333D02*
X149000000Y-74583333D01*
X148966666Y-74250000D01*
X149000000Y-74283333D01*
X149066666Y-74316666D01*
X149233333Y-74316666D01*
X149300000Y-74283333D01*
X149333333Y-74250000D01*
X149366666Y-74183333D01*
X149366666Y-74016666D01*
X149333333Y-73950000D01*
X149300000Y-73916666D01*
X149233333Y-73883333D01*
X149066666Y-73883333D01*
X149000000Y-73916666D01*
X148966666Y-73950000D01*
X149866666Y-73883333D02*
X149866666Y-74583333D01*
X150333333Y-74583333D02*
X150466666Y-74583333D01*
X150533333Y-74550000D01*
X150600000Y-74483333D01*
X150633333Y-74350000D01*
X150633333Y-74116666D01*
X150600000Y-73983333D01*
X150533333Y-73916666D01*
X150466666Y-73883333D01*
X150333333Y-73883333D01*
X150266666Y-73916666D01*
X150200000Y-73983333D01*
X150166666Y-74116666D01*
X150166666Y-74350000D01*
X150200000Y-74483333D01*
X150266666Y-74550000D01*
X150333333Y-74583333D01*
X151066666Y-74583333D02*
X151133333Y-74583333D01*
X151200000Y-74550000D01*
X151233333Y-74516666D01*
X151266666Y-74450000D01*
X151300000Y-74316666D01*
X151300000Y-74150000D01*
X151266666Y-74016666D01*
X151233333Y-73950000D01*
X151200000Y-73916666D01*
X151133333Y-73883333D01*
X151066666Y-73883333D01*
X151000000Y-73916666D01*
X150966666Y-73950000D01*
X150933333Y-74016666D01*
X150900000Y-74150000D01*
X150900000Y-74316666D01*
X150933333Y-74450000D01*
X150966666Y-74516666D01*
X151000000Y-74550000D01*
X151066666Y-74583333D01*
X151533333Y-74583333D02*
X151966666Y-74583333D01*
X151733333Y-74316666D01*
X151833333Y-74316666D01*
X151900000Y-74283333D01*
X151933333Y-74250000D01*
X151966666Y-74183333D01*
X151966666Y-74016666D01*
X151933333Y-73950000D01*
X151900000Y-73916666D01*
X151833333Y-73883333D01*
X151633333Y-73883333D01*
X151566666Y-73916666D01*
X151533333Y-73950000D01*
X167766666Y-98300000D02*
X167066666Y-98300000D01*
X167566666Y-98533333D01*
X167066666Y-98766666D01*
X167766666Y-98766666D01*
X167766666Y-99100000D02*
X167066666Y-99100000D01*
X167733333Y-99400000D02*
X167766666Y-99500000D01*
X167766666Y-99666666D01*
X167733333Y-99733333D01*
X167700000Y-99766666D01*
X167633333Y-99800000D01*
X167566666Y-99800000D01*
X167500000Y-99766666D01*
X167466666Y-99733333D01*
X167433333Y-99666666D01*
X167400000Y-99533333D01*
X167366666Y-99466666D01*
X167333333Y-99433333D01*
X167266666Y-99400000D01*
X167200000Y-99400000D01*
X167133333Y-99433333D01*
X167100000Y-99466666D01*
X167066666Y-99533333D01*
X167066666Y-99700000D01*
X167100000Y-99800000D01*
X167066666Y-100233333D02*
X167066666Y-100366666D01*
X167100000Y-100433333D01*
X167166666Y-100500000D01*
X167300000Y-100533333D01*
X167533333Y-100533333D01*
X167666666Y-100500000D01*
X167733333Y-100433333D01*
X167766666Y-100366666D01*
X167766666Y-100233333D01*
X167733333Y-100166666D01*
X167666666Y-100100000D01*
X167533333Y-100066666D01*
X167300000Y-100066666D01*
X167166666Y-100100000D01*
X167100000Y-100166666D01*
X167066666Y-100233333D01*
X126316666Y-105316666D02*
X126283333Y-105216666D01*
X126283333Y-105050000D01*
X126316666Y-104983333D01*
X126350000Y-104950000D01*
X126416666Y-104916666D01*
X126483333Y-104916666D01*
X126550000Y-104950000D01*
X126583333Y-104983333D01*
X126616666Y-105050000D01*
X126650000Y-105183333D01*
X126683333Y-105250000D01*
X126716666Y-105283333D01*
X126783333Y-105316666D01*
X126850000Y-105316666D01*
X126916666Y-105283333D01*
X126950000Y-105250000D01*
X126983333Y-105183333D01*
X126983333Y-105016666D01*
X126950000Y-104916666D01*
X126316666Y-104650000D02*
X126283333Y-104550000D01*
X126283333Y-104383333D01*
X126316666Y-104316666D01*
X126350000Y-104283333D01*
X126416666Y-104250000D01*
X126483333Y-104250000D01*
X126550000Y-104283333D01*
X126583333Y-104316666D01*
X126616666Y-104383333D01*
X126650000Y-104516666D01*
X126683333Y-104583333D01*
X126716666Y-104616666D01*
X126783333Y-104650000D01*
X126850000Y-104650000D01*
X126916666Y-104616666D01*
X126950000Y-104583333D01*
X126983333Y-104516666D01*
X126983333Y-104350000D01*
X126950000Y-104250000D01*
X126983333Y-104016666D02*
X126983333Y-103583333D01*
X126716666Y-103816666D01*
X126716666Y-103716666D01*
X126683333Y-103650000D01*
X126650000Y-103616666D01*
X126583333Y-103583333D01*
X126416666Y-103583333D01*
X126350000Y-103616666D01*
X126316666Y-103650000D01*
X126283333Y-103716666D01*
X126283333Y-103916666D01*
X126316666Y-103983333D01*
X126350000Y-104016666D01*
X146633333Y-121516666D02*
X146633333Y-120816666D01*
X146166666Y-120816666D02*
X146033333Y-120816666D01*
X145966666Y-120850000D01*
X145900000Y-120916666D01*
X145866666Y-121050000D01*
X145866666Y-121283333D01*
X145900000Y-121416666D01*
X145966666Y-121483333D01*
X146033333Y-121516666D01*
X146166666Y-121516666D01*
X146233333Y-121483333D01*
X146300000Y-121416666D01*
X146333333Y-121283333D01*
X146333333Y-121050000D01*
X146300000Y-120916666D01*
X146233333Y-120850000D01*
X146166666Y-120816666D01*
X145200000Y-121516666D02*
X145600000Y-121516666D01*
X145400000Y-121516666D02*
X145400000Y-120816666D01*
X145466666Y-120916666D01*
X145533333Y-120983333D01*
X145600000Y-121016666D01*
X144600000Y-120816666D02*
X144733333Y-120816666D01*
X144800000Y-120850000D01*
X144833333Y-120883333D01*
X144900000Y-120983333D01*
X144933333Y-121116666D01*
X144933333Y-121383333D01*
X144900000Y-121450000D01*
X144866666Y-121483333D01*
X144800000Y-121516666D01*
X144666666Y-121516666D01*
X144600000Y-121483333D01*
X144566666Y-121450000D01*
X144533333Y-121383333D01*
X144533333Y-121216666D01*
X144566666Y-121150000D01*
X144600000Y-121116666D01*
X144666666Y-121083333D01*
X144800000Y-121083333D01*
X144866666Y-121116666D01*
X144900000Y-121150000D01*
X144933333Y-121216666D01*
X126316666Y-102916666D02*
X126283333Y-102816666D01*
X126283333Y-102650000D01*
X126316666Y-102583333D01*
X126350000Y-102550000D01*
X126416666Y-102516666D01*
X126483333Y-102516666D01*
X126550000Y-102550000D01*
X126583333Y-102583333D01*
X126616666Y-102650000D01*
X126650000Y-102783333D01*
X126683333Y-102850000D01*
X126716666Y-102883333D01*
X126783333Y-102916666D01*
X126850000Y-102916666D01*
X126916666Y-102883333D01*
X126950000Y-102850000D01*
X126983333Y-102783333D01*
X126983333Y-102616666D01*
X126950000Y-102516666D01*
X126316666Y-102250000D02*
X126283333Y-102150000D01*
X126283333Y-101983333D01*
X126316666Y-101916666D01*
X126350000Y-101883333D01*
X126416666Y-101850000D01*
X126483333Y-101850000D01*
X126550000Y-101883333D01*
X126583333Y-101916666D01*
X126616666Y-101983333D01*
X126650000Y-102116666D01*
X126683333Y-102183333D01*
X126716666Y-102216666D01*
X126783333Y-102250000D01*
X126850000Y-102250000D01*
X126916666Y-102216666D01*
X126950000Y-102183333D01*
X126983333Y-102116666D01*
X126983333Y-101950000D01*
X126950000Y-101850000D01*
X126283333Y-101183333D02*
X126283333Y-101583333D01*
X126283333Y-101383333D02*
X126983333Y-101383333D01*
X126883333Y-101450000D01*
X126816666Y-101516666D01*
X126783333Y-101583333D01*
X155016666Y-79533333D02*
X155016666Y-80233333D01*
X155483333Y-80233333D02*
X155616666Y-80233333D01*
X155683333Y-80200000D01*
X155750000Y-80133333D01*
X155783333Y-80000000D01*
X155783333Y-79766666D01*
X155750000Y-79633333D01*
X155683333Y-79566666D01*
X155616666Y-79533333D01*
X155483333Y-79533333D01*
X155416666Y-79566666D01*
X155350000Y-79633333D01*
X155316666Y-79766666D01*
X155316666Y-80000000D01*
X155350000Y-80133333D01*
X155416666Y-80200000D01*
X155483333Y-80233333D01*
X156216666Y-80233333D02*
X156283333Y-80233333D01*
X156350000Y-80200000D01*
X156383333Y-80166666D01*
X156416666Y-80100000D01*
X156450000Y-79966666D01*
X156450000Y-79800000D01*
X156416666Y-79666666D01*
X156383333Y-79600000D01*
X156350000Y-79566666D01*
X156283333Y-79533333D01*
X156216666Y-79533333D01*
X156150000Y-79566666D01*
X156116666Y-79600000D01*
X156083333Y-79666666D01*
X156050000Y-79800000D01*
X156050000Y-79966666D01*
X156083333Y-80100000D01*
X156116666Y-80166666D01*
X156150000Y-80200000D01*
X156216666Y-80233333D01*
X156883333Y-80233333D02*
X156950000Y-80233333D01*
X157016666Y-80200000D01*
X157050000Y-80166666D01*
X157083333Y-80100000D01*
X157116666Y-79966666D01*
X157116666Y-79800000D01*
X157083333Y-79666666D01*
X157050000Y-79600000D01*
X157016666Y-79566666D01*
X156950000Y-79533333D01*
X156883333Y-79533333D01*
X156816666Y-79566666D01*
X156783333Y-79600000D01*
X156750000Y-79666666D01*
X156716666Y-79800000D01*
X156716666Y-79966666D01*
X156750000Y-80100000D01*
X156783333Y-80166666D01*
X156816666Y-80200000D01*
X156883333Y-80233333D01*
X141433333Y-121516666D02*
X141433333Y-120816666D01*
X140966666Y-120816666D02*
X140833333Y-120816666D01*
X140766666Y-120850000D01*
X140700000Y-120916666D01*
X140666666Y-121050000D01*
X140666666Y-121283333D01*
X140700000Y-121416666D01*
X140766666Y-121483333D01*
X140833333Y-121516666D01*
X140966666Y-121516666D01*
X141033333Y-121483333D01*
X141100000Y-121416666D01*
X141133333Y-121283333D01*
X141133333Y-121050000D01*
X141100000Y-120916666D01*
X141033333Y-120850000D01*
X140966666Y-120816666D01*
X140000000Y-121516666D02*
X140400000Y-121516666D01*
X140200000Y-121516666D02*
X140200000Y-120816666D01*
X140266666Y-120916666D01*
X140333333Y-120983333D01*
X140400000Y-121016666D01*
X139733333Y-120883333D02*
X139700000Y-120850000D01*
X139633333Y-120816666D01*
X139466666Y-120816666D01*
X139400000Y-120850000D01*
X139366666Y-120883333D01*
X139333333Y-120950000D01*
X139333333Y-121016666D01*
X139366666Y-121116666D01*
X139766666Y-121516666D01*
X139333333Y-121516666D01*
X121146666Y-110483333D02*
X121180000Y-110450000D01*
X121213333Y-110383333D01*
X121213333Y-110216666D01*
X121180000Y-110150000D01*
X121146666Y-110116666D01*
X121080000Y-110083333D01*
X121013333Y-110083333D01*
X120913333Y-110116666D01*
X120513333Y-110516666D01*
X120513333Y-110083333D01*
X120980000Y-109483333D02*
X120513333Y-109483333D01*
X121246666Y-109650000D02*
X120746666Y-109816666D01*
X120746666Y-109383333D01*
X121213333Y-109216666D02*
X120513333Y-108983333D01*
X121213333Y-108750000D01*
X127000000Y-92353333D02*
X127033333Y-92420000D01*
X127033333Y-92520000D01*
X127000000Y-92620000D01*
X126933333Y-92686666D01*
X126866666Y-92720000D01*
X126733333Y-92753333D01*
X126633333Y-92753333D01*
X126500000Y-92720000D01*
X126433333Y-92686666D01*
X126366666Y-92620000D01*
X126333333Y-92520000D01*
X126333333Y-92453333D01*
X126366666Y-92353333D01*
X126400000Y-92320000D01*
X126633333Y-92320000D01*
X126633333Y-92453333D01*
X126333333Y-92020000D02*
X127033333Y-92020000D01*
X126333333Y-91620000D01*
X127033333Y-91620000D01*
X126333333Y-91286666D02*
X127033333Y-91286666D01*
X127033333Y-91120000D01*
X127000000Y-91020000D01*
X126933333Y-90953333D01*
X126866666Y-90920000D01*
X126733333Y-90886666D01*
X126633333Y-90886666D01*
X126500000Y-90920000D01*
X126433333Y-90953333D01*
X126366666Y-91020000D01*
X126333333Y-91120000D01*
X126333333Y-91286666D01*
X120566666Y-105316666D02*
X120533333Y-105216666D01*
X120533333Y-105050000D01*
X120566666Y-104983333D01*
X120600000Y-104950000D01*
X120666666Y-104916666D01*
X120733333Y-104916666D01*
X120800000Y-104950000D01*
X120833333Y-104983333D01*
X120866666Y-105050000D01*
X120900000Y-105183333D01*
X120933333Y-105250000D01*
X120966666Y-105283333D01*
X121033333Y-105316666D01*
X121100000Y-105316666D01*
X121166666Y-105283333D01*
X121200000Y-105250000D01*
X121233333Y-105183333D01*
X121233333Y-105016666D01*
X121200000Y-104916666D01*
X120566666Y-104650000D02*
X120533333Y-104550000D01*
X120533333Y-104383333D01*
X120566666Y-104316666D01*
X120600000Y-104283333D01*
X120666666Y-104250000D01*
X120733333Y-104250000D01*
X120800000Y-104283333D01*
X120833333Y-104316666D01*
X120866666Y-104383333D01*
X120900000Y-104516666D01*
X120933333Y-104583333D01*
X120966666Y-104616666D01*
X121033333Y-104650000D01*
X121100000Y-104650000D01*
X121166666Y-104616666D01*
X121200000Y-104583333D01*
X121233333Y-104516666D01*
X121233333Y-104350000D01*
X121200000Y-104250000D01*
X121166666Y-103983333D02*
X121200000Y-103950000D01*
X121233333Y-103883333D01*
X121233333Y-103716666D01*
X121200000Y-103650000D01*
X121166666Y-103616666D01*
X121100000Y-103583333D01*
X121033333Y-103583333D01*
X120933333Y-103616666D01*
X120533333Y-104016666D01*
X120533333Y-103583333D01*
D13*
X162509523Y-112271428D02*
X162128571Y-113604761D01*
X161747619Y-112652380D01*
X161366666Y-113604761D01*
X160985714Y-112271428D01*
X160414285Y-112271428D02*
X160033333Y-113604761D01*
X159652380Y-112652380D01*
X159271428Y-113604761D01*
X158890476Y-112271428D01*
X158319047Y-112271428D02*
X157938095Y-113604761D01*
X157557142Y-112652380D01*
X157176190Y-113604761D01*
X156795238Y-112271428D01*
X156033333Y-113414285D02*
X155938095Y-113509523D01*
X156033333Y-113604761D01*
X156128571Y-113509523D01*
X156033333Y-113414285D01*
X156033333Y-113604761D01*
X155080952Y-113604761D02*
X155080952Y-112271428D01*
X155080952Y-111604761D02*
X155176190Y-111700000D01*
X155080952Y-111795238D01*
X154985714Y-111700000D01*
X155080952Y-111604761D01*
X155080952Y-111795238D01*
X153842857Y-113604761D02*
X154033333Y-113509523D01*
X154128571Y-113414285D01*
X154223809Y-113223809D01*
X154223809Y-112652380D01*
X154128571Y-112461904D01*
X154033333Y-112366666D01*
X153842857Y-112271428D01*
X153557142Y-112271428D01*
X153366666Y-112366666D01*
X153271428Y-112461904D01*
X153176190Y-112652380D01*
X153176190Y-113223809D01*
X153271428Y-113414285D01*
X153366666Y-113509523D01*
X153557142Y-113604761D01*
X153842857Y-113604761D01*
X152604761Y-112271428D02*
X151842857Y-112271428D01*
X152319047Y-111604761D02*
X152319047Y-113319047D01*
X152223809Y-113509523D01*
X152033333Y-113604761D01*
X151842857Y-113604761D01*
X151366666Y-112271428D02*
X150890476Y-113604761D01*
X150414285Y-112271428D01*
X148890476Y-113509523D02*
X149080952Y-113604761D01*
X149461904Y-113604761D01*
X149652380Y-113509523D01*
X149747619Y-113319047D01*
X149747619Y-112557142D01*
X149652380Y-112366666D01*
X149461904Y-112271428D01*
X149080952Y-112271428D01*
X148890476Y-112366666D01*
X148795238Y-112557142D01*
X148795238Y-112747619D01*
X149747619Y-112938095D01*
X147938095Y-113604761D02*
X147938095Y-112271428D01*
X147938095Y-112652380D02*
X147842857Y-112461904D01*
X147747619Y-112366666D01*
X147557142Y-112271428D01*
X147366666Y-112271428D01*
X146985714Y-112271428D02*
X146223809Y-112271428D01*
X146700000Y-111604761D02*
X146700000Y-113319047D01*
X146604761Y-113509523D01*
X146414285Y-113604761D01*
X146223809Y-113604761D01*
X144795238Y-113509523D02*
X144985714Y-113604761D01*
X145366666Y-113604761D01*
X145557142Y-113509523D01*
X145652380Y-113319047D01*
X145652380Y-112557142D01*
X145557142Y-112366666D01*
X145366666Y-112271428D01*
X144985714Y-112271428D01*
X144795238Y-112366666D01*
X144700000Y-112557142D01*
X144700000Y-112747619D01*
X145652380Y-112938095D01*
X143842857Y-113604761D02*
X143842857Y-111604761D01*
X143842857Y-112366666D02*
X143652380Y-112271428D01*
X143271428Y-112271428D01*
X143080952Y-112366666D01*
X142985714Y-112461904D01*
X142890476Y-112652380D01*
X142890476Y-113223809D01*
X142985714Y-113414285D01*
X143080952Y-113509523D01*
X143271428Y-113604761D01*
X143652380Y-113604761D01*
X143842857Y-113509523D01*
X142033333Y-113604761D02*
X142033333Y-112271428D01*
X142033333Y-112652380D02*
X141938095Y-112461904D01*
X141842857Y-112366666D01*
X141652380Y-112271428D01*
X141461904Y-112271428D01*
X139938095Y-113604761D02*
X139938095Y-112557142D01*
X140033333Y-112366666D01*
X140223809Y-112271428D01*
X140604761Y-112271428D01*
X140795238Y-112366666D01*
X139938095Y-113509523D02*
X140128571Y-113604761D01*
X140604761Y-113604761D01*
X140795238Y-113509523D01*
X140890476Y-113319047D01*
X140890476Y-113128571D01*
X140795238Y-112938095D01*
X140604761Y-112842857D01*
X140128571Y-112842857D01*
X139938095Y-112747619D01*
X138223809Y-113509523D02*
X138414285Y-113604761D01*
X138795238Y-113604761D01*
X138985714Y-113509523D01*
X139080952Y-113319047D01*
X139080952Y-112557142D01*
X138985714Y-112366666D01*
X138795238Y-112271428D01*
X138414285Y-112271428D01*
X138223809Y-112366666D01*
X138128571Y-112557142D01*
X138128571Y-112747619D01*
X139080952Y-112938095D01*
X137271428Y-113414285D02*
X137176190Y-113509523D01*
X137271428Y-113604761D01*
X137366666Y-113509523D01*
X137271428Y-113414285D01*
X137271428Y-113604761D01*
X135461904Y-113509523D02*
X135652380Y-113604761D01*
X136033333Y-113604761D01*
X136223809Y-113509523D01*
X136319047Y-113414285D01*
X136414285Y-113223809D01*
X136414285Y-112652380D01*
X136319047Y-112461904D01*
X136223809Y-112366666D01*
X136033333Y-112271428D01*
X135652380Y-112271428D01*
X135461904Y-112366666D01*
X134319047Y-113604761D02*
X134509523Y-113509523D01*
X134604761Y-113414285D01*
X134700000Y-113223809D01*
X134700000Y-112652380D01*
X134604761Y-112461904D01*
X134509523Y-112366666D01*
X134319047Y-112271428D01*
X134033333Y-112271428D01*
X133842857Y-112366666D01*
X133747619Y-112461904D01*
X133652380Y-112652380D01*
X133652380Y-113223809D01*
X133747619Y-113414285D01*
X133842857Y-113509523D01*
X134033333Y-113604761D01*
X134319047Y-113604761D01*
X132795238Y-113604761D02*
X132795238Y-112271428D01*
X132795238Y-112461904D02*
X132700000Y-112366666D01*
X132509523Y-112271428D01*
X132223809Y-112271428D01*
X132033333Y-112366666D01*
X131938095Y-112557142D01*
X131938095Y-113604761D01*
X131938095Y-112557142D02*
X131842857Y-112366666D01*
X131652380Y-112271428D01*
X131366666Y-112271428D01*
X131176190Y-112366666D01*
X131080952Y-112557142D01*
X131080952Y-113604761D01*
D11*
X126283333Y-94816666D02*
X126616666Y-95050000D01*
X126283333Y-95216666D02*
X126983333Y-95216666D01*
X126983333Y-94950000D01*
X126950000Y-94883333D01*
X126916666Y-94850000D01*
X126850000Y-94816666D01*
X126750000Y-94816666D01*
X126683333Y-94850000D01*
X126650000Y-94883333D01*
X126616666Y-94950000D01*
X126616666Y-95216666D01*
X126983333Y-94583333D02*
X126283333Y-94116666D01*
X126983333Y-94116666D02*
X126283333Y-94583333D01*
X126283333Y-93850000D02*
X126983333Y-93850000D01*
X126983333Y-93683333D01*
X126950000Y-93583333D01*
X126883333Y-93516666D01*
X126816666Y-93483333D01*
X126683333Y-93450000D01*
X126583333Y-93450000D01*
X126450000Y-93483333D01*
X126383333Y-93516666D01*
X126316666Y-93583333D01*
X126283333Y-93683333D01*
X126283333Y-93850000D01*
X144666666Y-73883333D02*
X144666666Y-74583333D01*
X145133333Y-74583333D02*
X145266666Y-74583333D01*
X145333333Y-74550000D01*
X145400000Y-74483333D01*
X145433333Y-74350000D01*
X145433333Y-74116666D01*
X145400000Y-73983333D01*
X145333333Y-73916666D01*
X145266666Y-73883333D01*
X145133333Y-73883333D01*
X145066666Y-73916666D01*
X145000000Y-73983333D01*
X144966666Y-74116666D01*
X144966666Y-74350000D01*
X145000000Y-74483333D01*
X145066666Y-74550000D01*
X145133333Y-74583333D01*
X145866666Y-74583333D02*
X145933333Y-74583333D01*
X146000000Y-74550000D01*
X146033333Y-74516666D01*
X146066666Y-74450000D01*
X146100000Y-74316666D01*
X146100000Y-74150000D01*
X146066666Y-74016666D01*
X146033333Y-73950000D01*
X146000000Y-73916666D01*
X145933333Y-73883333D01*
X145866666Y-73883333D01*
X145800000Y-73916666D01*
X145766666Y-73950000D01*
X145733333Y-74016666D01*
X145700000Y-74150000D01*
X145700000Y-74316666D01*
X145733333Y-74450000D01*
X145766666Y-74516666D01*
X145800000Y-74550000D01*
X145866666Y-74583333D01*
X146333333Y-74583333D02*
X146800000Y-74583333D01*
X146500000Y-73883333D01*
X173716666Y-98400000D02*
X173016666Y-98400000D01*
X173516666Y-98633333D01*
X173016666Y-98866666D01*
X173716666Y-98866666D01*
X173016666Y-99333333D02*
X173016666Y-99466666D01*
X173050000Y-99533333D01*
X173116666Y-99600000D01*
X173250000Y-99633333D01*
X173483333Y-99633333D01*
X173616666Y-99600000D01*
X173683333Y-99533333D01*
X173716666Y-99466666D01*
X173716666Y-99333333D01*
X173683333Y-99266666D01*
X173616666Y-99200000D01*
X173483333Y-99166666D01*
X173250000Y-99166666D01*
X173116666Y-99200000D01*
X173050000Y-99266666D01*
X173016666Y-99333333D01*
X173683333Y-99900000D02*
X173716666Y-100000000D01*
X173716666Y-100166666D01*
X173683333Y-100233333D01*
X173650000Y-100266666D01*
X173583333Y-100300000D01*
X173516666Y-100300000D01*
X173450000Y-100266666D01*
X173416666Y-100233333D01*
X173383333Y-100166666D01*
X173350000Y-100033333D01*
X173316666Y-99966666D01*
X173283333Y-99933333D01*
X173216666Y-99900000D01*
X173150000Y-99900000D01*
X173083333Y-99933333D01*
X173050000Y-99966666D01*
X173016666Y-100033333D01*
X173016666Y-100200000D01*
X173050000Y-100300000D01*
X173716666Y-100600000D02*
X173016666Y-100600000D01*
X153903333Y-120930000D02*
X153970000Y-120896666D01*
X154070000Y-120896666D01*
X154170000Y-120930000D01*
X154236666Y-120996666D01*
X154270000Y-121063333D01*
X154303333Y-121196666D01*
X154303333Y-121296666D01*
X154270000Y-121430000D01*
X154236666Y-121496666D01*
X154170000Y-121563333D01*
X154070000Y-121596666D01*
X154003333Y-121596666D01*
X153903333Y-121563333D01*
X153870000Y-121530000D01*
X153870000Y-121296666D01*
X154003333Y-121296666D01*
X153570000Y-121596666D02*
X153570000Y-120896666D01*
X153170000Y-121596666D01*
X153170000Y-120896666D01*
X152836666Y-121596666D02*
X152836666Y-120896666D01*
X152670000Y-120896666D01*
X152570000Y-120930000D01*
X152503333Y-120996666D01*
X152470000Y-121063333D01*
X152436666Y-121196666D01*
X152436666Y-121296666D01*
X152470000Y-121430000D01*
X152503333Y-121496666D01*
X152570000Y-121563333D01*
X152670000Y-121596666D01*
X152836666Y-121596666D01*
X173683333Y-101183333D02*
X173716666Y-101283333D01*
X173716666Y-101450000D01*
X173683333Y-101516666D01*
X173650000Y-101550000D01*
X173583333Y-101583333D01*
X173516666Y-101583333D01*
X173450000Y-101550000D01*
X173416666Y-101516666D01*
X173383333Y-101450000D01*
X173350000Y-101316666D01*
X173316666Y-101250000D01*
X173283333Y-101216666D01*
X173216666Y-101183333D01*
X173150000Y-101183333D01*
X173083333Y-101216666D01*
X173050000Y-101250000D01*
X173016666Y-101316666D01*
X173016666Y-101483333D01*
X173050000Y-101583333D01*
X173683333Y-101850000D02*
X173716666Y-101950000D01*
X173716666Y-102116666D01*
X173683333Y-102183333D01*
X173650000Y-102216666D01*
X173583333Y-102250000D01*
X173516666Y-102250000D01*
X173450000Y-102216666D01*
X173416666Y-102183333D01*
X173383333Y-102116666D01*
X173350000Y-101983333D01*
X173316666Y-101916666D01*
X173283333Y-101883333D01*
X173216666Y-101850000D01*
X173150000Y-101850000D01*
X173083333Y-101883333D01*
X173050000Y-101916666D01*
X173016666Y-101983333D01*
X173016666Y-102150000D01*
X173050000Y-102250000D01*
X173716666Y-102916666D02*
X173716666Y-102516666D01*
X173716666Y-102716666D02*
X173016666Y-102716666D01*
X173116666Y-102650000D01*
X173183333Y-102583333D01*
X173216666Y-102516666D01*
X138933333Y-121516666D02*
X138933333Y-120816666D01*
X138466666Y-120816666D02*
X138333333Y-120816666D01*
X138266666Y-120850000D01*
X138200000Y-120916666D01*
X138166666Y-121050000D01*
X138166666Y-121283333D01*
X138200000Y-121416666D01*
X138266666Y-121483333D01*
X138333333Y-121516666D01*
X138466666Y-121516666D01*
X138533333Y-121483333D01*
X138600000Y-121416666D01*
X138633333Y-121283333D01*
X138633333Y-121050000D01*
X138600000Y-120916666D01*
X138533333Y-120850000D01*
X138466666Y-120816666D01*
X137500000Y-121516666D02*
X137900000Y-121516666D01*
X137700000Y-121516666D02*
X137700000Y-120816666D01*
X137766666Y-120916666D01*
X137833333Y-120983333D01*
X137900000Y-121016666D01*
X137066666Y-120816666D02*
X137000000Y-120816666D01*
X136933333Y-120850000D01*
X136900000Y-120883333D01*
X136866666Y-120950000D01*
X136833333Y-121083333D01*
X136833333Y-121250000D01*
X136866666Y-121383333D01*
X136900000Y-121450000D01*
X136933333Y-121483333D01*
X137000000Y-121516666D01*
X137066666Y-121516666D01*
X137133333Y-121483333D01*
X137166666Y-121450000D01*
X137200000Y-121383333D01*
X137233333Y-121250000D01*
X137233333Y-121083333D01*
X137200000Y-120950000D01*
X137166666Y-120883333D01*
X137133333Y-120850000D01*
X137066666Y-120816666D01*
X140106666Y-74540000D02*
X140040000Y-74573333D01*
X139940000Y-74573333D01*
X139840000Y-74540000D01*
X139773333Y-74473333D01*
X139740000Y-74406666D01*
X139706666Y-74273333D01*
X139706666Y-74173333D01*
X139740000Y-74040000D01*
X139773333Y-73973333D01*
X139840000Y-73906666D01*
X139940000Y-73873333D01*
X140006666Y-73873333D01*
X140106666Y-73906666D01*
X140140000Y-73940000D01*
X140140000Y-74173333D01*
X140006666Y-74173333D01*
X140440000Y-73873333D02*
X140440000Y-74573333D01*
X140840000Y-73873333D01*
X140840000Y-74573333D01*
X141173333Y-73873333D02*
X141173333Y-74573333D01*
X141340000Y-74573333D01*
X141440000Y-74540000D01*
X141506666Y-74473333D01*
X141540000Y-74406666D01*
X141573333Y-74273333D01*
X141573333Y-74173333D01*
X141540000Y-74040000D01*
X141506666Y-73973333D01*
X141440000Y-73906666D01*
X141340000Y-73873333D01*
X141173333Y-73873333D01*
X167733333Y-103583333D02*
X167766666Y-103683333D01*
X167766666Y-103850000D01*
X167733333Y-103916666D01*
X167700000Y-103950000D01*
X167633333Y-103983333D01*
X167566666Y-103983333D01*
X167500000Y-103950000D01*
X167466666Y-103916666D01*
X167433333Y-103850000D01*
X167400000Y-103716666D01*
X167366666Y-103650000D01*
X167333333Y-103616666D01*
X167266666Y-103583333D01*
X167200000Y-103583333D01*
X167133333Y-103616666D01*
X167100000Y-103650000D01*
X167066666Y-103716666D01*
X167066666Y-103883333D01*
X167100000Y-103983333D01*
X167733333Y-104250000D02*
X167766666Y-104350000D01*
X167766666Y-104516666D01*
X167733333Y-104583333D01*
X167700000Y-104616666D01*
X167633333Y-104650000D01*
X167566666Y-104650000D01*
X167500000Y-104616666D01*
X167466666Y-104583333D01*
X167433333Y-104516666D01*
X167400000Y-104383333D01*
X167366666Y-104316666D01*
X167333333Y-104283333D01*
X167266666Y-104250000D01*
X167200000Y-104250000D01*
X167133333Y-104283333D01*
X167100000Y-104316666D01*
X167066666Y-104383333D01*
X167066666Y-104550000D01*
X167100000Y-104650000D01*
X167133333Y-104916666D02*
X167100000Y-104950000D01*
X167066666Y-105016666D01*
X167066666Y-105183333D01*
X167100000Y-105250000D01*
X167133333Y-105283333D01*
X167200000Y-105316666D01*
X167266666Y-105316666D01*
X167366666Y-105283333D01*
X167766666Y-104883333D01*
X167766666Y-105316666D01*
X145196666Y-80180000D02*
X145130000Y-80213333D01*
X145030000Y-80213333D01*
X144930000Y-80180000D01*
X144863333Y-80113333D01*
X144830000Y-80046666D01*
X144796666Y-79913333D01*
X144796666Y-79813333D01*
X144830000Y-79680000D01*
X144863333Y-79613333D01*
X144930000Y-79546666D01*
X145030000Y-79513333D01*
X145096666Y-79513333D01*
X145196666Y-79546666D01*
X145230000Y-79580000D01*
X145230000Y-79813333D01*
X145096666Y-79813333D01*
X145530000Y-79513333D02*
X145530000Y-80213333D01*
X145930000Y-79513333D01*
X145930000Y-80213333D01*
X146263333Y-79513333D02*
X146263333Y-80213333D01*
X146430000Y-80213333D01*
X146530000Y-80180000D01*
X146596666Y-80113333D01*
X146630000Y-80046666D01*
X146663333Y-79913333D01*
X146663333Y-79813333D01*
X146630000Y-79680000D01*
X146596666Y-79613333D01*
X146530000Y-79546666D01*
X146430000Y-79513333D01*
X146263333Y-79513333D01*
X152466666Y-79533333D02*
X152466666Y-80233333D01*
X152933333Y-80233333D02*
X153066666Y-80233333D01*
X153133333Y-80200000D01*
X153200000Y-80133333D01*
X153233333Y-80000000D01*
X153233333Y-79766666D01*
X153200000Y-79633333D01*
X153133333Y-79566666D01*
X153066666Y-79533333D01*
X152933333Y-79533333D01*
X152866666Y-79566666D01*
X152800000Y-79633333D01*
X152766666Y-79766666D01*
X152766666Y-80000000D01*
X152800000Y-80133333D01*
X152866666Y-80200000D01*
X152933333Y-80233333D01*
X153666666Y-80233333D02*
X153733333Y-80233333D01*
X153800000Y-80200000D01*
X153833333Y-80166666D01*
X153866666Y-80100000D01*
X153900000Y-79966666D01*
X153900000Y-79800000D01*
X153866666Y-79666666D01*
X153833333Y-79600000D01*
X153800000Y-79566666D01*
X153733333Y-79533333D01*
X153666666Y-79533333D01*
X153600000Y-79566666D01*
X153566666Y-79600000D01*
X153533333Y-79666666D01*
X153500000Y-79800000D01*
X153500000Y-79966666D01*
X153533333Y-80100000D01*
X153566666Y-80166666D01*
X153600000Y-80200000D01*
X153666666Y-80233333D01*
X154166666Y-80166666D02*
X154200000Y-80200000D01*
X154266666Y-80233333D01*
X154433333Y-80233333D01*
X154500000Y-80200000D01*
X154533333Y-80166666D01*
X154566666Y-80100000D01*
X154566666Y-80033333D01*
X154533333Y-79933333D01*
X154133333Y-79533333D01*
X154566666Y-79533333D01*
X165343333Y-87290000D02*
X165410000Y-87256666D01*
X165510000Y-87256666D01*
X165610000Y-87290000D01*
X165676666Y-87356666D01*
X165710000Y-87423333D01*
X165743333Y-87556666D01*
X165743333Y-87656666D01*
X165710000Y-87790000D01*
X165676666Y-87856666D01*
X165610000Y-87923333D01*
X165510000Y-87956666D01*
X165443333Y-87956666D01*
X165343333Y-87923333D01*
X165310000Y-87890000D01*
X165310000Y-87656666D01*
X165443333Y-87656666D01*
X165010000Y-87956666D02*
X165010000Y-87256666D01*
X164610000Y-87956666D01*
X164610000Y-87256666D01*
X164276666Y-87956666D02*
X164276666Y-87256666D01*
X164110000Y-87256666D01*
X164010000Y-87290000D01*
X163943333Y-87356666D01*
X163910000Y-87423333D01*
X163876666Y-87556666D01*
X163876666Y-87656666D01*
X163910000Y-87790000D01*
X163943333Y-87856666D01*
X164010000Y-87923333D01*
X164110000Y-87956666D01*
X164276666Y-87956666D01*
X146833333Y-127416666D02*
X146833333Y-126716666D01*
X146366666Y-126716666D02*
X146233333Y-126716666D01*
X146166666Y-126750000D01*
X146100000Y-126816666D01*
X146066666Y-126950000D01*
X146066666Y-127183333D01*
X146100000Y-127316666D01*
X146166666Y-127383333D01*
X146233333Y-127416666D01*
X146366666Y-127416666D01*
X146433333Y-127383333D01*
X146500000Y-127316666D01*
X146533333Y-127183333D01*
X146533333Y-126950000D01*
X146500000Y-126816666D01*
X146433333Y-126750000D01*
X146366666Y-126716666D01*
X145400000Y-127416666D02*
X145800000Y-127416666D01*
X145600000Y-127416666D02*
X145600000Y-126716666D01*
X145666666Y-126816666D01*
X145733333Y-126883333D01*
X145800000Y-126916666D01*
X144766666Y-126716666D02*
X145100000Y-126716666D01*
X145133333Y-127050000D01*
X145100000Y-127016666D01*
X145033333Y-126983333D01*
X144866666Y-126983333D01*
X144800000Y-127016666D01*
X144766666Y-127050000D01*
X144733333Y-127116666D01*
X144733333Y-127283333D01*
X144766666Y-127350000D01*
X144800000Y-127383333D01*
X144866666Y-127416666D01*
X145033333Y-127416666D01*
X145100000Y-127383333D01*
X145133333Y-127350000D01*
X173683333Y-103833333D02*
X173716666Y-103933333D01*
X173716666Y-104100000D01*
X173683333Y-104166666D01*
X173650000Y-104200000D01*
X173583333Y-104233333D01*
X173516666Y-104233333D01*
X173450000Y-104200000D01*
X173416666Y-104166666D01*
X173383333Y-104100000D01*
X173350000Y-103966666D01*
X173316666Y-103900000D01*
X173283333Y-103866666D01*
X173216666Y-103833333D01*
X173150000Y-103833333D01*
X173083333Y-103866666D01*
X173050000Y-103900000D01*
X173016666Y-103966666D01*
X173016666Y-104133333D01*
X173050000Y-104233333D01*
X173683333Y-104500000D02*
X173716666Y-104600000D01*
X173716666Y-104766666D01*
X173683333Y-104833333D01*
X173650000Y-104866666D01*
X173583333Y-104900000D01*
X173516666Y-104900000D01*
X173450000Y-104866666D01*
X173416666Y-104833333D01*
X173383333Y-104766666D01*
X173350000Y-104633333D01*
X173316666Y-104566666D01*
X173283333Y-104533333D01*
X173216666Y-104500000D01*
X173150000Y-104500000D01*
X173083333Y-104533333D01*
X173050000Y-104566666D01*
X173016666Y-104633333D01*
X173016666Y-104800000D01*
X173050000Y-104900000D01*
X173016666Y-105133333D02*
X173016666Y-105566666D01*
X173283333Y-105333333D01*
X173283333Y-105433333D01*
X173316666Y-105500000D01*
X173350000Y-105533333D01*
X173416666Y-105566666D01*
X173583333Y-105566666D01*
X173650000Y-105533333D01*
X173683333Y-105500000D01*
X173716666Y-105433333D01*
X173716666Y-105233333D01*
X173683333Y-105166666D01*
X173650000Y-105133333D01*
D12*
X160814285Y-124164285D02*
X160242857Y-124354761D01*
X160052380Y-124545238D01*
X159861904Y-124926190D01*
X159861904Y-125497619D01*
X160052380Y-125878571D01*
X160242857Y-126069047D01*
X160623809Y-126259523D01*
X162147619Y-126259523D01*
X162147619Y-122259523D01*
X160814285Y-122259523D01*
X160433333Y-122450000D01*
X160242857Y-122640476D01*
X160052380Y-123021428D01*
X160052380Y-123402380D01*
X160242857Y-123783333D01*
X160433333Y-123973809D01*
X160814285Y-124164285D01*
X162147619Y-124164285D01*
D11*
X137216666Y-74516666D02*
X137250000Y-74550000D01*
X137316666Y-74583333D01*
X137483333Y-74583333D01*
X137550000Y-74550000D01*
X137583333Y-74516666D01*
X137616666Y-74450000D01*
X137616666Y-74383333D01*
X137583333Y-74283333D01*
X137183333Y-73883333D01*
X137616666Y-73883333D01*
X138216666Y-74350000D02*
X138216666Y-73883333D01*
X138050000Y-74616666D02*
X137883333Y-74116666D01*
X138316666Y-74116666D01*
X138483333Y-74583333D02*
X138716666Y-73883333D01*
X138950000Y-74583333D01*
X155406666Y-74540000D02*
X155340000Y-74573333D01*
X155240000Y-74573333D01*
X155140000Y-74540000D01*
X155073333Y-74473333D01*
X155040000Y-74406666D01*
X155006666Y-74273333D01*
X155006666Y-74173333D01*
X155040000Y-74040000D01*
X155073333Y-73973333D01*
X155140000Y-73906666D01*
X155240000Y-73873333D01*
X155306666Y-73873333D01*
X155406666Y-73906666D01*
X155440000Y-73940000D01*
X155440000Y-74173333D01*
X155306666Y-74173333D01*
X155740000Y-73873333D02*
X155740000Y-74573333D01*
X156140000Y-73873333D01*
X156140000Y-74573333D01*
X156473333Y-73873333D02*
X156473333Y-74573333D01*
X156640000Y-74573333D01*
X156740000Y-74540000D01*
X156806666Y-74473333D01*
X156840000Y-74406666D01*
X156873333Y-74273333D01*
X156873333Y-74173333D01*
X156840000Y-74040000D01*
X156806666Y-73973333D01*
X156740000Y-73906666D01*
X156640000Y-73873333D01*
X156473333Y-73873333D01*
X167733333Y-101050000D02*
X167766666Y-101150000D01*
X167766666Y-101316666D01*
X167733333Y-101383333D01*
X167700000Y-101416666D01*
X167633333Y-101450000D01*
X167566666Y-101450000D01*
X167500000Y-101416666D01*
X167466666Y-101383333D01*
X167433333Y-101316666D01*
X167400000Y-101183333D01*
X167366666Y-101116666D01*
X167333333Y-101083333D01*
X167266666Y-101050000D01*
X167200000Y-101050000D01*
X167133333Y-101083333D01*
X167100000Y-101116666D01*
X167066666Y-101183333D01*
X167066666Y-101350000D01*
X167100000Y-101450000D01*
X167700000Y-102150000D02*
X167733333Y-102116666D01*
X167766666Y-102016666D01*
X167766666Y-101950000D01*
X167733333Y-101850000D01*
X167666666Y-101783333D01*
X167600000Y-101750000D01*
X167466666Y-101716666D01*
X167366666Y-101716666D01*
X167233333Y-101750000D01*
X167166666Y-101783333D01*
X167100000Y-101850000D01*
X167066666Y-101950000D01*
X167066666Y-102016666D01*
X167100000Y-102116666D01*
X167133333Y-102150000D01*
X167766666Y-102450000D02*
X167066666Y-102450000D01*
X167766666Y-102850000D02*
X167366666Y-102550000D01*
X167066666Y-102850000D02*
X167466666Y-102450000D01*
X172990000Y-106586666D02*
X172956666Y-106520000D01*
X172956666Y-106420000D01*
X172990000Y-106320000D01*
X173056666Y-106253333D01*
X173123333Y-106220000D01*
X173256666Y-106186666D01*
X173356666Y-106186666D01*
X173490000Y-106220000D01*
X173556666Y-106253333D01*
X173623333Y-106320000D01*
X173656666Y-106420000D01*
X173656666Y-106486666D01*
X173623333Y-106586666D01*
X173590000Y-106620000D01*
X173356666Y-106620000D01*
X173356666Y-106486666D01*
X173656666Y-106920000D02*
X172956666Y-106920000D01*
X173656666Y-107320000D01*
X172956666Y-107320000D01*
X173656666Y-107653333D02*
X172956666Y-107653333D01*
X172956666Y-107820000D01*
X172990000Y-107920000D01*
X173056666Y-107986666D01*
X173123333Y-108020000D01*
X173256666Y-108053333D01*
X173356666Y-108053333D01*
X173490000Y-108020000D01*
X173556666Y-107986666D01*
X173623333Y-107920000D01*
X173656666Y-107820000D01*
X173656666Y-107653333D01*
X167400000Y-106316666D02*
X167400000Y-106550000D01*
X167766666Y-106650000D02*
X167766666Y-106316666D01*
X167066666Y-106316666D01*
X167066666Y-106650000D01*
X167066666Y-106850000D02*
X167066666Y-107250000D01*
X167766666Y-107050000D02*
X167066666Y-107050000D01*
X167766666Y-107483333D02*
X167066666Y-107483333D01*
X167400000Y-107483333D02*
X167400000Y-107883333D01*
X167766666Y-107883333D02*
X167066666Y-107883333D01*
X152266666Y-73883333D02*
X152266666Y-74583333D01*
X152733333Y-74583333D02*
X152866666Y-74583333D01*
X152933333Y-74550000D01*
X153000000Y-74483333D01*
X153033333Y-74350000D01*
X153033333Y-74116666D01*
X153000000Y-73983333D01*
X152933333Y-73916666D01*
X152866666Y-73883333D01*
X152733333Y-73883333D01*
X152666666Y-73916666D01*
X152600000Y-73983333D01*
X152566666Y-74116666D01*
X152566666Y-74350000D01*
X152600000Y-74483333D01*
X152666666Y-74550000D01*
X152733333Y-74583333D01*
X153466666Y-74583333D02*
X153533333Y-74583333D01*
X153600000Y-74550000D01*
X153633333Y-74516666D01*
X153666666Y-74450000D01*
X153700000Y-74316666D01*
X153700000Y-74150000D01*
X153666666Y-74016666D01*
X153633333Y-73950000D01*
X153600000Y-73916666D01*
X153533333Y-73883333D01*
X153466666Y-73883333D01*
X153400000Y-73916666D01*
X153366666Y-73950000D01*
X153333333Y-74016666D01*
X153300000Y-74150000D01*
X153300000Y-74316666D01*
X153333333Y-74450000D01*
X153366666Y-74516666D01*
X153400000Y-74550000D01*
X153466666Y-74583333D01*
X154366666Y-73883333D02*
X153966666Y-73883333D01*
X154166666Y-73883333D02*
X154166666Y-74583333D01*
X154100000Y-74483333D01*
X154033333Y-74416666D01*
X153966666Y-74383333D01*
X126946666Y-110433333D02*
X126980000Y-110400000D01*
X127013333Y-110333333D01*
X127013333Y-110166666D01*
X126980000Y-110100000D01*
X126946666Y-110066666D01*
X126880000Y-110033333D01*
X126813333Y-110033333D01*
X126713333Y-110066666D01*
X126313333Y-110466666D01*
X126313333Y-110033333D01*
X126780000Y-109433333D02*
X126313333Y-109433333D01*
X127046666Y-109600000D02*
X126546666Y-109766666D01*
X126546666Y-109333333D01*
X127013333Y-109166666D02*
X126313333Y-108933333D01*
X127013333Y-108700000D01*
X144233333Y-127416666D02*
X144233333Y-126716666D01*
X143766666Y-126716666D02*
X143633333Y-126716666D01*
X143566666Y-126750000D01*
X143500000Y-126816666D01*
X143466666Y-126950000D01*
X143466666Y-127183333D01*
X143500000Y-127316666D01*
X143566666Y-127383333D01*
X143633333Y-127416666D01*
X143766666Y-127416666D01*
X143833333Y-127383333D01*
X143900000Y-127316666D01*
X143933333Y-127183333D01*
X143933333Y-126950000D01*
X143900000Y-126816666D01*
X143833333Y-126750000D01*
X143766666Y-126716666D01*
X142800000Y-127416666D02*
X143200000Y-127416666D01*
X143000000Y-127416666D02*
X143000000Y-126716666D01*
X143066666Y-126816666D01*
X143133333Y-126883333D01*
X143200000Y-126916666D01*
X142566666Y-126716666D02*
X142133333Y-126716666D01*
X142366666Y-126983333D01*
X142266666Y-126983333D01*
X142200000Y-127016666D01*
X142166666Y-127050000D01*
X142133333Y-127116666D01*
X142133333Y-127283333D01*
X142166666Y-127350000D01*
X142200000Y-127383333D01*
X142266666Y-127416666D01*
X142466666Y-127416666D01*
X142533333Y-127383333D01*
X142566666Y-127350000D01*
X120566666Y-102800000D02*
X120533333Y-102700000D01*
X120533333Y-102533333D01*
X120566666Y-102466666D01*
X120600000Y-102433333D01*
X120666666Y-102400000D01*
X120733333Y-102400000D01*
X120800000Y-102433333D01*
X120833333Y-102466666D01*
X120866666Y-102533333D01*
X120900000Y-102666666D01*
X120933333Y-102733333D01*
X120966666Y-102766666D01*
X121033333Y-102800000D01*
X121100000Y-102800000D01*
X121166666Y-102766666D01*
X121200000Y-102733333D01*
X121233333Y-102666666D01*
X121233333Y-102500000D01*
X121200000Y-102400000D01*
X120600000Y-101700000D02*
X120566666Y-101733333D01*
X120533333Y-101833333D01*
X120533333Y-101900000D01*
X120566666Y-102000000D01*
X120633333Y-102066666D01*
X120700000Y-102100000D01*
X120833333Y-102133333D01*
X120933333Y-102133333D01*
X121066666Y-102100000D01*
X121133333Y-102066666D01*
X121200000Y-102000000D01*
X121233333Y-101900000D01*
X121233333Y-101833333D01*
X121200000Y-101733333D01*
X121166666Y-101700000D01*
X120533333Y-101400000D02*
X121233333Y-101400000D01*
X120533333Y-101000000D02*
X120933333Y-101300000D01*
X121233333Y-101000000D02*
X120833333Y-101400000D01*
X151763333Y-120876666D02*
X151330000Y-120876666D01*
X151563333Y-121143333D01*
X151463333Y-121143333D01*
X151396666Y-121176666D01*
X151363333Y-121210000D01*
X151330000Y-121276666D01*
X151330000Y-121443333D01*
X151363333Y-121510000D01*
X151396666Y-121543333D01*
X151463333Y-121576666D01*
X151663333Y-121576666D01*
X151730000Y-121543333D01*
X151763333Y-121510000D01*
X151030000Y-121510000D02*
X150996666Y-121543333D01*
X151030000Y-121576666D01*
X151063333Y-121543333D01*
X151030000Y-121510000D01*
X151030000Y-121576666D01*
X150763333Y-120876666D02*
X150330000Y-120876666D01*
X150563333Y-121143333D01*
X150463333Y-121143333D01*
X150396666Y-121176666D01*
X150363333Y-121210000D01*
X150330000Y-121276666D01*
X150330000Y-121443333D01*
X150363333Y-121510000D01*
X150396666Y-121543333D01*
X150463333Y-121576666D01*
X150663333Y-121576666D01*
X150730000Y-121543333D01*
X150763333Y-121510000D01*
X150130000Y-120876666D02*
X149896666Y-121576666D01*
X149663333Y-120876666D01*
X140086666Y-80160000D02*
X140020000Y-80193333D01*
X139920000Y-80193333D01*
X139820000Y-80160000D01*
X139753333Y-80093333D01*
X139720000Y-80026666D01*
X139686666Y-79893333D01*
X139686666Y-79793333D01*
X139720000Y-79660000D01*
X139753333Y-79593333D01*
X139820000Y-79526666D01*
X139920000Y-79493333D01*
X139986666Y-79493333D01*
X140086666Y-79526666D01*
X140120000Y-79560000D01*
X140120000Y-79793333D01*
X139986666Y-79793333D01*
X140420000Y-79493333D02*
X140420000Y-80193333D01*
X140820000Y-79493333D01*
X140820000Y-80193333D01*
X141153333Y-79493333D02*
X141153333Y-80193333D01*
X141320000Y-80193333D01*
X141420000Y-80160000D01*
X141486666Y-80093333D01*
X141520000Y-80026666D01*
X141553333Y-79893333D01*
X141553333Y-79793333D01*
X141520000Y-79660000D01*
X141486666Y-79593333D01*
X141420000Y-79526666D01*
X141320000Y-79493333D01*
X141153333Y-79493333D01*
X149916666Y-79533333D02*
X149916666Y-80233333D01*
X150383333Y-80233333D02*
X150516666Y-80233333D01*
X150583333Y-80200000D01*
X150650000Y-80133333D01*
X150683333Y-80000000D01*
X150683333Y-79766666D01*
X150650000Y-79633333D01*
X150583333Y-79566666D01*
X150516666Y-79533333D01*
X150383333Y-79533333D01*
X150316666Y-79566666D01*
X150250000Y-79633333D01*
X150216666Y-79766666D01*
X150216666Y-80000000D01*
X150250000Y-80133333D01*
X150316666Y-80200000D01*
X150383333Y-80233333D01*
X151116666Y-80233333D02*
X151183333Y-80233333D01*
X151250000Y-80200000D01*
X151283333Y-80166666D01*
X151316666Y-80100000D01*
X151350000Y-79966666D01*
X151350000Y-79800000D01*
X151316666Y-79666666D01*
X151283333Y-79600000D01*
X151250000Y-79566666D01*
X151183333Y-79533333D01*
X151116666Y-79533333D01*
X151050000Y-79566666D01*
X151016666Y-79600000D01*
X150983333Y-79666666D01*
X150950000Y-79800000D01*
X150950000Y-79966666D01*
X150983333Y-80100000D01*
X151016666Y-80166666D01*
X151050000Y-80200000D01*
X151116666Y-80233333D01*
X151950000Y-80000000D02*
X151950000Y-79533333D01*
X151783333Y-80266666D02*
X151616666Y-79766666D01*
X152050000Y-79766666D01*
X156733333Y-120983333D02*
X156700000Y-120950000D01*
X156633333Y-120916666D01*
X156466666Y-120916666D01*
X156400000Y-120950000D01*
X156366666Y-120983333D01*
X156333333Y-121050000D01*
X156333333Y-121116666D01*
X156366666Y-121216666D01*
X156766666Y-121616666D01*
X156333333Y-121616666D01*
X155733333Y-121150000D02*
X155733333Y-121616666D01*
X155900000Y-120883333D02*
X156066666Y-121383333D01*
X155633333Y-121383333D01*
X155466666Y-120916666D02*
X155233333Y-121616666D01*
X155000000Y-120916666D01*
X149333333Y-127416666D02*
X149333333Y-126716666D01*
X148866666Y-126716666D02*
X148733333Y-126716666D01*
X148666666Y-126750000D01*
X148600000Y-126816666D01*
X148566666Y-126950000D01*
X148566666Y-127183333D01*
X148600000Y-127316666D01*
X148666666Y-127383333D01*
X148733333Y-127416666D01*
X148866666Y-127416666D01*
X148933333Y-127383333D01*
X149000000Y-127316666D01*
X149033333Y-127183333D01*
X149033333Y-126950000D01*
X149000000Y-126816666D01*
X148933333Y-126750000D01*
X148866666Y-126716666D01*
X147900000Y-127416666D02*
X148300000Y-127416666D01*
X148100000Y-127416666D02*
X148100000Y-126716666D01*
X148166666Y-126816666D01*
X148233333Y-126883333D01*
X148300000Y-126916666D01*
X147666666Y-126716666D02*
X147200000Y-126716666D01*
X147500000Y-127416666D01*
X173666666Y-93933333D02*
X173333333Y-93700000D01*
X173666666Y-93533333D02*
X172966666Y-93533333D01*
X172966666Y-93800000D01*
X173000000Y-93866666D01*
X173033333Y-93900000D01*
X173100000Y-93933333D01*
X173200000Y-93933333D01*
X173266666Y-93900000D01*
X173300000Y-93866666D01*
X173333333Y-93800000D01*
X173333333Y-93533333D01*
X172966666Y-94166666D02*
X173666666Y-94633333D01*
X172966666Y-94633333D02*
X173666666Y-94166666D01*
X173666666Y-94900000D02*
X172966666Y-94900000D01*
X172966666Y-95066666D01*
X173000000Y-95166666D01*
X173066666Y-95233333D01*
X173133333Y-95266666D01*
X173266666Y-95300000D01*
X173366666Y-95300000D01*
X173500000Y-95266666D01*
X173566666Y-95233333D01*
X173633333Y-95166666D01*
X173666666Y-95066666D01*
X173666666Y-94900000D01*
X167733333Y-96116666D02*
X167766666Y-96216666D01*
X167766666Y-96383333D01*
X167733333Y-96450000D01*
X167700000Y-96483333D01*
X167633333Y-96516666D01*
X167566666Y-96516666D01*
X167500000Y-96483333D01*
X167466666Y-96450000D01*
X167433333Y-96383333D01*
X167400000Y-96250000D01*
X167366666Y-96183333D01*
X167333333Y-96150000D01*
X167266666Y-96116666D01*
X167200000Y-96116666D01*
X167133333Y-96150000D01*
X167100000Y-96183333D01*
X167066666Y-96250000D01*
X167066666Y-96416666D01*
X167100000Y-96516666D01*
X167700000Y-97216666D02*
X167733333Y-97183333D01*
X167766666Y-97083333D01*
X167766666Y-97016666D01*
X167733333Y-96916666D01*
X167666666Y-96850000D01*
X167600000Y-96816666D01*
X167466666Y-96783333D01*
X167366666Y-96783333D01*
X167233333Y-96816666D01*
X167166666Y-96850000D01*
X167100000Y-96916666D01*
X167066666Y-97016666D01*
X167066666Y-97083333D01*
X167100000Y-97183333D01*
X167133333Y-97216666D01*
X167766666Y-97850000D02*
X167766666Y-97516666D01*
X167066666Y-97516666D01*
X153853333Y-126710000D02*
X153920000Y-126676666D01*
X154020000Y-126676666D01*
X154120000Y-126710000D01*
X154186666Y-126776666D01*
X154220000Y-126843333D01*
X154253333Y-126976666D01*
X154253333Y-127076666D01*
X154220000Y-127210000D01*
X154186666Y-127276666D01*
X154120000Y-127343333D01*
X154020000Y-127376666D01*
X153953333Y-127376666D01*
X153853333Y-127343333D01*
X153820000Y-127310000D01*
X153820000Y-127076666D01*
X153953333Y-127076666D01*
X153520000Y-127376666D02*
X153520000Y-126676666D01*
X153120000Y-127376666D01*
X153120000Y-126676666D01*
X152786666Y-127376666D02*
X152786666Y-126676666D01*
X152620000Y-126676666D01*
X152520000Y-126710000D01*
X152453333Y-126776666D01*
X152420000Y-126843333D01*
X152386666Y-126976666D01*
X152386666Y-127076666D01*
X152420000Y-127210000D01*
X152453333Y-127276666D01*
X152520000Y-127343333D01*
X152620000Y-127376666D01*
X152786666Y-127376666D01*
X167046666Y-90906666D02*
X167046666Y-91340000D01*
X167313333Y-91106666D01*
X167313333Y-91206666D01*
X167346666Y-91273333D01*
X167380000Y-91306666D01*
X167446666Y-91340000D01*
X167613333Y-91340000D01*
X167680000Y-91306666D01*
X167713333Y-91273333D01*
X167746666Y-91206666D01*
X167746666Y-91006666D01*
X167713333Y-90940000D01*
X167680000Y-90906666D01*
X167680000Y-91640000D02*
X167713333Y-91673333D01*
X167746666Y-91640000D01*
X167713333Y-91606666D01*
X167680000Y-91640000D01*
X167746666Y-91640000D01*
X167046666Y-91906666D02*
X167046666Y-92340000D01*
X167313333Y-92106666D01*
X167313333Y-92206666D01*
X167346666Y-92273333D01*
X167380000Y-92306666D01*
X167446666Y-92340000D01*
X167613333Y-92340000D01*
X167680000Y-92306666D01*
X167713333Y-92273333D01*
X167746666Y-92206666D01*
X167746666Y-92006666D01*
X167713333Y-91940000D01*
X167680000Y-91906666D01*
X167046666Y-92540000D02*
X167746666Y-92773333D01*
X167046666Y-93006666D01*
X167133333Y-108766666D02*
X167100000Y-108800000D01*
X167066666Y-108866666D01*
X167066666Y-109033333D01*
X167100000Y-109100000D01*
X167133333Y-109133333D01*
X167200000Y-109166666D01*
X167266666Y-109166666D01*
X167366666Y-109133333D01*
X167766666Y-108733333D01*
X167766666Y-109166666D01*
X167300000Y-109766666D02*
X167766666Y-109766666D01*
X167033333Y-109600000D02*
X167533333Y-109433333D01*
X167533333Y-109866666D01*
X167066666Y-110033333D02*
X167766666Y-110266666D01*
X167066666Y-110500000D01*
X172980000Y-91316666D02*
X172946666Y-91250000D01*
X172946666Y-91150000D01*
X172980000Y-91050000D01*
X173046666Y-90983333D01*
X173113333Y-90950000D01*
X173246666Y-90916666D01*
X173346666Y-90916666D01*
X173480000Y-90950000D01*
X173546666Y-90983333D01*
X173613333Y-91050000D01*
X173646666Y-91150000D01*
X173646666Y-91216666D01*
X173613333Y-91316666D01*
X173580000Y-91350000D01*
X173346666Y-91350000D01*
X173346666Y-91216666D01*
X173646666Y-91650000D02*
X172946666Y-91650000D01*
X173646666Y-92050000D01*
X172946666Y-92050000D01*
X173646666Y-92383333D02*
X172946666Y-92383333D01*
X172946666Y-92550000D01*
X172980000Y-92650000D01*
X173046666Y-92716666D01*
X173113333Y-92750000D01*
X173246666Y-92783333D01*
X173346666Y-92783333D01*
X173480000Y-92750000D01*
X173546666Y-92716666D01*
X173613333Y-92650000D01*
X173646666Y-92550000D01*
X173646666Y-92383333D01*
X144133333Y-121516666D02*
X144133333Y-120816666D01*
X143666666Y-120816666D02*
X143533333Y-120816666D01*
X143466666Y-120850000D01*
X143400000Y-120916666D01*
X143366666Y-121050000D01*
X143366666Y-121283333D01*
X143400000Y-121416666D01*
X143466666Y-121483333D01*
X143533333Y-121516666D01*
X143666666Y-121516666D01*
X143733333Y-121483333D01*
X143800000Y-121416666D01*
X143833333Y-121283333D01*
X143833333Y-121050000D01*
X143800000Y-120916666D01*
X143733333Y-120850000D01*
X143666666Y-120816666D01*
X142700000Y-121516666D02*
X143100000Y-121516666D01*
X142900000Y-121516666D02*
X142900000Y-120816666D01*
X142966666Y-120916666D01*
X143033333Y-120983333D01*
X143100000Y-121016666D01*
X142100000Y-121050000D02*
X142100000Y-121516666D01*
X142266666Y-120783333D02*
X142433333Y-121283333D01*
X142000000Y-121283333D01*
X142246666Y-74573333D02*
X142680000Y-74573333D01*
X142446666Y-74306666D01*
X142546666Y-74306666D01*
X142613333Y-74273333D01*
X142646666Y-74240000D01*
X142680000Y-74173333D01*
X142680000Y-74006666D01*
X142646666Y-73940000D01*
X142613333Y-73906666D01*
X142546666Y-73873333D01*
X142346666Y-73873333D01*
X142280000Y-73906666D01*
X142246666Y-73940000D01*
X142980000Y-73940000D02*
X143013333Y-73906666D01*
X142980000Y-73873333D01*
X142946666Y-73906666D01*
X142980000Y-73940000D01*
X142980000Y-73873333D01*
X143246666Y-74573333D02*
X143680000Y-74573333D01*
X143446666Y-74306666D01*
X143546666Y-74306666D01*
X143613333Y-74273333D01*
X143646666Y-74240000D01*
X143680000Y-74173333D01*
X143680000Y-74006666D01*
X143646666Y-73940000D01*
X143613333Y-73906666D01*
X143546666Y-73873333D01*
X143346666Y-73873333D01*
X143280000Y-73906666D01*
X143246666Y-73940000D01*
X143880000Y-74573333D02*
X144113333Y-73873333D01*
X144346666Y-74573333D01*
D10*
X128897619Y-104097619D02*
X127897619Y-103764285D01*
X128897619Y-103430952D01*
X128421428Y-103097619D02*
X128421428Y-102764285D01*
X127897619Y-102621428D02*
X127897619Y-103097619D01*
X128897619Y-103097619D01*
X128897619Y-102621428D01*
X127897619Y-101621428D02*
X128373809Y-101954761D01*
X127897619Y-102192857D02*
X128897619Y-102192857D01*
X128897619Y-101811904D01*
X128850000Y-101716666D01*
X128802380Y-101669047D01*
X128707142Y-101621428D01*
X128564285Y-101621428D01*
X128469047Y-101669047D01*
X128421428Y-101716666D01*
X128373809Y-101811904D01*
X128373809Y-102192857D01*
X128897619Y-101335714D02*
X128897619Y-100764285D01*
X127897619Y-101050000D02*
X128897619Y-101050000D01*
X128421428Y-100430952D02*
X128421428Y-100097619D01*
X127897619Y-99954761D02*
X127897619Y-100430952D01*
X128897619Y-100430952D01*
X128897619Y-99954761D01*
X128421428Y-99192857D02*
X128373809Y-99050000D01*
X128326190Y-99002380D01*
X128230952Y-98954761D01*
X128088095Y-98954761D01*
X127992857Y-99002380D01*
X127945238Y-99050000D01*
X127897619Y-99145238D01*
X127897619Y-99526190D01*
X128897619Y-99526190D01*
X128897619Y-99192857D01*
X128850000Y-99097619D01*
X128802380Y-99050000D01*
X128707142Y-99002380D01*
X128611904Y-99002380D01*
X128516666Y-99050000D01*
X128469047Y-99097619D01*
X128421428Y-99192857D01*
X128421428Y-99526190D01*
X127897619Y-97954761D02*
X128373809Y-98288095D01*
X127897619Y-98526190D02*
X128897619Y-98526190D01*
X128897619Y-98145238D01*
X128850000Y-98050000D01*
X128802380Y-98002380D01*
X128707142Y-97954761D01*
X128564285Y-97954761D01*
X128469047Y-98002380D01*
X128421428Y-98050000D01*
X128373809Y-98145238D01*
X128373809Y-98526190D01*
X128183333Y-97573809D02*
X128183333Y-97097619D01*
X127897619Y-97669047D02*
X128897619Y-97335714D01*
X127897619Y-97002380D01*
D11*
X148753333Y-120910000D02*
X148820000Y-120876666D01*
X148920000Y-120876666D01*
X149020000Y-120910000D01*
X149086666Y-120976666D01*
X149120000Y-121043333D01*
X149153333Y-121176666D01*
X149153333Y-121276666D01*
X149120000Y-121410000D01*
X149086666Y-121476666D01*
X149020000Y-121543333D01*
X148920000Y-121576666D01*
X148853333Y-121576666D01*
X148753333Y-121543333D01*
X148720000Y-121510000D01*
X148720000Y-121276666D01*
X148853333Y-121276666D01*
X148420000Y-121576666D02*
X148420000Y-120876666D01*
X148020000Y-121576666D01*
X148020000Y-120876666D01*
X147686666Y-121576666D02*
X147686666Y-120876666D01*
X147520000Y-120876666D01*
X147420000Y-120910000D01*
X147353333Y-120976666D01*
X147320000Y-121043333D01*
X147286666Y-121176666D01*
X147286666Y-121276666D01*
X147320000Y-121410000D01*
X147353333Y-121476666D01*
X147420000Y-121543333D01*
X147520000Y-121576666D01*
X147686666Y-121576666D01*
D10*
X152535714Y-120002380D02*
X152869047Y-119526190D01*
X153107142Y-120002380D02*
X153107142Y-119002380D01*
X152726190Y-119002380D01*
X152630952Y-119050000D01*
X152583333Y-119097619D01*
X152535714Y-119192857D01*
X152535714Y-119335714D01*
X152583333Y-119430952D01*
X152630952Y-119478571D01*
X152726190Y-119526190D01*
X153107142Y-119526190D01*
X152107142Y-120002380D02*
X152107142Y-119002380D01*
X151297619Y-119478571D02*
X151154761Y-119526190D01*
X151107142Y-119573809D01*
X151059523Y-119669047D01*
X151059523Y-119811904D01*
X151107142Y-119907142D01*
X151154761Y-119954761D01*
X151250000Y-120002380D01*
X151630952Y-120002380D01*
X151630952Y-119002380D01*
X151297619Y-119002380D01*
X151202380Y-119050000D01*
X151154761Y-119097619D01*
X151107142Y-119192857D01*
X151107142Y-119288095D01*
X151154761Y-119383333D01*
X151202380Y-119430952D01*
X151297619Y-119478571D01*
X151630952Y-119478571D01*
X149154761Y-118954761D02*
X150011904Y-120240476D01*
X147488095Y-119907142D02*
X147535714Y-119954761D01*
X147678571Y-120002380D01*
X147773809Y-120002380D01*
X147916666Y-119954761D01*
X148011904Y-119859523D01*
X148059523Y-119764285D01*
X148107142Y-119573809D01*
X148107142Y-119430952D01*
X148059523Y-119240476D01*
X148011904Y-119145238D01*
X147916666Y-119050000D01*
X147773809Y-119002380D01*
X147678571Y-119002380D01*
X147535714Y-119050000D01*
X147488095Y-119097619D01*
X146869047Y-119002380D02*
X146678571Y-119002380D01*
X146583333Y-119050000D01*
X146488095Y-119145238D01*
X146440476Y-119335714D01*
X146440476Y-119669047D01*
X146488095Y-119859523D01*
X146583333Y-119954761D01*
X146678571Y-120002380D01*
X146869047Y-120002380D01*
X146964285Y-119954761D01*
X147059523Y-119859523D01*
X147107142Y-119669047D01*
X147107142Y-119335714D01*
X147059523Y-119145238D01*
X146964285Y-119050000D01*
X146869047Y-119002380D01*
X146059523Y-119954761D02*
X145916666Y-120002380D01*
X145678571Y-120002380D01*
X145583333Y-119954761D01*
X145535714Y-119907142D01*
X145488095Y-119811904D01*
X145488095Y-119716666D01*
X145535714Y-119621428D01*
X145583333Y-119573809D01*
X145678571Y-119526190D01*
X145869047Y-119478571D01*
X145964285Y-119430952D01*
X146011904Y-119383333D01*
X146059523Y-119288095D01*
X146059523Y-119192857D01*
X146011904Y-119097619D01*
X145964285Y-119050000D01*
X145869047Y-119002380D01*
X145630952Y-119002380D01*
X145488095Y-119050000D01*
X145202380Y-119002380D02*
X144630952Y-119002380D01*
X144916666Y-120002380D02*
X144916666Y-119002380D01*
X144297619Y-119478571D02*
X143964285Y-119478571D01*
X143821428Y-120002380D02*
X144297619Y-120002380D01*
X144297619Y-119002380D01*
X143821428Y-119002380D01*
X142916666Y-120002380D02*
X143392857Y-120002380D01*
X143392857Y-119002380D01*
X142107142Y-120002380D02*
X142583333Y-120002380D01*
X142583333Y-119002380D01*
X141821428Y-119716666D02*
X141345238Y-119716666D01*
X141916666Y-120002380D02*
X141583333Y-119002380D01*
X141250000Y-120002380D01*
D11*
X141633333Y-127416666D02*
X141633333Y-126716666D01*
X141166666Y-126716666D02*
X141033333Y-126716666D01*
X140966666Y-126750000D01*
X140900000Y-126816666D01*
X140866666Y-126950000D01*
X140866666Y-127183333D01*
X140900000Y-127316666D01*
X140966666Y-127383333D01*
X141033333Y-127416666D01*
X141166666Y-127416666D01*
X141233333Y-127383333D01*
X141300000Y-127316666D01*
X141333333Y-127183333D01*
X141333333Y-126950000D01*
X141300000Y-126816666D01*
X141233333Y-126750000D01*
X141166666Y-126716666D01*
X140200000Y-127416666D02*
X140600000Y-127416666D01*
X140400000Y-127416666D02*
X140400000Y-126716666D01*
X140466666Y-126816666D01*
X140533333Y-126883333D01*
X140600000Y-126916666D01*
X139533333Y-127416666D02*
X139933333Y-127416666D01*
X139733333Y-127416666D02*
X139733333Y-126716666D01*
X139800000Y-126816666D01*
X139866666Y-126883333D01*
X139933333Y-126916666D01*
D12*
X152361904Y-95709523D02*
X152361904Y-91709523D01*
X152361904Y-95519047D02*
X152742857Y-95709523D01*
X153504761Y-95709523D01*
X153885714Y-95519047D01*
X154076190Y-95328571D01*
X154266666Y-94947619D01*
X154266666Y-93804761D01*
X154076190Y-93423809D01*
X153885714Y-93233333D01*
X153504761Y-93042857D01*
X152742857Y-93042857D01*
X152361904Y-93233333D01*
X150838095Y-93042857D02*
X149885714Y-95709523D01*
X148933333Y-93042857D01*
X145885714Y-95519047D02*
X146266666Y-95709523D01*
X147028571Y-95709523D01*
X147409523Y-95519047D01*
X147600000Y-95138095D01*
X147600000Y-93614285D01*
X147409523Y-93233333D01*
X147028571Y-93042857D01*
X146266666Y-93042857D01*
X145885714Y-93233333D01*
X145695238Y-93614285D01*
X145695238Y-93995238D01*
X147600000Y-94376190D01*
X143980952Y-95709523D02*
X143980952Y-93042857D01*
X143980952Y-93804761D02*
X143790476Y-93423809D01*
X143600000Y-93233333D01*
X143219047Y-93042857D01*
X142838095Y-93042857D01*
X142076190Y-93042857D02*
X140552380Y-93042857D01*
X141504761Y-91709523D02*
X141504761Y-95138095D01*
X141314285Y-95519047D01*
X140933333Y-95709523D01*
X140552380Y-95709523D01*
D11*
X120900000Y-107983333D02*
X120900000Y-107750000D01*
X120533333Y-107650000D02*
X120533333Y-107983333D01*
X121233333Y-107983333D01*
X121233333Y-107650000D01*
X121233333Y-107450000D02*
X121233333Y-107050000D01*
X120533333Y-107250000D02*
X121233333Y-107250000D01*
X120533333Y-106816666D02*
X121233333Y-106816666D01*
X120900000Y-106816666D02*
X120900000Y-106416666D01*
X120533333Y-106416666D02*
X121233333Y-106416666D01*
X142316666Y-80233333D02*
X142750000Y-80233333D01*
X142516666Y-79966666D01*
X142616666Y-79966666D01*
X142683333Y-79933333D01*
X142716666Y-79900000D01*
X142750000Y-79833333D01*
X142750000Y-79666666D01*
X142716666Y-79600000D01*
X142683333Y-79566666D01*
X142616666Y-79533333D01*
X142416666Y-79533333D01*
X142350000Y-79566666D01*
X142316666Y-79600000D01*
X143050000Y-79600000D02*
X143083333Y-79566666D01*
X143050000Y-79533333D01*
X143016666Y-79566666D01*
X143050000Y-79600000D01*
X143050000Y-79533333D01*
X143316666Y-80233333D02*
X143750000Y-80233333D01*
X143516666Y-79966666D01*
X143616666Y-79966666D01*
X143683333Y-79933333D01*
X143716666Y-79900000D01*
X143750000Y-79833333D01*
X143750000Y-79666666D01*
X143716666Y-79600000D01*
X143683333Y-79566666D01*
X143616666Y-79533333D01*
X143416666Y-79533333D01*
X143350000Y-79566666D01*
X143316666Y-79600000D01*
X143950000Y-80233333D02*
X144183333Y-79533333D01*
X144416666Y-80233333D01*
X148321428Y-97889285D02*
X148142857Y-98389285D01*
X147964285Y-97889285D01*
X147285714Y-98389285D02*
X147714285Y-98389285D01*
X147500000Y-98389285D02*
X147500000Y-97639285D01*
X147571428Y-97746428D01*
X147642857Y-97817857D01*
X147714285Y-97853571D01*
X146964285Y-98317857D02*
X146928571Y-98353571D01*
X146964285Y-98389285D01*
X147000000Y-98353571D01*
X146964285Y-98317857D01*
X146964285Y-98389285D01*
X146214285Y-98389285D02*
X146642857Y-98389285D01*
X146428571Y-98389285D02*
X146428571Y-97639285D01*
X146500000Y-97746428D01*
X146571428Y-97817857D01*
X146642857Y-97853571D01*
X151763333Y-126686666D02*
X151330000Y-126686666D01*
X151563333Y-126953333D01*
X151463333Y-126953333D01*
X151396666Y-126986666D01*
X151363333Y-127020000D01*
X151330000Y-127086666D01*
X151330000Y-127253333D01*
X151363333Y-127320000D01*
X151396666Y-127353333D01*
X151463333Y-127386666D01*
X151663333Y-127386666D01*
X151730000Y-127353333D01*
X151763333Y-127320000D01*
X151030000Y-127320000D02*
X150996666Y-127353333D01*
X151030000Y-127386666D01*
X151063333Y-127353333D01*
X151030000Y-127320000D01*
X151030000Y-127386666D01*
X150763333Y-126686666D02*
X150330000Y-126686666D01*
X150563333Y-126953333D01*
X150463333Y-126953333D01*
X150396666Y-126986666D01*
X150363333Y-127020000D01*
X150330000Y-127086666D01*
X150330000Y-127253333D01*
X150363333Y-127320000D01*
X150396666Y-127353333D01*
X150463333Y-127386666D01*
X150663333Y-127386666D01*
X150730000Y-127353333D01*
X150763333Y-127320000D01*
X150130000Y-126686666D02*
X149896666Y-127386666D01*
X149663333Y-126686666D01*
X167066666Y-93566666D02*
X167066666Y-93966666D01*
X167766666Y-93766666D02*
X167066666Y-93766666D01*
X167066666Y-94133333D02*
X167766666Y-94600000D01*
X167066666Y-94600000D02*
X167766666Y-94133333D01*
X167766666Y-94866666D02*
X167066666Y-94866666D01*
X167066666Y-95033333D01*
X167100000Y-95133333D01*
X167166666Y-95200000D01*
X167233333Y-95233333D01*
X167366666Y-95266666D01*
X167466666Y-95266666D01*
X167600000Y-95233333D01*
X167666666Y-95200000D01*
X167733333Y-95133333D01*
X167766666Y-95033333D01*
X167766666Y-94866666D01*
X165220000Y-81826666D02*
X164886666Y-81826666D01*
X165286666Y-82026666D02*
X165053333Y-81326666D01*
X164820000Y-82026666D01*
X164620000Y-81393333D02*
X164586666Y-81360000D01*
X164520000Y-81326666D01*
X164353333Y-81326666D01*
X164286666Y-81360000D01*
X164253333Y-81393333D01*
X164220000Y-81460000D01*
X164220000Y-81526666D01*
X164253333Y-81626666D01*
X164653333Y-82026666D01*
X164220000Y-82026666D01*
X162843333Y-87290000D02*
X162910000Y-87256666D01*
X163010000Y-87256666D01*
X163110000Y-87290000D01*
X163176666Y-87356666D01*
X163210000Y-87423333D01*
X163243333Y-87556666D01*
X163243333Y-87656666D01*
X163210000Y-87790000D01*
X163176666Y-87856666D01*
X163110000Y-87923333D01*
X163010000Y-87956666D01*
X162943333Y-87956666D01*
X162843333Y-87923333D01*
X162810000Y-87890000D01*
X162810000Y-87656666D01*
X162943333Y-87656666D01*
X162510000Y-87956666D02*
X162510000Y-87256666D01*
X162110000Y-87956666D01*
X162110000Y-87256666D01*
X161776666Y-87956666D02*
X161776666Y-87256666D01*
X161610000Y-87256666D01*
X161510000Y-87290000D01*
X161443333Y-87356666D01*
X161410000Y-87423333D01*
X161376666Y-87556666D01*
X161376666Y-87656666D01*
X161410000Y-87790000D01*
X161443333Y-87856666D01*
X161510000Y-87923333D01*
X161610000Y-87956666D01*
X161776666Y-87956666D01*
%TO.C,REF\u002A\u002A*%
G36*
X147747275Y-104648931D02*
G01*
X147831095Y-105093555D01*
X148449667Y-105348551D01*
X148820707Y-105096246D01*
X148894144Y-105046506D01*
X148991499Y-104981218D01*
X149075787Y-104925454D01*
X149142631Y-104882078D01*
X149187654Y-104853953D01*
X149206478Y-104843942D01*
X149218039Y-104851061D01*
X149252596Y-104880894D01*
X149304894Y-104929852D01*
X149370500Y-104993440D01*
X149444983Y-105067163D01*
X149523913Y-105146525D01*
X149602856Y-105227031D01*
X149677384Y-105304185D01*
X149743063Y-105373493D01*
X149795463Y-105430457D01*
X149830153Y-105470584D01*
X149842701Y-105489377D01*
X149839782Y-105497451D01*
X149819571Y-105533469D01*
X149782663Y-105592744D01*
X149732050Y-105670630D01*
X149670725Y-105762481D01*
X149601679Y-105863650D01*
X149563787Y-105918826D01*
X149498606Y-106014884D01*
X149442723Y-106098717D01*
X149399117Y-106165777D01*
X149370769Y-106211519D01*
X149360657Y-106231396D01*
X149360823Y-106232497D01*
X149369743Y-106257694D01*
X149390206Y-106309147D01*
X149419360Y-106380135D01*
X149454353Y-106463935D01*
X149492332Y-106553828D01*
X149530445Y-106643091D01*
X149565839Y-106725003D01*
X149595662Y-106792843D01*
X149617061Y-106839890D01*
X149627184Y-106859422D01*
X149633174Y-106861155D01*
X149669566Y-106868969D01*
X149734427Y-106881915D01*
X149822565Y-106898979D01*
X149928787Y-106919151D01*
X150047902Y-106941418D01*
X150110683Y-106953223D01*
X150225912Y-106975748D01*
X150326662Y-106996550D01*
X150407426Y-107014435D01*
X150462698Y-107028208D01*
X150486971Y-107036674D01*
X150491331Y-107045066D01*
X150498563Y-107086072D01*
X150504246Y-107154368D01*
X150508382Y-107243529D01*
X150510977Y-107347128D01*
X150512036Y-107458740D01*
X150511561Y-107571938D01*
X150509559Y-107680296D01*
X150506033Y-107777389D01*
X150500987Y-107856790D01*
X150494427Y-107912072D01*
X150486356Y-107936810D01*
X150481458Y-107939600D01*
X150444930Y-107951569D01*
X150381565Y-107967405D01*
X150298686Y-107985374D01*
X150203618Y-108003741D01*
X150171542Y-108009591D01*
X150023393Y-108036798D01*
X149906961Y-108058663D01*
X149818209Y-108076093D01*
X149753103Y-108089996D01*
X149707606Y-108101277D01*
X149677682Y-108110843D01*
X149659294Y-108119601D01*
X149648407Y-108128457D01*
X149647142Y-108129943D01*
X149629338Y-108160931D01*
X149602994Y-108217634D01*
X149570661Y-108293399D01*
X149534893Y-108381574D01*
X149498244Y-108475507D01*
X149463266Y-108568547D01*
X149432513Y-108654041D01*
X149408538Y-108725336D01*
X149393895Y-108775782D01*
X149391136Y-108798726D01*
X149392981Y-108801703D01*
X149412075Y-108830493D01*
X149447984Y-108883595D01*
X149497378Y-108956117D01*
X149556927Y-109043167D01*
X149623303Y-109139854D01*
X149641520Y-109166456D01*
X149705577Y-109261875D01*
X149760937Y-109347212D01*
X149804439Y-109417405D01*
X149832924Y-109467394D01*
X149843232Y-109492116D01*
X149841011Y-109498616D01*
X149817858Y-109530644D01*
X149772177Y-109582945D01*
X149707241Y-109651999D01*
X149626319Y-109734286D01*
X149532685Y-109826286D01*
X149479165Y-109877781D01*
X149394542Y-109957983D01*
X149320475Y-110026678D01*
X149260941Y-110080252D01*
X149219917Y-110115085D01*
X149201381Y-110127563D01*
X149188646Y-110122938D01*
X149149436Y-110101057D01*
X149092495Y-110065273D01*
X149025250Y-110020117D01*
X148977438Y-109987165D01*
X148881985Y-109921727D01*
X148780125Y-109852228D01*
X148687088Y-109789075D01*
X148504832Y-109665800D01*
X148351841Y-109748520D01*
X148315817Y-109767613D01*
X148250303Y-109800272D01*
X148199640Y-109822819D01*
X148172564Y-109831226D01*
X148163703Y-109820430D01*
X148141699Y-109779323D01*
X148109199Y-109711549D01*
X148068010Y-109621409D01*
X148019942Y-109513205D01*
X147966802Y-109391237D01*
X147910399Y-109259808D01*
X147852542Y-109123218D01*
X147795038Y-108985767D01*
X147739697Y-108851758D01*
X147688326Y-108725491D01*
X147642735Y-108611268D01*
X147604732Y-108513390D01*
X147576124Y-108436157D01*
X147558721Y-108383871D01*
X147554331Y-108360833D01*
X147554628Y-108360160D01*
X147575077Y-108338863D01*
X147617850Y-108305508D01*
X147674117Y-108267011D01*
X147691877Y-108255256D01*
X147827014Y-108143735D01*
X147938856Y-108010906D01*
X148024755Y-107862298D01*
X148082062Y-107703440D01*
X148108131Y-107539860D01*
X148100313Y-107377088D01*
X148068644Y-107232315D01*
X148011782Y-107086124D01*
X147928888Y-106955703D01*
X147815131Y-106831813D01*
X147770433Y-106792235D01*
X147625935Y-106694723D01*
X147469838Y-106629050D01*
X147306667Y-106594630D01*
X147140943Y-106590874D01*
X146977192Y-106617194D01*
X146819936Y-106673003D01*
X146673698Y-106757714D01*
X146543004Y-106870737D01*
X146432374Y-107011487D01*
X146411105Y-107046342D01*
X146338810Y-107205655D01*
X146300415Y-107371552D01*
X146294914Y-107539737D01*
X146321301Y-107705913D01*
X146378570Y-107865784D01*
X146465717Y-108015053D01*
X146581736Y-108149423D01*
X146725622Y-108264599D01*
X146730294Y-108267702D01*
X146785964Y-108306933D01*
X146827689Y-108340286D01*
X146846746Y-108360833D01*
X146844342Y-108376941D01*
X146829391Y-108423844D01*
X146802881Y-108496539D01*
X146766620Y-108590725D01*
X146722416Y-108702098D01*
X146672076Y-108826358D01*
X146617407Y-108959202D01*
X146560218Y-109096327D01*
X146502316Y-109233432D01*
X146445510Y-109366215D01*
X146391606Y-109490374D01*
X146342412Y-109601606D01*
X146299737Y-109695609D01*
X146265387Y-109768082D01*
X146241171Y-109814722D01*
X146228897Y-109831226D01*
X146218689Y-109828991D01*
X146178586Y-109812926D01*
X146119318Y-109784759D01*
X146049619Y-109748520D01*
X145896629Y-109665800D01*
X145714373Y-109789075D01*
X145660527Y-109825579D01*
X145560374Y-109893784D01*
X145460525Y-109962098D01*
X145376211Y-110020117D01*
X145329679Y-110051736D01*
X145269200Y-110091020D01*
X145224357Y-110117912D01*
X145202455Y-110127883D01*
X145193045Y-110123650D01*
X145159031Y-110097721D01*
X145106595Y-110052070D01*
X145040301Y-109991186D01*
X144964713Y-109919561D01*
X144884396Y-109841683D01*
X144803913Y-109762045D01*
X144727829Y-109685135D01*
X144660707Y-109615445D01*
X144607112Y-109557464D01*
X144571608Y-109515684D01*
X144558759Y-109494593D01*
X144559500Y-109490581D01*
X144574793Y-109457920D01*
X144607462Y-109401412D01*
X144654350Y-109326163D01*
X144712301Y-109237275D01*
X144778157Y-109139854D01*
X144796627Y-109112982D01*
X144861482Y-109018423D01*
X144918609Y-108934827D01*
X144964678Y-108867084D01*
X144996359Y-108820086D01*
X145010324Y-108798726D01*
X145010668Y-108797811D01*
X145006546Y-108771678D01*
X144990807Y-108718740D01*
X144966004Y-108645647D01*
X144934689Y-108559052D01*
X144899417Y-108465608D01*
X144862740Y-108371965D01*
X144827212Y-108284777D01*
X144795386Y-108210695D01*
X144769816Y-108156371D01*
X144753053Y-108128457D01*
X144751374Y-108126724D01*
X144739372Y-108117956D01*
X144719103Y-108109115D01*
X144686529Y-108099292D01*
X144637616Y-108087583D01*
X144568327Y-108073080D01*
X144474625Y-108054876D01*
X144352476Y-108032066D01*
X144197842Y-108003741D01*
X144165770Y-107997780D01*
X144073893Y-107979352D01*
X143996607Y-107961892D01*
X143941236Y-107947133D01*
X143915105Y-107936810D01*
X143910733Y-107928197D01*
X143903445Y-107886826D01*
X143897669Y-107818241D01*
X143893410Y-107728868D01*
X143890673Y-107625135D01*
X143889462Y-107513465D01*
X143889782Y-107400287D01*
X143891636Y-107292026D01*
X143895030Y-107195108D01*
X143899967Y-107115959D01*
X143906452Y-107061006D01*
X143914489Y-107036674D01*
X143922696Y-107033079D01*
X143963519Y-107021748D01*
X144032524Y-107005722D01*
X144124203Y-106986195D01*
X144233050Y-106964362D01*
X144353558Y-106941418D01*
X144419357Y-106929159D01*
X144532135Y-106907901D01*
X144629207Y-106889287D01*
X144705382Y-106874328D01*
X144755469Y-106864036D01*
X144774276Y-106859422D01*
X144774983Y-106858471D01*
X144786961Y-106834310D01*
X144809794Y-106783694D01*
X144840630Y-106713338D01*
X144876613Y-106629958D01*
X144914891Y-106540270D01*
X144952609Y-106450989D01*
X144986913Y-106368832D01*
X145014949Y-106300513D01*
X145033864Y-106252748D01*
X145040803Y-106232254D01*
X145037742Y-106225043D01*
X145017372Y-106190728D01*
X144980422Y-106132970D01*
X144929860Y-106056299D01*
X144868657Y-105965248D01*
X144799781Y-105864350D01*
X144761994Y-105809093D01*
X144696782Y-105712215D01*
X144640871Y-105627193D01*
X144597241Y-105558662D01*
X144568877Y-105511260D01*
X144558759Y-105489623D01*
X144565790Y-105477887D01*
X144595197Y-105442818D01*
X144643441Y-105389745D01*
X144706093Y-105323164D01*
X144778725Y-105247574D01*
X144856908Y-105167472D01*
X144936214Y-105087354D01*
X145012213Y-105011718D01*
X145080478Y-104945062D01*
X145136580Y-104891882D01*
X145176090Y-104856676D01*
X145194579Y-104843942D01*
X145204843Y-104848893D01*
X145242530Y-104871857D01*
X145303348Y-104910938D01*
X145382913Y-104963272D01*
X145476843Y-105025996D01*
X145580754Y-105096246D01*
X145951794Y-105348551D01*
X146261080Y-105221053D01*
X146570365Y-105093555D01*
X146654186Y-104648931D01*
X146738006Y-104204307D01*
X147663454Y-104204307D01*
X147747275Y-104648931D01*
G37*
D14*
X147747275Y-104648931D02*
X147831095Y-105093555D01*
X148449667Y-105348551D01*
X148820707Y-105096246D01*
X148894144Y-105046506D01*
X148991499Y-104981218D01*
X149075787Y-104925454D01*
X149142631Y-104882078D01*
X149187654Y-104853953D01*
X149206478Y-104843942D01*
X149218039Y-104851061D01*
X149252596Y-104880894D01*
X149304894Y-104929852D01*
X149370500Y-104993440D01*
X149444983Y-105067163D01*
X149523913Y-105146525D01*
X149602856Y-105227031D01*
X149677384Y-105304185D01*
X149743063Y-105373493D01*
X149795463Y-105430457D01*
X149830153Y-105470584D01*
X149842701Y-105489377D01*
X149839782Y-105497451D01*
X149819571Y-105533469D01*
X149782663Y-105592744D01*
X149732050Y-105670630D01*
X149670725Y-105762481D01*
X149601679Y-105863650D01*
X149563787Y-105918826D01*
X149498606Y-106014884D01*
X149442723Y-106098717D01*
X149399117Y-106165777D01*
X149370769Y-106211519D01*
X149360657Y-106231396D01*
X149360823Y-106232497D01*
X149369743Y-106257694D01*
X149390206Y-106309147D01*
X149419360Y-106380135D01*
X149454353Y-106463935D01*
X149492332Y-106553828D01*
X149530445Y-106643091D01*
X149565839Y-106725003D01*
X149595662Y-106792843D01*
X149617061Y-106839890D01*
X149627184Y-106859422D01*
X149633174Y-106861155D01*
X149669566Y-106868969D01*
X149734427Y-106881915D01*
X149822565Y-106898979D01*
X149928787Y-106919151D01*
X150047902Y-106941418D01*
X150110683Y-106953223D01*
X150225912Y-106975748D01*
X150326662Y-106996550D01*
X150407426Y-107014435D01*
X150462698Y-107028208D01*
X150486971Y-107036674D01*
X150491331Y-107045066D01*
X150498563Y-107086072D01*
X150504246Y-107154368D01*
X150508382Y-107243529D01*
X150510977Y-107347128D01*
X150512036Y-107458740D01*
X150511561Y-107571938D01*
X150509559Y-107680296D01*
X150506033Y-107777389D01*
X150500987Y-107856790D01*
X150494427Y-107912072D01*
X150486356Y-107936810D01*
X150481458Y-107939600D01*
X150444930Y-107951569D01*
X150381565Y-107967405D01*
X150298686Y-107985374D01*
X150203618Y-108003741D01*
X150171542Y-108009591D01*
X150023393Y-108036798D01*
X149906961Y-108058663D01*
X149818209Y-108076093D01*
X149753103Y-108089996D01*
X149707606Y-108101277D01*
X149677682Y-108110843D01*
X149659294Y-108119601D01*
X149648407Y-108128457D01*
X149647142Y-108129943D01*
X149629338Y-108160931D01*
X149602994Y-108217634D01*
X149570661Y-108293399D01*
X149534893Y-108381574D01*
X149498244Y-108475507D01*
X149463266Y-108568547D01*
X149432513Y-108654041D01*
X149408538Y-108725336D01*
X149393895Y-108775782D01*
X149391136Y-108798726D01*
X149392981Y-108801703D01*
X149412075Y-108830493D01*
X149447984Y-108883595D01*
X149497378Y-108956117D01*
X149556927Y-109043167D01*
X149623303Y-109139854D01*
X149641520Y-109166456D01*
X149705577Y-109261875D01*
X149760937Y-109347212D01*
X149804439Y-109417405D01*
X149832924Y-109467394D01*
X149843232Y-109492116D01*
X149841011Y-109498616D01*
X149817858Y-109530644D01*
X149772177Y-109582945D01*
X149707241Y-109651999D01*
X149626319Y-109734286D01*
X149532685Y-109826286D01*
X149479165Y-109877781D01*
X149394542Y-109957983D01*
X149320475Y-110026678D01*
X149260941Y-110080252D01*
X149219917Y-110115085D01*
X149201381Y-110127563D01*
X149188646Y-110122938D01*
X149149436Y-110101057D01*
X149092495Y-110065273D01*
X149025250Y-110020117D01*
X148977438Y-109987165D01*
X148881985Y-109921727D01*
X148780125Y-109852228D01*
X148687088Y-109789075D01*
X148504832Y-109665800D01*
X148351841Y-109748520D01*
X148315817Y-109767613D01*
X148250303Y-109800272D01*
X148199640Y-109822819D01*
X148172564Y-109831226D01*
X148163703Y-109820430D01*
X148141699Y-109779323D01*
X148109199Y-109711549D01*
X148068010Y-109621409D01*
X148019942Y-109513205D01*
X147966802Y-109391237D01*
X147910399Y-109259808D01*
X147852542Y-109123218D01*
X147795038Y-108985767D01*
X147739697Y-108851758D01*
X147688326Y-108725491D01*
X147642735Y-108611268D01*
X147604732Y-108513390D01*
X147576124Y-108436157D01*
X147558721Y-108383871D01*
X147554331Y-108360833D01*
X147554628Y-108360160D01*
X147575077Y-108338863D01*
X147617850Y-108305508D01*
X147674117Y-108267011D01*
X147691877Y-108255256D01*
X147827014Y-108143735D01*
X147938856Y-108010906D01*
X148024755Y-107862298D01*
X148082062Y-107703440D01*
X148108131Y-107539860D01*
X148100313Y-107377088D01*
X148068644Y-107232315D01*
X148011782Y-107086124D01*
X147928888Y-106955703D01*
X147815131Y-106831813D01*
X147770433Y-106792235D01*
X147625935Y-106694723D01*
X147469838Y-106629050D01*
X147306667Y-106594630D01*
X147140943Y-106590874D01*
X146977192Y-106617194D01*
X146819936Y-106673003D01*
X146673698Y-106757714D01*
X146543004Y-106870737D01*
X146432374Y-107011487D01*
X146411105Y-107046342D01*
X146338810Y-107205655D01*
X146300415Y-107371552D01*
X146294914Y-107539737D01*
X146321301Y-107705913D01*
X146378570Y-107865784D01*
X146465717Y-108015053D01*
X146581736Y-108149423D01*
X146725622Y-108264599D01*
X146730294Y-108267702D01*
X146785964Y-108306933D01*
X146827689Y-108340286D01*
X146846746Y-108360833D01*
X146844342Y-108376941D01*
X146829391Y-108423844D01*
X146802881Y-108496539D01*
X146766620Y-108590725D01*
X146722416Y-108702098D01*
X146672076Y-108826358D01*
X146617407Y-108959202D01*
X146560218Y-109096327D01*
X146502316Y-109233432D01*
X146445510Y-109366215D01*
X146391606Y-109490374D01*
X146342412Y-109601606D01*
X146299737Y-109695609D01*
X146265387Y-109768082D01*
X146241171Y-109814722D01*
X146228897Y-109831226D01*
X146218689Y-109828991D01*
X146178586Y-109812926D01*
X146119318Y-109784759D01*
X146049619Y-109748520D01*
X145896629Y-109665800D01*
X145714373Y-109789075D01*
X145660527Y-109825579D01*
X145560374Y-109893784D01*
X145460525Y-109962098D01*
X145376211Y-110020117D01*
X145329679Y-110051736D01*
X145269200Y-110091020D01*
X145224357Y-110117912D01*
X145202455Y-110127883D01*
X145193045Y-110123650D01*
X145159031Y-110097721D01*
X145106595Y-110052070D01*
X145040301Y-109991186D01*
X144964713Y-109919561D01*
X144884396Y-109841683D01*
X144803913Y-109762045D01*
X144727829Y-109685135D01*
X144660707Y-109615445D01*
X144607112Y-109557464D01*
X144571608Y-109515684D01*
X144558759Y-109494593D01*
X144559500Y-109490581D01*
X144574793Y-109457920D01*
X144607462Y-109401412D01*
X144654350Y-109326163D01*
X144712301Y-109237275D01*
X144778157Y-109139854D01*
X144796627Y-109112982D01*
X144861482Y-109018423D01*
X144918609Y-108934827D01*
X144964678Y-108867084D01*
X144996359Y-108820086D01*
X145010324Y-108798726D01*
X145010668Y-108797811D01*
X145006546Y-108771678D01*
X144990807Y-108718740D01*
X144966004Y-108645647D01*
X144934689Y-108559052D01*
X144899417Y-108465608D01*
X144862740Y-108371965D01*
X144827212Y-108284777D01*
X144795386Y-108210695D01*
X144769816Y-108156371D01*
X144753053Y-108128457D01*
X144751374Y-108126724D01*
X144739372Y-108117956D01*
X144719103Y-108109115D01*
X144686529Y-108099292D01*
X144637616Y-108087583D01*
X144568327Y-108073080D01*
X144474625Y-108054876D01*
X144352476Y-108032066D01*
X144197842Y-108003741D01*
X144165770Y-107997780D01*
X144073893Y-107979352D01*
X143996607Y-107961892D01*
X143941236Y-107947133D01*
X143915105Y-107936810D01*
X143910733Y-107928197D01*
X143903445Y-107886826D01*
X143897669Y-107818241D01*
X143893410Y-107728868D01*
X143890673Y-107625135D01*
X143889462Y-107513465D01*
X143889782Y-107400287D01*
X143891636Y-107292026D01*
X143895030Y-107195108D01*
X143899967Y-107115959D01*
X143906452Y-107061006D01*
X143914489Y-107036674D01*
X143922696Y-107033079D01*
X143963519Y-107021748D01*
X144032524Y-107005722D01*
X144124203Y-106986195D01*
X144233050Y-106964362D01*
X144353558Y-106941418D01*
X144419357Y-106929159D01*
X144532135Y-106907901D01*
X144629207Y-106889287D01*
X144705382Y-106874328D01*
X144755469Y-106864036D01*
X144774276Y-106859422D01*
X144774983Y-106858471D01*
X144786961Y-106834310D01*
X144809794Y-106783694D01*
X144840630Y-106713338D01*
X144876613Y-106629958D01*
X144914891Y-106540270D01*
X144952609Y-106450989D01*
X144986913Y-106368832D01*
X145014949Y-106300513D01*
X145033864Y-106252748D01*
X145040803Y-106232254D01*
X145037742Y-106225043D01*
X145017372Y-106190728D01*
X144980422Y-106132970D01*
X144929860Y-106056299D01*
X144868657Y-105965248D01*
X144799781Y-105864350D01*
X144761994Y-105809093D01*
X144696782Y-105712215D01*
X144640871Y-105627193D01*
X144597241Y-105558662D01*
X144568877Y-105511260D01*
X144558759Y-105489623D01*
X144565790Y-105477887D01*
X144595197Y-105442818D01*
X144643441Y-105389745D01*
X144706093Y-105323164D01*
X144778725Y-105247574D01*
X144856908Y-105167472D01*
X144936214Y-105087354D01*
X145012213Y-105011718D01*
X145080478Y-104945062D01*
X145136580Y-104891882D01*
X145176090Y-104856676D01*
X145194579Y-104843942D01*
X145204843Y-104848893D01*
X145242530Y-104871857D01*
X145303348Y-104910938D01*
X145382913Y-104963272D01*
X145476843Y-105025996D01*
X145580754Y-105096246D01*
X145951794Y-105348551D01*
X146261080Y-105221053D01*
X146570365Y-105093555D01*
X146654186Y-104648931D01*
X146738006Y-104204307D01*
X147663454Y-104204307D01*
X147747275Y-104648931D01*
G36*
X131301662Y-121620696D02*
G01*
X131341314Y-121621782D01*
X131409109Y-121621782D01*
X131409109Y-121734951D01*
X131249577Y-121734951D01*
X131234682Y-121912732D01*
X131232682Y-121937037D01*
X131228023Y-121997880D01*
X131224731Y-122047389D01*
X131223092Y-122080992D01*
X131223390Y-122094116D01*
X131227724Y-122090343D01*
X131247496Y-122070676D01*
X131281679Y-122035818D01*
X131328541Y-121987576D01*
X131386354Y-121927757D01*
X131453387Y-121858167D01*
X131527912Y-121780615D01*
X131608197Y-121696907D01*
X131692513Y-121608849D01*
X131779130Y-121518250D01*
X131866319Y-121426915D01*
X131952349Y-121336653D01*
X132035492Y-121249269D01*
X132114016Y-121166572D01*
X132186192Y-121090368D01*
X132250291Y-121022463D01*
X132304583Y-120964666D01*
X132401592Y-120861040D01*
X132402034Y-120949315D01*
X132402475Y-121037589D01*
X131801938Y-121669158D01*
X131201401Y-122300726D01*
X131189396Y-122444674D01*
X131141365Y-123020635D01*
X131132876Y-123122791D01*
X131122343Y-123250612D01*
X131112621Y-123369767D01*
X131103898Y-123477914D01*
X131096358Y-123572713D01*
X131090187Y-123651819D01*
X131085573Y-123712892D01*
X131082700Y-123753590D01*
X131081754Y-123771570D01*
X131084251Y-123779808D01*
X131095471Y-123797599D01*
X131116751Y-123824411D01*
X131127021Y-123836129D01*
X131149225Y-123861466D01*
X131194023Y-123909986D01*
X131252281Y-123971192D01*
X131325129Y-124046307D01*
X131413703Y-124136550D01*
X131519134Y-124243145D01*
X131588492Y-124313093D01*
X131685179Y-124410658D01*
X131781526Y-124507941D01*
X131874638Y-124602014D01*
X131961618Y-124689950D01*
X132039569Y-124768820D01*
X132105596Y-124835699D01*
X132156802Y-124887658D01*
X132357514Y-125091620D01*
X132321058Y-125129671D01*
X132312460Y-125138245D01*
X132287095Y-125159297D01*
X132269695Y-125167723D01*
X132256071Y-125160530D01*
X132230743Y-125138944D01*
X132200379Y-125107995D01*
X132181896Y-125088448D01*
X132147427Y-125052752D01*
X132098712Y-125002684D01*
X132037469Y-124940001D01*
X131965420Y-124866457D01*
X131884285Y-124783810D01*
X131795784Y-124693815D01*
X131701637Y-124598228D01*
X131603565Y-124498805D01*
X131061161Y-123949343D01*
X131039066Y-124234746D01*
X131034250Y-124295662D01*
X131027216Y-124377548D01*
X131020872Y-124439569D01*
X131014748Y-124484987D01*
X131008373Y-124517062D01*
X131001277Y-124539052D01*
X130992991Y-124554219D01*
X130981393Y-124575416D01*
X130971850Y-124614386D01*
X130969010Y-124670531D01*
X130969010Y-124752773D01*
X130742674Y-124752773D01*
X130742674Y-124576733D01*
X129897082Y-124576733D01*
X129848203Y-124632262D01*
X129834836Y-124646722D01*
X129762388Y-124704813D01*
X129680532Y-124740576D01*
X129591900Y-124752773D01*
X129513692Y-124746306D01*
X129425233Y-124719047D01*
X129349507Y-124670328D01*
X129334748Y-124656403D01*
X129297864Y-124611328D01*
X129265503Y-124558819D01*
X129242297Y-124507061D01*
X129232879Y-124464239D01*
X129232697Y-124458023D01*
X129231342Y-124435246D01*
X129227800Y-124419513D01*
X129220390Y-124412068D01*
X129207431Y-124414156D01*
X129187243Y-124427020D01*
X129158145Y-124451905D01*
X129118456Y-124490053D01*
X129066496Y-124542710D01*
X129000584Y-124611119D01*
X128919040Y-124696524D01*
X128875604Y-124742112D01*
X128803000Y-124818441D01*
X128734309Y-124890808D01*
X128672223Y-124956366D01*
X128619434Y-125012274D01*
X128578634Y-125055686D01*
X128552515Y-125083758D01*
X128481119Y-125161436D01*
X128392863Y-125073416D01*
X128938690Y-124501287D01*
X128973105Y-124465188D01*
X129095546Y-124336272D01*
X129200651Y-124224754D01*
X129288736Y-124130288D01*
X129360116Y-124052529D01*
X129410588Y-123996174D01*
X129617247Y-123996174D01*
X129618872Y-124009434D01*
X129619156Y-124010819D01*
X129632698Y-124042228D01*
X129659748Y-124056863D01*
X129743129Y-124088063D01*
X129817418Y-124140038D01*
X129875846Y-124208791D01*
X129915890Y-124291315D01*
X129935026Y-124384606D01*
X129941364Y-124463565D01*
X130890838Y-124463565D01*
X130897458Y-124435273D01*
X130898629Y-124428329D01*
X130902268Y-124397281D01*
X130907234Y-124347081D01*
X130913157Y-124281727D01*
X130919669Y-124205219D01*
X130926401Y-124121555D01*
X130948724Y-123836129D01*
X130647826Y-123530565D01*
X130592636Y-123474704D01*
X130525109Y-123406888D01*
X130464529Y-123346643D01*
X130413021Y-123296052D01*
X130372710Y-123257200D01*
X130345722Y-123232170D01*
X130334182Y-123223046D01*
X130326444Y-123227405D01*
X130303395Y-123247241D01*
X130268709Y-123280375D01*
X130225487Y-123323820D01*
X130176832Y-123374587D01*
X130164140Y-123388051D01*
X130107229Y-123448275D01*
X130039414Y-123519864D01*
X129965800Y-123597437D01*
X129891493Y-123675611D01*
X129821599Y-123749005D01*
X129817401Y-123753409D01*
X129752420Y-123821785D01*
X129702836Y-123874732D01*
X129666688Y-123914767D01*
X129642016Y-123944411D01*
X129626858Y-123966181D01*
X129619256Y-123982595D01*
X129617247Y-123996174D01*
X129410588Y-123996174D01*
X129415105Y-123991131D01*
X129454019Y-123945748D01*
X129477173Y-123916035D01*
X129484882Y-123901644D01*
X129484883Y-123901559D01*
X129483825Y-123883624D01*
X129480737Y-123843421D01*
X129475858Y-123783687D01*
X129469432Y-123707158D01*
X129461700Y-123616569D01*
X129452905Y-123514657D01*
X129443287Y-123404159D01*
X129433091Y-123287811D01*
X129422556Y-123168348D01*
X129411926Y-123048507D01*
X129401442Y-122931025D01*
X129391346Y-122818637D01*
X129381881Y-122714081D01*
X129373288Y-122620091D01*
X129365809Y-122539405D01*
X129359687Y-122474759D01*
X129355162Y-122428888D01*
X129352478Y-122404530D01*
X129347067Y-122363732D01*
X129476253Y-122363732D01*
X129477908Y-122394653D01*
X129481549Y-122446653D01*
X129486995Y-122517487D01*
X129494063Y-122604911D01*
X129502570Y-122706681D01*
X129512335Y-122820552D01*
X129523174Y-122944279D01*
X129534907Y-123075618D01*
X129544079Y-123176908D01*
X129555566Y-123302526D01*
X129566322Y-123418762D01*
X129576131Y-123523380D01*
X129584781Y-123614140D01*
X129592057Y-123688804D01*
X129597746Y-123745134D01*
X129601634Y-123780891D01*
X129603506Y-123793837D01*
X129609188Y-123789826D01*
X129630020Y-123770138D01*
X129663872Y-123736322D01*
X129708412Y-123690837D01*
X129761310Y-123636146D01*
X129820236Y-123574710D01*
X129882858Y-123508990D01*
X129946848Y-123441449D01*
X130009874Y-123374547D01*
X130069606Y-123310746D01*
X130123713Y-123252507D01*
X130169865Y-123202292D01*
X130205733Y-123162563D01*
X130228984Y-123135780D01*
X130235778Y-123126477D01*
X130417601Y-123126477D01*
X130693305Y-123401968D01*
X130760726Y-123469224D01*
X130824267Y-123532162D01*
X130873490Y-123580100D01*
X130910196Y-123614594D01*
X130936190Y-123637199D01*
X130953276Y-123649471D01*
X130963256Y-123652966D01*
X130967935Y-123649238D01*
X130969116Y-123639844D01*
X130969873Y-123624749D01*
X130972601Y-123585883D01*
X130977108Y-123526895D01*
X130983179Y-123450473D01*
X130990596Y-123359305D01*
X130999142Y-123256080D01*
X131008602Y-123143483D01*
X131018758Y-123024205D01*
X131027723Y-122919077D01*
X131037066Y-122808351D01*
X131045443Y-122707814D01*
X131052653Y-122619943D01*
X131058496Y-122547215D01*
X131062769Y-122492110D01*
X131065273Y-122457104D01*
X131065805Y-122444674D01*
X131065384Y-122444908D01*
X131053509Y-122456350D01*
X131027130Y-122483198D01*
X130988570Y-122523018D01*
X130940153Y-122573372D01*
X130884203Y-122631828D01*
X130823042Y-122695948D01*
X130758995Y-122763298D01*
X130694385Y-122831443D01*
X130631535Y-122897948D01*
X130572768Y-122960377D01*
X130520409Y-123016295D01*
X130419533Y-123124406D01*
X130417601Y-123126477D01*
X130235778Y-123126477D01*
X130237290Y-123124406D01*
X130229148Y-123113383D01*
X130205478Y-123086999D01*
X130168478Y-123047527D01*
X130120350Y-122997191D01*
X130063296Y-122938217D01*
X129999520Y-122872830D01*
X129931222Y-122803255D01*
X129860605Y-122731716D01*
X129789871Y-122660438D01*
X129721222Y-122591647D01*
X129656861Y-122527566D01*
X129598989Y-122470422D01*
X129549810Y-122422439D01*
X129511524Y-122385841D01*
X129486334Y-122362854D01*
X129476442Y-122355703D01*
X129476253Y-122363732D01*
X129347067Y-122363732D01*
X129345390Y-122351089D01*
X129070297Y-122351089D01*
X129070140Y-122250495D01*
X129170891Y-122250495D01*
X129252624Y-122250495D01*
X129259895Y-122250489D01*
X129300950Y-122249613D01*
X129323277Y-122245867D01*
X129332529Y-122237270D01*
X129334357Y-122221840D01*
X129326306Y-122199159D01*
X129298730Y-122161428D01*
X129252624Y-122112179D01*
X129170891Y-122031172D01*
X129170891Y-122250495D01*
X129070140Y-122250495D01*
X129069968Y-122140471D01*
X129069639Y-121929852D01*
X128617914Y-121470891D01*
X128166189Y-121011931D01*
X128165570Y-120924848D01*
X128164951Y-120837767D01*
X128706769Y-121386952D01*
X128759137Y-121439998D01*
X128867803Y-121549772D01*
X128960709Y-121643114D01*
X129039055Y-121721173D01*
X129104043Y-121785097D01*
X129156872Y-121836035D01*
X129198743Y-121875135D01*
X129230855Y-121903548D01*
X129254410Y-121922420D01*
X129270608Y-121932901D01*
X129280649Y-121936139D01*
X129297579Y-121935158D01*
X129307084Y-121927996D01*
X129308723Y-121908401D01*
X129304782Y-121870124D01*
X129302065Y-121846025D01*
X129298284Y-121805744D01*
X129296760Y-121778961D01*
X129296015Y-121769728D01*
X129288746Y-121759839D01*
X129268668Y-121756562D01*
X129229689Y-121757992D01*
X129219737Y-121758553D01*
X129179898Y-121757921D01*
X129151560Y-121749167D01*
X129131586Y-121734951D01*
X129414852Y-121734951D01*
X129419013Y-121782104D01*
X129420935Y-121803498D01*
X129426924Y-121861909D01*
X129432826Y-121900381D01*
X129439727Y-121922912D01*
X129448712Y-121933498D01*
X129460870Y-121936139D01*
X129471801Y-121937937D01*
X129479050Y-121946530D01*
X129483100Y-121966505D01*
X129484863Y-122002450D01*
X129485248Y-122058952D01*
X129485248Y-122181766D01*
X129525447Y-122221840D01*
X129623565Y-122319654D01*
X129761881Y-122457542D01*
X129761881Y-122351089D01*
X130516337Y-122351089D01*
X130516337Y-122590000D01*
X129897831Y-122590000D01*
X130107592Y-122806906D01*
X130147770Y-122848334D01*
X130203328Y-122905200D01*
X130251570Y-122954082D01*
X130289971Y-122992441D01*
X130316003Y-123017741D01*
X130327140Y-123027442D01*
X130331373Y-123024767D01*
X130351224Y-123006782D01*
X130385451Y-122973481D01*
X130432227Y-122926712D01*
X130489724Y-122868325D01*
X130556112Y-122800169D01*
X130629564Y-122724094D01*
X130708251Y-122641950D01*
X130787341Y-122558943D01*
X130864871Y-122477136D01*
X130927746Y-122410083D01*
X130977502Y-122356007D01*
X131015678Y-122313129D01*
X131043811Y-122279673D01*
X131063440Y-122253861D01*
X131076101Y-122233914D01*
X131083334Y-122218056D01*
X131086675Y-122204509D01*
X131087561Y-122197910D01*
X131091488Y-122161548D01*
X131096459Y-122108018D01*
X131101927Y-122043421D01*
X131107344Y-121973862D01*
X131109181Y-121949635D01*
X131114488Y-121884178D01*
X131119548Y-121827717D01*
X131123863Y-121785618D01*
X131126934Y-121763243D01*
X131132955Y-121734951D01*
X129414852Y-121734951D01*
X129131586Y-121734951D01*
X129123630Y-121729289D01*
X129118820Y-121725104D01*
X129079482Y-121674427D01*
X129063903Y-121621782D01*
X129404698Y-121621782D01*
X130819221Y-121621782D01*
X131031881Y-121621782D01*
X131088908Y-121621782D01*
X131105993Y-121621662D01*
X131131308Y-121619462D01*
X131138616Y-121612334D01*
X131132943Y-121597508D01*
X131131267Y-121594682D01*
X131112448Y-121572944D01*
X131085183Y-121548820D01*
X131057987Y-121529254D01*
X131039371Y-121521188D01*
X131037697Y-121522463D01*
X131033544Y-121539976D01*
X131031881Y-121571485D01*
X131031881Y-121621782D01*
X130819221Y-121621782D01*
X130815526Y-121531095D01*
X130811832Y-121440407D01*
X130736386Y-121425252D01*
X130698551Y-121418379D01*
X130635368Y-121408756D01*
X130576065Y-121401496D01*
X130491188Y-121392893D01*
X130491188Y-121496040D01*
X129912773Y-121496040D01*
X129912773Y-121405122D01*
X129840471Y-121413753D01*
X129729998Y-121432249D01*
X129618816Y-121465691D01*
X129526850Y-121512324D01*
X129452542Y-121572786D01*
X129404698Y-121621782D01*
X129063903Y-121621782D01*
X129062172Y-121615934D01*
X129067474Y-121554575D01*
X129095975Y-121495297D01*
X129098733Y-121491606D01*
X129136822Y-121459851D01*
X129186476Y-121441067D01*
X129240002Y-121436071D01*
X129289707Y-121445678D01*
X129327900Y-121470704D01*
X129340831Y-121483480D01*
X129353428Y-121486576D01*
X129371467Y-121476998D01*
X129401928Y-121453082D01*
X129411274Y-121445731D01*
X129483430Y-121399339D01*
X129568915Y-121358084D01*
X129638830Y-121332575D01*
X130013367Y-121332575D01*
X130013367Y-121395446D01*
X130390594Y-121395446D01*
X130390594Y-121332575D01*
X130013367Y-121332575D01*
X129638830Y-121332575D01*
X129659767Y-121324936D01*
X129748027Y-121302868D01*
X129825736Y-121294852D01*
X129833991Y-121294788D01*
X129879879Y-121290321D01*
X129905079Y-121277795D01*
X129912773Y-121255784D01*
X129913676Y-121248849D01*
X129918615Y-121242885D01*
X129930611Y-121238519D01*
X129952680Y-121235503D01*
X129987836Y-121233590D01*
X130039094Y-121232530D01*
X130109471Y-121232077D01*
X130201980Y-121231980D01*
X130288660Y-121232150D01*
X130362332Y-121232834D01*
X130416265Y-121234215D01*
X130453288Y-121236470D01*
X130476230Y-121239778D01*
X130487920Y-121244320D01*
X130491188Y-121250272D01*
X130501937Y-121264888D01*
X130532055Y-121274215D01*
X130543582Y-121275847D01*
X130582886Y-121281591D01*
X130635188Y-121289378D01*
X130692376Y-121298003D01*
X130723916Y-121302393D01*
X130770074Y-121307148D01*
X130802641Y-121308295D01*
X130816023Y-121305495D01*
X130818308Y-121303671D01*
X130839405Y-121299165D01*
X130877355Y-121296029D01*
X130926048Y-121294852D01*
X131031881Y-121294852D01*
X131031894Y-121332575D01*
X131031894Y-121335718D01*
X131032388Y-121348668D01*
X131038819Y-121370411D01*
X131057123Y-121388851D01*
X131092830Y-121410801D01*
X131124174Y-121430854D01*
X131171893Y-121469356D01*
X131215138Y-121512579D01*
X131248219Y-121554627D01*
X131265442Y-121589604D01*
X131269662Y-121603081D01*
X131277480Y-121612334D01*
X131280116Y-121615454D01*
X131301662Y-121620696D01*
G37*
X131301662Y-121620696D02*
X131341314Y-121621782D01*
X131409109Y-121621782D01*
X131409109Y-121734951D01*
X131249577Y-121734951D01*
X131234682Y-121912732D01*
X131232682Y-121937037D01*
X131228023Y-121997880D01*
X131224731Y-122047389D01*
X131223092Y-122080992D01*
X131223390Y-122094116D01*
X131227724Y-122090343D01*
X131247496Y-122070676D01*
X131281679Y-122035818D01*
X131328541Y-121987576D01*
X131386354Y-121927757D01*
X131453387Y-121858167D01*
X131527912Y-121780615D01*
X131608197Y-121696907D01*
X131692513Y-121608849D01*
X131779130Y-121518250D01*
X131866319Y-121426915D01*
X131952349Y-121336653D01*
X132035492Y-121249269D01*
X132114016Y-121166572D01*
X132186192Y-121090368D01*
X132250291Y-121022463D01*
X132304583Y-120964666D01*
X132401592Y-120861040D01*
X132402034Y-120949315D01*
X132402475Y-121037589D01*
X131801938Y-121669158D01*
X131201401Y-122300726D01*
X131189396Y-122444674D01*
X131141365Y-123020635D01*
X131132876Y-123122791D01*
X131122343Y-123250612D01*
X131112621Y-123369767D01*
X131103898Y-123477914D01*
X131096358Y-123572713D01*
X131090187Y-123651819D01*
X131085573Y-123712892D01*
X131082700Y-123753590D01*
X131081754Y-123771570D01*
X131084251Y-123779808D01*
X131095471Y-123797599D01*
X131116751Y-123824411D01*
X131127021Y-123836129D01*
X131149225Y-123861466D01*
X131194023Y-123909986D01*
X131252281Y-123971192D01*
X131325129Y-124046307D01*
X131413703Y-124136550D01*
X131519134Y-124243145D01*
X131588492Y-124313093D01*
X131685179Y-124410658D01*
X131781526Y-124507941D01*
X131874638Y-124602014D01*
X131961618Y-124689950D01*
X132039569Y-124768820D01*
X132105596Y-124835699D01*
X132156802Y-124887658D01*
X132357514Y-125091620D01*
X132321058Y-125129671D01*
X132312460Y-125138245D01*
X132287095Y-125159297D01*
X132269695Y-125167723D01*
X132256071Y-125160530D01*
X132230743Y-125138944D01*
X132200379Y-125107995D01*
X132181896Y-125088448D01*
X132147427Y-125052752D01*
X132098712Y-125002684D01*
X132037469Y-124940001D01*
X131965420Y-124866457D01*
X131884285Y-124783810D01*
X131795784Y-124693815D01*
X131701637Y-124598228D01*
X131603565Y-124498805D01*
X131061161Y-123949343D01*
X131039066Y-124234746D01*
X131034250Y-124295662D01*
X131027216Y-124377548D01*
X131020872Y-124439569D01*
X131014748Y-124484987D01*
X131008373Y-124517062D01*
X131001277Y-124539052D01*
X130992991Y-124554219D01*
X130981393Y-124575416D01*
X130971850Y-124614386D01*
X130969010Y-124670531D01*
X130969010Y-124752773D01*
X130742674Y-124752773D01*
X130742674Y-124576733D01*
X129897082Y-124576733D01*
X129848203Y-124632262D01*
X129834836Y-124646722D01*
X129762388Y-124704813D01*
X129680532Y-124740576D01*
X129591900Y-124752773D01*
X129513692Y-124746306D01*
X129425233Y-124719047D01*
X129349507Y-124670328D01*
X129334748Y-124656403D01*
X129297864Y-124611328D01*
X129265503Y-124558819D01*
X129242297Y-124507061D01*
X129232879Y-124464239D01*
X129232697Y-124458023D01*
X129231342Y-124435246D01*
X129227800Y-124419513D01*
X129220390Y-124412068D01*
X129207431Y-124414156D01*
X129187243Y-124427020D01*
X129158145Y-124451905D01*
X129118456Y-124490053D01*
X129066496Y-124542710D01*
X129000584Y-124611119D01*
X128919040Y-124696524D01*
X128875604Y-124742112D01*
X128803000Y-124818441D01*
X128734309Y-124890808D01*
X128672223Y-124956366D01*
X128619434Y-125012274D01*
X128578634Y-125055686D01*
X128552515Y-125083758D01*
X128481119Y-125161436D01*
X128392863Y-125073416D01*
X128938690Y-124501287D01*
X128973105Y-124465188D01*
X129095546Y-124336272D01*
X129200651Y-124224754D01*
X129288736Y-124130288D01*
X129360116Y-124052529D01*
X129410588Y-123996174D01*
X129617247Y-123996174D01*
X129618872Y-124009434D01*
X129619156Y-124010819D01*
X129632698Y-124042228D01*
X129659748Y-124056863D01*
X129743129Y-124088063D01*
X129817418Y-124140038D01*
X129875846Y-124208791D01*
X129915890Y-124291315D01*
X129935026Y-124384606D01*
X129941364Y-124463565D01*
X130890838Y-124463565D01*
X130897458Y-124435273D01*
X130898629Y-124428329D01*
X130902268Y-124397281D01*
X130907234Y-124347081D01*
X130913157Y-124281727D01*
X130919669Y-124205219D01*
X130926401Y-124121555D01*
X130948724Y-123836129D01*
X130647826Y-123530565D01*
X130592636Y-123474704D01*
X130525109Y-123406888D01*
X130464529Y-123346643D01*
X130413021Y-123296052D01*
X130372710Y-123257200D01*
X130345722Y-123232170D01*
X130334182Y-123223046D01*
X130326444Y-123227405D01*
X130303395Y-123247241D01*
X130268709Y-123280375D01*
X130225487Y-123323820D01*
X130176832Y-123374587D01*
X130164140Y-123388051D01*
X130107229Y-123448275D01*
X130039414Y-123519864D01*
X129965800Y-123597437D01*
X129891493Y-123675611D01*
X129821599Y-123749005D01*
X129817401Y-123753409D01*
X129752420Y-123821785D01*
X129702836Y-123874732D01*
X129666688Y-123914767D01*
X129642016Y-123944411D01*
X129626858Y-123966181D01*
X129619256Y-123982595D01*
X129617247Y-123996174D01*
X129410588Y-123996174D01*
X129415105Y-123991131D01*
X129454019Y-123945748D01*
X129477173Y-123916035D01*
X129484882Y-123901644D01*
X129484883Y-123901559D01*
X129483825Y-123883624D01*
X129480737Y-123843421D01*
X129475858Y-123783687D01*
X129469432Y-123707158D01*
X129461700Y-123616569D01*
X129452905Y-123514657D01*
X129443287Y-123404159D01*
X129433091Y-123287811D01*
X129422556Y-123168348D01*
X129411926Y-123048507D01*
X129401442Y-122931025D01*
X129391346Y-122818637D01*
X129381881Y-122714081D01*
X129373288Y-122620091D01*
X129365809Y-122539405D01*
X129359687Y-122474759D01*
X129355162Y-122428888D01*
X129352478Y-122404530D01*
X129347067Y-122363732D01*
X129476253Y-122363732D01*
X129477908Y-122394653D01*
X129481549Y-122446653D01*
X129486995Y-122517487D01*
X129494063Y-122604911D01*
X129502570Y-122706681D01*
X129512335Y-122820552D01*
X129523174Y-122944279D01*
X129534907Y-123075618D01*
X129544079Y-123176908D01*
X129555566Y-123302526D01*
X129566322Y-123418762D01*
X129576131Y-123523380D01*
X129584781Y-123614140D01*
X129592057Y-123688804D01*
X129597746Y-123745134D01*
X129601634Y-123780891D01*
X129603506Y-123793837D01*
X129609188Y-123789826D01*
X129630020Y-123770138D01*
X129663872Y-123736322D01*
X129708412Y-123690837D01*
X129761310Y-123636146D01*
X129820236Y-123574710D01*
X129882858Y-123508990D01*
X129946848Y-123441449D01*
X130009874Y-123374547D01*
X130069606Y-123310746D01*
X130123713Y-123252507D01*
X130169865Y-123202292D01*
X130205733Y-123162563D01*
X130228984Y-123135780D01*
X130235778Y-123126477D01*
X130417601Y-123126477D01*
X130693305Y-123401968D01*
X130760726Y-123469224D01*
X130824267Y-123532162D01*
X130873490Y-123580100D01*
X130910196Y-123614594D01*
X130936190Y-123637199D01*
X130953276Y-123649471D01*
X130963256Y-123652966D01*
X130967935Y-123649238D01*
X130969116Y-123639844D01*
X130969873Y-123624749D01*
X130972601Y-123585883D01*
X130977108Y-123526895D01*
X130983179Y-123450473D01*
X130990596Y-123359305D01*
X130999142Y-123256080D01*
X131008602Y-123143483D01*
X131018758Y-123024205D01*
X131027723Y-122919077D01*
X131037066Y-122808351D01*
X131045443Y-122707814D01*
X131052653Y-122619943D01*
X131058496Y-122547215D01*
X131062769Y-122492110D01*
X131065273Y-122457104D01*
X131065805Y-122444674D01*
X131065384Y-122444908D01*
X131053509Y-122456350D01*
X131027130Y-122483198D01*
X130988570Y-122523018D01*
X130940153Y-122573372D01*
X130884203Y-122631828D01*
X130823042Y-122695948D01*
X130758995Y-122763298D01*
X130694385Y-122831443D01*
X130631535Y-122897948D01*
X130572768Y-122960377D01*
X130520409Y-123016295D01*
X130419533Y-123124406D01*
X130417601Y-123126477D01*
X130235778Y-123126477D01*
X130237290Y-123124406D01*
X130229148Y-123113383D01*
X130205478Y-123086999D01*
X130168478Y-123047527D01*
X130120350Y-122997191D01*
X130063296Y-122938217D01*
X129999520Y-122872830D01*
X129931222Y-122803255D01*
X129860605Y-122731716D01*
X129789871Y-122660438D01*
X129721222Y-122591647D01*
X129656861Y-122527566D01*
X129598989Y-122470422D01*
X129549810Y-122422439D01*
X129511524Y-122385841D01*
X129486334Y-122362854D01*
X129476442Y-122355703D01*
X129476253Y-122363732D01*
X129347067Y-122363732D01*
X129345390Y-122351089D01*
X129070297Y-122351089D01*
X129070140Y-122250495D01*
X129170891Y-122250495D01*
X129252624Y-122250495D01*
X129259895Y-122250489D01*
X129300950Y-122249613D01*
X129323277Y-122245867D01*
X129332529Y-122237270D01*
X129334357Y-122221840D01*
X129326306Y-122199159D01*
X129298730Y-122161428D01*
X129252624Y-122112179D01*
X129170891Y-122031172D01*
X129170891Y-122250495D01*
X129070140Y-122250495D01*
X129069968Y-122140471D01*
X129069639Y-121929852D01*
X128617914Y-121470891D01*
X128166189Y-121011931D01*
X128165570Y-120924848D01*
X128164951Y-120837767D01*
X128706769Y-121386952D01*
X128759137Y-121439998D01*
X128867803Y-121549772D01*
X128960709Y-121643114D01*
X129039055Y-121721173D01*
X129104043Y-121785097D01*
X129156872Y-121836035D01*
X129198743Y-121875135D01*
X129230855Y-121903548D01*
X129254410Y-121922420D01*
X129270608Y-121932901D01*
X129280649Y-121936139D01*
X129297579Y-121935158D01*
X129307084Y-121927996D01*
X129308723Y-121908401D01*
X129304782Y-121870124D01*
X129302065Y-121846025D01*
X129298284Y-121805744D01*
X129296760Y-121778961D01*
X129296015Y-121769728D01*
X129288746Y-121759839D01*
X129268668Y-121756562D01*
X129229689Y-121757992D01*
X129219737Y-121758553D01*
X129179898Y-121757921D01*
X129151560Y-121749167D01*
X129131586Y-121734951D01*
X129414852Y-121734951D01*
X129419013Y-121782104D01*
X129420935Y-121803498D01*
X129426924Y-121861909D01*
X129432826Y-121900381D01*
X129439727Y-121922912D01*
X129448712Y-121933498D01*
X129460870Y-121936139D01*
X129471801Y-121937937D01*
X129479050Y-121946530D01*
X129483100Y-121966505D01*
X129484863Y-122002450D01*
X129485248Y-122058952D01*
X129485248Y-122181766D01*
X129525447Y-122221840D01*
X129623565Y-122319654D01*
X129761881Y-122457542D01*
X129761881Y-122351089D01*
X130516337Y-122351089D01*
X130516337Y-122590000D01*
X129897831Y-122590000D01*
X130107592Y-122806906D01*
X130147770Y-122848334D01*
X130203328Y-122905200D01*
X130251570Y-122954082D01*
X130289971Y-122992441D01*
X130316003Y-123017741D01*
X130327140Y-123027442D01*
X130331373Y-123024767D01*
X130351224Y-123006782D01*
X130385451Y-122973481D01*
X130432227Y-122926712D01*
X130489724Y-122868325D01*
X130556112Y-122800169D01*
X130629564Y-122724094D01*
X130708251Y-122641950D01*
X130787341Y-122558943D01*
X130864871Y-122477136D01*
X130927746Y-122410083D01*
X130977502Y-122356007D01*
X131015678Y-122313129D01*
X131043811Y-122279673D01*
X131063440Y-122253861D01*
X131076101Y-122233914D01*
X131083334Y-122218056D01*
X131086675Y-122204509D01*
X131087561Y-122197910D01*
X131091488Y-122161548D01*
X131096459Y-122108018D01*
X131101927Y-122043421D01*
X131107344Y-121973862D01*
X131109181Y-121949635D01*
X131114488Y-121884178D01*
X131119548Y-121827717D01*
X131123863Y-121785618D01*
X131126934Y-121763243D01*
X131132955Y-121734951D01*
X129414852Y-121734951D01*
X129131586Y-121734951D01*
X129123630Y-121729289D01*
X129118820Y-121725104D01*
X129079482Y-121674427D01*
X129063903Y-121621782D01*
X129404698Y-121621782D01*
X130819221Y-121621782D01*
X131031881Y-121621782D01*
X131088908Y-121621782D01*
X131105993Y-121621662D01*
X131131308Y-121619462D01*
X131138616Y-121612334D01*
X131132943Y-121597508D01*
X131131267Y-121594682D01*
X131112448Y-121572944D01*
X131085183Y-121548820D01*
X131057987Y-121529254D01*
X131039371Y-121521188D01*
X131037697Y-121522463D01*
X131033544Y-121539976D01*
X131031881Y-121571485D01*
X131031881Y-121621782D01*
X130819221Y-121621782D01*
X130815526Y-121531095D01*
X130811832Y-121440407D01*
X130736386Y-121425252D01*
X130698551Y-121418379D01*
X130635368Y-121408756D01*
X130576065Y-121401496D01*
X130491188Y-121392893D01*
X130491188Y-121496040D01*
X129912773Y-121496040D01*
X129912773Y-121405122D01*
X129840471Y-121413753D01*
X129729998Y-121432249D01*
X129618816Y-121465691D01*
X129526850Y-121512324D01*
X129452542Y-121572786D01*
X129404698Y-121621782D01*
X129063903Y-121621782D01*
X129062172Y-121615934D01*
X129067474Y-121554575D01*
X129095975Y-121495297D01*
X129098733Y-121491606D01*
X129136822Y-121459851D01*
X129186476Y-121441067D01*
X129240002Y-121436071D01*
X129289707Y-121445678D01*
X129327900Y-121470704D01*
X129340831Y-121483480D01*
X129353428Y-121486576D01*
X129371467Y-121476998D01*
X129401928Y-121453082D01*
X129411274Y-121445731D01*
X129483430Y-121399339D01*
X129568915Y-121358084D01*
X129638830Y-121332575D01*
X130013367Y-121332575D01*
X130013367Y-121395446D01*
X130390594Y-121395446D01*
X130390594Y-121332575D01*
X130013367Y-121332575D01*
X129638830Y-121332575D01*
X129659767Y-121324936D01*
X129748027Y-121302868D01*
X129825736Y-121294852D01*
X129833991Y-121294788D01*
X129879879Y-121290321D01*
X129905079Y-121277795D01*
X129912773Y-121255784D01*
X129913676Y-121248849D01*
X129918615Y-121242885D01*
X129930611Y-121238519D01*
X129952680Y-121235503D01*
X129987836Y-121233590D01*
X130039094Y-121232530D01*
X130109471Y-121232077D01*
X130201980Y-121231980D01*
X130288660Y-121232150D01*
X130362332Y-121232834D01*
X130416265Y-121234215D01*
X130453288Y-121236470D01*
X130476230Y-121239778D01*
X130487920Y-121244320D01*
X130491188Y-121250272D01*
X130501937Y-121264888D01*
X130532055Y-121274215D01*
X130543582Y-121275847D01*
X130582886Y-121281591D01*
X130635188Y-121289378D01*
X130692376Y-121298003D01*
X130723916Y-121302393D01*
X130770074Y-121307148D01*
X130802641Y-121308295D01*
X130816023Y-121305495D01*
X130818308Y-121303671D01*
X130839405Y-121299165D01*
X130877355Y-121296029D01*
X130926048Y-121294852D01*
X131031881Y-121294852D01*
X131031894Y-121332575D01*
X131031894Y-121335718D01*
X131032388Y-121348668D01*
X131038819Y-121370411D01*
X131057123Y-121388851D01*
X131092830Y-121410801D01*
X131124174Y-121430854D01*
X131171893Y-121469356D01*
X131215138Y-121512579D01*
X131248219Y-121554627D01*
X131265442Y-121589604D01*
X131269662Y-121603081D01*
X131277480Y-121612334D01*
X131280116Y-121615454D01*
X131301662Y-121620696D01*
G36*
X132062971Y-126877822D02*
G01*
X128542178Y-126877822D01*
X128542178Y-126010198D01*
X132062971Y-126010198D01*
X132062971Y-126877822D01*
G37*
X132062971Y-126877822D02*
X128542178Y-126877822D01*
X128542178Y-126010198D01*
X132062971Y-126010198D01*
X132062971Y-126877822D01*
%TD*%
M02*
