%TF.GenerationSoftware,KiCad,Pcbnew,6.0.11+dfsg-1~bpo11+1*%
%TF.CreationDate,2023-04-06T13:49:23+02:00*%
%TF.ProjectId,dvert_11,64766572-745f-4313-912e-6b696361645f,1.1*%
%TF.SameCoordinates,Original*%
%TF.FileFunction,Copper,L1,Top*%
%TF.FilePolarity,Positive*%
%FSLAX46Y46*%
G04 Gerber Fmt 4.6, Leading zero omitted, Abs format (unit mm)*
G04 Created by KiCad (PCBNEW 6.0.11+dfsg-1~bpo11+1) date 2023-04-06 13:49:23*
%MOMM*%
%LPD*%
G01*
G04 APERTURE LIST*
G04 Aperture macros list*
%AMRoundRect*
0 Rectangle with rounded corners*
0 $1 Rounding radius*
0 $2 $3 $4 $5 $6 $7 $8 $9 X,Y pos of 4 corners*
0 Add a 4 corners polygon primitive as box body*
4,1,4,$2,$3,$4,$5,$6,$7,$8,$9,$2,$3,0*
0 Add four circle primitives for the rounded corners*
1,1,$1+$1,$2,$3*
1,1,$1+$1,$4,$5*
1,1,$1+$1,$6,$7*
1,1,$1+$1,$8,$9*
0 Add four rect primitives between the rounded corners*
20,1,$1+$1,$2,$3,$4,$5,0*
20,1,$1+$1,$4,$5,$6,$7,0*
20,1,$1+$1,$6,$7,$8,$9,0*
20,1,$1+$1,$8,$9,$2,$3,0*%
G04 Aperture macros list end*
%TA.AperFunction,ComponentPad*%
%ADD10R,1.700000X1.700000*%
%TD*%
%TA.AperFunction,ComponentPad*%
%ADD11O,1.700000X1.700000*%
%TD*%
%TA.AperFunction,SMDPad,CuDef*%
%ADD12RoundRect,0.250000X0.350000X0.450000X-0.350000X0.450000X-0.350000X-0.450000X0.350000X-0.450000X0*%
%TD*%
%TA.AperFunction,SMDPad,CuDef*%
%ADD13RoundRect,0.150000X-0.150000X0.875000X-0.150000X-0.875000X0.150000X-0.875000X0.150000X0.875000X0*%
%TD*%
%TA.AperFunction,SMDPad,CuDef*%
%ADD14RoundRect,0.250001X-0.462499X-0.624999X0.462499X-0.624999X0.462499X0.624999X-0.462499X0.624999X0*%
%TD*%
%TA.AperFunction,SMDPad,CuDef*%
%ADD15RoundRect,0.250000X0.475000X-0.337500X0.475000X0.337500X-0.475000X0.337500X-0.475000X-0.337500X0*%
%TD*%
%TA.AperFunction,ViaPad*%
%ADD16C,0.800000*%
%TD*%
%TA.AperFunction,Conductor*%
%ADD17C,0.250000*%
%TD*%
%TA.AperFunction,Conductor*%
%ADD18C,1.500000*%
%TD*%
G04 APERTURE END LIST*
D10*
%TO.P,J3,1,Pin_1*%
%TO.N,+3.3V*%
X169072500Y-91865000D03*
D11*
%TO.P,J3,2,Pin_2*%
%TO.N,GND*%
X171612500Y-91865000D03*
%TO.P,J3,3,Pin_3*%
%TO.N,/TXD*%
X169072500Y-94405000D03*
%TO.P,J3,4,Pin_4*%
%TO.N,/RXD*%
X171612500Y-94405000D03*
%TO.P,J3,5,Pin_5*%
%TO.N,/SCL*%
X169072500Y-96945000D03*
%TO.P,J3,6,Pin_6*%
%TO.N,/SDA*%
X171612500Y-96945000D03*
%TO.P,J3,7,Pin_7*%
%TO.N,/MISO*%
X169072500Y-99485000D03*
%TO.P,J3,8,Pin_8*%
%TO.N,/MOSI*%
X171612500Y-99485000D03*
%TO.P,J3,9,Pin_9*%
%TO.N,/SCK*%
X169072500Y-102025000D03*
%TO.P,J3,10,Pin_10*%
%TO.N,/SSEL1*%
X171612500Y-102025000D03*
%TO.P,J3,11,Pin_11*%
%TO.N,/SSEL2*%
X169072500Y-104565000D03*
%TO.P,J3,12,Pin_12*%
%TO.N,/SSEL3*%
X171612500Y-104565000D03*
%TO.P,J3,13,Pin_13*%
%TO.N,Earth*%
X169072500Y-107105000D03*
%TO.P,J3,14,Pin_14*%
%TO.N,GND*%
X171612500Y-107105000D03*
%TO.P,J3,15,Pin_15*%
%TO.N,+24V*%
X169072500Y-109645000D03*
%TO.P,J3,16,Pin_16*%
X171612500Y-109645000D03*
%TD*%
D12*
%TO.P,R2,1*%
%TO.N,+3.3V*%
X161200000Y-88950000D03*
%TO.P,R2,2*%
%TO.N,Net-(J5-Pad3)*%
X159200000Y-88950000D03*
%TD*%
D13*
%TO.P,U1,1,~{INT}*%
%TO.N,unconnected-(U1-Pad1)*%
X153985000Y-96080000D03*
%TO.P,U1,2,A1*%
%TO.N,Net-(J5-Pad3)*%
X152715000Y-96080000D03*
%TO.P,U1,3,A2*%
%TO.N,Net-(J5-Pad1)*%
X151445000Y-96080000D03*
%TO.P,U1,4,IO0_0*%
%TO.N,/IO0_0*%
X150175000Y-96080000D03*
%TO.P,U1,5,IO0_1*%
%TO.N,/IO0_1*%
X148905000Y-96080000D03*
%TO.P,U1,6,IO0_2*%
%TO.N,/IO0_2*%
X147635000Y-96080000D03*
%TO.P,U1,7,IO0_3*%
%TO.N,/IO0_3*%
X146365000Y-96080000D03*
%TO.P,U1,8,IO0_4*%
%TO.N,/IO0_4*%
X145095000Y-96080000D03*
%TO.P,U1,9,IO0_5*%
%TO.N,/IO0_5*%
X143825000Y-96080000D03*
%TO.P,U1,10,IO0_6*%
%TO.N,/IO0_6*%
X142555000Y-96080000D03*
%TO.P,U1,11,IO0_7*%
%TO.N,/IO0_7*%
X141285000Y-96080000D03*
%TO.P,U1,12,VSS*%
%TO.N,GND*%
X140015000Y-96080000D03*
%TO.P,U1,13,IO1_0*%
%TO.N,/IO1_0*%
X140015000Y-105380000D03*
%TO.P,U1,14,IO1_1*%
%TO.N,/IO1_1*%
X141285000Y-105380000D03*
%TO.P,U1,15,IO1_2*%
%TO.N,/IO1_2*%
X142555000Y-105380000D03*
%TO.P,U1,16,IO1_3*%
%TO.N,/IO1_3*%
X143825000Y-105380000D03*
%TO.P,U1,17,IO1_4*%
%TO.N,/IO1_4*%
X145095000Y-105380000D03*
%TO.P,U1,18,IO1_5*%
%TO.N,/IO1_5*%
X146365000Y-105380000D03*
%TO.P,U1,19,IO1_6*%
%TO.N,/IO1_6*%
X147635000Y-105380000D03*
%TO.P,U1,20,IO1_7*%
%TO.N,/IO1_7*%
X148905000Y-105380000D03*
%TO.P,U1,21,A0*%
%TO.N,Net-(J5-Pad5)*%
X150175000Y-105380000D03*
%TO.P,U1,22,SCL*%
%TO.N,/SCL*%
X151445000Y-105380000D03*
%TO.P,U1,23,SDA*%
%TO.N,/SDA*%
X152715000Y-105380000D03*
%TO.P,U1,24,VDD*%
%TO.N,+3.3V*%
X153985000Y-105380000D03*
%TD*%
D10*
%TO.P,J4,1,Pin_1*%
%TO.N,+3.3V*%
X122417500Y-91820000D03*
D11*
%TO.P,J4,2,Pin_2*%
%TO.N,GND*%
X124957500Y-91820000D03*
%TO.P,J4,3,Pin_3*%
%TO.N,/TXD*%
X122417500Y-94360000D03*
%TO.P,J4,4,Pin_4*%
%TO.N,/RXD*%
X124957500Y-94360000D03*
%TO.P,J4,5,Pin_5*%
%TO.N,/SCL*%
X122417500Y-96900000D03*
%TO.P,J4,6,Pin_6*%
%TO.N,/SDA*%
X124957500Y-96900000D03*
%TO.P,J4,7,Pin_7*%
%TO.N,/MISO*%
X122417500Y-99440000D03*
%TO.P,J4,8,Pin_8*%
%TO.N,/MOSI*%
X124957500Y-99440000D03*
%TO.P,J4,9,Pin_9*%
%TO.N,/SCK*%
X122417500Y-101980000D03*
%TO.P,J4,10,Pin_10*%
%TO.N,/SSEL1*%
X124957500Y-101980000D03*
%TO.P,J4,11,Pin_11*%
%TO.N,/SSEL2*%
X122417500Y-104520000D03*
%TO.P,J4,12,Pin_12*%
%TO.N,/SSEL3*%
X124957500Y-104520000D03*
%TO.P,J4,13,Pin_13*%
%TO.N,Earth*%
X122417500Y-107060000D03*
%TO.P,J4,14,Pin_14*%
%TO.N,GND*%
X124957500Y-107060000D03*
%TO.P,J4,15,Pin_15*%
%TO.N,+24V*%
X122417500Y-109600000D03*
%TO.P,J4,16,Pin_16*%
X124957500Y-109600000D03*
%TD*%
D12*
%TO.P,R3,1*%
%TO.N,+3.3V*%
X156650000Y-88950000D03*
%TO.P,R3,2*%
%TO.N,Net-(J5-Pad1)*%
X154650000Y-88950000D03*
%TD*%
%TO.P,R4,1*%
%TO.N,+24V*%
X134477500Y-122230000D03*
%TO.P,R4,2*%
%TO.N,Net-(D1-Pad2)*%
X132477500Y-122230000D03*
%TD*%
%TO.P,R1,1*%
%TO.N,+3.3V*%
X165750000Y-88950000D03*
%TO.P,R1,2*%
%TO.N,Net-(J5-Pad5)*%
X163750000Y-88950000D03*
%TD*%
D10*
%TO.P,J5,1,Pin_1*%
%TO.N,Net-(J5-Pad1)*%
X164825000Y-83385000D03*
D11*
%TO.P,J5,2,Pin_2*%
%TO.N,GND*%
X164825000Y-85925000D03*
%TO.P,J5,3,Pin_3*%
%TO.N,Net-(J5-Pad3)*%
X162285000Y-83385000D03*
%TO.P,J5,4,Pin_4*%
%TO.N,GND*%
X162285000Y-85925000D03*
%TO.P,J5,5,Pin_5*%
%TO.N,Net-(J5-Pad5)*%
X159745000Y-83385000D03*
%TO.P,J5,6,Pin_6*%
%TO.N,GND*%
X159745000Y-85925000D03*
%TD*%
D10*
%TO.P,J1,1,Pin_1*%
%TO.N,GND*%
X155852500Y-75730000D03*
D11*
%TO.P,J1,2,Pin_2*%
%TO.N,/IO0_0*%
X155852500Y-78270000D03*
%TO.P,J1,3,Pin_3*%
%TO.N,/IO0_1*%
X153312500Y-75730000D03*
%TO.P,J1,4,Pin_4*%
%TO.N,/IO0_2*%
X153312500Y-78270000D03*
%TO.P,J1,5,Pin_5*%
%TO.N,/IO0_3*%
X150772500Y-75730000D03*
%TO.P,J1,6,Pin_6*%
%TO.N,/IO0_4*%
X150772500Y-78270000D03*
%TO.P,J1,7,Pin_7*%
%TO.N,/IO0_5*%
X148232500Y-75730000D03*
%TO.P,J1,8,Pin_8*%
%TO.N,/IO0_6*%
X148232500Y-78270000D03*
%TO.P,J1,9,Pin_9*%
%TO.N,/IO0_7*%
X145692500Y-75730000D03*
%TO.P,J1,10,Pin_10*%
%TO.N,GND*%
X145692500Y-78270000D03*
%TO.P,J1,11,Pin_11*%
%TO.N,+3.3V*%
X143152500Y-75730000D03*
%TO.P,J1,12,Pin_12*%
X143152500Y-78270000D03*
%TO.P,J1,13,Pin_13*%
%TO.N,GND*%
X140612500Y-75730000D03*
%TO.P,J1,14,Pin_14*%
X140612500Y-78270000D03*
%TO.P,J1,15,Pin_15*%
%TO.N,+24V*%
X138072500Y-75730000D03*
%TO.P,J1,16,Pin_16*%
X138072500Y-78270000D03*
%TD*%
D10*
%TO.P,J2,1,Pin_1*%
%TO.N,GND*%
X138072500Y-125395000D03*
D11*
%TO.P,J2,2,Pin_2*%
%TO.N,/IO1_0*%
X138072500Y-122855000D03*
%TO.P,J2,3,Pin_3*%
%TO.N,/IO1_1*%
X140612500Y-125395000D03*
%TO.P,J2,4,Pin_4*%
%TO.N,/IO1_2*%
X140612500Y-122855000D03*
%TO.P,J2,5,Pin_5*%
%TO.N,/IO1_3*%
X143152500Y-125395000D03*
%TO.P,J2,6,Pin_6*%
%TO.N,/IO1_4*%
X143152500Y-122855000D03*
%TO.P,J2,7,Pin_7*%
%TO.N,/IO1_5*%
X145692500Y-125395000D03*
%TO.P,J2,8,Pin_8*%
%TO.N,/IO1_6*%
X145692500Y-122855000D03*
%TO.P,J2,9,Pin_9*%
%TO.N,/IO1_7*%
X148232500Y-125395000D03*
%TO.P,J2,10,Pin_10*%
%TO.N,GND*%
X148232500Y-122855000D03*
%TO.P,J2,11,Pin_11*%
%TO.N,+3.3V*%
X150772500Y-125395000D03*
%TO.P,J2,12,Pin_12*%
X150772500Y-122855000D03*
%TO.P,J2,13,Pin_13*%
%TO.N,GND*%
X153312500Y-125395000D03*
%TO.P,J2,14,Pin_14*%
X153312500Y-122855000D03*
%TO.P,J2,15,Pin_15*%
%TO.N,+24V*%
X155852500Y-125395000D03*
%TO.P,J2,16,Pin_16*%
X155852500Y-122855000D03*
%TD*%
D14*
%TO.P,D1,1,K*%
%TO.N,GND*%
X126990000Y-122230000D03*
%TO.P,D1,2,A*%
%TO.N,Net-(D1-Pad2)*%
X129965000Y-122230000D03*
%TD*%
D15*
%TO.P,C1,1*%
%TO.N,+3.3V*%
X156880000Y-101855000D03*
%TO.P,C1,2*%
%TO.N,GND*%
X156880000Y-99780000D03*
%TD*%
D16*
%TO.N,+3.3V*%
X161200000Y-90460000D03*
X157000000Y-87070000D03*
%TO.N,GND*%
X158130000Y-91820000D03*
%TO.N,/SCL*%
X155705000Y-96935000D03*
%TO.N,/SDA*%
X156840000Y-95660000D03*
%TO.N,Net-(J5-Pad5)*%
X163750000Y-87540000D03*
%TD*%
D17*
%TO.N,+3.3V*%
X165750000Y-88950000D02*
X168420000Y-88950000D01*
D18*
X166987500Y-105230000D02*
X166987500Y-92710000D01*
D17*
X156650000Y-88950000D02*
X156650000Y-87420000D01*
X161200000Y-88950000D02*
X161200000Y-90460000D01*
D18*
X164697500Y-112960000D02*
X164697500Y-109370000D01*
X150802500Y-122840000D02*
X150802500Y-119935000D01*
X150802500Y-125380000D02*
X150802500Y-122840000D01*
X166997500Y-107070000D02*
X164697500Y-109370000D01*
D17*
X156880000Y-101855000D02*
X158595000Y-101855000D01*
D18*
X166997500Y-105240000D02*
X166997500Y-107070000D01*
X166987500Y-105230000D02*
X166997500Y-105240000D01*
X160077500Y-117580000D02*
X164697500Y-112960000D01*
D17*
X159310000Y-101140000D02*
X159310000Y-92350000D01*
D18*
X150802500Y-119935000D02*
X151792500Y-118945000D01*
X169072500Y-91865000D02*
X167832500Y-91865000D01*
X151792500Y-118945000D02*
X153157500Y-117580000D01*
D17*
X153985000Y-105380000D02*
X153985000Y-102905000D01*
X155035000Y-101855000D02*
X156880000Y-101855000D01*
D18*
X153157500Y-117580000D02*
X160077500Y-117580000D01*
X167832500Y-91865000D02*
X166987500Y-92710000D01*
D17*
X158595000Y-101855000D02*
X159310000Y-101140000D01*
X156650000Y-87420000D02*
X157000000Y-87070000D01*
X168420000Y-88950000D02*
X169072500Y-89602500D01*
X159310000Y-92350000D02*
X161200000Y-90460000D01*
X169072500Y-89602500D02*
X169072500Y-91865000D01*
X153985000Y-102905000D02*
X155035000Y-101855000D01*
%TO.N,GND*%
X124957500Y-107060000D02*
X123727500Y-108290000D01*
X126990000Y-116822500D02*
X125937500Y-115770000D01*
X123727500Y-108290000D02*
X123727500Y-113560000D01*
X126990000Y-122230000D02*
X126990000Y-116822500D01*
X156880000Y-98610000D02*
X158130000Y-97360000D01*
X156880000Y-99780000D02*
X156880000Y-98610000D01*
X158130000Y-97360000D02*
X158130000Y-91820000D01*
X140612500Y-78620000D02*
X140637500Y-78620000D01*
X123727500Y-113560000D02*
X125937500Y-115770000D01*
X138307500Y-125380000D02*
X138102500Y-125380000D01*
%TO.N,/IO0_0*%
X150175000Y-96080000D02*
X150175000Y-86532500D01*
X150175000Y-86532500D02*
X155852500Y-80855000D01*
X155852500Y-78270000D02*
X155852500Y-80855000D01*
%TO.N,/IO0_1*%
X154587500Y-77005000D02*
X154587500Y-80940000D01*
X153312500Y-75730000D02*
X154587500Y-77005000D01*
X148905000Y-86622500D02*
X154587500Y-80940000D01*
X148905000Y-96080000D02*
X148905000Y-86622500D01*
%TO.N,/IO0_2*%
X153312500Y-78270000D02*
X153312500Y-80815000D01*
X147635000Y-86492500D02*
X153312500Y-80815000D01*
X147635000Y-96080000D02*
X147635000Y-86492500D01*
%TO.N,/IO0_3*%
X152037500Y-76995000D02*
X152037500Y-80550000D01*
X146365000Y-96080000D02*
X146365000Y-86222500D01*
X150772500Y-75730000D02*
X152037500Y-76995000D01*
X146365000Y-86222500D02*
X152037500Y-80550000D01*
%TO.N,/IO0_4*%
X145095000Y-86012500D02*
X150772500Y-80335000D01*
X150772500Y-78270000D02*
X150772500Y-80335000D01*
X145095000Y-96080000D02*
X145095000Y-86012500D01*
%TO.N,/IO0_5*%
X148232500Y-75730000D02*
X149537500Y-77035000D01*
X143825000Y-85735000D02*
X149537500Y-80022500D01*
X149537500Y-77035000D02*
X149537500Y-80022500D01*
X143825000Y-96080000D02*
X143825000Y-85735000D01*
%TO.N,/IO0_6*%
X142555000Y-96080000D02*
X142555000Y-85602500D01*
X142555000Y-85602500D02*
X148232500Y-79925000D01*
X148232500Y-78270000D02*
X148232500Y-79925000D01*
%TO.N,/IO0_7*%
X141285000Y-96080000D02*
X141285000Y-85252500D01*
X141285000Y-85252500D02*
X146907500Y-79630000D01*
X145692500Y-75730000D02*
X146907500Y-76945000D01*
X146907500Y-76945000D02*
X146907500Y-79630000D01*
%TO.N,+24V*%
X127977500Y-116230000D02*
X124957500Y-113210000D01*
D18*
X124957500Y-109600000D02*
X127877500Y-109600000D01*
X128232500Y-109245000D02*
X128232500Y-89955000D01*
X138072500Y-80115000D02*
X138072500Y-76080000D01*
D17*
X128977500Y-120230000D02*
X127977500Y-119230000D01*
D18*
X128232500Y-89955000D02*
X138072500Y-80115000D01*
D17*
X124957500Y-113210000D02*
X124957500Y-109600000D01*
D18*
X126852500Y-109635000D02*
X126887500Y-109670000D01*
D17*
X134477500Y-121230000D02*
X133477500Y-120230000D01*
X134477500Y-122230000D02*
X134477500Y-121230000D01*
X127977500Y-119230000D02*
X127977500Y-116230000D01*
D18*
X127877500Y-109600000D02*
X128232500Y-109245000D01*
X124867500Y-109635000D02*
X126852500Y-109635000D01*
D17*
X133477500Y-120230000D02*
X128977500Y-120230000D01*
%TO.N,/IO1_0*%
X138072500Y-109317500D02*
X140015000Y-107375000D01*
X138072500Y-122855000D02*
X138072500Y-109317500D01*
X140015000Y-107375000D02*
X140015000Y-105380000D01*
%TO.N,/IO1_1*%
X140612500Y-125395000D02*
X139357500Y-124140000D01*
X139357500Y-109252500D02*
X141285000Y-107325000D01*
X139357500Y-124140000D02*
X139357500Y-109252500D01*
X141285000Y-107325000D02*
X141285000Y-105380000D01*
%TO.N,/IO1_2*%
X140612500Y-109197500D02*
X142555000Y-107255000D01*
X142555000Y-107255000D02*
X142555000Y-105380000D01*
X140612500Y-122855000D02*
X140612500Y-109197500D01*
%TO.N,/IO1_3*%
X143825000Y-107235000D02*
X143825000Y-105380000D01*
X141887500Y-109172500D02*
X143825000Y-107235000D01*
X143152500Y-125395000D02*
X141887500Y-124130000D01*
X141887500Y-124130000D02*
X141887500Y-109172500D01*
%TO.N,/IO1_4*%
X145095000Y-107225000D02*
X145095000Y-105380000D01*
X143152500Y-109167500D02*
X145095000Y-107225000D01*
X143152500Y-122855000D02*
X143152500Y-109167500D01*
%TO.N,/IO1_5*%
X145692500Y-125395000D02*
X144417500Y-124120000D01*
X144417500Y-124120000D02*
X144417500Y-109242500D01*
X146365000Y-107295000D02*
X146365000Y-105380000D01*
X144417500Y-109242500D02*
X146365000Y-107295000D01*
%TO.N,/IO1_6*%
X145692500Y-122855000D02*
X145692500Y-109277500D01*
X147635000Y-107335000D02*
X147635000Y-105380000D01*
X145692500Y-109277500D02*
X147635000Y-107335000D01*
%TO.N,/IO1_7*%
X148232500Y-125395000D02*
X146977500Y-124140000D01*
X148905000Y-107345000D02*
X148905000Y-105380000D01*
X146977500Y-124140000D02*
X146977500Y-109272500D01*
X146977500Y-109272500D02*
X148905000Y-107345000D01*
%TO.N,/SCL*%
X151445000Y-103365000D02*
X154440000Y-100370000D01*
X154440000Y-98200000D02*
X155705000Y-96935000D01*
X154440000Y-100370000D02*
X154440000Y-98200000D01*
X151445000Y-105380000D02*
X151445000Y-103365000D01*
%TO.N,/SDA*%
X156570000Y-97820000D02*
X156840000Y-97550000D01*
X155320000Y-100450000D02*
X155320000Y-98470000D01*
X152715000Y-103055000D02*
X155320000Y-100450000D01*
X156840000Y-97550000D02*
X156840000Y-95660000D01*
X152715000Y-105380000D02*
X152715000Y-103055000D01*
X155320000Y-98470000D02*
X155970000Y-97820000D01*
X155970000Y-97820000D02*
X156570000Y-97820000D01*
%TO.N,Net-(J5-Pad5)*%
X159100000Y-103350000D02*
X160660000Y-101790000D01*
X154960000Y-107540000D02*
X155460000Y-107040000D01*
X150430000Y-107540000D02*
X154960000Y-107540000D01*
X160660000Y-101790000D02*
X160660000Y-93570000D01*
X156320000Y-103350000D02*
X159100000Y-103350000D01*
X150175000Y-107285000D02*
X150430000Y-107540000D01*
X160660000Y-93570000D02*
X163750000Y-90480000D01*
X150175000Y-105380000D02*
X150175000Y-107285000D01*
X163750000Y-90480000D02*
X163750000Y-88950000D01*
X155460000Y-104210000D02*
X156320000Y-103350000D01*
X155460000Y-107040000D02*
X155460000Y-104210000D01*
X163750000Y-88950000D02*
X163750000Y-87540000D01*
%TO.N,Net-(J5-Pad3)*%
X162285000Y-83385000D02*
X161000000Y-84670000D01*
X159770000Y-87370000D02*
X159200000Y-87940000D01*
X159200000Y-87940000D02*
X159200000Y-88950000D01*
X159200000Y-90170000D02*
X159200000Y-88950000D01*
X160270000Y-87370000D02*
X159770000Y-87370000D01*
X152715000Y-96080000D02*
X152715000Y-91485000D01*
X152715000Y-91485000D02*
X153490000Y-90710000D01*
X161000000Y-84670000D02*
X161000000Y-86640000D01*
X158660000Y-90710000D02*
X159200000Y-90170000D01*
X161000000Y-86640000D02*
X160270000Y-87370000D01*
X153490000Y-90710000D02*
X158660000Y-90710000D01*
%TO.N,Net-(J5-Pad1)*%
X164050000Y-81460000D02*
X164825000Y-82235000D01*
X157570000Y-82160000D02*
X158270000Y-81460000D01*
X164825000Y-82235000D02*
X164825000Y-83385000D01*
X153620000Y-88950000D02*
X154650000Y-88950000D01*
X156990000Y-85950000D02*
X157570000Y-85370000D01*
X157570000Y-85370000D02*
X157570000Y-82160000D01*
X154650000Y-87420000D02*
X156120000Y-85950000D01*
X158270000Y-81460000D02*
X164050000Y-81460000D01*
X151445000Y-91125000D02*
X153620000Y-88950000D01*
X156120000Y-85950000D02*
X156990000Y-85950000D01*
X154650000Y-88950000D02*
X154650000Y-87420000D01*
X151445000Y-96080000D02*
X151445000Y-91125000D01*
%TO.N,Net-(D1-Pad2)*%
X129965000Y-122230000D02*
X132477500Y-122230000D01*
%TD*%
%TA.AperFunction,Conductor*%
%TO.N,GND*%
G36*
X137548615Y-74258502D02*
G01*
X137595108Y-74312158D01*
X137605212Y-74382432D01*
X137575718Y-74447012D01*
X137538675Y-74476262D01*
X137346107Y-74576507D01*
X137341974Y-74579610D01*
X137341971Y-74579612D01*
X137258950Y-74641946D01*
X137167465Y-74710635D01*
X137142041Y-74737240D01*
X137047831Y-74835825D01*
X137013129Y-74872138D01*
X137010220Y-74876403D01*
X137010214Y-74876411D01*
X136925056Y-75001249D01*
X136887243Y-75056680D01*
X136870985Y-75091706D01*
X136799635Y-75245417D01*
X136793188Y-75259305D01*
X136733489Y-75474570D01*
X136709751Y-75696695D01*
X136722610Y-75919715D01*
X136723747Y-75924761D01*
X136723748Y-75924767D01*
X136741180Y-76002115D01*
X136771722Y-76137639D01*
X136785886Y-76172520D01*
X136804743Y-76218961D01*
X136814000Y-76266365D01*
X136814000Y-77726651D01*
X136802287Y-77779702D01*
X136795369Y-77794605D01*
X136795367Y-77794612D01*
X136793188Y-77799305D01*
X136733489Y-78014570D01*
X136709751Y-78236695D01*
X136710048Y-78241848D01*
X136710048Y-78241851D01*
X136715511Y-78336590D01*
X136722610Y-78459715D01*
X136723747Y-78464761D01*
X136723748Y-78464767D01*
X136732128Y-78501951D01*
X136771722Y-78677639D01*
X136778917Y-78695358D01*
X136804743Y-78758961D01*
X136814000Y-78806365D01*
X136814000Y-79541522D01*
X136793998Y-79609643D01*
X136777095Y-79630617D01*
X127407237Y-89000475D01*
X127394847Y-89011342D01*
X127377208Y-89024877D01*
X127322688Y-89084794D01*
X127322342Y-89085174D01*
X127318243Y-89089469D01*
X127302302Y-89105410D01*
X127300507Y-89107557D01*
X127300505Y-89107559D01*
X127285568Y-89125423D01*
X127282100Y-89129398D01*
X127229788Y-89186888D01*
X127229781Y-89186897D01*
X127226015Y-89191036D01*
X127223038Y-89195782D01*
X127223037Y-89195783D01*
X127216487Y-89206225D01*
X127206411Y-89220093D01*
X127198504Y-89229549D01*
X127198497Y-89229559D01*
X127194906Y-89233854D01*
X127186149Y-89249207D01*
X127153618Y-89306240D01*
X127150913Y-89310759D01*
X127106636Y-89381344D01*
X127104543Y-89386549D01*
X127104542Y-89386552D01*
X127099948Y-89397979D01*
X127092488Y-89413411D01*
X127086380Y-89424119D01*
X127086376Y-89424128D01*
X127083601Y-89428993D01*
X127081732Y-89434270D01*
X127081730Y-89434275D01*
X127055785Y-89507542D01*
X127053920Y-89512478D01*
X127022844Y-89589783D01*
X127021708Y-89595270D01*
X127021707Y-89595272D01*
X127019206Y-89607349D01*
X127014601Y-89623844D01*
X127008611Y-89640759D01*
X127007704Y-89646298D01*
X126995143Y-89723001D01*
X126994183Y-89728180D01*
X126977287Y-89809767D01*
X126977021Y-89814379D01*
X126977021Y-89814380D01*
X126975685Y-89837548D01*
X126974238Y-89850653D01*
X126973214Y-89856910D01*
X126972306Y-89862457D01*
X126972394Y-89868070D01*
X126972394Y-89868072D01*
X126973984Y-89969264D01*
X126974000Y-89971243D01*
X126974000Y-108215500D01*
X126953998Y-108283621D01*
X126900342Y-108330114D01*
X126848000Y-108341500D01*
X125893197Y-108341500D01*
X125825076Y-108321498D01*
X125778583Y-108267842D01*
X125768479Y-108197568D01*
X125797973Y-108132988D01*
X125820028Y-108112922D01*
X125832825Y-108103794D01*
X125840700Y-108097139D01*
X125991552Y-107946812D01*
X125998230Y-107938965D01*
X126122503Y-107766020D01*
X126127813Y-107757183D01*
X126222170Y-107566267D01*
X126225969Y-107556672D01*
X126287877Y-107352910D01*
X126290055Y-107342837D01*
X126291486Y-107331962D01*
X126289275Y-107317778D01*
X126276117Y-107314000D01*
X124829500Y-107314000D01*
X124761379Y-107293998D01*
X124714886Y-107240342D01*
X124703500Y-107188000D01*
X124703500Y-106932000D01*
X124723502Y-106863879D01*
X124777158Y-106817386D01*
X124829500Y-106806000D01*
X126275844Y-106806000D01*
X126289375Y-106802027D01*
X126290680Y-106792947D01*
X126248714Y-106625875D01*
X126245394Y-106616124D01*
X126160472Y-106420814D01*
X126155605Y-106411739D01*
X126039926Y-106232926D01*
X126033636Y-106224757D01*
X125890306Y-106067240D01*
X125882773Y-106060215D01*
X125715639Y-105928222D01*
X125707056Y-105922520D01*
X125670102Y-105902120D01*
X125620131Y-105851687D01*
X125605359Y-105782245D01*
X125630475Y-105715839D01*
X125657827Y-105689232D01*
X125708784Y-105652885D01*
X125837360Y-105561173D01*
X125995596Y-105403489D01*
X126055094Y-105320689D01*
X126122935Y-105226277D01*
X126125953Y-105222077D01*
X126130625Y-105212625D01*
X126222636Y-105026453D01*
X126222637Y-105026451D01*
X126224930Y-105021811D01*
X126289870Y-104808069D01*
X126319029Y-104586590D01*
X126319557Y-104565000D01*
X126320574Y-104523365D01*
X126320574Y-104523361D01*
X126320656Y-104520000D01*
X126302352Y-104297361D01*
X126247931Y-104080702D01*
X126158854Y-103875840D01*
X126088863Y-103767651D01*
X126040322Y-103692617D01*
X126040320Y-103692614D01*
X126037514Y-103688277D01*
X125887170Y-103523051D01*
X125883119Y-103519852D01*
X125883115Y-103519848D01*
X125715914Y-103387800D01*
X125715910Y-103387798D01*
X125711859Y-103384598D01*
X125670553Y-103361796D01*
X125620584Y-103311364D01*
X125605812Y-103241921D01*
X125630928Y-103175516D01*
X125658280Y-103148909D01*
X125720423Y-103104583D01*
X125837360Y-103021173D01*
X125874764Y-102983900D01*
X125980254Y-102878777D01*
X125995596Y-102863489D01*
X126055094Y-102780689D01*
X126122935Y-102686277D01*
X126125953Y-102682077D01*
X126130625Y-102672625D01*
X126222636Y-102486453D01*
X126222637Y-102486451D01*
X126224930Y-102481811D01*
X126284523Y-102285668D01*
X126288365Y-102273023D01*
X126288365Y-102273021D01*
X126289870Y-102268069D01*
X126319029Y-102046590D01*
X126319111Y-102043240D01*
X126320574Y-101983365D01*
X126320574Y-101983361D01*
X126320656Y-101980000D01*
X126302352Y-101757361D01*
X126247931Y-101540702D01*
X126158854Y-101335840D01*
X126071944Y-101201498D01*
X126040322Y-101152617D01*
X126040320Y-101152614D01*
X126037514Y-101148277D01*
X125887170Y-100983051D01*
X125883119Y-100979852D01*
X125883115Y-100979848D01*
X125715914Y-100847800D01*
X125715910Y-100847798D01*
X125711859Y-100844598D01*
X125670553Y-100821796D01*
X125620584Y-100771364D01*
X125605812Y-100701921D01*
X125630928Y-100635516D01*
X125658280Y-100608909D01*
X125720423Y-100564583D01*
X125837360Y-100481173D01*
X125995596Y-100323489D01*
X126055094Y-100240689D01*
X126122935Y-100146277D01*
X126125953Y-100142077D01*
X126130625Y-100132625D01*
X126222636Y-99946453D01*
X126222637Y-99946451D01*
X126224930Y-99941811D01*
X126289870Y-99728069D01*
X126319029Y-99506590D01*
X126319557Y-99485000D01*
X126320574Y-99443365D01*
X126320574Y-99443361D01*
X126320656Y-99440000D01*
X126302352Y-99217361D01*
X126247931Y-99000702D01*
X126158854Y-98795840D01*
X126098545Y-98702616D01*
X126040322Y-98612617D01*
X126040320Y-98612614D01*
X126037514Y-98608277D01*
X125887170Y-98443051D01*
X125883119Y-98439852D01*
X125883115Y-98439848D01*
X125715914Y-98307800D01*
X125715910Y-98307798D01*
X125711859Y-98304598D01*
X125670553Y-98281796D01*
X125620584Y-98231364D01*
X125605812Y-98161921D01*
X125630928Y-98095516D01*
X125658280Y-98068909D01*
X125724247Y-98021855D01*
X125837360Y-97941173D01*
X125852388Y-97926198D01*
X125936445Y-97842434D01*
X125995596Y-97783489D01*
X126035365Y-97728145D01*
X126122935Y-97606277D01*
X126125953Y-97602077D01*
X126130625Y-97592625D01*
X126222636Y-97406453D01*
X126222637Y-97406451D01*
X126224930Y-97401811D01*
X126289870Y-97188069D01*
X126319029Y-96966590D01*
X126319557Y-96945000D01*
X126320574Y-96903365D01*
X126320574Y-96903361D01*
X126320656Y-96900000D01*
X126302352Y-96677361D01*
X126247931Y-96460702D01*
X126158854Y-96255840D01*
X126084688Y-96141197D01*
X126040322Y-96072617D01*
X126040320Y-96072614D01*
X126037514Y-96068277D01*
X125887170Y-95903051D01*
X125883119Y-95899852D01*
X125883115Y-95899848D01*
X125715914Y-95767800D01*
X125715910Y-95767798D01*
X125711859Y-95764598D01*
X125670553Y-95741796D01*
X125620584Y-95691364D01*
X125605812Y-95621921D01*
X125630928Y-95555516D01*
X125658280Y-95528909D01*
X125720423Y-95484583D01*
X125837360Y-95401173D01*
X125995596Y-95243489D01*
X126055094Y-95160689D01*
X126122935Y-95066277D01*
X126125953Y-95062077D01*
X126130625Y-95052625D01*
X126222636Y-94866453D01*
X126222637Y-94866451D01*
X126224930Y-94861811D01*
X126278298Y-94686156D01*
X126288365Y-94653023D01*
X126288365Y-94653021D01*
X126289870Y-94648069D01*
X126319029Y-94426590D01*
X126319557Y-94405000D01*
X126320574Y-94363365D01*
X126320574Y-94363361D01*
X126320656Y-94360000D01*
X126302352Y-94137361D01*
X126247931Y-93920702D01*
X126158854Y-93715840D01*
X126083833Y-93599875D01*
X126040322Y-93532617D01*
X126040320Y-93532614D01*
X126037514Y-93528277D01*
X125887170Y-93363051D01*
X125883119Y-93359852D01*
X125883115Y-93359848D01*
X125715914Y-93227800D01*
X125715910Y-93227798D01*
X125711859Y-93224598D01*
X125670069Y-93201529D01*
X125620098Y-93151097D01*
X125605326Y-93081654D01*
X125630442Y-93015248D01*
X125657794Y-92988641D01*
X125832828Y-92863792D01*
X125840700Y-92857139D01*
X125991552Y-92706812D01*
X125998230Y-92698965D01*
X126122503Y-92526020D01*
X126127813Y-92517183D01*
X126222170Y-92326267D01*
X126225969Y-92316672D01*
X126287877Y-92112910D01*
X126290055Y-92102837D01*
X126291486Y-92091962D01*
X126289275Y-92077778D01*
X126276117Y-92074000D01*
X124829500Y-92074000D01*
X124761379Y-92053998D01*
X124714886Y-92000342D01*
X124703500Y-91948000D01*
X124703500Y-91547885D01*
X125211500Y-91547885D01*
X125215975Y-91563124D01*
X125217365Y-91564329D01*
X125225048Y-91566000D01*
X126275844Y-91566000D01*
X126289375Y-91562027D01*
X126290680Y-91552947D01*
X126248714Y-91385875D01*
X126245394Y-91376124D01*
X126160472Y-91180814D01*
X126155605Y-91171739D01*
X126039926Y-90992926D01*
X126033636Y-90984757D01*
X125890306Y-90827240D01*
X125882773Y-90820215D01*
X125715639Y-90688222D01*
X125707052Y-90682517D01*
X125520617Y-90579599D01*
X125511205Y-90575369D01*
X125310459Y-90504280D01*
X125300488Y-90501646D01*
X125229337Y-90488972D01*
X125216040Y-90490432D01*
X125211500Y-90504989D01*
X125211500Y-91547885D01*
X124703500Y-91547885D01*
X124703500Y-90503102D01*
X124699582Y-90489758D01*
X124685306Y-90487771D01*
X124646824Y-90493660D01*
X124636788Y-90496051D01*
X124434368Y-90562212D01*
X124424859Y-90566209D01*
X124235963Y-90664542D01*
X124227238Y-90670036D01*
X124056933Y-90797905D01*
X124049226Y-90804748D01*
X123971978Y-90885584D01*
X123910454Y-90921014D01*
X123839542Y-90917557D01*
X123781755Y-90876311D01*
X123762902Y-90842763D01*
X123721267Y-90731703D01*
X123718115Y-90723295D01*
X123630761Y-90606739D01*
X123514205Y-90519385D01*
X123377816Y-90468255D01*
X123315634Y-90461500D01*
X121519366Y-90461500D01*
X121457184Y-90468255D01*
X121320795Y-90519385D01*
X121204239Y-90606739D01*
X121116885Y-90723295D01*
X121065755Y-90859684D01*
X121059000Y-90921866D01*
X121059000Y-92718134D01*
X121065755Y-92780316D01*
X121116885Y-92916705D01*
X121204239Y-93033261D01*
X121320795Y-93120615D01*
X121329204Y-93123767D01*
X121329205Y-93123768D01*
X121437951Y-93164535D01*
X121494716Y-93207176D01*
X121519416Y-93273738D01*
X121504209Y-93343087D01*
X121484816Y-93369568D01*
X121358129Y-93502138D01*
X121355220Y-93506403D01*
X121355214Y-93506411D01*
X121342909Y-93524450D01*
X121232243Y-93686680D01*
X121199234Y-93757792D01*
X121140375Y-93884594D01*
X121138188Y-93889305D01*
X121078489Y-94104570D01*
X121054751Y-94326695D01*
X121055048Y-94331848D01*
X121055048Y-94331851D01*
X121060511Y-94426590D01*
X121067610Y-94549715D01*
X121068747Y-94554761D01*
X121068748Y-94554767D01*
X121083894Y-94621971D01*
X121116722Y-94767639D01*
X121200766Y-94974616D01*
X121248570Y-95052625D01*
X121314791Y-95160688D01*
X121317487Y-95165088D01*
X121463750Y-95333938D01*
X121540346Y-95397529D01*
X121620163Y-95463794D01*
X121635626Y-95476632D01*
X121649233Y-95484583D01*
X121708945Y-95519476D01*
X121757669Y-95571114D01*
X121770740Y-95640897D01*
X121744009Y-95706669D01*
X121703555Y-95740027D01*
X121691107Y-95746507D01*
X121686974Y-95749610D01*
X121686971Y-95749612D01*
X121545001Y-95856206D01*
X121512465Y-95880635D01*
X121508893Y-95884373D01*
X121371102Y-96028563D01*
X121358129Y-96042138D01*
X121355220Y-96046403D01*
X121355214Y-96046411D01*
X121270056Y-96171249D01*
X121232243Y-96226680D01*
X121199234Y-96297792D01*
X121169187Y-96362524D01*
X121138188Y-96429305D01*
X121078489Y-96644570D01*
X121054751Y-96866695D01*
X121055048Y-96871848D01*
X121055048Y-96871851D01*
X121060511Y-96966590D01*
X121067610Y-97089715D01*
X121068747Y-97094761D01*
X121068748Y-97094767D01*
X121088619Y-97182939D01*
X121116722Y-97307639D01*
X121175007Y-97451179D01*
X121188128Y-97483491D01*
X121200766Y-97514616D01*
X121239538Y-97577886D01*
X121314791Y-97700688D01*
X121317487Y-97705088D01*
X121463750Y-97873938D01*
X121635626Y-98016632D01*
X121688295Y-98047409D01*
X121708945Y-98059476D01*
X121757669Y-98111114D01*
X121770740Y-98180897D01*
X121744009Y-98246669D01*
X121703555Y-98280027D01*
X121691107Y-98286507D01*
X121686974Y-98289610D01*
X121686971Y-98289612D01*
X121552389Y-98390659D01*
X121512465Y-98420635D01*
X121358129Y-98582138D01*
X121232243Y-98766680D01*
X121138188Y-98969305D01*
X121078489Y-99184570D01*
X121054751Y-99406695D01*
X121055048Y-99411848D01*
X121055048Y-99411851D01*
X121061630Y-99526000D01*
X121067610Y-99629715D01*
X121068747Y-99634761D01*
X121068748Y-99634767D01*
X121088619Y-99722939D01*
X121116722Y-99847639D01*
X121175118Y-99991453D01*
X121193563Y-100036876D01*
X121200766Y-100054616D01*
X121242995Y-100123527D01*
X121314791Y-100240688D01*
X121317487Y-100245088D01*
X121463750Y-100413938D01*
X121635626Y-100556632D01*
X121649233Y-100564583D01*
X121708945Y-100599476D01*
X121757669Y-100651114D01*
X121770740Y-100720897D01*
X121744009Y-100786669D01*
X121703555Y-100820027D01*
X121691107Y-100826507D01*
X121686974Y-100829610D01*
X121686971Y-100829612D01*
X121531066Y-100946669D01*
X121512465Y-100960635D01*
X121358129Y-101122138D01*
X121355220Y-101126403D01*
X121355214Y-101126411D01*
X121309601Y-101193277D01*
X121232243Y-101306680D01*
X121199234Y-101377792D01*
X121158735Y-101465041D01*
X121138188Y-101509305D01*
X121078489Y-101724570D01*
X121054751Y-101946695D01*
X121055048Y-101951848D01*
X121055048Y-101951851D01*
X121064819Y-102121306D01*
X121067610Y-102169715D01*
X121068747Y-102174761D01*
X121068748Y-102174767D01*
X121074860Y-102201886D01*
X121116722Y-102387639D01*
X121200766Y-102594616D01*
X121241213Y-102660620D01*
X121314791Y-102780688D01*
X121317487Y-102785088D01*
X121463750Y-102953938D01*
X121635626Y-103096632D01*
X121649233Y-103104583D01*
X121708945Y-103139476D01*
X121757669Y-103191114D01*
X121770740Y-103260897D01*
X121744009Y-103326669D01*
X121703555Y-103360027D01*
X121691107Y-103366507D01*
X121686974Y-103369610D01*
X121686971Y-103369612D01*
X121531066Y-103486669D01*
X121512465Y-103500635D01*
X121358129Y-103662138D01*
X121355220Y-103666403D01*
X121355214Y-103666411D01*
X121316082Y-103723777D01*
X121232243Y-103846680D01*
X121199599Y-103917006D01*
X121168734Y-103983500D01*
X121138188Y-104049305D01*
X121078489Y-104264570D01*
X121054751Y-104486695D01*
X121055048Y-104491848D01*
X121055048Y-104491851D01*
X121060511Y-104586590D01*
X121067610Y-104709715D01*
X121068747Y-104714761D01*
X121068748Y-104714767D01*
X121088619Y-104802939D01*
X121116722Y-104927639D01*
X121200766Y-105134616D01*
X121248570Y-105212625D01*
X121314791Y-105320688D01*
X121317487Y-105325088D01*
X121463750Y-105493938D01*
X121635626Y-105636632D01*
X121663440Y-105652885D01*
X121708945Y-105679476D01*
X121757669Y-105731114D01*
X121770740Y-105800897D01*
X121744009Y-105866669D01*
X121703555Y-105900027D01*
X121691107Y-105906507D01*
X121686974Y-105909610D01*
X121686971Y-105909612D01*
X121516600Y-106037530D01*
X121512465Y-106040635D01*
X121358129Y-106202138D01*
X121232243Y-106386680D01*
X121202816Y-106450076D01*
X121149636Y-106564643D01*
X121138188Y-106589305D01*
X121078489Y-106804570D01*
X121054751Y-107026695D01*
X121055048Y-107031848D01*
X121055048Y-107031851D01*
X121060511Y-107126590D01*
X121067610Y-107249715D01*
X121068747Y-107254761D01*
X121068748Y-107254767D01*
X121077806Y-107294958D01*
X121116722Y-107467639D01*
X121200766Y-107674616D01*
X121232315Y-107726100D01*
X121300275Y-107837000D01*
X121317487Y-107865088D01*
X121463750Y-108033938D01*
X121635626Y-108176632D01*
X121671454Y-108197568D01*
X121708945Y-108219476D01*
X121757669Y-108271114D01*
X121770740Y-108340897D01*
X121744009Y-108406669D01*
X121703555Y-108440027D01*
X121691107Y-108446507D01*
X121686974Y-108449610D01*
X121686971Y-108449612D01*
X121592677Y-108520410D01*
X121512465Y-108580635D01*
X121508893Y-108584373D01*
X121373773Y-108725768D01*
X121358129Y-108742138D01*
X121355220Y-108746403D01*
X121355214Y-108746411D01*
X121291973Y-108839119D01*
X121232243Y-108926680D01*
X121199234Y-108997792D01*
X121142152Y-109120766D01*
X121138188Y-109129305D01*
X121078489Y-109344570D01*
X121054751Y-109566695D01*
X121055048Y-109571848D01*
X121055048Y-109571851D01*
X121059266Y-109645000D01*
X121067610Y-109789715D01*
X121068747Y-109794761D01*
X121068748Y-109794767D01*
X121086910Y-109875356D01*
X121116722Y-110007639D01*
X121200766Y-110214616D01*
X121248570Y-110292625D01*
X121314791Y-110400688D01*
X121317487Y-110405088D01*
X121463750Y-110573938D01*
X121540263Y-110637460D01*
X121614438Y-110699041D01*
X121635626Y-110716632D01*
X121828500Y-110829338D01*
X121833325Y-110831180D01*
X121833326Y-110831181D01*
X121898179Y-110855946D01*
X122037192Y-110909030D01*
X122042260Y-110910061D01*
X122042263Y-110910062D01*
X122136753Y-110929286D01*
X122256097Y-110953567D01*
X122261272Y-110953757D01*
X122261274Y-110953757D01*
X122474173Y-110961564D01*
X122474177Y-110961564D01*
X122479337Y-110961753D01*
X122484457Y-110961097D01*
X122484459Y-110961097D01*
X122695788Y-110934025D01*
X122695789Y-110934025D01*
X122700916Y-110933368D01*
X122726858Y-110925585D01*
X122909929Y-110870661D01*
X122909934Y-110870659D01*
X122914884Y-110869174D01*
X123115494Y-110770896D01*
X123297360Y-110641173D01*
X123455596Y-110483489D01*
X123515094Y-110400689D01*
X123585953Y-110302077D01*
X123587276Y-110303028D01*
X123634145Y-110259857D01*
X123704080Y-110247625D01*
X123769526Y-110275144D01*
X123797375Y-110306994D01*
X123857487Y-110405088D01*
X124003750Y-110573938D01*
X124080263Y-110637460D01*
X124154438Y-110699041D01*
X124175626Y-110716632D01*
X124261570Y-110766853D01*
X124310294Y-110818491D01*
X124324000Y-110875641D01*
X124324000Y-113131233D01*
X124323473Y-113142416D01*
X124321798Y-113149909D01*
X124322047Y-113157835D01*
X124322047Y-113157836D01*
X124323938Y-113217986D01*
X124324000Y-113221945D01*
X124324000Y-113249856D01*
X124324497Y-113253790D01*
X124324497Y-113253791D01*
X124324505Y-113253856D01*
X124325438Y-113265693D01*
X124326827Y-113309889D01*
X124332478Y-113329339D01*
X124336487Y-113348700D01*
X124339026Y-113368797D01*
X124341945Y-113376168D01*
X124341945Y-113376170D01*
X124355304Y-113409912D01*
X124359149Y-113421142D01*
X124371482Y-113463593D01*
X124375515Y-113470412D01*
X124375517Y-113470417D01*
X124381793Y-113481028D01*
X124390488Y-113498776D01*
X124397948Y-113517617D01*
X124402610Y-113524033D01*
X124402610Y-113524034D01*
X124423936Y-113553387D01*
X124430452Y-113563307D01*
X124452958Y-113601362D01*
X124467279Y-113615683D01*
X124480119Y-113630716D01*
X124492028Y-113647107D01*
X124498134Y-113652158D01*
X124526105Y-113675298D01*
X124534884Y-113683288D01*
X127307095Y-116455500D01*
X127341121Y-116517812D01*
X127344000Y-116544595D01*
X127344000Y-119151233D01*
X127343473Y-119162416D01*
X127341798Y-119169909D01*
X127342047Y-119177835D01*
X127342047Y-119177836D01*
X127343938Y-119237986D01*
X127344000Y-119241945D01*
X127344000Y-119269856D01*
X127344497Y-119273790D01*
X127344497Y-119273791D01*
X127344505Y-119273856D01*
X127345438Y-119285693D01*
X127346827Y-119329889D01*
X127352478Y-119349339D01*
X127356487Y-119368700D01*
X127359026Y-119388797D01*
X127361945Y-119396168D01*
X127361945Y-119396170D01*
X127375304Y-119429912D01*
X127379149Y-119441142D01*
X127391482Y-119483593D01*
X127395515Y-119490412D01*
X127395517Y-119490417D01*
X127401793Y-119501028D01*
X127410488Y-119518776D01*
X127417948Y-119537617D01*
X127422610Y-119544033D01*
X127422610Y-119544034D01*
X127443936Y-119573387D01*
X127450452Y-119583307D01*
X127466180Y-119609901D01*
X127472958Y-119621362D01*
X127487279Y-119635683D01*
X127500119Y-119650716D01*
X127512028Y-119667107D01*
X127543087Y-119692801D01*
X127546105Y-119695298D01*
X127554884Y-119703288D01*
X128473843Y-120622247D01*
X128481387Y-120630537D01*
X128485500Y-120637018D01*
X128491277Y-120642443D01*
X128535167Y-120683658D01*
X128538009Y-120686413D01*
X128557731Y-120706135D01*
X128560855Y-120708558D01*
X128560859Y-120708562D01*
X128560924Y-120708612D01*
X128569945Y-120716317D01*
X128602179Y-120746586D01*
X128609127Y-120750405D01*
X128609129Y-120750407D01*
X128619932Y-120756346D01*
X128636459Y-120767202D01*
X128646198Y-120774757D01*
X128646200Y-120774758D01*
X128652460Y-120779614D01*
X128693040Y-120797174D01*
X128703688Y-120802391D01*
X128716225Y-120809283D01*
X128742440Y-120823695D01*
X128750116Y-120825666D01*
X128750119Y-120825667D01*
X128762062Y-120828733D01*
X128780766Y-120835137D01*
X128788857Y-120838638D01*
X128799355Y-120843181D01*
X128807178Y-120844420D01*
X128807188Y-120844423D01*
X128843024Y-120850099D01*
X128854644Y-120852505D01*
X128897469Y-120863500D01*
X128896901Y-120865713D01*
X128951370Y-120889464D01*
X128990775Y-120948521D01*
X128991997Y-121019507D01*
X128959681Y-121075111D01*
X128908370Y-121126512D01*
X128908366Y-121126517D01*
X128903195Y-121131697D01*
X128899355Y-121137927D01*
X128899354Y-121137928D01*
X128869805Y-121185866D01*
X128810385Y-121282262D01*
X128802627Y-121305652D01*
X128757271Y-121442398D01*
X128754703Y-121450139D01*
X128754003Y-121456975D01*
X128754002Y-121456978D01*
X128749810Y-121497894D01*
X128744000Y-121554600D01*
X128744000Y-122905400D01*
X128744337Y-122908646D01*
X128744337Y-122908650D01*
X128754252Y-123004203D01*
X128754974Y-123011165D01*
X128757155Y-123017701D01*
X128757155Y-123017703D01*
X128780941Y-123088998D01*
X128810950Y-123178945D01*
X128904022Y-123329348D01*
X129029197Y-123454305D01*
X129035427Y-123458145D01*
X129035428Y-123458146D01*
X129172590Y-123542694D01*
X129179762Y-123547115D01*
X129223165Y-123561511D01*
X129341111Y-123600632D01*
X129341113Y-123600632D01*
X129347639Y-123602797D01*
X129354475Y-123603497D01*
X129354478Y-123603498D01*
X129397531Y-123607909D01*
X129452100Y-123613500D01*
X130477900Y-123613500D01*
X130481146Y-123613163D01*
X130481150Y-123613163D01*
X130576807Y-123603238D01*
X130576811Y-123603237D01*
X130583665Y-123602526D01*
X130590201Y-123600345D01*
X130590203Y-123600345D01*
X130733797Y-123552438D01*
X130751445Y-123546550D01*
X130901848Y-123453478D01*
X130926785Y-123428498D01*
X131021634Y-123333483D01*
X131026805Y-123328303D01*
X131057518Y-123278478D01*
X131115775Y-123183968D01*
X131115776Y-123183966D01*
X131119615Y-123177738D01*
X131165451Y-123039547D01*
X131173132Y-123016389D01*
X131173132Y-123016387D01*
X131175297Y-123009861D01*
X131177350Y-122989821D01*
X131204189Y-122924094D01*
X131262303Y-122883311D01*
X131333241Y-122880421D01*
X131394480Y-122916341D01*
X131422217Y-122962784D01*
X131435950Y-123003946D01*
X131439801Y-123010170D01*
X131439802Y-123010171D01*
X131488577Y-123088990D01*
X131529022Y-123154348D01*
X131654197Y-123279305D01*
X131660427Y-123283145D01*
X131660428Y-123283146D01*
X131797590Y-123367694D01*
X131804762Y-123372115D01*
X131884505Y-123398564D01*
X131966111Y-123425632D01*
X131966113Y-123425632D01*
X131972639Y-123427797D01*
X131979475Y-123428497D01*
X131979478Y-123428498D01*
X132022531Y-123432909D01*
X132077100Y-123438500D01*
X132877900Y-123438500D01*
X132881146Y-123438163D01*
X132881150Y-123438163D01*
X132976808Y-123428238D01*
X132976812Y-123428237D01*
X132983666Y-123427526D01*
X132990202Y-123425345D01*
X132990204Y-123425345D01*
X133122306Y-123381272D01*
X133151446Y-123371550D01*
X133301848Y-123278478D01*
X133388284Y-123191891D01*
X133450566Y-123157812D01*
X133521386Y-123162815D01*
X133566475Y-123191736D01*
X133626043Y-123251200D01*
X133654197Y-123279305D01*
X133660427Y-123283145D01*
X133660428Y-123283146D01*
X133797590Y-123367694D01*
X133804762Y-123372115D01*
X133884505Y-123398564D01*
X133966111Y-123425632D01*
X133966113Y-123425632D01*
X133972639Y-123427797D01*
X133979475Y-123428497D01*
X133979478Y-123428498D01*
X134022531Y-123432909D01*
X134077100Y-123438500D01*
X134877900Y-123438500D01*
X134881146Y-123438163D01*
X134881150Y-123438163D01*
X134976808Y-123428238D01*
X134976812Y-123428237D01*
X134983666Y-123427526D01*
X134990202Y-123425345D01*
X134990204Y-123425345D01*
X135122306Y-123381272D01*
X135151446Y-123371550D01*
X135301848Y-123278478D01*
X135329079Y-123251200D01*
X135388439Y-123191736D01*
X135426805Y-123153303D01*
X135454114Y-123109000D01*
X135515775Y-123008968D01*
X135515776Y-123008966D01*
X135519615Y-123002738D01*
X135575297Y-122834861D01*
X135586000Y-122730400D01*
X135586000Y-121729600D01*
X135585338Y-121723222D01*
X135575738Y-121630692D01*
X135575737Y-121630688D01*
X135575026Y-121623834D01*
X135558863Y-121575386D01*
X135521368Y-121463002D01*
X135519050Y-121456054D01*
X135425978Y-121305652D01*
X135300803Y-121180695D01*
X135294572Y-121176854D01*
X135156472Y-121091727D01*
X135156467Y-121091725D01*
X135150238Y-121087885D01*
X135143287Y-121085580D01*
X135139509Y-121083818D01*
X135086223Y-121036901D01*
X135071760Y-121004773D01*
X135065731Y-120984020D01*
X135065730Y-120984018D01*
X135063519Y-120976407D01*
X135053205Y-120958966D01*
X135044508Y-120941213D01*
X135039972Y-120929758D01*
X135037052Y-120922383D01*
X135013135Y-120889464D01*
X135011063Y-120886612D01*
X135004547Y-120876692D01*
X134998054Y-120865713D01*
X134982042Y-120838638D01*
X134967721Y-120824317D01*
X134954880Y-120809283D01*
X134942972Y-120792893D01*
X134936868Y-120787843D01*
X134936863Y-120787838D01*
X134908902Y-120764707D01*
X134900121Y-120756717D01*
X133981147Y-119837742D01*
X133973613Y-119829463D01*
X133969500Y-119822982D01*
X133919848Y-119776356D01*
X133917007Y-119773602D01*
X133897270Y-119753865D01*
X133894073Y-119751385D01*
X133885051Y-119743680D01*
X133858600Y-119718841D01*
X133852821Y-119713414D01*
X133845875Y-119709595D01*
X133845872Y-119709593D01*
X133835066Y-119703652D01*
X133818547Y-119692801D01*
X133818083Y-119692441D01*
X133802541Y-119680386D01*
X133795272Y-119677241D01*
X133795268Y-119677238D01*
X133761963Y-119662826D01*
X133751313Y-119657609D01*
X133712560Y-119636305D01*
X133692937Y-119631267D01*
X133674234Y-119624863D01*
X133662920Y-119619967D01*
X133662919Y-119619967D01*
X133655645Y-119616819D01*
X133647822Y-119615580D01*
X133647812Y-119615577D01*
X133611976Y-119609901D01*
X133600356Y-119607495D01*
X133565211Y-119598472D01*
X133565210Y-119598472D01*
X133557530Y-119596500D01*
X133537276Y-119596500D01*
X133517565Y-119594949D01*
X133505386Y-119593020D01*
X133497557Y-119591780D01*
X133455507Y-119595755D01*
X133453539Y-119595941D01*
X133441681Y-119596500D01*
X129292095Y-119596500D01*
X129223974Y-119576498D01*
X129202999Y-119559595D01*
X128647904Y-119004499D01*
X128613879Y-118942187D01*
X128611000Y-118915404D01*
X128611000Y-116308767D01*
X128611527Y-116297584D01*
X128613202Y-116290091D01*
X128611062Y-116222000D01*
X128611000Y-116218043D01*
X128611000Y-116190144D01*
X128610496Y-116186153D01*
X128609563Y-116174311D01*
X128608423Y-116138036D01*
X128608174Y-116130111D01*
X128605962Y-116122497D01*
X128605961Y-116122492D01*
X128602523Y-116110659D01*
X128598512Y-116091295D01*
X128596967Y-116079064D01*
X128595974Y-116071203D01*
X128593057Y-116063836D01*
X128593056Y-116063831D01*
X128579698Y-116030092D01*
X128575854Y-116018865D01*
X128565730Y-115984022D01*
X128563518Y-115976407D01*
X128553207Y-115958972D01*
X128544512Y-115941224D01*
X128537052Y-115922383D01*
X128511064Y-115886613D01*
X128504548Y-115876693D01*
X128486080Y-115845465D01*
X128486078Y-115845462D01*
X128482042Y-115838638D01*
X128467721Y-115824317D01*
X128454880Y-115809283D01*
X128447631Y-115799306D01*
X128442972Y-115792893D01*
X128408895Y-115764702D01*
X128400116Y-115756712D01*
X125627905Y-112984500D01*
X125593879Y-112922188D01*
X125591000Y-112895405D01*
X125591000Y-111019500D01*
X125611002Y-110951379D01*
X125664658Y-110904886D01*
X125717000Y-110893500D01*
X126560640Y-110893500D01*
X126581002Y-110895156D01*
X126706217Y-110915661D01*
X126794957Y-110930193D01*
X126800571Y-110930105D01*
X126800573Y-110930105D01*
X126921028Y-110928213D01*
X127019581Y-110926665D01*
X127240029Y-110883415D01*
X127281858Y-110867107D01*
X127327626Y-110858500D01*
X127786104Y-110858500D01*
X127802551Y-110859578D01*
X127819016Y-110861746D01*
X127819020Y-110861746D01*
X127824586Y-110862479D01*
X127905989Y-110858640D01*
X127911924Y-110858500D01*
X127934499Y-110858500D01*
X127960489Y-110856181D01*
X127965748Y-110855822D01*
X128048988Y-110851896D01*
X128054447Y-110850646D01*
X128054452Y-110850645D01*
X128066470Y-110847892D01*
X128083399Y-110845211D01*
X128101262Y-110843617D01*
X128106678Y-110842135D01*
X128106680Y-110842135D01*
X128181633Y-110821630D01*
X128186751Y-110820344D01*
X128262500Y-110802995D01*
X128262502Y-110802994D01*
X128267970Y-110801742D01*
X128278470Y-110797263D01*
X128284467Y-110794706D01*
X128300642Y-110789073D01*
X128312539Y-110785818D01*
X128312543Y-110785817D01*
X128317951Y-110784337D01*
X128393167Y-110748461D01*
X128397976Y-110746290D01*
X128469449Y-110715804D01*
X128469450Y-110715804D01*
X128474609Y-110713603D01*
X128489610Y-110703749D01*
X128504525Y-110695346D01*
X128520718Y-110687622D01*
X128525269Y-110684352D01*
X128525272Y-110684350D01*
X128558496Y-110660476D01*
X128588392Y-110638994D01*
X128592732Y-110636011D01*
X128658510Y-110592804D01*
X128658518Y-110592798D01*
X128662374Y-110590265D01*
X128683162Y-110571743D01*
X128693439Y-110563510D01*
X128703154Y-110556529D01*
X128777563Y-110479745D01*
X128778952Y-110478335D01*
X129057759Y-110199528D01*
X129070151Y-110188660D01*
X129083343Y-110178538D01*
X129083351Y-110178531D01*
X129087792Y-110175123D01*
X129142668Y-110114815D01*
X129146767Y-110110520D01*
X129162698Y-110094589D01*
X129179434Y-110074573D01*
X129182879Y-110070624D01*
X129235203Y-110013121D01*
X129235206Y-110013117D01*
X129238985Y-110008964D01*
X129248513Y-109993775D01*
X129258591Y-109979903D01*
X129266492Y-109970455D01*
X129266497Y-109970448D01*
X129270094Y-109966146D01*
X129311387Y-109893752D01*
X129314092Y-109889232D01*
X129322797Y-109875356D01*
X129345121Y-109839767D01*
X129355386Y-109823404D01*
X129355388Y-109823401D01*
X129358364Y-109818656D01*
X129365052Y-109802021D01*
X129372512Y-109786589D01*
X129378620Y-109775881D01*
X129378624Y-109775872D01*
X129381399Y-109771007D01*
X129383268Y-109765730D01*
X129383270Y-109765725D01*
X129409215Y-109692458D01*
X129411080Y-109687522D01*
X129440066Y-109615416D01*
X129442156Y-109610217D01*
X129445794Y-109592650D01*
X129450399Y-109576156D01*
X129456389Y-109559241D01*
X129457296Y-109553703D01*
X129469855Y-109477009D01*
X129470817Y-109471819D01*
X129486777Y-109394754D01*
X129486778Y-109394750D01*
X129487713Y-109390233D01*
X129487979Y-109385622D01*
X129489315Y-109362452D01*
X129490762Y-109349347D01*
X129491786Y-109343090D01*
X129491786Y-109343083D01*
X129492694Y-109337542D01*
X129491016Y-109230736D01*
X129491000Y-109228757D01*
X129491000Y-97018984D01*
X139207001Y-97018984D01*
X139207195Y-97023920D01*
X139209430Y-97052336D01*
X139211730Y-97064931D01*
X139254107Y-97210790D01*
X139260352Y-97225221D01*
X139336911Y-97354678D01*
X139346551Y-97367104D01*
X139452896Y-97473449D01*
X139465322Y-97483089D01*
X139594779Y-97559648D01*
X139609210Y-97565893D01*
X139743605Y-97604939D01*
X139757706Y-97604899D01*
X139761000Y-97597630D01*
X139761000Y-96352115D01*
X139756525Y-96336876D01*
X139755135Y-96335671D01*
X139747452Y-96334000D01*
X139225116Y-96334000D01*
X139209877Y-96338475D01*
X139208672Y-96339865D01*
X139207001Y-96347548D01*
X139207001Y-97018984D01*
X129491000Y-97018984D01*
X129491000Y-95807885D01*
X139207000Y-95807885D01*
X139211475Y-95823124D01*
X139212865Y-95824329D01*
X139220548Y-95826000D01*
X139742885Y-95826000D01*
X139758124Y-95821525D01*
X139759329Y-95820135D01*
X139761000Y-95812452D01*
X139761000Y-94568122D01*
X139757027Y-94554591D01*
X139749129Y-94553456D01*
X139609210Y-94594107D01*
X139594779Y-94600352D01*
X139465322Y-94676911D01*
X139452896Y-94686551D01*
X139346551Y-94792896D01*
X139336911Y-94805322D01*
X139260352Y-94934779D01*
X139254107Y-94949210D01*
X139211731Y-95095065D01*
X139209430Y-95107667D01*
X139207193Y-95136084D01*
X139207000Y-95141014D01*
X139207000Y-95807885D01*
X129491000Y-95807885D01*
X129491000Y-90528477D01*
X129511002Y-90460356D01*
X129527905Y-90439382D01*
X138897763Y-81069525D01*
X138910154Y-81058657D01*
X138923348Y-81048533D01*
X138927792Y-81045123D01*
X138982658Y-80984826D01*
X138986757Y-80980531D01*
X139002698Y-80964590D01*
X139019442Y-80944564D01*
X139022901Y-80940599D01*
X139023817Y-80939593D01*
X139078985Y-80878964D01*
X139088516Y-80863770D01*
X139098585Y-80849910D01*
X139110093Y-80836147D01*
X139151369Y-80763782D01*
X139154079Y-80759253D01*
X139195385Y-80693405D01*
X139198364Y-80688656D01*
X139205053Y-80672017D01*
X139212512Y-80656587D01*
X139218619Y-80645881D01*
X139218623Y-80645872D01*
X139221398Y-80641007D01*
X139249212Y-80562462D01*
X139251073Y-80557537D01*
X139253060Y-80552596D01*
X139282156Y-80480217D01*
X139285796Y-80462639D01*
X139290402Y-80446146D01*
X139296388Y-80429241D01*
X139309852Y-80347021D01*
X139310814Y-80341833D01*
X139326776Y-80264756D01*
X139327713Y-80260233D01*
X139329316Y-80232437D01*
X139330763Y-80219331D01*
X139331786Y-80213086D01*
X139331787Y-80213079D01*
X139332693Y-80207543D01*
X139331016Y-80100769D01*
X139331000Y-80098791D01*
X139331000Y-79202709D01*
X139351002Y-79134588D01*
X139404658Y-79088095D01*
X139474932Y-79077991D01*
X139539512Y-79107485D01*
X139552237Y-79120212D01*
X139655713Y-79239667D01*
X139663080Y-79246883D01*
X139826934Y-79382916D01*
X139835381Y-79388831D01*
X140019256Y-79496279D01*
X140028542Y-79500729D01*
X140227501Y-79576703D01*
X140237399Y-79579579D01*
X140340750Y-79600606D01*
X140354799Y-79599410D01*
X140358500Y-79589065D01*
X140358500Y-75602000D01*
X140378502Y-75533879D01*
X140432158Y-75487386D01*
X140484500Y-75476000D01*
X140740500Y-75476000D01*
X140808621Y-75496002D01*
X140855114Y-75549658D01*
X140866500Y-75602000D01*
X140866500Y-79588517D01*
X140870564Y-79602359D01*
X140883978Y-79604393D01*
X140890684Y-79603534D01*
X140900762Y-79601392D01*
X141104755Y-79540191D01*
X141114342Y-79536433D01*
X141305595Y-79442739D01*
X141314445Y-79437464D01*
X141487828Y-79313792D01*
X141495700Y-79307139D01*
X141646552Y-79156812D01*
X141653230Y-79148965D01*
X141780522Y-78971819D01*
X141781779Y-78972722D01*
X141828873Y-78929362D01*
X141898811Y-78917145D01*
X141964251Y-78944678D01*
X141992079Y-78976511D01*
X142052487Y-79075088D01*
X142198750Y-79243938D01*
X142370626Y-79386632D01*
X142563500Y-79499338D01*
X142772192Y-79579030D01*
X142777260Y-79580061D01*
X142777263Y-79580062D01*
X142878241Y-79600606D01*
X142991097Y-79623567D01*
X142996272Y-79623757D01*
X142996274Y-79623757D01*
X143209173Y-79631564D01*
X143209177Y-79631564D01*
X143214337Y-79631753D01*
X143219457Y-79631097D01*
X143219459Y-79631097D01*
X143430788Y-79604025D01*
X143430789Y-79604025D01*
X143435916Y-79603368D01*
X143440866Y-79601883D01*
X143644929Y-79540661D01*
X143644934Y-79540659D01*
X143649884Y-79539174D01*
X143850494Y-79440896D01*
X144032360Y-79311173D01*
X144190596Y-79153489D01*
X144320953Y-78972077D01*
X144322140Y-78972930D01*
X144369460Y-78929362D01*
X144439397Y-78917145D01*
X144504838Y-78944678D01*
X144532666Y-78976511D01*
X144590194Y-79070388D01*
X144596277Y-79078699D01*
X144735713Y-79239667D01*
X144743080Y-79246883D01*
X144906934Y-79382916D01*
X144915381Y-79388831D01*
X145099256Y-79496279D01*
X145108542Y-79500729D01*
X145307501Y-79576703D01*
X145317399Y-79579579D01*
X145420750Y-79600606D01*
X145434799Y-79599410D01*
X145438500Y-79589065D01*
X145438500Y-78142000D01*
X145458502Y-78073879D01*
X145512158Y-78027386D01*
X145564500Y-78016000D01*
X145820500Y-78016000D01*
X145888621Y-78036002D01*
X145935114Y-78089658D01*
X145946500Y-78142000D01*
X145946500Y-79588516D01*
X145949630Y-79599177D01*
X145949628Y-79670174D01*
X145917828Y-79723768D01*
X143404163Y-82237432D01*
X140892747Y-84748848D01*
X140884461Y-84756388D01*
X140877982Y-84760500D01*
X140872557Y-84766277D01*
X140831357Y-84810151D01*
X140828602Y-84812993D01*
X140808865Y-84832730D01*
X140806385Y-84835927D01*
X140798682Y-84844947D01*
X140768414Y-84877179D01*
X140764595Y-84884125D01*
X140764593Y-84884128D01*
X140758652Y-84894934D01*
X140747801Y-84911453D01*
X140735386Y-84927459D01*
X140732241Y-84934728D01*
X140732238Y-84934732D01*
X140717826Y-84968037D01*
X140712609Y-84978687D01*
X140691305Y-85017440D01*
X140689334Y-85025115D01*
X140689334Y-85025116D01*
X140686267Y-85037062D01*
X140679863Y-85055766D01*
X140671819Y-85074355D01*
X140670580Y-85082178D01*
X140670577Y-85082188D01*
X140664901Y-85118024D01*
X140662495Y-85129644D01*
X140651500Y-85172470D01*
X140651500Y-85192724D01*
X140649949Y-85212434D01*
X140646780Y-85232443D01*
X140647526Y-85240335D01*
X140650941Y-85276461D01*
X140651500Y-85288319D01*
X140651500Y-94507357D01*
X140631498Y-94575478D01*
X140577842Y-94621971D01*
X140507568Y-94632075D01*
X140461361Y-94615811D01*
X140435221Y-94600352D01*
X140420790Y-94594107D01*
X140286395Y-94555061D01*
X140272294Y-94555101D01*
X140269000Y-94562370D01*
X140269000Y-97591878D01*
X140272973Y-97605409D01*
X140280871Y-97606544D01*
X140420790Y-97565893D01*
X140435221Y-97559648D01*
X140564676Y-97483090D01*
X140572364Y-97477126D01*
X140638449Y-97451179D01*
X140708072Y-97465080D01*
X140724158Y-97475418D01*
X140728193Y-97479453D01*
X140871399Y-97564145D01*
X140879010Y-97566356D01*
X140879012Y-97566357D01*
X140891748Y-97570057D01*
X141031169Y-97610562D01*
X141037574Y-97611066D01*
X141037579Y-97611067D01*
X141066042Y-97613307D01*
X141066050Y-97613307D01*
X141068498Y-97613500D01*
X141501502Y-97613500D01*
X141503950Y-97613307D01*
X141503958Y-97613307D01*
X141532421Y-97611067D01*
X141532426Y-97611066D01*
X141538831Y-97610562D01*
X141678252Y-97570057D01*
X141690988Y-97566357D01*
X141690990Y-97566356D01*
X141698601Y-97564145D01*
X141841807Y-97479453D01*
X141844489Y-97476771D01*
X141908861Y-97451498D01*
X141978484Y-97465400D01*
X141994312Y-97475572D01*
X141998193Y-97479453D01*
X142141399Y-97564145D01*
X142149010Y-97566356D01*
X142149012Y-97566357D01*
X142161748Y-97570057D01*
X142301169Y-97610562D01*
X142307574Y-97611066D01*
X142307579Y-97611067D01*
X142336042Y-97613307D01*
X142336050Y-97613307D01*
X142338498Y-97613500D01*
X142771502Y-97613500D01*
X142773950Y-97613307D01*
X142773958Y-97613307D01*
X142802421Y-97611067D01*
X142802426Y-97611066D01*
X142808831Y-97610562D01*
X142948252Y-97570057D01*
X142960988Y-97566357D01*
X142960990Y-97566356D01*
X142968601Y-97564145D01*
X143111807Y-97479453D01*
X143114489Y-97476771D01*
X143178861Y-97451498D01*
X143248484Y-97465400D01*
X143264312Y-97475572D01*
X143268193Y-97479453D01*
X143411399Y-97564145D01*
X143419010Y-97566356D01*
X143419012Y-97566357D01*
X143431748Y-97570057D01*
X143571169Y-97610562D01*
X143577574Y-97611066D01*
X143577579Y-97611067D01*
X143606042Y-97613307D01*
X143606050Y-97613307D01*
X143608498Y-97613500D01*
X144041502Y-97613500D01*
X144043950Y-97613307D01*
X144043958Y-97613307D01*
X144072421Y-97611067D01*
X144072426Y-97611066D01*
X144078831Y-97610562D01*
X144218252Y-97570057D01*
X144230988Y-97566357D01*
X144230990Y-97566356D01*
X144238601Y-97564145D01*
X144381807Y-97479453D01*
X144384489Y-97476771D01*
X144448861Y-97451498D01*
X144518484Y-97465400D01*
X144534312Y-97475572D01*
X144538193Y-97479453D01*
X144681399Y-97564145D01*
X144689010Y-97566356D01*
X144689012Y-97566357D01*
X144701748Y-97570057D01*
X144841169Y-97610562D01*
X144847574Y-97611066D01*
X144847579Y-97611067D01*
X144876042Y-97613307D01*
X144876050Y-97613307D01*
X144878498Y-97613500D01*
X145311502Y-97613500D01*
X145313950Y-97613307D01*
X145313958Y-97613307D01*
X145342421Y-97611067D01*
X145342426Y-97611066D01*
X145348831Y-97610562D01*
X145488252Y-97570057D01*
X145500988Y-97566357D01*
X145500990Y-97566356D01*
X145508601Y-97564145D01*
X145651807Y-97479453D01*
X145654489Y-97476771D01*
X145718861Y-97451498D01*
X145788484Y-97465400D01*
X145804312Y-97475572D01*
X145808193Y-97479453D01*
X145951399Y-97564145D01*
X145959010Y-97566356D01*
X145959012Y-97566357D01*
X145971748Y-97570057D01*
X146111169Y-97610562D01*
X146117574Y-97611066D01*
X146117579Y-97611067D01*
X146146042Y-97613307D01*
X146146050Y-97613307D01*
X146148498Y-97613500D01*
X146581502Y-97613500D01*
X146583950Y-97613307D01*
X146583958Y-97613307D01*
X146612421Y-97611067D01*
X146612426Y-97611066D01*
X146618831Y-97610562D01*
X146758252Y-97570057D01*
X146770988Y-97566357D01*
X146770990Y-97566356D01*
X146778601Y-97564145D01*
X146921807Y-97479453D01*
X146924489Y-97476771D01*
X146988861Y-97451498D01*
X147058484Y-97465400D01*
X147074312Y-97475572D01*
X147078193Y-97479453D01*
X147221399Y-97564145D01*
X147229010Y-97566356D01*
X147229012Y-97566357D01*
X147241748Y-97570057D01*
X147381169Y-97610562D01*
X147387574Y-97611066D01*
X147387579Y-97611067D01*
X147416042Y-97613307D01*
X147416050Y-97613307D01*
X147418498Y-97613500D01*
X147851502Y-97613500D01*
X147853950Y-97613307D01*
X147853958Y-97613307D01*
X147882421Y-97611067D01*
X147882426Y-97611066D01*
X147888831Y-97610562D01*
X148028252Y-97570057D01*
X148040988Y-97566357D01*
X148040990Y-97566356D01*
X148048601Y-97564145D01*
X148191807Y-97479453D01*
X148194489Y-97476771D01*
X148258861Y-97451498D01*
X148328484Y-97465400D01*
X148344312Y-97475572D01*
X148348193Y-97479453D01*
X148491399Y-97564145D01*
X148499010Y-97566356D01*
X148499012Y-97566357D01*
X148511748Y-97570057D01*
X148651169Y-97610562D01*
X148657574Y-97611066D01*
X148657579Y-97611067D01*
X148686042Y-97613307D01*
X148686050Y-97613307D01*
X148688498Y-97613500D01*
X149121502Y-97613500D01*
X149123950Y-97613307D01*
X149123958Y-97613307D01*
X149152421Y-97611067D01*
X149152426Y-97611066D01*
X149158831Y-97610562D01*
X149298252Y-97570057D01*
X149310988Y-97566357D01*
X149310990Y-97566356D01*
X149318601Y-97564145D01*
X149461807Y-97479453D01*
X149464489Y-97476771D01*
X149528861Y-97451498D01*
X149598484Y-97465400D01*
X149614312Y-97475572D01*
X149618193Y-97479453D01*
X149761399Y-97564145D01*
X149769010Y-97566356D01*
X149769012Y-97566357D01*
X149781748Y-97570057D01*
X149921169Y-97610562D01*
X149927574Y-97611066D01*
X149927579Y-97611067D01*
X149956042Y-97613307D01*
X149956050Y-97613307D01*
X149958498Y-97613500D01*
X150391502Y-97613500D01*
X150393950Y-97613307D01*
X150393958Y-97613307D01*
X150422421Y-97611067D01*
X150422426Y-97611066D01*
X150428831Y-97610562D01*
X150568252Y-97570057D01*
X150580988Y-97566357D01*
X150580990Y-97566356D01*
X150588601Y-97564145D01*
X150731807Y-97479453D01*
X150734489Y-97476771D01*
X150798861Y-97451498D01*
X150868484Y-97465400D01*
X150884312Y-97475572D01*
X150888193Y-97479453D01*
X151031399Y-97564145D01*
X151039010Y-97566356D01*
X151039012Y-97566357D01*
X151051748Y-97570057D01*
X151191169Y-97610562D01*
X151197574Y-97611066D01*
X151197579Y-97611067D01*
X151226042Y-97613307D01*
X151226050Y-97613307D01*
X151228498Y-97613500D01*
X151661502Y-97613500D01*
X151663950Y-97613307D01*
X151663958Y-97613307D01*
X151692421Y-97611067D01*
X151692426Y-97611066D01*
X151698831Y-97610562D01*
X151838252Y-97570057D01*
X151850988Y-97566357D01*
X151850990Y-97566356D01*
X151858601Y-97564145D01*
X152001807Y-97479453D01*
X152004489Y-97476771D01*
X152068861Y-97451498D01*
X152138484Y-97465400D01*
X152154312Y-97475572D01*
X152158193Y-97479453D01*
X152301399Y-97564145D01*
X152309010Y-97566356D01*
X152309012Y-97566357D01*
X152321748Y-97570057D01*
X152461169Y-97610562D01*
X152467574Y-97611066D01*
X152467579Y-97611067D01*
X152496042Y-97613307D01*
X152496050Y-97613307D01*
X152498498Y-97613500D01*
X152931502Y-97613500D01*
X152933950Y-97613307D01*
X152933958Y-97613307D01*
X152962421Y-97611067D01*
X152962426Y-97611066D01*
X152968831Y-97610562D01*
X153108252Y-97570057D01*
X153120988Y-97566357D01*
X153120990Y-97566356D01*
X153128601Y-97564145D01*
X153271807Y-97479453D01*
X153274489Y-97476771D01*
X153338861Y-97451498D01*
X153408484Y-97465400D01*
X153424312Y-97475572D01*
X153428193Y-97479453D01*
X153571399Y-97564145D01*
X153579010Y-97566356D01*
X153579012Y-97566357D01*
X153591748Y-97570057D01*
X153731169Y-97610562D01*
X153737574Y-97611066D01*
X153737579Y-97611067D01*
X153766042Y-97613307D01*
X153766050Y-97613307D01*
X153768498Y-97613500D01*
X153830784Y-97613500D01*
X153898905Y-97633502D01*
X153945398Y-97687158D01*
X153955502Y-97757432D01*
X153932718Y-97813564D01*
X153928842Y-97818899D01*
X153923414Y-97824679D01*
X153919595Y-97831626D01*
X153919594Y-97831627D01*
X153913652Y-97842434D01*
X153902801Y-97858953D01*
X153890386Y-97874959D01*
X153887241Y-97882228D01*
X153887238Y-97882232D01*
X153872826Y-97915537D01*
X153867609Y-97926187D01*
X153846305Y-97964940D01*
X153844334Y-97972615D01*
X153844334Y-97972616D01*
X153841267Y-97984562D01*
X153834863Y-98003266D01*
X153826819Y-98021855D01*
X153825580Y-98029678D01*
X153825577Y-98029688D01*
X153819901Y-98065524D01*
X153817495Y-98077144D01*
X153806500Y-98119970D01*
X153806500Y-98140224D01*
X153804949Y-98159934D01*
X153801780Y-98179943D01*
X153802526Y-98187835D01*
X153805941Y-98223961D01*
X153806500Y-98235819D01*
X153806500Y-100055406D01*
X153786498Y-100123527D01*
X153769595Y-100144501D01*
X152409485Y-101504610D01*
X151052747Y-102861348D01*
X151044461Y-102868888D01*
X151037982Y-102873000D01*
X151032557Y-102878777D01*
X150991357Y-102922651D01*
X150988602Y-102925493D01*
X150968865Y-102945230D01*
X150966385Y-102948427D01*
X150958682Y-102957447D01*
X150928414Y-102989679D01*
X150924595Y-102996625D01*
X150924593Y-102996628D01*
X150918652Y-103007434D01*
X150907801Y-103023953D01*
X150895386Y-103039959D01*
X150892241Y-103047228D01*
X150892238Y-103047232D01*
X150877826Y-103080537D01*
X150872609Y-103091187D01*
X150851305Y-103129940D01*
X150849334Y-103137615D01*
X150849334Y-103137616D01*
X150846267Y-103149562D01*
X150839863Y-103168266D01*
X150831819Y-103186855D01*
X150830580Y-103194678D01*
X150830577Y-103194688D01*
X150824901Y-103230524D01*
X150822495Y-103242144D01*
X150817049Y-103263357D01*
X150811500Y-103284970D01*
X150811500Y-103305224D01*
X150809949Y-103324934D01*
X150806780Y-103344943D01*
X150807526Y-103352835D01*
X150810941Y-103388961D01*
X150811500Y-103400819D01*
X150811500Y-103806776D01*
X150791498Y-103874897D01*
X150737842Y-103921390D01*
X150667568Y-103931494D01*
X150621364Y-103915231D01*
X150588601Y-103895855D01*
X150580990Y-103893644D01*
X150580988Y-103893643D01*
X150504742Y-103871492D01*
X150428831Y-103849438D01*
X150422426Y-103848934D01*
X150422421Y-103848933D01*
X150393958Y-103846693D01*
X150393950Y-103846693D01*
X150391502Y-103846500D01*
X149958498Y-103846500D01*
X149956050Y-103846693D01*
X149956042Y-103846693D01*
X149927579Y-103848933D01*
X149927574Y-103848934D01*
X149921169Y-103849438D01*
X149845258Y-103871492D01*
X149769012Y-103893643D01*
X149769010Y-103893644D01*
X149761399Y-103895855D01*
X149618193Y-103980547D01*
X149615511Y-103983229D01*
X149551139Y-104008502D01*
X149481516Y-103994600D01*
X149465688Y-103984428D01*
X149461807Y-103980547D01*
X149318601Y-103895855D01*
X149310990Y-103893644D01*
X149310988Y-103893643D01*
X149234742Y-103871492D01*
X149158831Y-103849438D01*
X149152426Y-103848934D01*
X149152421Y-103848933D01*
X149123958Y-103846693D01*
X149123950Y-103846693D01*
X149121502Y-103846500D01*
X148688498Y-103846500D01*
X148686050Y-103846693D01*
X148686042Y-103846693D01*
X148657579Y-103848933D01*
X148657574Y-103848934D01*
X148651169Y-103849438D01*
X148575258Y-103871492D01*
X148499012Y-103893643D01*
X148499010Y-103893644D01*
X148491399Y-103895855D01*
X148348193Y-103980547D01*
X148345511Y-103983229D01*
X148281139Y-104008502D01*
X148211516Y-103994600D01*
X148195688Y-103984428D01*
X148191807Y-103980547D01*
X148048601Y-103895855D01*
X148040990Y-103893644D01*
X148040988Y-103893643D01*
X147964742Y-103871492D01*
X147888831Y-103849438D01*
X147882426Y-103848934D01*
X147882421Y-103848933D01*
X147853958Y-103846693D01*
X147853950Y-103846693D01*
X147851502Y-103846500D01*
X147418498Y-103846500D01*
X147416050Y-103846693D01*
X147416042Y-103846693D01*
X147387579Y-103848933D01*
X147387574Y-103848934D01*
X147381169Y-103849438D01*
X147305258Y-103871492D01*
X147229012Y-103893643D01*
X147229010Y-103893644D01*
X147221399Y-103895855D01*
X147078193Y-103980547D01*
X147075511Y-103983229D01*
X147011139Y-104008502D01*
X146941516Y-103994600D01*
X146925688Y-103984428D01*
X146921807Y-103980547D01*
X146778601Y-103895855D01*
X146770990Y-103893644D01*
X146770988Y-103893643D01*
X146694742Y-103871492D01*
X146618831Y-103849438D01*
X146612426Y-103848934D01*
X146612421Y-103848933D01*
X146583958Y-103846693D01*
X146583950Y-103846693D01*
X146581502Y-103846500D01*
X146148498Y-103846500D01*
X146146050Y-103846693D01*
X146146042Y-103846693D01*
X146117579Y-103848933D01*
X146117574Y-103848934D01*
X146111169Y-103849438D01*
X146035258Y-103871492D01*
X145959012Y-103893643D01*
X145959010Y-103893644D01*
X145951399Y-103895855D01*
X145808193Y-103980547D01*
X145805511Y-103983229D01*
X145741139Y-104008502D01*
X145671516Y-103994600D01*
X145655688Y-103984428D01*
X145651807Y-103980547D01*
X145508601Y-103895855D01*
X145500990Y-103893644D01*
X145500988Y-103893643D01*
X145424742Y-103871492D01*
X145348831Y-103849438D01*
X145342426Y-103848934D01*
X145342421Y-103848933D01*
X145313958Y-103846693D01*
X145313950Y-103846693D01*
X145311502Y-103846500D01*
X144878498Y-103846500D01*
X144876050Y-103846693D01*
X144876042Y-103846693D01*
X144847579Y-103848933D01*
X144847574Y-103848934D01*
X144841169Y-103849438D01*
X144765258Y-103871492D01*
X144689012Y-103893643D01*
X144689010Y-103893644D01*
X144681399Y-103895855D01*
X144538193Y-103980547D01*
X144535511Y-103983229D01*
X144471139Y-104008502D01*
X144401516Y-103994600D01*
X144385688Y-103984428D01*
X144381807Y-103980547D01*
X144238601Y-103895855D01*
X144230990Y-103893644D01*
X144230988Y-103893643D01*
X144154742Y-103871492D01*
X144078831Y-103849438D01*
X144072426Y-103848934D01*
X144072421Y-103848933D01*
X144043958Y-103846693D01*
X144043950Y-103846693D01*
X144041502Y-103846500D01*
X143608498Y-103846500D01*
X143606050Y-103846693D01*
X143606042Y-103846693D01*
X143577579Y-103848933D01*
X143577574Y-103848934D01*
X143571169Y-103849438D01*
X143495258Y-103871492D01*
X143419012Y-103893643D01*
X143419010Y-103893644D01*
X143411399Y-103895855D01*
X143268193Y-103980547D01*
X143265511Y-103983229D01*
X143201139Y-104008502D01*
X143131516Y-103994600D01*
X143115688Y-103984428D01*
X143111807Y-103980547D01*
X142968601Y-103895855D01*
X142960990Y-103893644D01*
X142960988Y-103893643D01*
X142884742Y-103871492D01*
X142808831Y-103849438D01*
X142802426Y-103848934D01*
X142802421Y-103848933D01*
X142773958Y-103846693D01*
X142773950Y-103846693D01*
X142771502Y-103846500D01*
X142338498Y-103846500D01*
X142336050Y-103846693D01*
X142336042Y-103846693D01*
X142307579Y-103848933D01*
X142307574Y-103848934D01*
X142301169Y-103849438D01*
X142225258Y-103871492D01*
X142149012Y-103893643D01*
X142149010Y-103893644D01*
X142141399Y-103895855D01*
X141998193Y-103980547D01*
X141995511Y-103983229D01*
X141931139Y-104008502D01*
X141861516Y-103994600D01*
X141845688Y-103984428D01*
X141841807Y-103980547D01*
X141698601Y-103895855D01*
X141690990Y-103893644D01*
X141690988Y-103893643D01*
X141614742Y-103871492D01*
X141538831Y-103849438D01*
X141532426Y-103848934D01*
X141532421Y-103848933D01*
X141503958Y-103846693D01*
X141503950Y-103846693D01*
X141501502Y-103846500D01*
X141068498Y-103846500D01*
X141066050Y-103846693D01*
X141066042Y-103846693D01*
X141037579Y-103848933D01*
X141037574Y-103848934D01*
X141031169Y-103849438D01*
X140955258Y-103871492D01*
X140879012Y-103893643D01*
X140879010Y-103893644D01*
X140871399Y-103895855D01*
X140728193Y-103980547D01*
X140725511Y-103983229D01*
X140661139Y-104008502D01*
X140591516Y-103994600D01*
X140575688Y-103984428D01*
X140571807Y-103980547D01*
X140428601Y-103895855D01*
X140420990Y-103893644D01*
X140420988Y-103893643D01*
X140344742Y-103871492D01*
X140268831Y-103849438D01*
X140262426Y-103848934D01*
X140262421Y-103848933D01*
X140233958Y-103846693D01*
X140233950Y-103846693D01*
X140231502Y-103846500D01*
X139798498Y-103846500D01*
X139796050Y-103846693D01*
X139796042Y-103846693D01*
X139767579Y-103848933D01*
X139767574Y-103848934D01*
X139761169Y-103849438D01*
X139685258Y-103871492D01*
X139609012Y-103893643D01*
X139609010Y-103893644D01*
X139601399Y-103895855D01*
X139594572Y-103899892D01*
X139594573Y-103899892D01*
X139465020Y-103976509D01*
X139465017Y-103976511D01*
X139458193Y-103980547D01*
X139340547Y-104098193D01*
X139336511Y-104105017D01*
X139336509Y-104105020D01*
X139303910Y-104160142D01*
X139255855Y-104241399D01*
X139253644Y-104249010D01*
X139253643Y-104249012D01*
X139249123Y-104264570D01*
X139209438Y-104401169D01*
X139206500Y-104438498D01*
X139206500Y-106321502D01*
X139209438Y-106358831D01*
X139227446Y-106420814D01*
X139249441Y-106496522D01*
X139255855Y-106518601D01*
X139259892Y-106525427D01*
X139336509Y-106654980D01*
X139336511Y-106654983D01*
X139340547Y-106661807D01*
X139346155Y-106667415D01*
X139351011Y-106673675D01*
X139349504Y-106674844D01*
X139378621Y-106728167D01*
X139381500Y-106754950D01*
X139381500Y-107060406D01*
X139361498Y-107128527D01*
X139344595Y-107149501D01*
X138510130Y-107983965D01*
X137680247Y-108813848D01*
X137671961Y-108821388D01*
X137665482Y-108825500D01*
X137660057Y-108831277D01*
X137618857Y-108875151D01*
X137616102Y-108877993D01*
X137596365Y-108897730D01*
X137593885Y-108900927D01*
X137586182Y-108909947D01*
X137555914Y-108942179D01*
X137552095Y-108949125D01*
X137552093Y-108949128D01*
X137546152Y-108959934D01*
X137535301Y-108976453D01*
X137522886Y-108992459D01*
X137519741Y-108999728D01*
X137519738Y-108999732D01*
X137505326Y-109033037D01*
X137500109Y-109043687D01*
X137478805Y-109082440D01*
X137476834Y-109090115D01*
X137476834Y-109090116D01*
X137473767Y-109102062D01*
X137467363Y-109120766D01*
X137459319Y-109139355D01*
X137458080Y-109147178D01*
X137458077Y-109147188D01*
X137452401Y-109183024D01*
X137449995Y-109194644D01*
X137439000Y-109237470D01*
X137439000Y-109257724D01*
X137437449Y-109277434D01*
X137434280Y-109297443D01*
X137435026Y-109305335D01*
X137438441Y-109341461D01*
X137439000Y-109353319D01*
X137439000Y-121576692D01*
X137418998Y-121644813D01*
X137371183Y-121688453D01*
X137346107Y-121701507D01*
X137341974Y-121704610D01*
X137341971Y-121704612D01*
X137171600Y-121832530D01*
X137167465Y-121835635D01*
X137013129Y-121997138D01*
X136887243Y-122181680D01*
X136793188Y-122384305D01*
X136733489Y-122599570D01*
X136709751Y-122821695D01*
X136710048Y-122826848D01*
X136710048Y-122826851D01*
X136722070Y-123035342D01*
X136722610Y-123044715D01*
X136723747Y-123049761D01*
X136723748Y-123049767D01*
X136733200Y-123091706D01*
X136771722Y-123262639D01*
X136809961Y-123356811D01*
X136853103Y-123463057D01*
X136855766Y-123469616D01*
X136858465Y-123474020D01*
X136969791Y-123655688D01*
X136972487Y-123660088D01*
X137118750Y-123828938D01*
X137122725Y-123832238D01*
X137122731Y-123832244D01*
X137127925Y-123836556D01*
X137167559Y-123895460D01*
X137169055Y-123966441D01*
X137131939Y-124026962D01*
X137091668Y-124051480D01*
X136984446Y-124091676D01*
X136968851Y-124100214D01*
X136866776Y-124176715D01*
X136854215Y-124189276D01*
X136777714Y-124291351D01*
X136769176Y-124306946D01*
X136724022Y-124427394D01*
X136720395Y-124442649D01*
X136714869Y-124493514D01*
X136714500Y-124500328D01*
X136714500Y-125122885D01*
X136718975Y-125138124D01*
X136720365Y-125139329D01*
X136728048Y-125141000D01*
X138200500Y-125141000D01*
X138268621Y-125161002D01*
X138315114Y-125214658D01*
X138326500Y-125267000D01*
X138326500Y-126734884D01*
X138330975Y-126750123D01*
X138332365Y-126751328D01*
X138340048Y-126752999D01*
X138967169Y-126752999D01*
X138973990Y-126752629D01*
X139024852Y-126747105D01*
X139040104Y-126743479D01*
X139160554Y-126698324D01*
X139176149Y-126689786D01*
X139278224Y-126613285D01*
X139290785Y-126600724D01*
X139367286Y-126498649D01*
X139375824Y-126483054D01*
X139416725Y-126373952D01*
X139459367Y-126317188D01*
X139525928Y-126292488D01*
X139595277Y-126307696D01*
X139629944Y-126335684D01*
X139655365Y-126365031D01*
X139655369Y-126365035D01*
X139658750Y-126368938D01*
X139830626Y-126511632D01*
X140023500Y-126624338D01*
X140028325Y-126626180D01*
X140028326Y-126626181D01*
X140059384Y-126638041D01*
X140232192Y-126704030D01*
X140237260Y-126705061D01*
X140237263Y-126705062D01*
X140332362Y-126724410D01*
X140451097Y-126748567D01*
X140456272Y-126748757D01*
X140456274Y-126748757D01*
X140669173Y-126756564D01*
X140669177Y-126756564D01*
X140674337Y-126756753D01*
X140679457Y-126756097D01*
X140679459Y-126756097D01*
X140890788Y-126729025D01*
X140890789Y-126729025D01*
X140895916Y-126728368D01*
X140900866Y-126726883D01*
X141104929Y-126665661D01*
X141104934Y-126665659D01*
X141109884Y-126664174D01*
X141310494Y-126565896D01*
X141492360Y-126436173D01*
X141650596Y-126278489D01*
X141686341Y-126228745D01*
X141780953Y-126097077D01*
X141782276Y-126098028D01*
X141829145Y-126054857D01*
X141899080Y-126042625D01*
X141964526Y-126070144D01*
X141992375Y-126101994D01*
X142052487Y-126200088D01*
X142198750Y-126368938D01*
X142370626Y-126511632D01*
X142563500Y-126624338D01*
X142568325Y-126626180D01*
X142568326Y-126626181D01*
X142599384Y-126638041D01*
X142772192Y-126704030D01*
X142777260Y-126705061D01*
X142777263Y-126705062D01*
X142872362Y-126724410D01*
X142991097Y-126748567D01*
X142996272Y-126748757D01*
X142996274Y-126748757D01*
X143209173Y-126756564D01*
X143209177Y-126756564D01*
X143214337Y-126756753D01*
X143219457Y-126756097D01*
X143219459Y-126756097D01*
X143430788Y-126729025D01*
X143430789Y-126729025D01*
X143435916Y-126728368D01*
X143440866Y-126726883D01*
X143644929Y-126665661D01*
X143644934Y-126665659D01*
X143649884Y-126664174D01*
X143850494Y-126565896D01*
X144032360Y-126436173D01*
X144190596Y-126278489D01*
X144226341Y-126228745D01*
X144320953Y-126097077D01*
X144322276Y-126098028D01*
X144369145Y-126054857D01*
X144439080Y-126042625D01*
X144504526Y-126070144D01*
X144532375Y-126101994D01*
X144592487Y-126200088D01*
X144738750Y-126368938D01*
X144910626Y-126511632D01*
X145103500Y-126624338D01*
X145108325Y-126626180D01*
X145108326Y-126626181D01*
X145139384Y-126638041D01*
X145312192Y-126704030D01*
X145317260Y-126705061D01*
X145317263Y-126705062D01*
X145412362Y-126724410D01*
X145531097Y-126748567D01*
X145536272Y-126748757D01*
X145536274Y-126748757D01*
X145749173Y-126756564D01*
X145749177Y-126756564D01*
X145754337Y-126756753D01*
X145759457Y-126756097D01*
X145759459Y-126756097D01*
X145970788Y-126729025D01*
X145970789Y-126729025D01*
X145975916Y-126728368D01*
X145980866Y-126726883D01*
X146184929Y-126665661D01*
X146184934Y-126665659D01*
X146189884Y-126664174D01*
X146390494Y-126565896D01*
X146572360Y-126436173D01*
X146730596Y-126278489D01*
X146766341Y-126228745D01*
X146860953Y-126097077D01*
X146862276Y-126098028D01*
X146909145Y-126054857D01*
X146979080Y-126042625D01*
X147044526Y-126070144D01*
X147072375Y-126101994D01*
X147132487Y-126200088D01*
X147278750Y-126368938D01*
X147450626Y-126511632D01*
X147643500Y-126624338D01*
X147648325Y-126626180D01*
X147648326Y-126626181D01*
X147679384Y-126638041D01*
X147852192Y-126704030D01*
X147857260Y-126705061D01*
X147857263Y-126705062D01*
X147952362Y-126724410D01*
X148071097Y-126748567D01*
X148076272Y-126748757D01*
X148076274Y-126748757D01*
X148289173Y-126756564D01*
X148289177Y-126756564D01*
X148294337Y-126756753D01*
X148299457Y-126756097D01*
X148299459Y-126756097D01*
X148510788Y-126729025D01*
X148510789Y-126729025D01*
X148515916Y-126728368D01*
X148520866Y-126726883D01*
X148724929Y-126665661D01*
X148724934Y-126665659D01*
X148729884Y-126664174D01*
X148930494Y-126565896D01*
X149112360Y-126436173D01*
X149270596Y-126278489D01*
X149306341Y-126228745D01*
X149400953Y-126097077D01*
X149402276Y-126098028D01*
X149449145Y-126054857D01*
X149519080Y-126042625D01*
X149584526Y-126070144D01*
X149612375Y-126101994D01*
X149672487Y-126200088D01*
X149818750Y-126368938D01*
X149990626Y-126511632D01*
X150183500Y-126624338D01*
X150188325Y-126626180D01*
X150188326Y-126626181D01*
X150219384Y-126638041D01*
X150392192Y-126704030D01*
X150397260Y-126705061D01*
X150397263Y-126705062D01*
X150492362Y-126724410D01*
X150611097Y-126748567D01*
X150616272Y-126748757D01*
X150616274Y-126748757D01*
X150829173Y-126756564D01*
X150829177Y-126756564D01*
X150834337Y-126756753D01*
X150839457Y-126756097D01*
X150839459Y-126756097D01*
X151050788Y-126729025D01*
X151050789Y-126729025D01*
X151055916Y-126728368D01*
X151060866Y-126726883D01*
X151264929Y-126665661D01*
X151264934Y-126665659D01*
X151269884Y-126664174D01*
X151470494Y-126565896D01*
X151652360Y-126436173D01*
X151810596Y-126278489D01*
X151846341Y-126228745D01*
X151940953Y-126097077D01*
X151942140Y-126097930D01*
X151989460Y-126054362D01*
X152059397Y-126042145D01*
X152124838Y-126069678D01*
X152152666Y-126101511D01*
X152210194Y-126195388D01*
X152216277Y-126203699D01*
X152355713Y-126364667D01*
X152363080Y-126371883D01*
X152526934Y-126507916D01*
X152535381Y-126513831D01*
X152719256Y-126621279D01*
X152728542Y-126625729D01*
X152927501Y-126701703D01*
X152937399Y-126704579D01*
X153040750Y-126725606D01*
X153054799Y-126724410D01*
X153058500Y-126714065D01*
X153058500Y-126713517D01*
X153566500Y-126713517D01*
X153570564Y-126727359D01*
X153583978Y-126729393D01*
X153590684Y-126728534D01*
X153600762Y-126726392D01*
X153804755Y-126665191D01*
X153814342Y-126661433D01*
X154005595Y-126567739D01*
X154014445Y-126562464D01*
X154187828Y-126438792D01*
X154195700Y-126432139D01*
X154346552Y-126281812D01*
X154353230Y-126273965D01*
X154480522Y-126096819D01*
X154481779Y-126097722D01*
X154528873Y-126054362D01*
X154598811Y-126042145D01*
X154664251Y-126069678D01*
X154692079Y-126101511D01*
X154752487Y-126200088D01*
X154898750Y-126368938D01*
X155070626Y-126511632D01*
X155263500Y-126624338D01*
X155268325Y-126626180D01*
X155268326Y-126626181D01*
X155299384Y-126638041D01*
X155472192Y-126704030D01*
X155477260Y-126705061D01*
X155477263Y-126705062D01*
X155572362Y-126724410D01*
X155691097Y-126748567D01*
X155696272Y-126748757D01*
X155696274Y-126748757D01*
X155909173Y-126756564D01*
X155909177Y-126756564D01*
X155914337Y-126756753D01*
X155919457Y-126756097D01*
X155919459Y-126756097D01*
X156130788Y-126729025D01*
X156130789Y-126729025D01*
X156135916Y-126728368D01*
X156140866Y-126726883D01*
X156344929Y-126665661D01*
X156344934Y-126665659D01*
X156349884Y-126664174D01*
X156550494Y-126565896D01*
X156732360Y-126436173D01*
X156890596Y-126278489D01*
X156926341Y-126228745D01*
X157017935Y-126101277D01*
X157020953Y-126097077D01*
X157034495Y-126069678D01*
X157117636Y-125901453D01*
X157117637Y-125901451D01*
X157119930Y-125896811D01*
X157184870Y-125683069D01*
X157214029Y-125461590D01*
X157215656Y-125395000D01*
X157197352Y-125172361D01*
X157142931Y-124955702D01*
X157053854Y-124750840D01*
X157026733Y-124708918D01*
X168964417Y-124708918D01*
X168964834Y-124716156D01*
X168980182Y-124982320D01*
X169032905Y-125251053D01*
X169034292Y-125255103D01*
X169034293Y-125255108D01*
X169103841Y-125458240D01*
X169121612Y-125510144D01*
X169150738Y-125568054D01*
X169220337Y-125706437D01*
X169244660Y-125754799D01*
X169247086Y-125758328D01*
X169247089Y-125758334D01*
X169345453Y-125901453D01*
X169399774Y-125980490D01*
X169402661Y-125983663D01*
X169402662Y-125983664D01*
X169581192Y-126179867D01*
X169584082Y-126183043D01*
X169587377Y-126185798D01*
X169587378Y-126185799D01*
X169599205Y-126195688D01*
X169794175Y-126358707D01*
X169797816Y-126360991D01*
X170022524Y-126501951D01*
X170022528Y-126501953D01*
X170026164Y-126504234D01*
X170094044Y-126534883D01*
X170271845Y-126615164D01*
X170271849Y-126615166D01*
X170275757Y-126616930D01*
X170279877Y-126618150D01*
X170279876Y-126618150D01*
X170534223Y-126693491D01*
X170534227Y-126693492D01*
X170538336Y-126694709D01*
X170542570Y-126695357D01*
X170542575Y-126695358D01*
X170804798Y-126735483D01*
X170804800Y-126735483D01*
X170809040Y-126736132D01*
X170948412Y-126738322D01*
X171078571Y-126740367D01*
X171078577Y-126740367D01*
X171082862Y-126740434D01*
X171354735Y-126707534D01*
X171619627Y-126638041D01*
X171623587Y-126636401D01*
X171623592Y-126636399D01*
X171788303Y-126568173D01*
X171872636Y-126533241D01*
X172109082Y-126395073D01*
X172324589Y-126226094D01*
X172346010Y-126203990D01*
X172512186Y-126032509D01*
X172515169Y-126029431D01*
X172517702Y-126025983D01*
X172517706Y-126025978D01*
X172674757Y-125812178D01*
X172677295Y-125808723D01*
X172704654Y-125758334D01*
X172805918Y-125571830D01*
X172805919Y-125571828D01*
X172807968Y-125568054D01*
X172874627Y-125391646D01*
X172903251Y-125315895D01*
X172903252Y-125315891D01*
X172904769Y-125311877D01*
X172948054Y-125122885D01*
X172964949Y-125049117D01*
X172964950Y-125049113D01*
X172965907Y-125044933D01*
X172974295Y-124950954D01*
X172990031Y-124774627D01*
X172990031Y-124774625D01*
X172990251Y-124772161D01*
X172990693Y-124730000D01*
X172988965Y-124704648D01*
X172972359Y-124461055D01*
X172972358Y-124461049D01*
X172972067Y-124456778D01*
X172916532Y-124188612D01*
X172825117Y-123930465D01*
X172770511Y-123824667D01*
X172701478Y-123690919D01*
X172701478Y-123690918D01*
X172699513Y-123687112D01*
X172689540Y-123672921D01*
X172588867Y-123529678D01*
X172542045Y-123463057D01*
X172374105Y-123282332D01*
X172358546Y-123265588D01*
X172358543Y-123265585D01*
X172355625Y-123262445D01*
X172352310Y-123259731D01*
X172352306Y-123259728D01*
X172147023Y-123091706D01*
X172143705Y-123088990D01*
X171910204Y-122945901D01*
X171906268Y-122944173D01*
X171663373Y-122837549D01*
X171663369Y-122837548D01*
X171659445Y-122835825D01*
X171396066Y-122760800D01*
X171391824Y-122760196D01*
X171391818Y-122760195D01*
X171182467Y-122730400D01*
X171124943Y-122722213D01*
X170981089Y-122721460D01*
X170855377Y-122720802D01*
X170855371Y-122720802D01*
X170851091Y-122720780D01*
X170846847Y-122721339D01*
X170846843Y-122721339D01*
X170727802Y-122737011D01*
X170579578Y-122756525D01*
X170575438Y-122757658D01*
X170575436Y-122757658D01*
X170502508Y-122777609D01*
X170315428Y-122828788D01*
X170311480Y-122830472D01*
X170067482Y-122934546D01*
X170067478Y-122934548D01*
X170063530Y-122936232D01*
X169949958Y-123004203D01*
X169832225Y-123074664D01*
X169832221Y-123074667D01*
X169828543Y-123076868D01*
X169614818Y-123248094D01*
X169537711Y-123329348D01*
X169432099Y-123440640D01*
X169426308Y-123446742D01*
X169266502Y-123669136D01*
X169138357Y-123911161D01*
X169136885Y-123915184D01*
X169136883Y-123915188D01*
X169058288Y-124129958D01*
X169044243Y-124168337D01*
X168985904Y-124435907D01*
X168964417Y-124708918D01*
X157026733Y-124708918D01*
X156968665Y-124619158D01*
X156935322Y-124567617D01*
X156935320Y-124567614D01*
X156932514Y-124563277D01*
X156782170Y-124398051D01*
X156778119Y-124394852D01*
X156778115Y-124394848D01*
X156610914Y-124262800D01*
X156610910Y-124262798D01*
X156606859Y-124259598D01*
X156565553Y-124236796D01*
X156515584Y-124186364D01*
X156500812Y-124116921D01*
X156525928Y-124050516D01*
X156553280Y-124023909D01*
X156597103Y-123992650D01*
X156732360Y-123896173D01*
X156890596Y-123738489D01*
X156930033Y-123683607D01*
X157017935Y-123561277D01*
X157020953Y-123557077D01*
X157025236Y-123548412D01*
X157117636Y-123361453D01*
X157117637Y-123361451D01*
X157119930Y-123356811D01*
X157176447Y-123170791D01*
X157183365Y-123148023D01*
X157183365Y-123148021D01*
X157184870Y-123143069D01*
X157214029Y-122921590D01*
X157214504Y-122902145D01*
X157215574Y-122858365D01*
X157215574Y-122858361D01*
X157215656Y-122855000D01*
X157197352Y-122632361D01*
X157142931Y-122415702D01*
X157053854Y-122210840D01*
X156969211Y-122080002D01*
X156935322Y-122027617D01*
X156935320Y-122027614D01*
X156932514Y-122023277D01*
X156782170Y-121858051D01*
X156778119Y-121854852D01*
X156778115Y-121854848D01*
X156610914Y-121722800D01*
X156610910Y-121722798D01*
X156606859Y-121719598D01*
X156570528Y-121699542D01*
X156486488Y-121653150D01*
X156411289Y-121611638D01*
X156406420Y-121609914D01*
X156406416Y-121609912D01*
X156205587Y-121538795D01*
X156205583Y-121538794D01*
X156200712Y-121537069D01*
X156195619Y-121536162D01*
X156195616Y-121536161D01*
X155985873Y-121498800D01*
X155985867Y-121498799D01*
X155980784Y-121497894D01*
X155906952Y-121496992D01*
X155762581Y-121495228D01*
X155762579Y-121495228D01*
X155757411Y-121495165D01*
X155536591Y-121528955D01*
X155324256Y-121598357D01*
X155287875Y-121617296D01*
X155219517Y-121652881D01*
X155126107Y-121701507D01*
X155121974Y-121704610D01*
X155121971Y-121704612D01*
X154951600Y-121832530D01*
X154947465Y-121835635D01*
X154793129Y-121997138D01*
X154790215Y-122001410D01*
X154790214Y-122001411D01*
X154685398Y-122155066D01*
X154630487Y-122200069D01*
X154559962Y-122208240D01*
X154496215Y-122176986D01*
X154475518Y-122152502D01*
X154394926Y-122027926D01*
X154388636Y-122019757D01*
X154245306Y-121862240D01*
X154237773Y-121855215D01*
X154070639Y-121723222D01*
X154062052Y-121717517D01*
X153875617Y-121614599D01*
X153866205Y-121610369D01*
X153665459Y-121539280D01*
X153655488Y-121536646D01*
X153584337Y-121523972D01*
X153571040Y-121525432D01*
X153566500Y-121539989D01*
X153566500Y-126713517D01*
X153058500Y-126713517D01*
X153058500Y-121538102D01*
X153054582Y-121524758D01*
X153040306Y-121522771D01*
X153001824Y-121528660D01*
X152991788Y-121531051D01*
X152789368Y-121597212D01*
X152779859Y-121601209D01*
X152590963Y-121699542D01*
X152582238Y-121705036D01*
X152411933Y-121832905D01*
X152404226Y-121839748D01*
X152278094Y-121971738D01*
X152216570Y-122007168D01*
X152145657Y-122003711D01*
X152087871Y-121962465D01*
X152061557Y-121896525D01*
X152061000Y-121884687D01*
X152061000Y-120508478D01*
X152081002Y-120440357D01*
X152097905Y-120419382D01*
X152722698Y-119794590D01*
X152722703Y-119794584D01*
X153641884Y-118875404D01*
X153704196Y-118841379D01*
X153730979Y-118838500D01*
X159986104Y-118838500D01*
X160002551Y-118839578D01*
X160019016Y-118841746D01*
X160019020Y-118841746D01*
X160024586Y-118842479D01*
X160105989Y-118838640D01*
X160111924Y-118838500D01*
X160134499Y-118838500D01*
X160160489Y-118836181D01*
X160165748Y-118835822D01*
X160248988Y-118831896D01*
X160254447Y-118830646D01*
X160254452Y-118830645D01*
X160266470Y-118827892D01*
X160283399Y-118825211D01*
X160301262Y-118823617D01*
X160306678Y-118822135D01*
X160306680Y-118822135D01*
X160381633Y-118801630D01*
X160386751Y-118800344D01*
X160462500Y-118782995D01*
X160462502Y-118782994D01*
X160467970Y-118781742D01*
X160478470Y-118777263D01*
X160484467Y-118774706D01*
X160500642Y-118769073D01*
X160512539Y-118765818D01*
X160512543Y-118765817D01*
X160517951Y-118764337D01*
X160593167Y-118728461D01*
X160597976Y-118726290D01*
X160669449Y-118695804D01*
X160669450Y-118695804D01*
X160674609Y-118693603D01*
X160689610Y-118683749D01*
X160704525Y-118675346D01*
X160720718Y-118667622D01*
X160725269Y-118664352D01*
X160725272Y-118664350D01*
X160788381Y-118619001D01*
X160792732Y-118616011D01*
X160858510Y-118572804D01*
X160858518Y-118572798D01*
X160862374Y-118570265D01*
X160883162Y-118551743D01*
X160893439Y-118543510D01*
X160903154Y-118536529D01*
X160977563Y-118459745D01*
X160978952Y-118458335D01*
X165522763Y-113914525D01*
X165535154Y-113903657D01*
X165548348Y-113893533D01*
X165552792Y-113890123D01*
X165607658Y-113829826D01*
X165611757Y-113825531D01*
X165627699Y-113809589D01*
X165629496Y-113807440D01*
X165644433Y-113789576D01*
X165647901Y-113785601D01*
X165700212Y-113728112D01*
X165700219Y-113728103D01*
X165703985Y-113723964D01*
X165713514Y-113708773D01*
X165723589Y-113694907D01*
X165731496Y-113685451D01*
X165731503Y-113685441D01*
X165735094Y-113681146D01*
X165776387Y-113608752D01*
X165779092Y-113604232D01*
X165780893Y-113601362D01*
X165823364Y-113533656D01*
X165825458Y-113528448D01*
X165830052Y-113517021D01*
X165837512Y-113501589D01*
X165843620Y-113490881D01*
X165843624Y-113490872D01*
X165846399Y-113486007D01*
X165848268Y-113480730D01*
X165848270Y-113480725D01*
X165874215Y-113407458D01*
X165876080Y-113402522D01*
X165905066Y-113330416D01*
X165907156Y-113325217D01*
X165910794Y-113307650D01*
X165915399Y-113291156D01*
X165921389Y-113274241D01*
X165934855Y-113192009D01*
X165935817Y-113186819D01*
X165951777Y-113109754D01*
X165951778Y-113109750D01*
X165952713Y-113105233D01*
X165954315Y-113077452D01*
X165955762Y-113064347D01*
X165956786Y-113058090D01*
X165956786Y-113058083D01*
X165957694Y-113052542D01*
X165956016Y-112945736D01*
X165956000Y-112943757D01*
X165956000Y-109943477D01*
X165976002Y-109875356D01*
X165992905Y-109854382D01*
X166894496Y-108952792D01*
X167822763Y-108024525D01*
X167835154Y-108013657D01*
X167848348Y-108003533D01*
X167852792Y-108000123D01*
X167856559Y-107995983D01*
X167856571Y-107995972D01*
X167858559Y-107993787D01*
X167859707Y-107993088D01*
X167860701Y-107992174D01*
X167860883Y-107992372D01*
X167919200Y-107956867D01*
X167990176Y-107958593D01*
X168046986Y-107996092D01*
X168115365Y-108075031D01*
X168115369Y-108075035D01*
X168118750Y-108078938D01*
X168290626Y-108221632D01*
X168306480Y-108230896D01*
X168363945Y-108264476D01*
X168412669Y-108316114D01*
X168425740Y-108385897D01*
X168399009Y-108451669D01*
X168358555Y-108485027D01*
X168346107Y-108491507D01*
X168341974Y-108494610D01*
X168341971Y-108494612D01*
X168171600Y-108622530D01*
X168167465Y-108625635D01*
X168163893Y-108629373D01*
X168027006Y-108772617D01*
X168013129Y-108787138D01*
X167887243Y-108971680D01*
X167850669Y-109050473D01*
X167807632Y-109143189D01*
X167793188Y-109174305D01*
X167733489Y-109389570D01*
X167709751Y-109611695D01*
X167710048Y-109616848D01*
X167710048Y-109616851D01*
X167715511Y-109711590D01*
X167722610Y-109834715D01*
X167723747Y-109839761D01*
X167723748Y-109839767D01*
X167743619Y-109927939D01*
X167771722Y-110052639D01*
X167809961Y-110146811D01*
X167837494Y-110214616D01*
X167855766Y-110259616D01*
X167906519Y-110342438D01*
X167969791Y-110445688D01*
X167972487Y-110450088D01*
X168118750Y-110618938D01*
X168290626Y-110761632D01*
X168483500Y-110874338D01*
X168692192Y-110954030D01*
X168697260Y-110955061D01*
X168697263Y-110955062D01*
X168804517Y-110976883D01*
X168911097Y-110998567D01*
X168916272Y-110998757D01*
X168916274Y-110998757D01*
X169129173Y-111006564D01*
X169129177Y-111006564D01*
X169134337Y-111006753D01*
X169139457Y-111006097D01*
X169139459Y-111006097D01*
X169350788Y-110979025D01*
X169350789Y-110979025D01*
X169355916Y-110978368D01*
X169360866Y-110976883D01*
X169564929Y-110915661D01*
X169564934Y-110915659D01*
X169569884Y-110914174D01*
X169770494Y-110815896D01*
X169952360Y-110686173D01*
X170110596Y-110528489D01*
X170145948Y-110479292D01*
X170240953Y-110347077D01*
X170242276Y-110348028D01*
X170289145Y-110304857D01*
X170359080Y-110292625D01*
X170424526Y-110320144D01*
X170452375Y-110351994D01*
X170512487Y-110450088D01*
X170658750Y-110618938D01*
X170830626Y-110761632D01*
X171023500Y-110874338D01*
X171232192Y-110954030D01*
X171237260Y-110955061D01*
X171237263Y-110955062D01*
X171344517Y-110976883D01*
X171451097Y-110998567D01*
X171456272Y-110998757D01*
X171456274Y-110998757D01*
X171669173Y-111006564D01*
X171669177Y-111006564D01*
X171674337Y-111006753D01*
X171679457Y-111006097D01*
X171679459Y-111006097D01*
X171890788Y-110979025D01*
X171890789Y-110979025D01*
X171895916Y-110978368D01*
X171900866Y-110976883D01*
X172104929Y-110915661D01*
X172104934Y-110915659D01*
X172109884Y-110914174D01*
X172310494Y-110815896D01*
X172492360Y-110686173D01*
X172650596Y-110528489D01*
X172685948Y-110479292D01*
X172777935Y-110351277D01*
X172780953Y-110347077D01*
X172801820Y-110304857D01*
X172877636Y-110151453D01*
X172877637Y-110151451D01*
X172879930Y-110146811D01*
X172933511Y-109970455D01*
X172943365Y-109938023D01*
X172943365Y-109938021D01*
X172944870Y-109933069D01*
X172974029Y-109711590D01*
X172974111Y-109708240D01*
X172975574Y-109648365D01*
X172975574Y-109648361D01*
X172975656Y-109645000D01*
X172957352Y-109422361D01*
X172902931Y-109205702D01*
X172813854Y-109000840D01*
X172749212Y-108900919D01*
X172695322Y-108817617D01*
X172695320Y-108817614D01*
X172692514Y-108813277D01*
X172542170Y-108648051D01*
X172538119Y-108644852D01*
X172538115Y-108644848D01*
X172370914Y-108512800D01*
X172370910Y-108512798D01*
X172366859Y-108509598D01*
X172325069Y-108486529D01*
X172275098Y-108436097D01*
X172260326Y-108366654D01*
X172285442Y-108300248D01*
X172312794Y-108273641D01*
X172487828Y-108148792D01*
X172495700Y-108142139D01*
X172646552Y-107991812D01*
X172653230Y-107983965D01*
X172777503Y-107811020D01*
X172782813Y-107802183D01*
X172877170Y-107611267D01*
X172880969Y-107601672D01*
X172942877Y-107397910D01*
X172945055Y-107387837D01*
X172946486Y-107376962D01*
X172944275Y-107362778D01*
X172931117Y-107359000D01*
X171484500Y-107359000D01*
X171416379Y-107338998D01*
X171369886Y-107285342D01*
X171358500Y-107233000D01*
X171358500Y-106977000D01*
X171378502Y-106908879D01*
X171432158Y-106862386D01*
X171484500Y-106851000D01*
X172930844Y-106851000D01*
X172944375Y-106847027D01*
X172945680Y-106837947D01*
X172903714Y-106670875D01*
X172900394Y-106661124D01*
X172815472Y-106465814D01*
X172810605Y-106456739D01*
X172694926Y-106277926D01*
X172688636Y-106269757D01*
X172545306Y-106112240D01*
X172537773Y-106105215D01*
X172370639Y-105973222D01*
X172362056Y-105967520D01*
X172325102Y-105947120D01*
X172275131Y-105896687D01*
X172260359Y-105827245D01*
X172285475Y-105760839D01*
X172312827Y-105734232D01*
X172375915Y-105689232D01*
X172492360Y-105606173D01*
X172650596Y-105448489D01*
X172676381Y-105412606D01*
X172777935Y-105271277D01*
X172780953Y-105267077D01*
X172801118Y-105226277D01*
X172877636Y-105071453D01*
X172877637Y-105071451D01*
X172879930Y-105066811D01*
X172944870Y-104853069D01*
X172974029Y-104631590D01*
X172974111Y-104628240D01*
X172975574Y-104568365D01*
X172975574Y-104568361D01*
X172975656Y-104565000D01*
X172957352Y-104342361D01*
X172902931Y-104125702D01*
X172813854Y-103920840D01*
X172753392Y-103827380D01*
X172695322Y-103737617D01*
X172695320Y-103737614D01*
X172692514Y-103733277D01*
X172542170Y-103568051D01*
X172538119Y-103564852D01*
X172538115Y-103564848D01*
X172370914Y-103432800D01*
X172370910Y-103432798D01*
X172366859Y-103429598D01*
X172325553Y-103406796D01*
X172275584Y-103356364D01*
X172260812Y-103286921D01*
X172285928Y-103220516D01*
X172313280Y-103193909D01*
X172376368Y-103148909D01*
X172492360Y-103066173D01*
X172511368Y-103047232D01*
X172605809Y-102953120D01*
X172650596Y-102908489D01*
X172678730Y-102869337D01*
X172777935Y-102731277D01*
X172780953Y-102727077D01*
X172786181Y-102716500D01*
X172877636Y-102531453D01*
X172877637Y-102531451D01*
X172879930Y-102526811D01*
X172930750Y-102359542D01*
X172943365Y-102318023D01*
X172943365Y-102318021D01*
X172944870Y-102313069D01*
X172974029Y-102091590D01*
X172974708Y-102063813D01*
X172975574Y-102028365D01*
X172975574Y-102028361D01*
X172975656Y-102025000D01*
X172957352Y-101802361D01*
X172902931Y-101585702D01*
X172813854Y-101380840D01*
X172741250Y-101268611D01*
X172695322Y-101197617D01*
X172695320Y-101197614D01*
X172692514Y-101193277D01*
X172542170Y-101028051D01*
X172538119Y-101024852D01*
X172538115Y-101024848D01*
X172370914Y-100892800D01*
X172370910Y-100892798D01*
X172366859Y-100889598D01*
X172325553Y-100866796D01*
X172275584Y-100816364D01*
X172260812Y-100746921D01*
X172285928Y-100680516D01*
X172313280Y-100653909D01*
X172376368Y-100608909D01*
X172492360Y-100526173D01*
X172548673Y-100470057D01*
X172604988Y-100413938D01*
X172650596Y-100368489D01*
X172685948Y-100319292D01*
X172777935Y-100191277D01*
X172780953Y-100187077D01*
X172801118Y-100146277D01*
X172877636Y-99991453D01*
X172877637Y-99991451D01*
X172879930Y-99986811D01*
X172944870Y-99773069D01*
X172974029Y-99551590D01*
X172974985Y-99512452D01*
X172975574Y-99488365D01*
X172975574Y-99488361D01*
X172975656Y-99485000D01*
X172957352Y-99262361D01*
X172902931Y-99045702D01*
X172813854Y-98840840D01*
X172758117Y-98754684D01*
X172695322Y-98657617D01*
X172695320Y-98657614D01*
X172692514Y-98653277D01*
X172542170Y-98488051D01*
X172538119Y-98484852D01*
X172538115Y-98484848D01*
X172370914Y-98352800D01*
X172370910Y-98352798D01*
X172366859Y-98349598D01*
X172325553Y-98326796D01*
X172275584Y-98276364D01*
X172260812Y-98206921D01*
X172285928Y-98140516D01*
X172313280Y-98113909D01*
X172381113Y-98065524D01*
X172492360Y-97986173D01*
X172505965Y-97972616D01*
X172604988Y-97873938D01*
X172650596Y-97828489D01*
X172676810Y-97792009D01*
X172777935Y-97651277D01*
X172780953Y-97647077D01*
X172801118Y-97606277D01*
X172877636Y-97451453D01*
X172877637Y-97451451D01*
X172879930Y-97446811D01*
X172944870Y-97233069D01*
X172974029Y-97011590D01*
X172974111Y-97008240D01*
X172975574Y-96948365D01*
X172975574Y-96948361D01*
X172975656Y-96945000D01*
X172957352Y-96722361D01*
X172902931Y-96505702D01*
X172813854Y-96300840D01*
X172746641Y-96196944D01*
X172695322Y-96117617D01*
X172695320Y-96117614D01*
X172692514Y-96113277D01*
X172542170Y-95948051D01*
X172538119Y-95944852D01*
X172538115Y-95944848D01*
X172370914Y-95812800D01*
X172370910Y-95812798D01*
X172366859Y-95809598D01*
X172325553Y-95786796D01*
X172275584Y-95736364D01*
X172260812Y-95666921D01*
X172285928Y-95600516D01*
X172313280Y-95573909D01*
X172376368Y-95528909D01*
X172492360Y-95446173D01*
X172650596Y-95288489D01*
X172685948Y-95239292D01*
X172777935Y-95111277D01*
X172780953Y-95107077D01*
X172801118Y-95066277D01*
X172877636Y-94911453D01*
X172877637Y-94911451D01*
X172879930Y-94906811D01*
X172944870Y-94693069D01*
X172974029Y-94471590D01*
X172974111Y-94468240D01*
X172975574Y-94408365D01*
X172975574Y-94408361D01*
X172975656Y-94405000D01*
X172957352Y-94182361D01*
X172902931Y-93965702D01*
X172813854Y-93760840D01*
X172692514Y-93573277D01*
X172542170Y-93408051D01*
X172538119Y-93404852D01*
X172538115Y-93404848D01*
X172370914Y-93272800D01*
X172370910Y-93272798D01*
X172366859Y-93269598D01*
X172325069Y-93246529D01*
X172275098Y-93196097D01*
X172260326Y-93126654D01*
X172285442Y-93060248D01*
X172312794Y-93033641D01*
X172487828Y-92908792D01*
X172495700Y-92902139D01*
X172646552Y-92751812D01*
X172653230Y-92743965D01*
X172777503Y-92571020D01*
X172782813Y-92562183D01*
X172877170Y-92371267D01*
X172880969Y-92361672D01*
X172942877Y-92157910D01*
X172945055Y-92147837D01*
X172946486Y-92136962D01*
X172944275Y-92122778D01*
X172931117Y-92119000D01*
X171484500Y-92119000D01*
X171416379Y-92098998D01*
X171369886Y-92045342D01*
X171358500Y-91993000D01*
X171358500Y-91592885D01*
X171866500Y-91592885D01*
X171870975Y-91608124D01*
X171872365Y-91609329D01*
X171880048Y-91611000D01*
X172930844Y-91611000D01*
X172944375Y-91607027D01*
X172945680Y-91597947D01*
X172903714Y-91430875D01*
X172900394Y-91421124D01*
X172815472Y-91225814D01*
X172810605Y-91216739D01*
X172694926Y-91037926D01*
X172688636Y-91029757D01*
X172545306Y-90872240D01*
X172537773Y-90865215D01*
X172370639Y-90733222D01*
X172362052Y-90727517D01*
X172175617Y-90624599D01*
X172166205Y-90620369D01*
X171965459Y-90549280D01*
X171955488Y-90546646D01*
X171884337Y-90533972D01*
X171871040Y-90535432D01*
X171866500Y-90549989D01*
X171866500Y-91592885D01*
X171358500Y-91592885D01*
X171358500Y-90548102D01*
X171354582Y-90534758D01*
X171340306Y-90532771D01*
X171301824Y-90538660D01*
X171291788Y-90541051D01*
X171089368Y-90607212D01*
X171079859Y-90611209D01*
X170890963Y-90709542D01*
X170882238Y-90715036D01*
X170711933Y-90842905D01*
X170704226Y-90849748D01*
X170626978Y-90930584D01*
X170565454Y-90966014D01*
X170494542Y-90962557D01*
X170436755Y-90921311D01*
X170417902Y-90887763D01*
X170376267Y-90776703D01*
X170373115Y-90768295D01*
X170285761Y-90651739D01*
X170169205Y-90564385D01*
X170032816Y-90513255D01*
X169970634Y-90506500D01*
X169832000Y-90506500D01*
X169763879Y-90486498D01*
X169717386Y-90432842D01*
X169706000Y-90380500D01*
X169706000Y-89681263D01*
X169706527Y-89670079D01*
X169708201Y-89662591D01*
X169706062Y-89594532D01*
X169706000Y-89590575D01*
X169706000Y-89562644D01*
X169705494Y-89558638D01*
X169704561Y-89546792D01*
X169703422Y-89510537D01*
X169703173Y-89502610D01*
X169697522Y-89483158D01*
X169693514Y-89463806D01*
X169691967Y-89451563D01*
X169690974Y-89443703D01*
X169688056Y-89436332D01*
X169674700Y-89402597D01*
X169670855Y-89391370D01*
X169667942Y-89381344D01*
X169658518Y-89348907D01*
X169654484Y-89342085D01*
X169654481Y-89342079D01*
X169648206Y-89331468D01*
X169639510Y-89313718D01*
X169634972Y-89302256D01*
X169634969Y-89302251D01*
X169632052Y-89294883D01*
X169606073Y-89259125D01*
X169599557Y-89249207D01*
X169587931Y-89229549D01*
X169577042Y-89211137D01*
X169562718Y-89196813D01*
X169549876Y-89181778D01*
X169537972Y-89165393D01*
X169503906Y-89137211D01*
X169495127Y-89129222D01*
X168923652Y-88557747D01*
X168916112Y-88549461D01*
X168912000Y-88542982D01*
X168862348Y-88496356D01*
X168859507Y-88493602D01*
X168839770Y-88473865D01*
X168836573Y-88471385D01*
X168827551Y-88463680D01*
X168809152Y-88446402D01*
X168795321Y-88433414D01*
X168788375Y-88429595D01*
X168788372Y-88429593D01*
X168777566Y-88423652D01*
X168761047Y-88412801D01*
X168760583Y-88412441D01*
X168745041Y-88400386D01*
X168737772Y-88397241D01*
X168737768Y-88397238D01*
X168704463Y-88382826D01*
X168693813Y-88377609D01*
X168655060Y-88356305D01*
X168635437Y-88351267D01*
X168616734Y-88344863D01*
X168605420Y-88339967D01*
X168605419Y-88339967D01*
X168598145Y-88336819D01*
X168590322Y-88335580D01*
X168590312Y-88335577D01*
X168554476Y-88329901D01*
X168542856Y-88327495D01*
X168507711Y-88318472D01*
X168507710Y-88318472D01*
X168500030Y-88316500D01*
X168479776Y-88316500D01*
X168460065Y-88314949D01*
X168447886Y-88313020D01*
X168440057Y-88311780D01*
X168432165Y-88312526D01*
X168396039Y-88315941D01*
X168384181Y-88316500D01*
X166929197Y-88316500D01*
X166861076Y-88296498D01*
X166814583Y-88242842D01*
X166809674Y-88230377D01*
X166793867Y-88182998D01*
X166793866Y-88182996D01*
X166791550Y-88176054D01*
X166698478Y-88025652D01*
X166573303Y-87900695D01*
X166442981Y-87820363D01*
X166428968Y-87811725D01*
X166428966Y-87811724D01*
X166422738Y-87807885D01*
X166326429Y-87775941D01*
X166261389Y-87754368D01*
X166261387Y-87754368D01*
X166254861Y-87752203D01*
X166248025Y-87751503D01*
X166248022Y-87751502D01*
X166204969Y-87747091D01*
X166150400Y-87741500D01*
X165349600Y-87741500D01*
X165346354Y-87741837D01*
X165346350Y-87741837D01*
X165250692Y-87751762D01*
X165250688Y-87751763D01*
X165243834Y-87752474D01*
X165237298Y-87754655D01*
X165237296Y-87754655D01*
X165173495Y-87775941D01*
X165076054Y-87808450D01*
X164925652Y-87901522D01*
X164920479Y-87906704D01*
X164839216Y-87988109D01*
X164776934Y-88022188D01*
X164706114Y-88017185D01*
X164661027Y-87988266D01*
X164639143Y-87966421D01*
X164605062Y-87904139D01*
X164608326Y-87838311D01*
X164643542Y-87729928D01*
X164646169Y-87704940D01*
X164662814Y-87546565D01*
X164663504Y-87540000D01*
X164653157Y-87441556D01*
X164644232Y-87356635D01*
X164644232Y-87356633D01*
X164643542Y-87350072D01*
X164608920Y-87243517D01*
X165079000Y-87243517D01*
X165083064Y-87257359D01*
X165096478Y-87259393D01*
X165103184Y-87258534D01*
X165113262Y-87256392D01*
X165317255Y-87195191D01*
X165326842Y-87191433D01*
X165518095Y-87097739D01*
X165526945Y-87092464D01*
X165700328Y-86968792D01*
X165708200Y-86962139D01*
X165859052Y-86811812D01*
X165865730Y-86803965D01*
X165990003Y-86631020D01*
X165995313Y-86622183D01*
X166089670Y-86431267D01*
X166093469Y-86421672D01*
X166155377Y-86217910D01*
X166157555Y-86207837D01*
X166158986Y-86196962D01*
X166156775Y-86182778D01*
X166143617Y-86179000D01*
X165097115Y-86179000D01*
X165081876Y-86183475D01*
X165080671Y-86184865D01*
X165079000Y-86192548D01*
X165079000Y-87243517D01*
X164608920Y-87243517D01*
X164601281Y-87220006D01*
X164586568Y-87174725D01*
X164586567Y-87174724D01*
X164584527Y-87168444D01*
X164581778Y-87163682D01*
X164571000Y-87112977D01*
X164571000Y-86197115D01*
X164566525Y-86181876D01*
X164565135Y-86180671D01*
X164557452Y-86179000D01*
X162557115Y-86179000D01*
X162541876Y-86183475D01*
X162540671Y-86184865D01*
X162539000Y-86192548D01*
X162539000Y-87243517D01*
X162543064Y-87257359D01*
X162556478Y-87259393D01*
X162563184Y-87258534D01*
X162573262Y-87256392D01*
X162694542Y-87220006D01*
X162765538Y-87219590D01*
X162825488Y-87257622D01*
X162855360Y-87322028D01*
X162856060Y-87353859D01*
X162836496Y-87540000D01*
X162837186Y-87546565D01*
X162853832Y-87704940D01*
X162856458Y-87729928D01*
X162858497Y-87736203D01*
X162858498Y-87736206D01*
X162891676Y-87838317D01*
X162893704Y-87909284D01*
X162861016Y-87966271D01*
X162800695Y-88026697D01*
X162707885Y-88177262D01*
X162705581Y-88184209D01*
X162654963Y-88336819D01*
X162652203Y-88345139D01*
X162651503Y-88351975D01*
X162651502Y-88351978D01*
X162647561Y-88390448D01*
X162641500Y-88449600D01*
X162641500Y-89450400D01*
X162641837Y-89453646D01*
X162641837Y-89453650D01*
X162647740Y-89510537D01*
X162652474Y-89556166D01*
X162654655Y-89562702D01*
X162654655Y-89562704D01*
X162694210Y-89681263D01*
X162708450Y-89723946D01*
X162801522Y-89874348D01*
X162926697Y-89999305D01*
X162932927Y-90003145D01*
X162932928Y-90003146D01*
X163043474Y-90071288D01*
X163090968Y-90124061D01*
X163102391Y-90194132D01*
X163074117Y-90259256D01*
X163066453Y-90267643D01*
X160267747Y-93066348D01*
X160259461Y-93073888D01*
X160252982Y-93078000D01*
X160247557Y-93083777D01*
X160206357Y-93127651D01*
X160203602Y-93130493D01*
X160183865Y-93150230D01*
X160181385Y-93153427D01*
X160173682Y-93162447D01*
X160171721Y-93164535D01*
X160161350Y-93175579D01*
X160100137Y-93211545D01*
X160029197Y-93208706D01*
X159971053Y-93167966D01*
X159944165Y-93102257D01*
X159943500Y-93089326D01*
X159943500Y-92664594D01*
X159963502Y-92596473D01*
X159980405Y-92575499D01*
X161150499Y-91405405D01*
X161212811Y-91371379D01*
X161239594Y-91368500D01*
X161295487Y-91368500D01*
X161301939Y-91367128D01*
X161301944Y-91367128D01*
X161388887Y-91348647D01*
X161482288Y-91328794D01*
X161528204Y-91308351D01*
X161650722Y-91253803D01*
X161650724Y-91253802D01*
X161656752Y-91251118D01*
X161811253Y-91138866D01*
X161939040Y-90996944D01*
X162034527Y-90831556D01*
X162093542Y-90649928D01*
X162094820Y-90637775D01*
X162112814Y-90466565D01*
X162113504Y-90460000D01*
X162093542Y-90270072D01*
X162034527Y-90088444D01*
X162036873Y-90087682D01*
X162028917Y-90028379D01*
X162059019Y-89964079D01*
X162064287Y-89958469D01*
X162144134Y-89878483D01*
X162149305Y-89873303D01*
X162185626Y-89814380D01*
X162238275Y-89728968D01*
X162238276Y-89728966D01*
X162242115Y-89722738D01*
X162276057Y-89620405D01*
X162295632Y-89561389D01*
X162295632Y-89561387D01*
X162297797Y-89554861D01*
X162308500Y-89450400D01*
X162308500Y-88449600D01*
X162308070Y-88445458D01*
X162298238Y-88350692D01*
X162298237Y-88350688D01*
X162297526Y-88343834D01*
X162292573Y-88328986D01*
X162243868Y-88183002D01*
X162241550Y-88176054D01*
X162148478Y-88025652D01*
X162023303Y-87900695D01*
X161892981Y-87820363D01*
X161878968Y-87811725D01*
X161878966Y-87811724D01*
X161872738Y-87807885D01*
X161776429Y-87775941D01*
X161711389Y-87754368D01*
X161711387Y-87754368D01*
X161704861Y-87752203D01*
X161698025Y-87751503D01*
X161698022Y-87751502D01*
X161654969Y-87747091D01*
X161600400Y-87741500D01*
X161098595Y-87741500D01*
X161030474Y-87721498D01*
X160983981Y-87667842D01*
X160973877Y-87597568D01*
X161003371Y-87532988D01*
X161009500Y-87526405D01*
X161392253Y-87143652D01*
X161400539Y-87136112D01*
X161407018Y-87132000D01*
X161427483Y-87110206D01*
X161488697Y-87074240D01*
X161559637Y-87077079D01*
X161582905Y-87087671D01*
X161691761Y-87151282D01*
X161701042Y-87155729D01*
X161900001Y-87231703D01*
X161909899Y-87234579D01*
X162013250Y-87255606D01*
X162027299Y-87254410D01*
X162031000Y-87244065D01*
X162031000Y-86197115D01*
X162026525Y-86181876D01*
X162025135Y-86180671D01*
X162017452Y-86179000D01*
X161759500Y-86179000D01*
X161691379Y-86158998D01*
X161644886Y-86105342D01*
X161633500Y-86053000D01*
X161633500Y-85797000D01*
X161653502Y-85728879D01*
X161707158Y-85682386D01*
X161759500Y-85671000D01*
X166143344Y-85671000D01*
X166156875Y-85667027D01*
X166158180Y-85657947D01*
X166116214Y-85490875D01*
X166112894Y-85481124D01*
X166027972Y-85285814D01*
X166023105Y-85276739D01*
X165907426Y-85097926D01*
X165901136Y-85089757D01*
X165757293Y-84931677D01*
X165726241Y-84867831D01*
X165734635Y-84797333D01*
X165779812Y-84742564D01*
X165806256Y-84728895D01*
X165913297Y-84688767D01*
X165921705Y-84685615D01*
X166038261Y-84598261D01*
X166125615Y-84481705D01*
X166176745Y-84345316D01*
X166183500Y-84283134D01*
X166183500Y-82486866D01*
X166176745Y-82424684D01*
X166125615Y-82288295D01*
X166038261Y-82171739D01*
X165921705Y-82084385D01*
X165785316Y-82033255D01*
X165723134Y-82026500D01*
X165509557Y-82026500D01*
X165441436Y-82006498D01*
X165401145Y-81964709D01*
X165400747Y-81964037D01*
X165392008Y-81946213D01*
X165387472Y-81934758D01*
X165384552Y-81927383D01*
X165358563Y-81891612D01*
X165352047Y-81881692D01*
X165333578Y-81850463D01*
X165329542Y-81843638D01*
X165315221Y-81829317D01*
X165302380Y-81814283D01*
X165295131Y-81804306D01*
X165290472Y-81797893D01*
X165284367Y-81792842D01*
X165284362Y-81792837D01*
X165256396Y-81769701D01*
X165247618Y-81761713D01*
X164553652Y-81067747D01*
X164546112Y-81059461D01*
X164542000Y-81052982D01*
X164492348Y-81006356D01*
X164489507Y-81003602D01*
X164469770Y-80983865D01*
X164466573Y-80981385D01*
X164457551Y-80973680D01*
X164444116Y-80961064D01*
X164425321Y-80943414D01*
X164418375Y-80939595D01*
X164418372Y-80939593D01*
X164407566Y-80933652D01*
X164391047Y-80922801D01*
X164390583Y-80922441D01*
X164375041Y-80910386D01*
X164367772Y-80907241D01*
X164367768Y-80907238D01*
X164334463Y-80892826D01*
X164323813Y-80887609D01*
X164285060Y-80866305D01*
X164265437Y-80861267D01*
X164246734Y-80854863D01*
X164235420Y-80849967D01*
X164235419Y-80849967D01*
X164228145Y-80846819D01*
X164220322Y-80845580D01*
X164220312Y-80845577D01*
X164184476Y-80839901D01*
X164172856Y-80837495D01*
X164137711Y-80828472D01*
X164137710Y-80828472D01*
X164130030Y-80826500D01*
X164109776Y-80826500D01*
X164090065Y-80824949D01*
X164087534Y-80824548D01*
X164070057Y-80821780D01*
X164062165Y-80822526D01*
X164026039Y-80825941D01*
X164014181Y-80826500D01*
X158348763Y-80826500D01*
X158337579Y-80825973D01*
X158330091Y-80824299D01*
X158322168Y-80824548D01*
X158262033Y-80826438D01*
X158258075Y-80826500D01*
X158230144Y-80826500D01*
X158226229Y-80826995D01*
X158226225Y-80826995D01*
X158226167Y-80827003D01*
X158226138Y-80827006D01*
X158214296Y-80827939D01*
X158170110Y-80829327D01*
X158152744Y-80834372D01*
X158150658Y-80834978D01*
X158131306Y-80838986D01*
X158119068Y-80840532D01*
X158119066Y-80840533D01*
X158111203Y-80841526D01*
X158070086Y-80857806D01*
X158058885Y-80861641D01*
X158016406Y-80873982D01*
X158009587Y-80878015D01*
X158009582Y-80878017D01*
X157998971Y-80884293D01*
X157981221Y-80892990D01*
X157962383Y-80900448D01*
X157955967Y-80905109D01*
X157955966Y-80905110D01*
X157926625Y-80926428D01*
X157916701Y-80932947D01*
X157885460Y-80951422D01*
X157885455Y-80951426D01*
X157878637Y-80955458D01*
X157864313Y-80969782D01*
X157849281Y-80982621D01*
X157832893Y-80994528D01*
X157807426Y-81025312D01*
X157804712Y-81028593D01*
X157796722Y-81037373D01*
X157177747Y-81656348D01*
X157169461Y-81663888D01*
X157162982Y-81668000D01*
X157157557Y-81673777D01*
X157116357Y-81717651D01*
X157113602Y-81720493D01*
X157093865Y-81740230D01*
X157091385Y-81743427D01*
X157083682Y-81752447D01*
X157053414Y-81784679D01*
X157049595Y-81791625D01*
X157049593Y-81791628D01*
X157043652Y-81802434D01*
X157032801Y-81818953D01*
X157020386Y-81834959D01*
X157017241Y-81842228D01*
X157017238Y-81842232D01*
X157002826Y-81875537D01*
X156997609Y-81886187D01*
X156976305Y-81924940D01*
X156974334Y-81932615D01*
X156974334Y-81932616D01*
X156971267Y-81944562D01*
X156964863Y-81963266D01*
X156956819Y-81981855D01*
X156955580Y-81989678D01*
X156955577Y-81989688D01*
X156949901Y-82025524D01*
X156947495Y-82037144D01*
X156936500Y-82079970D01*
X156936500Y-82100224D01*
X156934949Y-82119934D01*
X156931780Y-82139943D01*
X156932526Y-82147835D01*
X156935941Y-82183961D01*
X156936500Y-82195819D01*
X156936500Y-85055405D01*
X156916498Y-85123526D01*
X156899595Y-85144501D01*
X156764499Y-85279596D01*
X156702187Y-85313621D01*
X156675404Y-85316500D01*
X156198767Y-85316500D01*
X156187584Y-85315973D01*
X156180091Y-85314298D01*
X156172165Y-85314547D01*
X156172164Y-85314547D01*
X156112001Y-85316438D01*
X156108043Y-85316500D01*
X156080144Y-85316500D01*
X156076154Y-85317004D01*
X156064320Y-85317936D01*
X156020111Y-85319326D01*
X156012497Y-85321538D01*
X156012492Y-85321539D01*
X156000659Y-85324977D01*
X155981296Y-85328988D01*
X155961203Y-85331526D01*
X155953836Y-85334443D01*
X155953831Y-85334444D01*
X155920092Y-85347802D01*
X155908865Y-85351646D01*
X155866407Y-85363982D01*
X155859581Y-85368019D01*
X155848972Y-85374293D01*
X155831224Y-85382988D01*
X155812383Y-85390448D01*
X155805967Y-85395110D01*
X155805966Y-85395110D01*
X155776613Y-85416436D01*
X155766693Y-85422952D01*
X155735465Y-85441420D01*
X155735462Y-85441422D01*
X155728638Y-85445458D01*
X155714317Y-85459779D01*
X155699284Y-85472619D01*
X155682893Y-85484528D01*
X155671243Y-85498611D01*
X155654702Y-85518605D01*
X155646712Y-85527384D01*
X154257747Y-86916348D01*
X154249461Y-86923888D01*
X154242982Y-86928000D01*
X154237557Y-86933777D01*
X154196357Y-86977651D01*
X154193602Y-86980493D01*
X154173865Y-87000230D01*
X154171385Y-87003427D01*
X154163682Y-87012447D01*
X154133414Y-87044679D01*
X154129595Y-87051625D01*
X154129593Y-87051628D01*
X154123652Y-87062434D01*
X154112801Y-87078953D01*
X154100386Y-87094959D01*
X154097241Y-87102228D01*
X154097238Y-87102232D01*
X154082826Y-87135537D01*
X154077609Y-87146187D01*
X154056305Y-87184940D01*
X154054334Y-87192615D01*
X154054334Y-87192616D01*
X154051267Y-87204562D01*
X154044863Y-87223266D01*
X154039968Y-87234579D01*
X154036819Y-87241855D01*
X154035580Y-87249678D01*
X154035577Y-87249688D01*
X154029901Y-87285524D01*
X154027495Y-87297144D01*
X154018472Y-87332289D01*
X154016500Y-87339970D01*
X154016500Y-87360224D01*
X154014949Y-87379934D01*
X154011780Y-87399943D01*
X154012526Y-87407835D01*
X154015941Y-87443961D01*
X154016500Y-87455819D01*
X154016500Y-87713219D01*
X153996498Y-87781340D01*
X153956803Y-87820363D01*
X153825652Y-87901522D01*
X153820479Y-87906704D01*
X153815635Y-87911556D01*
X153700695Y-88026697D01*
X153607885Y-88177262D01*
X153605581Y-88184209D01*
X153605580Y-88184212D01*
X153585948Y-88243401D01*
X153545518Y-88301761D01*
X153501407Y-88324760D01*
X153500654Y-88324979D01*
X153500558Y-88325007D01*
X153481306Y-88328986D01*
X153469068Y-88330532D01*
X153469066Y-88330533D01*
X153461203Y-88331526D01*
X153420086Y-88347806D01*
X153408885Y-88351641D01*
X153366406Y-88363982D01*
X153359587Y-88368015D01*
X153359582Y-88368017D01*
X153348971Y-88374293D01*
X153331221Y-88382990D01*
X153312383Y-88390448D01*
X153305967Y-88395109D01*
X153305966Y-88395110D01*
X153276625Y-88416428D01*
X153266701Y-88422947D01*
X153235460Y-88441422D01*
X153235455Y-88441426D01*
X153228637Y-88445458D01*
X153214313Y-88459782D01*
X153199281Y-88472621D01*
X153182893Y-88484528D01*
X153154712Y-88518593D01*
X153146722Y-88527373D01*
X151052747Y-90621348D01*
X151044461Y-90628888D01*
X151037982Y-90633000D01*
X151032557Y-90638777D01*
X151026351Y-90645386D01*
X150965138Y-90681352D01*
X150894198Y-90678515D01*
X150836054Y-90637775D01*
X150809165Y-90572067D01*
X150808500Y-90559134D01*
X150808500Y-86847094D01*
X150828502Y-86778973D01*
X150845405Y-86757999D01*
X156244747Y-81358657D01*
X156253037Y-81351113D01*
X156259518Y-81347000D01*
X156306159Y-81297332D01*
X156308913Y-81294491D01*
X156328635Y-81274769D01*
X156331112Y-81271576D01*
X156338817Y-81262555D01*
X156363659Y-81236100D01*
X156369086Y-81230321D01*
X156372907Y-81223371D01*
X156378846Y-81212568D01*
X156389702Y-81196041D01*
X156397257Y-81186302D01*
X156397258Y-81186300D01*
X156402114Y-81180040D01*
X156419674Y-81139460D01*
X156424891Y-81128812D01*
X156442375Y-81097009D01*
X156442376Y-81097007D01*
X156446195Y-81090060D01*
X156451233Y-81070437D01*
X156457637Y-81051734D01*
X156462533Y-81040420D01*
X156462533Y-81040419D01*
X156465681Y-81033145D01*
X156466920Y-81025322D01*
X156466923Y-81025312D01*
X156472599Y-80989476D01*
X156475005Y-80977856D01*
X156484028Y-80942711D01*
X156484028Y-80942710D01*
X156486000Y-80935030D01*
X156486000Y-80914776D01*
X156487551Y-80895065D01*
X156489480Y-80882886D01*
X156490720Y-80875057D01*
X156486559Y-80831038D01*
X156486000Y-80819181D01*
X156486000Y-79550427D01*
X156506002Y-79482306D01*
X156547118Y-79442550D01*
X156550494Y-79440896D01*
X156732360Y-79311173D01*
X156890596Y-79153489D01*
X157020953Y-78972077D01*
X157034495Y-78944678D01*
X157117636Y-78776453D01*
X157117637Y-78776451D01*
X157119930Y-78771811D01*
X157184870Y-78558069D01*
X157214029Y-78336590D01*
X157215656Y-78270000D01*
X157197352Y-78047361D01*
X157142931Y-77830702D01*
X157053854Y-77625840D01*
X156941228Y-77451747D01*
X156935322Y-77442617D01*
X156935320Y-77442614D01*
X156932514Y-77438277D01*
X156929038Y-77434457D01*
X156929033Y-77434450D01*
X156784935Y-77276088D01*
X156753883Y-77212242D01*
X156762279Y-77141744D01*
X156807456Y-77086976D01*
X156833900Y-77073307D01*
X156940552Y-77033325D01*
X156956149Y-77024786D01*
X157058224Y-76948285D01*
X157070785Y-76935724D01*
X157147286Y-76833649D01*
X157155824Y-76818054D01*
X157196737Y-76708918D01*
X168964417Y-76708918D01*
X168964834Y-76716156D01*
X168980182Y-76982320D01*
X169032905Y-77251053D01*
X169034292Y-77255103D01*
X169034293Y-77255108D01*
X169101618Y-77451747D01*
X169121612Y-77510144D01*
X169152637Y-77571830D01*
X169220337Y-77706437D01*
X169244660Y-77754799D01*
X169247086Y-77758328D01*
X169247089Y-77758334D01*
X169397343Y-77976953D01*
X169399774Y-77980490D01*
X169402661Y-77983663D01*
X169402662Y-77983664D01*
X169465318Y-78052522D01*
X169584082Y-78183043D01*
X169794175Y-78358707D01*
X169797816Y-78360991D01*
X170022524Y-78501951D01*
X170022528Y-78501953D01*
X170026164Y-78504234D01*
X170094044Y-78534883D01*
X170271845Y-78615164D01*
X170271849Y-78615166D01*
X170275757Y-78616930D01*
X170279877Y-78618150D01*
X170279876Y-78618150D01*
X170534223Y-78693491D01*
X170534227Y-78693492D01*
X170538336Y-78694709D01*
X170542570Y-78695357D01*
X170542575Y-78695358D01*
X170804798Y-78735483D01*
X170804800Y-78735483D01*
X170809040Y-78736132D01*
X170948412Y-78738322D01*
X171078571Y-78740367D01*
X171078577Y-78740367D01*
X171082862Y-78740434D01*
X171354735Y-78707534D01*
X171619627Y-78638041D01*
X171623587Y-78636401D01*
X171623592Y-78636399D01*
X171812696Y-78558069D01*
X171872636Y-78533241D01*
X172109082Y-78395073D01*
X172324589Y-78226094D01*
X172366309Y-78183043D01*
X172492792Y-78052522D01*
X172515169Y-78029431D01*
X172517702Y-78025983D01*
X172517706Y-78025978D01*
X172674757Y-77812178D01*
X172677295Y-77808723D01*
X172682409Y-77799305D01*
X172805918Y-77571830D01*
X172805919Y-77571828D01*
X172807968Y-77568054D01*
X172864764Y-77417747D01*
X172903251Y-77315895D01*
X172903252Y-77315891D01*
X172904769Y-77311877D01*
X172929607Y-77203427D01*
X172964949Y-77049117D01*
X172964950Y-77049113D01*
X172965907Y-77044933D01*
X172967684Y-77025029D01*
X172990031Y-76774627D01*
X172990031Y-76774625D01*
X172990251Y-76772161D01*
X172990693Y-76730000D01*
X172989256Y-76708918D01*
X172972359Y-76461055D01*
X172972358Y-76461049D01*
X172972067Y-76456778D01*
X172916532Y-76188612D01*
X172825117Y-75930465D01*
X172699513Y-75687112D01*
X172689540Y-75672921D01*
X172565199Y-75496002D01*
X172542045Y-75463057D01*
X172355625Y-75262445D01*
X172352310Y-75259731D01*
X172352306Y-75259728D01*
X172147023Y-75091706D01*
X172143705Y-75088990D01*
X171910204Y-74945901D01*
X171906268Y-74944173D01*
X171663373Y-74837549D01*
X171663369Y-74837548D01*
X171659445Y-74835825D01*
X171396066Y-74760800D01*
X171391824Y-74760196D01*
X171391818Y-74760195D01*
X171181167Y-74730215D01*
X171124943Y-74722213D01*
X170981089Y-74721460D01*
X170855377Y-74720802D01*
X170855371Y-74720802D01*
X170851091Y-74720780D01*
X170846847Y-74721339D01*
X170846843Y-74721339D01*
X170728874Y-74736870D01*
X170579578Y-74756525D01*
X170575438Y-74757658D01*
X170575436Y-74757658D01*
X170558117Y-74762396D01*
X170315428Y-74828788D01*
X170311480Y-74830472D01*
X170067482Y-74934546D01*
X170067478Y-74934548D01*
X170063530Y-74936232D01*
X170043625Y-74948145D01*
X169832225Y-75074664D01*
X169832221Y-75074667D01*
X169828543Y-75076868D01*
X169614818Y-75248094D01*
X169426308Y-75446742D01*
X169266502Y-75669136D01*
X169138357Y-75911161D01*
X169136885Y-75915184D01*
X169136883Y-75915188D01*
X169045714Y-76164317D01*
X169044243Y-76168337D01*
X168985904Y-76435907D01*
X168985568Y-76440177D01*
X168971641Y-76617137D01*
X168964417Y-76708918D01*
X157196737Y-76708918D01*
X157200978Y-76697606D01*
X157204605Y-76682351D01*
X157210131Y-76631486D01*
X157210500Y-76624672D01*
X157210500Y-76002115D01*
X157206025Y-75986876D01*
X157204635Y-75985671D01*
X157196952Y-75984000D01*
X155724500Y-75984000D01*
X155656379Y-75963998D01*
X155609886Y-75910342D01*
X155598500Y-75858000D01*
X155598500Y-75602000D01*
X155618502Y-75533879D01*
X155672158Y-75487386D01*
X155724500Y-75476000D01*
X157192384Y-75476000D01*
X157207623Y-75471525D01*
X157208828Y-75470135D01*
X157210499Y-75462452D01*
X157210499Y-74835331D01*
X157210129Y-74828510D01*
X157204605Y-74777648D01*
X157200979Y-74762396D01*
X157155824Y-74641946D01*
X157147286Y-74626351D01*
X157070785Y-74524276D01*
X157058224Y-74511715D01*
X156996327Y-74465326D01*
X156953812Y-74408467D01*
X156948786Y-74337649D01*
X156982846Y-74275355D01*
X157045177Y-74241365D01*
X157071892Y-74238500D01*
X173343000Y-74238500D01*
X173411121Y-74258502D01*
X173457614Y-74312158D01*
X173469000Y-74364500D01*
X173469000Y-127095500D01*
X173448998Y-127163621D01*
X173395342Y-127210114D01*
X173343000Y-127221500D01*
X120612000Y-127221500D01*
X120543879Y-127201498D01*
X120497386Y-127147842D01*
X120486000Y-127095500D01*
X120486000Y-124708918D01*
X120964417Y-124708918D01*
X120964834Y-124716156D01*
X120980182Y-124982320D01*
X121032905Y-125251053D01*
X121034292Y-125255103D01*
X121034293Y-125255108D01*
X121103841Y-125458240D01*
X121121612Y-125510144D01*
X121150738Y-125568054D01*
X121220337Y-125706437D01*
X121244660Y-125754799D01*
X121247086Y-125758328D01*
X121247089Y-125758334D01*
X121345453Y-125901453D01*
X121399774Y-125980490D01*
X121402661Y-125983663D01*
X121402662Y-125983664D01*
X121581192Y-126179867D01*
X121584082Y-126183043D01*
X121587377Y-126185798D01*
X121587378Y-126185799D01*
X121599205Y-126195688D01*
X121794175Y-126358707D01*
X121797816Y-126360991D01*
X122022524Y-126501951D01*
X122022528Y-126501953D01*
X122026164Y-126504234D01*
X122094044Y-126534883D01*
X122271845Y-126615164D01*
X122271849Y-126615166D01*
X122275757Y-126616930D01*
X122279877Y-126618150D01*
X122279876Y-126618150D01*
X122534223Y-126693491D01*
X122534227Y-126693492D01*
X122538336Y-126694709D01*
X122542570Y-126695357D01*
X122542575Y-126695358D01*
X122804798Y-126735483D01*
X122804800Y-126735483D01*
X122809040Y-126736132D01*
X122948412Y-126738322D01*
X123078571Y-126740367D01*
X123078577Y-126740367D01*
X123082862Y-126740434D01*
X123354735Y-126707534D01*
X123619627Y-126638041D01*
X123623587Y-126636401D01*
X123623592Y-126636399D01*
X123788303Y-126568173D01*
X123872636Y-126533241D01*
X124109082Y-126395073D01*
X124243509Y-126289669D01*
X136714501Y-126289669D01*
X136714871Y-126296490D01*
X136720395Y-126347352D01*
X136724021Y-126362604D01*
X136769176Y-126483054D01*
X136777714Y-126498649D01*
X136854215Y-126600724D01*
X136866776Y-126613285D01*
X136968851Y-126689786D01*
X136984446Y-126698324D01*
X137104894Y-126743478D01*
X137120149Y-126747105D01*
X137171014Y-126752631D01*
X137177828Y-126753000D01*
X137800385Y-126753000D01*
X137815624Y-126748525D01*
X137816829Y-126747135D01*
X137818500Y-126739452D01*
X137818500Y-125667115D01*
X137814025Y-125651876D01*
X137812635Y-125650671D01*
X137804952Y-125649000D01*
X136732616Y-125649000D01*
X136717377Y-125653475D01*
X136716172Y-125654865D01*
X136714501Y-125662548D01*
X136714501Y-126289669D01*
X124243509Y-126289669D01*
X124324589Y-126226094D01*
X124346010Y-126203990D01*
X124512186Y-126032509D01*
X124515169Y-126029431D01*
X124517702Y-126025983D01*
X124517706Y-126025978D01*
X124674757Y-125812178D01*
X124677295Y-125808723D01*
X124704654Y-125758334D01*
X124805918Y-125571830D01*
X124805919Y-125571828D01*
X124807968Y-125568054D01*
X124874627Y-125391646D01*
X124903251Y-125315895D01*
X124903252Y-125315891D01*
X124904769Y-125311877D01*
X124948054Y-125122885D01*
X124964949Y-125049117D01*
X124964950Y-125049113D01*
X124965907Y-125044933D01*
X124974295Y-124950954D01*
X124990031Y-124774627D01*
X124990031Y-124774625D01*
X124990251Y-124772161D01*
X124990693Y-124730000D01*
X124988965Y-124704648D01*
X124972359Y-124461055D01*
X124972358Y-124461049D01*
X124972067Y-124456778D01*
X124916532Y-124188612D01*
X124825117Y-123930465D01*
X124770511Y-123824667D01*
X124701478Y-123690919D01*
X124701478Y-123690918D01*
X124699513Y-123687112D01*
X124689540Y-123672921D01*
X124588867Y-123529678D01*
X124542045Y-123463057D01*
X124374105Y-123282332D01*
X124358546Y-123265588D01*
X124358543Y-123265585D01*
X124355625Y-123262445D01*
X124352310Y-123259731D01*
X124352306Y-123259728D01*
X124147023Y-123091706D01*
X124143705Y-123088990D01*
X123910204Y-122945901D01*
X123906268Y-122944173D01*
X123810414Y-122902096D01*
X125769500Y-122902096D01*
X125769837Y-122908611D01*
X125779756Y-123004203D01*
X125782650Y-123017602D01*
X125834088Y-123171783D01*
X125840262Y-123184962D01*
X125925563Y-123322807D01*
X125934599Y-123334208D01*
X126049330Y-123448739D01*
X126060741Y-123457751D01*
X126198745Y-123542818D01*
X126211923Y-123548962D01*
X126366216Y-123600139D01*
X126379581Y-123603005D01*
X126473939Y-123612672D01*
X126480355Y-123613000D01*
X126717885Y-123613000D01*
X126733124Y-123608525D01*
X126734329Y-123607135D01*
X126736000Y-123599452D01*
X126736000Y-123594885D01*
X127244000Y-123594885D01*
X127248475Y-123610124D01*
X127249865Y-123611329D01*
X127257548Y-123613000D01*
X127499596Y-123613000D01*
X127506111Y-123612663D01*
X127601703Y-123602744D01*
X127615102Y-123599850D01*
X127769283Y-123548412D01*
X127782462Y-123542238D01*
X127920307Y-123456937D01*
X127931708Y-123447901D01*
X128046239Y-123333170D01*
X128055251Y-123321759D01*
X128140318Y-123183755D01*
X128146462Y-123170577D01*
X128197639Y-123016284D01*
X128200505Y-123002919D01*
X128210172Y-122908561D01*
X128210500Y-122902145D01*
X128210500Y-122502115D01*
X128206025Y-122486876D01*
X128204635Y-122485671D01*
X128196952Y-122484000D01*
X127262115Y-122484000D01*
X127246876Y-122488475D01*
X127245671Y-122489865D01*
X127244000Y-122497548D01*
X127244000Y-123594885D01*
X126736000Y-123594885D01*
X126736000Y-122502115D01*
X126731525Y-122486876D01*
X126730135Y-122485671D01*
X126722452Y-122484000D01*
X125787615Y-122484000D01*
X125772376Y-122488475D01*
X125771171Y-122489865D01*
X125769500Y-122497548D01*
X125769500Y-122902096D01*
X123810414Y-122902096D01*
X123663373Y-122837549D01*
X123663369Y-122837548D01*
X123659445Y-122835825D01*
X123396066Y-122760800D01*
X123391824Y-122760196D01*
X123391818Y-122760195D01*
X123182467Y-122730400D01*
X123124943Y-122722213D01*
X122981089Y-122721460D01*
X122855377Y-122720802D01*
X122855371Y-122720802D01*
X122851091Y-122720780D01*
X122846847Y-122721339D01*
X122846843Y-122721339D01*
X122727802Y-122737011D01*
X122579578Y-122756525D01*
X122575438Y-122757658D01*
X122575436Y-122757658D01*
X122502508Y-122777609D01*
X122315428Y-122828788D01*
X122311480Y-122830472D01*
X122067482Y-122934546D01*
X122067478Y-122934548D01*
X122063530Y-122936232D01*
X121949958Y-123004203D01*
X121832225Y-123074664D01*
X121832221Y-123074667D01*
X121828543Y-123076868D01*
X121614818Y-123248094D01*
X121537711Y-123329348D01*
X121432099Y-123440640D01*
X121426308Y-123446742D01*
X121266502Y-123669136D01*
X121138357Y-123911161D01*
X121136885Y-123915184D01*
X121136883Y-123915188D01*
X121058288Y-124129958D01*
X121044243Y-124168337D01*
X120985904Y-124435907D01*
X120964417Y-124708918D01*
X120486000Y-124708918D01*
X120486000Y-121957885D01*
X125769500Y-121957885D01*
X125773975Y-121973124D01*
X125775365Y-121974329D01*
X125783048Y-121976000D01*
X126717885Y-121976000D01*
X126733124Y-121971525D01*
X126734329Y-121970135D01*
X126736000Y-121962452D01*
X126736000Y-121957885D01*
X127244000Y-121957885D01*
X127248475Y-121973124D01*
X127249865Y-121974329D01*
X127257548Y-121976000D01*
X128192385Y-121976000D01*
X128207624Y-121971525D01*
X128208829Y-121970135D01*
X128210500Y-121962452D01*
X128210500Y-121557904D01*
X128210163Y-121551389D01*
X128200244Y-121455797D01*
X128197350Y-121442398D01*
X128145912Y-121288217D01*
X128139738Y-121275038D01*
X128054437Y-121137193D01*
X128045401Y-121125792D01*
X127930670Y-121011261D01*
X127919259Y-121002249D01*
X127781255Y-120917182D01*
X127768077Y-120911038D01*
X127613784Y-120859861D01*
X127600419Y-120856995D01*
X127506061Y-120847328D01*
X127499644Y-120847000D01*
X127262115Y-120847000D01*
X127246876Y-120851475D01*
X127245671Y-120852865D01*
X127244000Y-120860548D01*
X127244000Y-121957885D01*
X126736000Y-121957885D01*
X126736000Y-120865115D01*
X126731525Y-120849876D01*
X126730135Y-120848671D01*
X126722452Y-120847000D01*
X126480404Y-120847000D01*
X126473889Y-120847337D01*
X126378297Y-120857256D01*
X126364898Y-120860150D01*
X126210717Y-120911588D01*
X126197538Y-120917762D01*
X126059693Y-121003063D01*
X126048292Y-121012099D01*
X125933761Y-121126830D01*
X125924749Y-121138241D01*
X125839682Y-121276245D01*
X125833538Y-121289423D01*
X125782361Y-121443716D01*
X125779495Y-121457081D01*
X125769828Y-121551439D01*
X125769500Y-121557856D01*
X125769500Y-121957885D01*
X120486000Y-121957885D01*
X120486000Y-76708918D01*
X120964417Y-76708918D01*
X120964834Y-76716156D01*
X120980182Y-76982320D01*
X121032905Y-77251053D01*
X121034292Y-77255103D01*
X121034293Y-77255108D01*
X121101618Y-77451747D01*
X121121612Y-77510144D01*
X121152637Y-77571830D01*
X121220337Y-77706437D01*
X121244660Y-77754799D01*
X121247086Y-77758328D01*
X121247089Y-77758334D01*
X121397343Y-77976953D01*
X121399774Y-77980490D01*
X121402661Y-77983663D01*
X121402662Y-77983664D01*
X121465318Y-78052522D01*
X121584082Y-78183043D01*
X121794175Y-78358707D01*
X121797816Y-78360991D01*
X122022524Y-78501951D01*
X122022528Y-78501953D01*
X122026164Y-78504234D01*
X122094044Y-78534883D01*
X122271845Y-78615164D01*
X122271849Y-78615166D01*
X122275757Y-78616930D01*
X122279877Y-78618150D01*
X122279876Y-78618150D01*
X122534223Y-78693491D01*
X122534227Y-78693492D01*
X122538336Y-78694709D01*
X122542570Y-78695357D01*
X122542575Y-78695358D01*
X122804798Y-78735483D01*
X122804800Y-78735483D01*
X122809040Y-78736132D01*
X122948412Y-78738322D01*
X123078571Y-78740367D01*
X123078577Y-78740367D01*
X123082862Y-78740434D01*
X123354735Y-78707534D01*
X123619627Y-78638041D01*
X123623587Y-78636401D01*
X123623592Y-78636399D01*
X123812696Y-78558069D01*
X123872636Y-78533241D01*
X124109082Y-78395073D01*
X124324589Y-78226094D01*
X124366309Y-78183043D01*
X124492792Y-78052522D01*
X124515169Y-78029431D01*
X124517702Y-78025983D01*
X124517706Y-78025978D01*
X124674757Y-77812178D01*
X124677295Y-77808723D01*
X124682409Y-77799305D01*
X124805918Y-77571830D01*
X124805919Y-77571828D01*
X124807968Y-77568054D01*
X124864764Y-77417747D01*
X124903251Y-77315895D01*
X124903252Y-77315891D01*
X124904769Y-77311877D01*
X124929607Y-77203427D01*
X124964949Y-77049117D01*
X124964950Y-77049113D01*
X124965907Y-77044933D01*
X124967684Y-77025029D01*
X124990031Y-76774627D01*
X124990031Y-76774625D01*
X124990251Y-76772161D01*
X124990693Y-76730000D01*
X124989256Y-76708918D01*
X124972359Y-76461055D01*
X124972358Y-76461049D01*
X124972067Y-76456778D01*
X124916532Y-76188612D01*
X124825117Y-75930465D01*
X124699513Y-75687112D01*
X124689540Y-75672921D01*
X124565199Y-75496002D01*
X124542045Y-75463057D01*
X124355625Y-75262445D01*
X124352310Y-75259731D01*
X124352306Y-75259728D01*
X124147023Y-75091706D01*
X124143705Y-75088990D01*
X123910204Y-74945901D01*
X123906268Y-74944173D01*
X123663373Y-74837549D01*
X123663369Y-74837548D01*
X123659445Y-74835825D01*
X123396066Y-74760800D01*
X123391824Y-74760196D01*
X123391818Y-74760195D01*
X123181167Y-74730215D01*
X123124943Y-74722213D01*
X122981089Y-74721460D01*
X122855377Y-74720802D01*
X122855371Y-74720802D01*
X122851091Y-74720780D01*
X122846847Y-74721339D01*
X122846843Y-74721339D01*
X122728874Y-74736870D01*
X122579578Y-74756525D01*
X122575438Y-74757658D01*
X122575436Y-74757658D01*
X122558117Y-74762396D01*
X122315428Y-74828788D01*
X122311480Y-74830472D01*
X122067482Y-74934546D01*
X122067478Y-74934548D01*
X122063530Y-74936232D01*
X122043625Y-74948145D01*
X121832225Y-75074664D01*
X121832221Y-75074667D01*
X121828543Y-75076868D01*
X121614818Y-75248094D01*
X121426308Y-75446742D01*
X121266502Y-75669136D01*
X121138357Y-75911161D01*
X121136885Y-75915184D01*
X121136883Y-75915188D01*
X121045714Y-76164317D01*
X121044243Y-76168337D01*
X120985904Y-76435907D01*
X120985568Y-76440177D01*
X120971641Y-76617137D01*
X120964417Y-76708918D01*
X120486000Y-76708918D01*
X120486000Y-74364500D01*
X120506002Y-74296379D01*
X120559658Y-74249886D01*
X120612000Y-74238500D01*
X137480494Y-74238500D01*
X137548615Y-74258502D01*
G37*
%TD.AperFunction*%
%TA.AperFunction,Conductor*%
G36*
X168173527Y-89603502D02*
G01*
X168194501Y-89620405D01*
X168402095Y-89827999D01*
X168436121Y-89890311D01*
X168439000Y-89917094D01*
X168439000Y-90380500D01*
X168418998Y-90448621D01*
X168365342Y-90495114D01*
X168313000Y-90506500D01*
X168174366Y-90506500D01*
X168112184Y-90513255D01*
X167975795Y-90564385D01*
X167968610Y-90569770D01*
X167968608Y-90569771D01*
X167958141Y-90577616D01*
X167891635Y-90602465D01*
X167885669Y-90602555D01*
X167885413Y-90602521D01*
X167804011Y-90606360D01*
X167798075Y-90606500D01*
X167775501Y-90606500D01*
X167751386Y-90608652D01*
X167749513Y-90608819D01*
X167744250Y-90609178D01*
X167728433Y-90609924D01*
X167661011Y-90613104D01*
X167655548Y-90614355D01*
X167655542Y-90614356D01*
X167643532Y-90617107D01*
X167626600Y-90619789D01*
X167608738Y-90621383D01*
X167603327Y-90622863D01*
X167603323Y-90622864D01*
X167566274Y-90633000D01*
X167528348Y-90643376D01*
X167523250Y-90644656D01*
X167442030Y-90663258D01*
X167436869Y-90665459D01*
X167436870Y-90665459D01*
X167425533Y-90670294D01*
X167409358Y-90675927D01*
X167397461Y-90679182D01*
X167397457Y-90679183D01*
X167392049Y-90680663D01*
X167386983Y-90683079D01*
X167386984Y-90683079D01*
X167316833Y-90716539D01*
X167312024Y-90718710D01*
X167240551Y-90749196D01*
X167235391Y-90751397D01*
X167220390Y-90761251D01*
X167205475Y-90769654D01*
X167189282Y-90777378D01*
X167184734Y-90780646D01*
X167184729Y-90780649D01*
X167121614Y-90826002D01*
X167117277Y-90828982D01*
X167047625Y-90874735D01*
X167026844Y-90893251D01*
X167016548Y-90901500D01*
X167006846Y-90908471D01*
X166990554Y-90925283D01*
X166932468Y-90985223D01*
X166931079Y-90986633D01*
X166162237Y-91755475D01*
X166149847Y-91766342D01*
X166132208Y-91779877D01*
X166077688Y-91839794D01*
X166077342Y-91840174D01*
X166073243Y-91844469D01*
X166057302Y-91860410D01*
X166055507Y-91862557D01*
X166055505Y-91862559D01*
X166040568Y-91880423D01*
X166037100Y-91884398D01*
X165984788Y-91941888D01*
X165984781Y-91941897D01*
X165981015Y-91946036D01*
X165978038Y-91950782D01*
X165978037Y-91950783D01*
X165971487Y-91961225D01*
X165961411Y-91975093D01*
X165953504Y-91984549D01*
X165953497Y-91984559D01*
X165949906Y-91988854D01*
X165938442Y-92008953D01*
X165908618Y-92061240D01*
X165905908Y-92065768D01*
X165872516Y-92119000D01*
X165861636Y-92136344D01*
X165859543Y-92141549D01*
X165859542Y-92141552D01*
X165854948Y-92152979D01*
X165847488Y-92168411D01*
X165841380Y-92179119D01*
X165841376Y-92179128D01*
X165838601Y-92183993D01*
X165836732Y-92189270D01*
X165836730Y-92189275D01*
X165810785Y-92262542D01*
X165808920Y-92267478D01*
X165777844Y-92344783D01*
X165776708Y-92350270D01*
X165776707Y-92350272D01*
X165774206Y-92362349D01*
X165769601Y-92378844D01*
X165763611Y-92395759D01*
X165762704Y-92401298D01*
X165750143Y-92478001D01*
X165749183Y-92483180D01*
X165732287Y-92564767D01*
X165732021Y-92569379D01*
X165732021Y-92569380D01*
X165730685Y-92592548D01*
X165729238Y-92605653D01*
X165728214Y-92611910D01*
X165727306Y-92617457D01*
X165727394Y-92623070D01*
X165727394Y-92623072D01*
X165728984Y-92724264D01*
X165729000Y-92726243D01*
X165729000Y-105138604D01*
X165727922Y-105155051D01*
X165726267Y-105167625D01*
X165725021Y-105177086D01*
X165725286Y-105182698D01*
X165728860Y-105258488D01*
X165729000Y-105264424D01*
X165729000Y-105286999D01*
X165729250Y-105289796D01*
X165731319Y-105312988D01*
X165731678Y-105318248D01*
X165735604Y-105401488D01*
X165736856Y-105406956D01*
X165737618Y-105412517D01*
X165736970Y-105412606D01*
X165739000Y-105430560D01*
X165739000Y-106496522D01*
X165718998Y-106564643D01*
X165702095Y-106585617D01*
X163872237Y-108415475D01*
X163859847Y-108426342D01*
X163842208Y-108439877D01*
X163801373Y-108484754D01*
X163787342Y-108500174D01*
X163783243Y-108504469D01*
X163767302Y-108520410D01*
X163765507Y-108522557D01*
X163765505Y-108522559D01*
X163750568Y-108540423D01*
X163747100Y-108544398D01*
X163694788Y-108601888D01*
X163694781Y-108601897D01*
X163691015Y-108606036D01*
X163688038Y-108610782D01*
X163688037Y-108610783D01*
X163681487Y-108621225D01*
X163671411Y-108635093D01*
X163663504Y-108644549D01*
X163663497Y-108644559D01*
X163659906Y-108648854D01*
X163618618Y-108721240D01*
X163615913Y-108725759D01*
X163571636Y-108796344D01*
X163569543Y-108801549D01*
X163569542Y-108801552D01*
X163564948Y-108812979D01*
X163557488Y-108828411D01*
X163551380Y-108839119D01*
X163551376Y-108839128D01*
X163548601Y-108843993D01*
X163546732Y-108849270D01*
X163546730Y-108849275D01*
X163520785Y-108922542D01*
X163518920Y-108927478D01*
X163501151Y-108971680D01*
X163487844Y-109004783D01*
X163486708Y-109010270D01*
X163486707Y-109010272D01*
X163484206Y-109022349D01*
X163479601Y-109038844D01*
X163473611Y-109055759D01*
X163460750Y-109134297D01*
X163460143Y-109138001D01*
X163459183Y-109143180D01*
X163442287Y-109224767D01*
X163442021Y-109229379D01*
X163442021Y-109229380D01*
X163440685Y-109252548D01*
X163439238Y-109265653D01*
X163438214Y-109271910D01*
X163437306Y-109277457D01*
X163437394Y-109283070D01*
X163437394Y-109283072D01*
X163438984Y-109384264D01*
X163439000Y-109386243D01*
X163439000Y-112386522D01*
X163418998Y-112454643D01*
X163402095Y-112475617D01*
X159593117Y-116284595D01*
X159530805Y-116318621D01*
X159504022Y-116321500D01*
X153248896Y-116321500D01*
X153232449Y-116320422D01*
X153231770Y-116320333D01*
X153210414Y-116317521D01*
X153204814Y-116317785D01*
X153204813Y-116317785D01*
X153129004Y-116321360D01*
X153123069Y-116321500D01*
X153100501Y-116321500D01*
X153097718Y-116321748D01*
X153097704Y-116321749D01*
X153074523Y-116323818D01*
X153069260Y-116324177D01*
X153039842Y-116325564D01*
X152986012Y-116328103D01*
X152968523Y-116332108D01*
X152951604Y-116334788D01*
X152947118Y-116335189D01*
X152933738Y-116336383D01*
X152928330Y-116337862D01*
X152928327Y-116337863D01*
X152853370Y-116358369D01*
X152848252Y-116359655D01*
X152791446Y-116372666D01*
X152767030Y-116378258D01*
X152750537Y-116385293D01*
X152734355Y-116390928D01*
X152722467Y-116394180D01*
X152722458Y-116394183D01*
X152717049Y-116395663D01*
X152711986Y-116398078D01*
X152711975Y-116398082D01*
X152641843Y-116431534D01*
X152637042Y-116433702D01*
X152560392Y-116466396D01*
X152555704Y-116469475D01*
X152555703Y-116469476D01*
X152545400Y-116476244D01*
X152530471Y-116484656D01*
X152514282Y-116492378D01*
X152509726Y-116495652D01*
X152509724Y-116495653D01*
X152446622Y-116540997D01*
X152442271Y-116543987D01*
X152376492Y-116587195D01*
X152376487Y-116587199D01*
X152372626Y-116589735D01*
X152369175Y-116592810D01*
X152351846Y-116608249D01*
X152341555Y-116616494D01*
X152336407Y-116620193D01*
X152336403Y-116620197D01*
X152331846Y-116623471D01*
X152327939Y-116627503D01*
X152257468Y-116700223D01*
X152256079Y-116701633D01*
X149977237Y-118980475D01*
X149964847Y-118991342D01*
X149947208Y-119004877D01*
X149892688Y-119064794D01*
X149892342Y-119065174D01*
X149888243Y-119069469D01*
X149872302Y-119085410D01*
X149870507Y-119087557D01*
X149870505Y-119087559D01*
X149855568Y-119105423D01*
X149852100Y-119109398D01*
X149799788Y-119166888D01*
X149799781Y-119166897D01*
X149796015Y-119171036D01*
X149793038Y-119175782D01*
X149793037Y-119175783D01*
X149786487Y-119186225D01*
X149776411Y-119200093D01*
X149768504Y-119209549D01*
X149768497Y-119209559D01*
X149764906Y-119213854D01*
X149723618Y-119286240D01*
X149720908Y-119290768D01*
X149684167Y-119349339D01*
X149676636Y-119361344D01*
X149674543Y-119366549D01*
X149674542Y-119366552D01*
X149669948Y-119377979D01*
X149662488Y-119393411D01*
X149656380Y-119404119D01*
X149656376Y-119404128D01*
X149653601Y-119408993D01*
X149651732Y-119414270D01*
X149651730Y-119414275D01*
X149625785Y-119487542D01*
X149623920Y-119492478D01*
X149592844Y-119569783D01*
X149591708Y-119575270D01*
X149591707Y-119575272D01*
X149589206Y-119587349D01*
X149584601Y-119603844D01*
X149578611Y-119620759D01*
X149565786Y-119699077D01*
X149565143Y-119703001D01*
X149564183Y-119708180D01*
X149547287Y-119789767D01*
X149547021Y-119794379D01*
X149547021Y-119794380D01*
X149545685Y-119817548D01*
X149544238Y-119830653D01*
X149543214Y-119836910D01*
X149542306Y-119842457D01*
X149542394Y-119848070D01*
X149542394Y-119848072D01*
X149543984Y-119949264D01*
X149544000Y-119951243D01*
X149544000Y-121955284D01*
X149523998Y-122023405D01*
X149470342Y-122069898D01*
X149400068Y-122080002D01*
X149335488Y-122050508D01*
X149318894Y-122031396D01*
X149318081Y-122032022D01*
X149308636Y-122019757D01*
X149165306Y-121862240D01*
X149157773Y-121855215D01*
X148990639Y-121723222D01*
X148982052Y-121717517D01*
X148795617Y-121614599D01*
X148786205Y-121610369D01*
X148585459Y-121539280D01*
X148575488Y-121536646D01*
X148504337Y-121523972D01*
X148491040Y-121525432D01*
X148486500Y-121539989D01*
X148486500Y-122983000D01*
X148466498Y-123051121D01*
X148412842Y-123097614D01*
X148360500Y-123109000D01*
X148104500Y-123109000D01*
X148036379Y-123088998D01*
X147989886Y-123035342D01*
X147978500Y-122983000D01*
X147978500Y-121538102D01*
X147974582Y-121524758D01*
X147960306Y-121522771D01*
X147921824Y-121528660D01*
X147911788Y-121531051D01*
X147776145Y-121575386D01*
X147705181Y-121577537D01*
X147644319Y-121540981D01*
X147612883Y-121477323D01*
X147611000Y-121455621D01*
X147611000Y-109587094D01*
X147631002Y-109518973D01*
X147647905Y-109497999D01*
X149297247Y-107848657D01*
X149305537Y-107841113D01*
X149312018Y-107837000D01*
X149358659Y-107787332D01*
X149361413Y-107784491D01*
X149381135Y-107764769D01*
X149383612Y-107761576D01*
X149391317Y-107752555D01*
X149416159Y-107726100D01*
X149421586Y-107720321D01*
X149425407Y-107713371D01*
X149431346Y-107702568D01*
X149442202Y-107686041D01*
X149443242Y-107684700D01*
X149454613Y-107670041D01*
X149454790Y-107670178D01*
X149503529Y-107624671D01*
X149573379Y-107611966D01*
X149639010Y-107639042D01*
X149660634Y-107663994D01*
X149661563Y-107663273D01*
X149666420Y-107669534D01*
X149670458Y-107676362D01*
X149684779Y-107690683D01*
X149697619Y-107705716D01*
X149709528Y-107722107D01*
X149715634Y-107727158D01*
X149743605Y-107750298D01*
X149752384Y-107758288D01*
X149926343Y-107932247D01*
X149933887Y-107940537D01*
X149938000Y-107947018D01*
X149982163Y-107988489D01*
X149987667Y-107993658D01*
X149990509Y-107996413D01*
X150010230Y-108016134D01*
X150013425Y-108018612D01*
X150022447Y-108026318D01*
X150054679Y-108056586D01*
X150061628Y-108060406D01*
X150072432Y-108066346D01*
X150088956Y-108077199D01*
X150104959Y-108089613D01*
X150145543Y-108107176D01*
X150156173Y-108112383D01*
X150194940Y-108133695D01*
X150202617Y-108135666D01*
X150202622Y-108135668D01*
X150214558Y-108138732D01*
X150233266Y-108145137D01*
X150251855Y-108153181D01*
X150259680Y-108154420D01*
X150259682Y-108154421D01*
X150295519Y-108160097D01*
X150307140Y-108162504D01*
X150338959Y-108170673D01*
X150349970Y-108173500D01*
X150370231Y-108173500D01*
X150389940Y-108175051D01*
X150409943Y-108178219D01*
X150417835Y-108177473D01*
X150423062Y-108176979D01*
X150453954Y-108174059D01*
X150465811Y-108173500D01*
X154881233Y-108173500D01*
X154892416Y-108174027D01*
X154899909Y-108175702D01*
X154907835Y-108175453D01*
X154907836Y-108175453D01*
X154967986Y-108173562D01*
X154971945Y-108173500D01*
X154999856Y-108173500D01*
X155003791Y-108173003D01*
X155003856Y-108172995D01*
X155015693Y-108172062D01*
X155047951Y-108171048D01*
X155051970Y-108170922D01*
X155059889Y-108170673D01*
X155079343Y-108165021D01*
X155098700Y-108161013D01*
X155110930Y-108159468D01*
X155110931Y-108159468D01*
X155118797Y-108158474D01*
X155126168Y-108155555D01*
X155126170Y-108155555D01*
X155159912Y-108142196D01*
X155171142Y-108138351D01*
X155205983Y-108128229D01*
X155205984Y-108128229D01*
X155213593Y-108126018D01*
X155220412Y-108121985D01*
X155220417Y-108121983D01*
X155231028Y-108115707D01*
X155248776Y-108107012D01*
X155267617Y-108099552D01*
X155287987Y-108084753D01*
X155303387Y-108073564D01*
X155313307Y-108067048D01*
X155344535Y-108048580D01*
X155344538Y-108048578D01*
X155351362Y-108044542D01*
X155365683Y-108030221D01*
X155380717Y-108017380D01*
X155390693Y-108010132D01*
X155397107Y-108005472D01*
X155425288Y-107971407D01*
X155433278Y-107962626D01*
X155852258Y-107543647D01*
X155860537Y-107536113D01*
X155867018Y-107532000D01*
X155913644Y-107482348D01*
X155916398Y-107479507D01*
X155936135Y-107459770D01*
X155938615Y-107456573D01*
X155946320Y-107447551D01*
X155971159Y-107421100D01*
X155976586Y-107415321D01*
X155980405Y-107408375D01*
X155980407Y-107408372D01*
X155986348Y-107397566D01*
X155997199Y-107381047D01*
X155997559Y-107380583D01*
X156009614Y-107365041D01*
X156012759Y-107357772D01*
X156012762Y-107357768D01*
X156027174Y-107324463D01*
X156032391Y-107313813D01*
X156053695Y-107275060D01*
X156058733Y-107255437D01*
X156065137Y-107236734D01*
X156070033Y-107225420D01*
X156070033Y-107225419D01*
X156073181Y-107218145D01*
X156074420Y-107210322D01*
X156074423Y-107210312D01*
X156080099Y-107174476D01*
X156082505Y-107162856D01*
X156091528Y-107127711D01*
X156091528Y-107127710D01*
X156093500Y-107120030D01*
X156093500Y-107099776D01*
X156095051Y-107080065D01*
X156096980Y-107067886D01*
X156098220Y-107060057D01*
X156094059Y-107016038D01*
X156093500Y-107004181D01*
X156093500Y-104524594D01*
X156113502Y-104456473D01*
X156130405Y-104435499D01*
X156545499Y-104020405D01*
X156607811Y-103986379D01*
X156634594Y-103983500D01*
X159021233Y-103983500D01*
X159032416Y-103984027D01*
X159039909Y-103985702D01*
X159047835Y-103985453D01*
X159047836Y-103985453D01*
X159107986Y-103983562D01*
X159111945Y-103983500D01*
X159139856Y-103983500D01*
X159143791Y-103983003D01*
X159143856Y-103982995D01*
X159155693Y-103982062D01*
X159187951Y-103981048D01*
X159191970Y-103980922D01*
X159199889Y-103980673D01*
X159219343Y-103975021D01*
X159238700Y-103971013D01*
X159250930Y-103969468D01*
X159250931Y-103969468D01*
X159258797Y-103968474D01*
X159266168Y-103965555D01*
X159266170Y-103965555D01*
X159299912Y-103952196D01*
X159311142Y-103948351D01*
X159345983Y-103938229D01*
X159345984Y-103938229D01*
X159353593Y-103936018D01*
X159360412Y-103931985D01*
X159360417Y-103931983D01*
X159371028Y-103925707D01*
X159388776Y-103917012D01*
X159407617Y-103909552D01*
X159443387Y-103883564D01*
X159453307Y-103877048D01*
X159484535Y-103858580D01*
X159484538Y-103858578D01*
X159491362Y-103854542D01*
X159505683Y-103840221D01*
X159520717Y-103827380D01*
X159530694Y-103820131D01*
X159537107Y-103815472D01*
X159565298Y-103781395D01*
X159573288Y-103772616D01*
X161052247Y-102293657D01*
X161060537Y-102286113D01*
X161067018Y-102282000D01*
X161113659Y-102232332D01*
X161116413Y-102229491D01*
X161136134Y-102209770D01*
X161138612Y-102206575D01*
X161146318Y-102197553D01*
X161148775Y-102194937D01*
X161176586Y-102165321D01*
X161186346Y-102147568D01*
X161197199Y-102131045D01*
X161204753Y-102121306D01*
X161209613Y-102115041D01*
X161227176Y-102074457D01*
X161232383Y-102063827D01*
X161253695Y-102025060D01*
X161255666Y-102017383D01*
X161255668Y-102017378D01*
X161258732Y-102005442D01*
X161265138Y-101986730D01*
X161266595Y-101983365D01*
X161273181Y-101968145D01*
X161274421Y-101960317D01*
X161274423Y-101960310D01*
X161280099Y-101924476D01*
X161282505Y-101912856D01*
X161291528Y-101877711D01*
X161291528Y-101877710D01*
X161293500Y-101870030D01*
X161293500Y-101849776D01*
X161295051Y-101830065D01*
X161296980Y-101817886D01*
X161298220Y-101810057D01*
X161294059Y-101766038D01*
X161293500Y-101754181D01*
X161293500Y-93884594D01*
X161313502Y-93816473D01*
X161330405Y-93795499D01*
X162724607Y-92401298D01*
X164142253Y-90983652D01*
X164150539Y-90976112D01*
X164157018Y-90972000D01*
X164165886Y-90962557D01*
X164203643Y-90922349D01*
X164206398Y-90919507D01*
X164226135Y-90899770D01*
X164228615Y-90896573D01*
X164236320Y-90887551D01*
X164250698Y-90872240D01*
X164266586Y-90855321D01*
X164270405Y-90848375D01*
X164270407Y-90848372D01*
X164276348Y-90837566D01*
X164287199Y-90821047D01*
X164294758Y-90811301D01*
X164299614Y-90805041D01*
X164302759Y-90797772D01*
X164302762Y-90797768D01*
X164317174Y-90764463D01*
X164322391Y-90753813D01*
X164343695Y-90715060D01*
X164348733Y-90695437D01*
X164355137Y-90676734D01*
X164360033Y-90665420D01*
X164360033Y-90665419D01*
X164363181Y-90658145D01*
X164364420Y-90650322D01*
X164364423Y-90650312D01*
X164370099Y-90614476D01*
X164372505Y-90602856D01*
X164381528Y-90567711D01*
X164381528Y-90567710D01*
X164383500Y-90560030D01*
X164383500Y-90539776D01*
X164385051Y-90520065D01*
X164386980Y-90507886D01*
X164388220Y-90500057D01*
X164384059Y-90456038D01*
X164383500Y-90444181D01*
X164383500Y-90186781D01*
X164403502Y-90118660D01*
X164443197Y-90079637D01*
X164475934Y-90059379D01*
X164574348Y-89998478D01*
X164660784Y-89911891D01*
X164723066Y-89877812D01*
X164793886Y-89882815D01*
X164838975Y-89911736D01*
X164896604Y-89969264D01*
X164926697Y-89999305D01*
X164932927Y-90003145D01*
X164932928Y-90003146D01*
X165070992Y-90088250D01*
X165077262Y-90092115D01*
X165157005Y-90118564D01*
X165238611Y-90145632D01*
X165238613Y-90145632D01*
X165245139Y-90147797D01*
X165251975Y-90148497D01*
X165251978Y-90148498D01*
X165295031Y-90152909D01*
X165349600Y-90158500D01*
X166150400Y-90158500D01*
X166153646Y-90158163D01*
X166153650Y-90158163D01*
X166249308Y-90148238D01*
X166249312Y-90148237D01*
X166256166Y-90147526D01*
X166262702Y-90145345D01*
X166262704Y-90145345D01*
X166394806Y-90101272D01*
X166423946Y-90091550D01*
X166574348Y-89998478D01*
X166699305Y-89873303D01*
X166735626Y-89814380D01*
X166788275Y-89728968D01*
X166788276Y-89728966D01*
X166792115Y-89722738D01*
X166809663Y-89669832D01*
X166850094Y-89611473D01*
X166915658Y-89584236D01*
X166929256Y-89583500D01*
X168105406Y-89583500D01*
X168173527Y-89603502D01*
G37*
%TD.AperFunction*%
%TA.AperFunction,Conductor*%
G36*
X123769838Y-107734678D02*
G01*
X123797666Y-107766511D01*
X123855194Y-107860388D01*
X123861277Y-107868699D01*
X124000713Y-108029667D01*
X124008080Y-108036883D01*
X124171934Y-108172916D01*
X124180381Y-108178831D01*
X124249469Y-108219203D01*
X124298193Y-108270842D01*
X124311264Y-108340625D01*
X124284533Y-108406396D01*
X124244084Y-108439752D01*
X124231107Y-108446507D01*
X124226974Y-108449610D01*
X124226971Y-108449612D01*
X124132677Y-108520410D01*
X124052465Y-108580635D01*
X124048893Y-108584373D01*
X123913773Y-108725768D01*
X123898129Y-108742138D01*
X123790701Y-108899621D01*
X123735793Y-108944621D01*
X123665268Y-108952792D01*
X123601521Y-108921538D01*
X123580824Y-108897054D01*
X123500322Y-108772617D01*
X123500320Y-108772614D01*
X123497514Y-108768277D01*
X123347170Y-108603051D01*
X123343119Y-108599852D01*
X123343115Y-108599848D01*
X123175914Y-108467800D01*
X123175910Y-108467798D01*
X123171859Y-108464598D01*
X123130553Y-108441796D01*
X123080584Y-108391364D01*
X123065812Y-108321921D01*
X123090928Y-108255516D01*
X123118280Y-108228909D01*
X123162218Y-108197568D01*
X123297360Y-108101173D01*
X123305802Y-108092761D01*
X123385182Y-108013657D01*
X123455596Y-107943489D01*
X123488609Y-107897547D01*
X123585953Y-107762077D01*
X123587140Y-107762930D01*
X123634460Y-107719362D01*
X123704397Y-107707145D01*
X123769838Y-107734678D01*
G37*
%TD.AperFunction*%
%TA.AperFunction,Conductor*%
G36*
X160243886Y-89882815D02*
G01*
X160288975Y-89911736D01*
X160335581Y-89958261D01*
X160369660Y-90020544D01*
X160364877Y-90088250D01*
X160365473Y-90088444D01*
X160364007Y-90092957D01*
X160364005Y-90092961D01*
X160345960Y-90148498D01*
X160306458Y-90270072D01*
X160289351Y-90432842D01*
X160289093Y-90435293D01*
X160262080Y-90500950D01*
X160252878Y-90511218D01*
X159583964Y-91180131D01*
X158917747Y-91846348D01*
X158909461Y-91853888D01*
X158902982Y-91858000D01*
X158897557Y-91863777D01*
X158856357Y-91907651D01*
X158853602Y-91910493D01*
X158833865Y-91930230D01*
X158831385Y-91933427D01*
X158823682Y-91942447D01*
X158793414Y-91974679D01*
X158789595Y-91981625D01*
X158789593Y-91981628D01*
X158783652Y-91992434D01*
X158772801Y-92008953D01*
X158760386Y-92024959D01*
X158757241Y-92032228D01*
X158757238Y-92032232D01*
X158742826Y-92065537D01*
X158737609Y-92076187D01*
X158716305Y-92114940D01*
X158714334Y-92122615D01*
X158714334Y-92122616D01*
X158711267Y-92134562D01*
X158704863Y-92153266D01*
X158696819Y-92171855D01*
X158695580Y-92179678D01*
X158695577Y-92179688D01*
X158689901Y-92215524D01*
X158687495Y-92227144D01*
X158676500Y-92269970D01*
X158676500Y-92290224D01*
X158674949Y-92309934D01*
X158671780Y-92329943D01*
X158672526Y-92337835D01*
X158675941Y-92373961D01*
X158676500Y-92385819D01*
X158676500Y-100825405D01*
X158656498Y-100893526D01*
X158639595Y-100914501D01*
X158369499Y-101184596D01*
X158307187Y-101218621D01*
X158280404Y-101221500D01*
X158134046Y-101221500D01*
X158065925Y-101201498D01*
X158026902Y-101161803D01*
X157957332Y-101049380D01*
X157953478Y-101043152D01*
X157828303Y-100918195D01*
X157823765Y-100915398D01*
X157783176Y-100858147D01*
X157779946Y-100787224D01*
X157815572Y-100725813D01*
X157824068Y-100718438D01*
X157834207Y-100710402D01*
X157948739Y-100595671D01*
X157957751Y-100584260D01*
X158042816Y-100446257D01*
X158048963Y-100433076D01*
X158100138Y-100278790D01*
X158103005Y-100265414D01*
X158112672Y-100171062D01*
X158113000Y-100164646D01*
X158113000Y-100052115D01*
X158108525Y-100036876D01*
X158107135Y-100035671D01*
X158099452Y-100034000D01*
X156752000Y-100034000D01*
X156683879Y-100013998D01*
X156637386Y-99960342D01*
X156626000Y-99908000D01*
X156626000Y-99507885D01*
X157134000Y-99507885D01*
X157138475Y-99523124D01*
X157139865Y-99524329D01*
X157147548Y-99526000D01*
X158094884Y-99526000D01*
X158110123Y-99521525D01*
X158111328Y-99520135D01*
X158112999Y-99512452D01*
X158112999Y-99395405D01*
X158112662Y-99388886D01*
X158102743Y-99293294D01*
X158099851Y-99279900D01*
X158048412Y-99125716D01*
X158042239Y-99112538D01*
X157956937Y-98974693D01*
X157947901Y-98963292D01*
X157833171Y-98848761D01*
X157821760Y-98839749D01*
X157683757Y-98754684D01*
X157670576Y-98748537D01*
X157516290Y-98697362D01*
X157502914Y-98694495D01*
X157408562Y-98684828D01*
X157402145Y-98684500D01*
X157152115Y-98684500D01*
X157136876Y-98688975D01*
X157135671Y-98690365D01*
X157134000Y-98698048D01*
X157134000Y-99507885D01*
X156626000Y-99507885D01*
X156626000Y-98702616D01*
X156621525Y-98687377D01*
X156601696Y-98670195D01*
X156563312Y-98610469D01*
X156563312Y-98539472D01*
X156601695Y-98479746D01*
X156663756Y-98450866D01*
X156669889Y-98450673D01*
X156677495Y-98448463D01*
X156677497Y-98448463D01*
X156682979Y-98446870D01*
X156689343Y-98445021D01*
X156708700Y-98441013D01*
X156720930Y-98439468D01*
X156720931Y-98439468D01*
X156728797Y-98438474D01*
X156736168Y-98435555D01*
X156736170Y-98435555D01*
X156769912Y-98422196D01*
X156781142Y-98418351D01*
X156815983Y-98408229D01*
X156815984Y-98408229D01*
X156823593Y-98406018D01*
X156830412Y-98401985D01*
X156830417Y-98401983D01*
X156841028Y-98395707D01*
X156858776Y-98387012D01*
X156877617Y-98379552D01*
X156913387Y-98353564D01*
X156923307Y-98347048D01*
X156954535Y-98328580D01*
X156954538Y-98328578D01*
X156961362Y-98324542D01*
X156975683Y-98310221D01*
X156990717Y-98297380D01*
X157007107Y-98285472D01*
X157035298Y-98251395D01*
X157043288Y-98242616D01*
X157232247Y-98053657D01*
X157240537Y-98046113D01*
X157247018Y-98042000D01*
X157293659Y-97992332D01*
X157296413Y-97989491D01*
X157316135Y-97969769D01*
X157318612Y-97966576D01*
X157326317Y-97957555D01*
X157351159Y-97931100D01*
X157356586Y-97925321D01*
X157362243Y-97915031D01*
X157366346Y-97907568D01*
X157377202Y-97891041D01*
X157384757Y-97881302D01*
X157384758Y-97881300D01*
X157389614Y-97875040D01*
X157407174Y-97834460D01*
X157412391Y-97823812D01*
X157429875Y-97792009D01*
X157429876Y-97792007D01*
X157433695Y-97785060D01*
X157438733Y-97765437D01*
X157445137Y-97746734D01*
X157450033Y-97735420D01*
X157450033Y-97735419D01*
X157453181Y-97728145D01*
X157454420Y-97720322D01*
X157454423Y-97720312D01*
X157460099Y-97684476D01*
X157462505Y-97672856D01*
X157471528Y-97637711D01*
X157471528Y-97637710D01*
X157473500Y-97630030D01*
X157473500Y-97609776D01*
X157475051Y-97590065D01*
X157476980Y-97577886D01*
X157478220Y-97570057D01*
X157474059Y-97526038D01*
X157473500Y-97514181D01*
X157473500Y-96362524D01*
X157493502Y-96294403D01*
X157505858Y-96278221D01*
X157579040Y-96196944D01*
X157655532Y-96064457D01*
X157671223Y-96037279D01*
X157671224Y-96037278D01*
X157674527Y-96031556D01*
X157733542Y-95849928D01*
X157736674Y-95820135D01*
X157752814Y-95666565D01*
X157753504Y-95660000D01*
X157733542Y-95470072D01*
X157674527Y-95288444D01*
X157579040Y-95123056D01*
X157565105Y-95107579D01*
X157455675Y-94986045D01*
X157455674Y-94986044D01*
X157451253Y-94981134D01*
X157296752Y-94868882D01*
X157290724Y-94866198D01*
X157290722Y-94866197D01*
X157128319Y-94793891D01*
X157128318Y-94793891D01*
X157122288Y-94791206D01*
X157011415Y-94767639D01*
X156941944Y-94752872D01*
X156941939Y-94752872D01*
X156935487Y-94751500D01*
X156744513Y-94751500D01*
X156738061Y-94752872D01*
X156738056Y-94752872D01*
X156668585Y-94767639D01*
X156557712Y-94791206D01*
X156551682Y-94793891D01*
X156551681Y-94793891D01*
X156389278Y-94866197D01*
X156389276Y-94866198D01*
X156383248Y-94868882D01*
X156228747Y-94981134D01*
X156224326Y-94986044D01*
X156224325Y-94986045D01*
X156114896Y-95107579D01*
X156100960Y-95123056D01*
X156005473Y-95288444D01*
X155946458Y-95470072D01*
X155926496Y-95660000D01*
X155927186Y-95666565D01*
X155943327Y-95820135D01*
X155946458Y-95849928D01*
X155951476Y-95865372D01*
X155953504Y-95936337D01*
X155916842Y-95997135D01*
X155853131Y-96028461D01*
X155813605Y-96027709D01*
X155813515Y-96028563D01*
X155806944Y-96027872D01*
X155800487Y-96026500D01*
X155609513Y-96026500D01*
X155603061Y-96027872D01*
X155603056Y-96027872D01*
X155535942Y-96042138D01*
X155422712Y-96066206D01*
X155416682Y-96068891D01*
X155416681Y-96068891D01*
X155254278Y-96141197D01*
X155254276Y-96141198D01*
X155248248Y-96143882D01*
X155093747Y-96256134D01*
X155018356Y-96339865D01*
X155013136Y-96345662D01*
X154952690Y-96382902D01*
X154881707Y-96381550D01*
X154822722Y-96342037D01*
X154794464Y-96276906D01*
X154793500Y-96261352D01*
X154793500Y-95138498D01*
X154792285Y-95123056D01*
X154791067Y-95107579D01*
X154791066Y-95107574D01*
X154790562Y-95101169D01*
X154752405Y-94969829D01*
X154746357Y-94949012D01*
X154746356Y-94949010D01*
X154744145Y-94941399D01*
X154703554Y-94872763D01*
X154663491Y-94805020D01*
X154663489Y-94805017D01*
X154659453Y-94798193D01*
X154541807Y-94680547D01*
X154534983Y-94676511D01*
X154534980Y-94676509D01*
X154405427Y-94599892D01*
X154405428Y-94599892D01*
X154398601Y-94595855D01*
X154390990Y-94593644D01*
X154390988Y-94593643D01*
X154303142Y-94568122D01*
X154238831Y-94549438D01*
X154232426Y-94548934D01*
X154232421Y-94548933D01*
X154203958Y-94546693D01*
X154203950Y-94546693D01*
X154201502Y-94546500D01*
X153768498Y-94546500D01*
X153766050Y-94546693D01*
X153766042Y-94546693D01*
X153737579Y-94548933D01*
X153737574Y-94548934D01*
X153731169Y-94549438D01*
X153666858Y-94568122D01*
X153579012Y-94593643D01*
X153579010Y-94593644D01*
X153571399Y-94595855D01*
X153538637Y-94615231D01*
X153469822Y-94632689D01*
X153402491Y-94610172D01*
X153358022Y-94554827D01*
X153348500Y-94506776D01*
X153348500Y-91799594D01*
X153368502Y-91731473D01*
X153385405Y-91710499D01*
X153715499Y-91380405D01*
X153777811Y-91346379D01*
X153804594Y-91343500D01*
X158581233Y-91343500D01*
X158592416Y-91344027D01*
X158599909Y-91345702D01*
X158607835Y-91345453D01*
X158607836Y-91345453D01*
X158667986Y-91343562D01*
X158671945Y-91343500D01*
X158699856Y-91343500D01*
X158703791Y-91343003D01*
X158703856Y-91342995D01*
X158715693Y-91342062D01*
X158747951Y-91341048D01*
X158751970Y-91340922D01*
X158759889Y-91340673D01*
X158779343Y-91335021D01*
X158798700Y-91331013D01*
X158810930Y-91329468D01*
X158810931Y-91329468D01*
X158818797Y-91328474D01*
X158826168Y-91325555D01*
X158826170Y-91325555D01*
X158859912Y-91312196D01*
X158871142Y-91308351D01*
X158905983Y-91298229D01*
X158905984Y-91298229D01*
X158913593Y-91296018D01*
X158920412Y-91291985D01*
X158920417Y-91291983D01*
X158931028Y-91285707D01*
X158948776Y-91277012D01*
X158967617Y-91269552D01*
X158998332Y-91247237D01*
X159003387Y-91243564D01*
X159013307Y-91237048D01*
X159044535Y-91218580D01*
X159044538Y-91218578D01*
X159051362Y-91214542D01*
X159065683Y-91200221D01*
X159080717Y-91187380D01*
X159090694Y-91180131D01*
X159097107Y-91175472D01*
X159125298Y-91141395D01*
X159133288Y-91132616D01*
X159592247Y-90673657D01*
X159600537Y-90666113D01*
X159607018Y-90662000D01*
X159622620Y-90645386D01*
X159653658Y-90612333D01*
X159656413Y-90609491D01*
X159676134Y-90589770D01*
X159678612Y-90586575D01*
X159686318Y-90577553D01*
X159700724Y-90562212D01*
X159716586Y-90545321D01*
X159726346Y-90527568D01*
X159737199Y-90511045D01*
X159743360Y-90503102D01*
X159749613Y-90495041D01*
X159767176Y-90454457D01*
X159772383Y-90443827D01*
X159793695Y-90405060D01*
X159795666Y-90397383D01*
X159795668Y-90397378D01*
X159798732Y-90385442D01*
X159805138Y-90366730D01*
X159810033Y-90355419D01*
X159813181Y-90348145D01*
X159814421Y-90340317D01*
X159814423Y-90340310D01*
X159820099Y-90304476D01*
X159822505Y-90292856D01*
X159831528Y-90257711D01*
X159831528Y-90257710D01*
X159833500Y-90250030D01*
X159833500Y-90229776D01*
X159835051Y-90210065D01*
X159836980Y-90197886D01*
X159838220Y-90190057D01*
X159837474Y-90182162D01*
X159837530Y-90180370D01*
X159859660Y-90112911D01*
X159897163Y-90077183D01*
X160024348Y-89998478D01*
X160110784Y-89911891D01*
X160173066Y-89877812D01*
X160243886Y-89882815D01*
G37*
%TD.AperFunction*%
%TA.AperFunction,Conductor*%
G36*
X158412012Y-83749796D02*
G01*
X158446243Y-83797616D01*
X158528266Y-83999616D01*
X158644987Y-84190088D01*
X158791250Y-84358938D01*
X158963126Y-84501632D01*
X159036955Y-84544774D01*
X159085679Y-84596412D01*
X159098750Y-84666195D01*
X159072019Y-84731967D01*
X159031562Y-84765327D01*
X159023457Y-84769546D01*
X159014738Y-84775036D01*
X158844433Y-84902905D01*
X158836726Y-84909748D01*
X158689590Y-85063717D01*
X158683104Y-85071727D01*
X158563098Y-85247649D01*
X158558000Y-85256623D01*
X158468338Y-85449783D01*
X158464775Y-85459470D01*
X158433934Y-85570677D01*
X158403494Y-85619651D01*
X158409766Y-85651539D01*
X158408995Y-85657009D01*
X158410912Y-85667607D01*
X158423292Y-85671000D01*
X160240500Y-85671000D01*
X160308621Y-85691002D01*
X160355114Y-85744658D01*
X160366500Y-85797000D01*
X160366500Y-86053000D01*
X160346498Y-86121121D01*
X160292842Y-86167614D01*
X160240500Y-86179000D01*
X158428225Y-86179000D01*
X158414694Y-86182973D01*
X158413257Y-86192966D01*
X158443565Y-86327446D01*
X158446645Y-86337275D01*
X158526770Y-86534603D01*
X158531413Y-86543794D01*
X158642694Y-86725388D01*
X158648777Y-86733699D01*
X158788213Y-86894667D01*
X158795580Y-86901883D01*
X158959439Y-87037921D01*
X158967880Y-87043831D01*
X158973548Y-87047144D01*
X159022270Y-87098783D01*
X159035340Y-87168567D01*
X159008607Y-87234338D01*
X158999075Y-87245020D01*
X158807742Y-87436353D01*
X158799463Y-87443887D01*
X158792982Y-87448000D01*
X158785640Y-87455819D01*
X158746357Y-87497651D01*
X158743602Y-87500493D01*
X158723865Y-87520230D01*
X158721385Y-87523427D01*
X158713682Y-87532447D01*
X158683414Y-87564679D01*
X158679595Y-87571625D01*
X158679593Y-87571628D01*
X158673652Y-87582434D01*
X158662801Y-87598953D01*
X158650386Y-87614959D01*
X158647241Y-87622228D01*
X158647238Y-87622232D01*
X158632826Y-87655537D01*
X158627609Y-87666187D01*
X158606305Y-87704940D01*
X158601572Y-87723375D01*
X158565259Y-87784380D01*
X158532989Y-87806136D01*
X158526054Y-87808450D01*
X158519826Y-87812304D01*
X158477803Y-87838309D01*
X158375652Y-87901522D01*
X158370479Y-87906704D01*
X158365635Y-87911556D01*
X158250695Y-88026697D01*
X158157885Y-88177262D01*
X158155581Y-88184209D01*
X158104963Y-88336819D01*
X158102203Y-88345139D01*
X158101503Y-88351975D01*
X158101502Y-88351978D01*
X158097561Y-88390448D01*
X158091500Y-88449600D01*
X158091500Y-89450400D01*
X158091837Y-89453646D01*
X158091837Y-89453650D01*
X158097740Y-89510537D01*
X158102474Y-89556166D01*
X158104655Y-89562702D01*
X158104655Y-89562704D01*
X158144210Y-89681263D01*
X158158450Y-89723946D01*
X158199991Y-89791075D01*
X158247671Y-89868126D01*
X158247674Y-89868130D01*
X158251522Y-89874348D01*
X158251962Y-89874788D01*
X158277567Y-89938047D01*
X158264396Y-90007811D01*
X158215598Y-90059379D01*
X158152184Y-90076500D01*
X157697814Y-90076500D01*
X157629693Y-90056498D01*
X157583200Y-90002842D01*
X157573096Y-89932568D01*
X157597975Y-89874635D01*
X157599305Y-89873303D01*
X157635626Y-89814380D01*
X157688275Y-89728968D01*
X157688276Y-89728966D01*
X157692115Y-89722738D01*
X157726057Y-89620405D01*
X157745632Y-89561389D01*
X157745632Y-89561387D01*
X157747797Y-89554861D01*
X157758500Y-89450400D01*
X157758500Y-88449600D01*
X157758070Y-88445458D01*
X157748238Y-88350692D01*
X157748237Y-88350688D01*
X157747526Y-88343834D01*
X157742573Y-88328986D01*
X157693868Y-88183002D01*
X157691550Y-88176054D01*
X157598478Y-88025652D01*
X157547885Y-87975147D01*
X157513806Y-87912867D01*
X157518809Y-87842046D01*
X157562842Y-87784039D01*
X157603680Y-87754368D01*
X157611253Y-87748866D01*
X157739040Y-87606944D01*
X157834527Y-87441556D01*
X157893542Y-87259928D01*
X157897262Y-87224540D01*
X157912814Y-87076565D01*
X157913504Y-87070000D01*
X157902867Y-86968792D01*
X157894232Y-86886635D01*
X157894232Y-86886633D01*
X157893542Y-86880072D01*
X157834527Y-86698444D01*
X157739040Y-86533056D01*
X157612381Y-86392387D01*
X157581664Y-86328379D01*
X157590429Y-86257926D01*
X157616923Y-86218982D01*
X157962253Y-85873652D01*
X157970539Y-85866112D01*
X157977018Y-85862000D01*
X158023644Y-85812348D01*
X158026398Y-85809507D01*
X158046135Y-85789770D01*
X158048615Y-85786573D01*
X158056320Y-85777551D01*
X158081159Y-85751100D01*
X158086586Y-85745321D01*
X158090405Y-85738375D01*
X158090407Y-85738372D01*
X158096348Y-85727566D01*
X158107199Y-85711047D01*
X158114758Y-85701301D01*
X158119614Y-85695041D01*
X158122759Y-85687772D01*
X158122762Y-85687768D01*
X158137174Y-85654463D01*
X158142391Y-85643813D01*
X158163695Y-85605060D01*
X158165668Y-85597375D01*
X158167139Y-85593660D01*
X158193166Y-85560303D01*
X158186531Y-85538904D01*
X158188068Y-85517293D01*
X158190098Y-85504477D01*
X158192505Y-85492856D01*
X158201528Y-85457711D01*
X158201528Y-85457710D01*
X158203500Y-85450030D01*
X158203500Y-85429776D01*
X158205051Y-85410065D01*
X158206980Y-85397886D01*
X158208220Y-85390057D01*
X158204059Y-85346038D01*
X158203500Y-85334181D01*
X158203500Y-83845020D01*
X158223502Y-83776899D01*
X158277158Y-83730406D01*
X158347432Y-83720302D01*
X158412012Y-83749796D01*
G37*
%TD.AperFunction*%
%TD*%
M02*
