%TF.GenerationSoftware,KiCad,Pcbnew,6.0.11+dfsg-1~bpo11+1*%
%TF.CreationDate,2023-04-06T13:49:23+02:00*%
%TF.ProjectId,dvert_11,64766572-745f-4313-912e-6b696361645f,1.1*%
%TF.SameCoordinates,Original*%
%TF.FileFunction,Legend,Top*%
%TF.FilePolarity,Positive*%
%FSLAX46Y46*%
G04 Gerber Fmt 4.6, Leading zero omitted, Abs format (unit mm)*
G04 Created by KiCad (PCBNEW 6.0.11+dfsg-1~bpo11+1) date 2023-04-06 13:49:23*
%MOMM*%
%LPD*%
G01*
G04 APERTURE LIST*
%ADD10C,0.150000*%
%ADD11C,0.120000*%
%ADD12C,0.200000*%
%ADD13C,0.600000*%
G04 APERTURE END LIST*
D10*
G36*
X172700000Y-84600000D02*
G01*
X170800000Y-87400000D01*
X170800000Y-85900000D01*
X166800000Y-85900000D01*
X166800000Y-83400000D01*
X170800000Y-83400000D01*
X170800000Y-81900000D01*
X172700000Y-84600000D01*
G37*
X172700000Y-84600000D02*
X170800000Y-87400000D01*
X170800000Y-85900000D01*
X166800000Y-85900000D01*
X166800000Y-83400000D01*
X170800000Y-83400000D01*
X170800000Y-81900000D01*
X172700000Y-84600000D01*
D11*
X141616666Y-108933333D02*
X140916666Y-108933333D01*
X140916666Y-108466666D02*
X140916666Y-108333333D01*
X140950000Y-108266666D01*
X141016666Y-108200000D01*
X141150000Y-108166666D01*
X141383333Y-108166666D01*
X141516666Y-108200000D01*
X141583333Y-108266666D01*
X141616666Y-108333333D01*
X141616666Y-108466666D01*
X141583333Y-108533333D01*
X141516666Y-108600000D01*
X141383333Y-108633333D01*
X141150000Y-108633333D01*
X141016666Y-108600000D01*
X140950000Y-108533333D01*
X140916666Y-108466666D01*
X141616666Y-107500000D02*
X141616666Y-107900000D01*
X141616666Y-107700000D02*
X140916666Y-107700000D01*
X141016666Y-107766666D01*
X141083333Y-107833333D01*
X141116666Y-107900000D01*
X141616666Y-106833333D02*
X141616666Y-107233333D01*
X141616666Y-107033333D02*
X140916666Y-107033333D01*
X141016666Y-107100000D01*
X141083333Y-107166666D01*
X141116666Y-107233333D01*
X147966666Y-108883333D02*
X147266666Y-108883333D01*
X147266666Y-108416666D02*
X147266666Y-108283333D01*
X147300000Y-108216666D01*
X147366666Y-108150000D01*
X147500000Y-108116666D01*
X147733333Y-108116666D01*
X147866666Y-108150000D01*
X147933333Y-108216666D01*
X147966666Y-108283333D01*
X147966666Y-108416666D01*
X147933333Y-108483333D01*
X147866666Y-108550000D01*
X147733333Y-108583333D01*
X147500000Y-108583333D01*
X147366666Y-108550000D01*
X147300000Y-108483333D01*
X147266666Y-108416666D01*
X147966666Y-107450000D02*
X147966666Y-107850000D01*
X147966666Y-107650000D02*
X147266666Y-107650000D01*
X147366666Y-107716666D01*
X147433333Y-107783333D01*
X147466666Y-107850000D01*
X147266666Y-106850000D02*
X147266666Y-106983333D01*
X147300000Y-107050000D01*
X147333333Y-107083333D01*
X147433333Y-107150000D01*
X147566666Y-107183333D01*
X147833333Y-107183333D01*
X147900000Y-107150000D01*
X147933333Y-107116666D01*
X147966666Y-107050000D01*
X147966666Y-106916666D01*
X147933333Y-106850000D01*
X147900000Y-106816666D01*
X147833333Y-106783333D01*
X147666666Y-106783333D01*
X147600000Y-106816666D01*
X147566666Y-106850000D01*
X147533333Y-106916666D01*
X147533333Y-107050000D01*
X147566666Y-107116666D01*
X147600000Y-107150000D01*
X147666666Y-107183333D01*
D10*
X141691785Y-81682380D02*
X141358452Y-81206190D01*
X141120357Y-81682380D02*
X141120357Y-80682380D01*
X141501309Y-80682380D01*
X141596547Y-80730000D01*
X141644166Y-80777619D01*
X141691785Y-80872857D01*
X141691785Y-81015714D01*
X141644166Y-81110952D01*
X141596547Y-81158571D01*
X141501309Y-81206190D01*
X141120357Y-81206190D01*
X142120357Y-81682380D02*
X142120357Y-80682380D01*
X142929880Y-81158571D02*
X143072738Y-81206190D01*
X143120357Y-81253809D01*
X143167976Y-81349047D01*
X143167976Y-81491904D01*
X143120357Y-81587142D01*
X143072738Y-81634761D01*
X142977500Y-81682380D01*
X142596547Y-81682380D01*
X142596547Y-80682380D01*
X142929880Y-80682380D01*
X143025119Y-80730000D01*
X143072738Y-80777619D01*
X143120357Y-80872857D01*
X143120357Y-80968095D01*
X143072738Y-81063333D01*
X143025119Y-81110952D01*
X142929880Y-81158571D01*
X142596547Y-81158571D01*
X145072738Y-80634761D02*
X144215595Y-81920476D01*
X146739404Y-81587142D02*
X146691785Y-81634761D01*
X146548928Y-81682380D01*
X146453690Y-81682380D01*
X146310833Y-81634761D01*
X146215595Y-81539523D01*
X146167976Y-81444285D01*
X146120357Y-81253809D01*
X146120357Y-81110952D01*
X146167976Y-80920476D01*
X146215595Y-80825238D01*
X146310833Y-80730000D01*
X146453690Y-80682380D01*
X146548928Y-80682380D01*
X146691785Y-80730000D01*
X146739404Y-80777619D01*
X147358452Y-80682380D02*
X147548928Y-80682380D01*
X147644166Y-80730000D01*
X147739404Y-80825238D01*
X147787023Y-81015714D01*
X147787023Y-81349047D01*
X147739404Y-81539523D01*
X147644166Y-81634761D01*
X147548928Y-81682380D01*
X147358452Y-81682380D01*
X147263214Y-81634761D01*
X147167976Y-81539523D01*
X147120357Y-81349047D01*
X147120357Y-81015714D01*
X147167976Y-80825238D01*
X147263214Y-80730000D01*
X147358452Y-80682380D01*
X148167976Y-81634761D02*
X148310833Y-81682380D01*
X148548928Y-81682380D01*
X148644166Y-81634761D01*
X148691785Y-81587142D01*
X148739404Y-81491904D01*
X148739404Y-81396666D01*
X148691785Y-81301428D01*
X148644166Y-81253809D01*
X148548928Y-81206190D01*
X148358452Y-81158571D01*
X148263214Y-81110952D01*
X148215595Y-81063333D01*
X148167976Y-80968095D01*
X148167976Y-80872857D01*
X148215595Y-80777619D01*
X148263214Y-80730000D01*
X148358452Y-80682380D01*
X148596547Y-80682380D01*
X148739404Y-80730000D01*
X149025119Y-80682380D02*
X149596547Y-80682380D01*
X149310833Y-81682380D02*
X149310833Y-80682380D01*
X149929880Y-81158571D02*
X150263214Y-81158571D01*
X150406071Y-81682380D02*
X149929880Y-81682380D01*
X149929880Y-80682380D01*
X150406071Y-80682380D01*
X151310833Y-81682380D02*
X150834642Y-81682380D01*
X150834642Y-80682380D01*
X152120357Y-81682380D02*
X151644166Y-81682380D01*
X151644166Y-80682380D01*
X152406071Y-81396666D02*
X152882261Y-81396666D01*
X152310833Y-81682380D02*
X152644166Y-80682380D01*
X152977500Y-81682380D01*
D11*
X164350000Y-81286666D02*
X164683333Y-81286666D01*
X164283333Y-81486666D02*
X164516666Y-80786666D01*
X164750000Y-81486666D01*
X164950000Y-80853333D02*
X164983333Y-80820000D01*
X165050000Y-80786666D01*
X165216666Y-80786666D01*
X165283333Y-80820000D01*
X165316666Y-80853333D01*
X165350000Y-80920000D01*
X165350000Y-80986666D01*
X165316666Y-81086666D01*
X164916666Y-81486666D01*
X165350000Y-81486666D01*
X159180000Y-81256666D02*
X159513333Y-81256666D01*
X159113333Y-81456666D02*
X159346666Y-80756666D01*
X159580000Y-81456666D01*
X159946666Y-80756666D02*
X160013333Y-80756666D01*
X160080000Y-80790000D01*
X160113333Y-80823333D01*
X160146666Y-80890000D01*
X160180000Y-81023333D01*
X160180000Y-81190000D01*
X160146666Y-81323333D01*
X160113333Y-81390000D01*
X160080000Y-81423333D01*
X160013333Y-81456666D01*
X159946666Y-81456666D01*
X159880000Y-81423333D01*
X159846666Y-81390000D01*
X159813333Y-81323333D01*
X159780000Y-81190000D01*
X159780000Y-81023333D01*
X159813333Y-80890000D01*
X159846666Y-80823333D01*
X159880000Y-80790000D01*
X159946666Y-80756666D01*
X147966666Y-94683333D02*
X147266666Y-94683333D01*
X147266666Y-94216666D02*
X147266666Y-94083333D01*
X147300000Y-94016666D01*
X147366666Y-93950000D01*
X147500000Y-93916666D01*
X147733333Y-93916666D01*
X147866666Y-93950000D01*
X147933333Y-94016666D01*
X147966666Y-94083333D01*
X147966666Y-94216666D01*
X147933333Y-94283333D01*
X147866666Y-94350000D01*
X147733333Y-94383333D01*
X147500000Y-94383333D01*
X147366666Y-94350000D01*
X147300000Y-94283333D01*
X147266666Y-94216666D01*
X147266666Y-93483333D02*
X147266666Y-93416666D01*
X147300000Y-93350000D01*
X147333333Y-93316666D01*
X147400000Y-93283333D01*
X147533333Y-93250000D01*
X147700000Y-93250000D01*
X147833333Y-93283333D01*
X147900000Y-93316666D01*
X147933333Y-93350000D01*
X147966666Y-93416666D01*
X147966666Y-93483333D01*
X147933333Y-93550000D01*
X147900000Y-93583333D01*
X147833333Y-93616666D01*
X147700000Y-93650000D01*
X147533333Y-93650000D01*
X147400000Y-93616666D01*
X147333333Y-93583333D01*
X147300000Y-93550000D01*
X147266666Y-93483333D01*
X147333333Y-92983333D02*
X147300000Y-92950000D01*
X147266666Y-92883333D01*
X147266666Y-92716666D01*
X147300000Y-92650000D01*
X147333333Y-92616666D01*
X147400000Y-92583333D01*
X147466666Y-92583333D01*
X147566666Y-92616666D01*
X147966666Y-93016666D01*
X147966666Y-92583333D01*
X145466666Y-94683333D02*
X144766666Y-94683333D01*
X144766666Y-94216666D02*
X144766666Y-94083333D01*
X144800000Y-94016666D01*
X144866666Y-93950000D01*
X145000000Y-93916666D01*
X145233333Y-93916666D01*
X145366666Y-93950000D01*
X145433333Y-94016666D01*
X145466666Y-94083333D01*
X145466666Y-94216666D01*
X145433333Y-94283333D01*
X145366666Y-94350000D01*
X145233333Y-94383333D01*
X145000000Y-94383333D01*
X144866666Y-94350000D01*
X144800000Y-94283333D01*
X144766666Y-94216666D01*
X144766666Y-93483333D02*
X144766666Y-93416666D01*
X144800000Y-93350000D01*
X144833333Y-93316666D01*
X144900000Y-93283333D01*
X145033333Y-93250000D01*
X145200000Y-93250000D01*
X145333333Y-93283333D01*
X145400000Y-93316666D01*
X145433333Y-93350000D01*
X145466666Y-93416666D01*
X145466666Y-93483333D01*
X145433333Y-93550000D01*
X145400000Y-93583333D01*
X145333333Y-93616666D01*
X145200000Y-93650000D01*
X145033333Y-93650000D01*
X144900000Y-93616666D01*
X144833333Y-93583333D01*
X144800000Y-93550000D01*
X144766666Y-93483333D01*
X145000000Y-92650000D02*
X145466666Y-92650000D01*
X144733333Y-92816666D02*
X145233333Y-92983333D01*
X145233333Y-92550000D01*
D12*
X128871428Y-125842857D02*
X128871428Y-124642857D01*
X128871428Y-125785714D02*
X128757142Y-125842857D01*
X128528571Y-125842857D01*
X128414285Y-125785714D01*
X128357142Y-125728571D01*
X128300000Y-125614285D01*
X128300000Y-125271428D01*
X128357142Y-125157142D01*
X128414285Y-125100000D01*
X128528571Y-125042857D01*
X128757142Y-125042857D01*
X128871428Y-125100000D01*
X129328571Y-125042857D02*
X129614285Y-125842857D01*
X129900000Y-125042857D01*
X130814285Y-125785714D02*
X130700000Y-125842857D01*
X130471428Y-125842857D01*
X130357142Y-125785714D01*
X130300000Y-125671428D01*
X130300000Y-125214285D01*
X130357142Y-125100000D01*
X130471428Y-125042857D01*
X130700000Y-125042857D01*
X130814285Y-125100000D01*
X130871428Y-125214285D01*
X130871428Y-125328571D01*
X130300000Y-125442857D01*
X131385714Y-125842857D02*
X131385714Y-125042857D01*
X131385714Y-125271428D02*
X131442857Y-125157142D01*
X131500000Y-125100000D01*
X131614285Y-125042857D01*
X131728571Y-125042857D01*
X131957142Y-125042857D02*
X132414285Y-125042857D01*
X132128571Y-124642857D02*
X132128571Y-125671428D01*
X132185714Y-125785714D01*
X132300000Y-125842857D01*
X132414285Y-125842857D01*
D11*
X153083333Y-108550000D02*
X153116666Y-108450000D01*
X153116666Y-108283333D01*
X153083333Y-108216666D01*
X153050000Y-108183333D01*
X152983333Y-108150000D01*
X152916666Y-108150000D01*
X152850000Y-108183333D01*
X152816666Y-108216666D01*
X152783333Y-108283333D01*
X152750000Y-108416666D01*
X152716666Y-108483333D01*
X152683333Y-108516666D01*
X152616666Y-108550000D01*
X152550000Y-108550000D01*
X152483333Y-108516666D01*
X152450000Y-108483333D01*
X152416666Y-108416666D01*
X152416666Y-108250000D01*
X152450000Y-108150000D01*
X153116666Y-107850000D02*
X152416666Y-107850000D01*
X152416666Y-107683333D01*
X152450000Y-107583333D01*
X152516666Y-107516666D01*
X152583333Y-107483333D01*
X152716666Y-107450000D01*
X152816666Y-107450000D01*
X152950000Y-107483333D01*
X153016666Y-107516666D01*
X153083333Y-107583333D01*
X153116666Y-107683333D01*
X153116666Y-107850000D01*
X152916666Y-107183333D02*
X152916666Y-106850000D01*
X153116666Y-107250000D02*
X152416666Y-107016666D01*
X153116666Y-106783333D01*
D10*
X133525714Y-108574761D02*
X134192380Y-108384285D01*
X133716190Y-108193809D01*
X134192380Y-108003333D01*
X133525714Y-107812857D01*
X133525714Y-107527142D02*
X134192380Y-107336666D01*
X133716190Y-107146190D01*
X134192380Y-106955714D01*
X133525714Y-106765238D01*
X133525714Y-106479523D02*
X134192380Y-106289047D01*
X133716190Y-106098571D01*
X134192380Y-105908095D01*
X133525714Y-105717619D01*
X134097142Y-105336666D02*
X134144761Y-105289047D01*
X134192380Y-105336666D01*
X134144761Y-105384285D01*
X134097142Y-105336666D01*
X134192380Y-105336666D01*
X134192380Y-104860476D02*
X133525714Y-104860476D01*
X133192380Y-104860476D02*
X133240000Y-104908095D01*
X133287619Y-104860476D01*
X133240000Y-104812857D01*
X133192380Y-104860476D01*
X133287619Y-104860476D01*
X134192380Y-104241428D02*
X134144761Y-104336666D01*
X134097142Y-104384285D01*
X134001904Y-104431904D01*
X133716190Y-104431904D01*
X133620952Y-104384285D01*
X133573333Y-104336666D01*
X133525714Y-104241428D01*
X133525714Y-104098571D01*
X133573333Y-104003333D01*
X133620952Y-103955714D01*
X133716190Y-103908095D01*
X134001904Y-103908095D01*
X134097142Y-103955714D01*
X134144761Y-104003333D01*
X134192380Y-104098571D01*
X134192380Y-104241428D01*
X133525714Y-103622380D02*
X133525714Y-103241428D01*
X133192380Y-103479523D02*
X134049523Y-103479523D01*
X134144761Y-103431904D01*
X134192380Y-103336666D01*
X134192380Y-103241428D01*
X133525714Y-103003333D02*
X134192380Y-102765238D01*
X133525714Y-102527142D01*
X134144761Y-101765238D02*
X134192380Y-101860476D01*
X134192380Y-102050952D01*
X134144761Y-102146190D01*
X134049523Y-102193809D01*
X133668571Y-102193809D01*
X133573333Y-102146190D01*
X133525714Y-102050952D01*
X133525714Y-101860476D01*
X133573333Y-101765238D01*
X133668571Y-101717619D01*
X133763809Y-101717619D01*
X133859047Y-102193809D01*
X134192380Y-101289047D02*
X133525714Y-101289047D01*
X133716190Y-101289047D02*
X133620952Y-101241428D01*
X133573333Y-101193809D01*
X133525714Y-101098571D01*
X133525714Y-101003333D01*
X133525714Y-100812857D02*
X133525714Y-100431904D01*
X133192380Y-100670000D02*
X134049523Y-100670000D01*
X134144761Y-100622380D01*
X134192380Y-100527142D01*
X134192380Y-100431904D01*
X134144761Y-99717619D02*
X134192380Y-99812857D01*
X134192380Y-100003333D01*
X134144761Y-100098571D01*
X134049523Y-100146190D01*
X133668571Y-100146190D01*
X133573333Y-100098571D01*
X133525714Y-100003333D01*
X133525714Y-99812857D01*
X133573333Y-99717619D01*
X133668571Y-99670000D01*
X133763809Y-99670000D01*
X133859047Y-100146190D01*
X134192380Y-99241428D02*
X133192380Y-99241428D01*
X133573333Y-99241428D02*
X133525714Y-99146190D01*
X133525714Y-98955714D01*
X133573333Y-98860476D01*
X133620952Y-98812857D01*
X133716190Y-98765238D01*
X134001904Y-98765238D01*
X134097142Y-98812857D01*
X134144761Y-98860476D01*
X134192380Y-98955714D01*
X134192380Y-99146190D01*
X134144761Y-99241428D01*
X134192380Y-98336666D02*
X133525714Y-98336666D01*
X133716190Y-98336666D02*
X133620952Y-98289047D01*
X133573333Y-98241428D01*
X133525714Y-98146190D01*
X133525714Y-98050952D01*
X134192380Y-97289047D02*
X133668571Y-97289047D01*
X133573333Y-97336666D01*
X133525714Y-97431904D01*
X133525714Y-97622380D01*
X133573333Y-97717619D01*
X134144761Y-97289047D02*
X134192380Y-97384285D01*
X134192380Y-97622380D01*
X134144761Y-97717619D01*
X134049523Y-97765238D01*
X133954285Y-97765238D01*
X133859047Y-97717619D01*
X133811428Y-97622380D01*
X133811428Y-97384285D01*
X133763809Y-97289047D01*
X134144761Y-96431904D02*
X134192380Y-96527142D01*
X134192380Y-96717619D01*
X134144761Y-96812857D01*
X134049523Y-96860476D01*
X133668571Y-96860476D01*
X133573333Y-96812857D01*
X133525714Y-96717619D01*
X133525714Y-96527142D01*
X133573333Y-96431904D01*
X133668571Y-96384285D01*
X133763809Y-96384285D01*
X133859047Y-96860476D01*
X134097142Y-95955714D02*
X134144761Y-95908095D01*
X134192380Y-95955714D01*
X134144761Y-96003333D01*
X134097142Y-95955714D01*
X134192380Y-95955714D01*
X134144761Y-95050952D02*
X134192380Y-95146190D01*
X134192380Y-95336666D01*
X134144761Y-95431904D01*
X134097142Y-95479523D01*
X134001904Y-95527142D01*
X133716190Y-95527142D01*
X133620952Y-95479523D01*
X133573333Y-95431904D01*
X133525714Y-95336666D01*
X133525714Y-95146190D01*
X133573333Y-95050952D01*
X134192380Y-94479523D02*
X134144761Y-94574761D01*
X134097142Y-94622380D01*
X134001904Y-94670000D01*
X133716190Y-94670000D01*
X133620952Y-94622380D01*
X133573333Y-94574761D01*
X133525714Y-94479523D01*
X133525714Y-94336666D01*
X133573333Y-94241428D01*
X133620952Y-94193809D01*
X133716190Y-94146190D01*
X134001904Y-94146190D01*
X134097142Y-94193809D01*
X134144761Y-94241428D01*
X134192380Y-94336666D01*
X134192380Y-94479523D01*
X134192380Y-93717619D02*
X133525714Y-93717619D01*
X133620952Y-93717619D02*
X133573333Y-93670000D01*
X133525714Y-93574761D01*
X133525714Y-93431904D01*
X133573333Y-93336666D01*
X133668571Y-93289047D01*
X134192380Y-93289047D01*
X133668571Y-93289047D02*
X133573333Y-93241428D01*
X133525714Y-93146190D01*
X133525714Y-93003333D01*
X133573333Y-92908095D01*
X133668571Y-92860476D01*
X134192380Y-92860476D01*
D11*
X154366666Y-94700000D02*
X153666666Y-94700000D01*
X154366666Y-94300000D01*
X153666666Y-94300000D01*
X154300000Y-93566666D02*
X154333333Y-93600000D01*
X154366666Y-93700000D01*
X154366666Y-93766666D01*
X154333333Y-93866666D01*
X154266666Y-93933333D01*
X154200000Y-93966666D01*
X154066666Y-94000000D01*
X153966666Y-94000000D01*
X153833333Y-93966666D01*
X153766666Y-93933333D01*
X153700000Y-93866666D01*
X153666666Y-93766666D01*
X153666666Y-93700000D01*
X153700000Y-93600000D01*
X153733333Y-93566666D01*
X144216666Y-94683333D02*
X143516666Y-94683333D01*
X143516666Y-94216666D02*
X143516666Y-94083333D01*
X143550000Y-94016666D01*
X143616666Y-93950000D01*
X143750000Y-93916666D01*
X143983333Y-93916666D01*
X144116666Y-93950000D01*
X144183333Y-94016666D01*
X144216666Y-94083333D01*
X144216666Y-94216666D01*
X144183333Y-94283333D01*
X144116666Y-94350000D01*
X143983333Y-94383333D01*
X143750000Y-94383333D01*
X143616666Y-94350000D01*
X143550000Y-94283333D01*
X143516666Y-94216666D01*
X143516666Y-93483333D02*
X143516666Y-93416666D01*
X143550000Y-93350000D01*
X143583333Y-93316666D01*
X143650000Y-93283333D01*
X143783333Y-93250000D01*
X143950000Y-93250000D01*
X144083333Y-93283333D01*
X144150000Y-93316666D01*
X144183333Y-93350000D01*
X144216666Y-93416666D01*
X144216666Y-93483333D01*
X144183333Y-93550000D01*
X144150000Y-93583333D01*
X144083333Y-93616666D01*
X143950000Y-93650000D01*
X143783333Y-93650000D01*
X143650000Y-93616666D01*
X143583333Y-93583333D01*
X143550000Y-93550000D01*
X143516666Y-93483333D01*
X143516666Y-92616666D02*
X143516666Y-92950000D01*
X143850000Y-92983333D01*
X143816666Y-92950000D01*
X143783333Y-92883333D01*
X143783333Y-92716666D01*
X143816666Y-92650000D01*
X143850000Y-92616666D01*
X143916666Y-92583333D01*
X144083333Y-92583333D01*
X144150000Y-92616666D01*
X144183333Y-92650000D01*
X144216666Y-92716666D01*
X144216666Y-92883333D01*
X144183333Y-92950000D01*
X144150000Y-92983333D01*
X146716666Y-94683333D02*
X146016666Y-94683333D01*
X146016666Y-94216666D02*
X146016666Y-94083333D01*
X146050000Y-94016666D01*
X146116666Y-93950000D01*
X146250000Y-93916666D01*
X146483333Y-93916666D01*
X146616666Y-93950000D01*
X146683333Y-94016666D01*
X146716666Y-94083333D01*
X146716666Y-94216666D01*
X146683333Y-94283333D01*
X146616666Y-94350000D01*
X146483333Y-94383333D01*
X146250000Y-94383333D01*
X146116666Y-94350000D01*
X146050000Y-94283333D01*
X146016666Y-94216666D01*
X146016666Y-93483333D02*
X146016666Y-93416666D01*
X146050000Y-93350000D01*
X146083333Y-93316666D01*
X146150000Y-93283333D01*
X146283333Y-93250000D01*
X146450000Y-93250000D01*
X146583333Y-93283333D01*
X146650000Y-93316666D01*
X146683333Y-93350000D01*
X146716666Y-93416666D01*
X146716666Y-93483333D01*
X146683333Y-93550000D01*
X146650000Y-93583333D01*
X146583333Y-93616666D01*
X146450000Y-93650000D01*
X146283333Y-93650000D01*
X146150000Y-93616666D01*
X146083333Y-93583333D01*
X146050000Y-93550000D01*
X146016666Y-93483333D01*
X146016666Y-93016666D02*
X146016666Y-92583333D01*
X146283333Y-92816666D01*
X146283333Y-92716666D01*
X146316666Y-92650000D01*
X146350000Y-92616666D01*
X146416666Y-92583333D01*
X146583333Y-92583333D01*
X146650000Y-92616666D01*
X146683333Y-92650000D01*
X146716666Y-92716666D01*
X146716666Y-92916666D01*
X146683333Y-92983333D01*
X146650000Y-93016666D01*
D10*
X126929880Y-104027619D02*
X127929880Y-103694285D01*
X126929880Y-103360952D01*
X127406071Y-103027619D02*
X127406071Y-102694285D01*
X127929880Y-102551428D02*
X127929880Y-103027619D01*
X126929880Y-103027619D01*
X126929880Y-102551428D01*
X127929880Y-101551428D02*
X127453690Y-101884761D01*
X127929880Y-102122857D02*
X126929880Y-102122857D01*
X126929880Y-101741904D01*
X126977500Y-101646666D01*
X127025119Y-101599047D01*
X127120357Y-101551428D01*
X127263214Y-101551428D01*
X127358452Y-101599047D01*
X127406071Y-101646666D01*
X127453690Y-101741904D01*
X127453690Y-102122857D01*
X126929880Y-101265714D02*
X126929880Y-100694285D01*
X127929880Y-100980000D02*
X126929880Y-100980000D01*
X127406071Y-100360952D02*
X127406071Y-100027619D01*
X127929880Y-99884761D02*
X127929880Y-100360952D01*
X126929880Y-100360952D01*
X126929880Y-99884761D01*
X127406071Y-99122857D02*
X127453690Y-98980000D01*
X127501309Y-98932380D01*
X127596547Y-98884761D01*
X127739404Y-98884761D01*
X127834642Y-98932380D01*
X127882261Y-98980000D01*
X127929880Y-99075238D01*
X127929880Y-99456190D01*
X126929880Y-99456190D01*
X126929880Y-99122857D01*
X126977500Y-99027619D01*
X127025119Y-98980000D01*
X127120357Y-98932380D01*
X127215595Y-98932380D01*
X127310833Y-98980000D01*
X127358452Y-99027619D01*
X127406071Y-99122857D01*
X127406071Y-99456190D01*
X127929880Y-97884761D02*
X127453690Y-98218095D01*
X127929880Y-98456190D02*
X126929880Y-98456190D01*
X126929880Y-98075238D01*
X126977500Y-97980000D01*
X127025119Y-97932380D01*
X127120357Y-97884761D01*
X127263214Y-97884761D01*
X127358452Y-97932380D01*
X127406071Y-97980000D01*
X127453690Y-98075238D01*
X127453690Y-98456190D01*
X127644166Y-97503809D02*
X127644166Y-97027619D01*
X127929880Y-97599047D02*
X126929880Y-97265714D01*
X127929880Y-96932380D01*
D11*
X140316666Y-108883333D02*
X139616666Y-108883333D01*
X139616666Y-108416666D02*
X139616666Y-108283333D01*
X139650000Y-108216666D01*
X139716666Y-108150000D01*
X139850000Y-108116666D01*
X140083333Y-108116666D01*
X140216666Y-108150000D01*
X140283333Y-108216666D01*
X140316666Y-108283333D01*
X140316666Y-108416666D01*
X140283333Y-108483333D01*
X140216666Y-108550000D01*
X140083333Y-108583333D01*
X139850000Y-108583333D01*
X139716666Y-108550000D01*
X139650000Y-108483333D01*
X139616666Y-108416666D01*
X140316666Y-107450000D02*
X140316666Y-107850000D01*
X140316666Y-107650000D02*
X139616666Y-107650000D01*
X139716666Y-107716666D01*
X139783333Y-107783333D01*
X139816666Y-107850000D01*
X139616666Y-107016666D02*
X139616666Y-106950000D01*
X139650000Y-106883333D01*
X139683333Y-106850000D01*
X139750000Y-106816666D01*
X139883333Y-106783333D01*
X140050000Y-106783333D01*
X140183333Y-106816666D01*
X140250000Y-106850000D01*
X140283333Y-106883333D01*
X140316666Y-106950000D01*
X140316666Y-107016666D01*
X140283333Y-107083333D01*
X140250000Y-107116666D01*
X140183333Y-107150000D01*
X140050000Y-107183333D01*
X139883333Y-107183333D01*
X139750000Y-107150000D01*
X139683333Y-107116666D01*
X139650000Y-107083333D01*
X139616666Y-107016666D01*
X129378571Y-126539285D02*
X129557142Y-127039285D01*
X129735714Y-126539285D01*
X130414285Y-127039285D02*
X129985714Y-127039285D01*
X130200000Y-127039285D02*
X130200000Y-126289285D01*
X130128571Y-126396428D01*
X130057142Y-126467857D01*
X129985714Y-126503571D01*
X130735714Y-126967857D02*
X130771428Y-127003571D01*
X130735714Y-127039285D01*
X130700000Y-127003571D01*
X130735714Y-126967857D01*
X130735714Y-127039285D01*
X131485714Y-127039285D02*
X131057142Y-127039285D01*
X131271428Y-127039285D02*
X131271428Y-126289285D01*
X131200000Y-126396428D01*
X131128571Y-126467857D01*
X131057142Y-126503571D01*
X141616666Y-94683333D02*
X140916666Y-94683333D01*
X140916666Y-94216666D02*
X140916666Y-94083333D01*
X140950000Y-94016666D01*
X141016666Y-93950000D01*
X141150000Y-93916666D01*
X141383333Y-93916666D01*
X141516666Y-93950000D01*
X141583333Y-94016666D01*
X141616666Y-94083333D01*
X141616666Y-94216666D01*
X141583333Y-94283333D01*
X141516666Y-94350000D01*
X141383333Y-94383333D01*
X141150000Y-94383333D01*
X141016666Y-94350000D01*
X140950000Y-94283333D01*
X140916666Y-94216666D01*
X140916666Y-93483333D02*
X140916666Y-93416666D01*
X140950000Y-93350000D01*
X140983333Y-93316666D01*
X141050000Y-93283333D01*
X141183333Y-93250000D01*
X141350000Y-93250000D01*
X141483333Y-93283333D01*
X141550000Y-93316666D01*
X141583333Y-93350000D01*
X141616666Y-93416666D01*
X141616666Y-93483333D01*
X141583333Y-93550000D01*
X141550000Y-93583333D01*
X141483333Y-93616666D01*
X141350000Y-93650000D01*
X141183333Y-93650000D01*
X141050000Y-93616666D01*
X140983333Y-93583333D01*
X140950000Y-93550000D01*
X140916666Y-93483333D01*
X140916666Y-93016666D02*
X140916666Y-92550000D01*
X141616666Y-92850000D01*
X151566666Y-94650000D02*
X151566666Y-94316666D01*
X151766666Y-94716666D02*
X151066666Y-94483333D01*
X151766666Y-94250000D01*
X151133333Y-94050000D02*
X151100000Y-94016666D01*
X151066666Y-93950000D01*
X151066666Y-93783333D01*
X151100000Y-93716666D01*
X151133333Y-93683333D01*
X151200000Y-93650000D01*
X151266666Y-93650000D01*
X151366666Y-93683333D01*
X151766666Y-94083333D01*
X151766666Y-93650000D01*
X149216666Y-94683333D02*
X148516666Y-94683333D01*
X148516666Y-94216666D02*
X148516666Y-94083333D01*
X148550000Y-94016666D01*
X148616666Y-93950000D01*
X148750000Y-93916666D01*
X148983333Y-93916666D01*
X149116666Y-93950000D01*
X149183333Y-94016666D01*
X149216666Y-94083333D01*
X149216666Y-94216666D01*
X149183333Y-94283333D01*
X149116666Y-94350000D01*
X148983333Y-94383333D01*
X148750000Y-94383333D01*
X148616666Y-94350000D01*
X148550000Y-94283333D01*
X148516666Y-94216666D01*
X148516666Y-93483333D02*
X148516666Y-93416666D01*
X148550000Y-93350000D01*
X148583333Y-93316666D01*
X148650000Y-93283333D01*
X148783333Y-93250000D01*
X148950000Y-93250000D01*
X149083333Y-93283333D01*
X149150000Y-93316666D01*
X149183333Y-93350000D01*
X149216666Y-93416666D01*
X149216666Y-93483333D01*
X149183333Y-93550000D01*
X149150000Y-93583333D01*
X149083333Y-93616666D01*
X148950000Y-93650000D01*
X148783333Y-93650000D01*
X148650000Y-93616666D01*
X148583333Y-93583333D01*
X148550000Y-93550000D01*
X148516666Y-93483333D01*
X149216666Y-92583333D02*
X149216666Y-92983333D01*
X149216666Y-92783333D02*
X148516666Y-92783333D01*
X148616666Y-92850000D01*
X148683333Y-92916666D01*
X148716666Y-92983333D01*
X144166666Y-108933333D02*
X143466666Y-108933333D01*
X143466666Y-108466666D02*
X143466666Y-108333333D01*
X143500000Y-108266666D01*
X143566666Y-108200000D01*
X143700000Y-108166666D01*
X143933333Y-108166666D01*
X144066666Y-108200000D01*
X144133333Y-108266666D01*
X144166666Y-108333333D01*
X144166666Y-108466666D01*
X144133333Y-108533333D01*
X144066666Y-108600000D01*
X143933333Y-108633333D01*
X143700000Y-108633333D01*
X143566666Y-108600000D01*
X143500000Y-108533333D01*
X143466666Y-108466666D01*
X144166666Y-107500000D02*
X144166666Y-107900000D01*
X144166666Y-107700000D02*
X143466666Y-107700000D01*
X143566666Y-107766666D01*
X143633333Y-107833333D01*
X143666666Y-107900000D01*
X143466666Y-107266666D02*
X143466666Y-106833333D01*
X143733333Y-107066666D01*
X143733333Y-106966666D01*
X143766666Y-106900000D01*
X143800000Y-106866666D01*
X143866666Y-106833333D01*
X144033333Y-106833333D01*
X144100000Y-106866666D01*
X144133333Y-106900000D01*
X144166666Y-106966666D01*
X144166666Y-107166666D01*
X144133333Y-107233333D01*
X144100000Y-107266666D01*
D13*
X160227619Y-78646666D02*
X162132380Y-78646666D01*
X159846666Y-79789523D02*
X161180000Y-75789523D01*
X162513333Y-79789523D01*
D11*
X142866666Y-94683333D02*
X142166666Y-94683333D01*
X142166666Y-94216666D02*
X142166666Y-94083333D01*
X142200000Y-94016666D01*
X142266666Y-93950000D01*
X142400000Y-93916666D01*
X142633333Y-93916666D01*
X142766666Y-93950000D01*
X142833333Y-94016666D01*
X142866666Y-94083333D01*
X142866666Y-94216666D01*
X142833333Y-94283333D01*
X142766666Y-94350000D01*
X142633333Y-94383333D01*
X142400000Y-94383333D01*
X142266666Y-94350000D01*
X142200000Y-94283333D01*
X142166666Y-94216666D01*
X142166666Y-93483333D02*
X142166666Y-93416666D01*
X142200000Y-93350000D01*
X142233333Y-93316666D01*
X142300000Y-93283333D01*
X142433333Y-93250000D01*
X142600000Y-93250000D01*
X142733333Y-93283333D01*
X142800000Y-93316666D01*
X142833333Y-93350000D01*
X142866666Y-93416666D01*
X142866666Y-93483333D01*
X142833333Y-93550000D01*
X142800000Y-93583333D01*
X142733333Y-93616666D01*
X142600000Y-93650000D01*
X142433333Y-93650000D01*
X142300000Y-93616666D01*
X142233333Y-93583333D01*
X142200000Y-93550000D01*
X142166666Y-93483333D01*
X142166666Y-92650000D02*
X142166666Y-92783333D01*
X142200000Y-92850000D01*
X142233333Y-92883333D01*
X142333333Y-92950000D01*
X142466666Y-92983333D01*
X142733333Y-92983333D01*
X142800000Y-92950000D01*
X142833333Y-92916666D01*
X142866666Y-92850000D01*
X142866666Y-92716666D01*
X142833333Y-92650000D01*
X142800000Y-92616666D01*
X142733333Y-92583333D01*
X142566666Y-92583333D01*
X142500000Y-92616666D01*
X142466666Y-92650000D01*
X142433333Y-92716666D01*
X142433333Y-92850000D01*
X142466666Y-92916666D01*
X142500000Y-92950000D01*
X142566666Y-92983333D01*
X145466666Y-108933333D02*
X144766666Y-108933333D01*
X144766666Y-108466666D02*
X144766666Y-108333333D01*
X144800000Y-108266666D01*
X144866666Y-108200000D01*
X145000000Y-108166666D01*
X145233333Y-108166666D01*
X145366666Y-108200000D01*
X145433333Y-108266666D01*
X145466666Y-108333333D01*
X145466666Y-108466666D01*
X145433333Y-108533333D01*
X145366666Y-108600000D01*
X145233333Y-108633333D01*
X145000000Y-108633333D01*
X144866666Y-108600000D01*
X144800000Y-108533333D01*
X144766666Y-108466666D01*
X145466666Y-107500000D02*
X145466666Y-107900000D01*
X145466666Y-107700000D02*
X144766666Y-107700000D01*
X144866666Y-107766666D01*
X144933333Y-107833333D01*
X144966666Y-107900000D01*
X145000000Y-106900000D02*
X145466666Y-106900000D01*
X144733333Y-107066666D02*
X145233333Y-107233333D01*
X145233333Y-106800000D01*
X149216666Y-108883333D02*
X148516666Y-108883333D01*
X148516666Y-108416666D02*
X148516666Y-108283333D01*
X148550000Y-108216666D01*
X148616666Y-108150000D01*
X148750000Y-108116666D01*
X148983333Y-108116666D01*
X149116666Y-108150000D01*
X149183333Y-108216666D01*
X149216666Y-108283333D01*
X149216666Y-108416666D01*
X149183333Y-108483333D01*
X149116666Y-108550000D01*
X148983333Y-108583333D01*
X148750000Y-108583333D01*
X148616666Y-108550000D01*
X148550000Y-108483333D01*
X148516666Y-108416666D01*
X149216666Y-107450000D02*
X149216666Y-107850000D01*
X149216666Y-107650000D02*
X148516666Y-107650000D01*
X148616666Y-107716666D01*
X148683333Y-107783333D01*
X148716666Y-107850000D01*
X148516666Y-107216666D02*
X148516666Y-106750000D01*
X149216666Y-107050000D01*
D10*
X141941785Y-120682380D02*
X141608452Y-120206190D01*
X141370357Y-120682380D02*
X141370357Y-119682380D01*
X141751309Y-119682380D01*
X141846547Y-119730000D01*
X141894166Y-119777619D01*
X141941785Y-119872857D01*
X141941785Y-120015714D01*
X141894166Y-120110952D01*
X141846547Y-120158571D01*
X141751309Y-120206190D01*
X141370357Y-120206190D01*
X142370357Y-120682380D02*
X142370357Y-119682380D01*
X143179880Y-120158571D02*
X143322738Y-120206190D01*
X143370357Y-120253809D01*
X143417976Y-120349047D01*
X143417976Y-120491904D01*
X143370357Y-120587142D01*
X143322738Y-120634761D01*
X143227500Y-120682380D01*
X142846547Y-120682380D01*
X142846547Y-119682380D01*
X143179880Y-119682380D01*
X143275119Y-119730000D01*
X143322738Y-119777619D01*
X143370357Y-119872857D01*
X143370357Y-119968095D01*
X143322738Y-120063333D01*
X143275119Y-120110952D01*
X143179880Y-120158571D01*
X142846547Y-120158571D01*
X145322738Y-119634761D02*
X144465595Y-120920476D01*
X146989404Y-120587142D02*
X146941785Y-120634761D01*
X146798928Y-120682380D01*
X146703690Y-120682380D01*
X146560833Y-120634761D01*
X146465595Y-120539523D01*
X146417976Y-120444285D01*
X146370357Y-120253809D01*
X146370357Y-120110952D01*
X146417976Y-119920476D01*
X146465595Y-119825238D01*
X146560833Y-119730000D01*
X146703690Y-119682380D01*
X146798928Y-119682380D01*
X146941785Y-119730000D01*
X146989404Y-119777619D01*
X147608452Y-119682380D02*
X147798928Y-119682380D01*
X147894166Y-119730000D01*
X147989404Y-119825238D01*
X148037023Y-120015714D01*
X148037023Y-120349047D01*
X147989404Y-120539523D01*
X147894166Y-120634761D01*
X147798928Y-120682380D01*
X147608452Y-120682380D01*
X147513214Y-120634761D01*
X147417976Y-120539523D01*
X147370357Y-120349047D01*
X147370357Y-120015714D01*
X147417976Y-119825238D01*
X147513214Y-119730000D01*
X147608452Y-119682380D01*
X148417976Y-120634761D02*
X148560833Y-120682380D01*
X148798928Y-120682380D01*
X148894166Y-120634761D01*
X148941785Y-120587142D01*
X148989404Y-120491904D01*
X148989404Y-120396666D01*
X148941785Y-120301428D01*
X148894166Y-120253809D01*
X148798928Y-120206190D01*
X148608452Y-120158571D01*
X148513214Y-120110952D01*
X148465595Y-120063333D01*
X148417976Y-119968095D01*
X148417976Y-119872857D01*
X148465595Y-119777619D01*
X148513214Y-119730000D01*
X148608452Y-119682380D01*
X148846547Y-119682380D01*
X148989404Y-119730000D01*
X149275119Y-119682380D02*
X149846547Y-119682380D01*
X149560833Y-120682380D02*
X149560833Y-119682380D01*
X150179880Y-120158571D02*
X150513214Y-120158571D01*
X150656071Y-120682380D02*
X150179880Y-120682380D01*
X150179880Y-119682380D01*
X150656071Y-119682380D01*
X151560833Y-120682380D02*
X151084642Y-120682380D01*
X151084642Y-119682380D01*
X152370357Y-120682380D02*
X151894166Y-120682380D01*
X151894166Y-119682380D01*
X152656071Y-120396666D02*
X153132261Y-120396666D01*
X152560833Y-120682380D02*
X152894166Y-119682380D01*
X153227500Y-120682380D01*
D11*
X142966666Y-108933333D02*
X142266666Y-108933333D01*
X142266666Y-108466666D02*
X142266666Y-108333333D01*
X142300000Y-108266666D01*
X142366666Y-108200000D01*
X142500000Y-108166666D01*
X142733333Y-108166666D01*
X142866666Y-108200000D01*
X142933333Y-108266666D01*
X142966666Y-108333333D01*
X142966666Y-108466666D01*
X142933333Y-108533333D01*
X142866666Y-108600000D01*
X142733333Y-108633333D01*
X142500000Y-108633333D01*
X142366666Y-108600000D01*
X142300000Y-108533333D01*
X142266666Y-108466666D01*
X142966666Y-107500000D02*
X142966666Y-107900000D01*
X142966666Y-107700000D02*
X142266666Y-107700000D01*
X142366666Y-107766666D01*
X142433333Y-107833333D01*
X142466666Y-107900000D01*
X142333333Y-107233333D02*
X142300000Y-107200000D01*
X142266666Y-107133333D01*
X142266666Y-106966666D01*
X142300000Y-106900000D01*
X142333333Y-106866666D01*
X142400000Y-106833333D01*
X142466666Y-106833333D01*
X142566666Y-106866666D01*
X142966666Y-107266666D01*
X142966666Y-106833333D01*
X139700000Y-94283333D02*
X139666666Y-94350000D01*
X139666666Y-94450000D01*
X139700000Y-94550000D01*
X139766666Y-94616666D01*
X139833333Y-94650000D01*
X139966666Y-94683333D01*
X140066666Y-94683333D01*
X140200000Y-94650000D01*
X140266666Y-94616666D01*
X140333333Y-94550000D01*
X140366666Y-94450000D01*
X140366666Y-94383333D01*
X140333333Y-94283333D01*
X140300000Y-94250000D01*
X140066666Y-94250000D01*
X140066666Y-94383333D01*
X140366666Y-93950000D02*
X139666666Y-93950000D01*
X140366666Y-93550000D01*
X139666666Y-93550000D01*
X140366666Y-93216666D02*
X139666666Y-93216666D01*
X139666666Y-93050000D01*
X139700000Y-92950000D01*
X139766666Y-92883333D01*
X139833333Y-92850000D01*
X139966666Y-92816666D01*
X140066666Y-92816666D01*
X140200000Y-92850000D01*
X140266666Y-92883333D01*
X140333333Y-92950000D01*
X140366666Y-93050000D01*
X140366666Y-93216666D01*
D13*
X161365714Y-116844285D02*
X161937142Y-117034761D01*
X162127619Y-117225238D01*
X162318095Y-117606190D01*
X162318095Y-118177619D01*
X162127619Y-118558571D01*
X161937142Y-118749047D01*
X161556190Y-118939523D01*
X160032380Y-118939523D01*
X160032380Y-114939523D01*
X161365714Y-114939523D01*
X161746666Y-115130000D01*
X161937142Y-115320476D01*
X162127619Y-115701428D01*
X162127619Y-116082380D01*
X161937142Y-116463333D01*
X161746666Y-116653809D01*
X161365714Y-116844285D01*
X160032380Y-116844285D01*
D11*
X150516666Y-94683333D02*
X149816666Y-94683333D01*
X149816666Y-94216666D02*
X149816666Y-94083333D01*
X149850000Y-94016666D01*
X149916666Y-93950000D01*
X150050000Y-93916666D01*
X150283333Y-93916666D01*
X150416666Y-93950000D01*
X150483333Y-94016666D01*
X150516666Y-94083333D01*
X150516666Y-94216666D01*
X150483333Y-94283333D01*
X150416666Y-94350000D01*
X150283333Y-94383333D01*
X150050000Y-94383333D01*
X149916666Y-94350000D01*
X149850000Y-94283333D01*
X149816666Y-94216666D01*
X149816666Y-93483333D02*
X149816666Y-93416666D01*
X149850000Y-93350000D01*
X149883333Y-93316666D01*
X149950000Y-93283333D01*
X150083333Y-93250000D01*
X150250000Y-93250000D01*
X150383333Y-93283333D01*
X150450000Y-93316666D01*
X150483333Y-93350000D01*
X150516666Y-93416666D01*
X150516666Y-93483333D01*
X150483333Y-93550000D01*
X150450000Y-93583333D01*
X150383333Y-93616666D01*
X150250000Y-93650000D01*
X150083333Y-93650000D01*
X149950000Y-93616666D01*
X149883333Y-93583333D01*
X149850000Y-93550000D01*
X149816666Y-93483333D01*
X149816666Y-92816666D02*
X149816666Y-92750000D01*
X149850000Y-92683333D01*
X149883333Y-92650000D01*
X149950000Y-92616666D01*
X150083333Y-92583333D01*
X150250000Y-92583333D01*
X150383333Y-92616666D01*
X150450000Y-92650000D01*
X150483333Y-92683333D01*
X150516666Y-92750000D01*
X150516666Y-92816666D01*
X150483333Y-92883333D01*
X150450000Y-92916666D01*
X150383333Y-92950000D01*
X150250000Y-92983333D01*
X150083333Y-92983333D01*
X149950000Y-92950000D01*
X149883333Y-92916666D01*
X149850000Y-92883333D01*
X149816666Y-92816666D01*
X161900000Y-81266666D02*
X162233333Y-81266666D01*
X161833333Y-81466666D02*
X162066666Y-80766666D01*
X162300000Y-81466666D01*
X162900000Y-81466666D02*
X162500000Y-81466666D01*
X162700000Y-81466666D02*
X162700000Y-80766666D01*
X162633333Y-80866666D01*
X162566666Y-80933333D01*
X162500000Y-80966666D01*
D10*
X166429880Y-104027619D02*
X167429880Y-103694285D01*
X166429880Y-103360952D01*
X166906071Y-103027619D02*
X166906071Y-102694285D01*
X167429880Y-102551428D02*
X167429880Y-103027619D01*
X166429880Y-103027619D01*
X166429880Y-102551428D01*
X167429880Y-101551428D02*
X166953690Y-101884761D01*
X167429880Y-102122857D02*
X166429880Y-102122857D01*
X166429880Y-101741904D01*
X166477500Y-101646666D01*
X166525119Y-101599047D01*
X166620357Y-101551428D01*
X166763214Y-101551428D01*
X166858452Y-101599047D01*
X166906071Y-101646666D01*
X166953690Y-101741904D01*
X166953690Y-102122857D01*
X166429880Y-101265714D02*
X166429880Y-100694285D01*
X167429880Y-100980000D02*
X166429880Y-100980000D01*
X166906071Y-100360952D02*
X166906071Y-100027619D01*
X167429880Y-99884761D02*
X167429880Y-100360952D01*
X166429880Y-100360952D01*
X166429880Y-99884761D01*
X166906071Y-99122857D02*
X166953690Y-98980000D01*
X167001309Y-98932380D01*
X167096547Y-98884761D01*
X167239404Y-98884761D01*
X167334642Y-98932380D01*
X167382261Y-98980000D01*
X167429880Y-99075238D01*
X167429880Y-99456190D01*
X166429880Y-99456190D01*
X166429880Y-99122857D01*
X166477500Y-99027619D01*
X166525119Y-98980000D01*
X166620357Y-98932380D01*
X166715595Y-98932380D01*
X166810833Y-98980000D01*
X166858452Y-99027619D01*
X166906071Y-99122857D01*
X166906071Y-99456190D01*
X167429880Y-97884761D02*
X166953690Y-98218095D01*
X167429880Y-98456190D02*
X166429880Y-98456190D01*
X166429880Y-98075238D01*
X166477500Y-97980000D01*
X166525119Y-97932380D01*
X166620357Y-97884761D01*
X166763214Y-97884761D01*
X166858452Y-97932380D01*
X166906071Y-97980000D01*
X166953690Y-98075238D01*
X166953690Y-98456190D01*
X167144166Y-97503809D02*
X167144166Y-97027619D01*
X167429880Y-97599047D02*
X166429880Y-97265714D01*
X167429880Y-96932380D01*
D11*
X146616666Y-108883333D02*
X145916666Y-108883333D01*
X145916666Y-108416666D02*
X145916666Y-108283333D01*
X145950000Y-108216666D01*
X146016666Y-108150000D01*
X146150000Y-108116666D01*
X146383333Y-108116666D01*
X146516666Y-108150000D01*
X146583333Y-108216666D01*
X146616666Y-108283333D01*
X146616666Y-108416666D01*
X146583333Y-108483333D01*
X146516666Y-108550000D01*
X146383333Y-108583333D01*
X146150000Y-108583333D01*
X146016666Y-108550000D01*
X145950000Y-108483333D01*
X145916666Y-108416666D01*
X146616666Y-107450000D02*
X146616666Y-107850000D01*
X146616666Y-107650000D02*
X145916666Y-107650000D01*
X146016666Y-107716666D01*
X146083333Y-107783333D01*
X146116666Y-107850000D01*
X145916666Y-106816666D02*
X145916666Y-107150000D01*
X146250000Y-107183333D01*
X146216666Y-107150000D01*
X146183333Y-107083333D01*
X146183333Y-106916666D01*
X146216666Y-106850000D01*
X146250000Y-106816666D01*
X146316666Y-106783333D01*
X146483333Y-106783333D01*
X146550000Y-106816666D01*
X146583333Y-106850000D01*
X146616666Y-106916666D01*
X146616666Y-107083333D01*
X146583333Y-107150000D01*
X146550000Y-107183333D01*
X150316666Y-107850000D02*
X150316666Y-107516666D01*
X150516666Y-107916666D02*
X149816666Y-107683333D01*
X150516666Y-107450000D01*
X149816666Y-107083333D02*
X149816666Y-107016666D01*
X149850000Y-106950000D01*
X149883333Y-106916666D01*
X149950000Y-106883333D01*
X150083333Y-106850000D01*
X150250000Y-106850000D01*
X150383333Y-106883333D01*
X150450000Y-106916666D01*
X150483333Y-106950000D01*
X150516666Y-107016666D01*
X150516666Y-107083333D01*
X150483333Y-107150000D01*
X150450000Y-107183333D01*
X150383333Y-107216666D01*
X150250000Y-107250000D01*
X150083333Y-107250000D01*
X149950000Y-107216666D01*
X149883333Y-107183333D01*
X149850000Y-107150000D01*
X149816666Y-107083333D01*
X153766666Y-108883333D02*
X153766666Y-108450000D01*
X154033333Y-108683333D01*
X154033333Y-108583333D01*
X154066666Y-108516666D01*
X154100000Y-108483333D01*
X154166666Y-108450000D01*
X154333333Y-108450000D01*
X154400000Y-108483333D01*
X154433333Y-108516666D01*
X154466666Y-108583333D01*
X154466666Y-108783333D01*
X154433333Y-108850000D01*
X154400000Y-108883333D01*
X154400000Y-108150000D02*
X154433333Y-108116666D01*
X154466666Y-108150000D01*
X154433333Y-108183333D01*
X154400000Y-108150000D01*
X154466666Y-108150000D01*
X153766666Y-107883333D02*
X153766666Y-107450000D01*
X154033333Y-107683333D01*
X154033333Y-107583333D01*
X154066666Y-107516666D01*
X154100000Y-107483333D01*
X154166666Y-107450000D01*
X154333333Y-107450000D01*
X154400000Y-107483333D01*
X154433333Y-107516666D01*
X154466666Y-107583333D01*
X154466666Y-107783333D01*
X154433333Y-107850000D01*
X154400000Y-107883333D01*
X153766666Y-107250000D02*
X154466666Y-107016666D01*
X153766666Y-106783333D01*
X151833333Y-108483333D02*
X151866666Y-108383333D01*
X151866666Y-108216666D01*
X151833333Y-108150000D01*
X151800000Y-108116666D01*
X151733333Y-108083333D01*
X151666666Y-108083333D01*
X151600000Y-108116666D01*
X151566666Y-108150000D01*
X151533333Y-108216666D01*
X151500000Y-108350000D01*
X151466666Y-108416666D01*
X151433333Y-108450000D01*
X151366666Y-108483333D01*
X151300000Y-108483333D01*
X151233333Y-108450000D01*
X151200000Y-108416666D01*
X151166666Y-108350000D01*
X151166666Y-108183333D01*
X151200000Y-108083333D01*
X151800000Y-107383333D02*
X151833333Y-107416666D01*
X151866666Y-107516666D01*
X151866666Y-107583333D01*
X151833333Y-107683333D01*
X151766666Y-107750000D01*
X151700000Y-107783333D01*
X151566666Y-107816666D01*
X151466666Y-107816666D01*
X151333333Y-107783333D01*
X151266666Y-107750000D01*
X151200000Y-107683333D01*
X151166666Y-107583333D01*
X151166666Y-107516666D01*
X151200000Y-107416666D01*
X151233333Y-107383333D01*
X151866666Y-106750000D02*
X151866666Y-107083333D01*
X151166666Y-107083333D01*
X152816666Y-94650000D02*
X152816666Y-94316666D01*
X153016666Y-94716666D02*
X152316666Y-94483333D01*
X153016666Y-94250000D01*
X153016666Y-93650000D02*
X153016666Y-94050000D01*
X153016666Y-93850000D02*
X152316666Y-93850000D01*
X152416666Y-93916666D01*
X152483333Y-93983333D01*
X152516666Y-94050000D01*
D10*
%TO.C,J3*%
X170009166Y-88987380D02*
X170009166Y-89701666D01*
X169961547Y-89844523D01*
X169866309Y-89939761D01*
X169723452Y-89987380D01*
X169628214Y-89987380D01*
X170390119Y-88987380D02*
X171009166Y-88987380D01*
X170675833Y-89368333D01*
X170818690Y-89368333D01*
X170913928Y-89415952D01*
X170961547Y-89463571D01*
X171009166Y-89558809D01*
X171009166Y-89796904D01*
X170961547Y-89892142D01*
X170913928Y-89939761D01*
X170818690Y-89987380D01*
X170532976Y-89987380D01*
X170437738Y-89939761D01*
X170390119Y-89892142D01*
%TO.C,R2*%
X160033333Y-91052380D02*
X159700000Y-90576190D01*
X159461904Y-91052380D02*
X159461904Y-90052380D01*
X159842857Y-90052380D01*
X159938095Y-90100000D01*
X159985714Y-90147619D01*
X160033333Y-90242857D01*
X160033333Y-90385714D01*
X159985714Y-90480952D01*
X159938095Y-90528571D01*
X159842857Y-90576190D01*
X159461904Y-90576190D01*
X160414285Y-90147619D02*
X160461904Y-90100000D01*
X160557142Y-90052380D01*
X160795238Y-90052380D01*
X160890476Y-90100000D01*
X160938095Y-90147619D01*
X160985714Y-90242857D01*
X160985714Y-90338095D01*
X160938095Y-90480952D01*
X160366666Y-91052380D01*
X160985714Y-91052380D01*
%TO.C,U1*%
X154788095Y-95502380D02*
X154788095Y-96311904D01*
X154835714Y-96407142D01*
X154883333Y-96454761D01*
X154978571Y-96502380D01*
X155169047Y-96502380D01*
X155264285Y-96454761D01*
X155311904Y-96407142D01*
X155359523Y-96311904D01*
X155359523Y-95502380D01*
X156359523Y-96502380D02*
X155788095Y-96502380D01*
X156073809Y-96502380D02*
X156073809Y-95502380D01*
X155978571Y-95645238D01*
X155883333Y-95740476D01*
X155788095Y-95788095D01*
%TO.C,J4*%
X123354166Y-88942380D02*
X123354166Y-89656666D01*
X123306547Y-89799523D01*
X123211309Y-89894761D01*
X123068452Y-89942380D01*
X122973214Y-89942380D01*
X124258928Y-89275714D02*
X124258928Y-89942380D01*
X124020833Y-88894761D02*
X123782738Y-89609047D01*
X124401785Y-89609047D01*
%TO.C,R3*%
X155483333Y-91052380D02*
X155150000Y-90576190D01*
X154911904Y-91052380D02*
X154911904Y-90052380D01*
X155292857Y-90052380D01*
X155388095Y-90100000D01*
X155435714Y-90147619D01*
X155483333Y-90242857D01*
X155483333Y-90385714D01*
X155435714Y-90480952D01*
X155388095Y-90528571D01*
X155292857Y-90576190D01*
X154911904Y-90576190D01*
X155816666Y-90052380D02*
X156435714Y-90052380D01*
X156102380Y-90433333D01*
X156245238Y-90433333D01*
X156340476Y-90480952D01*
X156388095Y-90528571D01*
X156435714Y-90623809D01*
X156435714Y-90861904D01*
X156388095Y-90957142D01*
X156340476Y-91004761D01*
X156245238Y-91052380D01*
X155959523Y-91052380D01*
X155864285Y-91004761D01*
X155816666Y-90957142D01*
%TO.C,R4*%
X133340833Y-121042380D02*
X133007500Y-120566190D01*
X132769404Y-121042380D02*
X132769404Y-120042380D01*
X133150357Y-120042380D01*
X133245595Y-120090000D01*
X133293214Y-120137619D01*
X133340833Y-120232857D01*
X133340833Y-120375714D01*
X133293214Y-120470952D01*
X133245595Y-120518571D01*
X133150357Y-120566190D01*
X132769404Y-120566190D01*
X134197976Y-120375714D02*
X134197976Y-121042380D01*
X133959880Y-119994761D02*
X133721785Y-120709047D01*
X134340833Y-120709047D01*
%TO.C,R1*%
X164583333Y-91052380D02*
X164250000Y-90576190D01*
X164011904Y-91052380D02*
X164011904Y-90052380D01*
X164392857Y-90052380D01*
X164488095Y-90100000D01*
X164535714Y-90147619D01*
X164583333Y-90242857D01*
X164583333Y-90385714D01*
X164535714Y-90480952D01*
X164488095Y-90528571D01*
X164392857Y-90576190D01*
X164011904Y-90576190D01*
X165535714Y-91052380D02*
X164964285Y-91052380D01*
X165250000Y-91052380D02*
X165250000Y-90052380D01*
X165154761Y-90195238D01*
X165059523Y-90290476D01*
X164964285Y-90338095D01*
%TO.C,J5*%
X156896666Y-84042380D02*
X156896666Y-84756666D01*
X156849047Y-84899523D01*
X156753809Y-84994761D01*
X156610952Y-85042380D01*
X156515714Y-85042380D01*
X157849047Y-84042380D02*
X157372857Y-84042380D01*
X157325238Y-84518571D01*
X157372857Y-84470952D01*
X157468095Y-84423333D01*
X157706190Y-84423333D01*
X157801428Y-84470952D01*
X157849047Y-84518571D01*
X157896666Y-84613809D01*
X157896666Y-84851904D01*
X157849047Y-84947142D01*
X157801428Y-84994761D01*
X157706190Y-85042380D01*
X157468095Y-85042380D01*
X157372857Y-84994761D01*
X157325238Y-84947142D01*
%TO.C,J1*%
X135102380Y-77413333D02*
X135816666Y-77413333D01*
X135959523Y-77460952D01*
X136054761Y-77556190D01*
X136102380Y-77699047D01*
X136102380Y-77794285D01*
X136102380Y-76413333D02*
X136102380Y-76984761D01*
X136102380Y-76699047D02*
X135102380Y-76699047D01*
X135245238Y-76794285D01*
X135340476Y-76889523D01*
X135388095Y-76984761D01*
%TO.C,J2*%
X158144166Y-126182380D02*
X158144166Y-126896666D01*
X158096547Y-127039523D01*
X158001309Y-127134761D01*
X157858452Y-127182380D01*
X157763214Y-127182380D01*
X158572738Y-126277619D02*
X158620357Y-126230000D01*
X158715595Y-126182380D01*
X158953690Y-126182380D01*
X159048928Y-126230000D01*
X159096547Y-126277619D01*
X159144166Y-126372857D01*
X159144166Y-126468095D01*
X159096547Y-126610952D01*
X158525119Y-127182380D01*
X159144166Y-127182380D01*
%TO.C,D1*%
X127739404Y-120862380D02*
X127739404Y-119862380D01*
X127977500Y-119862380D01*
X128120357Y-119910000D01*
X128215595Y-120005238D01*
X128263214Y-120100476D01*
X128310833Y-120290952D01*
X128310833Y-120433809D01*
X128263214Y-120624285D01*
X128215595Y-120719523D01*
X128120357Y-120814761D01*
X127977500Y-120862380D01*
X127739404Y-120862380D01*
X129263214Y-120862380D02*
X128691785Y-120862380D01*
X128977500Y-120862380D02*
X128977500Y-119862380D01*
X128882261Y-120005238D01*
X128787023Y-120100476D01*
X128691785Y-120148095D01*
%TO.C,C1*%
X158857142Y-100966666D02*
X158904761Y-101014285D01*
X158952380Y-101157142D01*
X158952380Y-101252380D01*
X158904761Y-101395238D01*
X158809523Y-101490476D01*
X158714285Y-101538095D01*
X158523809Y-101585714D01*
X158380952Y-101585714D01*
X158190476Y-101538095D01*
X158095238Y-101490476D01*
X158000000Y-101395238D01*
X157952380Y-101252380D01*
X157952380Y-101157142D01*
X158000000Y-101014285D01*
X158047619Y-100966666D01*
X158952380Y-100014285D02*
X158952380Y-100585714D01*
X158952380Y-100300000D02*
X157952380Y-100300000D01*
X158095238Y-100395238D01*
X158190476Y-100490476D01*
X158238095Y-100585714D01*
D11*
%TO.C,J3*%
X167742500Y-93135000D02*
X167742500Y-110975000D01*
X167742500Y-93135000D02*
X170342500Y-93135000D01*
X167742500Y-91865000D02*
X167742500Y-90535000D01*
X172942500Y-90535000D02*
X172942500Y-110975000D01*
X167742500Y-110975000D02*
X172942500Y-110975000D01*
X170342500Y-93135000D02*
X170342500Y-90535000D01*
X170342500Y-90535000D02*
X172942500Y-90535000D01*
X167742500Y-90535000D02*
X169072500Y-90535000D01*
%TO.C,R2*%
X160427064Y-88215000D02*
X159972936Y-88215000D01*
X160427064Y-89685000D02*
X159972936Y-89685000D01*
%TO.C,U1*%
X154810000Y-100730000D02*
X154810000Y-96870000D01*
X154810000Y-96870000D02*
X154545000Y-96870000D01*
X154810000Y-100730000D02*
X154810000Y-104590000D01*
X139190000Y-100730000D02*
X139190000Y-96870000D01*
X139190000Y-96870000D02*
X139455000Y-96870000D01*
X154810000Y-104590000D02*
X154545000Y-104590000D01*
X139190000Y-100730000D02*
X139190000Y-104590000D01*
X139190000Y-104590000D02*
X139455000Y-104590000D01*
X154545000Y-96870000D02*
X154545000Y-95055000D01*
%TO.C,J4*%
X121087500Y-110930000D02*
X126287500Y-110930000D01*
X121087500Y-91820000D02*
X121087500Y-90490000D01*
X121087500Y-90490000D02*
X122417500Y-90490000D01*
X126287500Y-90490000D02*
X126287500Y-110930000D01*
X123687500Y-93090000D02*
X123687500Y-90490000D01*
X123687500Y-90490000D02*
X126287500Y-90490000D01*
X121087500Y-93090000D02*
X121087500Y-110930000D01*
X121087500Y-93090000D02*
X123687500Y-93090000D01*
%TO.C,R3*%
X155877064Y-89685000D02*
X155422936Y-89685000D01*
X155877064Y-88215000D02*
X155422936Y-88215000D01*
%TO.C,R4*%
X133704564Y-121495000D02*
X133250436Y-121495000D01*
X133704564Y-122965000D02*
X133250436Y-122965000D01*
%TO.C,R1*%
X164977064Y-88215000D02*
X164522936Y-88215000D01*
X164977064Y-89685000D02*
X164522936Y-89685000D01*
%TO.C,J5*%
X163555000Y-82055000D02*
X163555000Y-84655000D01*
X166155000Y-84655000D02*
X166155000Y-87255000D01*
X163555000Y-84655000D02*
X166155000Y-84655000D01*
X163555000Y-82055000D02*
X158415000Y-82055000D01*
X166155000Y-87255000D02*
X158415000Y-87255000D01*
X166155000Y-82055000D02*
X166155000Y-83385000D01*
X164825000Y-82055000D02*
X166155000Y-82055000D01*
X158415000Y-82055000D02*
X158415000Y-87255000D01*
%TO.C,J1*%
X154582500Y-74400000D02*
X136742500Y-74400000D01*
X155852500Y-74400000D02*
X157182500Y-74400000D01*
X157182500Y-79600000D02*
X136742500Y-79600000D01*
X136742500Y-74400000D02*
X136742500Y-79600000D01*
X154582500Y-77000000D02*
X157182500Y-77000000D01*
X157182500Y-77000000D02*
X157182500Y-79600000D01*
X157182500Y-74400000D02*
X157182500Y-75730000D01*
X154582500Y-74400000D02*
X154582500Y-77000000D01*
%TO.C,J2*%
X136742500Y-121525000D02*
X157182500Y-121525000D01*
X139342500Y-126725000D02*
X157182500Y-126725000D01*
X136742500Y-124125000D02*
X136742500Y-121525000D01*
X138072500Y-126725000D02*
X136742500Y-126725000D01*
X136742500Y-126725000D02*
X136742500Y-125395000D01*
X139342500Y-124125000D02*
X136742500Y-124125000D01*
X139342500Y-126725000D02*
X139342500Y-124125000D01*
X157182500Y-126725000D02*
X157182500Y-121525000D01*
%TO.C,D1*%
X126017500Y-121095000D02*
X126017500Y-123365000D01*
X130077500Y-121095000D02*
X126017500Y-121095000D01*
X126017500Y-123365000D02*
X130077500Y-123365000D01*
%TO.C,C1*%
X156145000Y-101078752D02*
X156145000Y-100556248D01*
X157615000Y-101078752D02*
X157615000Y-100556248D01*
%TD*%
M02*
