%TF.GenerationSoftware,KiCad,Pcbnew,6.0.11+dfsg-1~bpo11+1*%
%TF.CreationDate,2023-04-06T13:57:54+02:00*%
%TF.ProjectId,dout-8_11,646f7574-2d38-45f3-9131-2e6b69636164,1.1*%
%TF.SameCoordinates,Original*%
%TF.FileFunction,Legend,Bot*%
%TF.FilePolarity,Positive*%
%FSLAX46Y46*%
G04 Gerber Fmt 4.6, Leading zero omitted, Abs format (unit mm)*
G04 Created by KiCad (PCBNEW 6.0.11+dfsg-1~bpo11+1) date 2023-04-06 13:57:54*
%MOMM*%
%LPD*%
G01*
G04 APERTURE LIST*
%ADD10C,0.100000*%
%ADD11C,0.150000*%
%ADD12C,0.200000*%
%ADD13C,0.600000*%
%ADD14C,0.300000*%
%ADD15C,0.010000*%
G04 APERTURE END LIST*
D10*
X150407142Y-118939285D02*
X149942857Y-118939285D01*
X150192857Y-119225000D01*
X150085714Y-119225000D01*
X150014285Y-119260714D01*
X149978571Y-119296428D01*
X149942857Y-119367857D01*
X149942857Y-119546428D01*
X149978571Y-119617857D01*
X150014285Y-119653571D01*
X150085714Y-119689285D01*
X150300000Y-119689285D01*
X150371428Y-119653571D01*
X150407142Y-119617857D01*
X149621428Y-119617857D02*
X149585714Y-119653571D01*
X149621428Y-119689285D01*
X149657142Y-119653571D01*
X149621428Y-119617857D01*
X149621428Y-119689285D01*
X149335714Y-118939285D02*
X148871428Y-118939285D01*
X149121428Y-119225000D01*
X149014285Y-119225000D01*
X148942857Y-119260714D01*
X148907142Y-119296428D01*
X148871428Y-119367857D01*
X148871428Y-119546428D01*
X148907142Y-119617857D01*
X148942857Y-119653571D01*
X149014285Y-119689285D01*
X149228571Y-119689285D01*
X149300000Y-119653571D01*
X149335714Y-119617857D01*
X148657142Y-118939285D02*
X148407142Y-119689285D01*
X148157142Y-118939285D01*
D11*
X166271428Y-73052380D02*
X166080952Y-73052380D01*
X165985714Y-73100000D01*
X165890476Y-73195238D01*
X165842857Y-73385714D01*
X165842857Y-73719047D01*
X165890476Y-73909523D01*
X165985714Y-74004761D01*
X166080952Y-74052380D01*
X166271428Y-74052380D01*
X166366666Y-74004761D01*
X166461904Y-73909523D01*
X166509523Y-73719047D01*
X166509523Y-73385714D01*
X166461904Y-73195238D01*
X166366666Y-73100000D01*
X166271428Y-73052380D01*
X165461904Y-73147619D02*
X165414285Y-73100000D01*
X165319047Y-73052380D01*
X165080952Y-73052380D01*
X164985714Y-73100000D01*
X164938095Y-73147619D01*
X164890476Y-73242857D01*
X164890476Y-73338095D01*
X164938095Y-73480952D01*
X165509523Y-74052380D01*
X164890476Y-74052380D01*
D10*
X152128571Y-113089285D02*
X151985714Y-113089285D01*
X151914285Y-113125000D01*
X151842857Y-113196428D01*
X151807142Y-113339285D01*
X151807142Y-113589285D01*
X151842857Y-113732142D01*
X151914285Y-113803571D01*
X151985714Y-113839285D01*
X152128571Y-113839285D01*
X152200000Y-113803571D01*
X152271428Y-113732142D01*
X152307142Y-113589285D01*
X152307142Y-113339285D01*
X152271428Y-113196428D01*
X152200000Y-113125000D01*
X152128571Y-113089285D01*
X151557142Y-113089285D02*
X151057142Y-113089285D01*
X151378571Y-113839285D01*
X150307142Y-113089285D02*
X149842857Y-113089285D01*
X150092857Y-113375000D01*
X149985714Y-113375000D01*
X149914285Y-113410714D01*
X149878571Y-113446428D01*
X149842857Y-113517857D01*
X149842857Y-113696428D01*
X149878571Y-113767857D01*
X149914285Y-113803571D01*
X149985714Y-113839285D01*
X150200000Y-113839285D01*
X150271428Y-113803571D01*
X150307142Y-113767857D01*
X149521428Y-113767857D02*
X149485714Y-113803571D01*
X149521428Y-113839285D01*
X149557142Y-113803571D01*
X149521428Y-113767857D01*
X149521428Y-113839285D01*
X149235714Y-113089285D02*
X148771428Y-113089285D01*
X149021428Y-113375000D01*
X148914285Y-113375000D01*
X148842857Y-113410714D01*
X148807142Y-113446428D01*
X148771428Y-113517857D01*
X148771428Y-113696428D01*
X148807142Y-113767857D01*
X148842857Y-113803571D01*
X148914285Y-113839285D01*
X149128571Y-113839285D01*
X149200000Y-113803571D01*
X149235714Y-113767857D01*
X148557142Y-113089285D02*
X148307142Y-113839285D01*
X148057142Y-113089285D01*
X147221428Y-113125000D02*
X147292857Y-113089285D01*
X147400000Y-113089285D01*
X147507142Y-113125000D01*
X147578571Y-113196428D01*
X147614285Y-113267857D01*
X147650000Y-113410714D01*
X147650000Y-113517857D01*
X147614285Y-113660714D01*
X147578571Y-113732142D01*
X147507142Y-113803571D01*
X147400000Y-113839285D01*
X147328571Y-113839285D01*
X147221428Y-113803571D01*
X147185714Y-113767857D01*
X147185714Y-113517857D01*
X147328571Y-113517857D01*
X146864285Y-113839285D02*
X146864285Y-113089285D01*
X146435714Y-113839285D01*
X146435714Y-113089285D01*
X146078571Y-113839285D02*
X146078571Y-113089285D01*
X145900000Y-113089285D01*
X145792857Y-113125000D01*
X145721428Y-113196428D01*
X145685714Y-113267857D01*
X145650000Y-113410714D01*
X145650000Y-113517857D01*
X145685714Y-113660714D01*
X145721428Y-113732142D01*
X145792857Y-113803571D01*
X145900000Y-113839285D01*
X146078571Y-113839285D01*
X157228571Y-113089285D02*
X157085714Y-113089285D01*
X157014285Y-113125000D01*
X156942857Y-113196428D01*
X156907142Y-113339285D01*
X156907142Y-113589285D01*
X156942857Y-113732142D01*
X157014285Y-113803571D01*
X157085714Y-113839285D01*
X157228571Y-113839285D01*
X157300000Y-113803571D01*
X157371428Y-113732142D01*
X157407142Y-113589285D01*
X157407142Y-113339285D01*
X157371428Y-113196428D01*
X157300000Y-113125000D01*
X157228571Y-113089285D01*
X156657142Y-113089285D02*
X156192857Y-113089285D01*
X156442857Y-113375000D01*
X156335714Y-113375000D01*
X156264285Y-113410714D01*
X156228571Y-113446428D01*
X156192857Y-113517857D01*
X156192857Y-113696428D01*
X156228571Y-113767857D01*
X156264285Y-113803571D01*
X156335714Y-113839285D01*
X156550000Y-113839285D01*
X156621428Y-113803571D01*
X156657142Y-113767857D01*
D12*
X129857142Y-83121428D02*
X131057142Y-83121428D01*
X129857142Y-82435714D01*
X131057142Y-82435714D01*
X129857142Y-81864285D02*
X131057142Y-81864285D01*
X131057142Y-81407142D01*
X131000000Y-81292857D01*
X130942857Y-81235714D01*
X130828571Y-81178571D01*
X130657142Y-81178571D01*
X130542857Y-81235714D01*
X130485714Y-81292857D01*
X130428571Y-81407142D01*
X130428571Y-81864285D01*
X129857142Y-80664285D02*
X131057142Y-80664285D01*
X129857142Y-79978571D01*
X131057142Y-79978571D01*
X129857142Y-78842857D02*
X131057142Y-78842857D01*
X131057142Y-78385714D01*
X131000000Y-78271428D01*
X130942857Y-78214285D01*
X130828571Y-78157142D01*
X130657142Y-78157142D01*
X130542857Y-78214285D01*
X130485714Y-78271428D01*
X130428571Y-78385714D01*
X130428571Y-78842857D01*
X129857142Y-77642857D02*
X131057142Y-77642857D01*
X129857142Y-76957142D01*
X131057142Y-76957142D01*
X129857142Y-76385714D02*
X131057142Y-76385714D01*
X131057142Y-75928571D01*
X131000000Y-75814285D01*
X130942857Y-75757142D01*
X130828571Y-75700000D01*
X130657142Y-75700000D01*
X130542857Y-75757142D01*
X130485714Y-75814285D01*
X130428571Y-75928571D01*
X130428571Y-76385714D01*
D11*
X156171428Y-73202380D02*
X155980952Y-73202380D01*
X155885714Y-73250000D01*
X155790476Y-73345238D01*
X155742857Y-73535714D01*
X155742857Y-73869047D01*
X155790476Y-74059523D01*
X155885714Y-74154761D01*
X155980952Y-74202380D01*
X156171428Y-74202380D01*
X156266666Y-74154761D01*
X156361904Y-74059523D01*
X156409523Y-73869047D01*
X156409523Y-73535714D01*
X156361904Y-73345238D01*
X156266666Y-73250000D01*
X156171428Y-73202380D01*
X154885714Y-73535714D02*
X154885714Y-74202380D01*
X155123809Y-73154761D02*
X155361904Y-73869047D01*
X154742857Y-73869047D01*
D13*
X161985714Y-89109523D02*
X161985714Y-85109523D01*
X161985714Y-88919047D02*
X162366666Y-89109523D01*
X163128571Y-89109523D01*
X163509523Y-88919047D01*
X163700000Y-88728571D01*
X163890476Y-88347619D01*
X163890476Y-87204761D01*
X163700000Y-86823809D01*
X163509523Y-86633333D01*
X163128571Y-86442857D01*
X162366666Y-86442857D01*
X161985714Y-86633333D01*
X159509523Y-89109523D02*
X159890476Y-88919047D01*
X160080952Y-88728571D01*
X160271428Y-88347619D01*
X160271428Y-87204761D01*
X160080952Y-86823809D01*
X159890476Y-86633333D01*
X159509523Y-86442857D01*
X158938095Y-86442857D01*
X158557142Y-86633333D01*
X158366666Y-86823809D01*
X158176190Y-87204761D01*
X158176190Y-88347619D01*
X158366666Y-88728571D01*
X158557142Y-88919047D01*
X158938095Y-89109523D01*
X159509523Y-89109523D01*
X154747619Y-86442857D02*
X154747619Y-89109523D01*
X156461904Y-86442857D02*
X156461904Y-88538095D01*
X156271428Y-88919047D01*
X155890476Y-89109523D01*
X155319047Y-89109523D01*
X154938095Y-88919047D01*
X154747619Y-88728571D01*
X153414285Y-86442857D02*
X151890476Y-86442857D01*
X152842857Y-85109523D02*
X152842857Y-88538095D01*
X152652380Y-88919047D01*
X152271428Y-89109523D01*
X151890476Y-89109523D01*
X150557142Y-87585714D02*
X147509523Y-87585714D01*
X145033333Y-86823809D02*
X145414285Y-86633333D01*
X145604761Y-86442857D01*
X145795238Y-86061904D01*
X145795238Y-85871428D01*
X145604761Y-85490476D01*
X145414285Y-85300000D01*
X145033333Y-85109523D01*
X144271428Y-85109523D01*
X143890476Y-85300000D01*
X143700000Y-85490476D01*
X143509523Y-85871428D01*
X143509523Y-86061904D01*
X143700000Y-86442857D01*
X143890476Y-86633333D01*
X144271428Y-86823809D01*
X145033333Y-86823809D01*
X145414285Y-87014285D01*
X145604761Y-87204761D01*
X145795238Y-87585714D01*
X145795238Y-88347619D01*
X145604761Y-88728571D01*
X145414285Y-88919047D01*
X145033333Y-89109523D01*
X144271428Y-89109523D01*
X143890476Y-88919047D01*
X143700000Y-88728571D01*
X143509523Y-88347619D01*
X143509523Y-87585714D01*
X143700000Y-87204761D01*
X143890476Y-87014285D01*
X144271428Y-86823809D01*
D10*
X157228571Y-118989285D02*
X157085714Y-118989285D01*
X157014285Y-119025000D01*
X156942857Y-119096428D01*
X156907142Y-119239285D01*
X156907142Y-119489285D01*
X156942857Y-119632142D01*
X157014285Y-119703571D01*
X157085714Y-119739285D01*
X157228571Y-119739285D01*
X157300000Y-119703571D01*
X157371428Y-119632142D01*
X157407142Y-119489285D01*
X157407142Y-119239285D01*
X157371428Y-119096428D01*
X157300000Y-119025000D01*
X157228571Y-118989285D01*
X156264285Y-119239285D02*
X156264285Y-119739285D01*
X156442857Y-118953571D02*
X156621428Y-119489285D01*
X156157142Y-119489285D01*
X154778571Y-118939285D02*
X154635714Y-118939285D01*
X154564285Y-118975000D01*
X154492857Y-119046428D01*
X154457142Y-119189285D01*
X154457142Y-119439285D01*
X154492857Y-119582142D01*
X154564285Y-119653571D01*
X154635714Y-119689285D01*
X154778571Y-119689285D01*
X154850000Y-119653571D01*
X154921428Y-119582142D01*
X154957142Y-119439285D01*
X154957142Y-119189285D01*
X154921428Y-119046428D01*
X154850000Y-118975000D01*
X154778571Y-118939285D01*
X153814285Y-118939285D02*
X153957142Y-118939285D01*
X154028571Y-118975000D01*
X154064285Y-119010714D01*
X154135714Y-119117857D01*
X154171428Y-119260714D01*
X154171428Y-119546428D01*
X154135714Y-119617857D01*
X154100000Y-119653571D01*
X154028571Y-119689285D01*
X153885714Y-119689285D01*
X153814285Y-119653571D01*
X153778571Y-119617857D01*
X153742857Y-119546428D01*
X153742857Y-119367857D01*
X153778571Y-119296428D01*
X153814285Y-119260714D01*
X153885714Y-119225000D01*
X154028571Y-119225000D01*
X154100000Y-119260714D01*
X154135714Y-119296428D01*
X154171428Y-119367857D01*
X162378571Y-118939285D02*
X162235714Y-118939285D01*
X162164285Y-118975000D01*
X162092857Y-119046428D01*
X162057142Y-119189285D01*
X162057142Y-119439285D01*
X162092857Y-119582142D01*
X162164285Y-119653571D01*
X162235714Y-119689285D01*
X162378571Y-119689285D01*
X162450000Y-119653571D01*
X162521428Y-119582142D01*
X162557142Y-119439285D01*
X162557142Y-119189285D01*
X162521428Y-119046428D01*
X162450000Y-118975000D01*
X162378571Y-118939285D01*
X161592857Y-118939285D02*
X161521428Y-118939285D01*
X161450000Y-118975000D01*
X161414285Y-119010714D01*
X161378571Y-119082142D01*
X161342857Y-119225000D01*
X161342857Y-119403571D01*
X161378571Y-119546428D01*
X161414285Y-119617857D01*
X161450000Y-119653571D01*
X161521428Y-119689285D01*
X161592857Y-119689285D01*
X161664285Y-119653571D01*
X161700000Y-119617857D01*
X161735714Y-119546428D01*
X161771428Y-119403571D01*
X161771428Y-119225000D01*
X161735714Y-119082142D01*
X161700000Y-119010714D01*
X161664285Y-118975000D01*
X161592857Y-118939285D01*
X144992857Y-119010714D02*
X144957142Y-118975000D01*
X144885714Y-118939285D01*
X144707142Y-118939285D01*
X144635714Y-118975000D01*
X144600000Y-119010714D01*
X144564285Y-119082142D01*
X144564285Y-119153571D01*
X144600000Y-119260714D01*
X145028571Y-119689285D01*
X144564285Y-119689285D01*
X143921428Y-119189285D02*
X143921428Y-119689285D01*
X144100000Y-118903571D02*
X144278571Y-119439285D01*
X143814285Y-119439285D01*
X143635714Y-118939285D02*
X143385714Y-119689285D01*
X143135714Y-118939285D01*
D11*
X131461904Y-73200000D02*
X131557142Y-73152380D01*
X131700000Y-73152380D01*
X131842857Y-73200000D01*
X131938095Y-73295238D01*
X131985714Y-73390476D01*
X132033333Y-73580952D01*
X132033333Y-73723809D01*
X131985714Y-73914285D01*
X131938095Y-74009523D01*
X131842857Y-74104761D01*
X131700000Y-74152380D01*
X131604761Y-74152380D01*
X131461904Y-74104761D01*
X131414285Y-74057142D01*
X131414285Y-73723809D01*
X131604761Y-73723809D01*
X130985714Y-74152380D02*
X130985714Y-73152380D01*
X130414285Y-74152380D01*
X130414285Y-73152380D01*
X129938095Y-74152380D02*
X129938095Y-73152380D01*
X129700000Y-73152380D01*
X129557142Y-73200000D01*
X129461904Y-73295238D01*
X129414285Y-73390476D01*
X129366666Y-73580952D01*
X129366666Y-73723809D01*
X129414285Y-73914285D01*
X129461904Y-74009523D01*
X129557142Y-74104761D01*
X129700000Y-74152380D01*
X129938095Y-74152380D01*
X128938095Y-74152380D02*
X128938095Y-73152380D01*
X128700000Y-73152380D01*
X128557142Y-73200000D01*
X128461904Y-73295238D01*
X128414285Y-73390476D01*
X128366666Y-73580952D01*
X128366666Y-73723809D01*
X128414285Y-73914285D01*
X128461904Y-74009523D01*
X128557142Y-74104761D01*
X128700000Y-74152380D01*
X128938095Y-74152380D01*
D10*
X155771428Y-91639285D02*
X155592857Y-92139285D01*
X155414285Y-91639285D01*
X154735714Y-92139285D02*
X155164285Y-92139285D01*
X154950000Y-92139285D02*
X154950000Y-91389285D01*
X155021428Y-91496428D01*
X155092857Y-91567857D01*
X155164285Y-91603571D01*
X154414285Y-92067857D02*
X154378571Y-92103571D01*
X154414285Y-92139285D01*
X154450000Y-92103571D01*
X154414285Y-92067857D01*
X154414285Y-92139285D01*
X153664285Y-92139285D02*
X154092857Y-92139285D01*
X153878571Y-92139285D02*
X153878571Y-91389285D01*
X153950000Y-91496428D01*
X154021428Y-91567857D01*
X154092857Y-91603571D01*
D11*
X151021428Y-73152380D02*
X150830952Y-73152380D01*
X150735714Y-73200000D01*
X150640476Y-73295238D01*
X150592857Y-73485714D01*
X150592857Y-73819047D01*
X150640476Y-74009523D01*
X150735714Y-74104761D01*
X150830952Y-74152380D01*
X151021428Y-74152380D01*
X151116666Y-74104761D01*
X151211904Y-74009523D01*
X151259523Y-73819047D01*
X151259523Y-73485714D01*
X151211904Y-73295238D01*
X151116666Y-73200000D01*
X151021428Y-73152380D01*
X149688095Y-73152380D02*
X150164285Y-73152380D01*
X150211904Y-73628571D01*
X150164285Y-73580952D01*
X150069047Y-73533333D01*
X149830952Y-73533333D01*
X149735714Y-73580952D01*
X149688095Y-73628571D01*
X149640476Y-73723809D01*
X149640476Y-73961904D01*
X149688095Y-74057142D01*
X149735714Y-74104761D01*
X149830952Y-74152380D01*
X150069047Y-74152380D01*
X150164285Y-74104761D01*
X150211904Y-74057142D01*
D10*
X159878571Y-118939285D02*
X159735714Y-118939285D01*
X159664285Y-118975000D01*
X159592857Y-119046428D01*
X159557142Y-119189285D01*
X159557142Y-119439285D01*
X159592857Y-119582142D01*
X159664285Y-119653571D01*
X159735714Y-119689285D01*
X159878571Y-119689285D01*
X159950000Y-119653571D01*
X160021428Y-119582142D01*
X160057142Y-119439285D01*
X160057142Y-119189285D01*
X160021428Y-119046428D01*
X159950000Y-118975000D01*
X159878571Y-118939285D01*
X159271428Y-119010714D02*
X159235714Y-118975000D01*
X159164285Y-118939285D01*
X158985714Y-118939285D01*
X158914285Y-118975000D01*
X158878571Y-119010714D01*
X158842857Y-119082142D01*
X158842857Y-119153571D01*
X158878571Y-119260714D01*
X159307142Y-119689285D01*
X158842857Y-119689285D01*
D11*
X157785714Y-111902380D02*
X158119047Y-111426190D01*
X158357142Y-111902380D02*
X158357142Y-110902380D01*
X157976190Y-110902380D01*
X157880952Y-110950000D01*
X157833333Y-110997619D01*
X157785714Y-111092857D01*
X157785714Y-111235714D01*
X157833333Y-111330952D01*
X157880952Y-111378571D01*
X157976190Y-111426190D01*
X158357142Y-111426190D01*
X157357142Y-111902380D02*
X157357142Y-110902380D01*
X156547619Y-111378571D02*
X156404761Y-111426190D01*
X156357142Y-111473809D01*
X156309523Y-111569047D01*
X156309523Y-111711904D01*
X156357142Y-111807142D01*
X156404761Y-111854761D01*
X156500000Y-111902380D01*
X156880952Y-111902380D01*
X156880952Y-110902380D01*
X156547619Y-110902380D01*
X156452380Y-110950000D01*
X156404761Y-110997619D01*
X156357142Y-111092857D01*
X156357142Y-111188095D01*
X156404761Y-111283333D01*
X156452380Y-111330952D01*
X156547619Y-111378571D01*
X156880952Y-111378571D01*
X154404761Y-110854761D02*
X155261904Y-112140476D01*
X152738095Y-111807142D02*
X152785714Y-111854761D01*
X152928571Y-111902380D01*
X153023809Y-111902380D01*
X153166666Y-111854761D01*
X153261904Y-111759523D01*
X153309523Y-111664285D01*
X153357142Y-111473809D01*
X153357142Y-111330952D01*
X153309523Y-111140476D01*
X153261904Y-111045238D01*
X153166666Y-110950000D01*
X153023809Y-110902380D01*
X152928571Y-110902380D01*
X152785714Y-110950000D01*
X152738095Y-110997619D01*
X152119047Y-110902380D02*
X151928571Y-110902380D01*
X151833333Y-110950000D01*
X151738095Y-111045238D01*
X151690476Y-111235714D01*
X151690476Y-111569047D01*
X151738095Y-111759523D01*
X151833333Y-111854761D01*
X151928571Y-111902380D01*
X152119047Y-111902380D01*
X152214285Y-111854761D01*
X152309523Y-111759523D01*
X152357142Y-111569047D01*
X152357142Y-111235714D01*
X152309523Y-111045238D01*
X152214285Y-110950000D01*
X152119047Y-110902380D01*
X151309523Y-111854761D02*
X151166666Y-111902380D01*
X150928571Y-111902380D01*
X150833333Y-111854761D01*
X150785714Y-111807142D01*
X150738095Y-111711904D01*
X150738095Y-111616666D01*
X150785714Y-111521428D01*
X150833333Y-111473809D01*
X150928571Y-111426190D01*
X151119047Y-111378571D01*
X151214285Y-111330952D01*
X151261904Y-111283333D01*
X151309523Y-111188095D01*
X151309523Y-111092857D01*
X151261904Y-110997619D01*
X151214285Y-110950000D01*
X151119047Y-110902380D01*
X150880952Y-110902380D01*
X150738095Y-110950000D01*
X150452380Y-110902380D02*
X149880952Y-110902380D01*
X150166666Y-111902380D02*
X150166666Y-110902380D01*
X149547619Y-111378571D02*
X149214285Y-111378571D01*
X149071428Y-111902380D02*
X149547619Y-111902380D01*
X149547619Y-110902380D01*
X149071428Y-110902380D01*
X148166666Y-111902380D02*
X148642857Y-111902380D01*
X148642857Y-110902380D01*
X147357142Y-111902380D02*
X147833333Y-111902380D01*
X147833333Y-110902380D01*
X147071428Y-111616666D02*
X146595238Y-111616666D01*
X147166666Y-111902380D02*
X146833333Y-110902380D01*
X146500000Y-111902380D01*
X171321428Y-73102380D02*
X171130952Y-73102380D01*
X171035714Y-73150000D01*
X170940476Y-73245238D01*
X170892857Y-73435714D01*
X170892857Y-73769047D01*
X170940476Y-73959523D01*
X171035714Y-74054761D01*
X171130952Y-74102380D01*
X171321428Y-74102380D01*
X171416666Y-74054761D01*
X171511904Y-73959523D01*
X171559523Y-73769047D01*
X171559523Y-73435714D01*
X171511904Y-73245238D01*
X171416666Y-73150000D01*
X171321428Y-73102380D01*
X169940476Y-74102380D02*
X170511904Y-74102380D01*
X170226190Y-74102380D02*
X170226190Y-73102380D01*
X170321428Y-73245238D01*
X170416666Y-73340476D01*
X170511904Y-73388095D01*
X136533333Y-73052380D02*
X136200000Y-74052380D01*
X135866666Y-73052380D01*
X135533333Y-74052380D02*
X135533333Y-73052380D01*
X135295238Y-73052380D01*
X135152380Y-73100000D01*
X135057142Y-73195238D01*
X135009523Y-73290476D01*
X134961904Y-73480952D01*
X134961904Y-73623809D01*
X135009523Y-73814285D01*
X135057142Y-73909523D01*
X135152380Y-74004761D01*
X135295238Y-74052380D01*
X135533333Y-74052380D01*
X133961904Y-73957142D02*
X134009523Y-74004761D01*
X134152380Y-74052380D01*
X134247619Y-74052380D01*
X134390476Y-74004761D01*
X134485714Y-73909523D01*
X134533333Y-73814285D01*
X134580952Y-73623809D01*
X134580952Y-73480952D01*
X134533333Y-73290476D01*
X134485714Y-73195238D01*
X134390476Y-73100000D01*
X134247619Y-73052380D01*
X134152380Y-73052380D01*
X134009523Y-73100000D01*
X133961904Y-73147619D01*
D10*
X152421428Y-118975000D02*
X152492857Y-118939285D01*
X152600000Y-118939285D01*
X152707142Y-118975000D01*
X152778571Y-119046428D01*
X152814285Y-119117857D01*
X152850000Y-119260714D01*
X152850000Y-119367857D01*
X152814285Y-119510714D01*
X152778571Y-119582142D01*
X152707142Y-119653571D01*
X152600000Y-119689285D01*
X152528571Y-119689285D01*
X152421428Y-119653571D01*
X152385714Y-119617857D01*
X152385714Y-119367857D01*
X152528571Y-119367857D01*
X152064285Y-119689285D02*
X152064285Y-118939285D01*
X151635714Y-119689285D01*
X151635714Y-118939285D01*
X151278571Y-119689285D02*
X151278571Y-118939285D01*
X151100000Y-118939285D01*
X150992857Y-118975000D01*
X150921428Y-119046428D01*
X150885714Y-119117857D01*
X150850000Y-119260714D01*
X150850000Y-119367857D01*
X150885714Y-119510714D01*
X150921428Y-119582142D01*
X150992857Y-119653571D01*
X151100000Y-119689285D01*
X151278571Y-119689285D01*
D11*
X140771428Y-73302380D02*
X140580952Y-73302380D01*
X140485714Y-73350000D01*
X140390476Y-73445238D01*
X140342857Y-73635714D01*
X140342857Y-73969047D01*
X140390476Y-74159523D01*
X140485714Y-74254761D01*
X140580952Y-74302380D01*
X140771428Y-74302380D01*
X140866666Y-74254761D01*
X140961904Y-74159523D01*
X141009523Y-73969047D01*
X141009523Y-73635714D01*
X140961904Y-73445238D01*
X140866666Y-73350000D01*
X140771428Y-73302380D01*
X140009523Y-73302380D02*
X139342857Y-73302380D01*
X139771428Y-74302380D01*
X176421428Y-73152380D02*
X176230952Y-73152380D01*
X176135714Y-73200000D01*
X176040476Y-73295238D01*
X175992857Y-73485714D01*
X175992857Y-73819047D01*
X176040476Y-74009523D01*
X176135714Y-74104761D01*
X176230952Y-74152380D01*
X176421428Y-74152380D01*
X176516666Y-74104761D01*
X176611904Y-74009523D01*
X176659523Y-73819047D01*
X176659523Y-73485714D01*
X176611904Y-73295238D01*
X176516666Y-73200000D01*
X176421428Y-73152380D01*
X175373809Y-73152380D02*
X175278571Y-73152380D01*
X175183333Y-73200000D01*
X175135714Y-73247619D01*
X175088095Y-73342857D01*
X175040476Y-73533333D01*
X175040476Y-73771428D01*
X175088095Y-73961904D01*
X175135714Y-74057142D01*
X175183333Y-74104761D01*
X175278571Y-74152380D01*
X175373809Y-74152380D01*
X175469047Y-74104761D01*
X175516666Y-74057142D01*
X175564285Y-73961904D01*
X175611904Y-73771428D01*
X175611904Y-73533333D01*
X175564285Y-73342857D01*
X175516666Y-73247619D01*
X175469047Y-73200000D01*
X175373809Y-73152380D01*
X136080952Y-66623571D02*
X135747619Y-66623571D01*
X135604761Y-67147380D02*
X136080952Y-67147380D01*
X136080952Y-66147380D01*
X135604761Y-66147380D01*
X135271428Y-66147380D02*
X134604761Y-67147380D01*
X134604761Y-66147380D02*
X135271428Y-67147380D01*
X134366666Y-66147380D02*
X133795238Y-66147380D01*
X134080952Y-67147380D02*
X134080952Y-66147380D01*
X133461904Y-66623571D02*
X133128571Y-66623571D01*
X132985714Y-67147380D02*
X133461904Y-67147380D01*
X133461904Y-66147380D01*
X132985714Y-66147380D01*
X131985714Y-67147380D02*
X132319047Y-66671190D01*
X132557142Y-67147380D02*
X132557142Y-66147380D01*
X132176190Y-66147380D01*
X132080952Y-66195000D01*
X132033333Y-66242619D01*
X131985714Y-66337857D01*
X131985714Y-66480714D01*
X132033333Y-66575952D01*
X132080952Y-66623571D01*
X132176190Y-66671190D01*
X132557142Y-66671190D01*
X131557142Y-67147380D02*
X131557142Y-66147380D01*
X130985714Y-67147380D01*
X130985714Y-66147380D01*
X130557142Y-66861666D02*
X130080952Y-66861666D01*
X130652380Y-67147380D02*
X130319047Y-66147380D01*
X129985714Y-67147380D01*
X129176190Y-67147380D02*
X129652380Y-67147380D01*
X129652380Y-66147380D01*
X135009523Y-68757380D02*
X135009523Y-67757380D01*
X134628571Y-67757380D01*
X134533333Y-67805000D01*
X134485714Y-67852619D01*
X134438095Y-67947857D01*
X134438095Y-68090714D01*
X134485714Y-68185952D01*
X134533333Y-68233571D01*
X134628571Y-68281190D01*
X135009523Y-68281190D01*
X133819047Y-67757380D02*
X133628571Y-67757380D01*
X133533333Y-67805000D01*
X133438095Y-67900238D01*
X133390476Y-68090714D01*
X133390476Y-68424047D01*
X133438095Y-68614523D01*
X133533333Y-68709761D01*
X133628571Y-68757380D01*
X133819047Y-68757380D01*
X133914285Y-68709761D01*
X134009523Y-68614523D01*
X134057142Y-68424047D01*
X134057142Y-68090714D01*
X134009523Y-67900238D01*
X133914285Y-67805000D01*
X133819047Y-67757380D01*
X133057142Y-67757380D02*
X132819047Y-68757380D01*
X132628571Y-68043095D01*
X132438095Y-68757380D01*
X132200000Y-67757380D01*
X131819047Y-68233571D02*
X131485714Y-68233571D01*
X131342857Y-68757380D02*
X131819047Y-68757380D01*
X131819047Y-67757380D01*
X131342857Y-67757380D01*
X130342857Y-68757380D02*
X130676190Y-68281190D01*
X130914285Y-68757380D02*
X130914285Y-67757380D01*
X130533333Y-67757380D01*
X130438095Y-67805000D01*
X130390476Y-67852619D01*
X130342857Y-67947857D01*
X130342857Y-68090714D01*
X130390476Y-68185952D01*
X130438095Y-68233571D01*
X130533333Y-68281190D01*
X130914285Y-68281190D01*
D14*
X168959523Y-105621428D02*
X168578571Y-106954761D01*
X168197619Y-106002380D01*
X167816666Y-106954761D01*
X167435714Y-105621428D01*
X166864285Y-105621428D02*
X166483333Y-106954761D01*
X166102380Y-106002380D01*
X165721428Y-106954761D01*
X165340476Y-105621428D01*
X164769047Y-105621428D02*
X164388095Y-106954761D01*
X164007142Y-106002380D01*
X163626190Y-106954761D01*
X163245238Y-105621428D01*
X162483333Y-106764285D02*
X162388095Y-106859523D01*
X162483333Y-106954761D01*
X162578571Y-106859523D01*
X162483333Y-106764285D01*
X162483333Y-106954761D01*
X161530952Y-106954761D02*
X161530952Y-105621428D01*
X161530952Y-104954761D02*
X161626190Y-105050000D01*
X161530952Y-105145238D01*
X161435714Y-105050000D01*
X161530952Y-104954761D01*
X161530952Y-105145238D01*
X160292857Y-106954761D02*
X160483333Y-106859523D01*
X160578571Y-106764285D01*
X160673809Y-106573809D01*
X160673809Y-106002380D01*
X160578571Y-105811904D01*
X160483333Y-105716666D01*
X160292857Y-105621428D01*
X160007142Y-105621428D01*
X159816666Y-105716666D01*
X159721428Y-105811904D01*
X159626190Y-106002380D01*
X159626190Y-106573809D01*
X159721428Y-106764285D01*
X159816666Y-106859523D01*
X160007142Y-106954761D01*
X160292857Y-106954761D01*
X159054761Y-105621428D02*
X158292857Y-105621428D01*
X158769047Y-104954761D02*
X158769047Y-106669047D01*
X158673809Y-106859523D01*
X158483333Y-106954761D01*
X158292857Y-106954761D01*
X157816666Y-105621428D02*
X157340476Y-106954761D01*
X156864285Y-105621428D01*
X155340476Y-106859523D02*
X155530952Y-106954761D01*
X155911904Y-106954761D01*
X156102380Y-106859523D01*
X156197619Y-106669047D01*
X156197619Y-105907142D01*
X156102380Y-105716666D01*
X155911904Y-105621428D01*
X155530952Y-105621428D01*
X155340476Y-105716666D01*
X155245238Y-105907142D01*
X155245238Y-106097619D01*
X156197619Y-106288095D01*
X154388095Y-106954761D02*
X154388095Y-105621428D01*
X154388095Y-106002380D02*
X154292857Y-105811904D01*
X154197619Y-105716666D01*
X154007142Y-105621428D01*
X153816666Y-105621428D01*
X153435714Y-105621428D02*
X152673809Y-105621428D01*
X153150000Y-104954761D02*
X153150000Y-106669047D01*
X153054761Y-106859523D01*
X152864285Y-106954761D01*
X152673809Y-106954761D01*
X151245238Y-106859523D02*
X151435714Y-106954761D01*
X151816666Y-106954761D01*
X152007142Y-106859523D01*
X152102380Y-106669047D01*
X152102380Y-105907142D01*
X152007142Y-105716666D01*
X151816666Y-105621428D01*
X151435714Y-105621428D01*
X151245238Y-105716666D01*
X151150000Y-105907142D01*
X151150000Y-106097619D01*
X152102380Y-106288095D01*
X150292857Y-106954761D02*
X150292857Y-104954761D01*
X150292857Y-105716666D02*
X150102380Y-105621428D01*
X149721428Y-105621428D01*
X149530952Y-105716666D01*
X149435714Y-105811904D01*
X149340476Y-106002380D01*
X149340476Y-106573809D01*
X149435714Y-106764285D01*
X149530952Y-106859523D01*
X149721428Y-106954761D01*
X150102380Y-106954761D01*
X150292857Y-106859523D01*
X148483333Y-106954761D02*
X148483333Y-105621428D01*
X148483333Y-106002380D02*
X148388095Y-105811904D01*
X148292857Y-105716666D01*
X148102380Y-105621428D01*
X147911904Y-105621428D01*
X146388095Y-106954761D02*
X146388095Y-105907142D01*
X146483333Y-105716666D01*
X146673809Y-105621428D01*
X147054761Y-105621428D01*
X147245238Y-105716666D01*
X146388095Y-106859523D02*
X146578571Y-106954761D01*
X147054761Y-106954761D01*
X147245238Y-106859523D01*
X147340476Y-106669047D01*
X147340476Y-106478571D01*
X147245238Y-106288095D01*
X147054761Y-106192857D01*
X146578571Y-106192857D01*
X146388095Y-106097619D01*
X144673809Y-106859523D02*
X144864285Y-106954761D01*
X145245238Y-106954761D01*
X145435714Y-106859523D01*
X145530952Y-106669047D01*
X145530952Y-105907142D01*
X145435714Y-105716666D01*
X145245238Y-105621428D01*
X144864285Y-105621428D01*
X144673809Y-105716666D01*
X144578571Y-105907142D01*
X144578571Y-106097619D01*
X145530952Y-106288095D01*
X143721428Y-106764285D02*
X143626190Y-106859523D01*
X143721428Y-106954761D01*
X143816666Y-106859523D01*
X143721428Y-106764285D01*
X143721428Y-106954761D01*
X141911904Y-106859523D02*
X142102380Y-106954761D01*
X142483333Y-106954761D01*
X142673809Y-106859523D01*
X142769047Y-106764285D01*
X142864285Y-106573809D01*
X142864285Y-106002380D01*
X142769047Y-105811904D01*
X142673809Y-105716666D01*
X142483333Y-105621428D01*
X142102380Y-105621428D01*
X141911904Y-105716666D01*
X140769047Y-106954761D02*
X140959523Y-106859523D01*
X141054761Y-106764285D01*
X141150000Y-106573809D01*
X141150000Y-106002380D01*
X141054761Y-105811904D01*
X140959523Y-105716666D01*
X140769047Y-105621428D01*
X140483333Y-105621428D01*
X140292857Y-105716666D01*
X140197619Y-105811904D01*
X140102380Y-106002380D01*
X140102380Y-106573809D01*
X140197619Y-106764285D01*
X140292857Y-106859523D01*
X140483333Y-106954761D01*
X140769047Y-106954761D01*
X139245238Y-106954761D02*
X139245238Y-105621428D01*
X139245238Y-105811904D02*
X139150000Y-105716666D01*
X138959523Y-105621428D01*
X138673809Y-105621428D01*
X138483333Y-105716666D01*
X138388095Y-105907142D01*
X138388095Y-106954761D01*
X138388095Y-105907142D02*
X138292857Y-105716666D01*
X138102380Y-105621428D01*
X137816666Y-105621428D01*
X137626190Y-105716666D01*
X137530952Y-105907142D01*
X137530952Y-106954761D01*
D10*
X162421428Y-113125000D02*
X162492857Y-113089285D01*
X162600000Y-113089285D01*
X162707142Y-113125000D01*
X162778571Y-113196428D01*
X162814285Y-113267857D01*
X162850000Y-113410714D01*
X162850000Y-113517857D01*
X162814285Y-113660714D01*
X162778571Y-113732142D01*
X162707142Y-113803571D01*
X162600000Y-113839285D01*
X162528571Y-113839285D01*
X162421428Y-113803571D01*
X162385714Y-113767857D01*
X162385714Y-113517857D01*
X162528571Y-113517857D01*
X162064285Y-113839285D02*
X162064285Y-113089285D01*
X161635714Y-113839285D01*
X161635714Y-113089285D01*
X161278571Y-113839285D02*
X161278571Y-113089285D01*
X161100000Y-113089285D01*
X160992857Y-113125000D01*
X160921428Y-113196428D01*
X160885714Y-113267857D01*
X160850000Y-113410714D01*
X160850000Y-113517857D01*
X160885714Y-113660714D01*
X160921428Y-113732142D01*
X160992857Y-113803571D01*
X161100000Y-113839285D01*
X161278571Y-113839285D01*
X154578571Y-113089285D02*
X154435714Y-113089285D01*
X154364285Y-113125000D01*
X154292857Y-113196428D01*
X154257142Y-113339285D01*
X154257142Y-113589285D01*
X154292857Y-113732142D01*
X154364285Y-113803571D01*
X154435714Y-113839285D01*
X154578571Y-113839285D01*
X154650000Y-113803571D01*
X154721428Y-113732142D01*
X154757142Y-113589285D01*
X154757142Y-113339285D01*
X154721428Y-113196428D01*
X154650000Y-113125000D01*
X154578571Y-113089285D01*
X153578571Y-113089285D02*
X153935714Y-113089285D01*
X153971428Y-113446428D01*
X153935714Y-113410714D01*
X153864285Y-113375000D01*
X153685714Y-113375000D01*
X153614285Y-113410714D01*
X153578571Y-113446428D01*
X153542857Y-113517857D01*
X153542857Y-113696428D01*
X153578571Y-113767857D01*
X153614285Y-113803571D01*
X153685714Y-113839285D01*
X153864285Y-113839285D01*
X153935714Y-113803571D01*
X153971428Y-113767857D01*
X159828571Y-113089285D02*
X159685714Y-113089285D01*
X159614285Y-113125000D01*
X159542857Y-113196428D01*
X159507142Y-113339285D01*
X159507142Y-113589285D01*
X159542857Y-113732142D01*
X159614285Y-113803571D01*
X159685714Y-113839285D01*
X159828571Y-113839285D01*
X159900000Y-113803571D01*
X159971428Y-113732142D01*
X160007142Y-113589285D01*
X160007142Y-113339285D01*
X159971428Y-113196428D01*
X159900000Y-113125000D01*
X159828571Y-113089285D01*
X158792857Y-113839285D02*
X159221428Y-113839285D01*
X159007142Y-113839285D02*
X159007142Y-113089285D01*
X159078571Y-113196428D01*
X159150000Y-113267857D01*
X159221428Y-113303571D01*
D11*
X161171428Y-73202380D02*
X160980952Y-73202380D01*
X160885714Y-73250000D01*
X160790476Y-73345238D01*
X160742857Y-73535714D01*
X160742857Y-73869047D01*
X160790476Y-74059523D01*
X160885714Y-74154761D01*
X160980952Y-74202380D01*
X161171428Y-74202380D01*
X161266666Y-74154761D01*
X161361904Y-74059523D01*
X161409523Y-73869047D01*
X161409523Y-73535714D01*
X161361904Y-73345238D01*
X161266666Y-73250000D01*
X161171428Y-73202380D01*
X160409523Y-73202380D02*
X159790476Y-73202380D01*
X160123809Y-73583333D01*
X159980952Y-73583333D01*
X159885714Y-73630952D01*
X159838095Y-73678571D01*
X159790476Y-73773809D01*
X159790476Y-74011904D01*
X159838095Y-74107142D01*
X159885714Y-74154761D01*
X159980952Y-74202380D01*
X160266666Y-74202380D01*
X160361904Y-74154761D01*
X160409523Y-74107142D01*
D10*
X147271428Y-118975000D02*
X147342857Y-118939285D01*
X147450000Y-118939285D01*
X147557142Y-118975000D01*
X147628571Y-119046428D01*
X147664285Y-119117857D01*
X147700000Y-119260714D01*
X147700000Y-119367857D01*
X147664285Y-119510714D01*
X147628571Y-119582142D01*
X147557142Y-119653571D01*
X147450000Y-119689285D01*
X147378571Y-119689285D01*
X147271428Y-119653571D01*
X147235714Y-119617857D01*
X147235714Y-119367857D01*
X147378571Y-119367857D01*
X146914285Y-119689285D02*
X146914285Y-118939285D01*
X146485714Y-119689285D01*
X146485714Y-118939285D01*
X146128571Y-119689285D02*
X146128571Y-118939285D01*
X145950000Y-118939285D01*
X145842857Y-118975000D01*
X145771428Y-119046428D01*
X145735714Y-119117857D01*
X145700000Y-119260714D01*
X145700000Y-119367857D01*
X145735714Y-119510714D01*
X145771428Y-119582142D01*
X145842857Y-119653571D01*
X145950000Y-119689285D01*
X146128571Y-119689285D01*
D11*
X146021428Y-73202380D02*
X145830952Y-73202380D01*
X145735714Y-73250000D01*
X145640476Y-73345238D01*
X145592857Y-73535714D01*
X145592857Y-73869047D01*
X145640476Y-74059523D01*
X145735714Y-74154761D01*
X145830952Y-74202380D01*
X146021428Y-74202380D01*
X146116666Y-74154761D01*
X146211904Y-74059523D01*
X146259523Y-73869047D01*
X146259523Y-73535714D01*
X146211904Y-73345238D01*
X146116666Y-73250000D01*
X146021428Y-73202380D01*
X144735714Y-73202380D02*
X144926190Y-73202380D01*
X145021428Y-73250000D01*
X145069047Y-73297619D01*
X145164285Y-73440476D01*
X145211904Y-73630952D01*
X145211904Y-74011904D01*
X145164285Y-74107142D01*
X145116666Y-74154761D01*
X145021428Y-74202380D01*
X144830952Y-74202380D01*
X144735714Y-74154761D01*
X144688095Y-74107142D01*
X144640476Y-74011904D01*
X144640476Y-73773809D01*
X144688095Y-73678571D01*
X144735714Y-73630952D01*
X144830952Y-73583333D01*
X145021428Y-73583333D01*
X145116666Y-73630952D01*
X145164285Y-73678571D01*
X145211904Y-73773809D01*
D10*
X144992857Y-113160714D02*
X144957142Y-113125000D01*
X144885714Y-113089285D01*
X144707142Y-113089285D01*
X144635714Y-113125000D01*
X144600000Y-113160714D01*
X144564285Y-113232142D01*
X144564285Y-113303571D01*
X144600000Y-113410714D01*
X145028571Y-113839285D01*
X144564285Y-113839285D01*
X143921428Y-113339285D02*
X143921428Y-113839285D01*
X144100000Y-113053571D02*
X144278571Y-113589285D01*
X143814285Y-113589285D01*
X143635714Y-113089285D02*
X143385714Y-113839285D01*
X143135714Y-113089285D01*
%TO.C,REF\u002A\u002A*%
G36*
X138261662Y-114060696D02*
G01*
X138301314Y-114061782D01*
X138369109Y-114061782D01*
X138369109Y-114174951D01*
X138209577Y-114174951D01*
X138194682Y-114352732D01*
X138192682Y-114377037D01*
X138188023Y-114437880D01*
X138184731Y-114487389D01*
X138183092Y-114520992D01*
X138183390Y-114534116D01*
X138187724Y-114530343D01*
X138207496Y-114510676D01*
X138241679Y-114475818D01*
X138288541Y-114427576D01*
X138346354Y-114367757D01*
X138413387Y-114298167D01*
X138487912Y-114220615D01*
X138568197Y-114136907D01*
X138652513Y-114048849D01*
X138739130Y-113958250D01*
X138826319Y-113866915D01*
X138912349Y-113776653D01*
X138995492Y-113689269D01*
X139074016Y-113606572D01*
X139146192Y-113530368D01*
X139210291Y-113462463D01*
X139264583Y-113404666D01*
X139361592Y-113301040D01*
X139362034Y-113389315D01*
X139362475Y-113477589D01*
X138761938Y-114109158D01*
X138161401Y-114740726D01*
X138149396Y-114884674D01*
X138101365Y-115460635D01*
X138092876Y-115562791D01*
X138082343Y-115690612D01*
X138072621Y-115809767D01*
X138063898Y-115917914D01*
X138056358Y-116012713D01*
X138050187Y-116091819D01*
X138045573Y-116152892D01*
X138042700Y-116193590D01*
X138041754Y-116211570D01*
X138044251Y-116219808D01*
X138055471Y-116237599D01*
X138076751Y-116264411D01*
X138087021Y-116276129D01*
X138109225Y-116301466D01*
X138154023Y-116349986D01*
X138212281Y-116411192D01*
X138285129Y-116486307D01*
X138373703Y-116576550D01*
X138479134Y-116683145D01*
X138548492Y-116753093D01*
X138645179Y-116850658D01*
X138741526Y-116947941D01*
X138834638Y-117042014D01*
X138921618Y-117129950D01*
X138999569Y-117208820D01*
X139065596Y-117275699D01*
X139116802Y-117327658D01*
X139317514Y-117531620D01*
X139281058Y-117569671D01*
X139272460Y-117578245D01*
X139247095Y-117599297D01*
X139229695Y-117607723D01*
X139216071Y-117600530D01*
X139190743Y-117578944D01*
X139160379Y-117547995D01*
X139141896Y-117528448D01*
X139107427Y-117492752D01*
X139058712Y-117442684D01*
X138997469Y-117380001D01*
X138925420Y-117306457D01*
X138844285Y-117223810D01*
X138755784Y-117133815D01*
X138661637Y-117038228D01*
X138563565Y-116938805D01*
X138021161Y-116389343D01*
X137999066Y-116674746D01*
X137994250Y-116735662D01*
X137987216Y-116817548D01*
X137980872Y-116879569D01*
X137974748Y-116924987D01*
X137968373Y-116957062D01*
X137961277Y-116979052D01*
X137952991Y-116994219D01*
X137941393Y-117015416D01*
X137931850Y-117054386D01*
X137929010Y-117110531D01*
X137929010Y-117192773D01*
X137702674Y-117192773D01*
X137702674Y-117016733D01*
X136857082Y-117016733D01*
X136808203Y-117072262D01*
X136794836Y-117086722D01*
X136722388Y-117144813D01*
X136640532Y-117180576D01*
X136551900Y-117192773D01*
X136473692Y-117186306D01*
X136385233Y-117159047D01*
X136309507Y-117110328D01*
X136294748Y-117096403D01*
X136257864Y-117051328D01*
X136225503Y-116998819D01*
X136202297Y-116947061D01*
X136192879Y-116904239D01*
X136192697Y-116898023D01*
X136191342Y-116875246D01*
X136187800Y-116859513D01*
X136180390Y-116852068D01*
X136167431Y-116854156D01*
X136147243Y-116867020D01*
X136118145Y-116891905D01*
X136078456Y-116930053D01*
X136026496Y-116982710D01*
X135960584Y-117051119D01*
X135879040Y-117136524D01*
X135835604Y-117182112D01*
X135763000Y-117258441D01*
X135694309Y-117330808D01*
X135632223Y-117396366D01*
X135579434Y-117452274D01*
X135538634Y-117495686D01*
X135512515Y-117523758D01*
X135441119Y-117601436D01*
X135352863Y-117513416D01*
X135898690Y-116941287D01*
X135933105Y-116905188D01*
X136055546Y-116776272D01*
X136160651Y-116664754D01*
X136248736Y-116570288D01*
X136320116Y-116492529D01*
X136370588Y-116436174D01*
X136577247Y-116436174D01*
X136578872Y-116449434D01*
X136579156Y-116450819D01*
X136592698Y-116482228D01*
X136619748Y-116496863D01*
X136703129Y-116528063D01*
X136777418Y-116580038D01*
X136835846Y-116648791D01*
X136875890Y-116731315D01*
X136895026Y-116824606D01*
X136901364Y-116903565D01*
X137850838Y-116903565D01*
X137857458Y-116875273D01*
X137858629Y-116868329D01*
X137862268Y-116837281D01*
X137867234Y-116787081D01*
X137873157Y-116721727D01*
X137879669Y-116645219D01*
X137886401Y-116561555D01*
X137908724Y-116276129D01*
X137607826Y-115970565D01*
X137552636Y-115914704D01*
X137485109Y-115846888D01*
X137424529Y-115786643D01*
X137373021Y-115736052D01*
X137332710Y-115697200D01*
X137305722Y-115672170D01*
X137294182Y-115663046D01*
X137286444Y-115667405D01*
X137263395Y-115687241D01*
X137228709Y-115720375D01*
X137185487Y-115763820D01*
X137136832Y-115814587D01*
X137124140Y-115828051D01*
X137067229Y-115888275D01*
X136999414Y-115959864D01*
X136925800Y-116037437D01*
X136851493Y-116115611D01*
X136781599Y-116189005D01*
X136777401Y-116193409D01*
X136712420Y-116261785D01*
X136662836Y-116314732D01*
X136626688Y-116354767D01*
X136602016Y-116384411D01*
X136586858Y-116406181D01*
X136579256Y-116422595D01*
X136577247Y-116436174D01*
X136370588Y-116436174D01*
X136375105Y-116431131D01*
X136414019Y-116385748D01*
X136437173Y-116356035D01*
X136444882Y-116341644D01*
X136444883Y-116341559D01*
X136443825Y-116323624D01*
X136440737Y-116283421D01*
X136435858Y-116223687D01*
X136429432Y-116147158D01*
X136421700Y-116056569D01*
X136412905Y-115954657D01*
X136403287Y-115844159D01*
X136393091Y-115727811D01*
X136382556Y-115608348D01*
X136371926Y-115488507D01*
X136361442Y-115371025D01*
X136351346Y-115258637D01*
X136341881Y-115154081D01*
X136333288Y-115060091D01*
X136325809Y-114979405D01*
X136319687Y-114914759D01*
X136315162Y-114868888D01*
X136312478Y-114844530D01*
X136307067Y-114803732D01*
X136436253Y-114803732D01*
X136437908Y-114834653D01*
X136441549Y-114886653D01*
X136446995Y-114957487D01*
X136454063Y-115044911D01*
X136462570Y-115146681D01*
X136472335Y-115260552D01*
X136483174Y-115384279D01*
X136494907Y-115515618D01*
X136504079Y-115616908D01*
X136515566Y-115742526D01*
X136526322Y-115858762D01*
X136536131Y-115963380D01*
X136544781Y-116054140D01*
X136552057Y-116128804D01*
X136557746Y-116185134D01*
X136561634Y-116220891D01*
X136563506Y-116233837D01*
X136569188Y-116229826D01*
X136590020Y-116210138D01*
X136623872Y-116176322D01*
X136668412Y-116130837D01*
X136721310Y-116076146D01*
X136780236Y-116014710D01*
X136842858Y-115948990D01*
X136906848Y-115881449D01*
X136969874Y-115814547D01*
X137029606Y-115750746D01*
X137083713Y-115692507D01*
X137129865Y-115642292D01*
X137165733Y-115602563D01*
X137188984Y-115575780D01*
X137195778Y-115566477D01*
X137377601Y-115566477D01*
X137653305Y-115841968D01*
X137720726Y-115909224D01*
X137784267Y-115972162D01*
X137833490Y-116020100D01*
X137870196Y-116054594D01*
X137896190Y-116077199D01*
X137913276Y-116089471D01*
X137923256Y-116092966D01*
X137927935Y-116089238D01*
X137929116Y-116079844D01*
X137929873Y-116064749D01*
X137932601Y-116025883D01*
X137937108Y-115966895D01*
X137943179Y-115890473D01*
X137950596Y-115799305D01*
X137959142Y-115696080D01*
X137968602Y-115583483D01*
X137978758Y-115464205D01*
X137987723Y-115359077D01*
X137997066Y-115248351D01*
X138005443Y-115147814D01*
X138012653Y-115059943D01*
X138018496Y-114987215D01*
X138022769Y-114932110D01*
X138025273Y-114897104D01*
X138025805Y-114884674D01*
X138025384Y-114884908D01*
X138013509Y-114896350D01*
X137987130Y-114923198D01*
X137948570Y-114963018D01*
X137900153Y-115013372D01*
X137844203Y-115071828D01*
X137783042Y-115135948D01*
X137718995Y-115203298D01*
X137654385Y-115271443D01*
X137591535Y-115337948D01*
X137532768Y-115400377D01*
X137480409Y-115456295D01*
X137379533Y-115564406D01*
X137377601Y-115566477D01*
X137195778Y-115566477D01*
X137197290Y-115564406D01*
X137189148Y-115553383D01*
X137165478Y-115526999D01*
X137128478Y-115487527D01*
X137080350Y-115437191D01*
X137023296Y-115378217D01*
X136959520Y-115312830D01*
X136891222Y-115243255D01*
X136820605Y-115171716D01*
X136749871Y-115100438D01*
X136681222Y-115031647D01*
X136616861Y-114967566D01*
X136558989Y-114910422D01*
X136509810Y-114862439D01*
X136471524Y-114825841D01*
X136446334Y-114802854D01*
X136436442Y-114795703D01*
X136436253Y-114803732D01*
X136307067Y-114803732D01*
X136305390Y-114791089D01*
X136030297Y-114791089D01*
X136030140Y-114690495D01*
X136130891Y-114690495D01*
X136212624Y-114690495D01*
X136219895Y-114690489D01*
X136260950Y-114689613D01*
X136283277Y-114685867D01*
X136292529Y-114677270D01*
X136294357Y-114661840D01*
X136286306Y-114639159D01*
X136258730Y-114601428D01*
X136212624Y-114552179D01*
X136130891Y-114471172D01*
X136130891Y-114690495D01*
X136030140Y-114690495D01*
X136029968Y-114580471D01*
X136029639Y-114369852D01*
X135577914Y-113910891D01*
X135126189Y-113451931D01*
X135125570Y-113364848D01*
X135124951Y-113277767D01*
X135666769Y-113826952D01*
X135719137Y-113879998D01*
X135827803Y-113989772D01*
X135920709Y-114083114D01*
X135999055Y-114161173D01*
X136064043Y-114225097D01*
X136116872Y-114276035D01*
X136158743Y-114315135D01*
X136190855Y-114343548D01*
X136214410Y-114362420D01*
X136230608Y-114372901D01*
X136240649Y-114376139D01*
X136257579Y-114375158D01*
X136267084Y-114367996D01*
X136268723Y-114348401D01*
X136264782Y-114310124D01*
X136262065Y-114286025D01*
X136258284Y-114245744D01*
X136256760Y-114218961D01*
X136256015Y-114209728D01*
X136248746Y-114199839D01*
X136228668Y-114196562D01*
X136189689Y-114197992D01*
X136179737Y-114198553D01*
X136139898Y-114197921D01*
X136111560Y-114189167D01*
X136091586Y-114174951D01*
X136374852Y-114174951D01*
X136379013Y-114222104D01*
X136380935Y-114243498D01*
X136386924Y-114301909D01*
X136392826Y-114340381D01*
X136399727Y-114362912D01*
X136408712Y-114373498D01*
X136420870Y-114376139D01*
X136431801Y-114377937D01*
X136439050Y-114386530D01*
X136443100Y-114406505D01*
X136444863Y-114442450D01*
X136445248Y-114498952D01*
X136445248Y-114621766D01*
X136485447Y-114661840D01*
X136583565Y-114759654D01*
X136721881Y-114897542D01*
X136721881Y-114791089D01*
X137476337Y-114791089D01*
X137476337Y-115030000D01*
X136857831Y-115030000D01*
X137067592Y-115246906D01*
X137107770Y-115288334D01*
X137163328Y-115345200D01*
X137211570Y-115394082D01*
X137249971Y-115432441D01*
X137276003Y-115457741D01*
X137287140Y-115467442D01*
X137291373Y-115464767D01*
X137311224Y-115446782D01*
X137345451Y-115413481D01*
X137392227Y-115366712D01*
X137449724Y-115308325D01*
X137516112Y-115240169D01*
X137589564Y-115164094D01*
X137668251Y-115081950D01*
X137747341Y-114998943D01*
X137824871Y-114917136D01*
X137887746Y-114850083D01*
X137937502Y-114796007D01*
X137975678Y-114753129D01*
X138003811Y-114719673D01*
X138023440Y-114693861D01*
X138036101Y-114673914D01*
X138043334Y-114658056D01*
X138046675Y-114644509D01*
X138047561Y-114637910D01*
X138051488Y-114601548D01*
X138056459Y-114548018D01*
X138061927Y-114483421D01*
X138067344Y-114413862D01*
X138069181Y-114389635D01*
X138074488Y-114324178D01*
X138079548Y-114267717D01*
X138083863Y-114225618D01*
X138086934Y-114203243D01*
X138092955Y-114174951D01*
X136374852Y-114174951D01*
X136091586Y-114174951D01*
X136083630Y-114169289D01*
X136078820Y-114165104D01*
X136039482Y-114114427D01*
X136023903Y-114061782D01*
X136364698Y-114061782D01*
X137779221Y-114061782D01*
X137991881Y-114061782D01*
X138048908Y-114061782D01*
X138065993Y-114061662D01*
X138091308Y-114059462D01*
X138098616Y-114052334D01*
X138092943Y-114037508D01*
X138091267Y-114034682D01*
X138072448Y-114012944D01*
X138045183Y-113988820D01*
X138017987Y-113969254D01*
X137999371Y-113961188D01*
X137997697Y-113962463D01*
X137993544Y-113979976D01*
X137991881Y-114011485D01*
X137991881Y-114061782D01*
X137779221Y-114061782D01*
X137775526Y-113971095D01*
X137771832Y-113880407D01*
X137696386Y-113865252D01*
X137658551Y-113858379D01*
X137595368Y-113848756D01*
X137536065Y-113841496D01*
X137451188Y-113832893D01*
X137451188Y-113936040D01*
X136872773Y-113936040D01*
X136872773Y-113845122D01*
X136800471Y-113853753D01*
X136689998Y-113872249D01*
X136578816Y-113905691D01*
X136486850Y-113952324D01*
X136412542Y-114012786D01*
X136364698Y-114061782D01*
X136023903Y-114061782D01*
X136022172Y-114055934D01*
X136027474Y-113994575D01*
X136055975Y-113935297D01*
X136058733Y-113931606D01*
X136096822Y-113899851D01*
X136146476Y-113881067D01*
X136200002Y-113876071D01*
X136249707Y-113885678D01*
X136287900Y-113910704D01*
X136300831Y-113923480D01*
X136313428Y-113926576D01*
X136331467Y-113916998D01*
X136361928Y-113893082D01*
X136371274Y-113885731D01*
X136443430Y-113839339D01*
X136528915Y-113798084D01*
X136598830Y-113772575D01*
X136973367Y-113772575D01*
X136973367Y-113835446D01*
X137350594Y-113835446D01*
X137350594Y-113772575D01*
X136973367Y-113772575D01*
X136598830Y-113772575D01*
X136619767Y-113764936D01*
X136708027Y-113742868D01*
X136785736Y-113734852D01*
X136793991Y-113734788D01*
X136839879Y-113730321D01*
X136865079Y-113717795D01*
X136872773Y-113695784D01*
X136873676Y-113688849D01*
X136878615Y-113682885D01*
X136890611Y-113678519D01*
X136912680Y-113675503D01*
X136947836Y-113673590D01*
X136999094Y-113672530D01*
X137069471Y-113672077D01*
X137161980Y-113671980D01*
X137248660Y-113672150D01*
X137322332Y-113672834D01*
X137376265Y-113674215D01*
X137413288Y-113676470D01*
X137436230Y-113679778D01*
X137447920Y-113684320D01*
X137451188Y-113690272D01*
X137461937Y-113704888D01*
X137492055Y-113714215D01*
X137503582Y-113715847D01*
X137542886Y-113721591D01*
X137595188Y-113729378D01*
X137652376Y-113738003D01*
X137683916Y-113742393D01*
X137730074Y-113747148D01*
X137762641Y-113748295D01*
X137776023Y-113745495D01*
X137778308Y-113743671D01*
X137799405Y-113739165D01*
X137837355Y-113736029D01*
X137886048Y-113734852D01*
X137991881Y-113734852D01*
X137991894Y-113772575D01*
X137991894Y-113775718D01*
X137992388Y-113788668D01*
X137998819Y-113810411D01*
X138017123Y-113828851D01*
X138052830Y-113850801D01*
X138084174Y-113870854D01*
X138131893Y-113909356D01*
X138175138Y-113952579D01*
X138208219Y-113994627D01*
X138225442Y-114029604D01*
X138229662Y-114043081D01*
X138237480Y-114052334D01*
X138240116Y-114055454D01*
X138261662Y-114060696D01*
G37*
D15*
X138261662Y-114060696D02*
X138301314Y-114061782D01*
X138369109Y-114061782D01*
X138369109Y-114174951D01*
X138209577Y-114174951D01*
X138194682Y-114352732D01*
X138192682Y-114377037D01*
X138188023Y-114437880D01*
X138184731Y-114487389D01*
X138183092Y-114520992D01*
X138183390Y-114534116D01*
X138187724Y-114530343D01*
X138207496Y-114510676D01*
X138241679Y-114475818D01*
X138288541Y-114427576D01*
X138346354Y-114367757D01*
X138413387Y-114298167D01*
X138487912Y-114220615D01*
X138568197Y-114136907D01*
X138652513Y-114048849D01*
X138739130Y-113958250D01*
X138826319Y-113866915D01*
X138912349Y-113776653D01*
X138995492Y-113689269D01*
X139074016Y-113606572D01*
X139146192Y-113530368D01*
X139210291Y-113462463D01*
X139264583Y-113404666D01*
X139361592Y-113301040D01*
X139362034Y-113389315D01*
X139362475Y-113477589D01*
X138761938Y-114109158D01*
X138161401Y-114740726D01*
X138149396Y-114884674D01*
X138101365Y-115460635D01*
X138092876Y-115562791D01*
X138082343Y-115690612D01*
X138072621Y-115809767D01*
X138063898Y-115917914D01*
X138056358Y-116012713D01*
X138050187Y-116091819D01*
X138045573Y-116152892D01*
X138042700Y-116193590D01*
X138041754Y-116211570D01*
X138044251Y-116219808D01*
X138055471Y-116237599D01*
X138076751Y-116264411D01*
X138087021Y-116276129D01*
X138109225Y-116301466D01*
X138154023Y-116349986D01*
X138212281Y-116411192D01*
X138285129Y-116486307D01*
X138373703Y-116576550D01*
X138479134Y-116683145D01*
X138548492Y-116753093D01*
X138645179Y-116850658D01*
X138741526Y-116947941D01*
X138834638Y-117042014D01*
X138921618Y-117129950D01*
X138999569Y-117208820D01*
X139065596Y-117275699D01*
X139116802Y-117327658D01*
X139317514Y-117531620D01*
X139281058Y-117569671D01*
X139272460Y-117578245D01*
X139247095Y-117599297D01*
X139229695Y-117607723D01*
X139216071Y-117600530D01*
X139190743Y-117578944D01*
X139160379Y-117547995D01*
X139141896Y-117528448D01*
X139107427Y-117492752D01*
X139058712Y-117442684D01*
X138997469Y-117380001D01*
X138925420Y-117306457D01*
X138844285Y-117223810D01*
X138755784Y-117133815D01*
X138661637Y-117038228D01*
X138563565Y-116938805D01*
X138021161Y-116389343D01*
X137999066Y-116674746D01*
X137994250Y-116735662D01*
X137987216Y-116817548D01*
X137980872Y-116879569D01*
X137974748Y-116924987D01*
X137968373Y-116957062D01*
X137961277Y-116979052D01*
X137952991Y-116994219D01*
X137941393Y-117015416D01*
X137931850Y-117054386D01*
X137929010Y-117110531D01*
X137929010Y-117192773D01*
X137702674Y-117192773D01*
X137702674Y-117016733D01*
X136857082Y-117016733D01*
X136808203Y-117072262D01*
X136794836Y-117086722D01*
X136722388Y-117144813D01*
X136640532Y-117180576D01*
X136551900Y-117192773D01*
X136473692Y-117186306D01*
X136385233Y-117159047D01*
X136309507Y-117110328D01*
X136294748Y-117096403D01*
X136257864Y-117051328D01*
X136225503Y-116998819D01*
X136202297Y-116947061D01*
X136192879Y-116904239D01*
X136192697Y-116898023D01*
X136191342Y-116875246D01*
X136187800Y-116859513D01*
X136180390Y-116852068D01*
X136167431Y-116854156D01*
X136147243Y-116867020D01*
X136118145Y-116891905D01*
X136078456Y-116930053D01*
X136026496Y-116982710D01*
X135960584Y-117051119D01*
X135879040Y-117136524D01*
X135835604Y-117182112D01*
X135763000Y-117258441D01*
X135694309Y-117330808D01*
X135632223Y-117396366D01*
X135579434Y-117452274D01*
X135538634Y-117495686D01*
X135512515Y-117523758D01*
X135441119Y-117601436D01*
X135352863Y-117513416D01*
X135898690Y-116941287D01*
X135933105Y-116905188D01*
X136055546Y-116776272D01*
X136160651Y-116664754D01*
X136248736Y-116570288D01*
X136320116Y-116492529D01*
X136370588Y-116436174D01*
X136577247Y-116436174D01*
X136578872Y-116449434D01*
X136579156Y-116450819D01*
X136592698Y-116482228D01*
X136619748Y-116496863D01*
X136703129Y-116528063D01*
X136777418Y-116580038D01*
X136835846Y-116648791D01*
X136875890Y-116731315D01*
X136895026Y-116824606D01*
X136901364Y-116903565D01*
X137850838Y-116903565D01*
X137857458Y-116875273D01*
X137858629Y-116868329D01*
X137862268Y-116837281D01*
X137867234Y-116787081D01*
X137873157Y-116721727D01*
X137879669Y-116645219D01*
X137886401Y-116561555D01*
X137908724Y-116276129D01*
X137607826Y-115970565D01*
X137552636Y-115914704D01*
X137485109Y-115846888D01*
X137424529Y-115786643D01*
X137373021Y-115736052D01*
X137332710Y-115697200D01*
X137305722Y-115672170D01*
X137294182Y-115663046D01*
X137286444Y-115667405D01*
X137263395Y-115687241D01*
X137228709Y-115720375D01*
X137185487Y-115763820D01*
X137136832Y-115814587D01*
X137124140Y-115828051D01*
X137067229Y-115888275D01*
X136999414Y-115959864D01*
X136925800Y-116037437D01*
X136851493Y-116115611D01*
X136781599Y-116189005D01*
X136777401Y-116193409D01*
X136712420Y-116261785D01*
X136662836Y-116314732D01*
X136626688Y-116354767D01*
X136602016Y-116384411D01*
X136586858Y-116406181D01*
X136579256Y-116422595D01*
X136577247Y-116436174D01*
X136370588Y-116436174D01*
X136375105Y-116431131D01*
X136414019Y-116385748D01*
X136437173Y-116356035D01*
X136444882Y-116341644D01*
X136444883Y-116341559D01*
X136443825Y-116323624D01*
X136440737Y-116283421D01*
X136435858Y-116223687D01*
X136429432Y-116147158D01*
X136421700Y-116056569D01*
X136412905Y-115954657D01*
X136403287Y-115844159D01*
X136393091Y-115727811D01*
X136382556Y-115608348D01*
X136371926Y-115488507D01*
X136361442Y-115371025D01*
X136351346Y-115258637D01*
X136341881Y-115154081D01*
X136333288Y-115060091D01*
X136325809Y-114979405D01*
X136319687Y-114914759D01*
X136315162Y-114868888D01*
X136312478Y-114844530D01*
X136307067Y-114803732D01*
X136436253Y-114803732D01*
X136437908Y-114834653D01*
X136441549Y-114886653D01*
X136446995Y-114957487D01*
X136454063Y-115044911D01*
X136462570Y-115146681D01*
X136472335Y-115260552D01*
X136483174Y-115384279D01*
X136494907Y-115515618D01*
X136504079Y-115616908D01*
X136515566Y-115742526D01*
X136526322Y-115858762D01*
X136536131Y-115963380D01*
X136544781Y-116054140D01*
X136552057Y-116128804D01*
X136557746Y-116185134D01*
X136561634Y-116220891D01*
X136563506Y-116233837D01*
X136569188Y-116229826D01*
X136590020Y-116210138D01*
X136623872Y-116176322D01*
X136668412Y-116130837D01*
X136721310Y-116076146D01*
X136780236Y-116014710D01*
X136842858Y-115948990D01*
X136906848Y-115881449D01*
X136969874Y-115814547D01*
X137029606Y-115750746D01*
X137083713Y-115692507D01*
X137129865Y-115642292D01*
X137165733Y-115602563D01*
X137188984Y-115575780D01*
X137195778Y-115566477D01*
X137377601Y-115566477D01*
X137653305Y-115841968D01*
X137720726Y-115909224D01*
X137784267Y-115972162D01*
X137833490Y-116020100D01*
X137870196Y-116054594D01*
X137896190Y-116077199D01*
X137913276Y-116089471D01*
X137923256Y-116092966D01*
X137927935Y-116089238D01*
X137929116Y-116079844D01*
X137929873Y-116064749D01*
X137932601Y-116025883D01*
X137937108Y-115966895D01*
X137943179Y-115890473D01*
X137950596Y-115799305D01*
X137959142Y-115696080D01*
X137968602Y-115583483D01*
X137978758Y-115464205D01*
X137987723Y-115359077D01*
X137997066Y-115248351D01*
X138005443Y-115147814D01*
X138012653Y-115059943D01*
X138018496Y-114987215D01*
X138022769Y-114932110D01*
X138025273Y-114897104D01*
X138025805Y-114884674D01*
X138025384Y-114884908D01*
X138013509Y-114896350D01*
X137987130Y-114923198D01*
X137948570Y-114963018D01*
X137900153Y-115013372D01*
X137844203Y-115071828D01*
X137783042Y-115135948D01*
X137718995Y-115203298D01*
X137654385Y-115271443D01*
X137591535Y-115337948D01*
X137532768Y-115400377D01*
X137480409Y-115456295D01*
X137379533Y-115564406D01*
X137377601Y-115566477D01*
X137195778Y-115566477D01*
X137197290Y-115564406D01*
X137189148Y-115553383D01*
X137165478Y-115526999D01*
X137128478Y-115487527D01*
X137080350Y-115437191D01*
X137023296Y-115378217D01*
X136959520Y-115312830D01*
X136891222Y-115243255D01*
X136820605Y-115171716D01*
X136749871Y-115100438D01*
X136681222Y-115031647D01*
X136616861Y-114967566D01*
X136558989Y-114910422D01*
X136509810Y-114862439D01*
X136471524Y-114825841D01*
X136446334Y-114802854D01*
X136436442Y-114795703D01*
X136436253Y-114803732D01*
X136307067Y-114803732D01*
X136305390Y-114791089D01*
X136030297Y-114791089D01*
X136030140Y-114690495D01*
X136130891Y-114690495D01*
X136212624Y-114690495D01*
X136219895Y-114690489D01*
X136260950Y-114689613D01*
X136283277Y-114685867D01*
X136292529Y-114677270D01*
X136294357Y-114661840D01*
X136286306Y-114639159D01*
X136258730Y-114601428D01*
X136212624Y-114552179D01*
X136130891Y-114471172D01*
X136130891Y-114690495D01*
X136030140Y-114690495D01*
X136029968Y-114580471D01*
X136029639Y-114369852D01*
X135577914Y-113910891D01*
X135126189Y-113451931D01*
X135125570Y-113364848D01*
X135124951Y-113277767D01*
X135666769Y-113826952D01*
X135719137Y-113879998D01*
X135827803Y-113989772D01*
X135920709Y-114083114D01*
X135999055Y-114161173D01*
X136064043Y-114225097D01*
X136116872Y-114276035D01*
X136158743Y-114315135D01*
X136190855Y-114343548D01*
X136214410Y-114362420D01*
X136230608Y-114372901D01*
X136240649Y-114376139D01*
X136257579Y-114375158D01*
X136267084Y-114367996D01*
X136268723Y-114348401D01*
X136264782Y-114310124D01*
X136262065Y-114286025D01*
X136258284Y-114245744D01*
X136256760Y-114218961D01*
X136256015Y-114209728D01*
X136248746Y-114199839D01*
X136228668Y-114196562D01*
X136189689Y-114197992D01*
X136179737Y-114198553D01*
X136139898Y-114197921D01*
X136111560Y-114189167D01*
X136091586Y-114174951D01*
X136374852Y-114174951D01*
X136379013Y-114222104D01*
X136380935Y-114243498D01*
X136386924Y-114301909D01*
X136392826Y-114340381D01*
X136399727Y-114362912D01*
X136408712Y-114373498D01*
X136420870Y-114376139D01*
X136431801Y-114377937D01*
X136439050Y-114386530D01*
X136443100Y-114406505D01*
X136444863Y-114442450D01*
X136445248Y-114498952D01*
X136445248Y-114621766D01*
X136485447Y-114661840D01*
X136583565Y-114759654D01*
X136721881Y-114897542D01*
X136721881Y-114791089D01*
X137476337Y-114791089D01*
X137476337Y-115030000D01*
X136857831Y-115030000D01*
X137067592Y-115246906D01*
X137107770Y-115288334D01*
X137163328Y-115345200D01*
X137211570Y-115394082D01*
X137249971Y-115432441D01*
X137276003Y-115457741D01*
X137287140Y-115467442D01*
X137291373Y-115464767D01*
X137311224Y-115446782D01*
X137345451Y-115413481D01*
X137392227Y-115366712D01*
X137449724Y-115308325D01*
X137516112Y-115240169D01*
X137589564Y-115164094D01*
X137668251Y-115081950D01*
X137747341Y-114998943D01*
X137824871Y-114917136D01*
X137887746Y-114850083D01*
X137937502Y-114796007D01*
X137975678Y-114753129D01*
X138003811Y-114719673D01*
X138023440Y-114693861D01*
X138036101Y-114673914D01*
X138043334Y-114658056D01*
X138046675Y-114644509D01*
X138047561Y-114637910D01*
X138051488Y-114601548D01*
X138056459Y-114548018D01*
X138061927Y-114483421D01*
X138067344Y-114413862D01*
X138069181Y-114389635D01*
X138074488Y-114324178D01*
X138079548Y-114267717D01*
X138083863Y-114225618D01*
X138086934Y-114203243D01*
X138092955Y-114174951D01*
X136374852Y-114174951D01*
X136091586Y-114174951D01*
X136083630Y-114169289D01*
X136078820Y-114165104D01*
X136039482Y-114114427D01*
X136023903Y-114061782D01*
X136364698Y-114061782D01*
X137779221Y-114061782D01*
X137991881Y-114061782D01*
X138048908Y-114061782D01*
X138065993Y-114061662D01*
X138091308Y-114059462D01*
X138098616Y-114052334D01*
X138092943Y-114037508D01*
X138091267Y-114034682D01*
X138072448Y-114012944D01*
X138045183Y-113988820D01*
X138017987Y-113969254D01*
X137999371Y-113961188D01*
X137997697Y-113962463D01*
X137993544Y-113979976D01*
X137991881Y-114011485D01*
X137991881Y-114061782D01*
X137779221Y-114061782D01*
X137775526Y-113971095D01*
X137771832Y-113880407D01*
X137696386Y-113865252D01*
X137658551Y-113858379D01*
X137595368Y-113848756D01*
X137536065Y-113841496D01*
X137451188Y-113832893D01*
X137451188Y-113936040D01*
X136872773Y-113936040D01*
X136872773Y-113845122D01*
X136800471Y-113853753D01*
X136689998Y-113872249D01*
X136578816Y-113905691D01*
X136486850Y-113952324D01*
X136412542Y-114012786D01*
X136364698Y-114061782D01*
X136023903Y-114061782D01*
X136022172Y-114055934D01*
X136027474Y-113994575D01*
X136055975Y-113935297D01*
X136058733Y-113931606D01*
X136096822Y-113899851D01*
X136146476Y-113881067D01*
X136200002Y-113876071D01*
X136249707Y-113885678D01*
X136287900Y-113910704D01*
X136300831Y-113923480D01*
X136313428Y-113926576D01*
X136331467Y-113916998D01*
X136361928Y-113893082D01*
X136371274Y-113885731D01*
X136443430Y-113839339D01*
X136528915Y-113798084D01*
X136598830Y-113772575D01*
X136973367Y-113772575D01*
X136973367Y-113835446D01*
X137350594Y-113835446D01*
X137350594Y-113772575D01*
X136973367Y-113772575D01*
X136598830Y-113772575D01*
X136619767Y-113764936D01*
X136708027Y-113742868D01*
X136785736Y-113734852D01*
X136793991Y-113734788D01*
X136839879Y-113730321D01*
X136865079Y-113717795D01*
X136872773Y-113695784D01*
X136873676Y-113688849D01*
X136878615Y-113682885D01*
X136890611Y-113678519D01*
X136912680Y-113675503D01*
X136947836Y-113673590D01*
X136999094Y-113672530D01*
X137069471Y-113672077D01*
X137161980Y-113671980D01*
X137248660Y-113672150D01*
X137322332Y-113672834D01*
X137376265Y-113674215D01*
X137413288Y-113676470D01*
X137436230Y-113679778D01*
X137447920Y-113684320D01*
X137451188Y-113690272D01*
X137461937Y-113704888D01*
X137492055Y-113714215D01*
X137503582Y-113715847D01*
X137542886Y-113721591D01*
X137595188Y-113729378D01*
X137652376Y-113738003D01*
X137683916Y-113742393D01*
X137730074Y-113747148D01*
X137762641Y-113748295D01*
X137776023Y-113745495D01*
X137778308Y-113743671D01*
X137799405Y-113739165D01*
X137837355Y-113736029D01*
X137886048Y-113734852D01*
X137991881Y-113734852D01*
X137991894Y-113772575D01*
X137991894Y-113775718D01*
X137992388Y-113788668D01*
X137998819Y-113810411D01*
X138017123Y-113828851D01*
X138052830Y-113850801D01*
X138084174Y-113870854D01*
X138131893Y-113909356D01*
X138175138Y-113952579D01*
X138208219Y-113994627D01*
X138225442Y-114029604D01*
X138229662Y-114043081D01*
X138237480Y-114052334D01*
X138240116Y-114055454D01*
X138261662Y-114060696D01*
G36*
X139022971Y-119317822D02*
G01*
X135502178Y-119317822D01*
X135502178Y-118450198D01*
X139022971Y-118450198D01*
X139022971Y-119317822D01*
G37*
X139022971Y-119317822D02*
X135502178Y-119317822D01*
X135502178Y-118450198D01*
X139022971Y-118450198D01*
X139022971Y-119317822D01*
G36*
X153787275Y-97968931D02*
G01*
X153871095Y-98413555D01*
X154489667Y-98668551D01*
X154860707Y-98416246D01*
X154934144Y-98366506D01*
X155031499Y-98301218D01*
X155115787Y-98245454D01*
X155182631Y-98202078D01*
X155227654Y-98173953D01*
X155246478Y-98163942D01*
X155258039Y-98171061D01*
X155292596Y-98200894D01*
X155344894Y-98249852D01*
X155410500Y-98313440D01*
X155484983Y-98387163D01*
X155563913Y-98466525D01*
X155642856Y-98547031D01*
X155717384Y-98624185D01*
X155783063Y-98693493D01*
X155835463Y-98750457D01*
X155870153Y-98790584D01*
X155882701Y-98809377D01*
X155879782Y-98817451D01*
X155859571Y-98853469D01*
X155822663Y-98912744D01*
X155772050Y-98990630D01*
X155710725Y-99082481D01*
X155641679Y-99183650D01*
X155603787Y-99238826D01*
X155538606Y-99334884D01*
X155482723Y-99418717D01*
X155439117Y-99485777D01*
X155410769Y-99531519D01*
X155400657Y-99551396D01*
X155400823Y-99552497D01*
X155409743Y-99577694D01*
X155430206Y-99629147D01*
X155459360Y-99700135D01*
X155494353Y-99783935D01*
X155532332Y-99873828D01*
X155570445Y-99963091D01*
X155605839Y-100045003D01*
X155635662Y-100112843D01*
X155657061Y-100159890D01*
X155667184Y-100179422D01*
X155673174Y-100181155D01*
X155709566Y-100188969D01*
X155774427Y-100201915D01*
X155862565Y-100218979D01*
X155968787Y-100239151D01*
X156087902Y-100261418D01*
X156150683Y-100273223D01*
X156265912Y-100295748D01*
X156366662Y-100316550D01*
X156447426Y-100334435D01*
X156502698Y-100348208D01*
X156526971Y-100356674D01*
X156531331Y-100365066D01*
X156538563Y-100406072D01*
X156544246Y-100474368D01*
X156548382Y-100563529D01*
X156550977Y-100667128D01*
X156552036Y-100778740D01*
X156551561Y-100891938D01*
X156549559Y-101000296D01*
X156546033Y-101097389D01*
X156540987Y-101176790D01*
X156534427Y-101232072D01*
X156526356Y-101256810D01*
X156521458Y-101259600D01*
X156484930Y-101271569D01*
X156421565Y-101287405D01*
X156338686Y-101305374D01*
X156243618Y-101323741D01*
X156211542Y-101329591D01*
X156063393Y-101356798D01*
X155946961Y-101378663D01*
X155858209Y-101396093D01*
X155793103Y-101409996D01*
X155747606Y-101421277D01*
X155717682Y-101430843D01*
X155699294Y-101439601D01*
X155688407Y-101448457D01*
X155687142Y-101449943D01*
X155669338Y-101480931D01*
X155642994Y-101537634D01*
X155610661Y-101613399D01*
X155574893Y-101701574D01*
X155538244Y-101795507D01*
X155503266Y-101888547D01*
X155472513Y-101974041D01*
X155448538Y-102045336D01*
X155433895Y-102095782D01*
X155431136Y-102118726D01*
X155432981Y-102121703D01*
X155452075Y-102150493D01*
X155487984Y-102203595D01*
X155537378Y-102276117D01*
X155596927Y-102363167D01*
X155663303Y-102459854D01*
X155681520Y-102486456D01*
X155745577Y-102581875D01*
X155800937Y-102667212D01*
X155844439Y-102737405D01*
X155872924Y-102787394D01*
X155883232Y-102812116D01*
X155881011Y-102818616D01*
X155857858Y-102850644D01*
X155812177Y-102902945D01*
X155747241Y-102971999D01*
X155666319Y-103054286D01*
X155572685Y-103146286D01*
X155519165Y-103197781D01*
X155434542Y-103277983D01*
X155360475Y-103346678D01*
X155300941Y-103400252D01*
X155259917Y-103435085D01*
X155241381Y-103447563D01*
X155228646Y-103442938D01*
X155189436Y-103421057D01*
X155132495Y-103385273D01*
X155065250Y-103340117D01*
X155017438Y-103307165D01*
X154921985Y-103241727D01*
X154820125Y-103172228D01*
X154727088Y-103109075D01*
X154544832Y-102985800D01*
X154391841Y-103068520D01*
X154355817Y-103087613D01*
X154290303Y-103120272D01*
X154239640Y-103142819D01*
X154212564Y-103151226D01*
X154203703Y-103140430D01*
X154181699Y-103099323D01*
X154149199Y-103031549D01*
X154108010Y-102941409D01*
X154059942Y-102833205D01*
X154006802Y-102711237D01*
X153950399Y-102579808D01*
X153892542Y-102443218D01*
X153835038Y-102305767D01*
X153779697Y-102171758D01*
X153728326Y-102045491D01*
X153682735Y-101931268D01*
X153644732Y-101833390D01*
X153616124Y-101756157D01*
X153598721Y-101703871D01*
X153594331Y-101680833D01*
X153594628Y-101680160D01*
X153615077Y-101658863D01*
X153657850Y-101625508D01*
X153714117Y-101587011D01*
X153731877Y-101575256D01*
X153867014Y-101463735D01*
X153978856Y-101330906D01*
X154064755Y-101182298D01*
X154122062Y-101023440D01*
X154148131Y-100859860D01*
X154140313Y-100697088D01*
X154108644Y-100552315D01*
X154051782Y-100406124D01*
X153968888Y-100275703D01*
X153855131Y-100151813D01*
X153810433Y-100112235D01*
X153665935Y-100014723D01*
X153509838Y-99949050D01*
X153346667Y-99914630D01*
X153180943Y-99910874D01*
X153017192Y-99937194D01*
X152859936Y-99993003D01*
X152713698Y-100077714D01*
X152583004Y-100190737D01*
X152472374Y-100331487D01*
X152451105Y-100366342D01*
X152378810Y-100525655D01*
X152340415Y-100691552D01*
X152334914Y-100859737D01*
X152361301Y-101025913D01*
X152418570Y-101185784D01*
X152505717Y-101335053D01*
X152621736Y-101469423D01*
X152765622Y-101584599D01*
X152770294Y-101587702D01*
X152825964Y-101626933D01*
X152867689Y-101660286D01*
X152886746Y-101680833D01*
X152884342Y-101696941D01*
X152869391Y-101743844D01*
X152842881Y-101816539D01*
X152806620Y-101910725D01*
X152762416Y-102022098D01*
X152712076Y-102146358D01*
X152657407Y-102279202D01*
X152600218Y-102416327D01*
X152542316Y-102553432D01*
X152485510Y-102686215D01*
X152431606Y-102810374D01*
X152382412Y-102921606D01*
X152339737Y-103015609D01*
X152305387Y-103088082D01*
X152281171Y-103134722D01*
X152268897Y-103151226D01*
X152258689Y-103148991D01*
X152218586Y-103132926D01*
X152159318Y-103104759D01*
X152089619Y-103068520D01*
X151936629Y-102985800D01*
X151754373Y-103109075D01*
X151700527Y-103145579D01*
X151600374Y-103213784D01*
X151500525Y-103282098D01*
X151416211Y-103340117D01*
X151369679Y-103371736D01*
X151309200Y-103411020D01*
X151264357Y-103437912D01*
X151242455Y-103447883D01*
X151233045Y-103443650D01*
X151199031Y-103417721D01*
X151146595Y-103372070D01*
X151080301Y-103311186D01*
X151004713Y-103239561D01*
X150924396Y-103161683D01*
X150843913Y-103082045D01*
X150767829Y-103005135D01*
X150700707Y-102935445D01*
X150647112Y-102877464D01*
X150611608Y-102835684D01*
X150598759Y-102814593D01*
X150599500Y-102810581D01*
X150614793Y-102777920D01*
X150647462Y-102721412D01*
X150694350Y-102646163D01*
X150752301Y-102557275D01*
X150818157Y-102459854D01*
X150836627Y-102432982D01*
X150901482Y-102338423D01*
X150958609Y-102254827D01*
X151004678Y-102187084D01*
X151036359Y-102140086D01*
X151050324Y-102118726D01*
X151050668Y-102117811D01*
X151046546Y-102091678D01*
X151030807Y-102038740D01*
X151006004Y-101965647D01*
X150974689Y-101879052D01*
X150939417Y-101785608D01*
X150902740Y-101691965D01*
X150867212Y-101604777D01*
X150835386Y-101530695D01*
X150809816Y-101476371D01*
X150793053Y-101448457D01*
X150791374Y-101446724D01*
X150779372Y-101437956D01*
X150759103Y-101429115D01*
X150726529Y-101419292D01*
X150677616Y-101407583D01*
X150608327Y-101393080D01*
X150514625Y-101374876D01*
X150392476Y-101352066D01*
X150237842Y-101323741D01*
X150205770Y-101317780D01*
X150113893Y-101299352D01*
X150036607Y-101281892D01*
X149981236Y-101267133D01*
X149955105Y-101256810D01*
X149950733Y-101248197D01*
X149943445Y-101206826D01*
X149937669Y-101138241D01*
X149933410Y-101048868D01*
X149930673Y-100945135D01*
X149929462Y-100833465D01*
X149929782Y-100720287D01*
X149931636Y-100612026D01*
X149935030Y-100515108D01*
X149939967Y-100435959D01*
X149946452Y-100381006D01*
X149954489Y-100356674D01*
X149962696Y-100353079D01*
X150003519Y-100341748D01*
X150072524Y-100325722D01*
X150164203Y-100306195D01*
X150273050Y-100284362D01*
X150393558Y-100261418D01*
X150459357Y-100249159D01*
X150572135Y-100227901D01*
X150669207Y-100209287D01*
X150745382Y-100194328D01*
X150795469Y-100184036D01*
X150814276Y-100179422D01*
X150814983Y-100178471D01*
X150826961Y-100154310D01*
X150849794Y-100103694D01*
X150880630Y-100033338D01*
X150916613Y-99949958D01*
X150954891Y-99860270D01*
X150992609Y-99770989D01*
X151026913Y-99688832D01*
X151054949Y-99620513D01*
X151073864Y-99572748D01*
X151080803Y-99552254D01*
X151077742Y-99545043D01*
X151057372Y-99510728D01*
X151020422Y-99452970D01*
X150969860Y-99376299D01*
X150908657Y-99285248D01*
X150839781Y-99184350D01*
X150801994Y-99129093D01*
X150736782Y-99032215D01*
X150680871Y-98947193D01*
X150637241Y-98878662D01*
X150608877Y-98831260D01*
X150598759Y-98809623D01*
X150605790Y-98797887D01*
X150635197Y-98762818D01*
X150683441Y-98709745D01*
X150746093Y-98643164D01*
X150818725Y-98567574D01*
X150896908Y-98487472D01*
X150976214Y-98407354D01*
X151052213Y-98331718D01*
X151120478Y-98265062D01*
X151176580Y-98211882D01*
X151216090Y-98176676D01*
X151234579Y-98163942D01*
X151244843Y-98168893D01*
X151282530Y-98191857D01*
X151343348Y-98230938D01*
X151422913Y-98283272D01*
X151516843Y-98345996D01*
X151620754Y-98416246D01*
X151991794Y-98668551D01*
X152301080Y-98541053D01*
X152610365Y-98413555D01*
X152694186Y-97968931D01*
X152778006Y-97524307D01*
X153703454Y-97524307D01*
X153787275Y-97968931D01*
G37*
X153787275Y-97968931D02*
X153871095Y-98413555D01*
X154489667Y-98668551D01*
X154860707Y-98416246D01*
X154934144Y-98366506D01*
X155031499Y-98301218D01*
X155115787Y-98245454D01*
X155182631Y-98202078D01*
X155227654Y-98173953D01*
X155246478Y-98163942D01*
X155258039Y-98171061D01*
X155292596Y-98200894D01*
X155344894Y-98249852D01*
X155410500Y-98313440D01*
X155484983Y-98387163D01*
X155563913Y-98466525D01*
X155642856Y-98547031D01*
X155717384Y-98624185D01*
X155783063Y-98693493D01*
X155835463Y-98750457D01*
X155870153Y-98790584D01*
X155882701Y-98809377D01*
X155879782Y-98817451D01*
X155859571Y-98853469D01*
X155822663Y-98912744D01*
X155772050Y-98990630D01*
X155710725Y-99082481D01*
X155641679Y-99183650D01*
X155603787Y-99238826D01*
X155538606Y-99334884D01*
X155482723Y-99418717D01*
X155439117Y-99485777D01*
X155410769Y-99531519D01*
X155400657Y-99551396D01*
X155400823Y-99552497D01*
X155409743Y-99577694D01*
X155430206Y-99629147D01*
X155459360Y-99700135D01*
X155494353Y-99783935D01*
X155532332Y-99873828D01*
X155570445Y-99963091D01*
X155605839Y-100045003D01*
X155635662Y-100112843D01*
X155657061Y-100159890D01*
X155667184Y-100179422D01*
X155673174Y-100181155D01*
X155709566Y-100188969D01*
X155774427Y-100201915D01*
X155862565Y-100218979D01*
X155968787Y-100239151D01*
X156087902Y-100261418D01*
X156150683Y-100273223D01*
X156265912Y-100295748D01*
X156366662Y-100316550D01*
X156447426Y-100334435D01*
X156502698Y-100348208D01*
X156526971Y-100356674D01*
X156531331Y-100365066D01*
X156538563Y-100406072D01*
X156544246Y-100474368D01*
X156548382Y-100563529D01*
X156550977Y-100667128D01*
X156552036Y-100778740D01*
X156551561Y-100891938D01*
X156549559Y-101000296D01*
X156546033Y-101097389D01*
X156540987Y-101176790D01*
X156534427Y-101232072D01*
X156526356Y-101256810D01*
X156521458Y-101259600D01*
X156484930Y-101271569D01*
X156421565Y-101287405D01*
X156338686Y-101305374D01*
X156243618Y-101323741D01*
X156211542Y-101329591D01*
X156063393Y-101356798D01*
X155946961Y-101378663D01*
X155858209Y-101396093D01*
X155793103Y-101409996D01*
X155747606Y-101421277D01*
X155717682Y-101430843D01*
X155699294Y-101439601D01*
X155688407Y-101448457D01*
X155687142Y-101449943D01*
X155669338Y-101480931D01*
X155642994Y-101537634D01*
X155610661Y-101613399D01*
X155574893Y-101701574D01*
X155538244Y-101795507D01*
X155503266Y-101888547D01*
X155472513Y-101974041D01*
X155448538Y-102045336D01*
X155433895Y-102095782D01*
X155431136Y-102118726D01*
X155432981Y-102121703D01*
X155452075Y-102150493D01*
X155487984Y-102203595D01*
X155537378Y-102276117D01*
X155596927Y-102363167D01*
X155663303Y-102459854D01*
X155681520Y-102486456D01*
X155745577Y-102581875D01*
X155800937Y-102667212D01*
X155844439Y-102737405D01*
X155872924Y-102787394D01*
X155883232Y-102812116D01*
X155881011Y-102818616D01*
X155857858Y-102850644D01*
X155812177Y-102902945D01*
X155747241Y-102971999D01*
X155666319Y-103054286D01*
X155572685Y-103146286D01*
X155519165Y-103197781D01*
X155434542Y-103277983D01*
X155360475Y-103346678D01*
X155300941Y-103400252D01*
X155259917Y-103435085D01*
X155241381Y-103447563D01*
X155228646Y-103442938D01*
X155189436Y-103421057D01*
X155132495Y-103385273D01*
X155065250Y-103340117D01*
X155017438Y-103307165D01*
X154921985Y-103241727D01*
X154820125Y-103172228D01*
X154727088Y-103109075D01*
X154544832Y-102985800D01*
X154391841Y-103068520D01*
X154355817Y-103087613D01*
X154290303Y-103120272D01*
X154239640Y-103142819D01*
X154212564Y-103151226D01*
X154203703Y-103140430D01*
X154181699Y-103099323D01*
X154149199Y-103031549D01*
X154108010Y-102941409D01*
X154059942Y-102833205D01*
X154006802Y-102711237D01*
X153950399Y-102579808D01*
X153892542Y-102443218D01*
X153835038Y-102305767D01*
X153779697Y-102171758D01*
X153728326Y-102045491D01*
X153682735Y-101931268D01*
X153644732Y-101833390D01*
X153616124Y-101756157D01*
X153598721Y-101703871D01*
X153594331Y-101680833D01*
X153594628Y-101680160D01*
X153615077Y-101658863D01*
X153657850Y-101625508D01*
X153714117Y-101587011D01*
X153731877Y-101575256D01*
X153867014Y-101463735D01*
X153978856Y-101330906D01*
X154064755Y-101182298D01*
X154122062Y-101023440D01*
X154148131Y-100859860D01*
X154140313Y-100697088D01*
X154108644Y-100552315D01*
X154051782Y-100406124D01*
X153968888Y-100275703D01*
X153855131Y-100151813D01*
X153810433Y-100112235D01*
X153665935Y-100014723D01*
X153509838Y-99949050D01*
X153346667Y-99914630D01*
X153180943Y-99910874D01*
X153017192Y-99937194D01*
X152859936Y-99993003D01*
X152713698Y-100077714D01*
X152583004Y-100190737D01*
X152472374Y-100331487D01*
X152451105Y-100366342D01*
X152378810Y-100525655D01*
X152340415Y-100691552D01*
X152334914Y-100859737D01*
X152361301Y-101025913D01*
X152418570Y-101185784D01*
X152505717Y-101335053D01*
X152621736Y-101469423D01*
X152765622Y-101584599D01*
X152770294Y-101587702D01*
X152825964Y-101626933D01*
X152867689Y-101660286D01*
X152886746Y-101680833D01*
X152884342Y-101696941D01*
X152869391Y-101743844D01*
X152842881Y-101816539D01*
X152806620Y-101910725D01*
X152762416Y-102022098D01*
X152712076Y-102146358D01*
X152657407Y-102279202D01*
X152600218Y-102416327D01*
X152542316Y-102553432D01*
X152485510Y-102686215D01*
X152431606Y-102810374D01*
X152382412Y-102921606D01*
X152339737Y-103015609D01*
X152305387Y-103088082D01*
X152281171Y-103134722D01*
X152268897Y-103151226D01*
X152258689Y-103148991D01*
X152218586Y-103132926D01*
X152159318Y-103104759D01*
X152089619Y-103068520D01*
X151936629Y-102985800D01*
X151754373Y-103109075D01*
X151700527Y-103145579D01*
X151600374Y-103213784D01*
X151500525Y-103282098D01*
X151416211Y-103340117D01*
X151369679Y-103371736D01*
X151309200Y-103411020D01*
X151264357Y-103437912D01*
X151242455Y-103447883D01*
X151233045Y-103443650D01*
X151199031Y-103417721D01*
X151146595Y-103372070D01*
X151080301Y-103311186D01*
X151004713Y-103239561D01*
X150924396Y-103161683D01*
X150843913Y-103082045D01*
X150767829Y-103005135D01*
X150700707Y-102935445D01*
X150647112Y-102877464D01*
X150611608Y-102835684D01*
X150598759Y-102814593D01*
X150599500Y-102810581D01*
X150614793Y-102777920D01*
X150647462Y-102721412D01*
X150694350Y-102646163D01*
X150752301Y-102557275D01*
X150818157Y-102459854D01*
X150836627Y-102432982D01*
X150901482Y-102338423D01*
X150958609Y-102254827D01*
X151004678Y-102187084D01*
X151036359Y-102140086D01*
X151050324Y-102118726D01*
X151050668Y-102117811D01*
X151046546Y-102091678D01*
X151030807Y-102038740D01*
X151006004Y-101965647D01*
X150974689Y-101879052D01*
X150939417Y-101785608D01*
X150902740Y-101691965D01*
X150867212Y-101604777D01*
X150835386Y-101530695D01*
X150809816Y-101476371D01*
X150793053Y-101448457D01*
X150791374Y-101446724D01*
X150779372Y-101437956D01*
X150759103Y-101429115D01*
X150726529Y-101419292D01*
X150677616Y-101407583D01*
X150608327Y-101393080D01*
X150514625Y-101374876D01*
X150392476Y-101352066D01*
X150237842Y-101323741D01*
X150205770Y-101317780D01*
X150113893Y-101299352D01*
X150036607Y-101281892D01*
X149981236Y-101267133D01*
X149955105Y-101256810D01*
X149950733Y-101248197D01*
X149943445Y-101206826D01*
X149937669Y-101138241D01*
X149933410Y-101048868D01*
X149930673Y-100945135D01*
X149929462Y-100833465D01*
X149929782Y-100720287D01*
X149931636Y-100612026D01*
X149935030Y-100515108D01*
X149939967Y-100435959D01*
X149946452Y-100381006D01*
X149954489Y-100356674D01*
X149962696Y-100353079D01*
X150003519Y-100341748D01*
X150072524Y-100325722D01*
X150164203Y-100306195D01*
X150273050Y-100284362D01*
X150393558Y-100261418D01*
X150459357Y-100249159D01*
X150572135Y-100227901D01*
X150669207Y-100209287D01*
X150745382Y-100194328D01*
X150795469Y-100184036D01*
X150814276Y-100179422D01*
X150814983Y-100178471D01*
X150826961Y-100154310D01*
X150849794Y-100103694D01*
X150880630Y-100033338D01*
X150916613Y-99949958D01*
X150954891Y-99860270D01*
X150992609Y-99770989D01*
X151026913Y-99688832D01*
X151054949Y-99620513D01*
X151073864Y-99572748D01*
X151080803Y-99552254D01*
X151077742Y-99545043D01*
X151057372Y-99510728D01*
X151020422Y-99452970D01*
X150969860Y-99376299D01*
X150908657Y-99285248D01*
X150839781Y-99184350D01*
X150801994Y-99129093D01*
X150736782Y-99032215D01*
X150680871Y-98947193D01*
X150637241Y-98878662D01*
X150608877Y-98831260D01*
X150598759Y-98809623D01*
X150605790Y-98797887D01*
X150635197Y-98762818D01*
X150683441Y-98709745D01*
X150746093Y-98643164D01*
X150818725Y-98567574D01*
X150896908Y-98487472D01*
X150976214Y-98407354D01*
X151052213Y-98331718D01*
X151120478Y-98265062D01*
X151176580Y-98211882D01*
X151216090Y-98176676D01*
X151234579Y-98163942D01*
X151244843Y-98168893D01*
X151282530Y-98191857D01*
X151343348Y-98230938D01*
X151422913Y-98283272D01*
X151516843Y-98345996D01*
X151620754Y-98416246D01*
X151991794Y-98668551D01*
X152301080Y-98541053D01*
X152610365Y-98413555D01*
X152694186Y-97968931D01*
X152778006Y-97524307D01*
X153703454Y-97524307D01*
X153787275Y-97968931D01*
%TD*%
M02*
