%TF.GenerationSoftware,KiCad,Pcbnew,6.0.11+dfsg-1~bpo11+1*%
%TF.CreationDate,2023-04-06T13:57:54+02:00*%
%TF.ProjectId,dout-8_11,646f7574-2d38-45f3-9131-2e6b69636164,1.1*%
%TF.SameCoordinates,Original*%
%TF.FileFunction,Soldermask,Top*%
%TF.FilePolarity,Negative*%
%FSLAX46Y46*%
G04 Gerber Fmt 4.6, Leading zero omitted, Abs format (unit mm)*
G04 Created by KiCad (PCBNEW 6.0.11+dfsg-1~bpo11+1) date 2023-04-06 13:57:54*
%MOMM*%
%LPD*%
G01*
G04 APERTURE LIST*
G04 Aperture macros list*
%AMRoundRect*
0 Rectangle with rounded corners*
0 $1 Rounding radius*
0 $2 $3 $4 $5 $6 $7 $8 $9 X,Y pos of 4 corners*
0 Add a 4 corners polygon primitive as box body*
4,1,4,$2,$3,$4,$5,$6,$7,$8,$9,$2,$3,0*
0 Add four circle primitives for the rounded corners*
1,1,$1+$1,$2,$3*
1,1,$1+$1,$4,$5*
1,1,$1+$1,$6,$7*
1,1,$1+$1,$8,$9*
0 Add four rect primitives between the rounded corners*
20,1,$1+$1,$2,$3,$4,$5,0*
20,1,$1+$1,$4,$5,$6,$7,0*
20,1,$1+$1,$6,$7,$8,$9,0*
20,1,$1+$1,$8,$9,$2,$3,0*%
G04 Aperture macros list end*
%ADD10RoundRect,0.137500X0.137500X-0.587500X0.137500X0.587500X-0.137500X0.587500X-0.137500X-0.587500X0*%
%ADD11R,1.700000X1.300000*%
%ADD12RoundRect,0.150000X0.150000X-0.587500X0.150000X0.587500X-0.150000X0.587500X-0.150000X-0.587500X0*%
%ADD13RoundRect,0.250001X1.074999X-0.462499X1.074999X0.462499X-1.074999X0.462499X-1.074999X-0.462499X0*%
%ADD14RoundRect,0.250001X-0.624999X0.462499X-0.624999X-0.462499X0.624999X-0.462499X0.624999X0.462499X0*%
%ADD15RoundRect,0.250000X0.450000X-0.350000X0.450000X0.350000X-0.450000X0.350000X-0.450000X-0.350000X0*%
%ADD16R,1.700000X1.700000*%
%ADD17O,1.700000X1.700000*%
%ADD18RoundRect,0.250001X0.462499X0.624999X-0.462499X0.624999X-0.462499X-0.624999X0.462499X-0.624999X0*%
%ADD19RoundRect,0.249999X0.790001X1.550001X-0.790001X1.550001X-0.790001X-1.550001X0.790001X-1.550001X0*%
%ADD20O,2.080000X3.600000*%
%ADD21RoundRect,0.250000X-0.350000X-0.450000X0.350000X-0.450000X0.350000X0.450000X-0.350000X0.450000X0*%
G04 APERTURE END LIST*
D10*
%TO.C,U6*%
X143830000Y-94950000D03*
X146370000Y-94950000D03*
X146370000Y-89450000D03*
X143830000Y-89450000D03*
%TD*%
D11*
%TO.C,D23*%
X132600000Y-80000000D03*
X132600000Y-76500000D03*
%TD*%
D12*
%TO.C,Q4*%
X156750000Y-109900000D03*
X158650000Y-109900000D03*
X157700000Y-108025000D03*
%TD*%
%TO.C,Q7*%
X137350000Y-109900000D03*
X139250000Y-109900000D03*
X138300000Y-108025000D03*
%TD*%
D13*
%TO.C,F8*%
X134400000Y-87075000D03*
X134400000Y-84100000D03*
%TD*%
D14*
%TO.C,D21*%
X132400000Y-97425000D03*
X132400000Y-100400000D03*
%TD*%
D13*
%TO.C,F7*%
X139900000Y-87075000D03*
X139900000Y-84100000D03*
%TD*%
D12*
%TO.C,Q1*%
X176050000Y-109937500D03*
X177950000Y-109937500D03*
X177000000Y-108062500D03*
%TD*%
D15*
%TO.C,R15*%
X141900000Y-109900000D03*
X141900000Y-107900000D03*
%TD*%
D11*
%TO.C,D18*%
X153100000Y-76500000D03*
X153100000Y-80000000D03*
%TD*%
D14*
%TO.C,D4*%
X164700000Y-97500000D03*
X164700000Y-100475000D03*
%TD*%
D15*
%TO.C,R20*%
X135400000Y-109900000D03*
X135400000Y-107900000D03*
%TD*%
%TO.C,R6*%
X174100000Y-104700000D03*
X174100000Y-102700000D03*
%TD*%
%TO.C,R12*%
X161200000Y-104700000D03*
X161200000Y-102700000D03*
%TD*%
D11*
%TO.C,D16*%
X165100000Y-76500000D03*
X165100000Y-80000000D03*
%TD*%
%TO.C,D17*%
X159100000Y-76500000D03*
X159100000Y-80000000D03*
%TD*%
D12*
%TO.C,Q2*%
X169550000Y-109875000D03*
X171450000Y-109875000D03*
X170500000Y-108000000D03*
%TD*%
D11*
%TO.C,D14*%
X177000000Y-76500000D03*
X177000000Y-80000000D03*
%TD*%
%TO.C,D19*%
X147100000Y-76500000D03*
X147100000Y-80000000D03*
%TD*%
%TO.C,D15*%
X171100000Y-76500000D03*
X171100000Y-80000000D03*
%TD*%
D16*
%TO.C,J3*%
X128000000Y-76775000D03*
D17*
X128000000Y-79315000D03*
X128000000Y-81855000D03*
%TD*%
D11*
%TO.C,D11*%
X156100000Y-80000000D03*
X156100000Y-76500000D03*
%TD*%
D13*
%TO.C,F2*%
X166400000Y-87000000D03*
X166400000Y-84025000D03*
%TD*%
D15*
%TO.C,R24*%
X135500000Y-104650000D03*
X135500000Y-102650000D03*
%TD*%
D13*
%TO.C,F3*%
X161100000Y-87000000D03*
X161100000Y-84025000D03*
%TD*%
D12*
%TO.C,Q3*%
X163150000Y-109875000D03*
X165050000Y-109875000D03*
X164100000Y-108000000D03*
%TD*%
D15*
%TO.C,R3*%
X167600000Y-109900000D03*
X167600000Y-107900000D03*
%TD*%
D14*
%TO.C,D2*%
X177600000Y-97425000D03*
X177600000Y-100400000D03*
%TD*%
D13*
%TO.C,F1*%
X171600000Y-86975000D03*
X171600000Y-84000000D03*
%TD*%
D15*
%TO.C,R18*%
X148400000Y-104700000D03*
X148400000Y-102700000D03*
%TD*%
D10*
%TO.C,U5*%
X149130000Y-94950000D03*
X151670000Y-94950000D03*
X151670000Y-89450000D03*
X149130000Y-89450000D03*
%TD*%
D15*
%TO.C,R16*%
X150700000Y-104700000D03*
X150700000Y-102700000D03*
%TD*%
D14*
%TO.C,D7*%
X145400000Y-97412500D03*
X145400000Y-100387500D03*
%TD*%
D15*
%TO.C,R17*%
X144200000Y-104700000D03*
X144200000Y-102700000D03*
%TD*%
D11*
%TO.C,D25*%
X135500000Y-76500000D03*
X135500000Y-80000000D03*
%TD*%
%TO.C,D9*%
X168100000Y-80000000D03*
X168100000Y-76500000D03*
%TD*%
D10*
%TO.C,U7*%
X133230000Y-94950000D03*
X135770000Y-94950000D03*
X135770000Y-89450000D03*
X133230000Y-89450000D03*
%TD*%
D11*
%TO.C,D12*%
X150100000Y-80000000D03*
X150100000Y-76500000D03*
%TD*%
D14*
%TO.C,D3*%
X171100000Y-97425000D03*
X171100000Y-100400000D03*
%TD*%
D16*
%TO.C,J1*%
X161890000Y-115120000D03*
D17*
X161890000Y-117660000D03*
X159350000Y-115120000D03*
X159350000Y-117660000D03*
X156810000Y-115120000D03*
X156810000Y-117660000D03*
X154270000Y-115120000D03*
X154270000Y-117660000D03*
X151730000Y-115120000D03*
X151730000Y-117660000D03*
X149190000Y-115120000D03*
X149190000Y-117660000D03*
X146650000Y-115120000D03*
X146650000Y-117660000D03*
X144110000Y-115120000D03*
X144110000Y-117660000D03*
%TD*%
D10*
%TO.C,U1*%
X170330000Y-94950000D03*
X172870000Y-94950000D03*
X172870000Y-89450000D03*
X170330000Y-89450000D03*
%TD*%
D11*
%TO.C,D10*%
X162100000Y-80000000D03*
X162100000Y-76500000D03*
%TD*%
D13*
%TO.C,F4*%
X155800000Y-87075000D03*
X155800000Y-84100000D03*
%TD*%
D12*
%TO.C,Q8*%
X130900000Y-109900000D03*
X132800000Y-109900000D03*
X131850000Y-108025000D03*
%TD*%
D15*
%TO.C,R25*%
X128900000Y-104650000D03*
X128900000Y-102650000D03*
%TD*%
D11*
%TO.C,D13*%
X144100000Y-80000000D03*
X144100000Y-76500000D03*
%TD*%
D15*
%TO.C,R8*%
X161200000Y-109900000D03*
X161200000Y-107900000D03*
%TD*%
%TO.C,R11*%
X157100000Y-104700000D03*
X157100000Y-102700000D03*
%TD*%
%TO.C,R22*%
X137800000Y-104650000D03*
X137800000Y-102650000D03*
%TD*%
D11*
%TO.C,D22*%
X138400000Y-80000000D03*
X138400000Y-76500000D03*
%TD*%
D10*
%TO.C,U2*%
X165030000Y-94950000D03*
X167570000Y-94950000D03*
X167570000Y-89450000D03*
X165030000Y-89450000D03*
%TD*%
D15*
%TO.C,R5*%
X169900000Y-104700000D03*
X169900000Y-102700000D03*
%TD*%
D13*
%TO.C,F5*%
X150500000Y-87100000D03*
X150500000Y-84125000D03*
%TD*%
D18*
%TO.C,D1*%
X140375000Y-115000000D03*
X137400000Y-115000000D03*
%TD*%
D10*
%TO.C,U8*%
X138530000Y-94950000D03*
X141070000Y-94950000D03*
X141070000Y-89450000D03*
X138530000Y-89450000D03*
%TD*%
D15*
%TO.C,R4*%
X176300000Y-104700000D03*
X176300000Y-102700000D03*
%TD*%
%TO.C,R9*%
X154800000Y-109800000D03*
X154800000Y-107800000D03*
%TD*%
%TO.C,R13*%
X154800000Y-104700000D03*
X154800000Y-102700000D03*
%TD*%
%TO.C,R19*%
X141900000Y-104700000D03*
X141900000Y-102700000D03*
%TD*%
%TO.C,R14*%
X148400000Y-109900000D03*
X148400000Y-107900000D03*
%TD*%
D12*
%TO.C,Q6*%
X143850000Y-109900000D03*
X145750000Y-109900000D03*
X144800000Y-108025000D03*
%TD*%
D19*
%TO.C,J2*%
X175860000Y-70777500D03*
D20*
X170780000Y-70777500D03*
X165700000Y-70777500D03*
X160620000Y-70777500D03*
X155540000Y-70777500D03*
X150460000Y-70777500D03*
X145380000Y-70777500D03*
X140300000Y-70777500D03*
X135220000Y-70777500D03*
X130140000Y-70777500D03*
%TD*%
D13*
%TO.C,F6*%
X145100000Y-87075000D03*
X145100000Y-84100000D03*
%TD*%
D11*
%TO.C,D8*%
X174000000Y-80000000D03*
X174000000Y-76500000D03*
%TD*%
D10*
%TO.C,U3*%
X159730000Y-94950000D03*
X162270000Y-94950000D03*
X162270000Y-89450000D03*
X159730000Y-89450000D03*
%TD*%
D15*
%TO.C,R23*%
X131300000Y-104650000D03*
X131300000Y-102650000D03*
%TD*%
D21*
%TO.C,R1*%
X133000000Y-115000000D03*
X135000000Y-115000000D03*
%TD*%
D15*
%TO.C,R21*%
X129000000Y-110000000D03*
X129000000Y-108000000D03*
%TD*%
D10*
%TO.C,U4*%
X154430000Y-94950000D03*
X156970000Y-94950000D03*
X156970000Y-89450000D03*
X154430000Y-89450000D03*
%TD*%
D12*
%TO.C,Q5*%
X150350000Y-109937500D03*
X152250000Y-109937500D03*
X151300000Y-108062500D03*
%TD*%
D14*
%TO.C,D6*%
X151900000Y-97400000D03*
X151900000Y-100375000D03*
%TD*%
%TO.C,D20*%
X138900000Y-97412500D03*
X138900000Y-100387500D03*
%TD*%
D15*
%TO.C,R10*%
X163500000Y-104700000D03*
X163500000Y-102700000D03*
%TD*%
%TO.C,R2*%
X174100000Y-109900000D03*
X174100000Y-107900000D03*
%TD*%
D14*
%TO.C,D5*%
X158300000Y-97400000D03*
X158300000Y-100375000D03*
%TD*%
D15*
%TO.C,R7*%
X167600000Y-104700000D03*
X167600000Y-102700000D03*
%TD*%
D11*
%TO.C,D24*%
X141300000Y-76500000D03*
X141300000Y-80000000D03*
%TD*%
M02*
