%TF.GenerationSoftware,KiCad,Pcbnew,6.0.11+dfsg-1~bpo11+1*%
%TF.CreationDate,2023-04-06T13:57:54+02:00*%
%TF.ProjectId,dout-8_11,646f7574-2d38-45f3-9131-2e6b69636164,1.1*%
%TF.SameCoordinates,Original*%
%TF.FileFunction,Legend,Top*%
%TF.FilePolarity,Positive*%
%FSLAX46Y46*%
G04 Gerber Fmt 4.6, Leading zero omitted, Abs format (unit mm)*
G04 Created by KiCad (PCBNEW 6.0.11+dfsg-1~bpo11+1) date 2023-04-06 13:57:54*
%MOMM*%
%LPD*%
G01*
G04 APERTURE LIST*
%ADD10C,0.150000*%
%ADD11C,0.200000*%
%ADD12C,0.100000*%
%ADD13C,0.120000*%
G04 APERTURE END LIST*
D10*
X126485714Y-110054761D02*
X127152380Y-109864285D01*
X126676190Y-109673809D01*
X127152380Y-109483333D01*
X126485714Y-109292857D01*
X126485714Y-109007142D02*
X127152380Y-108816666D01*
X126676190Y-108626190D01*
X127152380Y-108435714D01*
X126485714Y-108245238D01*
X126485714Y-107959523D02*
X127152380Y-107769047D01*
X126676190Y-107578571D01*
X127152380Y-107388095D01*
X126485714Y-107197619D01*
X127057142Y-106816666D02*
X127104761Y-106769047D01*
X127152380Y-106816666D01*
X127104761Y-106864285D01*
X127057142Y-106816666D01*
X127152380Y-106816666D01*
X127152380Y-106340476D02*
X126485714Y-106340476D01*
X126152380Y-106340476D02*
X126200000Y-106388095D01*
X126247619Y-106340476D01*
X126200000Y-106292857D01*
X126152380Y-106340476D01*
X126247619Y-106340476D01*
X127152380Y-105721428D02*
X127104761Y-105816666D01*
X127057142Y-105864285D01*
X126961904Y-105911904D01*
X126676190Y-105911904D01*
X126580952Y-105864285D01*
X126533333Y-105816666D01*
X126485714Y-105721428D01*
X126485714Y-105578571D01*
X126533333Y-105483333D01*
X126580952Y-105435714D01*
X126676190Y-105388095D01*
X126961904Y-105388095D01*
X127057142Y-105435714D01*
X127104761Y-105483333D01*
X127152380Y-105578571D01*
X127152380Y-105721428D01*
X126485714Y-105102380D02*
X126485714Y-104721428D01*
X126152380Y-104959523D02*
X127009523Y-104959523D01*
X127104761Y-104911904D01*
X127152380Y-104816666D01*
X127152380Y-104721428D01*
X126485714Y-104483333D02*
X127152380Y-104245238D01*
X126485714Y-104007142D01*
X127104761Y-103245238D02*
X127152380Y-103340476D01*
X127152380Y-103530952D01*
X127104761Y-103626190D01*
X127009523Y-103673809D01*
X126628571Y-103673809D01*
X126533333Y-103626190D01*
X126485714Y-103530952D01*
X126485714Y-103340476D01*
X126533333Y-103245238D01*
X126628571Y-103197619D01*
X126723809Y-103197619D01*
X126819047Y-103673809D01*
X127152380Y-102769047D02*
X126485714Y-102769047D01*
X126676190Y-102769047D02*
X126580952Y-102721428D01*
X126533333Y-102673809D01*
X126485714Y-102578571D01*
X126485714Y-102483333D01*
X126485714Y-102292857D02*
X126485714Y-101911904D01*
X126152380Y-102150000D02*
X127009523Y-102150000D01*
X127104761Y-102102380D01*
X127152380Y-102007142D01*
X127152380Y-101911904D01*
X127104761Y-101197619D02*
X127152380Y-101292857D01*
X127152380Y-101483333D01*
X127104761Y-101578571D01*
X127009523Y-101626190D01*
X126628571Y-101626190D01*
X126533333Y-101578571D01*
X126485714Y-101483333D01*
X126485714Y-101292857D01*
X126533333Y-101197619D01*
X126628571Y-101150000D01*
X126723809Y-101150000D01*
X126819047Y-101626190D01*
X127152380Y-100721428D02*
X126152380Y-100721428D01*
X126533333Y-100721428D02*
X126485714Y-100626190D01*
X126485714Y-100435714D01*
X126533333Y-100340476D01*
X126580952Y-100292857D01*
X126676190Y-100245238D01*
X126961904Y-100245238D01*
X127057142Y-100292857D01*
X127104761Y-100340476D01*
X127152380Y-100435714D01*
X127152380Y-100626190D01*
X127104761Y-100721428D01*
X127152380Y-99816666D02*
X126485714Y-99816666D01*
X126676190Y-99816666D02*
X126580952Y-99769047D01*
X126533333Y-99721428D01*
X126485714Y-99626190D01*
X126485714Y-99530952D01*
X127152380Y-98769047D02*
X126628571Y-98769047D01*
X126533333Y-98816666D01*
X126485714Y-98911904D01*
X126485714Y-99102380D01*
X126533333Y-99197619D01*
X127104761Y-98769047D02*
X127152380Y-98864285D01*
X127152380Y-99102380D01*
X127104761Y-99197619D01*
X127009523Y-99245238D01*
X126914285Y-99245238D01*
X126819047Y-99197619D01*
X126771428Y-99102380D01*
X126771428Y-98864285D01*
X126723809Y-98769047D01*
X127104761Y-97911904D02*
X127152380Y-98007142D01*
X127152380Y-98197619D01*
X127104761Y-98292857D01*
X127009523Y-98340476D01*
X126628571Y-98340476D01*
X126533333Y-98292857D01*
X126485714Y-98197619D01*
X126485714Y-98007142D01*
X126533333Y-97911904D01*
X126628571Y-97864285D01*
X126723809Y-97864285D01*
X126819047Y-98340476D01*
X127057142Y-97435714D02*
X127104761Y-97388095D01*
X127152380Y-97435714D01*
X127104761Y-97483333D01*
X127057142Y-97435714D01*
X127152380Y-97435714D01*
X127104761Y-96530952D02*
X127152380Y-96626190D01*
X127152380Y-96816666D01*
X127104761Y-96911904D01*
X127057142Y-96959523D01*
X126961904Y-97007142D01*
X126676190Y-97007142D01*
X126580952Y-96959523D01*
X126533333Y-96911904D01*
X126485714Y-96816666D01*
X126485714Y-96626190D01*
X126533333Y-96530952D01*
X127152380Y-95959523D02*
X127104761Y-96054761D01*
X127057142Y-96102380D01*
X126961904Y-96150000D01*
X126676190Y-96150000D01*
X126580952Y-96102380D01*
X126533333Y-96054761D01*
X126485714Y-95959523D01*
X126485714Y-95816666D01*
X126533333Y-95721428D01*
X126580952Y-95673809D01*
X126676190Y-95626190D01*
X126961904Y-95626190D01*
X127057142Y-95673809D01*
X127104761Y-95721428D01*
X127152380Y-95816666D01*
X127152380Y-95959523D01*
X127152380Y-95197619D02*
X126485714Y-95197619D01*
X126580952Y-95197619D02*
X126533333Y-95150000D01*
X126485714Y-95054761D01*
X126485714Y-94911904D01*
X126533333Y-94816666D01*
X126628571Y-94769047D01*
X127152380Y-94769047D01*
X126628571Y-94769047D02*
X126533333Y-94721428D01*
X126485714Y-94626190D01*
X126485714Y-94483333D01*
X126533333Y-94388095D01*
X126628571Y-94340476D01*
X127152380Y-94340476D01*
D11*
X148392857Y-96478571D02*
X148678571Y-96478571D01*
X148821428Y-96550000D01*
X148964285Y-96692857D01*
X149035714Y-96978571D01*
X149035714Y-97478571D01*
X148964285Y-97764285D01*
X148821428Y-97907142D01*
X148678571Y-97978571D01*
X148392857Y-97978571D01*
X148250000Y-97907142D01*
X148107142Y-97764285D01*
X148035714Y-97478571D01*
X148035714Y-96978571D01*
X148107142Y-96692857D01*
X148250000Y-96550000D01*
X148392857Y-96478571D01*
X150321428Y-96978571D02*
X150321428Y-97978571D01*
X149964285Y-96407142D02*
X149607142Y-97478571D01*
X150535714Y-97478571D01*
X154792857Y-96478571D02*
X155078571Y-96478571D01*
X155221428Y-96550000D01*
X155364285Y-96692857D01*
X155435714Y-96978571D01*
X155435714Y-97478571D01*
X155364285Y-97764285D01*
X155221428Y-97907142D01*
X155078571Y-97978571D01*
X154792857Y-97978571D01*
X154650000Y-97907142D01*
X154507142Y-97764285D01*
X154435714Y-97478571D01*
X154435714Y-96978571D01*
X154507142Y-96692857D01*
X154650000Y-96550000D01*
X154792857Y-96478571D01*
X155935714Y-96478571D02*
X156864285Y-96478571D01*
X156364285Y-97050000D01*
X156578571Y-97050000D01*
X156721428Y-97121428D01*
X156792857Y-97192857D01*
X156864285Y-97335714D01*
X156864285Y-97692857D01*
X156792857Y-97835714D01*
X156721428Y-97907142D01*
X156578571Y-97978571D01*
X156150000Y-97978571D01*
X156007142Y-97907142D01*
X155935714Y-97835714D01*
D12*
X168128571Y-116839285D02*
X168307142Y-117339285D01*
X168485714Y-116839285D01*
X169164285Y-117339285D02*
X168735714Y-117339285D01*
X168950000Y-117339285D02*
X168950000Y-116589285D01*
X168878571Y-116696428D01*
X168807142Y-116767857D01*
X168735714Y-116803571D01*
X169485714Y-117267857D02*
X169521428Y-117303571D01*
X169485714Y-117339285D01*
X169450000Y-117303571D01*
X169485714Y-117267857D01*
X169485714Y-117339285D01*
X170235714Y-117339285D02*
X169807142Y-117339285D01*
X170021428Y-117339285D02*
X170021428Y-116589285D01*
X169950000Y-116696428D01*
X169878571Y-116767857D01*
X169807142Y-116803571D01*
D11*
X174042857Y-96578571D02*
X174328571Y-96578571D01*
X174471428Y-96650000D01*
X174614285Y-96792857D01*
X174685714Y-97078571D01*
X174685714Y-97578571D01*
X174614285Y-97864285D01*
X174471428Y-98007142D01*
X174328571Y-98078571D01*
X174042857Y-98078571D01*
X173900000Y-98007142D01*
X173757142Y-97864285D01*
X173685714Y-97578571D01*
X173685714Y-97078571D01*
X173757142Y-96792857D01*
X173900000Y-96650000D01*
X174042857Y-96578571D01*
X175614285Y-96578571D02*
X175757142Y-96578571D01*
X175900000Y-96650000D01*
X175971428Y-96721428D01*
X176042857Y-96864285D01*
X176114285Y-97150000D01*
X176114285Y-97507142D01*
X176042857Y-97792857D01*
X175971428Y-97935714D01*
X175900000Y-98007142D01*
X175757142Y-98078571D01*
X175614285Y-98078571D01*
X175471428Y-98007142D01*
X175400000Y-97935714D01*
X175328571Y-97792857D01*
X175257142Y-97507142D01*
X175257142Y-97150000D01*
X175328571Y-96864285D01*
X175400000Y-96721428D01*
X175471428Y-96650000D01*
X175614285Y-96578571D01*
X161142857Y-96578571D02*
X161428571Y-96578571D01*
X161571428Y-96650000D01*
X161714285Y-96792857D01*
X161785714Y-97078571D01*
X161785714Y-97578571D01*
X161714285Y-97864285D01*
X161571428Y-98007142D01*
X161428571Y-98078571D01*
X161142857Y-98078571D01*
X161000000Y-98007142D01*
X160857142Y-97864285D01*
X160785714Y-97578571D01*
X160785714Y-97078571D01*
X160857142Y-96792857D01*
X161000000Y-96650000D01*
X161142857Y-96578571D01*
X162357142Y-96721428D02*
X162428571Y-96650000D01*
X162571428Y-96578571D01*
X162928571Y-96578571D01*
X163071428Y-96650000D01*
X163142857Y-96721428D01*
X163214285Y-96864285D01*
X163214285Y-97007142D01*
X163142857Y-97221428D01*
X162285714Y-98078571D01*
X163214285Y-98078571D01*
X166764285Y-116342857D02*
X166764285Y-115142857D01*
X166764285Y-116285714D02*
X166650000Y-116342857D01*
X166421428Y-116342857D01*
X166307142Y-116285714D01*
X166250000Y-116228571D01*
X166192857Y-116114285D01*
X166192857Y-115771428D01*
X166250000Y-115657142D01*
X166307142Y-115600000D01*
X166421428Y-115542857D01*
X166650000Y-115542857D01*
X166764285Y-115600000D01*
X167507142Y-116342857D02*
X167392857Y-116285714D01*
X167335714Y-116228571D01*
X167278571Y-116114285D01*
X167278571Y-115771428D01*
X167335714Y-115657142D01*
X167392857Y-115600000D01*
X167507142Y-115542857D01*
X167678571Y-115542857D01*
X167792857Y-115600000D01*
X167850000Y-115657142D01*
X167907142Y-115771428D01*
X167907142Y-116114285D01*
X167850000Y-116228571D01*
X167792857Y-116285714D01*
X167678571Y-116342857D01*
X167507142Y-116342857D01*
X168935714Y-115542857D02*
X168935714Y-116342857D01*
X168421428Y-115542857D02*
X168421428Y-116171428D01*
X168478571Y-116285714D01*
X168592857Y-116342857D01*
X168764285Y-116342857D01*
X168878571Y-116285714D01*
X168935714Y-116228571D01*
X169335714Y-115542857D02*
X169792857Y-115542857D01*
X169507142Y-115142857D02*
X169507142Y-116171428D01*
X169564285Y-116285714D01*
X169678571Y-116342857D01*
X169792857Y-116342857D01*
X170192857Y-115885714D02*
X171107142Y-115885714D01*
X171850000Y-115657142D02*
X171735714Y-115600000D01*
X171678571Y-115542857D01*
X171621428Y-115428571D01*
X171621428Y-115371428D01*
X171678571Y-115257142D01*
X171735714Y-115200000D01*
X171850000Y-115142857D01*
X172078571Y-115142857D01*
X172192857Y-115200000D01*
X172250000Y-115257142D01*
X172307142Y-115371428D01*
X172307142Y-115428571D01*
X172250000Y-115542857D01*
X172192857Y-115600000D01*
X172078571Y-115657142D01*
X171850000Y-115657142D01*
X171735714Y-115714285D01*
X171678571Y-115771428D01*
X171621428Y-115885714D01*
X171621428Y-116114285D01*
X171678571Y-116228571D01*
X171735714Y-116285714D01*
X171850000Y-116342857D01*
X172078571Y-116342857D01*
X172192857Y-116285714D01*
X172250000Y-116228571D01*
X172307142Y-116114285D01*
X172307142Y-115885714D01*
X172250000Y-115771428D01*
X172192857Y-115714285D01*
X172078571Y-115657142D01*
X131142857Y-82971428D02*
X129942857Y-82971428D01*
X131142857Y-82285714D01*
X129942857Y-82285714D01*
X131142857Y-81714285D02*
X129942857Y-81714285D01*
X129942857Y-81257142D01*
X130000000Y-81142857D01*
X130057142Y-81085714D01*
X130171428Y-81028571D01*
X130342857Y-81028571D01*
X130457142Y-81085714D01*
X130514285Y-81142857D01*
X130571428Y-81257142D01*
X130571428Y-81714285D01*
X131142857Y-80514285D02*
X129942857Y-80514285D01*
X131142857Y-79828571D01*
X129942857Y-79828571D01*
X128892857Y-96528571D02*
X129178571Y-96528571D01*
X129321428Y-96600000D01*
X129464285Y-96742857D01*
X129535714Y-97028571D01*
X129535714Y-97528571D01*
X129464285Y-97814285D01*
X129321428Y-97957142D01*
X129178571Y-98028571D01*
X128892857Y-98028571D01*
X128750000Y-97957142D01*
X128607142Y-97814285D01*
X128535714Y-97528571D01*
X128535714Y-97028571D01*
X128607142Y-96742857D01*
X128750000Y-96600000D01*
X128892857Y-96528571D01*
X130035714Y-96528571D02*
X131035714Y-96528571D01*
X130392857Y-98028571D01*
X167642857Y-96578571D02*
X167928571Y-96578571D01*
X168071428Y-96650000D01*
X168214285Y-96792857D01*
X168285714Y-97078571D01*
X168285714Y-97578571D01*
X168214285Y-97864285D01*
X168071428Y-98007142D01*
X167928571Y-98078571D01*
X167642857Y-98078571D01*
X167500000Y-98007142D01*
X167357142Y-97864285D01*
X167285714Y-97578571D01*
X167285714Y-97078571D01*
X167357142Y-96792857D01*
X167500000Y-96650000D01*
X167642857Y-96578571D01*
X169714285Y-98078571D02*
X168857142Y-98078571D01*
X169285714Y-98078571D02*
X169285714Y-96578571D01*
X169142857Y-96792857D01*
X169000000Y-96935714D01*
X168857142Y-97007142D01*
X131142857Y-78942857D02*
X129942857Y-78942857D01*
X129942857Y-78485714D01*
X130000000Y-78371428D01*
X130057142Y-78314285D01*
X130171428Y-78257142D01*
X130342857Y-78257142D01*
X130457142Y-78314285D01*
X130514285Y-78371428D01*
X130571428Y-78485714D01*
X130571428Y-78942857D01*
X131142857Y-77742857D02*
X129942857Y-77742857D01*
X131142857Y-77057142D01*
X129942857Y-77057142D01*
X131142857Y-76485714D02*
X129942857Y-76485714D01*
X129942857Y-76028571D01*
X130000000Y-75914285D01*
X130057142Y-75857142D01*
X130171428Y-75800000D01*
X130342857Y-75800000D01*
X130457142Y-75857142D01*
X130514285Y-75914285D01*
X130571428Y-76028571D01*
X130571428Y-76485714D01*
X135392857Y-96478571D02*
X135678571Y-96478571D01*
X135821428Y-96550000D01*
X135964285Y-96692857D01*
X136035714Y-96978571D01*
X136035714Y-97478571D01*
X135964285Y-97764285D01*
X135821428Y-97907142D01*
X135678571Y-97978571D01*
X135392857Y-97978571D01*
X135250000Y-97907142D01*
X135107142Y-97764285D01*
X135035714Y-97478571D01*
X135035714Y-96978571D01*
X135107142Y-96692857D01*
X135250000Y-96550000D01*
X135392857Y-96478571D01*
X137321428Y-96478571D02*
X137035714Y-96478571D01*
X136892857Y-96550000D01*
X136821428Y-96621428D01*
X136678571Y-96835714D01*
X136607142Y-97121428D01*
X136607142Y-97692857D01*
X136678571Y-97835714D01*
X136750000Y-97907142D01*
X136892857Y-97978571D01*
X137178571Y-97978571D01*
X137321428Y-97907142D01*
X137392857Y-97835714D01*
X137464285Y-97692857D01*
X137464285Y-97335714D01*
X137392857Y-97192857D01*
X137321428Y-97121428D01*
X137178571Y-97050000D01*
X136892857Y-97050000D01*
X136750000Y-97121428D01*
X136678571Y-97192857D01*
X136607142Y-97335714D01*
X141892857Y-96478571D02*
X142178571Y-96478571D01*
X142321428Y-96550000D01*
X142464285Y-96692857D01*
X142535714Y-96978571D01*
X142535714Y-97478571D01*
X142464285Y-97764285D01*
X142321428Y-97907142D01*
X142178571Y-97978571D01*
X141892857Y-97978571D01*
X141750000Y-97907142D01*
X141607142Y-97764285D01*
X141535714Y-97478571D01*
X141535714Y-96978571D01*
X141607142Y-96692857D01*
X141750000Y-96550000D01*
X141892857Y-96478571D01*
X143892857Y-96478571D02*
X143178571Y-96478571D01*
X143107142Y-97192857D01*
X143178571Y-97121428D01*
X143321428Y-97050000D01*
X143678571Y-97050000D01*
X143821428Y-97121428D01*
X143892857Y-97192857D01*
X143964285Y-97335714D01*
X143964285Y-97692857D01*
X143892857Y-97835714D01*
X143821428Y-97907142D01*
X143678571Y-97978571D01*
X143321428Y-97978571D01*
X143178571Y-97907142D01*
X143107142Y-97835714D01*
D10*
%TO.C,U6*%
X144552380Y-90061904D02*
X145361904Y-90061904D01*
X145457142Y-90014285D01*
X145504761Y-89966666D01*
X145552380Y-89871428D01*
X145552380Y-89680952D01*
X145504761Y-89585714D01*
X145457142Y-89538095D01*
X145361904Y-89490476D01*
X144552380Y-89490476D01*
X144552380Y-88585714D02*
X144552380Y-88776190D01*
X144600000Y-88871428D01*
X144647619Y-88919047D01*
X144790476Y-89014285D01*
X144980952Y-89061904D01*
X145361904Y-89061904D01*
X145457142Y-89014285D01*
X145504761Y-88966666D01*
X145552380Y-88871428D01*
X145552380Y-88680952D01*
X145504761Y-88585714D01*
X145457142Y-88538095D01*
X145361904Y-88490476D01*
X145123809Y-88490476D01*
X145028571Y-88538095D01*
X144980952Y-88585714D01*
X144933333Y-88680952D01*
X144933333Y-88871428D01*
X144980952Y-88966666D01*
X145028571Y-89014285D01*
X145123809Y-89061904D01*
%TO.C,D23*%
X131485714Y-82052380D02*
X131485714Y-81052380D01*
X131723809Y-81052380D01*
X131866666Y-81100000D01*
X131961904Y-81195238D01*
X132009523Y-81290476D01*
X132057142Y-81480952D01*
X132057142Y-81623809D01*
X132009523Y-81814285D01*
X131961904Y-81909523D01*
X131866666Y-82004761D01*
X131723809Y-82052380D01*
X131485714Y-82052380D01*
X132438095Y-81147619D02*
X132485714Y-81100000D01*
X132580952Y-81052380D01*
X132819047Y-81052380D01*
X132914285Y-81100000D01*
X132961904Y-81147619D01*
X133009523Y-81242857D01*
X133009523Y-81338095D01*
X132961904Y-81480952D01*
X132390476Y-82052380D01*
X133009523Y-82052380D01*
X133342857Y-81052380D02*
X133961904Y-81052380D01*
X133628571Y-81433333D01*
X133771428Y-81433333D01*
X133866666Y-81480952D01*
X133914285Y-81528571D01*
X133961904Y-81623809D01*
X133961904Y-81861904D01*
X133914285Y-81957142D01*
X133866666Y-82004761D01*
X133771428Y-82052380D01*
X133485714Y-82052380D01*
X133390476Y-82004761D01*
X133342857Y-81957142D01*
%TO.C,Q4*%
X157704761Y-112172619D02*
X157609523Y-112125000D01*
X157514285Y-112029761D01*
X157371428Y-111886904D01*
X157276190Y-111839285D01*
X157180952Y-111839285D01*
X157228571Y-112077380D02*
X157133333Y-112029761D01*
X157038095Y-111934523D01*
X156990476Y-111744047D01*
X156990476Y-111410714D01*
X157038095Y-111220238D01*
X157133333Y-111125000D01*
X157228571Y-111077380D01*
X157419047Y-111077380D01*
X157514285Y-111125000D01*
X157609523Y-111220238D01*
X157657142Y-111410714D01*
X157657142Y-111744047D01*
X157609523Y-111934523D01*
X157514285Y-112029761D01*
X157419047Y-112077380D01*
X157228571Y-112077380D01*
X158514285Y-111410714D02*
X158514285Y-112077380D01*
X158276190Y-111029761D02*
X158038095Y-111744047D01*
X158657142Y-111744047D01*
%TO.C,Q7*%
X138254761Y-112147619D02*
X138159523Y-112100000D01*
X138064285Y-112004761D01*
X137921428Y-111861904D01*
X137826190Y-111814285D01*
X137730952Y-111814285D01*
X137778571Y-112052380D02*
X137683333Y-112004761D01*
X137588095Y-111909523D01*
X137540476Y-111719047D01*
X137540476Y-111385714D01*
X137588095Y-111195238D01*
X137683333Y-111100000D01*
X137778571Y-111052380D01*
X137969047Y-111052380D01*
X138064285Y-111100000D01*
X138159523Y-111195238D01*
X138207142Y-111385714D01*
X138207142Y-111719047D01*
X138159523Y-111909523D01*
X138064285Y-112004761D01*
X137969047Y-112052380D01*
X137778571Y-112052380D01*
X138540476Y-111052380D02*
X139207142Y-111052380D01*
X138778571Y-112052380D01*
%TO.C,F8*%
X136528571Y-85933333D02*
X136528571Y-86266666D01*
X137052380Y-86266666D02*
X136052380Y-86266666D01*
X136052380Y-85790476D01*
X136480952Y-85266666D02*
X136433333Y-85361904D01*
X136385714Y-85409523D01*
X136290476Y-85457142D01*
X136242857Y-85457142D01*
X136147619Y-85409523D01*
X136100000Y-85361904D01*
X136052380Y-85266666D01*
X136052380Y-85076190D01*
X136100000Y-84980952D01*
X136147619Y-84933333D01*
X136242857Y-84885714D01*
X136290476Y-84885714D01*
X136385714Y-84933333D01*
X136433333Y-84980952D01*
X136480952Y-85076190D01*
X136480952Y-85266666D01*
X136528571Y-85361904D01*
X136576190Y-85409523D01*
X136671428Y-85457142D01*
X136861904Y-85457142D01*
X136957142Y-85409523D01*
X137004761Y-85361904D01*
X137052380Y-85266666D01*
X137052380Y-85076190D01*
X137004761Y-84980952D01*
X136957142Y-84933333D01*
X136861904Y-84885714D01*
X136671428Y-84885714D01*
X136576190Y-84933333D01*
X136528571Y-84980952D01*
X136480952Y-85076190D01*
%TO.C,D21*%
X131102380Y-101264285D02*
X130102380Y-101264285D01*
X130102380Y-101026190D01*
X130150000Y-100883333D01*
X130245238Y-100788095D01*
X130340476Y-100740476D01*
X130530952Y-100692857D01*
X130673809Y-100692857D01*
X130864285Y-100740476D01*
X130959523Y-100788095D01*
X131054761Y-100883333D01*
X131102380Y-101026190D01*
X131102380Y-101264285D01*
X130197619Y-100311904D02*
X130150000Y-100264285D01*
X130102380Y-100169047D01*
X130102380Y-99930952D01*
X130150000Y-99835714D01*
X130197619Y-99788095D01*
X130292857Y-99740476D01*
X130388095Y-99740476D01*
X130530952Y-99788095D01*
X131102380Y-100359523D01*
X131102380Y-99740476D01*
X131102380Y-98788095D02*
X131102380Y-99359523D01*
X131102380Y-99073809D02*
X130102380Y-99073809D01*
X130245238Y-99169047D01*
X130340476Y-99264285D01*
X130388095Y-99359523D01*
%TO.C,F7*%
X142028571Y-86033333D02*
X142028571Y-86366666D01*
X142552380Y-86366666D02*
X141552380Y-86366666D01*
X141552380Y-85890476D01*
X141552380Y-85604761D02*
X141552380Y-84938095D01*
X142552380Y-85366666D01*
%TO.C,Q1*%
X176704761Y-112210119D02*
X176609523Y-112162500D01*
X176514285Y-112067261D01*
X176371428Y-111924404D01*
X176276190Y-111876785D01*
X176180952Y-111876785D01*
X176228571Y-112114880D02*
X176133333Y-112067261D01*
X176038095Y-111972023D01*
X175990476Y-111781547D01*
X175990476Y-111448214D01*
X176038095Y-111257738D01*
X176133333Y-111162500D01*
X176228571Y-111114880D01*
X176419047Y-111114880D01*
X176514285Y-111162500D01*
X176609523Y-111257738D01*
X176657142Y-111448214D01*
X176657142Y-111781547D01*
X176609523Y-111972023D01*
X176514285Y-112067261D01*
X176419047Y-112114880D01*
X176228571Y-112114880D01*
X177609523Y-112114880D02*
X177038095Y-112114880D01*
X177323809Y-112114880D02*
X177323809Y-111114880D01*
X177228571Y-111257738D01*
X177133333Y-111352976D01*
X177038095Y-111400595D01*
%TO.C,R15*%
X141257142Y-111952380D02*
X140923809Y-111476190D01*
X140685714Y-111952380D02*
X140685714Y-110952380D01*
X141066666Y-110952380D01*
X141161904Y-111000000D01*
X141209523Y-111047619D01*
X141257142Y-111142857D01*
X141257142Y-111285714D01*
X141209523Y-111380952D01*
X141161904Y-111428571D01*
X141066666Y-111476190D01*
X140685714Y-111476190D01*
X142209523Y-111952380D02*
X141638095Y-111952380D01*
X141923809Y-111952380D02*
X141923809Y-110952380D01*
X141828571Y-111095238D01*
X141733333Y-111190476D01*
X141638095Y-111238095D01*
X143114285Y-110952380D02*
X142638095Y-110952380D01*
X142590476Y-111428571D01*
X142638095Y-111380952D01*
X142733333Y-111333333D01*
X142971428Y-111333333D01*
X143066666Y-111380952D01*
X143114285Y-111428571D01*
X143161904Y-111523809D01*
X143161904Y-111761904D01*
X143114285Y-111857142D01*
X143066666Y-111904761D01*
X142971428Y-111952380D01*
X142733333Y-111952380D01*
X142638095Y-111904761D01*
X142590476Y-111857142D01*
%TO.C,D18*%
X152045714Y-82082380D02*
X152045714Y-81082380D01*
X152283809Y-81082380D01*
X152426666Y-81130000D01*
X152521904Y-81225238D01*
X152569523Y-81320476D01*
X152617142Y-81510952D01*
X152617142Y-81653809D01*
X152569523Y-81844285D01*
X152521904Y-81939523D01*
X152426666Y-82034761D01*
X152283809Y-82082380D01*
X152045714Y-82082380D01*
X153569523Y-82082380D02*
X152998095Y-82082380D01*
X153283809Y-82082380D02*
X153283809Y-81082380D01*
X153188571Y-81225238D01*
X153093333Y-81320476D01*
X152998095Y-81368095D01*
X154140952Y-81510952D02*
X154045714Y-81463333D01*
X153998095Y-81415714D01*
X153950476Y-81320476D01*
X153950476Y-81272857D01*
X153998095Y-81177619D01*
X154045714Y-81130000D01*
X154140952Y-81082380D01*
X154331428Y-81082380D01*
X154426666Y-81130000D01*
X154474285Y-81177619D01*
X154521904Y-81272857D01*
X154521904Y-81320476D01*
X154474285Y-81415714D01*
X154426666Y-81463333D01*
X154331428Y-81510952D01*
X154140952Y-81510952D01*
X154045714Y-81558571D01*
X153998095Y-81606190D01*
X153950476Y-81701428D01*
X153950476Y-81891904D01*
X153998095Y-81987142D01*
X154045714Y-82034761D01*
X154140952Y-82082380D01*
X154331428Y-82082380D01*
X154426666Y-82034761D01*
X154474285Y-81987142D01*
X154521904Y-81891904D01*
X154521904Y-81701428D01*
X154474285Y-81606190D01*
X154426666Y-81558571D01*
X154331428Y-81510952D01*
%TO.C,D4*%
X163352380Y-101338095D02*
X162352380Y-101338095D01*
X162352380Y-101100000D01*
X162400000Y-100957142D01*
X162495238Y-100861904D01*
X162590476Y-100814285D01*
X162780952Y-100766666D01*
X162923809Y-100766666D01*
X163114285Y-100814285D01*
X163209523Y-100861904D01*
X163304761Y-100957142D01*
X163352380Y-101100000D01*
X163352380Y-101338095D01*
X162685714Y-99909523D02*
X163352380Y-99909523D01*
X162304761Y-100147619D02*
X163019047Y-100385714D01*
X163019047Y-99766666D01*
%TO.C,R20*%
X134757142Y-111952380D02*
X134423809Y-111476190D01*
X134185714Y-111952380D02*
X134185714Y-110952380D01*
X134566666Y-110952380D01*
X134661904Y-111000000D01*
X134709523Y-111047619D01*
X134757142Y-111142857D01*
X134757142Y-111285714D01*
X134709523Y-111380952D01*
X134661904Y-111428571D01*
X134566666Y-111476190D01*
X134185714Y-111476190D01*
X135138095Y-111047619D02*
X135185714Y-111000000D01*
X135280952Y-110952380D01*
X135519047Y-110952380D01*
X135614285Y-111000000D01*
X135661904Y-111047619D01*
X135709523Y-111142857D01*
X135709523Y-111238095D01*
X135661904Y-111380952D01*
X135090476Y-111952380D01*
X135709523Y-111952380D01*
X136328571Y-110952380D02*
X136423809Y-110952380D01*
X136519047Y-111000000D01*
X136566666Y-111047619D01*
X136614285Y-111142857D01*
X136661904Y-111333333D01*
X136661904Y-111571428D01*
X136614285Y-111761904D01*
X136566666Y-111857142D01*
X136519047Y-111904761D01*
X136423809Y-111952380D01*
X136328571Y-111952380D01*
X136233333Y-111904761D01*
X136185714Y-111857142D01*
X136138095Y-111761904D01*
X136090476Y-111571428D01*
X136090476Y-111333333D01*
X136138095Y-111142857D01*
X136185714Y-111047619D01*
X136233333Y-111000000D01*
X136328571Y-110952380D01*
%TO.C,R6*%
X173733333Y-106752380D02*
X173400000Y-106276190D01*
X173161904Y-106752380D02*
X173161904Y-105752380D01*
X173542857Y-105752380D01*
X173638095Y-105800000D01*
X173685714Y-105847619D01*
X173733333Y-105942857D01*
X173733333Y-106085714D01*
X173685714Y-106180952D01*
X173638095Y-106228571D01*
X173542857Y-106276190D01*
X173161904Y-106276190D01*
X174590476Y-105752380D02*
X174400000Y-105752380D01*
X174304761Y-105800000D01*
X174257142Y-105847619D01*
X174161904Y-105990476D01*
X174114285Y-106180952D01*
X174114285Y-106561904D01*
X174161904Y-106657142D01*
X174209523Y-106704761D01*
X174304761Y-106752380D01*
X174495238Y-106752380D01*
X174590476Y-106704761D01*
X174638095Y-106657142D01*
X174685714Y-106561904D01*
X174685714Y-106323809D01*
X174638095Y-106228571D01*
X174590476Y-106180952D01*
X174495238Y-106133333D01*
X174304761Y-106133333D01*
X174209523Y-106180952D01*
X174161904Y-106228571D01*
X174114285Y-106323809D01*
%TO.C,R12*%
X160457142Y-106752380D02*
X160123809Y-106276190D01*
X159885714Y-106752380D02*
X159885714Y-105752380D01*
X160266666Y-105752380D01*
X160361904Y-105800000D01*
X160409523Y-105847619D01*
X160457142Y-105942857D01*
X160457142Y-106085714D01*
X160409523Y-106180952D01*
X160361904Y-106228571D01*
X160266666Y-106276190D01*
X159885714Y-106276190D01*
X161409523Y-106752380D02*
X160838095Y-106752380D01*
X161123809Y-106752380D02*
X161123809Y-105752380D01*
X161028571Y-105895238D01*
X160933333Y-105990476D01*
X160838095Y-106038095D01*
X161790476Y-105847619D02*
X161838095Y-105800000D01*
X161933333Y-105752380D01*
X162171428Y-105752380D01*
X162266666Y-105800000D01*
X162314285Y-105847619D01*
X162361904Y-105942857D01*
X162361904Y-106038095D01*
X162314285Y-106180952D01*
X161742857Y-106752380D01*
X162361904Y-106752380D01*
%TO.C,D16*%
X164085714Y-82112380D02*
X164085714Y-81112380D01*
X164323809Y-81112380D01*
X164466666Y-81160000D01*
X164561904Y-81255238D01*
X164609523Y-81350476D01*
X164657142Y-81540952D01*
X164657142Y-81683809D01*
X164609523Y-81874285D01*
X164561904Y-81969523D01*
X164466666Y-82064761D01*
X164323809Y-82112380D01*
X164085714Y-82112380D01*
X165609523Y-82112380D02*
X165038095Y-82112380D01*
X165323809Y-82112380D02*
X165323809Y-81112380D01*
X165228571Y-81255238D01*
X165133333Y-81350476D01*
X165038095Y-81398095D01*
X166466666Y-81112380D02*
X166276190Y-81112380D01*
X166180952Y-81160000D01*
X166133333Y-81207619D01*
X166038095Y-81350476D01*
X165990476Y-81540952D01*
X165990476Y-81921904D01*
X166038095Y-82017142D01*
X166085714Y-82064761D01*
X166180952Y-82112380D01*
X166371428Y-82112380D01*
X166466666Y-82064761D01*
X166514285Y-82017142D01*
X166561904Y-81921904D01*
X166561904Y-81683809D01*
X166514285Y-81588571D01*
X166466666Y-81540952D01*
X166371428Y-81493333D01*
X166180952Y-81493333D01*
X166085714Y-81540952D01*
X166038095Y-81588571D01*
X165990476Y-81683809D01*
%TO.C,D17*%
X158085714Y-82112380D02*
X158085714Y-81112380D01*
X158323809Y-81112380D01*
X158466666Y-81160000D01*
X158561904Y-81255238D01*
X158609523Y-81350476D01*
X158657142Y-81540952D01*
X158657142Y-81683809D01*
X158609523Y-81874285D01*
X158561904Y-81969523D01*
X158466666Y-82064761D01*
X158323809Y-82112380D01*
X158085714Y-82112380D01*
X159609523Y-82112380D02*
X159038095Y-82112380D01*
X159323809Y-82112380D02*
X159323809Y-81112380D01*
X159228571Y-81255238D01*
X159133333Y-81350476D01*
X159038095Y-81398095D01*
X159942857Y-81112380D02*
X160609523Y-81112380D01*
X160180952Y-82112380D01*
%TO.C,Q2*%
X170404761Y-112147619D02*
X170309523Y-112100000D01*
X170214285Y-112004761D01*
X170071428Y-111861904D01*
X169976190Y-111814285D01*
X169880952Y-111814285D01*
X169928571Y-112052380D02*
X169833333Y-112004761D01*
X169738095Y-111909523D01*
X169690476Y-111719047D01*
X169690476Y-111385714D01*
X169738095Y-111195238D01*
X169833333Y-111100000D01*
X169928571Y-111052380D01*
X170119047Y-111052380D01*
X170214285Y-111100000D01*
X170309523Y-111195238D01*
X170357142Y-111385714D01*
X170357142Y-111719047D01*
X170309523Y-111909523D01*
X170214285Y-112004761D01*
X170119047Y-112052380D01*
X169928571Y-112052380D01*
X170738095Y-111147619D02*
X170785714Y-111100000D01*
X170880952Y-111052380D01*
X171119047Y-111052380D01*
X171214285Y-111100000D01*
X171261904Y-111147619D01*
X171309523Y-111242857D01*
X171309523Y-111338095D01*
X171261904Y-111480952D01*
X170690476Y-112052380D01*
X171309523Y-112052380D01*
%TO.C,D14*%
X175985714Y-82052380D02*
X175985714Y-81052380D01*
X176223809Y-81052380D01*
X176366666Y-81100000D01*
X176461904Y-81195238D01*
X176509523Y-81290476D01*
X176557142Y-81480952D01*
X176557142Y-81623809D01*
X176509523Y-81814285D01*
X176461904Y-81909523D01*
X176366666Y-82004761D01*
X176223809Y-82052380D01*
X175985714Y-82052380D01*
X177509523Y-82052380D02*
X176938095Y-82052380D01*
X177223809Y-82052380D02*
X177223809Y-81052380D01*
X177128571Y-81195238D01*
X177033333Y-81290476D01*
X176938095Y-81338095D01*
X178366666Y-81385714D02*
X178366666Y-82052380D01*
X178128571Y-81004761D02*
X177890476Y-81719047D01*
X178509523Y-81719047D01*
%TO.C,D19*%
X146085714Y-82052380D02*
X146085714Y-81052380D01*
X146323809Y-81052380D01*
X146466666Y-81100000D01*
X146561904Y-81195238D01*
X146609523Y-81290476D01*
X146657142Y-81480952D01*
X146657142Y-81623809D01*
X146609523Y-81814285D01*
X146561904Y-81909523D01*
X146466666Y-82004761D01*
X146323809Y-82052380D01*
X146085714Y-82052380D01*
X147609523Y-82052380D02*
X147038095Y-82052380D01*
X147323809Y-82052380D02*
X147323809Y-81052380D01*
X147228571Y-81195238D01*
X147133333Y-81290476D01*
X147038095Y-81338095D01*
X148085714Y-82052380D02*
X148276190Y-82052380D01*
X148371428Y-82004761D01*
X148419047Y-81957142D01*
X148514285Y-81814285D01*
X148561904Y-81623809D01*
X148561904Y-81242857D01*
X148514285Y-81147619D01*
X148466666Y-81100000D01*
X148371428Y-81052380D01*
X148180952Y-81052380D01*
X148085714Y-81100000D01*
X148038095Y-81147619D01*
X147990476Y-81242857D01*
X147990476Y-81480952D01*
X148038095Y-81576190D01*
X148085714Y-81623809D01*
X148180952Y-81671428D01*
X148371428Y-81671428D01*
X148466666Y-81623809D01*
X148514285Y-81576190D01*
X148561904Y-81480952D01*
%TO.C,D15*%
X170085714Y-82142380D02*
X170085714Y-81142380D01*
X170323809Y-81142380D01*
X170466666Y-81190000D01*
X170561904Y-81285238D01*
X170609523Y-81380476D01*
X170657142Y-81570952D01*
X170657142Y-81713809D01*
X170609523Y-81904285D01*
X170561904Y-81999523D01*
X170466666Y-82094761D01*
X170323809Y-82142380D01*
X170085714Y-82142380D01*
X171609523Y-82142380D02*
X171038095Y-82142380D01*
X171323809Y-82142380D02*
X171323809Y-81142380D01*
X171228571Y-81285238D01*
X171133333Y-81380476D01*
X171038095Y-81428095D01*
X172514285Y-81142380D02*
X172038095Y-81142380D01*
X171990476Y-81618571D01*
X172038095Y-81570952D01*
X172133333Y-81523333D01*
X172371428Y-81523333D01*
X172466666Y-81570952D01*
X172514285Y-81618571D01*
X172561904Y-81713809D01*
X172561904Y-81951904D01*
X172514285Y-82047142D01*
X172466666Y-82094761D01*
X172371428Y-82142380D01*
X172133333Y-82142380D01*
X172038095Y-82094761D01*
X171990476Y-82047142D01*
%TO.C,J3*%
X127666666Y-73897380D02*
X127666666Y-74611666D01*
X127619047Y-74754523D01*
X127523809Y-74849761D01*
X127380952Y-74897380D01*
X127285714Y-74897380D01*
X128047619Y-73897380D02*
X128666666Y-73897380D01*
X128333333Y-74278333D01*
X128476190Y-74278333D01*
X128571428Y-74325952D01*
X128619047Y-74373571D01*
X128666666Y-74468809D01*
X128666666Y-74706904D01*
X128619047Y-74802142D01*
X128571428Y-74849761D01*
X128476190Y-74897380D01*
X128190476Y-74897380D01*
X128095238Y-74849761D01*
X128047619Y-74802142D01*
%TO.C,D11*%
X155085714Y-82142380D02*
X155085714Y-81142380D01*
X155323809Y-81142380D01*
X155466666Y-81190000D01*
X155561904Y-81285238D01*
X155609523Y-81380476D01*
X155657142Y-81570952D01*
X155657142Y-81713809D01*
X155609523Y-81904285D01*
X155561904Y-81999523D01*
X155466666Y-82094761D01*
X155323809Y-82142380D01*
X155085714Y-82142380D01*
X156609523Y-82142380D02*
X156038095Y-82142380D01*
X156323809Y-82142380D02*
X156323809Y-81142380D01*
X156228571Y-81285238D01*
X156133333Y-81380476D01*
X156038095Y-81428095D01*
X157561904Y-82142380D02*
X156990476Y-82142380D01*
X157276190Y-82142380D02*
X157276190Y-81142380D01*
X157180952Y-81285238D01*
X157085714Y-81380476D01*
X156990476Y-81428095D01*
%TO.C,F2*%
X168498571Y-85798333D02*
X168498571Y-86131666D01*
X169022380Y-86131666D02*
X168022380Y-86131666D01*
X168022380Y-85655476D01*
X168117619Y-85322142D02*
X168070000Y-85274523D01*
X168022380Y-85179285D01*
X168022380Y-84941190D01*
X168070000Y-84845952D01*
X168117619Y-84798333D01*
X168212857Y-84750714D01*
X168308095Y-84750714D01*
X168450952Y-84798333D01*
X169022380Y-85369761D01*
X169022380Y-84750714D01*
%TO.C,R24*%
X134707142Y-106702380D02*
X134373809Y-106226190D01*
X134135714Y-106702380D02*
X134135714Y-105702380D01*
X134516666Y-105702380D01*
X134611904Y-105750000D01*
X134659523Y-105797619D01*
X134707142Y-105892857D01*
X134707142Y-106035714D01*
X134659523Y-106130952D01*
X134611904Y-106178571D01*
X134516666Y-106226190D01*
X134135714Y-106226190D01*
X135088095Y-105797619D02*
X135135714Y-105750000D01*
X135230952Y-105702380D01*
X135469047Y-105702380D01*
X135564285Y-105750000D01*
X135611904Y-105797619D01*
X135659523Y-105892857D01*
X135659523Y-105988095D01*
X135611904Y-106130952D01*
X135040476Y-106702380D01*
X135659523Y-106702380D01*
X136516666Y-106035714D02*
X136516666Y-106702380D01*
X136278571Y-105654761D02*
X136040476Y-106369047D01*
X136659523Y-106369047D01*
%TO.C,F3*%
X163228571Y-85933333D02*
X163228571Y-86266666D01*
X163752380Y-86266666D02*
X162752380Y-86266666D01*
X162752380Y-85790476D01*
X162752380Y-85504761D02*
X162752380Y-84885714D01*
X163133333Y-85219047D01*
X163133333Y-85076190D01*
X163180952Y-84980952D01*
X163228571Y-84933333D01*
X163323809Y-84885714D01*
X163561904Y-84885714D01*
X163657142Y-84933333D01*
X163704761Y-84980952D01*
X163752380Y-85076190D01*
X163752380Y-85361904D01*
X163704761Y-85457142D01*
X163657142Y-85504761D01*
%TO.C,Q3*%
X164004761Y-112147619D02*
X163909523Y-112100000D01*
X163814285Y-112004761D01*
X163671428Y-111861904D01*
X163576190Y-111814285D01*
X163480952Y-111814285D01*
X163528571Y-112052380D02*
X163433333Y-112004761D01*
X163338095Y-111909523D01*
X163290476Y-111719047D01*
X163290476Y-111385714D01*
X163338095Y-111195238D01*
X163433333Y-111100000D01*
X163528571Y-111052380D01*
X163719047Y-111052380D01*
X163814285Y-111100000D01*
X163909523Y-111195238D01*
X163957142Y-111385714D01*
X163957142Y-111719047D01*
X163909523Y-111909523D01*
X163814285Y-112004761D01*
X163719047Y-112052380D01*
X163528571Y-112052380D01*
X164290476Y-111052380D02*
X164909523Y-111052380D01*
X164576190Y-111433333D01*
X164719047Y-111433333D01*
X164814285Y-111480952D01*
X164861904Y-111528571D01*
X164909523Y-111623809D01*
X164909523Y-111861904D01*
X164861904Y-111957142D01*
X164814285Y-112004761D01*
X164719047Y-112052380D01*
X164433333Y-112052380D01*
X164338095Y-112004761D01*
X164290476Y-111957142D01*
%TO.C,R3*%
X167433333Y-112052380D02*
X167100000Y-111576190D01*
X166861904Y-112052380D02*
X166861904Y-111052380D01*
X167242857Y-111052380D01*
X167338095Y-111100000D01*
X167385714Y-111147619D01*
X167433333Y-111242857D01*
X167433333Y-111385714D01*
X167385714Y-111480952D01*
X167338095Y-111528571D01*
X167242857Y-111576190D01*
X166861904Y-111576190D01*
X167766666Y-111052380D02*
X168385714Y-111052380D01*
X168052380Y-111433333D01*
X168195238Y-111433333D01*
X168290476Y-111480952D01*
X168338095Y-111528571D01*
X168385714Y-111623809D01*
X168385714Y-111861904D01*
X168338095Y-111957142D01*
X168290476Y-112004761D01*
X168195238Y-112052380D01*
X167909523Y-112052380D01*
X167814285Y-112004761D01*
X167766666Y-111957142D01*
%TO.C,D2*%
X176052380Y-101263095D02*
X175052380Y-101263095D01*
X175052380Y-101025000D01*
X175100000Y-100882142D01*
X175195238Y-100786904D01*
X175290476Y-100739285D01*
X175480952Y-100691666D01*
X175623809Y-100691666D01*
X175814285Y-100739285D01*
X175909523Y-100786904D01*
X176004761Y-100882142D01*
X176052380Y-101025000D01*
X176052380Y-101263095D01*
X175147619Y-100310714D02*
X175100000Y-100263095D01*
X175052380Y-100167857D01*
X175052380Y-99929761D01*
X175100000Y-99834523D01*
X175147619Y-99786904D01*
X175242857Y-99739285D01*
X175338095Y-99739285D01*
X175480952Y-99786904D01*
X176052380Y-100358333D01*
X176052380Y-99739285D01*
%TO.C,F1*%
X173738571Y-85693333D02*
X173738571Y-86026666D01*
X174262380Y-86026666D02*
X173262380Y-86026666D01*
X173262380Y-85550476D01*
X174262380Y-84645714D02*
X174262380Y-85217142D01*
X174262380Y-84931428D02*
X173262380Y-84931428D01*
X173405238Y-85026666D01*
X173500476Y-85121904D01*
X173548095Y-85217142D01*
%TO.C,R18*%
X147557142Y-106702380D02*
X147223809Y-106226190D01*
X146985714Y-106702380D02*
X146985714Y-105702380D01*
X147366666Y-105702380D01*
X147461904Y-105750000D01*
X147509523Y-105797619D01*
X147557142Y-105892857D01*
X147557142Y-106035714D01*
X147509523Y-106130952D01*
X147461904Y-106178571D01*
X147366666Y-106226190D01*
X146985714Y-106226190D01*
X148509523Y-106702380D02*
X147938095Y-106702380D01*
X148223809Y-106702380D02*
X148223809Y-105702380D01*
X148128571Y-105845238D01*
X148033333Y-105940476D01*
X147938095Y-105988095D01*
X149080952Y-106130952D02*
X148985714Y-106083333D01*
X148938095Y-106035714D01*
X148890476Y-105940476D01*
X148890476Y-105892857D01*
X148938095Y-105797619D01*
X148985714Y-105750000D01*
X149080952Y-105702380D01*
X149271428Y-105702380D01*
X149366666Y-105750000D01*
X149414285Y-105797619D01*
X149461904Y-105892857D01*
X149461904Y-105940476D01*
X149414285Y-106035714D01*
X149366666Y-106083333D01*
X149271428Y-106130952D01*
X149080952Y-106130952D01*
X148985714Y-106178571D01*
X148938095Y-106226190D01*
X148890476Y-106321428D01*
X148890476Y-106511904D01*
X148938095Y-106607142D01*
X148985714Y-106654761D01*
X149080952Y-106702380D01*
X149271428Y-106702380D01*
X149366666Y-106654761D01*
X149414285Y-106607142D01*
X149461904Y-106511904D01*
X149461904Y-106321428D01*
X149414285Y-106226190D01*
X149366666Y-106178571D01*
X149271428Y-106130952D01*
%TO.C,U5*%
X149952380Y-90061904D02*
X150761904Y-90061904D01*
X150857142Y-90014285D01*
X150904761Y-89966666D01*
X150952380Y-89871428D01*
X150952380Y-89680952D01*
X150904761Y-89585714D01*
X150857142Y-89538095D01*
X150761904Y-89490476D01*
X149952380Y-89490476D01*
X149952380Y-88538095D02*
X149952380Y-89014285D01*
X150428571Y-89061904D01*
X150380952Y-89014285D01*
X150333333Y-88919047D01*
X150333333Y-88680952D01*
X150380952Y-88585714D01*
X150428571Y-88538095D01*
X150523809Y-88490476D01*
X150761904Y-88490476D01*
X150857142Y-88538095D01*
X150904761Y-88585714D01*
X150952380Y-88680952D01*
X150952380Y-88919047D01*
X150904761Y-89014285D01*
X150857142Y-89061904D01*
%TO.C,R16*%
X150407142Y-106752380D02*
X150073809Y-106276190D01*
X149835714Y-106752380D02*
X149835714Y-105752380D01*
X150216666Y-105752380D01*
X150311904Y-105800000D01*
X150359523Y-105847619D01*
X150407142Y-105942857D01*
X150407142Y-106085714D01*
X150359523Y-106180952D01*
X150311904Y-106228571D01*
X150216666Y-106276190D01*
X149835714Y-106276190D01*
X151359523Y-106752380D02*
X150788095Y-106752380D01*
X151073809Y-106752380D02*
X151073809Y-105752380D01*
X150978571Y-105895238D01*
X150883333Y-105990476D01*
X150788095Y-106038095D01*
X152216666Y-105752380D02*
X152026190Y-105752380D01*
X151930952Y-105800000D01*
X151883333Y-105847619D01*
X151788095Y-105990476D01*
X151740476Y-106180952D01*
X151740476Y-106561904D01*
X151788095Y-106657142D01*
X151835714Y-106704761D01*
X151930952Y-106752380D01*
X152121428Y-106752380D01*
X152216666Y-106704761D01*
X152264285Y-106657142D01*
X152311904Y-106561904D01*
X152311904Y-106323809D01*
X152264285Y-106228571D01*
X152216666Y-106180952D01*
X152121428Y-106133333D01*
X151930952Y-106133333D01*
X151835714Y-106180952D01*
X151788095Y-106228571D01*
X151740476Y-106323809D01*
%TO.C,D7*%
X144102380Y-101288095D02*
X143102380Y-101288095D01*
X143102380Y-101050000D01*
X143150000Y-100907142D01*
X143245238Y-100811904D01*
X143340476Y-100764285D01*
X143530952Y-100716666D01*
X143673809Y-100716666D01*
X143864285Y-100764285D01*
X143959523Y-100811904D01*
X144054761Y-100907142D01*
X144102380Y-101050000D01*
X144102380Y-101288095D01*
X143102380Y-100383333D02*
X143102380Y-99716666D01*
X144102380Y-100145238D01*
%TO.C,R17*%
X143907142Y-106752380D02*
X143573809Y-106276190D01*
X143335714Y-106752380D02*
X143335714Y-105752380D01*
X143716666Y-105752380D01*
X143811904Y-105800000D01*
X143859523Y-105847619D01*
X143907142Y-105942857D01*
X143907142Y-106085714D01*
X143859523Y-106180952D01*
X143811904Y-106228571D01*
X143716666Y-106276190D01*
X143335714Y-106276190D01*
X144859523Y-106752380D02*
X144288095Y-106752380D01*
X144573809Y-106752380D02*
X144573809Y-105752380D01*
X144478571Y-105895238D01*
X144383333Y-105990476D01*
X144288095Y-106038095D01*
X145192857Y-105752380D02*
X145859523Y-105752380D01*
X145430952Y-106752380D01*
%TO.C,D25*%
X134485714Y-82052380D02*
X134485714Y-81052380D01*
X134723809Y-81052380D01*
X134866666Y-81100000D01*
X134961904Y-81195238D01*
X135009523Y-81290476D01*
X135057142Y-81480952D01*
X135057142Y-81623809D01*
X135009523Y-81814285D01*
X134961904Y-81909523D01*
X134866666Y-82004761D01*
X134723809Y-82052380D01*
X134485714Y-82052380D01*
X135438095Y-81147619D02*
X135485714Y-81100000D01*
X135580952Y-81052380D01*
X135819047Y-81052380D01*
X135914285Y-81100000D01*
X135961904Y-81147619D01*
X136009523Y-81242857D01*
X136009523Y-81338095D01*
X135961904Y-81480952D01*
X135390476Y-82052380D01*
X136009523Y-82052380D01*
X136914285Y-81052380D02*
X136438095Y-81052380D01*
X136390476Y-81528571D01*
X136438095Y-81480952D01*
X136533333Y-81433333D01*
X136771428Y-81433333D01*
X136866666Y-81480952D01*
X136914285Y-81528571D01*
X136961904Y-81623809D01*
X136961904Y-81861904D01*
X136914285Y-81957142D01*
X136866666Y-82004761D01*
X136771428Y-82052380D01*
X136533333Y-82052380D01*
X136438095Y-82004761D01*
X136390476Y-81957142D01*
%TO.C,D9*%
X167371904Y-82142380D02*
X167371904Y-81142380D01*
X167610000Y-81142380D01*
X167752857Y-81190000D01*
X167848095Y-81285238D01*
X167895714Y-81380476D01*
X167943333Y-81570952D01*
X167943333Y-81713809D01*
X167895714Y-81904285D01*
X167848095Y-81999523D01*
X167752857Y-82094761D01*
X167610000Y-82142380D01*
X167371904Y-82142380D01*
X168419523Y-82142380D02*
X168610000Y-82142380D01*
X168705238Y-82094761D01*
X168752857Y-82047142D01*
X168848095Y-81904285D01*
X168895714Y-81713809D01*
X168895714Y-81332857D01*
X168848095Y-81237619D01*
X168800476Y-81190000D01*
X168705238Y-81142380D01*
X168514761Y-81142380D01*
X168419523Y-81190000D01*
X168371904Y-81237619D01*
X168324285Y-81332857D01*
X168324285Y-81570952D01*
X168371904Y-81666190D01*
X168419523Y-81713809D01*
X168514761Y-81761428D01*
X168705238Y-81761428D01*
X168800476Y-81713809D01*
X168848095Y-81666190D01*
X168895714Y-81570952D01*
%TO.C,U7*%
X134052380Y-90061904D02*
X134861904Y-90061904D01*
X134957142Y-90014285D01*
X135004761Y-89966666D01*
X135052380Y-89871428D01*
X135052380Y-89680952D01*
X135004761Y-89585714D01*
X134957142Y-89538095D01*
X134861904Y-89490476D01*
X134052380Y-89490476D01*
X134052380Y-89109523D02*
X134052380Y-88442857D01*
X135052380Y-88871428D01*
%TO.C,D12*%
X149085714Y-82082380D02*
X149085714Y-81082380D01*
X149323809Y-81082380D01*
X149466666Y-81130000D01*
X149561904Y-81225238D01*
X149609523Y-81320476D01*
X149657142Y-81510952D01*
X149657142Y-81653809D01*
X149609523Y-81844285D01*
X149561904Y-81939523D01*
X149466666Y-82034761D01*
X149323809Y-82082380D01*
X149085714Y-82082380D01*
X150609523Y-82082380D02*
X150038095Y-82082380D01*
X150323809Y-82082380D02*
X150323809Y-81082380D01*
X150228571Y-81225238D01*
X150133333Y-81320476D01*
X150038095Y-81368095D01*
X150990476Y-81177619D02*
X151038095Y-81130000D01*
X151133333Y-81082380D01*
X151371428Y-81082380D01*
X151466666Y-81130000D01*
X151514285Y-81177619D01*
X151561904Y-81272857D01*
X151561904Y-81368095D01*
X151514285Y-81510952D01*
X150942857Y-82082380D01*
X151561904Y-82082380D01*
%TO.C,D3*%
X169752380Y-101338095D02*
X168752380Y-101338095D01*
X168752380Y-101100000D01*
X168800000Y-100957142D01*
X168895238Y-100861904D01*
X168990476Y-100814285D01*
X169180952Y-100766666D01*
X169323809Y-100766666D01*
X169514285Y-100814285D01*
X169609523Y-100861904D01*
X169704761Y-100957142D01*
X169752380Y-101100000D01*
X169752380Y-101338095D01*
X168752380Y-100433333D02*
X168752380Y-99814285D01*
X169133333Y-100147619D01*
X169133333Y-100004761D01*
X169180952Y-99909523D01*
X169228571Y-99861904D01*
X169323809Y-99814285D01*
X169561904Y-99814285D01*
X169657142Y-99861904D01*
X169704761Y-99909523D01*
X169752380Y-100004761D01*
X169752380Y-100290476D01*
X169704761Y-100385714D01*
X169657142Y-100433333D01*
%TO.C,J1*%
X141416666Y-118002380D02*
X141416666Y-118716666D01*
X141369047Y-118859523D01*
X141273809Y-118954761D01*
X141130952Y-119002380D01*
X141035714Y-119002380D01*
X142416666Y-119002380D02*
X141845238Y-119002380D01*
X142130952Y-119002380D02*
X142130952Y-118002380D01*
X142035714Y-118145238D01*
X141940476Y-118240476D01*
X141845238Y-118288095D01*
%TO.C,U1*%
X171152380Y-90061904D02*
X171961904Y-90061904D01*
X172057142Y-90014285D01*
X172104761Y-89966666D01*
X172152380Y-89871428D01*
X172152380Y-89680952D01*
X172104761Y-89585714D01*
X172057142Y-89538095D01*
X171961904Y-89490476D01*
X171152380Y-89490476D01*
X172152380Y-88490476D02*
X172152380Y-89061904D01*
X172152380Y-88776190D02*
X171152380Y-88776190D01*
X171295238Y-88871428D01*
X171390476Y-88966666D01*
X171438095Y-89061904D01*
%TO.C,D10*%
X161085714Y-82152380D02*
X161085714Y-81152380D01*
X161323809Y-81152380D01*
X161466666Y-81200000D01*
X161561904Y-81295238D01*
X161609523Y-81390476D01*
X161657142Y-81580952D01*
X161657142Y-81723809D01*
X161609523Y-81914285D01*
X161561904Y-82009523D01*
X161466666Y-82104761D01*
X161323809Y-82152380D01*
X161085714Y-82152380D01*
X162609523Y-82152380D02*
X162038095Y-82152380D01*
X162323809Y-82152380D02*
X162323809Y-81152380D01*
X162228571Y-81295238D01*
X162133333Y-81390476D01*
X162038095Y-81438095D01*
X163228571Y-81152380D02*
X163323809Y-81152380D01*
X163419047Y-81200000D01*
X163466666Y-81247619D01*
X163514285Y-81342857D01*
X163561904Y-81533333D01*
X163561904Y-81771428D01*
X163514285Y-81961904D01*
X163466666Y-82057142D01*
X163419047Y-82104761D01*
X163323809Y-82152380D01*
X163228571Y-82152380D01*
X163133333Y-82104761D01*
X163085714Y-82057142D01*
X163038095Y-81961904D01*
X162990476Y-81771428D01*
X162990476Y-81533333D01*
X163038095Y-81342857D01*
X163085714Y-81247619D01*
X163133333Y-81200000D01*
X163228571Y-81152380D01*
%TO.C,F4*%
X157888571Y-85793333D02*
X157888571Y-86126666D01*
X158412380Y-86126666D02*
X157412380Y-86126666D01*
X157412380Y-85650476D01*
X157745714Y-84840952D02*
X158412380Y-84840952D01*
X157364761Y-85079047D02*
X158079047Y-85317142D01*
X158079047Y-84698095D01*
%TO.C,Q8*%
X131754761Y-112110119D02*
X131659523Y-112062500D01*
X131564285Y-111967261D01*
X131421428Y-111824404D01*
X131326190Y-111776785D01*
X131230952Y-111776785D01*
X131278571Y-112014880D02*
X131183333Y-111967261D01*
X131088095Y-111872023D01*
X131040476Y-111681547D01*
X131040476Y-111348214D01*
X131088095Y-111157738D01*
X131183333Y-111062500D01*
X131278571Y-111014880D01*
X131469047Y-111014880D01*
X131564285Y-111062500D01*
X131659523Y-111157738D01*
X131707142Y-111348214D01*
X131707142Y-111681547D01*
X131659523Y-111872023D01*
X131564285Y-111967261D01*
X131469047Y-112014880D01*
X131278571Y-112014880D01*
X132278571Y-111443452D02*
X132183333Y-111395833D01*
X132135714Y-111348214D01*
X132088095Y-111252976D01*
X132088095Y-111205357D01*
X132135714Y-111110119D01*
X132183333Y-111062500D01*
X132278571Y-111014880D01*
X132469047Y-111014880D01*
X132564285Y-111062500D01*
X132611904Y-111110119D01*
X132659523Y-111205357D01*
X132659523Y-111252976D01*
X132611904Y-111348214D01*
X132564285Y-111395833D01*
X132469047Y-111443452D01*
X132278571Y-111443452D01*
X132183333Y-111491071D01*
X132135714Y-111538690D01*
X132088095Y-111633928D01*
X132088095Y-111824404D01*
X132135714Y-111919642D01*
X132183333Y-111967261D01*
X132278571Y-112014880D01*
X132469047Y-112014880D01*
X132564285Y-111967261D01*
X132611904Y-111919642D01*
X132659523Y-111824404D01*
X132659523Y-111633928D01*
X132611904Y-111538690D01*
X132564285Y-111491071D01*
X132469047Y-111443452D01*
%TO.C,R25*%
X128057142Y-106752380D02*
X127723809Y-106276190D01*
X127485714Y-106752380D02*
X127485714Y-105752380D01*
X127866666Y-105752380D01*
X127961904Y-105800000D01*
X128009523Y-105847619D01*
X128057142Y-105942857D01*
X128057142Y-106085714D01*
X128009523Y-106180952D01*
X127961904Y-106228571D01*
X127866666Y-106276190D01*
X127485714Y-106276190D01*
X128438095Y-105847619D02*
X128485714Y-105800000D01*
X128580952Y-105752380D01*
X128819047Y-105752380D01*
X128914285Y-105800000D01*
X128961904Y-105847619D01*
X129009523Y-105942857D01*
X129009523Y-106038095D01*
X128961904Y-106180952D01*
X128390476Y-106752380D01*
X129009523Y-106752380D01*
X129914285Y-105752380D02*
X129438095Y-105752380D01*
X129390476Y-106228571D01*
X129438095Y-106180952D01*
X129533333Y-106133333D01*
X129771428Y-106133333D01*
X129866666Y-106180952D01*
X129914285Y-106228571D01*
X129961904Y-106323809D01*
X129961904Y-106561904D01*
X129914285Y-106657142D01*
X129866666Y-106704761D01*
X129771428Y-106752380D01*
X129533333Y-106752380D01*
X129438095Y-106704761D01*
X129390476Y-106657142D01*
%TO.C,D13*%
X143085714Y-82052380D02*
X143085714Y-81052380D01*
X143323809Y-81052380D01*
X143466666Y-81100000D01*
X143561904Y-81195238D01*
X143609523Y-81290476D01*
X143657142Y-81480952D01*
X143657142Y-81623809D01*
X143609523Y-81814285D01*
X143561904Y-81909523D01*
X143466666Y-82004761D01*
X143323809Y-82052380D01*
X143085714Y-82052380D01*
X144609523Y-82052380D02*
X144038095Y-82052380D01*
X144323809Y-82052380D02*
X144323809Y-81052380D01*
X144228571Y-81195238D01*
X144133333Y-81290476D01*
X144038095Y-81338095D01*
X144942857Y-81052380D02*
X145561904Y-81052380D01*
X145228571Y-81433333D01*
X145371428Y-81433333D01*
X145466666Y-81480952D01*
X145514285Y-81528571D01*
X145561904Y-81623809D01*
X145561904Y-81861904D01*
X145514285Y-81957142D01*
X145466666Y-82004761D01*
X145371428Y-82052380D01*
X145085714Y-82052380D01*
X144990476Y-82004761D01*
X144942857Y-81957142D01*
%TO.C,R8*%
X161133333Y-112052380D02*
X160800000Y-111576190D01*
X160561904Y-112052380D02*
X160561904Y-111052380D01*
X160942857Y-111052380D01*
X161038095Y-111100000D01*
X161085714Y-111147619D01*
X161133333Y-111242857D01*
X161133333Y-111385714D01*
X161085714Y-111480952D01*
X161038095Y-111528571D01*
X160942857Y-111576190D01*
X160561904Y-111576190D01*
X161704761Y-111480952D02*
X161609523Y-111433333D01*
X161561904Y-111385714D01*
X161514285Y-111290476D01*
X161514285Y-111242857D01*
X161561904Y-111147619D01*
X161609523Y-111100000D01*
X161704761Y-111052380D01*
X161895238Y-111052380D01*
X161990476Y-111100000D01*
X162038095Y-111147619D01*
X162085714Y-111242857D01*
X162085714Y-111290476D01*
X162038095Y-111385714D01*
X161990476Y-111433333D01*
X161895238Y-111480952D01*
X161704761Y-111480952D01*
X161609523Y-111528571D01*
X161561904Y-111576190D01*
X161514285Y-111671428D01*
X161514285Y-111861904D01*
X161561904Y-111957142D01*
X161609523Y-112004761D01*
X161704761Y-112052380D01*
X161895238Y-112052380D01*
X161990476Y-112004761D01*
X162038095Y-111957142D01*
X162085714Y-111861904D01*
X162085714Y-111671428D01*
X162038095Y-111576190D01*
X161990476Y-111528571D01*
X161895238Y-111480952D01*
%TO.C,R11*%
X156807142Y-106752380D02*
X156473809Y-106276190D01*
X156235714Y-106752380D02*
X156235714Y-105752380D01*
X156616666Y-105752380D01*
X156711904Y-105800000D01*
X156759523Y-105847619D01*
X156807142Y-105942857D01*
X156807142Y-106085714D01*
X156759523Y-106180952D01*
X156711904Y-106228571D01*
X156616666Y-106276190D01*
X156235714Y-106276190D01*
X157759523Y-106752380D02*
X157188095Y-106752380D01*
X157473809Y-106752380D02*
X157473809Y-105752380D01*
X157378571Y-105895238D01*
X157283333Y-105990476D01*
X157188095Y-106038095D01*
X158711904Y-106752380D02*
X158140476Y-106752380D01*
X158426190Y-106752380D02*
X158426190Y-105752380D01*
X158330952Y-105895238D01*
X158235714Y-105990476D01*
X158140476Y-106038095D01*
%TO.C,R22*%
X137507142Y-106702380D02*
X137173809Y-106226190D01*
X136935714Y-106702380D02*
X136935714Y-105702380D01*
X137316666Y-105702380D01*
X137411904Y-105750000D01*
X137459523Y-105797619D01*
X137507142Y-105892857D01*
X137507142Y-106035714D01*
X137459523Y-106130952D01*
X137411904Y-106178571D01*
X137316666Y-106226190D01*
X136935714Y-106226190D01*
X137888095Y-105797619D02*
X137935714Y-105750000D01*
X138030952Y-105702380D01*
X138269047Y-105702380D01*
X138364285Y-105750000D01*
X138411904Y-105797619D01*
X138459523Y-105892857D01*
X138459523Y-105988095D01*
X138411904Y-106130952D01*
X137840476Y-106702380D01*
X138459523Y-106702380D01*
X138840476Y-105797619D02*
X138888095Y-105750000D01*
X138983333Y-105702380D01*
X139221428Y-105702380D01*
X139316666Y-105750000D01*
X139364285Y-105797619D01*
X139411904Y-105892857D01*
X139411904Y-105988095D01*
X139364285Y-106130952D01*
X138792857Y-106702380D01*
X139411904Y-106702380D01*
%TO.C,D22*%
X137385714Y-82052380D02*
X137385714Y-81052380D01*
X137623809Y-81052380D01*
X137766666Y-81100000D01*
X137861904Y-81195238D01*
X137909523Y-81290476D01*
X137957142Y-81480952D01*
X137957142Y-81623809D01*
X137909523Y-81814285D01*
X137861904Y-81909523D01*
X137766666Y-82004761D01*
X137623809Y-82052380D01*
X137385714Y-82052380D01*
X138338095Y-81147619D02*
X138385714Y-81100000D01*
X138480952Y-81052380D01*
X138719047Y-81052380D01*
X138814285Y-81100000D01*
X138861904Y-81147619D01*
X138909523Y-81242857D01*
X138909523Y-81338095D01*
X138861904Y-81480952D01*
X138290476Y-82052380D01*
X138909523Y-82052380D01*
X139290476Y-81147619D02*
X139338095Y-81100000D01*
X139433333Y-81052380D01*
X139671428Y-81052380D01*
X139766666Y-81100000D01*
X139814285Y-81147619D01*
X139861904Y-81242857D01*
X139861904Y-81338095D01*
X139814285Y-81480952D01*
X139242857Y-82052380D01*
X139861904Y-82052380D01*
%TO.C,U2*%
X165852380Y-90061904D02*
X166661904Y-90061904D01*
X166757142Y-90014285D01*
X166804761Y-89966666D01*
X166852380Y-89871428D01*
X166852380Y-89680952D01*
X166804761Y-89585714D01*
X166757142Y-89538095D01*
X166661904Y-89490476D01*
X165852380Y-89490476D01*
X165947619Y-89061904D02*
X165900000Y-89014285D01*
X165852380Y-88919047D01*
X165852380Y-88680952D01*
X165900000Y-88585714D01*
X165947619Y-88538095D01*
X166042857Y-88490476D01*
X166138095Y-88490476D01*
X166280952Y-88538095D01*
X166852380Y-89109523D01*
X166852380Y-88490476D01*
%TO.C,R5*%
X169833333Y-106752380D02*
X169500000Y-106276190D01*
X169261904Y-106752380D02*
X169261904Y-105752380D01*
X169642857Y-105752380D01*
X169738095Y-105800000D01*
X169785714Y-105847619D01*
X169833333Y-105942857D01*
X169833333Y-106085714D01*
X169785714Y-106180952D01*
X169738095Y-106228571D01*
X169642857Y-106276190D01*
X169261904Y-106276190D01*
X170738095Y-105752380D02*
X170261904Y-105752380D01*
X170214285Y-106228571D01*
X170261904Y-106180952D01*
X170357142Y-106133333D01*
X170595238Y-106133333D01*
X170690476Y-106180952D01*
X170738095Y-106228571D01*
X170785714Y-106323809D01*
X170785714Y-106561904D01*
X170738095Y-106657142D01*
X170690476Y-106704761D01*
X170595238Y-106752380D01*
X170357142Y-106752380D01*
X170261904Y-106704761D01*
X170214285Y-106657142D01*
%TO.C,F5*%
X152598571Y-85955833D02*
X152598571Y-86289166D01*
X153122380Y-86289166D02*
X152122380Y-86289166D01*
X152122380Y-85812976D01*
X152122380Y-84955833D02*
X152122380Y-85432023D01*
X152598571Y-85479642D01*
X152550952Y-85432023D01*
X152503333Y-85336785D01*
X152503333Y-85098690D01*
X152550952Y-85003452D01*
X152598571Y-84955833D01*
X152693809Y-84908214D01*
X152931904Y-84908214D01*
X153027142Y-84955833D01*
X153074761Y-85003452D01*
X153122380Y-85098690D01*
X153122380Y-85336785D01*
X153074761Y-85432023D01*
X153027142Y-85479642D01*
%TO.C,D1*%
X138149404Y-117272380D02*
X138149404Y-116272380D01*
X138387500Y-116272380D01*
X138530357Y-116320000D01*
X138625595Y-116415238D01*
X138673214Y-116510476D01*
X138720833Y-116700952D01*
X138720833Y-116843809D01*
X138673214Y-117034285D01*
X138625595Y-117129523D01*
X138530357Y-117224761D01*
X138387500Y-117272380D01*
X138149404Y-117272380D01*
X139673214Y-117272380D02*
X139101785Y-117272380D01*
X139387500Y-117272380D02*
X139387500Y-116272380D01*
X139292261Y-116415238D01*
X139197023Y-116510476D01*
X139101785Y-116558095D01*
%TO.C,U8*%
X139352380Y-90061904D02*
X140161904Y-90061904D01*
X140257142Y-90014285D01*
X140304761Y-89966666D01*
X140352380Y-89871428D01*
X140352380Y-89680952D01*
X140304761Y-89585714D01*
X140257142Y-89538095D01*
X140161904Y-89490476D01*
X139352380Y-89490476D01*
X139780952Y-88871428D02*
X139733333Y-88966666D01*
X139685714Y-89014285D01*
X139590476Y-89061904D01*
X139542857Y-89061904D01*
X139447619Y-89014285D01*
X139400000Y-88966666D01*
X139352380Y-88871428D01*
X139352380Y-88680952D01*
X139400000Y-88585714D01*
X139447619Y-88538095D01*
X139542857Y-88490476D01*
X139590476Y-88490476D01*
X139685714Y-88538095D01*
X139733333Y-88585714D01*
X139780952Y-88680952D01*
X139780952Y-88871428D01*
X139828571Y-88966666D01*
X139876190Y-89014285D01*
X139971428Y-89061904D01*
X140161904Y-89061904D01*
X140257142Y-89014285D01*
X140304761Y-88966666D01*
X140352380Y-88871428D01*
X140352380Y-88680952D01*
X140304761Y-88585714D01*
X140257142Y-88538095D01*
X140161904Y-88490476D01*
X139971428Y-88490476D01*
X139876190Y-88538095D01*
X139828571Y-88585714D01*
X139780952Y-88680952D01*
%TO.C,R4*%
X176233333Y-106852380D02*
X175900000Y-106376190D01*
X175661904Y-106852380D02*
X175661904Y-105852380D01*
X176042857Y-105852380D01*
X176138095Y-105900000D01*
X176185714Y-105947619D01*
X176233333Y-106042857D01*
X176233333Y-106185714D01*
X176185714Y-106280952D01*
X176138095Y-106328571D01*
X176042857Y-106376190D01*
X175661904Y-106376190D01*
X177090476Y-106185714D02*
X177090476Y-106852380D01*
X176852380Y-105804761D02*
X176614285Y-106519047D01*
X177233333Y-106519047D01*
%TO.C,R9*%
X154633333Y-111852380D02*
X154300000Y-111376190D01*
X154061904Y-111852380D02*
X154061904Y-110852380D01*
X154442857Y-110852380D01*
X154538095Y-110900000D01*
X154585714Y-110947619D01*
X154633333Y-111042857D01*
X154633333Y-111185714D01*
X154585714Y-111280952D01*
X154538095Y-111328571D01*
X154442857Y-111376190D01*
X154061904Y-111376190D01*
X155109523Y-111852380D02*
X155300000Y-111852380D01*
X155395238Y-111804761D01*
X155442857Y-111757142D01*
X155538095Y-111614285D01*
X155585714Y-111423809D01*
X155585714Y-111042857D01*
X155538095Y-110947619D01*
X155490476Y-110900000D01*
X155395238Y-110852380D01*
X155204761Y-110852380D01*
X155109523Y-110900000D01*
X155061904Y-110947619D01*
X155014285Y-111042857D01*
X155014285Y-111280952D01*
X155061904Y-111376190D01*
X155109523Y-111423809D01*
X155204761Y-111471428D01*
X155395238Y-111471428D01*
X155490476Y-111423809D01*
X155538095Y-111376190D01*
X155585714Y-111280952D01*
%TO.C,R13*%
X153807142Y-106752380D02*
X153473809Y-106276190D01*
X153235714Y-106752380D02*
X153235714Y-105752380D01*
X153616666Y-105752380D01*
X153711904Y-105800000D01*
X153759523Y-105847619D01*
X153807142Y-105942857D01*
X153807142Y-106085714D01*
X153759523Y-106180952D01*
X153711904Y-106228571D01*
X153616666Y-106276190D01*
X153235714Y-106276190D01*
X154759523Y-106752380D02*
X154188095Y-106752380D01*
X154473809Y-106752380D02*
X154473809Y-105752380D01*
X154378571Y-105895238D01*
X154283333Y-105990476D01*
X154188095Y-106038095D01*
X155092857Y-105752380D02*
X155711904Y-105752380D01*
X155378571Y-106133333D01*
X155521428Y-106133333D01*
X155616666Y-106180952D01*
X155664285Y-106228571D01*
X155711904Y-106323809D01*
X155711904Y-106561904D01*
X155664285Y-106657142D01*
X155616666Y-106704761D01*
X155521428Y-106752380D01*
X155235714Y-106752380D01*
X155140476Y-106704761D01*
X155092857Y-106657142D01*
%TO.C,R19*%
X140957142Y-106752380D02*
X140623809Y-106276190D01*
X140385714Y-106752380D02*
X140385714Y-105752380D01*
X140766666Y-105752380D01*
X140861904Y-105800000D01*
X140909523Y-105847619D01*
X140957142Y-105942857D01*
X140957142Y-106085714D01*
X140909523Y-106180952D01*
X140861904Y-106228571D01*
X140766666Y-106276190D01*
X140385714Y-106276190D01*
X141909523Y-106752380D02*
X141338095Y-106752380D01*
X141623809Y-106752380D02*
X141623809Y-105752380D01*
X141528571Y-105895238D01*
X141433333Y-105990476D01*
X141338095Y-106038095D01*
X142385714Y-106752380D02*
X142576190Y-106752380D01*
X142671428Y-106704761D01*
X142719047Y-106657142D01*
X142814285Y-106514285D01*
X142861904Y-106323809D01*
X142861904Y-105942857D01*
X142814285Y-105847619D01*
X142766666Y-105800000D01*
X142671428Y-105752380D01*
X142480952Y-105752380D01*
X142385714Y-105800000D01*
X142338095Y-105847619D01*
X142290476Y-105942857D01*
X142290476Y-106180952D01*
X142338095Y-106276190D01*
X142385714Y-106323809D01*
X142480952Y-106371428D01*
X142671428Y-106371428D01*
X142766666Y-106323809D01*
X142814285Y-106276190D01*
X142861904Y-106180952D01*
%TO.C,R14*%
X147957142Y-112052380D02*
X147623809Y-111576190D01*
X147385714Y-112052380D02*
X147385714Y-111052380D01*
X147766666Y-111052380D01*
X147861904Y-111100000D01*
X147909523Y-111147619D01*
X147957142Y-111242857D01*
X147957142Y-111385714D01*
X147909523Y-111480952D01*
X147861904Y-111528571D01*
X147766666Y-111576190D01*
X147385714Y-111576190D01*
X148909523Y-112052380D02*
X148338095Y-112052380D01*
X148623809Y-112052380D02*
X148623809Y-111052380D01*
X148528571Y-111195238D01*
X148433333Y-111290476D01*
X148338095Y-111338095D01*
X149766666Y-111385714D02*
X149766666Y-112052380D01*
X149528571Y-111004761D02*
X149290476Y-111719047D01*
X149909523Y-111719047D01*
%TO.C,Q6*%
X144604761Y-112172619D02*
X144509523Y-112125000D01*
X144414285Y-112029761D01*
X144271428Y-111886904D01*
X144176190Y-111839285D01*
X144080952Y-111839285D01*
X144128571Y-112077380D02*
X144033333Y-112029761D01*
X143938095Y-111934523D01*
X143890476Y-111744047D01*
X143890476Y-111410714D01*
X143938095Y-111220238D01*
X144033333Y-111125000D01*
X144128571Y-111077380D01*
X144319047Y-111077380D01*
X144414285Y-111125000D01*
X144509523Y-111220238D01*
X144557142Y-111410714D01*
X144557142Y-111744047D01*
X144509523Y-111934523D01*
X144414285Y-112029761D01*
X144319047Y-112077380D01*
X144128571Y-112077380D01*
X145414285Y-111077380D02*
X145223809Y-111077380D01*
X145128571Y-111125000D01*
X145080952Y-111172619D01*
X144985714Y-111315476D01*
X144938095Y-111505952D01*
X144938095Y-111886904D01*
X144985714Y-111982142D01*
X145033333Y-112029761D01*
X145128571Y-112077380D01*
X145319047Y-112077380D01*
X145414285Y-112029761D01*
X145461904Y-111982142D01*
X145509523Y-111886904D01*
X145509523Y-111648809D01*
X145461904Y-111553571D01*
X145414285Y-111505952D01*
X145319047Y-111458333D01*
X145128571Y-111458333D01*
X145033333Y-111505952D01*
X144985714Y-111553571D01*
X144938095Y-111648809D01*
%TO.C,J2*%
X178032380Y-71763333D02*
X178746666Y-71763333D01*
X178889523Y-71810952D01*
X178984761Y-71906190D01*
X179032380Y-72049047D01*
X179032380Y-72144285D01*
X178127619Y-71334761D02*
X178080000Y-71287142D01*
X178032380Y-71191904D01*
X178032380Y-70953809D01*
X178080000Y-70858571D01*
X178127619Y-70810952D01*
X178222857Y-70763333D01*
X178318095Y-70763333D01*
X178460952Y-70810952D01*
X179032380Y-71382380D01*
X179032380Y-70763333D01*
%TO.C,F6*%
X147168571Y-85800833D02*
X147168571Y-86134166D01*
X147692380Y-86134166D02*
X146692380Y-86134166D01*
X146692380Y-85657976D01*
X146692380Y-84848452D02*
X146692380Y-85038928D01*
X146740000Y-85134166D01*
X146787619Y-85181785D01*
X146930476Y-85277023D01*
X147120952Y-85324642D01*
X147501904Y-85324642D01*
X147597142Y-85277023D01*
X147644761Y-85229404D01*
X147692380Y-85134166D01*
X147692380Y-84943690D01*
X147644761Y-84848452D01*
X147597142Y-84800833D01*
X147501904Y-84753214D01*
X147263809Y-84753214D01*
X147168571Y-84800833D01*
X147120952Y-84848452D01*
X147073333Y-84943690D01*
X147073333Y-85134166D01*
X147120952Y-85229404D01*
X147168571Y-85277023D01*
X147263809Y-85324642D01*
%TO.C,D8*%
X173211904Y-82102380D02*
X173211904Y-81102380D01*
X173450000Y-81102380D01*
X173592857Y-81150000D01*
X173688095Y-81245238D01*
X173735714Y-81340476D01*
X173783333Y-81530952D01*
X173783333Y-81673809D01*
X173735714Y-81864285D01*
X173688095Y-81959523D01*
X173592857Y-82054761D01*
X173450000Y-82102380D01*
X173211904Y-82102380D01*
X174354761Y-81530952D02*
X174259523Y-81483333D01*
X174211904Y-81435714D01*
X174164285Y-81340476D01*
X174164285Y-81292857D01*
X174211904Y-81197619D01*
X174259523Y-81150000D01*
X174354761Y-81102380D01*
X174545238Y-81102380D01*
X174640476Y-81150000D01*
X174688095Y-81197619D01*
X174735714Y-81292857D01*
X174735714Y-81340476D01*
X174688095Y-81435714D01*
X174640476Y-81483333D01*
X174545238Y-81530952D01*
X174354761Y-81530952D01*
X174259523Y-81578571D01*
X174211904Y-81626190D01*
X174164285Y-81721428D01*
X174164285Y-81911904D01*
X174211904Y-82007142D01*
X174259523Y-82054761D01*
X174354761Y-82102380D01*
X174545238Y-82102380D01*
X174640476Y-82054761D01*
X174688095Y-82007142D01*
X174735714Y-81911904D01*
X174735714Y-81721428D01*
X174688095Y-81626190D01*
X174640476Y-81578571D01*
X174545238Y-81530952D01*
%TO.C,U3*%
X160552380Y-90061904D02*
X161361904Y-90061904D01*
X161457142Y-90014285D01*
X161504761Y-89966666D01*
X161552380Y-89871428D01*
X161552380Y-89680952D01*
X161504761Y-89585714D01*
X161457142Y-89538095D01*
X161361904Y-89490476D01*
X160552380Y-89490476D01*
X160552380Y-89109523D02*
X160552380Y-88490476D01*
X160933333Y-88823809D01*
X160933333Y-88680952D01*
X160980952Y-88585714D01*
X161028571Y-88538095D01*
X161123809Y-88490476D01*
X161361904Y-88490476D01*
X161457142Y-88538095D01*
X161504761Y-88585714D01*
X161552380Y-88680952D01*
X161552380Y-88966666D01*
X161504761Y-89061904D01*
X161457142Y-89109523D01*
%TO.C,R23*%
X131007142Y-106752380D02*
X130673809Y-106276190D01*
X130435714Y-106752380D02*
X130435714Y-105752380D01*
X130816666Y-105752380D01*
X130911904Y-105800000D01*
X130959523Y-105847619D01*
X131007142Y-105942857D01*
X131007142Y-106085714D01*
X130959523Y-106180952D01*
X130911904Y-106228571D01*
X130816666Y-106276190D01*
X130435714Y-106276190D01*
X131388095Y-105847619D02*
X131435714Y-105800000D01*
X131530952Y-105752380D01*
X131769047Y-105752380D01*
X131864285Y-105800000D01*
X131911904Y-105847619D01*
X131959523Y-105942857D01*
X131959523Y-106038095D01*
X131911904Y-106180952D01*
X131340476Y-106752380D01*
X131959523Y-106752380D01*
X132292857Y-105752380D02*
X132911904Y-105752380D01*
X132578571Y-106133333D01*
X132721428Y-106133333D01*
X132816666Y-106180952D01*
X132864285Y-106228571D01*
X132911904Y-106323809D01*
X132911904Y-106561904D01*
X132864285Y-106657142D01*
X132816666Y-106704761D01*
X132721428Y-106752380D01*
X132435714Y-106752380D01*
X132340476Y-106704761D01*
X132292857Y-106657142D01*
%TO.C,R1*%
X133913333Y-117132380D02*
X133580000Y-116656190D01*
X133341904Y-117132380D02*
X133341904Y-116132380D01*
X133722857Y-116132380D01*
X133818095Y-116180000D01*
X133865714Y-116227619D01*
X133913333Y-116322857D01*
X133913333Y-116465714D01*
X133865714Y-116560952D01*
X133818095Y-116608571D01*
X133722857Y-116656190D01*
X133341904Y-116656190D01*
X134865714Y-117132380D02*
X134294285Y-117132380D01*
X134580000Y-117132380D02*
X134580000Y-116132380D01*
X134484761Y-116275238D01*
X134389523Y-116370476D01*
X134294285Y-116418095D01*
%TO.C,R21*%
X128557142Y-112052380D02*
X128223809Y-111576190D01*
X127985714Y-112052380D02*
X127985714Y-111052380D01*
X128366666Y-111052380D01*
X128461904Y-111100000D01*
X128509523Y-111147619D01*
X128557142Y-111242857D01*
X128557142Y-111385714D01*
X128509523Y-111480952D01*
X128461904Y-111528571D01*
X128366666Y-111576190D01*
X127985714Y-111576190D01*
X128938095Y-111147619D02*
X128985714Y-111100000D01*
X129080952Y-111052380D01*
X129319047Y-111052380D01*
X129414285Y-111100000D01*
X129461904Y-111147619D01*
X129509523Y-111242857D01*
X129509523Y-111338095D01*
X129461904Y-111480952D01*
X128890476Y-112052380D01*
X129509523Y-112052380D01*
X130461904Y-112052380D02*
X129890476Y-112052380D01*
X130176190Y-112052380D02*
X130176190Y-111052380D01*
X130080952Y-111195238D01*
X129985714Y-111290476D01*
X129890476Y-111338095D01*
%TO.C,U4*%
X155232380Y-90061904D02*
X156041904Y-90061904D01*
X156137142Y-90014285D01*
X156184761Y-89966666D01*
X156232380Y-89871428D01*
X156232380Y-89680952D01*
X156184761Y-89585714D01*
X156137142Y-89538095D01*
X156041904Y-89490476D01*
X155232380Y-89490476D01*
X155565714Y-88585714D02*
X156232380Y-88585714D01*
X155184761Y-88823809D02*
X155899047Y-89061904D01*
X155899047Y-88442857D01*
%TO.C,Q5*%
X151204761Y-112210119D02*
X151109523Y-112162500D01*
X151014285Y-112067261D01*
X150871428Y-111924404D01*
X150776190Y-111876785D01*
X150680952Y-111876785D01*
X150728571Y-112114880D02*
X150633333Y-112067261D01*
X150538095Y-111972023D01*
X150490476Y-111781547D01*
X150490476Y-111448214D01*
X150538095Y-111257738D01*
X150633333Y-111162500D01*
X150728571Y-111114880D01*
X150919047Y-111114880D01*
X151014285Y-111162500D01*
X151109523Y-111257738D01*
X151157142Y-111448214D01*
X151157142Y-111781547D01*
X151109523Y-111972023D01*
X151014285Y-112067261D01*
X150919047Y-112114880D01*
X150728571Y-112114880D01*
X152061904Y-111114880D02*
X151585714Y-111114880D01*
X151538095Y-111591071D01*
X151585714Y-111543452D01*
X151680952Y-111495833D01*
X151919047Y-111495833D01*
X152014285Y-111543452D01*
X152061904Y-111591071D01*
X152109523Y-111686309D01*
X152109523Y-111924404D01*
X152061904Y-112019642D01*
X152014285Y-112067261D01*
X151919047Y-112114880D01*
X151680952Y-112114880D01*
X151585714Y-112067261D01*
X151538095Y-112019642D01*
%TO.C,D6*%
X150602380Y-101388095D02*
X149602380Y-101388095D01*
X149602380Y-101150000D01*
X149650000Y-101007142D01*
X149745238Y-100911904D01*
X149840476Y-100864285D01*
X150030952Y-100816666D01*
X150173809Y-100816666D01*
X150364285Y-100864285D01*
X150459523Y-100911904D01*
X150554761Y-101007142D01*
X150602380Y-101150000D01*
X150602380Y-101388095D01*
X149602380Y-99959523D02*
X149602380Y-100150000D01*
X149650000Y-100245238D01*
X149697619Y-100292857D01*
X149840476Y-100388095D01*
X150030952Y-100435714D01*
X150411904Y-100435714D01*
X150507142Y-100388095D01*
X150554761Y-100340476D01*
X150602380Y-100245238D01*
X150602380Y-100054761D01*
X150554761Y-99959523D01*
X150507142Y-99911904D01*
X150411904Y-99864285D01*
X150173809Y-99864285D01*
X150078571Y-99911904D01*
X150030952Y-99959523D01*
X149983333Y-100054761D01*
X149983333Y-100245238D01*
X150030952Y-100340476D01*
X150078571Y-100388095D01*
X150173809Y-100435714D01*
%TO.C,D20*%
X137552380Y-101364285D02*
X136552380Y-101364285D01*
X136552380Y-101126190D01*
X136600000Y-100983333D01*
X136695238Y-100888095D01*
X136790476Y-100840476D01*
X136980952Y-100792857D01*
X137123809Y-100792857D01*
X137314285Y-100840476D01*
X137409523Y-100888095D01*
X137504761Y-100983333D01*
X137552380Y-101126190D01*
X137552380Y-101364285D01*
X136647619Y-100411904D02*
X136600000Y-100364285D01*
X136552380Y-100269047D01*
X136552380Y-100030952D01*
X136600000Y-99935714D01*
X136647619Y-99888095D01*
X136742857Y-99840476D01*
X136838095Y-99840476D01*
X136980952Y-99888095D01*
X137552380Y-100459523D01*
X137552380Y-99840476D01*
X136552380Y-99221428D02*
X136552380Y-99126190D01*
X136600000Y-99030952D01*
X136647619Y-98983333D01*
X136742857Y-98935714D01*
X136933333Y-98888095D01*
X137171428Y-98888095D01*
X137361904Y-98935714D01*
X137457142Y-98983333D01*
X137504761Y-99030952D01*
X137552380Y-99126190D01*
X137552380Y-99221428D01*
X137504761Y-99316666D01*
X137457142Y-99364285D01*
X137361904Y-99411904D01*
X137171428Y-99459523D01*
X136933333Y-99459523D01*
X136742857Y-99411904D01*
X136647619Y-99364285D01*
X136600000Y-99316666D01*
X136552380Y-99221428D01*
%TO.C,R10*%
X163207142Y-106752380D02*
X162873809Y-106276190D01*
X162635714Y-106752380D02*
X162635714Y-105752380D01*
X163016666Y-105752380D01*
X163111904Y-105800000D01*
X163159523Y-105847619D01*
X163207142Y-105942857D01*
X163207142Y-106085714D01*
X163159523Y-106180952D01*
X163111904Y-106228571D01*
X163016666Y-106276190D01*
X162635714Y-106276190D01*
X164159523Y-106752380D02*
X163588095Y-106752380D01*
X163873809Y-106752380D02*
X163873809Y-105752380D01*
X163778571Y-105895238D01*
X163683333Y-105990476D01*
X163588095Y-106038095D01*
X164778571Y-105752380D02*
X164873809Y-105752380D01*
X164969047Y-105800000D01*
X165016666Y-105847619D01*
X165064285Y-105942857D01*
X165111904Y-106133333D01*
X165111904Y-106371428D01*
X165064285Y-106561904D01*
X165016666Y-106657142D01*
X164969047Y-106704761D01*
X164873809Y-106752380D01*
X164778571Y-106752380D01*
X164683333Y-106704761D01*
X164635714Y-106657142D01*
X164588095Y-106561904D01*
X164540476Y-106371428D01*
X164540476Y-106133333D01*
X164588095Y-105942857D01*
X164635714Y-105847619D01*
X164683333Y-105800000D01*
X164778571Y-105752380D01*
%TO.C,R2*%
X173833333Y-112052380D02*
X173500000Y-111576190D01*
X173261904Y-112052380D02*
X173261904Y-111052380D01*
X173642857Y-111052380D01*
X173738095Y-111100000D01*
X173785714Y-111147619D01*
X173833333Y-111242857D01*
X173833333Y-111385714D01*
X173785714Y-111480952D01*
X173738095Y-111528571D01*
X173642857Y-111576190D01*
X173261904Y-111576190D01*
X174214285Y-111147619D02*
X174261904Y-111100000D01*
X174357142Y-111052380D01*
X174595238Y-111052380D01*
X174690476Y-111100000D01*
X174738095Y-111147619D01*
X174785714Y-111242857D01*
X174785714Y-111338095D01*
X174738095Y-111480952D01*
X174166666Y-112052380D01*
X174785714Y-112052380D01*
%TO.C,D5*%
X156952380Y-101338095D02*
X155952380Y-101338095D01*
X155952380Y-101100000D01*
X156000000Y-100957142D01*
X156095238Y-100861904D01*
X156190476Y-100814285D01*
X156380952Y-100766666D01*
X156523809Y-100766666D01*
X156714285Y-100814285D01*
X156809523Y-100861904D01*
X156904761Y-100957142D01*
X156952380Y-101100000D01*
X156952380Y-101338095D01*
X155952380Y-99861904D02*
X155952380Y-100338095D01*
X156428571Y-100385714D01*
X156380952Y-100338095D01*
X156333333Y-100242857D01*
X156333333Y-100004761D01*
X156380952Y-99909523D01*
X156428571Y-99861904D01*
X156523809Y-99814285D01*
X156761904Y-99814285D01*
X156857142Y-99861904D01*
X156904761Y-99909523D01*
X156952380Y-100004761D01*
X156952380Y-100242857D01*
X156904761Y-100338095D01*
X156857142Y-100385714D01*
%TO.C,R7*%
X167433333Y-106752380D02*
X167100000Y-106276190D01*
X166861904Y-106752380D02*
X166861904Y-105752380D01*
X167242857Y-105752380D01*
X167338095Y-105800000D01*
X167385714Y-105847619D01*
X167433333Y-105942857D01*
X167433333Y-106085714D01*
X167385714Y-106180952D01*
X167338095Y-106228571D01*
X167242857Y-106276190D01*
X166861904Y-106276190D01*
X167766666Y-105752380D02*
X168433333Y-105752380D01*
X168004761Y-106752380D01*
%TO.C,D24*%
X140285714Y-82052380D02*
X140285714Y-81052380D01*
X140523809Y-81052380D01*
X140666666Y-81100000D01*
X140761904Y-81195238D01*
X140809523Y-81290476D01*
X140857142Y-81480952D01*
X140857142Y-81623809D01*
X140809523Y-81814285D01*
X140761904Y-81909523D01*
X140666666Y-82004761D01*
X140523809Y-82052380D01*
X140285714Y-82052380D01*
X141238095Y-81147619D02*
X141285714Y-81100000D01*
X141380952Y-81052380D01*
X141619047Y-81052380D01*
X141714285Y-81100000D01*
X141761904Y-81147619D01*
X141809523Y-81242857D01*
X141809523Y-81338095D01*
X141761904Y-81480952D01*
X141190476Y-82052380D01*
X141809523Y-82052380D01*
X142666666Y-81385714D02*
X142666666Y-82052380D01*
X142428571Y-81004761D02*
X142190476Y-81719047D01*
X142809523Y-81719047D01*
D13*
%TO.C,U6*%
X142940000Y-92200000D02*
X142940000Y-94210000D01*
X147260000Y-92200000D02*
X147260000Y-94210000D01*
X142940000Y-92200000D02*
X142940000Y-90190000D01*
X142940000Y-90190000D02*
X143295000Y-90190000D01*
X142940000Y-94210000D02*
X143295000Y-94210000D01*
X147260000Y-92200000D02*
X147260000Y-90190000D01*
X147260000Y-90190000D02*
X146905000Y-90190000D01*
X147260000Y-94210000D02*
X146905000Y-94210000D01*
X143295000Y-94210000D02*
X143295000Y-95675000D01*
%TO.C,D23*%
X131600000Y-80800000D02*
X133600000Y-80800000D01*
X133600000Y-80800000D02*
X133600000Y-76500000D01*
X131600000Y-76500000D02*
X131600000Y-80800000D01*
%TO.C,Q4*%
X156140000Y-108962500D02*
X156140000Y-110637500D01*
X159260000Y-108962500D02*
X159260000Y-109612500D01*
X156140000Y-108962500D02*
X156140000Y-108312500D01*
X159260000Y-108962500D02*
X159260000Y-108312500D01*
%TO.C,Q7*%
X136740000Y-108962500D02*
X136740000Y-110637500D01*
X139860000Y-108962500D02*
X139860000Y-108312500D01*
X139860000Y-108962500D02*
X139860000Y-109612500D01*
X136740000Y-108962500D02*
X136740000Y-108312500D01*
%TO.C,F8*%
X133040000Y-86189564D02*
X133040000Y-84985436D01*
X135760000Y-86189564D02*
X135760000Y-84985436D01*
%TO.C,D21*%
X133535000Y-96452500D02*
X131265000Y-96452500D01*
X133535000Y-100512500D02*
X133535000Y-96452500D01*
X131265000Y-96452500D02*
X131265000Y-100512500D01*
%TO.C,F7*%
X138540000Y-86189564D02*
X138540000Y-84985436D01*
X141260000Y-86189564D02*
X141260000Y-84985436D01*
%TO.C,Q1*%
X175440000Y-109000000D02*
X175440000Y-110675000D01*
X178560000Y-109000000D02*
X178560000Y-109650000D01*
X178560000Y-109000000D02*
X178560000Y-108350000D01*
X175440000Y-109000000D02*
X175440000Y-108350000D01*
%TO.C,R15*%
X142635000Y-109127064D02*
X142635000Y-108672936D01*
X141165000Y-109127064D02*
X141165000Y-108672936D01*
%TO.C,D18*%
X154100000Y-80000000D02*
X154100000Y-75700000D01*
X154100000Y-75700000D02*
X152100000Y-75700000D01*
X152100000Y-75700000D02*
X152100000Y-80000000D01*
%TO.C,D4*%
X163565000Y-96527500D02*
X163565000Y-100587500D01*
X165835000Y-96527500D02*
X163565000Y-96527500D01*
X165835000Y-100587500D02*
X165835000Y-96527500D01*
%TO.C,R20*%
X136135000Y-109127064D02*
X136135000Y-108672936D01*
X134665000Y-109127064D02*
X134665000Y-108672936D01*
%TO.C,R6*%
X173365000Y-103927064D02*
X173365000Y-103472936D01*
X174835000Y-103927064D02*
X174835000Y-103472936D01*
%TO.C,R12*%
X161935000Y-103927064D02*
X161935000Y-103472936D01*
X160465000Y-103927064D02*
X160465000Y-103472936D01*
%TO.C,D16*%
X166100000Y-80000000D02*
X166100000Y-75700000D01*
X164100000Y-75700000D02*
X164100000Y-80000000D01*
X166100000Y-75700000D02*
X164100000Y-75700000D01*
%TO.C,D17*%
X160100000Y-75700000D02*
X158100000Y-75700000D01*
X158100000Y-75700000D02*
X158100000Y-80000000D01*
X160100000Y-80000000D02*
X160100000Y-75700000D01*
%TO.C,Q2*%
X168940000Y-108937500D02*
X168940000Y-108287500D01*
X172060000Y-108937500D02*
X172060000Y-109587500D01*
X168940000Y-108937500D02*
X168940000Y-110612500D01*
X172060000Y-108937500D02*
X172060000Y-108287500D01*
%TO.C,D14*%
X178000000Y-80000000D02*
X178000000Y-75700000D01*
X178000000Y-75700000D02*
X176000000Y-75700000D01*
X176000000Y-75700000D02*
X176000000Y-80000000D01*
%TO.C,D19*%
X148100000Y-75700000D02*
X146100000Y-75700000D01*
X146100000Y-75700000D02*
X146100000Y-80000000D01*
X148100000Y-80000000D02*
X148100000Y-75700000D01*
%TO.C,D15*%
X172100000Y-80000000D02*
X172100000Y-75700000D01*
X172100000Y-75700000D02*
X170100000Y-75700000D01*
X170100000Y-75700000D02*
X170100000Y-80000000D01*
%TO.C,J3*%
X126670000Y-83185000D02*
X129330000Y-83185000D01*
X126670000Y-78045000D02*
X129330000Y-78045000D01*
X126670000Y-75445000D02*
X128000000Y-75445000D01*
X129330000Y-78045000D02*
X129330000Y-83185000D01*
X126670000Y-76775000D02*
X126670000Y-75445000D01*
X126670000Y-78045000D02*
X126670000Y-83185000D01*
%TO.C,D11*%
X155100000Y-76500000D02*
X155100000Y-80800000D01*
X155100000Y-80800000D02*
X157100000Y-80800000D01*
X157100000Y-80800000D02*
X157100000Y-76500000D01*
%TO.C,F2*%
X167760000Y-86114564D02*
X167760000Y-84910436D01*
X165040000Y-86114564D02*
X165040000Y-84910436D01*
%TO.C,R24*%
X134765000Y-103877064D02*
X134765000Y-103422936D01*
X136235000Y-103877064D02*
X136235000Y-103422936D01*
%TO.C,F3*%
X159740000Y-86114564D02*
X159740000Y-84910436D01*
X162460000Y-86114564D02*
X162460000Y-84910436D01*
%TO.C,Q3*%
X162540000Y-108937500D02*
X162540000Y-108287500D01*
X165660000Y-108937500D02*
X165660000Y-108287500D01*
X162540000Y-108937500D02*
X162540000Y-110612500D01*
X165660000Y-108937500D02*
X165660000Y-109587500D01*
%TO.C,R3*%
X168335000Y-109127064D02*
X168335000Y-108672936D01*
X166865000Y-109127064D02*
X166865000Y-108672936D01*
%TO.C,D2*%
X178735000Y-100512500D02*
X178735000Y-96452500D01*
X176465000Y-96452500D02*
X176465000Y-100512500D01*
X178735000Y-96452500D02*
X176465000Y-96452500D01*
%TO.C,F1*%
X170240000Y-86089564D02*
X170240000Y-84885436D01*
X172960000Y-86089564D02*
X172960000Y-84885436D01*
%TO.C,R18*%
X147665000Y-103927064D02*
X147665000Y-103472936D01*
X149135000Y-103927064D02*
X149135000Y-103472936D01*
%TO.C,U5*%
X152560000Y-92200000D02*
X152560000Y-90190000D01*
X148240000Y-94210000D02*
X148595000Y-94210000D01*
X152560000Y-92200000D02*
X152560000Y-94210000D01*
X148595000Y-94210000D02*
X148595000Y-95675000D01*
X148240000Y-92200000D02*
X148240000Y-94210000D01*
X152560000Y-94210000D02*
X152205000Y-94210000D01*
X152560000Y-90190000D02*
X152205000Y-90190000D01*
X148240000Y-92200000D02*
X148240000Y-90190000D01*
X148240000Y-90190000D02*
X148595000Y-90190000D01*
%TO.C,R16*%
X151435000Y-103927064D02*
X151435000Y-103472936D01*
X149965000Y-103927064D02*
X149965000Y-103472936D01*
%TO.C,D7*%
X146535000Y-100500000D02*
X146535000Y-96440000D01*
X146535000Y-96440000D02*
X144265000Y-96440000D01*
X144265000Y-96440000D02*
X144265000Y-100500000D01*
%TO.C,R17*%
X144935000Y-103927064D02*
X144935000Y-103472936D01*
X143465000Y-103927064D02*
X143465000Y-103472936D01*
%TO.C,D25*%
X136500000Y-80000000D02*
X136500000Y-75700000D01*
X134500000Y-75700000D02*
X134500000Y-80000000D01*
X136500000Y-75700000D02*
X134500000Y-75700000D01*
%TO.C,D9*%
X169100000Y-80800000D02*
X169100000Y-76500000D01*
X167100000Y-76500000D02*
X167100000Y-80800000D01*
X167100000Y-80800000D02*
X169100000Y-80800000D01*
%TO.C,U7*%
X132340000Y-90190000D02*
X132695000Y-90190000D01*
X136660000Y-90190000D02*
X136305000Y-90190000D01*
X136660000Y-92200000D02*
X136660000Y-90190000D01*
X132340000Y-92200000D02*
X132340000Y-90190000D01*
X136660000Y-94210000D02*
X136305000Y-94210000D01*
X132340000Y-94210000D02*
X132695000Y-94210000D01*
X132695000Y-94210000D02*
X132695000Y-95675000D01*
X136660000Y-92200000D02*
X136660000Y-94210000D01*
X132340000Y-92200000D02*
X132340000Y-94210000D01*
%TO.C,D12*%
X149100000Y-80800000D02*
X151100000Y-80800000D01*
X151100000Y-80800000D02*
X151100000Y-76500000D01*
X149100000Y-76500000D02*
X149100000Y-80800000D01*
%TO.C,D3*%
X172235000Y-100512500D02*
X172235000Y-96452500D01*
X169965000Y-96452500D02*
X169965000Y-100512500D01*
X172235000Y-96452500D02*
X169965000Y-96452500D01*
%TO.C,J1*%
X161890000Y-113790000D02*
X163220000Y-113790000D01*
X160620000Y-113790000D02*
X160620000Y-116390000D01*
X142780000Y-113790000D02*
X142780000Y-118990000D01*
X163220000Y-113790000D02*
X163220000Y-115120000D01*
X160620000Y-116390000D02*
X163220000Y-116390000D01*
X163220000Y-118990000D02*
X142780000Y-118990000D01*
X160620000Y-113790000D02*
X142780000Y-113790000D01*
X163220000Y-116390000D02*
X163220000Y-118990000D01*
%TO.C,U1*%
X169440000Y-92200000D02*
X169440000Y-90190000D01*
X173760000Y-90190000D02*
X173405000Y-90190000D01*
X169440000Y-92200000D02*
X169440000Y-94210000D01*
X169440000Y-90190000D02*
X169795000Y-90190000D01*
X169795000Y-94210000D02*
X169795000Y-95675000D01*
X173760000Y-94210000D02*
X173405000Y-94210000D01*
X173760000Y-92200000D02*
X173760000Y-94210000D01*
X169440000Y-94210000D02*
X169795000Y-94210000D01*
X173760000Y-92200000D02*
X173760000Y-90190000D01*
%TO.C,D10*%
X163100000Y-80800000D02*
X163100000Y-76500000D01*
X161100000Y-76500000D02*
X161100000Y-80800000D01*
X161100000Y-80800000D02*
X163100000Y-80800000D01*
%TO.C,F4*%
X157160000Y-86189564D02*
X157160000Y-84985436D01*
X154440000Y-86189564D02*
X154440000Y-84985436D01*
%TO.C,Q8*%
X133410000Y-108962500D02*
X133410000Y-108312500D01*
X130290000Y-108962500D02*
X130290000Y-110637500D01*
X130290000Y-108962500D02*
X130290000Y-108312500D01*
X133410000Y-108962500D02*
X133410000Y-109612500D01*
%TO.C,R25*%
X129635000Y-103877064D02*
X129635000Y-103422936D01*
X128165000Y-103877064D02*
X128165000Y-103422936D01*
%TO.C,D13*%
X145100000Y-80800000D02*
X145100000Y-76500000D01*
X143100000Y-76500000D02*
X143100000Y-80800000D01*
X143100000Y-80800000D02*
X145100000Y-80800000D01*
%TO.C,R8*%
X161935000Y-109127064D02*
X161935000Y-108672936D01*
X160465000Y-109127064D02*
X160465000Y-108672936D01*
%TO.C,R11*%
X157835000Y-103927064D02*
X157835000Y-103472936D01*
X156365000Y-103927064D02*
X156365000Y-103472936D01*
%TO.C,R22*%
X137065000Y-103877064D02*
X137065000Y-103422936D01*
X138535000Y-103877064D02*
X138535000Y-103422936D01*
%TO.C,D22*%
X137400000Y-76500000D02*
X137400000Y-80800000D01*
X137400000Y-80800000D02*
X139400000Y-80800000D01*
X139400000Y-80800000D02*
X139400000Y-76500000D01*
%TO.C,U2*%
X164140000Y-92200000D02*
X164140000Y-94210000D01*
X164495000Y-94210000D02*
X164495000Y-95675000D01*
X164140000Y-90190000D02*
X164495000Y-90190000D01*
X164140000Y-94210000D02*
X164495000Y-94210000D01*
X168460000Y-92200000D02*
X168460000Y-94210000D01*
X164140000Y-92200000D02*
X164140000Y-90190000D01*
X168460000Y-92200000D02*
X168460000Y-90190000D01*
X168460000Y-90190000D02*
X168105000Y-90190000D01*
X168460000Y-94210000D02*
X168105000Y-94210000D01*
%TO.C,R5*%
X170635000Y-103927064D02*
X170635000Y-103472936D01*
X169165000Y-103927064D02*
X169165000Y-103472936D01*
%TO.C,F5*%
X151860000Y-86214564D02*
X151860000Y-85010436D01*
X149140000Y-86214564D02*
X149140000Y-85010436D01*
%TO.C,D1*%
X137287500Y-116135000D02*
X141347500Y-116135000D01*
X141347500Y-116135000D02*
X141347500Y-113865000D01*
X141347500Y-113865000D02*
X137287500Y-113865000D01*
%TO.C,U8*%
X141960000Y-92200000D02*
X141960000Y-94210000D01*
X137640000Y-92200000D02*
X137640000Y-90190000D01*
X137640000Y-92200000D02*
X137640000Y-94210000D01*
X141960000Y-90190000D02*
X141605000Y-90190000D01*
X137995000Y-94210000D02*
X137995000Y-95675000D01*
X141960000Y-94210000D02*
X141605000Y-94210000D01*
X141960000Y-92200000D02*
X141960000Y-90190000D01*
X137640000Y-90190000D02*
X137995000Y-90190000D01*
X137640000Y-94210000D02*
X137995000Y-94210000D01*
%TO.C,R4*%
X177035000Y-103927064D02*
X177035000Y-103472936D01*
X175565000Y-103927064D02*
X175565000Y-103472936D01*
%TO.C,R9*%
X154065000Y-109027064D02*
X154065000Y-108572936D01*
X155535000Y-109027064D02*
X155535000Y-108572936D01*
%TO.C,R13*%
X154065000Y-103927064D02*
X154065000Y-103472936D01*
X155535000Y-103927064D02*
X155535000Y-103472936D01*
%TO.C,R19*%
X142635000Y-103927064D02*
X142635000Y-103472936D01*
X141165000Y-103927064D02*
X141165000Y-103472936D01*
%TO.C,R14*%
X149135000Y-109127064D02*
X149135000Y-108672936D01*
X147665000Y-109127064D02*
X147665000Y-108672936D01*
%TO.C,Q6*%
X146360000Y-108962500D02*
X146360000Y-109612500D01*
X143240000Y-108962500D02*
X143240000Y-110637500D01*
X146360000Y-108962500D02*
X146360000Y-108312500D01*
X143240000Y-108962500D02*
X143240000Y-108312500D01*
%TO.C,J2*%
X175560000Y-73687500D02*
X175860000Y-73087500D01*
X151210000Y-62167500D02*
X151460000Y-60667500D01*
X171780000Y-60667500D02*
X169780000Y-60667500D01*
X175860000Y-73087500D02*
X176160000Y-73687500D01*
X179510000Y-63967500D02*
X126490000Y-63967500D01*
X131140000Y-60667500D02*
X129140000Y-60667500D01*
X179510000Y-60667500D02*
X126490000Y-60667500D01*
X156540000Y-60667500D02*
X154540000Y-60667500D01*
X135970000Y-62167500D02*
X136220000Y-60667500D01*
X179510000Y-72887500D02*
X179510000Y-60667500D01*
X176160000Y-73687500D02*
X175560000Y-73687500D01*
X166450000Y-62167500D02*
X166700000Y-60667500D01*
X161370000Y-62167500D02*
X161620000Y-60667500D01*
X146130000Y-62167500D02*
X146380000Y-60667500D01*
X166700000Y-60667500D02*
X164700000Y-60667500D01*
X156290000Y-62167500D02*
X156540000Y-60667500D01*
X159870000Y-62167500D02*
X161370000Y-62167500D01*
X171530000Y-62167500D02*
X171780000Y-60667500D01*
X179510000Y-62167500D02*
X179510000Y-63967500D01*
X144380000Y-60667500D02*
X144630000Y-62167500D01*
X151460000Y-60667500D02*
X149460000Y-60667500D01*
X126490000Y-62167500D02*
X179510000Y-62167500D01*
X175110000Y-62167500D02*
X176610000Y-62167500D01*
X130890000Y-62167500D02*
X131140000Y-60667500D01*
X159620000Y-60667500D02*
X159870000Y-62167500D01*
X161620000Y-60667500D02*
X159620000Y-60667500D01*
X126490000Y-60667500D02*
X126490000Y-72887500D01*
X170030000Y-62167500D02*
X171530000Y-62167500D01*
X149710000Y-62167500D02*
X151210000Y-62167500D01*
X169780000Y-60667500D02*
X170030000Y-62167500D01*
X126490000Y-72887500D02*
X179510000Y-72887500D01*
X134470000Y-62167500D02*
X135970000Y-62167500D01*
X134220000Y-60667500D02*
X134470000Y-62167500D01*
X154540000Y-60667500D02*
X154790000Y-62167500D01*
X164700000Y-60667500D02*
X164950000Y-62167500D01*
X146380000Y-60667500D02*
X144380000Y-60667500D01*
X174860000Y-60667500D02*
X175110000Y-62167500D01*
X164950000Y-62167500D02*
X166450000Y-62167500D01*
X129140000Y-60667500D02*
X129390000Y-62167500D01*
X149460000Y-60667500D02*
X149710000Y-62167500D01*
X176860000Y-60667500D02*
X174860000Y-60667500D01*
X129390000Y-62167500D02*
X130890000Y-62167500D01*
X154790000Y-62167500D02*
X156290000Y-62167500D01*
X144630000Y-62167500D02*
X146130000Y-62167500D01*
X139300000Y-60667500D02*
X139550000Y-62167500D01*
X126490000Y-63967500D02*
X126490000Y-62167500D01*
X176610000Y-62167500D02*
X176860000Y-60667500D01*
X139550000Y-62167500D02*
X141050000Y-62167500D01*
X136220000Y-60667500D02*
X134220000Y-60667500D01*
X141050000Y-62167500D02*
X141300000Y-60667500D01*
X141300000Y-60667500D02*
X139300000Y-60667500D01*
%TO.C,F6*%
X146460000Y-86189564D02*
X146460000Y-84985436D01*
X143740000Y-86189564D02*
X143740000Y-84985436D01*
%TO.C,D8*%
X175000000Y-80800000D02*
X175000000Y-76500000D01*
X173000000Y-76500000D02*
X173000000Y-80800000D01*
X173000000Y-80800000D02*
X175000000Y-80800000D01*
%TO.C,U3*%
X163160000Y-92200000D02*
X163160000Y-94210000D01*
X163160000Y-90190000D02*
X162805000Y-90190000D01*
X159195000Y-94210000D02*
X159195000Y-95675000D01*
X158840000Y-92200000D02*
X158840000Y-90190000D01*
X158840000Y-90190000D02*
X159195000Y-90190000D01*
X163160000Y-94210000D02*
X162805000Y-94210000D01*
X158840000Y-92200000D02*
X158840000Y-94210000D01*
X158840000Y-94210000D02*
X159195000Y-94210000D01*
X163160000Y-92200000D02*
X163160000Y-90190000D01*
%TO.C,R23*%
X132035000Y-103877064D02*
X132035000Y-103422936D01*
X130565000Y-103877064D02*
X130565000Y-103422936D01*
%TO.C,R1*%
X133772936Y-114265000D02*
X134227064Y-114265000D01*
X133772936Y-115735000D02*
X134227064Y-115735000D01*
%TO.C,R21*%
X128265000Y-109227064D02*
X128265000Y-108772936D01*
X129735000Y-109227064D02*
X129735000Y-108772936D01*
%TO.C,U4*%
X153540000Y-92200000D02*
X153540000Y-90190000D01*
X157860000Y-94210000D02*
X157505000Y-94210000D01*
X153540000Y-94210000D02*
X153895000Y-94210000D01*
X153540000Y-90190000D02*
X153895000Y-90190000D01*
X157860000Y-90190000D02*
X157505000Y-90190000D01*
X153540000Y-92200000D02*
X153540000Y-94210000D01*
X157860000Y-92200000D02*
X157860000Y-94210000D01*
X157860000Y-92200000D02*
X157860000Y-90190000D01*
X153895000Y-94210000D02*
X153895000Y-95675000D01*
%TO.C,Q5*%
X149740000Y-109000000D02*
X149740000Y-110675000D01*
X149740000Y-109000000D02*
X149740000Y-108350000D01*
X152860000Y-109000000D02*
X152860000Y-108350000D01*
X152860000Y-109000000D02*
X152860000Y-109650000D01*
%TO.C,D6*%
X153035000Y-96427500D02*
X150765000Y-96427500D01*
X153035000Y-100487500D02*
X153035000Y-96427500D01*
X150765000Y-96427500D02*
X150765000Y-100487500D01*
%TO.C,D20*%
X140035000Y-100500000D02*
X140035000Y-96440000D01*
X140035000Y-96440000D02*
X137765000Y-96440000D01*
X137765000Y-96440000D02*
X137765000Y-100500000D01*
%TO.C,R10*%
X162765000Y-103927064D02*
X162765000Y-103472936D01*
X164235000Y-103927064D02*
X164235000Y-103472936D01*
%TO.C,R2*%
X174835000Y-109127064D02*
X174835000Y-108672936D01*
X173365000Y-109127064D02*
X173365000Y-108672936D01*
%TO.C,D5*%
X159435000Y-100487500D02*
X159435000Y-96427500D01*
X159435000Y-96427500D02*
X157165000Y-96427500D01*
X157165000Y-96427500D02*
X157165000Y-100487500D01*
%TO.C,R7*%
X168335000Y-103927064D02*
X168335000Y-103472936D01*
X166865000Y-103927064D02*
X166865000Y-103472936D01*
%TO.C,D24*%
X142300000Y-75700000D02*
X140300000Y-75700000D01*
X140300000Y-75700000D02*
X140300000Y-80000000D01*
X142300000Y-80000000D02*
X142300000Y-75700000D01*
%TD*%
M02*
