%TF.GenerationSoftware,KiCad,Pcbnew,6.0.11+dfsg-1~bpo11+1*%
%TF.CreationDate,2023-05-15T10:42:25+02:00*%
%TF.ProjectId,dvert_12,64766572-745f-4313-922e-6b696361645f,rev?*%
%TF.SameCoordinates,Original*%
%TF.FileFunction,Soldermask,Bot*%
%TF.FilePolarity,Negative*%
%FSLAX46Y46*%
G04 Gerber Fmt 4.6, Leading zero omitted, Abs format (unit mm)*
G04 Created by KiCad (PCBNEW 6.0.11+dfsg-1~bpo11+1) date 2023-05-15 10:42:25*
%MOMM*%
%LPD*%
G01*
G04 APERTURE LIST*
G04 Aperture macros list*
%AMRoundRect*
0 Rectangle with rounded corners*
0 $1 Rounding radius*
0 $2 $3 $4 $5 $6 $7 $8 $9 X,Y pos of 4 corners*
0 Add a 4 corners polygon primitive as box body*
4,1,4,$2,$3,$4,$5,$6,$7,$8,$9,$2,$3,0*
0 Add four circle primitives for the rounded corners*
1,1,$1+$1,$2,$3*
1,1,$1+$1,$4,$5*
1,1,$1+$1,$6,$7*
1,1,$1+$1,$8,$9*
0 Add four rect primitives between the rounded corners*
20,1,$1+$1,$2,$3,$4,$5,0*
20,1,$1+$1,$4,$5,$6,$7,0*
20,1,$1+$1,$6,$7,$8,$9,0*
20,1,$1+$1,$8,$9,$2,$3,0*%
G04 Aperture macros list end*
%ADD10RoundRect,0.250000X-0.600000X-0.600000X0.600000X-0.600000X0.600000X0.600000X-0.600000X0.600000X0*%
%ADD11C,1.700000*%
%ADD12RoundRect,0.250000X0.600000X-0.600000X0.600000X0.600000X-0.600000X0.600000X-0.600000X-0.600000X0*%
%ADD13R,1.700000X1.700000*%
%ADD14O,1.700000X1.700000*%
%ADD15RoundRect,0.250000X-0.600000X0.600000X-0.600000X-0.600000X0.600000X-0.600000X0.600000X0.600000X0*%
G04 APERTURE END LIST*
D10*
%TO.C,J4*%
X163750000Y-84100000D03*
D11*
X166290000Y-84100000D03*
X163750000Y-86640000D03*
X166290000Y-86640000D03*
X163750000Y-89180000D03*
X166290000Y-89180000D03*
X163750000Y-91720000D03*
X166290000Y-91720000D03*
X163750000Y-94260000D03*
X166290000Y-94260000D03*
X163750000Y-96800000D03*
X166290000Y-96800000D03*
X163750000Y-99340000D03*
X166290000Y-99340000D03*
X163750000Y-101880000D03*
X166290000Y-101880000D03*
%TD*%
D12*
%TO.C,J2*%
X134100000Y-116300000D03*
D11*
X134100000Y-113760000D03*
X136640000Y-116300000D03*
X136640000Y-113760000D03*
X139180000Y-116300000D03*
X139180000Y-113760000D03*
X141720000Y-116300000D03*
X141720000Y-113760000D03*
X144260000Y-116300000D03*
X144260000Y-113760000D03*
X146800000Y-116300000D03*
X146800000Y-113760000D03*
X149340000Y-116300000D03*
X149340000Y-113760000D03*
X151880000Y-116300000D03*
X151880000Y-113760000D03*
%TD*%
D13*
%TO.C,J7*%
X159460000Y-68500000D03*
D14*
X162000000Y-68500000D03*
%TD*%
D15*
%TO.C,J1*%
X151890000Y-69747500D03*
D11*
X151890000Y-72287500D03*
X149350000Y-69747500D03*
X149350000Y-72287500D03*
X146810000Y-69747500D03*
X146810000Y-72287500D03*
X144270000Y-69747500D03*
X144270000Y-72287500D03*
X141730000Y-69747500D03*
X141730000Y-72287500D03*
X139190000Y-69747500D03*
X139190000Y-72287500D03*
X136650000Y-69747500D03*
X136650000Y-72287500D03*
X134110000Y-69747500D03*
X134110000Y-72287500D03*
%TD*%
D13*
%TO.C,J6*%
X157985000Y-104245000D03*
D14*
X157985000Y-101705000D03*
X157985000Y-99165000D03*
X157985000Y-96625000D03*
X157985000Y-94085000D03*
X157985000Y-91545000D03*
%TD*%
D13*
%TO.C,J5*%
X151585000Y-84115000D03*
D14*
X149045000Y-84115000D03*
X146505000Y-84115000D03*
X143965000Y-84115000D03*
X141425000Y-84115000D03*
X138885000Y-84115000D03*
%TD*%
D13*
%TO.C,J8*%
X162100000Y-118000000D03*
D14*
X159560000Y-118000000D03*
X162100000Y-115460000D03*
X159560000Y-115460000D03*
X162100000Y-112920000D03*
X159560000Y-112920000D03*
X162100000Y-110380000D03*
X159560000Y-110380000D03*
%TD*%
D10*
%TO.C,J3*%
X119760000Y-84080000D03*
D11*
X122300000Y-84080000D03*
X119760000Y-86620000D03*
X122300000Y-86620000D03*
X119760000Y-89160000D03*
X122300000Y-89160000D03*
X119760000Y-91700000D03*
X122300000Y-91700000D03*
X119760000Y-94240000D03*
X122300000Y-94240000D03*
X119760000Y-96780000D03*
X122300000Y-96780000D03*
X119760000Y-99320000D03*
X122300000Y-99320000D03*
X119760000Y-101860000D03*
X122300000Y-101860000D03*
%TD*%
M02*
