%TF.GenerationSoftware,KiCad,Pcbnew,6.0.11+dfsg-1~bpo11+1*%
%TF.CreationDate,2023-05-15T10:42:25+02:00*%
%TF.ProjectId,dvert_12,64766572-745f-4313-922e-6b696361645f,rev?*%
%TF.SameCoordinates,Original*%
%TF.FileFunction,Copper,L2,Bot*%
%TF.FilePolarity,Positive*%
%FSLAX46Y46*%
G04 Gerber Fmt 4.6, Leading zero omitted, Abs format (unit mm)*
G04 Created by KiCad (PCBNEW 6.0.11+dfsg-1~bpo11+1) date 2023-05-15 10:42:25*
%MOMM*%
%LPD*%
G01*
G04 APERTURE LIST*
G04 Aperture macros list*
%AMRoundRect*
0 Rectangle with rounded corners*
0 $1 Rounding radius*
0 $2 $3 $4 $5 $6 $7 $8 $9 X,Y pos of 4 corners*
0 Add a 4 corners polygon primitive as box body*
4,1,4,$2,$3,$4,$5,$6,$7,$8,$9,$2,$3,0*
0 Add four circle primitives for the rounded corners*
1,1,$1+$1,$2,$3*
1,1,$1+$1,$4,$5*
1,1,$1+$1,$6,$7*
1,1,$1+$1,$8,$9*
0 Add four rect primitives between the rounded corners*
20,1,$1+$1,$2,$3,$4,$5,0*
20,1,$1+$1,$4,$5,$6,$7,0*
20,1,$1+$1,$6,$7,$8,$9,0*
20,1,$1+$1,$8,$9,$2,$3,0*%
G04 Aperture macros list end*
%TA.AperFunction,ComponentPad*%
%ADD10RoundRect,0.250000X-0.600000X-0.600000X0.600000X-0.600000X0.600000X0.600000X-0.600000X0.600000X0*%
%TD*%
%TA.AperFunction,ComponentPad*%
%ADD11C,1.700000*%
%TD*%
%TA.AperFunction,ComponentPad*%
%ADD12RoundRect,0.250000X0.600000X-0.600000X0.600000X0.600000X-0.600000X0.600000X-0.600000X-0.600000X0*%
%TD*%
%TA.AperFunction,ComponentPad*%
%ADD13R,1.700000X1.700000*%
%TD*%
%TA.AperFunction,ComponentPad*%
%ADD14O,1.700000X1.700000*%
%TD*%
%TA.AperFunction,ComponentPad*%
%ADD15RoundRect,0.250000X-0.600000X0.600000X-0.600000X-0.600000X0.600000X-0.600000X0.600000X0.600000X0*%
%TD*%
%TA.AperFunction,ViaPad*%
%ADD16C,0.800000*%
%TD*%
%TA.AperFunction,Conductor*%
%ADD17C,0.250000*%
%TD*%
%TA.AperFunction,Conductor*%
%ADD18C,0.800000*%
%TD*%
G04 APERTURE END LIST*
D10*
%TO.P,J4,1,Pin_1*%
%TO.N,+3V3*%
X163750000Y-84100000D03*
D11*
%TO.P,J4,2,Pin_2*%
%TO.N,GND*%
X166290000Y-84100000D03*
%TO.P,J4,3,Pin_3*%
%TO.N,/TXD*%
X163750000Y-86640000D03*
%TO.P,J4,4,Pin_4*%
%TO.N,/RXD*%
X166290000Y-86640000D03*
%TO.P,J4,5,Pin_5*%
%TO.N,/SCL*%
X163750000Y-89180000D03*
%TO.P,J4,6,Pin_6*%
%TO.N,/SDA*%
X166290000Y-89180000D03*
%TO.P,J4,7,Pin_7*%
%TO.N,/MISO*%
X163750000Y-91720000D03*
%TO.P,J4,8,Pin_8*%
%TO.N,/MOSI*%
X166290000Y-91720000D03*
%TO.P,J4,9,Pin_9*%
%TO.N,/SCK*%
X163750000Y-94260000D03*
%TO.P,J4,10,Pin_10*%
%TO.N,/SS*%
X166290000Y-94260000D03*
%TO.P,J4,11,Pin_11*%
%TO.N,/CANH*%
X163750000Y-96800000D03*
%TO.P,J4,12,Pin_12*%
%TO.N,/CANL*%
X166290000Y-96800000D03*
%TO.P,J4,13,Pin_13*%
%TO.N,Earth*%
X163750000Y-99340000D03*
%TO.P,J4,14,Pin_14*%
%TO.N,GND*%
X166290000Y-99340000D03*
%TO.P,J4,15,Pin_15*%
%TO.N,+24V*%
X163750000Y-101880000D03*
%TO.P,J4,16,Pin_16*%
X166290000Y-101880000D03*
%TD*%
D12*
%TO.P,J2,1,Pin_1*%
%TO.N,GND*%
X134100000Y-116300000D03*
D11*
%TO.P,J2,2,Pin_2*%
%TO.N,/B0*%
X134100000Y-113760000D03*
%TO.P,J2,3,Pin_3*%
%TO.N,/B1*%
X136640000Y-116300000D03*
%TO.P,J2,4,Pin_4*%
%TO.N,/B2*%
X136640000Y-113760000D03*
%TO.P,J2,5,Pin_5*%
%TO.N,/B3*%
X139180000Y-116300000D03*
%TO.P,J2,6,Pin_6*%
%TO.N,/B4*%
X139180000Y-113760000D03*
%TO.P,J2,7,Pin_7*%
%TO.N,/B5*%
X141720000Y-116300000D03*
%TO.P,J2,8,Pin_8*%
%TO.N,/B6*%
X141720000Y-113760000D03*
%TO.P,J2,9,Pin_9*%
%TO.N,/B7*%
X144260000Y-116300000D03*
%TO.P,J2,10,Pin_10*%
%TO.N,GND*%
X144260000Y-113760000D03*
%TO.P,J2,11,Pin_11*%
%TO.N,+3V3*%
X146800000Y-116300000D03*
%TO.P,J2,12,Pin_12*%
X146800000Y-113760000D03*
%TO.P,J2,13,Pin_13*%
%TO.N,GND*%
X149340000Y-116300000D03*
%TO.P,J2,14,Pin_14*%
X149340000Y-113760000D03*
%TO.P,J2,15,Pin_15*%
%TO.N,+24V*%
X151880000Y-116300000D03*
%TO.P,J2,16,Pin_16*%
X151880000Y-113760000D03*
%TD*%
D13*
%TO.P,J7,1,Pin_1*%
%TO.N,/CANH*%
X159460000Y-68500000D03*
D14*
%TO.P,J7,2,Pin_2*%
%TO.N,Net-(J7-Pad2)*%
X162000000Y-68500000D03*
%TD*%
D15*
%TO.P,J1,1,Pin_1*%
%TO.N,GND*%
X151890000Y-69747500D03*
D11*
%TO.P,J1,2,Pin_2*%
%TO.N,/A0*%
X151890000Y-72287500D03*
%TO.P,J1,3,Pin_3*%
%TO.N,/A1*%
X149350000Y-69747500D03*
%TO.P,J1,4,Pin_4*%
%TO.N,/A2*%
X149350000Y-72287500D03*
%TO.P,J1,5,Pin_5*%
%TO.N,/A3*%
X146810000Y-69747500D03*
%TO.P,J1,6,Pin_6*%
%TO.N,/A4*%
X146810000Y-72287500D03*
%TO.P,J1,7,Pin_7*%
%TO.N,/A5*%
X144270000Y-69747500D03*
%TO.P,J1,8,Pin_8*%
%TO.N,/A6*%
X144270000Y-72287500D03*
%TO.P,J1,9,Pin_9*%
%TO.N,/A7*%
X141730000Y-69747500D03*
%TO.P,J1,10,Pin_10*%
%TO.N,GND*%
X141730000Y-72287500D03*
%TO.P,J1,11,Pin_11*%
%TO.N,+3V3*%
X139190000Y-69747500D03*
%TO.P,J1,12,Pin_12*%
X139190000Y-72287500D03*
%TO.P,J1,13,Pin_13*%
%TO.N,GND*%
X136650000Y-69747500D03*
%TO.P,J1,14,Pin_14*%
X136650000Y-72287500D03*
%TO.P,J1,15,Pin_15*%
%TO.N,+24V*%
X134110000Y-69747500D03*
%TO.P,J1,16,Pin_16*%
X134110000Y-72287500D03*
%TD*%
D13*
%TO.P,J6,1,Pin_1*%
%TO.N,+3V3*%
X157985000Y-104245000D03*
D14*
%TO.P,J6,2,Pin_2*%
%TO.N,GND*%
X157985000Y-101705000D03*
%TO.P,J6,3,Pin_3*%
%TO.N,/CTX*%
X157985000Y-99165000D03*
%TO.P,J6,4,Pin_4*%
%TO.N,/CRX*%
X157985000Y-96625000D03*
%TO.P,J6,5,Pin_5*%
%TO.N,/CANH*%
X157985000Y-94085000D03*
%TO.P,J6,6,Pin_6*%
%TO.N,/CANL*%
X157985000Y-91545000D03*
%TD*%
D13*
%TO.P,J5,1,Pin_1*%
%TO.N,GND*%
X151585000Y-84115000D03*
D14*
%TO.P,J5,2,Pin_2*%
%TO.N,unconnected-(J5-Pad2)*%
X149045000Y-84115000D03*
%TO.P,J5,3,Pin_3*%
%TO.N,+3V3*%
X146505000Y-84115000D03*
%TO.P,J5,4,Pin_4*%
%TO.N,/RX_0*%
X143965000Y-84115000D03*
%TO.P,J5,5,Pin_5*%
%TO.N,/TX_0*%
X141425000Y-84115000D03*
%TO.P,J5,6,Pin_6*%
%TO.N,unconnected-(J5-Pad6)*%
X138885000Y-84115000D03*
%TD*%
D13*
%TO.P,J8,1,Pin_1*%
%TO.N,GND*%
X162100000Y-118000000D03*
D14*
%TO.P,J8,2,Pin_2*%
%TO.N,/ADDR0*%
X159560000Y-118000000D03*
%TO.P,J8,3,Pin_3*%
%TO.N,GND*%
X162100000Y-115460000D03*
%TO.P,J8,4,Pin_4*%
%TO.N,/ADDR1*%
X159560000Y-115460000D03*
%TO.P,J8,5,Pin_5*%
%TO.N,GND*%
X162100000Y-112920000D03*
%TO.P,J8,6,Pin_6*%
%TO.N,/ADDR2*%
X159560000Y-112920000D03*
%TO.P,J8,7,Pin_7*%
%TO.N,GND*%
X162100000Y-110380000D03*
%TO.P,J8,8,Pin_8*%
%TO.N,/ADDR3*%
X159560000Y-110380000D03*
%TD*%
D10*
%TO.P,J3,1,Pin_1*%
%TO.N,+3V3*%
X119760000Y-84080000D03*
D11*
%TO.P,J3,2,Pin_2*%
%TO.N,GND*%
X122300000Y-84080000D03*
%TO.P,J3,3,Pin_3*%
%TO.N,/TXD*%
X119760000Y-86620000D03*
%TO.P,J3,4,Pin_4*%
%TO.N,/RXD*%
X122300000Y-86620000D03*
%TO.P,J3,5,Pin_5*%
%TO.N,/SCL*%
X119760000Y-89160000D03*
%TO.P,J3,6,Pin_6*%
%TO.N,/SDA*%
X122300000Y-89160000D03*
%TO.P,J3,7,Pin_7*%
%TO.N,/MISO*%
X119760000Y-91700000D03*
%TO.P,J3,8,Pin_8*%
%TO.N,/MOSI*%
X122300000Y-91700000D03*
%TO.P,J3,9,Pin_9*%
%TO.N,/SCK*%
X119760000Y-94240000D03*
%TO.P,J3,10,Pin_10*%
%TO.N,/SS*%
X122300000Y-94240000D03*
%TO.P,J3,11,Pin_11*%
%TO.N,/CANH*%
X119760000Y-96780000D03*
%TO.P,J3,12,Pin_12*%
%TO.N,/CANL*%
X122300000Y-96780000D03*
%TO.P,J3,13,Pin_13*%
%TO.N,Earth*%
X119760000Y-99320000D03*
%TO.P,J3,14,Pin_14*%
%TO.N,GND*%
X122300000Y-99320000D03*
%TO.P,J3,15,Pin_15*%
%TO.N,+24V*%
X119760000Y-101860000D03*
%TO.P,J3,16,Pin_16*%
X122300000Y-101860000D03*
%TD*%
D16*
%TO.N,GND*%
X139120000Y-94950000D03*
X147750000Y-94950000D03*
X147790000Y-97810000D03*
X118200000Y-80860000D03*
X144620000Y-77460000D03*
X166280000Y-80180000D03*
X118500000Y-108480000D03*
X136670000Y-85550000D03*
X127350000Y-94950000D03*
X157060000Y-81170000D03*
X156980000Y-74670000D03*
X129700000Y-113430000D03*
X148100000Y-77470000D03*
X154940000Y-115660000D03*
X162510000Y-80170000D03*
%TO.N,+3V3*%
X140040000Y-107720000D03*
X124390000Y-110050000D03*
X156970000Y-75930000D03*
X156970000Y-79750000D03*
%TO.N,/A3*%
X146050000Y-86040000D03*
%TO.N,/A5*%
X143450000Y-86020000D03*
%TO.N,+24V*%
X163750000Y-106550000D03*
%TO.N,/B4*%
X145388371Y-101518439D03*
%TO.N,/B5*%
X146110000Y-102210000D03*
%TO.N,/B6*%
X147030000Y-102940000D03*
%TO.N,/B7*%
X147860000Y-103670000D03*
%TO.N,/SDA*%
X159680000Y-102830000D03*
X152740000Y-102870000D03*
%TO.N,/CANH*%
X160604500Y-95190000D03*
%TO.N,/CANL*%
X161320500Y-93800000D03*
%TO.N,/CTX*%
X152220000Y-100570000D03*
%TO.N,/CRX*%
X151050000Y-102860000D03*
%TO.N,/RST*%
X137700000Y-96650000D03*
X139690000Y-103190000D03*
%TO.N,/WEB*%
X136500000Y-102530000D03*
X127710000Y-108570000D03*
%TD*%
D17*
%TO.N,GND*%
X157985000Y-101705000D02*
X152305000Y-101705000D01*
X150350000Y-104070000D02*
X150060000Y-104070000D01*
X168620000Y-84790000D02*
X168620000Y-98100000D01*
X157060000Y-81170000D02*
X157010000Y-81170000D01*
X151880000Y-102130000D02*
X151880000Y-103220000D01*
X157010000Y-81170000D02*
X155870000Y-80030000D01*
X162100000Y-112920000D02*
X162100000Y-115460000D01*
X122980000Y-99320000D02*
X127340000Y-94960000D01*
X134100000Y-116300000D02*
X134100000Y-117500000D01*
X161510000Y-81170000D02*
X162510000Y-80170000D01*
X151585000Y-84115000D02*
X154115000Y-84115000D01*
X127350000Y-94950000D02*
X147750000Y-94950000D01*
X162100000Y-110380000D02*
X162100000Y-112920000D01*
X124590000Y-85550000D02*
X136670000Y-85550000D01*
X127340000Y-94960000D02*
X127350000Y-94950000D01*
X134880000Y-118280000D02*
X148610000Y-118280000D01*
X165100000Y-100530000D02*
X166290000Y-99340000D01*
X134100000Y-117500000D02*
X134880000Y-118280000D01*
X161455000Y-101705000D02*
X162630000Y-100530000D01*
X150060000Y-104070000D02*
X149150000Y-103160000D01*
X156580000Y-74670000D02*
X156980000Y-74670000D01*
X131850000Y-115500000D02*
X131850000Y-114380000D01*
X132650000Y-116300000D02*
X131850000Y-115500000D01*
X166290000Y-99340000D02*
X167380000Y-99340000D01*
X157985000Y-101705000D02*
X161455000Y-101705000D01*
X149150000Y-100050000D02*
X149150000Y-99170000D01*
X122300000Y-99320000D02*
X122980000Y-99320000D01*
X167380000Y-99340000D02*
X168330000Y-100290000D01*
X122300000Y-84080000D02*
X123120000Y-84080000D01*
X155870000Y-80030000D02*
X155870000Y-76630000D01*
X168620000Y-98100000D02*
X167380000Y-99340000D01*
X148610000Y-118280000D02*
X149340000Y-117550000D01*
X167930000Y-84100000D02*
X168620000Y-84790000D01*
X151880000Y-103220000D02*
X151880000Y-103790000D01*
X155870000Y-76630000D02*
X155870000Y-75380000D01*
X130900000Y-113430000D02*
X129700000Y-113430000D01*
X162100000Y-115460000D02*
X162100000Y-118000000D01*
X166290000Y-84100000D02*
X167930000Y-84100000D01*
X154115000Y-84115000D02*
X157060000Y-81170000D01*
X151920000Y-102090000D02*
X151880000Y-102130000D01*
X134100000Y-116300000D02*
X132650000Y-116300000D01*
X155870000Y-75380000D02*
X156580000Y-74670000D01*
X166290000Y-80190000D02*
X166290000Y-84100000D01*
X157060000Y-81170000D02*
X161510000Y-81170000D01*
X123120000Y-84080000D02*
X124590000Y-85550000D01*
X152305000Y-101705000D02*
X151920000Y-102090000D01*
X149340000Y-113760000D02*
X149340000Y-116300000D01*
X149150000Y-99170000D02*
X147790000Y-97810000D01*
X151880000Y-103790000D02*
X151600000Y-104070000D01*
X166280000Y-80180000D02*
X166290000Y-80190000D01*
X149150000Y-103160000D02*
X149150000Y-100050000D01*
X149340000Y-117550000D02*
X149340000Y-116300000D01*
X168330000Y-100290000D02*
X168330000Y-104150000D01*
X151600000Y-104070000D02*
X150350000Y-104070000D01*
X162630000Y-100530000D02*
X165100000Y-100530000D01*
X168330000Y-104150000D02*
X162100000Y-110380000D01*
X131850000Y-114380000D02*
X130900000Y-113430000D01*
D18*
%TO.N,+3V3*%
X157985000Y-106315000D02*
X157985000Y-104245000D01*
X137490000Y-75770000D02*
X139190000Y-74070000D01*
D17*
X137930000Y-117070000D02*
X138470000Y-117610000D01*
D18*
X146800000Y-112170000D02*
X147460000Y-111510000D01*
X119760000Y-84080000D02*
X119760000Y-77230000D01*
D17*
X156970000Y-79750000D02*
X156970000Y-75930000D01*
X146800000Y-116970000D02*
X146800000Y-116300000D01*
X146160000Y-117610000D02*
X146800000Y-116970000D01*
X159850000Y-75930000D02*
X161090000Y-74690000D01*
D18*
X139190000Y-68250000D02*
X139190000Y-69747500D01*
X146800000Y-113760000D02*
X146800000Y-116300000D01*
X121220000Y-75770000D02*
X137490000Y-75770000D01*
X146505000Y-84115000D02*
X146505000Y-83355000D01*
X163750000Y-84100000D02*
X163750000Y-77350000D01*
X156985000Y-70585000D02*
X153600000Y-67200000D01*
X119760000Y-77230000D02*
X121220000Y-75770000D01*
X156510000Y-106930000D02*
X157370000Y-106930000D01*
D17*
X134180000Y-108130000D02*
X134590000Y-107720000D01*
D18*
X146505000Y-83355000D02*
X154730000Y-75130000D01*
X158055000Y-71655000D02*
X156985000Y-70585000D01*
D17*
X140040000Y-110190000D02*
X137930000Y-112300000D01*
D18*
X147460000Y-111510000D02*
X153860000Y-111510000D01*
X163750000Y-77350000D02*
X161090000Y-74690000D01*
D17*
X124390000Y-110050000D02*
X132260000Y-110050000D01*
D18*
X157370000Y-106930000D02*
X157985000Y-106315000D01*
X153860000Y-111510000D02*
X154620000Y-110750000D01*
X139190000Y-69747500D02*
X139190000Y-72287500D01*
D17*
X134590000Y-107720000D02*
X140040000Y-107720000D01*
D18*
X154730000Y-75130000D02*
X154730000Y-72840000D01*
X146800000Y-113760000D02*
X146800000Y-112170000D01*
D17*
X140040000Y-107720000D02*
X140040000Y-110190000D01*
D18*
X139190000Y-74070000D02*
X139190000Y-72287500D01*
D17*
X132260000Y-110050000D02*
X134180000Y-108130000D01*
D18*
X154620000Y-110750000D02*
X154620000Y-108820000D01*
X154730000Y-72840000D02*
X156985000Y-70585000D01*
D17*
X138470000Y-117610000D02*
X146160000Y-117610000D01*
D18*
X161090000Y-74690000D02*
X158055000Y-71655000D01*
X154620000Y-108820000D02*
X156510000Y-106930000D01*
X153600000Y-67200000D02*
X140240000Y-67200000D01*
X140240000Y-67200000D02*
X139190000Y-68250000D01*
D17*
X156970000Y-75930000D02*
X159850000Y-75930000D01*
X137930000Y-112300000D02*
X137930000Y-117070000D01*
%TO.N,/A3*%
X145290000Y-85280000D02*
X146050000Y-86040000D01*
X145635000Y-70922500D02*
X145635000Y-82825000D01*
X145290000Y-84570000D02*
X145290000Y-85280000D01*
X145635000Y-82825000D02*
X145290000Y-83170000D01*
X145290000Y-83170000D02*
X145290000Y-84570000D01*
X146810000Y-69747500D02*
X145635000Y-70922500D01*
%TO.N,/A5*%
X142740000Y-85310000D02*
X143450000Y-86020000D01*
X144270000Y-69747500D02*
X143080000Y-70937500D01*
X143080000Y-70937500D02*
X143080000Y-82760000D01*
X143080000Y-82760000D02*
X142740000Y-83100000D01*
X142740000Y-83100000D02*
X142740000Y-85310000D01*
D18*
%TO.N,+24V*%
X117810000Y-101860000D02*
X116830000Y-100880000D01*
X151880000Y-113760000D02*
X154420000Y-113760000D01*
X156280000Y-111900000D02*
X156280000Y-109610000D01*
X163750000Y-106550000D02*
X162230000Y-108070000D01*
X163750000Y-101880000D02*
X163750000Y-106550000D01*
X122300000Y-101860000D02*
X122300000Y-111040000D01*
X134110000Y-69747500D02*
X134110000Y-72287500D01*
X122300000Y-111040000D02*
X130580000Y-119320000D01*
X119760000Y-101860000D02*
X117810000Y-101860000D01*
X130660000Y-74110000D02*
X119730000Y-74110000D01*
X162230000Y-108070000D02*
X157820000Y-108070000D01*
X166290000Y-101880000D02*
X163750000Y-101880000D01*
X151180000Y-119320000D02*
X151880000Y-118620000D01*
X119760000Y-101860000D02*
X122300000Y-101860000D01*
X119730000Y-74110000D02*
X116830000Y-77010000D01*
X116830000Y-100880000D02*
X116830000Y-77010000D01*
X151880000Y-113760000D02*
X151880000Y-116300000D01*
X156280000Y-109610000D02*
X157820000Y-108070000D01*
X154420000Y-113760000D02*
X156280000Y-111900000D01*
X130580000Y-119320000D02*
X151180000Y-119320000D01*
X134110000Y-72287500D02*
X132392500Y-72287500D01*
X132392500Y-72287500D02*
X130660000Y-74020000D01*
X151880000Y-118620000D02*
X151880000Y-116300000D01*
X130660000Y-74020000D02*
X130660000Y-74110000D01*
D17*
%TO.N,/B4*%
X145385000Y-101521810D02*
X145385000Y-107495000D01*
X139750000Y-112550000D02*
X139180000Y-113120000D01*
X145385000Y-107495000D02*
X140330000Y-112550000D01*
X145388371Y-101518439D02*
X145385000Y-101521810D01*
X139180000Y-113120000D02*
X139180000Y-113760000D01*
X140330000Y-112550000D02*
X139750000Y-112550000D01*
%TO.N,/B5*%
X146140000Y-107650000D02*
X146140000Y-102240000D01*
X141720000Y-116300000D02*
X140460000Y-115040000D01*
X140460000Y-115040000D02*
X140460000Y-113620000D01*
X140460000Y-113330000D02*
X146140000Y-107650000D01*
X140460000Y-113620000D02*
X140460000Y-113330000D01*
X146140000Y-102240000D02*
X146110000Y-102210000D01*
%TO.N,/B6*%
X141720000Y-113170000D02*
X141720000Y-113760000D01*
X147030000Y-102940000D02*
X147030000Y-107860000D01*
X147030000Y-107860000D02*
X141720000Y-113170000D01*
%TO.N,/B7*%
X143155000Y-112605000D02*
X142970000Y-112790000D01*
X142970000Y-112790000D02*
X142970000Y-115010000D01*
X147860000Y-103670000D02*
X147860000Y-108260000D01*
X147860000Y-108260000D02*
X143515000Y-112605000D01*
X142970000Y-115010000D02*
X144260000Y-116300000D01*
X143515000Y-112605000D02*
X143155000Y-112605000D01*
%TO.N,/TXD*%
X119760000Y-86620000D02*
X121125000Y-87985000D01*
X162900000Y-86640000D02*
X163750000Y-86640000D01*
X124570000Y-87220000D02*
X162320000Y-87220000D01*
X162320000Y-87220000D02*
X162900000Y-86640000D01*
X123805000Y-87985000D02*
X124570000Y-87220000D01*
X121125000Y-87985000D02*
X123805000Y-87985000D01*
%TO.N,/RXD*%
X124360000Y-86620000D02*
X124510000Y-86770000D01*
X165115000Y-85465000D02*
X162485000Y-85465000D01*
X162485000Y-85465000D02*
X161180000Y-86770000D01*
X166290000Y-86640000D02*
X165115000Y-85465000D01*
X161180000Y-86770000D02*
X124510000Y-86770000D01*
X122300000Y-86620000D02*
X124360000Y-86620000D01*
%TO.N,/SCL*%
X122890000Y-90390000D02*
X125150000Y-88130000D01*
X120990000Y-90390000D02*
X122890000Y-90390000D01*
X125150000Y-88130000D02*
X161860000Y-88130000D01*
X162910000Y-89180000D02*
X163750000Y-89180000D01*
X119760000Y-89160000D02*
X120990000Y-90390000D01*
X161860000Y-88130000D02*
X162910000Y-89180000D01*
%TO.N,/SDA*%
X122300000Y-89160000D02*
X123310000Y-89160000D01*
X124800000Y-87670000D02*
X162450000Y-87670000D01*
X152750000Y-102880000D02*
X152740000Y-102870000D01*
X162450000Y-87670000D02*
X162785000Y-88005000D01*
X159630000Y-102880000D02*
X156670000Y-102880000D01*
X165115000Y-88005000D02*
X166290000Y-89180000D01*
X159680000Y-102830000D02*
X159630000Y-102880000D01*
X123310000Y-89160000D02*
X124800000Y-87670000D01*
X162785000Y-88005000D02*
X165115000Y-88005000D01*
X156670000Y-102880000D02*
X152750000Y-102880000D01*
%TO.N,/MISO*%
X125860000Y-89030000D02*
X161060000Y-89030000D01*
X123540851Y-92120851D02*
X123540851Y-91349149D01*
X161060000Y-89030000D02*
X163750000Y-91720000D01*
X122721701Y-92940000D02*
X123540851Y-92120851D01*
X121000000Y-92940000D02*
X122721701Y-92940000D01*
X123540851Y-91349149D02*
X125860000Y-89030000D01*
X119760000Y-91700000D02*
X121000000Y-92940000D01*
%TO.N,/MOSI*%
X125420000Y-88580000D02*
X161488300Y-88580000D01*
X165060000Y-90490000D02*
X166290000Y-91720000D01*
X161488300Y-88580000D02*
X163398299Y-90490000D01*
X122300000Y-91700000D02*
X125420000Y-88580000D01*
X163398299Y-90490000D02*
X165060000Y-90490000D01*
%TO.N,/SCK*%
X161000000Y-90370000D02*
X161620000Y-90990000D01*
X125250000Y-91070000D02*
X126390000Y-89930000D01*
X160500000Y-89930000D02*
X160940000Y-90370000D01*
X123130000Y-95500000D02*
X124600000Y-94030000D01*
X121020000Y-95500000D02*
X123130000Y-95500000D01*
X124600000Y-91700000D02*
X125230000Y-91070000D01*
X161620000Y-92510000D02*
X163370000Y-94260000D01*
X119760000Y-94240000D02*
X121020000Y-95500000D01*
X161620000Y-90990000D02*
X161620000Y-92510000D01*
X124600000Y-94030000D02*
X124600000Y-91700000D01*
X163370000Y-94260000D02*
X163750000Y-94260000D01*
X126390000Y-89930000D02*
X160500000Y-89930000D01*
X160940000Y-90370000D02*
X161000000Y-90370000D01*
X125230000Y-91070000D02*
X125250000Y-91070000D01*
%TO.N,/SS*%
X160873604Y-89480000D02*
X162310000Y-90916396D01*
X122300000Y-94240000D02*
X122900000Y-94240000D01*
X163060000Y-92940000D02*
X164970000Y-92940000D01*
X164970000Y-92940000D02*
X166290000Y-94260000D01*
X162310000Y-90916396D02*
X162310000Y-92190000D01*
X124035000Y-91545000D02*
X126100000Y-89480000D01*
X162310000Y-92190000D02*
X163060000Y-92940000D01*
X122900000Y-94240000D02*
X124035000Y-93105000D01*
X124035000Y-93105000D02*
X124035000Y-91545000D01*
X126100000Y-89480000D02*
X160873604Y-89480000D01*
%TO.N,/CANH*%
X157985000Y-94085000D02*
X159499500Y-94085000D01*
X155350000Y-91080000D02*
X156640000Y-92370000D01*
X119760000Y-96780000D02*
X121020000Y-98040000D01*
X162214500Y-96800000D02*
X160604500Y-95190000D01*
X125690000Y-92230000D02*
X126840000Y-91080000D01*
X123110000Y-98040000D02*
X125690000Y-95460000D01*
X121020000Y-98040000D02*
X123110000Y-98040000D01*
X156885000Y-94085000D02*
X157985000Y-94085000D01*
X156640000Y-93840000D02*
X156885000Y-94085000D01*
X156640000Y-92370000D02*
X156640000Y-93840000D01*
X125690000Y-95460000D02*
X125690000Y-92230000D01*
X126840000Y-91080000D02*
X155350000Y-91080000D01*
X159499500Y-94085000D02*
X160604500Y-95190000D01*
X163750000Y-96800000D02*
X162214500Y-96800000D01*
%TO.N,/CANL*%
X161320500Y-93800000D02*
X161300000Y-93800000D01*
X126570000Y-90510000D02*
X156950000Y-90510000D01*
X156950000Y-90510000D02*
X157985000Y-91545000D01*
X161300000Y-93800000D02*
X159045000Y-91545000D01*
X157985000Y-91545000D02*
X159045000Y-91545000D01*
X125090000Y-94920000D02*
X125090000Y-91990000D01*
X161685000Y-94115000D02*
X161370000Y-93800000D01*
X125090000Y-91990000D02*
X126570000Y-90510000D01*
X161685000Y-94115000D02*
X163170000Y-95600000D01*
X123230000Y-96780000D02*
X125090000Y-94920000D01*
X165090000Y-95600000D02*
X166290000Y-96800000D01*
X161135000Y-93565000D02*
X161685000Y-94115000D01*
X161370000Y-93800000D02*
X161320500Y-93800000D01*
X163170000Y-95600000D02*
X165090000Y-95600000D01*
X122300000Y-96780000D02*
X123230000Y-96780000D01*
%TO.N,Earth*%
X163750000Y-99340000D02*
X161890000Y-99340000D01*
X159230000Y-95430000D02*
X160530000Y-96730000D01*
X157120000Y-95430000D02*
X159230000Y-95430000D01*
X121060000Y-100620000D02*
X123390000Y-100620000D01*
X156770000Y-95780000D02*
X157120000Y-95430000D01*
X119760000Y-99320000D02*
X121060000Y-100620000D01*
X123390000Y-100620000D02*
X128230000Y-95780000D01*
X128230000Y-95780000D02*
X156770000Y-95780000D01*
X160530000Y-97980000D02*
X160530000Y-96730000D01*
X161890000Y-99340000D02*
X160530000Y-97980000D01*
%TO.N,/CTX*%
X157985000Y-99165000D02*
X153625000Y-99165000D01*
X153625000Y-99165000D02*
X152220000Y-100570000D01*
%TO.N,/CRX*%
X154095000Y-96625000D02*
X151100000Y-99620000D01*
X151050000Y-99670000D02*
X151050000Y-102860000D01*
X151100000Y-99620000D02*
X151050000Y-99670000D01*
X157985000Y-96625000D02*
X154095000Y-96625000D01*
%TO.N,/RST*%
X137700000Y-96650000D02*
X139520000Y-98470000D01*
X139520000Y-98470000D02*
X139690000Y-98640000D01*
X139690000Y-98640000D02*
X139690000Y-103190000D01*
%TO.N,/WEB*%
X136500000Y-102530000D02*
X130460000Y-108570000D01*
X130460000Y-108570000D02*
X127710000Y-108570000D01*
%TD*%
%TA.AperFunction,Conductor*%
%TO.N,GND*%
G36*
X158863227Y-108998502D02*
G01*
X158909720Y-109052158D01*
X158919824Y-109122432D01*
X158890330Y-109187012D01*
X158853288Y-109216262D01*
X158833607Y-109226507D01*
X158829474Y-109229610D01*
X158829471Y-109229612D01*
X158790487Y-109258882D01*
X158654965Y-109360635D01*
X158500629Y-109522138D01*
X158374743Y-109706680D01*
X158358899Y-109740814D01*
X158300495Y-109866635D01*
X158280688Y-109909305D01*
X158220989Y-110124570D01*
X158197251Y-110346695D01*
X158197548Y-110351848D01*
X158197548Y-110351851D01*
X158206982Y-110515472D01*
X158210110Y-110569715D01*
X158211247Y-110574761D01*
X158211248Y-110574767D01*
X158232275Y-110668069D01*
X158259222Y-110787639D01*
X158343266Y-110994616D01*
X158345965Y-110999020D01*
X158454607Y-111176308D01*
X158459987Y-111185088D01*
X158606250Y-111353938D01*
X158750440Y-111473647D01*
X158761538Y-111482860D01*
X158778126Y-111496632D01*
X158824425Y-111523687D01*
X158851445Y-111539476D01*
X158900169Y-111591114D01*
X158913240Y-111660897D01*
X158886509Y-111726669D01*
X158846055Y-111760027D01*
X158833607Y-111766507D01*
X158829474Y-111769610D01*
X158829471Y-111769612D01*
X158659100Y-111897530D01*
X158654965Y-111900635D01*
X158636605Y-111919848D01*
X158512912Y-112049285D01*
X158500629Y-112062138D01*
X158497715Y-112066410D01*
X158497714Y-112066411D01*
X158445519Y-112142926D01*
X158374743Y-112246680D01*
X158359303Y-112279943D01*
X158283246Y-112443795D01*
X158280688Y-112449305D01*
X158220989Y-112664570D01*
X158197251Y-112886695D01*
X158197548Y-112891848D01*
X158197548Y-112891851D01*
X158208535Y-113082401D01*
X158210110Y-113109715D01*
X158211247Y-113114761D01*
X158211248Y-113114767D01*
X158222468Y-113164552D01*
X158259222Y-113327639D01*
X158320673Y-113478976D01*
X158333152Y-113509707D01*
X158343266Y-113534616D01*
X158459987Y-113725088D01*
X158606250Y-113893938D01*
X158778126Y-114036632D01*
X158848595Y-114077811D01*
X158851445Y-114079476D01*
X158900169Y-114131114D01*
X158913240Y-114200897D01*
X158886509Y-114266669D01*
X158846055Y-114300027D01*
X158833607Y-114306507D01*
X158829474Y-114309610D01*
X158829471Y-114309612D01*
X158662278Y-114435144D01*
X158654965Y-114440635D01*
X158651393Y-114444373D01*
X158511060Y-114591223D01*
X158500629Y-114602138D01*
X158497715Y-114606410D01*
X158497714Y-114606411D01*
X158455595Y-114668156D01*
X158374743Y-114786680D01*
X158344706Y-114851389D01*
X158284047Y-114982069D01*
X158280688Y-114989305D01*
X158220989Y-115204570D01*
X158197251Y-115426695D01*
X158197548Y-115431848D01*
X158197548Y-115431851D01*
X158208782Y-115626680D01*
X158210110Y-115649715D01*
X158211247Y-115654761D01*
X158211248Y-115654767D01*
X158227651Y-115727548D01*
X158259222Y-115867639D01*
X158316429Y-116008524D01*
X158330479Y-116043124D01*
X158343266Y-116074616D01*
X158459987Y-116265088D01*
X158606250Y-116433938D01*
X158778126Y-116576632D01*
X158806176Y-116593023D01*
X158851445Y-116619476D01*
X158900169Y-116671114D01*
X158913240Y-116740897D01*
X158886509Y-116806669D01*
X158846055Y-116840027D01*
X158833607Y-116846507D01*
X158829474Y-116849610D01*
X158829471Y-116849612D01*
X158660472Y-116976500D01*
X158654965Y-116980635D01*
X158500629Y-117142138D01*
X158497715Y-117146410D01*
X158497714Y-117146411D01*
X158428393Y-117248032D01*
X158374743Y-117326680D01*
X158339187Y-117403279D01*
X158293392Y-117501937D01*
X158280688Y-117529305D01*
X158220989Y-117744570D01*
X158197251Y-117966695D01*
X158197548Y-117971848D01*
X158197548Y-117971851D01*
X158204277Y-118088556D01*
X158210110Y-118189715D01*
X158211247Y-118194761D01*
X158211248Y-118194767D01*
X158225863Y-118259616D01*
X158259222Y-118407639D01*
X158343266Y-118614616D01*
X158345965Y-118619020D01*
X158454381Y-118795939D01*
X158459987Y-118805088D01*
X158606250Y-118973938D01*
X158778126Y-119116632D01*
X158971000Y-119229338D01*
X159013589Y-119245601D01*
X159019321Y-119247790D01*
X159075824Y-119290778D01*
X159100117Y-119357489D01*
X159084487Y-119426743D01*
X159033896Y-119476554D01*
X158974372Y-119491500D01*
X152600805Y-119491500D01*
X152532684Y-119471498D01*
X152486191Y-119417842D01*
X152476087Y-119347568D01*
X152507167Y-119281191D01*
X152537026Y-119248030D01*
X152541548Y-119243266D01*
X152556072Y-119228742D01*
X152569023Y-119212749D01*
X152573269Y-119207778D01*
X152619040Y-119156944D01*
X152622341Y-119151227D01*
X152626074Y-119144762D01*
X152637271Y-119128471D01*
X152641971Y-119122667D01*
X152641975Y-119122661D01*
X152646129Y-119117531D01*
X152677189Y-119056572D01*
X152680336Y-119050777D01*
X152711223Y-118997279D01*
X152711223Y-118997278D01*
X152714527Y-118991556D01*
X152718875Y-118978173D01*
X152726441Y-118959907D01*
X152729832Y-118953252D01*
X152732829Y-118947370D01*
X152743808Y-118906399D01*
X152750529Y-118881315D01*
X152752402Y-118874991D01*
X152771500Y-118816212D01*
X152773542Y-118809928D01*
X152775012Y-118795939D01*
X152778617Y-118776486D01*
X152778748Y-118776000D01*
X152782257Y-118762904D01*
X152785836Y-118694615D01*
X152786353Y-118688040D01*
X152788156Y-118670882D01*
X152788500Y-118667610D01*
X152788500Y-118647075D01*
X152788673Y-118640481D01*
X152791907Y-118578783D01*
X152791907Y-118578778D01*
X152792252Y-118572191D01*
X152790051Y-118558293D01*
X152788500Y-118538584D01*
X152788500Y-117364953D01*
X152808502Y-117296832D01*
X152825560Y-117275702D01*
X152872672Y-117228755D01*
X152918096Y-117183489D01*
X152921333Y-117178985D01*
X153045435Y-117006277D01*
X153048453Y-117002077D01*
X153059051Y-116980635D01*
X153145136Y-116806453D01*
X153145137Y-116806451D01*
X153147430Y-116801811D01*
X153189176Y-116664408D01*
X153210865Y-116593023D01*
X153210865Y-116593021D01*
X153212370Y-116588069D01*
X153241529Y-116366590D01*
X153242004Y-116347137D01*
X153243074Y-116303365D01*
X153243074Y-116303361D01*
X153243156Y-116300000D01*
X153224852Y-116077361D01*
X153170431Y-115860702D01*
X153081354Y-115655840D01*
X153014424Y-115552382D01*
X152962822Y-115472617D01*
X152962820Y-115472614D01*
X152960014Y-115468277D01*
X152952483Y-115460000D01*
X152821307Y-115315839D01*
X152790255Y-115251993D01*
X152788500Y-115231039D01*
X152788500Y-114824953D01*
X152808502Y-114756832D01*
X152825561Y-114735701D01*
X152856121Y-114705248D01*
X152918493Y-114671333D01*
X152945060Y-114668500D01*
X154338583Y-114668500D01*
X154358292Y-114670051D01*
X154372190Y-114672252D01*
X154378777Y-114671907D01*
X154378782Y-114671907D01*
X154440480Y-114668673D01*
X154447074Y-114668500D01*
X154467610Y-114668500D01*
X154470882Y-114668156D01*
X154470884Y-114668156D01*
X154488042Y-114666353D01*
X154494616Y-114665836D01*
X154556308Y-114662603D01*
X154556312Y-114662602D01*
X154562903Y-114662257D01*
X154569284Y-114660547D01*
X154569286Y-114660547D01*
X154576491Y-114658617D01*
X154595925Y-114655015D01*
X154603354Y-114654234D01*
X154603363Y-114654232D01*
X154609928Y-114653542D01*
X154674997Y-114632400D01*
X154681299Y-114630533D01*
X154747370Y-114612829D01*
X154759908Y-114606440D01*
X154778174Y-114598875D01*
X154785272Y-114596569D01*
X154785274Y-114596568D01*
X154791556Y-114594527D01*
X154850785Y-114560331D01*
X154856579Y-114557185D01*
X154917530Y-114526129D01*
X154928467Y-114517273D01*
X154944763Y-114506073D01*
X154951224Y-114502343D01*
X154951228Y-114502340D01*
X154956944Y-114499040D01*
X154961850Y-114494623D01*
X154961855Y-114494619D01*
X155007769Y-114453278D01*
X155012784Y-114448994D01*
X155026177Y-114438148D01*
X155028741Y-114436072D01*
X155043256Y-114421557D01*
X155048041Y-114417016D01*
X155093957Y-114375673D01*
X155098866Y-114371253D01*
X155107140Y-114359865D01*
X155119981Y-114344832D01*
X156864832Y-112599981D01*
X156879865Y-112587140D01*
X156885913Y-112582746D01*
X156885914Y-112582745D01*
X156891253Y-112578866D01*
X156937016Y-112528041D01*
X156941557Y-112523256D01*
X156956072Y-112508741D01*
X156968994Y-112492784D01*
X156973278Y-112487769D01*
X157014619Y-112441855D01*
X157014623Y-112441850D01*
X157019040Y-112436944D01*
X157022340Y-112431228D01*
X157022343Y-112431224D01*
X157026073Y-112424763D01*
X157037273Y-112408466D01*
X157041975Y-112402660D01*
X157041976Y-112402658D01*
X157046129Y-112397530D01*
X157077186Y-112336577D01*
X157080333Y-112330782D01*
X157111223Y-112277279D01*
X157111224Y-112277278D01*
X157114527Y-112271556D01*
X157116633Y-112265076D01*
X157118875Y-112258174D01*
X157126441Y-112239907D01*
X157129832Y-112233252D01*
X157132829Y-112227370D01*
X157135472Y-112217509D01*
X157150529Y-112161315D01*
X157152402Y-112154991D01*
X157160623Y-112129688D01*
X157173542Y-112089928D01*
X157175012Y-112075939D01*
X157178617Y-112056486D01*
X157180547Y-112049285D01*
X157182257Y-112042904D01*
X157182740Y-112033692D01*
X157185836Y-111974615D01*
X157186353Y-111968040D01*
X157188156Y-111950882D01*
X157188500Y-111947610D01*
X157188500Y-111927075D01*
X157188673Y-111920481D01*
X157191907Y-111858783D01*
X157191907Y-111858778D01*
X157192252Y-111852191D01*
X157190051Y-111838293D01*
X157188500Y-111818584D01*
X157188500Y-110038503D01*
X157208502Y-109970382D01*
X157225405Y-109949408D01*
X158159408Y-109015405D01*
X158221720Y-108981379D01*
X158248503Y-108978500D01*
X158795106Y-108978500D01*
X158863227Y-108998502D01*
G37*
%TD.AperFunction*%
%TA.AperFunction,Conductor*%
G36*
X116717012Y-102052279D02*
G01*
X116723595Y-102058408D01*
X117110019Y-102444832D01*
X117122860Y-102459865D01*
X117131134Y-102471253D01*
X117150227Y-102488444D01*
X117181959Y-102517016D01*
X117186744Y-102521557D01*
X117201259Y-102536072D01*
X117203823Y-102538148D01*
X117217216Y-102548994D01*
X117222231Y-102553278D01*
X117268145Y-102594619D01*
X117268150Y-102594623D01*
X117273056Y-102599040D01*
X117278772Y-102602340D01*
X117278776Y-102602343D01*
X117285237Y-102606073D01*
X117301533Y-102617273D01*
X117312470Y-102626129D01*
X117373421Y-102657185D01*
X117379218Y-102660333D01*
X117428854Y-102688990D01*
X117438444Y-102694527D01*
X117444726Y-102696568D01*
X117444728Y-102696569D01*
X117451826Y-102698875D01*
X117470092Y-102706440D01*
X117482630Y-102712829D01*
X117489006Y-102714538D01*
X117489010Y-102714539D01*
X117548685Y-102730529D01*
X117555010Y-102732402D01*
X117620072Y-102753542D01*
X117626640Y-102754232D01*
X117626644Y-102754233D01*
X117634061Y-102755012D01*
X117653508Y-102758616D01*
X117667096Y-102762257D01*
X117673695Y-102762603D01*
X117673696Y-102762603D01*
X117735385Y-102765836D01*
X117741960Y-102766353D01*
X117756222Y-102767852D01*
X117762390Y-102768500D01*
X117782925Y-102768500D01*
X117789519Y-102768673D01*
X117851217Y-102771907D01*
X117851222Y-102771907D01*
X117857809Y-102772252D01*
X117871707Y-102770051D01*
X117891416Y-102768500D01*
X118692011Y-102768500D01*
X118760132Y-102788502D01*
X118787248Y-102812002D01*
X118802864Y-102830030D01*
X118802869Y-102830035D01*
X118806250Y-102833938D01*
X118978126Y-102976632D01*
X119171000Y-103089338D01*
X119175825Y-103091180D01*
X119175826Y-103091181D01*
X119223375Y-103109338D01*
X119379692Y-103169030D01*
X119384760Y-103170061D01*
X119384763Y-103170062D01*
X119482762Y-103190000D01*
X119598597Y-103213567D01*
X119603772Y-103213757D01*
X119603774Y-103213757D01*
X119816673Y-103221564D01*
X119816677Y-103221564D01*
X119821837Y-103221753D01*
X119826957Y-103221097D01*
X119826959Y-103221097D01*
X120038288Y-103194025D01*
X120038289Y-103194025D01*
X120043416Y-103193368D01*
X120048366Y-103191883D01*
X120252429Y-103130661D01*
X120252434Y-103130659D01*
X120257384Y-103129174D01*
X120457994Y-103030896D01*
X120639860Y-102901173D01*
X120736120Y-102805248D01*
X120798490Y-102771333D01*
X120825059Y-102768500D01*
X121232011Y-102768500D01*
X121300132Y-102788502D01*
X121327248Y-102812002D01*
X121346250Y-102833938D01*
X121350233Y-102837245D01*
X121353659Y-102840600D01*
X121388334Y-102902553D01*
X121391500Y-102930623D01*
X121391500Y-110958583D01*
X121389949Y-110978292D01*
X121387748Y-110992190D01*
X121388093Y-110998777D01*
X121388093Y-110998782D01*
X121391327Y-111060480D01*
X121391500Y-111067074D01*
X121391500Y-111087610D01*
X121391844Y-111090882D01*
X121391844Y-111090884D01*
X121393647Y-111108042D01*
X121394164Y-111114616D01*
X121397743Y-111182903D01*
X121399453Y-111189284D01*
X121399453Y-111189286D01*
X121401383Y-111196491D01*
X121404985Y-111215925D01*
X121405766Y-111223354D01*
X121405768Y-111223363D01*
X121406458Y-111229928D01*
X121427600Y-111294997D01*
X121429467Y-111301299D01*
X121447171Y-111367370D01*
X121451360Y-111375591D01*
X121453559Y-111379907D01*
X121461125Y-111398173D01*
X121465473Y-111411556D01*
X121468776Y-111417278D01*
X121468777Y-111417279D01*
X121499667Y-111470782D01*
X121502814Y-111476577D01*
X121533871Y-111537530D01*
X121538024Y-111542658D01*
X121538025Y-111542660D01*
X121542727Y-111548466D01*
X121553927Y-111564763D01*
X121557657Y-111571224D01*
X121557660Y-111571228D01*
X121560960Y-111576944D01*
X121565377Y-111581850D01*
X121565381Y-111581855D01*
X121606722Y-111627769D01*
X121611006Y-111632784D01*
X121617888Y-111641282D01*
X121623928Y-111648741D01*
X121638443Y-111663256D01*
X121642984Y-111668041D01*
X121688747Y-111718866D01*
X121694086Y-111722745D01*
X121694087Y-111722746D01*
X121700135Y-111727140D01*
X121715168Y-111739981D01*
X129251592Y-119276405D01*
X129285618Y-119338717D01*
X129280553Y-119409532D01*
X129238006Y-119466368D01*
X129171486Y-119491179D01*
X129162497Y-119491500D01*
X116634500Y-119491500D01*
X116566379Y-119471498D01*
X116519886Y-119417842D01*
X116508500Y-119365500D01*
X116508500Y-116978918D01*
X116986917Y-116978918D01*
X116987334Y-116986156D01*
X117002682Y-117252320D01*
X117055405Y-117521053D01*
X117056792Y-117525103D01*
X117056793Y-117525108D01*
X117131932Y-117744570D01*
X117144112Y-117780144D01*
X117173238Y-117838054D01*
X117263247Y-118017018D01*
X117267160Y-118024799D01*
X117269586Y-118028328D01*
X117269589Y-118028334D01*
X117394453Y-118210010D01*
X117422274Y-118250490D01*
X117606582Y-118453043D01*
X117816675Y-118628707D01*
X117820316Y-118630991D01*
X118045024Y-118771951D01*
X118045028Y-118771953D01*
X118048664Y-118774234D01*
X118113162Y-118803356D01*
X118294345Y-118885164D01*
X118294349Y-118885166D01*
X118298257Y-118886930D01*
X118302377Y-118888150D01*
X118302376Y-118888150D01*
X118556723Y-118963491D01*
X118556727Y-118963492D01*
X118560836Y-118964709D01*
X118565070Y-118965357D01*
X118565075Y-118965358D01*
X118827298Y-119005483D01*
X118827300Y-119005483D01*
X118831540Y-119006132D01*
X118970912Y-119008322D01*
X119101071Y-119010367D01*
X119101077Y-119010367D01*
X119105362Y-119010434D01*
X119377235Y-118977534D01*
X119642127Y-118908041D01*
X119646087Y-118906401D01*
X119646092Y-118906399D01*
X119863821Y-118816212D01*
X119895136Y-118803241D01*
X120121641Y-118670882D01*
X120127879Y-118667237D01*
X120127880Y-118667236D01*
X120131582Y-118665073D01*
X120347089Y-118496094D01*
X120388809Y-118453043D01*
X120534686Y-118302509D01*
X120537669Y-118299431D01*
X120540202Y-118295983D01*
X120540206Y-118295978D01*
X120697257Y-118082178D01*
X120699795Y-118078723D01*
X120701841Y-118074955D01*
X120828418Y-117841830D01*
X120828419Y-117841828D01*
X120830468Y-117838054D01*
X120893493Y-117671262D01*
X120925751Y-117585895D01*
X120925752Y-117585891D01*
X120927269Y-117581877D01*
X120965872Y-117413327D01*
X120987449Y-117319117D01*
X120987450Y-117319113D01*
X120988407Y-117314933D01*
X120990023Y-117296832D01*
X121012531Y-117044627D01*
X121012531Y-117044625D01*
X121012751Y-117042161D01*
X121013165Y-117002721D01*
X121013167Y-117002484D01*
X121013167Y-117002483D01*
X121013193Y-117000000D01*
X121009590Y-116947145D01*
X120994859Y-116731055D01*
X120994858Y-116731049D01*
X120994567Y-116726778D01*
X120990604Y-116707639D01*
X120947846Y-116501173D01*
X120939032Y-116458612D01*
X120847617Y-116200465D01*
X120785800Y-116080697D01*
X120723978Y-115960919D01*
X120723978Y-115960918D01*
X120722013Y-115957112D01*
X120712040Y-115942921D01*
X120578498Y-115752910D01*
X120564545Y-115733057D01*
X120482297Y-115644547D01*
X120381046Y-115535588D01*
X120381043Y-115535585D01*
X120378125Y-115532445D01*
X120374810Y-115529731D01*
X120374806Y-115529728D01*
X120169523Y-115361706D01*
X120166205Y-115358990D01*
X119942378Y-115221829D01*
X119936366Y-115218145D01*
X119936365Y-115218145D01*
X119932704Y-115215901D01*
X119918594Y-115209707D01*
X119685873Y-115107549D01*
X119685869Y-115107548D01*
X119681945Y-115105825D01*
X119418566Y-115030800D01*
X119414324Y-115030196D01*
X119414318Y-115030195D01*
X119213834Y-115001662D01*
X119147443Y-114992213D01*
X119003589Y-114991460D01*
X118877877Y-114990802D01*
X118877871Y-114990802D01*
X118873591Y-114990780D01*
X118869347Y-114991339D01*
X118869343Y-114991339D01*
X118776729Y-115003532D01*
X118602078Y-115026525D01*
X118597938Y-115027658D01*
X118597936Y-115027658D01*
X118549451Y-115040922D01*
X118337928Y-115098788D01*
X118333980Y-115100472D01*
X118089982Y-115204546D01*
X118089978Y-115204548D01*
X118086030Y-115206232D01*
X117967414Y-115277222D01*
X117854725Y-115344664D01*
X117854721Y-115344667D01*
X117851043Y-115346868D01*
X117637318Y-115518094D01*
X117559524Y-115600072D01*
X117509435Y-115652855D01*
X117448808Y-115716742D01*
X117289002Y-115939136D01*
X117160857Y-116181161D01*
X117159385Y-116185184D01*
X117159383Y-116185188D01*
X117068353Y-116433938D01*
X117066743Y-116438337D01*
X117008404Y-116705907D01*
X117008068Y-116710177D01*
X116988909Y-116953614D01*
X116986917Y-116978918D01*
X116508500Y-116978918D01*
X116508500Y-102147503D01*
X116528502Y-102079382D01*
X116582158Y-102032889D01*
X116652432Y-102022785D01*
X116717012Y-102052279D01*
G37*
%TD.AperFunction*%
%TA.AperFunction,Conductor*%
G36*
X169433621Y-66528502D02*
G01*
X169480114Y-66582158D01*
X169491500Y-66634500D01*
X169491500Y-119365500D01*
X169471498Y-119433621D01*
X169417842Y-119480114D01*
X169365500Y-119491500D01*
X163319392Y-119491500D01*
X163251271Y-119471498D01*
X163204778Y-119417842D01*
X163194674Y-119347568D01*
X163224168Y-119282988D01*
X163243827Y-119264674D01*
X163305724Y-119218285D01*
X163318285Y-119205724D01*
X163394786Y-119103649D01*
X163403324Y-119088054D01*
X163448478Y-118967606D01*
X163452105Y-118952351D01*
X163457631Y-118901486D01*
X163458000Y-118894672D01*
X163458000Y-118272115D01*
X163453525Y-118256876D01*
X163452135Y-118255671D01*
X163444452Y-118254000D01*
X161972000Y-118254000D01*
X161903879Y-118233998D01*
X161857386Y-118180342D01*
X161846000Y-118128000D01*
X161846000Y-117727885D01*
X162354000Y-117727885D01*
X162358475Y-117743124D01*
X162359865Y-117744329D01*
X162367548Y-117746000D01*
X163439884Y-117746000D01*
X163455123Y-117741525D01*
X163456328Y-117740135D01*
X163457999Y-117732452D01*
X163457999Y-117105331D01*
X163457629Y-117098510D01*
X163452105Y-117047648D01*
X163448479Y-117032396D01*
X163428431Y-116978918D01*
X164986917Y-116978918D01*
X164987334Y-116986156D01*
X165002682Y-117252320D01*
X165055405Y-117521053D01*
X165056792Y-117525103D01*
X165056793Y-117525108D01*
X165131932Y-117744570D01*
X165144112Y-117780144D01*
X165173238Y-117838054D01*
X165263247Y-118017018D01*
X165267160Y-118024799D01*
X165269586Y-118028328D01*
X165269589Y-118028334D01*
X165394453Y-118210010D01*
X165422274Y-118250490D01*
X165606582Y-118453043D01*
X165816675Y-118628707D01*
X165820316Y-118630991D01*
X166045024Y-118771951D01*
X166045028Y-118771953D01*
X166048664Y-118774234D01*
X166113162Y-118803356D01*
X166294345Y-118885164D01*
X166294349Y-118885166D01*
X166298257Y-118886930D01*
X166302377Y-118888150D01*
X166302376Y-118888150D01*
X166556723Y-118963491D01*
X166556727Y-118963492D01*
X166560836Y-118964709D01*
X166565070Y-118965357D01*
X166565075Y-118965358D01*
X166827298Y-119005483D01*
X166827300Y-119005483D01*
X166831540Y-119006132D01*
X166970912Y-119008322D01*
X167101071Y-119010367D01*
X167101077Y-119010367D01*
X167105362Y-119010434D01*
X167377235Y-118977534D01*
X167642127Y-118908041D01*
X167646087Y-118906401D01*
X167646092Y-118906399D01*
X167863821Y-118816212D01*
X167895136Y-118803241D01*
X168121641Y-118670882D01*
X168127879Y-118667237D01*
X168127880Y-118667236D01*
X168131582Y-118665073D01*
X168347089Y-118496094D01*
X168388809Y-118453043D01*
X168534686Y-118302509D01*
X168537669Y-118299431D01*
X168540202Y-118295983D01*
X168540206Y-118295978D01*
X168697257Y-118082178D01*
X168699795Y-118078723D01*
X168701841Y-118074955D01*
X168828418Y-117841830D01*
X168828419Y-117841828D01*
X168830468Y-117838054D01*
X168893493Y-117671262D01*
X168925751Y-117585895D01*
X168925752Y-117585891D01*
X168927269Y-117581877D01*
X168965872Y-117413327D01*
X168987449Y-117319117D01*
X168987450Y-117319113D01*
X168988407Y-117314933D01*
X168990023Y-117296832D01*
X169012531Y-117044627D01*
X169012531Y-117044625D01*
X169012751Y-117042161D01*
X169013165Y-117002721D01*
X169013167Y-117002484D01*
X169013167Y-117002483D01*
X169013193Y-117000000D01*
X169009590Y-116947145D01*
X168994859Y-116731055D01*
X168994858Y-116731049D01*
X168994567Y-116726778D01*
X168990604Y-116707639D01*
X168947846Y-116501173D01*
X168939032Y-116458612D01*
X168847617Y-116200465D01*
X168785800Y-116080697D01*
X168723978Y-115960919D01*
X168723978Y-115960918D01*
X168722013Y-115957112D01*
X168712040Y-115942921D01*
X168578498Y-115752910D01*
X168564545Y-115733057D01*
X168482297Y-115644547D01*
X168381046Y-115535588D01*
X168381043Y-115535585D01*
X168378125Y-115532445D01*
X168374810Y-115529731D01*
X168374806Y-115529728D01*
X168169523Y-115361706D01*
X168166205Y-115358990D01*
X167942378Y-115221829D01*
X167936366Y-115218145D01*
X167936365Y-115218145D01*
X167932704Y-115215901D01*
X167918594Y-115209707D01*
X167685873Y-115107549D01*
X167685869Y-115107548D01*
X167681945Y-115105825D01*
X167418566Y-115030800D01*
X167414324Y-115030196D01*
X167414318Y-115030195D01*
X167213834Y-115001662D01*
X167147443Y-114992213D01*
X167003589Y-114991460D01*
X166877877Y-114990802D01*
X166877871Y-114990802D01*
X166873591Y-114990780D01*
X166869347Y-114991339D01*
X166869343Y-114991339D01*
X166776729Y-115003532D01*
X166602078Y-115026525D01*
X166597938Y-115027658D01*
X166597936Y-115027658D01*
X166549451Y-115040922D01*
X166337928Y-115098788D01*
X166333980Y-115100472D01*
X166089982Y-115204546D01*
X166089978Y-115204548D01*
X166086030Y-115206232D01*
X165967414Y-115277222D01*
X165854725Y-115344664D01*
X165854721Y-115344667D01*
X165851043Y-115346868D01*
X165637318Y-115518094D01*
X165559524Y-115600072D01*
X165509435Y-115652855D01*
X165448808Y-115716742D01*
X165289002Y-115939136D01*
X165160857Y-116181161D01*
X165159385Y-116185184D01*
X165159383Y-116185188D01*
X165068353Y-116433938D01*
X165066743Y-116438337D01*
X165008404Y-116705907D01*
X165008068Y-116710177D01*
X164988909Y-116953614D01*
X164986917Y-116978918D01*
X163428431Y-116978918D01*
X163403324Y-116911946D01*
X163394786Y-116896351D01*
X163318285Y-116794276D01*
X163305724Y-116781715D01*
X163203649Y-116705214D01*
X163188054Y-116696676D01*
X163077297Y-116655155D01*
X163020533Y-116612513D01*
X162995833Y-116545952D01*
X163011040Y-116476603D01*
X163032587Y-116447922D01*
X163134057Y-116346805D01*
X163140730Y-116338965D01*
X163265003Y-116166020D01*
X163270313Y-116157183D01*
X163364670Y-115966267D01*
X163368469Y-115956672D01*
X163430377Y-115752910D01*
X163432555Y-115742837D01*
X163433986Y-115731962D01*
X163431775Y-115717778D01*
X163418617Y-115714000D01*
X162372115Y-115714000D01*
X162356876Y-115718475D01*
X162355671Y-115719865D01*
X162354000Y-115727548D01*
X162354000Y-117727885D01*
X161846000Y-117727885D01*
X161846000Y-115187885D01*
X162354000Y-115187885D01*
X162358475Y-115203124D01*
X162359865Y-115204329D01*
X162367548Y-115206000D01*
X163418344Y-115206000D01*
X163431875Y-115202027D01*
X163433180Y-115192947D01*
X163391214Y-115025875D01*
X163387894Y-115016124D01*
X163302972Y-114820814D01*
X163298105Y-114811739D01*
X163182426Y-114632926D01*
X163176136Y-114624757D01*
X163032806Y-114467240D01*
X163025273Y-114460215D01*
X162858139Y-114328222D01*
X162849552Y-114322517D01*
X162812116Y-114301851D01*
X162762146Y-114251419D01*
X162747374Y-114181976D01*
X162772490Y-114115571D01*
X162799842Y-114088964D01*
X162975327Y-113963792D01*
X162983200Y-113957139D01*
X163134052Y-113806812D01*
X163140730Y-113798965D01*
X163265003Y-113626020D01*
X163270313Y-113617183D01*
X163364670Y-113426267D01*
X163368469Y-113416672D01*
X163430377Y-113212910D01*
X163432555Y-113202837D01*
X163433986Y-113191962D01*
X163431775Y-113177778D01*
X163418617Y-113174000D01*
X162372115Y-113174000D01*
X162356876Y-113178475D01*
X162355671Y-113179865D01*
X162354000Y-113187548D01*
X162354000Y-115187885D01*
X161846000Y-115187885D01*
X161846000Y-112647885D01*
X162354000Y-112647885D01*
X162358475Y-112663124D01*
X162359865Y-112664329D01*
X162367548Y-112666000D01*
X163418344Y-112666000D01*
X163431875Y-112662027D01*
X163433180Y-112652947D01*
X163391214Y-112485875D01*
X163387894Y-112476124D01*
X163302972Y-112280814D01*
X163298105Y-112271739D01*
X163182426Y-112092926D01*
X163176136Y-112084757D01*
X163032806Y-111927240D01*
X163025273Y-111920215D01*
X162858139Y-111788222D01*
X162849552Y-111782517D01*
X162812116Y-111761851D01*
X162762146Y-111711419D01*
X162747374Y-111641976D01*
X162772490Y-111575571D01*
X162799842Y-111548964D01*
X162975327Y-111423792D01*
X162983200Y-111417139D01*
X163134052Y-111266812D01*
X163140730Y-111258965D01*
X163265003Y-111086020D01*
X163270313Y-111077183D01*
X163364670Y-110886267D01*
X163368469Y-110876672D01*
X163430377Y-110672910D01*
X163432555Y-110662837D01*
X163433986Y-110651962D01*
X163431775Y-110637778D01*
X163418617Y-110634000D01*
X162372115Y-110634000D01*
X162356876Y-110638475D01*
X162355671Y-110639865D01*
X162354000Y-110647548D01*
X162354000Y-112647885D01*
X161846000Y-112647885D01*
X161846000Y-110252000D01*
X161866002Y-110183879D01*
X161919658Y-110137386D01*
X161972000Y-110126000D01*
X163418344Y-110126000D01*
X163431875Y-110122027D01*
X163433180Y-110112947D01*
X163391214Y-109945875D01*
X163387894Y-109936124D01*
X163302972Y-109740814D01*
X163298105Y-109731739D01*
X163182426Y-109552926D01*
X163176136Y-109544757D01*
X163032806Y-109387240D01*
X163025273Y-109380215D01*
X162858139Y-109248222D01*
X162849552Y-109242517D01*
X162663117Y-109139599D01*
X162653705Y-109135369D01*
X162631194Y-109127397D01*
X162573658Y-109085803D01*
X162547742Y-109019705D01*
X162561676Y-108950089D01*
X162610254Y-108899505D01*
X162660798Y-108870324D01*
X162666579Y-108867185D01*
X162678290Y-108861218D01*
X162727530Y-108836129D01*
X162738467Y-108827273D01*
X162754763Y-108816073D01*
X162761224Y-108812343D01*
X162761228Y-108812340D01*
X162766944Y-108809040D01*
X162771850Y-108804623D01*
X162771855Y-108804619D01*
X162817769Y-108763278D01*
X162822784Y-108758994D01*
X162836177Y-108748148D01*
X162838741Y-108746072D01*
X162853256Y-108731557D01*
X162858041Y-108727016D01*
X162908866Y-108681253D01*
X162917140Y-108669865D01*
X162929981Y-108654832D01*
X164334832Y-107249981D01*
X164349865Y-107237140D01*
X164355913Y-107232746D01*
X164355914Y-107232745D01*
X164361253Y-107228866D01*
X164407016Y-107178041D01*
X164411557Y-107173256D01*
X164426072Y-107158741D01*
X164438994Y-107142784D01*
X164443278Y-107137769D01*
X164484619Y-107091855D01*
X164484623Y-107091850D01*
X164489040Y-107086944D01*
X164492340Y-107081228D01*
X164492343Y-107081224D01*
X164496073Y-107074763D01*
X164507273Y-107058466D01*
X164511975Y-107052660D01*
X164511976Y-107052658D01*
X164516129Y-107047530D01*
X164521365Y-107037255D01*
X164547188Y-106986574D01*
X164550336Y-106980777D01*
X164581224Y-106927277D01*
X164584527Y-106921556D01*
X164588875Y-106908174D01*
X164596438Y-106889915D01*
X164602830Y-106877370D01*
X164620537Y-106811288D01*
X164622409Y-106804969D01*
X164641501Y-106746210D01*
X164641501Y-106746209D01*
X164643542Y-106739928D01*
X164645014Y-106725925D01*
X164648615Y-106706496D01*
X164652257Y-106692903D01*
X164653291Y-106673174D01*
X164655836Y-106624616D01*
X164656353Y-106618042D01*
X164658500Y-106597612D01*
X164658500Y-106597610D01*
X164662814Y-106556565D01*
X164663504Y-106550000D01*
X164662033Y-106535999D01*
X164661516Y-106516241D01*
X164661907Y-106508782D01*
X164661907Y-106508778D01*
X164662252Y-106502190D01*
X164660051Y-106488293D01*
X164658500Y-106468583D01*
X164658500Y-102944953D01*
X164678502Y-102876832D01*
X164695561Y-102855701D01*
X164726121Y-102825248D01*
X164788493Y-102791333D01*
X164815060Y-102788500D01*
X165222011Y-102788500D01*
X165290132Y-102808502D01*
X165317248Y-102832002D01*
X165332864Y-102850030D01*
X165332869Y-102850035D01*
X165336250Y-102853938D01*
X165420846Y-102924171D01*
X165496827Y-102987251D01*
X165508126Y-102996632D01*
X165701000Y-103109338D01*
X165909692Y-103189030D01*
X165914760Y-103190061D01*
X165914763Y-103190062D01*
X165999388Y-103207279D01*
X166128597Y-103233567D01*
X166133772Y-103233757D01*
X166133774Y-103233757D01*
X166346673Y-103241564D01*
X166346677Y-103241564D01*
X166351837Y-103241753D01*
X166356957Y-103241097D01*
X166356959Y-103241097D01*
X166568288Y-103214025D01*
X166568289Y-103214025D01*
X166573416Y-103213368D01*
X166604791Y-103203955D01*
X166782429Y-103150661D01*
X166782434Y-103150659D01*
X166787384Y-103149174D01*
X166987994Y-103050896D01*
X167169860Y-102921173D01*
X167208405Y-102882763D01*
X167286190Y-102805249D01*
X167328096Y-102763489D01*
X167342468Y-102743489D01*
X167455435Y-102586277D01*
X167458453Y-102582077D01*
X167463953Y-102570950D01*
X167555136Y-102386453D01*
X167555137Y-102386451D01*
X167557430Y-102381811D01*
X167604892Y-102225597D01*
X167620865Y-102173023D01*
X167620865Y-102173021D01*
X167622370Y-102168069D01*
X167651529Y-101946590D01*
X167652912Y-101889995D01*
X167653074Y-101883365D01*
X167653074Y-101883361D01*
X167653156Y-101880000D01*
X167634852Y-101657361D01*
X167580431Y-101440702D01*
X167491354Y-101235840D01*
X167411143Y-101111852D01*
X167372822Y-101052617D01*
X167372820Y-101052614D01*
X167370014Y-101048277D01*
X167219670Y-100883051D01*
X167215619Y-100879852D01*
X167215615Y-100879848D01*
X167048414Y-100747800D01*
X167048410Y-100747798D01*
X167044359Y-100744598D01*
X167002569Y-100721529D01*
X166952598Y-100671097D01*
X166937826Y-100601654D01*
X166962942Y-100535248D01*
X166990293Y-100508642D01*
X167039247Y-100473723D01*
X167047648Y-100463023D01*
X167040660Y-100449870D01*
X166302812Y-99712022D01*
X166288868Y-99704408D01*
X166287035Y-99704539D01*
X166280420Y-99708790D01*
X165536737Y-100452473D01*
X165529977Y-100464853D01*
X165535258Y-100471907D01*
X165581969Y-100499203D01*
X165630693Y-100550841D01*
X165643764Y-100620624D01*
X165617033Y-100686396D01*
X165576584Y-100719752D01*
X165563607Y-100726507D01*
X165559474Y-100729610D01*
X165559471Y-100729612D01*
X165406624Y-100844373D01*
X165384965Y-100860635D01*
X165359892Y-100886873D01*
X165316241Y-100932551D01*
X165254717Y-100967981D01*
X165225147Y-100971500D01*
X164815856Y-100971500D01*
X164747735Y-100951498D01*
X164722662Y-100930299D01*
X164683148Y-100886873D01*
X164683145Y-100886870D01*
X164679670Y-100883051D01*
X164616600Y-100833241D01*
X164508414Y-100747800D01*
X164508410Y-100747798D01*
X164504359Y-100744598D01*
X164463053Y-100721796D01*
X164413084Y-100671364D01*
X164398312Y-100601921D01*
X164423428Y-100535516D01*
X164450780Y-100508909D01*
X164494603Y-100477650D01*
X164629860Y-100381173D01*
X164675296Y-100335896D01*
X164784435Y-100227137D01*
X164788096Y-100223489D01*
X164798385Y-100209171D01*
X164918453Y-100042077D01*
X164919640Y-100042930D01*
X164966960Y-99999362D01*
X165036897Y-99987145D01*
X165102338Y-100014678D01*
X165130166Y-100046512D01*
X165156459Y-100089419D01*
X165166916Y-100098880D01*
X165175694Y-100095096D01*
X165917978Y-99352812D01*
X165924356Y-99341132D01*
X166654408Y-99341132D01*
X166654539Y-99342965D01*
X166658790Y-99349580D01*
X167400474Y-100091264D01*
X167412484Y-100097823D01*
X167424223Y-100088855D01*
X167455004Y-100046019D01*
X167460315Y-100037180D01*
X167554670Y-99846267D01*
X167558469Y-99836672D01*
X167620376Y-99632915D01*
X167622555Y-99622834D01*
X167650590Y-99409887D01*
X167651109Y-99403212D01*
X167652572Y-99343364D01*
X167652378Y-99336646D01*
X167634781Y-99122604D01*
X167633096Y-99112424D01*
X167581214Y-98905875D01*
X167577894Y-98896124D01*
X167492972Y-98700814D01*
X167488105Y-98691739D01*
X167423063Y-98591197D01*
X167412377Y-98581995D01*
X167402812Y-98586398D01*
X166662022Y-99327188D01*
X166654408Y-99341132D01*
X165924356Y-99341132D01*
X165925592Y-99338868D01*
X165925461Y-99337035D01*
X165921210Y-99330420D01*
X165179849Y-98589059D01*
X165168313Y-98582759D01*
X165156031Y-98592382D01*
X165123499Y-98640072D01*
X165068587Y-98685075D01*
X164998063Y-98693246D01*
X164934316Y-98661992D01*
X164913618Y-98637508D01*
X164832822Y-98512617D01*
X164832820Y-98512614D01*
X164830014Y-98508277D01*
X164679670Y-98343051D01*
X164675619Y-98339852D01*
X164675615Y-98339848D01*
X164508414Y-98207800D01*
X164508410Y-98207798D01*
X164504359Y-98204598D01*
X164463053Y-98181796D01*
X164413084Y-98131364D01*
X164398312Y-98061921D01*
X164423428Y-97995516D01*
X164450780Y-97968909D01*
X164508362Y-97927836D01*
X164629860Y-97841173D01*
X164650590Y-97820516D01*
X164733066Y-97738327D01*
X164788096Y-97683489D01*
X164798385Y-97669171D01*
X164918453Y-97502077D01*
X164919776Y-97503028D01*
X164966645Y-97459857D01*
X165036580Y-97447625D01*
X165102026Y-97475144D01*
X165129875Y-97506994D01*
X165189987Y-97605088D01*
X165336250Y-97773938D01*
X165472339Y-97886921D01*
X165500208Y-97910058D01*
X165508126Y-97916632D01*
X165581445Y-97959476D01*
X165581955Y-97959774D01*
X165630679Y-98011412D01*
X165643750Y-98081195D01*
X165617019Y-98146967D01*
X165576562Y-98180327D01*
X165568460Y-98184544D01*
X165559734Y-98190039D01*
X165539677Y-98205099D01*
X165531223Y-98216427D01*
X165537968Y-98228758D01*
X166277188Y-98967978D01*
X166291132Y-98975592D01*
X166292965Y-98975461D01*
X166299580Y-98971210D01*
X167043389Y-98227401D01*
X167050410Y-98214544D01*
X167043611Y-98205213D01*
X167039559Y-98202521D01*
X167002602Y-98182120D01*
X166952631Y-98131687D01*
X166937859Y-98062245D01*
X166962975Y-97995839D01*
X166990327Y-97969232D01*
X167048362Y-97927836D01*
X167169860Y-97841173D01*
X167190590Y-97820516D01*
X167273066Y-97738327D01*
X167328096Y-97683489D01*
X167338385Y-97669171D01*
X167455435Y-97506277D01*
X167458453Y-97502077D01*
X167462611Y-97493665D01*
X167555136Y-97306453D01*
X167555137Y-97306451D01*
X167557430Y-97301811D01*
X167622370Y-97088069D01*
X167651529Y-96866590D01*
X167652027Y-96846206D01*
X167653074Y-96803365D01*
X167653074Y-96803361D01*
X167653156Y-96800000D01*
X167634852Y-96577361D01*
X167580431Y-96360702D01*
X167491354Y-96155840D01*
X167437524Y-96072632D01*
X167372822Y-95972617D01*
X167372820Y-95972614D01*
X167370014Y-95968277D01*
X167219670Y-95803051D01*
X167215619Y-95799852D01*
X167215615Y-95799848D01*
X167048414Y-95667800D01*
X167048410Y-95667798D01*
X167044359Y-95664598D01*
X167003053Y-95641796D01*
X166953084Y-95591364D01*
X166938312Y-95521921D01*
X166963428Y-95455516D01*
X166990780Y-95428909D01*
X167034603Y-95397650D01*
X167169860Y-95301173D01*
X167174256Y-95296793D01*
X167293665Y-95177800D01*
X167328096Y-95143489D01*
X167352451Y-95109596D01*
X167455435Y-94966277D01*
X167458453Y-94962077D01*
X167463127Y-94952621D01*
X167555136Y-94766453D01*
X167555137Y-94766451D01*
X167557430Y-94761811D01*
X167607759Y-94596158D01*
X167620865Y-94553023D01*
X167620865Y-94553021D01*
X167622370Y-94548069D01*
X167651529Y-94326590D01*
X167653156Y-94260000D01*
X167634852Y-94037361D01*
X167580431Y-93820702D01*
X167491354Y-93615840D01*
X167419901Y-93505390D01*
X167372822Y-93432617D01*
X167372820Y-93432614D01*
X167370014Y-93428277D01*
X167219670Y-93263051D01*
X167215619Y-93259852D01*
X167215615Y-93259848D01*
X167048414Y-93127800D01*
X167048410Y-93127798D01*
X167044359Y-93124598D01*
X167003053Y-93101796D01*
X166953084Y-93051364D01*
X166938312Y-92981921D01*
X166963428Y-92915516D01*
X166990780Y-92888909D01*
X167034603Y-92857650D01*
X167169860Y-92761173D01*
X167190590Y-92740516D01*
X167324435Y-92607137D01*
X167328096Y-92603489D01*
X167333838Y-92595499D01*
X167455435Y-92426277D01*
X167458453Y-92422077D01*
X167468861Y-92401019D01*
X167555136Y-92226453D01*
X167555137Y-92226451D01*
X167557430Y-92221811D01*
X167622370Y-92008069D01*
X167651529Y-91786590D01*
X167653156Y-91720000D01*
X167634852Y-91497361D01*
X167580431Y-91280702D01*
X167491354Y-91075840D01*
X167424568Y-90972604D01*
X167372822Y-90892617D01*
X167372820Y-90892614D01*
X167370014Y-90888277D01*
X167219670Y-90723051D01*
X167215619Y-90719852D01*
X167215615Y-90719848D01*
X167048414Y-90587800D01*
X167048410Y-90587798D01*
X167044359Y-90584598D01*
X167003053Y-90561796D01*
X166953084Y-90511364D01*
X166938312Y-90441921D01*
X166963428Y-90375516D01*
X166990780Y-90348909D01*
X167034603Y-90317650D01*
X167169860Y-90221173D01*
X167328096Y-90063489D01*
X167458453Y-89882077D01*
X167557430Y-89681811D01*
X167622370Y-89468069D01*
X167651529Y-89246590D01*
X167653156Y-89180000D01*
X167634852Y-88957361D01*
X167580431Y-88740702D01*
X167491354Y-88535840D01*
X167370014Y-88348277D01*
X167219670Y-88183051D01*
X167215619Y-88179852D01*
X167215615Y-88179848D01*
X167048414Y-88047800D01*
X167048410Y-88047798D01*
X167044359Y-88044598D01*
X167003053Y-88021796D01*
X166953084Y-87971364D01*
X166938312Y-87901921D01*
X166963428Y-87835516D01*
X166990780Y-87808909D01*
X167034603Y-87777650D01*
X167169860Y-87681173D01*
X167328096Y-87523489D01*
X167458453Y-87342077D01*
X167557430Y-87141811D01*
X167622370Y-86928069D01*
X167651529Y-86706590D01*
X167653156Y-86640000D01*
X167634852Y-86417361D01*
X167580431Y-86200702D01*
X167491354Y-85995840D01*
X167401298Y-85856634D01*
X167372822Y-85812617D01*
X167372820Y-85812614D01*
X167370014Y-85808277D01*
X167219670Y-85643051D01*
X167215619Y-85639852D01*
X167215615Y-85639848D01*
X167048414Y-85507800D01*
X167048410Y-85507798D01*
X167044359Y-85504598D01*
X167002569Y-85481529D01*
X166952598Y-85431097D01*
X166937826Y-85361654D01*
X166962942Y-85295248D01*
X166990293Y-85268642D01*
X167039247Y-85233723D01*
X167047648Y-85223023D01*
X167040660Y-85209870D01*
X165931922Y-84101132D01*
X166654408Y-84101132D01*
X166654539Y-84102965D01*
X166658790Y-84109580D01*
X167400474Y-84851264D01*
X167412484Y-84857823D01*
X167424223Y-84848855D01*
X167455004Y-84806019D01*
X167460315Y-84797180D01*
X167554670Y-84606267D01*
X167558469Y-84596672D01*
X167620376Y-84392915D01*
X167622555Y-84382834D01*
X167650590Y-84169887D01*
X167651109Y-84163212D01*
X167652572Y-84103364D01*
X167652378Y-84096646D01*
X167634781Y-83882604D01*
X167633096Y-83872424D01*
X167581214Y-83665875D01*
X167577894Y-83656124D01*
X167492972Y-83460814D01*
X167488105Y-83451739D01*
X167423063Y-83351197D01*
X167412377Y-83341995D01*
X167402812Y-83346398D01*
X166662022Y-84087188D01*
X166654408Y-84101132D01*
X165931922Y-84101132D01*
X165179849Y-83349059D01*
X165139510Y-83327031D01*
X165126523Y-83324206D01*
X165076322Y-83274003D01*
X165067388Y-83253497D01*
X165043870Y-83183007D01*
X165043869Y-83183005D01*
X165041550Y-83176054D01*
X164948478Y-83025652D01*
X164899167Y-82976427D01*
X165531223Y-82976427D01*
X165537968Y-82988758D01*
X166277188Y-83727978D01*
X166291132Y-83735592D01*
X166292965Y-83735461D01*
X166299580Y-83731210D01*
X167043389Y-82987401D01*
X167050410Y-82974544D01*
X167043611Y-82965213D01*
X167039554Y-82962518D01*
X166853117Y-82859599D01*
X166843705Y-82855369D01*
X166642959Y-82784280D01*
X166632989Y-82781646D01*
X166423327Y-82744301D01*
X166413073Y-82743331D01*
X166200116Y-82740728D01*
X166189832Y-82741448D01*
X165979321Y-82773661D01*
X165969293Y-82776050D01*
X165766868Y-82842212D01*
X165757359Y-82846209D01*
X165568466Y-82944540D01*
X165559734Y-82950039D01*
X165539677Y-82965099D01*
X165531223Y-82976427D01*
X164899167Y-82976427D01*
X164823303Y-82900695D01*
X164811224Y-82893249D01*
X164765298Y-82864940D01*
X164718383Y-82836021D01*
X164670891Y-82783250D01*
X164658500Y-82728762D01*
X164658500Y-77431417D01*
X164660051Y-77411705D01*
X164661220Y-77404325D01*
X164662252Y-77397810D01*
X164661650Y-77386313D01*
X164658673Y-77329519D01*
X164658500Y-77322925D01*
X164658500Y-77302390D01*
X164657377Y-77291705D01*
X164656353Y-77281960D01*
X164655836Y-77275385D01*
X164652603Y-77213696D01*
X164652603Y-77213695D01*
X164652257Y-77207096D01*
X164648616Y-77193508D01*
X164645012Y-77174061D01*
X164644233Y-77166644D01*
X164644232Y-77166640D01*
X164643542Y-77160072D01*
X164622402Y-77095009D01*
X164620529Y-77088685D01*
X164604539Y-77029010D01*
X164604538Y-77029006D01*
X164602829Y-77022630D01*
X164596440Y-77010092D01*
X164588875Y-76991826D01*
X164586569Y-76984728D01*
X164586568Y-76984726D01*
X164584527Y-76978444D01*
X164578899Y-76968695D01*
X164550333Y-76919218D01*
X164547185Y-76913421D01*
X164535299Y-76890093D01*
X164516129Y-76852470D01*
X164507273Y-76841533D01*
X164496073Y-76825237D01*
X164492343Y-76818776D01*
X164492340Y-76818772D01*
X164489040Y-76813056D01*
X164484623Y-76808150D01*
X164484619Y-76808145D01*
X164443278Y-76762231D01*
X164438994Y-76757216D01*
X164428148Y-76743823D01*
X164426072Y-76741259D01*
X164411557Y-76726744D01*
X164407016Y-76721959D01*
X164365673Y-76676043D01*
X164361253Y-76671134D01*
X164349865Y-76662860D01*
X164334832Y-76650019D01*
X157082947Y-69398134D01*
X158101500Y-69398134D01*
X158108255Y-69460316D01*
X158159385Y-69596705D01*
X158246739Y-69713261D01*
X158363295Y-69800615D01*
X158499684Y-69851745D01*
X158561866Y-69858500D01*
X160358134Y-69858500D01*
X160420316Y-69851745D01*
X160556705Y-69800615D01*
X160673261Y-69713261D01*
X160760615Y-69596705D01*
X160782799Y-69537529D01*
X160804598Y-69479382D01*
X160847240Y-69422618D01*
X160913802Y-69397918D01*
X160983150Y-69413126D01*
X161017817Y-69441114D01*
X161046250Y-69473938D01*
X161218126Y-69616632D01*
X161411000Y-69729338D01*
X161619692Y-69809030D01*
X161624760Y-69810061D01*
X161624763Y-69810062D01*
X161732017Y-69831883D01*
X161838597Y-69853567D01*
X161843772Y-69853757D01*
X161843774Y-69853757D01*
X162056673Y-69861564D01*
X162056677Y-69861564D01*
X162061837Y-69861753D01*
X162066957Y-69861097D01*
X162066959Y-69861097D01*
X162278288Y-69834025D01*
X162278289Y-69834025D01*
X162283416Y-69833368D01*
X162288366Y-69831883D01*
X162492429Y-69770661D01*
X162492434Y-69770659D01*
X162497384Y-69769174D01*
X162697994Y-69670896D01*
X162879860Y-69541173D01*
X162900051Y-69521053D01*
X163023616Y-69397918D01*
X163038096Y-69383489D01*
X163043853Y-69375478D01*
X163165435Y-69206277D01*
X163168453Y-69202077D01*
X163222797Y-69092121D01*
X163265136Y-69006453D01*
X163265137Y-69006451D01*
X163267430Y-69001811D01*
X163274385Y-68978918D01*
X164986917Y-68978918D01*
X164987334Y-68986156D01*
X165002682Y-69252320D01*
X165055405Y-69521053D01*
X165056792Y-69525103D01*
X165056793Y-69525108D01*
X165136215Y-69757080D01*
X165144112Y-69780144D01*
X165173238Y-69838054D01*
X165242837Y-69976437D01*
X165267160Y-70024799D01*
X165269586Y-70028328D01*
X165269589Y-70028334D01*
X165360030Y-70159925D01*
X165422274Y-70250490D01*
X165425161Y-70253663D01*
X165425162Y-70253664D01*
X165553444Y-70394645D01*
X165606582Y-70453043D01*
X165609877Y-70455798D01*
X165609878Y-70455799D01*
X165670373Y-70506380D01*
X165816675Y-70628707D01*
X165824413Y-70633561D01*
X166045024Y-70771951D01*
X166045028Y-70771953D01*
X166048664Y-70774234D01*
X166139630Y-70815307D01*
X166294345Y-70885164D01*
X166294349Y-70885166D01*
X166298257Y-70886930D01*
X166302377Y-70888150D01*
X166302376Y-70888150D01*
X166556723Y-70963491D01*
X166556727Y-70963492D01*
X166560836Y-70964709D01*
X166565070Y-70965357D01*
X166565075Y-70965358D01*
X166827298Y-71005483D01*
X166827300Y-71005483D01*
X166831540Y-71006132D01*
X166970912Y-71008322D01*
X167101071Y-71010367D01*
X167101077Y-71010367D01*
X167105362Y-71010434D01*
X167377235Y-70977534D01*
X167642127Y-70908041D01*
X167646087Y-70906401D01*
X167646092Y-70906399D01*
X167768632Y-70855641D01*
X167895136Y-70803241D01*
X168131582Y-70665073D01*
X168347089Y-70496094D01*
X168387403Y-70454494D01*
X168534686Y-70302509D01*
X168537669Y-70299431D01*
X168540202Y-70295983D01*
X168540206Y-70295978D01*
X168697257Y-70082178D01*
X168699795Y-70078723D01*
X168727154Y-70028334D01*
X168828418Y-69841830D01*
X168828419Y-69841828D01*
X168830468Y-69838054D01*
X168927269Y-69581877D01*
X168973800Y-69378710D01*
X168987449Y-69319117D01*
X168987450Y-69319113D01*
X168988407Y-69314933D01*
X168991365Y-69281797D01*
X169012531Y-69044627D01*
X169012531Y-69044625D01*
X169012751Y-69042161D01*
X169013193Y-69000000D01*
X169012979Y-68996857D01*
X168994859Y-68731055D01*
X168994858Y-68731049D01*
X168994567Y-68726778D01*
X168988917Y-68699493D01*
X168949073Y-68507099D01*
X168939032Y-68458612D01*
X168847617Y-68200465D01*
X168722013Y-67957112D01*
X168712040Y-67942921D01*
X168623086Y-67816353D01*
X168564545Y-67733057D01*
X168463583Y-67624409D01*
X168381046Y-67535588D01*
X168381043Y-67535585D01*
X168378125Y-67532445D01*
X168374810Y-67529731D01*
X168374806Y-67529728D01*
X168244069Y-67422721D01*
X168166205Y-67358990D01*
X167932704Y-67215901D01*
X167928768Y-67214173D01*
X167685873Y-67107549D01*
X167685869Y-67107548D01*
X167681945Y-67105825D01*
X167418566Y-67030800D01*
X167414324Y-67030196D01*
X167414318Y-67030195D01*
X167213834Y-67001662D01*
X167147443Y-66992213D01*
X167003589Y-66991460D01*
X166877877Y-66990802D01*
X166877871Y-66990802D01*
X166873591Y-66990780D01*
X166869347Y-66991339D01*
X166869343Y-66991339D01*
X166750302Y-67007011D01*
X166602078Y-67026525D01*
X166597938Y-67027658D01*
X166597936Y-67027658D01*
X166525008Y-67047609D01*
X166337928Y-67098788D01*
X166333980Y-67100472D01*
X166089982Y-67204546D01*
X166089978Y-67204548D01*
X166086030Y-67206232D01*
X166020005Y-67245747D01*
X165854725Y-67344664D01*
X165854721Y-67344667D01*
X165851043Y-67346868D01*
X165637318Y-67518094D01*
X165562404Y-67597037D01*
X165494800Y-67668277D01*
X165448808Y-67716742D01*
X165289002Y-67939136D01*
X165160857Y-68181161D01*
X165159385Y-68185184D01*
X165159383Y-68185188D01*
X165068214Y-68434317D01*
X165066743Y-68438337D01*
X165008404Y-68705907D01*
X164986917Y-68978918D01*
X163274385Y-68978918D01*
X163332370Y-68788069D01*
X163361529Y-68566590D01*
X163361822Y-68554599D01*
X163363074Y-68503365D01*
X163363074Y-68503361D01*
X163363156Y-68500000D01*
X163344852Y-68277361D01*
X163290431Y-68060702D01*
X163201354Y-67855840D01*
X163112683Y-67718776D01*
X163082822Y-67672617D01*
X163082820Y-67672614D01*
X163080014Y-67668277D01*
X162929670Y-67503051D01*
X162925619Y-67499852D01*
X162925615Y-67499848D01*
X162758414Y-67367800D01*
X162758410Y-67367798D01*
X162754359Y-67364598D01*
X162727100Y-67349550D01*
X162702136Y-67335769D01*
X162558789Y-67256638D01*
X162553920Y-67254914D01*
X162553916Y-67254912D01*
X162353087Y-67183795D01*
X162353083Y-67183794D01*
X162348212Y-67182069D01*
X162343119Y-67181162D01*
X162343116Y-67181161D01*
X162133373Y-67143800D01*
X162133367Y-67143799D01*
X162128284Y-67142894D01*
X162054452Y-67141992D01*
X161910081Y-67140228D01*
X161910079Y-67140228D01*
X161904911Y-67140165D01*
X161684091Y-67173955D01*
X161471756Y-67243357D01*
X161273607Y-67346507D01*
X161269474Y-67349610D01*
X161269471Y-67349612D01*
X161099100Y-67477530D01*
X161094965Y-67480635D01*
X161021955Y-67557036D01*
X161014283Y-67565064D01*
X160952759Y-67600494D01*
X160881846Y-67597037D01*
X160824060Y-67555791D01*
X160805207Y-67522243D01*
X160763767Y-67411703D01*
X160760615Y-67403295D01*
X160673261Y-67286739D01*
X160556705Y-67199385D01*
X160420316Y-67148255D01*
X160358134Y-67141500D01*
X158561866Y-67141500D01*
X158499684Y-67148255D01*
X158363295Y-67199385D01*
X158246739Y-67286739D01*
X158159385Y-67403295D01*
X158108255Y-67539684D01*
X158101500Y-67601866D01*
X158101500Y-69398134D01*
X157082947Y-69398134D01*
X154408408Y-66723595D01*
X154374382Y-66661283D01*
X154379447Y-66590468D01*
X154421994Y-66533632D01*
X154488514Y-66508821D01*
X154497503Y-66508500D01*
X169365500Y-66508500D01*
X169433621Y-66528502D01*
G37*
%TD.AperFunction*%
%TA.AperFunction,Conductor*%
G36*
X148560728Y-112438502D02*
G01*
X148607221Y-112492158D01*
X148617325Y-112562432D01*
X148593584Y-112619864D01*
X148581223Y-112636426D01*
X148587968Y-112648758D01*
X149327188Y-113387978D01*
X149341132Y-113395592D01*
X149342965Y-113395461D01*
X149349580Y-113391210D01*
X150093389Y-112647401D01*
X150100409Y-112634545D01*
X150088863Y-112618698D01*
X150064915Y-112551862D01*
X150080903Y-112482689D01*
X150131750Y-112433141D01*
X150190700Y-112418500D01*
X151026340Y-112418500D01*
X151094461Y-112438502D01*
X151140954Y-112492158D01*
X151151058Y-112562432D01*
X151121564Y-112627012D01*
X151101993Y-112645260D01*
X151013113Y-112711993D01*
X150974965Y-112740635D01*
X150820629Y-112902138D01*
X150713204Y-113059618D01*
X150712898Y-113060066D01*
X150657987Y-113105069D01*
X150587462Y-113113240D01*
X150523715Y-113081986D01*
X150503017Y-113057501D01*
X150473062Y-113011197D01*
X150462377Y-113001995D01*
X150452812Y-113006398D01*
X149712022Y-113747188D01*
X149704408Y-113761132D01*
X149704539Y-113762965D01*
X149708790Y-113769580D01*
X150450474Y-114511264D01*
X150462484Y-114517823D01*
X150474223Y-114508855D01*
X150508022Y-114461819D01*
X150509277Y-114462721D01*
X150556391Y-114419355D01*
X150626330Y-114407148D01*
X150691767Y-114434691D01*
X150719580Y-114466513D01*
X150777287Y-114560683D01*
X150777291Y-114560688D01*
X150779987Y-114565088D01*
X150783367Y-114568990D01*
X150922866Y-114730032D01*
X150922869Y-114730035D01*
X150926250Y-114733938D01*
X150930224Y-114737237D01*
X150933658Y-114740600D01*
X150968334Y-114802553D01*
X150971500Y-114830623D01*
X150971500Y-115233737D01*
X150951498Y-115301858D01*
X150936594Y-115320788D01*
X150830460Y-115431851D01*
X150820629Y-115442138D01*
X150713204Y-115599618D01*
X150712898Y-115600066D01*
X150657987Y-115645069D01*
X150587462Y-115653240D01*
X150523715Y-115621986D01*
X150503017Y-115597501D01*
X150473062Y-115551197D01*
X150462377Y-115541995D01*
X150452812Y-115546398D01*
X149712022Y-116287188D01*
X149704408Y-116301132D01*
X149704539Y-116302965D01*
X149708790Y-116309580D01*
X150450474Y-117051264D01*
X150462484Y-117057823D01*
X150474223Y-117048855D01*
X150508022Y-117001819D01*
X150509277Y-117002721D01*
X150556391Y-116959355D01*
X150626330Y-116947148D01*
X150691767Y-116974691D01*
X150719580Y-117006513D01*
X150777287Y-117100683D01*
X150777291Y-117100688D01*
X150779987Y-117105088D01*
X150783367Y-117108990D01*
X150922866Y-117270032D01*
X150922869Y-117270035D01*
X150926250Y-117273938D01*
X150930224Y-117277237D01*
X150933658Y-117280600D01*
X150968334Y-117342553D01*
X150971500Y-117370623D01*
X150971500Y-118191495D01*
X150951498Y-118259616D01*
X150934596Y-118280590D01*
X150840592Y-118374595D01*
X150778280Y-118408620D01*
X150751496Y-118411500D01*
X146516189Y-118411500D01*
X146448068Y-118391498D01*
X146401575Y-118337842D01*
X146391471Y-118267568D01*
X146420965Y-118202988D01*
X146455492Y-118175083D01*
X146460243Y-118172471D01*
X146467617Y-118169552D01*
X146474028Y-118164894D01*
X146474032Y-118164892D01*
X146503387Y-118143564D01*
X146513307Y-118137048D01*
X146544535Y-118118580D01*
X146544538Y-118118578D01*
X146551362Y-118114542D01*
X146565683Y-118100221D01*
X146580717Y-118087380D01*
X146582432Y-118086134D01*
X146597107Y-118075472D01*
X146625298Y-118041395D01*
X146633288Y-118032616D01*
X146994642Y-117671262D01*
X147056954Y-117637236D01*
X147067726Y-117635378D01*
X147083416Y-117633368D01*
X147214759Y-117593963D01*
X147292429Y-117570661D01*
X147292434Y-117570659D01*
X147297384Y-117569174D01*
X147497994Y-117470896D01*
X147562544Y-117424853D01*
X148579977Y-117424853D01*
X148585258Y-117431907D01*
X148746756Y-117526279D01*
X148756042Y-117530729D01*
X148955001Y-117606703D01*
X148964899Y-117609579D01*
X149173595Y-117652038D01*
X149183823Y-117653257D01*
X149396650Y-117661062D01*
X149406936Y-117660595D01*
X149618185Y-117633534D01*
X149628262Y-117631392D01*
X149832255Y-117570191D01*
X149841842Y-117566433D01*
X150033098Y-117472738D01*
X150041944Y-117467465D01*
X150089247Y-117433723D01*
X150097648Y-117423023D01*
X150090660Y-117409870D01*
X149352812Y-116672022D01*
X149338868Y-116664408D01*
X149337035Y-116664539D01*
X149330420Y-116668790D01*
X148586737Y-117412473D01*
X148579977Y-117424853D01*
X147562544Y-117424853D01*
X147679860Y-117341173D01*
X147689693Y-117331375D01*
X147791460Y-117229962D01*
X147838096Y-117183489D01*
X147841333Y-117178985D01*
X147968453Y-117002077D01*
X147969640Y-117002930D01*
X148016960Y-116959362D01*
X148086897Y-116947145D01*
X148152338Y-116974678D01*
X148180166Y-117006512D01*
X148206459Y-117049419D01*
X148216916Y-117058880D01*
X148225694Y-117055096D01*
X148967978Y-116312812D01*
X148975592Y-116298868D01*
X148975461Y-116297035D01*
X148971210Y-116290420D01*
X148229849Y-115549059D01*
X148218313Y-115542759D01*
X148206031Y-115552382D01*
X148173499Y-115600072D01*
X148118587Y-115645075D01*
X148048063Y-115653246D01*
X147984316Y-115621992D01*
X147963618Y-115597508D01*
X147882822Y-115472617D01*
X147882820Y-115472614D01*
X147880014Y-115468277D01*
X147872483Y-115460000D01*
X147741307Y-115315839D01*
X147710255Y-115251993D01*
X147708500Y-115231039D01*
X147708500Y-114884853D01*
X148579977Y-114884853D01*
X148585258Y-114891907D01*
X148632479Y-114919501D01*
X148681203Y-114971139D01*
X148694274Y-115040922D01*
X148667543Y-115106694D01*
X148627087Y-115140053D01*
X148618466Y-115144541D01*
X148609734Y-115150039D01*
X148589677Y-115165099D01*
X148581223Y-115176427D01*
X148587968Y-115188758D01*
X149327188Y-115927978D01*
X149341132Y-115935592D01*
X149342965Y-115935461D01*
X149349580Y-115931210D01*
X150093389Y-115187401D01*
X150100410Y-115174544D01*
X150093611Y-115165213D01*
X150089559Y-115162521D01*
X150052116Y-115141852D01*
X150002145Y-115091420D01*
X149987373Y-115021977D01*
X150012489Y-114955572D01*
X150039840Y-114928965D01*
X150089247Y-114893723D01*
X150097648Y-114883023D01*
X150090660Y-114869870D01*
X149352812Y-114132022D01*
X149338868Y-114124408D01*
X149337035Y-114124539D01*
X149330420Y-114128790D01*
X148586737Y-114872473D01*
X148579977Y-114884853D01*
X147708500Y-114884853D01*
X147708500Y-114824953D01*
X147728502Y-114756832D01*
X147745560Y-114735702D01*
X147809579Y-114671907D01*
X147838096Y-114643489D01*
X147897594Y-114560689D01*
X147968453Y-114462077D01*
X147969640Y-114462930D01*
X148016960Y-114419362D01*
X148086897Y-114407145D01*
X148152338Y-114434678D01*
X148180166Y-114466512D01*
X148206459Y-114509419D01*
X148216916Y-114518880D01*
X148225694Y-114515096D01*
X148967978Y-113772812D01*
X148975592Y-113758868D01*
X148975461Y-113757035D01*
X148971210Y-113750420D01*
X148229849Y-113009059D01*
X148218313Y-113002759D01*
X148206031Y-113012382D01*
X148173499Y-113060072D01*
X148118587Y-113105075D01*
X148048063Y-113113246D01*
X147984316Y-113081992D01*
X147963618Y-113057508D01*
X147882822Y-112932617D01*
X147882820Y-112932614D01*
X147880014Y-112928277D01*
X147872483Y-112920000D01*
X147741307Y-112775839D01*
X147710255Y-112711993D01*
X147708500Y-112691039D01*
X147708500Y-112598503D01*
X147728502Y-112530382D01*
X147745405Y-112509408D01*
X147799408Y-112455405D01*
X147861720Y-112421379D01*
X147888503Y-112418500D01*
X148492607Y-112418500D01*
X148560728Y-112438502D01*
G37*
%TD.AperFunction*%
%TA.AperFunction,Conductor*%
G36*
X136739537Y-96433502D02*
G01*
X136786030Y-96487158D01*
X136796726Y-96552669D01*
X136786496Y-96650000D01*
X136787186Y-96656565D01*
X136804824Y-96824377D01*
X136806458Y-96839928D01*
X136865473Y-97021556D01*
X136960960Y-97186944D01*
X136965378Y-97191851D01*
X136965379Y-97191852D01*
X137077690Y-97316586D01*
X137088747Y-97328866D01*
X137117304Y-97349614D01*
X137237553Y-97436980D01*
X137243248Y-97441118D01*
X137249276Y-97443802D01*
X137249278Y-97443803D01*
X137394566Y-97508489D01*
X137417712Y-97518794D01*
X137511112Y-97538647D01*
X137598056Y-97557128D01*
X137598061Y-97557128D01*
X137604513Y-97558500D01*
X137660406Y-97558500D01*
X137728527Y-97578502D01*
X137749501Y-97595405D01*
X139019595Y-98865499D01*
X139053621Y-98927811D01*
X139056500Y-98954594D01*
X139056500Y-102487476D01*
X139036498Y-102555597D01*
X139024142Y-102571779D01*
X138950960Y-102653056D01*
X138902812Y-102736451D01*
X138866218Y-102799834D01*
X138855473Y-102818444D01*
X138796458Y-103000072D01*
X138795768Y-103006633D01*
X138795768Y-103006635D01*
X138782997Y-103128148D01*
X138776496Y-103190000D01*
X138777186Y-103196565D01*
X138781916Y-103241564D01*
X138796458Y-103379928D01*
X138855473Y-103561556D01*
X138858776Y-103567278D01*
X138858777Y-103567279D01*
X138889861Y-103621118D01*
X138950960Y-103726944D01*
X139078747Y-103868866D01*
X139233248Y-103981118D01*
X139239276Y-103983802D01*
X139239278Y-103983803D01*
X139401681Y-104056109D01*
X139407712Y-104058794D01*
X139501112Y-104078647D01*
X139588056Y-104097128D01*
X139588061Y-104097128D01*
X139594513Y-104098500D01*
X139785487Y-104098500D01*
X139791939Y-104097128D01*
X139791944Y-104097128D01*
X139878888Y-104078647D01*
X139972288Y-104058794D01*
X139978319Y-104056109D01*
X140140722Y-103983803D01*
X140140724Y-103983802D01*
X140146752Y-103981118D01*
X140301253Y-103868866D01*
X140429040Y-103726944D01*
X140490139Y-103621118D01*
X140521223Y-103567279D01*
X140521224Y-103567278D01*
X140524527Y-103561556D01*
X140583542Y-103379928D01*
X140598085Y-103241564D01*
X140602814Y-103196565D01*
X140603504Y-103190000D01*
X140597003Y-103128148D01*
X140584232Y-103006635D01*
X140584232Y-103006633D01*
X140583542Y-103000072D01*
X140524527Y-102818444D01*
X140513783Y-102799834D01*
X140477188Y-102736451D01*
X140429040Y-102653056D01*
X140355863Y-102571785D01*
X140325147Y-102507779D01*
X140323500Y-102487476D01*
X140323500Y-98718767D01*
X140324027Y-98707584D01*
X140325702Y-98700091D01*
X140325440Y-98691739D01*
X140323562Y-98632014D01*
X140323500Y-98628055D01*
X140323500Y-98600144D01*
X140322995Y-98596144D01*
X140322062Y-98584301D01*
X140320922Y-98548029D01*
X140320673Y-98540110D01*
X140315022Y-98520658D01*
X140311014Y-98501306D01*
X140309798Y-98491680D01*
X140308474Y-98481203D01*
X140304591Y-98471395D01*
X140292200Y-98440097D01*
X140288355Y-98428870D01*
X140283074Y-98410694D01*
X140276018Y-98386407D01*
X140271984Y-98379585D01*
X140271981Y-98379579D01*
X140265706Y-98368968D01*
X140257010Y-98351218D01*
X140252472Y-98339756D01*
X140252469Y-98339751D01*
X140249552Y-98332383D01*
X140223573Y-98296625D01*
X140217057Y-98286707D01*
X140206005Y-98268019D01*
X140194542Y-98248637D01*
X140180218Y-98234313D01*
X140167376Y-98219278D01*
X140165305Y-98216427D01*
X140155472Y-98202893D01*
X140121406Y-98174711D01*
X140112627Y-98166722D01*
X139939770Y-97993865D01*
X139939766Y-97993862D01*
X139295518Y-97349614D01*
X138647122Y-96701217D01*
X138613096Y-96638905D01*
X138610907Y-96625293D01*
X138605342Y-96572342D01*
X138603274Y-96552670D01*
X138616046Y-96482832D01*
X138664548Y-96430986D01*
X138728584Y-96413500D01*
X153106406Y-96413500D01*
X153174527Y-96433502D01*
X153221020Y-96487158D01*
X153231124Y-96557432D01*
X153201630Y-96622012D01*
X153195502Y-96628594D01*
X151924853Y-97899242D01*
X150657747Y-99166348D01*
X150649461Y-99173888D01*
X150642982Y-99178000D01*
X150637557Y-99183777D01*
X150596355Y-99227653D01*
X150593600Y-99230495D01*
X150573865Y-99250230D01*
X150571385Y-99253427D01*
X150563682Y-99262447D01*
X150533414Y-99294679D01*
X150529595Y-99301625D01*
X150529593Y-99301628D01*
X150523652Y-99312434D01*
X150512801Y-99328953D01*
X150500386Y-99344959D01*
X150497241Y-99352228D01*
X150497238Y-99352232D01*
X150482826Y-99385537D01*
X150477609Y-99396187D01*
X150456305Y-99434940D01*
X150454334Y-99442615D01*
X150454334Y-99442616D01*
X150451267Y-99454562D01*
X150444863Y-99473266D01*
X150436819Y-99491855D01*
X150435580Y-99499678D01*
X150435577Y-99499688D01*
X150429901Y-99535524D01*
X150427495Y-99547144D01*
X150416500Y-99589970D01*
X150416500Y-99610224D01*
X150414949Y-99629934D01*
X150411780Y-99649943D01*
X150412526Y-99657835D01*
X150415941Y-99693961D01*
X150416500Y-99705819D01*
X150416500Y-102157476D01*
X150396498Y-102225597D01*
X150384142Y-102241779D01*
X150310960Y-102323056D01*
X150301136Y-102340072D01*
X150232794Y-102458444D01*
X150215473Y-102488444D01*
X150156458Y-102670072D01*
X150155768Y-102676633D01*
X150155768Y-102676635D01*
X150144011Y-102788500D01*
X150136496Y-102860000D01*
X150137186Y-102866565D01*
X150154458Y-103030896D01*
X150156458Y-103049928D01*
X150215473Y-103231556D01*
X150218776Y-103237278D01*
X150218777Y-103237279D01*
X150221251Y-103241564D01*
X150310960Y-103396944D01*
X150315378Y-103401851D01*
X150315379Y-103401852D01*
X150385809Y-103480072D01*
X150438747Y-103538866D01*
X150593248Y-103651118D01*
X150599276Y-103653802D01*
X150599278Y-103653803D01*
X150703412Y-103700166D01*
X150767712Y-103728794D01*
X150861113Y-103748647D01*
X150948056Y-103767128D01*
X150948061Y-103767128D01*
X150954513Y-103768500D01*
X151145487Y-103768500D01*
X151151939Y-103767128D01*
X151151944Y-103767128D01*
X151238887Y-103748647D01*
X151332288Y-103728794D01*
X151396588Y-103700166D01*
X151500722Y-103653803D01*
X151500724Y-103653802D01*
X151506752Y-103651118D01*
X151661253Y-103538866D01*
X151789040Y-103396944D01*
X151790543Y-103394340D01*
X151845705Y-103351803D01*
X151916441Y-103345726D01*
X151979233Y-103378857D01*
X151992958Y-103396476D01*
X151993776Y-103395882D01*
X151997659Y-103401226D01*
X152000960Y-103406944D01*
X152128747Y-103548866D01*
X152181451Y-103587158D01*
X152264143Y-103647237D01*
X152283248Y-103661118D01*
X152289276Y-103663802D01*
X152289278Y-103663803D01*
X152438333Y-103730166D01*
X152457712Y-103738794D01*
X152551112Y-103758647D01*
X152638056Y-103777128D01*
X152638061Y-103777128D01*
X152644513Y-103778500D01*
X152835487Y-103778500D01*
X152841939Y-103777128D01*
X152841944Y-103777128D01*
X152928887Y-103758647D01*
X153022288Y-103738794D01*
X153041667Y-103730166D01*
X153190722Y-103663803D01*
X153190724Y-103663802D01*
X153196752Y-103661118D01*
X153215858Y-103647237D01*
X153298549Y-103587158D01*
X153351253Y-103548866D01*
X153354261Y-103545525D01*
X153417562Y-103515147D01*
X153437866Y-103513500D01*
X156500500Y-103513500D01*
X156568621Y-103533502D01*
X156615114Y-103587158D01*
X156626500Y-103639500D01*
X156626500Y-105143134D01*
X156633255Y-105205316D01*
X156684385Y-105341705D01*
X156771739Y-105458261D01*
X156888295Y-105545615D01*
X156896703Y-105548767D01*
X156994730Y-105585516D01*
X157051494Y-105628158D01*
X157076194Y-105694719D01*
X157076500Y-105703498D01*
X157076500Y-105886497D01*
X157056498Y-105954618D01*
X157039595Y-105975592D01*
X157030592Y-105984595D01*
X156968280Y-106018621D01*
X156941497Y-106021500D01*
X156591417Y-106021500D01*
X156571707Y-106019949D01*
X156564327Y-106018780D01*
X156564326Y-106018780D01*
X156557810Y-106017748D01*
X156551223Y-106018093D01*
X156551218Y-106018093D01*
X156489520Y-106021327D01*
X156482926Y-106021500D01*
X156462390Y-106021500D01*
X156459118Y-106021844D01*
X156459116Y-106021844D01*
X156441958Y-106023647D01*
X156435384Y-106024164D01*
X156373696Y-106027397D01*
X156373694Y-106027397D01*
X156367097Y-106027743D01*
X156353504Y-106031385D01*
X156334075Y-106034986D01*
X156320072Y-106036458D01*
X156255025Y-106057593D01*
X156248712Y-106059463D01*
X156228074Y-106064993D01*
X156189003Y-106075462D01*
X156189000Y-106075463D01*
X156182630Y-106077170D01*
X156170085Y-106083562D01*
X156151826Y-106091125D01*
X156138444Y-106095473D01*
X156132723Y-106098776D01*
X156079223Y-106129664D01*
X156073426Y-106132812D01*
X156018351Y-106160874D01*
X156018348Y-106160876D01*
X156012470Y-106163871D01*
X156007342Y-106168024D01*
X156007340Y-106168025D01*
X156001534Y-106172727D01*
X155985237Y-106183927D01*
X155978776Y-106187657D01*
X155978772Y-106187660D01*
X155973056Y-106190960D01*
X155968150Y-106195377D01*
X155968145Y-106195381D01*
X155922231Y-106236722D01*
X155917216Y-106241006D01*
X155914134Y-106243502D01*
X155901259Y-106253928D01*
X155886744Y-106268443D01*
X155881959Y-106272984D01*
X155831134Y-106318747D01*
X155827255Y-106324086D01*
X155827254Y-106324087D01*
X155822860Y-106330135D01*
X155810019Y-106345168D01*
X154035168Y-108120019D01*
X154020135Y-108132860D01*
X154008747Y-108141134D01*
X154004327Y-108146043D01*
X153962984Y-108191959D01*
X153958443Y-108196744D01*
X153943928Y-108211259D01*
X153941852Y-108213823D01*
X153931006Y-108227216D01*
X153926722Y-108232231D01*
X153885381Y-108278145D01*
X153885377Y-108278150D01*
X153880960Y-108283056D01*
X153877660Y-108288772D01*
X153877657Y-108288776D01*
X153873927Y-108295237D01*
X153862727Y-108311533D01*
X153853871Y-108322470D01*
X153836594Y-108356379D01*
X153822815Y-108383421D01*
X153819669Y-108389215D01*
X153785473Y-108448444D01*
X153783432Y-108454726D01*
X153783431Y-108454728D01*
X153781125Y-108461826D01*
X153773560Y-108480092D01*
X153767171Y-108492630D01*
X153765463Y-108499003D01*
X153765463Y-108499004D01*
X153749469Y-108558695D01*
X153747600Y-108565003D01*
X153726458Y-108630072D01*
X153725768Y-108636637D01*
X153725766Y-108636646D01*
X153724985Y-108644075D01*
X153721383Y-108663509D01*
X153719453Y-108670714D01*
X153717743Y-108677097D01*
X153717398Y-108683688D01*
X153717397Y-108683692D01*
X153714164Y-108745384D01*
X153713647Y-108751958D01*
X153712418Y-108763652D01*
X153711500Y-108772390D01*
X153711500Y-108792926D01*
X153711327Y-108799520D01*
X153710200Y-108821032D01*
X153707748Y-108867810D01*
X153708780Y-108874325D01*
X153709949Y-108881705D01*
X153711500Y-108901417D01*
X153711500Y-110321497D01*
X153691498Y-110389618D01*
X153674595Y-110410592D01*
X153520592Y-110564595D01*
X153458280Y-110598621D01*
X153431497Y-110601500D01*
X147541417Y-110601500D01*
X147521708Y-110599949D01*
X147507810Y-110597748D01*
X147501223Y-110598093D01*
X147501218Y-110598093D01*
X147439520Y-110601327D01*
X147432926Y-110601500D01*
X147412390Y-110601500D01*
X147409118Y-110601844D01*
X147409116Y-110601844D01*
X147391958Y-110603647D01*
X147385384Y-110604164D01*
X147323696Y-110607397D01*
X147323694Y-110607397D01*
X147317097Y-110607743D01*
X147303504Y-110611385D01*
X147284075Y-110614986D01*
X147270072Y-110616458D01*
X147205025Y-110637593D01*
X147198712Y-110639463D01*
X147197213Y-110639865D01*
X147139003Y-110655462D01*
X147139000Y-110655463D01*
X147132630Y-110657170D01*
X147120085Y-110663562D01*
X147101826Y-110671125D01*
X147088444Y-110675473D01*
X147082723Y-110678776D01*
X147029223Y-110709664D01*
X147023426Y-110712812D01*
X146968351Y-110740874D01*
X146968348Y-110740876D01*
X146962470Y-110743871D01*
X146957342Y-110748024D01*
X146957340Y-110748025D01*
X146951534Y-110752727D01*
X146935237Y-110763927D01*
X146928776Y-110767657D01*
X146928772Y-110767660D01*
X146923056Y-110770960D01*
X146918150Y-110775377D01*
X146918145Y-110775381D01*
X146872231Y-110816722D01*
X146867216Y-110821006D01*
X146858718Y-110827888D01*
X146851259Y-110833928D01*
X146836744Y-110848443D01*
X146831959Y-110852984D01*
X146781134Y-110898747D01*
X146777255Y-110904086D01*
X146777254Y-110904087D01*
X146772860Y-110910135D01*
X146760019Y-110925168D01*
X146215168Y-111470019D01*
X146200135Y-111482860D01*
X146188747Y-111491134D01*
X146184327Y-111496043D01*
X146142984Y-111541959D01*
X146138443Y-111546744D01*
X146123928Y-111561259D01*
X146121852Y-111563823D01*
X146111006Y-111577216D01*
X146106722Y-111582231D01*
X146065381Y-111628145D01*
X146065377Y-111628150D01*
X146060960Y-111633056D01*
X146057660Y-111638772D01*
X146057657Y-111638776D01*
X146053927Y-111645237D01*
X146042727Y-111661534D01*
X146039442Y-111665591D01*
X146033871Y-111672470D01*
X146010231Y-111718866D01*
X146002815Y-111733421D01*
X145999669Y-111739215D01*
X145965473Y-111798444D01*
X145963432Y-111804726D01*
X145963431Y-111804728D01*
X145961125Y-111811826D01*
X145953560Y-111830092D01*
X145947171Y-111842630D01*
X145930527Y-111904748D01*
X145929469Y-111908695D01*
X145927600Y-111915003D01*
X145906458Y-111980072D01*
X145905768Y-111986637D01*
X145905766Y-111986646D01*
X145904985Y-111994075D01*
X145901383Y-112013509D01*
X145900840Y-112015537D01*
X145897743Y-112027097D01*
X145897398Y-112033688D01*
X145897397Y-112033692D01*
X145894164Y-112095384D01*
X145893647Y-112101958D01*
X145893510Y-112103266D01*
X145891500Y-112122390D01*
X145891500Y-112142926D01*
X145891327Y-112149520D01*
X145887748Y-112217810D01*
X145888780Y-112224325D01*
X145889949Y-112231705D01*
X145891500Y-112251417D01*
X145891500Y-112693737D01*
X145871498Y-112761858D01*
X145856594Y-112780788D01*
X145750460Y-112891851D01*
X145740629Y-112902138D01*
X145633204Y-113059618D01*
X145632898Y-113060066D01*
X145577987Y-113105069D01*
X145507462Y-113113240D01*
X145443715Y-113081986D01*
X145423017Y-113057501D01*
X145393062Y-113011197D01*
X145382377Y-113001995D01*
X145372812Y-113006398D01*
X144632022Y-113747188D01*
X144624408Y-113761132D01*
X144624539Y-113762965D01*
X144628790Y-113769580D01*
X145370474Y-114511264D01*
X145382484Y-114517823D01*
X145394223Y-114508855D01*
X145428022Y-114461819D01*
X145429277Y-114462721D01*
X145476391Y-114419355D01*
X145546330Y-114407148D01*
X145611767Y-114434691D01*
X145639580Y-114466513D01*
X145697287Y-114560683D01*
X145697291Y-114560688D01*
X145699987Y-114565088D01*
X145703367Y-114568990D01*
X145842866Y-114730032D01*
X145842869Y-114730035D01*
X145846250Y-114733938D01*
X145850224Y-114737237D01*
X145853658Y-114740600D01*
X145888334Y-114802553D01*
X145891500Y-114830623D01*
X145891500Y-115233737D01*
X145871498Y-115301858D01*
X145856594Y-115320788D01*
X145750460Y-115431851D01*
X145740629Y-115442138D01*
X145633201Y-115599621D01*
X145578293Y-115644621D01*
X145507768Y-115652792D01*
X145444021Y-115621538D01*
X145423324Y-115597054D01*
X145342822Y-115472617D01*
X145342820Y-115472614D01*
X145340014Y-115468277D01*
X145189670Y-115303051D01*
X145185619Y-115299852D01*
X145185615Y-115299848D01*
X145018414Y-115167800D01*
X145018410Y-115167798D01*
X145014359Y-115164598D01*
X144972569Y-115141529D01*
X144922598Y-115091097D01*
X144907826Y-115021654D01*
X144932942Y-114955248D01*
X144960293Y-114928642D01*
X145009247Y-114893723D01*
X145017648Y-114883023D01*
X145010660Y-114869870D01*
X143989885Y-113849095D01*
X143955859Y-113786783D01*
X143960924Y-113715968D01*
X143989885Y-113670905D01*
X145013389Y-112647401D01*
X145020410Y-112634544D01*
X145013611Y-112625213D01*
X145009554Y-112622518D01*
X144823117Y-112519599D01*
X144813705Y-112515368D01*
X144770676Y-112500131D01*
X144713139Y-112458536D01*
X144687224Y-112392439D01*
X144701158Y-112322823D01*
X144723641Y-112292263D01*
X146121578Y-110894327D01*
X148252253Y-108763652D01*
X148260539Y-108756112D01*
X148267018Y-108752000D01*
X148313644Y-108702348D01*
X148316398Y-108699507D01*
X148336135Y-108679770D01*
X148338615Y-108676573D01*
X148346320Y-108667551D01*
X148371159Y-108641100D01*
X148376586Y-108635321D01*
X148380405Y-108628375D01*
X148380407Y-108628372D01*
X148386348Y-108617566D01*
X148397199Y-108601047D01*
X148404758Y-108591301D01*
X148409614Y-108585041D01*
X148412759Y-108577772D01*
X148412762Y-108577768D01*
X148427174Y-108544463D01*
X148432391Y-108533813D01*
X148453695Y-108495060D01*
X148455829Y-108486751D01*
X148458733Y-108475438D01*
X148465137Y-108456734D01*
X148470033Y-108445420D01*
X148470033Y-108445419D01*
X148473181Y-108438145D01*
X148474420Y-108430322D01*
X148474423Y-108430312D01*
X148480099Y-108394476D01*
X148482505Y-108382856D01*
X148491528Y-108347711D01*
X148491528Y-108347710D01*
X148493500Y-108340030D01*
X148493500Y-108319776D01*
X148495051Y-108300065D01*
X148496980Y-108287886D01*
X148498220Y-108280057D01*
X148494059Y-108236038D01*
X148493500Y-108224181D01*
X148493500Y-104372524D01*
X148513502Y-104304403D01*
X148525858Y-104288221D01*
X148599040Y-104206944D01*
X148662442Y-104097128D01*
X148691223Y-104047279D01*
X148691224Y-104047278D01*
X148694527Y-104041556D01*
X148753542Y-103859928D01*
X148766305Y-103738500D01*
X148772814Y-103676565D01*
X148773504Y-103670000D01*
X148768366Y-103621118D01*
X148754232Y-103486635D01*
X148754232Y-103486633D01*
X148753542Y-103480072D01*
X148694527Y-103298444D01*
X148599040Y-103133056D01*
X148478554Y-102999242D01*
X148475675Y-102996045D01*
X148475674Y-102996044D01*
X148471253Y-102991134D01*
X148342417Y-102897529D01*
X148322094Y-102882763D01*
X148322093Y-102882762D01*
X148316752Y-102878882D01*
X148310724Y-102876198D01*
X148310722Y-102876197D01*
X148148319Y-102803891D01*
X148148318Y-102803891D01*
X148142288Y-102801206D01*
X147996316Y-102770179D01*
X147933844Y-102736451D01*
X147902681Y-102685869D01*
X147889933Y-102646635D01*
X147864527Y-102568444D01*
X147769040Y-102403056D01*
X147745451Y-102376857D01*
X147645675Y-102266045D01*
X147645674Y-102266044D01*
X147641253Y-102261134D01*
X147513161Y-102168069D01*
X147492094Y-102152763D01*
X147492093Y-102152762D01*
X147486752Y-102148882D01*
X147480724Y-102146198D01*
X147480722Y-102146197D01*
X147318319Y-102073891D01*
X147318318Y-102073891D01*
X147312288Y-102071206D01*
X147210932Y-102049662D01*
X147131944Y-102032872D01*
X147131939Y-102032872D01*
X147125487Y-102031500D01*
X147098799Y-102031500D01*
X147030678Y-102011498D01*
X146984185Y-101957842D01*
X146978966Y-101944436D01*
X146978578Y-101943240D01*
X146944527Y-101838444D01*
X146849040Y-101673056D01*
X146810009Y-101629707D01*
X146725675Y-101536045D01*
X146725674Y-101536044D01*
X146721253Y-101531134D01*
X146611666Y-101451514D01*
X146572094Y-101422763D01*
X146572093Y-101422762D01*
X146566752Y-101418882D01*
X146560724Y-101416198D01*
X146560722Y-101416197D01*
X146398319Y-101343891D01*
X146398318Y-101343891D01*
X146392288Y-101341206D01*
X146349311Y-101332071D01*
X146286838Y-101298343D01*
X146255675Y-101247760D01*
X146224940Y-101153168D01*
X146222898Y-101146883D01*
X146210000Y-101124542D01*
X146165968Y-101048277D01*
X146127411Y-100981495D01*
X146118412Y-100971500D01*
X146004046Y-100844484D01*
X146004045Y-100844483D01*
X145999624Y-100839573D01*
X145845123Y-100727321D01*
X145839095Y-100724637D01*
X145839093Y-100724636D01*
X145676690Y-100652330D01*
X145676689Y-100652330D01*
X145670659Y-100649645D01*
X145577258Y-100629792D01*
X145490315Y-100611311D01*
X145490310Y-100611311D01*
X145483858Y-100609939D01*
X145292884Y-100609939D01*
X145286432Y-100611311D01*
X145286427Y-100611311D01*
X145199484Y-100629792D01*
X145106083Y-100649645D01*
X145100053Y-100652330D01*
X145100052Y-100652330D01*
X144937649Y-100724636D01*
X144937647Y-100724637D01*
X144931619Y-100727321D01*
X144777118Y-100839573D01*
X144772697Y-100844483D01*
X144772696Y-100844484D01*
X144658331Y-100971500D01*
X144649331Y-100981495D01*
X144610774Y-101048277D01*
X144566743Y-101124542D01*
X144553844Y-101146883D01*
X144494829Y-101328511D01*
X144494139Y-101335072D01*
X144494139Y-101335074D01*
X144486337Y-101409305D01*
X144474867Y-101518439D01*
X144475557Y-101525004D01*
X144490011Y-101662522D01*
X144494829Y-101708367D01*
X144553844Y-101889995D01*
X144557147Y-101895717D01*
X144557148Y-101895718D01*
X144601747Y-101972965D01*
X144649331Y-102055383D01*
X144653749Y-102060290D01*
X144653750Y-102060291D01*
X144719136Y-102132909D01*
X144749853Y-102196917D01*
X144751500Y-102217220D01*
X144751500Y-107180406D01*
X144731498Y-107248527D01*
X144714595Y-107269501D01*
X140104500Y-111879595D01*
X140042188Y-111913621D01*
X140015405Y-111916500D01*
X139828768Y-111916500D01*
X139817585Y-111915973D01*
X139810092Y-111914298D01*
X139802166Y-111914547D01*
X139802165Y-111914547D01*
X139742002Y-111916438D01*
X139738044Y-111916500D01*
X139710144Y-111916500D01*
X139706154Y-111917004D01*
X139694320Y-111917936D01*
X139650111Y-111919326D01*
X139642497Y-111921538D01*
X139642492Y-111921539D01*
X139630659Y-111924977D01*
X139611296Y-111928988D01*
X139591203Y-111931526D01*
X139583836Y-111934443D01*
X139583831Y-111934444D01*
X139550092Y-111947802D01*
X139538865Y-111951646D01*
X139496407Y-111963982D01*
X139495440Y-111960653D01*
X139440612Y-111967436D01*
X139376625Y-111936676D01*
X139339426Y-111876204D01*
X139340825Y-111805222D01*
X139371903Y-111754001D01*
X140432247Y-110693657D01*
X140440537Y-110686113D01*
X140447018Y-110682000D01*
X140460108Y-110668061D01*
X140493658Y-110632333D01*
X140496413Y-110629491D01*
X140516135Y-110609769D01*
X140518612Y-110606576D01*
X140526317Y-110597555D01*
X140539455Y-110583564D01*
X140556586Y-110565321D01*
X140562512Y-110554542D01*
X140566346Y-110547568D01*
X140577202Y-110531041D01*
X140584757Y-110521302D01*
X140584758Y-110521300D01*
X140589614Y-110515040D01*
X140607174Y-110474460D01*
X140612391Y-110463812D01*
X140629875Y-110432009D01*
X140629876Y-110432007D01*
X140633695Y-110425060D01*
X140636209Y-110415271D01*
X140638733Y-110405438D01*
X140645137Y-110386734D01*
X140650033Y-110375420D01*
X140650033Y-110375419D01*
X140653181Y-110368145D01*
X140654420Y-110360322D01*
X140654423Y-110360312D01*
X140660099Y-110324476D01*
X140662505Y-110312856D01*
X140671528Y-110277711D01*
X140671528Y-110277710D01*
X140673500Y-110270030D01*
X140673500Y-110249776D01*
X140675051Y-110230065D01*
X140676980Y-110217886D01*
X140678220Y-110210057D01*
X140674059Y-110166038D01*
X140673500Y-110154181D01*
X140673500Y-108422524D01*
X140693502Y-108354403D01*
X140705858Y-108338221D01*
X140779040Y-108256944D01*
X140874527Y-108091556D01*
X140933542Y-107909928D01*
X140935518Y-107891134D01*
X140952814Y-107726565D01*
X140953504Y-107720000D01*
X140951529Y-107701206D01*
X140934232Y-107536635D01*
X140934232Y-107536633D01*
X140933542Y-107530072D01*
X140874527Y-107348444D01*
X140779040Y-107183056D01*
X140774525Y-107178041D01*
X140655675Y-107046045D01*
X140655674Y-107046044D01*
X140651253Y-107041134D01*
X140496752Y-106928882D01*
X140490724Y-106926198D01*
X140490722Y-106926197D01*
X140328319Y-106853891D01*
X140328318Y-106853891D01*
X140322288Y-106851206D01*
X140228041Y-106831173D01*
X140141944Y-106812872D01*
X140141939Y-106812872D01*
X140135487Y-106811500D01*
X139944513Y-106811500D01*
X139938061Y-106812872D01*
X139938056Y-106812872D01*
X139851959Y-106831173D01*
X139757712Y-106851206D01*
X139751682Y-106853891D01*
X139751681Y-106853891D01*
X139589278Y-106926197D01*
X139589276Y-106926198D01*
X139583248Y-106928882D01*
X139577907Y-106932762D01*
X139577906Y-106932763D01*
X139474401Y-107007964D01*
X139428747Y-107041134D01*
X139424332Y-107046037D01*
X139419420Y-107050460D01*
X139418295Y-107049211D01*
X139364986Y-107082051D01*
X139331800Y-107086500D01*
X134668768Y-107086500D01*
X134657585Y-107085973D01*
X134650092Y-107084298D01*
X134642166Y-107084547D01*
X134642165Y-107084547D01*
X134582002Y-107086438D01*
X134578044Y-107086500D01*
X134550144Y-107086500D01*
X134546154Y-107087004D01*
X134534320Y-107087936D01*
X134490111Y-107089326D01*
X134482495Y-107091539D01*
X134482493Y-107091539D01*
X134470652Y-107094979D01*
X134451293Y-107098988D01*
X134449983Y-107099154D01*
X134431203Y-107101526D01*
X134423837Y-107104442D01*
X134423831Y-107104444D01*
X134390098Y-107117800D01*
X134378868Y-107121645D01*
X134368714Y-107124595D01*
X134336407Y-107133981D01*
X134329584Y-107138016D01*
X134318966Y-107144295D01*
X134301213Y-107152992D01*
X134293568Y-107156019D01*
X134282383Y-107160448D01*
X134258168Y-107178041D01*
X134246612Y-107186437D01*
X134236695Y-107192951D01*
X134198638Y-107215458D01*
X134193033Y-107221062D01*
X134184315Y-107229780D01*
X134169282Y-107242620D01*
X134152893Y-107254528D01*
X134147841Y-107260635D01*
X134124712Y-107288593D01*
X134116722Y-107297374D01*
X133703865Y-107710230D01*
X133703852Y-107710244D01*
X132034500Y-109379595D01*
X131972188Y-109413621D01*
X131945405Y-109416500D01*
X130703384Y-109416500D01*
X130635263Y-109396498D01*
X130588770Y-109342842D01*
X130578666Y-109272568D01*
X130608160Y-109207988D01*
X130657019Y-109173341D01*
X130659930Y-109172189D01*
X130671142Y-109168351D01*
X130705983Y-109158229D01*
X130705984Y-109158229D01*
X130713593Y-109156018D01*
X130720412Y-109151985D01*
X130720417Y-109151983D01*
X130731028Y-109145707D01*
X130748776Y-109137012D01*
X130767617Y-109129552D01*
X130803387Y-109103564D01*
X130813307Y-109097048D01*
X130844535Y-109078580D01*
X130844538Y-109078578D01*
X130851362Y-109074542D01*
X130865683Y-109060221D01*
X130880717Y-109047380D01*
X130890694Y-109040131D01*
X130897107Y-109035472D01*
X130925298Y-109001395D01*
X130933288Y-108992616D01*
X136450500Y-103475405D01*
X136512812Y-103441379D01*
X136539595Y-103438500D01*
X136595487Y-103438500D01*
X136601939Y-103437128D01*
X136601944Y-103437128D01*
X136688887Y-103418647D01*
X136782288Y-103398794D01*
X136788319Y-103396109D01*
X136950722Y-103323803D01*
X136950724Y-103323802D01*
X136956752Y-103321118D01*
X136979310Y-103304729D01*
X137072146Y-103237279D01*
X137111253Y-103208866D01*
X137124616Y-103194025D01*
X137234621Y-103071852D01*
X137234622Y-103071851D01*
X137239040Y-103066944D01*
X137334527Y-102901556D01*
X137393542Y-102719928D01*
X137399970Y-102658774D01*
X137412814Y-102536565D01*
X137413504Y-102530000D01*
X137393542Y-102340072D01*
X137334527Y-102158444D01*
X137329007Y-102148882D01*
X137276771Y-102058408D01*
X137239040Y-101993056D01*
X137200190Y-101949908D01*
X137115675Y-101856045D01*
X137115674Y-101856044D01*
X137111253Y-101851134D01*
X136956752Y-101738882D01*
X136950724Y-101736198D01*
X136950722Y-101736197D01*
X136788319Y-101663891D01*
X136788318Y-101663891D01*
X136782288Y-101661206D01*
X136670107Y-101637361D01*
X136601944Y-101622872D01*
X136601939Y-101622872D01*
X136595487Y-101621500D01*
X136404513Y-101621500D01*
X136398061Y-101622872D01*
X136398056Y-101622872D01*
X136329893Y-101637361D01*
X136217712Y-101661206D01*
X136211682Y-101663891D01*
X136211681Y-101663891D01*
X136049278Y-101736197D01*
X136049276Y-101736198D01*
X136043248Y-101738882D01*
X135888747Y-101851134D01*
X135884326Y-101856044D01*
X135884325Y-101856045D01*
X135799811Y-101949908D01*
X135760960Y-101993056D01*
X135723229Y-102058408D01*
X135670994Y-102148882D01*
X135665473Y-102158444D01*
X135606458Y-102340072D01*
X135590966Y-102487476D01*
X135589093Y-102505293D01*
X135562080Y-102570950D01*
X135552878Y-102581218D01*
X130234500Y-107899595D01*
X130172188Y-107933621D01*
X130145405Y-107936500D01*
X128418200Y-107936500D01*
X128350079Y-107916498D01*
X128330853Y-107900157D01*
X128330580Y-107900460D01*
X128325668Y-107896037D01*
X128321253Y-107891134D01*
X128166752Y-107778882D01*
X128160724Y-107776198D01*
X128160722Y-107776197D01*
X127998319Y-107703891D01*
X127998318Y-107703891D01*
X127992288Y-107701206D01*
X127898887Y-107681353D01*
X127811944Y-107662872D01*
X127811939Y-107662872D01*
X127805487Y-107661500D01*
X127614513Y-107661500D01*
X127608061Y-107662872D01*
X127608056Y-107662872D01*
X127521113Y-107681353D01*
X127427712Y-107701206D01*
X127421682Y-107703891D01*
X127421681Y-107703891D01*
X127259278Y-107776197D01*
X127259276Y-107776198D01*
X127253248Y-107778882D01*
X127098747Y-107891134D01*
X127094326Y-107896044D01*
X127094325Y-107896045D01*
X127060492Y-107933621D01*
X126970960Y-108033056D01*
X126875473Y-108198444D01*
X126816458Y-108380072D01*
X126815768Y-108386633D01*
X126815768Y-108386635D01*
X126799753Y-108539011D01*
X126796496Y-108570000D01*
X126797186Y-108576565D01*
X126815018Y-108746223D01*
X126816458Y-108759928D01*
X126875473Y-108941556D01*
X126878776Y-108947278D01*
X126878777Y-108947279D01*
X126888167Y-108963542D01*
X126970960Y-109106944D01*
X126975378Y-109111851D01*
X126975379Y-109111852D01*
X127060321Y-109206190D01*
X127091039Y-109270197D01*
X127082274Y-109340651D01*
X127036811Y-109395182D01*
X126966685Y-109416500D01*
X125098200Y-109416500D01*
X125030079Y-109396498D01*
X125010853Y-109380157D01*
X125010580Y-109380460D01*
X125005668Y-109376037D01*
X125001253Y-109371134D01*
X124846752Y-109258882D01*
X124840724Y-109256198D01*
X124840722Y-109256197D01*
X124678319Y-109183891D01*
X124678318Y-109183891D01*
X124672288Y-109181206D01*
X124578887Y-109161353D01*
X124491944Y-109142872D01*
X124491939Y-109142872D01*
X124485487Y-109141500D01*
X124294513Y-109141500D01*
X124288061Y-109142872D01*
X124288056Y-109142872D01*
X124201112Y-109161353D01*
X124107712Y-109181206D01*
X124101682Y-109183891D01*
X124101681Y-109183891D01*
X123939278Y-109256197D01*
X123939276Y-109256198D01*
X123933248Y-109258882D01*
X123778747Y-109371134D01*
X123774326Y-109376044D01*
X123774325Y-109376045D01*
X123740492Y-109413621D01*
X123650960Y-109513056D01*
X123555473Y-109678444D01*
X123496458Y-109860072D01*
X123495768Y-109866633D01*
X123495768Y-109866635D01*
X123485482Y-109964501D01*
X123476496Y-110050000D01*
X123477186Y-110056565D01*
X123485681Y-110137386D01*
X123496458Y-110239928D01*
X123555473Y-110421556D01*
X123558776Y-110427278D01*
X123558777Y-110427279D01*
X123582873Y-110469014D01*
X123650960Y-110586944D01*
X123655378Y-110591851D01*
X123655379Y-110591852D01*
X123737452Y-110683003D01*
X123778747Y-110728866D01*
X123933248Y-110841118D01*
X123939276Y-110843802D01*
X123939278Y-110843803D01*
X124052758Y-110894327D01*
X124107712Y-110918794D01*
X124201113Y-110938647D01*
X124288056Y-110957128D01*
X124288061Y-110957128D01*
X124294513Y-110958500D01*
X124485487Y-110958500D01*
X124491939Y-110957128D01*
X124491944Y-110957128D01*
X124578887Y-110938647D01*
X124672288Y-110918794D01*
X124727242Y-110894327D01*
X124840722Y-110843803D01*
X124840724Y-110843802D01*
X124846752Y-110841118D01*
X125001253Y-110728866D01*
X125005668Y-110723963D01*
X125010580Y-110719540D01*
X125011705Y-110720789D01*
X125065014Y-110687949D01*
X125098200Y-110683500D01*
X132181233Y-110683500D01*
X132192416Y-110684027D01*
X132199909Y-110685702D01*
X132207835Y-110685453D01*
X132207836Y-110685453D01*
X132267986Y-110683562D01*
X132271945Y-110683500D01*
X132299856Y-110683500D01*
X132303791Y-110683003D01*
X132303856Y-110682995D01*
X132315693Y-110682062D01*
X132347951Y-110681048D01*
X132351970Y-110680922D01*
X132359889Y-110680673D01*
X132379343Y-110675021D01*
X132398700Y-110671013D01*
X132410930Y-110669468D01*
X132410931Y-110669468D01*
X132418797Y-110668474D01*
X132426168Y-110665555D01*
X132426170Y-110665555D01*
X132459912Y-110652196D01*
X132471142Y-110648351D01*
X132505983Y-110638229D01*
X132505984Y-110638229D01*
X132513593Y-110636018D01*
X132520412Y-110631985D01*
X132520417Y-110631983D01*
X132531028Y-110625707D01*
X132548776Y-110617012D01*
X132567617Y-110609552D01*
X132582663Y-110598621D01*
X132603387Y-110583564D01*
X132613307Y-110577048D01*
X132644535Y-110558580D01*
X132644538Y-110558578D01*
X132651362Y-110554542D01*
X132665683Y-110540221D01*
X132680717Y-110527380D01*
X132697107Y-110515472D01*
X132725298Y-110481395D01*
X132733288Y-110472616D01*
X133692849Y-109513056D01*
X134656135Y-108549770D01*
X134656138Y-108549766D01*
X134815499Y-108390405D01*
X134877811Y-108356379D01*
X134904594Y-108353500D01*
X139280500Y-108353500D01*
X139348621Y-108373502D01*
X139395114Y-108427158D01*
X139406500Y-108479500D01*
X139406500Y-109875406D01*
X139386498Y-109943527D01*
X139369595Y-109964501D01*
X138452284Y-110881811D01*
X137537747Y-111796348D01*
X137529461Y-111803888D01*
X137522982Y-111808000D01*
X137517557Y-111813777D01*
X137476357Y-111857651D01*
X137473602Y-111860493D01*
X137453865Y-111880230D01*
X137451385Y-111883427D01*
X137443682Y-111892447D01*
X137413414Y-111924679D01*
X137409595Y-111931625D01*
X137409593Y-111931628D01*
X137403652Y-111942434D01*
X137392801Y-111958953D01*
X137380386Y-111974959D01*
X137377241Y-111982228D01*
X137377238Y-111982232D01*
X137362826Y-112015537D01*
X137357609Y-112026187D01*
X137336305Y-112064940D01*
X137334334Y-112072615D01*
X137334334Y-112072616D01*
X137331267Y-112084562D01*
X137324863Y-112103266D01*
X137316819Y-112121855D01*
X137315580Y-112129678D01*
X137315577Y-112129688D01*
X137309901Y-112165524D01*
X137307495Y-112177144D01*
X137296500Y-112219970D01*
X137296500Y-112240224D01*
X137294949Y-112259934D01*
X137291780Y-112279943D01*
X137292526Y-112287835D01*
X137295941Y-112323961D01*
X137296500Y-112335819D01*
X137296500Y-112372953D01*
X137276498Y-112441074D01*
X137222842Y-112487567D01*
X137152568Y-112497671D01*
X137128441Y-112491726D01*
X136993091Y-112443796D01*
X136993083Y-112443794D01*
X136988212Y-112442069D01*
X136983119Y-112441162D01*
X136983116Y-112441161D01*
X136773373Y-112403800D01*
X136773367Y-112403799D01*
X136768284Y-112402894D01*
X136694452Y-112401992D01*
X136550081Y-112400228D01*
X136550079Y-112400228D01*
X136544911Y-112400165D01*
X136324091Y-112433955D01*
X136111756Y-112503357D01*
X136069045Y-112525591D01*
X135928983Y-112598503D01*
X135913607Y-112606507D01*
X135909474Y-112609610D01*
X135909471Y-112609612D01*
X135739100Y-112737530D01*
X135734965Y-112740635D01*
X135580629Y-112902138D01*
X135473201Y-113059621D01*
X135418293Y-113104621D01*
X135347768Y-113112792D01*
X135284021Y-113081538D01*
X135263324Y-113057054D01*
X135182822Y-112932617D01*
X135182820Y-112932614D01*
X135180014Y-112928277D01*
X135029670Y-112763051D01*
X135025619Y-112759852D01*
X135025615Y-112759848D01*
X134858414Y-112627800D01*
X134858410Y-112627798D01*
X134854359Y-112624598D01*
X134845784Y-112619864D01*
X134786504Y-112587140D01*
X134658789Y-112516638D01*
X134653920Y-112514914D01*
X134653916Y-112514912D01*
X134453087Y-112443795D01*
X134453083Y-112443794D01*
X134448212Y-112442069D01*
X134443119Y-112441162D01*
X134443116Y-112441161D01*
X134233373Y-112403800D01*
X134233367Y-112403799D01*
X134228284Y-112402894D01*
X134154452Y-112401992D01*
X134010081Y-112400228D01*
X134010079Y-112400228D01*
X134004911Y-112400165D01*
X133784091Y-112433955D01*
X133571756Y-112503357D01*
X133529045Y-112525591D01*
X133388983Y-112598503D01*
X133373607Y-112606507D01*
X133369474Y-112609610D01*
X133369471Y-112609612D01*
X133199100Y-112737530D01*
X133194965Y-112740635D01*
X133040629Y-112902138D01*
X132914743Y-113086680D01*
X132872457Y-113177778D01*
X132851246Y-113223474D01*
X132820688Y-113289305D01*
X132760989Y-113504570D01*
X132737251Y-113726695D01*
X132737548Y-113731848D01*
X132737548Y-113731851D01*
X132741418Y-113798965D01*
X132750110Y-113949715D01*
X132751247Y-113954761D01*
X132751248Y-113954767D01*
X132768860Y-114032916D01*
X132799222Y-114167639D01*
X132883266Y-114374616D01*
X132920926Y-114436072D01*
X132997291Y-114560688D01*
X132999987Y-114565088D01*
X133146250Y-114733938D01*
X133216772Y-114792486D01*
X133256408Y-114851389D01*
X133257906Y-114922370D01*
X133220792Y-114982893D01*
X133189739Y-115003532D01*
X133170040Y-115012760D01*
X133032193Y-115098063D01*
X133020792Y-115107099D01*
X132906261Y-115221829D01*
X132897249Y-115233240D01*
X132812184Y-115371243D01*
X132806037Y-115384424D01*
X132754862Y-115538710D01*
X132751995Y-115552086D01*
X132742328Y-115646438D01*
X132742000Y-115652855D01*
X132742000Y-116027885D01*
X132746475Y-116043124D01*
X132747865Y-116044329D01*
X132755548Y-116046000D01*
X134228000Y-116046000D01*
X134296121Y-116066002D01*
X134342614Y-116119658D01*
X134354000Y-116172000D01*
X134354000Y-117639884D01*
X134358475Y-117655123D01*
X134359865Y-117656328D01*
X134367548Y-117657999D01*
X134747095Y-117657999D01*
X134753614Y-117657662D01*
X134849206Y-117647743D01*
X134862600Y-117644851D01*
X135016784Y-117593412D01*
X135029962Y-117587239D01*
X135167807Y-117501937D01*
X135179208Y-117492901D01*
X135293739Y-117378171D01*
X135302751Y-117366760D01*
X135387818Y-117228755D01*
X135396400Y-117210350D01*
X135443316Y-117157065D01*
X135511593Y-117137603D01*
X135579554Y-117158144D01*
X135605832Y-117181101D01*
X135631168Y-117210350D01*
X135682866Y-117270032D01*
X135682869Y-117270035D01*
X135686250Y-117273938D01*
X135858126Y-117416632D01*
X136051000Y-117529338D01*
X136055825Y-117531180D01*
X136055826Y-117531181D01*
X136071337Y-117537104D01*
X136259692Y-117609030D01*
X136264760Y-117610061D01*
X136264763Y-117610062D01*
X136369604Y-117631392D01*
X136478597Y-117653567D01*
X136483772Y-117653757D01*
X136483774Y-117653757D01*
X136696673Y-117661564D01*
X136696677Y-117661564D01*
X136701837Y-117661753D01*
X136706957Y-117661097D01*
X136706959Y-117661097D01*
X136918288Y-117634025D01*
X136918289Y-117634025D01*
X136923416Y-117633368D01*
X136928369Y-117631882D01*
X137132429Y-117570661D01*
X137132434Y-117570659D01*
X137137384Y-117569174D01*
X137202847Y-117537104D01*
X137318727Y-117480335D01*
X137388701Y-117468328D01*
X137454058Y-117496058D01*
X137461676Y-117503181D01*
X137464528Y-117507107D01*
X137470631Y-117512156D01*
X137470634Y-117512159D01*
X137498605Y-117535298D01*
X137507384Y-117543288D01*
X137966343Y-118002247D01*
X137973887Y-118010537D01*
X137978000Y-118017018D01*
X137983777Y-118022443D01*
X138027667Y-118063658D01*
X138030509Y-118066413D01*
X138050230Y-118086134D01*
X138053425Y-118088612D01*
X138062447Y-118096318D01*
X138094679Y-118126586D01*
X138101628Y-118130406D01*
X138112432Y-118136346D01*
X138128956Y-118147199D01*
X138144959Y-118159613D01*
X138168650Y-118169865D01*
X138223221Y-118215275D01*
X138244580Y-118282982D01*
X138225943Y-118351489D01*
X138173227Y-118399045D01*
X138118605Y-118411500D01*
X131008503Y-118411500D01*
X130940382Y-118391498D01*
X130919408Y-118374595D01*
X129491908Y-116947095D01*
X132742001Y-116947095D01*
X132742338Y-116953614D01*
X132752257Y-117049206D01*
X132755149Y-117062600D01*
X132806588Y-117216784D01*
X132812761Y-117229962D01*
X132898063Y-117367807D01*
X132907099Y-117379208D01*
X133021829Y-117493739D01*
X133033240Y-117502751D01*
X133171243Y-117587816D01*
X133184424Y-117593963D01*
X133338710Y-117645138D01*
X133352086Y-117648005D01*
X133446438Y-117657672D01*
X133452854Y-117658000D01*
X133827885Y-117658000D01*
X133843124Y-117653525D01*
X133844329Y-117652135D01*
X133846000Y-117644452D01*
X133846000Y-116572115D01*
X133841525Y-116556876D01*
X133840135Y-116555671D01*
X133832452Y-116554000D01*
X132760116Y-116554000D01*
X132744877Y-116558475D01*
X132743672Y-116559865D01*
X132742001Y-116567548D01*
X132742001Y-116947095D01*
X129491908Y-116947095D01*
X123245405Y-110700592D01*
X123211379Y-110638280D01*
X123208500Y-110611497D01*
X123208500Y-102924953D01*
X123228502Y-102856832D01*
X123245560Y-102835702D01*
X123256572Y-102824729D01*
X123338096Y-102743489D01*
X123406602Y-102648153D01*
X123465435Y-102566277D01*
X123468453Y-102562077D01*
X123473894Y-102551069D01*
X123565136Y-102366453D01*
X123565137Y-102366451D01*
X123567430Y-102361811D01*
X123632370Y-102148069D01*
X123661529Y-101926590D01*
X123661620Y-101922872D01*
X123663074Y-101863365D01*
X123663074Y-101863361D01*
X123663156Y-101860000D01*
X123644852Y-101637361D01*
X123590431Y-101420702D01*
X123570219Y-101374217D01*
X123561398Y-101303773D01*
X123592064Y-101239741D01*
X123635728Y-101208339D01*
X123635982Y-101208229D01*
X123643593Y-101206018D01*
X123650412Y-101201985D01*
X123650417Y-101201983D01*
X123661028Y-101195707D01*
X123678776Y-101187012D01*
X123697617Y-101179552D01*
X123733387Y-101153564D01*
X123743307Y-101147048D01*
X123774535Y-101128580D01*
X123774538Y-101128578D01*
X123781362Y-101124542D01*
X123795683Y-101110221D01*
X123810717Y-101097380D01*
X123820694Y-101090131D01*
X123827107Y-101085472D01*
X123855298Y-101051395D01*
X123863288Y-101042616D01*
X128455499Y-96450405D01*
X128517811Y-96416379D01*
X128544594Y-96413500D01*
X136671416Y-96413500D01*
X136739537Y-96433502D01*
G37*
%TD.AperFunction*%
%TA.AperFunction,Conductor*%
G36*
X159556182Y-96652086D02*
G01*
X159859595Y-96955499D01*
X159893621Y-97017811D01*
X159896500Y-97044594D01*
X159896500Y-97901233D01*
X159895973Y-97912416D01*
X159894298Y-97919909D01*
X159894547Y-97927835D01*
X159894547Y-97927836D01*
X159896438Y-97987986D01*
X159896500Y-97991945D01*
X159896500Y-98019856D01*
X159896997Y-98023790D01*
X159896997Y-98023791D01*
X159897005Y-98023856D01*
X159897938Y-98035693D01*
X159899327Y-98079889D01*
X159904193Y-98096638D01*
X159904978Y-98099339D01*
X159908987Y-98118700D01*
X159911526Y-98138797D01*
X159914445Y-98146168D01*
X159914445Y-98146170D01*
X159927804Y-98179912D01*
X159931649Y-98191142D01*
X159936926Y-98209305D01*
X159943982Y-98233593D01*
X159948015Y-98240412D01*
X159948017Y-98240417D01*
X159954293Y-98251028D01*
X159962988Y-98268776D01*
X159970448Y-98287617D01*
X159975110Y-98294033D01*
X159975110Y-98294034D01*
X159996436Y-98323387D01*
X160002952Y-98333307D01*
X160013545Y-98351218D01*
X160025458Y-98371362D01*
X160039779Y-98385683D01*
X160052619Y-98400716D01*
X160064528Y-98417107D01*
X160070634Y-98422158D01*
X160098605Y-98445298D01*
X160107384Y-98453288D01*
X161386343Y-99732247D01*
X161393887Y-99740537D01*
X161398000Y-99747018D01*
X161403777Y-99752443D01*
X161447667Y-99793658D01*
X161450509Y-99796413D01*
X161470230Y-99816134D01*
X161473425Y-99818612D01*
X161482447Y-99826318D01*
X161514679Y-99856586D01*
X161521628Y-99860406D01*
X161532432Y-99866346D01*
X161548956Y-99877199D01*
X161564959Y-99889613D01*
X161605543Y-99907176D01*
X161616173Y-99912383D01*
X161654940Y-99933695D01*
X161662617Y-99935666D01*
X161662622Y-99935668D01*
X161674558Y-99938732D01*
X161693266Y-99945137D01*
X161711855Y-99953181D01*
X161719680Y-99954420D01*
X161719682Y-99954421D01*
X161755519Y-99960097D01*
X161767140Y-99962504D01*
X161802289Y-99971528D01*
X161809970Y-99973500D01*
X161830231Y-99973500D01*
X161849940Y-99975051D01*
X161869943Y-99978219D01*
X161877835Y-99977473D01*
X161883062Y-99976979D01*
X161913954Y-99974059D01*
X161925811Y-99973500D01*
X162474274Y-99973500D01*
X162542395Y-99993502D01*
X162581707Y-100033665D01*
X162649987Y-100145088D01*
X162796250Y-100313938D01*
X162932729Y-100427245D01*
X162955555Y-100446195D01*
X162968126Y-100456632D01*
X163007219Y-100479476D01*
X163041445Y-100499476D01*
X163090169Y-100551114D01*
X163103240Y-100620897D01*
X163076509Y-100686669D01*
X163036055Y-100720027D01*
X163023607Y-100726507D01*
X163019474Y-100729610D01*
X163019471Y-100729612D01*
X162866624Y-100844373D01*
X162844965Y-100860635D01*
X162690629Y-101022138D01*
X162687715Y-101026410D01*
X162687714Y-101026411D01*
X162680748Y-101036623D01*
X162564743Y-101206680D01*
X162545161Y-101248866D01*
X162477367Y-101394917D01*
X162470688Y-101409305D01*
X162410989Y-101624570D01*
X162387251Y-101846695D01*
X162387548Y-101851848D01*
X162387548Y-101851851D01*
X162395407Y-101988148D01*
X162400110Y-102069715D01*
X162401247Y-102074761D01*
X162401248Y-102074767D01*
X162419888Y-102157476D01*
X162449222Y-102287639D01*
X162533266Y-102494616D01*
X162550926Y-102523435D01*
X162633804Y-102658679D01*
X162649987Y-102685088D01*
X162653367Y-102688990D01*
X162792866Y-102850032D01*
X162792869Y-102850035D01*
X162796250Y-102853938D01*
X162800224Y-102857237D01*
X162803658Y-102860600D01*
X162838334Y-102922553D01*
X162841500Y-102950623D01*
X162841500Y-106121497D01*
X162821498Y-106189618D01*
X162804595Y-106210592D01*
X161890592Y-107124595D01*
X161828280Y-107158621D01*
X161801497Y-107161500D01*
X158728315Y-107161500D01*
X158660194Y-107141498D01*
X158613701Y-107087842D01*
X158603597Y-107017568D01*
X158634677Y-106951192D01*
X158642014Y-106943043D01*
X158646557Y-106938256D01*
X158661072Y-106923741D01*
X158667928Y-106915274D01*
X158673994Y-106907784D01*
X158678278Y-106902769D01*
X158719619Y-106856855D01*
X158719623Y-106856850D01*
X158724040Y-106851944D01*
X158727340Y-106846228D01*
X158727343Y-106846224D01*
X158731073Y-106839763D01*
X158742273Y-106823466D01*
X158746975Y-106817660D01*
X158746976Y-106817658D01*
X158751129Y-106812530D01*
X158782186Y-106751577D01*
X158785333Y-106745782D01*
X158816223Y-106692279D01*
X158816224Y-106692278D01*
X158819527Y-106686556D01*
X158823875Y-106673173D01*
X158831441Y-106654907D01*
X158834832Y-106648252D01*
X158837829Y-106642370D01*
X158842587Y-106624616D01*
X158855529Y-106576315D01*
X158857402Y-106569991D01*
X158866031Y-106543432D01*
X158878542Y-106504928D01*
X158880012Y-106490939D01*
X158883617Y-106471486D01*
X158885547Y-106464285D01*
X158887257Y-106457904D01*
X158890836Y-106389615D01*
X158891353Y-106383040D01*
X158893156Y-106365882D01*
X158893500Y-106362610D01*
X158893500Y-106342075D01*
X158893673Y-106335481D01*
X158896907Y-106273783D01*
X158896907Y-106273778D01*
X158897252Y-106267191D01*
X158895051Y-106253293D01*
X158893500Y-106233584D01*
X158893500Y-105703498D01*
X158913502Y-105635377D01*
X158967158Y-105588884D01*
X158975270Y-105585516D01*
X159073297Y-105548767D01*
X159081705Y-105545615D01*
X159198261Y-105458261D01*
X159285615Y-105341705D01*
X159336745Y-105205316D01*
X159343500Y-105143134D01*
X159343500Y-103842868D01*
X159363502Y-103774747D01*
X159417158Y-103728254D01*
X159487432Y-103718150D01*
X159495698Y-103719622D01*
X159578049Y-103737127D01*
X159578058Y-103737128D01*
X159584513Y-103738500D01*
X159775487Y-103738500D01*
X159781939Y-103737128D01*
X159781944Y-103737128D01*
X159871226Y-103718150D01*
X159962288Y-103698794D01*
X159968319Y-103696109D01*
X160130722Y-103623803D01*
X160130724Y-103623802D01*
X160136752Y-103621118D01*
X160291253Y-103508866D01*
X160317179Y-103480072D01*
X160414621Y-103371852D01*
X160414622Y-103371851D01*
X160419040Y-103366944D01*
X160495936Y-103233757D01*
X160511223Y-103207279D01*
X160511224Y-103207278D01*
X160514527Y-103201556D01*
X160573542Y-103019928D01*
X160575991Y-102996632D01*
X160592814Y-102836565D01*
X160593504Y-102830000D01*
X160591612Y-102812002D01*
X160574232Y-102646635D01*
X160574232Y-102646633D01*
X160573542Y-102640072D01*
X160514527Y-102458444D01*
X160510720Y-102451849D01*
X160458736Y-102361811D01*
X160419040Y-102293056D01*
X160390298Y-102261134D01*
X160295675Y-102156045D01*
X160295674Y-102156044D01*
X160291253Y-102151134D01*
X160191807Y-102078882D01*
X160142094Y-102042763D01*
X160142093Y-102042762D01*
X160136752Y-102038882D01*
X160130724Y-102036198D01*
X160130722Y-102036197D01*
X159968319Y-101963891D01*
X159968318Y-101963891D01*
X159962288Y-101961206D01*
X159868888Y-101941353D01*
X159781944Y-101922872D01*
X159781939Y-101922872D01*
X159775487Y-101921500D01*
X159584513Y-101921500D01*
X159578061Y-101922872D01*
X159578056Y-101922872D01*
X159404170Y-101959833D01*
X159404167Y-101959834D01*
X159397712Y-101961206D01*
X159394082Y-101962822D01*
X159321303Y-101964079D01*
X159303617Y-101959000D01*
X156668225Y-101959000D01*
X156654694Y-101962973D01*
X156653258Y-101972965D01*
X156680264Y-102092798D01*
X156675728Y-102163650D01*
X156633607Y-102220802D01*
X156567274Y-102246108D01*
X156557347Y-102246500D01*
X153457204Y-102246500D01*
X153389083Y-102226498D01*
X153363568Y-102204811D01*
X153355668Y-102196037D01*
X153355666Y-102196036D01*
X153351253Y-102191134D01*
X153291200Y-102147503D01*
X153202094Y-102082763D01*
X153202093Y-102082762D01*
X153196752Y-102078882D01*
X153190724Y-102076198D01*
X153190722Y-102076197D01*
X153028319Y-102003891D01*
X153028318Y-102003891D01*
X153022288Y-102001206D01*
X152928887Y-101981353D01*
X152841944Y-101962872D01*
X152841939Y-101962872D01*
X152835487Y-101961500D01*
X152644513Y-101961500D01*
X152638061Y-101962872D01*
X152638056Y-101962872D01*
X152551112Y-101981353D01*
X152457712Y-102001206D01*
X152451682Y-102003891D01*
X152451681Y-102003891D01*
X152289278Y-102076197D01*
X152289276Y-102076198D01*
X152283248Y-102078882D01*
X152128747Y-102191134D01*
X152000960Y-102333056D01*
X151999457Y-102335660D01*
X151944295Y-102378197D01*
X151873559Y-102384274D01*
X151810767Y-102351143D01*
X151797042Y-102333524D01*
X151796224Y-102334118D01*
X151792341Y-102328773D01*
X151789040Y-102323056D01*
X151715863Y-102241785D01*
X151685147Y-102177779D01*
X151683500Y-102157476D01*
X151683500Y-101519635D01*
X151703502Y-101451514D01*
X151757158Y-101405021D01*
X151827432Y-101394917D01*
X151860749Y-101404528D01*
X151901706Y-101422763D01*
X151937712Y-101438794D01*
X151997555Y-101451514D01*
X152118056Y-101477128D01*
X152118061Y-101477128D01*
X152124513Y-101478500D01*
X152315487Y-101478500D01*
X152321939Y-101477128D01*
X152321944Y-101477128D01*
X152442445Y-101451514D01*
X152502288Y-101438794D01*
X152531653Y-101425720D01*
X152670722Y-101363803D01*
X152670724Y-101363802D01*
X152676752Y-101361118D01*
X152704159Y-101341206D01*
X152755680Y-101303773D01*
X152831253Y-101248866D01*
X152846897Y-101231492D01*
X152954621Y-101111852D01*
X152954622Y-101111851D01*
X152959040Y-101106944D01*
X153037239Y-100971500D01*
X153051223Y-100947279D01*
X153051224Y-100947278D01*
X153054527Y-100941556D01*
X153113542Y-100759928D01*
X153115416Y-100742104D01*
X153130907Y-100594708D01*
X153157920Y-100529051D01*
X153167122Y-100518782D01*
X153850501Y-99835404D01*
X153912813Y-99801379D01*
X153939596Y-99798500D01*
X156709274Y-99798500D01*
X156777395Y-99818502D01*
X156816707Y-99858665D01*
X156884987Y-99970088D01*
X157031250Y-100138938D01*
X157203126Y-100281632D01*
X157229836Y-100297240D01*
X157276955Y-100324774D01*
X157325679Y-100376412D01*
X157338750Y-100446195D01*
X157312019Y-100511967D01*
X157271562Y-100545327D01*
X157263457Y-100549546D01*
X157254738Y-100555036D01*
X157084433Y-100682905D01*
X157076726Y-100689748D01*
X156929590Y-100843717D01*
X156923104Y-100851727D01*
X156803098Y-101027649D01*
X156798000Y-101036623D01*
X156708338Y-101229783D01*
X156704775Y-101239470D01*
X156649389Y-101439183D01*
X156650912Y-101447607D01*
X156663292Y-101451000D01*
X159303344Y-101451000D01*
X159316875Y-101447027D01*
X159318180Y-101437947D01*
X159276214Y-101270875D01*
X159272894Y-101261124D01*
X159187972Y-101065814D01*
X159183105Y-101056739D01*
X159067426Y-100877926D01*
X159061136Y-100869757D01*
X158917806Y-100712240D01*
X158910273Y-100705215D01*
X158743139Y-100573222D01*
X158734556Y-100567520D01*
X158697602Y-100547120D01*
X158647631Y-100496687D01*
X158632859Y-100427245D01*
X158657975Y-100360839D01*
X158685327Y-100334232D01*
X158741817Y-100293938D01*
X158864860Y-100206173D01*
X159023096Y-100048489D01*
X159027704Y-100042077D01*
X159150435Y-99871277D01*
X159153453Y-99867077D01*
X159157611Y-99858665D01*
X159250136Y-99671453D01*
X159250137Y-99671451D01*
X159252430Y-99666811D01*
X159311234Y-99473266D01*
X159315865Y-99458023D01*
X159315865Y-99458021D01*
X159317370Y-99453069D01*
X159346529Y-99231590D01*
X159347697Y-99183777D01*
X159348074Y-99168365D01*
X159348074Y-99168361D01*
X159348156Y-99165000D01*
X159329852Y-98942361D01*
X159275431Y-98725702D01*
X159186354Y-98520840D01*
X159103455Y-98392697D01*
X159067822Y-98337617D01*
X159067820Y-98337614D01*
X159065014Y-98333277D01*
X158914670Y-98168051D01*
X158910619Y-98164852D01*
X158910615Y-98164848D01*
X158743414Y-98032800D01*
X158743410Y-98032798D01*
X158739359Y-98029598D01*
X158698053Y-98006796D01*
X158648084Y-97956364D01*
X158633312Y-97886921D01*
X158658428Y-97820516D01*
X158685780Y-97793909D01*
X158747295Y-97750031D01*
X158864860Y-97666173D01*
X159023096Y-97508489D01*
X159027704Y-97502077D01*
X159150435Y-97331277D01*
X159153453Y-97327077D01*
X159156750Y-97320407D01*
X159250136Y-97131453D01*
X159250137Y-97131451D01*
X159252430Y-97126811D01*
X159304479Y-96955499D01*
X159315865Y-96918023D01*
X159315865Y-96918021D01*
X159317370Y-96913069D01*
X159321596Y-96880974D01*
X159342165Y-96724735D01*
X159370888Y-96659807D01*
X159430153Y-96620716D01*
X159501144Y-96619871D01*
X159556182Y-96652086D01*
G37*
%TD.AperFunction*%
%TA.AperFunction,Conductor*%
G36*
X120450618Y-75038502D02*
G01*
X120497111Y-75092158D01*
X120507215Y-75162432D01*
X120477721Y-75227012D01*
X120471592Y-75233595D01*
X119175168Y-76530019D01*
X119160135Y-76542860D01*
X119148747Y-76551134D01*
X119144327Y-76556043D01*
X119102984Y-76601959D01*
X119098443Y-76606744D01*
X119083928Y-76621259D01*
X119081852Y-76623823D01*
X119071006Y-76637216D01*
X119066722Y-76642231D01*
X119025381Y-76688145D01*
X119025377Y-76688150D01*
X119020960Y-76693056D01*
X119017660Y-76698772D01*
X119017657Y-76698776D01*
X119013927Y-76705237D01*
X119002727Y-76721533D01*
X118993871Y-76732470D01*
X118978707Y-76762231D01*
X118962815Y-76793421D01*
X118959667Y-76799218D01*
X118939686Y-76833827D01*
X118925473Y-76858444D01*
X118923432Y-76864726D01*
X118923431Y-76864728D01*
X118921125Y-76871826D01*
X118913560Y-76890092D01*
X118907171Y-76902630D01*
X118905463Y-76909003D01*
X118905463Y-76909004D01*
X118889469Y-76968695D01*
X118887600Y-76975003D01*
X118866458Y-77040072D01*
X118865768Y-77046637D01*
X118865766Y-77046646D01*
X118864985Y-77054075D01*
X118861383Y-77073509D01*
X118859453Y-77080714D01*
X118857743Y-77087097D01*
X118857398Y-77093688D01*
X118857397Y-77093692D01*
X118854164Y-77155384D01*
X118853647Y-77161958D01*
X118853155Y-77166644D01*
X118851500Y-77182390D01*
X118851500Y-77202926D01*
X118851327Y-77209520D01*
X118847748Y-77277810D01*
X118848780Y-77284325D01*
X118849949Y-77291705D01*
X118851500Y-77311417D01*
X118851500Y-82708689D01*
X118831498Y-82776810D01*
X118791804Y-82815833D01*
X118685652Y-82881522D01*
X118560695Y-83006697D01*
X118556855Y-83012927D01*
X118556854Y-83012928D01*
X118473967Y-83147396D01*
X118467885Y-83157262D01*
X118447479Y-83218786D01*
X118433341Y-83261411D01*
X118412203Y-83325139D01*
X118411503Y-83331975D01*
X118411502Y-83331978D01*
X118410154Y-83345139D01*
X118401500Y-83429600D01*
X118401500Y-84730400D01*
X118401837Y-84733646D01*
X118401837Y-84733650D01*
X118411004Y-84821994D01*
X118412474Y-84836166D01*
X118414655Y-84842702D01*
X118414655Y-84842704D01*
X118434615Y-84902531D01*
X118468450Y-85003946D01*
X118561522Y-85154348D01*
X118686697Y-85279305D01*
X118692927Y-85283145D01*
X118692928Y-85283146D01*
X118817219Y-85359760D01*
X118837262Y-85372115D01*
X118844209Y-85374419D01*
X118846276Y-85375383D01*
X118899561Y-85422299D01*
X118919023Y-85490576D01*
X118898482Y-85558536D01*
X118868681Y-85590337D01*
X118854965Y-85600635D01*
X118700629Y-85762138D01*
X118697720Y-85766403D01*
X118697714Y-85766411D01*
X118636168Y-85856634D01*
X118574743Y-85946680D01*
X118527896Y-86047604D01*
X118498298Y-86111368D01*
X118480688Y-86149305D01*
X118420989Y-86364570D01*
X118397251Y-86586695D01*
X118397548Y-86591848D01*
X118397548Y-86591851D01*
X118403971Y-86703240D01*
X118410110Y-86809715D01*
X118411247Y-86814761D01*
X118411248Y-86814767D01*
X118435304Y-86921508D01*
X118459222Y-87027639D01*
X118543266Y-87234616D01*
X118659987Y-87425088D01*
X118806250Y-87593938D01*
X118978126Y-87736632D01*
X119048595Y-87777811D01*
X119051445Y-87779476D01*
X119100169Y-87831114D01*
X119113240Y-87900897D01*
X119086509Y-87966669D01*
X119046055Y-88000027D01*
X119033607Y-88006507D01*
X119029474Y-88009610D01*
X119029471Y-88009612D01*
X118859100Y-88137530D01*
X118854965Y-88140635D01*
X118700629Y-88302138D01*
X118697715Y-88306410D01*
X118697714Y-88306411D01*
X118612556Y-88431249D01*
X118574743Y-88486680D01*
X118480688Y-88689305D01*
X118420989Y-88904570D01*
X118397251Y-89126695D01*
X118397548Y-89131848D01*
X118397548Y-89131851D01*
X118403971Y-89243240D01*
X118410110Y-89349715D01*
X118411247Y-89354761D01*
X118411248Y-89354767D01*
X118435304Y-89461508D01*
X118459222Y-89567639D01*
X118543266Y-89774616D01*
X118659987Y-89965088D01*
X118806250Y-90133938D01*
X118978126Y-90276632D01*
X119048595Y-90317811D01*
X119051445Y-90319476D01*
X119100169Y-90371114D01*
X119113240Y-90440897D01*
X119086509Y-90506669D01*
X119046055Y-90540027D01*
X119033607Y-90546507D01*
X119029474Y-90549610D01*
X119029471Y-90549612D01*
X118859100Y-90677530D01*
X118854965Y-90680635D01*
X118851393Y-90684373D01*
X118718319Y-90823627D01*
X118700629Y-90842138D01*
X118697715Y-90846410D01*
X118697714Y-90846411D01*
X118634191Y-90939533D01*
X118574743Y-91026680D01*
X118553942Y-91071492D01*
X118487097Y-91215499D01*
X118480688Y-91229305D01*
X118420989Y-91444570D01*
X118397251Y-91666695D01*
X118397548Y-91671848D01*
X118397548Y-91671851D01*
X118403971Y-91783240D01*
X118410110Y-91889715D01*
X118411247Y-91894761D01*
X118411248Y-91894767D01*
X118435304Y-92001508D01*
X118459222Y-92107639D01*
X118543266Y-92314616D01*
X118659987Y-92505088D01*
X118806250Y-92673938D01*
X118978126Y-92816632D01*
X118998191Y-92828357D01*
X119051445Y-92859476D01*
X119100169Y-92911114D01*
X119113240Y-92980897D01*
X119086509Y-93046669D01*
X119046055Y-93080027D01*
X119033607Y-93086507D01*
X119029474Y-93089610D01*
X119029471Y-93089612D01*
X118859100Y-93217530D01*
X118854965Y-93220635D01*
X118700629Y-93382138D01*
X118697715Y-93386410D01*
X118697714Y-93386411D01*
X118631279Y-93483801D01*
X118574743Y-93566680D01*
X118480688Y-93769305D01*
X118420989Y-93984570D01*
X118397251Y-94206695D01*
X118397548Y-94211848D01*
X118397548Y-94211851D01*
X118400941Y-94270694D01*
X118410110Y-94429715D01*
X118411247Y-94434761D01*
X118411248Y-94434767D01*
X118420822Y-94477247D01*
X118459222Y-94647639D01*
X118543266Y-94854616D01*
X118551700Y-94868379D01*
X118657250Y-95040621D01*
X118659987Y-95045088D01*
X118806250Y-95213938D01*
X118978126Y-95356632D01*
X119048595Y-95397811D01*
X119051445Y-95399476D01*
X119100169Y-95451114D01*
X119113240Y-95520897D01*
X119086509Y-95586669D01*
X119046055Y-95620027D01*
X119033607Y-95626507D01*
X119029474Y-95629610D01*
X119029471Y-95629612D01*
X118876504Y-95744463D01*
X118854965Y-95760635D01*
X118700629Y-95922138D01*
X118697715Y-95926410D01*
X118697714Y-95926411D01*
X118664679Y-95974839D01*
X118574743Y-96106680D01*
X118480688Y-96309305D01*
X118420989Y-96524570D01*
X118397251Y-96746695D01*
X118397548Y-96751848D01*
X118397548Y-96751851D01*
X118408921Y-96949095D01*
X118410110Y-96969715D01*
X118411247Y-96974761D01*
X118411248Y-96974767D01*
X118420949Y-97017811D01*
X118459222Y-97187639D01*
X118543266Y-97394616D01*
X118659987Y-97585088D01*
X118806250Y-97753938D01*
X118978126Y-97896632D01*
X119048595Y-97937811D01*
X119051445Y-97939476D01*
X119100169Y-97991114D01*
X119113240Y-98060897D01*
X119086509Y-98126669D01*
X119046055Y-98160027D01*
X119033607Y-98166507D01*
X119029474Y-98169610D01*
X119029471Y-98169612D01*
X118859100Y-98297530D01*
X118854965Y-98300635D01*
X118830756Y-98325968D01*
X118726974Y-98434570D01*
X118700629Y-98462138D01*
X118697715Y-98466410D01*
X118697714Y-98466411D01*
X118651555Y-98534078D01*
X118574743Y-98646680D01*
X118480688Y-98849305D01*
X118420989Y-99064570D01*
X118397251Y-99286695D01*
X118397548Y-99291848D01*
X118397548Y-99291851D01*
X118407484Y-99464166D01*
X118410110Y-99509715D01*
X118411247Y-99514761D01*
X118411248Y-99514767D01*
X118429983Y-99597899D01*
X118459222Y-99727639D01*
X118517484Y-99871123D01*
X118532121Y-99907168D01*
X118543266Y-99934616D01*
X118575456Y-99987145D01*
X118639260Y-100091264D01*
X118659987Y-100125088D01*
X118806250Y-100293938D01*
X118978126Y-100436632D01*
X119012352Y-100456632D01*
X119051445Y-100479476D01*
X119100169Y-100531114D01*
X119113240Y-100600897D01*
X119086509Y-100666669D01*
X119046055Y-100700027D01*
X119033607Y-100706507D01*
X119029474Y-100709610D01*
X119029471Y-100709612D01*
X118954095Y-100766206D01*
X118854965Y-100840635D01*
X118814432Y-100883051D01*
X118786241Y-100912551D01*
X118724717Y-100947981D01*
X118695147Y-100951500D01*
X118238503Y-100951500D01*
X118170382Y-100931498D01*
X118149408Y-100914595D01*
X117775405Y-100540592D01*
X117741379Y-100478280D01*
X117738500Y-100451497D01*
X117738500Y-77438503D01*
X117758502Y-77370382D01*
X117775405Y-77349408D01*
X120069408Y-75055405D01*
X120131720Y-75021379D01*
X120158503Y-75018500D01*
X120382497Y-75018500D01*
X120450618Y-75038502D01*
G37*
%TD.AperFunction*%
%TA.AperFunction,Conductor*%
G36*
X155103527Y-91733502D02*
G01*
X155124501Y-91750405D01*
X155969595Y-92595499D01*
X156003621Y-92657811D01*
X156006500Y-92684594D01*
X156006500Y-93761233D01*
X156005973Y-93772416D01*
X156004298Y-93779909D01*
X156004547Y-93787835D01*
X156004547Y-93787836D01*
X156006438Y-93847986D01*
X156006500Y-93851945D01*
X156006500Y-93879856D01*
X156006997Y-93883790D01*
X156006997Y-93883791D01*
X156007005Y-93883856D01*
X156007938Y-93895693D01*
X156009327Y-93939889D01*
X156014978Y-93959339D01*
X156018987Y-93978700D01*
X156020406Y-93989928D01*
X156021526Y-93998797D01*
X156024445Y-94006168D01*
X156024445Y-94006170D01*
X156037804Y-94039912D01*
X156041649Y-94051142D01*
X156053982Y-94093593D01*
X156058015Y-94100412D01*
X156058017Y-94100417D01*
X156064293Y-94111028D01*
X156072988Y-94128776D01*
X156080448Y-94147617D01*
X156085110Y-94154033D01*
X156085110Y-94154034D01*
X156106436Y-94183387D01*
X156112952Y-94193307D01*
X156135458Y-94231362D01*
X156149779Y-94245683D01*
X156162619Y-94260716D01*
X156174528Y-94277107D01*
X156180634Y-94282158D01*
X156208605Y-94305298D01*
X156217384Y-94313288D01*
X156381343Y-94477247D01*
X156388887Y-94485537D01*
X156393000Y-94492018D01*
X156398777Y-94497443D01*
X156442667Y-94538658D01*
X156445509Y-94541413D01*
X156465230Y-94561134D01*
X156468425Y-94563612D01*
X156477447Y-94571318D01*
X156509679Y-94601586D01*
X156516628Y-94605406D01*
X156527432Y-94611346D01*
X156543956Y-94622199D01*
X156559959Y-94634613D01*
X156600543Y-94652176D01*
X156611173Y-94657383D01*
X156649940Y-94678695D01*
X156657617Y-94680666D01*
X156657622Y-94680668D01*
X156669558Y-94683732D01*
X156688266Y-94690137D01*
X156692605Y-94692014D01*
X156699584Y-94695035D01*
X156699588Y-94695036D01*
X156705607Y-94697641D01*
X156706857Y-94698182D01*
X156706485Y-94699042D01*
X156760568Y-94733580D01*
X156790246Y-94798077D01*
X156780343Y-94868379D01*
X156739590Y-94913817D01*
X156741723Y-94916566D01*
X156735463Y-94921422D01*
X156728638Y-94925458D01*
X156723031Y-94931064D01*
X156714315Y-94939780D01*
X156699282Y-94952620D01*
X156682893Y-94964528D01*
X156677841Y-94970635D01*
X156654713Y-94998592D01*
X156646723Y-95007373D01*
X156544499Y-95109596D01*
X156482187Y-95143621D01*
X156455404Y-95146500D01*
X128308768Y-95146500D01*
X128297585Y-95145973D01*
X128290092Y-95144298D01*
X128282166Y-95144547D01*
X128282165Y-95144547D01*
X128222002Y-95146438D01*
X128218044Y-95146500D01*
X128190144Y-95146500D01*
X128186154Y-95147004D01*
X128174320Y-95147936D01*
X128130111Y-95149326D01*
X128122495Y-95151539D01*
X128122493Y-95151539D01*
X128110652Y-95154979D01*
X128091293Y-95158988D01*
X128089983Y-95159154D01*
X128071203Y-95161526D01*
X128063837Y-95164442D01*
X128063831Y-95164444D01*
X128030098Y-95177800D01*
X128018868Y-95181645D01*
X127984017Y-95191770D01*
X127976407Y-95193981D01*
X127969584Y-95198016D01*
X127958966Y-95204295D01*
X127941213Y-95212992D01*
X127938824Y-95213938D01*
X127922383Y-95220448D01*
X127915968Y-95225109D01*
X127886612Y-95246437D01*
X127876695Y-95252951D01*
X127838638Y-95275458D01*
X127824317Y-95289779D01*
X127809284Y-95302619D01*
X127792893Y-95314528D01*
X127787842Y-95320634D01*
X127764702Y-95348605D01*
X127756712Y-95357384D01*
X123865016Y-99249079D01*
X123802706Y-99283104D01*
X123731891Y-99278039D01*
X123675055Y-99235492D01*
X123650347Y-99170306D01*
X123644781Y-99102604D01*
X123643096Y-99092424D01*
X123591214Y-98885875D01*
X123587894Y-98876124D01*
X123502973Y-98680818D01*
X123499627Y-98674577D01*
X123485064Y-98605090D01*
X123510380Y-98538761D01*
X123536607Y-98513101D01*
X123540693Y-98510132D01*
X123547107Y-98505472D01*
X123575298Y-98471395D01*
X123583288Y-98462616D01*
X126082253Y-95963652D01*
X126090539Y-95956112D01*
X126097018Y-95952000D01*
X126121048Y-95926411D01*
X126143643Y-95902349D01*
X126146398Y-95899507D01*
X126166135Y-95879770D01*
X126168615Y-95876573D01*
X126176320Y-95867551D01*
X126201159Y-95841100D01*
X126206586Y-95835321D01*
X126210405Y-95828375D01*
X126210407Y-95828372D01*
X126216348Y-95817566D01*
X126227199Y-95801047D01*
X126234758Y-95791301D01*
X126239614Y-95785041D01*
X126242759Y-95777772D01*
X126242762Y-95777768D01*
X126257174Y-95744463D01*
X126262391Y-95733813D01*
X126283695Y-95695060D01*
X126288733Y-95675437D01*
X126295137Y-95656734D01*
X126300033Y-95645420D01*
X126300033Y-95645419D01*
X126303181Y-95638145D01*
X126304420Y-95630322D01*
X126304423Y-95630312D01*
X126310099Y-95594476D01*
X126312505Y-95582856D01*
X126321528Y-95547711D01*
X126321528Y-95547710D01*
X126323500Y-95540030D01*
X126323500Y-95519776D01*
X126325051Y-95500065D01*
X126326980Y-95487886D01*
X126328220Y-95480057D01*
X126324059Y-95436038D01*
X126323500Y-95424181D01*
X126323500Y-92544594D01*
X126343502Y-92476473D01*
X126360405Y-92455499D01*
X127065499Y-91750405D01*
X127127811Y-91716379D01*
X127154594Y-91713500D01*
X155035406Y-91713500D01*
X155103527Y-91733502D01*
G37*
%TD.AperFunction*%
%TA.AperFunction,Conductor*%
G36*
X140542026Y-70422644D02*
G01*
X140569875Y-70454494D01*
X140629987Y-70552588D01*
X140776250Y-70721438D01*
X140948126Y-70864132D01*
X140989228Y-70888150D01*
X141021955Y-70907274D01*
X141070679Y-70958912D01*
X141083750Y-71028695D01*
X141057019Y-71094467D01*
X141016562Y-71127827D01*
X141008460Y-71132044D01*
X140999734Y-71137539D01*
X140979677Y-71152599D01*
X140971223Y-71163927D01*
X140977968Y-71176258D01*
X142000115Y-72198405D01*
X142034141Y-72260717D01*
X142029076Y-72331532D01*
X142000115Y-72376595D01*
X140976737Y-73399973D01*
X140969977Y-73412353D01*
X140975258Y-73419407D01*
X141136756Y-73513779D01*
X141146042Y-73518229D01*
X141345001Y-73594203D01*
X141354899Y-73597079D01*
X141563595Y-73639538D01*
X141573823Y-73640757D01*
X141786650Y-73648562D01*
X141796936Y-73648095D01*
X142008185Y-73621034D01*
X142018262Y-73618892D01*
X142222255Y-73557691D01*
X142231842Y-73553933D01*
X142265069Y-73537656D01*
X142335043Y-73525650D01*
X142400400Y-73553381D01*
X142440389Y-73612044D01*
X142446500Y-73650808D01*
X142446500Y-82445405D01*
X142426498Y-82513526D01*
X142409595Y-82534500D01*
X142347747Y-82596348D01*
X142339461Y-82603888D01*
X142332982Y-82608000D01*
X142327557Y-82613777D01*
X142286356Y-82657652D01*
X142283601Y-82660494D01*
X142263865Y-82680230D01*
X142261385Y-82683427D01*
X142253682Y-82692447D01*
X142223414Y-82724679D01*
X142219595Y-82731625D01*
X142219593Y-82731628D01*
X142213652Y-82742434D01*
X142202801Y-82758953D01*
X142190386Y-82774959D01*
X142187241Y-82782228D01*
X142187238Y-82782232D01*
X142172826Y-82815537D01*
X142167604Y-82826196D01*
X142166448Y-82828300D01*
X142116102Y-82878357D01*
X142046684Y-82893249D01*
X141995139Y-82877903D01*
X141988320Y-82874139D01*
X141988316Y-82874137D01*
X141983789Y-82871638D01*
X141978920Y-82869914D01*
X141978916Y-82869912D01*
X141778087Y-82798795D01*
X141778083Y-82798794D01*
X141773212Y-82797069D01*
X141768119Y-82796162D01*
X141768116Y-82796161D01*
X141558373Y-82758800D01*
X141558367Y-82758799D01*
X141553284Y-82757894D01*
X141479452Y-82756992D01*
X141335081Y-82755228D01*
X141335079Y-82755228D01*
X141329911Y-82755165D01*
X141109091Y-82788955D01*
X140896756Y-82858357D01*
X140866443Y-82874137D01*
X140708366Y-82956427D01*
X140698607Y-82961507D01*
X140694474Y-82964610D01*
X140694471Y-82964612D01*
X140603483Y-83032928D01*
X140519965Y-83095635D01*
X140365629Y-83257138D01*
X140258201Y-83414621D01*
X140203293Y-83459621D01*
X140132768Y-83467792D01*
X140069021Y-83436538D01*
X140048324Y-83412054D01*
X139967822Y-83287617D01*
X139967820Y-83287614D01*
X139965014Y-83283277D01*
X139814670Y-83118051D01*
X139810619Y-83114852D01*
X139810615Y-83114848D01*
X139643414Y-82982800D01*
X139643410Y-82982798D01*
X139639359Y-82979598D01*
X139619723Y-82968758D01*
X139558461Y-82934940D01*
X139443789Y-82871638D01*
X139438920Y-82869914D01*
X139438916Y-82869912D01*
X139238087Y-82798795D01*
X139238083Y-82798794D01*
X139233212Y-82797069D01*
X139228119Y-82796162D01*
X139228116Y-82796161D01*
X139018373Y-82758800D01*
X139018367Y-82758799D01*
X139013284Y-82757894D01*
X138939452Y-82756992D01*
X138795081Y-82755228D01*
X138795079Y-82755228D01*
X138789911Y-82755165D01*
X138569091Y-82788955D01*
X138356756Y-82858357D01*
X138326443Y-82874137D01*
X138168366Y-82956427D01*
X138158607Y-82961507D01*
X138154474Y-82964610D01*
X138154471Y-82964612D01*
X138063483Y-83032928D01*
X137979965Y-83095635D01*
X137825629Y-83257138D01*
X137822720Y-83261403D01*
X137822714Y-83261411D01*
X137780132Y-83323834D01*
X137699743Y-83441680D01*
X137605688Y-83644305D01*
X137545989Y-83859570D01*
X137522251Y-84081695D01*
X137522548Y-84086848D01*
X137522548Y-84086851D01*
X137523477Y-84102965D01*
X137535110Y-84304715D01*
X137536247Y-84309761D01*
X137536248Y-84309767D01*
X137550480Y-84372915D01*
X137584222Y-84522639D01*
X137668266Y-84729616D01*
X137709669Y-84797180D01*
X137782291Y-84915688D01*
X137784987Y-84920088D01*
X137931250Y-85088938D01*
X138103126Y-85231632D01*
X138296000Y-85344338D01*
X138504692Y-85424030D01*
X138509760Y-85425061D01*
X138509763Y-85425062D01*
X138577588Y-85438861D01*
X138723597Y-85468567D01*
X138728772Y-85468757D01*
X138728774Y-85468757D01*
X138941673Y-85476564D01*
X138941677Y-85476564D01*
X138946837Y-85476753D01*
X138951957Y-85476097D01*
X138951959Y-85476097D01*
X139163288Y-85449025D01*
X139163289Y-85449025D01*
X139168416Y-85448368D01*
X139200021Y-85438886D01*
X139377429Y-85385661D01*
X139377434Y-85385659D01*
X139382384Y-85384174D01*
X139582994Y-85285896D01*
X139764860Y-85156173D01*
X139923096Y-84998489D01*
X139953326Y-84956420D01*
X140053453Y-84817077D01*
X140054776Y-84818028D01*
X140101645Y-84774857D01*
X140171580Y-84762625D01*
X140237026Y-84790144D01*
X140264875Y-84821994D01*
X140269357Y-84829308D01*
X140324987Y-84920088D01*
X140471250Y-85088938D01*
X140643126Y-85231632D01*
X140836000Y-85344338D01*
X141044692Y-85424030D01*
X141049760Y-85425061D01*
X141049763Y-85425062D01*
X141117588Y-85438861D01*
X141263597Y-85468567D01*
X141268772Y-85468757D01*
X141268774Y-85468757D01*
X141481673Y-85476564D01*
X141481677Y-85476564D01*
X141486837Y-85476753D01*
X141491957Y-85476097D01*
X141491959Y-85476097D01*
X141703288Y-85449025D01*
X141703289Y-85449025D01*
X141708416Y-85448368D01*
X141740021Y-85438886D01*
X141917438Y-85385658D01*
X141917439Y-85385658D01*
X141922384Y-85384174D01*
X141941903Y-85374612D01*
X142011875Y-85362605D01*
X142077233Y-85390334D01*
X142117223Y-85448997D01*
X142119377Y-85456431D01*
X142120532Y-85460931D01*
X142121526Y-85468797D01*
X142124442Y-85476163D01*
X142124444Y-85476169D01*
X142137804Y-85509912D01*
X142141649Y-85521142D01*
X142151771Y-85555983D01*
X142153982Y-85563593D01*
X142158015Y-85570412D01*
X142158017Y-85570417D01*
X142164293Y-85581028D01*
X142172988Y-85598776D01*
X142180448Y-85617617D01*
X142185110Y-85624033D01*
X142185110Y-85624034D01*
X142206436Y-85653387D01*
X142212952Y-85663307D01*
X142235458Y-85701362D01*
X142249779Y-85715683D01*
X142262619Y-85730716D01*
X142274528Y-85747107D01*
X142308605Y-85775298D01*
X142317384Y-85783288D01*
X142455501Y-85921405D01*
X142489527Y-85983717D01*
X142484462Y-86054532D01*
X142441915Y-86111368D01*
X142375395Y-86136179D01*
X142366406Y-86136500D01*
X124820110Y-86136500D01*
X124751989Y-86116498D01*
X124746048Y-86112435D01*
X124741096Y-86108837D01*
X124735321Y-86103414D01*
X124728381Y-86099598D01*
X124728376Y-86099595D01*
X124717566Y-86093652D01*
X124701047Y-86082801D01*
X124700583Y-86082441D01*
X124685041Y-86070386D01*
X124677772Y-86067241D01*
X124677768Y-86067238D01*
X124644463Y-86052826D01*
X124633813Y-86047609D01*
X124595060Y-86026305D01*
X124584802Y-86023671D01*
X124575438Y-86021267D01*
X124556734Y-86014863D01*
X124545420Y-86009967D01*
X124545419Y-86009967D01*
X124538145Y-86006819D01*
X124530322Y-86005580D01*
X124530312Y-86005577D01*
X124494476Y-85999901D01*
X124482856Y-85997495D01*
X124447711Y-85988472D01*
X124447710Y-85988472D01*
X124440030Y-85986500D01*
X124419776Y-85986500D01*
X124400065Y-85984949D01*
X124387886Y-85983020D01*
X124380057Y-85981780D01*
X124372165Y-85982526D01*
X124336039Y-85985941D01*
X124324181Y-85986500D01*
X123576805Y-85986500D01*
X123508684Y-85966498D01*
X123471013Y-85928940D01*
X123382822Y-85792617D01*
X123382820Y-85792614D01*
X123380014Y-85788277D01*
X123229670Y-85623051D01*
X123225616Y-85619849D01*
X123225615Y-85619848D01*
X123058414Y-85487800D01*
X123058410Y-85487798D01*
X123054359Y-85484598D01*
X123048800Y-85481529D01*
X123023447Y-85467534D01*
X123012569Y-85461529D01*
X122962598Y-85411097D01*
X122947826Y-85341654D01*
X122972942Y-85275248D01*
X123000293Y-85248642D01*
X123049247Y-85213723D01*
X123057648Y-85203023D01*
X123050660Y-85189870D01*
X122312812Y-84452022D01*
X122298868Y-84444408D01*
X122297035Y-84444539D01*
X122290420Y-84448790D01*
X121546737Y-85192473D01*
X121539977Y-85204853D01*
X121545258Y-85211907D01*
X121591969Y-85239203D01*
X121640693Y-85290841D01*
X121653764Y-85360624D01*
X121627033Y-85426396D01*
X121586584Y-85459752D01*
X121573607Y-85466507D01*
X121569474Y-85469610D01*
X121569471Y-85469612D01*
X121399100Y-85597530D01*
X121394965Y-85600635D01*
X121240629Y-85762138D01*
X121133201Y-85919621D01*
X121078293Y-85964621D01*
X121007768Y-85972792D01*
X120944021Y-85941538D01*
X120923324Y-85917054D01*
X120842822Y-85792617D01*
X120842820Y-85792614D01*
X120840014Y-85788277D01*
X120689670Y-85623051D01*
X120647006Y-85589357D01*
X120605944Y-85531441D01*
X120602712Y-85460518D01*
X120638337Y-85399107D01*
X120671647Y-85376376D01*
X120677007Y-85373865D01*
X120683946Y-85371550D01*
X120834348Y-85278478D01*
X120959305Y-85153303D01*
X120996945Y-85092240D01*
X121048275Y-85008968D01*
X121048276Y-85008966D01*
X121052115Y-85002738D01*
X121076913Y-84927975D01*
X121117342Y-84869616D01*
X121146630Y-84851934D01*
X121185694Y-84835096D01*
X121927978Y-84092812D01*
X121934356Y-84081132D01*
X122664408Y-84081132D01*
X122664539Y-84082965D01*
X122668790Y-84089580D01*
X123410474Y-84831264D01*
X123422484Y-84837823D01*
X123434223Y-84828855D01*
X123465004Y-84786019D01*
X123470315Y-84777180D01*
X123564670Y-84586267D01*
X123568469Y-84576672D01*
X123630376Y-84372915D01*
X123632555Y-84362834D01*
X123660590Y-84149887D01*
X123661109Y-84143212D01*
X123662572Y-84083364D01*
X123662378Y-84076646D01*
X123644781Y-83862604D01*
X123643096Y-83852424D01*
X123591214Y-83645875D01*
X123587894Y-83636124D01*
X123502972Y-83440814D01*
X123498105Y-83431739D01*
X123433063Y-83331197D01*
X123422377Y-83321995D01*
X123412812Y-83326398D01*
X122672022Y-84067188D01*
X122664408Y-84081132D01*
X121934356Y-84081132D01*
X121935592Y-84078868D01*
X121935461Y-84077035D01*
X121931210Y-84070420D01*
X121189849Y-83329059D01*
X121149510Y-83307031D01*
X121136523Y-83304206D01*
X121086322Y-83254003D01*
X121077388Y-83233497D01*
X121053870Y-83163007D01*
X121053869Y-83163005D01*
X121051550Y-83156054D01*
X120958478Y-83005652D01*
X120909167Y-82956427D01*
X121541223Y-82956427D01*
X121547968Y-82968758D01*
X122287188Y-83707978D01*
X122301132Y-83715592D01*
X122302965Y-83715461D01*
X122309580Y-83711210D01*
X123053389Y-82967401D01*
X123060410Y-82954544D01*
X123053611Y-82945213D01*
X123049554Y-82942518D01*
X122863117Y-82839599D01*
X122853705Y-82835369D01*
X122652959Y-82764280D01*
X122642989Y-82761646D01*
X122433327Y-82724301D01*
X122423073Y-82723331D01*
X122210116Y-82720728D01*
X122199832Y-82721448D01*
X121989321Y-82753661D01*
X121979293Y-82756050D01*
X121776868Y-82822212D01*
X121767359Y-82826209D01*
X121578466Y-82924540D01*
X121569734Y-82930039D01*
X121549677Y-82945099D01*
X121541223Y-82956427D01*
X120909167Y-82956427D01*
X120833303Y-82880695D01*
X120822671Y-82874141D01*
X120784172Y-82850410D01*
X120728383Y-82816021D01*
X120680891Y-82763250D01*
X120668500Y-82708762D01*
X120668500Y-77658503D01*
X120688502Y-77590382D01*
X120705405Y-77569408D01*
X121559408Y-76715405D01*
X121621720Y-76681379D01*
X121648503Y-76678500D01*
X137408583Y-76678500D01*
X137428292Y-76680051D01*
X137442190Y-76682252D01*
X137448777Y-76681907D01*
X137448782Y-76681907D01*
X137510480Y-76678673D01*
X137517074Y-76678500D01*
X137537610Y-76678500D01*
X137540882Y-76678156D01*
X137540884Y-76678156D01*
X137558042Y-76676353D01*
X137564616Y-76675836D01*
X137626308Y-76672603D01*
X137626312Y-76672602D01*
X137632903Y-76672257D01*
X137639284Y-76670547D01*
X137639286Y-76670547D01*
X137646491Y-76668617D01*
X137665925Y-76665015D01*
X137673354Y-76664234D01*
X137673363Y-76664232D01*
X137679928Y-76663542D01*
X137744997Y-76642400D01*
X137751299Y-76640533D01*
X137817370Y-76622829D01*
X137829908Y-76616440D01*
X137848174Y-76608875D01*
X137855272Y-76606569D01*
X137855274Y-76606568D01*
X137861556Y-76604527D01*
X137920785Y-76570331D01*
X137926579Y-76567185D01*
X137932714Y-76564059D01*
X137987530Y-76536129D01*
X137998467Y-76527273D01*
X138014763Y-76516073D01*
X138021224Y-76512343D01*
X138021228Y-76512340D01*
X138026944Y-76509040D01*
X138031850Y-76504623D01*
X138031855Y-76504619D01*
X138077769Y-76463278D01*
X138082784Y-76458994D01*
X138096177Y-76448148D01*
X138098741Y-76446072D01*
X138113256Y-76431557D01*
X138118041Y-76427016D01*
X138163957Y-76385673D01*
X138168866Y-76381253D01*
X138177140Y-76369865D01*
X138189981Y-76354832D01*
X139774832Y-74769981D01*
X139789865Y-74757140D01*
X139795913Y-74752746D01*
X139795914Y-74752745D01*
X139801253Y-74748866D01*
X139847016Y-74698041D01*
X139851557Y-74693256D01*
X139866072Y-74678741D01*
X139878994Y-74662784D01*
X139883278Y-74657769D01*
X139924619Y-74611855D01*
X139924623Y-74611850D01*
X139929040Y-74606944D01*
X139932340Y-74601228D01*
X139932343Y-74601224D01*
X139936073Y-74594763D01*
X139947273Y-74578466D01*
X139951975Y-74572660D01*
X139951976Y-74572658D01*
X139956129Y-74567530D01*
X139987186Y-74506577D01*
X139990333Y-74500782D01*
X140021223Y-74447279D01*
X140021224Y-74447278D01*
X140024527Y-74441556D01*
X140028875Y-74428173D01*
X140036441Y-74409907D01*
X140042829Y-74397370D01*
X140060533Y-74331299D01*
X140062400Y-74324997D01*
X140083542Y-74259928D01*
X140084232Y-74253363D01*
X140084234Y-74253354D01*
X140085015Y-74245925D01*
X140088617Y-74226491D01*
X140090547Y-74219286D01*
X140090547Y-74219284D01*
X140092257Y-74212903D01*
X140095836Y-74144616D01*
X140096353Y-74138042D01*
X140098156Y-74120884D01*
X140098156Y-74120882D01*
X140098500Y-74117610D01*
X140098500Y-74097074D01*
X140098673Y-74090480D01*
X140101907Y-74028782D01*
X140101907Y-74028777D01*
X140102252Y-74022190D01*
X140100051Y-74008292D01*
X140098500Y-73988583D01*
X140098500Y-73352453D01*
X140118502Y-73284332D01*
X140135560Y-73263202D01*
X140180419Y-73218500D01*
X140228096Y-73170989D01*
X140358453Y-72989577D01*
X140359640Y-72990430D01*
X140406960Y-72946862D01*
X140476897Y-72934645D01*
X140542338Y-72962178D01*
X140570166Y-72994012D01*
X140596459Y-73036919D01*
X140606916Y-73046380D01*
X140615694Y-73042596D01*
X141357978Y-72300312D01*
X141365592Y-72286368D01*
X141365461Y-72284535D01*
X141361210Y-72277920D01*
X140619849Y-71536559D01*
X140608313Y-71530259D01*
X140596031Y-71539882D01*
X140563499Y-71587572D01*
X140508587Y-71632575D01*
X140438063Y-71640746D01*
X140374316Y-71609492D01*
X140353618Y-71585008D01*
X140272822Y-71460117D01*
X140272820Y-71460114D01*
X140270014Y-71455777D01*
X140266532Y-71451950D01*
X140131307Y-71303339D01*
X140100255Y-71239493D01*
X140098500Y-71218539D01*
X140098500Y-70812453D01*
X140118502Y-70744332D01*
X140135560Y-70723202D01*
X140182670Y-70676257D01*
X140228096Y-70630989D01*
X140287594Y-70548189D01*
X140358453Y-70449577D01*
X140359776Y-70450528D01*
X140406645Y-70407357D01*
X140476580Y-70395125D01*
X140542026Y-70422644D01*
G37*
%TD.AperFunction*%
%TA.AperFunction,Conductor*%
G36*
X157029032Y-71929947D02*
G01*
X157074095Y-71958908D01*
X159910546Y-74795359D01*
X159944572Y-74857671D01*
X159939507Y-74928486D01*
X159910546Y-74973549D01*
X159624500Y-75259595D01*
X159562188Y-75293621D01*
X159535405Y-75296500D01*
X157678200Y-75296500D01*
X157610079Y-75276498D01*
X157590853Y-75260157D01*
X157590580Y-75260460D01*
X157585668Y-75256037D01*
X157581253Y-75251134D01*
X157517227Y-75204616D01*
X157432094Y-75142763D01*
X157432093Y-75142762D01*
X157426752Y-75138882D01*
X157420724Y-75136198D01*
X157420722Y-75136197D01*
X157258319Y-75063891D01*
X157258318Y-75063891D01*
X157252288Y-75061206D01*
X157145475Y-75038502D01*
X157071944Y-75022872D01*
X157071939Y-75022872D01*
X157065487Y-75021500D01*
X156874513Y-75021500D01*
X156868061Y-75022872D01*
X156868056Y-75022872D01*
X156794525Y-75038502D01*
X156687712Y-75061206D01*
X156681682Y-75063891D01*
X156681681Y-75063891D01*
X156519278Y-75136197D01*
X156519276Y-75136198D01*
X156513248Y-75138882D01*
X156358747Y-75251134D01*
X156354326Y-75256044D01*
X156354325Y-75256045D01*
X156238242Y-75384969D01*
X156230960Y-75393056D01*
X156135473Y-75558444D01*
X156076458Y-75740072D01*
X156075768Y-75746633D01*
X156075768Y-75746635D01*
X156068820Y-75812746D01*
X156056496Y-75930000D01*
X156076458Y-76119928D01*
X156135473Y-76301556D01*
X156230960Y-76466944D01*
X156304137Y-76548215D01*
X156334853Y-76612221D01*
X156336500Y-76632524D01*
X156336500Y-79047476D01*
X156316498Y-79115597D01*
X156304142Y-79131779D01*
X156230960Y-79213056D01*
X156135473Y-79378444D01*
X156076458Y-79560072D01*
X156056496Y-79750000D01*
X156076458Y-79939928D01*
X156135473Y-80121556D01*
X156230960Y-80286944D01*
X156358747Y-80428866D01*
X156513248Y-80541118D01*
X156519276Y-80543802D01*
X156519278Y-80543803D01*
X156681681Y-80616109D01*
X156687712Y-80618794D01*
X156781112Y-80638647D01*
X156868056Y-80657128D01*
X156868061Y-80657128D01*
X156874513Y-80658500D01*
X157065487Y-80658500D01*
X157071939Y-80657128D01*
X157071944Y-80657128D01*
X157158888Y-80638647D01*
X157252288Y-80618794D01*
X157258319Y-80616109D01*
X157420722Y-80543803D01*
X157420724Y-80543802D01*
X157426752Y-80541118D01*
X157581253Y-80428866D01*
X157709040Y-80286944D01*
X157804527Y-80121556D01*
X157863542Y-79939928D01*
X157883504Y-79750000D01*
X157863542Y-79560072D01*
X157804527Y-79378444D01*
X157709040Y-79213056D01*
X157635863Y-79131785D01*
X157605147Y-79067779D01*
X157603500Y-79047476D01*
X157603500Y-76689500D01*
X157623502Y-76621379D01*
X157677158Y-76574886D01*
X157729500Y-76563500D01*
X159771233Y-76563500D01*
X159782416Y-76564027D01*
X159789909Y-76565702D01*
X159797835Y-76565453D01*
X159797836Y-76565453D01*
X159857986Y-76563562D01*
X159861945Y-76563500D01*
X159889856Y-76563500D01*
X159893791Y-76563003D01*
X159893856Y-76562995D01*
X159905693Y-76562062D01*
X159937951Y-76561048D01*
X159941970Y-76560922D01*
X159949889Y-76560673D01*
X159969343Y-76555021D01*
X159988700Y-76551013D01*
X160000930Y-76549468D01*
X160000931Y-76549468D01*
X160008797Y-76548474D01*
X160016168Y-76545555D01*
X160016170Y-76545555D01*
X160049912Y-76532196D01*
X160061142Y-76528351D01*
X160095983Y-76518229D01*
X160095984Y-76518229D01*
X160103593Y-76516018D01*
X160110412Y-76511985D01*
X160110417Y-76511983D01*
X160121028Y-76505707D01*
X160138776Y-76497012D01*
X160157617Y-76489552D01*
X160193387Y-76463564D01*
X160203307Y-76457048D01*
X160234535Y-76438580D01*
X160234538Y-76438578D01*
X160241362Y-76434542D01*
X160255683Y-76420221D01*
X160270717Y-76407380D01*
X160280694Y-76400131D01*
X160287107Y-76395472D01*
X160292157Y-76389368D01*
X160292162Y-76389363D01*
X160315293Y-76361402D01*
X160323283Y-76352622D01*
X160806451Y-75869454D01*
X160868763Y-75835428D01*
X160939578Y-75840493D01*
X160984641Y-75869454D01*
X162804595Y-77689408D01*
X162838621Y-77751720D01*
X162841500Y-77778503D01*
X162841500Y-82728689D01*
X162821498Y-82796810D01*
X162781804Y-82835833D01*
X162675652Y-82901522D01*
X162670479Y-82906704D01*
X162665623Y-82911568D01*
X162550695Y-83026697D01*
X162546855Y-83032927D01*
X162546854Y-83032928D01*
X162492026Y-83121876D01*
X162457885Y-83177262D01*
X162445862Y-83213510D01*
X162408837Y-83325139D01*
X162402203Y-83345139D01*
X162391500Y-83449600D01*
X162391500Y-84735044D01*
X162371498Y-84803165D01*
X162311881Y-84852196D01*
X162299536Y-84857084D01*
X162285090Y-84862803D01*
X162273865Y-84866646D01*
X162231407Y-84878982D01*
X162224581Y-84883019D01*
X162213972Y-84889293D01*
X162196224Y-84897988D01*
X162177383Y-84905448D01*
X162170967Y-84910110D01*
X162170966Y-84910110D01*
X162141613Y-84931436D01*
X162131693Y-84937952D01*
X162100465Y-84956420D01*
X162100462Y-84956422D01*
X162093638Y-84960458D01*
X162079317Y-84974779D01*
X162064284Y-84987619D01*
X162047893Y-84999528D01*
X162042842Y-85005634D01*
X162019702Y-85033605D01*
X162011712Y-85042384D01*
X160954500Y-86099595D01*
X160892188Y-86133621D01*
X160865405Y-86136500D01*
X147087098Y-86136500D01*
X147018977Y-86116498D01*
X146972484Y-86062842D01*
X146961788Y-86023671D01*
X146944232Y-85856634D01*
X146944231Y-85856631D01*
X146943542Y-85850072D01*
X146884527Y-85668444D01*
X146841663Y-85594202D01*
X146824926Y-85525209D01*
X146848146Y-85458117D01*
X146903953Y-85414230D01*
X146914576Y-85410518D01*
X146997425Y-85385662D01*
X146997427Y-85385661D01*
X147002384Y-85384174D01*
X147202994Y-85285896D01*
X147384860Y-85156173D01*
X147543096Y-84998489D01*
X147573326Y-84956420D01*
X147673453Y-84817077D01*
X147674776Y-84818028D01*
X147721645Y-84774857D01*
X147791580Y-84762625D01*
X147857026Y-84790144D01*
X147884875Y-84821994D01*
X147889357Y-84829308D01*
X147944987Y-84920088D01*
X148091250Y-85088938D01*
X148263126Y-85231632D01*
X148456000Y-85344338D01*
X148664692Y-85424030D01*
X148669760Y-85425061D01*
X148669763Y-85425062D01*
X148737588Y-85438861D01*
X148883597Y-85468567D01*
X148888772Y-85468757D01*
X148888774Y-85468757D01*
X149101673Y-85476564D01*
X149101677Y-85476564D01*
X149106837Y-85476753D01*
X149111957Y-85476097D01*
X149111959Y-85476097D01*
X149323288Y-85449025D01*
X149323289Y-85449025D01*
X149328416Y-85448368D01*
X149360021Y-85438886D01*
X149537429Y-85385661D01*
X149537434Y-85385659D01*
X149542384Y-85384174D01*
X149742994Y-85285896D01*
X149924860Y-85156173D01*
X149992331Y-85088938D01*
X150033479Y-85047933D01*
X150095851Y-85014017D01*
X150166658Y-85019205D01*
X150223419Y-85061851D01*
X150240401Y-85092954D01*
X150281676Y-85203054D01*
X150290214Y-85218649D01*
X150366715Y-85320724D01*
X150379276Y-85333285D01*
X150481351Y-85409786D01*
X150496946Y-85418324D01*
X150617394Y-85463478D01*
X150632649Y-85467105D01*
X150683514Y-85472631D01*
X150690328Y-85473000D01*
X151312885Y-85473000D01*
X151328124Y-85468525D01*
X151329329Y-85467135D01*
X151331000Y-85459452D01*
X151331000Y-85454884D01*
X151839000Y-85454884D01*
X151843475Y-85470123D01*
X151844865Y-85471328D01*
X151852548Y-85472999D01*
X152479669Y-85472999D01*
X152486490Y-85472629D01*
X152537352Y-85467105D01*
X152552604Y-85463479D01*
X152673054Y-85418324D01*
X152688649Y-85409786D01*
X152790724Y-85333285D01*
X152803285Y-85320724D01*
X152879786Y-85218649D01*
X152888324Y-85203054D01*
X152933478Y-85082606D01*
X152937105Y-85067351D01*
X152942631Y-85016486D01*
X152943000Y-85009672D01*
X152943000Y-84387115D01*
X152938525Y-84371876D01*
X152937135Y-84370671D01*
X152929452Y-84369000D01*
X151857115Y-84369000D01*
X151841876Y-84373475D01*
X151840671Y-84374865D01*
X151839000Y-84382548D01*
X151839000Y-85454884D01*
X151331000Y-85454884D01*
X151331000Y-83842885D01*
X151839000Y-83842885D01*
X151843475Y-83858124D01*
X151844865Y-83859329D01*
X151852548Y-83861000D01*
X152924884Y-83861000D01*
X152940123Y-83856525D01*
X152941328Y-83855135D01*
X152942999Y-83847452D01*
X152942999Y-83220331D01*
X152942629Y-83213510D01*
X152937105Y-83162648D01*
X152933479Y-83147396D01*
X152888324Y-83026946D01*
X152879786Y-83011351D01*
X152803285Y-82909276D01*
X152790724Y-82896715D01*
X152688649Y-82820214D01*
X152673054Y-82811676D01*
X152552606Y-82766522D01*
X152537351Y-82762895D01*
X152486486Y-82757369D01*
X152479672Y-82757000D01*
X151857115Y-82757000D01*
X151841876Y-82761475D01*
X151840671Y-82762865D01*
X151839000Y-82770548D01*
X151839000Y-83842885D01*
X151331000Y-83842885D01*
X151331000Y-82775116D01*
X151326525Y-82759877D01*
X151325135Y-82758672D01*
X151317452Y-82757001D01*
X150690331Y-82757001D01*
X150683510Y-82757371D01*
X150632648Y-82762895D01*
X150617396Y-82766521D01*
X150496946Y-82811676D01*
X150481351Y-82820214D01*
X150379276Y-82896715D01*
X150366715Y-82909276D01*
X150290214Y-83011351D01*
X150281676Y-83026946D01*
X150240297Y-83137322D01*
X150197655Y-83194087D01*
X150131093Y-83218786D01*
X150061744Y-83203578D01*
X150029121Y-83177891D01*
X149978151Y-83121876D01*
X149978145Y-83121870D01*
X149974670Y-83118051D01*
X149970619Y-83114852D01*
X149970615Y-83114848D01*
X149803414Y-82982800D01*
X149803410Y-82982798D01*
X149799359Y-82979598D01*
X149779723Y-82968758D01*
X149718461Y-82934940D01*
X149603789Y-82871638D01*
X149598920Y-82869914D01*
X149598916Y-82869912D01*
X149398087Y-82798795D01*
X149398083Y-82798794D01*
X149393212Y-82797069D01*
X149388119Y-82796162D01*
X149388116Y-82796161D01*
X149178373Y-82758800D01*
X149178367Y-82758799D01*
X149173284Y-82757894D01*
X149099452Y-82756992D01*
X148955081Y-82755228D01*
X148955079Y-82755228D01*
X148949911Y-82755165D01*
X148729091Y-82788955D01*
X148675412Y-82806500D01*
X148604450Y-82808651D01*
X148543588Y-82772095D01*
X148512151Y-82708438D01*
X148520121Y-82637890D01*
X148547173Y-82597640D01*
X155314832Y-75829981D01*
X155329865Y-75817140D01*
X155335913Y-75812746D01*
X155335914Y-75812745D01*
X155341253Y-75808866D01*
X155387016Y-75758041D01*
X155391557Y-75753256D01*
X155406072Y-75738741D01*
X155418994Y-75722784D01*
X155423278Y-75717769D01*
X155464619Y-75671855D01*
X155464623Y-75671850D01*
X155469040Y-75666944D01*
X155472340Y-75661228D01*
X155472343Y-75661224D01*
X155476073Y-75654763D01*
X155487273Y-75638466D01*
X155491975Y-75632660D01*
X155491976Y-75632658D01*
X155496129Y-75627530D01*
X155527188Y-75566574D01*
X155530336Y-75560777D01*
X155561224Y-75507277D01*
X155564527Y-75501556D01*
X155568875Y-75488174D01*
X155576438Y-75469915D01*
X155582830Y-75457370D01*
X155600537Y-75391288D01*
X155602409Y-75384969D01*
X155621501Y-75326210D01*
X155621501Y-75326209D01*
X155623542Y-75319928D01*
X155625014Y-75305925D01*
X155628615Y-75286496D01*
X155632257Y-75272903D01*
X155632925Y-75260157D01*
X155635836Y-75204616D01*
X155636353Y-75198042D01*
X155638156Y-75180884D01*
X155638156Y-75180882D01*
X155638500Y-75177610D01*
X155638500Y-75157074D01*
X155638673Y-75150480D01*
X155641907Y-75088782D01*
X155641907Y-75088777D01*
X155642252Y-75082190D01*
X155640051Y-75068293D01*
X155638500Y-75048583D01*
X155638500Y-73268503D01*
X155658502Y-73200382D01*
X155675405Y-73179408D01*
X156895905Y-71958908D01*
X156958217Y-71924882D01*
X157029032Y-71929947D01*
G37*
%TD.AperFunction*%
%TA.AperFunction,Conductor*%
G36*
X144955398Y-73546587D02*
G01*
X144995388Y-73605249D01*
X145001500Y-73644015D01*
X145001500Y-82510405D01*
X144981498Y-82578526D01*
X144964595Y-82599500D01*
X144897747Y-82666348D01*
X144889461Y-82673888D01*
X144882982Y-82678000D01*
X144877557Y-82683777D01*
X144836356Y-82727652D01*
X144833601Y-82730494D01*
X144813865Y-82750230D01*
X144811385Y-82753427D01*
X144803682Y-82762447D01*
X144773414Y-82794679D01*
X144769595Y-82801625D01*
X144769593Y-82801628D01*
X144763652Y-82812434D01*
X144752801Y-82828953D01*
X144747465Y-82835833D01*
X144740386Y-82844959D01*
X144737831Y-82850864D01*
X144686424Y-82898862D01*
X144616574Y-82911568D01*
X144568969Y-82896579D01*
X144558843Y-82890989D01*
X144523789Y-82871638D01*
X144395501Y-82826209D01*
X144318087Y-82798795D01*
X144318083Y-82798794D01*
X144313212Y-82797069D01*
X144308119Y-82796162D01*
X144308116Y-82796161D01*
X144098373Y-82758800D01*
X144098367Y-82758799D01*
X144093284Y-82757894D01*
X144019452Y-82756992D01*
X143875081Y-82755228D01*
X143875079Y-82755228D01*
X143869911Y-82755165D01*
X143864794Y-82755948D01*
X143858558Y-82756902D01*
X143788195Y-82747434D01*
X143734122Y-82701428D01*
X143713500Y-82632352D01*
X143713500Y-73712238D01*
X143733502Y-73644117D01*
X143787158Y-73597624D01*
X143857432Y-73587520D01*
X143879865Y-73593339D01*
X143879893Y-73593242D01*
X143883228Y-73594211D01*
X143884447Y-73594527D01*
X143884862Y-73594686D01*
X143884866Y-73594687D01*
X143889692Y-73596530D01*
X143894760Y-73597561D01*
X143894763Y-73597562D01*
X143965945Y-73612044D01*
X144108597Y-73641067D01*
X144113772Y-73641257D01*
X144113774Y-73641257D01*
X144326673Y-73649064D01*
X144326677Y-73649064D01*
X144331837Y-73649253D01*
X144336957Y-73648597D01*
X144336959Y-73648597D01*
X144548288Y-73621525D01*
X144548289Y-73621525D01*
X144553416Y-73620868D01*
X144558366Y-73619383D01*
X144762429Y-73558161D01*
X144762434Y-73558159D01*
X144767384Y-73556674D01*
X144820070Y-73530864D01*
X144890041Y-73518857D01*
X144955398Y-73546587D01*
G37*
%TD.AperFunction*%
%TA.AperFunction,Conductor*%
G36*
X153239618Y-68128502D02*
G01*
X153260592Y-68145405D01*
X155611092Y-70495905D01*
X155645118Y-70558217D01*
X155640053Y-70629032D01*
X155611092Y-70674095D01*
X154145168Y-72140019D01*
X154130135Y-72152860D01*
X154118747Y-72161134D01*
X154114327Y-72166043D01*
X154072984Y-72211959D01*
X154068443Y-72216744D01*
X154053928Y-72231259D01*
X154051852Y-72233823D01*
X154041006Y-72247216D01*
X154036722Y-72252231D01*
X153995381Y-72298145D01*
X153995377Y-72298150D01*
X153990960Y-72303056D01*
X153987660Y-72308772D01*
X153987657Y-72308776D01*
X153983927Y-72315237D01*
X153972727Y-72331533D01*
X153963871Y-72342470D01*
X153932815Y-72403421D01*
X153929669Y-72409215D01*
X153895473Y-72468444D01*
X153893432Y-72474726D01*
X153893431Y-72474728D01*
X153891125Y-72481826D01*
X153883560Y-72500092D01*
X153877171Y-72512630D01*
X153860307Y-72575569D01*
X153859469Y-72578695D01*
X153857600Y-72585003D01*
X153836458Y-72650072D01*
X153835768Y-72656637D01*
X153835766Y-72656646D01*
X153834985Y-72664075D01*
X153831383Y-72683509D01*
X153829453Y-72690714D01*
X153827743Y-72697097D01*
X153827398Y-72703688D01*
X153827397Y-72703692D01*
X153824164Y-72765384D01*
X153823647Y-72771958D01*
X153822344Y-72784357D01*
X153821500Y-72792390D01*
X153821500Y-72812926D01*
X153821327Y-72819520D01*
X153817748Y-72887810D01*
X153818780Y-72894325D01*
X153819949Y-72901705D01*
X153821500Y-72921417D01*
X153821500Y-74701497D01*
X153801498Y-74769618D01*
X153784595Y-74790592D01*
X146483595Y-82091592D01*
X146421283Y-82125618D01*
X146350468Y-82120553D01*
X146293632Y-82078006D01*
X146268821Y-82011486D01*
X146268500Y-82002497D01*
X146268500Y-73717074D01*
X146288502Y-73648953D01*
X146342158Y-73602460D01*
X146412432Y-73592356D01*
X146427009Y-73595506D01*
X146429692Y-73596530D01*
X146434762Y-73597561D01*
X146434767Y-73597563D01*
X146567726Y-73624613D01*
X146648597Y-73641067D01*
X146653772Y-73641257D01*
X146653774Y-73641257D01*
X146866673Y-73649064D01*
X146866677Y-73649064D01*
X146871837Y-73649253D01*
X146876957Y-73648597D01*
X146876959Y-73648597D01*
X147088288Y-73621525D01*
X147088289Y-73621525D01*
X147093416Y-73620868D01*
X147098366Y-73619383D01*
X147302429Y-73558161D01*
X147302434Y-73558159D01*
X147307384Y-73556674D01*
X147507994Y-73458396D01*
X147689860Y-73328673D01*
X147747610Y-73271125D01*
X147803943Y-73214988D01*
X147848096Y-73170989D01*
X147978453Y-72989577D01*
X147979776Y-72990528D01*
X148026645Y-72947357D01*
X148096580Y-72935125D01*
X148162026Y-72962644D01*
X148189875Y-72994494D01*
X148249987Y-73092588D01*
X148396250Y-73261438D01*
X148568126Y-73404132D01*
X148761000Y-73516838D01*
X148969692Y-73596530D01*
X148974760Y-73597561D01*
X148974763Y-73597562D01*
X149045945Y-73612044D01*
X149188597Y-73641067D01*
X149193772Y-73641257D01*
X149193774Y-73641257D01*
X149406673Y-73649064D01*
X149406677Y-73649064D01*
X149411837Y-73649253D01*
X149416957Y-73648597D01*
X149416959Y-73648597D01*
X149628288Y-73621525D01*
X149628289Y-73621525D01*
X149633416Y-73620868D01*
X149638366Y-73619383D01*
X149842429Y-73558161D01*
X149842434Y-73558159D01*
X149847384Y-73556674D01*
X150047994Y-73458396D01*
X150229860Y-73328673D01*
X150287610Y-73271125D01*
X150343943Y-73214988D01*
X150388096Y-73170989D01*
X150518453Y-72989577D01*
X150519776Y-72990528D01*
X150566645Y-72947357D01*
X150636580Y-72935125D01*
X150702026Y-72962644D01*
X150729875Y-72994494D01*
X150789987Y-73092588D01*
X150936250Y-73261438D01*
X151108126Y-73404132D01*
X151301000Y-73516838D01*
X151509692Y-73596530D01*
X151514760Y-73597561D01*
X151514763Y-73597562D01*
X151585945Y-73612044D01*
X151728597Y-73641067D01*
X151733772Y-73641257D01*
X151733774Y-73641257D01*
X151946673Y-73649064D01*
X151946677Y-73649064D01*
X151951837Y-73649253D01*
X151956957Y-73648597D01*
X151956959Y-73648597D01*
X152168288Y-73621525D01*
X152168289Y-73621525D01*
X152173416Y-73620868D01*
X152178366Y-73619383D01*
X152382429Y-73558161D01*
X152382434Y-73558159D01*
X152387384Y-73556674D01*
X152587994Y-73458396D01*
X152769860Y-73328673D01*
X152827610Y-73271125D01*
X152883943Y-73214988D01*
X152928096Y-73170989D01*
X153058453Y-72989577D01*
X153071995Y-72962178D01*
X153155136Y-72793953D01*
X153155137Y-72793951D01*
X153157430Y-72789311D01*
X153219498Y-72585021D01*
X153220865Y-72580523D01*
X153220865Y-72580521D01*
X153222370Y-72575569D01*
X153251529Y-72354090D01*
X153252080Y-72331532D01*
X153253074Y-72290865D01*
X153253074Y-72290861D01*
X153253156Y-72287500D01*
X153234852Y-72064861D01*
X153180431Y-71848202D01*
X153091354Y-71643340D01*
X153051906Y-71582362D01*
X152972822Y-71460117D01*
X152972820Y-71460114D01*
X152970014Y-71455777D01*
X152819670Y-71290551D01*
X152776564Y-71256508D01*
X152735502Y-71198592D01*
X152732270Y-71127669D01*
X152767895Y-71066258D01*
X152801204Y-71043527D01*
X152819958Y-71034741D01*
X152957807Y-70949437D01*
X152969208Y-70940401D01*
X153083739Y-70825671D01*
X153092751Y-70814260D01*
X153177816Y-70676257D01*
X153183963Y-70663076D01*
X153235138Y-70508790D01*
X153238005Y-70495414D01*
X153247672Y-70401062D01*
X153248000Y-70394645D01*
X153248000Y-70019615D01*
X153243525Y-70004376D01*
X153242135Y-70003171D01*
X153234452Y-70001500D01*
X151762000Y-70001500D01*
X151693879Y-69981498D01*
X151647386Y-69927842D01*
X151636000Y-69875500D01*
X151636000Y-69475385D01*
X152144000Y-69475385D01*
X152148475Y-69490624D01*
X152149865Y-69491829D01*
X152157548Y-69493500D01*
X153229884Y-69493500D01*
X153245123Y-69489025D01*
X153246328Y-69487635D01*
X153247999Y-69479952D01*
X153247999Y-69100405D01*
X153247662Y-69093886D01*
X153237743Y-68998294D01*
X153234851Y-68984900D01*
X153183412Y-68830716D01*
X153177239Y-68817538D01*
X153091937Y-68679693D01*
X153082901Y-68668292D01*
X152968171Y-68553761D01*
X152956760Y-68544749D01*
X152818757Y-68459684D01*
X152805576Y-68453537D01*
X152651290Y-68402362D01*
X152637914Y-68399495D01*
X152543562Y-68389828D01*
X152537145Y-68389500D01*
X152162115Y-68389500D01*
X152146876Y-68393975D01*
X152145671Y-68395365D01*
X152144000Y-68403048D01*
X152144000Y-69475385D01*
X151636000Y-69475385D01*
X151636000Y-68407616D01*
X151631525Y-68392377D01*
X151630135Y-68391172D01*
X151622452Y-68389501D01*
X151242905Y-68389501D01*
X151236386Y-68389838D01*
X151140794Y-68399757D01*
X151127400Y-68402649D01*
X150973216Y-68454088D01*
X150960038Y-68460261D01*
X150822193Y-68545563D01*
X150810792Y-68554599D01*
X150696261Y-68669329D01*
X150687249Y-68680740D01*
X150602183Y-68818744D01*
X150593926Y-68836450D01*
X150547008Y-68889734D01*
X150478730Y-68909194D01*
X150410771Y-68888651D01*
X150386538Y-68867997D01*
X150283151Y-68754375D01*
X150283142Y-68754366D01*
X150279670Y-68750551D01*
X150275619Y-68747352D01*
X150275615Y-68747348D01*
X150108414Y-68615300D01*
X150108410Y-68615298D01*
X150104359Y-68612098D01*
X150099485Y-68609407D01*
X150052136Y-68583269D01*
X149908789Y-68504138D01*
X149903920Y-68502414D01*
X149903916Y-68502412D01*
X149703087Y-68431295D01*
X149703083Y-68431294D01*
X149698212Y-68429569D01*
X149693119Y-68428662D01*
X149693116Y-68428661D01*
X149483373Y-68391300D01*
X149483367Y-68391299D01*
X149478284Y-68390394D01*
X149404452Y-68389492D01*
X149260081Y-68387728D01*
X149260079Y-68387728D01*
X149254911Y-68387665D01*
X149034091Y-68421455D01*
X148821756Y-68490857D01*
X148743455Y-68531618D01*
X148632442Y-68589408D01*
X148623607Y-68594007D01*
X148619474Y-68597110D01*
X148619471Y-68597112D01*
X148452362Y-68722581D01*
X148444965Y-68728135D01*
X148290629Y-68889638D01*
X148183201Y-69047121D01*
X148128293Y-69092121D01*
X148057768Y-69100292D01*
X147994021Y-69069038D01*
X147973324Y-69044554D01*
X147892822Y-68920117D01*
X147892820Y-68920114D01*
X147890014Y-68915777D01*
X147739670Y-68750551D01*
X147735619Y-68747352D01*
X147735615Y-68747348D01*
X147568414Y-68615300D01*
X147568410Y-68615298D01*
X147564359Y-68612098D01*
X147559485Y-68609407D01*
X147512136Y-68583269D01*
X147368789Y-68504138D01*
X147363920Y-68502414D01*
X147363916Y-68502412D01*
X147163087Y-68431295D01*
X147163083Y-68431294D01*
X147158212Y-68429569D01*
X147153119Y-68428662D01*
X147153116Y-68428661D01*
X146943373Y-68391300D01*
X146943367Y-68391299D01*
X146938284Y-68390394D01*
X146864452Y-68389492D01*
X146720081Y-68387728D01*
X146720079Y-68387728D01*
X146714911Y-68387665D01*
X146494091Y-68421455D01*
X146281756Y-68490857D01*
X146203455Y-68531618D01*
X146092442Y-68589408D01*
X146083607Y-68594007D01*
X146079474Y-68597110D01*
X146079471Y-68597112D01*
X145912362Y-68722581D01*
X145904965Y-68728135D01*
X145750629Y-68889638D01*
X145643201Y-69047121D01*
X145588293Y-69092121D01*
X145517768Y-69100292D01*
X145454021Y-69069038D01*
X145433324Y-69044554D01*
X145352822Y-68920117D01*
X145352820Y-68920114D01*
X145350014Y-68915777D01*
X145199670Y-68750551D01*
X145195619Y-68747352D01*
X145195615Y-68747348D01*
X145028414Y-68615300D01*
X145028410Y-68615298D01*
X145024359Y-68612098D01*
X145019485Y-68609407D01*
X144972136Y-68583269D01*
X144828789Y-68504138D01*
X144823920Y-68502414D01*
X144823916Y-68502412D01*
X144623087Y-68431295D01*
X144623083Y-68431294D01*
X144618212Y-68429569D01*
X144613119Y-68428662D01*
X144613116Y-68428661D01*
X144403373Y-68391300D01*
X144403367Y-68391299D01*
X144398284Y-68390394D01*
X144324452Y-68389492D01*
X144180081Y-68387728D01*
X144180079Y-68387728D01*
X144174911Y-68387665D01*
X143954091Y-68421455D01*
X143741756Y-68490857D01*
X143663455Y-68531618D01*
X143552442Y-68589408D01*
X143543607Y-68594007D01*
X143539474Y-68597110D01*
X143539471Y-68597112D01*
X143372362Y-68722581D01*
X143364965Y-68728135D01*
X143210629Y-68889638D01*
X143103201Y-69047121D01*
X143048293Y-69092121D01*
X142977768Y-69100292D01*
X142914021Y-69069038D01*
X142893324Y-69044554D01*
X142812822Y-68920117D01*
X142812820Y-68920114D01*
X142810014Y-68915777D01*
X142659670Y-68750551D01*
X142655619Y-68747352D01*
X142655615Y-68747348D01*
X142488414Y-68615300D01*
X142488410Y-68615298D01*
X142484359Y-68612098D01*
X142479485Y-68609407D01*
X142432136Y-68583269D01*
X142288789Y-68504138D01*
X142283920Y-68502414D01*
X142283916Y-68502412D01*
X142083087Y-68431295D01*
X142083083Y-68431294D01*
X142078212Y-68429569D01*
X142073119Y-68428662D01*
X142073116Y-68428661D01*
X141863373Y-68391300D01*
X141863367Y-68391299D01*
X141858284Y-68390394D01*
X141784452Y-68389492D01*
X141640081Y-68387728D01*
X141640079Y-68387728D01*
X141634911Y-68387665D01*
X141414091Y-68421455D01*
X141201756Y-68490857D01*
X141123455Y-68531618D01*
X141012442Y-68589408D01*
X141003607Y-68594007D01*
X140999474Y-68597110D01*
X140999471Y-68597112D01*
X140832362Y-68722581D01*
X140824965Y-68728135D01*
X140670629Y-68889638D01*
X140563201Y-69047121D01*
X140508293Y-69092121D01*
X140437768Y-69100292D01*
X140374021Y-69069038D01*
X140353324Y-69044554D01*
X140272822Y-68920117D01*
X140272820Y-68920114D01*
X140270014Y-68915777D01*
X140264024Y-68909194D01*
X140131307Y-68763339D01*
X140100255Y-68699493D01*
X140098500Y-68678539D01*
X140098500Y-68678503D01*
X140118502Y-68610382D01*
X140135405Y-68589408D01*
X140579408Y-68145405D01*
X140641720Y-68111379D01*
X140668503Y-68108500D01*
X153171497Y-68108500D01*
X153239618Y-68128502D01*
G37*
%TD.AperFunction*%
%TA.AperFunction,Conductor*%
G36*
X139410618Y-66528502D02*
G01*
X139457111Y-66582158D01*
X139467215Y-66652432D01*
X139437721Y-66717012D01*
X139431592Y-66723595D01*
X138605168Y-67550019D01*
X138590135Y-67562860D01*
X138587102Y-67565064D01*
X138578747Y-67571134D01*
X138552311Y-67600494D01*
X138532984Y-67621959D01*
X138528443Y-67626744D01*
X138513928Y-67641259D01*
X138511852Y-67643823D01*
X138501006Y-67657216D01*
X138496722Y-67662231D01*
X138455381Y-67708145D01*
X138455377Y-67708150D01*
X138450960Y-67713056D01*
X138447660Y-67718772D01*
X138447657Y-67718776D01*
X138443927Y-67725237D01*
X138432727Y-67741533D01*
X138423871Y-67752470D01*
X138392815Y-67813421D01*
X138389669Y-67819215D01*
X138355473Y-67878444D01*
X138353432Y-67884726D01*
X138353431Y-67884728D01*
X138351125Y-67891826D01*
X138343560Y-67910092D01*
X138337171Y-67922630D01*
X138335463Y-67929003D01*
X138335463Y-67929004D01*
X138319469Y-67988695D01*
X138317600Y-67995003D01*
X138296458Y-68060072D01*
X138295768Y-68066637D01*
X138295766Y-68066646D01*
X138294985Y-68074075D01*
X138291383Y-68093509D01*
X138289453Y-68100714D01*
X138287743Y-68107097D01*
X138287398Y-68113688D01*
X138287397Y-68113692D01*
X138284164Y-68175384D01*
X138283647Y-68181958D01*
X138283308Y-68185188D01*
X138281500Y-68202390D01*
X138281500Y-68222926D01*
X138281327Y-68229520D01*
X138278820Y-68277361D01*
X138277748Y-68297810D01*
X138278780Y-68304325D01*
X138279949Y-68311705D01*
X138281500Y-68331417D01*
X138281500Y-68681237D01*
X138261498Y-68749358D01*
X138246594Y-68768288D01*
X138130629Y-68889638D01*
X138023204Y-69047118D01*
X138022898Y-69047566D01*
X137967987Y-69092569D01*
X137897462Y-69100740D01*
X137833715Y-69069486D01*
X137813017Y-69045001D01*
X137783062Y-68998697D01*
X137772377Y-68989495D01*
X137762812Y-68993898D01*
X137022022Y-69734688D01*
X137014408Y-69748632D01*
X137014539Y-69750465D01*
X137018790Y-69757080D01*
X137760474Y-70498764D01*
X137772484Y-70505323D01*
X137784223Y-70496355D01*
X137818022Y-70449319D01*
X137819277Y-70450221D01*
X137866391Y-70406855D01*
X137936330Y-70394648D01*
X138001767Y-70422191D01*
X138029580Y-70454013D01*
X138087287Y-70548183D01*
X138087291Y-70548188D01*
X138089987Y-70552588D01*
X138093367Y-70556490D01*
X138232866Y-70717532D01*
X138232869Y-70717535D01*
X138236250Y-70721438D01*
X138240224Y-70724737D01*
X138243658Y-70728100D01*
X138278334Y-70790053D01*
X138281500Y-70818123D01*
X138281500Y-71221237D01*
X138261498Y-71289358D01*
X138246594Y-71308288D01*
X138144527Y-71415095D01*
X138130629Y-71429638D01*
X138023204Y-71587118D01*
X138022898Y-71587566D01*
X137967987Y-71632569D01*
X137897462Y-71640740D01*
X137833715Y-71609486D01*
X137813017Y-71585001D01*
X137783062Y-71538697D01*
X137772377Y-71529495D01*
X137762812Y-71533898D01*
X137022022Y-72274688D01*
X137014408Y-72288632D01*
X137014539Y-72290465D01*
X137018790Y-72297080D01*
X137760474Y-73038764D01*
X137772484Y-73045323D01*
X137784223Y-73036355D01*
X137818022Y-72989319D01*
X137819277Y-72990221D01*
X137866391Y-72946855D01*
X137936330Y-72934648D01*
X138001767Y-72962191D01*
X138029580Y-72994013D01*
X138087287Y-73088183D01*
X138087291Y-73088188D01*
X138089987Y-73092588D01*
X138093367Y-73096490D01*
X138232866Y-73257532D01*
X138232869Y-73257535D01*
X138236250Y-73261438D01*
X138240224Y-73264737D01*
X138243658Y-73268100D01*
X138278334Y-73330053D01*
X138281500Y-73358123D01*
X138281500Y-73641497D01*
X138261498Y-73709618D01*
X138244595Y-73730592D01*
X137150592Y-74824595D01*
X137088280Y-74858621D01*
X137061497Y-74861500D01*
X131488854Y-74861500D01*
X131420733Y-74841498D01*
X131374240Y-74787842D01*
X131364136Y-74717568D01*
X131391982Y-74658098D01*
X131390739Y-74657195D01*
X131394621Y-74651852D01*
X131399040Y-74646944D01*
X131419675Y-74611202D01*
X131426854Y-74600149D01*
X131447236Y-74572096D01*
X131447239Y-74572091D01*
X131451118Y-74566752D01*
X131467909Y-74529039D01*
X131473896Y-74517290D01*
X131491227Y-74487272D01*
X131491227Y-74487271D01*
X131494527Y-74481556D01*
X131494688Y-74481059D01*
X131518724Y-74446089D01*
X132731908Y-73232905D01*
X132794220Y-73198879D01*
X132821003Y-73196000D01*
X133042011Y-73196000D01*
X133110132Y-73216002D01*
X133137248Y-73239502D01*
X133152864Y-73257530D01*
X133152869Y-73257535D01*
X133156250Y-73261438D01*
X133328126Y-73404132D01*
X133521000Y-73516838D01*
X133729692Y-73596530D01*
X133734760Y-73597561D01*
X133734763Y-73597562D01*
X133805945Y-73612044D01*
X133948597Y-73641067D01*
X133953772Y-73641257D01*
X133953774Y-73641257D01*
X134166673Y-73649064D01*
X134166677Y-73649064D01*
X134171837Y-73649253D01*
X134176957Y-73648597D01*
X134176959Y-73648597D01*
X134388288Y-73621525D01*
X134388289Y-73621525D01*
X134393416Y-73620868D01*
X134398366Y-73619383D01*
X134602429Y-73558161D01*
X134602434Y-73558159D01*
X134607384Y-73556674D01*
X134807994Y-73458396D01*
X134872544Y-73412353D01*
X135889977Y-73412353D01*
X135895258Y-73419407D01*
X136056756Y-73513779D01*
X136066042Y-73518229D01*
X136265001Y-73594203D01*
X136274899Y-73597079D01*
X136483595Y-73639538D01*
X136493823Y-73640757D01*
X136706650Y-73648562D01*
X136716936Y-73648095D01*
X136928185Y-73621034D01*
X136938262Y-73618892D01*
X137142255Y-73557691D01*
X137151842Y-73553933D01*
X137343098Y-73460238D01*
X137351944Y-73454965D01*
X137399247Y-73421223D01*
X137407648Y-73410523D01*
X137400660Y-73397370D01*
X136662812Y-72659522D01*
X136648868Y-72651908D01*
X136647035Y-72652039D01*
X136640420Y-72656290D01*
X135896737Y-73399973D01*
X135889977Y-73412353D01*
X134872544Y-73412353D01*
X134989860Y-73328673D01*
X135047610Y-73271125D01*
X135103943Y-73214988D01*
X135148096Y-73170989D01*
X135278453Y-72989577D01*
X135279640Y-72990430D01*
X135326960Y-72946862D01*
X135396897Y-72934645D01*
X135462338Y-72962178D01*
X135490166Y-72994012D01*
X135516459Y-73036919D01*
X135526916Y-73046380D01*
X135535694Y-73042596D01*
X136277978Y-72300312D01*
X136285592Y-72286368D01*
X136285461Y-72284535D01*
X136281210Y-72277920D01*
X135539849Y-71536559D01*
X135528313Y-71530259D01*
X135516031Y-71539882D01*
X135483499Y-71587572D01*
X135428587Y-71632575D01*
X135358063Y-71640746D01*
X135294316Y-71609492D01*
X135273618Y-71585008D01*
X135192822Y-71460117D01*
X135192820Y-71460114D01*
X135190014Y-71455777D01*
X135186532Y-71451950D01*
X135051307Y-71303339D01*
X135020255Y-71239493D01*
X135018500Y-71218539D01*
X135018500Y-70872353D01*
X135889977Y-70872353D01*
X135895258Y-70879407D01*
X135942479Y-70907001D01*
X135991203Y-70958639D01*
X136004274Y-71028422D01*
X135977543Y-71094194D01*
X135937087Y-71127553D01*
X135928466Y-71132041D01*
X135919734Y-71137539D01*
X135899677Y-71152599D01*
X135891223Y-71163927D01*
X135897968Y-71176258D01*
X136637188Y-71915478D01*
X136651132Y-71923092D01*
X136652965Y-71922961D01*
X136659580Y-71918710D01*
X137403389Y-71174901D01*
X137410410Y-71162044D01*
X137403611Y-71152713D01*
X137399559Y-71150021D01*
X137362116Y-71129352D01*
X137312145Y-71078920D01*
X137297373Y-71009477D01*
X137322489Y-70943072D01*
X137349840Y-70916465D01*
X137399247Y-70881223D01*
X137407648Y-70870523D01*
X137400660Y-70857370D01*
X136662812Y-70119522D01*
X136648868Y-70111908D01*
X136647035Y-70112039D01*
X136640420Y-70116290D01*
X135896737Y-70859973D01*
X135889977Y-70872353D01*
X135018500Y-70872353D01*
X135018500Y-70812453D01*
X135038502Y-70744332D01*
X135055560Y-70723202D01*
X135102670Y-70676257D01*
X135148096Y-70630989D01*
X135207594Y-70548189D01*
X135278453Y-70449577D01*
X135279640Y-70450430D01*
X135326960Y-70406862D01*
X135396897Y-70394645D01*
X135462338Y-70422178D01*
X135490166Y-70454012D01*
X135516459Y-70496919D01*
X135526916Y-70506380D01*
X135535694Y-70502596D01*
X136277978Y-69760312D01*
X136285592Y-69746368D01*
X136285461Y-69744535D01*
X136281210Y-69737920D01*
X135539849Y-68996559D01*
X135528313Y-68990259D01*
X135516031Y-68999882D01*
X135483499Y-69047572D01*
X135428587Y-69092575D01*
X135358063Y-69100746D01*
X135294316Y-69069492D01*
X135273618Y-69045008D01*
X135192822Y-68920117D01*
X135192820Y-68920114D01*
X135190014Y-68915777D01*
X135039670Y-68750551D01*
X135035619Y-68747352D01*
X135035615Y-68747348D01*
X134879338Y-68623927D01*
X135891223Y-68623927D01*
X135897968Y-68636258D01*
X136637188Y-69375478D01*
X136651132Y-69383092D01*
X136652965Y-69382961D01*
X136659580Y-69378710D01*
X137403389Y-68634901D01*
X137410410Y-68622044D01*
X137403611Y-68612713D01*
X137399554Y-68610018D01*
X137213117Y-68507099D01*
X137203705Y-68502869D01*
X137002959Y-68431780D01*
X136992989Y-68429146D01*
X136783327Y-68391801D01*
X136773073Y-68390831D01*
X136560116Y-68388228D01*
X136549832Y-68388948D01*
X136339321Y-68421161D01*
X136329293Y-68423550D01*
X136126868Y-68489712D01*
X136117359Y-68493709D01*
X135928466Y-68592040D01*
X135919734Y-68597539D01*
X135899677Y-68612599D01*
X135891223Y-68623927D01*
X134879338Y-68623927D01*
X134868414Y-68615300D01*
X134868410Y-68615298D01*
X134864359Y-68612098D01*
X134859485Y-68609407D01*
X134812136Y-68583269D01*
X134668789Y-68504138D01*
X134663920Y-68502414D01*
X134663916Y-68502412D01*
X134463087Y-68431295D01*
X134463083Y-68431294D01*
X134458212Y-68429569D01*
X134453119Y-68428662D01*
X134453116Y-68428661D01*
X134243373Y-68391300D01*
X134243367Y-68391299D01*
X134238284Y-68390394D01*
X134164452Y-68389492D01*
X134020081Y-68387728D01*
X134020079Y-68387728D01*
X134014911Y-68387665D01*
X133794091Y-68421455D01*
X133581756Y-68490857D01*
X133503455Y-68531618D01*
X133392442Y-68589408D01*
X133383607Y-68594007D01*
X133379474Y-68597110D01*
X133379471Y-68597112D01*
X133212362Y-68722581D01*
X133204965Y-68728135D01*
X133050629Y-68889638D01*
X132924743Y-69074180D01*
X132879284Y-69172113D01*
X132842054Y-69252320D01*
X132830688Y-69276805D01*
X132770989Y-69492070D01*
X132747251Y-69714195D01*
X132747548Y-69719348D01*
X132747548Y-69719351D01*
X132754610Y-69841830D01*
X132760110Y-69937215D01*
X132761247Y-69942261D01*
X132761248Y-69942267D01*
X132778680Y-70019615D01*
X132809222Y-70155139D01*
X132893266Y-70362116D01*
X132944942Y-70446444D01*
X133007291Y-70548188D01*
X133009987Y-70552588D01*
X133013367Y-70556490D01*
X133152866Y-70717532D01*
X133152869Y-70717535D01*
X133156250Y-70721438D01*
X133160224Y-70724737D01*
X133163658Y-70728100D01*
X133198334Y-70790053D01*
X133201500Y-70818123D01*
X133201500Y-71221237D01*
X133181498Y-71289358D01*
X133166594Y-71308288D01*
X133136241Y-71340051D01*
X133074717Y-71375481D01*
X133045147Y-71379000D01*
X132473917Y-71379000D01*
X132454208Y-71377449D01*
X132440310Y-71375248D01*
X132433723Y-71375593D01*
X132433718Y-71375593D01*
X132372020Y-71378827D01*
X132365426Y-71379000D01*
X132344890Y-71379000D01*
X132341618Y-71379344D01*
X132341616Y-71379344D01*
X132324458Y-71381147D01*
X132317884Y-71381664D01*
X132256192Y-71384897D01*
X132256188Y-71384898D01*
X132249597Y-71385243D01*
X132243216Y-71386953D01*
X132243214Y-71386953D01*
X132236009Y-71388883D01*
X132216575Y-71392485D01*
X132209146Y-71393266D01*
X132209137Y-71393268D01*
X132202572Y-71393958D01*
X132137503Y-71415100D01*
X132131201Y-71416967D01*
X132065130Y-71434671D01*
X132052593Y-71441059D01*
X132034326Y-71448625D01*
X132027228Y-71450931D01*
X132027226Y-71450932D01*
X132020944Y-71452973D01*
X132015222Y-71456276D01*
X132015221Y-71456277D01*
X131961718Y-71487167D01*
X131955923Y-71490314D01*
X131894970Y-71521371D01*
X131889842Y-71525524D01*
X131889840Y-71525525D01*
X131884034Y-71530227D01*
X131867737Y-71541427D01*
X131861276Y-71545157D01*
X131861272Y-71545160D01*
X131855556Y-71548460D01*
X131850650Y-71552877D01*
X131850645Y-71552881D01*
X131804731Y-71594222D01*
X131799716Y-71598506D01*
X131791218Y-71605388D01*
X131783759Y-71611428D01*
X131769244Y-71625943D01*
X131764459Y-71630484D01*
X131713634Y-71676247D01*
X131709755Y-71681586D01*
X131709754Y-71681587D01*
X131705360Y-71687635D01*
X131692519Y-71702668D01*
X130230592Y-73164595D01*
X130168280Y-73198621D01*
X130141497Y-73201500D01*
X119811416Y-73201500D01*
X119791707Y-73199949D01*
X119777809Y-73197748D01*
X119771222Y-73198093D01*
X119771217Y-73198093D01*
X119709519Y-73201327D01*
X119702925Y-73201500D01*
X119682390Y-73201500D01*
X119676222Y-73202148D01*
X119661960Y-73203647D01*
X119655385Y-73204164D01*
X119593696Y-73207397D01*
X119593695Y-73207397D01*
X119587096Y-73207743D01*
X119573508Y-73211384D01*
X119554061Y-73214988D01*
X119546644Y-73215767D01*
X119546640Y-73215768D01*
X119540072Y-73216458D01*
X119489453Y-73232905D01*
X119475009Y-73237598D01*
X119468685Y-73239471D01*
X119409010Y-73255461D01*
X119409006Y-73255462D01*
X119402630Y-73257171D01*
X119390794Y-73263202D01*
X119390093Y-73263559D01*
X119371826Y-73271125D01*
X119364728Y-73273431D01*
X119364726Y-73273432D01*
X119358444Y-73275473D01*
X119352722Y-73278776D01*
X119352721Y-73278777D01*
X119299218Y-73309667D01*
X119293423Y-73312814D01*
X119232470Y-73343871D01*
X119227342Y-73348024D01*
X119227340Y-73348025D01*
X119221534Y-73352727D01*
X119205237Y-73363927D01*
X119198776Y-73367657D01*
X119198772Y-73367660D01*
X119193056Y-73370960D01*
X119188150Y-73375377D01*
X119188145Y-73375381D01*
X119142231Y-73416722D01*
X119137216Y-73421006D01*
X119128718Y-73427888D01*
X119121259Y-73433928D01*
X119106744Y-73448443D01*
X119101959Y-73452984D01*
X119051134Y-73498747D01*
X119047255Y-73504086D01*
X119047254Y-73504087D01*
X119042860Y-73510135D01*
X119030019Y-73525168D01*
X116723595Y-75831592D01*
X116661283Y-75865618D01*
X116590468Y-75860553D01*
X116533632Y-75818006D01*
X116508821Y-75751486D01*
X116508500Y-75742497D01*
X116508500Y-68978918D01*
X116986917Y-68978918D01*
X116987334Y-68986156D01*
X117002682Y-69252320D01*
X117055405Y-69521053D01*
X117056792Y-69525103D01*
X117056793Y-69525108D01*
X117136215Y-69757080D01*
X117144112Y-69780144D01*
X117173238Y-69838054D01*
X117242837Y-69976437D01*
X117267160Y-70024799D01*
X117269586Y-70028328D01*
X117269589Y-70028334D01*
X117360030Y-70159925D01*
X117422274Y-70250490D01*
X117425161Y-70253663D01*
X117425162Y-70253664D01*
X117553444Y-70394645D01*
X117606582Y-70453043D01*
X117609877Y-70455798D01*
X117609878Y-70455799D01*
X117670373Y-70506380D01*
X117816675Y-70628707D01*
X117824413Y-70633561D01*
X118045024Y-70771951D01*
X118045028Y-70771953D01*
X118048664Y-70774234D01*
X118139630Y-70815307D01*
X118294345Y-70885164D01*
X118294349Y-70885166D01*
X118298257Y-70886930D01*
X118302377Y-70888150D01*
X118302376Y-70888150D01*
X118556723Y-70963491D01*
X118556727Y-70963492D01*
X118560836Y-70964709D01*
X118565070Y-70965357D01*
X118565075Y-70965358D01*
X118827298Y-71005483D01*
X118827300Y-71005483D01*
X118831540Y-71006132D01*
X118970912Y-71008322D01*
X119101071Y-71010367D01*
X119101077Y-71010367D01*
X119105362Y-71010434D01*
X119377235Y-70977534D01*
X119642127Y-70908041D01*
X119646087Y-70906401D01*
X119646092Y-70906399D01*
X119768632Y-70855641D01*
X119895136Y-70803241D01*
X120131582Y-70665073D01*
X120347089Y-70496094D01*
X120387403Y-70454494D01*
X120534686Y-70302509D01*
X120537669Y-70299431D01*
X120540202Y-70295983D01*
X120540206Y-70295978D01*
X120697257Y-70082178D01*
X120699795Y-70078723D01*
X120727154Y-70028334D01*
X120828418Y-69841830D01*
X120828419Y-69841828D01*
X120830468Y-69838054D01*
X120927269Y-69581877D01*
X120973800Y-69378710D01*
X120987449Y-69319117D01*
X120987450Y-69319113D01*
X120988407Y-69314933D01*
X120991365Y-69281797D01*
X121012531Y-69044627D01*
X121012531Y-69044625D01*
X121012751Y-69042161D01*
X121013193Y-69000000D01*
X121012979Y-68996857D01*
X120994859Y-68731055D01*
X120994858Y-68731049D01*
X120994567Y-68726778D01*
X120988917Y-68699493D01*
X120949073Y-68507099D01*
X120939032Y-68458612D01*
X120847617Y-68200465D01*
X120722013Y-67957112D01*
X120712040Y-67942921D01*
X120623086Y-67816353D01*
X120564545Y-67733057D01*
X120463583Y-67624409D01*
X120381046Y-67535588D01*
X120381043Y-67535585D01*
X120378125Y-67532445D01*
X120374810Y-67529731D01*
X120374806Y-67529728D01*
X120244069Y-67422721D01*
X120166205Y-67358990D01*
X119932704Y-67215901D01*
X119928768Y-67214173D01*
X119685873Y-67107549D01*
X119685869Y-67107548D01*
X119681945Y-67105825D01*
X119418566Y-67030800D01*
X119414324Y-67030196D01*
X119414318Y-67030195D01*
X119213834Y-67001662D01*
X119147443Y-66992213D01*
X119003589Y-66991460D01*
X118877877Y-66990802D01*
X118877871Y-66990802D01*
X118873591Y-66990780D01*
X118869347Y-66991339D01*
X118869343Y-66991339D01*
X118750302Y-67007011D01*
X118602078Y-67026525D01*
X118597938Y-67027658D01*
X118597936Y-67027658D01*
X118525008Y-67047609D01*
X118337928Y-67098788D01*
X118333980Y-67100472D01*
X118089982Y-67204546D01*
X118089978Y-67204548D01*
X118086030Y-67206232D01*
X118020005Y-67245747D01*
X117854725Y-67344664D01*
X117854721Y-67344667D01*
X117851043Y-67346868D01*
X117637318Y-67518094D01*
X117562404Y-67597037D01*
X117494800Y-67668277D01*
X117448808Y-67716742D01*
X117289002Y-67939136D01*
X117160857Y-68181161D01*
X117159385Y-68185184D01*
X117159383Y-68185188D01*
X117068214Y-68434317D01*
X117066743Y-68438337D01*
X117008404Y-68705907D01*
X116986917Y-68978918D01*
X116508500Y-68978918D01*
X116508500Y-66634500D01*
X116528502Y-66566379D01*
X116582158Y-66519886D01*
X116634500Y-66508500D01*
X139342497Y-66508500D01*
X139410618Y-66528502D01*
G37*
%TD.AperFunction*%
%TD*%
M02*
