%TF.GenerationSoftware,KiCad,Pcbnew,6.0.11+dfsg-1~bpo11+1*%
%TF.CreationDate,2023-05-15T10:42:25+02:00*%
%TF.ProjectId,dvert_12,64766572-745f-4313-922e-6b696361645f,rev?*%
%TF.SameCoordinates,Original*%
%TF.FileFunction,Legend,Bot*%
%TF.FilePolarity,Positive*%
%FSLAX46Y46*%
G04 Gerber Fmt 4.6, Leading zero omitted, Abs format (unit mm)*
G04 Created by KiCad (PCBNEW 6.0.11+dfsg-1~bpo11+1) date 2023-05-15 10:42:25*
%MOMM*%
%LPD*%
G01*
G04 APERTURE LIST*
%ADD10C,0.150000*%
%ADD11C,0.100000*%
%ADD12C,0.120000*%
%ADD13C,0.600000*%
%ADD14C,0.300000*%
%ADD15C,0.010000*%
G04 APERTURE END LIST*
D10*
G36*
X169200000Y-75300000D02*
G01*
X167500000Y-77000000D01*
X167500000Y-76000000D01*
X162100000Y-76000000D01*
X162100000Y-74700000D01*
X167500000Y-74700000D01*
X167500000Y-73600000D01*
X169200000Y-75300000D01*
G37*
X169200000Y-75300000D02*
X167500000Y-77000000D01*
X167500000Y-76000000D01*
X162100000Y-76000000D01*
X162100000Y-74700000D01*
X167500000Y-74700000D01*
X167500000Y-73600000D01*
X169200000Y-75300000D01*
D11*
X136292857Y-74270000D02*
X136235714Y-74298571D01*
X136150000Y-74298571D01*
X136064285Y-74270000D01*
X136007142Y-74212857D01*
X135978571Y-74155714D01*
X135950000Y-74041428D01*
X135950000Y-73955714D01*
X135978571Y-73841428D01*
X136007142Y-73784285D01*
X136064285Y-73727142D01*
X136150000Y-73698571D01*
X136207142Y-73698571D01*
X136292857Y-73727142D01*
X136321428Y-73755714D01*
X136321428Y-73955714D01*
X136207142Y-73955714D01*
X136578571Y-73698571D02*
X136578571Y-74298571D01*
X136921428Y-73698571D01*
X136921428Y-74298571D01*
X137207142Y-73698571D02*
X137207142Y-74298571D01*
X137350000Y-74298571D01*
X137435714Y-74270000D01*
X137492857Y-74212857D01*
X137521428Y-74155714D01*
X137550000Y-74041428D01*
X137550000Y-73955714D01*
X137521428Y-73841428D01*
X137492857Y-73784285D01*
X137435714Y-73727142D01*
X137350000Y-73698571D01*
X137207142Y-73698571D01*
D12*
X144111428Y-92829285D02*
X143932857Y-93329285D01*
X143754285Y-92829285D01*
X143504285Y-92650714D02*
X143468571Y-92615000D01*
X143397142Y-92579285D01*
X143218571Y-92579285D01*
X143147142Y-92615000D01*
X143111428Y-92650714D01*
X143075714Y-92722142D01*
X143075714Y-92793571D01*
X143111428Y-92900714D01*
X143540000Y-93329285D01*
X143075714Y-93329285D01*
X142754285Y-93257857D02*
X142718571Y-93293571D01*
X142754285Y-93329285D01*
X142790000Y-93293571D01*
X142754285Y-93257857D01*
X142754285Y-93329285D01*
X142254285Y-92579285D02*
X142182857Y-92579285D01*
X142111428Y-92615000D01*
X142075714Y-92650714D01*
X142040000Y-92722142D01*
X142004285Y-92865000D01*
X142004285Y-93043571D01*
X142040000Y-93186428D01*
X142075714Y-93257857D01*
X142111428Y-93293571D01*
X142182857Y-93329285D01*
X142254285Y-93329285D01*
X142325714Y-93293571D01*
X142361428Y-93257857D01*
X142397142Y-93186428D01*
X142432857Y-93043571D01*
X142432857Y-92865000D01*
X142397142Y-92722142D01*
X142361428Y-92650714D01*
X142325714Y-92615000D01*
X142254285Y-92579285D01*
D11*
X148891428Y-67920000D02*
X149177142Y-67920000D01*
X148834285Y-67748571D02*
X149034285Y-68348571D01*
X149234285Y-67748571D01*
X149748571Y-67748571D02*
X149405714Y-67748571D01*
X149577142Y-67748571D02*
X149577142Y-68348571D01*
X149520000Y-68262857D01*
X149462857Y-68205714D01*
X149405714Y-68177142D01*
X164871428Y-77671428D02*
X165471428Y-77871428D01*
X164871428Y-78071428D01*
X165157142Y-78271428D02*
X165157142Y-78471428D01*
X165471428Y-78557142D02*
X165471428Y-78271428D01*
X164871428Y-78271428D01*
X164871428Y-78557142D01*
X165471428Y-79157142D02*
X165185714Y-78957142D01*
X165471428Y-78814285D02*
X164871428Y-78814285D01*
X164871428Y-79042857D01*
X164900000Y-79100000D01*
X164928571Y-79128571D01*
X164985714Y-79157142D01*
X165071428Y-79157142D01*
X165128571Y-79128571D01*
X165157142Y-79100000D01*
X165185714Y-79042857D01*
X165185714Y-78814285D01*
X164871428Y-79328571D02*
X164871428Y-79671428D01*
X165471428Y-79500000D02*
X164871428Y-79500000D01*
X165157142Y-79871428D02*
X165157142Y-80071428D01*
X165471428Y-80157142D02*
X165471428Y-79871428D01*
X164871428Y-79871428D01*
X164871428Y-80157142D01*
X165157142Y-80614285D02*
X165185714Y-80700000D01*
X165214285Y-80728571D01*
X165271428Y-80757142D01*
X165357142Y-80757142D01*
X165414285Y-80728571D01*
X165442857Y-80700000D01*
X165471428Y-80642857D01*
X165471428Y-80414285D01*
X164871428Y-80414285D01*
X164871428Y-80614285D01*
X164900000Y-80671428D01*
X164928571Y-80700000D01*
X164985714Y-80728571D01*
X165042857Y-80728571D01*
X165100000Y-80700000D01*
X165128571Y-80671428D01*
X165157142Y-80614285D01*
X165157142Y-80414285D01*
X165471428Y-81357142D02*
X165185714Y-81157142D01*
X165471428Y-81014285D02*
X164871428Y-81014285D01*
X164871428Y-81242857D01*
X164900000Y-81300000D01*
X164928571Y-81328571D01*
X164985714Y-81357142D01*
X165071428Y-81357142D01*
X165128571Y-81328571D01*
X165157142Y-81300000D01*
X165185714Y-81242857D01*
X165185714Y-81014285D01*
X165300000Y-81585714D02*
X165300000Y-81871428D01*
X165471428Y-81528571D02*
X164871428Y-81728571D01*
X165471428Y-81928571D01*
X143841428Y-73860000D02*
X144127142Y-73860000D01*
X143784285Y-73688571D02*
X143984285Y-74288571D01*
X144184285Y-73688571D01*
X144641428Y-74288571D02*
X144527142Y-74288571D01*
X144470000Y-74260000D01*
X144441428Y-74231428D01*
X144384285Y-74145714D01*
X144355714Y-74031428D01*
X144355714Y-73802857D01*
X144384285Y-73745714D01*
X144412857Y-73717142D01*
X144470000Y-73688571D01*
X144584285Y-73688571D01*
X144641428Y-73717142D01*
X144670000Y-73745714D01*
X144698571Y-73802857D01*
X144698571Y-73945714D01*
X144670000Y-74002857D01*
X144641428Y-74031428D01*
X144584285Y-74060000D01*
X144470000Y-74060000D01*
X144412857Y-74031428D01*
X144384285Y-74002857D01*
X144355714Y-73945714D01*
X162202857Y-92091428D02*
X162202857Y-91491428D01*
X162002857Y-91920000D01*
X161802857Y-91491428D01*
X161802857Y-92091428D01*
X161517142Y-92091428D02*
X161517142Y-91491428D01*
X161260000Y-92062857D02*
X161174285Y-92091428D01*
X161031428Y-92091428D01*
X160974285Y-92062857D01*
X160945714Y-92034285D01*
X160917142Y-91977142D01*
X160917142Y-91920000D01*
X160945714Y-91862857D01*
X160974285Y-91834285D01*
X161031428Y-91805714D01*
X161145714Y-91777142D01*
X161202857Y-91748571D01*
X161231428Y-91720000D01*
X161260000Y-91662857D01*
X161260000Y-91605714D01*
X161231428Y-91548571D01*
X161202857Y-91520000D01*
X161145714Y-91491428D01*
X161002857Y-91491428D01*
X160917142Y-91520000D01*
X160545714Y-91491428D02*
X160431428Y-91491428D01*
X160374285Y-91520000D01*
X160317142Y-91577142D01*
X160288571Y-91691428D01*
X160288571Y-91891428D01*
X160317142Y-92005714D01*
X160374285Y-92062857D01*
X160431428Y-92091428D01*
X160545714Y-92091428D01*
X160602857Y-92062857D01*
X160660000Y-92005714D01*
X160688571Y-91891428D01*
X160688571Y-91691428D01*
X160660000Y-91577142D01*
X160602857Y-91520000D01*
X160545714Y-91491428D01*
X139472857Y-117887142D02*
X139387142Y-117915714D01*
X139358571Y-117944285D01*
X139330000Y-118001428D01*
X139330000Y-118087142D01*
X139358571Y-118144285D01*
X139387142Y-118172857D01*
X139444285Y-118201428D01*
X139672857Y-118201428D01*
X139672857Y-117601428D01*
X139472857Y-117601428D01*
X139415714Y-117630000D01*
X139387142Y-117658571D01*
X139358571Y-117715714D01*
X139358571Y-117772857D01*
X139387142Y-117830000D01*
X139415714Y-117858571D01*
X139472857Y-117887142D01*
X139672857Y-117887142D01*
X139130000Y-117601428D02*
X138758571Y-117601428D01*
X138958571Y-117830000D01*
X138872857Y-117830000D01*
X138815714Y-117858571D01*
X138787142Y-117887142D01*
X138758571Y-117944285D01*
X138758571Y-118087142D01*
X138787142Y-118144285D01*
X138815714Y-118172857D01*
X138872857Y-118201428D01*
X139044285Y-118201428D01*
X139101428Y-118172857D01*
X139130000Y-118144285D01*
X156270000Y-96854285D02*
X156298571Y-96882857D01*
X156384285Y-96911428D01*
X156441428Y-96911428D01*
X156527142Y-96882857D01*
X156584285Y-96825714D01*
X156612857Y-96768571D01*
X156641428Y-96654285D01*
X156641428Y-96568571D01*
X156612857Y-96454285D01*
X156584285Y-96397142D01*
X156527142Y-96340000D01*
X156441428Y-96311428D01*
X156384285Y-96311428D01*
X156298571Y-96340000D01*
X156270000Y-96368571D01*
X155670000Y-96911428D02*
X155870000Y-96625714D01*
X156012857Y-96911428D02*
X156012857Y-96311428D01*
X155784285Y-96311428D01*
X155727142Y-96340000D01*
X155698571Y-96368571D01*
X155670000Y-96425714D01*
X155670000Y-96511428D01*
X155698571Y-96568571D01*
X155727142Y-96597142D01*
X155784285Y-96625714D01*
X156012857Y-96625714D01*
X155470000Y-96311428D02*
X155070000Y-96911428D01*
X155070000Y-96311428D02*
X155470000Y-96911428D01*
X144572857Y-117907142D02*
X144487142Y-117935714D01*
X144458571Y-117964285D01*
X144430000Y-118021428D01*
X144430000Y-118107142D01*
X144458571Y-118164285D01*
X144487142Y-118192857D01*
X144544285Y-118221428D01*
X144772857Y-118221428D01*
X144772857Y-117621428D01*
X144572857Y-117621428D01*
X144515714Y-117650000D01*
X144487142Y-117678571D01*
X144458571Y-117735714D01*
X144458571Y-117792857D01*
X144487142Y-117850000D01*
X144515714Y-117878571D01*
X144572857Y-117907142D01*
X144772857Y-117907142D01*
X144230000Y-117621428D02*
X143830000Y-117621428D01*
X144087142Y-118221428D01*
X125358571Y-97064285D02*
X125387142Y-97092857D01*
X125472857Y-97121428D01*
X125530000Y-97121428D01*
X125615714Y-97092857D01*
X125672857Y-97035714D01*
X125701428Y-96978571D01*
X125730000Y-96864285D01*
X125730000Y-96778571D01*
X125701428Y-96664285D01*
X125672857Y-96607142D01*
X125615714Y-96550000D01*
X125530000Y-96521428D01*
X125472857Y-96521428D01*
X125387142Y-96550000D01*
X125358571Y-96578571D01*
X125130000Y-96950000D02*
X124844285Y-96950000D01*
X125187142Y-97121428D02*
X124987142Y-96521428D01*
X124787142Y-97121428D01*
X124587142Y-97121428D02*
X124587142Y-96521428D01*
X124244285Y-97121428D01*
X124244285Y-96521428D01*
X123672857Y-97121428D02*
X123958571Y-97121428D01*
X123958571Y-96521428D01*
X141271428Y-67910000D02*
X141557142Y-67910000D01*
X141214285Y-67738571D02*
X141414285Y-68338571D01*
X141614285Y-67738571D01*
X141757142Y-68338571D02*
X142157142Y-68338571D01*
X141900000Y-67738571D01*
X146171428Y-110071428D02*
X146371428Y-109785714D01*
X146514285Y-110071428D02*
X146514285Y-109471428D01*
X146285714Y-109471428D01*
X146228571Y-109500000D01*
X146200000Y-109528571D01*
X146171428Y-109585714D01*
X146171428Y-109671428D01*
X146200000Y-109728571D01*
X146228571Y-109757142D01*
X146285714Y-109785714D01*
X146514285Y-109785714D01*
X145914285Y-110071428D02*
X145914285Y-109471428D01*
X145428571Y-109757142D02*
X145342857Y-109785714D01*
X145314285Y-109814285D01*
X145285714Y-109871428D01*
X145285714Y-109957142D01*
X145314285Y-110014285D01*
X145342857Y-110042857D01*
X145400000Y-110071428D01*
X145628571Y-110071428D01*
X145628571Y-109471428D01*
X145428571Y-109471428D01*
X145371428Y-109500000D01*
X145342857Y-109528571D01*
X145314285Y-109585714D01*
X145314285Y-109642857D01*
X145342857Y-109700000D01*
X145371428Y-109728571D01*
X145428571Y-109757142D01*
X145628571Y-109757142D01*
X144142857Y-109442857D02*
X144657142Y-110214285D01*
X143142857Y-110014285D02*
X143171428Y-110042857D01*
X143257142Y-110071428D01*
X143314285Y-110071428D01*
X143400000Y-110042857D01*
X143457142Y-109985714D01*
X143485714Y-109928571D01*
X143514285Y-109814285D01*
X143514285Y-109728571D01*
X143485714Y-109614285D01*
X143457142Y-109557142D01*
X143400000Y-109500000D01*
X143314285Y-109471428D01*
X143257142Y-109471428D01*
X143171428Y-109500000D01*
X143142857Y-109528571D01*
X142771428Y-109471428D02*
X142657142Y-109471428D01*
X142600000Y-109500000D01*
X142542857Y-109557142D01*
X142514285Y-109671428D01*
X142514285Y-109871428D01*
X142542857Y-109985714D01*
X142600000Y-110042857D01*
X142657142Y-110071428D01*
X142771428Y-110071428D01*
X142828571Y-110042857D01*
X142885714Y-109985714D01*
X142914285Y-109871428D01*
X142914285Y-109671428D01*
X142885714Y-109557142D01*
X142828571Y-109500000D01*
X142771428Y-109471428D01*
X142285714Y-110042857D02*
X142200000Y-110071428D01*
X142057142Y-110071428D01*
X142000000Y-110042857D01*
X141971428Y-110014285D01*
X141942857Y-109957142D01*
X141942857Y-109900000D01*
X141971428Y-109842857D01*
X142000000Y-109814285D01*
X142057142Y-109785714D01*
X142171428Y-109757142D01*
X142228571Y-109728571D01*
X142257142Y-109700000D01*
X142285714Y-109642857D01*
X142285714Y-109585714D01*
X142257142Y-109528571D01*
X142228571Y-109500000D01*
X142171428Y-109471428D01*
X142028571Y-109471428D01*
X141942857Y-109500000D01*
X141771428Y-109471428D02*
X141428571Y-109471428D01*
X141600000Y-110071428D02*
X141600000Y-109471428D01*
X141228571Y-109757142D02*
X141028571Y-109757142D01*
X140942857Y-110071428D02*
X141228571Y-110071428D01*
X141228571Y-109471428D01*
X140942857Y-109471428D01*
X140400000Y-110071428D02*
X140685714Y-110071428D01*
X140685714Y-109471428D01*
X139914285Y-110071428D02*
X140200000Y-110071428D01*
X140200000Y-109471428D01*
X139742857Y-109900000D02*
X139457142Y-109900000D01*
X139800000Y-110071428D02*
X139600000Y-109471428D01*
X139400000Y-110071428D01*
D13*
X150206666Y-91299523D02*
X150206666Y-87299523D01*
X150206666Y-91109047D02*
X150587619Y-91299523D01*
X151349523Y-91299523D01*
X151730476Y-91109047D01*
X151920952Y-90918571D01*
X152111428Y-90537619D01*
X152111428Y-89394761D01*
X151920952Y-89013809D01*
X151730476Y-88823333D01*
X151349523Y-88632857D01*
X150587619Y-88632857D01*
X150206666Y-88823333D01*
X148682857Y-88632857D02*
X147730476Y-91299523D01*
X146778095Y-88632857D01*
X143730476Y-91109047D02*
X144111428Y-91299523D01*
X144873333Y-91299523D01*
X145254285Y-91109047D01*
X145444761Y-90728095D01*
X145444761Y-89204285D01*
X145254285Y-88823333D01*
X144873333Y-88632857D01*
X144111428Y-88632857D01*
X143730476Y-88823333D01*
X143540000Y-89204285D01*
X143540000Y-89585238D01*
X145444761Y-89966190D01*
X141825714Y-91299523D02*
X141825714Y-88632857D01*
X141825714Y-89394761D02*
X141635238Y-89013809D01*
X141444761Y-88823333D01*
X141063809Y-88632857D01*
X140682857Y-88632857D01*
X139920952Y-88632857D02*
X138397142Y-88632857D01*
X139349523Y-87299523D02*
X139349523Y-90728095D01*
X139159047Y-91109047D01*
X138778095Y-91299523D01*
X138397142Y-91299523D01*
X137254285Y-87680476D02*
X137063809Y-87490000D01*
X136682857Y-87299523D01*
X135730476Y-87299523D01*
X135349523Y-87490000D01*
X135159047Y-87680476D01*
X134968571Y-88061428D01*
X134968571Y-88442380D01*
X135159047Y-89013809D01*
X137444761Y-91299523D01*
X134968571Y-91299523D01*
D11*
X118351428Y-94492857D02*
X118265714Y-94521428D01*
X118122857Y-94521428D01*
X118065714Y-94492857D01*
X118037142Y-94464285D01*
X118008571Y-94407142D01*
X118008571Y-94350000D01*
X118037142Y-94292857D01*
X118065714Y-94264285D01*
X118122857Y-94235714D01*
X118237142Y-94207142D01*
X118294285Y-94178571D01*
X118322857Y-94150000D01*
X118351428Y-94092857D01*
X118351428Y-94035714D01*
X118322857Y-93978571D01*
X118294285Y-93950000D01*
X118237142Y-93921428D01*
X118094285Y-93921428D01*
X118008571Y-93950000D01*
X117408571Y-94464285D02*
X117437142Y-94492857D01*
X117522857Y-94521428D01*
X117580000Y-94521428D01*
X117665714Y-94492857D01*
X117722857Y-94435714D01*
X117751428Y-94378571D01*
X117780000Y-94264285D01*
X117780000Y-94178571D01*
X117751428Y-94064285D01*
X117722857Y-94007142D01*
X117665714Y-93950000D01*
X117580000Y-93921428D01*
X117522857Y-93921428D01*
X117437142Y-93950000D01*
X117408571Y-93978571D01*
X117151428Y-94521428D02*
X117151428Y-93921428D01*
X116808571Y-94521428D02*
X117065714Y-94178571D01*
X116808571Y-93921428D02*
X117151428Y-94264285D01*
X147562857Y-117711428D02*
X147191428Y-117711428D01*
X147391428Y-117940000D01*
X147305714Y-117940000D01*
X147248571Y-117968571D01*
X147220000Y-117997142D01*
X147191428Y-118054285D01*
X147191428Y-118197142D01*
X147220000Y-118254285D01*
X147248571Y-118282857D01*
X147305714Y-118311428D01*
X147477142Y-118311428D01*
X147534285Y-118282857D01*
X147562857Y-118254285D01*
X147020000Y-117711428D02*
X146820000Y-118311428D01*
X146620000Y-117711428D01*
X146477142Y-117711428D02*
X146105714Y-117711428D01*
X146305714Y-117940000D01*
X146220000Y-117940000D01*
X146162857Y-117968571D01*
X146134285Y-117997142D01*
X146105714Y-118054285D01*
X146105714Y-118197142D01*
X146134285Y-118254285D01*
X146162857Y-118282857D01*
X146220000Y-118311428D01*
X146391428Y-118311428D01*
X146448571Y-118282857D01*
X146477142Y-118254285D01*
X141272857Y-74260000D02*
X141215714Y-74288571D01*
X141130000Y-74288571D01*
X141044285Y-74260000D01*
X140987142Y-74202857D01*
X140958571Y-74145714D01*
X140930000Y-74031428D01*
X140930000Y-73945714D01*
X140958571Y-73831428D01*
X140987142Y-73774285D01*
X141044285Y-73717142D01*
X141130000Y-73688571D01*
X141187142Y-73688571D01*
X141272857Y-73717142D01*
X141301428Y-73745714D01*
X141301428Y-73945714D01*
X141187142Y-73945714D01*
X141558571Y-73688571D02*
X141558571Y-74288571D01*
X141901428Y-73688571D01*
X141901428Y-74288571D01*
X142187142Y-73688571D02*
X142187142Y-74288571D01*
X142330000Y-74288571D01*
X142415714Y-74260000D01*
X142472857Y-74202857D01*
X142501428Y-74145714D01*
X142530000Y-74031428D01*
X142530000Y-73945714D01*
X142501428Y-73831428D01*
X142472857Y-73774285D01*
X142415714Y-73717142D01*
X142330000Y-73688571D01*
X142187142Y-73688571D01*
X164100000Y-115957142D02*
X164128571Y-116014285D01*
X164128571Y-116100000D01*
X164100000Y-116185714D01*
X164042857Y-116242857D01*
X163985714Y-116271428D01*
X163871428Y-116300000D01*
X163785714Y-116300000D01*
X163671428Y-116271428D01*
X163614285Y-116242857D01*
X163557142Y-116185714D01*
X163528571Y-116100000D01*
X163528571Y-116042857D01*
X163557142Y-115957142D01*
X163585714Y-115928571D01*
X163785714Y-115928571D01*
X163785714Y-116042857D01*
X163528571Y-115671428D02*
X164128571Y-115671428D01*
X163528571Y-115328571D01*
X164128571Y-115328571D01*
X163528571Y-115042857D02*
X164128571Y-115042857D01*
X164128571Y-114900000D01*
X164100000Y-114814285D01*
X164042857Y-114757142D01*
X163985714Y-114728571D01*
X163871428Y-114700000D01*
X163785714Y-114700000D01*
X163671428Y-114728571D01*
X163614285Y-114757142D01*
X163557142Y-114814285D01*
X163528571Y-114900000D01*
X163528571Y-115042857D01*
X162350000Y-101882857D02*
X161892857Y-101882857D01*
X162121428Y-102111428D02*
X162121428Y-101654285D01*
X161635714Y-101568571D02*
X161607142Y-101540000D01*
X161550000Y-101511428D01*
X161407142Y-101511428D01*
X161350000Y-101540000D01*
X161321428Y-101568571D01*
X161292857Y-101625714D01*
X161292857Y-101682857D01*
X161321428Y-101768571D01*
X161664285Y-102111428D01*
X161292857Y-102111428D01*
X160778571Y-101711428D02*
X160778571Y-102111428D01*
X160921428Y-101482857D02*
X161064285Y-101911428D01*
X160692857Y-101911428D01*
X169350000Y-101882857D02*
X168892857Y-101882857D01*
X169121428Y-102111428D02*
X169121428Y-101654285D01*
X168635714Y-101568571D02*
X168607142Y-101540000D01*
X168550000Y-101511428D01*
X168407142Y-101511428D01*
X168350000Y-101540000D01*
X168321428Y-101568571D01*
X168292857Y-101625714D01*
X168292857Y-101682857D01*
X168321428Y-101768571D01*
X168664285Y-102111428D01*
X168292857Y-102111428D01*
X167778571Y-101711428D02*
X167778571Y-102111428D01*
X167921428Y-101482857D02*
X168064285Y-101911428D01*
X167692857Y-101911428D01*
X169358571Y-97004285D02*
X169387142Y-97032857D01*
X169472857Y-97061428D01*
X169530000Y-97061428D01*
X169615714Y-97032857D01*
X169672857Y-96975714D01*
X169701428Y-96918571D01*
X169730000Y-96804285D01*
X169730000Y-96718571D01*
X169701428Y-96604285D01*
X169672857Y-96547142D01*
X169615714Y-96490000D01*
X169530000Y-96461428D01*
X169472857Y-96461428D01*
X169387142Y-96490000D01*
X169358571Y-96518571D01*
X169130000Y-96890000D02*
X168844285Y-96890000D01*
X169187142Y-97061428D02*
X168987142Y-96461428D01*
X168787142Y-97061428D01*
X168587142Y-97061428D02*
X168587142Y-96461428D01*
X168244285Y-97061428D01*
X168244285Y-96461428D01*
X167672857Y-97061428D02*
X167958571Y-97061428D01*
X167958571Y-96461428D01*
X124967142Y-99060000D02*
X125024285Y-99031428D01*
X125110000Y-99031428D01*
X125195714Y-99060000D01*
X125252857Y-99117142D01*
X125281428Y-99174285D01*
X125310000Y-99288571D01*
X125310000Y-99374285D01*
X125281428Y-99488571D01*
X125252857Y-99545714D01*
X125195714Y-99602857D01*
X125110000Y-99631428D01*
X125052857Y-99631428D01*
X124967142Y-99602857D01*
X124938571Y-99574285D01*
X124938571Y-99374285D01*
X125052857Y-99374285D01*
X124681428Y-99631428D02*
X124681428Y-99031428D01*
X124338571Y-99631428D01*
X124338571Y-99031428D01*
X124052857Y-99631428D02*
X124052857Y-99031428D01*
X123910000Y-99031428D01*
X123824285Y-99060000D01*
X123767142Y-99117142D01*
X123738571Y-99174285D01*
X123710000Y-99288571D01*
X123710000Y-99374285D01*
X123738571Y-99488571D01*
X123767142Y-99545714D01*
X123824285Y-99602857D01*
X123910000Y-99631428D01*
X124052857Y-99631428D01*
X156187142Y-101450000D02*
X156244285Y-101421428D01*
X156330000Y-101421428D01*
X156415714Y-101450000D01*
X156472857Y-101507142D01*
X156501428Y-101564285D01*
X156530000Y-101678571D01*
X156530000Y-101764285D01*
X156501428Y-101878571D01*
X156472857Y-101935714D01*
X156415714Y-101992857D01*
X156330000Y-102021428D01*
X156272857Y-102021428D01*
X156187142Y-101992857D01*
X156158571Y-101964285D01*
X156158571Y-101764285D01*
X156272857Y-101764285D01*
X155901428Y-102021428D02*
X155901428Y-101421428D01*
X155558571Y-102021428D01*
X155558571Y-101421428D01*
X155272857Y-102021428D02*
X155272857Y-101421428D01*
X155130000Y-101421428D01*
X155044285Y-101450000D01*
X154987142Y-101507142D01*
X154958571Y-101564285D01*
X154930000Y-101678571D01*
X154930000Y-101764285D01*
X154958571Y-101878571D01*
X154987142Y-101935714D01*
X155044285Y-101992857D01*
X155130000Y-102021428D01*
X155272857Y-102021428D01*
X125188571Y-89392857D02*
X125102857Y-89421428D01*
X124960000Y-89421428D01*
X124902857Y-89392857D01*
X124874285Y-89364285D01*
X124845714Y-89307142D01*
X124845714Y-89250000D01*
X124874285Y-89192857D01*
X124902857Y-89164285D01*
X124960000Y-89135714D01*
X125074285Y-89107142D01*
X125131428Y-89078571D01*
X125160000Y-89050000D01*
X125188571Y-88992857D01*
X125188571Y-88935714D01*
X125160000Y-88878571D01*
X125131428Y-88850000D01*
X125074285Y-88821428D01*
X124931428Y-88821428D01*
X124845714Y-88850000D01*
X124588571Y-89421428D02*
X124588571Y-88821428D01*
X124445714Y-88821428D01*
X124360000Y-88850000D01*
X124302857Y-88907142D01*
X124274285Y-88964285D01*
X124245714Y-89078571D01*
X124245714Y-89164285D01*
X124274285Y-89278571D01*
X124302857Y-89335714D01*
X124360000Y-89392857D01*
X124445714Y-89421428D01*
X124588571Y-89421428D01*
X124017142Y-89250000D02*
X123731428Y-89250000D01*
X124074285Y-89421428D02*
X123874285Y-88821428D01*
X123674285Y-89421428D01*
X168860000Y-86891428D02*
X169060000Y-86605714D01*
X169202857Y-86891428D02*
X169202857Y-86291428D01*
X168974285Y-86291428D01*
X168917142Y-86320000D01*
X168888571Y-86348571D01*
X168860000Y-86405714D01*
X168860000Y-86491428D01*
X168888571Y-86548571D01*
X168917142Y-86577142D01*
X168974285Y-86605714D01*
X169202857Y-86605714D01*
X168660000Y-86291428D02*
X168260000Y-86891428D01*
X168260000Y-86291428D02*
X168660000Y-86891428D01*
X168031428Y-86891428D02*
X168031428Y-86291428D01*
X167888571Y-86291428D01*
X167802857Y-86320000D01*
X167745714Y-86377142D01*
X167717142Y-86434285D01*
X167688571Y-86548571D01*
X167688571Y-86634285D01*
X167717142Y-86748571D01*
X167745714Y-86805714D01*
X167802857Y-86862857D01*
X167888571Y-86891428D01*
X168031428Y-86891428D01*
X136202857Y-68330000D02*
X136145714Y-68358571D01*
X136060000Y-68358571D01*
X135974285Y-68330000D01*
X135917142Y-68272857D01*
X135888571Y-68215714D01*
X135860000Y-68101428D01*
X135860000Y-68015714D01*
X135888571Y-67901428D01*
X135917142Y-67844285D01*
X135974285Y-67787142D01*
X136060000Y-67758571D01*
X136117142Y-67758571D01*
X136202857Y-67787142D01*
X136231428Y-67815714D01*
X136231428Y-68015714D01*
X136117142Y-68015714D01*
X136488571Y-67758571D02*
X136488571Y-68358571D01*
X136831428Y-67758571D01*
X136831428Y-68358571D01*
X137117142Y-67758571D02*
X137117142Y-68358571D01*
X137260000Y-68358571D01*
X137345714Y-68330000D01*
X137402857Y-68272857D01*
X137431428Y-68215714D01*
X137460000Y-68101428D01*
X137460000Y-68015714D01*
X137431428Y-67901428D01*
X137402857Y-67844285D01*
X137345714Y-67787142D01*
X137260000Y-67758571D01*
X137117142Y-67758571D01*
X118347142Y-86361428D02*
X118004285Y-86361428D01*
X118175714Y-86961428D02*
X118175714Y-86361428D01*
X117861428Y-86361428D02*
X117461428Y-86961428D01*
X117461428Y-86361428D02*
X117861428Y-86961428D01*
X117232857Y-86961428D02*
X117232857Y-86361428D01*
X117090000Y-86361428D01*
X117004285Y-86390000D01*
X116947142Y-86447142D01*
X116918571Y-86504285D01*
X116890000Y-86618571D01*
X116890000Y-86704285D01*
X116918571Y-86818571D01*
X116947142Y-86875714D01*
X117004285Y-86932857D01*
X117090000Y-86961428D01*
X117232857Y-86961428D01*
X156602857Y-104081428D02*
X156231428Y-104081428D01*
X156431428Y-104310000D01*
X156345714Y-104310000D01*
X156288571Y-104338571D01*
X156260000Y-104367142D01*
X156231428Y-104424285D01*
X156231428Y-104567142D01*
X156260000Y-104624285D01*
X156288571Y-104652857D01*
X156345714Y-104681428D01*
X156517142Y-104681428D01*
X156574285Y-104652857D01*
X156602857Y-104624285D01*
X156060000Y-104081428D02*
X155860000Y-104681428D01*
X155660000Y-104081428D01*
X155517142Y-104081428D02*
X155145714Y-104081428D01*
X155345714Y-104310000D01*
X155260000Y-104310000D01*
X155202857Y-104338571D01*
X155174285Y-104367142D01*
X155145714Y-104424285D01*
X155145714Y-104567142D01*
X155174285Y-104624285D01*
X155202857Y-104652857D01*
X155260000Y-104681428D01*
X155431428Y-104681428D01*
X155488571Y-104652857D01*
X155517142Y-104624285D01*
X134577142Y-117740000D02*
X134634285Y-117711428D01*
X134720000Y-117711428D01*
X134805714Y-117740000D01*
X134862857Y-117797142D01*
X134891428Y-117854285D01*
X134920000Y-117968571D01*
X134920000Y-118054285D01*
X134891428Y-118168571D01*
X134862857Y-118225714D01*
X134805714Y-118282857D01*
X134720000Y-118311428D01*
X134662857Y-118311428D01*
X134577142Y-118282857D01*
X134548571Y-118254285D01*
X134548571Y-118054285D01*
X134662857Y-118054285D01*
X134291428Y-118311428D02*
X134291428Y-117711428D01*
X133948571Y-118311428D01*
X133948571Y-117711428D01*
X133662857Y-118311428D02*
X133662857Y-117711428D01*
X133520000Y-117711428D01*
X133434285Y-117740000D01*
X133377142Y-117797142D01*
X133348571Y-117854285D01*
X133320000Y-117968571D01*
X133320000Y-118054285D01*
X133348571Y-118168571D01*
X133377142Y-118225714D01*
X133434285Y-118282857D01*
X133520000Y-118311428D01*
X133662857Y-118311428D01*
X118361428Y-99317142D02*
X118161428Y-99317142D01*
X118075714Y-99631428D02*
X118361428Y-99631428D01*
X118361428Y-99031428D01*
X118075714Y-99031428D01*
X117904285Y-99031428D02*
X117561428Y-99031428D01*
X117732857Y-99631428D02*
X117732857Y-99031428D01*
X117361428Y-99631428D02*
X117361428Y-99031428D01*
X117361428Y-99317142D02*
X117018571Y-99317142D01*
X117018571Y-99631428D02*
X117018571Y-99031428D01*
X118342857Y-92041428D02*
X118342857Y-91441428D01*
X118142857Y-91870000D01*
X117942857Y-91441428D01*
X117942857Y-92041428D01*
X117657142Y-92041428D02*
X117657142Y-91441428D01*
X117400000Y-92012857D02*
X117314285Y-92041428D01*
X117171428Y-92041428D01*
X117114285Y-92012857D01*
X117085714Y-91984285D01*
X117057142Y-91927142D01*
X117057142Y-91870000D01*
X117085714Y-91812857D01*
X117114285Y-91784285D01*
X117171428Y-91755714D01*
X117285714Y-91727142D01*
X117342857Y-91698571D01*
X117371428Y-91670000D01*
X117400000Y-91612857D01*
X117400000Y-91555714D01*
X117371428Y-91498571D01*
X117342857Y-91470000D01*
X117285714Y-91441428D01*
X117142857Y-91441428D01*
X117057142Y-91470000D01*
X116685714Y-91441428D02*
X116571428Y-91441428D01*
X116514285Y-91470000D01*
X116457142Y-91527142D01*
X116428571Y-91641428D01*
X116428571Y-91841428D01*
X116457142Y-91955714D01*
X116514285Y-92012857D01*
X116571428Y-92041428D01*
X116685714Y-92041428D01*
X116742857Y-92012857D01*
X116800000Y-91955714D01*
X116828571Y-91841428D01*
X116828571Y-91641428D01*
X116800000Y-91527142D01*
X116742857Y-91470000D01*
X116685714Y-91441428D01*
X144747142Y-111800000D02*
X144804285Y-111771428D01*
X144890000Y-111771428D01*
X144975714Y-111800000D01*
X145032857Y-111857142D01*
X145061428Y-111914285D01*
X145090000Y-112028571D01*
X145090000Y-112114285D01*
X145061428Y-112228571D01*
X145032857Y-112285714D01*
X144975714Y-112342857D01*
X144890000Y-112371428D01*
X144832857Y-112371428D01*
X144747142Y-112342857D01*
X144718571Y-112314285D01*
X144718571Y-112114285D01*
X144832857Y-112114285D01*
X144461428Y-112371428D02*
X144461428Y-111771428D01*
X144118571Y-112371428D01*
X144118571Y-111771428D01*
X143832857Y-112371428D02*
X143832857Y-111771428D01*
X143690000Y-111771428D01*
X143604285Y-111800000D01*
X143547142Y-111857142D01*
X143518571Y-111914285D01*
X143490000Y-112028571D01*
X143490000Y-112114285D01*
X143518571Y-112228571D01*
X143547142Y-112285714D01*
X143604285Y-112342857D01*
X143690000Y-112371428D01*
X143832857Y-112371428D01*
X141982857Y-117887142D02*
X141897142Y-117915714D01*
X141868571Y-117944285D01*
X141840000Y-118001428D01*
X141840000Y-118087142D01*
X141868571Y-118144285D01*
X141897142Y-118172857D01*
X141954285Y-118201428D01*
X142182857Y-118201428D01*
X142182857Y-117601428D01*
X141982857Y-117601428D01*
X141925714Y-117630000D01*
X141897142Y-117658571D01*
X141868571Y-117715714D01*
X141868571Y-117772857D01*
X141897142Y-117830000D01*
X141925714Y-117858571D01*
X141982857Y-117887142D01*
X142182857Y-117887142D01*
X141297142Y-117601428D02*
X141582857Y-117601428D01*
X141611428Y-117887142D01*
X141582857Y-117858571D01*
X141525714Y-117830000D01*
X141382857Y-117830000D01*
X141325714Y-117858571D01*
X141297142Y-117887142D01*
X141268571Y-117944285D01*
X141268571Y-118087142D01*
X141297142Y-118144285D01*
X141325714Y-118172857D01*
X141382857Y-118201428D01*
X141525714Y-118201428D01*
X141582857Y-118172857D01*
X141611428Y-118144285D01*
X161860000Y-97044285D02*
X161888571Y-97072857D01*
X161974285Y-97101428D01*
X162031428Y-97101428D01*
X162117142Y-97072857D01*
X162174285Y-97015714D01*
X162202857Y-96958571D01*
X162231428Y-96844285D01*
X162231428Y-96758571D01*
X162202857Y-96644285D01*
X162174285Y-96587142D01*
X162117142Y-96530000D01*
X162031428Y-96501428D01*
X161974285Y-96501428D01*
X161888571Y-96530000D01*
X161860000Y-96558571D01*
X161631428Y-96930000D02*
X161345714Y-96930000D01*
X161688571Y-97101428D02*
X161488571Y-96501428D01*
X161288571Y-97101428D01*
X161088571Y-97101428D02*
X161088571Y-96501428D01*
X160745714Y-97101428D01*
X160745714Y-96501428D01*
X160460000Y-97101428D02*
X160460000Y-96501428D01*
X160460000Y-96787142D02*
X160117142Y-96787142D01*
X160117142Y-97101428D02*
X160117142Y-96501428D01*
X141932857Y-112087142D02*
X141847142Y-112115714D01*
X141818571Y-112144285D01*
X141790000Y-112201428D01*
X141790000Y-112287142D01*
X141818571Y-112344285D01*
X141847142Y-112372857D01*
X141904285Y-112401428D01*
X142132857Y-112401428D01*
X142132857Y-111801428D01*
X141932857Y-111801428D01*
X141875714Y-111830000D01*
X141847142Y-111858571D01*
X141818571Y-111915714D01*
X141818571Y-111972857D01*
X141847142Y-112030000D01*
X141875714Y-112058571D01*
X141932857Y-112087142D01*
X142132857Y-112087142D01*
X141275714Y-111801428D02*
X141390000Y-111801428D01*
X141447142Y-111830000D01*
X141475714Y-111858571D01*
X141532857Y-111944285D01*
X141561428Y-112058571D01*
X141561428Y-112287142D01*
X141532857Y-112344285D01*
X141504285Y-112372857D01*
X141447142Y-112401428D01*
X141332857Y-112401428D01*
X141275714Y-112372857D01*
X141247142Y-112344285D01*
X141218571Y-112287142D01*
X141218571Y-112144285D01*
X141247142Y-112087142D01*
X141275714Y-112058571D01*
X141332857Y-112030000D01*
X141447142Y-112030000D01*
X141504285Y-112058571D01*
X141532857Y-112087142D01*
X141561428Y-112144285D01*
X118352857Y-83881428D02*
X117981428Y-83881428D01*
X118181428Y-84110000D01*
X118095714Y-84110000D01*
X118038571Y-84138571D01*
X118010000Y-84167142D01*
X117981428Y-84224285D01*
X117981428Y-84367142D01*
X118010000Y-84424285D01*
X118038571Y-84452857D01*
X118095714Y-84481428D01*
X118267142Y-84481428D01*
X118324285Y-84452857D01*
X118352857Y-84424285D01*
X117810000Y-83881428D02*
X117610000Y-84481428D01*
X117410000Y-83881428D01*
X117267142Y-83881428D02*
X116895714Y-83881428D01*
X117095714Y-84110000D01*
X117010000Y-84110000D01*
X116952857Y-84138571D01*
X116924285Y-84167142D01*
X116895714Y-84224285D01*
X116895714Y-84367142D01*
X116924285Y-84424285D01*
X116952857Y-84452857D01*
X117010000Y-84481428D01*
X117181428Y-84481428D01*
X117238571Y-84452857D01*
X117267142Y-84424285D01*
D13*
X154954285Y-114844285D02*
X154382857Y-115034761D01*
X154192380Y-115225238D01*
X154001904Y-115606190D01*
X154001904Y-116177619D01*
X154192380Y-116558571D01*
X154382857Y-116749047D01*
X154763809Y-116939523D01*
X156287619Y-116939523D01*
X156287619Y-112939523D01*
X154954285Y-112939523D01*
X154573333Y-113130000D01*
X154382857Y-113320476D01*
X154192380Y-113701428D01*
X154192380Y-114082380D01*
X154382857Y-114463333D01*
X154573333Y-114653809D01*
X154954285Y-114844285D01*
X156287619Y-114844285D01*
D11*
X118340000Y-101902857D02*
X117882857Y-101902857D01*
X118111428Y-102131428D02*
X118111428Y-101674285D01*
X117625714Y-101588571D02*
X117597142Y-101560000D01*
X117540000Y-101531428D01*
X117397142Y-101531428D01*
X117340000Y-101560000D01*
X117311428Y-101588571D01*
X117282857Y-101645714D01*
X117282857Y-101702857D01*
X117311428Y-101788571D01*
X117654285Y-102131428D01*
X117282857Y-102131428D01*
X116768571Y-101731428D02*
X116768571Y-102131428D01*
X116911428Y-101502857D02*
X117054285Y-101931428D01*
X116682857Y-101931428D01*
X136862857Y-117977142D02*
X136777142Y-118005714D01*
X136748571Y-118034285D01*
X136720000Y-118091428D01*
X136720000Y-118177142D01*
X136748571Y-118234285D01*
X136777142Y-118262857D01*
X136834285Y-118291428D01*
X137062857Y-118291428D01*
X137062857Y-117691428D01*
X136862857Y-117691428D01*
X136805714Y-117720000D01*
X136777142Y-117748571D01*
X136748571Y-117805714D01*
X136748571Y-117862857D01*
X136777142Y-117920000D01*
X136805714Y-117948571D01*
X136862857Y-117977142D01*
X137062857Y-117977142D01*
X136148571Y-118291428D02*
X136491428Y-118291428D01*
X136320000Y-118291428D02*
X136320000Y-117691428D01*
X136377142Y-117777142D01*
X136434285Y-117834285D01*
X136491428Y-117862857D01*
X162131428Y-99307142D02*
X161931428Y-99307142D01*
X161845714Y-99621428D02*
X162131428Y-99621428D01*
X162131428Y-99021428D01*
X161845714Y-99021428D01*
X161674285Y-99021428D02*
X161331428Y-99021428D01*
X161502857Y-99621428D02*
X161502857Y-99021428D01*
X161131428Y-99621428D02*
X161131428Y-99021428D01*
X161131428Y-99307142D02*
X160788571Y-99307142D01*
X160788571Y-99621428D02*
X160788571Y-99021428D01*
X139928571Y-75528571D02*
X139728571Y-75814285D01*
X139585714Y-75528571D02*
X139585714Y-76128571D01*
X139814285Y-76128571D01*
X139871428Y-76100000D01*
X139900000Y-76071428D01*
X139928571Y-76014285D01*
X139928571Y-75928571D01*
X139900000Y-75871428D01*
X139871428Y-75842857D01*
X139814285Y-75814285D01*
X139585714Y-75814285D01*
X140185714Y-75528571D02*
X140185714Y-76128571D01*
X140671428Y-75842857D02*
X140757142Y-75814285D01*
X140785714Y-75785714D01*
X140814285Y-75728571D01*
X140814285Y-75642857D01*
X140785714Y-75585714D01*
X140757142Y-75557142D01*
X140700000Y-75528571D01*
X140471428Y-75528571D01*
X140471428Y-76128571D01*
X140671428Y-76128571D01*
X140728571Y-76100000D01*
X140757142Y-76071428D01*
X140785714Y-76014285D01*
X140785714Y-75957142D01*
X140757142Y-75900000D01*
X140728571Y-75871428D01*
X140671428Y-75842857D01*
X140471428Y-75842857D01*
X141957142Y-76157142D02*
X141442857Y-75385714D01*
X142957142Y-75585714D02*
X142928571Y-75557142D01*
X142842857Y-75528571D01*
X142785714Y-75528571D01*
X142700000Y-75557142D01*
X142642857Y-75614285D01*
X142614285Y-75671428D01*
X142585714Y-75785714D01*
X142585714Y-75871428D01*
X142614285Y-75985714D01*
X142642857Y-76042857D01*
X142700000Y-76100000D01*
X142785714Y-76128571D01*
X142842857Y-76128571D01*
X142928571Y-76100000D01*
X142957142Y-76071428D01*
X143328571Y-76128571D02*
X143442857Y-76128571D01*
X143500000Y-76100000D01*
X143557142Y-76042857D01*
X143585714Y-75928571D01*
X143585714Y-75728571D01*
X143557142Y-75614285D01*
X143500000Y-75557142D01*
X143442857Y-75528571D01*
X143328571Y-75528571D01*
X143271428Y-75557142D01*
X143214285Y-75614285D01*
X143185714Y-75728571D01*
X143185714Y-75928571D01*
X143214285Y-76042857D01*
X143271428Y-76100000D01*
X143328571Y-76128571D01*
X143814285Y-75557142D02*
X143900000Y-75528571D01*
X144042857Y-75528571D01*
X144100000Y-75557142D01*
X144128571Y-75585714D01*
X144157142Y-75642857D01*
X144157142Y-75700000D01*
X144128571Y-75757142D01*
X144100000Y-75785714D01*
X144042857Y-75814285D01*
X143928571Y-75842857D01*
X143871428Y-75871428D01*
X143842857Y-75900000D01*
X143814285Y-75957142D01*
X143814285Y-76014285D01*
X143842857Y-76071428D01*
X143871428Y-76100000D01*
X143928571Y-76128571D01*
X144071428Y-76128571D01*
X144157142Y-76100000D01*
X144328571Y-76128571D02*
X144671428Y-76128571D01*
X144500000Y-75528571D02*
X144500000Y-76128571D01*
X144871428Y-75842857D02*
X145071428Y-75842857D01*
X145157142Y-75528571D02*
X144871428Y-75528571D01*
X144871428Y-76128571D01*
X145157142Y-76128571D01*
X145700000Y-75528571D02*
X145414285Y-75528571D01*
X145414285Y-76128571D01*
X146185714Y-75528571D02*
X145900000Y-75528571D01*
X145900000Y-76128571D01*
X146357142Y-75700000D02*
X146642857Y-75700000D01*
X146300000Y-75528571D02*
X146500000Y-76128571D01*
X146700000Y-75528571D01*
X141877142Y-85531428D02*
X141534285Y-85531428D01*
X141705714Y-86131428D02*
X141705714Y-85531428D01*
X141391428Y-85531428D02*
X140991428Y-86131428D01*
X140991428Y-85531428D02*
X141391428Y-86131428D01*
X147222857Y-85521428D02*
X146851428Y-85521428D01*
X147051428Y-85750000D01*
X146965714Y-85750000D01*
X146908571Y-85778571D01*
X146880000Y-85807142D01*
X146851428Y-85864285D01*
X146851428Y-86007142D01*
X146880000Y-86064285D01*
X146908571Y-86092857D01*
X146965714Y-86121428D01*
X147137142Y-86121428D01*
X147194285Y-86092857D01*
X147222857Y-86064285D01*
X146680000Y-85521428D02*
X146480000Y-86121428D01*
X146280000Y-85521428D01*
X146137142Y-85521428D02*
X145765714Y-85521428D01*
X145965714Y-85750000D01*
X145880000Y-85750000D01*
X145822857Y-85778571D01*
X145794285Y-85807142D01*
X145765714Y-85864285D01*
X145765714Y-86007142D01*
X145794285Y-86064285D01*
X145822857Y-86092857D01*
X145880000Y-86121428D01*
X146051428Y-86121428D01*
X146108571Y-86092857D01*
X146137142Y-86064285D01*
X133310000Y-67937142D02*
X133767142Y-67937142D01*
X133538571Y-67708571D02*
X133538571Y-68165714D01*
X134024285Y-68251428D02*
X134052857Y-68280000D01*
X134110000Y-68308571D01*
X134252857Y-68308571D01*
X134310000Y-68280000D01*
X134338571Y-68251428D01*
X134367142Y-68194285D01*
X134367142Y-68137142D01*
X134338571Y-68051428D01*
X133995714Y-67708571D01*
X134367142Y-67708571D01*
X134881428Y-68108571D02*
X134881428Y-67708571D01*
X134738571Y-68337142D02*
X134595714Y-67908571D01*
X134967142Y-67908571D01*
X168927142Y-83800000D02*
X168984285Y-83771428D01*
X169070000Y-83771428D01*
X169155714Y-83800000D01*
X169212857Y-83857142D01*
X169241428Y-83914285D01*
X169270000Y-84028571D01*
X169270000Y-84114285D01*
X169241428Y-84228571D01*
X169212857Y-84285714D01*
X169155714Y-84342857D01*
X169070000Y-84371428D01*
X169012857Y-84371428D01*
X168927142Y-84342857D01*
X168898571Y-84314285D01*
X168898571Y-84114285D01*
X169012857Y-84114285D01*
X168641428Y-84371428D02*
X168641428Y-83771428D01*
X168298571Y-84371428D01*
X168298571Y-83771428D01*
X168012857Y-84371428D02*
X168012857Y-83771428D01*
X167870000Y-83771428D01*
X167784285Y-83800000D01*
X167727142Y-83857142D01*
X167698571Y-83914285D01*
X167670000Y-84028571D01*
X167670000Y-84114285D01*
X167698571Y-84228571D01*
X167727142Y-84285714D01*
X167784285Y-84342857D01*
X167870000Y-84371428D01*
X168012857Y-84371428D01*
X156368571Y-91914285D02*
X156397142Y-91942857D01*
X156482857Y-91971428D01*
X156540000Y-91971428D01*
X156625714Y-91942857D01*
X156682857Y-91885714D01*
X156711428Y-91828571D01*
X156740000Y-91714285D01*
X156740000Y-91628571D01*
X156711428Y-91514285D01*
X156682857Y-91457142D01*
X156625714Y-91400000D01*
X156540000Y-91371428D01*
X156482857Y-91371428D01*
X156397142Y-91400000D01*
X156368571Y-91428571D01*
X156140000Y-91800000D02*
X155854285Y-91800000D01*
X156197142Y-91971428D02*
X155997142Y-91371428D01*
X155797142Y-91971428D01*
X155597142Y-91971428D02*
X155597142Y-91371428D01*
X155254285Y-91971428D01*
X155254285Y-91371428D01*
X154682857Y-91971428D02*
X154968571Y-91971428D01*
X154968571Y-91371428D01*
X157750000Y-115888571D02*
X157750000Y-115602857D01*
X157578571Y-115945714D02*
X158178571Y-115745714D01*
X157578571Y-115545714D01*
X157578571Y-115031428D02*
X157578571Y-115374285D01*
X157578571Y-115202857D02*
X158178571Y-115202857D01*
X158092857Y-115260000D01*
X158035714Y-115317142D01*
X158007142Y-115374285D01*
X124857142Y-83820000D02*
X124914285Y-83791428D01*
X125000000Y-83791428D01*
X125085714Y-83820000D01*
X125142857Y-83877142D01*
X125171428Y-83934285D01*
X125200000Y-84048571D01*
X125200000Y-84134285D01*
X125171428Y-84248571D01*
X125142857Y-84305714D01*
X125085714Y-84362857D01*
X125000000Y-84391428D01*
X124942857Y-84391428D01*
X124857142Y-84362857D01*
X124828571Y-84334285D01*
X124828571Y-84134285D01*
X124942857Y-84134285D01*
X124571428Y-84391428D02*
X124571428Y-83791428D01*
X124228571Y-84391428D01*
X124228571Y-83791428D01*
X123942857Y-84391428D02*
X123942857Y-83791428D01*
X123800000Y-83791428D01*
X123714285Y-83820000D01*
X123657142Y-83877142D01*
X123628571Y-83934285D01*
X123600000Y-84048571D01*
X123600000Y-84134285D01*
X123628571Y-84248571D01*
X123657142Y-84305714D01*
X123714285Y-84362857D01*
X123800000Y-84391428D01*
X123942857Y-84391428D01*
X152670000Y-112122857D02*
X152212857Y-112122857D01*
X152441428Y-112351428D02*
X152441428Y-111894285D01*
X151955714Y-111808571D02*
X151927142Y-111780000D01*
X151870000Y-111751428D01*
X151727142Y-111751428D01*
X151670000Y-111780000D01*
X151641428Y-111808571D01*
X151612857Y-111865714D01*
X151612857Y-111922857D01*
X151641428Y-112008571D01*
X151984285Y-112351428D01*
X151612857Y-112351428D01*
X151098571Y-111951428D02*
X151098571Y-112351428D01*
X151241428Y-111722857D02*
X151384285Y-112151428D01*
X151012857Y-112151428D01*
X164070000Y-118427142D02*
X164098571Y-118484285D01*
X164098571Y-118570000D01*
X164070000Y-118655714D01*
X164012857Y-118712857D01*
X163955714Y-118741428D01*
X163841428Y-118770000D01*
X163755714Y-118770000D01*
X163641428Y-118741428D01*
X163584285Y-118712857D01*
X163527142Y-118655714D01*
X163498571Y-118570000D01*
X163498571Y-118512857D01*
X163527142Y-118427142D01*
X163555714Y-118398571D01*
X163755714Y-118398571D01*
X163755714Y-118512857D01*
X163498571Y-118141428D02*
X164098571Y-118141428D01*
X163498571Y-117798571D01*
X164098571Y-117798571D01*
X163498571Y-117512857D02*
X164098571Y-117512857D01*
X164098571Y-117370000D01*
X164070000Y-117284285D01*
X164012857Y-117227142D01*
X163955714Y-117198571D01*
X163841428Y-117170000D01*
X163755714Y-117170000D01*
X163641428Y-117198571D01*
X163584285Y-117227142D01*
X163527142Y-117284285D01*
X163498571Y-117370000D01*
X163498571Y-117512857D01*
X124617142Y-94542857D02*
X124531428Y-94571428D01*
X124388571Y-94571428D01*
X124331428Y-94542857D01*
X124302857Y-94514285D01*
X124274285Y-94457142D01*
X124274285Y-94400000D01*
X124302857Y-94342857D01*
X124331428Y-94314285D01*
X124388571Y-94285714D01*
X124502857Y-94257142D01*
X124560000Y-94228571D01*
X124588571Y-94200000D01*
X124617142Y-94142857D01*
X124617142Y-94085714D01*
X124588571Y-94028571D01*
X124560000Y-94000000D01*
X124502857Y-93971428D01*
X124360000Y-93971428D01*
X124274285Y-94000000D01*
X124045714Y-94542857D02*
X123960000Y-94571428D01*
X123817142Y-94571428D01*
X123760000Y-94542857D01*
X123731428Y-94514285D01*
X123702857Y-94457142D01*
X123702857Y-94400000D01*
X123731428Y-94342857D01*
X123760000Y-94314285D01*
X123817142Y-94285714D01*
X123931428Y-94257142D01*
X123988571Y-94228571D01*
X124017142Y-94200000D01*
X124045714Y-94142857D01*
X124045714Y-94085714D01*
X124017142Y-94028571D01*
X123988571Y-94000000D01*
X123931428Y-93971428D01*
X123788571Y-93971428D01*
X123702857Y-94000000D01*
X168967142Y-99030000D02*
X169024285Y-99001428D01*
X169110000Y-99001428D01*
X169195714Y-99030000D01*
X169252857Y-99087142D01*
X169281428Y-99144285D01*
X169310000Y-99258571D01*
X169310000Y-99344285D01*
X169281428Y-99458571D01*
X169252857Y-99515714D01*
X169195714Y-99572857D01*
X169110000Y-99601428D01*
X169052857Y-99601428D01*
X168967142Y-99572857D01*
X168938571Y-99544285D01*
X168938571Y-99344285D01*
X169052857Y-99344285D01*
X168681428Y-99601428D02*
X168681428Y-99001428D01*
X168338571Y-99601428D01*
X168338571Y-99001428D01*
X168052857Y-99601428D02*
X168052857Y-99001428D01*
X167910000Y-99001428D01*
X167824285Y-99030000D01*
X167767142Y-99087142D01*
X167738571Y-99144285D01*
X167710000Y-99258571D01*
X167710000Y-99344285D01*
X167738571Y-99458571D01*
X167767142Y-99515714D01*
X167824285Y-99572857D01*
X167910000Y-99601428D01*
X168052857Y-99601428D01*
D14*
X158849523Y-105741428D02*
X158468571Y-107074761D01*
X158087619Y-106122380D01*
X157706666Y-107074761D01*
X157325714Y-105741428D01*
X156754285Y-105741428D02*
X156373333Y-107074761D01*
X155992380Y-106122380D01*
X155611428Y-107074761D01*
X155230476Y-105741428D01*
X154659047Y-105741428D02*
X154278095Y-107074761D01*
X153897142Y-106122380D01*
X153516190Y-107074761D01*
X153135238Y-105741428D01*
X152373333Y-106884285D02*
X152278095Y-106979523D01*
X152373333Y-107074761D01*
X152468571Y-106979523D01*
X152373333Y-106884285D01*
X152373333Y-107074761D01*
X151420952Y-107074761D02*
X151420952Y-105741428D01*
X151420952Y-105074761D02*
X151516190Y-105170000D01*
X151420952Y-105265238D01*
X151325714Y-105170000D01*
X151420952Y-105074761D01*
X151420952Y-105265238D01*
X150182857Y-107074761D02*
X150373333Y-106979523D01*
X150468571Y-106884285D01*
X150563809Y-106693809D01*
X150563809Y-106122380D01*
X150468571Y-105931904D01*
X150373333Y-105836666D01*
X150182857Y-105741428D01*
X149897142Y-105741428D01*
X149706666Y-105836666D01*
X149611428Y-105931904D01*
X149516190Y-106122380D01*
X149516190Y-106693809D01*
X149611428Y-106884285D01*
X149706666Y-106979523D01*
X149897142Y-107074761D01*
X150182857Y-107074761D01*
X148944761Y-105741428D02*
X148182857Y-105741428D01*
X148659047Y-105074761D02*
X148659047Y-106789047D01*
X148563809Y-106979523D01*
X148373333Y-107074761D01*
X148182857Y-107074761D01*
X147706666Y-105741428D02*
X147230476Y-107074761D01*
X146754285Y-105741428D01*
X145230476Y-106979523D02*
X145420952Y-107074761D01*
X145801904Y-107074761D01*
X145992380Y-106979523D01*
X146087619Y-106789047D01*
X146087619Y-106027142D01*
X145992380Y-105836666D01*
X145801904Y-105741428D01*
X145420952Y-105741428D01*
X145230476Y-105836666D01*
X145135238Y-106027142D01*
X145135238Y-106217619D01*
X146087619Y-106408095D01*
X144278095Y-107074761D02*
X144278095Y-105741428D01*
X144278095Y-106122380D02*
X144182857Y-105931904D01*
X144087619Y-105836666D01*
X143897142Y-105741428D01*
X143706666Y-105741428D01*
X143325714Y-105741428D02*
X142563809Y-105741428D01*
X143040000Y-105074761D02*
X143040000Y-106789047D01*
X142944761Y-106979523D01*
X142754285Y-107074761D01*
X142563809Y-107074761D01*
X141135238Y-106979523D02*
X141325714Y-107074761D01*
X141706666Y-107074761D01*
X141897142Y-106979523D01*
X141992380Y-106789047D01*
X141992380Y-106027142D01*
X141897142Y-105836666D01*
X141706666Y-105741428D01*
X141325714Y-105741428D01*
X141135238Y-105836666D01*
X141040000Y-106027142D01*
X141040000Y-106217619D01*
X141992380Y-106408095D01*
X140182857Y-107074761D02*
X140182857Y-105074761D01*
X140182857Y-105836666D02*
X139992380Y-105741428D01*
X139611428Y-105741428D01*
X139420952Y-105836666D01*
X139325714Y-105931904D01*
X139230476Y-106122380D01*
X139230476Y-106693809D01*
X139325714Y-106884285D01*
X139420952Y-106979523D01*
X139611428Y-107074761D01*
X139992380Y-107074761D01*
X140182857Y-106979523D01*
X138373333Y-107074761D02*
X138373333Y-105741428D01*
X138373333Y-106122380D02*
X138278095Y-105931904D01*
X138182857Y-105836666D01*
X137992380Y-105741428D01*
X137801904Y-105741428D01*
X136278095Y-107074761D02*
X136278095Y-106027142D01*
X136373333Y-105836666D01*
X136563809Y-105741428D01*
X136944761Y-105741428D01*
X137135238Y-105836666D01*
X136278095Y-106979523D02*
X136468571Y-107074761D01*
X136944761Y-107074761D01*
X137135238Y-106979523D01*
X137230476Y-106789047D01*
X137230476Y-106598571D01*
X137135238Y-106408095D01*
X136944761Y-106312857D01*
X136468571Y-106312857D01*
X136278095Y-106217619D01*
X134563809Y-106979523D02*
X134754285Y-107074761D01*
X135135238Y-107074761D01*
X135325714Y-106979523D01*
X135420952Y-106789047D01*
X135420952Y-106027142D01*
X135325714Y-105836666D01*
X135135238Y-105741428D01*
X134754285Y-105741428D01*
X134563809Y-105836666D01*
X134468571Y-106027142D01*
X134468571Y-106217619D01*
X135420952Y-106408095D01*
X133611428Y-106884285D02*
X133516190Y-106979523D01*
X133611428Y-107074761D01*
X133706666Y-106979523D01*
X133611428Y-106884285D01*
X133611428Y-107074761D01*
X131801904Y-106979523D02*
X131992380Y-107074761D01*
X132373333Y-107074761D01*
X132563809Y-106979523D01*
X132659047Y-106884285D01*
X132754285Y-106693809D01*
X132754285Y-106122380D01*
X132659047Y-105931904D01*
X132563809Y-105836666D01*
X132373333Y-105741428D01*
X131992380Y-105741428D01*
X131801904Y-105836666D01*
X130659047Y-107074761D02*
X130849523Y-106979523D01*
X130944761Y-106884285D01*
X131040000Y-106693809D01*
X131040000Y-106122380D01*
X130944761Y-105931904D01*
X130849523Y-105836666D01*
X130659047Y-105741428D01*
X130373333Y-105741428D01*
X130182857Y-105836666D01*
X130087619Y-105931904D01*
X129992380Y-106122380D01*
X129992380Y-106693809D01*
X130087619Y-106884285D01*
X130182857Y-106979523D01*
X130373333Y-107074761D01*
X130659047Y-107074761D01*
X129135238Y-107074761D02*
X129135238Y-105741428D01*
X129135238Y-105931904D02*
X129040000Y-105836666D01*
X128849523Y-105741428D01*
X128563809Y-105741428D01*
X128373333Y-105836666D01*
X128278095Y-106027142D01*
X128278095Y-107074761D01*
X128278095Y-106027142D02*
X128182857Y-105836666D01*
X127992380Y-105741428D01*
X127706666Y-105741428D01*
X127516190Y-105836666D01*
X127420952Y-106027142D01*
X127420952Y-107074761D01*
D11*
X156308571Y-99394285D02*
X156337142Y-99422857D01*
X156422857Y-99451428D01*
X156480000Y-99451428D01*
X156565714Y-99422857D01*
X156622857Y-99365714D01*
X156651428Y-99308571D01*
X156680000Y-99194285D01*
X156680000Y-99108571D01*
X156651428Y-98994285D01*
X156622857Y-98937142D01*
X156565714Y-98880000D01*
X156480000Y-98851428D01*
X156422857Y-98851428D01*
X156337142Y-98880000D01*
X156308571Y-98908571D01*
X156137142Y-98851428D02*
X155794285Y-98851428D01*
X155965714Y-99451428D02*
X155965714Y-98851428D01*
X155651428Y-98851428D02*
X155251428Y-99451428D01*
X155251428Y-98851428D02*
X155651428Y-99451428D01*
X162387142Y-86351428D02*
X162044285Y-86351428D01*
X162215714Y-86951428D02*
X162215714Y-86351428D01*
X161901428Y-86351428D02*
X161501428Y-86951428D01*
X161501428Y-86351428D02*
X161901428Y-86951428D01*
X161272857Y-86951428D02*
X161272857Y-86351428D01*
X161130000Y-86351428D01*
X161044285Y-86380000D01*
X160987142Y-86437142D01*
X160958571Y-86494285D01*
X160930000Y-86608571D01*
X160930000Y-86694285D01*
X160958571Y-86808571D01*
X160987142Y-86865714D01*
X161044285Y-86922857D01*
X161130000Y-86951428D01*
X161272857Y-86951428D01*
X138497142Y-68428571D02*
X138868571Y-68428571D01*
X138668571Y-68200000D01*
X138754285Y-68200000D01*
X138811428Y-68171428D01*
X138840000Y-68142857D01*
X138868571Y-68085714D01*
X138868571Y-67942857D01*
X138840000Y-67885714D01*
X138811428Y-67857142D01*
X138754285Y-67828571D01*
X138582857Y-67828571D01*
X138525714Y-67857142D01*
X138497142Y-67885714D01*
X139040000Y-68428571D02*
X139240000Y-67828571D01*
X139440000Y-68428571D01*
X139582857Y-68428571D02*
X139954285Y-68428571D01*
X139754285Y-68200000D01*
X139840000Y-68200000D01*
X139897142Y-68171428D01*
X139925714Y-68142857D01*
X139954285Y-68085714D01*
X139954285Y-67942857D01*
X139925714Y-67885714D01*
X139897142Y-67857142D01*
X139840000Y-67828571D01*
X139668571Y-67828571D01*
X139611428Y-67857142D01*
X139582857Y-67885714D01*
X152860000Y-118092857D02*
X152402857Y-118092857D01*
X152631428Y-118321428D02*
X152631428Y-117864285D01*
X152145714Y-117778571D02*
X152117142Y-117750000D01*
X152060000Y-117721428D01*
X151917142Y-117721428D01*
X151860000Y-117750000D01*
X151831428Y-117778571D01*
X151802857Y-117835714D01*
X151802857Y-117892857D01*
X151831428Y-117978571D01*
X152174285Y-118321428D01*
X151802857Y-118321428D01*
X151288571Y-117921428D02*
X151288571Y-118321428D01*
X151431428Y-117692857D02*
X151574285Y-118121428D01*
X151202857Y-118121428D01*
X146421428Y-73900000D02*
X146707142Y-73900000D01*
X146364285Y-73728571D02*
X146564285Y-74328571D01*
X146764285Y-73728571D01*
X147221428Y-74128571D02*
X147221428Y-73728571D01*
X147078571Y-74357142D02*
X146935714Y-73928571D01*
X147307142Y-73928571D01*
X169178571Y-89432857D02*
X169092857Y-89461428D01*
X168950000Y-89461428D01*
X168892857Y-89432857D01*
X168864285Y-89404285D01*
X168835714Y-89347142D01*
X168835714Y-89290000D01*
X168864285Y-89232857D01*
X168892857Y-89204285D01*
X168950000Y-89175714D01*
X169064285Y-89147142D01*
X169121428Y-89118571D01*
X169150000Y-89090000D01*
X169178571Y-89032857D01*
X169178571Y-88975714D01*
X169150000Y-88918571D01*
X169121428Y-88890000D01*
X169064285Y-88861428D01*
X168921428Y-88861428D01*
X168835714Y-88890000D01*
X168578571Y-89461428D02*
X168578571Y-88861428D01*
X168435714Y-88861428D01*
X168350000Y-88890000D01*
X168292857Y-88947142D01*
X168264285Y-89004285D01*
X168235714Y-89118571D01*
X168235714Y-89204285D01*
X168264285Y-89318571D01*
X168292857Y-89375714D01*
X168350000Y-89432857D01*
X168435714Y-89461428D01*
X168578571Y-89461428D01*
X168007142Y-89290000D02*
X167721428Y-89290000D01*
X168064285Y-89461428D02*
X167864285Y-88861428D01*
X167664285Y-89461428D01*
X149787142Y-111770000D02*
X149844285Y-111741428D01*
X149930000Y-111741428D01*
X150015714Y-111770000D01*
X150072857Y-111827142D01*
X150101428Y-111884285D01*
X150130000Y-111998571D01*
X150130000Y-112084285D01*
X150101428Y-112198571D01*
X150072857Y-112255714D01*
X150015714Y-112312857D01*
X149930000Y-112341428D01*
X149872857Y-112341428D01*
X149787142Y-112312857D01*
X149758571Y-112284285D01*
X149758571Y-112084285D01*
X149872857Y-112084285D01*
X149501428Y-112341428D02*
X149501428Y-111741428D01*
X149158571Y-112341428D01*
X149158571Y-111741428D01*
X148872857Y-112341428D02*
X148872857Y-111741428D01*
X148730000Y-111741428D01*
X148644285Y-111770000D01*
X148587142Y-111827142D01*
X148558571Y-111884285D01*
X148530000Y-111998571D01*
X148530000Y-112084285D01*
X148558571Y-112198571D01*
X148587142Y-112255714D01*
X148644285Y-112312857D01*
X148730000Y-112341428D01*
X148872857Y-112341428D01*
X149797142Y-117700000D02*
X149854285Y-117671428D01*
X149940000Y-117671428D01*
X150025714Y-117700000D01*
X150082857Y-117757142D01*
X150111428Y-117814285D01*
X150140000Y-117928571D01*
X150140000Y-118014285D01*
X150111428Y-118128571D01*
X150082857Y-118185714D01*
X150025714Y-118242857D01*
X149940000Y-118271428D01*
X149882857Y-118271428D01*
X149797142Y-118242857D01*
X149768571Y-118214285D01*
X149768571Y-118014285D01*
X149882857Y-118014285D01*
X149511428Y-118271428D02*
X149511428Y-117671428D01*
X149168571Y-118271428D01*
X149168571Y-117671428D01*
X148882857Y-118271428D02*
X148882857Y-117671428D01*
X148740000Y-117671428D01*
X148654285Y-117700000D01*
X148597142Y-117757142D01*
X148568571Y-117814285D01*
X148540000Y-117928571D01*
X148540000Y-118014285D01*
X148568571Y-118128571D01*
X148597142Y-118185714D01*
X148654285Y-118242857D01*
X148740000Y-118271428D01*
X148882857Y-118271428D01*
X152067142Y-85560000D02*
X152124285Y-85531428D01*
X152210000Y-85531428D01*
X152295714Y-85560000D01*
X152352857Y-85617142D01*
X152381428Y-85674285D01*
X152410000Y-85788571D01*
X152410000Y-85874285D01*
X152381428Y-85988571D01*
X152352857Y-86045714D01*
X152295714Y-86102857D01*
X152210000Y-86131428D01*
X152152857Y-86131428D01*
X152067142Y-86102857D01*
X152038571Y-86074285D01*
X152038571Y-85874285D01*
X152152857Y-85874285D01*
X151781428Y-86131428D02*
X151781428Y-85531428D01*
X151438571Y-86131428D01*
X151438571Y-85531428D01*
X151152857Y-86131428D02*
X151152857Y-85531428D01*
X151010000Y-85531428D01*
X150924285Y-85560000D01*
X150867142Y-85617142D01*
X150838571Y-85674285D01*
X150810000Y-85788571D01*
X150810000Y-85874285D01*
X150838571Y-85988571D01*
X150867142Y-86045714D01*
X150924285Y-86102857D01*
X151010000Y-86131428D01*
X151152857Y-86131428D01*
X125602857Y-92071428D02*
X125602857Y-91471428D01*
X125402857Y-91900000D01*
X125202857Y-91471428D01*
X125202857Y-92071428D01*
X124802857Y-91471428D02*
X124688571Y-91471428D01*
X124631428Y-91500000D01*
X124574285Y-91557142D01*
X124545714Y-91671428D01*
X124545714Y-91871428D01*
X124574285Y-91985714D01*
X124631428Y-92042857D01*
X124688571Y-92071428D01*
X124802857Y-92071428D01*
X124860000Y-92042857D01*
X124917142Y-91985714D01*
X124945714Y-91871428D01*
X124945714Y-91671428D01*
X124917142Y-91557142D01*
X124860000Y-91500000D01*
X124802857Y-91471428D01*
X124317142Y-92042857D02*
X124231428Y-92071428D01*
X124088571Y-92071428D01*
X124031428Y-92042857D01*
X124002857Y-92014285D01*
X123974285Y-91957142D01*
X123974285Y-91900000D01*
X124002857Y-91842857D01*
X124031428Y-91814285D01*
X124088571Y-91785714D01*
X124202857Y-91757142D01*
X124260000Y-91728571D01*
X124288571Y-91700000D01*
X124317142Y-91642857D01*
X124317142Y-91585714D01*
X124288571Y-91528571D01*
X124260000Y-91500000D01*
X124202857Y-91471428D01*
X124060000Y-91471428D01*
X123974285Y-91500000D01*
X123717142Y-92071428D02*
X123717142Y-91471428D01*
X157700000Y-110828571D02*
X157700000Y-110542857D01*
X157528571Y-110885714D02*
X158128571Y-110685714D01*
X157528571Y-110485714D01*
X158128571Y-110342857D02*
X158128571Y-109971428D01*
X157900000Y-110171428D01*
X157900000Y-110085714D01*
X157871428Y-110028571D01*
X157842857Y-110000000D01*
X157785714Y-109971428D01*
X157642857Y-109971428D01*
X157585714Y-110000000D01*
X157557142Y-110028571D01*
X157528571Y-110085714D01*
X157528571Y-110257142D01*
X157557142Y-110314285D01*
X157585714Y-110342857D01*
X162394285Y-89442857D02*
X162308571Y-89471428D01*
X162165714Y-89471428D01*
X162108571Y-89442857D01*
X162080000Y-89414285D01*
X162051428Y-89357142D01*
X162051428Y-89300000D01*
X162080000Y-89242857D01*
X162108571Y-89214285D01*
X162165714Y-89185714D01*
X162280000Y-89157142D01*
X162337142Y-89128571D01*
X162365714Y-89100000D01*
X162394285Y-89042857D01*
X162394285Y-88985714D01*
X162365714Y-88928571D01*
X162337142Y-88900000D01*
X162280000Y-88871428D01*
X162137142Y-88871428D01*
X162051428Y-88900000D01*
X161451428Y-89414285D02*
X161480000Y-89442857D01*
X161565714Y-89471428D01*
X161622857Y-89471428D01*
X161708571Y-89442857D01*
X161765714Y-89385714D01*
X161794285Y-89328571D01*
X161822857Y-89214285D01*
X161822857Y-89128571D01*
X161794285Y-89014285D01*
X161765714Y-88957142D01*
X161708571Y-88900000D01*
X161622857Y-88871428D01*
X161565714Y-88871428D01*
X161480000Y-88900000D01*
X161451428Y-88928571D01*
X160908571Y-89471428D02*
X161194285Y-89471428D01*
X161194285Y-88871428D01*
X127228571Y-95128571D02*
X126628571Y-94928571D01*
X127228571Y-94728571D01*
X126942857Y-94528571D02*
X126942857Y-94328571D01*
X126628571Y-94242857D02*
X126628571Y-94528571D01*
X127228571Y-94528571D01*
X127228571Y-94242857D01*
X126628571Y-93642857D02*
X126914285Y-93842857D01*
X126628571Y-93985714D02*
X127228571Y-93985714D01*
X127228571Y-93757142D01*
X127200000Y-93700000D01*
X127171428Y-93671428D01*
X127114285Y-93642857D01*
X127028571Y-93642857D01*
X126971428Y-93671428D01*
X126942857Y-93700000D01*
X126914285Y-93757142D01*
X126914285Y-93985714D01*
X127228571Y-93471428D02*
X127228571Y-93128571D01*
X126628571Y-93300000D02*
X127228571Y-93300000D01*
X126942857Y-92928571D02*
X126942857Y-92728571D01*
X126628571Y-92642857D02*
X126628571Y-92928571D01*
X127228571Y-92928571D01*
X127228571Y-92642857D01*
X126942857Y-92185714D02*
X126914285Y-92100000D01*
X126885714Y-92071428D01*
X126828571Y-92042857D01*
X126742857Y-92042857D01*
X126685714Y-92071428D01*
X126657142Y-92100000D01*
X126628571Y-92157142D01*
X126628571Y-92385714D01*
X127228571Y-92385714D01*
X127228571Y-92185714D01*
X127200000Y-92128571D01*
X127171428Y-92100000D01*
X127114285Y-92071428D01*
X127057142Y-92071428D01*
X127000000Y-92100000D01*
X126971428Y-92128571D01*
X126942857Y-92185714D01*
X126942857Y-92385714D01*
X126628571Y-91442857D02*
X126914285Y-91642857D01*
X126628571Y-91785714D02*
X127228571Y-91785714D01*
X127228571Y-91557142D01*
X127200000Y-91500000D01*
X127171428Y-91471428D01*
X127114285Y-91442857D01*
X127028571Y-91442857D01*
X126971428Y-91471428D01*
X126942857Y-91500000D01*
X126914285Y-91557142D01*
X126914285Y-91785714D01*
X126800000Y-91214285D02*
X126800000Y-90928571D01*
X126628571Y-91271428D02*
X127228571Y-91071428D01*
X126628571Y-90871428D01*
X146361428Y-67910000D02*
X146647142Y-67910000D01*
X146304285Y-67738571D02*
X146504285Y-68338571D01*
X146704285Y-67738571D01*
X146847142Y-68338571D02*
X147218571Y-68338571D01*
X147018571Y-68110000D01*
X147104285Y-68110000D01*
X147161428Y-68081428D01*
X147190000Y-68052857D01*
X147218571Y-67995714D01*
X147218571Y-67852857D01*
X147190000Y-67795714D01*
X147161428Y-67767142D01*
X147104285Y-67738571D01*
X146932857Y-67738571D01*
X146875714Y-67767142D01*
X146847142Y-67795714D01*
X168597142Y-94602857D02*
X168511428Y-94631428D01*
X168368571Y-94631428D01*
X168311428Y-94602857D01*
X168282857Y-94574285D01*
X168254285Y-94517142D01*
X168254285Y-94460000D01*
X168282857Y-94402857D01*
X168311428Y-94374285D01*
X168368571Y-94345714D01*
X168482857Y-94317142D01*
X168540000Y-94288571D01*
X168568571Y-94260000D01*
X168597142Y-94202857D01*
X168597142Y-94145714D01*
X168568571Y-94088571D01*
X168540000Y-94060000D01*
X168482857Y-94031428D01*
X168340000Y-94031428D01*
X168254285Y-94060000D01*
X168025714Y-94602857D02*
X167940000Y-94631428D01*
X167797142Y-94631428D01*
X167740000Y-94602857D01*
X167711428Y-94574285D01*
X167682857Y-94517142D01*
X167682857Y-94460000D01*
X167711428Y-94402857D01*
X167740000Y-94374285D01*
X167797142Y-94345714D01*
X167911428Y-94317142D01*
X167968571Y-94288571D01*
X167997142Y-94260000D01*
X168025714Y-94202857D01*
X168025714Y-94145714D01*
X167997142Y-94088571D01*
X167968571Y-94060000D01*
X167911428Y-94031428D01*
X167768571Y-94031428D01*
X167682857Y-94060000D01*
X139422857Y-112037142D02*
X139337142Y-112065714D01*
X139308571Y-112094285D01*
X139280000Y-112151428D01*
X139280000Y-112237142D01*
X139308571Y-112294285D01*
X139337142Y-112322857D01*
X139394285Y-112351428D01*
X139622857Y-112351428D01*
X139622857Y-111751428D01*
X139422857Y-111751428D01*
X139365714Y-111780000D01*
X139337142Y-111808571D01*
X139308571Y-111865714D01*
X139308571Y-111922857D01*
X139337142Y-111980000D01*
X139365714Y-112008571D01*
X139422857Y-112037142D01*
X139622857Y-112037142D01*
X138765714Y-111951428D02*
X138765714Y-112351428D01*
X138908571Y-111722857D02*
X139051428Y-112151428D01*
X138680000Y-112151428D01*
X151491428Y-73880000D02*
X151777142Y-73880000D01*
X151434285Y-73708571D02*
X151634285Y-74308571D01*
X151834285Y-73708571D01*
X152148571Y-74308571D02*
X152205714Y-74308571D01*
X152262857Y-74280000D01*
X152291428Y-74251428D01*
X152320000Y-74194285D01*
X152348571Y-74080000D01*
X152348571Y-73937142D01*
X152320000Y-73822857D01*
X152291428Y-73765714D01*
X152262857Y-73737142D01*
X152205714Y-73708571D01*
X152148571Y-73708571D01*
X152091428Y-73737142D01*
X152062857Y-73765714D01*
X152034285Y-73822857D01*
X152005714Y-73937142D01*
X152005714Y-74080000D01*
X152034285Y-74194285D01*
X152062857Y-74251428D01*
X152091428Y-74280000D01*
X152148571Y-74308571D01*
X151512857Y-68320000D02*
X151455714Y-68348571D01*
X151370000Y-68348571D01*
X151284285Y-68320000D01*
X151227142Y-68262857D01*
X151198571Y-68205714D01*
X151170000Y-68091428D01*
X151170000Y-68005714D01*
X151198571Y-67891428D01*
X151227142Y-67834285D01*
X151284285Y-67777142D01*
X151370000Y-67748571D01*
X151427142Y-67748571D01*
X151512857Y-67777142D01*
X151541428Y-67805714D01*
X151541428Y-68005714D01*
X151427142Y-68005714D01*
X151798571Y-67748571D02*
X151798571Y-68348571D01*
X152141428Y-67748571D01*
X152141428Y-68348571D01*
X152427142Y-67748571D02*
X152427142Y-68348571D01*
X152570000Y-68348571D01*
X152655714Y-68320000D01*
X152712857Y-68262857D01*
X152741428Y-68205714D01*
X152770000Y-68091428D01*
X152770000Y-68005714D01*
X152741428Y-67891428D01*
X152712857Y-67834285D01*
X152655714Y-67777142D01*
X152570000Y-67748571D01*
X152427142Y-67748571D01*
X164050000Y-110807142D02*
X164078571Y-110864285D01*
X164078571Y-110950000D01*
X164050000Y-111035714D01*
X163992857Y-111092857D01*
X163935714Y-111121428D01*
X163821428Y-111150000D01*
X163735714Y-111150000D01*
X163621428Y-111121428D01*
X163564285Y-111092857D01*
X163507142Y-111035714D01*
X163478571Y-110950000D01*
X163478571Y-110892857D01*
X163507142Y-110807142D01*
X163535714Y-110778571D01*
X163735714Y-110778571D01*
X163735714Y-110892857D01*
X163478571Y-110521428D02*
X164078571Y-110521428D01*
X163478571Y-110178571D01*
X164078571Y-110178571D01*
X163478571Y-109892857D02*
X164078571Y-109892857D01*
X164078571Y-109750000D01*
X164050000Y-109664285D01*
X163992857Y-109607142D01*
X163935714Y-109578571D01*
X163821428Y-109550000D01*
X163735714Y-109550000D01*
X163621428Y-109578571D01*
X163564285Y-109607142D01*
X163507142Y-109664285D01*
X163478571Y-109750000D01*
X163478571Y-109892857D01*
X157690000Y-118468571D02*
X157690000Y-118182857D01*
X157518571Y-118525714D02*
X158118571Y-118325714D01*
X157518571Y-118125714D01*
X158118571Y-117811428D02*
X158118571Y-117754285D01*
X158090000Y-117697142D01*
X158061428Y-117668571D01*
X158004285Y-117640000D01*
X157890000Y-117611428D01*
X157747142Y-117611428D01*
X157632857Y-117640000D01*
X157575714Y-117668571D01*
X157547142Y-117697142D01*
X157518571Y-117754285D01*
X157518571Y-117811428D01*
X157547142Y-117868571D01*
X157575714Y-117897142D01*
X157632857Y-117925714D01*
X157747142Y-117954285D01*
X157890000Y-117954285D01*
X158004285Y-117925714D01*
X158061428Y-117897142D01*
X158090000Y-117868571D01*
X158118571Y-117811428D01*
X124900000Y-86961428D02*
X125100000Y-86675714D01*
X125242857Y-86961428D02*
X125242857Y-86361428D01*
X125014285Y-86361428D01*
X124957142Y-86390000D01*
X124928571Y-86418571D01*
X124900000Y-86475714D01*
X124900000Y-86561428D01*
X124928571Y-86618571D01*
X124957142Y-86647142D01*
X125014285Y-86675714D01*
X125242857Y-86675714D01*
X124700000Y-86361428D02*
X124300000Y-86961428D01*
X124300000Y-86361428D02*
X124700000Y-86961428D01*
X124071428Y-86961428D02*
X124071428Y-86361428D01*
X123928571Y-86361428D01*
X123842857Y-86390000D01*
X123785714Y-86447142D01*
X123757142Y-86504285D01*
X123728571Y-86618571D01*
X123728571Y-86704285D01*
X123757142Y-86818571D01*
X123785714Y-86875714D01*
X123842857Y-86932857D01*
X123928571Y-86961428D01*
X124071428Y-86961428D01*
X162342857Y-83841428D02*
X161971428Y-83841428D01*
X162171428Y-84070000D01*
X162085714Y-84070000D01*
X162028571Y-84098571D01*
X162000000Y-84127142D01*
X161971428Y-84184285D01*
X161971428Y-84327142D01*
X162000000Y-84384285D01*
X162028571Y-84412857D01*
X162085714Y-84441428D01*
X162257142Y-84441428D01*
X162314285Y-84412857D01*
X162342857Y-84384285D01*
X161800000Y-83841428D02*
X161600000Y-84441428D01*
X161400000Y-83841428D01*
X161257142Y-83841428D02*
X160885714Y-83841428D01*
X161085714Y-84070000D01*
X161000000Y-84070000D01*
X160942857Y-84098571D01*
X160914285Y-84127142D01*
X160885714Y-84184285D01*
X160885714Y-84327142D01*
X160914285Y-84384285D01*
X160942857Y-84412857D01*
X161000000Y-84441428D01*
X161171428Y-84441428D01*
X161228571Y-84412857D01*
X161257142Y-84384285D01*
D10*
X150699523Y-82262380D02*
X150699523Y-81262380D01*
X150318571Y-81262380D01*
X150223333Y-81310000D01*
X150175714Y-81357619D01*
X150128095Y-81452857D01*
X150128095Y-81595714D01*
X150175714Y-81690952D01*
X150223333Y-81738571D01*
X150318571Y-81786190D01*
X150699523Y-81786190D01*
X149128095Y-82262380D02*
X149461428Y-81786190D01*
X149699523Y-82262380D02*
X149699523Y-81262380D01*
X149318571Y-81262380D01*
X149223333Y-81310000D01*
X149175714Y-81357619D01*
X149128095Y-81452857D01*
X149128095Y-81595714D01*
X149175714Y-81690952D01*
X149223333Y-81738571D01*
X149318571Y-81786190D01*
X149699523Y-81786190D01*
X148509047Y-81262380D02*
X148318571Y-81262380D01*
X148223333Y-81310000D01*
X148128095Y-81405238D01*
X148080476Y-81595714D01*
X148080476Y-81929047D01*
X148128095Y-82119523D01*
X148223333Y-82214761D01*
X148318571Y-82262380D01*
X148509047Y-82262380D01*
X148604285Y-82214761D01*
X148699523Y-82119523D01*
X148747142Y-81929047D01*
X148747142Y-81595714D01*
X148699523Y-81405238D01*
X148604285Y-81310000D01*
X148509047Y-81262380D01*
X147128095Y-81310000D02*
X147223333Y-81262380D01*
X147366190Y-81262380D01*
X147509047Y-81310000D01*
X147604285Y-81405238D01*
X147651904Y-81500476D01*
X147699523Y-81690952D01*
X147699523Y-81833809D01*
X147651904Y-82024285D01*
X147604285Y-82119523D01*
X147509047Y-82214761D01*
X147366190Y-82262380D01*
X147270952Y-82262380D01*
X147128095Y-82214761D01*
X147080476Y-82167142D01*
X147080476Y-81833809D01*
X147270952Y-81833809D01*
X146080476Y-82262380D02*
X146413809Y-81786190D01*
X146651904Y-82262380D02*
X146651904Y-81262380D01*
X146270952Y-81262380D01*
X146175714Y-81310000D01*
X146128095Y-81357619D01*
X146080476Y-81452857D01*
X146080476Y-81595714D01*
X146128095Y-81690952D01*
X146175714Y-81738571D01*
X146270952Y-81786190D01*
X146651904Y-81786190D01*
X145699523Y-81976666D02*
X145223333Y-81976666D01*
X145794761Y-82262380D02*
X145461428Y-81262380D01*
X145128095Y-82262380D01*
X144794761Y-82262380D02*
X144794761Y-81262380D01*
X144461428Y-81976666D01*
X144128095Y-81262380D01*
X144128095Y-82262380D01*
X143651904Y-82262380D02*
X143651904Y-81262380D01*
X143318571Y-81976666D01*
X142985238Y-81262380D01*
X142985238Y-82262380D01*
X142509047Y-81738571D02*
X142175714Y-81738571D01*
X142032857Y-82262380D02*
X142509047Y-82262380D01*
X142509047Y-81262380D01*
X142032857Y-81262380D01*
X141032857Y-82262380D02*
X141366190Y-81786190D01*
X141604285Y-82262380D02*
X141604285Y-81262380D01*
X141223333Y-81262380D01*
X141128095Y-81310000D01*
X141080476Y-81357619D01*
X141032857Y-81452857D01*
X141032857Y-81595714D01*
X141080476Y-81690952D01*
X141128095Y-81738571D01*
X141223333Y-81786190D01*
X141604285Y-81786190D01*
D11*
X136882857Y-112027142D02*
X136797142Y-112055714D01*
X136768571Y-112084285D01*
X136740000Y-112141428D01*
X136740000Y-112227142D01*
X136768571Y-112284285D01*
X136797142Y-112312857D01*
X136854285Y-112341428D01*
X137082857Y-112341428D01*
X137082857Y-111741428D01*
X136882857Y-111741428D01*
X136825714Y-111770000D01*
X136797142Y-111798571D01*
X136768571Y-111855714D01*
X136768571Y-111912857D01*
X136797142Y-111970000D01*
X136825714Y-111998571D01*
X136882857Y-112027142D01*
X137082857Y-112027142D01*
X136511428Y-111798571D02*
X136482857Y-111770000D01*
X136425714Y-111741428D01*
X136282857Y-111741428D01*
X136225714Y-111770000D01*
X136197142Y-111798571D01*
X136168571Y-111855714D01*
X136168571Y-111912857D01*
X136197142Y-111998571D01*
X136540000Y-112341428D01*
X136168571Y-112341428D01*
D13*
X156382380Y-71946666D02*
X154477619Y-71946666D01*
X156763333Y-73089523D02*
X155430000Y-69089523D01*
X154096666Y-73089523D01*
D11*
X144080000Y-86131428D02*
X144280000Y-85845714D01*
X144422857Y-86131428D02*
X144422857Y-85531428D01*
X144194285Y-85531428D01*
X144137142Y-85560000D01*
X144108571Y-85588571D01*
X144080000Y-85645714D01*
X144080000Y-85731428D01*
X144108571Y-85788571D01*
X144137142Y-85817142D01*
X144194285Y-85845714D01*
X144422857Y-85845714D01*
X143880000Y-85531428D02*
X143480000Y-86131428D01*
X143480000Y-85531428D02*
X143880000Y-86131428D01*
X160314285Y-70958714D02*
X160285714Y-70930142D01*
X160200000Y-70901571D01*
X160142857Y-70901571D01*
X160057142Y-70930142D01*
X160000000Y-70987285D01*
X159971428Y-71044428D01*
X159942857Y-71158714D01*
X159942857Y-71244428D01*
X159971428Y-71358714D01*
X160000000Y-71415857D01*
X160057142Y-71473000D01*
X160142857Y-71501571D01*
X160200000Y-71501571D01*
X160285714Y-71473000D01*
X160314285Y-71444428D01*
X160542857Y-71073000D02*
X160828571Y-71073000D01*
X160485714Y-70901571D02*
X160685714Y-71501571D01*
X160885714Y-70901571D01*
X161085714Y-70901571D02*
X161085714Y-71501571D01*
X161428571Y-70901571D01*
X161428571Y-71501571D01*
X158057142Y-70535571D02*
X158400000Y-70535571D01*
X158228571Y-69935571D02*
X158228571Y-70535571D01*
X158600000Y-70249857D02*
X158800000Y-70249857D01*
X158885714Y-69935571D02*
X158600000Y-69935571D01*
X158600000Y-70535571D01*
X158885714Y-70535571D01*
X159485714Y-69935571D02*
X159285714Y-70221285D01*
X159142857Y-69935571D02*
X159142857Y-70535571D01*
X159371428Y-70535571D01*
X159428571Y-70507000D01*
X159457142Y-70478428D01*
X159485714Y-70421285D01*
X159485714Y-70335571D01*
X159457142Y-70278428D01*
X159428571Y-70249857D01*
X159371428Y-70221285D01*
X159142857Y-70221285D01*
X159742857Y-69935571D02*
X159742857Y-70535571D01*
X159942857Y-70107000D01*
X160142857Y-70535571D01*
X160142857Y-69935571D01*
X160428571Y-69935571D02*
X160428571Y-70535571D01*
X160714285Y-69935571D02*
X160714285Y-70535571D01*
X161057142Y-69935571D01*
X161057142Y-70535571D01*
X161314285Y-70107000D02*
X161600000Y-70107000D01*
X161257142Y-69935571D02*
X161457142Y-70535571D01*
X161657142Y-69935571D01*
X161771428Y-70535571D02*
X162114285Y-70535571D01*
X161942857Y-69935571D02*
X161942857Y-70535571D01*
X162428571Y-70535571D02*
X162542857Y-70535571D01*
X162600000Y-70507000D01*
X162657142Y-70449857D01*
X162685714Y-70335571D01*
X162685714Y-70135571D01*
X162657142Y-70021285D01*
X162600000Y-69964142D01*
X162542857Y-69935571D01*
X162428571Y-69935571D01*
X162371428Y-69964142D01*
X162314285Y-70021285D01*
X162285714Y-70135571D01*
X162285714Y-70335571D01*
X162314285Y-70449857D01*
X162371428Y-70507000D01*
X162428571Y-70535571D01*
X163285714Y-69935571D02*
X163085714Y-70221285D01*
X162942857Y-69935571D02*
X162942857Y-70535571D01*
X163171428Y-70535571D01*
X163228571Y-70507000D01*
X163257142Y-70478428D01*
X163285714Y-70421285D01*
X163285714Y-70335571D01*
X163257142Y-70278428D01*
X163228571Y-70249857D01*
X163171428Y-70221285D01*
X162942857Y-70221285D01*
X148981428Y-73880000D02*
X149267142Y-73880000D01*
X148924285Y-73708571D02*
X149124285Y-74308571D01*
X149324285Y-73708571D01*
X149495714Y-74251428D02*
X149524285Y-74280000D01*
X149581428Y-74308571D01*
X149724285Y-74308571D01*
X149781428Y-74280000D01*
X149810000Y-74251428D01*
X149838571Y-74194285D01*
X149838571Y-74137142D01*
X149810000Y-74051428D01*
X149467142Y-73708571D01*
X149838571Y-73708571D01*
X164140000Y-113387142D02*
X164168571Y-113444285D01*
X164168571Y-113530000D01*
X164140000Y-113615714D01*
X164082857Y-113672857D01*
X164025714Y-113701428D01*
X163911428Y-113730000D01*
X163825714Y-113730000D01*
X163711428Y-113701428D01*
X163654285Y-113672857D01*
X163597142Y-113615714D01*
X163568571Y-113530000D01*
X163568571Y-113472857D01*
X163597142Y-113387142D01*
X163625714Y-113358571D01*
X163825714Y-113358571D01*
X163825714Y-113472857D01*
X163568571Y-113101428D02*
X164168571Y-113101428D01*
X163568571Y-112758571D01*
X164168571Y-112758571D01*
X163568571Y-112472857D02*
X164168571Y-112472857D01*
X164168571Y-112330000D01*
X164140000Y-112244285D01*
X164082857Y-112187142D01*
X164025714Y-112158571D01*
X163911428Y-112130000D01*
X163825714Y-112130000D01*
X163711428Y-112158571D01*
X163654285Y-112187142D01*
X163597142Y-112244285D01*
X163568571Y-112330000D01*
X163568571Y-112472857D01*
X138447142Y-74268571D02*
X138818571Y-74268571D01*
X138618571Y-74040000D01*
X138704285Y-74040000D01*
X138761428Y-74011428D01*
X138790000Y-73982857D01*
X138818571Y-73925714D01*
X138818571Y-73782857D01*
X138790000Y-73725714D01*
X138761428Y-73697142D01*
X138704285Y-73668571D01*
X138532857Y-73668571D01*
X138475714Y-73697142D01*
X138447142Y-73725714D01*
X138990000Y-74268571D02*
X139190000Y-73668571D01*
X139390000Y-74268571D01*
X139532857Y-74268571D02*
X139904285Y-74268571D01*
X139704285Y-74040000D01*
X139790000Y-74040000D01*
X139847142Y-74011428D01*
X139875714Y-73982857D01*
X139904285Y-73925714D01*
X139904285Y-73782857D01*
X139875714Y-73725714D01*
X139847142Y-73697142D01*
X139790000Y-73668571D01*
X139618571Y-73668571D01*
X139561428Y-73697142D01*
X139532857Y-73725714D01*
X118314285Y-89362857D02*
X118228571Y-89391428D01*
X118085714Y-89391428D01*
X118028571Y-89362857D01*
X118000000Y-89334285D01*
X117971428Y-89277142D01*
X117971428Y-89220000D01*
X118000000Y-89162857D01*
X118028571Y-89134285D01*
X118085714Y-89105714D01*
X118200000Y-89077142D01*
X118257142Y-89048571D01*
X118285714Y-89020000D01*
X118314285Y-88962857D01*
X118314285Y-88905714D01*
X118285714Y-88848571D01*
X118257142Y-88820000D01*
X118200000Y-88791428D01*
X118057142Y-88791428D01*
X117971428Y-88820000D01*
X117371428Y-89334285D02*
X117400000Y-89362857D01*
X117485714Y-89391428D01*
X117542857Y-89391428D01*
X117628571Y-89362857D01*
X117685714Y-89305714D01*
X117714285Y-89248571D01*
X117742857Y-89134285D01*
X117742857Y-89048571D01*
X117714285Y-88934285D01*
X117685714Y-88877142D01*
X117628571Y-88820000D01*
X117542857Y-88791428D01*
X117485714Y-88791428D01*
X117400000Y-88820000D01*
X117371428Y-88848571D01*
X116828571Y-89391428D02*
X117114285Y-89391428D01*
X117114285Y-88791428D01*
X169592857Y-91971428D02*
X169592857Y-91371428D01*
X169392857Y-91800000D01*
X169192857Y-91371428D01*
X169192857Y-91971428D01*
X168792857Y-91371428D02*
X168678571Y-91371428D01*
X168621428Y-91400000D01*
X168564285Y-91457142D01*
X168535714Y-91571428D01*
X168535714Y-91771428D01*
X168564285Y-91885714D01*
X168621428Y-91942857D01*
X168678571Y-91971428D01*
X168792857Y-91971428D01*
X168850000Y-91942857D01*
X168907142Y-91885714D01*
X168935714Y-91771428D01*
X168935714Y-91571428D01*
X168907142Y-91457142D01*
X168850000Y-91400000D01*
X168792857Y-91371428D01*
X168307142Y-91942857D02*
X168221428Y-91971428D01*
X168078571Y-91971428D01*
X168021428Y-91942857D01*
X167992857Y-91914285D01*
X167964285Y-91857142D01*
X167964285Y-91800000D01*
X167992857Y-91742857D01*
X168021428Y-91714285D01*
X168078571Y-91685714D01*
X168192857Y-91657142D01*
X168250000Y-91628571D01*
X168278571Y-91600000D01*
X168307142Y-91542857D01*
X168307142Y-91485714D01*
X168278571Y-91428571D01*
X168250000Y-91400000D01*
X168192857Y-91371428D01*
X168050000Y-91371428D01*
X167964285Y-91400000D01*
X167707142Y-91971428D02*
X167707142Y-91371428D01*
X143871428Y-67910000D02*
X144157142Y-67910000D01*
X143814285Y-67738571D02*
X144014285Y-68338571D01*
X144214285Y-67738571D01*
X144700000Y-68338571D02*
X144414285Y-68338571D01*
X144385714Y-68052857D01*
X144414285Y-68081428D01*
X144471428Y-68110000D01*
X144614285Y-68110000D01*
X144671428Y-68081428D01*
X144700000Y-68052857D01*
X144728571Y-67995714D01*
X144728571Y-67852857D01*
X144700000Y-67795714D01*
X144671428Y-67767142D01*
X144614285Y-67738571D01*
X144471428Y-67738571D01*
X144414285Y-67767142D01*
X144385714Y-67795714D01*
X134342857Y-112047142D02*
X134257142Y-112075714D01*
X134228571Y-112104285D01*
X134200000Y-112161428D01*
X134200000Y-112247142D01*
X134228571Y-112304285D01*
X134257142Y-112332857D01*
X134314285Y-112361428D01*
X134542857Y-112361428D01*
X134542857Y-111761428D01*
X134342857Y-111761428D01*
X134285714Y-111790000D01*
X134257142Y-111818571D01*
X134228571Y-111875714D01*
X134228571Y-111932857D01*
X134257142Y-111990000D01*
X134285714Y-112018571D01*
X134342857Y-112047142D01*
X134542857Y-112047142D01*
X133828571Y-111761428D02*
X133771428Y-111761428D01*
X133714285Y-111790000D01*
X133685714Y-111818571D01*
X133657142Y-111875714D01*
X133628571Y-111990000D01*
X133628571Y-112132857D01*
X133657142Y-112247142D01*
X133685714Y-112304285D01*
X133714285Y-112332857D01*
X133771428Y-112361428D01*
X133828571Y-112361428D01*
X133885714Y-112332857D01*
X133914285Y-112304285D01*
X133942857Y-112247142D01*
X133971428Y-112132857D01*
X133971428Y-111990000D01*
X133942857Y-111875714D01*
X133914285Y-111818571D01*
X133885714Y-111790000D01*
X133828571Y-111761428D01*
X133300000Y-73917142D02*
X133757142Y-73917142D01*
X133528571Y-73688571D02*
X133528571Y-74145714D01*
X134014285Y-74231428D02*
X134042857Y-74260000D01*
X134100000Y-74288571D01*
X134242857Y-74288571D01*
X134300000Y-74260000D01*
X134328571Y-74231428D01*
X134357142Y-74174285D01*
X134357142Y-74117142D01*
X134328571Y-74031428D01*
X133985714Y-73688571D01*
X134357142Y-73688571D01*
X134871428Y-74088571D02*
X134871428Y-73688571D01*
X134728571Y-74317142D02*
X134585714Y-73888571D01*
X134957142Y-73888571D01*
X157740000Y-113378571D02*
X157740000Y-113092857D01*
X157568571Y-113435714D02*
X158168571Y-113235714D01*
X157568571Y-113035714D01*
X158111428Y-112864285D02*
X158140000Y-112835714D01*
X158168571Y-112778571D01*
X158168571Y-112635714D01*
X158140000Y-112578571D01*
X158111428Y-112550000D01*
X158054285Y-112521428D01*
X157997142Y-112521428D01*
X157911428Y-112550000D01*
X157568571Y-112892857D01*
X157568571Y-112521428D01*
X156300000Y-94324285D02*
X156328571Y-94352857D01*
X156414285Y-94381428D01*
X156471428Y-94381428D01*
X156557142Y-94352857D01*
X156614285Y-94295714D01*
X156642857Y-94238571D01*
X156671428Y-94124285D01*
X156671428Y-94038571D01*
X156642857Y-93924285D01*
X156614285Y-93867142D01*
X156557142Y-93810000D01*
X156471428Y-93781428D01*
X156414285Y-93781428D01*
X156328571Y-93810000D01*
X156300000Y-93838571D01*
X156071428Y-94210000D02*
X155785714Y-94210000D01*
X156128571Y-94381428D02*
X155928571Y-93781428D01*
X155728571Y-94381428D01*
X155528571Y-94381428D02*
X155528571Y-93781428D01*
X155185714Y-94381428D01*
X155185714Y-93781428D01*
X154900000Y-94381428D02*
X154900000Y-93781428D01*
X154900000Y-94067142D02*
X154557142Y-94067142D01*
X154557142Y-94381428D02*
X154557142Y-93781428D01*
X147572857Y-111761428D02*
X147201428Y-111761428D01*
X147401428Y-111990000D01*
X147315714Y-111990000D01*
X147258571Y-112018571D01*
X147230000Y-112047142D01*
X147201428Y-112104285D01*
X147201428Y-112247142D01*
X147230000Y-112304285D01*
X147258571Y-112332857D01*
X147315714Y-112361428D01*
X147487142Y-112361428D01*
X147544285Y-112332857D01*
X147572857Y-112304285D01*
X147030000Y-111761428D02*
X146830000Y-112361428D01*
X146630000Y-111761428D01*
X146487142Y-111761428D02*
X146115714Y-111761428D01*
X146315714Y-111990000D01*
X146230000Y-111990000D01*
X146172857Y-112018571D01*
X146144285Y-112047142D01*
X146115714Y-112104285D01*
X146115714Y-112247142D01*
X146144285Y-112304285D01*
X146172857Y-112332857D01*
X146230000Y-112361428D01*
X146401428Y-112361428D01*
X146458571Y-112332857D01*
X146487142Y-112304285D01*
X118010000Y-97014285D02*
X118038571Y-97042857D01*
X118124285Y-97071428D01*
X118181428Y-97071428D01*
X118267142Y-97042857D01*
X118324285Y-96985714D01*
X118352857Y-96928571D01*
X118381428Y-96814285D01*
X118381428Y-96728571D01*
X118352857Y-96614285D01*
X118324285Y-96557142D01*
X118267142Y-96500000D01*
X118181428Y-96471428D01*
X118124285Y-96471428D01*
X118038571Y-96500000D01*
X118010000Y-96528571D01*
X117781428Y-96900000D02*
X117495714Y-96900000D01*
X117838571Y-97071428D02*
X117638571Y-96471428D01*
X117438571Y-97071428D01*
X117238571Y-97071428D02*
X117238571Y-96471428D01*
X116895714Y-97071428D01*
X116895714Y-96471428D01*
X116610000Y-97071428D02*
X116610000Y-96471428D01*
X116610000Y-96757142D02*
X116267142Y-96757142D01*
X116267142Y-97071428D02*
X116267142Y-96471428D01*
X125360000Y-101832857D02*
X124902857Y-101832857D01*
X125131428Y-102061428D02*
X125131428Y-101604285D01*
X124645714Y-101518571D02*
X124617142Y-101490000D01*
X124560000Y-101461428D01*
X124417142Y-101461428D01*
X124360000Y-101490000D01*
X124331428Y-101518571D01*
X124302857Y-101575714D01*
X124302857Y-101632857D01*
X124331428Y-101718571D01*
X124674285Y-102061428D01*
X124302857Y-102061428D01*
X123788571Y-101661428D02*
X123788571Y-102061428D01*
X123931428Y-101432857D02*
X124074285Y-101861428D01*
X123702857Y-101861428D01*
X162211428Y-94592857D02*
X162125714Y-94621428D01*
X161982857Y-94621428D01*
X161925714Y-94592857D01*
X161897142Y-94564285D01*
X161868571Y-94507142D01*
X161868571Y-94450000D01*
X161897142Y-94392857D01*
X161925714Y-94364285D01*
X161982857Y-94335714D01*
X162097142Y-94307142D01*
X162154285Y-94278571D01*
X162182857Y-94250000D01*
X162211428Y-94192857D01*
X162211428Y-94135714D01*
X162182857Y-94078571D01*
X162154285Y-94050000D01*
X162097142Y-94021428D01*
X161954285Y-94021428D01*
X161868571Y-94050000D01*
X161268571Y-94564285D02*
X161297142Y-94592857D01*
X161382857Y-94621428D01*
X161440000Y-94621428D01*
X161525714Y-94592857D01*
X161582857Y-94535714D01*
X161611428Y-94478571D01*
X161640000Y-94364285D01*
X161640000Y-94278571D01*
X161611428Y-94164285D01*
X161582857Y-94107142D01*
X161525714Y-94050000D01*
X161440000Y-94021428D01*
X161382857Y-94021428D01*
X161297142Y-94050000D01*
X161268571Y-94078571D01*
X161011428Y-94621428D02*
X161011428Y-94021428D01*
X160668571Y-94621428D02*
X160925714Y-94278571D01*
X160668571Y-94021428D02*
X161011428Y-94364285D01*
%TO.C,REF\u002A\u002A*%
G36*
X143517275Y-98668931D02*
G01*
X143601095Y-99113555D01*
X144219667Y-99368551D01*
X144590707Y-99116246D01*
X144664144Y-99066506D01*
X144761499Y-99001218D01*
X144845787Y-98945454D01*
X144912631Y-98902078D01*
X144957654Y-98873953D01*
X144976478Y-98863942D01*
X144988039Y-98871061D01*
X145022596Y-98900894D01*
X145074894Y-98949852D01*
X145140500Y-99013440D01*
X145214983Y-99087163D01*
X145293913Y-99166525D01*
X145372856Y-99247031D01*
X145447384Y-99324185D01*
X145513063Y-99393493D01*
X145565463Y-99450457D01*
X145600153Y-99490584D01*
X145612701Y-99509377D01*
X145609782Y-99517451D01*
X145589571Y-99553469D01*
X145552663Y-99612744D01*
X145502050Y-99690630D01*
X145440725Y-99782481D01*
X145371679Y-99883650D01*
X145333787Y-99938826D01*
X145268606Y-100034884D01*
X145212723Y-100118717D01*
X145169117Y-100185777D01*
X145140769Y-100231519D01*
X145130657Y-100251396D01*
X145130823Y-100252497D01*
X145139743Y-100277694D01*
X145160206Y-100329147D01*
X145189360Y-100400135D01*
X145224353Y-100483935D01*
X145262332Y-100573828D01*
X145300445Y-100663091D01*
X145335839Y-100745003D01*
X145365662Y-100812843D01*
X145387061Y-100859890D01*
X145397184Y-100879422D01*
X145403174Y-100881155D01*
X145439566Y-100888969D01*
X145504427Y-100901915D01*
X145592565Y-100918979D01*
X145698787Y-100939151D01*
X145817902Y-100961418D01*
X145880683Y-100973223D01*
X145995912Y-100995748D01*
X146096662Y-101016550D01*
X146177426Y-101034435D01*
X146232698Y-101048208D01*
X146256971Y-101056674D01*
X146261331Y-101065066D01*
X146268563Y-101106072D01*
X146274246Y-101174368D01*
X146278382Y-101263529D01*
X146280977Y-101367128D01*
X146282036Y-101478740D01*
X146281561Y-101591938D01*
X146279559Y-101700296D01*
X146276033Y-101797389D01*
X146270987Y-101876790D01*
X146264427Y-101932072D01*
X146256356Y-101956810D01*
X146251458Y-101959600D01*
X146214930Y-101971569D01*
X146151565Y-101987405D01*
X146068686Y-102005374D01*
X145973618Y-102023741D01*
X145941542Y-102029591D01*
X145793393Y-102056798D01*
X145676961Y-102078663D01*
X145588209Y-102096093D01*
X145523103Y-102109996D01*
X145477606Y-102121277D01*
X145447682Y-102130843D01*
X145429294Y-102139601D01*
X145418407Y-102148457D01*
X145417142Y-102149943D01*
X145399338Y-102180931D01*
X145372994Y-102237634D01*
X145340661Y-102313399D01*
X145304893Y-102401574D01*
X145268244Y-102495507D01*
X145233266Y-102588547D01*
X145202513Y-102674041D01*
X145178538Y-102745336D01*
X145163895Y-102795782D01*
X145161136Y-102818726D01*
X145162981Y-102821703D01*
X145182075Y-102850493D01*
X145217984Y-102903595D01*
X145267378Y-102976117D01*
X145326927Y-103063167D01*
X145393303Y-103159854D01*
X145411520Y-103186456D01*
X145475577Y-103281875D01*
X145530937Y-103367212D01*
X145574439Y-103437405D01*
X145602924Y-103487394D01*
X145613232Y-103512116D01*
X145611011Y-103518616D01*
X145587858Y-103550644D01*
X145542177Y-103602945D01*
X145477241Y-103671999D01*
X145396319Y-103754286D01*
X145302685Y-103846286D01*
X145249165Y-103897781D01*
X145164542Y-103977983D01*
X145090475Y-104046678D01*
X145030941Y-104100252D01*
X144989917Y-104135085D01*
X144971381Y-104147563D01*
X144958646Y-104142938D01*
X144919436Y-104121057D01*
X144862495Y-104085273D01*
X144795250Y-104040117D01*
X144747438Y-104007165D01*
X144651985Y-103941727D01*
X144550125Y-103872228D01*
X144457088Y-103809075D01*
X144274832Y-103685800D01*
X144121841Y-103768520D01*
X144085817Y-103787613D01*
X144020303Y-103820272D01*
X143969640Y-103842819D01*
X143942564Y-103851226D01*
X143933703Y-103840430D01*
X143911699Y-103799323D01*
X143879199Y-103731549D01*
X143838010Y-103641409D01*
X143789942Y-103533205D01*
X143736802Y-103411237D01*
X143680399Y-103279808D01*
X143622542Y-103143218D01*
X143565038Y-103005767D01*
X143509697Y-102871758D01*
X143458326Y-102745491D01*
X143412735Y-102631268D01*
X143374732Y-102533390D01*
X143346124Y-102456157D01*
X143328721Y-102403871D01*
X143324331Y-102380833D01*
X143324628Y-102380160D01*
X143345077Y-102358863D01*
X143387850Y-102325508D01*
X143444117Y-102287011D01*
X143461877Y-102275256D01*
X143597014Y-102163735D01*
X143708856Y-102030906D01*
X143794755Y-101882298D01*
X143852062Y-101723440D01*
X143878131Y-101559860D01*
X143870313Y-101397088D01*
X143838644Y-101252315D01*
X143781782Y-101106124D01*
X143698888Y-100975703D01*
X143585131Y-100851813D01*
X143540433Y-100812235D01*
X143395935Y-100714723D01*
X143239838Y-100649050D01*
X143076667Y-100614630D01*
X142910943Y-100610874D01*
X142747192Y-100637194D01*
X142589936Y-100693003D01*
X142443698Y-100777714D01*
X142313004Y-100890737D01*
X142202374Y-101031487D01*
X142181105Y-101066342D01*
X142108810Y-101225655D01*
X142070415Y-101391552D01*
X142064914Y-101559737D01*
X142091301Y-101725913D01*
X142148570Y-101885784D01*
X142235717Y-102035053D01*
X142351736Y-102169423D01*
X142495622Y-102284599D01*
X142500294Y-102287702D01*
X142555964Y-102326933D01*
X142597689Y-102360286D01*
X142616746Y-102380833D01*
X142614342Y-102396941D01*
X142599391Y-102443844D01*
X142572881Y-102516539D01*
X142536620Y-102610725D01*
X142492416Y-102722098D01*
X142442076Y-102846358D01*
X142387407Y-102979202D01*
X142330218Y-103116327D01*
X142272316Y-103253432D01*
X142215510Y-103386215D01*
X142161606Y-103510374D01*
X142112412Y-103621606D01*
X142069737Y-103715609D01*
X142035387Y-103788082D01*
X142011171Y-103834722D01*
X141998897Y-103851226D01*
X141988689Y-103848991D01*
X141948586Y-103832926D01*
X141889318Y-103804759D01*
X141819619Y-103768520D01*
X141666629Y-103685800D01*
X141484373Y-103809075D01*
X141430527Y-103845579D01*
X141330374Y-103913784D01*
X141230525Y-103982098D01*
X141146211Y-104040117D01*
X141099679Y-104071736D01*
X141039200Y-104111020D01*
X140994357Y-104137912D01*
X140972455Y-104147883D01*
X140963045Y-104143650D01*
X140929031Y-104117721D01*
X140876595Y-104072070D01*
X140810301Y-104011186D01*
X140734713Y-103939561D01*
X140654396Y-103861683D01*
X140573913Y-103782045D01*
X140497829Y-103705135D01*
X140430707Y-103635445D01*
X140377112Y-103577464D01*
X140341608Y-103535684D01*
X140328759Y-103514593D01*
X140329500Y-103510581D01*
X140344793Y-103477920D01*
X140377462Y-103421412D01*
X140424350Y-103346163D01*
X140482301Y-103257275D01*
X140548157Y-103159854D01*
X140566627Y-103132982D01*
X140631482Y-103038423D01*
X140688609Y-102954827D01*
X140734678Y-102887084D01*
X140766359Y-102840086D01*
X140780324Y-102818726D01*
X140780668Y-102817811D01*
X140776546Y-102791678D01*
X140760807Y-102738740D01*
X140736004Y-102665647D01*
X140704689Y-102579052D01*
X140669417Y-102485608D01*
X140632740Y-102391965D01*
X140597212Y-102304777D01*
X140565386Y-102230695D01*
X140539816Y-102176371D01*
X140523053Y-102148457D01*
X140521374Y-102146724D01*
X140509372Y-102137956D01*
X140489103Y-102129115D01*
X140456529Y-102119292D01*
X140407616Y-102107583D01*
X140338327Y-102093080D01*
X140244625Y-102074876D01*
X140122476Y-102052066D01*
X139967842Y-102023741D01*
X139935770Y-102017780D01*
X139843893Y-101999352D01*
X139766607Y-101981892D01*
X139711236Y-101967133D01*
X139685105Y-101956810D01*
X139680733Y-101948197D01*
X139673445Y-101906826D01*
X139667669Y-101838241D01*
X139663410Y-101748868D01*
X139660673Y-101645135D01*
X139659462Y-101533465D01*
X139659782Y-101420287D01*
X139661636Y-101312026D01*
X139665030Y-101215108D01*
X139669967Y-101135959D01*
X139676452Y-101081006D01*
X139684489Y-101056674D01*
X139692696Y-101053079D01*
X139733519Y-101041748D01*
X139802524Y-101025722D01*
X139894203Y-101006195D01*
X140003050Y-100984362D01*
X140123558Y-100961418D01*
X140189357Y-100949159D01*
X140302135Y-100927901D01*
X140399207Y-100909287D01*
X140475382Y-100894328D01*
X140525469Y-100884036D01*
X140544276Y-100879422D01*
X140544983Y-100878471D01*
X140556961Y-100854310D01*
X140579794Y-100803694D01*
X140610630Y-100733338D01*
X140646613Y-100649958D01*
X140684891Y-100560270D01*
X140722609Y-100470989D01*
X140756913Y-100388832D01*
X140784949Y-100320513D01*
X140803864Y-100272748D01*
X140810803Y-100252254D01*
X140807742Y-100245043D01*
X140787372Y-100210728D01*
X140750422Y-100152970D01*
X140699860Y-100076299D01*
X140638657Y-99985248D01*
X140569781Y-99884350D01*
X140531994Y-99829093D01*
X140466782Y-99732215D01*
X140410871Y-99647193D01*
X140367241Y-99578662D01*
X140338877Y-99531260D01*
X140328759Y-99509623D01*
X140335790Y-99497887D01*
X140365197Y-99462818D01*
X140413441Y-99409745D01*
X140476093Y-99343164D01*
X140548725Y-99267574D01*
X140626908Y-99187472D01*
X140706214Y-99107354D01*
X140782213Y-99031718D01*
X140850478Y-98965062D01*
X140906580Y-98911882D01*
X140946090Y-98876676D01*
X140964579Y-98863942D01*
X140974843Y-98868893D01*
X141012530Y-98891857D01*
X141073348Y-98930938D01*
X141152913Y-98983272D01*
X141246843Y-99045996D01*
X141350754Y-99116246D01*
X141721794Y-99368551D01*
X142031080Y-99241053D01*
X142340365Y-99113555D01*
X142424186Y-98668931D01*
X142508006Y-98224307D01*
X143433454Y-98224307D01*
X143517275Y-98668931D01*
G37*
D15*
X143517275Y-98668931D02*
X143601095Y-99113555D01*
X144219667Y-99368551D01*
X144590707Y-99116246D01*
X144664144Y-99066506D01*
X144761499Y-99001218D01*
X144845787Y-98945454D01*
X144912631Y-98902078D01*
X144957654Y-98873953D01*
X144976478Y-98863942D01*
X144988039Y-98871061D01*
X145022596Y-98900894D01*
X145074894Y-98949852D01*
X145140500Y-99013440D01*
X145214983Y-99087163D01*
X145293913Y-99166525D01*
X145372856Y-99247031D01*
X145447384Y-99324185D01*
X145513063Y-99393493D01*
X145565463Y-99450457D01*
X145600153Y-99490584D01*
X145612701Y-99509377D01*
X145609782Y-99517451D01*
X145589571Y-99553469D01*
X145552663Y-99612744D01*
X145502050Y-99690630D01*
X145440725Y-99782481D01*
X145371679Y-99883650D01*
X145333787Y-99938826D01*
X145268606Y-100034884D01*
X145212723Y-100118717D01*
X145169117Y-100185777D01*
X145140769Y-100231519D01*
X145130657Y-100251396D01*
X145130823Y-100252497D01*
X145139743Y-100277694D01*
X145160206Y-100329147D01*
X145189360Y-100400135D01*
X145224353Y-100483935D01*
X145262332Y-100573828D01*
X145300445Y-100663091D01*
X145335839Y-100745003D01*
X145365662Y-100812843D01*
X145387061Y-100859890D01*
X145397184Y-100879422D01*
X145403174Y-100881155D01*
X145439566Y-100888969D01*
X145504427Y-100901915D01*
X145592565Y-100918979D01*
X145698787Y-100939151D01*
X145817902Y-100961418D01*
X145880683Y-100973223D01*
X145995912Y-100995748D01*
X146096662Y-101016550D01*
X146177426Y-101034435D01*
X146232698Y-101048208D01*
X146256971Y-101056674D01*
X146261331Y-101065066D01*
X146268563Y-101106072D01*
X146274246Y-101174368D01*
X146278382Y-101263529D01*
X146280977Y-101367128D01*
X146282036Y-101478740D01*
X146281561Y-101591938D01*
X146279559Y-101700296D01*
X146276033Y-101797389D01*
X146270987Y-101876790D01*
X146264427Y-101932072D01*
X146256356Y-101956810D01*
X146251458Y-101959600D01*
X146214930Y-101971569D01*
X146151565Y-101987405D01*
X146068686Y-102005374D01*
X145973618Y-102023741D01*
X145941542Y-102029591D01*
X145793393Y-102056798D01*
X145676961Y-102078663D01*
X145588209Y-102096093D01*
X145523103Y-102109996D01*
X145477606Y-102121277D01*
X145447682Y-102130843D01*
X145429294Y-102139601D01*
X145418407Y-102148457D01*
X145417142Y-102149943D01*
X145399338Y-102180931D01*
X145372994Y-102237634D01*
X145340661Y-102313399D01*
X145304893Y-102401574D01*
X145268244Y-102495507D01*
X145233266Y-102588547D01*
X145202513Y-102674041D01*
X145178538Y-102745336D01*
X145163895Y-102795782D01*
X145161136Y-102818726D01*
X145162981Y-102821703D01*
X145182075Y-102850493D01*
X145217984Y-102903595D01*
X145267378Y-102976117D01*
X145326927Y-103063167D01*
X145393303Y-103159854D01*
X145411520Y-103186456D01*
X145475577Y-103281875D01*
X145530937Y-103367212D01*
X145574439Y-103437405D01*
X145602924Y-103487394D01*
X145613232Y-103512116D01*
X145611011Y-103518616D01*
X145587858Y-103550644D01*
X145542177Y-103602945D01*
X145477241Y-103671999D01*
X145396319Y-103754286D01*
X145302685Y-103846286D01*
X145249165Y-103897781D01*
X145164542Y-103977983D01*
X145090475Y-104046678D01*
X145030941Y-104100252D01*
X144989917Y-104135085D01*
X144971381Y-104147563D01*
X144958646Y-104142938D01*
X144919436Y-104121057D01*
X144862495Y-104085273D01*
X144795250Y-104040117D01*
X144747438Y-104007165D01*
X144651985Y-103941727D01*
X144550125Y-103872228D01*
X144457088Y-103809075D01*
X144274832Y-103685800D01*
X144121841Y-103768520D01*
X144085817Y-103787613D01*
X144020303Y-103820272D01*
X143969640Y-103842819D01*
X143942564Y-103851226D01*
X143933703Y-103840430D01*
X143911699Y-103799323D01*
X143879199Y-103731549D01*
X143838010Y-103641409D01*
X143789942Y-103533205D01*
X143736802Y-103411237D01*
X143680399Y-103279808D01*
X143622542Y-103143218D01*
X143565038Y-103005767D01*
X143509697Y-102871758D01*
X143458326Y-102745491D01*
X143412735Y-102631268D01*
X143374732Y-102533390D01*
X143346124Y-102456157D01*
X143328721Y-102403871D01*
X143324331Y-102380833D01*
X143324628Y-102380160D01*
X143345077Y-102358863D01*
X143387850Y-102325508D01*
X143444117Y-102287011D01*
X143461877Y-102275256D01*
X143597014Y-102163735D01*
X143708856Y-102030906D01*
X143794755Y-101882298D01*
X143852062Y-101723440D01*
X143878131Y-101559860D01*
X143870313Y-101397088D01*
X143838644Y-101252315D01*
X143781782Y-101106124D01*
X143698888Y-100975703D01*
X143585131Y-100851813D01*
X143540433Y-100812235D01*
X143395935Y-100714723D01*
X143239838Y-100649050D01*
X143076667Y-100614630D01*
X142910943Y-100610874D01*
X142747192Y-100637194D01*
X142589936Y-100693003D01*
X142443698Y-100777714D01*
X142313004Y-100890737D01*
X142202374Y-101031487D01*
X142181105Y-101066342D01*
X142108810Y-101225655D01*
X142070415Y-101391552D01*
X142064914Y-101559737D01*
X142091301Y-101725913D01*
X142148570Y-101885784D01*
X142235717Y-102035053D01*
X142351736Y-102169423D01*
X142495622Y-102284599D01*
X142500294Y-102287702D01*
X142555964Y-102326933D01*
X142597689Y-102360286D01*
X142616746Y-102380833D01*
X142614342Y-102396941D01*
X142599391Y-102443844D01*
X142572881Y-102516539D01*
X142536620Y-102610725D01*
X142492416Y-102722098D01*
X142442076Y-102846358D01*
X142387407Y-102979202D01*
X142330218Y-103116327D01*
X142272316Y-103253432D01*
X142215510Y-103386215D01*
X142161606Y-103510374D01*
X142112412Y-103621606D01*
X142069737Y-103715609D01*
X142035387Y-103788082D01*
X142011171Y-103834722D01*
X141998897Y-103851226D01*
X141988689Y-103848991D01*
X141948586Y-103832926D01*
X141889318Y-103804759D01*
X141819619Y-103768520D01*
X141666629Y-103685800D01*
X141484373Y-103809075D01*
X141430527Y-103845579D01*
X141330374Y-103913784D01*
X141230525Y-103982098D01*
X141146211Y-104040117D01*
X141099679Y-104071736D01*
X141039200Y-104111020D01*
X140994357Y-104137912D01*
X140972455Y-104147883D01*
X140963045Y-104143650D01*
X140929031Y-104117721D01*
X140876595Y-104072070D01*
X140810301Y-104011186D01*
X140734713Y-103939561D01*
X140654396Y-103861683D01*
X140573913Y-103782045D01*
X140497829Y-103705135D01*
X140430707Y-103635445D01*
X140377112Y-103577464D01*
X140341608Y-103535684D01*
X140328759Y-103514593D01*
X140329500Y-103510581D01*
X140344793Y-103477920D01*
X140377462Y-103421412D01*
X140424350Y-103346163D01*
X140482301Y-103257275D01*
X140548157Y-103159854D01*
X140566627Y-103132982D01*
X140631482Y-103038423D01*
X140688609Y-102954827D01*
X140734678Y-102887084D01*
X140766359Y-102840086D01*
X140780324Y-102818726D01*
X140780668Y-102817811D01*
X140776546Y-102791678D01*
X140760807Y-102738740D01*
X140736004Y-102665647D01*
X140704689Y-102579052D01*
X140669417Y-102485608D01*
X140632740Y-102391965D01*
X140597212Y-102304777D01*
X140565386Y-102230695D01*
X140539816Y-102176371D01*
X140523053Y-102148457D01*
X140521374Y-102146724D01*
X140509372Y-102137956D01*
X140489103Y-102129115D01*
X140456529Y-102119292D01*
X140407616Y-102107583D01*
X140338327Y-102093080D01*
X140244625Y-102074876D01*
X140122476Y-102052066D01*
X139967842Y-102023741D01*
X139935770Y-102017780D01*
X139843893Y-101999352D01*
X139766607Y-101981892D01*
X139711236Y-101967133D01*
X139685105Y-101956810D01*
X139680733Y-101948197D01*
X139673445Y-101906826D01*
X139667669Y-101838241D01*
X139663410Y-101748868D01*
X139660673Y-101645135D01*
X139659462Y-101533465D01*
X139659782Y-101420287D01*
X139661636Y-101312026D01*
X139665030Y-101215108D01*
X139669967Y-101135959D01*
X139676452Y-101081006D01*
X139684489Y-101056674D01*
X139692696Y-101053079D01*
X139733519Y-101041748D01*
X139802524Y-101025722D01*
X139894203Y-101006195D01*
X140003050Y-100984362D01*
X140123558Y-100961418D01*
X140189357Y-100949159D01*
X140302135Y-100927901D01*
X140399207Y-100909287D01*
X140475382Y-100894328D01*
X140525469Y-100884036D01*
X140544276Y-100879422D01*
X140544983Y-100878471D01*
X140556961Y-100854310D01*
X140579794Y-100803694D01*
X140610630Y-100733338D01*
X140646613Y-100649958D01*
X140684891Y-100560270D01*
X140722609Y-100470989D01*
X140756913Y-100388832D01*
X140784949Y-100320513D01*
X140803864Y-100272748D01*
X140810803Y-100252254D01*
X140807742Y-100245043D01*
X140787372Y-100210728D01*
X140750422Y-100152970D01*
X140699860Y-100076299D01*
X140638657Y-99985248D01*
X140569781Y-99884350D01*
X140531994Y-99829093D01*
X140466782Y-99732215D01*
X140410871Y-99647193D01*
X140367241Y-99578662D01*
X140338877Y-99531260D01*
X140328759Y-99509623D01*
X140335790Y-99497887D01*
X140365197Y-99462818D01*
X140413441Y-99409745D01*
X140476093Y-99343164D01*
X140548725Y-99267574D01*
X140626908Y-99187472D01*
X140706214Y-99107354D01*
X140782213Y-99031718D01*
X140850478Y-98965062D01*
X140906580Y-98911882D01*
X140946090Y-98876676D01*
X140964579Y-98863942D01*
X140974843Y-98868893D01*
X141012530Y-98891857D01*
X141073348Y-98930938D01*
X141152913Y-98983272D01*
X141246843Y-99045996D01*
X141350754Y-99116246D01*
X141721794Y-99368551D01*
X142031080Y-99241053D01*
X142340365Y-99113555D01*
X142424186Y-98668931D01*
X142508006Y-98224307D01*
X143433454Y-98224307D01*
X143517275Y-98668931D01*
G36*
X127642971Y-118717822D02*
G01*
X124122178Y-118717822D01*
X124122178Y-117850198D01*
X127642971Y-117850198D01*
X127642971Y-118717822D01*
G37*
X127642971Y-118717822D02*
X124122178Y-118717822D01*
X124122178Y-117850198D01*
X127642971Y-117850198D01*
X127642971Y-118717822D01*
G36*
X126881662Y-113460696D02*
G01*
X126921314Y-113461782D01*
X126989109Y-113461782D01*
X126989109Y-113574951D01*
X126829577Y-113574951D01*
X126814682Y-113752732D01*
X126812682Y-113777037D01*
X126808023Y-113837880D01*
X126804731Y-113887389D01*
X126803092Y-113920992D01*
X126803390Y-113934116D01*
X126807724Y-113930343D01*
X126827496Y-113910676D01*
X126861679Y-113875818D01*
X126908541Y-113827576D01*
X126966354Y-113767757D01*
X127033387Y-113698167D01*
X127107912Y-113620615D01*
X127188197Y-113536907D01*
X127272513Y-113448849D01*
X127359130Y-113358250D01*
X127446319Y-113266915D01*
X127532349Y-113176653D01*
X127615492Y-113089269D01*
X127694016Y-113006572D01*
X127766192Y-112930368D01*
X127830291Y-112862463D01*
X127884583Y-112804666D01*
X127981592Y-112701040D01*
X127982034Y-112789315D01*
X127982475Y-112877589D01*
X127381938Y-113509158D01*
X126781401Y-114140726D01*
X126769396Y-114284674D01*
X126721365Y-114860635D01*
X126712876Y-114962791D01*
X126702343Y-115090612D01*
X126692621Y-115209767D01*
X126683898Y-115317914D01*
X126676358Y-115412713D01*
X126670187Y-115491819D01*
X126665573Y-115552892D01*
X126662700Y-115593590D01*
X126661754Y-115611570D01*
X126664251Y-115619808D01*
X126675471Y-115637599D01*
X126696751Y-115664411D01*
X126707021Y-115676129D01*
X126729225Y-115701466D01*
X126774023Y-115749986D01*
X126832281Y-115811192D01*
X126905129Y-115886307D01*
X126993703Y-115976550D01*
X127099134Y-116083145D01*
X127168492Y-116153093D01*
X127265179Y-116250658D01*
X127361526Y-116347941D01*
X127454638Y-116442014D01*
X127541618Y-116529950D01*
X127619569Y-116608820D01*
X127685596Y-116675699D01*
X127736802Y-116727658D01*
X127937514Y-116931620D01*
X127901058Y-116969671D01*
X127892460Y-116978245D01*
X127867095Y-116999297D01*
X127849695Y-117007723D01*
X127836071Y-117000530D01*
X127810743Y-116978944D01*
X127780379Y-116947995D01*
X127761896Y-116928448D01*
X127727427Y-116892752D01*
X127678712Y-116842684D01*
X127617469Y-116780001D01*
X127545420Y-116706457D01*
X127464285Y-116623810D01*
X127375784Y-116533815D01*
X127281637Y-116438228D01*
X127183565Y-116338805D01*
X126641161Y-115789343D01*
X126619066Y-116074746D01*
X126614250Y-116135662D01*
X126607216Y-116217548D01*
X126600872Y-116279569D01*
X126594748Y-116324987D01*
X126588373Y-116357062D01*
X126581277Y-116379052D01*
X126572991Y-116394219D01*
X126561393Y-116415416D01*
X126551850Y-116454386D01*
X126549010Y-116510531D01*
X126549010Y-116592773D01*
X126322674Y-116592773D01*
X126322674Y-116416733D01*
X125477082Y-116416733D01*
X125428203Y-116472262D01*
X125414836Y-116486722D01*
X125342388Y-116544813D01*
X125260532Y-116580576D01*
X125171900Y-116592773D01*
X125093692Y-116586306D01*
X125005233Y-116559047D01*
X124929507Y-116510328D01*
X124914748Y-116496403D01*
X124877864Y-116451328D01*
X124845503Y-116398819D01*
X124822297Y-116347061D01*
X124812879Y-116304239D01*
X124812697Y-116298023D01*
X124811342Y-116275246D01*
X124807800Y-116259513D01*
X124800390Y-116252068D01*
X124787431Y-116254156D01*
X124767243Y-116267020D01*
X124738145Y-116291905D01*
X124698456Y-116330053D01*
X124646496Y-116382710D01*
X124580584Y-116451119D01*
X124499040Y-116536524D01*
X124455604Y-116582112D01*
X124383000Y-116658441D01*
X124314309Y-116730808D01*
X124252223Y-116796366D01*
X124199434Y-116852274D01*
X124158634Y-116895686D01*
X124132515Y-116923758D01*
X124061119Y-117001436D01*
X123972863Y-116913416D01*
X124518690Y-116341287D01*
X124553105Y-116305188D01*
X124675546Y-116176272D01*
X124780651Y-116064754D01*
X124868736Y-115970288D01*
X124940116Y-115892529D01*
X124990588Y-115836174D01*
X125197247Y-115836174D01*
X125198872Y-115849434D01*
X125199156Y-115850819D01*
X125212698Y-115882228D01*
X125239748Y-115896863D01*
X125323129Y-115928063D01*
X125397418Y-115980038D01*
X125455846Y-116048791D01*
X125495890Y-116131315D01*
X125515026Y-116224606D01*
X125521364Y-116303565D01*
X126470838Y-116303565D01*
X126477458Y-116275273D01*
X126478629Y-116268329D01*
X126482268Y-116237281D01*
X126487234Y-116187081D01*
X126493157Y-116121727D01*
X126499669Y-116045219D01*
X126506401Y-115961555D01*
X126528724Y-115676129D01*
X126227826Y-115370565D01*
X126172636Y-115314704D01*
X126105109Y-115246888D01*
X126044529Y-115186643D01*
X125993021Y-115136052D01*
X125952710Y-115097200D01*
X125925722Y-115072170D01*
X125914182Y-115063046D01*
X125906444Y-115067405D01*
X125883395Y-115087241D01*
X125848709Y-115120375D01*
X125805487Y-115163820D01*
X125756832Y-115214587D01*
X125744140Y-115228051D01*
X125687229Y-115288275D01*
X125619414Y-115359864D01*
X125545800Y-115437437D01*
X125471493Y-115515611D01*
X125401599Y-115589005D01*
X125397401Y-115593409D01*
X125332420Y-115661785D01*
X125282836Y-115714732D01*
X125246688Y-115754767D01*
X125222016Y-115784411D01*
X125206858Y-115806181D01*
X125199256Y-115822595D01*
X125197247Y-115836174D01*
X124990588Y-115836174D01*
X124995105Y-115831131D01*
X125034019Y-115785748D01*
X125057173Y-115756035D01*
X125064882Y-115741644D01*
X125064883Y-115741559D01*
X125063825Y-115723624D01*
X125060737Y-115683421D01*
X125055858Y-115623687D01*
X125049432Y-115547158D01*
X125041700Y-115456569D01*
X125032905Y-115354657D01*
X125023287Y-115244159D01*
X125013091Y-115127811D01*
X125002556Y-115008348D01*
X124991926Y-114888507D01*
X124981442Y-114771025D01*
X124971346Y-114658637D01*
X124961881Y-114554081D01*
X124953288Y-114460091D01*
X124945809Y-114379405D01*
X124939687Y-114314759D01*
X124935162Y-114268888D01*
X124932478Y-114244530D01*
X124927067Y-114203732D01*
X125056253Y-114203732D01*
X125057908Y-114234653D01*
X125061549Y-114286653D01*
X125066995Y-114357487D01*
X125074063Y-114444911D01*
X125082570Y-114546681D01*
X125092335Y-114660552D01*
X125103174Y-114784279D01*
X125114907Y-114915618D01*
X125124079Y-115016908D01*
X125135566Y-115142526D01*
X125146322Y-115258762D01*
X125156131Y-115363380D01*
X125164781Y-115454140D01*
X125172057Y-115528804D01*
X125177746Y-115585134D01*
X125181634Y-115620891D01*
X125183506Y-115633837D01*
X125189188Y-115629826D01*
X125210020Y-115610138D01*
X125243872Y-115576322D01*
X125288412Y-115530837D01*
X125341310Y-115476146D01*
X125400236Y-115414710D01*
X125462858Y-115348990D01*
X125526848Y-115281449D01*
X125589874Y-115214547D01*
X125649606Y-115150746D01*
X125703713Y-115092507D01*
X125749865Y-115042292D01*
X125785733Y-115002563D01*
X125808984Y-114975780D01*
X125815778Y-114966477D01*
X125997601Y-114966477D01*
X126273305Y-115241968D01*
X126340726Y-115309224D01*
X126404267Y-115372162D01*
X126453490Y-115420100D01*
X126490196Y-115454594D01*
X126516190Y-115477199D01*
X126533276Y-115489471D01*
X126543256Y-115492966D01*
X126547935Y-115489238D01*
X126549116Y-115479844D01*
X126549873Y-115464749D01*
X126552601Y-115425883D01*
X126557108Y-115366895D01*
X126563179Y-115290473D01*
X126570596Y-115199305D01*
X126579142Y-115096080D01*
X126588602Y-114983483D01*
X126598758Y-114864205D01*
X126607723Y-114759077D01*
X126617066Y-114648351D01*
X126625443Y-114547814D01*
X126632653Y-114459943D01*
X126638496Y-114387215D01*
X126642769Y-114332110D01*
X126645273Y-114297104D01*
X126645805Y-114284674D01*
X126645384Y-114284908D01*
X126633509Y-114296350D01*
X126607130Y-114323198D01*
X126568570Y-114363018D01*
X126520153Y-114413372D01*
X126464203Y-114471828D01*
X126403042Y-114535948D01*
X126338995Y-114603298D01*
X126274385Y-114671443D01*
X126211535Y-114737948D01*
X126152768Y-114800377D01*
X126100409Y-114856295D01*
X125999533Y-114964406D01*
X125997601Y-114966477D01*
X125815778Y-114966477D01*
X125817290Y-114964406D01*
X125809148Y-114953383D01*
X125785478Y-114926999D01*
X125748478Y-114887527D01*
X125700350Y-114837191D01*
X125643296Y-114778217D01*
X125579520Y-114712830D01*
X125511222Y-114643255D01*
X125440605Y-114571716D01*
X125369871Y-114500438D01*
X125301222Y-114431647D01*
X125236861Y-114367566D01*
X125178989Y-114310422D01*
X125129810Y-114262439D01*
X125091524Y-114225841D01*
X125066334Y-114202854D01*
X125056442Y-114195703D01*
X125056253Y-114203732D01*
X124927067Y-114203732D01*
X124925390Y-114191089D01*
X124650297Y-114191089D01*
X124650140Y-114090495D01*
X124750891Y-114090495D01*
X124832624Y-114090495D01*
X124839895Y-114090489D01*
X124880950Y-114089613D01*
X124903277Y-114085867D01*
X124912529Y-114077270D01*
X124914357Y-114061840D01*
X124906306Y-114039159D01*
X124878730Y-114001428D01*
X124832624Y-113952179D01*
X124750891Y-113871172D01*
X124750891Y-114090495D01*
X124650140Y-114090495D01*
X124649968Y-113980471D01*
X124649639Y-113769852D01*
X124197914Y-113310891D01*
X123746189Y-112851931D01*
X123745570Y-112764848D01*
X123744951Y-112677767D01*
X124286769Y-113226952D01*
X124339137Y-113279998D01*
X124447803Y-113389772D01*
X124540709Y-113483114D01*
X124619055Y-113561173D01*
X124684043Y-113625097D01*
X124736872Y-113676035D01*
X124778743Y-113715135D01*
X124810855Y-113743548D01*
X124834410Y-113762420D01*
X124850608Y-113772901D01*
X124860649Y-113776139D01*
X124877579Y-113775158D01*
X124887084Y-113767996D01*
X124888723Y-113748401D01*
X124884782Y-113710124D01*
X124882065Y-113686025D01*
X124878284Y-113645744D01*
X124876760Y-113618961D01*
X124876015Y-113609728D01*
X124868746Y-113599839D01*
X124848668Y-113596562D01*
X124809689Y-113597992D01*
X124799737Y-113598553D01*
X124759898Y-113597921D01*
X124731560Y-113589167D01*
X124711586Y-113574951D01*
X124994852Y-113574951D01*
X124999013Y-113622104D01*
X125000935Y-113643498D01*
X125006924Y-113701909D01*
X125012826Y-113740381D01*
X125019727Y-113762912D01*
X125028712Y-113773498D01*
X125040870Y-113776139D01*
X125051801Y-113777937D01*
X125059050Y-113786530D01*
X125063100Y-113806505D01*
X125064863Y-113842450D01*
X125065248Y-113898952D01*
X125065248Y-114021766D01*
X125105447Y-114061840D01*
X125203565Y-114159654D01*
X125341881Y-114297542D01*
X125341881Y-114191089D01*
X126096337Y-114191089D01*
X126096337Y-114430000D01*
X125477831Y-114430000D01*
X125687592Y-114646906D01*
X125727770Y-114688334D01*
X125783328Y-114745200D01*
X125831570Y-114794082D01*
X125869971Y-114832441D01*
X125896003Y-114857741D01*
X125907140Y-114867442D01*
X125911373Y-114864767D01*
X125931224Y-114846782D01*
X125965451Y-114813481D01*
X126012227Y-114766712D01*
X126069724Y-114708325D01*
X126136112Y-114640169D01*
X126209564Y-114564094D01*
X126288251Y-114481950D01*
X126367341Y-114398943D01*
X126444871Y-114317136D01*
X126507746Y-114250083D01*
X126557502Y-114196007D01*
X126595678Y-114153129D01*
X126623811Y-114119673D01*
X126643440Y-114093861D01*
X126656101Y-114073914D01*
X126663334Y-114058056D01*
X126666675Y-114044509D01*
X126667561Y-114037910D01*
X126671488Y-114001548D01*
X126676459Y-113948018D01*
X126681927Y-113883421D01*
X126687344Y-113813862D01*
X126689181Y-113789635D01*
X126694488Y-113724178D01*
X126699548Y-113667717D01*
X126703863Y-113625618D01*
X126706934Y-113603243D01*
X126712955Y-113574951D01*
X124994852Y-113574951D01*
X124711586Y-113574951D01*
X124703630Y-113569289D01*
X124698820Y-113565104D01*
X124659482Y-113514427D01*
X124643903Y-113461782D01*
X124984698Y-113461782D01*
X126399221Y-113461782D01*
X126611881Y-113461782D01*
X126668908Y-113461782D01*
X126685993Y-113461662D01*
X126711308Y-113459462D01*
X126718616Y-113452334D01*
X126712943Y-113437508D01*
X126711267Y-113434682D01*
X126692448Y-113412944D01*
X126665183Y-113388820D01*
X126637987Y-113369254D01*
X126619371Y-113361188D01*
X126617697Y-113362463D01*
X126613544Y-113379976D01*
X126611881Y-113411485D01*
X126611881Y-113461782D01*
X126399221Y-113461782D01*
X126395526Y-113371095D01*
X126391832Y-113280407D01*
X126316386Y-113265252D01*
X126278551Y-113258379D01*
X126215368Y-113248756D01*
X126156065Y-113241496D01*
X126071188Y-113232893D01*
X126071188Y-113336040D01*
X125492773Y-113336040D01*
X125492773Y-113245122D01*
X125420471Y-113253753D01*
X125309998Y-113272249D01*
X125198816Y-113305691D01*
X125106850Y-113352324D01*
X125032542Y-113412786D01*
X124984698Y-113461782D01*
X124643903Y-113461782D01*
X124642172Y-113455934D01*
X124647474Y-113394575D01*
X124675975Y-113335297D01*
X124678733Y-113331606D01*
X124716822Y-113299851D01*
X124766476Y-113281067D01*
X124820002Y-113276071D01*
X124869707Y-113285678D01*
X124907900Y-113310704D01*
X124920831Y-113323480D01*
X124933428Y-113326576D01*
X124951467Y-113316998D01*
X124981928Y-113293082D01*
X124991274Y-113285731D01*
X125063430Y-113239339D01*
X125148915Y-113198084D01*
X125218830Y-113172575D01*
X125593367Y-113172575D01*
X125593367Y-113235446D01*
X125970594Y-113235446D01*
X125970594Y-113172575D01*
X125593367Y-113172575D01*
X125218830Y-113172575D01*
X125239767Y-113164936D01*
X125328027Y-113142868D01*
X125405736Y-113134852D01*
X125413991Y-113134788D01*
X125459879Y-113130321D01*
X125485079Y-113117795D01*
X125492773Y-113095784D01*
X125493676Y-113088849D01*
X125498615Y-113082885D01*
X125510611Y-113078519D01*
X125532680Y-113075503D01*
X125567836Y-113073590D01*
X125619094Y-113072530D01*
X125689471Y-113072077D01*
X125781980Y-113071980D01*
X125868660Y-113072150D01*
X125942332Y-113072834D01*
X125996265Y-113074215D01*
X126033288Y-113076470D01*
X126056230Y-113079778D01*
X126067920Y-113084320D01*
X126071188Y-113090272D01*
X126081937Y-113104888D01*
X126112055Y-113114215D01*
X126123582Y-113115847D01*
X126162886Y-113121591D01*
X126215188Y-113129378D01*
X126272376Y-113138003D01*
X126303916Y-113142393D01*
X126350074Y-113147148D01*
X126382641Y-113148295D01*
X126396023Y-113145495D01*
X126398308Y-113143671D01*
X126419405Y-113139165D01*
X126457355Y-113136029D01*
X126506048Y-113134852D01*
X126611881Y-113134852D01*
X126611894Y-113172575D01*
X126611894Y-113175718D01*
X126612388Y-113188668D01*
X126618819Y-113210411D01*
X126637123Y-113228851D01*
X126672830Y-113250801D01*
X126704174Y-113270854D01*
X126751893Y-113309356D01*
X126795138Y-113352579D01*
X126828219Y-113394627D01*
X126845442Y-113429604D01*
X126849662Y-113443081D01*
X126857480Y-113452334D01*
X126860116Y-113455454D01*
X126881662Y-113460696D01*
G37*
X126881662Y-113460696D02*
X126921314Y-113461782D01*
X126989109Y-113461782D01*
X126989109Y-113574951D01*
X126829577Y-113574951D01*
X126814682Y-113752732D01*
X126812682Y-113777037D01*
X126808023Y-113837880D01*
X126804731Y-113887389D01*
X126803092Y-113920992D01*
X126803390Y-113934116D01*
X126807724Y-113930343D01*
X126827496Y-113910676D01*
X126861679Y-113875818D01*
X126908541Y-113827576D01*
X126966354Y-113767757D01*
X127033387Y-113698167D01*
X127107912Y-113620615D01*
X127188197Y-113536907D01*
X127272513Y-113448849D01*
X127359130Y-113358250D01*
X127446319Y-113266915D01*
X127532349Y-113176653D01*
X127615492Y-113089269D01*
X127694016Y-113006572D01*
X127766192Y-112930368D01*
X127830291Y-112862463D01*
X127884583Y-112804666D01*
X127981592Y-112701040D01*
X127982034Y-112789315D01*
X127982475Y-112877589D01*
X127381938Y-113509158D01*
X126781401Y-114140726D01*
X126769396Y-114284674D01*
X126721365Y-114860635D01*
X126712876Y-114962791D01*
X126702343Y-115090612D01*
X126692621Y-115209767D01*
X126683898Y-115317914D01*
X126676358Y-115412713D01*
X126670187Y-115491819D01*
X126665573Y-115552892D01*
X126662700Y-115593590D01*
X126661754Y-115611570D01*
X126664251Y-115619808D01*
X126675471Y-115637599D01*
X126696751Y-115664411D01*
X126707021Y-115676129D01*
X126729225Y-115701466D01*
X126774023Y-115749986D01*
X126832281Y-115811192D01*
X126905129Y-115886307D01*
X126993703Y-115976550D01*
X127099134Y-116083145D01*
X127168492Y-116153093D01*
X127265179Y-116250658D01*
X127361526Y-116347941D01*
X127454638Y-116442014D01*
X127541618Y-116529950D01*
X127619569Y-116608820D01*
X127685596Y-116675699D01*
X127736802Y-116727658D01*
X127937514Y-116931620D01*
X127901058Y-116969671D01*
X127892460Y-116978245D01*
X127867095Y-116999297D01*
X127849695Y-117007723D01*
X127836071Y-117000530D01*
X127810743Y-116978944D01*
X127780379Y-116947995D01*
X127761896Y-116928448D01*
X127727427Y-116892752D01*
X127678712Y-116842684D01*
X127617469Y-116780001D01*
X127545420Y-116706457D01*
X127464285Y-116623810D01*
X127375784Y-116533815D01*
X127281637Y-116438228D01*
X127183565Y-116338805D01*
X126641161Y-115789343D01*
X126619066Y-116074746D01*
X126614250Y-116135662D01*
X126607216Y-116217548D01*
X126600872Y-116279569D01*
X126594748Y-116324987D01*
X126588373Y-116357062D01*
X126581277Y-116379052D01*
X126572991Y-116394219D01*
X126561393Y-116415416D01*
X126551850Y-116454386D01*
X126549010Y-116510531D01*
X126549010Y-116592773D01*
X126322674Y-116592773D01*
X126322674Y-116416733D01*
X125477082Y-116416733D01*
X125428203Y-116472262D01*
X125414836Y-116486722D01*
X125342388Y-116544813D01*
X125260532Y-116580576D01*
X125171900Y-116592773D01*
X125093692Y-116586306D01*
X125005233Y-116559047D01*
X124929507Y-116510328D01*
X124914748Y-116496403D01*
X124877864Y-116451328D01*
X124845503Y-116398819D01*
X124822297Y-116347061D01*
X124812879Y-116304239D01*
X124812697Y-116298023D01*
X124811342Y-116275246D01*
X124807800Y-116259513D01*
X124800390Y-116252068D01*
X124787431Y-116254156D01*
X124767243Y-116267020D01*
X124738145Y-116291905D01*
X124698456Y-116330053D01*
X124646496Y-116382710D01*
X124580584Y-116451119D01*
X124499040Y-116536524D01*
X124455604Y-116582112D01*
X124383000Y-116658441D01*
X124314309Y-116730808D01*
X124252223Y-116796366D01*
X124199434Y-116852274D01*
X124158634Y-116895686D01*
X124132515Y-116923758D01*
X124061119Y-117001436D01*
X123972863Y-116913416D01*
X124518690Y-116341287D01*
X124553105Y-116305188D01*
X124675546Y-116176272D01*
X124780651Y-116064754D01*
X124868736Y-115970288D01*
X124940116Y-115892529D01*
X124990588Y-115836174D01*
X125197247Y-115836174D01*
X125198872Y-115849434D01*
X125199156Y-115850819D01*
X125212698Y-115882228D01*
X125239748Y-115896863D01*
X125323129Y-115928063D01*
X125397418Y-115980038D01*
X125455846Y-116048791D01*
X125495890Y-116131315D01*
X125515026Y-116224606D01*
X125521364Y-116303565D01*
X126470838Y-116303565D01*
X126477458Y-116275273D01*
X126478629Y-116268329D01*
X126482268Y-116237281D01*
X126487234Y-116187081D01*
X126493157Y-116121727D01*
X126499669Y-116045219D01*
X126506401Y-115961555D01*
X126528724Y-115676129D01*
X126227826Y-115370565D01*
X126172636Y-115314704D01*
X126105109Y-115246888D01*
X126044529Y-115186643D01*
X125993021Y-115136052D01*
X125952710Y-115097200D01*
X125925722Y-115072170D01*
X125914182Y-115063046D01*
X125906444Y-115067405D01*
X125883395Y-115087241D01*
X125848709Y-115120375D01*
X125805487Y-115163820D01*
X125756832Y-115214587D01*
X125744140Y-115228051D01*
X125687229Y-115288275D01*
X125619414Y-115359864D01*
X125545800Y-115437437D01*
X125471493Y-115515611D01*
X125401599Y-115589005D01*
X125397401Y-115593409D01*
X125332420Y-115661785D01*
X125282836Y-115714732D01*
X125246688Y-115754767D01*
X125222016Y-115784411D01*
X125206858Y-115806181D01*
X125199256Y-115822595D01*
X125197247Y-115836174D01*
X124990588Y-115836174D01*
X124995105Y-115831131D01*
X125034019Y-115785748D01*
X125057173Y-115756035D01*
X125064882Y-115741644D01*
X125064883Y-115741559D01*
X125063825Y-115723624D01*
X125060737Y-115683421D01*
X125055858Y-115623687D01*
X125049432Y-115547158D01*
X125041700Y-115456569D01*
X125032905Y-115354657D01*
X125023287Y-115244159D01*
X125013091Y-115127811D01*
X125002556Y-115008348D01*
X124991926Y-114888507D01*
X124981442Y-114771025D01*
X124971346Y-114658637D01*
X124961881Y-114554081D01*
X124953288Y-114460091D01*
X124945809Y-114379405D01*
X124939687Y-114314759D01*
X124935162Y-114268888D01*
X124932478Y-114244530D01*
X124927067Y-114203732D01*
X125056253Y-114203732D01*
X125057908Y-114234653D01*
X125061549Y-114286653D01*
X125066995Y-114357487D01*
X125074063Y-114444911D01*
X125082570Y-114546681D01*
X125092335Y-114660552D01*
X125103174Y-114784279D01*
X125114907Y-114915618D01*
X125124079Y-115016908D01*
X125135566Y-115142526D01*
X125146322Y-115258762D01*
X125156131Y-115363380D01*
X125164781Y-115454140D01*
X125172057Y-115528804D01*
X125177746Y-115585134D01*
X125181634Y-115620891D01*
X125183506Y-115633837D01*
X125189188Y-115629826D01*
X125210020Y-115610138D01*
X125243872Y-115576322D01*
X125288412Y-115530837D01*
X125341310Y-115476146D01*
X125400236Y-115414710D01*
X125462858Y-115348990D01*
X125526848Y-115281449D01*
X125589874Y-115214547D01*
X125649606Y-115150746D01*
X125703713Y-115092507D01*
X125749865Y-115042292D01*
X125785733Y-115002563D01*
X125808984Y-114975780D01*
X125815778Y-114966477D01*
X125997601Y-114966477D01*
X126273305Y-115241968D01*
X126340726Y-115309224D01*
X126404267Y-115372162D01*
X126453490Y-115420100D01*
X126490196Y-115454594D01*
X126516190Y-115477199D01*
X126533276Y-115489471D01*
X126543256Y-115492966D01*
X126547935Y-115489238D01*
X126549116Y-115479844D01*
X126549873Y-115464749D01*
X126552601Y-115425883D01*
X126557108Y-115366895D01*
X126563179Y-115290473D01*
X126570596Y-115199305D01*
X126579142Y-115096080D01*
X126588602Y-114983483D01*
X126598758Y-114864205D01*
X126607723Y-114759077D01*
X126617066Y-114648351D01*
X126625443Y-114547814D01*
X126632653Y-114459943D01*
X126638496Y-114387215D01*
X126642769Y-114332110D01*
X126645273Y-114297104D01*
X126645805Y-114284674D01*
X126645384Y-114284908D01*
X126633509Y-114296350D01*
X126607130Y-114323198D01*
X126568570Y-114363018D01*
X126520153Y-114413372D01*
X126464203Y-114471828D01*
X126403042Y-114535948D01*
X126338995Y-114603298D01*
X126274385Y-114671443D01*
X126211535Y-114737948D01*
X126152768Y-114800377D01*
X126100409Y-114856295D01*
X125999533Y-114964406D01*
X125997601Y-114966477D01*
X125815778Y-114966477D01*
X125817290Y-114964406D01*
X125809148Y-114953383D01*
X125785478Y-114926999D01*
X125748478Y-114887527D01*
X125700350Y-114837191D01*
X125643296Y-114778217D01*
X125579520Y-114712830D01*
X125511222Y-114643255D01*
X125440605Y-114571716D01*
X125369871Y-114500438D01*
X125301222Y-114431647D01*
X125236861Y-114367566D01*
X125178989Y-114310422D01*
X125129810Y-114262439D01*
X125091524Y-114225841D01*
X125066334Y-114202854D01*
X125056442Y-114195703D01*
X125056253Y-114203732D01*
X124927067Y-114203732D01*
X124925390Y-114191089D01*
X124650297Y-114191089D01*
X124650140Y-114090495D01*
X124750891Y-114090495D01*
X124832624Y-114090495D01*
X124839895Y-114090489D01*
X124880950Y-114089613D01*
X124903277Y-114085867D01*
X124912529Y-114077270D01*
X124914357Y-114061840D01*
X124906306Y-114039159D01*
X124878730Y-114001428D01*
X124832624Y-113952179D01*
X124750891Y-113871172D01*
X124750891Y-114090495D01*
X124650140Y-114090495D01*
X124649968Y-113980471D01*
X124649639Y-113769852D01*
X124197914Y-113310891D01*
X123746189Y-112851931D01*
X123745570Y-112764848D01*
X123744951Y-112677767D01*
X124286769Y-113226952D01*
X124339137Y-113279998D01*
X124447803Y-113389772D01*
X124540709Y-113483114D01*
X124619055Y-113561173D01*
X124684043Y-113625097D01*
X124736872Y-113676035D01*
X124778743Y-113715135D01*
X124810855Y-113743548D01*
X124834410Y-113762420D01*
X124850608Y-113772901D01*
X124860649Y-113776139D01*
X124877579Y-113775158D01*
X124887084Y-113767996D01*
X124888723Y-113748401D01*
X124884782Y-113710124D01*
X124882065Y-113686025D01*
X124878284Y-113645744D01*
X124876760Y-113618961D01*
X124876015Y-113609728D01*
X124868746Y-113599839D01*
X124848668Y-113596562D01*
X124809689Y-113597992D01*
X124799737Y-113598553D01*
X124759898Y-113597921D01*
X124731560Y-113589167D01*
X124711586Y-113574951D01*
X124994852Y-113574951D01*
X124999013Y-113622104D01*
X125000935Y-113643498D01*
X125006924Y-113701909D01*
X125012826Y-113740381D01*
X125019727Y-113762912D01*
X125028712Y-113773498D01*
X125040870Y-113776139D01*
X125051801Y-113777937D01*
X125059050Y-113786530D01*
X125063100Y-113806505D01*
X125064863Y-113842450D01*
X125065248Y-113898952D01*
X125065248Y-114021766D01*
X125105447Y-114061840D01*
X125203565Y-114159654D01*
X125341881Y-114297542D01*
X125341881Y-114191089D01*
X126096337Y-114191089D01*
X126096337Y-114430000D01*
X125477831Y-114430000D01*
X125687592Y-114646906D01*
X125727770Y-114688334D01*
X125783328Y-114745200D01*
X125831570Y-114794082D01*
X125869971Y-114832441D01*
X125896003Y-114857741D01*
X125907140Y-114867442D01*
X125911373Y-114864767D01*
X125931224Y-114846782D01*
X125965451Y-114813481D01*
X126012227Y-114766712D01*
X126069724Y-114708325D01*
X126136112Y-114640169D01*
X126209564Y-114564094D01*
X126288251Y-114481950D01*
X126367341Y-114398943D01*
X126444871Y-114317136D01*
X126507746Y-114250083D01*
X126557502Y-114196007D01*
X126595678Y-114153129D01*
X126623811Y-114119673D01*
X126643440Y-114093861D01*
X126656101Y-114073914D01*
X126663334Y-114058056D01*
X126666675Y-114044509D01*
X126667561Y-114037910D01*
X126671488Y-114001548D01*
X126676459Y-113948018D01*
X126681927Y-113883421D01*
X126687344Y-113813862D01*
X126689181Y-113789635D01*
X126694488Y-113724178D01*
X126699548Y-113667717D01*
X126703863Y-113625618D01*
X126706934Y-113603243D01*
X126712955Y-113574951D01*
X124994852Y-113574951D01*
X124711586Y-113574951D01*
X124703630Y-113569289D01*
X124698820Y-113565104D01*
X124659482Y-113514427D01*
X124643903Y-113461782D01*
X124984698Y-113461782D01*
X126399221Y-113461782D01*
X126611881Y-113461782D01*
X126668908Y-113461782D01*
X126685993Y-113461662D01*
X126711308Y-113459462D01*
X126718616Y-113452334D01*
X126712943Y-113437508D01*
X126711267Y-113434682D01*
X126692448Y-113412944D01*
X126665183Y-113388820D01*
X126637987Y-113369254D01*
X126619371Y-113361188D01*
X126617697Y-113362463D01*
X126613544Y-113379976D01*
X126611881Y-113411485D01*
X126611881Y-113461782D01*
X126399221Y-113461782D01*
X126395526Y-113371095D01*
X126391832Y-113280407D01*
X126316386Y-113265252D01*
X126278551Y-113258379D01*
X126215368Y-113248756D01*
X126156065Y-113241496D01*
X126071188Y-113232893D01*
X126071188Y-113336040D01*
X125492773Y-113336040D01*
X125492773Y-113245122D01*
X125420471Y-113253753D01*
X125309998Y-113272249D01*
X125198816Y-113305691D01*
X125106850Y-113352324D01*
X125032542Y-113412786D01*
X124984698Y-113461782D01*
X124643903Y-113461782D01*
X124642172Y-113455934D01*
X124647474Y-113394575D01*
X124675975Y-113335297D01*
X124678733Y-113331606D01*
X124716822Y-113299851D01*
X124766476Y-113281067D01*
X124820002Y-113276071D01*
X124869707Y-113285678D01*
X124907900Y-113310704D01*
X124920831Y-113323480D01*
X124933428Y-113326576D01*
X124951467Y-113316998D01*
X124981928Y-113293082D01*
X124991274Y-113285731D01*
X125063430Y-113239339D01*
X125148915Y-113198084D01*
X125218830Y-113172575D01*
X125593367Y-113172575D01*
X125593367Y-113235446D01*
X125970594Y-113235446D01*
X125970594Y-113172575D01*
X125593367Y-113172575D01*
X125218830Y-113172575D01*
X125239767Y-113164936D01*
X125328027Y-113142868D01*
X125405736Y-113134852D01*
X125413991Y-113134788D01*
X125459879Y-113130321D01*
X125485079Y-113117795D01*
X125492773Y-113095784D01*
X125493676Y-113088849D01*
X125498615Y-113082885D01*
X125510611Y-113078519D01*
X125532680Y-113075503D01*
X125567836Y-113073590D01*
X125619094Y-113072530D01*
X125689471Y-113072077D01*
X125781980Y-113071980D01*
X125868660Y-113072150D01*
X125942332Y-113072834D01*
X125996265Y-113074215D01*
X126033288Y-113076470D01*
X126056230Y-113079778D01*
X126067920Y-113084320D01*
X126071188Y-113090272D01*
X126081937Y-113104888D01*
X126112055Y-113114215D01*
X126123582Y-113115847D01*
X126162886Y-113121591D01*
X126215188Y-113129378D01*
X126272376Y-113138003D01*
X126303916Y-113142393D01*
X126350074Y-113147148D01*
X126382641Y-113148295D01*
X126396023Y-113145495D01*
X126398308Y-113143671D01*
X126419405Y-113139165D01*
X126457355Y-113136029D01*
X126506048Y-113134852D01*
X126611881Y-113134852D01*
X126611894Y-113172575D01*
X126611894Y-113175718D01*
X126612388Y-113188668D01*
X126618819Y-113210411D01*
X126637123Y-113228851D01*
X126672830Y-113250801D01*
X126704174Y-113270854D01*
X126751893Y-113309356D01*
X126795138Y-113352579D01*
X126828219Y-113394627D01*
X126845442Y-113429604D01*
X126849662Y-113443081D01*
X126857480Y-113452334D01*
X126860116Y-113455454D01*
X126881662Y-113460696D01*
%TD*%
M02*
