%TF.GenerationSoftware,KiCad,Pcbnew,6.0.11+dfsg-1~bpo11+1*%
%TF.CreationDate,2023-05-15T10:42:25+02:00*%
%TF.ProjectId,dvert_12,64766572-745f-4313-922e-6b696361645f,rev?*%
%TF.SameCoordinates,Original*%
%TF.FileFunction,Soldermask,Top*%
%TF.FilePolarity,Negative*%
%FSLAX46Y46*%
G04 Gerber Fmt 4.6, Leading zero omitted, Abs format (unit mm)*
G04 Created by KiCad (PCBNEW 6.0.11+dfsg-1~bpo11+1) date 2023-05-15 10:42:25*
%MOMM*%
%LPD*%
G01*
G04 APERTURE LIST*
G04 Aperture macros list*
%AMRoundRect*
0 Rectangle with rounded corners*
0 $1 Rounding radius*
0 $2 $3 $4 $5 $6 $7 $8 $9 X,Y pos of 4 corners*
0 Add a 4 corners polygon primitive as box body*
4,1,4,$2,$3,$4,$5,$6,$7,$8,$9,$2,$3,0*
0 Add four circle primitives for the rounded corners*
1,1,$1+$1,$2,$3*
1,1,$1+$1,$4,$5*
1,1,$1+$1,$6,$7*
1,1,$1+$1,$8,$9*
0 Add four rect primitives between the rounded corners*
20,1,$1+$1,$2,$3,$4,$5,0*
20,1,$1+$1,$4,$5,$6,$7,0*
20,1,$1+$1,$6,$7,$8,$9,0*
20,1,$1+$1,$8,$9,$2,$3,0*%
G04 Aperture macros list end*
%ADD10RoundRect,0.250000X0.450000X-0.350000X0.450000X0.350000X-0.450000X0.350000X-0.450000X-0.350000X0*%
%ADD11RoundRect,0.150000X-0.825000X-0.150000X0.825000X-0.150000X0.825000X0.150000X-0.825000X0.150000X0*%
%ADD12RoundRect,0.250000X0.350000X0.450000X-0.350000X0.450000X-0.350000X-0.450000X0.350000X-0.450000X0*%
%ADD13RoundRect,0.250000X-0.600000X-0.600000X0.600000X-0.600000X0.600000X0.600000X-0.600000X0.600000X0*%
%ADD14C,1.700000*%
%ADD15R,0.900000X1.500000*%
%ADD16R,1.500000X0.900000*%
%ADD17R,0.900000X0.900000*%
%ADD18RoundRect,0.250000X-1.075000X0.400000X-1.075000X-0.400000X1.075000X-0.400000X1.075000X0.400000X0*%
%ADD19RoundRect,0.250000X0.600000X-0.600000X0.600000X0.600000X-0.600000X0.600000X-0.600000X-0.600000X0*%
%ADD20RoundRect,0.250000X-0.337500X-0.475000X0.337500X-0.475000X0.337500X0.475000X-0.337500X0.475000X0*%
%ADD21R,1.700000X1.700000*%
%ADD22O,1.700000X1.700000*%
%ADD23RoundRect,0.250000X-0.600000X0.600000X-0.600000X-0.600000X0.600000X-0.600000X0.600000X0.600000X0*%
%ADD24RoundRect,0.250000X0.475000X-0.337500X0.475000X0.337500X-0.475000X0.337500X-0.475000X-0.337500X0*%
%ADD25RoundRect,0.250001X-0.462499X-0.624999X0.462499X-0.624999X0.462499X0.624999X-0.462499X0.624999X0*%
%ADD26R,1.500000X1.500000*%
%ADD27RoundRect,0.250000X-0.450000X0.350000X-0.450000X-0.350000X0.450000X-0.350000X0.450000X0.350000X0*%
%ADD28RoundRect,0.250001X0.624999X-0.462499X0.624999X0.462499X-0.624999X0.462499X-0.624999X-0.462499X0*%
G04 APERTURE END LIST*
D10*
%TO.C,R2*%
X128590000Y-79630000D03*
X128590000Y-77630000D03*
%TD*%
D11*
%TO.C,U2*%
X158825000Y-73395000D03*
X158825000Y-74665000D03*
X158825000Y-75935000D03*
X158825000Y-77205000D03*
X163775000Y-77205000D03*
X163775000Y-75935000D03*
X163775000Y-74665000D03*
X163775000Y-73395000D03*
%TD*%
D12*
%TO.C,R3*%
X126410000Y-108470000D03*
X124410000Y-108470000D03*
%TD*%
D13*
%TO.C,J4*%
X163750000Y-84100000D03*
D14*
X166290000Y-84100000D03*
X163750000Y-86640000D03*
X166290000Y-86640000D03*
X163750000Y-89180000D03*
X166290000Y-89180000D03*
X163750000Y-91720000D03*
X166290000Y-91720000D03*
X163750000Y-94260000D03*
X166290000Y-94260000D03*
X163750000Y-96800000D03*
X166290000Y-96800000D03*
X163750000Y-99340000D03*
X166290000Y-99340000D03*
X163750000Y-101880000D03*
X166290000Y-101880000D03*
%TD*%
D15*
%TO.C,U1*%
X137120000Y-105030000D03*
X138390000Y-105030000D03*
X139660000Y-105030000D03*
X140930000Y-105030000D03*
X142200000Y-105030000D03*
X143470000Y-105030000D03*
X144740000Y-105030000D03*
X146010000Y-105030000D03*
X147280000Y-105030000D03*
X148550000Y-105030000D03*
X149820000Y-105030000D03*
X151090000Y-105030000D03*
X152360000Y-105030000D03*
X153630000Y-105030000D03*
D16*
X154880000Y-103265000D03*
X154880000Y-101995000D03*
X154880000Y-100725000D03*
X154880000Y-99455000D03*
X154880000Y-98185000D03*
X154880000Y-96915000D03*
X154880000Y-95645000D03*
X154880000Y-94375000D03*
X154880000Y-93105000D03*
X154880000Y-91835000D03*
X154880000Y-90565000D03*
X154880000Y-89295000D03*
D15*
X153630000Y-87530000D03*
X152360000Y-87530000D03*
X151090000Y-87530000D03*
X149820000Y-87530000D03*
X148550000Y-87530000D03*
X147280000Y-87530000D03*
X146010000Y-87530000D03*
X144740000Y-87530000D03*
X143470000Y-87530000D03*
X142200000Y-87530000D03*
X140930000Y-87530000D03*
X139660000Y-87530000D03*
X138390000Y-87530000D03*
X137120000Y-87530000D03*
D17*
X144840000Y-97780000D03*
X144840000Y-99180000D03*
X143440000Y-97780000D03*
X146240000Y-96380000D03*
X146240000Y-97780000D03*
X143440000Y-99180000D03*
X146240000Y-99180000D03*
X143440000Y-96380000D03*
X144840000Y-96380000D03*
%TD*%
D18*
%TO.C,R11*%
X167100000Y-73800000D03*
X167100000Y-76900000D03*
%TD*%
D19*
%TO.C,J2*%
X134100000Y-116300000D03*
D14*
X134100000Y-113760000D03*
X136640000Y-116300000D03*
X136640000Y-113760000D03*
X139180000Y-116300000D03*
X139180000Y-113760000D03*
X141720000Y-116300000D03*
X141720000Y-113760000D03*
X144260000Y-116300000D03*
X144260000Y-113760000D03*
X146800000Y-116300000D03*
X146800000Y-113760000D03*
X149340000Y-116300000D03*
X149340000Y-113760000D03*
X151880000Y-116300000D03*
X151880000Y-113760000D03*
%TD*%
D20*
%TO.C,C1*%
X136555000Y-107820000D03*
X138630000Y-107820000D03*
%TD*%
D21*
%TO.C,J7*%
X159460000Y-68500000D03*
D22*
X162000000Y-68500000D03*
%TD*%
D23*
%TO.C,J1*%
X151890000Y-69747500D03*
D14*
X151890000Y-72287500D03*
X149350000Y-69747500D03*
X149350000Y-72287500D03*
X146810000Y-69747500D03*
X146810000Y-72287500D03*
X144270000Y-69747500D03*
X144270000Y-72287500D03*
X141730000Y-69747500D03*
X141730000Y-72287500D03*
X139190000Y-69747500D03*
X139190000Y-72287500D03*
X136650000Y-69747500D03*
X136650000Y-72287500D03*
X134110000Y-69747500D03*
X134110000Y-72287500D03*
%TD*%
D24*
%TO.C,C2*%
X158610000Y-81815000D03*
X158610000Y-79740000D03*
%TD*%
D21*
%TO.C,J6*%
X157985000Y-104245000D03*
D22*
X157985000Y-101705000D03*
X157985000Y-99165000D03*
X157985000Y-96625000D03*
X157985000Y-94085000D03*
X157985000Y-91545000D03*
%TD*%
D25*
%TO.C,D1*%
X123175000Y-118470000D03*
X126150000Y-118470000D03*
%TD*%
D26*
%TO.C,SW2*%
X128590000Y-89450000D03*
X128590000Y-81650000D03*
%TD*%
%TO.C,SW1*%
X133040000Y-89440000D03*
X133040000Y-81640000D03*
%TD*%
D21*
%TO.C,J5*%
X151585000Y-84115000D03*
D22*
X149045000Y-84115000D03*
X146505000Y-84115000D03*
X143965000Y-84115000D03*
X141425000Y-84115000D03*
X138885000Y-84115000D03*
%TD*%
D10*
%TO.C,R1*%
X133030000Y-79610000D03*
X133030000Y-77610000D03*
%TD*%
D21*
%TO.C,J8*%
X162100000Y-118000000D03*
D22*
X159560000Y-118000000D03*
X162100000Y-115460000D03*
X159560000Y-115460000D03*
X162100000Y-112920000D03*
X159560000Y-112920000D03*
X162100000Y-110380000D03*
X159560000Y-110380000D03*
%TD*%
D13*
%TO.C,J3*%
X119760000Y-84080000D03*
D14*
X122300000Y-84080000D03*
X119760000Y-86620000D03*
X122300000Y-86620000D03*
X119760000Y-89160000D03*
X122300000Y-89160000D03*
X119760000Y-91700000D03*
X122300000Y-91700000D03*
X119760000Y-94240000D03*
X122300000Y-94240000D03*
X119760000Y-96780000D03*
X122300000Y-96780000D03*
X119760000Y-99320000D03*
X122300000Y-99320000D03*
X119760000Y-101860000D03*
X122300000Y-101860000D03*
%TD*%
D27*
%TO.C,R9*%
X165430000Y-109150000D03*
X165430000Y-111150000D03*
%TD*%
D28*
%TO.C,D2*%
X167980000Y-112225000D03*
X167980000Y-109250000D03*
%TD*%
D12*
%TO.C,R8*%
X126520000Y-115410000D03*
X124520000Y-115410000D03*
%TD*%
D26*
%TO.C,SW3*%
X118500000Y-111700000D03*
X126300000Y-111700000D03*
%TD*%
D12*
%TO.C,R10*%
X161200000Y-71500000D03*
X159200000Y-71500000D03*
%TD*%
M02*
