%TF.GenerationSoftware,KiCad,Pcbnew,6.0.11+dfsg-1~bpo11+1*%
%TF.CreationDate,2023-05-15T10:42:25+02:00*%
%TF.ProjectId,dvert_12,64766572-745f-4313-922e-6b696361645f,rev?*%
%TF.SameCoordinates,Original*%
%TF.FileFunction,Legend,Top*%
%TF.FilePolarity,Positive*%
%FSLAX46Y46*%
G04 Gerber Fmt 4.6, Leading zero omitted, Abs format (unit mm)*
G04 Created by KiCad (PCBNEW 6.0.11+dfsg-1~bpo11+1) date 2023-05-15 10:42:25*
%MOMM*%
%LPD*%
G01*
G04 APERTURE LIST*
%ADD10C,0.150000*%
%ADD11C,0.080000*%
%ADD12C,0.100000*%
%ADD13C,0.120000*%
%ADD14C,0.600000*%
%ADD15C,0.200000*%
G04 APERTURE END LIST*
D10*
G36*
X134200000Y-103600000D02*
G01*
X132500000Y-105300000D01*
X132500000Y-104200000D01*
X127100000Y-104200000D01*
X127100000Y-102900000D01*
X132500000Y-102900000D01*
X132500000Y-101900000D01*
X134200000Y-103600000D01*
G37*
X134200000Y-103600000D02*
X132500000Y-105300000D01*
X132500000Y-104200000D01*
X127100000Y-104200000D01*
X127100000Y-102900000D01*
X132500000Y-102900000D01*
X132500000Y-101900000D01*
X134200000Y-103600000D01*
D11*
X153214285Y-106366666D02*
X153404761Y-106366666D01*
X153176190Y-106480952D02*
X153309523Y-106080952D01*
X153442857Y-106480952D01*
X153576190Y-106480952D02*
X153576190Y-106080952D01*
X153671428Y-106080952D01*
X153728571Y-106100000D01*
X153766666Y-106138095D01*
X153785714Y-106176190D01*
X153804761Y-106252380D01*
X153804761Y-106309523D01*
X153785714Y-106385714D01*
X153766666Y-106423809D01*
X153728571Y-106461904D01*
X153671428Y-106480952D01*
X153576190Y-106480952D01*
X153938095Y-106080952D02*
X154185714Y-106080952D01*
X154052380Y-106233333D01*
X154109523Y-106233333D01*
X154147619Y-106252380D01*
X154166666Y-106271428D01*
X154185714Y-106309523D01*
X154185714Y-106404761D01*
X154166666Y-106442857D01*
X154147619Y-106461904D01*
X154109523Y-106480952D01*
X153995238Y-106480952D01*
X153957142Y-106461904D01*
X153938095Y-106442857D01*
D12*
X125971428Y-95128571D02*
X126571428Y-94928571D01*
X125971428Y-94728571D01*
X126257142Y-94528571D02*
X126257142Y-94328571D01*
X126571428Y-94242857D02*
X126571428Y-94528571D01*
X125971428Y-94528571D01*
X125971428Y-94242857D01*
X126571428Y-93642857D02*
X126285714Y-93842857D01*
X126571428Y-93985714D02*
X125971428Y-93985714D01*
X125971428Y-93757142D01*
X126000000Y-93700000D01*
X126028571Y-93671428D01*
X126085714Y-93642857D01*
X126171428Y-93642857D01*
X126228571Y-93671428D01*
X126257142Y-93700000D01*
X126285714Y-93757142D01*
X126285714Y-93985714D01*
X125971428Y-93471428D02*
X125971428Y-93128571D01*
X126571428Y-93300000D02*
X125971428Y-93300000D01*
X126257142Y-92928571D02*
X126257142Y-92728571D01*
X126571428Y-92642857D02*
X126571428Y-92928571D01*
X125971428Y-92928571D01*
X125971428Y-92642857D01*
X126257142Y-92185714D02*
X126285714Y-92100000D01*
X126314285Y-92071428D01*
X126371428Y-92042857D01*
X126457142Y-92042857D01*
X126514285Y-92071428D01*
X126542857Y-92100000D01*
X126571428Y-92157142D01*
X126571428Y-92385714D01*
X125971428Y-92385714D01*
X125971428Y-92185714D01*
X126000000Y-92128571D01*
X126028571Y-92100000D01*
X126085714Y-92071428D01*
X126142857Y-92071428D01*
X126200000Y-92100000D01*
X126228571Y-92128571D01*
X126257142Y-92185714D01*
X126257142Y-92385714D01*
X126571428Y-91442857D02*
X126285714Y-91642857D01*
X126571428Y-91785714D02*
X125971428Y-91785714D01*
X125971428Y-91557142D01*
X126000000Y-91500000D01*
X126028571Y-91471428D01*
X126085714Y-91442857D01*
X126171428Y-91442857D01*
X126228571Y-91471428D01*
X126257142Y-91500000D01*
X126285714Y-91557142D01*
X126285714Y-91785714D01*
X126400000Y-91214285D02*
X126400000Y-90928571D01*
X126571428Y-91271428D02*
X125971428Y-91071428D01*
X126571428Y-90871428D01*
D11*
X159842857Y-94566666D02*
X159861904Y-94585714D01*
X159880952Y-94642857D01*
X159880952Y-94680952D01*
X159861904Y-94738095D01*
X159823809Y-94776190D01*
X159785714Y-94795238D01*
X159709523Y-94814285D01*
X159652380Y-94814285D01*
X159576190Y-94795238D01*
X159538095Y-94776190D01*
X159500000Y-94738095D01*
X159480952Y-94680952D01*
X159480952Y-94642857D01*
X159500000Y-94585714D01*
X159519047Y-94566666D01*
X159766666Y-94414285D02*
X159766666Y-94223809D01*
X159880952Y-94452380D02*
X159480952Y-94319047D01*
X159880952Y-94185714D01*
X159880952Y-94052380D02*
X159480952Y-94052380D01*
X159880952Y-93823809D01*
X159480952Y-93823809D01*
X159880952Y-93633333D02*
X159480952Y-93633333D01*
X159671428Y-93633333D02*
X159671428Y-93404761D01*
X159880952Y-93404761D02*
X159480952Y-93404761D01*
X141942857Y-86480952D02*
X141809523Y-86290476D01*
X141714285Y-86480952D02*
X141714285Y-86080952D01*
X141866666Y-86080952D01*
X141904761Y-86100000D01*
X141923809Y-86119047D01*
X141942857Y-86157142D01*
X141942857Y-86214285D01*
X141923809Y-86252380D01*
X141904761Y-86271428D01*
X141866666Y-86290476D01*
X141714285Y-86290476D01*
X142076190Y-86080952D02*
X142342857Y-86480952D01*
X142342857Y-86080952D02*
X142076190Y-86480952D01*
X142571428Y-86080952D02*
X142609523Y-86080952D01*
X142647619Y-86100000D01*
X142666666Y-86119047D01*
X142685714Y-86157142D01*
X142704761Y-86233333D01*
X142704761Y-86328571D01*
X142685714Y-86404761D01*
X142666666Y-86442857D01*
X142647619Y-86461904D01*
X142609523Y-86480952D01*
X142571428Y-86480952D01*
X142533333Y-86461904D01*
X142514285Y-86442857D01*
X142495238Y-86404761D01*
X142476190Y-86328571D01*
X142476190Y-86233333D01*
X142495238Y-86157142D01*
X142514285Y-86119047D01*
X142533333Y-86100000D01*
X142571428Y-86080952D01*
X138114285Y-86366666D02*
X138304761Y-86366666D01*
X138076190Y-86480952D02*
X138209523Y-86080952D01*
X138342857Y-86480952D01*
X138438095Y-86080952D02*
X138704761Y-86080952D01*
X138533333Y-86480952D01*
X145514285Y-106366666D02*
X145704761Y-106366666D01*
X145476190Y-106480952D02*
X145609523Y-106080952D01*
X145742857Y-106480952D01*
X145876190Y-106480952D02*
X145876190Y-106080952D01*
X145971428Y-106080952D01*
X146028571Y-106100000D01*
X146066666Y-106138095D01*
X146085714Y-106176190D01*
X146104761Y-106252380D01*
X146104761Y-106309523D01*
X146085714Y-106385714D01*
X146066666Y-106423809D01*
X146028571Y-106461904D01*
X145971428Y-106480952D01*
X145876190Y-106480952D01*
X146352380Y-106080952D02*
X146390476Y-106080952D01*
X146428571Y-106100000D01*
X146447619Y-106119047D01*
X146466666Y-106157142D01*
X146485714Y-106233333D01*
X146485714Y-106328571D01*
X146466666Y-106404761D01*
X146447619Y-106442857D01*
X146428571Y-106461904D01*
X146390476Y-106480952D01*
X146352380Y-106480952D01*
X146314285Y-106461904D01*
X146295238Y-106442857D01*
X146276190Y-106404761D01*
X146257142Y-106328571D01*
X146257142Y-106233333D01*
X146276190Y-106157142D01*
X146295238Y-106119047D01*
X146314285Y-106100000D01*
X146352380Y-106080952D01*
X156266666Y-93385714D02*
X156266666Y-93195238D01*
X156380952Y-93423809D02*
X155980952Y-93290476D01*
X156380952Y-93157142D01*
X156380952Y-92814285D02*
X156380952Y-93042857D01*
X156380952Y-92928571D02*
X155980952Y-92928571D01*
X156038095Y-92966666D01*
X156076190Y-93004761D01*
X156095238Y-93042857D01*
X149533333Y-106442857D02*
X149514285Y-106461904D01*
X149457142Y-106480952D01*
X149419047Y-106480952D01*
X149361904Y-106461904D01*
X149323809Y-106423809D01*
X149304761Y-106385714D01*
X149285714Y-106309523D01*
X149285714Y-106252380D01*
X149304761Y-106176190D01*
X149323809Y-106138095D01*
X149361904Y-106100000D01*
X149419047Y-106080952D01*
X149457142Y-106080952D01*
X149514285Y-106100000D01*
X149533333Y-106119047D01*
X149933333Y-106480952D02*
X149800000Y-106290476D01*
X149704761Y-106480952D02*
X149704761Y-106080952D01*
X149857142Y-106080952D01*
X149895238Y-106100000D01*
X149914285Y-106119047D01*
X149933333Y-106157142D01*
X149933333Y-106214285D01*
X149914285Y-106252380D01*
X149895238Y-106271428D01*
X149857142Y-106290476D01*
X149704761Y-106290476D01*
X150066666Y-106080952D02*
X150333333Y-106480952D01*
X150333333Y-106080952D02*
X150066666Y-106480952D01*
X159480952Y-104795238D02*
X159480952Y-104547619D01*
X159633333Y-104680952D01*
X159633333Y-104623809D01*
X159652380Y-104585714D01*
X159671428Y-104566666D01*
X159709523Y-104547619D01*
X159804761Y-104547619D01*
X159842857Y-104566666D01*
X159861904Y-104585714D01*
X159880952Y-104623809D01*
X159880952Y-104738095D01*
X159861904Y-104776190D01*
X159842857Y-104795238D01*
X159480952Y-104433333D02*
X159880952Y-104300000D01*
X159480952Y-104166666D01*
X159480952Y-104071428D02*
X159480952Y-103823809D01*
X159633333Y-103957142D01*
X159633333Y-103900000D01*
X159652380Y-103861904D01*
X159671428Y-103842857D01*
X159709523Y-103823809D01*
X159804761Y-103823809D01*
X159842857Y-103842857D01*
X159861904Y-103861904D01*
X159880952Y-103900000D01*
X159880952Y-104014285D01*
X159861904Y-104052380D01*
X159842857Y-104071428D01*
X143214285Y-86366666D02*
X143404761Y-86366666D01*
X143176190Y-86480952D02*
X143309523Y-86080952D01*
X143442857Y-86480952D01*
X143766666Y-86080952D02*
X143576190Y-86080952D01*
X143557142Y-86271428D01*
X143576190Y-86252380D01*
X143614285Y-86233333D01*
X143709523Y-86233333D01*
X143747619Y-86252380D01*
X143766666Y-86271428D01*
X143785714Y-86309523D01*
X143785714Y-86404761D01*
X143766666Y-86442857D01*
X143747619Y-86461904D01*
X143709523Y-86480952D01*
X143614285Y-86480952D01*
X143576190Y-86461904D01*
X143557142Y-86442857D01*
X137904761Y-106080952D02*
X138152380Y-106080952D01*
X138019047Y-106233333D01*
X138076190Y-106233333D01*
X138114285Y-106252380D01*
X138133333Y-106271428D01*
X138152380Y-106309523D01*
X138152380Y-106404761D01*
X138133333Y-106442857D01*
X138114285Y-106461904D01*
X138076190Y-106480952D01*
X137961904Y-106480952D01*
X137923809Y-106461904D01*
X137904761Y-106442857D01*
X138266666Y-106080952D02*
X138400000Y-106480952D01*
X138533333Y-106080952D01*
X138628571Y-106080952D02*
X138876190Y-106080952D01*
X138742857Y-106233333D01*
X138800000Y-106233333D01*
X138838095Y-106252380D01*
X138857142Y-106271428D01*
X138876190Y-106309523D01*
X138876190Y-106404761D01*
X138857142Y-106442857D01*
X138838095Y-106461904D01*
X138800000Y-106480952D01*
X138685714Y-106480952D01*
X138647619Y-106461904D01*
X138628571Y-106442857D01*
D12*
X143880000Y-82171428D02*
X143680000Y-81885714D01*
X143537142Y-82171428D02*
X143537142Y-81571428D01*
X143765714Y-81571428D01*
X143822857Y-81600000D01*
X143851428Y-81628571D01*
X143880000Y-81685714D01*
X143880000Y-81771428D01*
X143851428Y-81828571D01*
X143822857Y-81857142D01*
X143765714Y-81885714D01*
X143537142Y-81885714D01*
X144080000Y-81571428D02*
X144480000Y-82171428D01*
X144480000Y-81571428D02*
X144080000Y-82171428D01*
D11*
X156171428Y-98361904D02*
X156190476Y-98304761D01*
X156209523Y-98285714D01*
X156247619Y-98266666D01*
X156304761Y-98266666D01*
X156342857Y-98285714D01*
X156361904Y-98304761D01*
X156380952Y-98342857D01*
X156380952Y-98495238D01*
X155980952Y-98495238D01*
X155980952Y-98361904D01*
X156000000Y-98323809D01*
X156019047Y-98304761D01*
X156057142Y-98285714D01*
X156095238Y-98285714D01*
X156133333Y-98304761D01*
X156152380Y-98323809D01*
X156171428Y-98361904D01*
X156171428Y-98495238D01*
X155980952Y-97923809D02*
X155980952Y-98000000D01*
X156000000Y-98038095D01*
X156019047Y-98057142D01*
X156076190Y-98095238D01*
X156152380Y-98114285D01*
X156304761Y-98114285D01*
X156342857Y-98095238D01*
X156361904Y-98076190D01*
X156380952Y-98038095D01*
X156380952Y-97961904D01*
X156361904Y-97923809D01*
X156342857Y-97904761D01*
X156304761Y-97885714D01*
X156209523Y-97885714D01*
X156171428Y-97904761D01*
X156152380Y-97923809D01*
X156133333Y-97961904D01*
X156133333Y-98038095D01*
X156152380Y-98076190D01*
X156171428Y-98095238D01*
X156209523Y-98114285D01*
X157906666Y-110665714D02*
X157906666Y-110475238D01*
X158020952Y-110703809D02*
X157620952Y-110570476D01*
X158020952Y-110437142D01*
X157620952Y-110341904D02*
X157620952Y-110094285D01*
X157773333Y-110227619D01*
X157773333Y-110170476D01*
X157792380Y-110132380D01*
X157811428Y-110113333D01*
X157849523Y-110094285D01*
X157944761Y-110094285D01*
X157982857Y-110113333D01*
X158001904Y-110132380D01*
X158020952Y-110170476D01*
X158020952Y-110284761D01*
X158001904Y-110322857D01*
X157982857Y-110341904D01*
D13*
X129328571Y-99039285D02*
X129507142Y-99539285D01*
X129685714Y-99039285D01*
X129935714Y-98860714D02*
X129971428Y-98825000D01*
X130042857Y-98789285D01*
X130221428Y-98789285D01*
X130292857Y-98825000D01*
X130328571Y-98860714D01*
X130364285Y-98932142D01*
X130364285Y-99003571D01*
X130328571Y-99110714D01*
X129900000Y-99539285D01*
X130364285Y-99539285D01*
X130685714Y-99467857D02*
X130721428Y-99503571D01*
X130685714Y-99539285D01*
X130650000Y-99503571D01*
X130685714Y-99467857D01*
X130685714Y-99539285D01*
X131185714Y-98789285D02*
X131257142Y-98789285D01*
X131328571Y-98825000D01*
X131364285Y-98860714D01*
X131400000Y-98932142D01*
X131435714Y-99075000D01*
X131435714Y-99253571D01*
X131400000Y-99396428D01*
X131364285Y-99467857D01*
X131328571Y-99503571D01*
X131257142Y-99539285D01*
X131185714Y-99539285D01*
X131114285Y-99503571D01*
X131078571Y-99467857D01*
X131042857Y-99396428D01*
X131007142Y-99253571D01*
X131007142Y-99075000D01*
X131042857Y-98932142D01*
X131078571Y-98860714D01*
X131114285Y-98825000D01*
X131185714Y-98789285D01*
D11*
X148280952Y-106442857D02*
X148261904Y-106461904D01*
X148204761Y-106480952D01*
X148166666Y-106480952D01*
X148109523Y-106461904D01*
X148071428Y-106423809D01*
X148052380Y-106385714D01*
X148033333Y-106309523D01*
X148033333Y-106252380D01*
X148052380Y-106176190D01*
X148071428Y-106138095D01*
X148109523Y-106100000D01*
X148166666Y-106080952D01*
X148204761Y-106080952D01*
X148261904Y-106100000D01*
X148280952Y-106119047D01*
X148395238Y-106080952D02*
X148623809Y-106080952D01*
X148509523Y-106480952D02*
X148509523Y-106080952D01*
X148719047Y-106080952D02*
X148985714Y-106480952D01*
X148985714Y-106080952D02*
X148719047Y-106480952D01*
D14*
X154877619Y-78946666D02*
X156782380Y-78946666D01*
X154496666Y-80089523D02*
X155830000Y-76089523D01*
X157163333Y-80089523D01*
D11*
X155980952Y-92352380D02*
X156380952Y-92257142D01*
X156095238Y-92180952D01*
X156380952Y-92104761D01*
X155980952Y-92009523D01*
X156171428Y-91857142D02*
X156171428Y-91723809D01*
X156380952Y-91666666D02*
X156380952Y-91857142D01*
X155980952Y-91857142D01*
X155980952Y-91666666D01*
X156171428Y-91361904D02*
X156190476Y-91304761D01*
X156209523Y-91285714D01*
X156247619Y-91266666D01*
X156304761Y-91266666D01*
X156342857Y-91285714D01*
X156361904Y-91304761D01*
X156380952Y-91342857D01*
X156380952Y-91495238D01*
X155980952Y-91495238D01*
X155980952Y-91361904D01*
X156000000Y-91323809D01*
X156019047Y-91304761D01*
X156057142Y-91285714D01*
X156095238Y-91285714D01*
X156133333Y-91304761D01*
X156152380Y-91323809D01*
X156171428Y-91361904D01*
X156171428Y-91495238D01*
D14*
X156315714Y-107904285D02*
X156887142Y-108094761D01*
X157077619Y-108285238D01*
X157268095Y-108666190D01*
X157268095Y-109237619D01*
X157077619Y-109618571D01*
X156887142Y-109809047D01*
X156506190Y-109999523D01*
X154982380Y-109999523D01*
X154982380Y-105999523D01*
X156315714Y-105999523D01*
X156696666Y-106190000D01*
X156887142Y-106380476D01*
X157077619Y-106761428D01*
X157077619Y-107142380D01*
X156887142Y-107523333D01*
X156696666Y-107713809D01*
X156315714Y-107904285D01*
X154982380Y-107904285D01*
D11*
X156171428Y-99661904D02*
X156190476Y-99604761D01*
X156209523Y-99585714D01*
X156247619Y-99566666D01*
X156304761Y-99566666D01*
X156342857Y-99585714D01*
X156361904Y-99604761D01*
X156380952Y-99642857D01*
X156380952Y-99795238D01*
X155980952Y-99795238D01*
X155980952Y-99661904D01*
X156000000Y-99623809D01*
X156019047Y-99604761D01*
X156057142Y-99585714D01*
X156095238Y-99585714D01*
X156133333Y-99604761D01*
X156152380Y-99623809D01*
X156171428Y-99661904D01*
X156171428Y-99795238D01*
X155980952Y-99433333D02*
X155980952Y-99166666D01*
X156380952Y-99338095D01*
X151914285Y-106366666D02*
X152104761Y-106366666D01*
X151876190Y-106480952D02*
X152009523Y-106080952D01*
X152142857Y-106480952D01*
X152276190Y-106480952D02*
X152276190Y-106080952D01*
X152371428Y-106080952D01*
X152428571Y-106100000D01*
X152466666Y-106138095D01*
X152485714Y-106176190D01*
X152504761Y-106252380D01*
X152504761Y-106309523D01*
X152485714Y-106385714D01*
X152466666Y-106423809D01*
X152428571Y-106461904D01*
X152371428Y-106480952D01*
X152276190Y-106480952D01*
X152657142Y-106119047D02*
X152676190Y-106100000D01*
X152714285Y-106080952D01*
X152809523Y-106080952D01*
X152847619Y-106100000D01*
X152866666Y-106119047D01*
X152885714Y-106157142D01*
X152885714Y-106195238D01*
X152866666Y-106252380D01*
X152638095Y-106480952D01*
X152885714Y-106480952D01*
X153200000Y-86480952D02*
X153200000Y-86080952D01*
X153466666Y-86080952D02*
X153542857Y-86080952D01*
X153580952Y-86100000D01*
X153619047Y-86138095D01*
X153638095Y-86214285D01*
X153638095Y-86347619D01*
X153619047Y-86423809D01*
X153580952Y-86461904D01*
X153542857Y-86480952D01*
X153466666Y-86480952D01*
X153428571Y-86461904D01*
X153390476Y-86423809D01*
X153371428Y-86347619D01*
X153371428Y-86214285D01*
X153390476Y-86138095D01*
X153428571Y-86100000D01*
X153466666Y-86080952D01*
X153885714Y-86080952D02*
X153923809Y-86080952D01*
X153961904Y-86100000D01*
X153980952Y-86119047D01*
X154000000Y-86157142D01*
X154019047Y-86233333D01*
X154019047Y-86328571D01*
X154000000Y-86404761D01*
X153980952Y-86442857D01*
X153961904Y-86461904D01*
X153923809Y-86480952D01*
X153885714Y-86480952D01*
X153847619Y-86461904D01*
X153828571Y-86442857D01*
X153809523Y-86404761D01*
X153790476Y-86328571D01*
X153790476Y-86233333D01*
X153809523Y-86157142D01*
X153828571Y-86119047D01*
X153847619Y-86100000D01*
X153885714Y-86080952D01*
X140404761Y-86080952D02*
X140633333Y-86080952D01*
X140519047Y-86480952D02*
X140519047Y-86080952D01*
X140728571Y-86080952D02*
X140995238Y-86480952D01*
X140995238Y-86080952D02*
X140728571Y-86480952D01*
X141223809Y-86080952D02*
X141261904Y-86080952D01*
X141300000Y-86100000D01*
X141319047Y-86119047D01*
X141338095Y-86157142D01*
X141357142Y-86233333D01*
X141357142Y-86328571D01*
X141338095Y-86404761D01*
X141319047Y-86442857D01*
X141300000Y-86461904D01*
X141261904Y-86480952D01*
X141223809Y-86480952D01*
X141185714Y-86461904D01*
X141166666Y-86442857D01*
X141147619Y-86404761D01*
X141128571Y-86328571D01*
X141128571Y-86233333D01*
X141147619Y-86157142D01*
X141166666Y-86119047D01*
X141185714Y-86100000D01*
X141223809Y-86080952D01*
X159842857Y-91919047D02*
X159861904Y-91938095D01*
X159880952Y-91995238D01*
X159880952Y-92033333D01*
X159861904Y-92090476D01*
X159823809Y-92128571D01*
X159785714Y-92147619D01*
X159709523Y-92166666D01*
X159652380Y-92166666D01*
X159576190Y-92147619D01*
X159538095Y-92128571D01*
X159500000Y-92090476D01*
X159480952Y-92033333D01*
X159480952Y-91995238D01*
X159500000Y-91938095D01*
X159519047Y-91919047D01*
X159766666Y-91766666D02*
X159766666Y-91576190D01*
X159880952Y-91804761D02*
X159480952Y-91671428D01*
X159880952Y-91538095D01*
X159880952Y-91404761D02*
X159480952Y-91404761D01*
X159880952Y-91176190D01*
X159480952Y-91176190D01*
X159880952Y-90795238D02*
X159880952Y-90985714D01*
X159480952Y-90985714D01*
X163986666Y-115725714D02*
X163986666Y-115535238D01*
X164100952Y-115763809D02*
X163700952Y-115630476D01*
X164100952Y-115497142D01*
X164100952Y-115154285D02*
X164100952Y-115382857D01*
X164100952Y-115268571D02*
X163700952Y-115268571D01*
X163758095Y-115306666D01*
X163796190Y-115344761D01*
X163815238Y-115382857D01*
X163966666Y-110595714D02*
X163966666Y-110405238D01*
X164080952Y-110633809D02*
X163680952Y-110500476D01*
X164080952Y-110367142D01*
X163680952Y-110271904D02*
X163680952Y-110024285D01*
X163833333Y-110157619D01*
X163833333Y-110100476D01*
X163852380Y-110062380D01*
X163871428Y-110043333D01*
X163909523Y-110024285D01*
X164004761Y-110024285D01*
X164042857Y-110043333D01*
X164061904Y-110062380D01*
X164080952Y-110100476D01*
X164080952Y-110214761D01*
X164061904Y-110252857D01*
X164042857Y-110271904D01*
D12*
X140922857Y-81611428D02*
X141265714Y-81611428D01*
X141094285Y-82211428D02*
X141094285Y-81611428D01*
X141408571Y-81611428D02*
X141808571Y-82211428D01*
X141808571Y-81611428D02*
X141408571Y-82211428D01*
D11*
X169370952Y-112588095D02*
X169770952Y-112454761D01*
X169370952Y-112321428D01*
X169561428Y-112188095D02*
X169561428Y-112054761D01*
X169770952Y-111997619D02*
X169770952Y-112188095D01*
X169370952Y-112188095D01*
X169370952Y-111997619D01*
X169770952Y-111597619D02*
X169580476Y-111730952D01*
X169770952Y-111826190D02*
X169370952Y-111826190D01*
X169370952Y-111673809D01*
X169390000Y-111635714D01*
X169409047Y-111616666D01*
X169447142Y-111597619D01*
X169504285Y-111597619D01*
X169542380Y-111616666D01*
X169561428Y-111635714D01*
X169580476Y-111673809D01*
X169580476Y-111826190D01*
X169370952Y-111483333D02*
X169370952Y-111254761D01*
X169770952Y-111369047D02*
X169370952Y-111369047D01*
X169770952Y-110816666D02*
X169370952Y-110816666D01*
X169370952Y-110664285D01*
X169390000Y-110626190D01*
X169409047Y-110607142D01*
X169447142Y-110588095D01*
X169504285Y-110588095D01*
X169542380Y-110607142D01*
X169561428Y-110626190D01*
X169580476Y-110664285D01*
X169580476Y-110816666D01*
X169370952Y-110340476D02*
X169370952Y-110264285D01*
X169390000Y-110226190D01*
X169428095Y-110188095D01*
X169504285Y-110169047D01*
X169637619Y-110169047D01*
X169713809Y-110188095D01*
X169751904Y-110226190D01*
X169770952Y-110264285D01*
X169770952Y-110340476D01*
X169751904Y-110378571D01*
X169713809Y-110416666D01*
X169637619Y-110435714D01*
X169504285Y-110435714D01*
X169428095Y-110416666D01*
X169390000Y-110378571D01*
X169370952Y-110340476D01*
X169370952Y-110035714D02*
X169770952Y-109940476D01*
X169485238Y-109864285D01*
X169770952Y-109788095D01*
X169370952Y-109692857D01*
X169561428Y-109540476D02*
X169561428Y-109407142D01*
X169770952Y-109350000D02*
X169770952Y-109540476D01*
X169370952Y-109540476D01*
X169370952Y-109350000D01*
X169770952Y-108950000D02*
X169580476Y-109083333D01*
X169770952Y-109178571D02*
X169370952Y-109178571D01*
X169370952Y-109026190D01*
X169390000Y-108988095D01*
X169409047Y-108969047D01*
X169447142Y-108950000D01*
X169504285Y-108950000D01*
X169542380Y-108969047D01*
X169561428Y-108988095D01*
X169580476Y-109026190D01*
X169580476Y-109178571D01*
X150614285Y-106461904D02*
X150671428Y-106480952D01*
X150766666Y-106480952D01*
X150804761Y-106461904D01*
X150823809Y-106442857D01*
X150842857Y-106404761D01*
X150842857Y-106366666D01*
X150823809Y-106328571D01*
X150804761Y-106309523D01*
X150766666Y-106290476D01*
X150690476Y-106271428D01*
X150652380Y-106252380D01*
X150633333Y-106233333D01*
X150614285Y-106195238D01*
X150614285Y-106157142D01*
X150633333Y-106119047D01*
X150652380Y-106100000D01*
X150690476Y-106080952D01*
X150785714Y-106080952D01*
X150842857Y-106100000D01*
X151014285Y-106480952D02*
X151014285Y-106080952D01*
X151109523Y-106080952D01*
X151166666Y-106100000D01*
X151204761Y-106138095D01*
X151223809Y-106176190D01*
X151242857Y-106252380D01*
X151242857Y-106309523D01*
X151223809Y-106385714D01*
X151204761Y-106423809D01*
X151166666Y-106461904D01*
X151109523Y-106480952D01*
X151014285Y-106480952D01*
X151395238Y-106366666D02*
X151585714Y-106366666D01*
X151357142Y-106480952D02*
X151490476Y-106080952D01*
X151623809Y-106480952D01*
X156380952Y-90704761D02*
X156380952Y-90895238D01*
X155980952Y-90895238D01*
X156380952Y-90571428D02*
X155980952Y-90571428D01*
X156266666Y-90438095D01*
X155980952Y-90304761D01*
X156380952Y-90304761D01*
X123327619Y-117090952D02*
X123137142Y-117090952D01*
X123137142Y-116690952D01*
X123460952Y-116881428D02*
X123594285Y-116881428D01*
X123651428Y-117090952D02*
X123460952Y-117090952D01*
X123460952Y-116690952D01*
X123651428Y-116690952D01*
X123822857Y-117090952D02*
X123822857Y-116690952D01*
X123918095Y-116690952D01*
X123975238Y-116710000D01*
X124013333Y-116748095D01*
X124032380Y-116786190D01*
X124051428Y-116862380D01*
X124051428Y-116919523D01*
X124032380Y-116995714D01*
X124013333Y-117033809D01*
X123975238Y-117071904D01*
X123918095Y-117090952D01*
X123822857Y-117090952D01*
X124527619Y-117090952D02*
X124527619Y-116690952D01*
X124660952Y-116976666D01*
X124794285Y-116690952D01*
X124794285Y-117090952D01*
X125251428Y-117129047D02*
X125213333Y-117110000D01*
X125175238Y-117071904D01*
X125118095Y-117014761D01*
X125080000Y-116995714D01*
X125041904Y-116995714D01*
X125060952Y-117090952D02*
X125022857Y-117071904D01*
X124984761Y-117033809D01*
X124965714Y-116957619D01*
X124965714Y-116824285D01*
X124984761Y-116748095D01*
X125022857Y-116710000D01*
X125060952Y-116690952D01*
X125137142Y-116690952D01*
X125175238Y-116710000D01*
X125213333Y-116748095D01*
X125232380Y-116824285D01*
X125232380Y-116957619D01*
X125213333Y-117033809D01*
X125175238Y-117071904D01*
X125137142Y-117090952D01*
X125060952Y-117090952D01*
X125346666Y-116690952D02*
X125575238Y-116690952D01*
X125460952Y-117090952D02*
X125460952Y-116690952D01*
X125651428Y-116690952D02*
X125880000Y-116690952D01*
X125765714Y-117090952D02*
X125765714Y-116690952D01*
X147014285Y-86366666D02*
X147204761Y-86366666D01*
X146976190Y-86480952D02*
X147109523Y-86080952D01*
X147242857Y-86480952D01*
X147357142Y-86119047D02*
X147376190Y-86100000D01*
X147414285Y-86080952D01*
X147509523Y-86080952D01*
X147547619Y-86100000D01*
X147566666Y-86119047D01*
X147585714Y-86157142D01*
X147585714Y-86195238D01*
X147566666Y-86252380D01*
X147338095Y-86480952D01*
X147585714Y-86480952D01*
D15*
X128300000Y-97942857D02*
X128300000Y-96742857D01*
X128300000Y-97885714D02*
X128185714Y-97942857D01*
X127957142Y-97942857D01*
X127842857Y-97885714D01*
X127785714Y-97828571D01*
X127728571Y-97714285D01*
X127728571Y-97371428D01*
X127785714Y-97257142D01*
X127842857Y-97200000D01*
X127957142Y-97142857D01*
X128185714Y-97142857D01*
X128300000Y-97200000D01*
X128757142Y-97142857D02*
X129042857Y-97942857D01*
X129328571Y-97142857D01*
X130242857Y-97885714D02*
X130128571Y-97942857D01*
X129900000Y-97942857D01*
X129785714Y-97885714D01*
X129728571Y-97771428D01*
X129728571Y-97314285D01*
X129785714Y-97200000D01*
X129900000Y-97142857D01*
X130128571Y-97142857D01*
X130242857Y-97200000D01*
X130300000Y-97314285D01*
X130300000Y-97428571D01*
X129728571Y-97542857D01*
X130814285Y-97942857D02*
X130814285Y-97142857D01*
X130814285Y-97371428D02*
X130871428Y-97257142D01*
X130928571Y-97200000D01*
X131042857Y-97142857D01*
X131157142Y-97142857D01*
X131385714Y-97142857D02*
X131842857Y-97142857D01*
X131557142Y-96742857D02*
X131557142Y-97771428D01*
X131614285Y-97885714D01*
X131728571Y-97942857D01*
X131842857Y-97942857D01*
X132185714Y-96857142D02*
X132242857Y-96800000D01*
X132357142Y-96742857D01*
X132642857Y-96742857D01*
X132757142Y-96800000D01*
X132814285Y-96857142D01*
X132871428Y-96971428D01*
X132871428Y-97085714D01*
X132814285Y-97257142D01*
X132128571Y-97942857D01*
X132871428Y-97942857D01*
D11*
X140838095Y-106271428D02*
X140895238Y-106290476D01*
X140914285Y-106309523D01*
X140933333Y-106347619D01*
X140933333Y-106404761D01*
X140914285Y-106442857D01*
X140895238Y-106461904D01*
X140857142Y-106480952D01*
X140704761Y-106480952D01*
X140704761Y-106080952D01*
X140838095Y-106080952D01*
X140876190Y-106100000D01*
X140895238Y-106119047D01*
X140914285Y-106157142D01*
X140914285Y-106195238D01*
X140895238Y-106233333D01*
X140876190Y-106252380D01*
X140838095Y-106271428D01*
X140704761Y-106271428D01*
X141180952Y-106080952D02*
X141219047Y-106080952D01*
X141257142Y-106100000D01*
X141276190Y-106119047D01*
X141295238Y-106157142D01*
X141314285Y-106233333D01*
X141314285Y-106328571D01*
X141295238Y-106404761D01*
X141276190Y-106442857D01*
X141257142Y-106461904D01*
X141219047Y-106480952D01*
X141180952Y-106480952D01*
X141142857Y-106461904D01*
X141123809Y-106442857D01*
X141104761Y-106404761D01*
X141085714Y-106328571D01*
X141085714Y-106233333D01*
X141104761Y-106157142D01*
X141123809Y-106119047D01*
X141142857Y-106100000D01*
X141180952Y-106080952D01*
D12*
X146171428Y-76128571D02*
X146371428Y-76414285D01*
X146514285Y-76128571D02*
X146514285Y-76728571D01*
X146285714Y-76728571D01*
X146228571Y-76700000D01*
X146200000Y-76671428D01*
X146171428Y-76614285D01*
X146171428Y-76528571D01*
X146200000Y-76471428D01*
X146228571Y-76442857D01*
X146285714Y-76414285D01*
X146514285Y-76414285D01*
X145914285Y-76128571D02*
X145914285Y-76728571D01*
X145428571Y-76442857D02*
X145342857Y-76414285D01*
X145314285Y-76385714D01*
X145285714Y-76328571D01*
X145285714Y-76242857D01*
X145314285Y-76185714D01*
X145342857Y-76157142D01*
X145400000Y-76128571D01*
X145628571Y-76128571D01*
X145628571Y-76728571D01*
X145428571Y-76728571D01*
X145371428Y-76700000D01*
X145342857Y-76671428D01*
X145314285Y-76614285D01*
X145314285Y-76557142D01*
X145342857Y-76500000D01*
X145371428Y-76471428D01*
X145428571Y-76442857D01*
X145628571Y-76442857D01*
X144142857Y-76757142D02*
X144657142Y-75985714D01*
X143142857Y-76185714D02*
X143171428Y-76157142D01*
X143257142Y-76128571D01*
X143314285Y-76128571D01*
X143400000Y-76157142D01*
X143457142Y-76214285D01*
X143485714Y-76271428D01*
X143514285Y-76385714D01*
X143514285Y-76471428D01*
X143485714Y-76585714D01*
X143457142Y-76642857D01*
X143400000Y-76700000D01*
X143314285Y-76728571D01*
X143257142Y-76728571D01*
X143171428Y-76700000D01*
X143142857Y-76671428D01*
X142771428Y-76728571D02*
X142657142Y-76728571D01*
X142600000Y-76700000D01*
X142542857Y-76642857D01*
X142514285Y-76528571D01*
X142514285Y-76328571D01*
X142542857Y-76214285D01*
X142600000Y-76157142D01*
X142657142Y-76128571D01*
X142771428Y-76128571D01*
X142828571Y-76157142D01*
X142885714Y-76214285D01*
X142914285Y-76328571D01*
X142914285Y-76528571D01*
X142885714Y-76642857D01*
X142828571Y-76700000D01*
X142771428Y-76728571D01*
X142285714Y-76157142D02*
X142200000Y-76128571D01*
X142057142Y-76128571D01*
X142000000Y-76157142D01*
X141971428Y-76185714D01*
X141942857Y-76242857D01*
X141942857Y-76300000D01*
X141971428Y-76357142D01*
X142000000Y-76385714D01*
X142057142Y-76414285D01*
X142171428Y-76442857D01*
X142228571Y-76471428D01*
X142257142Y-76500000D01*
X142285714Y-76557142D01*
X142285714Y-76614285D01*
X142257142Y-76671428D01*
X142228571Y-76700000D01*
X142171428Y-76728571D01*
X142028571Y-76728571D01*
X141942857Y-76700000D01*
X141771428Y-76728571D02*
X141428571Y-76728571D01*
X141600000Y-76128571D02*
X141600000Y-76728571D01*
X141228571Y-76442857D02*
X141028571Y-76442857D01*
X140942857Y-76128571D02*
X141228571Y-76128571D01*
X141228571Y-76728571D01*
X140942857Y-76728571D01*
X140400000Y-76128571D02*
X140685714Y-76128571D01*
X140685714Y-76728571D01*
X139914285Y-76128571D02*
X140200000Y-76128571D01*
X140200000Y-76728571D01*
X139742857Y-76300000D02*
X139457142Y-76300000D01*
X139800000Y-76128571D02*
X139600000Y-76728571D01*
X139400000Y-76128571D01*
D11*
X157916666Y-113255714D02*
X157916666Y-113065238D01*
X158030952Y-113293809D02*
X157630952Y-113160476D01*
X158030952Y-113027142D01*
X157669047Y-112912857D02*
X157650000Y-112893809D01*
X157630952Y-112855714D01*
X157630952Y-112760476D01*
X157650000Y-112722380D01*
X157669047Y-112703333D01*
X157707142Y-112684285D01*
X157745238Y-112684285D01*
X157802380Y-112703333D01*
X158030952Y-112931904D01*
X158030952Y-112684285D01*
X145714285Y-86366666D02*
X145904761Y-86366666D01*
X145676190Y-86480952D02*
X145809523Y-86080952D01*
X145942857Y-86480952D01*
X146038095Y-86080952D02*
X146285714Y-86080952D01*
X146152380Y-86233333D01*
X146209523Y-86233333D01*
X146247619Y-86252380D01*
X146266666Y-86271428D01*
X146285714Y-86309523D01*
X146285714Y-86404761D01*
X146266666Y-86442857D01*
X146247619Y-86461904D01*
X146209523Y-86480952D01*
X146095238Y-86480952D01*
X146057142Y-86461904D01*
X146038095Y-86442857D01*
X146814285Y-106366666D02*
X147004761Y-106366666D01*
X146776190Y-106480952D02*
X146909523Y-106080952D01*
X147042857Y-106480952D01*
X147176190Y-106480952D02*
X147176190Y-106080952D01*
X147271428Y-106080952D01*
X147328571Y-106100000D01*
X147366666Y-106138095D01*
X147385714Y-106176190D01*
X147404761Y-106252380D01*
X147404761Y-106309523D01*
X147385714Y-106385714D01*
X147366666Y-106423809D01*
X147328571Y-106461904D01*
X147271428Y-106480952D01*
X147176190Y-106480952D01*
X147785714Y-106480952D02*
X147557142Y-106480952D01*
X147671428Y-106480952D02*
X147671428Y-106080952D01*
X147633333Y-106138095D01*
X147595238Y-106176190D01*
X147557142Y-106195238D01*
X156266666Y-94685714D02*
X156266666Y-94495238D01*
X156380952Y-94723809D02*
X155980952Y-94590476D01*
X156380952Y-94457142D01*
X155980952Y-94247619D02*
X155980952Y-94209523D01*
X156000000Y-94171428D01*
X156019047Y-94152380D01*
X156057142Y-94133333D01*
X156133333Y-94114285D01*
X156228571Y-94114285D01*
X156304761Y-94133333D01*
X156342857Y-94152380D01*
X156361904Y-94171428D01*
X156380952Y-94209523D01*
X156380952Y-94247619D01*
X156361904Y-94285714D01*
X156342857Y-94304761D01*
X156304761Y-94323809D01*
X156228571Y-94342857D01*
X156133333Y-94342857D01*
X156057142Y-94323809D01*
X156019047Y-94304761D01*
X156000000Y-94285714D01*
X155980952Y-94247619D01*
X159842857Y-99419047D02*
X159861904Y-99438095D01*
X159880952Y-99495238D01*
X159880952Y-99533333D01*
X159861904Y-99590476D01*
X159823809Y-99628571D01*
X159785714Y-99647619D01*
X159709523Y-99666666D01*
X159652380Y-99666666D01*
X159576190Y-99647619D01*
X159538095Y-99628571D01*
X159500000Y-99590476D01*
X159480952Y-99533333D01*
X159480952Y-99495238D01*
X159500000Y-99438095D01*
X159519047Y-99419047D01*
X159480952Y-99304761D02*
X159480952Y-99076190D01*
X159880952Y-99190476D02*
X159480952Y-99190476D01*
X159480952Y-98980952D02*
X159880952Y-98714285D01*
X159480952Y-98714285D02*
X159880952Y-98980952D01*
X156361904Y-101176190D02*
X156380952Y-101119047D01*
X156380952Y-101023809D01*
X156361904Y-100985714D01*
X156342857Y-100966666D01*
X156304761Y-100947619D01*
X156266666Y-100947619D01*
X156228571Y-100966666D01*
X156209523Y-100985714D01*
X156190476Y-101023809D01*
X156171428Y-101100000D01*
X156152380Y-101138095D01*
X156133333Y-101157142D01*
X156095238Y-101176190D01*
X156057142Y-101176190D01*
X156019047Y-101157142D01*
X156000000Y-101138095D01*
X155980952Y-101100000D01*
X155980952Y-101004761D01*
X156000000Y-100947619D01*
X156342857Y-100547619D02*
X156361904Y-100566666D01*
X156380952Y-100623809D01*
X156380952Y-100661904D01*
X156361904Y-100719047D01*
X156323809Y-100757142D01*
X156285714Y-100776190D01*
X156209523Y-100795238D01*
X156152380Y-100795238D01*
X156076190Y-100776190D01*
X156038095Y-100757142D01*
X156000000Y-100719047D01*
X155980952Y-100661904D01*
X155980952Y-100623809D01*
X156000000Y-100566666D01*
X156019047Y-100547619D01*
X156380952Y-100185714D02*
X156380952Y-100376190D01*
X155980952Y-100376190D01*
D12*
X159371428Y-89128571D02*
X159971428Y-88928571D01*
X159371428Y-88728571D01*
X159657142Y-88528571D02*
X159657142Y-88328571D01*
X159971428Y-88242857D02*
X159971428Y-88528571D01*
X159371428Y-88528571D01*
X159371428Y-88242857D01*
X159971428Y-87642857D02*
X159685714Y-87842857D01*
X159971428Y-87985714D02*
X159371428Y-87985714D01*
X159371428Y-87757142D01*
X159400000Y-87700000D01*
X159428571Y-87671428D01*
X159485714Y-87642857D01*
X159571428Y-87642857D01*
X159628571Y-87671428D01*
X159657142Y-87700000D01*
X159685714Y-87757142D01*
X159685714Y-87985714D01*
X159371428Y-87471428D02*
X159371428Y-87128571D01*
X159971428Y-87300000D02*
X159371428Y-87300000D01*
X159657142Y-86928571D02*
X159657142Y-86728571D01*
X159971428Y-86642857D02*
X159971428Y-86928571D01*
X159371428Y-86928571D01*
X159371428Y-86642857D01*
X159657142Y-86185714D02*
X159685714Y-86100000D01*
X159714285Y-86071428D01*
X159771428Y-86042857D01*
X159857142Y-86042857D01*
X159914285Y-86071428D01*
X159942857Y-86100000D01*
X159971428Y-86157142D01*
X159971428Y-86385714D01*
X159371428Y-86385714D01*
X159371428Y-86185714D01*
X159400000Y-86128571D01*
X159428571Y-86100000D01*
X159485714Y-86071428D01*
X159542857Y-86071428D01*
X159600000Y-86100000D01*
X159628571Y-86128571D01*
X159657142Y-86185714D01*
X159657142Y-86385714D01*
X159971428Y-85442857D02*
X159685714Y-85642857D01*
X159971428Y-85785714D02*
X159371428Y-85785714D01*
X159371428Y-85557142D01*
X159400000Y-85500000D01*
X159428571Y-85471428D01*
X159485714Y-85442857D01*
X159571428Y-85442857D01*
X159628571Y-85471428D01*
X159657142Y-85500000D01*
X159685714Y-85557142D01*
X159685714Y-85785714D01*
X159800000Y-85214285D02*
X159800000Y-84928571D01*
X159971428Y-85271428D02*
X159371428Y-85071428D01*
X159971428Y-84871428D01*
X151132857Y-81570000D02*
X151075714Y-81541428D01*
X150990000Y-81541428D01*
X150904285Y-81570000D01*
X150847142Y-81627142D01*
X150818571Y-81684285D01*
X150790000Y-81798571D01*
X150790000Y-81884285D01*
X150818571Y-81998571D01*
X150847142Y-82055714D01*
X150904285Y-82112857D01*
X150990000Y-82141428D01*
X151047142Y-82141428D01*
X151132857Y-82112857D01*
X151161428Y-82084285D01*
X151161428Y-81884285D01*
X151047142Y-81884285D01*
X151418571Y-82141428D02*
X151418571Y-81541428D01*
X151761428Y-82141428D01*
X151761428Y-81541428D01*
X152047142Y-82141428D02*
X152047142Y-81541428D01*
X152190000Y-81541428D01*
X152275714Y-81570000D01*
X152332857Y-81627142D01*
X152361428Y-81684285D01*
X152390000Y-81798571D01*
X152390000Y-81884285D01*
X152361428Y-81998571D01*
X152332857Y-82055714D01*
X152275714Y-82112857D01*
X152190000Y-82141428D01*
X152047142Y-82141428D01*
D11*
X156171428Y-97061904D02*
X156190476Y-97004761D01*
X156209523Y-96985714D01*
X156247619Y-96966666D01*
X156304761Y-96966666D01*
X156342857Y-96985714D01*
X156361904Y-97004761D01*
X156380952Y-97042857D01*
X156380952Y-97195238D01*
X155980952Y-97195238D01*
X155980952Y-97061904D01*
X156000000Y-97023809D01*
X156019047Y-97004761D01*
X156057142Y-96985714D01*
X156095238Y-96985714D01*
X156133333Y-97004761D01*
X156152380Y-97023809D01*
X156171428Y-97061904D01*
X156171428Y-97195238D01*
X155980952Y-96604761D02*
X155980952Y-96795238D01*
X156171428Y-96814285D01*
X156152380Y-96795238D01*
X156133333Y-96757142D01*
X156133333Y-96661904D01*
X156152380Y-96623809D01*
X156171428Y-96604761D01*
X156209523Y-96585714D01*
X156304761Y-96585714D01*
X156342857Y-96604761D01*
X156361904Y-96623809D01*
X156380952Y-96661904D01*
X156380952Y-96757142D01*
X156361904Y-96795238D01*
X156342857Y-96814285D01*
X164006666Y-118295714D02*
X164006666Y-118105238D01*
X164120952Y-118333809D02*
X163720952Y-118200476D01*
X164120952Y-118067142D01*
X163720952Y-117857619D02*
X163720952Y-117819523D01*
X163740000Y-117781428D01*
X163759047Y-117762380D01*
X163797142Y-117743333D01*
X163873333Y-117724285D01*
X163968571Y-117724285D01*
X164044761Y-117743333D01*
X164082857Y-117762380D01*
X164101904Y-117781428D01*
X164120952Y-117819523D01*
X164120952Y-117857619D01*
X164101904Y-117895714D01*
X164082857Y-117914761D01*
X164044761Y-117933809D01*
X163968571Y-117952857D01*
X163873333Y-117952857D01*
X163797142Y-117933809D01*
X163759047Y-117914761D01*
X163740000Y-117895714D01*
X163720952Y-117857619D01*
X157856666Y-118285714D02*
X157856666Y-118095238D01*
X157970952Y-118323809D02*
X157570952Y-118190476D01*
X157970952Y-118057142D01*
X157570952Y-117847619D02*
X157570952Y-117809523D01*
X157590000Y-117771428D01*
X157609047Y-117752380D01*
X157647142Y-117733333D01*
X157723333Y-117714285D01*
X157818571Y-117714285D01*
X157894761Y-117733333D01*
X157932857Y-117752380D01*
X157951904Y-117771428D01*
X157970952Y-117809523D01*
X157970952Y-117847619D01*
X157951904Y-117885714D01*
X157932857Y-117904761D01*
X157894761Y-117923809D01*
X157818571Y-117942857D01*
X157723333Y-117942857D01*
X157647142Y-117923809D01*
X157609047Y-117904761D01*
X157590000Y-117885714D01*
X157570952Y-117847619D01*
X142038095Y-106271428D02*
X142095238Y-106290476D01*
X142114285Y-106309523D01*
X142133333Y-106347619D01*
X142133333Y-106404761D01*
X142114285Y-106442857D01*
X142095238Y-106461904D01*
X142057142Y-106480952D01*
X141904761Y-106480952D01*
X141904761Y-106080952D01*
X142038095Y-106080952D01*
X142076190Y-106100000D01*
X142095238Y-106119047D01*
X142114285Y-106157142D01*
X142114285Y-106195238D01*
X142095238Y-106233333D01*
X142076190Y-106252380D01*
X142038095Y-106271428D01*
X141904761Y-106271428D01*
X142514285Y-106480952D02*
X142285714Y-106480952D01*
X142400000Y-106480952D02*
X142400000Y-106080952D01*
X142361904Y-106138095D01*
X142323809Y-106176190D01*
X142285714Y-106195238D01*
X143338095Y-106271428D02*
X143395238Y-106290476D01*
X143414285Y-106309523D01*
X143433333Y-106347619D01*
X143433333Y-106404761D01*
X143414285Y-106442857D01*
X143395238Y-106461904D01*
X143357142Y-106480952D01*
X143204761Y-106480952D01*
X143204761Y-106080952D01*
X143338095Y-106080952D01*
X143376190Y-106100000D01*
X143395238Y-106119047D01*
X143414285Y-106157142D01*
X143414285Y-106195238D01*
X143395238Y-106233333D01*
X143376190Y-106252380D01*
X143338095Y-106271428D01*
X143204761Y-106271428D01*
X143585714Y-106119047D02*
X143604761Y-106100000D01*
X143642857Y-106080952D01*
X143738095Y-106080952D01*
X143776190Y-106100000D01*
X143795238Y-106119047D01*
X143814285Y-106157142D01*
X143814285Y-106195238D01*
X143795238Y-106252380D01*
X143566666Y-106480952D01*
X143814285Y-106480952D01*
X136795238Y-86100000D02*
X136757142Y-86080952D01*
X136700000Y-86080952D01*
X136642857Y-86100000D01*
X136604761Y-86138095D01*
X136585714Y-86176190D01*
X136566666Y-86252380D01*
X136566666Y-86309523D01*
X136585714Y-86385714D01*
X136604761Y-86423809D01*
X136642857Y-86461904D01*
X136700000Y-86480952D01*
X136738095Y-86480952D01*
X136795238Y-86461904D01*
X136814285Y-86442857D01*
X136814285Y-86309523D01*
X136738095Y-86309523D01*
X136985714Y-86480952D02*
X136985714Y-86080952D01*
X137214285Y-86480952D01*
X137214285Y-86080952D01*
X137404761Y-86480952D02*
X137404761Y-86080952D01*
X137500000Y-86080952D01*
X137557142Y-86100000D01*
X137595238Y-86138095D01*
X137614285Y-86176190D01*
X137633333Y-86252380D01*
X137633333Y-86309523D01*
X137614285Y-86385714D01*
X137595238Y-86423809D01*
X137557142Y-86461904D01*
X137500000Y-86480952D01*
X137404761Y-86480952D01*
X157886666Y-115665714D02*
X157886666Y-115475238D01*
X158000952Y-115703809D02*
X157600952Y-115570476D01*
X158000952Y-115437142D01*
X158000952Y-115094285D02*
X158000952Y-115322857D01*
X158000952Y-115208571D02*
X157600952Y-115208571D01*
X157658095Y-115246666D01*
X157696190Y-115284761D01*
X157715238Y-115322857D01*
X144414285Y-86366666D02*
X144604761Y-86366666D01*
X144376190Y-86480952D02*
X144509523Y-86080952D01*
X144642857Y-86480952D01*
X144947619Y-86214285D02*
X144947619Y-86480952D01*
X144852380Y-86061904D02*
X144757142Y-86347619D01*
X145004761Y-86347619D01*
X139480952Y-106480952D02*
X139347619Y-106290476D01*
X139252380Y-106480952D02*
X139252380Y-106080952D01*
X139404761Y-106080952D01*
X139442857Y-106100000D01*
X139461904Y-106119047D01*
X139480952Y-106157142D01*
X139480952Y-106214285D01*
X139461904Y-106252380D01*
X139442857Y-106271428D01*
X139404761Y-106290476D01*
X139252380Y-106290476D01*
X139633333Y-106461904D02*
X139690476Y-106480952D01*
X139785714Y-106480952D01*
X139823809Y-106461904D01*
X139842857Y-106442857D01*
X139861904Y-106404761D01*
X139861904Y-106366666D01*
X139842857Y-106328571D01*
X139823809Y-106309523D01*
X139785714Y-106290476D01*
X139709523Y-106271428D01*
X139671428Y-106252380D01*
X139652380Y-106233333D01*
X139633333Y-106195238D01*
X139633333Y-106157142D01*
X139652380Y-106119047D01*
X139671428Y-106100000D01*
X139709523Y-106080952D01*
X139804761Y-106080952D01*
X139861904Y-106100000D01*
X139976190Y-106080952D02*
X140204761Y-106080952D01*
X140090476Y-106480952D02*
X140090476Y-106080952D01*
X159842857Y-96866666D02*
X159861904Y-96885714D01*
X159880952Y-96942857D01*
X159880952Y-96980952D01*
X159861904Y-97038095D01*
X159823809Y-97076190D01*
X159785714Y-97095238D01*
X159709523Y-97114285D01*
X159652380Y-97114285D01*
X159576190Y-97095238D01*
X159538095Y-97076190D01*
X159500000Y-97038095D01*
X159480952Y-96980952D01*
X159480952Y-96942857D01*
X159500000Y-96885714D01*
X159519047Y-96866666D01*
X159880952Y-96466666D02*
X159690476Y-96600000D01*
X159880952Y-96695238D02*
X159480952Y-96695238D01*
X159480952Y-96542857D01*
X159500000Y-96504761D01*
X159519047Y-96485714D01*
X159557142Y-96466666D01*
X159614285Y-96466666D01*
X159652380Y-96485714D01*
X159671428Y-96504761D01*
X159690476Y-96542857D01*
X159690476Y-96695238D01*
X159480952Y-96333333D02*
X159880952Y-96066666D01*
X159480952Y-96066666D02*
X159880952Y-96333333D01*
X136795238Y-106100000D02*
X136757142Y-106080952D01*
X136700000Y-106080952D01*
X136642857Y-106100000D01*
X136604761Y-106138095D01*
X136585714Y-106176190D01*
X136566666Y-106252380D01*
X136566666Y-106309523D01*
X136585714Y-106385714D01*
X136604761Y-106423809D01*
X136642857Y-106461904D01*
X136700000Y-106480952D01*
X136738095Y-106480952D01*
X136795238Y-106461904D01*
X136814285Y-106442857D01*
X136814285Y-106309523D01*
X136738095Y-106309523D01*
X136985714Y-106480952D02*
X136985714Y-106080952D01*
X137214285Y-106480952D01*
X137214285Y-106080952D01*
X137404761Y-106480952D02*
X137404761Y-106080952D01*
X137500000Y-106080952D01*
X137557142Y-106100000D01*
X137595238Y-106138095D01*
X137614285Y-106176190D01*
X137633333Y-106252380D01*
X137633333Y-106309523D01*
X137614285Y-106385714D01*
X137595238Y-106423809D01*
X137557142Y-106461904D01*
X137500000Y-106480952D01*
X137404761Y-106480952D01*
X163976666Y-113195714D02*
X163976666Y-113005238D01*
X164090952Y-113233809D02*
X163690952Y-113100476D01*
X164090952Y-112967142D01*
X163729047Y-112852857D02*
X163710000Y-112833809D01*
X163690952Y-112795714D01*
X163690952Y-112700476D01*
X163710000Y-112662380D01*
X163729047Y-112643333D01*
X163767142Y-112624285D01*
X163805238Y-112624285D01*
X163862380Y-112643333D01*
X164090952Y-112871904D01*
X164090952Y-112624285D01*
X159500000Y-102004761D02*
X159480952Y-102042857D01*
X159480952Y-102100000D01*
X159500000Y-102157142D01*
X159538095Y-102195238D01*
X159576190Y-102214285D01*
X159652380Y-102233333D01*
X159709523Y-102233333D01*
X159785714Y-102214285D01*
X159823809Y-102195238D01*
X159861904Y-102157142D01*
X159880952Y-102100000D01*
X159880952Y-102061904D01*
X159861904Y-102004761D01*
X159842857Y-101985714D01*
X159709523Y-101985714D01*
X159709523Y-102061904D01*
X159880952Y-101814285D02*
X159480952Y-101814285D01*
X159880952Y-101585714D01*
X159480952Y-101585714D01*
X159880952Y-101395238D02*
X159480952Y-101395238D01*
X159480952Y-101300000D01*
X159500000Y-101242857D01*
X159538095Y-101204761D01*
X159576190Y-101185714D01*
X159652380Y-101166666D01*
X159709523Y-101166666D01*
X159785714Y-101185714D01*
X159823809Y-101204761D01*
X159861904Y-101242857D01*
X159880952Y-101300000D01*
X159880952Y-101395238D01*
D12*
X145867142Y-81541428D02*
X146238571Y-81541428D01*
X146038571Y-81770000D01*
X146124285Y-81770000D01*
X146181428Y-81798571D01*
X146210000Y-81827142D01*
X146238571Y-81884285D01*
X146238571Y-82027142D01*
X146210000Y-82084285D01*
X146181428Y-82112857D01*
X146124285Y-82141428D01*
X145952857Y-82141428D01*
X145895714Y-82112857D01*
X145867142Y-82084285D01*
X146410000Y-81541428D02*
X146610000Y-82141428D01*
X146810000Y-81541428D01*
X146952857Y-81541428D02*
X147324285Y-81541428D01*
X147124285Y-81770000D01*
X147210000Y-81770000D01*
X147267142Y-81798571D01*
X147295714Y-81827142D01*
X147324285Y-81884285D01*
X147324285Y-82027142D01*
X147295714Y-82084285D01*
X147267142Y-82112857D01*
X147210000Y-82141428D01*
X147038571Y-82141428D01*
X146981428Y-82112857D01*
X146952857Y-82084285D01*
X139828571Y-109971428D02*
X139628571Y-109685714D01*
X139485714Y-109971428D02*
X139485714Y-109371428D01*
X139714285Y-109371428D01*
X139771428Y-109400000D01*
X139800000Y-109428571D01*
X139828571Y-109485714D01*
X139828571Y-109571428D01*
X139800000Y-109628571D01*
X139771428Y-109657142D01*
X139714285Y-109685714D01*
X139485714Y-109685714D01*
X140085714Y-109971428D02*
X140085714Y-109371428D01*
X140571428Y-109657142D02*
X140657142Y-109685714D01*
X140685714Y-109714285D01*
X140714285Y-109771428D01*
X140714285Y-109857142D01*
X140685714Y-109914285D01*
X140657142Y-109942857D01*
X140600000Y-109971428D01*
X140371428Y-109971428D01*
X140371428Y-109371428D01*
X140571428Y-109371428D01*
X140628571Y-109400000D01*
X140657142Y-109428571D01*
X140685714Y-109485714D01*
X140685714Y-109542857D01*
X140657142Y-109600000D01*
X140628571Y-109628571D01*
X140571428Y-109657142D01*
X140371428Y-109657142D01*
X141857142Y-109342857D02*
X141342857Y-110114285D01*
X142857142Y-109914285D02*
X142828571Y-109942857D01*
X142742857Y-109971428D01*
X142685714Y-109971428D01*
X142600000Y-109942857D01*
X142542857Y-109885714D01*
X142514285Y-109828571D01*
X142485714Y-109714285D01*
X142485714Y-109628571D01*
X142514285Y-109514285D01*
X142542857Y-109457142D01*
X142600000Y-109400000D01*
X142685714Y-109371428D01*
X142742857Y-109371428D01*
X142828571Y-109400000D01*
X142857142Y-109428571D01*
X143228571Y-109371428D02*
X143342857Y-109371428D01*
X143400000Y-109400000D01*
X143457142Y-109457142D01*
X143485714Y-109571428D01*
X143485714Y-109771428D01*
X143457142Y-109885714D01*
X143400000Y-109942857D01*
X143342857Y-109971428D01*
X143228571Y-109971428D01*
X143171428Y-109942857D01*
X143114285Y-109885714D01*
X143085714Y-109771428D01*
X143085714Y-109571428D01*
X143114285Y-109457142D01*
X143171428Y-109400000D01*
X143228571Y-109371428D01*
X143714285Y-109942857D02*
X143800000Y-109971428D01*
X143942857Y-109971428D01*
X144000000Y-109942857D01*
X144028571Y-109914285D01*
X144057142Y-109857142D01*
X144057142Y-109800000D01*
X144028571Y-109742857D01*
X144000000Y-109714285D01*
X143942857Y-109685714D01*
X143828571Y-109657142D01*
X143771428Y-109628571D01*
X143742857Y-109600000D01*
X143714285Y-109542857D01*
X143714285Y-109485714D01*
X143742857Y-109428571D01*
X143771428Y-109400000D01*
X143828571Y-109371428D01*
X143971428Y-109371428D01*
X144057142Y-109400000D01*
X144228571Y-109371428D02*
X144571428Y-109371428D01*
X144400000Y-109971428D02*
X144400000Y-109371428D01*
X144771428Y-109657142D02*
X144971428Y-109657142D01*
X145057142Y-109971428D02*
X144771428Y-109971428D01*
X144771428Y-109371428D01*
X145057142Y-109371428D01*
X145600000Y-109971428D02*
X145314285Y-109971428D01*
X145314285Y-109371428D01*
X146085714Y-109971428D02*
X145800000Y-109971428D01*
X145800000Y-109371428D01*
X146257142Y-109800000D02*
X146542857Y-109800000D01*
X146200000Y-109971428D02*
X146400000Y-109371428D01*
X146600000Y-109971428D01*
D11*
X144638095Y-106271428D02*
X144695238Y-106290476D01*
X144714285Y-106309523D01*
X144733333Y-106347619D01*
X144733333Y-106404761D01*
X144714285Y-106442857D01*
X144695238Y-106461904D01*
X144657142Y-106480952D01*
X144504761Y-106480952D01*
X144504761Y-106080952D01*
X144638095Y-106080952D01*
X144676190Y-106100000D01*
X144695238Y-106119047D01*
X144714285Y-106157142D01*
X144714285Y-106195238D01*
X144695238Y-106233333D01*
X144676190Y-106252380D01*
X144638095Y-106271428D01*
X144504761Y-106271428D01*
X144866666Y-106080952D02*
X145114285Y-106080952D01*
X144980952Y-106233333D01*
X145038095Y-106233333D01*
X145076190Y-106252380D01*
X145095238Y-106271428D01*
X145114285Y-106309523D01*
X145114285Y-106404761D01*
X145095238Y-106442857D01*
X145076190Y-106461904D01*
X145038095Y-106480952D01*
X144923809Y-106480952D01*
X144885714Y-106461904D01*
X144866666Y-106442857D01*
X139414285Y-86366666D02*
X139604761Y-86366666D01*
X139376190Y-86480952D02*
X139509523Y-86080952D01*
X139642857Y-86480952D01*
X139947619Y-86080952D02*
X139871428Y-86080952D01*
X139833333Y-86100000D01*
X139814285Y-86119047D01*
X139776190Y-86176190D01*
X139757142Y-86252380D01*
X139757142Y-86404761D01*
X139776190Y-86442857D01*
X139795238Y-86461904D01*
X139833333Y-86480952D01*
X139909523Y-86480952D01*
X139947619Y-86461904D01*
X139966666Y-86442857D01*
X139985714Y-86404761D01*
X139985714Y-86309523D01*
X139966666Y-86271428D01*
X139947619Y-86252380D01*
X139909523Y-86233333D01*
X139833333Y-86233333D01*
X139795238Y-86252380D01*
X139776190Y-86271428D01*
X139757142Y-86309523D01*
X156171428Y-95761904D02*
X156190476Y-95704761D01*
X156209523Y-95685714D01*
X156247619Y-95666666D01*
X156304761Y-95666666D01*
X156342857Y-95685714D01*
X156361904Y-95704761D01*
X156380952Y-95742857D01*
X156380952Y-95895238D01*
X155980952Y-95895238D01*
X155980952Y-95761904D01*
X156000000Y-95723809D01*
X156019047Y-95704761D01*
X156057142Y-95685714D01*
X156095238Y-95685714D01*
X156133333Y-95704761D01*
X156152380Y-95723809D01*
X156171428Y-95761904D01*
X156171428Y-95895238D01*
X156114285Y-95323809D02*
X156380952Y-95323809D01*
X155961904Y-95419047D02*
X156247619Y-95514285D01*
X156247619Y-95266666D01*
D10*
X137395238Y-79185714D02*
X137585714Y-79852380D01*
X137776190Y-79376190D01*
X137966666Y-79852380D01*
X138157142Y-79185714D01*
X138442857Y-79185714D02*
X138633333Y-79852380D01*
X138823809Y-79376190D01*
X139014285Y-79852380D01*
X139204761Y-79185714D01*
X139490476Y-79185714D02*
X139680952Y-79852380D01*
X139871428Y-79376190D01*
X140061904Y-79852380D01*
X140252380Y-79185714D01*
X140633333Y-79757142D02*
X140680952Y-79804761D01*
X140633333Y-79852380D01*
X140585714Y-79804761D01*
X140633333Y-79757142D01*
X140633333Y-79852380D01*
X141109523Y-79852380D02*
X141109523Y-79185714D01*
X141109523Y-78852380D02*
X141061904Y-78900000D01*
X141109523Y-78947619D01*
X141157142Y-78900000D01*
X141109523Y-78852380D01*
X141109523Y-78947619D01*
X141728571Y-79852380D02*
X141633333Y-79804761D01*
X141585714Y-79757142D01*
X141538095Y-79661904D01*
X141538095Y-79376190D01*
X141585714Y-79280952D01*
X141633333Y-79233333D01*
X141728571Y-79185714D01*
X141871428Y-79185714D01*
X141966666Y-79233333D01*
X142014285Y-79280952D01*
X142061904Y-79376190D01*
X142061904Y-79661904D01*
X142014285Y-79757142D01*
X141966666Y-79804761D01*
X141871428Y-79852380D01*
X141728571Y-79852380D01*
X142347619Y-79185714D02*
X142728571Y-79185714D01*
X142490476Y-78852380D02*
X142490476Y-79709523D01*
X142538095Y-79804761D01*
X142633333Y-79852380D01*
X142728571Y-79852380D01*
X142966666Y-79185714D02*
X143204761Y-79852380D01*
X143442857Y-79185714D01*
X144204761Y-79804761D02*
X144109523Y-79852380D01*
X143919047Y-79852380D01*
X143823809Y-79804761D01*
X143776190Y-79709523D01*
X143776190Y-79328571D01*
X143823809Y-79233333D01*
X143919047Y-79185714D01*
X144109523Y-79185714D01*
X144204761Y-79233333D01*
X144252380Y-79328571D01*
X144252380Y-79423809D01*
X143776190Y-79519047D01*
X144680952Y-79852380D02*
X144680952Y-79185714D01*
X144680952Y-79376190D02*
X144728571Y-79280952D01*
X144776190Y-79233333D01*
X144871428Y-79185714D01*
X144966666Y-79185714D01*
X145157142Y-79185714D02*
X145538095Y-79185714D01*
X145300000Y-78852380D02*
X145300000Y-79709523D01*
X145347619Y-79804761D01*
X145442857Y-79852380D01*
X145538095Y-79852380D01*
X146252380Y-79804761D02*
X146157142Y-79852380D01*
X145966666Y-79852380D01*
X145871428Y-79804761D01*
X145823809Y-79709523D01*
X145823809Y-79328571D01*
X145871428Y-79233333D01*
X145966666Y-79185714D01*
X146157142Y-79185714D01*
X146252380Y-79233333D01*
X146300000Y-79328571D01*
X146300000Y-79423809D01*
X145823809Y-79519047D01*
X146728571Y-79852380D02*
X146728571Y-78852380D01*
X146728571Y-79233333D02*
X146823809Y-79185714D01*
X147014285Y-79185714D01*
X147109523Y-79233333D01*
X147157142Y-79280952D01*
X147204761Y-79376190D01*
X147204761Y-79661904D01*
X147157142Y-79757142D01*
X147109523Y-79804761D01*
X147014285Y-79852380D01*
X146823809Y-79852380D01*
X146728571Y-79804761D01*
X147633333Y-79852380D02*
X147633333Y-79185714D01*
X147633333Y-79376190D02*
X147680952Y-79280952D01*
X147728571Y-79233333D01*
X147823809Y-79185714D01*
X147919047Y-79185714D01*
X148680952Y-79852380D02*
X148680952Y-79328571D01*
X148633333Y-79233333D01*
X148538095Y-79185714D01*
X148347619Y-79185714D01*
X148252380Y-79233333D01*
X148680952Y-79804761D02*
X148585714Y-79852380D01*
X148347619Y-79852380D01*
X148252380Y-79804761D01*
X148204761Y-79709523D01*
X148204761Y-79614285D01*
X148252380Y-79519047D01*
X148347619Y-79471428D01*
X148585714Y-79471428D01*
X148680952Y-79423809D01*
X149538095Y-79804761D02*
X149442857Y-79852380D01*
X149252380Y-79852380D01*
X149157142Y-79804761D01*
X149109523Y-79709523D01*
X149109523Y-79328571D01*
X149157142Y-79233333D01*
X149252380Y-79185714D01*
X149442857Y-79185714D01*
X149538095Y-79233333D01*
X149585714Y-79328571D01*
X149585714Y-79423809D01*
X149109523Y-79519047D01*
X150014285Y-79757142D02*
X150061904Y-79804761D01*
X150014285Y-79852380D01*
X149966666Y-79804761D01*
X150014285Y-79757142D01*
X150014285Y-79852380D01*
X150919047Y-79804761D02*
X150823809Y-79852380D01*
X150633333Y-79852380D01*
X150538095Y-79804761D01*
X150490476Y-79757142D01*
X150442857Y-79661904D01*
X150442857Y-79376190D01*
X150490476Y-79280952D01*
X150538095Y-79233333D01*
X150633333Y-79185714D01*
X150823809Y-79185714D01*
X150919047Y-79233333D01*
X151490476Y-79852380D02*
X151395238Y-79804761D01*
X151347619Y-79757142D01*
X151300000Y-79661904D01*
X151300000Y-79376190D01*
X151347619Y-79280952D01*
X151395238Y-79233333D01*
X151490476Y-79185714D01*
X151633333Y-79185714D01*
X151728571Y-79233333D01*
X151776190Y-79280952D01*
X151823809Y-79376190D01*
X151823809Y-79661904D01*
X151776190Y-79757142D01*
X151728571Y-79804761D01*
X151633333Y-79852380D01*
X151490476Y-79852380D01*
X152252380Y-79852380D02*
X152252380Y-79185714D01*
X152252380Y-79280952D02*
X152300000Y-79233333D01*
X152395238Y-79185714D01*
X152538095Y-79185714D01*
X152633333Y-79233333D01*
X152680952Y-79328571D01*
X152680952Y-79852380D01*
X152680952Y-79328571D02*
X152728571Y-79233333D01*
X152823809Y-79185714D01*
X152966666Y-79185714D01*
X153061904Y-79233333D01*
X153109523Y-79328571D01*
X153109523Y-79852380D01*
D12*
%TO.C,R2*%
X128480000Y-76691428D02*
X128280000Y-76405714D01*
X128137142Y-76691428D02*
X128137142Y-76091428D01*
X128365714Y-76091428D01*
X128422857Y-76120000D01*
X128451428Y-76148571D01*
X128480000Y-76205714D01*
X128480000Y-76291428D01*
X128451428Y-76348571D01*
X128422857Y-76377142D01*
X128365714Y-76405714D01*
X128137142Y-76405714D01*
X128708571Y-76148571D02*
X128737142Y-76120000D01*
X128794285Y-76091428D01*
X128937142Y-76091428D01*
X128994285Y-76120000D01*
X129022857Y-76148571D01*
X129051428Y-76205714D01*
X129051428Y-76262857D01*
X129022857Y-76348571D01*
X128680000Y-76691428D01*
X129051428Y-76691428D01*
%TO.C,U2*%
X160842857Y-78091428D02*
X160842857Y-78577142D01*
X160871428Y-78634285D01*
X160900000Y-78662857D01*
X160957142Y-78691428D01*
X161071428Y-78691428D01*
X161128571Y-78662857D01*
X161157142Y-78634285D01*
X161185714Y-78577142D01*
X161185714Y-78091428D01*
X161442857Y-78148571D02*
X161471428Y-78120000D01*
X161528571Y-78091428D01*
X161671428Y-78091428D01*
X161728571Y-78120000D01*
X161757142Y-78148571D01*
X161785714Y-78205714D01*
X161785714Y-78262857D01*
X161757142Y-78348571D01*
X161414285Y-78691428D01*
X161785714Y-78691428D01*
%TO.C,R3*%
X123421428Y-108600000D02*
X123135714Y-108800000D01*
X123421428Y-108942857D02*
X122821428Y-108942857D01*
X122821428Y-108714285D01*
X122850000Y-108657142D01*
X122878571Y-108628571D01*
X122935714Y-108600000D01*
X123021428Y-108600000D01*
X123078571Y-108628571D01*
X123107142Y-108657142D01*
X123135714Y-108714285D01*
X123135714Y-108942857D01*
X122821428Y-108400000D02*
X122821428Y-108028571D01*
X123050000Y-108228571D01*
X123050000Y-108142857D01*
X123078571Y-108085714D01*
X123107142Y-108057142D01*
X123164285Y-108028571D01*
X123307142Y-108028571D01*
X123364285Y-108057142D01*
X123392857Y-108085714D01*
X123421428Y-108142857D01*
X123421428Y-108314285D01*
X123392857Y-108371428D01*
X123364285Y-108400000D01*
%TO.C,J4*%
X169190000Y-77911428D02*
X169190000Y-78340000D01*
X169161428Y-78425714D01*
X169104285Y-78482857D01*
X169018571Y-78511428D01*
X168961428Y-78511428D01*
X169732857Y-78111428D02*
X169732857Y-78511428D01*
X169590000Y-77882857D02*
X169447142Y-78311428D01*
X169818571Y-78311428D01*
%TO.C,U1*%
X155701428Y-88107142D02*
X156187142Y-88107142D01*
X156244285Y-88078571D01*
X156272857Y-88050000D01*
X156301428Y-87992857D01*
X156301428Y-87878571D01*
X156272857Y-87821428D01*
X156244285Y-87792857D01*
X156187142Y-87764285D01*
X155701428Y-87764285D01*
X156301428Y-87164285D02*
X156301428Y-87507142D01*
X156301428Y-87335714D02*
X155701428Y-87335714D01*
X155787142Y-87392857D01*
X155844285Y-87450000D01*
X155872857Y-87507142D01*
%TO.C,R11*%
X166744285Y-78311428D02*
X166544285Y-78025714D01*
X166401428Y-78311428D02*
X166401428Y-77711428D01*
X166630000Y-77711428D01*
X166687142Y-77740000D01*
X166715714Y-77768571D01*
X166744285Y-77825714D01*
X166744285Y-77911428D01*
X166715714Y-77968571D01*
X166687142Y-77997142D01*
X166630000Y-78025714D01*
X166401428Y-78025714D01*
X167315714Y-78311428D02*
X166972857Y-78311428D01*
X167144285Y-78311428D02*
X167144285Y-77711428D01*
X167087142Y-77797142D01*
X167030000Y-77854285D01*
X166972857Y-77882857D01*
X167887142Y-78311428D02*
X167544285Y-78311428D01*
X167715714Y-78311428D02*
X167715714Y-77711428D01*
X167658571Y-77797142D01*
X167601428Y-77854285D01*
X167544285Y-77882857D01*
%TO.C,J2*%
X127770000Y-119191428D02*
X127770000Y-119620000D01*
X127741428Y-119705714D01*
X127684285Y-119762857D01*
X127598571Y-119791428D01*
X127541428Y-119791428D01*
X128027142Y-119248571D02*
X128055714Y-119220000D01*
X128112857Y-119191428D01*
X128255714Y-119191428D01*
X128312857Y-119220000D01*
X128341428Y-119248571D01*
X128370000Y-119305714D01*
X128370000Y-119362857D01*
X128341428Y-119448571D01*
X127998571Y-119791428D01*
X128370000Y-119791428D01*
%TO.C,C1*%
X135454285Y-107920000D02*
X135482857Y-107948571D01*
X135511428Y-108034285D01*
X135511428Y-108091428D01*
X135482857Y-108177142D01*
X135425714Y-108234285D01*
X135368571Y-108262857D01*
X135254285Y-108291428D01*
X135168571Y-108291428D01*
X135054285Y-108262857D01*
X134997142Y-108234285D01*
X134940000Y-108177142D01*
X134911428Y-108091428D01*
X134911428Y-108034285D01*
X134940000Y-107948571D01*
X134968571Y-107920000D01*
X135511428Y-107348571D02*
X135511428Y-107691428D01*
X135511428Y-107520000D02*
X134911428Y-107520000D01*
X134997142Y-107577142D01*
X135054285Y-107634285D01*
X135082857Y-107691428D01*
%TO.C,J7*%
X159170000Y-66811428D02*
X159170000Y-67240000D01*
X159141428Y-67325714D01*
X159084285Y-67382857D01*
X158998571Y-67411428D01*
X158941428Y-67411428D01*
X159398571Y-66811428D02*
X159798571Y-66811428D01*
X159541428Y-67411428D01*
%TO.C,J1*%
X127790000Y-66211428D02*
X127790000Y-66640000D01*
X127761428Y-66725714D01*
X127704285Y-66782857D01*
X127618571Y-66811428D01*
X127561428Y-66811428D01*
X128390000Y-66811428D02*
X128047142Y-66811428D01*
X128218571Y-66811428D02*
X128218571Y-66211428D01*
X128161428Y-66297142D01*
X128104285Y-66354285D01*
X128047142Y-66382857D01*
%TO.C,C2*%
X158480000Y-78954285D02*
X158451428Y-78982857D01*
X158365714Y-79011428D01*
X158308571Y-79011428D01*
X158222857Y-78982857D01*
X158165714Y-78925714D01*
X158137142Y-78868571D01*
X158108571Y-78754285D01*
X158108571Y-78668571D01*
X158137142Y-78554285D01*
X158165714Y-78497142D01*
X158222857Y-78440000D01*
X158308571Y-78411428D01*
X158365714Y-78411428D01*
X158451428Y-78440000D01*
X158480000Y-78468571D01*
X158708571Y-78468571D02*
X158737142Y-78440000D01*
X158794285Y-78411428D01*
X158937142Y-78411428D01*
X158994285Y-78440000D01*
X159022857Y-78468571D01*
X159051428Y-78525714D01*
X159051428Y-78582857D01*
X159022857Y-78668571D01*
X158680000Y-79011428D01*
X159051428Y-79011428D01*
%TO.C,J6*%
X158410000Y-105671428D02*
X158410000Y-106100000D01*
X158381428Y-106185714D01*
X158324285Y-106242857D01*
X158238571Y-106271428D01*
X158181428Y-106271428D01*
X158952857Y-105671428D02*
X158838571Y-105671428D01*
X158781428Y-105700000D01*
X158752857Y-105728571D01*
X158695714Y-105814285D01*
X158667142Y-105928571D01*
X158667142Y-106157142D01*
X158695714Y-106214285D01*
X158724285Y-106242857D01*
X158781428Y-106271428D01*
X158895714Y-106271428D01*
X158952857Y-106242857D01*
X158981428Y-106214285D01*
X159010000Y-106157142D01*
X159010000Y-106014285D01*
X158981428Y-105957142D01*
X158952857Y-105928571D01*
X158895714Y-105900000D01*
X158781428Y-105900000D01*
X158724285Y-105928571D01*
X158695714Y-105957142D01*
X158667142Y-106014285D01*
%TO.C,D1*%
X122021428Y-118912857D02*
X121421428Y-118912857D01*
X121421428Y-118770000D01*
X121450000Y-118684285D01*
X121507142Y-118627142D01*
X121564285Y-118598571D01*
X121678571Y-118570000D01*
X121764285Y-118570000D01*
X121878571Y-118598571D01*
X121935714Y-118627142D01*
X121992857Y-118684285D01*
X122021428Y-118770000D01*
X122021428Y-118912857D01*
X122021428Y-117998571D02*
X122021428Y-118341428D01*
X122021428Y-118170000D02*
X121421428Y-118170000D01*
X121507142Y-118227142D01*
X121564285Y-118284285D01*
X121592857Y-118341428D01*
D10*
%TO.C,SW2*%
X127650000Y-91662380D02*
X127650000Y-90662380D01*
X128316666Y-90662380D02*
X128507142Y-90662380D01*
X128602380Y-90710000D01*
X128697619Y-90805238D01*
X128745238Y-90995714D01*
X128745238Y-91329047D01*
X128697619Y-91519523D01*
X128602380Y-91614761D01*
X128507142Y-91662380D01*
X128316666Y-91662380D01*
X128221428Y-91614761D01*
X128126190Y-91519523D01*
X128078571Y-91329047D01*
X128078571Y-90995714D01*
X128126190Y-90805238D01*
X128221428Y-90710000D01*
X128316666Y-90662380D01*
X129364285Y-90662380D02*
X129459523Y-90662380D01*
X129554761Y-90710000D01*
X129602380Y-90757619D01*
X129650000Y-90852857D01*
X129697619Y-91043333D01*
X129697619Y-91281428D01*
X129650000Y-91471904D01*
X129602380Y-91567142D01*
X129554761Y-91614761D01*
X129459523Y-91662380D01*
X129364285Y-91662380D01*
X129269047Y-91614761D01*
X129221428Y-91567142D01*
X129173809Y-91471904D01*
X129126190Y-91281428D01*
X129126190Y-91043333D01*
X129173809Y-90852857D01*
X129221428Y-90757619D01*
X129269047Y-90710000D01*
X129364285Y-90662380D01*
%TO.C,SW1*%
X132492380Y-91662380D02*
X132159047Y-91186190D01*
X131920952Y-91662380D02*
X131920952Y-90662380D01*
X132301904Y-90662380D01*
X132397142Y-90710000D01*
X132444761Y-90757619D01*
X132492380Y-90852857D01*
X132492380Y-90995714D01*
X132444761Y-91090952D01*
X132397142Y-91138571D01*
X132301904Y-91186190D01*
X131920952Y-91186190D01*
X132873333Y-91614761D02*
X133016190Y-91662380D01*
X133254285Y-91662380D01*
X133349523Y-91614761D01*
X133397142Y-91567142D01*
X133444761Y-91471904D01*
X133444761Y-91376666D01*
X133397142Y-91281428D01*
X133349523Y-91233809D01*
X133254285Y-91186190D01*
X133063809Y-91138571D01*
X132968571Y-91090952D01*
X132920952Y-91043333D01*
X132873333Y-90948095D01*
X132873333Y-90852857D01*
X132920952Y-90757619D01*
X132968571Y-90710000D01*
X133063809Y-90662380D01*
X133301904Y-90662380D01*
X133444761Y-90710000D01*
X133730476Y-90662380D02*
X134301904Y-90662380D01*
X134016190Y-91662380D02*
X134016190Y-90662380D01*
D12*
%TO.C,J5*%
X150710000Y-85231428D02*
X150710000Y-85660000D01*
X150681428Y-85745714D01*
X150624285Y-85802857D01*
X150538571Y-85831428D01*
X150481428Y-85831428D01*
X151281428Y-85231428D02*
X150995714Y-85231428D01*
X150967142Y-85517142D01*
X150995714Y-85488571D01*
X151052857Y-85460000D01*
X151195714Y-85460000D01*
X151252857Y-85488571D01*
X151281428Y-85517142D01*
X151310000Y-85574285D01*
X151310000Y-85717142D01*
X151281428Y-85774285D01*
X151252857Y-85802857D01*
X151195714Y-85831428D01*
X151052857Y-85831428D01*
X150995714Y-85802857D01*
X150967142Y-85774285D01*
%TO.C,R1*%
X132920000Y-76681428D02*
X132720000Y-76395714D01*
X132577142Y-76681428D02*
X132577142Y-76081428D01*
X132805714Y-76081428D01*
X132862857Y-76110000D01*
X132891428Y-76138571D01*
X132920000Y-76195714D01*
X132920000Y-76281428D01*
X132891428Y-76338571D01*
X132862857Y-76367142D01*
X132805714Y-76395714D01*
X132577142Y-76395714D01*
X133491428Y-76681428D02*
X133148571Y-76681428D01*
X133320000Y-76681428D02*
X133320000Y-76081428D01*
X133262857Y-76167142D01*
X133205714Y-76224285D01*
X133148571Y-76252857D01*
%TO.C,J8*%
X161260000Y-119241428D02*
X161260000Y-119670000D01*
X161231428Y-119755714D01*
X161174285Y-119812857D01*
X161088571Y-119841428D01*
X161031428Y-119841428D01*
X161631428Y-119498571D02*
X161574285Y-119470000D01*
X161545714Y-119441428D01*
X161517142Y-119384285D01*
X161517142Y-119355714D01*
X161545714Y-119298571D01*
X161574285Y-119270000D01*
X161631428Y-119241428D01*
X161745714Y-119241428D01*
X161802857Y-119270000D01*
X161831428Y-119298571D01*
X161860000Y-119355714D01*
X161860000Y-119384285D01*
X161831428Y-119441428D01*
X161802857Y-119470000D01*
X161745714Y-119498571D01*
X161631428Y-119498571D01*
X161574285Y-119527142D01*
X161545714Y-119555714D01*
X161517142Y-119612857D01*
X161517142Y-119727142D01*
X161545714Y-119784285D01*
X161574285Y-119812857D01*
X161631428Y-119841428D01*
X161745714Y-119841428D01*
X161802857Y-119812857D01*
X161831428Y-119784285D01*
X161860000Y-119727142D01*
X161860000Y-119612857D01*
X161831428Y-119555714D01*
X161802857Y-119527142D01*
X161745714Y-119498571D01*
%TO.C,J3*%
X116700000Y-77941428D02*
X116700000Y-78370000D01*
X116671428Y-78455714D01*
X116614285Y-78512857D01*
X116528571Y-78541428D01*
X116471428Y-78541428D01*
X116928571Y-77941428D02*
X117300000Y-77941428D01*
X117100000Y-78170000D01*
X117185714Y-78170000D01*
X117242857Y-78198571D01*
X117271428Y-78227142D01*
X117300000Y-78284285D01*
X117300000Y-78427142D01*
X117271428Y-78484285D01*
X117242857Y-78512857D01*
X117185714Y-78541428D01*
X117014285Y-78541428D01*
X116957142Y-78512857D01*
X116928571Y-78484285D01*
%TO.C,R9*%
X165350000Y-108181428D02*
X165150000Y-107895714D01*
X165007142Y-108181428D02*
X165007142Y-107581428D01*
X165235714Y-107581428D01*
X165292857Y-107610000D01*
X165321428Y-107638571D01*
X165350000Y-107695714D01*
X165350000Y-107781428D01*
X165321428Y-107838571D01*
X165292857Y-107867142D01*
X165235714Y-107895714D01*
X165007142Y-107895714D01*
X165635714Y-108181428D02*
X165750000Y-108181428D01*
X165807142Y-108152857D01*
X165835714Y-108124285D01*
X165892857Y-108038571D01*
X165921428Y-107924285D01*
X165921428Y-107695714D01*
X165892857Y-107638571D01*
X165864285Y-107610000D01*
X165807142Y-107581428D01*
X165692857Y-107581428D01*
X165635714Y-107610000D01*
X165607142Y-107638571D01*
X165578571Y-107695714D01*
X165578571Y-107838571D01*
X165607142Y-107895714D01*
X165635714Y-107924285D01*
X165692857Y-107952857D01*
X165807142Y-107952857D01*
X165864285Y-107924285D01*
X165892857Y-107895714D01*
X165921428Y-107838571D01*
%TO.C,D2*%
X167567142Y-108161428D02*
X167567142Y-107561428D01*
X167710000Y-107561428D01*
X167795714Y-107590000D01*
X167852857Y-107647142D01*
X167881428Y-107704285D01*
X167910000Y-107818571D01*
X167910000Y-107904285D01*
X167881428Y-108018571D01*
X167852857Y-108075714D01*
X167795714Y-108132857D01*
X167710000Y-108161428D01*
X167567142Y-108161428D01*
X168138571Y-107618571D02*
X168167142Y-107590000D01*
X168224285Y-107561428D01*
X168367142Y-107561428D01*
X168424285Y-107590000D01*
X168452857Y-107618571D01*
X168481428Y-107675714D01*
X168481428Y-107732857D01*
X168452857Y-107818571D01*
X168110000Y-108161428D01*
X168481428Y-108161428D01*
%TO.C,R8*%
X123531428Y-115500000D02*
X123245714Y-115700000D01*
X123531428Y-115842857D02*
X122931428Y-115842857D01*
X122931428Y-115614285D01*
X122960000Y-115557142D01*
X122988571Y-115528571D01*
X123045714Y-115500000D01*
X123131428Y-115500000D01*
X123188571Y-115528571D01*
X123217142Y-115557142D01*
X123245714Y-115614285D01*
X123245714Y-115842857D01*
X123188571Y-115157142D02*
X123160000Y-115214285D01*
X123131428Y-115242857D01*
X123074285Y-115271428D01*
X123045714Y-115271428D01*
X122988571Y-115242857D01*
X122960000Y-115214285D01*
X122931428Y-115157142D01*
X122931428Y-115042857D01*
X122960000Y-114985714D01*
X122988571Y-114957142D01*
X123045714Y-114928571D01*
X123074285Y-114928571D01*
X123131428Y-114957142D01*
X123160000Y-114985714D01*
X123188571Y-115042857D01*
X123188571Y-115157142D01*
X123217142Y-115214285D01*
X123245714Y-115242857D01*
X123302857Y-115271428D01*
X123417142Y-115271428D01*
X123474285Y-115242857D01*
X123502857Y-115214285D01*
X123531428Y-115157142D01*
X123531428Y-115042857D01*
X123502857Y-114985714D01*
X123474285Y-114957142D01*
X123417142Y-114928571D01*
X123302857Y-114928571D01*
X123245714Y-114957142D01*
X123217142Y-114985714D01*
X123188571Y-115042857D01*
D10*
%TO.C,SW3*%
X119129047Y-108152380D02*
X119367142Y-109152380D01*
X119557619Y-108438095D01*
X119748095Y-109152380D01*
X119986190Y-108152380D01*
X120367142Y-108628571D02*
X120700476Y-108628571D01*
X120843333Y-109152380D02*
X120367142Y-109152380D01*
X120367142Y-108152380D01*
X120843333Y-108152380D01*
X121605238Y-108628571D02*
X121748095Y-108676190D01*
X121795714Y-108723809D01*
X121843333Y-108819047D01*
X121843333Y-108961904D01*
X121795714Y-109057142D01*
X121748095Y-109104761D01*
X121652857Y-109152380D01*
X121271904Y-109152380D01*
X121271904Y-108152380D01*
X121605238Y-108152380D01*
X121700476Y-108200000D01*
X121748095Y-108247619D01*
X121795714Y-108342857D01*
X121795714Y-108438095D01*
X121748095Y-108533333D01*
X121700476Y-108580952D01*
X121605238Y-108628571D01*
X121271904Y-108628571D01*
D12*
%TO.C,R10*%
X158391428Y-71925714D02*
X158105714Y-72125714D01*
X158391428Y-72268571D02*
X157791428Y-72268571D01*
X157791428Y-72040000D01*
X157820000Y-71982857D01*
X157848571Y-71954285D01*
X157905714Y-71925714D01*
X157991428Y-71925714D01*
X158048571Y-71954285D01*
X158077142Y-71982857D01*
X158105714Y-72040000D01*
X158105714Y-72268571D01*
X158391428Y-71354285D02*
X158391428Y-71697142D01*
X158391428Y-71525714D02*
X157791428Y-71525714D01*
X157877142Y-71582857D01*
X157934285Y-71640000D01*
X157962857Y-71697142D01*
X157791428Y-70982857D02*
X157791428Y-70925714D01*
X157820000Y-70868571D01*
X157848571Y-70840000D01*
X157905714Y-70811428D01*
X158020000Y-70782857D01*
X158162857Y-70782857D01*
X158277142Y-70811428D01*
X158334285Y-70840000D01*
X158362857Y-70868571D01*
X158391428Y-70925714D01*
X158391428Y-70982857D01*
X158362857Y-71040000D01*
X158334285Y-71068571D01*
X158277142Y-71097142D01*
X158162857Y-71125714D01*
X158020000Y-71125714D01*
X157905714Y-71097142D01*
X157848571Y-71068571D01*
X157820000Y-71040000D01*
X157791428Y-70982857D01*
D13*
%TO.C,R2*%
X127855000Y-78857064D02*
X127855000Y-78402936D01*
X129325000Y-78857064D02*
X129325000Y-78402936D01*
%TO.C,U2*%
X161300000Y-77860000D02*
X163250000Y-77860000D01*
X161300000Y-72740000D02*
X163250000Y-72740000D01*
X161300000Y-77860000D02*
X159350000Y-77860000D01*
X161300000Y-72740000D02*
X157850000Y-72740000D01*
%TO.C,R3*%
X125637064Y-109205000D02*
X125182936Y-109205000D01*
X125637064Y-107735000D02*
X125182936Y-107735000D01*
%TO.C,J4*%
X161770000Y-105790000D02*
X161770000Y-95040000D01*
X160460000Y-107090000D02*
X160460000Y-78890000D01*
X160070000Y-84100000D02*
X159070000Y-83600000D01*
X161770000Y-95040000D02*
X160460000Y-95040000D01*
X169580000Y-78890000D02*
X169580000Y-107090000D01*
X159070000Y-83600000D02*
X159070000Y-84600000D01*
X169580000Y-107090000D02*
X160460000Y-107090000D01*
X159070000Y-84600000D02*
X160070000Y-84100000D01*
X160460000Y-78890000D02*
X169580000Y-78890000D01*
X161770000Y-80190000D02*
X168270000Y-80190000D01*
X168270000Y-80190000D02*
X168270000Y-105790000D01*
X161770000Y-90940000D02*
X161770000Y-80190000D01*
X161770000Y-95040000D02*
X161770000Y-95040000D01*
X168270000Y-105790000D02*
X161770000Y-105790000D01*
X160460000Y-90940000D02*
X161770000Y-90940000D01*
%TO.C,U1*%
X154380000Y-87130000D02*
X155280000Y-87130000D01*
X135930000Y-105280000D02*
X136430000Y-105280000D01*
X154280000Y-105280000D02*
X155130000Y-105280000D01*
X155130000Y-87280000D02*
X155130000Y-88630000D01*
X155280000Y-105430000D02*
X155280000Y-104430000D01*
X155130000Y-105280000D02*
X155130000Y-103980000D01*
X135930000Y-87280000D02*
X136430000Y-87280000D01*
X135930000Y-87280000D02*
X135930000Y-105280000D01*
X155280000Y-105430000D02*
X154280000Y-105430000D01*
X136430000Y-87130000D02*
X135780000Y-87130000D01*
X135780000Y-87130000D02*
X135780000Y-88130000D01*
X155280000Y-87130000D02*
X155280000Y-88130000D01*
X135780000Y-105480000D02*
X135780000Y-104380000D01*
X154380000Y-87280000D02*
X155130000Y-87280000D01*
%TO.C,R11*%
X168455000Y-74626263D02*
X168455000Y-76073737D01*
X165745000Y-74626263D02*
X165745000Y-76073737D01*
%TO.C,J2*%
X140940000Y-119590000D02*
X140940000Y-118280000D01*
X128890000Y-110470000D02*
X157090000Y-110470000D01*
X133600000Y-120980000D02*
X134600000Y-120980000D01*
X128890000Y-119590000D02*
X128890000Y-110470000D01*
X140940000Y-118280000D02*
X130190000Y-118280000D01*
X134100000Y-119980000D02*
X133600000Y-120980000D01*
X157090000Y-119590000D02*
X128890000Y-119590000D01*
X145040000Y-118280000D02*
X145040000Y-119590000D01*
X145040000Y-118280000D02*
X145040000Y-118280000D01*
X155790000Y-118280000D02*
X145040000Y-118280000D01*
X157090000Y-110470000D02*
X157090000Y-119590000D01*
X130190000Y-118280000D02*
X130190000Y-111780000D01*
X130190000Y-111780000D02*
X155790000Y-111780000D01*
X155790000Y-111780000D02*
X155790000Y-118280000D01*
X134600000Y-120980000D02*
X134100000Y-119980000D01*
%TO.C,C1*%
X137331248Y-108555000D02*
X137853752Y-108555000D01*
X137331248Y-107085000D02*
X137853752Y-107085000D01*
%TO.C,J7*%
X163330000Y-69830000D02*
X163330000Y-67170000D01*
X158130000Y-69830000D02*
X158130000Y-68500000D01*
X159460000Y-69830000D02*
X158130000Y-69830000D01*
X160730000Y-69830000D02*
X163330000Y-69830000D01*
X160730000Y-67170000D02*
X163330000Y-67170000D01*
X160730000Y-69830000D02*
X160730000Y-67170000D01*
%TO.C,J1*%
X151890000Y-66067500D02*
X152390000Y-65067500D01*
X140950000Y-67767500D02*
X140950000Y-67767500D01*
X130200000Y-67767500D02*
X140950000Y-67767500D01*
X145050000Y-67767500D02*
X155800000Y-67767500D01*
X155800000Y-74267500D02*
X130200000Y-74267500D01*
X151390000Y-65067500D02*
X151890000Y-66067500D01*
X155800000Y-67767500D02*
X155800000Y-74267500D01*
X128900000Y-75577500D02*
X128900000Y-66457500D01*
X130200000Y-74267500D02*
X130200000Y-67767500D01*
X128900000Y-66457500D02*
X157100000Y-66457500D01*
X157100000Y-75577500D02*
X128900000Y-75577500D01*
X157100000Y-66457500D02*
X157100000Y-75577500D01*
X140950000Y-67767500D02*
X140950000Y-66457500D01*
X145050000Y-66457500D02*
X145050000Y-67767500D01*
X152390000Y-65067500D02*
X151390000Y-65067500D01*
%TO.C,C2*%
X157875000Y-81038752D02*
X157875000Y-80516248D01*
X159345000Y-81038752D02*
X159345000Y-80516248D01*
%TO.C,J6*%
X159315000Y-102975000D02*
X159315000Y-90215000D01*
X156655000Y-105575000D02*
X156655000Y-104245000D01*
X157985000Y-105575000D02*
X156655000Y-105575000D01*
X159315000Y-90215000D02*
X156655000Y-90215000D01*
X156655000Y-102975000D02*
X156655000Y-90215000D01*
X159315000Y-102975000D02*
X156655000Y-102975000D01*
%TO.C,D1*%
X122202500Y-117335000D02*
X122202500Y-119605000D01*
X126262500Y-117335000D02*
X122202500Y-117335000D01*
X122202500Y-119605000D02*
X126262500Y-119605000D01*
%TO.C,SW2*%
X130440000Y-88610000D02*
X126740000Y-88610000D01*
X130440000Y-82490000D02*
X130440000Y-88610000D01*
X126740000Y-88610000D02*
X126740000Y-82490000D01*
X126740000Y-82490000D02*
X130440000Y-82490000D01*
%TO.C,SW1*%
X131190000Y-82480000D02*
X134890000Y-82480000D01*
X131190000Y-88600000D02*
X131190000Y-82480000D01*
X134890000Y-88600000D02*
X131190000Y-88600000D01*
X134890000Y-82480000D02*
X134890000Y-88600000D01*
%TO.C,J5*%
X150315000Y-82785000D02*
X150315000Y-85445000D01*
X150315000Y-85445000D02*
X137555000Y-85445000D01*
X137555000Y-82785000D02*
X137555000Y-85445000D01*
X152915000Y-84115000D02*
X152915000Y-85445000D01*
X152915000Y-85445000D02*
X151585000Y-85445000D01*
X150315000Y-82785000D02*
X137555000Y-82785000D01*
%TO.C,R1*%
X132295000Y-78837064D02*
X132295000Y-78382936D01*
X133765000Y-78837064D02*
X133765000Y-78382936D01*
%TO.C,J8*%
X158230000Y-119330000D02*
X158230000Y-109050000D01*
X160830000Y-116730000D02*
X160830000Y-119330000D01*
X163430000Y-119330000D02*
X162100000Y-119330000D01*
X163430000Y-109050000D02*
X158230000Y-109050000D01*
X163430000Y-116730000D02*
X163430000Y-109050000D01*
X163430000Y-118000000D02*
X163430000Y-119330000D01*
X163430000Y-116730000D02*
X160830000Y-116730000D01*
X160830000Y-119330000D02*
X158230000Y-119330000D01*
%TO.C,J3*%
X117780000Y-90920000D02*
X117780000Y-80170000D01*
X116080000Y-84080000D02*
X115080000Y-83580000D01*
X117780000Y-105770000D02*
X117780000Y-95020000D01*
X115080000Y-83580000D02*
X115080000Y-84580000D01*
X124280000Y-105770000D02*
X117780000Y-105770000D01*
X117780000Y-95020000D02*
X117780000Y-95020000D01*
X115080000Y-84580000D02*
X116080000Y-84080000D01*
X125590000Y-78870000D02*
X125590000Y-107070000D01*
X117780000Y-95020000D02*
X116470000Y-95020000D01*
X116470000Y-107070000D02*
X116470000Y-78870000D01*
X116470000Y-78870000D02*
X125590000Y-78870000D01*
X117780000Y-80170000D02*
X124280000Y-80170000D01*
X124280000Y-80170000D02*
X124280000Y-105770000D01*
X116470000Y-90920000D02*
X117780000Y-90920000D01*
X125590000Y-107070000D02*
X116470000Y-107070000D01*
%TO.C,R9*%
X166165000Y-109922936D02*
X166165000Y-110377064D01*
X164695000Y-109922936D02*
X164695000Y-110377064D01*
%TO.C,D2*%
X166845000Y-113197500D02*
X169115000Y-113197500D01*
X166845000Y-109137500D02*
X166845000Y-113197500D01*
X169115000Y-113197500D02*
X169115000Y-109137500D01*
%TO.C,R8*%
X125747064Y-114675000D02*
X125292936Y-114675000D01*
X125747064Y-116145000D02*
X125292936Y-116145000D01*
%TO.C,SW3*%
X119340000Y-109850000D02*
X125460000Y-109850000D01*
X125460000Y-113550000D02*
X119340000Y-113550000D01*
X119340000Y-113550000D02*
X119340000Y-109850000D01*
X125460000Y-109850000D02*
X125460000Y-113550000D01*
%TO.C,R10*%
X160427064Y-70765000D02*
X159972936Y-70765000D01*
X160427064Y-72235000D02*
X159972936Y-72235000D01*
%TD*%
M02*
