%TF.GenerationSoftware,KiCad,Pcbnew,6.0.11+dfsg-1~bpo11+1*%
%TF.CreationDate,2023-05-15T10:42:06+02:00*%
%TF.ProjectId,dvert_12,64766572-745f-4313-922e-6b696361645f,rev?*%
%TF.SameCoordinates,Original*%
%TF.FileFunction,Drillmap*%
%TF.FilePolarity,Positive*%
%FSLAX45Y45*%
G04 Gerber Fmt 4.5, Leading zero omitted, Abs format (unit mm)*
G04 Created by KiCad (PCBNEW 6.0.11+dfsg-1~bpo11+1) date 2023-05-15 10:42:06*
%MOMM*%
%LPD*%
G01*
G04 APERTURE LIST*
%ADD10C,0.100000*%
%ADD11C,0.200000*%
G04 APERTURE END LIST*
D10*
X12050000Y-6900000D02*
G75*
G03*
X12050000Y-6900000I-150000J0D01*
G01*
X11600000Y-12000000D02*
X17000000Y-12000000D01*
X17000000Y-12000000D02*
X17000000Y-6600000D01*
X17000000Y-6600000D02*
X11600000Y-6600000D01*
X11600000Y-6600000D02*
X11600000Y-12000000D01*
X16850000Y-11700000D02*
G75*
G03*
X16850000Y-11700000I-150000J0D01*
G01*
X16850000Y-6900000D02*
G75*
G03*
X16850000Y-6900000I-150000J0D01*
G01*
X12050000Y-11700000D02*
G75*
G03*
X12050000Y-11700000I-150000J0D01*
G01*
D11*
X11852619Y-12315476D02*
X11852619Y-12115476D01*
X11900238Y-12115476D01*
X11928809Y-12125000D01*
X11947857Y-12144048D01*
X11957381Y-12163095D01*
X11966905Y-12201190D01*
X11966905Y-12229762D01*
X11957381Y-12267857D01*
X11947857Y-12286905D01*
X11928809Y-12305952D01*
X11900238Y-12315476D01*
X11852619Y-12315476D01*
X12052619Y-12315476D02*
X12052619Y-12182143D01*
X12052619Y-12220238D02*
X12062143Y-12201190D01*
X12071667Y-12191667D01*
X12090714Y-12182143D01*
X12109762Y-12182143D01*
X12176428Y-12315476D02*
X12176428Y-12182143D01*
X12176428Y-12115476D02*
X12166905Y-12125000D01*
X12176428Y-12134524D01*
X12185952Y-12125000D01*
X12176428Y-12115476D01*
X12176428Y-12134524D01*
X12300238Y-12315476D02*
X12281190Y-12305952D01*
X12271667Y-12286905D01*
X12271667Y-12115476D01*
X12405000Y-12315476D02*
X12385952Y-12305952D01*
X12376428Y-12286905D01*
X12376428Y-12115476D01*
X12633571Y-12315476D02*
X12633571Y-12115476D01*
X12700238Y-12258333D01*
X12766905Y-12115476D01*
X12766905Y-12315476D01*
X12947857Y-12315476D02*
X12947857Y-12210714D01*
X12938333Y-12191667D01*
X12919286Y-12182143D01*
X12881190Y-12182143D01*
X12862143Y-12191667D01*
X12947857Y-12305952D02*
X12928809Y-12315476D01*
X12881190Y-12315476D01*
X12862143Y-12305952D01*
X12852619Y-12286905D01*
X12852619Y-12267857D01*
X12862143Y-12248809D01*
X12881190Y-12239286D01*
X12928809Y-12239286D01*
X12947857Y-12229762D01*
X13043095Y-12182143D02*
X13043095Y-12382143D01*
X13043095Y-12191667D02*
X13062143Y-12182143D01*
X13100238Y-12182143D01*
X13119286Y-12191667D01*
X13128809Y-12201190D01*
X13138333Y-12220238D01*
X13138333Y-12277381D01*
X13128809Y-12296428D01*
X13119286Y-12305952D01*
X13100238Y-12315476D01*
X13062143Y-12315476D01*
X13043095Y-12305952D01*
X13224048Y-12296428D02*
X13233571Y-12305952D01*
X13224048Y-12315476D01*
X13214524Y-12305952D01*
X13224048Y-12296428D01*
X13224048Y-12315476D01*
X13224048Y-12191667D02*
X13233571Y-12201190D01*
X13224048Y-12210714D01*
X13214524Y-12201190D01*
X13224048Y-12191667D01*
X13224048Y-12210714D01*
M02*
