M48
; DRILL file {KiCad 6.0.11+dfsg-1~bpo11+1} date Thu 06 Apr 2023 13:48:41 CEST
; FORMAT={-:-/ absolute / metric / decimal}
; #@! TF.CreationDate,2023-04-06T13:48:41+02:00
; #@! TF.GenerationSoftware,Kicad,Pcbnew,6.0.11+dfsg-1~bpo11+1
; #@! TF.FileFunction,Plated,1,2,PTH
FMAT,2
METRIC
; #@! TA.AperFunction,Plated,PTH,ViaDrill
T1C0.400
; #@! TA.AperFunction,Plated,PTH,ComponentDrill
T2C1.000
%
G90
G05
T1
X155.705Y-96.935
X156.84Y-95.66
X157.0Y-87.07
X158.13Y-91.82
X161.2Y-90.46
X163.75Y-87.54
T2
X122.417Y-91.82
X122.417Y-94.36
X122.417Y-96.9
X122.417Y-99.44
X122.417Y-101.98
X122.417Y-104.52
X122.417Y-107.06
X122.417Y-109.6
X124.957Y-91.82
X124.957Y-94.36
X124.957Y-96.9
X124.957Y-99.44
X124.957Y-101.98
X124.957Y-104.52
X124.957Y-107.06
X124.957Y-109.6
X138.072Y-75.73
X138.072Y-78.27
X138.072Y-122.855
X138.072Y-125.395
X140.612Y-75.73
X140.612Y-78.27
X140.612Y-122.855
X140.612Y-125.395
X143.153Y-75.73
X143.153Y-78.27
X143.153Y-122.855
X143.153Y-125.395
X145.692Y-75.73
X145.692Y-78.27
X145.692Y-122.855
X145.692Y-125.395
X148.232Y-75.73
X148.232Y-78.27
X148.232Y-122.855
X148.232Y-125.395
X150.772Y-75.73
X150.772Y-78.27
X150.772Y-122.855
X150.772Y-125.395
X153.312Y-75.73
X153.312Y-78.27
X153.312Y-122.855
X153.312Y-125.395
X155.852Y-75.73
X155.852Y-78.27
X155.852Y-122.855
X155.852Y-125.395
X159.745Y-83.385
X159.745Y-85.925
X162.285Y-83.385
X162.285Y-85.925
X164.825Y-83.385
X164.825Y-85.925
X169.072Y-91.865
X169.072Y-94.405
X169.072Y-96.945
X169.072Y-99.485
X169.072Y-102.025
X169.072Y-104.565
X169.072Y-107.105
X169.072Y-109.645
X171.612Y-91.865
X171.612Y-94.405
X171.612Y-96.945
X171.612Y-99.485
X171.612Y-102.025
X171.612Y-104.565
X171.612Y-107.105
X171.612Y-109.645
T0
M30
